<svg xmlns="http://www.w3.org/2000/svg" width="24" height="24" viewBox="0 0 24 24" fill="none">
  <path fill-rule="nonzero" clip-rule="nonzero" d="M8.98569 3.47641 L10.2467 5.25989 C11.0574 6.40656 10.9889 8.00073 10.0214 9.0194 L9.7765 9.27719 L9.77436 9.28299 C9.76142 9.31935 9.7287 9.43513 9.7609 9.65489 C9.82765 10.1104 10.1793 11.0361 11.607 12.5392 C13.0391 14.0469 13.9078 14.4023 14.3103 14.4677 C14.484 14.4959 14.5748 14.4714 14.6038 14.4612 L15.0124 14.031 C15.8862 13.111 17.2485 12.9298 18.347 13.5621 L20.2575 14.6617 C21.8904 15.6016 22.2705 17.9008 20.9655 19.2747 L19.545 20.7703 C19.1016 21.2371 18.497 21.6355 17.75 21.7092 C15.9261 21.8893 11.701 21.6548 7.27161 16.9915 C3.13844 12.64 2.35326 8.85513 2.25401 7.00591 C2.20497 6.09224 2.61224 5.30855 3.1481 4.7444 L4.7177 3.0919 C5.94388 1.80096 7.9721 2.04283 8.98569 3.47641 Z M 5.80528 4.12493 C 6.32812 3.57449 7.24855 3.61773 7.7609 4.34237 L 9.02189 6.12586 C 9.44403 6.72292 9.3793 7.51731 8.93376 7.98637 L 8.64695 8.28834 L 9.17861 8.79333 C 8.64694 8.28835 8.64625 8.28907 8.64556 8.2898 L 8.64415 8.2913 L 8.64125 8.29441 L 8.63514 8.30104 L 8.62182 8.31603 C 8.61246 8.32678 8.60219 8.33909 8.5912 8.35298 C 8.56922 8.38075 8.54435 8.41489 8.51826 8.45566 C 8.46594 8.53742 8.40921 8.64508 8.36116 8.78011 C 8.26346 9.05468 8.21022 9.41827 8.27675 9.87234 C 8.40746 10.7645 8.99202 11.9642 10.5194 13.5722 C 12.0422 15.1755 13.1924 15.8058 14.0699 15.9483 C 14.5201 16.0214 14.8846 15.963 15.1606 15.8541 C 15.2955 15.8009 15.4023 15.7384 15.4824 15.6816 C 15.5223 15.6533 15.5556 15.6264 15.5825 15.6028 C 15.5959 15.591 15.6078 15.5801 15.6181 15.5701 L 15.6324 15.556 L 15.6388 15.5495 L 15.6417 15.5464 L 15.6432 15.545 C 15.6438 15.5442 15.6445 15.5435 15.1174 15.0428 L 15.6446 15.5435 L 16.1 15.064 C 16.4854 14.6582 17.086 14.567 17.5987 14.8621 L 19.5092 15.9618 C 20.3301 16.4342 20.4907 17.5965 19.8779 18.2417 L 18.4574 19.7373 C 18.1783 20.031 17.8864 20.1885 17.6026 20.2165 C 16.1676 20.3581 12.4234 20.2373 8.35919 15.9584 C 4.48307 11.8776 3.83289 8.43533 3.75185 6.92552 C 3.73042 6.52621 3.90429 6.12632 4.23568 5.77743 L 5.80528 4.12493 Z" fill="#FFFFFF" />
  <path d="M15.75 3.99978C15.75 3.58556 15.4143 3.24978 15 3.24978C14.5858 3.24978 14.25 3.58556 14.25 3.99978L14.25 5.05178C14.25 5.95026 14.25 6.69947 14.33 7.29426C14.4144 7.92205 14.6 8.48885 15.0555 8.94432C15.511 9.39979 16.0778 9.58546 16.7056 9.66987C17.1662 9.7318 17.7195 9.74575 18.3631 9.74888L17.5315 10.4141C17.2081 10.6729 17.1556 11.1449 17.4144 11.4683C17.6731 11.7917 18.1451 11.8442 18.4686 11.5854L20.9686 9.58543C21.1465 9.4431 21.25 9.22761 21.25 8.99978C21.25 8.77194 21.1465 8.55645 20.9686 8.41412L18.4686 6.41412C18.1451 6.15537 17.6731 6.20781 17.4144 6.53125C17.1556 6.8547 17.2081 7.32667 17.5315 7.58543L18.3606 8.24866C17.7357 8.24539 17.2729 8.23265 16.9054 8.18324C16.444 8.1212 16.2465 8.01398 16.1162 7.88366C15.9858 7.75334 15.8786 7.55585 15.8166 7.09438C15.7516 6.61135 15.75 5.96379 15.75 4.99978V3.99978Z" fill="#FFFFFF" />
</svg>