<svg xmlns="http://www.w3.org/2000/svg" width="24" height="24" viewBox="0 0 24 24" fill="none">
  <path d="M16.5303 3.46967C16.2374 3.17678 15.7625 3.17678 15.4696 3.46967C15.1767 3.76256 15.1767 4.23744 15.4696 4.53033L16.9393 6.00001L15.4696 7.46967C15.1768 7.76256 15.1768 8.23744 15.4696 8.53033C15.7625 8.82322 16.2374 8.82322 16.5303 8.53033L18 7.06067L19.4696 8.53031C19.7625 8.82321 20.2374 8.82321 20.5303 8.53031C20.8232 8.23742 20.8232 7.76255 20.5303 7.46965L19.0606 6.00001L20.5303 4.53035C20.8232 4.23745 20.8232 3.76258 20.5303 3.46969C20.2374 3.17679 19.7625 3.17679 19.4696 3.46969L18 4.93935L16.5303 3.46967Z" fill="#FFFFFF" />
  <path fill-rule="nonzero" clip-rule="nonzero" d="M10.6925 4.95067 L11.3415 6.1136 C12.1054 7.48242 11.7799 9.2095 10.6616 10.3415 C10.6467 10.3619 10.5677 10.4768 10.5579 10.6776 C10.5454 10.9339 10.6364 11.5267 11.5548 12.4452 C12.4729 13.3633 13.0656 13.4545 13.3221 13.4421 C13.5231 13.4323 13.6381 13.3533 13.6585 13.3384 C14.7905 12.2201 16.5176 11.8946 17.8864 12.6585 L19.0493 13.3075 C21.1454 14.4773 21.2731 17.3125 19.5931 18.9925 C18.6944 19.8912 17.4995 20.6897 16.0953 20.7429 C14.0144 20.8218 10.5591 20.2844 7.13735 16.8626 C3.71556 13.4408 3.17818 9.98561 3.25706 7.90468 C3.3103 6.50048 4.10879 5.30556 5.00745 4.4069 C6.68752 2.72683 9.52266 2.85455 10.6925 4.95067 Z M 6.06811 5.46756 C 7.17394 4.36173 8.78363 4.60832 9.38265 5.68167 L 10.0317 6.8446 C 10.4354 7.56801 10.2977 8.58415 9.58435 9.29747 C 9.51471 9.36712 9.09846 9.81276 9.0597 10.6043 C 9.02003 11.4146 9.38395 12.3956 10.4942 13.5058 C 11.604 14.6157 12.5847 14.9797 13.395 14.9403 C 14.1864 14.9018 14.6322 14.4858 14.7023 14.4158 C 15.4156 13.7025 16.432 13.5646 17.1554 13.9683 L 18.3183 14.6173 C 19.3916 15.2163 19.6382 16.826 18.5324 17.9319 C 17.7571 18.7072 16.9013 19.2113 16.0385 19.244 C 14.3031 19.3098 11.2774 18.8813 8.19801 15.802 C 5.11864 12.7226 4.6902 9.69684 4.75599 7.9615 C 4.7887 7.09872 5.29276 6.24291 6.06811 5.46756 Z" fill="#FFFFFF" />
</svg>