<svg xmlns="http://www.w3.org/2000/svg" width="24" height="24" viewBox="0 0 24 24" fill="none">
  <path fill-rule="nonzero" clip-rule="nonzero" d="M 17 2.75 C 14.6528 2.75 12.75 4.65279 12.75 7 C 12.75 7.68122 12.9098 8.32298 13.1931 8.89186 C 13.3521 9.2111 13.418 9.60224 13.3131 9.99416 L 13.06 10.94 L 14.0059 10.6869 C 14.3978 10.5821 14.7889 10.6479 15.1082 10.8069 C 15.6771 11.0903 16.3188 11.25 17 11.25 C 19.3472 11.25 21.25 9.34721 21.25 7 C 21.25 4.65279 19.3472 2.75 17 2.75 Z M 11.25 7 C 11.25 3.82436 13.8244 1.25 17 1.25 C 20.1757 1.25 22.75 3.82436 22.75 7 C 22.75 10.1756 20.1757 12.75 17 12.75 C 16.0816 12.75 15.2114 12.5341 14.4394 12.1496 C 14.4221 12.141 14.4082 12.1376 14.3998 12.1366 C 14.3959 12.1361 14.3936 12.1362 14.3926 12.1362 L 13.2806 12.4338 C 12.2399 12.7122 11.2878 11.7601 11.5663 10.7195 L 11.8638 9.60744 C 11.8639 9.60649 11.8639 9.60415 11.8634 9.6002 C 11.8624 9.5918 11.859 9.5779 11.8504 9.56061 C 11.4659 8.78866 11.25 7.91847 11.25 7 Z M 3.7177 4.09213 C 4.94388 2.80119 6.9721 3.04305 7.98569 4.47663 L 9.24668 6.26012 C 10.0574 7.40678 9.98893 9.00095 9.02135 10.0196 L 8.7765 10.2774 C 8.77582 10.2792 8.7751 10.2811 8.77436 10.2832 C 8.76142 10.3196 8.7287 10.4354 8.7609 10.6551 C 8.82765 11.1106 9.1793 12.0363 10.607 13.5394 C 12.0391 15.0472 12.9078 15.4025 13.3103 15.4679 C 13.484 15.4961 13.5748 15.4716 13.6038 15.4614 L 14.0124 15.0312 C 14.8862 14.1113 16.2485 13.93 17.347 14.5623 L 19.2575 15.662 C 20.8904 16.6019 21.2705 18.901 19.9655 20.2749 L 18.545 21.7705 C 18.1016 22.2373 17.497 22.6357 16.75 22.7095 C 14.9261 22.8895 10.701 22.655 6.27161 17.9917 C 2.13844 13.6403 1.35326 9.85536 1.25401 8.00613 C 1.20497 7.09246 1.61224 6.30877 2.14809 5.74462 L 2.69189 6.26114 L 2.1481 5.74462 L 3.7177 4.09213 Z M6.7609 5.3426 L8.02189 7.12608 C8.44403 7.72315 8.3793 8.51753 7.93376 8.9866 L7.64695 9.28856 L8.19074 9.80507 C7.64695 9.28856 7.64626 9.28929 7.64556 9.29002 L7.64415 9.29152 L7.64125 9.29463 L7.63514 9.30127 L7.62182 9.31625 C7.61246 9.32701 7.60219 9.33931 7.5912 9.3532 C7.56922 9.38098 7.54435 9.41512 7.51826 9.45588 C7.46594 9.53764 7.40921 9.64531 7.36116 9.78033 C7.26346 10.0549 7.21022 10.4185 7.27675 10.8726 C7.40746 11.7647 7.99202 12.9644 9.51937 14.5724 C11.0422 16.1757 12.1923 16.806 13.0699 16.9485 C13.5201 17.0216 13.8846 16.9632 14.1606 16.8544 C14.2955 16.8012 14.4022 16.7387 14.4824 16.6819 C14.5223 16.6535 14.5556 16.6266 14.5825 16.6031 C14.5959 16.5913 14.6078 16.5803 14.6181 16.5703 L14.6324 16.5562 L14.6388 16.5497 L14.6417 16.5467 L14.6432 16.5452 C14.6439 16.5444 14.6445 16.5437 14.1008 16.0272 L14.6445 16.5437 L15.1 16.0642 C15.4854 15.6584 16.086 15.5672 16.5987 15.8623 L18.5092 16.962 C19.3301 17.4345 19.4907 18.5968 18.8779 19.2419 L17.4574 20.7375 C17.1783 21.0313 16.8864 21.1887 16.6026 21.2167 C15.1676 21.3584 11.4234 21.2375 7.35919 16.9587 C3.48307 12.8778 2.83289 9.43555 2.75185 7.92574 C2.73042 7.52644 2.90429 7.12654 3.23568 6.77765 L4.80528 5.12516 C5.32812 4.57471 6.24855 4.61795 6.7609 5.3426 Z" fill="#FFFFFF" />
</svg>