<svg xmlns="http://www.w3.org/2000/svg" width="24" height="24" viewBox="0 0 24 24" fill="none">
  <path fill-rule="nonzero" clip-rule="nonzero" d="M 12 7.75 C 7.43534 7.75 4.87272 9.67556 3.63293 11.0131 C 3.01079 11.6842 2.75 12.6999 2.75 13.8504 C 2.75 15.5042 4.14034 16.5337 5.40255 16.1757 L 6.74225 15.7957 C 7.59203 15.5547 8.25 14.6868 8.25 13.6185 C 8.25 13.5201 8.27072 12.8926 8.81935 12.2875 C 9.38063 11.6683 10.3644 11.2139 12 11.2139 C 13.6356 11.2139 14.6193 11.6683 15.1806 12.2874 C 15.7293 12.8926 15.75 13.52 15.75 13.6185 V 13.6185 C 15.75 14.6868 16.408 15.5547 17.2577 15.7958 L 18.5974 16.1757 C 19.8597 16.5337 21.25 15.5042 21.25 13.8504 C 21.25 12.6999 20.9892 11.6842 20.3671 11.0131 C 19.1273 9.67556 16.5647 7.75 12 7.75 Z M 2.53285 9.99333 C 4.00774 8.40221 6.95109 6.25 12 6.25 C 17.0489 6.25 19.9923 8.40221 21.4672 9.99334 C 22.4576 11.0619 22.75 12.5255 22.75 13.8504 C 22.75 16.3163 20.5772 18.2964 18.1882 17.6188 L 16.8484 17.2388 C 15.2871 16.796 14.2591 15.2918 14.2501 13.6405 C 14.2463 13.6147 14.22 13.461 14.0693 13.2949 C 13.8806 13.0867 13.3644 12.7139 12 12.7139 C 10.6356 12.7139 10.1194 13.0867 9.93066 13.2949 C 9.78005 13.4611 9.75367 13.6147 9.74994 13.6405 C 9.74089 15.2918 8.71288 16.796 7.15155 17.2388 L 5.81185 17.6188 C 3.42281 18.2964 1.25 16.3163 1.25 13.8504 C 1.25 12.5255 1.54238 11.0619 2.53285 9.99333 Z" fill="#FFFFFF" />
</svg>