<svg xmlns="http://www.w3.org/2000/svg" width="24" height="24" viewBox="0 0 24 24" fill="none">
  <path fill-rule="nonzero" clip-rule="nonzero" d="M 6.9469 16.5173 L 5.6072 16.8972 C 3.78158 17.415 2 15.9102 2 13.8504 C 2 12.6127 2.27659 11.373 3.08289 10.5032 C 4.1279 9.37579 6.00015 7.90786 9 7.29199 V 13.6185 C 9 14.9826 8.15591 16.1743 6.9469 16.5173 Z M15 13.6185 L15 7.29199 C17.9998 7.90786 19.8721 9.3758 20.9171 10.5032 C21.7234 11.373 22 12.6127 22 13.8504 C22 15.9102 20.2184 17.415 18.3928 16.8972 L17.0531 16.5173 C15.8441 16.1743 15 14.9826 15 13.6185 Z" fill="#FFFFFF" />
  <path opacity="0.5" d="M9 13.6185C9 13.6185 9 11.9639 12 11.9639C15 11.9639 15 13.6185 15 13.6185V7.29203C14.1034 7.10796 13.1061 7 12 7C10.8939 7 9.8966 7.10796 9 7.29203V13.6185Z" fill="#FFFFFF" />
</svg>