<svg xmlns="http://www.w3.org/2000/svg" width="24" height="24" viewBox="0 0 24 24" fill="none">
  <path fill-rule="nonzero" clip-rule="nonzero" d="M 8 12.862 L 8 13.4785 C 8 14.3308 7.42329 15.0826 6.57997 15.3297 L 4.57997 15.9159 C 3.29561 16.2923 2 15.3626 2 14.0646 L 2 12.1417 C 2 11.6528 2.1247 11.1707 2.44083 10.7892 C 3.17325 9.90523 4.87862 8.28205 8 7.47782 V 12.862 Z M16 12.862 L16 7.38232 C18.8785 7.97567 20.5528 9.12621 21.3703 9.85628 C21.8162 10.2545 22 10.8316 22 11.4185 L22 13.5432 C22 14.727 20.9105 15.6332 19.7004 15.4558 L17.7004 15.1628 C16.7227 15.0195 16 14.2066 16 13.2502 L16 12.862 Z" fill="#FFFFFF" />
  <path opacity="0.5" d="M12 11.3963C16 11.3963 16 12.8617 16 12.8617V7.38205C14.862 7.14749 13.5359 7 12 7C10.4641 7 9.13797 7.18435 8 7.47755V12.8617C8 12.8617 8 11.3963 12 11.3963Z" fill="#FFFFFF" />
</svg>