<svg xmlns="http://www.w3.org/2000/svg" width="24" height="24" viewBox="0 0 24 24" fill="none">
  <path fill-rule="nonzero" clip-rule="nonzero" d="M 12 7.75 C 6.51318 7.75 3.90179 10.2012 3.01834 11.2674 C 2.84345 11.4785 2.75 11.7741 2.75 12.1414 L 2.75 14.0643 C 2.75 14.8281 3.5319 15.4412 4.36905 15.1959 L 6.36905 14.6097 C 6.90669 14.4522 7.25 13.9833 7.25 13.4782 L 7.25 12.8617 L 8 12.8617 C 7.25 12.8617 7.25 12.8607 7.25 12.8597 L 7.25001 12.8576 L 7.25004 12.8534 L 7.25019 12.8444 L 7.25085 12.8245 C 7.25147 12.8104 7.25248 12.7946 7.25406 12.7773 C 7.25722 12.7426 7.26263 12.7016 7.27167 12.6552 C 7.2898 12.5622 7.32239 12.4484 7.37982 12.3222 C 7.49703 12.0645 7.7059 11.7811 8.05672 11.524 C 8.74267 11.0214 9.93056 10.6463 12 10.6463 C 14.0694 10.6463 15.2573 11.0214 15.9433 11.524 C 16.2941 11.7811 16.503 12.0645 16.6202 12.3222 C 16.6776 12.4484 16.7102 12.5622 16.7283 12.6552 C 16.7374 12.7016 16.7428 12.7426 16.7459 12.7773 C 16.7475 12.7946 16.7485 12.8104 16.7492 12.8245 L 16.7498 12.8444 L 16.75 12.8534 L 16.75 12.8576 L 16.75 12.8597 C 16.75 12.8607 16.75 12.8617 16 12.8617 H 16.75 V 13.25 C 16.75 13.8157 17.1811 14.3284 17.8091 14.4204 L 19.8091 14.7135 C 20.5953 14.8287 21.25 14.2406 21.25 13.5429 V 11.4183 C 21.25 10.9778 21.1133 10.632 20.8708 10.4154 C 19.8648 9.51708 17.233 7.75 12 7.75 Z M15.25 12.9335 C15.2347 12.9044 15.1867 12.8292 15.0567 12.734 C14.7427 12.5039 13.9306 12.1463 12 12.1463 C10.0694 12.1463 9.25733 12.5039 8.94328 12.734 C8.8133 12.8292 8.76534 12.9044 8.75 12.9335 L8.75 13.4782 C8.75 14.6777 7.93988 15.7125 6.7909 16.0492 L4.7909 16.6353 C3.05932 17.1428 1.25 15.8966 1.25 14.0643 L1.25 12.1414 C1.25 11.5309 1.40595 10.8624 1.86331 10.3104 C2.97874 8.96419 5.98964 6.25 12 6.25 C17.6087 6.25 20.5944 8.15756 21.8699 9.29661 C22.5191 9.87638 22.75 10.6848 22.75 11.4183 L22.75 13.5429 C22.75 15.2128 21.2257 16.4371 19.5916 16.1977 L17.5916 15.9046 C16.2642 15.71 15.25 14.5971 15.25 13.25 L15.25 12.9335 Z" fill="#FFFFFF" />
</svg>