<svg xmlns="http://www.w3.org/2000/svg" width="24" height="24" viewBox="0 0 24 24" fill="none">
  <path fill-rule="nonzero" clip-rule="nonzero" d="M10.6925 4.95063 L11.3415 6.11356 C12.1054 7.48238 11.7799 9.20946 10.6616 10.3414 C10.6467 10.3618 10.5677 10.4768 10.5579 10.6776 C10.5454 10.9339 10.6364 11.5267 11.5548 12.4451 C12.4729 13.3632 13.0656 13.4545 13.3221 13.442 C13.5231 13.4322 13.6381 13.3533 13.6585 13.3383 C14.7905 12.2201 16.5176 11.8945 17.8864 12.6584 L19.0493 13.3075 C21.1454 14.4773 21.2731 17.3124 19.5931 18.9925 C18.6944 19.8911 17.4995 20.6896 16.0953 20.7429 C14.0144 20.8218 10.5591 20.2844 7.13735 16.8626 C3.71556 13.4408 3.17818 9.98556 3.25706 7.90463 C3.3103 6.50044 4.10879 5.30552 5.00745 4.40686 C6.68752 2.72679 9.52266 2.85451 10.6925 4.95063 Z M 6.06811 5.46752 C 7.17394 4.36169 8.78363 4.60828 9.38265 5.68163 L 10.0317 6.84456 C 10.4354 7.56797 10.2977 8.58411 9.58435 9.29743 C 9.51471 9.36708 9.09846 9.81271 9.0597 10.6042 C 9.02003 11.4146 9.38395 12.3956 10.4942 13.5058 C 11.604 14.6156 12.5847 14.9797 13.395 14.9403 C 14.1864 14.9018 14.6322 14.4858 14.7023 14.4158 C 15.4156 13.7025 16.432 13.5645 17.1554 13.9683 L 18.3183 14.6173 C 19.3916 15.2163 19.6382 16.826 18.5324 17.9318 C 17.7571 18.7072 16.9013 19.2112 16.0385 19.2439 C 14.3031 19.3097 11.2774 18.8813 8.19801 15.8019 C 5.11864 12.7226 4.6902 9.6968 4.75599 7.96146 C 4.7887 7.09868 5.29276 6.24287 6.06811 5.46752 Z" fill="#FFFFFF" />
  <path d="M18 9.74996C18.4142 9.74996 18.75 9.41417 18.75 8.99996C18.75 8.58574 18.4142 8.24996 18 8.24996H16.8106L19.5303 5.53029C19.8232 5.23739 19.8232 4.76252 19.5303 4.46963C19.2374 4.17673 18.7625 4.17673 18.4696 4.46963L15.75 7.1893V5.99996C15.75 5.58574 15.4142 5.24996 15 5.24996C14.5858 5.24996 14.25 5.58574 14.25 5.99996V8.99996C14.25 9.41417 14.5858 9.74996 15 9.74996H18Z" fill="#FFFFFF" />
</svg>