<svg xmlns="http://www.w3.org/2000/svg" width="24" height="24" viewBox="0 0 24 24" fill="none">
  <path fill-rule="nonzero" clip-rule="nonzero" d="M 6.00745 3.40686 C 7.68752 1.72679 10.5227 1.85451 11.6925 3.95063 L 12.3415 5.11356 C 13.1054 6.48238 12.7799 8.20946 11.6616 9.34143 C 11.6467 9.36184 11.5677 9.47677 11.5579 9.67758 C 11.5454 9.93391 11.6364 10.5267 12.5548 11.4451 C 13.4729 12.3632 14.0656 12.4545 14.3221 12.442 C 14.5231 12.4322 14.6381 12.3533 14.6585 12.3383 C 15.7905 11.2201 17.5176 10.8945 18.8864 11.6584 L 20.0493 12.3075 C 22.1454 13.4773 22.2731 16.3124 20.5931 17.9925 C 19.6944 18.8911 18.4995 19.6896 17.0953 19.7429 C 15.0144 19.8218 11.5591 19.2844 8.13735 15.8626 C 4.71556 12.4408 4.17818 8.98556 4.25706 6.90463 C 4.3103 5.50044 5.10879 4.30552 6.00745 3.40686 Z M10.3827 4.68163 L11.0317 5.84456 C11.4354 6.56797 11.2977 7.58411 10.5844 8.29743 L10.5843 8.29746 C10.5147 8.36711 10.0985 8.81271 10.0597 9.60423 C10.02 10.4146 10.384 11.3956 11.4942 12.5058 C12.604 13.6156 13.5847 13.9797 14.395 13.9403 C15.1864 13.9018 15.6322 13.4858 15.7023 13.4158 L15.7025 13.4156 C16.4158 12.7023 17.432 12.5645 18.1554 12.9683 L19.3183 13.6173 C20.3916 14.2163 20.6382 15.826 19.5324 16.9318 C18.7571 17.7072 17.9013 18.2112 17.0385 18.2439 C15.3031 18.3097 12.2774 17.8813 9.19801 14.8019 C6.11864 11.7226 5.6902 8.6968 5.75599 6.96146 C5.7887 6.09868 6.29276 5.24287 7.06811 4.46752 C8.17394 3.36169 9.78363 3.60828 10.3827 4.68163 Z" fill="#FFFFFF" />
</svg>