<svg xmlns="http://www.w3.org/2000/svg" width="24" height="24" viewBox="0 0 24 24" fill="none">
  <path fill-rule="nonzero" clip-rule="nonzero" d="M10.6866 6.4791 C11.2723 7.52858 11.0372 8.90533 10.1147 9.8278 L5.83644 14.1061 C4.22428 11.6609 3.95086 9.40215 4.00655 7.93309 C4.04952 6.7996 4.7008 5.77423 5.53781 4.93723 C6.93076 3.54428 9.15317 3.73144 10.0376 5.31617 L10.6866 6.4791 Z M14.1722 13.8853 C15.0947 12.9628 16.4714 12.7277 17.5209 13.3134 L18.6838 13.9624 C20.2686 14.8468 20.4557 17.0692 19.0628 18.4622 C18.2258 19.2992 17.2004 19.9505 16.0669 19.9934 C14.5979 20.0491 12.3391 19.7757 9.89393 18.1636 L14.1722 13.8853 Z" fill="#FFFFFF" />
  <path opacity="0.5" d="M11.0245 12.9758C8.99576 10.9471 10.1147 9.82812 10.1147 9.82812L5.83643 14.1064C6.31827 14.8372 6.91971 15.5846 7.66769 16.3326C8.41567 17.0806 9.16311 17.682 9.89392 18.1639L14.1722 13.8856C14.1722 13.8856 13.0532 15.0045 11.0245 12.9758Z" fill="#FFFFFF" />
</svg>