<svg xmlns="http://www.w3.org/2000/svg" width="24" height="24" viewBox="0 0 24 24" fill="none">
  <path fill-rule="nonzero" clip-rule="nonzero" d="M 16.1007 13.359 L 16.5562 12.9062 C 17.1858 12.2801 18.1672 12.1515 18.9728 12.5894 L 20.8833 13.628 C 22.1102 14.2949 22.3806 15.9295 21.4217 16.883 L 20.0011 18.2954 C 19.6399 18.6546 19.1917 18.9171 18.6763 18.9651 C 17.4841 19.0763 15.0313 19.0163 12.1374 17.3223 L 16.1007 13.359 Z M10.1907 7.48257 L6.15176 11.5215 C4.45582 8.9649 4.06761 6.88446 4.00289 5.74561 C3.96765 5.12559 4.25823 4.56668 4.69185 4.13552 L6.26145 2.57483 C7.13596 1.70529 8.61028 1.83992 9.37326 2.85908 L10.6342 4.54348 C11.2507 5.36691 11.1841 6.49484 10.4775 7.19738 L10.1907 7.48257 Z" fill="#FFFFFF" />
  <path opacity="0.6" d="M12.0627 11.4971C9.11695 8.56804 10.1836 7.48913 10.1903 7.48242L6.15137 11.5214C6.81756 12.5256 7.68554 13.6034 8.81497 14.7264C9.95468 15.8596 11.0755 16.7008 12.137 17.3222L16.1003 13.3589C16.1003 13.3589 15.0177 14.4353 12.0627 11.4971Z" fill="#FFFFFF" />
</svg>