<svg xmlns="http://www.w3.org/2000/svg" width="24" height="24" viewBox="0 0 24 24" fill="none">
  <path fill-rule="nonzero" clip-rule="nonzero" d="M 5.73268 2.043 C 6.95002 0.832583 8.95439 1.04804 9.9737 2.40962 L 11.2347 4.09402 C 12.0641 5.20191 11.9909 6.75032 11.0064 7.72923 L 10.7676 7.96665 C 10.7572 7.99694 10.7319 8.09215 10.76 8.2731 C 10.8232 8.6806 11.1635 9.545 12.592 10.9654 C 14.02 12.3853 14.8905 12.7253 15.3038 12.7887 C 15.4911 12.8174 15.5891 12.7906 15.6194 12.78 L 16.0274 12.3743 C 16.9026 11.5041 18.2475 11.3414 19.3311 11.9305 L 21.2416 12.9691 C 22.8775 13.8584 23.2909 16.0821 21.9505 17.4148 L 20.53 18.8273 C 20.0824 19.2723 19.4805 19.6434 18.7459 19.7119 C 16.9369 19.8806 12.7187 19.6654 8.28659 15.2584 C 4.14868 11.144 3.35462 7.556 3.25415 5.78817 L 4.00294 5.74562 L 3.25415 5.78817 C 3.20335 4.89426 3.62576 4.13796 4.16308 3.60369 L 5.73268 2.043 Z M8.77291 3.30856 L10.0339 4.99297 C10.4374 5.53194 10.3774 6.23939 9.94875 6.66556 L9.66194 6.95075 L10.1908 7.48258 C9.66194 6.95075 9.66122 6.95146 9.66051 6.95217 L9.65905 6.95363 L9.65606 6.95666 L9.64977 6.96312 L9.63604 6.9777 C9.6264 6.98817 9.6158 7.00015 9.60446 7.01368 C9.58179 7.04074 9.5561 7.07405 9.5291 7.11389 C9.47497 7.19378 9.41599 7.29941 9.36594 7.43225 C9.26381 7.70331 9.20906 8.06061 9.2777 8.50306 C9.41194 9.36834 10.0079 10.5113 11.5344 12.0291 C13.0614 13.5474 14.2096 14.1384 15.0764 14.2713 C15.5192 14.3392 15.8764 14.285 16.1472 14.1841 C16.2801 14.1347 16.3858 14.0763 16.4659 14.0227 C16.5058 13.9959 16.5392 13.9705 16.5664 13.948 C16.5799 13.9367 16.592 13.9262 16.6025 13.9166 L16.6171 13.903 L16.6236 13.8967 L16.6267 13.8937 L16.6282 13.8923 C16.6289 13.8916 16.6296 13.8909 16.1008 13.359 L16.6296 13.8909 L17.085 13.438 C17.469 13.0562 18.0871 12.9616 18.6147 13.2484 L20.5252 14.2869 C21.343 14.7315 21.4704 15.777 20.8929 16.3511 L19.4724 17.7636 C19.1975 18.0369 18.9029 18.1908 18.6067 18.2184 C17.1569 18.3536 13.4057 18.2331 9.34423 14.1947 C5.47286 10.3453 4.83156 7.10766 4.75173 5.70307 C4.73206 5.35695 4.8908 4.99542 5.22072 4.66737 L6.79032 3.10668 C7.322 2.57801 8.26628 2.63182 8.77291 3.30856 Z" fill="#FFFFFF" />
</svg>