<svg xmlns="http://www.w3.org/2000/svg" width="24" height="24" viewBox="0 0 24 24" fill="none">
  <path fill-rule="nonzero" clip-rule="nonzero" d="M 13.2609 13.75 C 12.9375 13.2449 12.75 12.6443 12.75 12 C 12.75 10.2051 14.2051 8.75 16 8.75 C 17.7949 8.75 19.25 10.2051 19.25 12 C 19.25 13.7949 17.7949 15.25 16 15.25 H 8 C 6.20507 15.25 4.75 13.7949 4.75 12 C 4.75 10.2051 6.20507 8.75 8 8.75 C 9.79493 8.75 11.25 10.2051 11.25 12 C 11.25 12.6443 11.0625 13.2449 10.7391 13.75 H 13.2609 Z M14.25 12 C14.25 12.9665 15.0335 13.75 16 13.75 C16.9665 13.75 17.75 12.9665 17.75 12 C17.75 11.0335 16.9665 10.25 16 10.25 C15.0335 10.25 14.25 11.0335 14.25 12 Z M 8 13.75 C 8.9665 13.75 9.75 12.9665 9.75 12 C 9.75 11.0335 8.9665 10.25 8 10.25 C 7.0335 10.25 6.25 11.0335 6.25 12 C 6.25 12.9665 7.0335 13.75 8 13.75 Z" fill="#FFFFFF" />
  <path fill-rule="nonzero" clip-rule="nonzero" d="M12 1.25 C17.9371 1.25 22.75 6.06294 22.75 12 C22.75 17.9371 17.9371 22.75 12 22.75 C6.06294 22.75 1.25 17.9371 1.25 12 C1.25 6.06294 6.06294 1.25 12 1.25 Z M2.75 12 C2.75 17.1086 6.89137 21.25 12 21.25 C17.1086 21.25 21.25 17.1086 21.25 12 C21.25 6.89137 17.1086 2.75 12 2.75 C6.89137 2.75 2.75 6.89137 2.75 12 Z" fill="#FFFFFF" />
</svg>