<svg xmlns="http://www.w3.org/2000/svg" width="24" height="24" viewBox="0 0 24 24" fill="none">
  <path opacity="0.5" d="M3.46447 3.46447C2 4.92893 2 7.28595 2 12C2 16.714 2 19.0711 3.46447 20.5355C4.92893 22 7.28595 22 12 22C16.714 22 19.0711 22 20.5355 20.5355C22 19.0711 22 16.714 22 12C22 7.28595 22 4.92893 20.5355 3.46447C19.0711 2 16.714 2 12 2C7.28595 2 4.92893 2 3.46447 3.46447Z" fill="#FFFFFF" />
  <path fill-rule="nonzero" clip-rule="nonzero" d="M12.75 12 C12.75 10.2051 14.2051 8.75 16 8.75 C17.7949 8.75 19.25 10.2051 19.25 12 C19.25 13.7949 17.7949 15.25 16 15.25 L8 15.25 C6.20507 15.25 4.75 13.7949 4.75 12 C4.75 10.2051 6.20507 8.75 8 8.75 C9.79493 8.75 11.25 10.2051 11.25 12 C11.25 12.6443 11.0625 13.2449 10.7391 13.75 L13.2609 13.75 C12.9375 13.2449 12.75 12.6443 12.75 12 Z M14.25 12 C14.25 12.9665 15.0335 13.75 16 13.75 C16.9665 13.75 17.75 12.9665 17.75 12 C17.75 11.0335 16.9665 10.25 16 10.25 C15.0335 10.25 14.25 11.0335 14.25 12 Z M9.75 12 C9.75 11.0335 8.9665 10.25 8 10.25 C7.0335 10.25 6.25 11.0335 6.25 12 C6.25 12.9665 7.0335 13.75 8 13.75 C8.9665 13.75 9.75 12.9665 9.75 12 Z" fill="#FFFFFF" />
</svg>