<svg xmlns="http://www.w3.org/2000/svg" width="24" height="24" viewBox="0 0 24 24" fill="none">
  <path fill-rule="nonzero" clip-rule="nonzero" d="M9.46412 15.25 L14.5359 15.25 C13.7384 14.4003 13.25 13.2572 13.25 12 C13.25 9.37665 15.3766 7.25 18 7.25 C20.6234 7.25 22.75 9.37665 22.75 12 C22.75 14.6234 20.6234 16.75 18 16.75 L6 16.75 C3.37665 16.75 1.25 14.6234 1.25 12 C1.25 9.37665 3.37665 7.25 6 7.25 C8.62335 7.25 10.75 9.37665 10.75 12 C10.75 13.2572 10.2616 14.4003 9.46412 15.25 Z M 6 8.75 C 4.20507 8.75 2.75 10.2051 2.75 12 C 2.75 13.7949 4.20507 15.25 6 15.25 C 7.79493 15.25 9.25 13.7949 9.25 12 C 9.25 10.2051 7.79493 8.75 6 8.75 Z M 18 15.25 C 19.7949 15.25 21.25 13.7949 21.25 12 C 21.25 10.2051 19.7949 8.75 18 8.75 C 16.2051 8.75 14.75 10.2051 14.75 12 C 14.75 13.7949 16.2051 15.25 18 15.25 Z" fill="#FFFFFF" />
</svg>