<svg xmlns="http://www.w3.org/2000/svg" width="24" height="24" viewBox="0 0 24 24" fill="none">
  <path fill-rule="nonzero" clip-rule="nonzero" d="M15.9925 2.01655 C16.0663 1.90581 16.1756 1.7647 16.3459 1.65237 C16.5715 1.50355 16.8392 1.43186 17.109 1.44804 C17.3127 1.46026 17.4778 1.52791 17.5971 1.58694 C17.7029 1.63931 17.8197 1.70969 17.928 1.77495 L18.7434 2.26613 C18.8445 2.32701 18.9547 2.39336 19.0456 2.45865 C19.149 2.53284 19.2787 2.64041 19.3826 2.80305 C19.5213 3.02022 19.5895 3.27496 19.5779 3.53239 C19.5692 3.72518 19.5106 3.88316 19.4581 3.99909 C19.4119 4.10111 19.3496 4.21362 19.2924 4.31688 L18.9373 4.95872 L19.199 8.2258 C19.206 8.31379 19.2103 8.36709 19.2136 8.41833 C19.3318 10.2778 18.614 12.095 17.2562 13.3321 C17.2187 13.3662 17.1793 13.401 17.1147 13.4578 L17.1092 13.4626 C17.04 13.5235 17.0098 13.5501 16.9809 13.5762 C15.9137 14.5374 15.1543 15.8233 14.8118 17.2608 C14.8025 17.2998 14.7934 17.3402 14.7726 17.432 L14.5185 18.5532 C14.359 19.2574 14.2308 19.8231 14.0978 20.2682 C13.9627 20.7204 13.8038 21.1172 13.5501 21.452 C12.8691 22.3508 11.7877 22.8408 10.6702 22.7359 C10.2515 22.6965 9.85683 22.5404 9.44477 22.3306 C9.03997 22.1244 8.55438 21.8319 7.95314 21.4697 L7.24012 21.0402 C6.63864 20.6779 6.15313 20.3854 5.7799 20.1229 C5.39871 19.8547 5.07679 19.5791 4.84068 19.2292 C4.21118 18.2961 4.07618 17.1023 4.47734 16.049 C4.62758 15.6545 4.87759 15.3115 5.18768 14.9606 C5.49146 14.617 5.89777 14.2174 6.4018 13.7219 L7.20619 12.9309 C7.27207 12.8662 7.30083 12.8379 7.32835 12.8102 C8.3439 11.7884 9.03456 10.4599 9.30076 9.00426 C9.30798 8.96477 9.31501 8.92385 9.33094 8.83097 L9.33217 8.82378 C9.34708 8.73684 9.35611 8.68419 9.36562 8.63376 C9.71047 6.80449 10.856 5.2357 12.4819 4.40082 C12.5266 4.37783 12.5735 4.3548 12.6497 4.31736 L15.4773 2.92766 L15.7998 2.34477 C15.861 2.23414 15.927 2.11481 15.9925 2.01655 Z M15.983 4.35048 L13.3182 5.66017 C13.2331 5.70201 13.1987 5.71894 13.1671 5.73518 C12.1998 6.23186 11.4489 7.08929 11.0572 8.13283 L11.1169 8.103 C12.322 7.50043 13.7675 7.65357 14.8196 8.49527 C15.3373 8.9094 16.0296 9.03287 16.6585 8.82323 L17.7137 8.47153 C17.7115 8.44144 17.7083 8.40209 17.7032 8.33815 L17.4548 5.23707 L15.983 4.35048 Z" fill="#FFFFFF" />
</svg>