<svg xmlns="http://www.w3.org/2000/svg" width="24" height="24" viewBox="0 0 24 24" fill="none">
  <path fill-rule="nonzero" clip-rule="nonzero" d="M 7.25285 4.25547 C 8.09403 2.47951 9.90263 1.25 12 1.25 C 14.0974 1.25 15.906 2.47951 16.7471 4.25547 C 16.831 4.25184 16.9153 4.25 17 4.25 C 20.1756 4.25 22.75 6.82436 22.75 10 C 22.75 12.1806 21.5363 14.0762 19.75 15.0508 L 19.75 18.052 C 19.75 18.9505 19.7501 19.6997 19.6701 20.2945 C 19.5857 20.9223 19.4 21.4891 18.9445 21.9445 C 18.4891 22.4 17.9223 22.5857 17.2945 22.6701 C 16.6997 22.7501 15.9505 22.75 15.052 22.75 H 8.94801 C 8.04952 22.75 7.3003 22.7501 6.70552 22.6701 C 6.07773 22.5857 5.51093 22.4 5.05546 21.9445 C 4.59999 21.4891 4.41432 20.9223 4.32991 20.2945 C 4.24994 19.6997 4.24997 18.9505 4.25 18.052 L 4.25 15.0508 C 2.46371 14.0762 1.25 12.1806 1.25 10 C 1.25 6.82436 3.82436 4.25 7 4.25 C 7.08469 4.25 7.16899 4.25184 7.25285 4.25547 Z M 6.80262 5.7545 C 4.54704 5.85762 2.75 7.71895 2.75 10 C 2.75 11.7416 3.79769 13.2402 5.30028 13.8967 C 5.57345 14.016 5.75 14.2859 5.75 14.584 V 17.25 H 18.25 L 18.25 14.584 C 18.25 14.2859 18.4265 14.016 18.6997 13.8967 C 20.2023 13.2402 21.25 11.7416 21.25 10 C 21.25 7.71895 19.453 5.85761 17.1974 5.7545 C 17.2321 5.99825 17.25 6.24718 17.25 6.5 V 7 C 17.25 7.41421 16.9142 7.75 16.5 7.75 C 16.0858 7.75 15.75 7.41421 15.75 7 V 6.5 C 15.75 6.07715 15.6803 5.67212 15.5524 5.29486 C 15.0502 3.81402 13.6484 2.75 12 2.75 C 10.3516 2.75 8.94981 3.81402 8.44763 5.29486 C 8.3197 5.67212 8.25 6.07715 8.25 6.5 V 7 C 8.25 7.41421 7.91421 7.75 7.5 7.75 C 7.08579 7.75 6.75 7.41421 6.75 7 V 6.5 C 6.75 6.24717 6.76792 5.99825 6.80262 5.7545 Z M 18.2482 18.75 H 5.75181 C 5.75604 19.3194 5.77008 19.7491 5.81654 20.0946 C 5.87858 20.5561 5.9858 20.7536 6.11612 20.8839 C 6.24643 21.0142 6.44393 21.1214 6.90539 21.1835 C 7.38843 21.2484 8.03599 21.25 9 21.25 H 15 C 15.964 21.25 16.6116 21.2484 17.0946 21.1835 C 17.5561 21.1214 17.7536 21.0142 17.8839 20.8839 C 18.0142 20.7536 18.1214 20.5561 18.1835 20.0946 C 18.2299 19.7491 18.244 19.3194 18.2482 18.75 Z" fill="#FFFFFF" />
</svg>