<svg xmlns="http://www.w3.org/2000/svg" width="24" height="24" viewBox="0 0 24 24" fill="none">
  <path fill-rule="nonzero" clip-rule="nonzero" d="M 2 10 C 2 7.23858 4.23858 5 7 5 C 7.25052 5 7.49673 5.01842 7.73736 5.05399 C 8.33961 3.27806 10.0206 2 12 2 C 13.9794 2 15.6604 3.27806 16.2626 5.05399 C 16.5033 5.01842 16.7495 5 17 5 C 19.7614 5 22 7.23858 22 10 C 22 12.0503 20.7659 13.8124 19 14.584 L 19 17.25 H 5 V 14.584 C 3.2341 13.8124 2 12.0503 2 10 Z M11.0429 13.6693 C11.4626 13.9773 11.6725 14.1313 12 14.1313 C12.3275 14.1313 12.5374 13.9773 12.9571 13.6693 C13.8352 13.0251 15 11.9849 15 11.0004 C15 9.32721 13.35 8.7025 12 9.99506 C10.65 8.7025 9 9.32721 9 11.0004 C9 11.9849 10.1649 13.0251 11.0429 13.6693 Z" fill="#FFFFFF" />
  <path d="M5.58579 21.4142C5.08343 20.9119 5.01188 20.1469 5.00169 18.75H18.9983C18.9881 20.1469 18.9166 20.9119 18.4142 21.4142C17.8284 22 16.8856 22 15 22H9C7.11438 22 6.17157 22 5.58579 21.4142Z" fill="#FFFFFF" />
</svg>