<svg xmlns="http://www.w3.org/2000/svg" width="24" height="24" viewBox="0 0 24 24" fill="none">
  <path fill-rule="nonzero" clip-rule="nonzero" d="M 9.98742 2.11115 C 11.1356 0.962948 12.9972 0.962948 14.1454 2.11115 L 21.8888 9.85456 C 22.4691 10.4348 22.7561 11.1973 22.7499 11.9578 C 22.7501 11.9719 22.7502 11.986 22.7502 12.0001 C 22.7502 13.6017 21.4518 14.9001 19.8502 14.9001 C 19.3556 14.9001 18.8898 14.7763 18.4824 14.5579 C 18.2114 14.4208 17.9572 14.239 17.7308 14.0126 L 14.3895 10.6712 L 13.5955 11.4651 C 13.4826 11.5781 13.4619 11.7539 13.5457 11.89 L 14.1916 12.9397 C 14.929 14.138 13.499 15.4887 12.3446 14.6842 L 7.72702 11.4659 L 12.6712 18.5597 C 13.4816 19.7224 12.1075 21.1567 10.9111 20.397 L 4.79546 16.5133 L 5.4448 17.8841 C 5.77832 18.5882 5.63445 19.4262 5.0826 19.9781 L 2.53033 22.5303 C 2.23744 22.8232 1.76256 22.8232 1.46967 22.5303 C 1.17678 22.2374 1.17678 21.7626 1.46967 21.4697 L 4.02194 18.9174 C 4.12458 18.8148 4.15191 18.6587 4.08919 18.5263 L 3.13994 16.5223 L 3.80112 16.2091 L 3.13994 16.5223 C 2.58305 15.3466 3.91 14.1741 5.00816 14.8715 L 10.8641 18.5902 L 5.84814 11.3934 C 5.01991 10.2051 6.46624 8.75876 7.65457 9.58699 L 12.4044 12.8975 L 12.2682 12.6761 C 11.8204 11.9485 11.9307 11.0086 12.5349 10.4045 L 13.3288 9.61055 L 9.98742 6.26918 C 8.83921 5.12097 8.83921 3.25936 9.98742 2.11115 Z M 14.9193 9.07971 C 14.9194 9.07988 14.9196 9.08005 14.9198 9.08022 C 14.9199 9.08039 14.9201 9.08056 14.9203 9.08073 L 17.057 11.2175 C 17.3328 10.2313 18.1167 9.45734 19.1087 9.19576 L 13.0848 3.17181 C 12.5224 2.6094 11.6105 2.6094 11.0481 3.17181 C 10.4857 3.73423 10.4857 4.6461 11.0481 5.20852 L 14.9193 9.07971 Z M 21.2497 11.9626 C 21.2298 11.2067 20.6109 10.6001 19.8502 10.6001 C 19.077 10.6001 18.4502 11.2269 18.4502 12.0001 C 18.4502 12.5277 18.7421 12.9872 19.1732 13.2258 C 19.7112 13.491 20.3804 13.3997 20.8282 12.9519 C 21.102 12.6781 21.2425 12.3214 21.2497 11.9626 Z M 4.20405 16.1377 L 4.20431 16.1379 L 4.20405 16.1377 Z" fill="#FFFFFF" />
</svg>