<svg xmlns="http://www.w3.org/2000/svg" width="24" height="24" viewBox="0 0 24 24" fill="none">
  <path fill-rule="nonzero" clip-rule="nonzero" d="M 3.28441 11.2661 C 3.15113 9.26687 3.08449 8.26726 3.67729 7.63363 C 4.27009 7 5.27191 7 7.27555 7 H 12.7245 C 14.7281 7 15.7299 7 16.3227 7.63363 C 16.4852 7.80726 16.5981 8.00837 16.6737 8.25 H 17 C 19.5261 8.25 21.75 10.0619 21.75 12.5 C 21.75 14.9381 19.5261 16.75 17 16.75 H 16.3499 C 16.3383 16.9226 16.3269 17.0891 16.3155 17.25 H 3.68451 C 3.66551 16.9826 3.64663 16.6993 3.62662 16.3991 L 3.28441 11.2661 Z M 16.45 15.25 H 17 C 18.8921 15.25 20.25 13.9278 20.25 12.5 C 20.25 11.0722 18.8921 9.75 17 9.75 H 16.8007 C 16.788 10.1801 16.7547 10.6802 16.7156 11.2661 L 16.45 15.25 Z" fill="#FFFFFF" />
  <path d="M3.81902 18.75H16.181C16.0372 19.9266 15.8026 20.6671 15.2429 21.1907C14.3779 22 13.0475 22 10.3867 22H9.61333C6.95253 22 5.62212 22 4.75712 21.1907C4.19745 20.6671 3.96285 19.9266 3.81902 18.75Z" fill="#FFFFFF" />
  <path fill-rule="nonzero" clip-rule="nonzero" d="M 6.97721 1.32673 C 7.31443 1.56726 7.39281 2.03562 7.15227 2.37284 L 6.7662 2.91409 C 7.39202 3.38836 7.53073 4.27761 7.07175 4.92108 L 6.66113 5.49675 C 6.42059 5.83396 5.95223 5.91234 5.61501 5.67181 C 5.2778 5.43127 5.19942 4.96291 5.43996 4.62569 L 5.82603 4.08444 C 5.2002 3.61018 5.0615 2.72092 5.52048 2.07745 L 5.9311 1.50179 C 6.17163 1.16457 6.63999 1.08619 6.97721 1.32673 Z M 10.9772 1.32673 C 11.3144 1.56726 11.3928 2.03562 11.1523 2.37284 L 10.7662 2.91409 C 11.392 3.38836 11.5307 4.27761 11.0717 4.92108 L 10.6611 5.49675 C 10.4206 5.83396 9.95223 5.91234 9.61501 5.67181 C 9.2778 5.43127 9.19942 4.96291 9.43996 4.62569 L 9.82603 4.08444 C 9.2002 3.61018 9.0615 2.72092 9.52048 2.07745 L 9.9311 1.50179 C 10.1716 1.16457 10.64 1.08619 10.9772 1.32673 Z M 14.9772 1.32673 C 15.3144 1.56726 15.3928 2.03562 15.1523 2.37284 L 14.7662 2.91409 C 15.392 3.38836 15.5307 4.27761 15.0717 4.92108 L 14.6611 5.49675 C 14.4206 5.83396 13.9522 5.91234 13.615 5.67181 C 13.2778 5.43127 13.1994 4.96291 13.44 4.62569 L 13.826 4.08444 C 13.2002 3.61018 13.0615 2.72092 13.5205 2.07745 L 13.9311 1.50179 C 14.1716 1.16457 14.64 1.08619 14.9772 1.32673 Z" fill="#FFFFFF" />
</svg>