<svg xmlns="http://www.w3.org/2000/svg" width="24" height="24" viewBox="0 0 24 24" fill="none">
  <path fill-rule="nonzero" clip-rule="nonzero" d="M 9.14654 1.25 H 14.8536 C 15.7396 1.24999 16.4605 1.24998 17.0481 1.30934 C 17.66 1.37116 18.1939 1.50222 18.6871 1.8054 C 18.8429 1.90123 18.9916 2.00833 19.1318 2.12586 C 19.5755 2.4977 19.8688 2.96264 20.1212 3.52355 C 20.3635 4.06214 20.5916 4.74593 20.872 5.58633 L 20.8843 5.62316 L 20.9335 5.77061 C 21.0815 6.21377 21.213 6.60796 21.2808 6.93604 C 21.3524 7.28264 21.3827 7.68331 21.1982 8.07889 C 21.1052 8.27833 20.9755 8.45845 20.8157 8.6098 C 20.4988 8.90997 20.1092 9.00805 19.7577 9.04986 C 19.5775 9.07131 19.3728 9.08113 19.1488 9.08561 L 17.7361 18.735 C 17.6225 19.5107 17.5272 20.1617 17.3844 20.6761 C 17.2331 21.2212 17.0058 21.7038 16.5697 22.0806 C 16.1337 22.4575 15.6233 22.6125 15.062 22.6833 C 14.5323 22.75 13.8744 22.75 13.0904 22.75 H 10.9097 C 10.1258 22.75 9.46779 22.75 8.93808 22.6833 C 8.3768 22.6125 7.86644 22.4575 7.43038 22.0806 C 6.99431 21.7038 6.76703 21.2212 6.61569 20.6761 C 6.47287 20.1617 6.37758 19.5106 6.26404 18.735 L 4.85132 9.08561 C 4.6273 9.08113 4.42266 9.07131 4.24237 9.04986 C 3.89093 9.00805 3.50127 8.90997 3.18441 8.6098 C 3.02466 8.45845 2.89488 8.27834 2.80189 8.07889 C 2.61744 7.68331 2.64775 7.28264 2.71933 6.93604 C 2.78708 6.60797 2.91864 6.2138 3.06655 5.77065 C 3.07101 5.75732 3.07547 5.74394 3.07995 5.73051 L 3.12803 5.58643 C 3.40847 4.74598 3.63664 4.06215 3.87895 3.52354 C 4.13129 2.96264 4.4246 2.4977 4.8683 2.12586 C 5.00853 2.00833 5.15718 1.90123 5.31306 1.8054 C 5.80622 1.50222 6.3401 1.37116 6.95203 1.30934 C 7.53964 1.24998 8.26054 1.24999 9.14654 1.25 Z M 6.36786 9.08937 L 6.68419 11.25 H 17.3159 L 17.6323 9.08937 H 6.36786 Z M 17.0963 12.75 H 6.9038 L 7.41622 16.25 H 16.5839 L 17.0963 12.75 Z M 16.3643 17.75 H 7.63583 L 7.74136 18.4708 C 7.8636 19.3057 7.94649 19.8623 8.06103 20.2749 C 8.16992 20.6671 8.28399 20.8358 8.41121 20.9457 C 8.53842 21.0557 8.72187 21.1441 9.12574 21.195 C 9.55055 21.2486 10.1132 21.25 10.9571 21.25 H 13.043 C 13.8869 21.25 14.4496 21.2486 14.8744 21.195 C 15.2782 21.1441 15.4617 21.0557 15.5889 20.9457 C 15.7161 20.8358 15.8302 20.6671 15.9391 20.2749 C 16.0536 19.8623 16.1365 19.3057 16.2588 18.4708 L 16.3643 17.75 Z M 7.1028 2.80174 C 6.61515 2.851 6.32821 2.9421 6.09863 3.08324 C 6.00511 3.14074 5.91591 3.205 5.83177 3.27551 C 5.62522 3.44862 5.44798 3.69197 5.2469 4.13895 C 5.0393 4.60039 4.8343 5.21195 4.53865 6.09796 L 4.50282 6.20531 C 4.33739 6.70108 4.23582 7.00945 4.18833 7.23942 C 4.1606 7.37369 4.1625 7.43339 4.16471 7.45189 C 4.17655 7.47538 4.19202 7.49685 4.21055 7.51552 C 4.2274 7.52346 4.28343 7.54417 4.41958 7.56036 C 4.65275 7.58811 4.97742 7.58937 5.50006 7.58937 H 18.5001 C 19.0227 7.58937 19.3474 7.58811 19.5805 7.56036 C 19.7167 7.54417 19.7727 7.52346 19.7896 7.51552 C 19.8081 7.49686 19.8236 7.47538 19.8354 7.45189 C 19.8376 7.4334 19.8395 7.3737 19.8118 7.23942 C 19.7643 7.00945 19.6627 6.70108 19.4973 6.20531 L 19.4615 6.09796 C 19.1658 5.21196 18.9608 4.6004 18.7532 4.13895 C 18.5521 3.69197 18.3749 3.44861 18.1683 3.27552 C 18.0842 3.205 17.995 3.14074 17.9015 3.08324 C 17.6719 2.9421 17.385 2.851 16.8973 2.80174 C 16.3939 2.75089 15.7489 2.75 14.8148 2.75 H 9.18527 C 8.25123 2.75 7.60623 2.75089 7.1028 2.80174 Z" fill="#FFFFFF" />
</svg>