<svg xmlns="http://www.w3.org/2000/svg" width="24" height="24" viewBox="0 0 24 24" fill="none">
  <path d="M12.2803 21.5538C12.0886 20.9089 12.303 20.102 12.9444 19.6276C13.4368 19.2635 14.0224 19.1452 14.5152 19.2623C14.58 19.2776 14.6491 19.2615 14.6961 19.2145C14.7586 19.152 14.766 19.0532 14.7134 18.9821L14.6196 18.8552C14.0081 18.0283 14.3131 16.7641 15.2994 16.0206C15.1559 15.9229 14.9975 15.8179 14.8289 15.7075L14.6506 15.5911C14.4368 15.4518 14.2126 15.3056 14.0103 15.1665C13.4294 15.536 12.7399 15.75 12.0005 15.75C10.9074 15.75 9.92351 15.2823 9.23808 14.5361C8.83106 14.7572 8.35478 14.9796 7.86375 15.171C7.06293 15.483 6.12858 15.75 5.33228 15.75C4.30133 15.75 3.23794 15.3036 2.41274 14.8509C3.64009 18.9848 7.46817 22 12.0005 22C12.2138 22 12.3411 21.7583 12.2803 21.5538Z" fill="#FFFFFF" />
  <path d="M9.75049 12C9.75049 10.7574 10.7578 9.75 12.0005 9.75C13.2431 9.75 14.2505 10.7574 14.2505 12C14.2505 12.6271 13.994 13.1942 13.5801 13.6023C13.5287 13.6371 13.4808 13.679 13.4378 13.7278L13.4275 13.7396C13.0392 14.0586 12.5422 14.25 12.0005 14.25C10.7578 14.25 9.75049 13.2426 9.75049 12Z" fill="#FFFFFF" />
  <path fill-rule="nonzero" clip-rule="nonzero" d="M19.4792 14.7949 C18.8922 15.229 18.6005 15.8921 18.6793 16.4776 C18.683 16.505 18.6743 16.5328 18.6547 16.5524 C18.6177 16.5894 18.5565 16.5848 18.5254 16.5427 L18.25 16.1704 C17.9691 15.7906 17.5434 15.5687 17.0683 15.51 C17.0564 15.4962 17.0439 15.4827 17.0308 15.4696 C16.7133 15.1521 16.1277 14.7649 15.6505 14.4525 L15.4814 14.342 C15.3483 14.255 15.2235 14.1734 15.1093 14.0978 C15.5141 13.4991 15.7505 12.7772 15.7505 12 C15.7505 9.92893 14.0716 8.25 12.0005 8.25 C9.92942 8.25 8.25049 9.92893 8.25049 12 C8.25049 12.4381 8.32561 12.8586 8.46368 13.2495 C8.13487 13.4248 7.73954 13.6095 7.3191 13.7733 C6.57537 14.0632 5.8485 14.25 5.33228 14.25 C4.57246 14.25 3.63825 13.8433 2.81955 13.3557 C2.51964 13.177 2.25198 12.9978 2.03563 12.8443 C2.01236 12.566 2.00049 12.2844 2.00049 12 C2.00049 8.9982 3.32312 6.30531 5.41742 4.47232 C5.43368 4.49233 5.45112 4.5117 5.46975 4.53033 L6.46975 5.53033 C6.76265 5.82322 7.23752 5.82322 7.53041 5.53033 C7.82331 5.23744 7.82331 4.76256 7.53041 4.46967 L6.62618 3.56544 C8.17835 2.57437 10.0223 2 12.0005 2 C15.0023 2 17.6952 3.32266 19.5282 5.41697 C19.508 5.43334 19.4885 5.4509 19.4698 5.46967 L18.4698 6.46967 C18.1769 6.76256 18.1769 7.23744 18.4698 7.53033 C18.7626 7.82322 19.2375 7.82322 19.5304 7.53033 L20.4351 6.62569 C21.4261 8.17786 22.0005 10.0219 22.0005 12 C22.0005 12.9417 21.8703 13.8529 21.627 14.7168 C21.0865 14.2561 20.1866 14.2718 19.4792 14.7949 Z M16.4501 4.4 C16.1187 4.15147 15.6486 4.21863 15.4001 4.55 L13.9001 6.55 C13.6516 6.88137 13.7187 7.35147 14.0501 7.6 C14.3815 7.84853 14.8516 7.78137 15.1001 7.45 L16.6001 5.45 C16.8486 5.11863 16.7815 4.64853 16.4501 4.4 Z M 10.4698 3.46967 C 10.1769 3.76256 10.1769 4.23744 10.4698 4.53033 L 11.4698 5.53033 C 11.7626 5.82322 12.2375 5.82322 12.5304 5.53033 C 12.8233 5.23744 12.8233 4.76256 12.5304 4.46967 L 11.5304 3.46967 C 11.2375 3.17678 10.7626 3.17678 10.4698 3.46967 Z M 8.40961 7.56014 C 8.51682 7.96024 8.92807 8.19768 9.32817 8.09047 L 10.6942 7.72444 C 11.0943 7.61724 11.3317 7.20599 11.2245 6.80589 C 11.1173 6.40579 10.7061 6.16835 10.306 6.27556 L 8.93994 6.64158 C 8.53984 6.74879 8.30241 7.16004 8.40961 7.56014 Z M 5.89694 7.17364 C 5.51986 7.34505 5.35313 7.78969 5.52453 8.16677 L 6.10976 9.45422 C 6.28117 9.8313 6.72581 9.99803 7.10289 9.82662 C 7.47998 9.65522 7.64671 9.21058 7.4753 8.83349 L 6.89007 7.54605 C 6.71867 7.16896 6.27403 7.00223 5.89694 7.17364 Z M 16.7514 11.1384 C 17.1652 11.119 17.4848 10.7678 17.4654 10.354 L 17.399 8.94139 C 17.3795 8.52764 17.0284 8.20798 16.6146 8.22743 C 16.2008 8.24688 15.8812 8.59806 15.9006 9.01181 L 15.967 10.4245 C 15.9865 10.8382 16.3377 11.1579 16.7514 11.1384 Z M 18.4369 12.0586 C 18.7106 12.3694 19.1846 12.3995 19.4954 12.1257 L 21.1735 10.6479 C 21.4843 10.3741 21.5144 9.90018 21.2406 9.58933 C 20.9669 9.27848 20.493 9.24841 20.1821 9.52217 L 18.504 11 C 18.1932 11.2738 18.1631 11.7477 18.4369 12.0586 Z M6.94303 10.8948 C6.60878 10.6501 6.13949 10.7228 5.89486 11.0571 L5.05963 12.1983 C4.81499 12.5325 4.88765 13.0018 5.2219 13.2464 C5.55616 13.4911 6.02544 13.4184 6.27007 13.0842 L7.10531 11.9429 C7.34994 11.6087 7.27729 11.1394 6.94303 10.8948 Z M 3.56263 8.18897 C 3.14906 8.21201 2.83247 8.56596 2.85551 8.97953 L 2.93417 10.3916 C 2.95721 10.8051 3.31116 11.1217 3.72473 11.0987 C 4.1383 11.0756 4.45489 10.7217 4.43185 10.3081 L 4.35319 8.89609 C 4.33015 8.48252 3.97621 8.16593 3.56263 8.18897 Z" fill="#FFFFFF" />
</svg>