<svg xmlns="http://www.w3.org/2000/svg" width="24" height="24" viewBox="0 0 24 24" fill="none">
  <path fill-rule="nonzero" clip-rule="nonzero" d="M 5.43421 2.5 C 3.81369 2.5 2.5 3.81369 2.5 5.43421 C 2.5 5.84842 2.16421 6.18421 1.75 6.18421 C 1.33579 6.18421 1 5.84842 1 5.43421 C 1 2.98526 2.98526 1 5.43421 1 C 7.88316 1 9.86842 2.98526 9.86842 5.43421 V 12.3464 C 10.2351 12.128 10.6549 11.9388 11.0983 11.7774 C 12.4312 11.2924 14.1438 11 15.75 11 C 17.3577 11 18.9554 11.293 20.1765 11.787 C 20.7849 12.0331 21.3375 12.3443 21.7508 12.7259 C 22.1622 13.1058 22.5 13.6198 22.5 14.25 V 15.4342 C 22.5 19.3365 19.3365 22.5 15.4342 22.5 C 11.5319 22.5 8.36842 19.3365 8.36842 15.4342 V 5.43421 C 8.36842 3.81369 7.05473 2.5 5.43421 2.5 Z M20.9235 16.3592 C20.6892 16.4894 20.438 16.6072 20.1765 16.713 C18.9554 17.2071 17.3577 17.5 15.75 17.5 C14.1438 17.5 12.4312 17.2076 11.0983 16.7226 C10.6748 16.5685 10.273 16.389 9.91835 16.1829 C10.2841 18.9028 12.6142 21 15.4342 21 C18.193 21 20.483 18.9928 20.9235 16.3592 Z M 21 14.25 C 21 14.1898 20.9695 14.0462 20.7332 13.8279 C 20.4986 13.6113 20.1238 13.3838 19.6139 13.1775 C 18.5985 12.7667 17.1962 12.5 15.75 12.5 C 14.3023 12.5 12.7649 12.7672 11.6112 13.187 C 11.0315 13.398 10.5894 13.6329 10.3071 13.8606 C 10.0115 14.099 10 14.2357 10 14.25 C 10 14.2643 10.0115 14.401 10.3071 14.6394 C 10.5894 14.8671 11.0315 15.102 11.6113 15.313 C 12.7649 15.7328 14.3023 16 15.75 16 C 17.1962 16 18.5985 15.7334 19.6139 15.3225 C 20.1238 15.1163 20.4986 14.8887 20.7332 14.6721 C 20.9695 14.4538 21 14.3102 21 14.25 Z" fill="#FFFFFF" />
</svg>