<svg xmlns="http://www.w3.org/2000/svg" width="24" height="24" viewBox="0 0 24 24" fill="none">
  <path opacity="0.5" fill-rule="evenodd" clip-rule="evenodd" d="M1.25 21C1.25 20.5858 1.58579 20.25 2 20.25L22 20.25C22.4142 20.25 22.75 20.5858 22.75 21C22.75 21.4142 22.4142 21.75 22 21.75L2 21.75C1.58579 21.75 1.25 21.4142 1.25 21Z" fill="#FFFFFF" />
  <path fill-rule="nonzero" clip-rule="nonzero" d="M 3.00174 13 C 3 12.6878 3 12.355 3 12 V 7 C 3 5.11438 3 4.17157 3.58579 3.58579 C 4.17157 3 5.11438 3 7 3 H 13 C 14.8856 3 15.8284 3 16.4142 3.58579 C 16.649 3.82059 16.7897 4.11275 16.874 4.5 H 18 C 20.5261 4.5 22.75 6.31185 22.75 8.75 C 22.75 11.1882 20.5261 13 18 13 H 3.00174 Z M 16.9957 6 C 17 6.30037 17 6.63226 17 7 V 11.5 H 18 C 19.8921 11.5 21.25 10.1778 21.25 8.75 C 21.25 7.32216 19.8921 6 18 6 H 16.9957 Z" fill="#FFFFFF" />
  <path opacity="0.5" d="M9.00021 18H11.0002C13.8286 18 15.2429 18 16.1215 17.1213C16.8899 16.3529 16.9864 15.175 16.9985 13H3.00195C3.01406 15.175 3.11051 16.3529 3.87889 17.1213C4.75757 18 6.17179 18 9.00021 18Z" fill="#FFFFFF" />
</svg>