<svg xmlns="http://www.w3.org/2000/svg" width="24" height="24" viewBox="0 0 24 24" fill="none">
  <path fill-rule="nonzero" clip-rule="nonzero" d="M 7.58758 20.0262 L 4.0188 16.5368 C 2.67293 15.221 2 14.563 2 13.7454 C 2 13.2089 2.28972 12.7412 2.86916 12.1112 C 3.46036 11.4685 3.75595 11.1471 3.88968 10.8109 C 4.02341 10.4748 4.02705 10.0967 4.03433 9.34056 L 4.06648 5.99923 C 4.03217 3.81732 5.44093 2.02694 7.21305 2.0003 C 8.66759 1.97843 9.91482 3.15159 10.3341 4.77929 L 10.7995 4.32429 C 13.3618 1.81908 17.516 1.81908 20.0783 4.32429 C 22.6406 6.82951 22.6406 10.8913 20.0783 13.3965 L 13.2976 20.0262 C 11.9518 21.3421 11.2788 22 10.4426 22 C 9.60638 22 8.93345 21.3421 7.58758 20.0262 Z M5.98033 12.8722 C5.69076 13.1683 5.6961 13.6432 5.99228 13.9328 L10.2748 18.1199 C10.571 18.4095 11.0458 18.4041 11.3354 18.108 C11.625 17.8118 11.6196 17.337 11.3235 17.0474 L7.04093 12.8602 C6.74475 12.5706 6.26991 12.576 5.98033 12.8722 Z" fill="#FFFFFF" />
</svg>