<svg xmlns="http://www.w3.org/2000/svg" width="24" height="24" viewBox="0 0 24 24" fill="none">
  <path fill-rule="nonzero" clip-rule="nonzero" d="M 9.48097 4.56453 C 9.04458 3.40843 8.13142 2.73659 7.22433 2.75023 C 6.00496 2.76856 4.78618 4.06644 4.81639 5.98744 L 4.81654 5.99695 L 4.78429 9.34779 C 4.78392 9.38646 4.78359 9.42466 4.78326 9.46241 C 4.77958 9.88733 4.77639 10.2555 4.72083 10.5918 L 13.2976 18.9773 L 19.554 12.8602 C 21.8153 10.6492 21.8153 7.07159 19.554 4.86057 C 17.2832 2.64033 13.5946 2.64033 11.3238 4.86057 L 9.89629 6.25629 C 9.60012 6.54587 9.12528 6.54052 8.8357 6.24435 C 8.54612 5.94818 8.55147 5.47334 8.84764 5.18376 L 9.48097 4.56453 Z M10.6255 3.46692 C13.4953 1.0023 17.8629 1.10934 20.6026 3.78804 C23.4658 6.58745 23.4658 11.1333 20.6026 13.9328 L13.785 20.5985 C13.1436 21.2257 12.6089 21.7486 12.1274 22.1077 C11.6188 22.4871 11.0855 22.75 10.4426 22.75 C9.79971 22.75 9.26635 22.4871 8.75776 22.1077 C8.27633 21.7486 7.74162 21.2257 7.10017 20.5985 L3.45707 17.0366 C2.81601 16.4098 2.28112 15.8869 1.91343 15.4157 C1.52567 14.9188 1.25 14.3894 1.25 13.7454 C1.25 12.9035 1.72229 12.2503 2.31716 11.6035 C2.6191 11.2753 2.82216 11.054 2.96862 10.8735 C3.11205 10.6968 3.16627 10.6004 3.19279 10.5337 C3.26263 10.3582 3.27652 10.1482 3.28436 9.33336 L3.31643 6.00118 C3.28246 3.56209 4.88003 1.2853 7.20178 1.2504 C8.69904 1.22789 9.93458 2.16287 10.6255 3.46692 Z M 12.2234 20.0248 L 3.99674 11.9817 C 3.84016 12.1635 3.65229 12.3677 3.43686 12.6019 L 3.42117 12.619 C 2.85715 13.2322 2.75 13.5144 2.75 13.7454 C 2.75 13.9191 2.8108 14.1274 3.09598 14.4929 C 3.39409 14.8749 3.85492 15.3277 4.54313 16.0006 L 8.1119 19.4899 C 8.79988 20.1626 9.2633 20.6134 9.65466 20.9054 C 10.0281 21.1839 10.2493 21.25 10.4426 21.25 C 10.6359 21.25 10.8571 21.1839 11.2305 20.9054 C 11.5074 20.6988 11.8204 20.4127 12.2234 20.0248 Z" fill="#FFFFFF" />
</svg>