<svg xmlns="http://www.w3.org/2000/svg" width="24" height="24" viewBox="0 0 24 24" fill="none">
  <path fill-rule="nonzero" clip-rule="nonzero" d="M 17.3093 2.35785 C 18.3614 1.03363 20.3128 0.872125 21.5683 2.00537 C 21.6243 2.05592 21.686 2.11766 21.7692 2.20084 L 21.7993 2.2309 C 21.8823 2.31394 21.9442 2.37576 21.9947 2.43173 C 23.1279 3.68721 22.9664 5.63862 21.6422 6.69071 C 21.5831 6.73766 21.512 6.78843 21.4162 6.85684 L 19.3067 8.36365 C 19.6901 8.88574 19.9437 9.42955 19.9437 10.0721 C 19.9437 10.7538 19.6591 11.3197 19.2447 11.8629 C 18.8504 12.3796 18.2754 12.9545 17.5801 13.6498 L 13.6498 17.5801 C 12.9545 18.2755 12.3795 18.8505 11.8629 19.2447 C 11.3197 19.6591 10.7538 19.9437 10.0721 19.9437 C 9.42955 19.9437 8.88574 19.6901 8.36365 19.3067 L 6.85684 21.4162 C 6.78843 21.512 6.73767 21.5831 6.69071 21.6422 C 5.63862 22.9664 3.68722 23.1279 2.43173 21.9947 C 2.37577 21.9442 2.31395 21.8823 2.2309 21.7993 L 2.20084 21.7692 C 2.11766 21.686 2.05591 21.6243 2.00537 21.5683 C 0.872124 20.3128 1.03363 18.3614 2.35785 17.3093 C 2.41691 17.2624 2.48813 17.2115 2.58377 17.1432 L 4.69336 15.6364 C 4.30999 15.1143 4.05636 14.5705 4.05636 13.9279 C 4.05636 13.2463 4.34096 12.6803 4.75539 12.1371 C 5.14959 11.6205 5.7246 11.0455 6.41993 10.3502 L 10.3502 6.41993 C 11.0455 5.72459 11.6205 5.14959 12.1372 4.75538 C 12.6803 4.34096 13.2463 4.05636 13.9279 4.05636 C 14.5705 4.05636 15.1143 4.30999 15.6364 4.69336 L 17.1432 2.58377 C 17.2115 2.48813 17.2624 2.4169 17.3093 2.35785 Z M 16.7684 5.6893 C 17.0048 5.91915 17.2583 6.17267 17.532 6.44634 L 17.5537 6.46806 C 17.8274 6.74173 18.0809 6.99523 18.3107 7.23168 L 20.5272 5.64847 C 20.6478 5.56236 20.6843 5.53595 20.7091 5.51627 C 21.3556 5.00258 21.4345 4.04979 20.8812 3.43679 C 20.86 3.41333 20.8282 3.38118 20.7235 3.2765 C 20.6188 3.17174 20.5867 3.14005 20.5632 3.11885 C 19.9502 2.56554 18.9975 2.64439 18.4838 3.29095 C 18.4641 3.3157 18.4376 3.35238 18.3516 3.47281 L 16.7684 5.6893 Z M 5.6893 16.7684 L 3.47281 18.3516 C 3.35238 18.4376 3.3157 18.4641 3.29095 18.4838 C 2.64439 18.9975 2.56554 19.9502 3.11885 20.5632 C 3.14005 20.5867 3.17174 20.6188 3.2765 20.7235 C 3.38118 20.8282 3.41333 20.86 3.43679 20.8812 C 4.04979 21.4345 5.00258 21.3556 5.51627 20.7091 C 5.53595 20.6843 5.56236 20.6478 5.64846 20.5272 L 7.23168 18.3107 C 6.99523 18.0809 6.74173 17.8274 6.46806 17.5537 L 6.44634 17.532 C 6.17267 17.2583 5.91915 17.0048 5.6893 16.7684 Z M 13.047 5.94792 C 12.62 6.27375 12.1157 6.7758 11.3736 7.51785 L 7.51785 11.3736 C 6.7758 12.1157 6.27375 12.62 5.94792 13.047 C 5.63529 13.4568 5.55636 13.7061 5.55636 13.9279 C 5.55636 14.2286 5.70055 14.569 6.34065 15.2737 C 6.6474 15.6115 7.03372 15.9981 7.51785 16.4822 C 8.00199 16.9663 8.38855 17.3526 8.7263 17.6594 C 9.43103 18.2995 9.77141 18.4437 10.0721 18.4437 C 10.2939 18.4437 10.5433 18.3647 10.953 18.0521 C 11.3801 17.7263 11.8844 17.2242 12.6264 16.4822 L 16.4822 12.6264 C 17.2242 11.8844 17.7263 11.3801 18.0521 10.953 C 18.3647 10.5433 18.4437 10.2939 18.4437 10.0721 C 18.4437 9.77141 18.2995 9.43103 17.6594 8.7263 C 17.3526 8.38855 16.9663 8.00199 16.4822 7.51785 C 15.9981 7.03372 15.6115 6.6474 15.2737 6.34065 C 14.569 5.70055 14.2286 5.55636 13.9279 5.55636 C 13.7061 5.55636 13.4568 5.63529 13.047 5.94792 Z" fill="#FFFFFF" />
</svg>