<svg xmlns="http://www.w3.org/2000/svg" width="24" height="24" viewBox="0 0 24 24" fill="none">
  <path fill-rule="nonzero" clip-rule="nonzero" d="M 10.5303 1.46967 C 10.8232 1.76256 10.8232 2.23744 10.5303 2.53033 C 10.2709 2.78972 10.2709 3.21028 10.5303 3.46967 C 11.3755 4.31485 11.3755 5.68515 10.5303 6.53033 C 10.2374 6.82322 9.76252 6.82322 9.46963 6.53033 C 9.17673 6.23744 9.17673 5.76256 9.46963 5.46967 C 9.72902 5.21028 9.72902 4.78972 9.46963 4.53033 C 8.62445 3.68515 8.62445 2.31485 9.46963 1.46967 C 9.76252 1.17678 10.2374 1.17678 10.5303 1.46967 Z M 6.03013 2.96967 C 6.32303 3.26256 6.32303 3.73744 6.03013 4.03033 L 5.91402 4.14645 C 5.67077 4.3897 5.6434 4.77479 5.8498 5.05 C 6.50409 5.92239 6.41734 7.14313 5.64625 7.91421 L 5.53013 8.03033 C 5.23724 8.32322 4.76237 8.32322 4.46947 8.03033 C 4.17658 7.73744 4.17658 7.26256 4.46947 6.96967 L 4.58559 6.85355 C 4.82884 6.6103 4.85621 6.22521 4.6498 5.95 C 3.99552 5.07761 4.08227 3.85687 4.85336 3.08579 L 4.96947 2.96967 C 5.26237 2.67678 5.73724 2.67678 6.03013 2.96967 Z M 15.5301 2.96967 C 15.823 3.26256 15.823 3.73744 15.5301 4.03033 L 15.414 4.14645 C 15.1708 4.3897 15.1434 4.77479 15.3498 5.05 C 16.0041 5.92239 15.9173 7.14313 15.1463 7.91421 L 15.0301 8.03033 C 14.7372 8.32322 14.2624 8.32322 13.9695 8.03033 C 13.6766 7.73744 13.6766 7.26256 13.9695 6.96967 L 14.0856 6.85355 C 14.3288 6.6103 14.3562 6.22521 14.1498 5.95 C 13.4955 5.07761 13.5823 3.85687 14.3534 3.08579 L 14.4695 2.96967 C 14.7624 2.67678 15.2372 2.67678 15.5301 2.96967 Z M 4.64721 9.24998 C 4.66979 9.24999 4.69271 9.25 4.71595 9.25 H 15.2837 C 15.3069 9.25 15.3298 9.24999 15.3524 9.24998 C 15.7151 9.24982 15.9933 9.24969 16.2338 9.29246 C 16.8955 9.4101 17.4689 9.75939 17.8738 10.25 H 18.9998 C 21.0709 10.25 22.7498 11.9289 22.7498 14 C 22.7498 16.0711 21.0709 17.75 18.9998 17.75 H 17.6476 C 17.2095 18.8798 16.4485 19.8697 15.4433 20.5864 C 14.3818 21.3432 13.1105 21.75 11.8067 21.75 H 8.19287 C 6.88911 21.75 5.61784 21.3432 4.55626 20.5864 C 3.11546 19.5591 2.17631 17.9704 1.97088 16.2129 L 1.5702 12.7849 C 1.5675 12.7618 1.56483 12.739 1.5622 12.7166 C 1.51994 12.3564 1.48752 12.0801 1.50207 11.8362 C 1.57781 10.5669 2.51388 9.51505 3.7658 9.29246 C 4.00634 9.24969 4.28455 9.24982 4.64721 9.24998 Z M16.4681 16.4711 C16.4982 16.3288 16.5218 16.1845 16.5389 16.0388 L16.9396 12.6107 C16.9934 12.1502 17.0058 12.0187 17.0002 11.9255 C16.9658 11.3486 16.5403 10.8705 15.9712 10.7693 C15.8794 10.753 15.7473 10.75 15.2837 10.75 L4.71595 10.75 C4.25232 10.75 4.12023 10.753 4.02837 10.7693 C3.45932 10.8705 3.03383 11.3486 2.99941 11.9255 C2.99385 12.0187 3.00623 12.1502 3.06006 12.6107 L3.46074 16.0388 C3.61698 17.3755 4.33125 18.5837 5.42705 19.365 C6.23443 19.9406 7.20129 20.25 8.19287 20.25 L11.8067 20.25 C12.7983 20.25 13.7652 19.9406 14.5726 19.365 C15.351 18.81 15.9369 18.0395 16.267 17.1605 C16.2557 17.1088 16.2498 17.0551 16.2498 17 C16.2498 16.7936 16.3332 16.6067 16.4681 16.4711 Z M 18.0243 16.25 H 18.9998 C 20.2424 16.25 21.2498 15.2426 21.2498 14 C 21.2498 12.7574 20.2424 11.75 18.9998 11.75 H 18.491 C 18.4937 11.7786 18.4958 11.8073 18.4975 11.8362 C 18.5121 12.0801 18.4797 12.3564 18.4374 12.7166 C 18.4348 12.739 18.4321 12.7618 18.4294 12.7849 L 18.0287 16.2129 C 18.0273 16.2253 18.0258 16.2376 18.0243 16.25 Z" fill="#FFFFFF" />
</svg>