<svg xmlns="http://www.w3.org/2000/svg" width="24" height="24" viewBox="0 0 24 24" fill="none">
  <path fill-rule="nonzero" clip-rule="nonzero" d="M 11.2334 3.65379 C 13.9918 0.895558 18.4782 0.320685 21.0789 2.92126 C 23.6796 5.52187 23.1046 10.0082 20.3463 12.7664 C 18.4985 14.6141 15.5113 15.8786 12.9616 15.7876 C 12.7379 15.7796 12.5153 15.7611 12.2954 15.7309 L 6.85993 21.1662 C 5.74815 22.278 3.94561 22.278 2.83383 21.1662 C 1.72206 20.0545 1.72206 18.252 2.83383 17.1403 L 8.26895 11.7053 C 8.23881 11.4856 8.22021 11.2632 8.21219 11.0396 C 8.12062 8.48974 9.38534 5.50182 11.2334 3.65379 Z M12.2941 4.71447 C10.7139 6.29463 9.6359 8.8884 9.71122 10.9858 C9.71334 11.0448 9.71635 11.1031 9.72026 11.1608 C9.90527 10.8071 10.1197 10.4491 10.3482 10.0978 C11.3192 8.60515 12.6636 7.05539 13.5767 6.14231 C14.4911 5.228 15.8484 4.07644 17.1559 3.30026 C17.4171 3.14514 17.6843 3.00026 17.952 2.87396 C16.1404 2.46752 13.9349 3.07369 12.2941 4.71447 Z M19.432 3.93099 C19.0286 4.01365 18.5106 4.24041 17.9216 4.59009 C16.753 5.28383 15.4936 6.34684 14.6374 7.20299 C13.78 8.06039 12.5071 9.52982 11.6056 10.9158 C11.1514 11.6139 10.8206 12.247 10.6685 12.7452 C10.5926 12.9935 10.574 13.1679 10.5822 13.2782 C10.586 13.3299 10.5951 13.3585 10.6004 13.3714 C10.605 13.3824 10.6083 13.386 10.611 13.3888 C10.6137 13.3915 10.6174 13.3948 10.6284 13.3994 C10.6413 13.4047 10.6699 13.4138 10.7217 13.4176 C10.8321 13.4258 11.0065 13.4072 11.2548 13.3314 C11.7531 13.1793 12.3863 12.8485 13.0845 12.3945 C14.4706 11.4931 15.9402 10.2204 16.7976 9.36308 C17.6538 8.50698 18.7166 7.24751 19.4103 6.07882 C19.7599 5.48974 19.9866 4.97165 20.0692 4.56831 C20.153 4.15957 20.0635 4.02722 20.0182 3.98194 C19.9729 3.93668 19.8406 3.84723 19.432 3.93099 Z M 13.9023 13.652 C 13.5511 13.8803 13.1932 14.0946 12.8397 14.2795 C 12.8975 14.2834 12.956 14.2865 13.0152 14.2886 C 15.1125 14.3635 17.7057 13.2856 19.2856 11.7057 C 20.9263 10.065 21.5326 7.85988 21.1263 6.04843 C 21 6.3161 20.8552 6.58316 20.7002 6.8444 C 19.9241 8.15199 18.7727 9.5094 17.8583 10.4238 C 16.9451 11.3369 15.3951 12.6811 13.9023 13.652 Z" fill="#FFFFFF" />
</svg>