<svg xmlns="http://www.w3.org/2000/svg" width="24" height="24" viewBox="0 0 24 24" fill="none">
  <path fill-rule="nonzero" clip-rule="nonzero" d="M 17.9515 2.87396 C 16.1399 2.46752 13.9344 3.07369 12.2936 4.71447 C 10.7134 6.29463 9.63541 8.8884 9.71073 10.9858 C 9.71285 11.0448 9.71586 11.1031 9.71977 11.1608 C 9.90478 10.8071 10.1192 10.4491 10.3477 10.0978 C 11.3187 8.60515 12.6631 7.05539 13.5763 6.14231 C 14.4906 5.228 15.8479 4.07644 17.1554 3.30026 C 17.4167 3.14514 17.6838 3.00026 17.9515 2.87396 Z M21.0784 2.92126 C23.6791 5.52187 23.1041 10.0082 20.3458 12.7664 C18.498 14.6141 15.5108 15.8786 12.9612 15.7876 C11.6908 15.7422 10.4561 15.3556 9.54987 14.4494 C8.64398 13.5436 8.2573 12.3095 8.2117 11.0396 C8.12013 8.48974 9.38485 5.50182 11.2329 3.65379 C13.9913 0.895558 18.4777 0.320685 21.0784 2.92126 Z M 20.0177 3.98194 C 19.9725 3.93668 19.8402 3.84723 19.4315 3.93099 C 19.0282 4.01365 18.5101 4.24041 17.9211 4.59009 C 16.7525 5.28383 15.4931 6.34684 14.6369 7.20299 C 13.7795 8.06039 12.5067 9.52982 11.6051 10.9158 C 11.1509 11.6139 10.8201 12.247 10.668 12.7452 C 10.5921 12.9935 10.5735 13.1679 10.5817 13.2782 C 10.5855 13.3299 10.5946 13.3585 10.5999 13.3714 C 10.6045 13.3824 10.6078 13.386 10.6105 13.3888 C 10.6132 13.3915 10.6169 13.3948 10.6279 13.3994 C 10.6408 13.4047 10.6695 13.4138 10.7212 13.4176 C 10.8316 13.4258 11.006 13.4072 11.2543 13.3314 C 11.7526 13.1793 12.3858 12.8485 13.084 12.3945 C 14.4701 11.4931 15.9397 10.2204 16.7971 9.36308 C 17.6533 8.50698 18.7162 7.24751 19.4098 6.07882 C 19.7594 5.48974 19.9861 4.97165 20.0687 4.56831 C 20.1525 4.15957 20.063 4.02722 20.0177 3.98194 Z M12.8392 14.2795 C12.897 14.2834 12.9555 14.2865 13.0147 14.2886 C15.112 14.3635 17.7052 13.2856 19.2851 11.7057 C20.9259 10.065 21.5321 7.85988 21.1258 6.04843 C20.9996 6.3161 20.8547 6.58316 20.6997 6.8444 C19.9236 8.15199 18.7722 9.5094 17.8578 10.4238 C16.9446 11.3369 15.3946 12.6811 13.9018 13.652 C13.5506 13.8803 13.1927 14.0946 12.8392 14.2795 Z" fill="#FFFFFF" />
  <path opacity="0.5" d="M8.26895 11.7053C8.41001 12.7338 8.80393 13.703 9.55036 14.4494C10.297 15.1961 11.2666 15.59 12.2954 15.7309L6.85993 21.1662C5.74815 22.278 3.94561 22.278 2.83383 21.1662C1.72206 20.0545 1.72206 18.252 2.83383 17.1403L8.26895 11.7053Z" fill="#FFFFFF" />
</svg>