<svg xmlns="http://www.w3.org/2000/svg" width="24" height="24" viewBox="0 0 24 24" fill="none">
  <path fill-rule="nonzero" clip-rule="nonzero" d="M 2.94762 6.38823 C 1.43049 4.837 2.54526 2.25 4.70095 2.25 H 19.2991 C 21.4547 2.25 22.5695 4.83699 21.0524 6.38822 L 12.75 14.8772 V 20.25 H 16.2439 C 16.6581 20.25 16.9939 20.5858 16.9939 21 C 16.9939 21.4142 16.6581 21.75 16.2439 21.75 H 7.75611 C 7.34189 21.75 7.00611 21.4142 7.00611 21 C 7.00611 20.5858 7.34189 20.25 7.75611 20.25 H 11.25 V 14.8772 L 2.94762 6.38823 Z M 12 13.4988 L 14.9329 10.5 H 9.06714 L 12 13.4988 Z M 7.60012 9 H 16.3999 L 19.98 5.33942 C 20.5553 4.75118 20.1451 3.75 19.2991 3.75 H 4.70095 C 3.85492 3.75 3.4447 4.75118 4.02001 5.33942 L 7.60012 9 Z" fill="#FFFFFF" />
</svg>