<svg xmlns="http://www.w3.org/2000/svg" width="24" height="24" viewBox="0 0 24 24" fill="none">
  <path fill-rule="nonzero" clip-rule="nonzero" d="M 4.25 4.89474 C 4.25 3.43409 5.43409 2.25 6.89474 2.25 H 17.1053 C 18.5659 2.25 19.75 3.43409 19.75 4.89474 V 8 C 19.75 12.0272 16.6783 15.3369 12.75 15.7142 V 20.2499 H 15.75 C 16.1642 20.2499 16.5 20.5857 16.5 20.9999 C 16.5 21.4141 16.1642 21.7499 15.75 21.7499 H 8.25 C 7.83579 21.7499 7.5 21.4141 7.5 20.9999 C 7.5 20.5857 7.83579 20.2499 8.25 20.2499 H 11.25 V 15.7142 C 7.3217 15.3369 4.25 12.0272 4.25 8 V 4.89474 Z M 6.89474 3.75 C 6.26252 3.75 5.75 4.26252 5.75 4.89474 V 8 C 5.75 8.02939 5.7502 8.05872 5.75061 8.08802 C 5.95277 8.00953 6.20043 7.91726 6.47478 7.82323 C 7.18313 7.58047 8.13813 7.30159 8.95396 7.25141 C 10.4226 7.16109 11.4822 7.80647 12.3428 8.33061 C 12.3586 8.34023 12.3743 8.34982 12.39 8.35935 C 13.2884 8.90623 13.9844 9.31105 14.954 9.25142 C 15.557 9.21433 16.352 8.99321 17.0389 8.75779 C 17.3731 8.64324 17.6655 8.53107 17.874 8.44765 C 17.9781 8.40601 18.0608 8.37174 18.1168 8.34817 C 18.1447 8.33639 18.166 8.3273 18.1799 8.32132 L 18.1951 8.31474 L 18.1984 8.3133 C 18.2131 8.30688 18.2283 8.30075 18.2431 8.29533 C 18.2477 8.19746 18.25 8.099 18.25 8 V 4.89474 C 18.25 4.26252 17.7375 3.75 17.1053 3.75 H 6.89474 Z M17.9094 10.0404 C17.7893 10.0845 17.6605 10.1304 17.5252 10.1768 C16.8169 10.4195 15.8619 10.6984 15.046 10.7486 C13.5774 10.8389 12.5178 10.1935 11.6572 9.66939 C11.6414 9.65977 11.6257 9.65019 11.61 9.64065 C10.7116 9.09377 10.0156 8.68895 9.04604 8.74859 C8.44302 8.78567 7.64802 9.00679 6.96108 9.24222 C6.62685 9.35676 6.33447 9.46893 6.12595 9.55236 C6.063 9.57754 6.00788 9.60004 5.96176 9.6191 C6.67506 12.286 9.10817 14.25 12 14.25 C14.7373 14.25 17.0636 12.4903 17.9094 10.0404 Z" fill="#FFFFFF" />
</svg>