<svg xmlns="http://www.w3.org/2000/svg" width="24" height="24" viewBox="0 0 24 24" fill="none">
  <path fill-rule="nonzero" clip-rule="nonzero" d="M 12 2.75 C 6.89137 2.75 2.75 6.89137 2.75 12 C 2.75 12.122 2.75236 12.2435 2.75703 12.3643 C 3.16036 12.2892 3.57594 12.25 4.00015 12.25 C 7.72807 12.25 10.7502 15.2721 10.7502 19 C 10.7502 19.7377 10.6315 20.4487 10.4121 21.1143 C 10.9276 21.2035 11.4581 21.25 12 21.25 C 16.2686 21.25 19.8632 18.3579 20.9288 14.4261 C 18.2142 13.5516 16.25 11.006 16.25 8.00008 C 16.25 6.68035 16.6294 5.44776 17.2847 4.40719 C 15.7866 3.36236 13.9656 2.75 12 2.75 Z M 18.4534 5.373 C 18.0059 6.1455 17.75 7.04232 17.75 8.00008 C 17.75 10.268 19.1886 12.2012 21.2034 12.9348 C 21.2342 12.6275 21.25 12.3157 21.25 12 C 21.25 9.40177 20.1795 7.05406 18.4534 5.373 Z M 9.18679 22.378 C 5.05447 21.2603 1.90943 17.7421 1.34166 13.4094 C 1.28117 12.9479 1.25 12.4774 1.25 12 C 1.25 6.06294 6.06294 1.25 12 1.25 C 14.5751 1.25 16.9406 2.15639 18.7918 3.66686 C 21.2062 5.6369 22.75 8.63846 22.75 12 C 22.75 12.6916 22.6846 13.3686 22.5594 14.025 C 21.6118 18.994 17.2453 22.75 12 22.75 C 11.0276 22.75 10.0843 22.6207 9.18679 22.378 Z M 8.95587 20.7376 C 9.14638 20.1943 9.25015 19.6098 9.25015 19 C 9.25015 16.1005 6.89965 13.75 4.00015 13.75 C 3.63524 13.75 3.27953 13.7871 2.93646 13.8576 C 3.59104 17.0691 5.9113 19.677 8.95587 20.7376 Z M 10.5 6.75 C 9.5335 6.75 8.75 7.5335 8.75 8.5 C 8.75 9.4665 9.5335 10.25 10.5 10.25 C 11.4665 10.25 12.25 9.4665 12.25 8.5 C 12.25 7.5335 11.4665 6.75 10.5 6.75 Z M 7.25 8.5 C 7.25 6.70507 8.70507 5.25 10.5 5.25 C 12.2949 5.25 13.75 6.70507 13.75 8.5 C 13.75 10.2949 12.2949 11.75 10.5 11.75 C 8.70507 11.75 7.25 10.2949 7.25 8.5 Z M 15 15.75 C 14.8619 15.75 14.75 15.8619 14.75 16 C 14.75 16.1381 14.8619 16.25 15 16.25 C 15.1381 16.25 15.25 16.1381 15.25 16 C 15.25 15.8619 15.1381 15.75 15 15.75 Z M 13.25 16 C 13.25 15.0335 14.0335 14.25 15 14.25 C 15.9665 14.25 16.75 15.0335 16.75 16 C 16.75 16.9665 15.9665 17.75 15 17.75 C 14.0335 17.75 13.25 16.9665 13.25 16 Z" fill="#FFFFFF" />
</svg>