<svg xmlns="http://www.w3.org/2000/svg" width="24" height="24" viewBox="0 0 24 24" fill="none">
  <path fill-rule="nonzero" clip-rule="nonzero" d="M 13.4618 4.04658 C 14.6652 4.86901 15.8624 5.85918 17.0015 6.99832 C 18.1407 8.13749 19.1309 9.3347 19.9533 10.5382 C 20.6544 9.16072 21.0758 7.8564 21.2064 6.72484 C 21.371 5.29776 21.0678 4.24334 20.4122 3.58772 C 19.7566 2.9321 18.7022 2.62887 17.2751 2.79353 C 16.1435 2.92409 14.8392 3.34552 13.4618 4.04658 Z M20.8687 11.9999 C21.874 13.765 22.5141 15.5231 22.6963 17.1028 C22.8913 18.7931 22.5675 20.3775 21.4727 21.4724 C20.3778 22.5672 18.7934 22.891 17.1031 22.696 C15.5234 22.5138 13.7652 21.8737 12.0001 20.8684 C10.235 21.8736 8.47686 22.5137 6.89723 22.6959 C5.20694 22.8909 3.62254 22.567 2.52774 21.4722 C1.43295 20.3774 1.10909 18.793 1.30408 17.1027 C1.48629 15.5231 2.12632 13.765 3.13159 11.9999 C2.12623 10.2347 1.48615 8.47654 1.3039 6.89684 C1.10888 5.20649 1.43272 3.62203 2.52754 2.5272 C3.62236 1.43238 5.2068 1.10853 6.89713 1.30354 C8.47679 1.48578 10.235 2.12585 12.0001 3.13117 C13.7652 2.12579 15.5235 1.48568 17.1032 1.30341 C18.7935 1.10838 20.378 1.43222 21.4729 2.52706 C22.5677 3.6219 22.8915 5.20639 22.6965 6.89677 C22.5142 8.47649 21.8741 10.2347 20.8687 11.9999 Z M 19.1195 11.9999 C 18.2825 10.6747 17.2143 9.33237 15.9409 8.05898 C 14.6675 6.78562 13.3252 5.71736 12.0001 4.88044 C 10.6751 5.71734 9.3328 6.78555 8.05951 8.05884 C 6.78609 9.33228 5.71778 10.6747 4.88085 11.9999 C 5.71776 13.3249 6.78599 14.6672 8.05932 15.9406 C 9.33267 17.2139 10.675 18.2822 12.0001 19.1191 C 13.3252 18.2822 14.6677 17.2139 15.9411 15.9404 C 17.2144 14.6671 18.2826 13.3249 19.1195 11.9999 Z M13.4618 19.953 C14.8392 20.654 16.1435 21.0754 17.275 21.2059 C18.702 21.3705 19.7564 21.0673 20.412 20.4117 C21.0676 19.7561 21.3708 18.7017 21.2062 17.2747 C21.0757 16.1432 20.6543 14.839 19.9533 13.4616 C19.1309 14.6649 18.1408 15.862 17.0017 17.0011 C15.8625 18.1403 14.6653 19.1305 13.4618 19.953 Z M 10.5383 19.9529 C 9.33492 19.1305 8.13777 18.1404 6.99866 17.0012 C 5.85956 15.8621 4.86943 14.665 4.04702 13.4616 C 3.34607 14.839 2.92471 16.1432 2.79419 17.2746 C 2.62958 18.7016 2.93281 19.756 3.5884 20.4116 C 4.24399 21.0672 5.29835 21.3704 6.72534 21.2058 C 7.85681 21.0752 9.161 20.6539 10.5383 19.9529 Z M 4.04699 10.5381 C 4.86944 9.33463 5.85966 8.13738 6.99885 6.99819 C 8.13792 5.85912 9.33502 4.869 10.5384 4.0466 C 9.16098 3.34559 7.85673 2.9242 6.72522 2.79366 C 5.29819 2.62903 4.2438 2.93226 3.58821 3.58786 C 2.9326 4.24347 2.62937 5.29787 2.79401 6.72493 C 2.92456 7.85646 3.34596 9.16073 4.04699 10.5381 Z M 12.0002 10.2497 C 11.0337 10.2497 10.2502 11.0332 10.2502 11.9997 C 10.2502 12.9662 11.0337 13.7497 12.0002 13.7497 C 12.9667 13.7497 13.7502 12.9662 13.7502 11.9997 C 13.7502 11.0332 12.9667 10.2497 12.0002 10.2497 Z M 8.7502 11.9997 C 8.7502 10.2048 10.2053 8.74971 12.0002 8.74971 C 13.7951 8.74971 15.2502 10.2048 15.2502 11.9997 C 15.2502 13.7946 13.7951 15.2497 12.0002 15.2497 C 10.2053 15.2497 8.7502 13.7946 8.7502 11.9997 Z" fill="#FFFFFF" />
</svg>