<svg xmlns="http://www.w3.org/2000/svg" width="24" height="24" viewBox="0 0 24 24" fill="none">
  <path fill-rule="nonzero" clip-rule="nonzero" d="M 8.00609 2.46967 C 8.29898 2.76256 8.29898 3.23744 8.00609 3.53033 C 7.7674 3.76902 7.56079 4.01287 7.38322 4.25989 C 7.14145 4.59622 6.67281 4.67288 6.33648 4.43112 C 6.00014 4.18935 5.92348 3.7207 6.16525 3.38437 C 6.39179 3.06921 6.65139 2.7637 6.94543 2.46967 C 7.23832 2.17678 7.7132 2.17678 8.00609 2.46967 Z M 18.0571 6.59287 C 17.4447 6.43867 16.8157 6.40899 16.1889 6.48369 C 15.7776 6.53271 15.4044 6.23902 15.3554 5.82772 C 15.3064 5.41642 15.6001 5.04325 16.0114 4.99423 C 16.8026 4.89994 17.617 4.93524 18.4233 5.13828 C 18.825 5.23943 19.0686 5.64705 18.9675 6.04872 C 18.8663 6.4504 18.4587 6.69402 18.0571 6.59287 Z M 6.04872 5.03236 C 6.4504 5.13351 6.69402 5.54113 6.59287 5.9428 C 6.43867 6.55516 6.40899 7.18412 6.48369 7.81094 C 6.53271 8.22224 6.23902 8.59541 5.82772 8.64443 C 5.41642 8.69344 5.04325 8.39976 4.99423 7.98845 C 4.89994 7.1973 4.93524 6.38285 5.13828 5.57651 C 5.23943 5.17484 5.64705 4.93121 6.04872 5.03236 Z M 14.7177 6.01436 C 14.8846 6.39346 14.7126 6.83608 14.3335 7.00297 C 13.7328 7.2674 13.1636 7.61379 12.6511 8.01562 C 12.3251 8.27119 11.8537 8.21412 11.5981 7.88814 C 11.3425 7.56217 11.3996 7.09074 11.7256 6.83517 C 12.3315 6.36015 13.0078 5.94762 13.7291 5.63011 C 14.1082 5.46322 14.5508 5.63525 14.7177 6.01436 Z M 19.5687 6.33647 C 19.8105 6.00014 20.2792 5.92348 20.6155 6.16525 C 20.9306 6.39179 21.2362 6.65139 21.5302 6.94543 C 21.8231 7.23832 21.8231 7.7132 21.5302 8.00609 C 21.2373 8.29898 20.7624 8.29898 20.4695 8.00609 C 20.2308 7.7674 19.987 7.56079 19.74 7.38322 C 19.4036 7.14145 19.327 6.67281 19.5687 6.33647 Z M11.4096 9.11277 C11.4828 9.15584 11.549 9.21147 11.6047 9.27822 C11.7339 9.25957 11.8659 9.24993 11.9999 9.24993 C12.1714 9.24993 12.3396 9.26571 12.503 9.29598 C12.6748 9.01899 13.0149 8.87689 13.3442 8.96989 C14.0928 9.1813 14.8257 9.57114 15.4972 10.0776 C15.8279 10.327 15.8938 10.7972 15.6444 11.128 C15.4627 11.3688 15.1638 11.4692 14.8871 11.4096 C14.844 11.4828 14.7884 11.549 14.7216 11.6047 C14.7403 11.7339 14.7499 11.8659 14.7499 11.9999 C14.7499 12.1714 14.7341 12.3396 14.7039 12.503 C14.9809 12.6748 15.123 13.0149 15.03 13.3442 C14.8186 14.0928 14.4287 14.8257 13.9223 15.4972 C13.6729 15.8279 13.2026 15.8938 12.8719 15.6444 C12.631 15.4627 12.5306 15.1638 12.5903 14.8871 C12.5171 14.844 12.4509 14.7884 12.3952 14.7216 C12.2659 14.7403 12.1339 14.7499 11.9999 14.7499 C11.8284 14.7499 11.6602 14.7341 11.4968 14.7039 C11.3251 14.9809 10.985 15.123 10.6556 15.03 C9.90704 14.8186 9.17417 14.4287 8.50269 13.9223 C8.17198 13.6729 8.10608 13.2026 8.35549 12.8719 C8.53716 12.631 8.83602 12.5306 9.11277 12.5903 C9.15583 12.5171 9.21147 12.4509 9.27822 12.3952 C9.25957 12.2659 9.24993 12.1339 9.24993 11.9999 C9.24993 11.8284 9.26571 11.6602 9.29598 11.4968 C9.01899 11.3251 8.87689 10.985 8.96989 10.6557 C9.18129 9.90705 9.57114 9.17417 10.0776 8.50269 C10.327 8.17199 10.7972 8.10608 11.128 8.35549 C11.3688 8.53717 11.4692 8.83603 11.4096 9.11277 Z M 13.1958 10.7661 C 12.9928 10.908 12.7239 10.9464 12.4782 10.8445 C 12.3319 10.7838 12.1708 10.7499 11.9999 10.7499 C 11.8291 10.7499 11.668 10.7838 11.5216 10.8445 C 11.2772 10.9459 11.0098 10.9084 10.8072 10.7683 C 10.7934 10.78 10.7797 10.7919 10.7661 10.8041 C 10.908 11.0071 10.9464 11.2759 10.8445 11.5216 C 10.7838 11.668 10.7499 11.8291 10.7499 11.9999 C 10.7499 12.1708 10.7838 12.3319 10.8445 12.4782 C 10.9459 12.7227 10.9084 12.9901 10.7683 13.1927 C 10.78 13.2064 10.7919 13.2201 10.8041 13.2338 C 11.0071 13.0919 11.2759 13.0535 11.5216 13.1554 C 11.668 13.2161 11.8291 13.2499 11.9999 13.2499 C 12.1708 13.2499 12.3319 13.2161 12.4782 13.1554 C 12.7227 13.054 12.9901 13.0915 13.1927 13.2316 C 13.2064 13.2199 13.2201 13.208 13.2337 13.1958 C 13.0919 12.9928 13.0535 12.7239 13.1554 12.4782 C 13.2161 12.3319 13.2499 12.1708 13.2499 11.9999 C 13.2499 11.8291 13.2161 11.668 13.1554 11.5216 C 13.054 11.2772 13.0915 11.0098 13.2316 10.8072 C 13.2199 10.7934 13.208 10.7798 13.1958 10.7661 Z M 6.01436 9.28215 C 6.39346 9.11526 6.83608 9.28729 7.00297 9.6664 C 7.2674 10.2671 7.61379 10.8363 8.01562 11.3488 C 8.27118 11.6747 8.21411 12.1462 7.88814 12.4017 C 7.56217 12.6573 7.09074 12.6002 6.83517 12.2743 C 6.36015 11.6684 5.94762 10.992 5.63011 10.2708 C 5.46322 9.89166 5.63525 9.44904 6.01436 9.28215 Z M 16.1117 11.5981 C 16.4377 11.3425 16.9091 11.3996 17.1647 11.7256 C 17.6397 12.3315 18.0522 13.0078 18.3697 13.7291 C 18.5366 14.1082 18.3646 14.5508 17.9855 14.7177 C 17.6064 14.8846 17.1638 14.7126 16.9969 14.3335 C 16.7325 13.7328 16.3861 13.1636 15.9842 12.6511 C 15.7287 12.3251 15.7857 11.8537 16.1117 11.5981 Z M 18.1721 15.3554 C 18.5834 15.3064 18.9566 15.6001 19.0056 16.0114 C 19.0999 16.8026 19.0646 17.617 18.8616 18.4233 C 18.7604 18.825 18.3528 19.0686 17.9511 18.9675 C 17.5495 18.8663 17.3058 18.4587 17.407 18.0571 C 17.5612 17.4447 17.5909 16.8157 17.5162 16.1889 C 17.4671 15.7776 17.7608 15.4045 18.1721 15.3554 Z M 2.46967 15.9938 C 2.76256 15.7009 3.23744 15.7009 3.53033 15.9938 C 3.76902 16.2325 4.01287 16.4391 4.25989 16.6166 C 4.59622 16.8584 4.67288 17.327 4.43112 17.6634 C 4.18935 17.9997 3.7207 18.0764 3.38437 17.8346 C 3.06921 17.6081 2.7637 17.3485 2.46967 17.0544 C 2.17678 16.7615 2.17678 16.2867 2.46967 15.9938 Z M 12.4017 16.1117 C 12.6573 16.4377 12.6002 16.9091 12.2743 17.1647 C 11.6684 17.6397 10.992 18.0522 10.2708 18.3697 C 9.89166 18.5366 9.44904 18.3646 9.28215 17.9855 C 9.11526 17.6064 9.28729 17.1638 9.6664 16.9969 C 10.2671 16.7325 10.8363 16.3861 11.3488 15.9842 C 11.6747 15.7287 12.1462 15.7857 12.4017 16.1117 Z M 5.03236 17.9511 C 5.13351 17.5495 5.54113 17.3058 5.9428 17.407 C 6.55516 17.5612 7.18412 17.5909 7.81094 17.5162 C 8.22224 17.4671 8.59541 17.7608 8.64443 18.1721 C 8.69345 18.5834 8.39976 18.9566 7.98845 19.0056 C 7.1973 19.0999 6.38285 19.0646 5.57651 18.8616 C 5.17484 18.7604 4.93121 18.3528 5.03236 17.9511 Z M 17.6634 19.5687 C 17.9997 19.8105 18.0764 20.2792 17.8346 20.6155 C 17.6081 20.9306 17.3485 21.2362 17.0544 21.5302 C 16.7615 21.8231 16.2867 21.8231 15.9938 21.5302 C 15.7009 21.2373 15.7009 20.7624 15.9938 20.4695 C 16.2325 20.2308 16.4391 19.987 16.6166 19.74 C 16.8584 19.4036 17.327 19.327 17.6634 19.5687 Z" fill="#FFFFFF" />
</svg>