<svg xmlns="http://www.w3.org/2000/svg" width="24" height="24" viewBox="0 0 24 24" fill="none">
  <path fill-rule="nonzero" clip-rule="nonzero" d="M 10.013 13.9011 C 9.56125 13.5111 9.19887 13.0109 8.92762 12.4529 C 8.30132 11.1645 8.11552 9.50716 8.34394 7.8948 C 8.79854 4.68585 10.9957 1.25 15.3115 1.25 C 15.7257 1.25 16.0615 1.58579 16.0615 2 C 16.0615 2.41421 15.7257 2.75 15.3115 2.75 C 12.0274 2.75 10.2245 5.31415 9.82911 8.1052 C 9.72042 8.87239 9.72584 9.62583 9.83141 10.3087 C 9.91337 10.2038 10.0028 10.1049 10.0989 10.013 C 10.4889 9.56125 10.9891 9.19887 11.5471 8.92762 C 12.8355 8.30132 14.4928 8.11552 16.1052 8.34394 C 19.3142 8.79854 22.75 10.9957 22.75 15.3115 C 22.75 15.7257 22.4142 16.0615 22 16.0615 C 21.5858 16.0615 21.25 15.7257 21.25 15.3115 C 21.25 12.0274 18.6858 10.2245 15.8948 9.82911 C 15.2064 9.73159 14.5291 9.72593 13.9039 9.80205 C 14.5432 10.2171 15.0377 10.835 15.3839 11.5471 C 16.0102 12.8355 16.196 14.4928 15.9676 16.1052 C 15.513 19.3142 13.3158 22.75 9 22.75 C 8.58579 22.75 8.25 22.4142 8.25 22 C 8.25 21.5858 8.58579 21.25 9 21.25 C 12.2842 21.25 14.087 18.6858 14.4824 15.8948 C 14.6034 15.041 14.583 14.2041 14.4405 13.4626 C 14.0493 14.3192 13.3211 14.9619 12.4529 15.3839 C 11.1645 16.0102 9.50716 16.196 7.8948 15.9676 C 4.68585 15.513 1.25 13.3158 1.25 9 C 1.25 8.58579 1.58579 8.25 2 8.25 C 2.41421 8.25 2.75 8.58579 2.75 9 C 2.75 12.2842 5.31415 14.087 8.1052 14.4824 C 9.01339 14.6111 9.90232 14.5798 10.6778 14.4118 C 10.4306 14.276 10.2065 14.1033 10.013 13.9011 Z M12.1335 13.243 C12.7611 13.1764 13.25 12.6453 13.25 12 C13.25 11.3096 12.6904 10.75 12 10.75 C11.6877 10.75 11.4021 10.8646 11.183 11.0539 C10.9342 11.367 10.7895 11.728 10.757 12.1335 C10.7846 12.3934 10.8919 12.6295 11.0539 12.817 C11.367 13.0658 11.728 13.2105 12.1335 13.243 Z" fill="#FFFFFF" />
</svg>