<svg xmlns="http://www.w3.org/2000/svg" width="24" height="24" viewBox="0 0 24 24" fill="none">
  <path fill-rule="nonzero" clip-rule="nonzero" d="M 16.25 2 C 16.25 1.58579 16.5858 1.25 17 1.25 H 22 C 22.4142 1.25 22.75 1.58579 22.75 2 V 7 C 22.75 7.41421 22.4142 7.75 22 7.75 C 21.5858 7.75 21.25 7.41421 21.25 7 V 3.81066 L 16.6949 8.36578 C 17.9773 9.88802 18.75 11.8538 18.75 14 C 18.75 18.8325 14.8325 22.75 10 22.75 C 5.16751 22.75 1.25 18.8325 1.25 14 C 1.25 9.16751 5.16751 5.25 10 5.25 C 12.1462 5.25 14.112 6.02271 15.6342 7.30512 L 20.1893 2.75 H 17 C 16.5858 2.75 16.25 2.41421 16.25 2 Z M 10 6.75 C 5.99594 6.75 2.75 9.99594 2.75 14 C 2.75 18.0041 5.99594 21.25 10 21.25 C 14.0041 21.25 17.25 18.0041 17.25 14 C 17.25 9.99594 14.0041 6.75 10 6.75 Z" fill="#FFFFFF" />
</svg>