<svg xmlns="http://www.w3.org/2000/svg" width="24" height="24" viewBox="0 0 24 24" fill="none">
  <path fill-rule="nonzero" clip-rule="nonzero" d="M12 20 C10.1771 20 8.49656 19.3903 7.15125 18.3637 C6.92455 18.4177 6.7024 18.4662 6.48528 18.5092 C6.07894 18.5896 5.68437 18.3253 5.60398 17.919 C5.54578 17.6248 5.66824 17.3368 5.8945 17.1697 C5.16056 16.3037 4.60754 15.2796 4.2938 14.1557 C4.02466 14.4302 3.78866 14.695 3.58696 14.9475 C3.32843 15.2711 2.8565 15.3239 2.53287 15.0654 C2.20924 14.8069 2.15647 14.3349 2.415 14.0113 C2.67596 13.6846 2.97651 13.3517 3.31137 13.0159 C3.50899 12.8177 3.78987 12.7532 4.04175 12.8223 C4.01414 12.552 4 12.2776 4 12 C4 7.58172 7.58172 4 12 4 C13.917 4 15.6765 4.67424 17.0543 5.79852 C17.1614 5.64353 17.3267 5.52851 17.5262 5.48921 C17.9972 5.39638 18.4474 5.32932 18.8712 5.29032 C19.2837 5.25235 19.6488 5.55595 19.6868 5.96842 C19.7247 6.38089 19.4212 6.74604 19.0087 6.784 C18.7436 6.8084 18.4607 6.84611 18.1616 6.89725 C18.8688 7.75024 19.4023 8.75248 19.7077 9.84972 C20.0014 9.61143 20.4336 9.628 20.708 9.90049 C21.002 10.1923 21.0037 10.6672 20.7118 10.9611 C20.4882 11.1864 20.2479 11.4141 19.9922 11.6433 C19.9974 11.7615 20 11.8805 20 12 C20 16.4183 16.4183 20 12 20 Z M7.15125 18.3637 C8.0653 18.1459 9.05325 17.8395 10.083 17.4529 C10.4708 17.3073 10.6671 16.8749 10.5216 16.4872 C10.376 16.0994 9.94359 15.903 9.55581 16.0486 C8.33112 16.5084 7.19089 16.8405 6.19417 17.0377 C6.08204 17.0599 5.98073 17.106 5.8945 17.1697 C6.26891 17.6114 6.69042 18.012 7.15125 18.3637 Z M 19.7077 9.84972 C 19.6869 9.86663 19.6667 9.88483 19.6474 9.90431 C 18.9609 10.5957 18.0797 11.3337 17.0388 12.0753 C 16.7014 12.3157 16.6228 12.784 16.8631 13.1213 C 17.1035 13.4587 17.5718 13.5373 17.9091 13.297 C 18.6809 12.7471 19.3806 12.1912 19.9922 11.6433 C 19.965 11.0246 19.8676 10.4241 19.7077 9.84972 Z M20.9366 5.37924 C21.5416 5.52252 22.1206 5.81574 22.4648 6.36582 C22.9422 7.12886 22.7566 8.02003 22.379 8.77818 C22.1943 9.14894 21.744 9.29979 21.3732 9.1151 C21.0025 8.93042 20.8516 8.48014 21.0363 8.10938 C21.3262 7.52732 21.2565 7.26269 21.1932 7.16142 C21.1368 7.07125 20.985 6.93219 20.5909 6.83886 C20.1879 6.74339 19.9385 6.33925 20.034 5.93619 C20.1294 5.53313 20.5336 5.28378 20.9366 5.37924 Z M2.81481 16.2501 C2.70479 16.5954 2.75679 16.7598 2.80651 16.8393 C2.88355 16.9624 3.13763 17.1628 3.83199 17.2293 C4.24432 17.2687 4.54658 17.635 4.50712 18.0473 C4.46765 18.4596 4.1014 18.7619 3.68907 18.7224 C2.84153 18.6413 1.98775 18.3587 1.53488 17.6349 C1.17354 17.0573 1.19392 16.3963 1.38562 15.7947 C1.51138 15.4 1.93327 15.1821 2.32793 15.3078 C2.72259 15.4336 2.94057 15.8555 2.81481 16.2501 Z M 15.7504 14.704 C 16.106 14.4915 16.2218 14.0309 16.0093 13.6754 C 15.7967 13.3199 15.3362 13.204 14.9807 13.4166 C 14.4991 13.7045 13.9974 13.9881 13.4781 14.2648 C 12.9445 14.5491 12.4132 14.8149 11.8883 15.0615 C 11.5134 15.2376 11.3522 15.6843 11.5283 16.0592 C 11.7044 16.4341 12.1511 16.5953 12.526 16.4192 C 13.0739 16.1618 13.6277 15.8847 14.1834 15.5887 C 14.7242 15.3005 15.2474 15.0048 15.7504 14.704 Z" fill="#FFFFFF" />
</svg>