<svg xmlns="http://www.w3.org/2000/svg" width="24" height="24" viewBox="0 0 24 24" fill="none">
  <path fill-rule="nonzero" clip-rule="nonzero" d="M10 5.24989 C14.8325 5.24989 18.75 9.1674 18.75 13.9999 C18.75 18.8324 14.8325 22.7499 10 22.7499 C5.16751 22.7499 1.25 18.8324 1.25 13.9999 C1.25 9.1674 5.16751 5.24989 10 5.24989 Z M 4.01308 16.7809 C 3.70318 16.7573 3.45699 16.7507 3.28977 16.75 C 4.37302 19.3903 6.96935 21.2499 10 21.2499 C 12.5605 21.2499 14.8109 19.9226 16.1008 17.9185 C 14.9908 18.3628 13.5326 18.7499 11.8193 18.7499 C 10.4152 18.7499 9.33684 18.4231 8.47083 18.0618 C 8.13762 17.9228 7.82836 17.7751 7.55921 17.6466 C 7.48741 17.6123 7.41847 17.5794 7.35269 17.5483 C 7.02441 17.3935 6.77677 17.2867 6.55922 17.2271 C 5.53524 16.9468 4.64429 16.8288 4.01308 16.7809 Z M2.75 13.9999 C2.75 14.4325 2.78789 14.8563 2.86053 15.268 C2.89204 15.2621 2.92428 15.2581 2.95714 15.2563 L2.95874 15.2562 L2.96093 15.256 L2.96706 15.2557 L2.98628 15.2548 C3.00214 15.2542 3.02409 15.2533 3.05186 15.2525 C3.1074 15.251 3.18626 15.2496 3.28639 15.2499 C3.48658 15.2506 3.77222 15.2582 4.12672 15.2852 C4.83499 15.339 5.82266 15.4703 6.95524 15.7803 C7.31143 15.8778 7.66377 16.0366 7.99263 16.1917 C8.07005 16.2282 8.14677 16.2648 8.22349 16.3014 C8.48841 16.4279 8.75346 16.5544 9.04839 16.6774 C9.78723 16.9857 10.6661 17.2499 11.8193 17.2499 C13.9641 17.2499 15.6547 16.5497 16.639 16.0092 C16.7518 15.9472 16.8737 15.9173 16.994 15.9164 C17.1609 15.3059 17.25 14.6633 17.25 13.9999 C17.25 13.215 17.1253 12.4593 16.8946 11.7515 C16.858 11.7505 16.8055 11.7497 16.7384 11.7499 C16.5849 11.7505 16.3552 11.7568 16.0643 11.7805 C15.4818 11.828 14.6584 11.945 13.7114 12.2233 C13.5171 12.2804 13.2923 12.3841 12.9861 12.5391 C12.9253 12.5699 12.8615 12.6026 12.7949 12.6367 C12.544 12.7653 12.2537 12.9142 11.9413 13.0541 C11.1281 13.4182 10.1104 13.7499 8.78446 13.7499 C6.89102 13.7499 5.33071 13.2104 4.24731 12.6748 C3.73746 12.4227 3.3297 12.1697 3.03798 11.9701 C2.85051 12.6142 2.75 13.2953 2.75 13.9999 Z M 3.62474 10.5447 C 3.68001 10.5868 3.752 10.6399 3.83991 10.701 C 4.08309 10.8702 4.44604 11.0997 4.91215 11.3301 C 5.84599 11.7919 7.1779 12.2499 8.78446 12.2499 C 9.84071 12.2499 10.6463 11.9905 11.3282 11.6851 C 11.6009 11.5629 11.8456 11.4376 12.0921 11.3113 C 12.1638 11.2746 12.2357 11.2377 12.3084 11.2009 C 12.6144 11.046 12.9485 10.8841 13.2886 10.7841 C 14.3505 10.4721 15.2771 10.3398 15.9424 10.2855 C 16.0392 10.2776 16.1305 10.2713 16.2161 10.2664 C 14.9478 8.15935 12.6385 6.74989 10 6.74989 C 7.24698 6.74989 4.85236 8.28435 3.62474 10.5447 Z" fill="#FFFFFF" />
  <path fill-rule="nonzero" clip-rule="nonzero" d="M 20.5301 4.04469 C 20.4935 3.95058 20.4492 3.85806 20.3972 3.76791 C 20.3451 3.67776 20.2871 3.59319 20.2239 3.51442 C 20.5503 3.42367 20.7725 3.41803 20.8302 3.51791 C 20.8879 3.6178 20.7719 3.80742 20.5301 4.04469 Z M 17.1063 6.0214 C 16.78 6.11215 16.5577 6.1178 16.5001 6.01791 C 16.4424 5.91803 16.5584 5.72841 16.8002 5.49114 C 16.8368 5.58524 16.881 5.67776 16.9331 5.76791 C 16.9851 5.85806 17.0431 5.94263 17.1063 6.0214 Z M 17.1063 6.0214 C 17.5613 5.89488 18.2188 5.60293 18.9151 5.20092 C 19.6114 4.79892 20.193 4.37549 20.5301 4.04469 C 20.8821 4.94909 20.5316 5.99973 19.6651 6.49996 C 18.7987 7.0002 17.7136 6.77846 17.1063 6.0214 Z M 16.8002 5.49114 C 16.4482 4.58673 16.7987 3.5361 17.6651 3.03586 C 18.5316 2.53563 19.6167 2.75737 20.2239 3.51442 C 19.7689 3.64095 19.1114 3.93289 18.4151 4.3349 C 17.7188 4.73691 17.1373 5.16034 16.8002 5.49114 Z" fill="#FFFFFF" />
</svg>