<svg xmlns="http://www.w3.org/2000/svg" width="24" height="24" viewBox="0 0 24 24" fill="none">
  <path opacity="0.5" d="M20 12C20 16.4183 16.4183 20 12 20C7.58172 20 4 16.4183 4 12C4 7.58172 7.58172 4 12 4C16.4183 4 20 7.58172 20 12Z" fill="#FFFFFF" />
  <path d="M19.0087 6.784C19.4212 6.74604 19.7247 6.38089 19.6868 5.96842C19.6488 5.55595 19.2837 5.25235 18.8712 5.29032C18.4474 5.32932 17.9972 5.39638 17.5262 5.4892C17.3266 5.52854 17.1612 5.64369 17.054 5.79885L18.1714 6.89558C18.4669 6.84528 18.7465 6.80814 19.0087 6.784Z" fill="#FFFFFF" />
  <path fill-rule="nonzero" clip-rule="nonzero" d="M20.9366 5.37924 C21.5416 5.52252 22.1206 5.81574 22.4648 6.36582 C22.9422 7.12886 22.7566 8.02003 22.379 8.77818 C22.1943 9.14894 21.744 9.29979 21.3732 9.1151 C21.0025 8.93042 20.8516 8.48014 21.0363 8.10938 C21.3262 7.52732 21.2565 7.26269 21.1932 7.16142 C21.1368 7.07125 20.985 6.93219 20.5909 6.83886 C20.1879 6.74339 19.9385 6.33925 20.034 5.93619 C20.1294 5.53313 20.5336 5.28378 20.9366 5.37924 Z M20.7118 10.9611 C19.9532 11.7252 19.0036 12.5172 17.9091 13.297 C17.5718 13.5373 17.1035 13.4587 16.8631 13.1213 C16.6228 12.784 16.7014 12.3157 17.0388 12.0753 C18.0797 11.3337 18.9609 10.5957 19.6474 9.90431 C19.9392 9.61036 20.4141 9.60865 20.708 9.90049 C21.002 10.1923 21.0037 10.6672 20.7118 10.9611 Z M3.58696 14.9475 C3.32843 15.2711 2.8565 15.3239 2.53287 15.0654 C2.20924 14.8069 2.15647 14.3349 2.415 14.0113 C2.67596 13.6846 2.97651 13.3517 3.31137 13.0159 C3.51253 12.8142 3.79996 12.7509 4.05526 12.8262 L4.29315 14.1564 C4.02429 14.4306 3.78849 14.6952 3.58696 14.9475 Z M15.7504 14.704 C15.2474 15.0048 14.7242 15.3005 14.1834 15.5887 C13.6277 15.8847 13.0739 16.1618 12.526 16.4192 C12.1511 16.5953 11.7044 16.4341 11.5283 16.0592 C11.3522 15.6843 11.5134 15.2376 11.8883 15.0615 C12.4132 14.8149 12.9445 14.5491 13.4781 14.2648 C13.9974 13.9881 14.4991 13.7045 14.9807 13.4166 C15.3362 13.204 15.7967 13.3199 16.0093 13.6754 C16.2218 14.0309 16.106 14.4915 15.7504 14.704 Z M2.81481 16.2501 C2.70479 16.5954 2.75679 16.7598 2.80651 16.8393 C2.88355 16.9624 3.13763 17.1628 3.83199 17.2293 C4.24432 17.2687 4.54658 17.635 4.50712 18.0473 C4.46765 18.4596 4.1014 18.7619 3.68907 18.7224 C2.84153 18.6413 1.98775 18.3587 1.53488 17.6349 C1.17354 17.0573 1.19392 16.3963 1.38562 15.7947 C1.51138 15.4 1.93327 15.1821 2.32793 15.3078 C2.72259 15.4336 2.94057 15.8555 2.81481 16.2501 Z M10.083 17.4529 C8.79786 17.9354 7.57781 18.293 6.48528 18.5092 C6.07894 18.5896 5.68437 18.3253 5.60398 17.919 C5.5236 17.5127 5.78783 17.1181 6.19417 17.0377 C7.19089 16.8405 8.33112 16.5084 9.55581 16.0486 C9.94359 15.903 10.376 16.0994 10.5216 16.4872 C10.6671 16.8749 10.4708 17.3073 10.083 17.4529 Z" fill="#FFFFFF" />
</svg>