<svg xmlns="http://www.w3.org/2000/svg" width="24" height="24" viewBox="0 0 24 24" fill="none">
  <path fill-rule="nonzero" clip-rule="nonzero" d="M15.5023 14.3674 C14.6345 15.2325 14.1048 15.7607 13.5858 15.9518 C13.4387 16.006 13.2924 16.0331 13.1394 16.0331 C12.4474 16.0331 11.8905 15.4779 10.7766 14.3674 L10.6587 14.2499 L12.4177 12.4647 C12.6678 12.2109 12.6647 11.8024 12.4109 11.5523 C12.1571 11.3022 11.7486 11.3053 11.4985 11.5591 L9.74492 13.3388 L9.59522 13.1896 C8.48138 12.0791 7.92446 11.5238 7.92446 10.8339 C7.92446 10.6682 7.95657 10.5103 8.02078 10.3506 C8.224 9.84526 8.74882 9.32202 9.59522 8.47817 L14.6249 3.46364 C15.3493 2.74147 15.7114 2.38039 16.172 2.19019 C16.6325 2 17.1447 2 18.1691 2 L18.6585 2 C20.2337 2 21.0213 2 21.5106 2.48788 C22 2.97576 22 3.76099 22 5.33146 L22 5.81937 C22 6.84065 22 7.3513 21.8092 7.81046 C21.6185 8.26963 21.2563 8.63072 20.5319 9.35289 L15.5023 14.3674 Z M17.8652 8.47854 C18.5177 7.82803 18.5177 6.77335 17.8652 6.12284 C17.2127 5.47233 16.1548 5.47233 15.5024 6.12284 C14.8499 6.77335 14.8499 7.82803 15.5024 8.47854 C16.1548 9.12904 17.2127 9.12904 17.8652 8.47854 Z" fill="#FFFFFF" />
  <path fill-rule="nonzero" clip-rule="nonzero" d="M 2.77409 12.4814 C 3.07033 12.778 3.07004 13.2586 2.77343 13.5548 L 2.61779 13.7103 C 2.48483 13.8431 2.48483 14.058 2.61779 14.1908 C 2.75125 14.3241 2.96801 14.3241 3.10147 14.1908 L 4.8136 12.4807 C 5.1102 12.1845 5.59079 12.1848 5.88704 12.4814 C 6.18328 12.778 6.18298 13.2586 5.88638 13.5548 L 4.17426 15.2648 C 3.4481 15.9901 2.27116 15.9901 1.545 15.2648 C 0.818334 14.5391 0.818333 13.362 1.545 12.6362 L 1.70065 12.4807 C 1.99725 12.1845 2.47784 12.1848 2.77409 12.4814 Z M 7.29719 16.696 C 7.5903 16.9957 7.58495 17.4762 7.28525 17.7693 L 5.55508 19.4614 C 5.25538 19.7545 4.77481 19.7491 4.48171 19.4494 C 4.1886 19.1497 4.19395 18.6692 4.49365 18.3761 L 6.22382 16.684 C 6.52352 16.3909 7.00409 16.3963 7.29719 16.696 Z M 11.4811 18.118 C 11.7774 18.4146 11.7771 18.8952 11.4805 19.1915 L 9.76834 20.9015 C 9.63539 21.0343 9.63539 21.2492 9.76834 21.382 C 9.9018 21.5153 10.1186 21.5153 10.252 21.382 L 10.4077 21.2265 C 10.7043 20.9303 11.1849 20.9306 11.4811 21.2272 C 11.7774 21.5238 11.7771 22.0044 11.4805 22.3006 L 11.3248 22.4561 C 10.5987 23.1813 9.42171 23.1813 8.69556 22.4561 C 7.96889 21.7303 7.96889 20.5532 8.69556 19.8274 L 10.4077 18.1174 C 10.7043 17.8211 11.1849 17.8214 11.4811 18.118 Z" fill="#FFFFFF" />
  <g opacity="0.5">
    <path d="M10.8461 5.40925L8.65837 7.59037C8.25624 7.99126 7.88737 8.35901 7.59606 8.69145C7.40899 8.90494 7.22204 9.13861 7.06368 9.39679L7.04237 9.37554C7.00191 9.3352 6.98165 9.31501 6.96133 9.29529C6.58108 8.92635 6.1338 8.63301 5.64342 8.43097C5.61722 8.42018 5.59062 8.40964 5.53743 8.38856L5.2117 8.25949C4.77043 8.08464 4.65283 7.51659 4.9886 7.18184C5.95224 6.22112 7.10923 5.06765 7.6676 4.83597C8.16004 4.63166 8.692 4.56368 9.20505 4.6395C9.67514 4.70897 10.1198 4.95043 10.8461 5.40925Z" fill="#FFFFFF" />
    <path d="M14.5816 16.8934C14.7579 17.0723 14.8749 17.1987 14.9808 17.3337C15.1204 17.5119 15.2453 17.7012 15.3542 17.8996C15.4767 18.123 15.5718 18.3616 15.7621 18.8389C15.9169 19.2274 16.4315 19.3301 16.7303 19.0322L16.8026 18.9601C17.7662 17.9993 18.9232 16.8458 19.1556 16.2891C19.3605 15.7982 19.4287 15.2678 19.3526 14.7563C19.283 14.2877 19.0408 13.8444 18.5807 13.1205L16.3857 15.3089C15.9745 15.7189 15.5974 16.0949 15.2564 16.3894C15.052 16.5659 14.8284 16.7423 14.5816 16.8934Z" fill="#FFFFFF" />
  </g>
  <g opacity="0.5">
    <path d="M7.68621 14.5633C7.98263 14.2669 7.98263 13.7863 7.68621 13.4899C7.38979 13.1935 6.90919 13.1935 6.61277 13.4899L4.47036 15.6323C4.17394 15.9287 4.17394 16.4093 4.47036 16.7057C4.76679 17.0021 5.24738 17.0021 5.5438 16.7057L7.68621 14.5633Z" fill="#FFFFFF" />
    <path d="M10.4954 17.369C10.7918 17.0726 10.7918 16.592 10.4954 16.2956C10.1989 15.9992 9.71835 15.9992 9.42193 16.2956L7.29417 18.4233C6.99774 18.7198 6.99774 19.2003 7.29417 19.4968C7.59059 19.7932 8.07118 19.7932 8.36761 19.4968L10.4954 17.369Z" fill="#FFFFFF" />
  </g>
</svg>