<svg xmlns="http://www.w3.org/2000/svg" width="24" height="24" viewBox="0 0 24 24" fill="none">
  <path fill-rule="nonzero" clip-rule="nonzero" d="M 2.77409 12.4814 C 3.07033 12.778 3.07004 13.2586 2.77343 13.5548 L 2.61779 13.7103 C 2.48483 13.8431 2.48483 14.058 2.61779 14.1908 C 2.75125 14.3241 2.96801 14.3241 3.10147 14.1908 L 4.8136 12.4807 C 5.1102 12.1845 5.59079 12.1848 5.88704 12.4814 C 6.18328 12.778 6.18298 13.2586 5.88638 13.5548 L 4.17426 15.2648 C 3.4481 15.9901 2.27116 15.9901 1.545 15.2648 C 0.818334 14.5391 0.818333 13.362 1.545 12.6362 L 1.70065 12.4807 C 1.99725 12.1845 2.47784 12.1848 2.77409 12.4814 Z M 7.68665 13.4896 C 7.98307 13.7861 7.98307 14.2667 7.68665 14.5631 L 5.54424 16.7055 C 5.24782 17.0019 4.76723 17.0019 4.4708 16.7055 C 4.17438 16.409 4.17438 15.9285 4.4708 15.632 L 6.61321 13.4896 C 6.90963 13.1932 7.39023 13.1932 7.68665 13.4896 Z M 10.4958 16.2953 C 10.7922 16.5918 10.7922 17.0724 10.4958 17.3688 L 8.36805 19.4965 C 8.07162 19.7929 7.59103 19.7929 7.29461 19.4965 C 6.99818 19.2001 6.99818 18.7195 7.29461 18.4231 L 9.42237 16.2953 C 9.71879 15.9989 10.1994 15.9989 10.4958 16.2953 Z M 7.29719 16.696 C 7.5903 16.9957 7.58495 17.4762 7.28525 17.7693 L 5.55508 19.4614 C 5.25538 19.7545 4.77481 19.7491 4.48171 19.4494 C 4.1886 19.1497 4.19395 18.6692 4.49365 18.3761 L 6.22382 16.684 C 6.52352 16.3909 7.00409 16.3963 7.29719 16.696 Z M 11.4811 18.118 C 11.7774 18.4146 11.7771 18.8952 11.4805 19.1915 L 9.76834 20.9015 C 9.63539 21.0343 9.63539 21.2492 9.76834 21.382 C 9.9018 21.5153 10.1186 21.5153 10.252 21.382 L 10.4077 21.2265 C 10.7043 20.9303 11.1849 20.9306 11.4811 21.2272 C 11.7774 21.5238 11.7771 22.0044 11.4805 22.3006 L 11.3248 22.4561 C 10.5987 23.1813 9.42171 23.1813 8.69556 22.4561 C 7.96889 21.7303 7.96889 20.5532 8.69556 19.8274 L 10.4077 18.1174 C 10.7043 17.8211 11.1849 17.8214 11.4811 18.118 Z" fill="#FFFFFF" />
  <path d="M10.8463 5.40912L8.65863 7.59023C8.2565 7.99113 7.88763 8.35888 7.59632 8.69132C7.40925 8.90481 7.2223 9.13847 7.06394 9.39666L7.04262 9.37541C7.00216 9.33507 6.98191 9.31487 6.96159 9.29516C6.58134 8.92621 6.13406 8.63287 5.64368 8.43084C5.61748 8.42004 5.59088 8.4095 5.53769 8.38842L5.21196 8.25936C4.77069 8.08451 4.65309 7.51645 4.98886 7.1817C5.9525 6.22099 7.10949 5.06751 7.66786 4.83584C8.1603 4.63152 8.69225 4.56354 9.20531 4.63936C9.67539 4.70883 10.1201 4.9503 10.8463 5.40912Z" fill="#FFFFFF" />
  <path d="M14.5818 16.8932C14.7581 17.0722 14.8752 17.1985 14.981 17.3336C15.1207 17.5118 15.2456 17.7011 15.3544 17.8995C15.4769 18.1229 15.5721 18.3615 15.7623 18.8388C15.9172 19.2273 16.4317 19.33 16.7306 19.032L16.8029 18.9599C17.7665 17.9992 18.9235 16.8457 19.1558 16.289C19.3608 15.7981 19.429 15.2677 19.3529 14.7562C19.2832 14.2876 19.0411 13.8443 18.581 13.1204L16.386 15.3088C15.9748 15.7188 15.5977 16.0948 15.2567 16.3893C15.0523 16.5658 14.8287 16.7422 14.5818 16.8932Z" fill="#FFFFFF" />
  <path fill-rule="nonzero" clip-rule="nonzero" d="M15.5023 14.3674 C14.6345 15.2325 14.1048 15.7607 13.5858 15.9518 C13.4387 16.006 13.2924 16.0331 13.1394 16.0331 C12.4474 16.0331 11.8905 15.4779 10.7766 14.3674 L10.6587 14.2499 L12.4177 12.4647 C12.6678 12.2109 12.6647 11.8024 12.4109 11.5523 C12.1571 11.3022 11.7486 11.3053 11.4985 11.5591 L9.74492 13.3388 L9.59522 13.1896 C8.48138 12.0791 7.92446 11.5238 7.92446 10.8339 C7.92446 10.6682 7.95657 10.5103 8.02078 10.3506 C8.224 9.84526 8.74882 9.32202 9.59522 8.47817 L14.6249 3.46364 C15.3493 2.74147 15.7114 2.38039 16.172 2.19019 C16.6325 2 17.1447 2 18.1691 2 L18.6585 2 C20.2337 2 21.0213 2 21.5106 2.48788 C22 2.97576 22 3.76099 22 5.33146 L22 5.81937 C22 6.84065 22 7.3513 21.8092 7.81046 C21.6185 8.26963 21.2563 8.63072 20.5319 9.35289 L15.5023 14.3674 Z M17.8652 8.47854 C18.5177 7.82803 18.5177 6.77335 17.8652 6.12284 C17.2127 5.47233 16.1548 5.47233 15.5024 6.12284 C14.8499 6.77335 14.8499 7.82803 15.5024 8.47854 C16.1548 9.12904 17.2127 9.12904 17.8652 8.47854 Z" fill="#FFFFFF" />
</svg>