<svg xmlns="http://www.w3.org/2000/svg" width="24" height="24" viewBox="0 0 24 24" fill="none">
  <path d="M9.03429 5.96305L6.49114 8.49856C6.02369 8.9646 5.59488 9.3921 5.25624 9.77856C5.03877 10.0267 4.82145 10.2984 4.63737 10.5985L4.61259 10.5738C4.56555 10.5269 4.54201 10.5034 4.51839 10.4805C4.07636 10.0516 3.55641 9.71062 2.98636 9.47575C2.9559 9.4632 2.92498 9.45095 2.86314 9.42645L2.48449 9.27641C1.97153 9.07315 1.83482 8.41279 2.22514 8.02365C3.34535 6.90684 4.69032 5.56594 5.33941 5.29662C5.91185 5.05911 6.53023 4.98008 7.12664 5.06822C7.67311 5.14898 8.19006 5.42968 9.03429 5.96305Z" fill="#FFFFFF" />
  <path d="M13.3767 19.3132C13.5816 19.5212 13.7177 19.6681 13.8408 19.8251C14.0031 20.0322 14.1483 20.2523 14.2748 20.4829C14.4172 20.7426 14.5278 21.02 14.749 21.5748C14.929 22.0265 15.5272 22.1459 15.8746 21.7995L15.9586 21.7157C17.0788 20.5988 18.4237 19.2579 18.6938 18.6108C18.9321 18.04 19.0113 17.4235 18.9229 16.8289C18.8419 16.2841 18.5605 15.7688 18.0256 14.9273L15.474 17.4713C14.9959 17.9479 14.5576 18.385 14.1612 18.7273C13.9236 18.9325 13.6637 19.1376 13.3767 19.3132Z" fill="#FFFFFF" />
  <path fill-rule="nonzero" clip-rule="nonzero" d="M14.4467 16.3769 C13.438 17.3826 12.8222 17.9966 12.2189 18.2188 C12.0478 18.2818 11.8777 18.3133 11.7 18.3133 C10.8955 18.3133 10.2481 17.6679 8.95326 16.3769 L8.8162 16.2403 L10.8609 14.1651 C11.1516 13.87 11.1481 13.3951 10.8531 13.1044 C10.558 12.8137 10.0832 12.8172 9.79245 13.1123 L7.75393 15.1812 L7.57991 15.0077 C6.2851 13.7168 5.6377 13.0713 5.6377 12.2692 C5.6377 12.0767 5.67502 11.8931 5.74966 11.7075 C5.98591 11.12 6.59599 10.5117 7.57991 9.53078 L13.4268 3.70146 C14.2688 2.86195 14.6898 2.4422 15.2252 2.2211 C15.7606 2 16.356 2 17.5468 2 L18.1157 2 C19.9468 2 20.8624 2 21.4312 2.56715 C22.0001 3.13431 22.0001 4.04713 22.0001 5.87277 L22.0001 6.43996 C22.0001 7.62719 22.0001 8.22081 21.7783 8.75458 C21.5566 9.28836 21.1356 9.70811 20.2935 10.5476 L14.4467 16.3769 Z M17.1935 9.5312 C17.952 8.775 17.952 7.54895 17.1935 6.79274 C16.435 6.03653 15.2053 6.03653 14.4468 6.79274 C13.6883 7.54895 13.6883 8.775 14.4468 9.5312 C15.2053 10.2874 16.435 10.2874 17.1935 9.5312 Z" fill="#FFFFFF" />
</svg>