<svg xmlns="http://www.w3.org/2000/svg" width="24" height="24" viewBox="0 0 24 24" fill="none">
  <path fill-rule="nonzero" clip-rule="nonzero" d="M12.6291 2.92377 C14.9677 0.667032 18.693 0.692357 21.0004 2.99975 C23.3078 5.30714 23.3331 9.03243 21.0764 11.3709 L14.969 22.3642 C14.7678 22.7263 14.3112 22.8568 13.9491 22.6556 C13.587 22.4545 13.4566 21.9979 13.6577 21.6358 L18.4831 12.9502 C16.6769 13.4868 14.667 13.152 13.1152 11.9457 L5.53046 19.5303 C5.23757 19.8232 4.7627 19.8232 4.4698 19.5303 C4.17691 19.2374 4.17691 18.7626 4.46981 18.4697 L12.0545 10.8851 C10.8481 9.33324 10.5132 7.32327 11.0499 5.5171 L2.36438 10.3425 C2.00229 10.5436 1.54569 10.4132 1.34452 10.0511 C1.14336 9.68902 1.27381 9.23242 1.6359 9.03126 L12.6291 2.92377 Z M 20.2732 10.0152 C 21.6788 8.25856 21.5676 5.6883 19.9397 4.06041 C 18.3118 2.43252 15.7415 2.32135 13.9849 3.72687 C 14.0696 3.89872 14.1859 4.11732 14.3409 4.37566 C 14.772 5.09432 15.504 6.12295 16.6907 7.30957 C 17.8773 8.49619 18.9059 9.22816 19.6245 9.65927 C 19.8828 9.81424 20.1014 9.93051 20.2732 10.0152 Z M 19.0646 11.0697 C 18.9966 11.0307 18.9259 10.9894 18.8529 10.9456 C 18.1501 10.524 17.2231 9.87143 16.1698 8.89115 L 14.1871 10.8738 C 15.6345 11.9031 17.557 11.9684 19.0646 11.0697 Z M13.1264 9.81314 L15.1091 7.8305 C14.1288 6.77721 13.4762 5.85016 13.0546 5.14735 C13.0107 5.07423 12.9694 5.00355 12.9304 4.93544 C12.0316 6.44317 12.097 8.36572 13.1264 9.81314 Z" fill="#FFFFFF" />
</svg>