<svg xmlns="http://www.w3.org/2000/svg" width="24" height="24" viewBox="0 0 24 24" fill="none">
  <path fill-rule="nonzero" clip-rule="nonzero" d="M21.5646 10.4921 L20.7101 10.2074 L20.709 10.207 L20.7037 10.2051 C20.6956 10.2022 20.6806 10.1967 20.6591 10.1882 C20.616 10.1714 20.5466 10.1429 20.4533 10.1005 C20.2666 10.0157 19.984 9.87495 19.6245 9.65926 C18.9059 9.22816 17.8773 8.49619 16.6907 7.30957 C15.504 6.12294 14.772 5.09432 14.3409 4.37566 C14.1252 4.01611 13.9844 3.73354 13.8996 3.54687 C13.8571 3.45351 13.8287 3.3841 13.8118 3.341 C13.8034 3.31945 13.7979 3.30447 13.7949 3.29636 L13.7924 3.28926 L13.5079 2.43555 L13.4321 2.1751 C15.7809 0.433676 19.113 0.627762 21.2426 2.75736 C23.3696 4.88427 23.5658 8.21072 21.8315 10.559 L21.5646 10.4921 Z M 13.6577 21.6358 L 18.5711 12.7917 C 19.4652 12.5501 20.3143 12.0982 21.0402 11.436 L 14.969 22.3642 C 14.7678 22.7263 14.3112 22.8568 13.9491 22.6556 C 13.587 22.4545 13.4566 21.9979 13.6577 21.6358 Z M 13.3206 11.7402 L 16.1698 8.89115 C 17.2231 9.87143 18.1501 10.5239 18.8529 10.9456 C 19.0629 11.0716 19.2528 11.1769 19.4198 11.264 L 18.5711 12.7917 C 16.7937 13.2721 14.8387 12.9216 13.3206 11.7402 Z M 12.2599 10.6796 C 12.412 10.875 12.5778 11.0631 12.7574 11.2426 C 12.937 11.4223 13.1252 11.5881 13.3206 11.7402 L 5.53046 19.5303 C 5.23757 19.8232 4.7627 19.8232 4.4698 19.5303 C 4.17691 19.2374 4.17691 18.7626 4.46981 18.4697 L 12.2599 10.6796 Z M 11.2082 5.42911 L 12.7361 4.58031 C 12.8233 4.74737 12.9286 4.93726 13.0546 5.14735 C 13.4762 5.85016 14.1288 6.7772 15.1091 7.83049 L 12.2599 10.6796 C 11.0785 9.16162 10.7279 7.20651 11.2082 5.42911 Z M11.2082 5.42911 L2.36438 10.3425 C2.00229 10.5436 1.54569 10.4132 1.34452 10.0511 C1.14336 9.68902 1.27381 9.23242 1.6359 9.03125 L12.5637 2.96011 C11.9017 3.68598 11.4498 4.53507 11.2082 5.42911 Z" fill="#FFFFFF" />
</svg>