<svg xmlns="http://www.w3.org/2000/svg" width="24" height="24" viewBox="0 0 24 24" fill="none">
  <path fill-rule="nonzero" clip-rule="nonzero" d="M 12 3.25 C 12.4142 3.25 12.75 3.58579 12.75 4 V 6.4 C 12.75 6.81421 12.4142 7.15 12 7.15 C 11.5858 7.15 11.25 6.81421 11.25 6.4 V 4 C 11.25 3.58579 11.5858 3.25 12 3.25 Z M 18.1872 5.81282 C 18.4801 6.10571 18.4801 6.58058 18.1872 6.87348 L 16.4901 8.57053 C 16.1972 8.86343 15.7224 8.86343 15.4295 8.57053 C 15.1366 8.27764 15.1366 7.80277 15.4295 7.50987 L 17.1265 5.81282 C 17.4194 5.51992 17.8943 5.51992 18.1872 5.81282 Z M 5.8126 5.81299 C 6.1055 5.5201 6.58037 5.5201 6.87326 5.81299 L 8.57032 7.51005 C 8.86321 7.80294 8.86321 8.27782 8.57032 8.57071 C 8.27743 8.8636 7.80255 8.8636 7.50966 8.57071 L 5.8126 6.87365 C 5.51971 6.58076 5.51971 6.10589 5.8126 5.81299 Z M 3.25 12 C 3.25 11.5858 3.58579 11.25 4 11.25 H 6.4 C 6.81421 11.25 7.15 11.5858 7.15 12 C 7.15 12.4142 6.81421 12.75 6.4 12.75 H 4 C 3.58579 12.75 3.25 12.4142 3.25 12 Z M 16.85 12 C 16.85 11.5858 17.1858 11.25 17.6 11.25 H 20 C 20.4142 11.25 20.75 11.5858 20.75 12 C 20.75 12.4142 20.4142 12.75 20 12.75 H 17.6 C 17.1858 12.75 16.85 12.4142 16.85 12 Z M 8.57053 15.4295 C 8.86343 15.7224 8.86343 16.1972 8.57053 16.4901 L 6.87348 18.1872 C 6.58058 18.4801 6.10571 18.4801 5.81282 18.1872 C 5.51992 17.8943 5.51992 17.4194 5.81282 17.1265 L 7.50987 15.4295 C 7.80276 15.1366 8.27764 15.1366 8.57053 15.4295 Z M 15.4293 15.4296 C 15.7221 15.1368 16.197 15.1368 16.4899 15.4296 L 18.187 17.1267 C 18.4799 17.4196 18.4799 17.8945 18.187 18.1874 C 17.8941 18.4803 17.4192 18.4803 17.1263 18.1874 L 15.4293 16.4903 C 15.1364 16.1974 15.1364 15.7225 15.4293 15.4296 Z M 12 16.85 C 12.4142 16.85 12.75 17.1858 12.75 17.6 V 20 C 12.75 20.4142 12.4142 20.75 12 20.75 C 11.5858 20.75 11.25 20.4142 11.25 20 V 17.6 C 11.25 17.1858 11.5858 16.85 12 16.85 Z" fill="#FFFFFF" />
</svg>