<svg xmlns="http://www.w3.org/2000/svg" width="24" height="24" viewBox="0 0 24 24" fill="none">
  <path fill-rule="nonzero" clip-rule="nonzero" d="M 11.4377 2.87743 C 11.3028 3.03335 11.1319 3.27092 10.8705 3.63821 L 10.7186 3.85172 C 10.7074 3.86746 10.6958 3.88398 10.6837 3.90113 C 10.5576 4.08051 10.3822 4.32995 10.1171 4.48582 C 9.85227 4.64152 9.54909 4.6737 9.3307 4.69689 C 9.3098 4.69911 9.28967 4.70124 9.27043 4.7034 L 9.00953 4.73261 C 8.56316 4.78258 8.27248 4.81659 8.07029 4.85849 C 8.17875 5.04045 8.35534 5.28339 8.62908 5.65623 L 8.7862 5.87022 L 8.18165 6.31409 L 8.7862 5.87022 C 8.79781 5.88604 8.80998 5.90243 8.82258 5.9194 C 8.95557 6.09853 9.1356 6.34102 9.20314 6.63792 C 9.27098 6.93612 9.21254 7.2325 9.16968 7.4499 C 9.16563 7.47044 9.16172 7.49028 9.15806 7.50935 L 9.10849 7.76811 C 9.02008 8.22962 8.96513 8.5247 8.94704 8.73421 C 9.1499 8.69019 9.43205 8.59976 9.87229 8.45614 L 10.1214 8.37488 C 10.1397 8.3689 10.1588 8.36255 10.1786 8.35596 C 10.3872 8.28661 10.6752 8.19085 10.9808 8.22239 C 11.2845 8.25373 11.5475 8.40496 11.7399 8.51558 C 11.7583 8.52612 11.776 8.5363 11.793 8.54596 L 12.0233 8.67668 C 12.4172 8.90031 12.6757 9.04545 12.8668 9.13187 C 12.8833 8.92378 12.8811 8.62873 12.8757 8.17824 L 12.8725 7.91402 C 12.8722 7.8945 12.8719 7.87413 12.8715 7.853 C 12.8676 7.63174 12.8622 7.32786 12.9822 7.04658 C 13.1029 6.76372 13.327 6.55822 13.4887 6.40993 C 13.5041 6.39581 13.519 6.38221 13.5331 6.36911 L 13.725 6.19113 C 14.0619 5.87861 14.2771 5.67693 14.4139 5.52185 C 14.221 5.43608 13.9353 5.34111 13.4882 5.19499 L 13.2371 5.11295 C 13.2186 5.1069 13.1993 5.10071 13.1793 5.0943 C 12.9678 5.0264 12.6805 4.9342 12.4524 4.73123 C 12.2249 4.52882 12.0994 4.25445 12.0065 4.05153 C 11.9978 4.03235 11.9893 4.01381 11.981 3.99602 L 11.8693 3.75531 C 11.6733 3.33281 11.5453 3.0602 11.4377 2.87743 Z M11.5907 2.72516 C11.5907 2.72513 11.5901 2.72551 11.5887 2.72642 C11.59 2.72565 11.5907 2.7252 11.5907 2.72516 Z M11.3171 2.70316 C11.3156 2.70172 11.3149 2.70111 11.3149 2.70116 C11.3149 2.70121 11.3156 2.70193 11.3171 2.70316 Z M14.5933 5.61848 C14.5933 5.61848 14.5927 5.61787 14.5912 5.61666 C14.5925 5.61789 14.5932 5.61849 14.5933 5.61848 Z M14.5364 5.3609 C14.5371 5.35948 14.5374 5.3588 14.5374 5.35881 C14.5373 5.35882 14.537 5.35953 14.5364 5.3609 Z M12.8318 9.35581 C12.8319 9.35585 12.8322 9.35502 12.8329 9.3532 C12.8321 9.35485 12.8318 9.35576 12.8318 9.35581 Z M13.0768 9.20887 L13.0796 9.20924 C13.0796 9.2092 13.0786 9.20904 13.0768 9.20887 Z M8.74713 8.76214 L8.74953 8.76231 C8.74799 8.76214 8.74716 8.76211 8.74713 8.76214 Z M8.94437 8.93292 L8.94493 8.93559 C8.94495 8.93555 8.94479 8.93462 8.94437 8.93292 Z M7.97281 4.66237 C7.97276 4.66234 7.97296 4.66328 7.97353 4.66527 C7.97314 4.66338 7.97285 4.66239 7.97281 4.66237 Z M7.86097 4.91804 C7.85947 4.91878 7.85879 4.91918 7.85883 4.91919 C7.85887 4.9192 7.85962 4.91883 7.86097 4.91804 Z M 10.4283 1.75889 C 10.6773 1.50099 11.0613 1.20325 11.5983 1.25868 C 12.1303 1.31358 12.4481 1.67808 12.6439 1.97719 C 12.8299 2.26115 13.0113 2.65246 13.2082 3.07698 C 13.2155 3.09263 13.2228 3.10832 13.23 3.12405 L 13.3417 3.36477 C 13.3731 3.43238 13.3973 3.4845 13.4189 3.52924 C 13.4344 3.56132 13.4463 3.585 13.4559 3.60294 C 13.4744 3.61012 13.4988 3.61899 13.5316 3.63029 C 13.5783 3.64636 13.6326 3.66411 13.7031 3.68716 L 13.9541 3.7692 C 13.9706 3.7746 13.9871 3.77998 14.0036 3.78535 C 14.4459 3.92986 14.8546 4.06335 15.158 4.21456 C 15.4796 4.37485 15.8752 4.64761 15.9934 5.16705 C 16.1124 5.69003 15.8695 6.10654 15.6449 6.38793 C 15.4346 6.6515 15.1211 6.94217 14.7837 7.25507 C 14.7708 7.26697 14.758 7.2789 14.7451 7.29087 L 14.5532 7.46885 C 14.4992 7.51889 14.4579 7.55726 14.4227 7.59095 C 14.4013 7.61144 14.3849 7.62759 14.3722 7.64056 C 14.3715 7.65956 14.3711 7.68375 14.371 7.71516 C 14.3708 7.76453 14.3715 7.82166 14.3724 7.8959 L 14.3756 8.16011 C 14.3758 8.17761 14.376 8.19507 14.3762 8.21248 C 14.3819 8.67777 14.3871 9.10799 14.3417 9.44306 C 14.2938 9.79613 14.1622 10.2665 13.6962 10.5405 C 13.2309 10.814 12.7561 10.7013 12.4241 10.5725 C 12.1084 10.45 11.7338 10.2373 11.3281 10.0069 C 11.313 9.99836 11.2979 9.98976 11.2827 9.98114 L 11.0525 9.85042 C 10.9878 9.8137 10.9379 9.78543 10.8945 9.76166 C 10.8659 9.74602 10.8439 9.73443 10.8266 9.7257 C 10.8087 9.73056 10.7861 9.73716 10.7569 9.74618 C 10.7103 9.76057 10.6566 9.77807 10.5866 9.80091 L 10.3375 9.88217 C 10.3208 9.88761 10.3042 9.89304 10.2876 9.89846 C 9.84954 10.0415 9.44291 10.1742 9.11006 10.2301 C 8.75477 10.2897 8.2738 10.2998 7.87411 9.94408 C 7.47611 9.58992 7.42789 9.11225 7.44302 8.75277 C 7.45726 8.41446 7.53809 7.99287 7.62547 7.53709 C 7.62873 7.52008 7.632 7.50301 7.63528 7.4859 L 7.68485 7.22713 L 8.42146 7.36824 L 7.68485 7.22713 C 7.69878 7.15441 7.70947 7.09851 7.71797 7.05005 C 7.7238 7.0168 7.72775 6.99172 7.73041 6.97233 C 7.71933 6.95541 7.70445 6.93367 7.68404 6.90495 C 7.65525 6.86443 7.62123 6.81807 7.5771 6.75796 L 7.41998 6.54397 L 7.94631 6.15753 L 7.41998 6.54397 C 7.40971 6.52998 7.39946 6.51603 7.38925 6.50211 C 7.11212 6.12479 6.8567 5.77701 6.69759 5.47728 C 6.53024 5.16201 6.36328 4.70669 6.57366 4.21364 C 6.78589 3.71628 7.23408 3.52557 7.57979 3.43348 C 7.90561 3.34669 8.3314 3.29908 8.79026 3.24778 C 8.80767 3.24583 8.82513 3.24388 8.84263 3.24192 L 9.10353 3.21271 C 9.17687 3.2045 9.23316 3.19818 9.28167 3.19197 C 9.31033 3.1883 9.33275 3.1851 9.35056 3.18227 C 9.36158 3.1682 9.37513 3.15033 9.39206 3.12732 C 9.42098 3.08802 9.45376 3.04199 9.49648 2.98197 L 9.64843 2.76846 C 9.65866 2.7541 9.66885 2.73977 9.67902 2.72548 C 9.94613 2.35004 10.1942 2.00135 10.4283 1.75889 Z M 22.6479 9.1223 C 22.8566 9.48008 22.7357 9.93932 22.3779 10.148 C 16.6662 13.4799 15.25 18.8591 15.25 22.0002 C 15.25 22.4144 14.9142 22.7502 14.5 22.7502 C 14.0858 22.7502 13.75 22.4144 13.75 22.0002 C 13.75 18.4746 15.3339 12.5205 21.6221 8.85236 C 21.9799 8.64365 22.4392 8.76451 22.6479 9.1223 Z M 11.2059 11.2791 C 11.6042 11.3928 11.8348 11.808 11.721 12.2062 C 11.3545 13.4889 11.2666 15.3499 11.3245 17.2144 C 11.3818 19.0602 11.5786 20.8297 11.7411 21.8862 C 11.8041 22.2956 11.5233 22.6785 11.1139 22.7415 C 10.7045 22.8045 10.3216 22.5236 10.2586 22.1142 C 10.0878 21.004 9.88459 19.1736 9.82522 17.261 C 9.76643 15.3672 9.84518 13.3115 10.2787 11.7942 C 10.3925 11.3959 10.8076 11.1653 11.2059 11.2791 Z" fill="#FFFFFF" />
  <path d="M5.00012 13.2676C5.00012 13.2676 5.64973 14.0154 6.2227 14.1689C6.79567 14.3225 7.73217 13.9996 7.73217 13.9996C7.73217 13.9996 6.98434 14.6492 6.83081 15.2222C6.67729 15.7952 7.00012 16.7317 7.00012 16.7317C7.00012 16.7317 6.3505 15.9839 5.77753 15.8303C5.20457 15.6768 4.26807 15.9996 4.26807 15.9996C4.26807 15.9996 5.01589 15.35 5.16942 14.777C5.32295 14.2041 5.00012 13.2676 5.00012 13.2676Z" stroke="#FFFFFF" stroke-linejoin="round" />
</svg>