<svg xmlns="http://www.w3.org/2000/svg" width="24" height="24" viewBox="0 0 24 24" fill="none">
  <path fill-rule="nonzero" clip-rule="nonzero" d="M 18.8234 2.81493 C 18.4755 2.92884 18.0051 3.15967 17.2786 3.5194 L 16.9142 3.69986 C 16.8883 3.7127 16.8622 3.72568 16.8361 3.73873 C 16.5175 3.89761 16.1807 4.06557 15.807 4.08528 C 15.4283 4.10527 15.0791 3.96978 14.7562 3.8445 C 14.7297 3.83425 14.7035 3.82407 14.6774 3.81404 L 14.3087 3.67227 C 13.572 3.38906 13.1007 3.21009 12.7548 3.13402 C 12.5904 3.09786 12.502 3.09682 12.4597 3.10154 C 12.4466 3.103 12.4398 3.10483 12.4374 3.10557 C 12.4371 3.1058 12.4367 3.10612 12.4361 3.10656 C 12.4352 3.10732 12.4346 3.10784 12.4343 3.10813 C 12.4339 3.10866 12.4329 3.11024 12.4313 3.1133 C 12.4294 3.11695 12.4264 3.12318 12.4229 3.13276 C 12.407 3.17543 12.3861 3.26435 12.3805 3.43515 C 12.3686 3.79372 12.4251 4.30008 12.5163 5.08928 L 12.562 5.48466 C 12.5652 5.51246 12.5686 5.54043 12.5719 5.56855 C 12.6131 5.916 12.657 6.28678 12.546 6.64826 C 12.4363 7.00563 12.1939 7.29172 11.9623 7.56502 C 11.9435 7.58721 11.9248 7.60931 11.9062 7.63137 L 11.6433 7.94338 C 11.1194 8.5651 10.7815 8.969 10.5861 9.28198 C 10.4909 9.4345 10.459 9.51988 10.4489 9.56064 C 10.4818 9.58277 10.553 9.62019 10.6958 9.66615 C 11.0318 9.77427 11.533 9.85793 12.3175 9.9856 L 12.7101 10.0495 C 12.7384 10.0541 12.767 10.0587 12.7958 10.0633 C 13.1373 10.1177 13.5119 10.1774 13.8264 10.3866 C 14.1428 10.5971 14.3404 10.9202 14.5188 11.2118 C 14.5339 11.2364 14.5488 11.2607 14.5636 11.2848 L 14.7698 11.6194 C 15.1823 12.2885 15.4465 12.7129 15.6721 12.9778 C 15.7786 13.1029 15.8442 13.1522 15.8744 13.1698 C 15.8781 13.1677 15.883 13.1646 15.8892 13.1603 C 15.9291 13.1324 16.0003 13.0681 16.1072 12.9269 C 16.3302 12.6323 16.5859 12.174 16.9784 11.4649 L 17.1754 11.109 C 17.1892 11.0841 17.203 11.0591 17.2168 11.0339 C 17.3895 10.7199 17.5693 10.3931 17.864 10.1617 C 18.1595 9.92977 18.5194 9.83379 18.8638 9.74197 C 18.8913 9.73462 18.9188 9.7273 18.9461 9.71994 L 19.3365 9.61473 C 20.1147 9.405 20.6169 9.26768 20.9539 9.12237 C 21.1152 9.05287 21.1941 8.99934 21.2307 8.96707 C 21.239 8.95982 21.2441 8.95444 21.2471 8.95105 C 21.2479 8.95021 21.2485 8.94947 21.249 8.94883 C 21.2486 8.94661 21.2479 8.94384 21.2469 8.94046 C 21.2371 8.90522 21.2054 8.82811 21.1108 8.69243 C 20.9116 8.40672 20.5687 8.04434 20.027 7.47674 L 19.756 7.19289 C 19.7367 7.17259 19.717 7.15214 19.6972 7.13151 C 19.4603 6.88491 19.1987 6.61268 19.0746 6.25315 C 18.9518 5.89742 18.986 5.52029 19.0176 5.17247 C 19.0203 5.1433 19.0229 5.11433 19.0254 5.0856 L 19.0604 4.68596 C 19.1303 3.88816 19.1732 3.37591 19.1516 3.01914 C 19.1426 2.86934 19.1243 2.78936 19.1109 2.75007 C 19.0679 2.75133 18.9807 2.76339 18.8234 2.81493 Z M19.1461 2.75327 C19.1465 2.75282 19.1433 2.75152 19.1352 2.75068 C19.1417 2.75329 19.1457 2.75371 19.1461 2.75327 Z M19.1019 2.72766 C19.0978 2.71929 19.0952 2.71639 19.0948 2.71704 C19.0945 2.71769 19.0965 2.72188 19.1019 2.72766 Z M10.424 9.53874 C10.4232 9.5389 10.4254 9.54244 10.4331 9.54887 C10.4286 9.54179 10.4248 9.53858 10.424 9.53874 Z M10.4452 9.58037 C10.4442 9.58812 10.4448 9.59145 10.4453 9.59118 C10.4458 9.59091 10.4463 9.58702 10.4452 9.58037 Z M 18.3566 1.38941 C 18.8322 1.23364 19.4174 1.13884 19.9501 1.49326 C 20.4879 1.85109 20.6189 2.43061 20.6489 2.9289 C 20.678 3.41068 20.6231 4.03615 20.5598 4.7583 L 20.5197 5.2165 C 20.4994 5.44758 20.4886 5.57768 20.4878 5.67548 C 20.4874 5.73155 20.4909 5.75596 20.4925 5.76352 C 20.496 5.7703 20.5077 5.78975 20.5388 5.82839 C 20.5977 5.90138 20.684 5.9926 20.8411 6.15722 L 21.1534 6.48434 C 21.6416 6.99577 22.0677 7.44217 22.3413 7.83454 C 22.6306 8.24945 22.8721 8.77649 22.6847 9.38691 C 22.5007 9.98613 22.0145 10.2986 21.5478 10.4998 C 21.0988 10.6934 20.4892 10.8576 19.7818 11.0482 L 19.3364 11.1683 C 19.1111 11.229 18.9832 11.264 18.8885 11.2976 C 18.8061 11.3269 18.7906 11.3413 18.7902 11.3416 C 18.7665 11.3602 18.7344 11.3899 18.4878 11.8354 L 18.2633 12.241 C 17.9062 12.8863 17.599 13.4413 17.3033 13.8321 C 16.9975 14.2362 16.5771 14.6381 15.9494 14.6712 C 15.8503 14.6765 15.7557 14.672 15.6654 14.6594 C 15.5461 15.0025 15.4248 15.4291 15.3095 15.9265 C 15.0517 17.039 14.833 18.4667 14.7278 20.0301 C 14.6281 21.5116 13.4183 22.75 11.872 22.75 H 3.71685 C 2.9551 22.75 2.23959 22.4395 1.7719 21.9012 C 1.28991 21.3465 1.09608 20.5702 1.3864 19.7744 C 2.1171 17.7714 3.39687 15.6878 4.96401 13.9034 C 6.20257 12.4931 7.64466 11.2425 9.17257 10.3653 C 9.11364 10.2734 9.06329 10.1711 9.0239 10.057 C 8.81656 9.45628 9.04761 8.91383 9.31372 8.48759 C 9.57294 8.07241 9.98277 7.58609 10.4595 7.02042 C 10.4717 7.00594 10.4839 6.99141 10.4962 6.97683 L 10.7591 6.66482 C 10.9107 6.4849 10.9971 6.38161 11.0565 6.29901 C 11.0833 6.26176 11.0969 6.23893 11.1041 6.22559 C 11.1103 6.21385 11.1117 6.20911 11.1121 6.20796 C 11.1124 6.20689 11.1137 6.20311 11.1148 6.19183 C 11.1162 6.17873 11.1175 6.15436 11.116 6.11102 C 11.1126 6.01382 11.0984 5.8856 11.0719 5.6569 L 11.0262 5.26152 C 11.024 5.24223 11.0218 5.22301 11.0196 5.20387 C 10.9369 4.48916 10.8653 3.86965 10.8813 3.38547 C 10.8982 2.87653 11.0159 2.31453 11.5099 1.92668 C 12.0061 1.53713 12.5803 1.55978 13.077 1.66903 C 13.5476 1.77253 14.1265 1.99513 14.7921 2.2511 L 14.8469 2.27218 L 15.2157 2.41395 C 15.4293 2.49606 15.5482 2.54119 15.64 2.5681 C 15.6807 2.58005 15.7036 2.5845 15.7155 2.58624 C 15.7211 2.58707 15.7243 2.58729 15.7255 2.58735 L 15.728 2.58737 L 15.7314 2.58698 C 15.7333 2.58668 15.7373 2.58597 15.7439 2.5843 C 15.7577 2.58078 15.7825 2.57321 15.8246 2.55628 C 15.9181 2.51867 16.0383 2.45976 16.2485 2.35564 L 16.6645 2.14965 C 17.3247 1.82271 17.8932 1.54116 18.3566 1.38941 Z M 10.7617 11.2317 C 9.12377 11.9801 7.49288 13.2971 6.09106 14.8932 C 4.62862 16.5584 3.4538 18.4841 2.79555 20.2884 C 2.70292 20.5424 2.75903 20.7503 2.90421 20.9174 C 3.0637 21.101 3.35261 21.25 3.71685 21.25 H 4.83757 C 4.86955 21.0902 4.90904 20.9242 4.95389 20.7553 C 5.07893 20.2844 5.25903 19.7419 5.48351 19.1605 C 5.93238 17.9981 6.57075 16.6494 7.33638 15.3641 C 8.09926 14.0834 9.00637 12.8355 10.0014 11.8981 C 10.2527 11.6614 10.516 11.4385 10.7899 11.2378 C 10.7805 11.2358 10.7711 11.2338 10.7617 11.2317 Z M 12.5834 11.9318 C 12.0977 12.123 11.5763 12.4752 11.03 12.9899 C 10.173 13.7972 9.34826 14.9177 8.62506 16.1318 C 7.90461 17.3412 7.3027 18.6135 6.88281 19.7009 C 6.67292 20.2444 6.51153 20.734 6.40366 21.1403 C 6.39366 21.1779 6.38422 21.2145 6.37532 21.25 H 9.12609 C 9.24503 20.0732 9.60833 18.3919 10.1771 16.7077 C 10.74 15.0409 11.5388 13.2651 12.5834 11.9318 Z M 10.6346 21.25 H 11.872 C 12.5777 21.25 13.1809 20.6755 13.2311 19.9294 C 13.3412 18.2935 13.5707 16.7857 13.8482 15.5879 C 13.9869 14.9895 14.1399 14.4586 14.3 14.0227 C 14.3301 13.941 14.3612 13.8602 14.3935 13.7811 C 14.1954 13.5234 13.9896 13.2064 13.7681 12.8513 C 12.8872 13.9733 12.1482 15.5592 11.5982 17.1877 C 11.0731 18.7427 10.7525 20.2382 10.6346 21.25 Z M20.4925 5.76352 L20.4932 5.76624 C20.4932 5.76614 20.4929 5.76489 20.4925 5.76352 Z" fill="#FFFFFF" />
</svg>