<svg xmlns="http://www.w3.org/2000/svg" width="24" height="24" viewBox="0 0 24 24" fill="none">
  <path fill-rule="nonzero" clip-rule="nonzero" d="M 12 2.75 C 6.89137 2.75 2.75 6.89137 2.75 12 C 2.75 17.1086 6.89137 21.25 12 21.25 C 17.1086 21.25 21.25 17.1086 21.25 12 C 21.25 6.89137 17.1086 2.75 12 2.75 Z M 1.25 12 C 1.25 6.06294 6.06294 1.25 12 1.25 C 17.9371 1.25 22.75 6.06294 22.75 12 C 22.75 17.9371 17.9371 22.75 12 22.75 C 6.06294 22.75 1.25 17.9371 1.25 12 Z M 12 8.90049 C 11.8811 9.07699 11.7345 9.33717 11.5164 9.72853 L 11.3853 9.96367 C 11.3755 9.98113 11.3655 9.99937 11.3551 10.0183 C 11.2465 10.2156 11.099 10.4836 10.8555 10.6685 C 10.6074 10.8568 10.3082 10.9227 10.0944 10.9697 C 10.0741 10.9742 10.0545 10.9785 10.0359 10.9827 L 9.78132 11.0403 C 9.31615 11.1456 9.02625 11.2129 8.83146 11.281 C 8.9519 11.462 9.15408 11.701 9.48204 12.0845 L 9.65557 12.2874 C 9.66833 12.3024 9.68164 12.3178 9.69537 12.3337 C 9.84312 12.5047 10.0397 12.7322 10.1305 13.0244 C 10.2204 13.3135 10.19 13.6126 10.1667 13.8412 C 10.1645 13.8626 10.1624 13.8833 10.1605 13.9034 L 10.1343 14.1741 C 10.0874 14.6577 10.0585 14.9706 10.0593 15.1919 C 10.2516 15.1238 10.5148 15.0042 10.9166 14.8192 L 11.1549 14.7095 C 11.1725 14.7014 11.1908 14.6928 11.21 14.6839 C 11.4078 14.5913 11.6885 14.4599 12 14.4599 C 12.3115 14.4599 12.5922 14.5913 12.7901 14.6839 C 12.8092 14.6928 12.8275 14.7014 12.8451 14.7095 L 13.0834 14.8192 C 13.4852 15.0042 13.7484 15.1238 13.9407 15.1919 C 13.9415 14.9706 13.9126 14.6577 13.8657 14.1741 L 13.8395 13.9034 C 13.8376 13.8833 13.8355 13.8626 13.8333 13.8412 C 13.81 13.6126 13.7796 13.3135 13.8695 13.0244 C 13.9603 12.7322 14.1569 12.5047 14.3046 12.3337 C 14.3184 12.3178 14.3317 12.3024 14.3444 12.2874 L 14.518 12.0845 C 14.8459 11.701 15.0481 11.462 15.1685 11.281 C 14.9737 11.2129 14.6838 11.1456 14.2187 11.0403 L 13.9641 10.9827 C 13.9455 10.9785 13.9259 10.9742 13.9056 10.9697 C 13.6918 10.9227 13.3926 10.8568 13.1445 10.6685 C 12.901 10.4836 12.7535 10.2156 12.6449 10.0183 C 12.6345 9.99937 12.6245 9.98113 12.6147 9.96367 L 12.4836 9.72853 C 12.2655 9.33717 12.1189 9.07699 12 8.90049 Z M14.1529 15.2502 L14.1547 15.2503 C14.1547 15.2503 14.1541 15.2502 14.1529 15.2502 Z M9.84533 15.2503 L9.84706 15.2502 C9.84594 15.2502 9.84535 15.2503 9.84533 15.2503 Z M 10.8831 7.88484 C 11.0988 7.60321 11.451 7.25 12 7.25 C 12.549 7.25 12.9012 7.60321 13.1169 7.88484 C 13.3245 8.15604 13.5371 8.53751 13.7683 8.9524 C 13.7768 8.96761 13.7853 8.98287 13.7938 8.99817 L 13.9249 9.23332 C 13.9617 9.29934 13.9902 9.35037 14.0155 9.39412 C 14.0324 9.42352 14.0458 9.44573 14.0565 9.46286 C 14.0733 9.46751 14.0946 9.47302 14.1219 9.47967 C 14.1689 9.49111 14.2235 9.50351 14.2952 9.51971 L 14.5497 9.5773 C 14.5671 9.58123 14.5844 9.58514 14.6016 9.58905 C 15.0485 9.69009 15.4657 9.78439 15.7807 9.90852 C 16.1219 10.043 16.5343 10.2854 16.6932 10.7964 C 16.8496 11.2992 16.6571 11.7332 16.4626 12.0421 C 16.2799 12.3323 15.9979 12.662 15.6916 13.0201 L 15.4844 13.2623 C 15.4357 13.3193 15.3981 13.3633 15.3662 13.4018 C 15.3401 13.4334 15.322 13.4562 15.309 13.4734 C 15.3107 13.5291 15.3179 13.6075 15.3325 13.7587 L 15.3637 14.0803 C 15.4102 14.5596 15.4526 14.997 15.4373 15.3415 C 15.4213 15.6994 15.3369 16.1785 14.9114 16.5015 C 14.4737 16.8337 13.9847 16.7689 13.6378 16.6695 C 13.3132 16.5765 12.9231 16.3969 12.5049 16.2042 C 12.4886 16.1967 12.4724 16.1892 12.4561 16.1817 L 12.2177 16.072 C 12.1507 16.0411 12.0994 16.0175 12.0548 15.9979 C 12.0329 15.9882 12.0149 15.9805 12 15.9744 C 11.9851 15.9805 11.9671 15.9882 11.9452 15.9979 C 11.9006 16.0175 11.8493 16.0411 11.7823 16.072 L 11.5439 16.1817 C 11.5276 16.1892 11.5114 16.1967 11.4951 16.2042 C 11.0769 16.3969 10.6868 16.5765 10.3622 16.6695 C 10.0153 16.7689 9.52629 16.8337 9.08858 16.5015 C 8.66311 16.1785 8.57866 15.6994 8.56272 15.3415 C 8.54737 14.997 8.58981 14.5596 8.63631 14.0804 L 8.66749 13.7587 C 8.68214 13.6075 8.68928 13.5291 8.69097 13.4734 C 8.67803 13.4562 8.65995 13.4334 8.63378 13.4018 C 8.60187 13.3633 8.56431 13.3193 8.51557 13.2623 L 8.34204 13.0594 C 8.33081 13.0463 8.3196 13.0332 8.30843 13.0201 C 8.00207 12.662 7.72006 12.3323 7.53738 12.0421 C 7.34293 11.7332 7.15045 11.2992 7.3068 10.7964 C 7.46569 10.2854 7.87805 10.043 8.21935 9.90852 C 8.53433 9.78439 8.95146 9.69009 9.39837 9.58905 C 9.41563 9.58514 9.43295 9.58123 9.4503 9.5773 L 9.70484 9.51971 C 9.77645 9.50351 9.83113 9.49112 9.87814 9.47967 C 9.90542 9.47302 9.92669 9.46751 9.94352 9.46287 C 9.95424 9.44573 9.96756 9.42352 9.98455 9.39412 C 10.0098 9.35037 10.0383 9.29934 10.0751 9.23332 L 10.2062 8.99817 C 10.2147 8.98287 10.2232 8.96761 10.2317 8.95239 C 10.4629 8.53751 10.6755 8.15603 10.8831 7.88484 Z" fill="#FFFFFF" />
</svg>