<svg xmlns="http://www.w3.org/2000/svg" width="24" height="24" viewBox="0 0 24 24" fill="none">
  <path fill-rule="nonzero" clip-rule="nonzero" d="M 15.0135 3.18529 L 15.2917 3.53666 C 15.4319 3.71375 15.5109 3.8127 15.5754 3.88216 C 15.6101 3.91955 15.6284 3.9347 15.6351 3.93962 C 15.6427 3.94214 15.6632 3.94773 15.7067 3.95407 C 15.7958 3.96707 15.9162 3.97518 16.1365 3.98893 L 16.5746 4.01628 C 17.2573 4.05884 17.8552 4.09611 18.3101 4.19523 C 18.7919 4.3002 19.3161 4.51634 19.5944 5.07562 C 19.8693 5.62809 19.7352 6.17769 19.54 6.63187 C 19.3535 7.06583 19.0348 7.58362 18.6676 8.18017 L 18.6377 8.22872 L 18.4344 8.55894 C 18.3168 8.75005 18.2516 8.85708 18.2086 8.94111 C 18.1895 8.97852 18.1808 9.00021 18.1767 9.01183 C 18.1732 9.02174 18.1729 9.02488 18.1729 9.02504 C 18.1729 9.02526 18.1722 9.02895 18.1727 9.04069 C 18.1734 9.05422 18.1757 9.07887 18.1834 9.12177 C 18.2007 9.21739 18.2328 9.3422 18.2903 9.56233 L 18.39 9.94348 L 18.4043 9.99806 C 18.5846 10.688 18.7404 11.2836 18.7943 11.7559 C 18.85 12.2427 18.8261 12.8177 18.3952 13.2661 C 17.9551 13.724 17.3775 13.7539 16.8933 13.6962 C 16.4319 13.6412 15.8524 13.4805 15.1904 13.297 L 14.7654 13.1791 C 14.5518 13.1199 14.4345 13.088 14.3457 13.0711 C 14.3088 13.0641 14.2883 13.0621 14.2787 13.0616 C 14.2698 13.065 14.2509 13.0734 14.218 13.0916 C 14.1389 13.1354 14.0374 13.2024 13.8529 13.3254 L 13.4858 13.5702 C 12.9141 13.9515 12.4137 14.2853 11.9926 14.4817 C 11.5507 14.6877 10.9925 14.8401 10.4313 14.5424 C 10.0731 14.3523 9.86256 14.057 9.73201 13.7415 C 7.45903 14.7007 5.60129 16.3482 4.95858 18.2415 C 4.84776 18.5679 4.52868 18.7768 4.18518 18.7477 C 3.84167 18.7187 3.5622 18.4592 3.50779 18.1188 C 2.56721 12.235 4.32415 8.68634 6.8481 6.75226 C 7.02326 6.35644 7.35512 6.09188 7.68376 5.89833 C 8.08503 5.662 8.64138 5.43974 9.27672 5.18592 C 9.29487 5.17867 9.31308 5.1714 9.33136 5.1641 L 9.68436 5.02304 C 9.88933 4.94114 10.0012 4.89579 10.0818 4.85558 C 10.1214 4.83584 10.1392 4.82407 10.1456 4.81932 C 10.1504 4.81262 10.1631 4.7925 10.1846 4.74581 C 10.2242 4.65963 10.2684 4.5409 10.3464 4.32885 L 10.4812 3.96234 C 10.4879 3.94421 10.4945 3.92615 10.5011 3.90816 C 10.7445 3.24622 10.9557 2.67208 11.1804 2.25845 C 11.412 1.83223 11.7673 1.36855 12.3928 1.26829 C 13.0185 1.16801 13.5009 1.49761 13.8539 1.83026 C 14.1964 2.15303 14.576 2.63254 15.0135 3.18529 Z M 7.15982 8.45939 C 5.73667 9.83019 4.64016 12.0495 4.75808 15.5665 C 5.9256 14.0993 7.63232 12.9511 9.45653 12.2345 C 9.43719 11.987 9.42088 11.7211 9.40363 11.44 L 9.37601 10.9905 C 9.36206 10.7633 9.35365 10.6347 9.34026 10.5385 C 9.33425 10.4953 9.32876 10.4712 9.32515 10.4581 C 9.32202 10.4468 9.32022 10.4435 9.32014 10.4434 C 9.32 10.4431 9.31862 10.4401 9.31247 10.4321 C 9.30501 10.4224 9.28996 10.4045 9.26015 10.375 C 9.19318 10.3086 9.09787 10.2274 8.92654 10.0825 L 8.58696 9.79552 C 8.05217 9.34358 7.58791 8.95123 7.27542 8.59719 C 7.23628 8.55284 7.19754 8.50692 7.15982 8.45939 Z M11.0328 12.8381 C11.0383 12.8696 11.0441 12.8999 11.0501 12.9291 C11.0827 13.0873 11.1148 13.1673 11.1346 13.2046 C11.1725 13.1972 11.2424 13.1764 11.3586 13.1222 C11.663 12.9803 12.0671 12.7134 12.703 12.2893 L13.0207 12.0774 C13.0437 12.0621 13.067 12.0465 13.0905 12.0307 C13.365 11.8462 13.6739 11.6387 14.0412 11.5798 C14.4087 11.5209 14.7669 11.6216 15.0852 11.711 C15.1124 11.7187 15.1394 11.7263 15.1661 11.7336 L15.534 11.8356 C16.2703 12.0397 16.7374 12.167 17.0707 12.2067 C17.1984 12.2219 17.2713 12.2198 17.3096 12.2149 C17.3168 12.1734 17.3225 12.0874 17.304 11.9261 C17.2637 11.5734 17.1375 11.083 16.9388 10.3229 L16.8391 9.9417 C16.832 9.91468 16.8249 9.88752 16.8176 9.86022 C16.7294 9.52629 16.6357 9.172 16.6885 8.80888 C16.7418 8.44308 16.9343 8.13236 17.1135 7.84311 C17.1281 7.81951 17.1426 7.79606 17.157 7.77273 L17.3602 7.44251 C17.766 6.78316 18.0242 6.35998 18.1618 6.03965 C18.2274 5.88703 18.2455 5.80138 18.2492 5.75937 C18.2496 5.7544 18.2498 5.75036 18.2499 5.74716 C18.2494 5.74681 18.2488 5.74645 18.2482 5.74608 C18.2189 5.72829 18.1466 5.6948 17.9908 5.66085 C17.662 5.58921 17.1815 5.55708 16.4224 5.5097 L16.0431 5.48602 C16.0159 5.48432 15.9884 5.4827 15.9607 5.48106 C15.6302 5.46155 15.2619 5.4398 14.9324 5.26503 C14.6072 5.09251 14.3782 4.80146 14.1683 4.5346 C14.1507 4.51212 14.1331 4.4898 14.1156 4.46774 L13.8733 4.16167 C13.3894 3.55042 13.0779 3.16006 12.8251 2.9219 C12.732 2.83415 12.6701 2.7895 12.633 2.76741 C12.6047 2.79998 12.5597 2.86185 12.4984 2.97457 C12.3325 3.27988 12.1582 3.74818 11.889 4.48011 L11.7542 4.84663 C11.7445 4.87303 11.7348 4.89971 11.725 4.92659 C11.6088 5.24576 11.4821 5.59364 11.227 5.85905 C10.9686 6.12794 10.6256 6.26367 10.3176 6.38551 C10.2918 6.39573 10.2662 6.40586 10.2409 6.41596 L9.88795 6.55701 C9.18158 6.83927 8.73505 7.01998 8.44498 7.19082 C8.3075 7.27179 8.24912 7.32627 8.22683 7.35241 C8.22627 7.35306 8.22575 7.35369 8.22525 7.35429 C8.22632 7.35732 8.22779 7.36114 8.22978 7.36579 C8.24635 7.40448 8.29018 7.48014 8.40003 7.60459 C8.63061 7.86584 9.00772 8.18714 9.59881 8.68674 L9.89483 8.93694 C9.91575 8.95461 9.93686 8.97236 9.95811 8.99021 C10.2185 9.20899 10.4984 9.44413 10.6631 9.77515 C10.8265 10.1037 10.848 10.4696 10.8682 10.8144 C10.8698 10.8426 10.8715 10.8706 10.8732 10.8985 L10.8973 11.2917 C10.9264 11.7639 10.9498 12.135 10.9795 12.4314 C10.9875 12.45 10.9948 12.4691 11.0014 12.4886 C11.0407 12.605 11.0498 12.7244 11.0328 12.8381 Z M11.0968 13.2073 C11.0964 13.2079 11.1004 13.2088 11.1104 13.2081 C11.1023 13.2062 11.0973 13.2066 11.0968 13.2073 Z M11.1473 13.2257 C11.1518 13.2319 11.1544 13.234 11.1546 13.2334 C11.1547 13.2329 11.1525 13.2298 11.1473 13.2257 Z M17.2996 12.2482 C17.2999 12.2486 17.3017 12.2459 17.3041 12.2386 C17.3004 12.2441 17.2993 12.2477 17.2996 12.2482 Z M17.3333 12.2107 C17.343 12.2083 17.3466 12.2062 17.3459 12.2057 C17.3453 12.2052 17.3404 12.2064 17.3333 12.2107 Z M12.6687 2.73457 C12.6687 2.734 12.6655 2.73552 12.6592 2.74085 C12.6655 2.73781 12.6687 2.73514 12.6687 2.73457 Z M12.5999 2.75031 C12.5922 2.74721 12.5887 2.74676 12.5889 2.74731 C12.5891 2.74786 12.5929 2.74941 12.5999 2.75031 Z" fill="#FFFFFF" />
  <path d="M10.2808 16C10.2808 16 10.9135 17.3908 11.6935 17.8692C12.4735 18.3475 14 18.2808 14 18.2808C14 18.2808 12.6092 18.9135 12.1308 19.6935C11.6525 20.4735 11.7192 22 11.7192 22C11.7192 22 11.0865 20.6092 10.3065 20.1308C9.52652 19.6525 8 19.7192 8 19.7192C8 19.7192 9.39082 19.0865 9.86916 18.3065C10.3475 17.5265 10.2808 16 10.2808 16Z" stroke="#FFFFFF" stroke-linejoin="round" />
  <path d="M18.4795 15C18.4795 15 18.0577 15.9272 17.5377 16.2461C17.0177 16.565 16 16.5205 16 16.5205C16 16.5205 16.9272 16.9423 17.2461 17.4623C17.565 17.9823 17.5205 19 17.5205 19C17.5205 19 17.9423 18.0728 18.4623 17.7539C18.9823 17.435 20 17.4795 20 17.4795C20 17.4795 19.0728 17.0577 18.7539 16.5377C18.435 16.0177 18.4795 15 18.4795 15Z" stroke="#FFFFFF" stroke-linejoin="round" />
</svg>