<svg xmlns="http://www.w3.org/2000/svg" width="24" height="24" viewBox="0 0 24 24" fill="none">
  <path fill-rule="nonzero" clip-rule="nonzero" d="M 16.4827 3.59015 L 16.8446 4.01866 C 17.2403 4.48717 17.309 4.54647 17.3792 4.58135 C 17.4512 4.61719 17.5446 4.6367 18.1636 4.67293 L 18.7288 4.70601 C 19.6556 4.76021 20.4331 4.80568 21.0174 4.92502 C 21.6174 5.04758 22.2297 5.28861 22.5597 5.91036 C 22.8948 6.54164 22.736 7.18021 22.483 7.73202 C 22.2397 8.26293 21.821 8.90063 21.3264 9.6539 L 21.0213 10.1187 C 20.6863 10.629 20.6582 10.7005 20.6488 10.7611 C 20.6393 10.8221 20.6446 10.8995 20.8088 11.4884 L 20.9416 11.9648 L 20.9584 12.0247 C 21.2009 12.8943 21.4061 13.6302 21.4768 14.2104 C 21.5502 14.8125 21.5083 15.4703 20.9964 15.9697 C 20.4919 16.4618 19.8341 16.5024 19.2261 16.4345 C 18.6336 16.3683 17.8795 16.1723 16.9806 15.9387 L 16.9229 15.9237 L 16.4324 15.7962 C 15.8318 15.6401 15.7371 15.63 15.6581 15.6419 C 15.5816 15.6534 15.4991 15.6881 14.98 16.0126 L 14.5052 16.3094 C 13.7301 16.794 13.0773 17.2022 12.5346 17.4394 C 11.9715 17.6856 11.3383 17.8336 10.7098 17.5211 C 10.2174 17.2763 9.95263 16.8608 9.79741 16.4073 C 6.59457 17.6095 3.94035 19.7593 3.03641 22.2556 C 2.92049 22.5758 2.60348 22.7777 2.26436 22.7473 C 1.92525 22.717 1.64913 22.462 1.5919 22.1264 C 0.958077 18.4093 1.24401 15.4411 2.13208 13.0989 C 2.99399 10.8258 4.40732 9.18465 6.01444 8.04211 C 6.22077 7.56925 6.63407 7.25731 7.05668 7.02396 C 7.57372 6.73848 8.29848 6.46701 9.15946 6.14452 L 9.68714 5.94684 C 10.2666 5.72978 10.3415 5.68577 10.3913 5.63714 C 10.4383 5.5913 10.4807 5.52535 10.7023 4.96057 L 10.882 4.50242 C 10.8896 4.48315 10.8971 4.46393 10.9046 4.44479 C 11.2326 3.60858 11.5104 2.90045 11.8037 2.39437 C 12.1102 1.86558 12.5369 1.37443 13.2373 1.26918 C 13.9311 1.16493 14.4887 1.5009 14.9493 1.90785 C 15.3938 2.30055 15.8914 2.88989 16.4827 3.59015 Z M 6.25193 9.75434 C 5.13206 10.7004 4.16637 11.9647 3.53465 13.6307 C 2.93741 15.2059 2.62873 17.167 2.79438 19.5953 C 4.34399 17.4967 6.8475 15.8677 9.53563 14.9059 C 9.50509 14.5624 9.48048 14.1865 9.45404 13.7827 L 9.41779 13.2294 C 9.37811 12.6239 9.35777 12.5471 9.32638 12.488 C 9.29305 12.4252 9.23403 12.3595 8.74851 11.9748 L 8.30626 11.6244 C 7.58401 11.0521 6.97645 10.5707 6.57095 10.14 C 6.45798 10.02 6.34882 9.89171 6.25193 9.75434 Z M11.0594 15.0762 C11.0764 15.1105 11.0909 15.1465 11.1028 15.1841 C11.1414 15.306 11.1472 15.4305 11.1251 15.5479 C11.134 15.5972 11.1434 15.6443 11.1533 15.6894 C11.2466 16.1139 11.3477 16.1633 11.3759 16.1771 C11.3765 16.1774 11.3779 16.1781 11.3785 16.1784 C11.4097 16.1939 11.5168 16.2473 11.9337 16.0651 C12.3626 15.8775 12.9212 15.5306 13.7612 15.0055 L14.1849 14.7406 C14.2128 14.7232 14.2406 14.7057 14.2683 14.6883 C14.6488 14.4494 15.0103 14.2224 15.4352 14.1586 C15.8576 14.0951 16.2721 14.2037 16.7129 14.3191 C16.745 14.3275 16.7772 14.336 16.8096 14.3444 L17.3002 14.4719 C18.2721 14.7245 18.9205 14.891 19.3927 14.9438 C19.8503 14.9949 19.9326 14.9123 19.9479 14.897 C19.9483 14.8966 19.9486 14.8962 19.949 14.8959 C19.9491 14.8958 19.9494 14.8955 19.9498 14.8952 C19.9601 14.8866 20.04 14.8202 19.9878 14.3918 C19.9326 13.9384 19.7605 13.3135 19.4968 12.3677 L19.3639 11.8913 C19.3549 11.8589 19.3458 11.8266 19.3367 11.7943 C19.2174 11.3704 19.1006 10.9553 19.1666 10.5309 C19.2325 10.1062 19.4699 9.74639 19.7121 9.37943 C19.7305 9.35151 19.749 9.32354 19.7674 9.2955 L20.0384 8.88273 C20.5764 8.0632 20.9295 7.52142 21.1195 7.10699 C21.2984 6.71666 21.2436 6.62794 21.2355 6.61481 C21.2352 6.61429 21.2349 6.61389 21.2348 6.61359 C21.2346 6.6132 21.2343 6.61277 21.2341 6.61229 C21.2233 6.59143 21.1691 6.48699 20.7172 6.39468 C20.2516 6.29958 19.5837 6.25861 18.5817 6.19997 L18.076 6.17037 C18.0426 6.16841 18.0094 6.16653 17.9763 6.16466 C17.5214 6.13892 17.0939 6.11473 16.7112 5.92444 C16.3268 5.73326 16.0521 5.40661 15.7621 5.06185 C15.741 5.0368 15.7199 5.01165 15.6986 4.98646 L15.3755 4.60386 C14.735 3.84542 14.308 3.34285 13.9562 3.03197 C13.6136 2.72935 13.494 2.74742 13.4602 2.75253 C13.4595 2.75263 13.4588 2.75273 13.458 2.75284 C13.4284 2.757 13.3182 2.77251 13.1015 3.14652 C12.8725 3.54158 12.6352 4.14067 12.2784 5.05024 L12.0987 5.50839 C12.0866 5.53916 12.0746 5.56991 12.0626 5.60061 C11.9029 6.01045 11.7473 6.40989 11.4387 6.71087 C11.1329 7.00922 10.729 7.15953 10.3082 7.31612 C10.2767 7.32786 10.2451 7.33964 10.2134 7.35151 L9.74269 7.52783 C8.80945 7.87744 8.19038 8.11145 7.78173 8.33709 C7.38529 8.55598 7.38215 8.66325 7.38196 8.66988 C7.3799 8.67762 7.35223 8.78163 7.66309 9.11181 C7.98408 9.45276 8.50291 9.86637 9.28539 10.4864 L9.68009 10.7992 C9.70661 10.8202 9.73311 10.8411 9.75951 10.8619 C10.1129 11.1407 10.4511 11.4075 10.6513 11.7848 C10.8534 12.1655 10.8804 12.593 10.9083 13.0327 C10.9103 13.0655 10.9124 13.0984 10.9146 13.1314 L10.9468 13.6229 C10.9861 14.2221 11.0179 14.6961 11.0594 15.0762 Z" fill="#FFFFFF" />
</svg>