<svg xmlns="http://www.w3.org/2000/svg" width="24" height="24" viewBox="0 0 24 24" fill="none">
  <path fill-rule="nonzero" clip-rule="nonzero" d="M12 22 C6.47715 22 2 17.5228 2 12 C2 6.47715 6.47715 2 12 2 C17.5228 2 22 6.47715 22 12 C22 17.5228 17.5228 22 12 22 Z M 10.8613 9.36335 L 10.7302 9.59849 C 10.5862 9.85677 10.5142 9.98591 10.402 10.0711 C 10.2897 10.1563 10.1499 10.188 9.87035 10.2512 L 9.61581 10.3088 C 8.63195 10.5314 8.14001 10.6427 8.02297 11.0191 C 7.90593 11.3955 8.2413 11.7876 8.91204 12.572 L 9.08557 12.7749 C 9.27617 12.9978 9.37147 13.1092 9.41435 13.2471 C 9.45722 13.385 9.44281 13.5336 9.41399 13.831 L 9.38776 14.1018 C 9.28635 15.1482 9.23565 15.6715 9.54206 15.9041 C 9.84847 16.1367 10.3091 15.9246 11.2303 15.5005 L 11.4686 15.3907 C 11.7304 15.2702 11.8613 15.2099 12 15.2099 C 12.1387 15.2099 12.2696 15.2702 12.5314 15.3907 L 12.7697 15.5005 C 13.6909 15.9246 14.1515 16.1367 14.4579 15.9041 C 14.7644 15.6715 14.7136 15.1482 14.6122 14.1018 L 14.586 13.831 C 14.5572 13.5336 14.5428 13.385 14.5857 13.2471 C 14.6285 13.1092 14.7238 12.9978 14.9144 12.7749 L 15.088 12.572 C 15.7587 11.7876 16.0941 11.3955 15.977 11.0191 C 15.86 10.6427 15.3681 10.5314 14.3842 10.3088 L 14.1296 10.2512 C 13.8501 10.188 13.7103 10.1563 13.598 10.0711 C 13.4858 9.98592 13.4138 9.85678 13.2698 9.5985 L 13.1387 9.36335 C 12.6321 8.45445 12.3787 8 12 8 C 11.6213 8 11.3679 8.45446 10.8613 9.36335 Z" fill="#FFFFFF" />
</svg>