<svg xmlns="http://www.w3.org/2000/svg" width="24" height="24" viewBox="0 0 24 24" fill="none">
  <path fill-rule="nonzero" clip-rule="nonzero" d="M5.67459 7.59346 C5.79918 7.88374 6.00629 8.17747 6.34322 8.41182 C7.1315 8.96009 8.6987 9.5 12 9.5 C15.3013 9.5 16.8685 8.96009 17.6568 8.41182 C17.9937 8.17747 18.2008 7.88374 18.3254 7.59346 C20.5683 8.35883 22 9.52274 22 10.8262 C22 13.1313 17.5228 14.9999 12 14.9999 C6.47715 14.9999 2 13.1313 2 10.8262 C2 9.52274 3.4317 8.35883 5.67459 7.59346 Z M 12 13 C 12.5523 13 13 12.5523 13 12 C 13 11.4477 12.5523 11 12 11 C 11.4477 11 11 11.4477 11 12 C 11 12.5523 11.4477 13 12 13 Z M8 11 C8 10.4477 7.55228 10 7 10 C6.44772 10 6 10.4477 6 11 C6 11.5523 6.44772 12 7 12 C7.55228 12 8 11.5523 8 11 Z M 17 12 C 17.5523 12 18 11.5523 18 11 C 18 10.4477 17.5523 10 17 10 C 16.4477 10 16 10.4477 16 11 C 16 11.5523 16.4477 12 17 12 Z" fill="#FFFFFF" />
  <path d="M7.05498 7.0054C7.40316 4.73714 9.3631 3 11.7288 3H12.2712C14.6369 3 16.5968 4.73714 16.945 7.0054C16.9131 7.07425 16.866 7.13466 16.8003 7.18039C16.3862 7.4684 15.1898 8 12 8C8.81016 8 7.6138 7.4684 7.19972 7.18039C7.13397 7.13466 7.08687 7.07425 7.05498 7.0054Z" fill="#FFFFFF" />
  <path d="M6 16.25C6.41421 16.25 6.75 16.5858 6.75 17V20C6.75 20.4142 6.41421 20.75 6 20.75C5.58579 20.75 5.25 20.4142 5.25 20V17C5.25 16.5858 5.58579 16.25 6 16.25Z" fill="#FFFFFF" />
  <path d="M18.75 17C18.75 16.5858 18.4142 16.25 18 16.25C17.5858 16.25 17.25 16.5858 17.25 17V20C17.25 20.4142 17.5858 20.75 18 20.75C18.4142 20.75 18.75 20.4142 18.75 20V17Z" fill="#FFFFFF" />
  <path d="M12 17.25C12.4142 17.25 12.75 17.5858 12.75 18V21C12.75 21.4142 12.4142 21.75 12 21.75C11.5858 21.75 11.25 21.4142 11.25 21V18C11.25 17.5858 11.5858 17.25 12 17.25Z" fill="#FFFFFF" />
</svg>