<svg xmlns="http://www.w3.org/2000/svg" width="24" height="24" viewBox="0 0 24 24" fill="none">
  <path fill-rule="nonzero" clip-rule="nonzero" d="M5.67459 7.59375 C5.79918 7.88403 6.00629 8.17776 6.34322 8.41211 C7.1315 8.96038 8.6987 9.50029 12 9.50029 C15.3013 9.50029 16.8685 8.96038 17.6568 8.41211 C17.9937 8.17776 18.2008 7.88403 18.3254 7.59375 C20.5683 8.35912 22 9.52303 22 10.8265 C22 13.1315 17.5228 15.0002 12 15.0002 C6.47715 15.0002 2 13.1315 2 10.8265 C2 9.52303 3.4317 8.35912 5.67459 7.59375 Z M 12 13.0003 C 12.5523 13.0003 13 12.5526 13 12.0003 C 13 11.448 12.5523 11.0003 12 11.0003 C 11.4477 11.0003 11 11.448 11 12.0003 C 11 12.5526 11.4477 13.0003 12 13.0003 Z M8 11.0003 C8 10.448 7.55228 10.0003 7 10.0003 C6.44772 10.0003 6 10.448 6 11.0003 C6 11.5526 6.44772 12.0003 7 12.0003 C7.55228 12.0003 8 11.5526 8 11.0003 Z M 17 12.0003 C 17.5523 12.0003 18 11.5526 18 11.0003 C 18 10.448 17.5523 10.0003 17 10.0003 C 16.4477 10.0003 16 10.448 16 11.0003 C 16 11.5526 16.4477 12.0003 17 12.0003 Z" fill="#FFFFFF" />
  <path d="M12 17.2503C12.4142 17.2503 12.75 17.5861 12.75 18.0003V21.0003C12.75 21.4145 12.4142 21.7503 12 21.7503C11.5858 21.7503 11.25 21.4145 11.25 21.0003V18.0003C11.25 17.5861 11.5858 17.2503 12 17.2503Z" fill="#FFFFFF" />
  <g opacity="0.5">
    <path d="M7.05498 7.0054C7.40316 4.73714 9.3631 3 11.7288 3H12.2712C14.6369 3 16.5968 4.73714 16.945 7.0054C16.9131 7.07425 16.866 7.13466 16.8003 7.18039C16.3862 7.4684 15.1898 8 12 8C8.81016 8 7.6138 7.4684 7.19972 7.18039C7.13397 7.13466 7.08687 7.07425 7.05498 7.0054Z" fill="#FFFFFF" />
    <path d="M6 16.25C6.41421 16.25 6.75 16.5858 6.75 17V20C6.75 20.4142 6.41421 20.75 6 20.75C5.58579 20.75 5.25 20.4142 5.25 20V17C5.25 16.5858 5.58579 16.25 6 16.25Z" fill="#FFFFFF" />
    <path d="M18.75 17C18.75 16.5858 18.4142 16.25 18 16.25C17.5858 16.25 17.25 16.5858 17.25 17V20C17.25 20.4142 17.5858 20.75 18 20.75C18.4142 20.75 18.75 20.4142 18.75 20V17Z" fill="#FFFFFF" />
  </g>
</svg>