<svg xmlns="http://www.w3.org/2000/svg" width="24" height="24" viewBox="0 0 24 24" fill="none">
  <path fill-rule="nonzero" clip-rule="nonzero" d="M10.8263 4.50335 C10.791 4.70642 10.7867 4.9295 10.8299 5.17028 C10.9996 6.11537 11.726 7.60532 14.0604 9.93969 C16.3948 12.2741 17.8847 13.0005 18.8298 13.1702 C19.0705 13.2134 19.2935 13.2091 19.4965 13.1738 C20.6213 15.3784 20.8487 17.2931 19.9006 18.2411 C18.2707 19.8711 13.7836 18.0265 9.87836 14.1213 C5.97312 10.216 4.1286 5.72892 5.75851 4.09901 C6.70662 3.1509 8.62152 3.37843 10.8263 4.50335 Z M12.7069 12.7073 C13.0975 12.3167 13.0975 11.6836 12.7069 11.293 C12.3164 10.9025 11.6832 10.9025 11.2927 11.293 C10.9022 11.6836 10.9022 12.3167 11.2927 12.7073 C11.6832 13.0978 12.3164 13.0978 12.7069 12.7073 Z M 8.46411 8.46409 C 8.85463 8.85462 9.4878 8.85462 9.87832 8.46409 C 10.2688 8.07357 10.2688 7.4404 9.87832 7.04988 C 9.4878 6.65936 8.85463 6.65936 8.46411 7.04988 C 8.07358 7.4404 8.07358 8.07357 8.46411 8.46409 Z M16.9496 15.5354 C17.3401 15.1449 17.3401 14.5117 16.9496 14.1212 C16.5591 13.7306 15.9259 13.7306 15.5354 14.1212 C15.1449 14.5117 15.1449 15.1449 15.5354 15.5354 C15.9259 15.9259 16.5591 15.9259 16.9496 15.5354 Z" fill="#FFFFFF" />
  <path d="M8.28739 16.7731C8.58029 16.4802 8.58029 16.0053 8.28739 15.7124C7.9945 15.4195 7.51963 15.4195 7.22673 15.7124L3.10541 19.8337C2.81252 20.1266 2.81252 20.6015 3.10541 20.8944C3.39831 21.1873 3.87318 21.1873 4.16607 20.8944L8.28739 16.7731Z" fill="#FFFFFF" />
  <g opacity="0.5">
    <path d="M12.302 4.78957C14.1299 3.63258 16.5783 3.85088 18.172 5.44456L18.5556 5.82815C20.1494 7.42193 20.3676 9.87035 19.2104 11.6982C19.1728 11.702 19.1343 11.7008 19.0951 11.6938C18.5986 11.6046 17.3768 11.1346 15.1212 8.87899C12.8657 6.62343 12.3956 5.40159 12.3065 4.90513C12.2994 4.86583 12.2982 4.82723 12.302 4.78957Z" fill="#FFFFFF" />
    <path d="M4.80145 11.7688C5.06423 11.4486 5.01769 10.976 4.69751 10.7132C4.37732 10.4504 3.90473 10.497 3.64195 10.8172L1.42027 13.5242C1.15749 13.8444 1.20403 14.317 1.52422 14.5797C1.8444 14.8425 2.31699 14.796 2.57977 14.4758L4.80145 11.7688Z" fill="#FFFFFF" />
    <path d="M13.2868 19.3025C13.5495 19.6227 13.5029 20.0953 13.1827 20.358L10.4755 22.5795C10.1552 22.8422 9.68266 22.7956 9.41991 22.4754C9.15716 22.1552 9.20375 21.6826 9.52396 21.4199L12.2312 19.1984C12.5514 18.9357 13.024 18.9823 13.2868 19.3025Z" fill="#FFFFFF" />
  </g>
</svg>