<svg xmlns="http://www.w3.org/2000/svg" width="24" height="24" viewBox="0 0 24 24" fill="none">
  <path d="M12.7072 12.7067C12.3167 13.0972 11.6835 13.0972 11.293 12.7067C10.9024 12.3161 10.9024 11.683 11.293 11.2924C11.6835 10.9019 12.3167 10.9019 12.7072 11.2924C13.0977 11.683 13.0977 12.3161 12.7072 12.7067Z" fill="#FFFFFF" />
  <path d="M9.87876 8.46401C9.48824 8.85453 8.85507 8.85453 8.46455 8.46401C8.07402 8.07349 8.07402 7.44032 8.46455 7.0498C8.85507 6.65927 9.48824 6.65927 9.87876 7.0498C10.2693 7.44032 10.2693 8.07349 9.87876 8.46401Z" fill="#FFFFFF" />
  <path d="M16.9498 15.5351C16.5593 15.9256 15.9261 15.9256 15.5356 15.5351C15.1451 15.1446 15.1451 14.5114 15.5356 14.1209C15.9261 13.7303 16.5593 13.7303 16.9498 14.1209C17.3404 14.5114 17.3404 15.1446 16.9498 15.5351Z" fill="#FFFFFF" />
  <path fill-rule="nonzero" clip-rule="nonzero" d="M 8.1043 4.31648 C 7.15369 4.15399 6.58669 4.33146 6.28933 4.62882 C 6.06627 4.85188 5.91206 5.21823 5.91592 5.79791 C 5.91981 6.38136 6.08653 7.11883 6.43693 7.97123 C 7.13638 9.67276 8.50918 11.6904 10.4092 13.5904 C 12.3092 15.4904 14.3269 16.8632 16.0284 17.5627 C 16.8808 17.9131 17.6183 18.0798 18.2017 18.0837 C 18.7814 18.0876 19.1477 17.9334 19.3708 17.7103 C 19.6682 17.4129 19.8456 16.8459 19.6831 15.8953 C 19.5567 15.1556 19.2355 14.2744 18.7237 13.3121 C 18.5175 13.4188 18.2598 13.4845 17.9627 13.4312 C 17.2419 13.3018 15.886 12.7035 13.5911 10.4086 C 11.2961 8.11359 10.6979 6.75769 10.5684 6.03692 C 10.5151 5.73983 10.5808 5.48213 10.6875 5.27594 C 9.72526 4.76414 8.84404 4.44292 8.1043 4.31648 Z M11.8358 4.19702 C13.9603 2.80892 16.8369 3.04774 18.7026 4.91346 L19.0862 5.29705 C20.9519 7.16277 21.1907 10.0393 19.8026 12.1638 C20.5027 13.3843 20.9796 14.5773 21.1617 15.6426 C21.3611 16.8089 21.2265 17.9759 20.4315 18.771 C19.8396 19.3629 19.0338 19.5893 18.1917 19.5837 C17.3534 19.5781 16.4194 19.3452 15.4581 18.9501 C13.5323 18.1584 11.3538 16.6563 9.34853 14.6511 C7.34329 12.6459 5.84121 10.4673 5.04957 8.54153 C4.65442 7.58024 4.42154 6.64625 4.41595 5.80791 C4.41034 4.96581 4.63678 4.16005 5.22867 3.56816 C6.02368 2.77315 7.19073 2.63856 8.35703 2.83792 C9.42237 3.02002 10.6154 3.49688 11.8358 4.19702 Z M 12.0795 5.91113 C 12.2072 6.33085 12.7102 7.40634 14.6517 9.34789 C 16.5933 11.2894 17.6688 11.7924 18.0885 11.9201 C 19.579 10.3619 19.558 7.89022 18.0255 6.35771 L 17.6419 5.97412 C 16.1094 4.4416 13.6378 4.42061 12.0795 5.91113 Z M 4.75224 10.7621 C 5.04513 11.055 5.04513 11.5299 4.75224 11.8228 L 2.63092 13.9441 C 2.33802 14.237 1.86315 14.237 1.57026 13.9441 C 1.27736 13.6512 1.27736 13.1763 1.57026 12.8834 L 3.69158 10.7621 C 3.98447 10.4692 4.45934 10.4692 4.75224 10.7621 Z M 8.28777 15.7119 C 8.58066 16.0047 8.58066 16.4796 8.28777 16.7725 L 4.16645 20.8938 C 3.87356 21.1867 3.39868 21.1867 3.10579 20.8938 C 2.8129 20.6009 2.8129 20.1261 3.10579 19.8332 L 7.22711 15.7119 C 7.52 15.419 7.99488 15.419 8.28777 15.7119 Z M 13.2375 19.2474 C 13.5304 19.5403 13.5304 20.0152 13.2375 20.3081 L 11.1162 22.4294 C 10.8233 22.7223 10.3484 22.7223 10.0555 22.4294 C 9.76264 22.1365 9.76264 21.6616 10.0555 21.3687 L 12.1769 19.2474 C 12.4698 18.9545 12.9446 18.9545 13.2375 19.2474 Z" fill="#FFFFFF" />
</svg>