<svg xmlns="http://www.w3.org/2000/svg" width="24" height="24" viewBox="0 0 24 24" fill="none">
  <path fill-rule="nonzero" clip-rule="nonzero" d="M5.67459 8.59375 C5.79918 8.88403 6.00629 9.17776 6.34322 9.41211 C7.1315 9.96038 8.6987 10.5003 12 10.5003 C15.3013 10.5003 16.8685 9.96038 17.6568 9.41211 C17.9937 9.17776 18.2008 8.88403 18.3254 8.59375 C20.5683 9.35912 22 10.523 22 11.8265 C22 13.0344 20.7705 14.1225 18.8053 14.8846 L20.1432 17.1145 C20.3563 17.4697 20.2412 17.9304 19.886 18.1435 C19.5308 18.3566 19.0701 18.2415 18.857 17.8863 L17.357 15.3863 C17.351 15.3763 17.3452 15.3661 17.3397 15.356 C15.9933 15.7115 14.4294 15.9366 12.7501 15.9886 L12.7501 19.0004 C12.7501 19.4146 12.4143 19.7504 12.0001 19.7504 C11.5859 19.7504 11.2501 19.4146 11.2501 19.0004 L11.2501 15.9886 C9.57078 15.9366 8.00688 15.7116 6.66046 15.356 C6.65498 15.3662 6.64924 15.3763 6.64323 15.3863 L5.14323 17.8863 C4.93012 18.2415 4.46943 18.3566 4.11424 18.1435 C3.75906 17.9304 3.64388 17.4697 3.85699 17.1145 L5.19488 14.8847 C3.22958 14.1226 2 13.0345 2 11.8265 C2 10.523 3.4317 9.35912 5.67459 8.59375 Z M13 13.0003 C13 12.448 12.5523 12.0003 12 12.0003 C11.4477 12.0003 11 12.448 11 13.0003 C11 13.5526 11.4477 14.0003 12 14.0003 C12.5523 14.0003 13 13.5526 13 13.0003 Z M 7 13.0003 C 7.55228 13.0003 8 12.5526 8 12.0003 C 8 11.448 7.55228 11.0003 7 11.0003 C 6.44772 11.0003 6 11.448 6 12.0003 C 6 12.5526 6.44772 13.0003 7 13.0003 Z M18 12.0003 C18 11.448 17.5523 11.0003 17 11.0003 C16.4477 11.0003 16 11.448 16 12.0003 C16 12.5526 16.4477 13.0003 17 13.0003 C17.5523 13.0003 18 12.5526 18 12.0003 Z" fill="#FFFFFF" />
  <path opacity="0.5" d="M7.05518 8.0054C7.40336 5.73714 9.36329 4 11.729 4H12.2714C14.6371 4 16.597 5.73714 16.9452 8.0054C16.9133 8.07425 16.8662 8.13466 16.8005 8.18039C16.3864 8.4684 15.19 9 12.0002 9C8.81036 9 7.614 8.4684 7.19991 8.18039C7.13417 8.13466 7.08706 8.07425 7.05518 8.0054Z" fill="#FFFFFF" />
</svg>