<svg xmlns="http://www.w3.org/2000/svg" width="24" height="24" viewBox="0 0 24 24" fill="none">
  <path fill-rule="nonzero" clip-rule="nonzero" d="M5.67459 8.59346 C5.79918 8.88374 6.00629 9.17747 6.34322 9.41182 C7.1315 9.96009 8.6987 10.5 12 10.5 C15.3013 10.5 16.8685 9.96009 17.6568 9.41182 C17.9937 9.17747 18.2008 8.88374 18.3254 8.59346 C20.5683 9.35883 22 10.5227 22 11.8262 C22 13.0342 20.7705 14.1222 18.8053 14.8844 L20.1432 17.1142 C20.3563 17.4694 20.2412 17.9301 19.886 18.1432 C19.5308 18.3563 19.0701 18.2412 18.857 17.886 L17.357 15.386 C17.351 15.376 17.3452 15.3659 17.3397 15.3557 C15.9933 15.7112 14.4294 15.9363 12.7501 15.9883 L12.7501 19.0001 C12.7501 19.4143 12.4143 19.7501 12.0001 19.7501 C11.5859 19.7501 11.2501 19.4143 11.2501 19.0001 L11.2501 15.9883 C9.57078 15.9363 8.00688 15.7113 6.66046 15.3557 C6.65498 15.3659 6.64924 15.376 6.64323 15.386 L5.14323 17.886 C4.93012 18.2412 4.46943 18.3563 4.11424 18.1432 C3.75906 17.9301 3.64388 17.4694 3.85699 17.1142 L5.19488 14.8844 C3.22958 14.1223 2 13.0342 2 11.8262 C2 10.5227 3.4317 9.35883 5.67459 8.59346 Z M13 13 C13 12.4477 12.5523 12 12 12 C11.4477 12 11 12.4477 11 13 C11 13.5523 11.4477 14 12 14 C12.5523 14 13 13.5523 13 13 Z M 7 13 C 7.55228 13 8 12.5523 8 12 C 8 11.4477 7.55228 11 7 11 C 6.44772 11 6 11.4477 6 12 C 6 12.5523 6.44772 13 7 13 Z M18 12 C18 11.4477 17.5523 11 17 11 C16.4477 11 16 11.4477 16 12 C16 12.5523 16.4477 13 17 13 C17.5523 13 18 12.5523 18 12 Z" fill="#FFFFFF" />
  <path d="M7.05498 8.0054C7.40316 5.73714 9.3631 4 11.7288 4H12.2712C14.6369 4 16.5968 5.73714 16.945 8.0054C16.9131 8.07425 16.866 8.13466 16.8003 8.18039C16.3862 8.4684 15.1898 9 12 9C8.81016 9 7.6138 8.4684 7.19972 8.18039C7.13397 8.13466 7.08687 8.07425 7.05498 8.0054Z" fill="#FFFFFF" />
</svg>