<svg xmlns="http://www.w3.org/2000/svg" width="24" height="24" viewBox="0 0 24 24" fill="none">
  <path fill-rule="nonzero" clip-rule="nonzero" d="M 12 2.75 C 8.54822 2.75 5.75 5.54822 5.75 9 C 5.75 12.4518 8.54802 15.25 11.9998 15.25 C 15.4516 15.25 18.25 12.4517 18.25 9 C 18.25 5.54822 15.4518 2.75 12 2.75 Z M 4.25 9 C 4.25 4.71979 7.71979 1.25 12 1.25 C 16.2802 1.25 19.75 4.71979 19.75 9 C 19.75 13.0272 16.6781 16.337 12.7498 16.7142 V 17.75 H 14.5 C 14.9142 17.75 15.25 18.0858 15.25 18.5 C 15.25 18.9142 14.9142 19.25 14.5 19.25 H 12.7498 L 12.75 21.9999 C 12.7501 22.4142 12.4143 22.75 12.0001 22.75 C 11.5859 22.75 11.2501 22.4143 11.25 22.0001 L 11.2498 19.25 H 9.50003 C 9.08582 19.25 8.75003 18.9142 8.75003 18.5 C 8.75003 18.0858 9.08582 17.75 9.50003 17.75 H 11.2498 V 16.7142 C 7.32147 16.3369 4.25 13.0272 4.25 9 Z" fill="#FFFFFF" />
</svg>