<svg xmlns="http://www.w3.org/2000/svg" width="24" height="24" viewBox="0 0 24 24" fill="none">
  <g opacity="0.5" />
  <path d="M17.0996 18.1219C17.4666 17.8085 17.8085 17.4666 18.1219 17.0996L21.7882 20.7659C22.0705 21.0482 22.0705 21.5059 21.7882 21.7882C21.5059 22.0705 21.0482 22.0705 20.7659 21.7882L17.0996 18.1219Z" fill="#FFFFFF" />
  <path fill-rule="nonzero" clip-rule="nonzero" d="M11 6.5 C12.1408 6.5 13.1567 7.03208 13.8105 7.86036 L14.4901 7.52238 C14.8429 7.34689 15.272 7.48915 15.4484 7.84014 C15.6248 8.19112 15.4818 8.61792 15.129 8.79341 L14.4501 9.13106 C14.5292 9.42496 14.5714 9.73389 14.5714 10.0526 L14.5714 10.2895 L15.2857 10.2895 C15.6802 10.2895 16 10.6076 16 11 C16 11.3924 15.6802 11.7105 15.2857 11.7105 L14.5714 11.7105 L14.5714 11.9474 C14.5714 12.2661 14.5292 12.575 14.4501 12.8689 L15.129 13.2066 C15.4818 13.3821 15.6248 13.8089 15.4484 14.1599 C15.272 14.5108 14.8429 14.6531 14.4901 14.4776 L13.8105 14.1396 C13.1567 14.9679 12.1408 15.5 11 15.5 C9.85918 15.5 8.8433 14.9679 8.18946 14.1396 L7.50991 14.4776 C7.15707 14.6531 6.72802 14.5108 6.5516 14.1599 C6.37518 13.8089 6.5182 13.3821 6.87104 13.2066 L7.54991 12.8689 C7.47077 12.575 7.42857 12.2661 7.42857 11.9474 L7.42857 11.7105 L6.71429 11.7105 C6.3198 11.7105 6 11.3924 6 11 C6 10.6076 6.3198 10.2895 6.71429 10.2895 L7.42857 10.2895 L7.42857 10.0526 C7.42857 9.73389 7.47077 9.42496 7.54991 9.13106 L6.87104 8.79341 C6.5182 8.61792 6.37518 8.19112 6.5516 7.84014 C6.72802 7.48915 7.15707 7.34689 7.50991 7.52238 L8.18946 7.86036 C8.8433 7.03208 9.85918 6.5 11 6.5 Z M 11.0003 7.9209 C 10.0673 7.9209 9.27352 8.51405 8.97935 9.34195 H 13.0212 C 12.727 8.51405 11.9333 7.9209 11.0003 7.9209 Z M8.85742 11.9472 C8.85742 12.8753 9.45371 13.6649 10.286 13.9575 L10.286 10.763 L8.85742 10.763 L8.85742 11.9472 Z M11.7146 13.9575 C12.5468 13.6649 13.1431 12.8753 13.1431 11.9472 L13.1431 10.763 L11.7146 10.763 L11.7146 13.9575 Z" fill="#FFFFFF" />
</svg>