<svg xmlns="http://www.w3.org/2000/svg" width="24" height="24" viewBox="0 0 24 24" fill="none">
  <path fill-rule="nonzero" clip-rule="nonzero" d="M 11.5 2.75 C 6.66751 2.75 2.75 6.66751 2.75 11.5 C 2.75 16.3325 6.66751 20.25 11.5 20.25 C 16.3325 20.25 20.25 16.3325 20.25 11.5 C 20.25 6.66751 16.3325 2.75 11.5 2.75 Z M 1.25 11.5 C 1.25 5.83908 5.83908 1.25 11.5 1.25 C 17.1609 1.25 21.75 5.83908 21.75 11.5 C 21.75 14.0605 20.8111 16.4017 19.2589 18.1982 L 22.5303 21.4697 C 22.8232 21.7626 22.8232 22.2374 22.5303 22.5303 C 22.2374 22.8232 21.7626 22.8232 21.4697 22.5303 L 18.1982 19.2589 C 16.4017 20.8111 14.0605 21.75 11.5 21.75 C 5.83908 21.75 1.25 17.1609 1.25 11.5 Z M 8.54893 8.18594 C 9.23546 7.31164 10.3021 6.75 11.5 6.75 C 12.6979 6.75 13.7645 7.31164 14.4511 8.18594 L 15.1646 7.82918 C 15.5351 7.64394 15.9856 7.79411 16.1708 8.16459 C 16.3561 8.53507 16.2059 8.98558 15.8354 9.17082 L 15.1226 9.52723 C 15.2057 9.83746 15.25 10.1636 15.25 10.5 V 10.75 H 16 C 16.4142 10.75 16.75 11.0858 16.75 11.5 C 16.75 11.9142 16.4142 12.25 16 12.25 H 15.25 V 12.5 C 15.25 12.8364 15.2057 13.1625 15.1226 13.4728 L 15.8354 13.8292 C 16.2059 14.0144 16.3561 14.4649 16.1708 14.8354 C 15.9856 15.2059 15.5351 15.3561 15.1646 15.1708 L 14.4511 14.8141 C 13.7645 15.6884 12.6979 16.25 11.5 16.25 C 10.3021 16.25 9.23546 15.6884 8.54893 14.8141 L 7.83541 15.1708 C 7.46493 15.3561 7.01442 15.2059 6.82918 14.8354 C 6.64394 14.4649 6.79411 14.0144 7.16459 13.8292 L 7.8774 13.4728 C 7.79431 13.1625 7.75 12.8364 7.75 12.5 V 12.25 H 7 C 6.58579 12.25 6.25 11.9142 6.25 11.5 C 6.25 11.0858 6.58579 10.75 7 10.75 H 7.75 V 10.5 C 7.75 10.1636 7.79431 9.83746 7.8774 9.52723 L 7.16459 9.17082 C 6.79411 8.98558 6.64394 8.53507 6.82918 8.16459 C 7.01442 7.79411 7.46493 7.64394 7.83541 7.82918 L 8.54893 8.18594 Z M 9.25 11.25 V 12.5 C 9.25 13.4797 9.87611 14.3131 10.75 14.622 V 11.25 H 9.25 Z M 12.25 11.25 V 14.622 C 13.1239 14.3131 13.75 13.4797 13.75 12.5 V 11.25 H 12.25 Z M13.622 9.75 C13.3131 8.87611 12.4797 8.25 11.5 8.25 C10.5203 8.25 9.68691 8.87611 9.37803 9.75 L13.622 9.75 Z" fill="#FFFFFF" />
</svg>