<svg xmlns="http://www.w3.org/2000/svg" width="24" height="24" viewBox="0 0 24 24" fill="none">
  <path fill-rule="nonzero" clip-rule="nonzero" d="M8.85714 11.9474 L8.85714 10.7632 L10.2857 10.7632 L10.2857 13.9577 C9.45343 13.665 8.85714 12.8755 8.85714 11.9474 Z M13.0209 9.34211 L8.97908 9.34211 C9.27324 8.51421 10.067 7.92105 11 7.92105 C11.933 7.92105 12.7268 8.51421 13.0209 9.34211 Z M13.1429 10.7632 L13.1429 11.9474 C13.1429 12.8755 12.5466 13.665 11.7143 13.9577 L11.7143 10.7632 L13.1429 10.7632 Z" fill="#FFFFFF" />
  <path fill-rule="nonzero" clip-rule="nonzero" d="M21.7883 21.7883 C21.506 22.0706 21.0483 22.0706 20.7659 21.7883 L17.1 18.1225 C15.5006 19.4885 13.4249 20.3133 11.1566 20.3133 C6.09956 20.3133 2 16.2137 2 11.1566 C2 6.09956 6.09956 2 11.1566 2 C16.2137 2 20.3133 6.09956 20.3133 11.1566 C20.3133 13.425 19.4884 15.5007 18.1224 17.1002 L21.7883 20.7659 C22.0706 21.0483 22.0706 21.506 21.7883 21.7883 Z M8.18946 7.86036 L7.50991 7.52238 C7.15707 7.34689 6.72802 7.48915 6.5516 7.84014 C6.37518 8.19112 6.5182 8.61792 6.87104 8.79341 L7.54991 9.13106 C7.47077 9.42496 7.42857 9.73389 7.42857 10.0526 L7.42857 10.2895 L6.71429 10.2895 C6.3198 10.2895 6 10.6076 6 11 C6 11.3924 6.3198 11.7105 6.71429 11.7105 L7.42857 11.7105 L7.42857 11.9474 C7.42857 12.2661 7.47077 12.575 7.54991 12.8689 L6.87104 13.2066 C6.5182 13.3821 6.37518 13.8089 6.5516 14.1599 C6.72802 14.5108 7.15707 14.6531 7.50991 14.4776 L8.18946 14.1396 C8.8433 14.9679 9.85918 15.5 11 15.5 C12.1408 15.5 13.1567 14.9679 13.8105 14.1396 L14.4901 14.4776 C14.8429 14.6531 15.272 14.5108 15.4484 14.1599 C15.6248 13.8089 15.4818 13.3821 15.129 13.2066 L14.4501 12.8689 C14.5292 12.575 14.5714 12.2661 14.5714 11.9474 L14.5714 11.7105 L15.2857 11.7105 C15.6802 11.7105 16 11.3924 16 11 C16 10.6076 15.6802 10.2895 15.2857 10.2895 L14.5714 10.2895 L14.5714 10.0526 C14.5714 9.73389 14.5292 9.42496 14.4501 9.13106 L15.129 8.79341 C15.4818 8.61792 15.6248 8.19112 15.4484 7.84014 C15.272 7.48915 14.8429 7.34689 14.4901 7.52238 L13.8105 7.86036 C13.1567 7.03207 12.1408 6.5 11 6.5 C9.85918 6.5 8.8433 7.03208 8.18946 7.86036 Z" fill="#FFFFFF" />
</svg>