<svg xmlns="http://www.w3.org/2000/svg" width="24" height="24" viewBox="0 0 24 24" fill="none">
  <path fill-rule="nonzero" clip-rule="nonzero" d="M21.7883 21.7883 C21.506 22.0706 21.0483 22.0706 20.7659 21.7883 L17.1001 18.1224 C15.5006 19.4885 13.4249 20.3133 11.1566 20.3133 C6.09956 20.3133 2 16.2137 2 11.1566 C2 6.09956 6.09956 2 11.1566 2 C16.2137 2 20.3133 6.09956 20.3133 11.1566 C20.3133 13.4249 19.4885 15.5006 18.1224 17.1001 L21.7883 20.7659 C22.0706 21.0483 22.0706 21.506 21.7883 21.7883 Z M11.1566 8.0241 C10.7574 8.0241 10.4337 8.34775 10.4337 8.74699 L10.4337 10.4337 L8.74699 10.4337 C8.34775 10.4337 8.0241 10.7574 8.0241 11.1566 C8.0241 11.5559 8.34775 11.8795 8.74699 11.8795 L10.4337 11.8795 L10.4337 13.5663 C10.4337 13.9655 10.7574 14.2892 11.1566 14.2892 C11.5559 14.2892 11.8795 13.9655 11.8795 13.5663 L11.8795 11.8795 L13.5663 11.8795 C13.9655 11.8795 14.2892 11.5559 14.2892 11.1566 C14.2892 10.7574 13.9655 10.4337 13.5663 10.4337 L11.8795 10.4337 L11.8795 8.74699 C11.8795 8.34775 11.5559 8.0241 11.1566 8.0241 Z" fill="#FFFFFF" />
</svg>