<svg xmlns="http://www.w3.org/2000/svg" width="24" height="24" viewBox="0 0 24 24" fill="none">
  <path fill-rule="nonzero" clip-rule="nonzero" d="M 11.5 2.75 C 6.66751 2.75 2.75 6.66751 2.75 11.5 C 2.75 16.3325 6.66751 20.25 11.5 20.25 C 16.3325 20.25 20.25 16.3325 20.25 11.5 C 20.25 6.66751 16.3325 2.75 11.5 2.75 Z M 1.25 11.5 C 1.25 5.83908 5.83908 1.25 11.5 1.25 C 17.1609 1.25 21.75 5.83908 21.75 11.5 C 21.75 14.0605 20.8111 16.4017 19.2589 18.1982 L 22.5303 21.4697 C 22.8232 21.7626 22.8232 22.2374 22.5303 22.5303 C 22.2374 22.8232 21.7626 22.8232 21.4697 22.5303 L 18.1982 19.2589 C 16.4017 20.8111 14.0605 21.75 11.5 21.75 C 5.83908 21.75 1.25 17.1609 1.25 11.5 Z" fill="#FFFFFF" />
</svg>