<svg xmlns="http://www.w3.org/2000/svg" width="24" height="24" viewBox="0 0 24 24" fill="none">
  <path fill-rule="nonzero" clip-rule="nonzero" d="M 11.5 2.75 C 6.66751 2.75 2.75 6.66751 2.75 11.5 C 2.75 16.3325 6.66751 20.25 11.5 20.25 C 16.3325 20.25 20.25 16.3325 20.25 11.5 C 20.25 6.66751 16.3325 2.75 11.5 2.75 Z M 1.25 11.5 C 1.25 5.83908 5.83908 1.25 11.5 1.25 C 17.1609 1.25 21.75 5.83908 21.75 11.5 C 21.75 17.1609 17.1609 21.75 11.5 21.75 C 5.83908 21.75 1.25 17.1609 1.25 11.5 Z M 11.5 8.25 C 11.9142 8.25 12.25 8.58579 12.25 9 V 10.75 H 14 C 14.4142 10.75 14.75 11.0858 14.75 11.5 C 14.75 11.9142 14.4142 12.25 14 12.25 H 12.25 V 14 C 12.25 14.4142 11.9142 14.75 11.5 14.75 C 11.0858 14.75 10.75 14.4142 10.75 14 V 12.25 H 9 C 8.58579 12.25 8.25 11.9142 8.25 11.5 C 8.25 11.0858 8.58579 10.75 9 10.75 H 10.75 V 9 C 10.75 8.58579 11.0858 8.25 11.5 8.25 Z M 19.4697 19.4697 C 19.7626 19.1768 20.2374 19.1768 20.5303 19.4697 L 22.5303 21.4697 C 22.8232 21.7626 22.8232 22.2374 22.5303 22.5303 C 22.2374 22.8232 21.7626 22.8232 21.4697 22.5303 L 19.4697 20.5303 C 19.1768 20.2374 19.1768 19.7626 19.4697 19.4697 Z" fill="#FFFFFF" />
</svg>