<svg xmlns="http://www.w3.org/2000/svg" width="24" height="24" viewBox="0 0 24 24" fill="none">
  <path fill-rule="evenodd" clip-rule="evenodd" d="M17.8194 19.7006C17.7302 18.6064 18.6357 17.6929 19.7205 17.783C19.9086 17.7986 20.1337 17.8671 20.363 17.9368C20.3851 17.9435 20.4073 17.9502 20.4294 17.9569C20.4494 17.9629 20.4694 17.9689 20.4894 17.975C20.7001 18.0383 20.9097 18.1013 21.0692 18.1874C21.9844 18.6818 22.2799 19.8631 21.7067 20.7363C21.6068 20.8884 21.4519 21.0441 21.2962 21.2007C21.2814 21.2156 21.2666 21.2305 21.2519 21.2454C21.2371 21.2602 21.2224 21.2752 21.2076 21.2901C21.0524 21.4471 20.898 21.6034 20.7472 21.7041C19.8816 22.2823 18.7105 21.9843 18.2204 21.0611C18.135 20.9002 18.0726 20.6888 18.0097 20.4762C18.0038 20.4561 17.9978 20.4359 17.9918 20.4157C17.9852 20.3934 17.9785 20.3711 17.9719 20.3488C17.9028 20.1175 17.8349 19.8903 17.8194 19.7006Z" fill="#FFFFFF" />
  <path fill-rule="nonzero" clip-rule="nonzero" d="M 20.1278 11.1429 C 20.1278 16.1924 16.0697 20.2858 11.0639 20.2858 C 6.05804 20.2858 2 16.1924 2 11.1429 C 2 6.09342 6.05804 2 11.0639 2 C 16.0697 2 20.1278 6.09342 20.1278 11.1429 Z M8.18952 7.86036 L7.50998 7.52238 C7.15714 7.34689 6.72809 7.48915 6.55167 7.84014 C6.37525 8.19112 6.51826 8.61792 6.87111 8.79341 L7.54998 9.13106 C7.47084 9.42496 7.42864 9.73389 7.42864 10.0526 L7.42864 10.2895 L6.71429 10.2895 C6.3198 10.2895 6 10.6076 6 11 C6 11.3924 6.3198 11.7105 6.71429 11.7105 L7.42864 11.7105 L7.42864 11.9474 C7.42864 12.2661 7.47084 12.575 7.54998 12.8689 L6.87111 13.2066 C6.51826 13.3821 6.37525 13.8089 6.55167 14.1599 C6.72809 14.5108 7.15714 14.6531 7.50998 14.4776 L8.18952 14.1396 C8.84337 14.9679 9.85925 15.5 11.0001 15.5 C12.1409 15.5 13.1568 14.9679 13.8106 14.1396 L14.4902 14.4776 C14.843 14.6531 15.272 14.5108 15.4485 14.1599 C15.6249 13.8089 15.4819 13.3821 15.129 13.2066 L14.4502 12.8689 C14.5293 12.575 14.5715 12.2661 14.5715 11.9474 L14.5715 11.7105 L15.2857 11.7105 C15.6802 11.7105 16 11.3924 16 11 C16 10.6076 15.6802 10.2895 15.2857 10.2895 L14.5715 10.2895 L14.5715 10.0526 C14.5715 9.73389 14.5293 9.42496 14.4502 9.13106 L15.129 8.79341 C15.4819 8.61792 15.6249 8.19112 15.4485 7.84014 C15.272 7.48915 14.843 7.34689 14.4902 7.52238 L13.8106 7.86036 C13.1568 7.03207 12.1409 6.5 11.0001 6.5 C9.85925 6.5 8.84337 7.03208 8.18952 7.86036 Z" fill="#FFFFFF" />
  <path d="M11.7144 13.9577V10.7632H13.1429V11.9474C13.1429 12.8755 12.5466 13.665 11.7144 13.9577Z" fill="#FFFFFF" />
  <path d="M8.85721 11.9474V10.7632H10.2858V13.9577C9.4535 13.665 8.85721 12.8755 8.85721 11.9474Z" fill="#FFFFFF" />
  <path d="M8.97914 9.34211C9.27331 8.51421 10.0671 7.92105 11.0001 7.92105C11.9331 7.92105 12.7268 8.51421 13.021 9.34211H8.97914Z" fill="#FFFFFF" />
</svg>