<svg xmlns="http://www.w3.org/2000/svg" width="24" height="24" viewBox="0 0 24 24" fill="none">
  <path fill-rule="evenodd" clip-rule="evenodd" d="M17.8196 19.7011C17.7303 18.6069 18.6359 17.6934 19.7206 17.7835C19.9087 17.7991 20.1338 17.8675 20.3632 17.9372C20.3853 17.9439 20.4074 17.9507 20.4295 17.9574C20.4495 17.9634 20.4695 17.9694 20.4895 17.9754C20.7003 18.0388 20.9099 18.1018 21.0693 18.1879C21.9846 18.6823 22.28 19.8636 21.7068 20.7367C21.6069 20.8888 21.452 21.0446 21.2963 21.2012C21.2815 21.2161 21.2667 21.231 21.252 21.2458C21.2372 21.2607 21.2225 21.2756 21.2078 21.2905C21.0525 21.4476 20.8981 21.6039 20.7473 21.7046C19.8817 22.2828 18.7106 21.9848 18.2205 21.0615C18.1351 20.9007 18.0727 20.6893 18.0099 20.4767C18.0039 20.4565 17.9979 20.4364 17.9919 20.4162C17.9853 20.3939 17.9786 20.3715 17.972 20.3493C17.9029 20.1179 17.835 19.8908 17.8196 19.7011Z" fill="#FFFFFF" />
  <g opacity="0.5" />
  <path fill-rule="nonzero" clip-rule="nonzero" d="M11 6.5 C12.1408 6.5 13.1567 7.03208 13.8105 7.86036 L14.4901 7.52238 C14.8429 7.34689 15.272 7.48915 15.4484 7.84014 C15.6248 8.19112 15.4818 8.61792 15.129 8.79341 L14.4501 9.13106 C14.5292 9.42496 14.5714 9.73389 14.5714 10.0526 L14.5714 10.2895 L15.2857 10.2895 C15.6802 10.2895 16 10.6076 16 11 C16 11.3924 15.6802 11.7105 15.2857 11.7105 L14.5714 11.7105 L14.5714 11.9474 C14.5714 12.2661 14.5292 12.575 14.4501 12.8689 L15.129 13.2066 C15.4818 13.3821 15.6248 13.8089 15.4484 14.1599 C15.272 14.5108 14.8429 14.6531 14.4901 14.4776 L13.8105 14.1396 C13.1567 14.9679 12.1408 15.5 11 15.5 C9.85918 15.5 8.8433 14.9679 8.18946 14.1396 L7.50991 14.4776 C7.15707 14.6531 6.72802 14.5108 6.5516 14.1599 C6.37518 13.8089 6.5182 13.3821 6.87104 13.2066 L7.54991 12.8689 C7.47077 12.575 7.42857 12.2661 7.42857 11.9474 L7.42857 11.7105 L6.71429 11.7105 C6.3198 11.7105 6 11.3924 6 11 C6 10.6076 6.3198 10.2895 6.71429 10.2895 L7.42857 10.2895 L7.42857 10.0526 C7.42857 9.73389 7.47077 9.42496 7.54991 9.13106 L6.87104 8.79341 C6.5182 8.61792 6.37518 8.19112 6.5516 7.84014 C6.72802 7.48915 7.15707 7.34689 7.50991 7.52238 L8.18946 7.86036 C8.8433 7.03208 9.85918 6.5 11 6.5 Z M 11.0003 7.9209 C 10.0673 7.9209 9.27352 8.51405 8.97935 9.34195 H 13.0212 C 12.727 8.51405 11.9333 7.9209 11.0003 7.9209 Z M8.85742 11.9472 C8.85742 12.8753 9.45371 13.6649 10.286 13.9575 L10.286 10.763 L8.85742 10.763 L8.85742 11.9472 Z M11.7146 13.9575 C12.5468 13.6649 13.1431 12.8753 13.1431 11.9472 L13.1431 10.763 L11.7146 10.763 L11.7146 13.9575 Z" fill="#FFFFFF" />
</svg>