<svg xmlns="http://www.w3.org/2000/svg" width="24" height="24" viewBox="0 0 24 24" fill="none">
  <path fill-rule="nonzero" clip-rule="nonzero" d="M 11 2.75 C 6.44365 2.75 2.75 6.44365 2.75 11 C 2.75 15.5563 6.44365 19.25 11 19.25 C 15.5563 19.25 19.25 15.5563 19.25 11 C 19.25 6.44365 15.5563 2.75 11 2.75 Z M 1.25 11 C 1.25 5.61522 5.61522 1.25 11 1.25 C 16.3848 1.25 20.75 5.61522 20.75 11 C 20.75 16.3848 16.3848 20.75 11 20.75 C 5.61522 20.75 1.25 16.3848 1.25 11 Z M 8.04893 7.68594 C 8.73546 6.81164 9.80214 6.25 11 6.25 C 12.1979 6.25 13.2645 6.81164 13.9511 7.68594 L 14.6646 7.32918 C 15.0351 7.14394 15.4856 7.29411 15.6708 7.66459 C 15.8561 8.03507 15.7059 8.48558 15.3354 8.67082 L 14.6226 9.02723 C 14.7057 9.33746 14.75 9.66356 14.75 10 V 10.25 H 15.5 C 15.9142 10.25 16.25 10.5858 16.25 11 C 16.25 11.4142 15.9142 11.75 15.5 11.75 H 14.75 V 12 C 14.75 12.3364 14.7057 12.6625 14.6226 12.9728 L 15.3354 13.3292 C 15.7059 13.5144 15.8561 13.9649 15.6708 14.3354 C 15.4856 14.7059 15.0351 14.8561 14.6646 14.6708 L 13.9511 14.3141 C 13.2645 15.1884 12.1979 15.75 11 15.75 C 9.80214 15.75 8.73546 15.1884 8.04893 14.3141 L 7.33541 14.6708 C 6.96493 14.8561 6.51442 14.7059 6.32918 14.3354 C 6.14394 13.9649 6.29411 13.5144 6.66459 13.3292 L 7.3774 12.9728 C 7.29431 12.6625 7.25 12.3364 7.25 12 V 11.75 H 6.5 C 6.08579 11.75 5.75 11.4142 5.75 11 C 5.75 10.5858 6.08579 10.25 6.5 10.25 H 7.25 V 10 C 7.25 9.66356 7.29431 9.33746 7.3774 9.02723 L 6.66459 8.67082 C 6.29411 8.48558 6.14394 8.03507 6.32918 7.66459 C 6.51442 7.29411 6.96493 7.14394 7.33541 7.32918 L 8.04893 7.68594 Z M 8.75 10.75 V 12 C 8.75 12.9797 9.37611 13.8131 10.25 14.122 V 10.75 H 8.75 Z M 11.75 10.75 V 14.122 C 12.6239 13.8131 13.25 12.9797 13.25 12 V 10.75 H 11.75 Z M13.122 9.25 C12.8131 8.37611 11.9797 7.75 11 7.75 C10.0203 7.75 9.18691 8.37611 8.87803 9.25 L13.122 9.25 Z M 20.1579 19.7511 C 19.9264 19.7335 19.7335 19.9264 19.7511 20.1579 C 19.7514 20.1592 19.7553 20.1848 19.7746 20.2573 C 19.7974 20.3424 19.8312 20.4554 19.8828 20.6277 C 19.9301 20.7857 19.9609 20.8881 19.9862 20.9641 C 20.0121 21.0419 20.021 21.0568 20.0171 21.0496 C 20.1225 21.2465 20.3745 21.31 20.5607 21.1867 C 20.5538 21.1912 20.5688 21.1824 20.6284 21.1261 C 20.6868 21.0712 20.7624 20.9957 20.8791 20.8791 C 20.9957 20.7624 21.0712 20.6868 21.1261 20.6284 C 21.1727 20.579 21.1868 20.5602 21.1877 20.5592 C 21.3093 20.3736 21.2463 20.1236 21.0511 20.018 C 21.0499 20.0175 21.0287 20.0077 20.9641 19.9862 C 20.8881 19.9609 20.7857 19.9301 20.6277 19.8828 C 20.4554 19.8312 20.3424 19.7974 20.2573 19.7746 C 20.1848 19.7553 20.1591 19.7514 20.1579 19.7511 Z M 18.2564 20.2833 C 18.1612 19.1267 19.1267 18.1612 20.2833 18.2564 C 20.4833 18.2728 20.7251 18.3457 20.9862 18.4242 C 21.0101 18.4314 21.0341 18.4387 21.0583 18.4459 C 21.0801 18.4524 21.1018 18.4589 21.1234 18.4654 C 21.3632 18.5369 21.5881 18.604 21.7576 18.6948 C 22.7335 19.2173 23.0485 20.4659 22.4373 21.3889 C 22.3312 21.5492 22.165 21.715 21.9878 21.8917 C 21.9719 21.9076 21.9558 21.9236 21.9397 21.9397 C 21.9236 21.9558 21.9076 21.9719 21.8917 21.9878 C 21.7149 22.165 21.5492 22.3312 21.3889 22.4373 C 20.4659 23.0485 19.2173 22.7335 18.6948 21.7576 C 18.604 21.5881 18.5369 21.3632 18.4654 21.1234 C 18.4589 21.1018 18.4524 21.0801 18.4459 21.0583 C 18.4387 21.0341 18.4314 21.0101 18.4242 20.9862 C 18.3457 20.7252 18.2728 20.4833 18.2564 20.2833 Z" fill="#FFFFFF" />
</svg>