<svg xmlns="http://www.w3.org/2000/svg" width="24" height="24" viewBox="0 0 24 24" fill="none">
  <path fill-rule="nonzero" clip-rule="nonzero" d="M 8.48517 2.74998 C 7.51317 2.75147 6.52878 2.99987 5.62567 3.52128 C 4.78613 4.00599 4.11509 4.67048 3.63312 5.43804 C 3.67021 5.46263 3.7106 5.48999 3.75401 5.52021 C 3.98377 5.68014 4.29892 5.92048 4.66113 6.25341 C 5.38596 6.91963 6.29918 7.95663 7.09179 9.45942 C 7.64116 10.501 7.98319 11.4831 8.19555 12.3238 C 8.57972 11.4173 9.11015 10.5622 9.83625 9.83611 C 10.1427 9.52962 10.4722 9.258 10.8188 9.01752 C 10.5092 8.58522 10.2006 8.09447 9.90845 7.54056 C 9.11635 6.03873 8.75527 4.66054 8.59246 3.6518 C 8.53646 3.30481 8.50381 3.00094 8.48517 2.74998 Z M 10.0104 2.95294 C 10.026 3.09286 10.0465 3.24666 10.0733 3.41279 C 10.215 4.2907 10.5322 5.50786 11.2352 6.84078 C 11.5253 7.39079 11.8321 7.86761 12.1356 8.2777 C 12.7969 7.97992 13.4891 7.76316 14.1812 7.60775 C 14.0747 6.92897 13.8438 6.2576 13.4788 5.62553 C 12.6894 4.25818 11.4236 3.33756 10.0104 2.95294 Z M15.6607 7.36056 C15.7571 7.34952 15.853 7.33944 15.9484 7.33027 C17.1715 7.2126 18.3429 7.23967 19.3053 7.31325 C21.1302 7.45278 22.5473 8.86988 22.6869 10.6948 C22.7604 11.6572 22.7875 12.8286 22.6698 14.0518 C22.4687 16.1428 21.8336 18.4943 20.164 20.1639 C18.4944 21.8335 16.1429 22.4685 14.0519 22.6697 C12.8288 22.7874 11.6573 22.7603 10.695 22.6867 C8.87002 22.5472 7.45292 21.1301 7.31339 19.3052 C7.2398 18.3428 7.21273 17.1713 7.3304 15.9482 C7.33963 15.8523 7.34977 15.7559 7.36088 15.659 C5.28021 15.3266 3.35912 14.0933 2.22238 12.1244 C0.220648 8.65734 1.40857 4.22398 4.87567 2.22224 C6.28817 1.40673 7.8632 1.12043 9.36751 1.30277 C11.5515 1.56749 13.5918 2.82126 14.7779 4.87553 C15.2343 5.66616 15.5252 6.5082 15.6607 7.36056 Z M6.98989 14.0471 C6.97427 13.9071 6.95377 13.7533 6.92695 13.5872 C6.78526 12.7093 6.46805 11.4921 5.76503 10.1592 C5.06251 8.82723 4.26159 7.92354 3.64606 7.35777 C3.39294 7.12512 3.17116 6.94962 3.00057 6.82513 C2.55332 8.29483 2.69269 9.93905 3.52142 11.3744 C4.31079 12.7417 5.57682 13.6625 6.98989 14.0471 Z M 17.7542 8.75014 L 21.25 12.246 C 21.2479 11.7354 21.225 11.2508 21.1912 10.8092 C 21.1081 9.72245 20.2777 8.89197 19.1909 8.80888 C 18.7493 8.77512 18.2647 8.75218 17.7542 8.75014 Z M 21.139 14.2563 L 15.7438 8.86112 C 13.917 9.08189 12.1294 9.6643 10.8969 10.8968 C 9.66443 12.1292 9.08203 13.9169 8.86125 15.7437 L 14.2564 21.1389 C 16.0832 20.9181 17.8709 20.3357 19.1033 19.1032 C 20.3358 17.8707 20.9182 16.0831 21.139 14.2563 Z M 12.2461 21.2498 L 8.75027 17.754 C 8.75231 18.2645 8.77525 18.7492 8.80902 19.1908 C 8.89211 20.2775 9.72259 21.108 10.8093 21.1911 C 11.2509 21.2249 11.7356 21.2478 12.2461 21.2498 Z M 14.9698 11.9697 C 15.2627 11.6768 15.7376 11.6768 16.0305 11.9697 L 16.5001 12.4393 L 16.9698 11.9697 C 17.2627 11.6768 17.7376 11.6768 18.0305 11.9697 C 18.3233 12.2626 18.3233 12.7374 18.0305 13.0303 L 17.5608 13.5 L 18.0305 13.9697 C 18.3233 14.2626 18.3233 14.7374 18.0305 15.0303 C 17.7376 15.3232 17.2627 15.3232 16.9698 15.0303 L 16.5001 14.5606 L 16.0608 15 L 16.5305 15.4697 C 16.8233 15.7626 16.8233 16.2374 16.5305 16.5303 C 16.2376 16.8232 15.7627 16.8232 15.4698 16.5303 L 15.0001 16.0606 L 14.5608 16.5 L 15.0305 16.9697 C 15.3233 17.2626 15.3233 17.7374 15.0305 18.0303 C 14.7376 18.3232 14.2627 18.3232 13.9698 18.0303 L 13.5001 17.5606 L 13.0305 18.0303 C 12.7376 18.3232 12.2627 18.3232 11.9698 18.0303 C 11.6769 17.7374 11.6769 17.2626 11.9698 16.9697 L 12.4395 16.5 L 11.9698 16.0303 C 11.6769 15.7374 11.6769 15.2626 11.9698 14.9697 C 12.2627 14.6768 12.7376 14.6768 13.0305 14.9697 L 13.5001 15.4393 L 13.9395 15 L 13.4698 14.5303 C 13.1769 14.2374 13.1769 13.7626 13.4698 13.4697 C 13.7627 13.1768 14.2376 13.1768 14.5305 13.4697 L 15.0001 13.9393 L 15.4395 13.5 L 14.9698 13.0303 C 14.6769 12.7374 14.6769 12.2626 14.9698 11.9697 Z" fill="#FFFFFF" />
</svg>