<svg xmlns="http://www.w3.org/2000/svg" width="24" height="24" viewBox="0 0 24 24" fill="none">
  <path fill-rule="nonzero" clip-rule="nonzero" d="M 6.86469 20.5828 C 5.44869 19.7374 4.22245 18.5294 3.33931 16.9997 C 2.45687 15.4713 2.02377 13.8067 1.99902 12.159 L 2.14358 12.1875 C 5.09262 12.7683 8.44759 11.7182 11.2053 10.0251 C 11.5679 9.8024 11.9235 9.56661 12.2695 9.31944 C 12.6827 9.83542 13.0527 10.3587 13.3508 10.875 C 13.7245 11.5223 14.0626 12.2923 14.3647 13.1149 C 13.8473 13.3653 13.3429 13.641 12.8569 13.9368 C 10.065 15.6356 7.68322 18.1135 6.86513 20.5815 L 6.86469 20.5828 Z M 16.2596 21.0475 C 13.6547 22.2776 10.7413 22.2853 8.22087 21.2588 L 8.28894 21.0535 C 8.95248 19.0517 11.0084 16.8174 13.6366 15.2182 C 14.0314 14.9779 14.4347 14.7547 14.8433 14.5507 C 15.0955 15.3805 15.314 16.2223 15.4984 17.0128 C 15.7377 18.0383 15.9153 18.9575 16.033 19.6201 C 16.0918 19.9512 16.1356 20.2176 16.1645 20.4004 C 16.179 20.4919 16.1898 20.5624 16.1969 20.6096 L 16.2047 20.6626 L 16.2066 20.6755 L 16.2071 20.6791 L 16.2596 21.0475 Z" fill="#FFFFFF" />
  <path d="M16.2259 13.9425C18.1134 13.2236 20.0374 12.9473 21.7027 13.3127L21.9074 13.3576C21.7856 14.2418 21.5463 15.1071 21.1961 15.9286C20.4717 17.6278 19.273 19.1396 17.6585 20.2451L17.6461 20.166C17.6158 19.9748 17.5705 19.699 17.5099 19.3578C17.3887 18.6757 17.206 17.7295 16.9592 16.672C16.7602 15.8192 16.5167 14.8803 16.2259 13.9425Z" fill="#FFFFFF" />
  <path d="M13.4525 8.39743C15.1812 6.92819 16.5396 5.18651 17.1247 3.44818L17.1351 3.41705C18.5508 4.26242 19.7768 5.47033 20.6598 6.99972C21.5426 8.52873 21.9757 10.194 22.0001 11.8423C20.0045 11.4109 17.8139 11.7412 15.7443 12.5213C15.4235 11.6577 15.0594 10.8345 14.6498 10.125C14.3136 9.54274 13.9035 8.96194 13.4525 8.39743Z" fill="#FFFFFF" />
  <path d="M8.31859 3.45405C8.06656 3.25473 7.86132 3.09745 7.71835 2.98945L7.69599 2.97258C9.45843 2.13001 11.3643 1.84893 13.1954 2.07088C14.0827 2.17844 14.9525 2.40412 15.7799 2.74129L15.703 2.96973C15.2258 4.38768 14.0529 5.92038 12.4746 7.26043C11.7443 6.46537 10.9739 5.7288 10.2721 5.09932C9.5149 4.42018 8.82228 3.85238 8.31859 3.45405Z" fill="#FFFFFF" />
  <path d="M10.4204 8.74678C7.83381 10.3349 4.87005 11.1956 2.43343 10.7157L2.09084 10.6483C2.46012 7.95488 3.91943 5.43745 6.28141 3.7952L6.60935 4.03361L6.61139 4.0351L6.62073 4.04194L6.65977 4.07072C6.6946 4.09652 6.74673 4.13536 6.81423 4.18635C6.94926 4.28834 7.14566 4.43883 7.38814 4.63059C7.8735 5.01443 8.54149 5.56206 9.27055 6.21597C9.93035 6.80777 10.6282 7.47615 11.2825 8.18057C11.0033 8.37645 10.7155 8.5656 10.4204 8.74678Z" fill="#FFFFFF" />
</svg>