<svg xmlns="http://www.w3.org/2000/svg" width="24" height="24" viewBox="0 0 24 24" fill="none">
  <path fill-rule="nonzero" clip-rule="nonzero" d="M 8.36677 3.49198 C 8.86602 3.88806 9.5389 4.44145 10.2724 5.09931 C 10.9742 5.72879 11.7445 6.46536 12.4749 7.26042 C 13.8783 6.06885 14.9612 4.72496 15.5194 3.44487 C 14.7473 3.12788 13.9348 2.91595 13.1054 2.81542 C 11.5314 2.62463 9.89843 2.83548 8.36677 3.49198 Z M 16.8583 4.12607 C 16.1802 5.63499 14.9566 7.11929 13.4528 8.39742 C 13.9038 8.96192 14.3139 9.54273 14.6501 10.125 C 15.0597 10.8345 15.4238 11.6577 15.7446 12.5213 C 17.5568 11.8382 19.4618 11.5 21.2475 11.7161 C 21.2034 10.2364 20.8025 8.74635 20.0106 7.37471 C 19.2164 5.99906 18.1223 4.9045 16.8583 4.12607 Z M 21.1698 13.2185 C 19.6337 13.0103 17.9153 13.2991 16.2261 13.9425 C 16.5169 14.8803 16.7605 15.8192 16.9595 16.6719 C 17.2062 17.7294 17.389 18.6757 17.5102 19.3577 C 17.514 19.3794 17.5178 19.4008 17.5216 19.422 C 18.8708 18.421 19.8801 17.1037 20.5064 15.6344 C 20.8355 14.8626 21.0587 14.0494 21.1698 13.2185 Z M 16.1439 20.2698 C 16.1162 20.0989 16.0794 19.8793 16.0333 19.6201 C 15.9156 18.9575 15.738 18.0383 15.4987 17.0128 C 15.3143 16.2223 15.0958 15.3805 14.8436 14.5507 C 14.435 14.7547 14.0317 14.9779 13.6369 15.2182 C 11.2251 16.6857 9.2952 18.6881 8.48099 20.5547 C 10.8836 21.541 13.6753 21.5096 16.1439 20.2698 Z M 7.14212 19.8736 C 8.14297 17.6465 10.3324 15.473 12.8571 13.9368 C 13.3432 13.641 13.8476 13.3652 14.3649 13.1149 C 14.0628 12.2923 13.7248 11.5223 13.3511 10.875 C 13.053 10.3587 12.6829 9.83541 12.2698 9.31943 C 11.9238 9.5666 11.5682 9.80239 11.2055 10.0251 C 8.63589 11.6027 5.54761 12.6221 2.75241 12.2838 C 2.79656 13.7632 3.19726 15.2532 3.98911 16.6247 C 4.78348 18.0006 5.87796 19.0952 7.14212 19.8736 Z M2.82996 10.7814 C5.18699 11.1012 7.97274 10.2497 10.4207 8.74677 C10.7158 8.56559 11.0035 8.37644 11.2828 8.18056 C10.6285 7.47613 9.93063 6.80776 9.27082 6.21596 C8.54176 5.56205 7.87378 5.01442 7.38842 4.63058 C7.204 4.48474 7.04624 4.36277 6.92186 4.26786 C4.6032 5.78767 3.17498 8.19867 2.82996 10.7814 Z M 6.62484 2.68993 C 8.71992 1.48034 11.0551 1.05591 13.2859 1.32632 C 16.5256 1.71902 19.5509 3.57847 21.3096 6.62471 C 23.0684 9.67094 23.1661 13.2206 21.8863 16.2227 C 21.0051 18.2898 19.4699 20.0999 17.3748 21.3095 C 12.2332 24.278 5.6586 22.5164 2.69007 17.3747 C -0.278462 12.2331 1.4832 5.65846 6.62484 2.68993 Z" fill="#FFFFFF" />
</svg>