<svg xmlns="http://www.w3.org/2000/svg" width="24" height="24" viewBox="0 0 24 24" fill="none">
  <path d="M16 4C16 5.10457 15.1046 6 14 6C12.8954 6 12 5.10457 12 4C12 2.89543 12.8954 2 14 2C15.1046 2 16 2.89543 16 4Z" fill="#FFFFFF" />
  <path fill-rule="nonzero" clip-rule="nonzero" d="M 10.919 8.50596 C 10.0125 7.78435 8.67587 8.04212 8.10274 9.04908 C 7.54795 10.0238 7.96038 11.2644 8.98833 11.713 L 12.079 13.0616 C 13.4092 13.6421 14.0214 15.1873 13.4497 16.5213 L 12.6894 18.2954 C 12.5262 18.6762 12.0853 18.8525 11.7046 18.6894 C 11.3238 18.5262 11.1475 18.0853 11.3106 17.7046 L 12.071 15.9304 C 12.3179 15.3544 12.0535 14.6871 11.4791 14.4364 L 8.38842 13.0878 C 6.54363 12.2828 5.80347 10.0564 6.79911 8.30709 C 7.82766 6.49997 10.2264 6.03738 11.8532 7.3324 L 14.0116 9.05057 C 14.1738 9.1797 14.375 9.25 14.5823 9.25 H 18.5 C 18.9142 9.25 19.25 9.58579 19.25 10 C 19.25 10.4142 18.9142 10.75 18.5 10.75 H 14.5823 C 14.0356 10.75 13.5051 10.5646 13.0773 10.2241 L 10.919 8.50596 Z M 6 15.75 C 4.75736 15.75 3.75 16.7574 3.75 18 C 3.75 19.2426 4.75736 20.25 6 20.25 C 7.24264 20.25 8.25 19.2426 8.25 18 C 8.25 16.7574 7.24264 15.75 6 15.75 Z M 2.25 18 C 2.25 15.9289 3.92893 14.25 6 14.25 C 8.07107 14.25 9.75 15.9289 9.75 18 C 9.75 20.0711 8.07107 21.75 6 21.75 C 3.92893 21.75 2.25 20.0711 2.25 18 Z M 18 15.75 C 16.7574 15.75 15.75 16.7574 15.75 18 C 15.75 19.2426 16.7574 20.25 18 20.25 C 19.2426 20.25 20.25 19.2426 20.25 18 C 20.25 16.7574 19.2426 15.75 18 15.75 Z M 14.25 18 C 14.25 15.9289 15.9289 14.25 18 14.25 C 20.0711 14.25 21.75 15.9289 21.75 18 C 21.75 20.0711 20.0711 21.75 18 21.75 C 15.9289 21.75 14.25 20.0711 14.25 18 Z" fill="#FFFFFF" />
</svg>