<svg xmlns="http://www.w3.org/2000/svg" width="24" height="24" viewBox="0 0 24 24" fill="none">
  <path fill-rule="nonzero" clip-rule="nonzero" d="M 3.70572 1.31034 C 4.08671 1.14781 4.52733 1.32492 4.68985 1.70591 L 4.00025 2.00009 C 4.68985 1.70591 4.6898 1.70577 4.68985 1.70591 L 4.69056 1.70758 L 4.692 1.71095 L 4.69699 1.72277 L 4.71515 1.76624 C 4.73077 1.80387 4.75326 1.85858 4.78163 1.92903 C 4.83837 2.06991 4.91871 2.27389 5.01478 2.53018 C 5.20677 3.04236 5.46236 3.76558 5.71804 4.61316 C 6.19902 6.20758 6.69546 8.29057 6.74582 10.2502 H 17.2542 C 17.3045 8.29057 17.801 6.20758 18.282 4.61316 C 18.5376 3.76558 18.7932 3.04236 18.9852 2.53018 C 19.0813 2.27389 19.1616 2.06991 19.2184 1.92903 C 19.2467 1.85858 19.2692 1.80387 19.2849 1.76624 L 19.303 1.72277 L 19.308 1.71095 L 19.3094 1.70758 L 19.3099 1.70653 C 19.3099 1.70639 19.3101 1.70591 20 2.00019 L 19.3099 1.70653 C 19.4724 1.32553 19.9133 1.14781 20.2943 1.31034 C 20.6752 1.47285 20.8523 1.91336 20.6899 2.29433 L 20.6891 2.29626 L 20.6855 2.30475 L 20.6702 2.34135 C 20.6565 2.37429 20.6361 2.4241 20.6098 2.48943 C 20.5571 2.62011 20.4812 2.81275 20.3898 3.05667 C 20.2068 3.54491 19.9624 4.23647 19.718 5.04637 C 19.2254 6.6794 18.75 8.73952 18.75 10.5716 C 18.75 11.6305 19.1082 12.539 19.656 13.5279 C 19.8445 13.8681 20.0655 14.2317 20.3001 14.6177 C 20.8141 15.4631 21.393 16.4155 21.8363 17.462 C 22.3695 18.7206 22.75 20.1846 22.75 22.0002 C 22.75 22.4144 22.4142 22.7502 22 22.7502 C 21.5858 22.7502 21.25 22.4144 21.25 22.0002 C 21.25 20.5096 20.96 19.3045 20.5413 18.2564 C 15.1471 18.4033 13.0815 21.1273 12.7115 22.2374 C 12.6094 22.5436 12.3228 22.7502 12 22.7502 C 11.6772 22.7502 11.3906 22.5436 11.2885 22.2374 C 10.9185 21.1273 8.85291 18.4033 3.45871 18.2564 C 3.03996 19.3045 2.75 20.5096 2.75 22.0002 C 2.75 22.4144 2.41421 22.7502 2 22.7502 C 1.58579 22.7502 1.25 22.4144 1.25 22.0002 C 1.25 20.1846 1.63049 18.7206 2.16368 17.462 C 2.60702 16.4155 3.18593 15.4631 3.69986 14.6177 C 3.93446 14.2317 4.15551 13.8681 4.34395 13.5279 C 4.89176 12.539 5.25 11.6305 5.25 10.5716 C 5.25 8.73952 4.77458 6.6794 4.28196 5.04637 C 4.03764 4.23647 3.79323 3.54491 3.61022 3.05667 C 3.51878 2.81275 3.44288 2.62011 3.39024 2.48943 C 3.36393 2.4241 3.34345 2.37429 3.32977 2.34135 L 3.31449 2.30475 L 3.3109 2.29626 L 3.31017 2.29452 C 3.14775 1.91356 3.32477 1.47285 3.70572 1.31034 Z M 4.16148 16.7878 C 8.37156 17.0665 10.8303 18.8419 12 20.4377 C 13.1697 18.8419 15.6284 17.0665 19.8385 16.7878 C 19.599 16.3533 19.3479 15.9416 19.0947 15.5265 C 18.8435 15.1147 18.5902 14.6994 18.3439 14.2548 C 18.2513 14.0877 18.1613 13.9184 18.0752 13.7465 C 18.0505 13.7489 18.0254 13.7502 18 13.7502 H 6 C 5.97462 13.7502 5.94953 13.7489 5.9248 13.7465 C 5.8387 13.9184 5.74865 14.0877 5.65608 14.2548 C 5.40979 14.6994 5.15649 15.1147 4.90532 15.5265 C 4.6521 15.9416 4.40103 16.3533 4.16148 16.7878 Z M 6.51666 12.2502 H 17.4833 C 17.4377 12.0869 17.3978 11.9203 17.3645 11.7502 H 6.63547 C 6.60217 11.9203 6.56228 12.0869 6.51666 12.2502 Z" fill="#FFFFFF" />
</svg>