<svg xmlns="http://www.w3.org/2000/svg" width="24" height="24" viewBox="0 0 24 24" fill="none">
  <path fill-rule="nonzero" clip-rule="nonzero" d="M12 22 C6.47715 22 2 17.5228 2 12 C2 6.47715 6.47715 2 12 2 C17.5228 2 22 6.47715 22 12 C22 17.5228 17.5228 22 12 22 Z M 13.5 12 C 13.5 11.1716 12.8284 10.5 12 10.5 C 11.1716 10.5 10.5 11.1716 10.5 12 C 10.5 12.8284 11.1716 13.5 12 13.5 C 12.8284 13.5 13.5 12.8284 13.5 12 Z M12 5.5 C11.1716 5.5 10.5 6.17157 10.5 7 C10.5 7.82843 11.1716 8.5 12 8.5 C12.8284 8.5 13.5 7.82843 13.5 7 C13.5 6.17157 12.8284 5.5 12 5.5 Z M 9.5 9.5 C 9.5 8.67157 8.82843 8 8 8 C 7.17157 8 6.5 8.67157 6.5 9.5 C 6.5 10.3284 7.17157 11 8 11 C 8.82843 11 9.5 10.3284 9.5 9.5 Z" fill="#FFFFFF" />
</svg>