<svg xmlns="http://www.w3.org/2000/svg" width="24" height="24" viewBox="0 0 24 24" fill="none">
  <path fill-rule="nonzero" clip-rule="nonzero" d="M 12 2.75 C 6.89137 2.75 2.75 6.89137 2.75 12 C 2.75 17.1086 6.89137 21.25 12 21.25 C 17.1086 21.25 21.25 17.1086 21.25 12 C 21.25 6.89137 17.1086 2.75 12 2.75 Z M 1.25 12 C 1.25 6.06294 6.06294 1.25 12 1.25 C 17.9371 1.25 22.75 6.06294 22.75 12 C 22.75 17.9371 17.9371 22.75 12 22.75 C 6.06294 22.75 1.25 17.9371 1.25 12 Z M 12 6.25 C 11.5858 6.25 11.25 6.58579 11.25 7 C 11.25 7.41421 11.5858 7.75 12 7.75 C 12.4142 7.75 12.75 7.41421 12.75 7 C 12.75 6.58579 12.4142 6.25 12 6.25 Z M 9.75 7 C 9.75 5.75736 10.7574 4.75 12 4.75 C 13.2426 4.75 14.25 5.75736 14.25 7 C 14.25 8.24264 13.2426 9.25 12 9.25 C 10.7574 9.25 9.75 8.24264 9.75 7 Z M 8 8.75 C 7.58579 8.75 7.25 9.08579 7.25 9.5 C 7.25 9.91421 7.58579 10.25 8 10.25 C 8.41421 10.25 8.75 9.91421 8.75 9.5 C 8.75 9.08579 8.41421 8.75 8 8.75 Z M 5.75 9.5 C 5.75 8.25736 6.75736 7.25 8 7.25 C 9.24264 7.25 10.25 8.25736 10.25 9.5 C 10.25 10.7426 9.24264 11.75 8 11.75 C 6.75736 11.75 5.75 10.7426 5.75 9.5 Z M 12 11.25 C 11.5858 11.25 11.25 11.5858 11.25 12 C 11.25 12.4142 11.5858 12.75 12 12.75 C 12.4142 12.75 12.75 12.4142 12.75 12 C 12.75 11.5858 12.4142 11.25 12 11.25 Z M 9.75 12 C 9.75 10.7574 10.7574 9.75 12 9.75 C 13.2426 9.75 14.25 10.7574 14.25 12 C 14.25 13.2426 13.2426 14.25 12 14.25 C 10.7574 14.25 9.75 13.2426 9.75 12 Z" fill="#FFFFFF" />
</svg>