<svg xmlns="http://www.w3.org/2000/svg" width="24" height="24" viewBox="0 0 24 24" fill="none">
  <path fill-rule="nonzero" clip-rule="nonzero" d="M4.2915 15.3036 L3.19028 14.2024 C2.50414 13.5163 2.16107 13.1732 2.05306 12.7701 C1.98231 12.5061 1.98231 12.2281 2.05306 11.964 C2.16107 11.5609 2.50414 11.2179 3.19028 10.5317 C3.87642 9.84557 4.21949 9.5025 4.62257 9.3945 C4.88662 9.32374 5.16466 9.32374 5.42871 9.3945 C5.83179 9.5025 6.17486 9.84557 6.861 10.5317 L7.96221 11.6329 L12.3671 16.0378 L13.4683 17.139 C14.1544 17.8251 14.4975 18.1682 14.6055 18.5713 C14.6763 18.8353 14.6763 19.1134 14.6055 19.3774 C14.4975 19.7805 14.1544 20.1236 13.4683 20.8097 C12.7821 21.4959 12.4391 21.8389 12.036 21.9469 C11.7719 22.0177 11.4939 22.0177 11.2299 21.9469 C10.8268 21.8389 10.4837 21.4959 9.79757 20.8097 L9.06343 20.0756 L8.69636 19.7085 L4.2915 15.3036 Z M 16.0378 12.3671 L 11.6329 7.96221 L 10.5317 6.861 C 9.84557 6.17486 9.5025 5.83178 9.3945 5.42871 C 9.32374 5.16465 9.32374 4.88662 9.3945 4.62257 C 9.5025 4.21949 9.84557 3.87642 10.5317 3.19028 C 11.2179 2.50414 11.5609 2.16107 11.964 2.05307 C 12.2281 1.98231 12.5061 1.98231 12.7701 2.05307 C 13.1732 2.16107 13.5163 2.50414 14.2024 3.19028 L 15.3036 4.2915 L 19.7046 8.70027 L 20.0756 9.06343 L 20.8097 9.79757 C 21.4959 10.4837 21.8389 10.8268 21.9469 11.2299 C 22.0177 11.4939 22.0177 11.7719 21.9469 12.036 C 21.8389 12.4391 21.4959 12.7821 20.8097 13.4683 C 20.1236 14.1544 19.7805 14.4975 19.3774 14.6055 C 19.1134 14.6763 18.8353 14.6763 18.5713 14.6055 C 18.1682 14.4975 17.8251 14.1544 17.139 13.4683 L 16.0378 12.3671 Z" fill="#FFFFFF" />
  <path opacity="0.5" d="M18.6077 3.92398L20.076 5.39226L20.2017 5.51809C20.8101 6.12801 21.1143 6.45738 21.1143 6.86055C21.1143 7.2906 20.7682 7.63668 20.076 8.32884L19.705 8.69982L15.3041 4.29105L15.6712 3.92398C16.3633 3.23182 16.7094 2.88574 17.1394 2.88574C17.5695 2.88574 17.9156 3.23182 18.6077 3.92398Z" fill="#FFFFFF" />
  <path opacity="0.5" d="M5.39264 20.0756L3.92436 18.6074C3.2322 17.9152 2.88612 17.5691 2.88612 17.1391C2.88612 16.709 3.2322 16.3629 3.92436 15.6708L4.29143 15.3037L8.69629 19.7086L8.32922 20.0756C7.63706 20.7678 7.29098 21.1139 6.86093 21.1139C6.43088 21.1139 6.0848 20.7678 5.39264 20.0756Z" fill="#FFFFFF" />
  <path opacity="0.5" d="M16.0371 12.3668L12.3664 16.0375L7.96153 11.6326L11.6323 7.96191L16.0371 12.3668Z" fill="#FFFFFF" />
</svg>