<svg xmlns="http://www.w3.org/2000/svg" width="24" height="24" viewBox="0 0 24 24" fill="none">
  <path fill-rule="nonzero" clip-rule="nonzero" d="M 17.4161 6.25006 C 17.4438 6.25009 17.4718 6.25012 17.5 6.25012 C 17.5282 6.25012 17.5562 6.25009 17.5839 6.25006 C 17.9647 6.24965 18.2932 6.24931 18.5823 6.32678 C 19.3588 6.53483 19.9653 7.14132 20.1733 7.91777 L 19.4714 8.10585 L 20.1733 7.91777 C 20.2508 8.20692 20.2505 8.53545 20.2501 8.91624 C 20.25 8.94392 20.25 8.97188 20.25 9.00012 V 9.26133 C 21.6516 9.38764 22.75 10.5656 22.75 12.0001 C 22.75 13.4346 21.6516 14.6126 20.25 14.7389 V 15.0001 C 20.25 15.0284 20.25 15.0563 20.2501 15.084 C 20.2505 15.4648 20.2508 15.7933 20.1733 16.0825 C 19.9653 16.8589 19.3588 17.4654 18.5823 17.6735 C 18.2932 17.7509 17.9647 17.7506 17.5839 17.7502 C 17.5562 17.7501 17.5282 17.7501 17.5 17.7501 C 17.4718 17.7501 17.4438 17.7501 17.4161 17.7502 C 17.0353 17.7506 16.7068 17.7509 16.4177 17.6735 C 15.6412 17.4654 15.0347 16.8589 14.8267 16.0825 C 14.7492 15.7933 14.7495 15.4648 14.7499 15.084 C 14.75 15.0563 14.75 15.0284 14.75 15.0001 V 12.7501 H 9.25 V 15.0001 C 9.25 15.0284 9.25003 15.0563 9.25006 15.084 C 9.25046 15.4648 9.25081 15.7933 9.17333 16.0825 C 8.96528 16.8589 8.3588 17.4654 7.58234 17.6735 C 7.2932 17.7509 6.96467 17.7506 6.58388 17.7502 C 6.5562 17.7501 6.52824 17.7501 6.5 17.7501 C 6.47176 17.7501 6.4438 17.7501 6.41612 17.7502 C 6.03533 17.7506 5.7068 17.7509 5.41766 17.6735 C 4.6412 17.4654 4.03472 16.8589 3.82667 16.0825 C 3.74919 15.7933 3.74954 15.4648 3.74994 15.084 C 3.74997 15.0563 3.75 15.0284 3.75 15.0001 V 14.7389 C 2.34837 14.6126 1.25 13.4346 1.25 12.0001 C 1.25 10.5656 2.34837 9.38764 3.75 9.26133 V 9.00012 C 3.75 8.97188 3.74997 8.94392 3.74994 8.91623 C 3.74954 8.53544 3.74919 8.20692 3.82667 7.91777 C 4.03472 7.14132 4.6412 6.53483 5.41766 6.32678 C 5.7068 6.24931 6.03533 6.24966 6.41612 6.25006 C 6.4438 6.25009 6.47176 6.25012 6.5 6.25012 C 6.52824 6.25012 6.5562 6.25009 6.58388 6.25006 C 6.96467 6.24966 7.2932 6.24931 7.58234 6.32678 C 8.3588 6.53483 8.96528 7.14132 9.17333 7.91777 C 9.25081 8.20692 9.25046 8.53544 9.25006 8.91623 C 9.25003 8.94392 9.25 8.97188 9.25 9.00012 V 11.2501 H 14.75 V 9.00012 C 14.75 8.97188 14.75 8.94392 14.7499 8.91623 C 14.7495 8.53544 14.7492 8.20692 14.8267 7.91777 C 15.0347 7.14132 15.6412 6.53483 16.4177 6.32678 C 16.7068 6.24931 17.0353 6.24965 17.4161 6.25006 Z M 3.75 10.7751 C 3.17944 10.8909 2.75 11.3954 2.75 12.0001 C 2.75 12.6049 3.17944 13.1093 3.75 13.2251 V 10.7751 Z M 20.25 13.2251 C 20.8206 13.1093 21.25 12.6049 21.25 12.0001 C 21.25 11.3954 20.8206 10.8909 20.25 10.7751 V 13.2251 Z M 17.5 7.75012 C 16.9867 7.75012 16.8772 7.75656 16.8059 7.77567 C 16.5471 7.84502 16.3449 8.04718 16.2756 8.306 L 15.5511 8.11189 L 16.2756 8.306 C 16.2564 8.37734 16.25 8.48684 16.25 9.00012 V 15.0001 C 16.25 15.5134 16.2564 15.6229 16.2756 15.6942 C 16.3449 15.9531 16.5471 16.1552 16.8059 16.2246 C 16.8772 16.2437 16.9867 16.2501 17.5 16.2501 C 18.0133 16.2501 18.1228 16.2437 18.1941 16.2246 C 18.4529 16.1552 18.6551 15.9531 18.7244 15.6942 C 18.7436 15.6229 18.75 15.5134 18.75 15.0001 V 9.00012 C 18.75 8.48684 18.7436 8.37734 18.7244 8.306 C 18.6551 8.04718 18.4529 7.84502 18.1941 7.77567 C 18.1228 7.75656 18.0133 7.75012 17.5 7.75012 Z M 6.5 7.75012 C 5.98673 7.75012 5.87722 7.75656 5.80589 7.77567 C 5.54707 7.84502 5.34491 8.04718 5.27556 8.306 L 5.27556 8.306 C 5.25644 8.37734 5.25 8.48684 5.25 9.00012 L 5.25 15.0001 C 5.25 15.5134 5.25644 15.6229 5.27556 15.6942 C 5.34491 15.9531 5.54707 16.1552 5.80589 16.2246 L 5.61177 16.949 L 5.80589 16.2246 C 5.87722 16.2437 5.98673 16.2501 6.5 16.2501 C 7.01327 16.2501 7.12278 16.2437 7.19411 16.2246 L 7.38823 16.949 L 7.19411 16.2246 C 7.45293 16.1552 7.65509 15.9531 7.72444 15.6942 C 7.74356 15.6229 7.75 15.5134 7.75 15.0001 V 9.00012 C 7.75 8.48685 7.74356 8.37734 7.72444 8.306 C 7.65509 8.04718 7.45293 7.84502 7.19411 7.77567 C 7.12278 7.75656 7.01327 7.75012 6.5 7.75012 Z" fill="#FFFFFF" />
</svg>