<svg xmlns="http://www.w3.org/2000/svg" width="24" height="24" viewBox="0 0 24 24" fill="none">
  <path fill-rule="nonzero" clip-rule="nonzero" d="M 2.78199 11.2247 L 3.17811 10.9628 C 3.77244 10.57 4.16501 10.3091 4.44321 10.0759 C 4.70659 9.855 4.80654 9.70729 4.85896 9.56902 C 4.9114 9.43069 4.93452 9.25362 4.88378 8.91324 C 4.83021 8.55381 4.70933 8.09777 4.52501 7.40909 L 4.35773 6.78408 C 3.48023 8.06855 2.9178 9.58592 2.78199 11.2247 Z M 5.53164 5.38427 C 5.54096 5.40862 5.54911 5.43368 5.556 5.45942 L 5.98476 7.06144 C 6.15548 7.69921 6.29973 8.23811 6.3674 8.69211 C 6.40211 8.92503 6.41975 9.15288 6.40887 9.37862 L 8.90873 10.4321 C 8.96485 10.3754 9.02531 10.322 9.08995 10.2726 L 10.9265 8.86802 C 11.025 8.79263 11.1297 8.72909 11.2385 8.6774 V 5.96784 C 11.0301 5.89602 10.8296 5.79841 10.6306 5.68392 C 10.233 5.45513 9.78446 5.12398 9.25371 4.73217 L 7.87565 3.71494 C 7.00795 4.14758 6.21779 4.71286 5.53164 5.38427 Z M 9.53929 3.07858 L 10.111 3.50061 C 10.6843 3.92375 11.0642 4.20276 11.3788 4.38379 C 11.6767 4.5552 11.8494 4.59806 11.9966 4.59965 C 12.1438 4.60125 12.3174 4.56214 12.6189 4.39721 C 12.9373 4.22303 13.3231 3.9523 13.9054 3.54166 L 14.5266 3.1035 C 13.7201 2.87326 12.8687 2.75 11.9885 2.75 C 11.1406 2.75 10.3193 2.86438 9.53929 3.07858 Z M 16.1849 3.75719 C 16.156 3.78563 16.1245 3.81211 16.0903 3.83623 L 14.7359 4.79146 C 14.1968 5.1717 13.7412 5.49307 13.3387 5.7132 C 13.1416 5.82099 12.9435 5.9126 12.7385 5.97954 V 8.6774 C 12.8472 8.72909 12.9519 8.79263 13.0504 8.86802 L 14.887 10.2726 C 14.9527 10.3229 15.0142 10.3773 15.0711 10.4351 L 17.6319 9.37469 C 17.6214 9.15027 17.6391 8.92375 17.6736 8.6922 C 17.7412 8.23821 17.8855 7.6993 18.0562 7.06152 L 18.485 5.45951 C 18.4875 5.45005 18.4902 5.44067 18.4931 5.4314 C 17.8179 4.76108 17.0399 4.19442 16.1849 3.75719 Z M 19.6651 6.85194 L 19.516 7.40918 C 19.3316 8.09787 19.2108 8.5539 19.1572 8.91333 C 19.1065 9.25372 19.1296 9.43078 19.182 9.56911 C 19.2344 9.70739 19.3344 9.85509 19.5978 10.0759 C 19.876 10.3092 20.2685 10.5701 20.8629 10.9629 L 21.1911 11.1799 C 21.0514 9.58702 20.5084 8.11008 19.6651 6.85194 Z M22.7195 12.402 C22.7678 12.5665 22.7598 12.7465 22.6889 12.9104 C22.2273 18.4207 17.6136 22.75 11.9885 22.75 C6.05695 22.75 1.25 17.9362 1.25 12 C1.25 6.06376 6.05695 1.25 11.9885 1.25 C17.92 1.25 22.7269 6.06376 22.7269 12 C22.7269 12.1346 22.7244 12.2686 22.7195 12.402 Z M 21.1769 12.9686 L 20.001 12.1913 C 19.4507 11.8276 18.9855 11.5201 18.634 11.2253 C 18.4652 11.0839 18.3106 10.9358 18.1756 10.7731 L 15.5633 11.8548 C 15.5513 11.9636 15.529 12.0722 15.4959 12.1794 L 14.7746 14.5164 C 14.7495 14.5978 14.7188 14.6764 14.683 14.7517 L 16.1511 16.4498 C 16.3756 16.3748 16.6105 16.3301 16.8555 16.302 C 17.3112 16.25 17.8686 16.25 18.528 16.25 H 20.1847 C 20.1886 16.25 20.1924 16.25 20.1962 16.2501 C 20.7142 15.2492 21.055 14.1415 21.1769 12.9686 Z M 19.2256 17.75 H 18.5696 C 17.8574 17.75 17.3863 17.7511 17.0258 17.7923 C 16.6846 17.8313 16.5201 17.8994 16.4006 17.9857 C 16.2809 18.072 16.1643 18.2069 16.0193 18.5189 C 15.8662 18.8484 15.7161 19.2956 15.4909 19.972 L 15.2647 20.6515 C 16.834 20.0554 18.1991 19.0434 19.2256 17.75 Z M 13.5269 21.1223 L 14.0808 19.4587 C 14.2894 18.8323 14.4656 18.303 14.659 17.8868 C 14.746 17.6995 14.8419 17.5226 14.9542 17.3589 L 13.5198 15.6998 C 13.3857 15.7327 13.2462 15.75 13.1036 15.75 H 10.8733 C 10.741 15.75 10.6114 15.7351 10.4863 15.7067 L 9.20983 17.3323 C 9.33009 17.5034 9.43168 17.6893 9.52346 17.8868 C 9.71686 18.303 9.89306 18.8323 10.1016 19.4587 L 10.6667 21.156 C 11.0984 21.218 11.5397 21.25 11.9885 21.25 C 12.5126 21.25 13.0266 21.2063 13.5269 21.1223 Z M 8.94614 20.7367 L 8.69154 19.972 C 8.46634 19.2956 8.31624 18.8484 8.16314 18.5189 C 8.01815 18.2069 7.90148 18.072 7.78185 17.9857 C 7.66228 17.8994 7.49784 17.8313 7.15658 17.7923 C 6.79611 17.7511 6.325 17.75 5.61279 17.75 H 4.75133 C 5.8285 19.1073 7.2785 20.1546 8.94614 20.7367 Z M 3.79507 16.2777 C 3.85952 16.2597 3.92748 16.25 3.99769 16.25 H 5.65443 C 6.31385 16.25 6.87124 16.25 7.32692 16.302 C 7.56165 16.3289 7.78702 16.371 8.00291 16.4405 L 9.30734 14.7793 C 9.26578 14.6956 9.23053 14.6078 9.20232 14.5164 L 8.48098 12.1794 C 8.44751 12.071 8.42506 11.9611 8.41316 11.851 L 5.86271 10.7762 C 5.72828 10.9376 5.57461 11.0847 5.407 11.2252 C 5.05544 11.52 4.59031 11.8275 4.03997 12.1912 L 2.80423 13.0081 C 2.93076 14.1772 3.27484 15.2808 3.79507 16.2777 Z M 11.9885 10.0084 C 11.935 10.0084 11.8824 10.0253 11.8377 10.0595 L 10.0012 11.4641 C 9.95905 11.4963 9.9294 11.5399 9.91426 11.589 C 9.89961 11.6364 9.89899 11.6876 9.91426 11.737 L 10.6356 14.074 C 10.651 14.1241 10.6807 14.166 10.7197 14.1967 C 10.7629 14.2308 10.8162 14.25 10.8733 14.25 H 13.1036 C 13.1607 14.25 13.214 14.2308 13.2572 14.1967 C 13.2962 14.166 13.3259 14.1241 13.3413 14.074 L 14.0626 11.737 C 14.0779 11.6876 14.0773 11.6364 14.0627 11.589 C 14.0475 11.5399 14.0179 11.4963 13.9757 11.4641 L 12.1392 10.0595 C 12.0945 10.0253 12.0419 10.0084 11.9885 10.0084 Z" fill="#FFFFFF" />
</svg>