<svg xmlns="http://www.w3.org/2000/svg" width="24" height="24" viewBox="0 0 24 24" fill="none">
  <path fill-rule="nonzero" clip-rule="nonzero" d="M 12 1.25 C 12.4142 1.25 12.75 1.58579 12.75 2 V 3.03654 L 17.8117 5.56732 C 18.5461 5.93447 19.1721 6.24743 19.6077 6.55149 C 20.0495 6.85982 20.5139 7.3075 20.5139 8 C 20.5139 8.6925 20.0495 9.14018 19.6077 9.44851 C 19.1721 9.75257 18.5461 10.0655 17.8116 10.4327 L 12.75 12.9635 V 14.2595 C 15.2793 14.3234 17.5807 14.7089 19.3188 15.3172 C 20.2696 15.65 21.0925 16.0635 21.6923 16.5598 C 22.2874 17.0522 22.75 17.7041 22.75 18.5 C 22.75 19.2959 22.2874 19.9478 21.6923 20.4402 C 21.0925 20.9365 20.2696 21.35 19.3188 21.6828 C 17.4104 22.3507 14.8228 22.75 12 22.75 C 9.17724 22.75 6.58961 22.3507 4.68117 21.6828 C 3.73041 21.35 2.90754 20.9365 2.30771 20.4402 C 1.71264 19.9478 1.25 19.2959 1.25 18.5 C 1.25 17.7041 1.71264 17.0522 2.30771 16.5598 C 2.90754 16.0635 3.73041 15.65 4.68117 15.3172 C 6.41925 14.7089 8.72068 14.3234 11.25 14.2595 V 12.5216 C 11.2496 12.5076 11.2496 12.4935 11.25 12.4796 V 3.52045 C 11.2496 3.50646 11.2496 3.49244 11.25 3.4784 V 2 C 11.25 1.58579 11.5858 1.25 12 1.25 Z M 12.75 4.71358 V 11.2864 L 17.0868 9.11804 C 17.8902 8.71635 18.415 8.45177 18.7492 8.21847 C 18.9074 8.10809 18.9756 8.03693 19.0033 8 C 18.9756 7.96307 18.9074 7.89191 18.7492 7.78153 C 18.415 7.54823 17.8902 7.28365 17.0868 6.88196 L 12.75 4.71358 Z M19.0205 8.03071 C19.0213 8.0308 19.0205 8.02676 19.0156 8.01836 C19.0173 8.02644 19.0197 8.03063 19.0205 8.03071 Z M19.0156 7.98164 C19.0205 7.97324 19.0213 7.96921 19.0205 7.96929 C19.0197 7.96937 19.0173 7.97356 19.0156 7.98164 Z M 11.25 15.76 C 8.85463 15.8238 6.72746 16.1903 5.17669 16.733 C 4.31781 17.0336 3.67621 17.3744 3.26399 17.7155 C 2.847 18.0605 2.75 18.3294 2.75 18.5 C 2.75 18.6706 2.847 18.9395 3.26399 19.2845 C 3.67621 19.6256 4.31781 19.9664 5.17669 20.267 C 6.88754 20.8658 9.29991 21.25 12 21.25 C 14.7001 21.25 17.1125 20.8658 18.8233 20.267 C 19.6822 19.9664 20.3238 19.6256 20.736 19.2845 C 21.153 18.9395 21.25 18.6706 21.25 18.5 C 21.25 18.3294 21.153 18.0605 20.736 17.7155 C 20.3238 17.3744 19.6822 17.0336 18.8233 16.733 C 17.2725 16.1903 15.1454 15.8238 12.75 15.76 V 18 C 12.75 18.4142 12.4142 18.75 12 18.75 C 11.5858 18.75 11.25 18.4142 11.25 18 V 15.76 Z" fill="#FFFFFF" />
</svg>