<svg xmlns="http://www.w3.org/2000/svg" width="24" height="24" viewBox="0 0 24 24" fill="none">
  <path d="M14 5.5C14 6.88071 12.8807 8 11.5 8C10.1193 8 9.00004 6.88071 9.00004 5.5C9.00004 4.11929 10.1193 3 11.5 3C12.8807 3 14 4.11929 14 5.5Z" fill="#FFFFFF" />
  <path fill-rule="nonzero" clip-rule="nonzero" d="M 19 6.25 C 19.4143 6.25 19.75 6.58579 19.75 7 V 21 C 19.75 21.4142 19.4143 21.75 19 21.75 C 18.5858 21.75 18.25 21.4142 18.25 21 V 10.9941 C 16.5565 11.9799 14.456 12.0665 12.6646 11.1708 C 12.6474 11.1622 12.6306 11.153 12.6141 11.1431 C 11.9234 10.7287 11.0363 11.1741 10.9562 11.9756 L 10.8876 12.6617 C 10.8294 13.243 11.1062 13.807 11.6016 14.1166 L 11.9349 14.3249 C 13.6853 15.4188 14.8215 17.2701 15.0044 19.3261 L 15.1474 20.9335 C 15.1842 21.3461 14.8795 21.7103 14.4669 21.747 C 14.0543 21.7838 13.6901 21.479 13.6534 21.0665 L 13.5103 19.4591 C 13.3691 17.8713 12.4916 16.4417 11.1399 15.5969 L 10.8066 15.3886 C 9.82727 14.7765 9.2801 13.6616 9.39502 12.5125 L 9.46363 11.8264 C 9.65218 9.9409 11.7282 8.88835 13.3582 9.84044 C 14.9095 10.605 16.7667 10.3848 18.0966 9.27658 L 18.25 9.14869 V 7 C 18.25 6.58579 18.5858 6.25 19 6.25 Z M 9.19069 15.7746 C 9.59129 15.8799 9.83069 16.29 9.7254 16.6906 L 9.00004 16.5 C 9.7254 16.6906 9.7254 16.6906 9.7254 16.6906 L 9.72479 16.693 L 9.72356 16.6976 L 9.71923 16.7137 L 9.70334 16.7718 C 9.68959 16.8213 9.66959 16.892 9.64388 16.9791 C 9.59255 17.153 9.51791 17.3942 9.4242 17.665 C 9.24256 18.1898 8.9684 18.8881 8.62825 19.4097 C 8.27086 19.9577 7.70978 20.5113 7.2771 20.903 C 7.05385 21.1051 6.85091 21.2763 6.70355 21.3973 C 6.62971 21.4579 6.56943 21.5062 6.52703 21.5398 L 6.4773 21.579 L 6.46344 21.5897 L 6.45819 21.5938 C 6.45819 21.5938 6.45745 21.5944 6.00004 21 L 6.45819 21.5938 C 6.12993 21.8464 5.65829 21.7857 5.40567 21.4574 C 5.1531 21.1292 5.21434 20.6585 5.54242 20.4058 L 5.54468 20.404 L 5.55444 20.3964 L 5.59542 20.3642 C 5.63176 20.3354 5.6853 20.2925 5.75182 20.2379 C 5.88518 20.1284 6.0691 19.9732 6.27043 19.7909 C 6.6869 19.4139 7.12582 18.9675 7.37183 18.5903 C 7.60608 18.2311 7.83192 17.6794 8.00669 17.1744 C 8.09118 16.9303 8.15883 16.7117 8.20525 16.5544 C 8.22841 16.476 8.24615 16.4133 8.25792 16.3708 L 8.271 16.3231 L 8.27404 16.3117 L 8.27466 16.3094 C 8.38005 15.9089 8.79015 15.6694 9.19069 15.7746 Z" fill="#FFFFFF" />
</svg>