<svg xmlns="http://www.w3.org/2000/svg" width="24" height="24" viewBox="0 0 24 24" fill="none">
  <path fill-rule="nonzero" clip-rule="nonzero" d="M 11.5 2.75 C 10.5335 2.75 9.75002 3.5335 9.75002 4.5 C 9.75002 5.4665 10.5335 6.25 11.5 6.25 C 12.4665 6.25 13.25 5.4665 13.25 4.5 C 13.25 3.5335 12.4665 2.75 11.5 2.75 Z M 8.25002 4.5 C 8.25002 2.70507 9.70509 1.25 11.5 1.25 C 13.2949 1.25 14.75 2.70507 14.75 4.5 C 14.75 6.29493 13.2949 7.75 11.5 7.75 C 9.70509 7.75 8.25002 6.29493 8.25002 4.5 Z M 19 7.25 C 19.4142 7.25 19.75 7.58579 19.75 8 V 10.4943 C 19.75 10.4978 19.75 10.5014 19.75 10.5049 V 22 C 19.75 22.4142 19.4142 22.75 19 22.75 C 18.5858 22.75 18.25 22.4142 18.25 22 V 11.9941 C 16.5565 12.9799 14.456 13.0665 12.6646 12.1708 C 12.6474 12.1622 12.6306 12.153 12.6142 12.1431 C 11.9234 11.7287 11.0363 12.1741 10.9562 12.9756 L 10.8876 13.6617 C 10.8295 14.243 11.1062 14.807 11.6016 15.1166 L 11.9349 15.3249 C 13.6853 16.4188 14.8215 18.2701 15.0044 20.3261 L 15.1475 21.9335 C 15.1842 22.3461 14.8795 22.7103 14.4669 22.747 C 14.0543 22.7838 13.6901 22.4791 13.6534 22.0665 L 13.5103 20.4591 C 13.3691 18.8713 12.4916 17.4417 11.1399 16.5969 L 10.8066 16.3886 C 9.82728 15.7765 9.28011 14.6616 9.39503 13.5125 L 9.46364 12.8264 C 9.65219 10.9409 11.7282 9.88835 13.3582 10.8404 C 14.9095 11.605 16.7667 11.3848 18.0966 10.2766 L 18.25 10.1487 V 8 C 18.25 7.58579 18.5858 7.25 19 7.25 Z M 9.74866 9.95495 C 9.77355 10.3684 9.45854 10.7238 9.04507 10.7486 L 6.65647 10.8924 C 6.24345 10.9172 5.89088 11.2045 5.78305 11.608 C 5.68811 11.9632 5.80172 12.3411 6.07521 12.5843 L 8.162 14.4395 C 8.47157 14.7147 8.49942 15.1887 8.22421 15.4983 C 7.949 15.8079 7.47494 15.8357 7.16538 15.5605 L 5.07859 13.7053 C 4.38057 13.0848 4.09278 12.1229 4.33391 11.2207 C 4.60798 10.1952 5.50649 9.45887 6.56637 9.39509 L 8.95497 9.25135 C 9.36843 9.22647 9.72378 9.54148 9.74866 9.95495 Z M 9.19067 16.7746 C 9.59128 16.8799 9.83068 17.29 9.72538 17.6907 L 9.00002 17.5 C 9.72538 17.6907 9.7254 17.6906 9.72538 17.6907 L 9.72477 17.693 L 9.72354 17.6976 L 9.71921 17.7137 L 9.70332 17.7718 C 9.68957 17.8213 9.66957 17.892 9.64386 17.9791 C 9.59254 18.153 9.51789 18.3942 9.42418 18.665 C 9.24254 19.1898 8.96838 19.8881 8.62823 20.4097 C 8.27084 20.9577 7.70977 21.5113 7.27708 21.903 C 7.05383 22.1051 6.8509 22.2763 6.70353 22.3973 C 6.62969 22.4579 6.56941 22.5062 6.52702 22.5398 L 6.47728 22.579 L 6.46342 22.5897 L 6.45942 22.5928 L 6.45817 22.5938 C 6.4581 22.5939 6.45743 22.5944 6.01315 22.0171 L 6.45817 22.5938 C 6.12991 22.8464 5.65827 22.7857 5.40565 22.4574 C 5.15308 22.1292 5.21432 21.6584 5.5424 21.4058 C 5.54238 21.4058 5.54243 21.4058 5.5424 21.4058 L 5.54467 21.404 L 5.55442 21.3964 L 5.5954 21.3642 C 5.63174 21.3354 5.68528 21.2925 5.7518 21.2379 C 5.88516 21.1284 6.06908 20.9732 6.27041 20.7909 C 6.68688 20.4139 7.1258 19.9675 7.37181 19.5903 C 7.60607 19.2311 7.8319 18.6794 8.00667 18.1744 C 8.09116 17.9303 8.15881 17.7117 8.20523 17.5544 C 8.22839 17.476 8.24613 17.4133 8.2579 17.3708 L 8.27098 17.3231 L 8.27402 17.3117 L 8.27464 17.3094 C 8.27463 17.3094 8.27465 17.3094 8.27464 17.3094 C 8.38003 16.9089 8.79014 16.6694 9.19067 16.7746 Z" fill="#FFFFFF" />
</svg>