<svg xmlns="http://www.w3.org/2000/svg" width="24" height="24" viewBox="0 0 24 24" fill="none">
  <path d="M14.5002 4.5C14.5002 5.88071 13.3809 7 12.0002 7C10.6195 7 9.5002 5.88071 9.5002 4.5C9.5002 3.11929 10.6195 2 12.0002 2C13.3809 2 14.5002 3.11929 14.5002 4.5Z" fill="#FFFFFF" />
  <path fill-rule="nonzero" clip-rule="nonzero" d="M 12.0002 9.7706 C 11.644 9.77062 11.3211 9.7911 11.1392 9.82194 L 10.2476 9.97209 C 8.23506 10.311 6.7502 12.0736 6.7502 14.1502 C 6.7502 15.231 6.2157 16.2435 5.32068 16.8464 L 5.21944 16.9146 C 4.96467 17.0862 4.6882 17.2229 4.3973 17.3208 L 3.2396 17.7108 C 2.84706 17.843 2.42165 17.6319 2.28944 17.2394 C 2.15722 16.8469 2.36826 16.4215 2.76081 16.2892 L 3.9185 15.8993 C 4.08198 15.8442 4.23766 15.7673 4.3814 15.6705 L 4.48263 15.6023 C 4.96024 15.2806 5.2502 14.7364 5.2502 14.1502 C 5.2502 11.3526 7.25281 8.95532 9.99849 8.49292 L 10.8885 8.34304 C 11.1929 8.29148 11.6133 8.27062 12.0002 8.2706 C 12.3869 8.27058 12.8071 8.29133 13.1116 8.34299 L 14.0019 8.49292 C 16.7476 8.95532 18.7502 11.3526 18.7502 14.1502 C 18.7502 14.7364 19.0402 15.2806 19.5178 15.6023 L 19.619 15.6705 C 19.7627 15.7673 19.9184 15.8442 20.0819 15.8993 L 21.2396 16.2892 C 21.6321 16.4215 21.8432 16.8469 21.711 17.2394 C 21.5788 17.6319 21.1534 17.843 20.7608 17.7108 L 19.6031 17.3208 C 19.3122 17.2229 19.0357 17.0862 18.781 16.9146 L 18.6797 16.8464 C 17.7847 16.2435 17.2502 15.231 17.2502 14.1502 C 17.2502 12.0736 15.7653 10.311 13.7528 9.97209 L 12.861 9.82191 C 12.6793 9.79104 12.3565 9.77059 12.0002 9.7706 Z M 8.9002 15.55 C 9.14873 15.2186 9.61883 15.1515 9.9502 15.4 C 10.2816 15.6485 10.3487 16.1186 10.1002 16.45 L 9.1757 17.6827 C 9.16835 17.6925 9.1611 17.7021 9.15394 17.7117 C 9.02751 17.8804 8.92809 18.013 8.81354 18.1328 C 8.5317 18.4274 8.18788 18.6557 7.80696 18.8011 C 7.65212 18.8602 7.4913 18.9004 7.28679 18.9514 C 7.2752 18.9543 7.26346 18.9573 7.25159 18.9602 L 5.45817 19.4086 C 5.04209 19.5126 4.7502 19.8865 4.7502 20.3153 C 4.7502 20.8315 5.16866 21.25 5.68486 21.25 H 6.36862 C 7.91453 21.25 9.41874 20.7486 10.6555 19.8211 L 12.5502 18.4 C 12.8816 18.1515 13.3517 18.2186 13.6002 18.55 C 13.8487 18.8814 13.7816 19.3515 13.4502 19.6 L 12.5455 20.2785 L 13.0373 20.4629 C 13.5712 20.6631 13.812 20.7531 14.0539 20.8288 C 14.7821 21.0564 15.5357 21.193 16.2975 21.2356 C 16.5505 21.2497 16.8076 21.25 17.3778 21.25 H 18.3155 C 18.8317 21.25 19.2502 20.8315 19.2502 20.3153 C 19.2502 19.8865 18.9583 19.5126 18.5422 19.4086 L 17.0686 19.0402 C 17.041 19.0333 17.0138 19.0265 16.9868 19.0198 C 16.5112 18.9012 16.1359 18.8077 15.8005 18.6143 C 15.7002 18.5565 15.6037 18.4924 15.5116 18.4224 C 15.2032 18.1884 14.9713 17.8788 14.6775 17.4864 C 14.6608 17.4642 14.644 17.4417 14.6269 17.4189 L 13.9002 16.45 C 13.6517 16.1186 13.7188 15.6485 14.0502 15.4 C 14.3816 15.1515 14.8517 15.2186 15.1002 15.55 L 15.8269 16.5189 C 16.1954 17.0103 16.2984 17.1365 16.4184 17.2276 C 16.4603 17.2594 16.5042 17.2885 16.5498 17.3148 C 16.6803 17.3901 16.8366 17.436 17.4325 17.585 L 18.906 17.9534 C 19.9899 18.2243 20.7502 19.1982 20.7502 20.3153 C 20.7502 21.66 19.6602 22.75 18.3155 22.75 H 17.3526 C 16.8141 22.75 16.5135 22.75 16.2138 22.7333 C 15.3285 22.6838 14.4527 22.525 13.6064 22.2605 C 13.3199 22.1709 13.0384 22.0653 12.5342 21.8762 L 11.1018 21.3391 C 9.69826 22.2575 8.05392 22.75 6.36862 22.75 H 5.68486 C 4.34024 22.75 3.2502 21.66 3.2502 20.3153 C 3.2502 19.1982 4.01054 18.2243 5.09437 17.9534 L 6.88778 17.505 C 7.14347 17.4411 7.21177 17.4227 7.27203 17.3997 C 7.44517 17.3337 7.60146 17.2299 7.72956 17.096 C 7.77414 17.0493 7.81756 16.9935 7.9757 16.7827 L 8.9002 15.55 Z" fill="#FFFFFF" />
</svg>