<svg xmlns="http://www.w3.org/2000/svg" width="24" height="24" viewBox="0 0 24 24" fill="none">
  <path fill-rule="nonzero" clip-rule="nonzero" d="M 12 3.03449 C 11.9419 3.13513 11.8772 3.25103 11.801 3.38769 L 11.7027 3.56405 C 11.6958 3.5765 11.6884 3.59009 11.6804 3.60466 C 11.6019 3.74827 11.4718 3.9861 11.255 4.15071 C 11.0336 4.31877 10.7673 4.37659 10.6116 4.4104 C 10.596 4.41379 10.5815 4.41693 10.5683 4.41992 L 10.3774 4.46312 C 10.2022 4.50275 10.0595 4.53509 9.9375 4.56575 C 10.0169 4.66345 10.1199 4.78474 10.254 4.94154 L 10.3842 5.09372 C 10.3934 5.10452 10.4035 5.11609 10.4141 5.1284 C 10.5221 5.25273 10.6963 5.45346 10.7769 5.71261 C 10.8566 5.96869 10.8291 6.23243 10.8118 6.39882 C 10.81 6.41542 10.8084 6.43105 10.807 6.4456 L 10.7873 6.64866 C 10.7691 6.83692 10.7549 6.98718 10.7455 7.10937 C 10.8497 7.06347 10.9682 7.00894 11.109 6.9441 L 11.2878 6.8618 C 11.3001 6.85613 11.3136 6.84977 11.3281 6.8429 C 11.4716 6.77522 11.7213 6.65745 12 6.65745 C 12.2787 6.65745 12.5284 6.77522 12.6719 6.8429 C 12.6864 6.84977 12.6999 6.85613 12.7122 6.8618 L 12.891 6.9441 C 13.0318 7.00894 13.1503 7.06347 13.2546 7.10937 C 13.2451 6.98718 13.2309 6.83692 13.2127 6.64866 L 13.193 6.4456 C 13.1916 6.43105 13.19 6.41542 13.1882 6.39882 C 13.1709 6.23243 13.1434 5.96869 13.2231 5.71261 C 13.3037 5.45346 13.4779 5.25273 13.5859 5.1284 C 13.5966 5.11609 13.6066 5.10452 13.6158 5.09372 L 13.746 4.94153 C 13.8801 4.78474 13.9831 4.66345 14.0625 4.56575 C 13.9405 4.53509 13.7978 4.50275 13.6226 4.46312 L 13.4317 4.41992 C 13.4185 4.41693 13.404 4.41379 13.3884 4.4104 C 13.2327 4.37659 12.9664 4.31877 12.745 4.15071 C 12.5282 3.9861 12.3981 3.74827 12.3196 3.60466 C 12.3116 3.59009 12.3042 3.5765 12.2973 3.56405 L 12.199 3.38769 C 12.1228 3.25103 12.0581 3.13513 12 3.03449 Z M 11.0135 1.79963 C 11.1857 1.57481 11.4983 1.25 12 1.25 C 12.5017 1.25 12.8143 1.57481 12.9865 1.79963 C 13.1508 2.01421 13.3163 2.31124 13.486 2.61576 C 13.4937 2.62961 13.5014 2.64347 13.5091 2.65734 L 13.6075 2.83369 C 13.6303 2.87459 13.6482 2.90677 13.6639 2.93429 C 13.6912 2.94071 13.723 2.94792 13.7627 2.95691 L 13.9537 3.0001 C 13.9693 3.00364 13.9849 3.00717 14.0006 3.0107 C 14.3284 3.08478 14.6542 3.15839 14.9042 3.25695 C 15.1804 3.36577 15.5547 3.5777 15.6989 4.04161 C 15.8407 4.49734 15.6618 4.88336 15.5056 5.13146 C 15.3611 5.36108 15.1414 5.61786 14.9165 5.88075 C 14.9063 5.89263 14.8962 5.90452 14.886 5.91642 L 14.7558 6.06861 C 14.7213 6.10894 14.6954 6.13935 14.6735 6.16566 C 14.6764 6.202 14.6805 6.24433 14.686 6.30093 L 14.7057 6.50398 C 14.7072 6.51947 14.7087 6.53494 14.7102 6.55039 C 14.7444 6.90232 14.7774 7.24242 14.7653 7.51447 C 14.7526 7.79972 14.6841 8.23152 14.2969 8.52544 C 13.8975 8.82864 13.4564 8.76256 13.1767 8.68241 C 12.919 8.60856 12.6144 8.46823 12.3077 8.3269 C 12.293 8.32014 12.2783 8.31337 12.2636 8.30661 L 12.0849 8.22431 C 12.0514 8.20891 12.024 8.19626 12 8.18542 C 11.9761 8.19626 11.9486 8.20891 11.9151 8.22431 L 11.7364 8.30661 C 11.7217 8.31337 11.707 8.32014 11.6923 8.3269 C 11.3856 8.46823 11.0811 8.60856 10.8233 8.68241 C 10.5436 8.76256 10.1025 8.82864 9.70306 8.52544 C 9.3159 8.23153 9.24744 7.79972 9.23473 7.51447 C 9.22261 7.24242 9.25564 6.90232 9.28982 6.55039 C 9.29132 6.53494 9.29282 6.51947 9.29432 6.50398 L 9.314 6.30093 C 9.31948 6.24433 9.32356 6.202 9.32655 6.16567 C 9.30466 6.13935 9.27867 6.10894 9.24418 6.06861 L 9.11403 5.91642 C 9.10385 5.90452 9.09368 5.89262 9.08351 5.88074 C 8.8586 5.61786 8.63891 5.36108 8.49436 5.13146 C 8.33818 4.88336 8.15934 4.49734 8.30106 4.04161 C 8.44532 3.5777 8.81962 3.36577 9.09577 3.25695 C 9.34585 3.1584 9.67164 3.08478 9.99945 3.0107 C 10.0151 3.00717 10.0307 3.00364 10.0464 3.0001 L 10.2373 2.95691 C 10.277 2.94792 10.3088 2.94071 10.3361 2.9343 C 10.3518 2.90677 10.3698 2.87459 10.3926 2.83369 L 10.4909 2.65734 C 10.4986 2.64347 10.5063 2.62961 10.514 2.61576 C 10.6837 2.31124 10.8492 2.01421 11.0135 1.79963 Z M 10.9506 9.25 H 13.0494 C 13.7142 9.24996 14.2871 9.24993 14.7458 9.31161 C 15.2375 9.3777 15.7087 9.52676 16.091 9.90901 C 16.4732 10.2913 16.6223 10.7625 16.6884 11.2542 C 16.7501 11.7129 16.75 12.2858 16.75 12.9506 L 16.75 15.4174 C 16.9136 15.3678 17.0827 15.3347 17.2542 15.3116 C 17.7129 15.2499 18.2858 15.25 18.9506 15.25 H 19.0494 C 19.7142 15.25 20.2871 15.2499 20.7458 15.3116 C 21.2375 15.3777 21.7087 15.5268 22.091 15.909 C 22.4732 16.2913 22.6223 16.7625 22.6884 17.2542 C 22.7501 17.7129 22.75 18.2858 22.75 18.9506 V 22 C 22.75 22.4142 22.4142 22.75 22 22.75 C 21.5858 22.75 21.25 22.4142 21.25 22 V 19 C 21.25 18.2717 21.2484 17.8009 21.2018 17.454 C 21.158 17.1287 21.0874 17.0268 21.0303 16.9697 C 20.9732 16.9126 20.8713 16.842 20.546 16.7982 C 20.1991 16.7516 19.7283 16.75 19 16.75 C 18.2717 16.75 17.8009 16.7516 17.454 16.7982 C 17.1287 16.842 17.0268 16.9126 16.9697 16.9697 C 16.9126 17.0268 16.842 17.1287 16.7982 17.454 C 16.7516 17.8009 16.75 18.2717 16.75 19 V 22 C 16.75 22.4142 16.4142 22.75 16 22.75 C 15.5858 22.75 15.25 22.4142 15.25 22 L 15.25 18.9506 C 15.25 18.9179 15.25 18.8854 15.25 18.8531 V 13 C 15.25 12.2717 15.2484 11.8009 15.2018 11.454 C 15.158 11.1287 15.0874 11.0268 15.0303 10.9697 C 14.9732 10.9126 14.8713 10.842 14.546 10.7982 C 14.1991 10.7516 13.7283 10.75 13 10.75 H 11 C 10.2717 10.75 9.80091 10.7516 9.45403 10.7982 C 9.12873 10.842 9.02677 10.9126 8.96967 10.9697 C 8.91258 11.0268 8.84197 11.1287 8.79823 11.454 C 8.7516 11.8009 8.75 12.2717 8.75 13 V 21.8531 C 8.75001 21.8854 8.75001 21.9179 8.75001 21.9506 L 8.75 22 C 8.75 22.4142 8.41422 22.75 8 22.75 C 7.58579 22.75 7.25 22.4142 7.25 22 C 7.25 21.2717 7.24841 20.8009 7.20177 20.454 C 7.15804 20.1287 7.08743 20.0268 7.03033 19.9697 C 6.97324 19.9126 6.87128 19.842 6.54598 19.7982 C 6.1991 19.7516 5.72831 19.75 5 19.75 C 4.27169 19.75 3.80091 19.7516 3.45403 19.7982 C 3.12873 19.842 3.02677 19.9126 2.96967 19.9697 C 2.91258 20.0268 2.84197 20.1287 2.79823 20.454 C 2.7516 20.8009 2.75 21.2717 2.75 22 C 2.75 22.4142 2.41422 22.75 2 22.75 C 1.58579 22.75 1.25 22.4142 1.25 22 L 1.25 21.9506 C 1.24996 21.2858 1.24993 20.7129 1.31161 20.2542 C 1.37771 19.7625 1.52677 19.2913 1.90901 18.909 C 2.29126 18.5268 2.76252 18.3777 3.25416 18.3116 C 3.71291 18.2499 4.28577 18.25 4.95064 18.25 H 5.04937 C 5.71424 18.25 6.2871 18.2499 6.74585 18.3116 C 6.91735 18.3347 7.08637 18.3678 7.25 18.4174 L 7.25 12.9506 C 7.24996 12.2858 7.24993 11.7129 7.31161 11.2542 C 7.37771 10.7625 7.52677 10.2913 7.90901 9.90901 C 8.29126 9.52676 8.76252 9.3777 9.25416 9.31161 C 9.71291 9.24993 10.2858 9.24996 10.9506 9.25 Z" fill="#FFFFFF" />
</svg>