<svg xmlns="http://www.w3.org/2000/svg" width="24" height="24" viewBox="0 0 24 24" fill="none">
  <path d="M21.9127 5.93144C21.7537 3.85169 20.1483 2.24627 18.0686 2.08725C17.0016 2.00568 15.7566 1.96613 14.4449 2.03623L21.9638 9.55515C22.0339 8.24345 21.9943 6.99837 21.9127 5.93144Z" fill="#FFFFFF" />
  <path d="M2.08725 18.0686C2.24627 20.1483 3.85169 21.7537 5.93144 21.9127C6.99862 21.9943 8.24403 22.0339 9.55607 21.9637L2.03628 14.4439C1.96611 15.756 2.00566 17.0014 2.08725 18.0686Z" fill="#FFFFFF" />
  <path fill-rule="nonzero" clip-rule="nonzero" d="M 2.22237 12.5087 C 2.59084 9.91642 3.48404 7.27724 5.38064 5.38064 C 7.27745 3.48383 9.917 2.59064 12.5095 2.22225 L 21.7777 11.4905 C 21.4094 14.083 20.5162 16.7225 18.6194 18.6194 C 16.7228 20.516 14.0836 21.4092 11.4913 21.7776 L 2.22237 12.5087 Z M11.9426 8.1601 C11.6497 8.45299 11.6497 8.92787 11.9426 9.22076 L12.8307 10.1089 L12.0001 10.9394 L11.112 10.0513 C10.8191 9.75845 10.3442 9.75845 10.0513 10.0513 C9.75845 10.3442 9.75845 10.8191 10.0513 11.112 L10.9394 12.0001 L10.1089 12.8307 L9.22076 11.9426 C8.92787 11.6497 8.45299 11.6497 8.1601 11.9426 C7.86721 12.2355 7.86721 12.7104 8.1601 13.0032 L9.0482 13.8914 L8.1601 14.7795 C7.86721 15.0723 7.86721 15.5472 8.1601 15.8401 C8.45299 16.133 8.92787 16.133 9.22076 15.8401 L10.1089 14.952 L10.997 15.8401 C11.2899 16.133 11.7647 16.133 12.0576 15.8401 C12.3505 15.5472 12.3505 15.0723 12.0576 14.7795 L11.1695 13.8914 L12.0001 13.0608 L12.8882 13.9489 C13.1811 14.2418 13.656 14.2418 13.9489 13.9489 C14.2418 13.656 14.2418 13.1811 13.9489 12.8882 L13.0608 12.0001 L13.8914 11.1695 L14.7795 12.0576 C15.0723 12.3505 15.5472 12.3505 15.8401 12.0576 C16.133 11.7647 16.133 11.2899 15.8401 10.997 L14.952 10.1089 L15.8401 9.22076 C16.133 8.92787 16.133 8.45299 15.8401 8.1601 C15.5472 7.86721 15.0723 7.86721 14.7795 8.1601 L13.8914 9.0482 L13.0032 8.1601 C12.7104 7.86721 12.2355 7.86721 11.9426 8.1601 Z" fill="#FFFFFF" />
</svg>