<svg xmlns="http://www.w3.org/2000/svg" width="24" height="24" viewBox="0 0 24 24" fill="none">
  <path d="M21 4.5C21 5.88071 19.8807 7 18.5 7C17.1193 7 16 5.88071 16 4.5C16 3.11929 17.1193 2 18.5 2C19.8807 2 21 3.11929 21 4.5Z" fill="#FFFFFF" />
  <path fill-rule="nonzero" clip-rule="nonzero" d="M 8.97231 5.81012 C 9.87486 5.41194 10.8988 5.38942 11.818 5.74754 C 14.3856 6.74793 15.0063 10.0988 12.9673 11.9524 L 11.9272 12.898 C 11.8873 12.9342 11.8756 12.9449 11.868 12.9521 C 11.3146 13.4759 11.3545 14.3687 11.9525 14.841 C 11.9608 14.8475 11.9735 14.8572 12.0164 14.8897 L 12.0198 14.8923 C 12.0784 14.9367 12.1124 14.9624 12.1449 14.9876 C 14.0177 16.4378 15.1245 18.6648 15.1496 21.0334 C 15.15 21.0744 15.15 21.117 15.15 21.1902 V 22 C 15.15 22.4142 14.8142 22.75 14.4 22.75 C 13.9858 22.75 13.65 22.4142 13.65 22 V 21.195 C 13.65 21.1156 13.65 21.0813 13.6497 21.0492 C 13.6295 19.1391 12.7369 17.3431 11.2265 16.1736 C 11.2012 16.1539 11.1739 16.1332 11.1106 16.0853 L 11.1042 16.0804 C 11.0707 16.0551 11.0447 16.0354 11.0229 16.0182 C 9.70732 14.9792 9.61938 13.0151 10.8368 11.8628 C 10.8571 11.8436 10.8811 11.8217 10.9125 11.7933 L 11.9583 10.8425 C 13.1733 9.73799 12.8034 7.74131 11.2734 7.14521 C 10.7257 6.93181 10.1156 6.94523 9.57777 7.18249 L 9.05608 7.41265 C 8.51083 7.6532 8.25902 7.76449 8.0142 7.88601 C 7.6014 8.09091 7.2005 8.31894 6.8134 8.56901 C 6.58381 8.71732 6.35946 8.87688 5.87402 9.22257 L 4.43505 10.2473 C 4.09765 10.4876 3.62935 10.4088 3.38908 10.0714 C 3.1488 9.73401 3.22754 9.26571 3.56495 9.02544 L 5.02092 7.98861 C 5.48513 7.65804 5.73806 7.47792 5.99945 7.30906 C 6.43395 7.02836 6.88394 6.77241 7.34729 6.54242 C 7.62603 6.40406 7.91012 6.27873 8.43151 6.0487 L 8.97231 5.81012 Z M 15.2724 11.8181 C 15.3729 11.4163 15.7801 11.1719 16.1819 11.2724 C 17.3756 11.5708 18.6244 11.5708 19.8181 11.2724 C 20.2199 11.1719 20.6271 11.4163 20.7276 11.8181 C 20.8281 12.2199 20.5837 12.6271 20.1819 12.7276 C 18.7493 13.0857 17.2507 13.0857 15.8181 12.7276 C 15.4163 12.6271 15.1719 12.2199 15.2724 11.8181 Z M 9.48014 16.4238 C 9.79835 16.689 9.84134 17.1619 9.57617 17.4801 L 9.31681 17.7914 C 7.75456 19.6661 5.44032 20.75 3 20.75 C 2.58579 20.75 2.25 20.4142 2.25 20 C 2.25 19.5858 2.58579 19.25 3 19.25 C 4.99515 19.25 6.88722 18.3638 8.16448 16.8311 L 8.42383 16.5199 C 8.68901 16.2017 9.16193 16.1587 9.48014 16.4238 Z" fill="#FFFFFF" />
</svg>