<svg xmlns="http://www.w3.org/2000/svg" width="24" height="24" viewBox="0 0 24 24" fill="none">
  <path d="M20.75 4.5C20.75 5.88071 19.6307 7 18.25 7C16.8693 7 15.75 5.88071 15.75 4.5C15.75 3.11929 16.8693 2 18.25 2C19.6307 2 20.75 3.11929 20.75 4.5Z" fill="#FFFFFF" />
  <path fill-rule="nonzero" clip-rule="nonzero" d="M 13.4366 6.66132 L 13.4421 6.6636 C 14.6265 7.15114 15.6111 8.04505 16.1889 9.20077 C 16.8169 10.4567 18.1005 11.25 19.5046 11.25 H 20.75 C 21.1642 11.25 21.5 11.5858 21.5 12 C 21.5 12.4142 21.1642 12.75 20.75 12.75 H 19.5046 C 17.5323 12.75 15.7293 11.6357 14.8473 9.87158 C 14.4364 9.04988 13.7311 8.40468 12.8711 8.05068 C 11.5075 7.48938 11.0748 7.33098 10.2511 7.39087 C 9.10849 7.47396 8.05813 8.05116 5.55619 9.47272 L 4.12051 10.2884 C 3.76037 10.4931 3.30253 10.367 3.09791 10.0069 C 2.89328 9.64672 3.01935 9.18888 3.37949 8.98426 L 4.81517 8.16853 C 4.87315 8.13559 4.93054 8.10297 4.98736 8.07067 C 7.26106 6.77833 8.62084 6.00546 10.1424 5.89482 C 11.3595 5.80631 12.096 6.10952 13.4366 6.66132 Z M 9.23014 16.4238 C 9.54835 16.689 9.59134 17.1619 9.32617 17.4801 L 8.3254 18.6811 C 8.2928 18.7202 8.26067 18.7588 8.22895 18.7969 C 7.58688 19.5685 7.11555 20.135 6.45757 20.4432 C 5.79959 20.7513 5.0627 20.7508 4.05888 20.7501 C 4.00928 20.75 3.95904 20.75 3.90813 20.75 H 2.75 C 2.33579 20.75 2 20.4142 2 20 C 2 19.5858 2.33579 19.25 2.75 19.25 H 3.90813 C 5.12975 19.25 5.50396 19.2334 5.82133 19.0848 C 6.1387 18.9361 6.391 18.6593 7.17306 17.7208 L 8.17383 16.5199 C 8.43901 16.2017 8.91193 16.1587 9.23014 16.4238 Z" fill="#FFFFFF" />
  <g opacity="0.5" />
</svg>