<svg xmlns="http://www.w3.org/2000/svg" width="24" height="24" viewBox="0 0 24 24" fill="none">
  <path d="M20.75 4.5C20.75 5.88071 19.6307 7 18.25 7C16.8693 7 15.75 5.88071 15.75 4.5C15.75 3.11929 16.8693 2 18.25 2C19.6307 2 20.75 3.11929 20.75 4.5Z" fill="#FFFFFF" />
  <path fill-rule="nonzero" clip-rule="nonzero" d="M 9.80218 5.93063 C 10.0117 5.9017 10.2599 5.87536 10.523 5.88702 C 10.603 5.89057 10.6938 5.89706 10.7962 5.90769 C 13.1789 6.155 14.9468 7.94323 16.1242 9.70933 L 16.1866 9.80281 C 16.7893 10.7069 17.8041 11.25 18.8907 11.25 H 20.75 C 21.1642 11.25 21.5 11.5858 21.5 12 C 21.5 12.4142 21.1642 12.75 20.75 12.75 H 18.8907 C 17.3025 12.75 15.8195 11.9563 14.9385 10.6349 L 14.8762 10.5414 C 14.6037 10.1327 14.311 9.74468 13.9989 9.38944 L 12.1149 11.7441 C 11.6875 12.2783 11.4008 12.6379 11.2076 12.9334 C 11.0204 13.2196 10.967 13.3792 10.9528 13.5003 C 10.9293 13.7003 10.9546 13.903 11.0263 14.0911 C 11.0698 14.2051 11.1607 14.3467 11.4123 14.5783 C 11.6721 14.8173 12.0382 15.0957 12.5835 15.5088 C 12.6157 15.5332 12.6475 15.5573 12.6789 15.5811 C 13.3998 16.1267 13.8989 16.5046 14.2444 17.0094 C 14.4408 17.2964 14.5963 17.6093 14.7065 17.9392 C 14.9002 18.5194 14.9 19.1454 14.8996 20.0495 C 14.8996 20.0888 14.8996 20.1287 14.8996 20.1692 V 21.9998 C 14.8996 22.414 14.5638 22.7498 14.1496 22.7498 C 13.7354 22.7498 13.3996 22.414 13.3996 21.9998 V 20.1692 C 13.3996 19.0986 13.3905 18.7342 13.2837 18.4143 C 13.2176 18.2164 13.1243 18.0287 13.0065 17.8565 C 12.8161 17.5782 12.531 17.3509 11.6777 16.7045 L 11.6488 16.6826 C 11.1398 16.2969 10.7155 15.9755 10.3965 15.682 C 10.0635 15.3754 9.7855 15.0471 9.62475 14.6256 C 9.46691 14.2116 9.4114 13.7657 9.46296 13.3257 C 9.51547 12.8776 9.70447 12.4912 9.95221 12.1124 C 10.1895 11.7496 10.522 11.3339 10.9211 10.8353 L 12.9047 8.35598 C 12.2175 7.83323 11.4608 7.48473 10.6414 7.39967 C 10.5672 7.39198 10.5059 7.38774 10.4565 7.38555 C 10.3286 7.37988 10.1855 7.39194 10.0074 7.41653 C 8.94204 7.56364 7.87451 8.15548 5.55619 9.47271 L 4.12051 10.2884 C 3.76037 10.4931 3.30253 10.367 3.09791 10.0069 C 2.89328 9.64671 3.01935 9.18888 3.37949 8.98426 L 4.81517 8.16853 C 4.86639 8.13943 4.91715 8.11058 4.96746 8.08199 C 7.08653 6.87764 8.416 6.12205 9.80218 5.93063 Z M 9.23014 16.4238 C 9.54835 16.689 9.59134 17.1619 9.32617 17.4801 L 8.3254 18.6811 C 8.2928 18.7202 8.26067 18.7588 8.22895 18.7969 C 7.58688 19.5685 7.11555 20.135 6.45757 20.4432 C 5.79959 20.7513 5.0627 20.7508 4.05888 20.7501 C 4.00928 20.75 3.95904 20.75 3.90813 20.75 H 2.75 C 2.33579 20.75 2 20.4142 2 20 C 2 19.5858 2.33579 19.25 2.75 19.25 H 3.90813 C 5.12975 19.25 5.50396 19.2334 5.82133 19.0848 C 6.1387 18.9361 6.391 18.6593 7.17306 17.7208 L 8.17383 16.5199 C 8.43901 16.2017 8.91193 16.1587 9.23014 16.4238 Z" fill="#FFFFFF" />
</svg>