<svg xmlns="http://www.w3.org/2000/svg" width="24" height="24" viewBox="0 0 24 24" fill="none">
  <path d="M17.0002 4.5C17.0002 5.88071 15.8809 7 14.5002 7C13.1195 7 12.0002 5.88071 12.0002 4.5C12.0002 3.11929 13.1195 2 14.5002 2C15.8809 2 17.0002 3.11929 17.0002 4.5Z" fill="#FFFFFF" />
  <path fill-rule="nonzero" clip-rule="nonzero" d="M 10.5028 9.20673 C 11.9875 8.57043 13.6391 9.6595 13.6391 11.2748 V 13.8953 C 13.6391 14.3654 13.5186 14.8276 13.2891 15.2379 L 10.5768 20.0861 C 10.2519 20.6668 9.72748 21.11 9.10074 21.3336 L 5.25218 22.7064 C 4.86205 22.8456 4.43296 22.6421 4.2938 22.252 C 4.15464 21.8618 4.35809 21.4328 4.74823 21.2936 L 8.59678 19.9208 C 8.88166 19.8192 9.12004 19.6177 9.26771 19.3537 L 11.98 14.5055 C 12.0843 14.3191 12.1391 14.1089 12.1391 13.8953 V 11.2748 C 12.1391 10.7364 11.5886 10.3733 11.0937 10.5854 L 8.63786 11.6379 C 8.14643 11.8485 8.0269 12.491 8.40972 12.8643 L 9.02378 13.463 C 9.32036 13.7522 9.32637 14.227 9.0372 14.5236 C 8.74804 14.8202 8.27321 14.8262 7.97663 14.537 L 7.36257 13.9383 C 6.21412 12.8186 6.57269 10.8911 8.04698 10.2592 L 10.5028 9.20673 Z M 16.5591 14.0535 C 18.232 13.7817 19.7502 15.0731 19.7502 16.7679 V 22 C 19.7502 22.4142 19.4144 22.75 19.0002 22.75 C 18.586 22.75 18.2502 22.4142 18.2502 22 V 16.7679 C 18.2502 15.9975 17.5601 15.4105 16.7997 15.5341 L 15.7872 15.6986 C 15.3783 15.7651 14.993 15.4875 14.9266 15.0786 C 14.8601 14.6698 15.1377 14.2845 15.5466 14.218 L 16.5591 14.0535 Z" fill="#FFFFFF" />
</svg>