<svg xmlns="http://www.w3.org/2000/svg" width="24" height="24" viewBox="0 0 24 24" fill="none">
  <path fill-rule="nonzero" clip-rule="nonzero" d="M 17.0002 3.75 C 16.0337 3.75 15.2502 4.5335 15.2502 5.5 C 15.2502 6.4665 16.0337 7.25 17.0002 7.25 C 17.9667 7.25 18.7502 6.4665 18.7502 5.5 C 18.7502 4.5335 17.9667 3.75 17.0002 3.75 Z M 13.7502 5.5 C 13.7502 3.70507 15.2052 2.25 17.0002 2.25 C 18.7951 2.25 20.2502 3.70507 20.2502 5.5 C 20.2502 7.29493 18.7951 8.75 17.0002 8.75 C 15.2052 8.75 13.7502 7.29493 13.7502 5.5 Z M 8.43853 4.63039 C 8.18246 4.34018 7.73463 4.3262 7.46096 4.59987 C 7.21304 4.84779 7.19779 5.24479 7.42597 5.51099 L 8.41368 6.66332 C 9.32033 7.72108 9.05759 9.34019 7.86297 10.057 L 4.38604 12.1431 C 4.03086 12.3562 3.57016 12.2411 3.35705 11.8859 C 3.14394 11.5307 3.25911 11.07 3.6143 10.8569 L 7.09123 8.77072 C 7.48943 8.5318 7.57701 7.99209 7.2748 7.63951 L 6.28708 6.48717 C 5.54882 5.62586 5.59815 4.34136 6.4003 3.53921 C 7.28578 2.65373 8.73476 2.69896 9.56329 3.63796 L 16.0625 11.0038 C 16.3366 11.3144 16.307 11.7883 15.9964 12.0624 C 15.6858 12.3364 15.2118 12.3068 14.9378 11.9962 L 8.43853 4.63039 Z M 4.57004 12.8657 C 5.25688 11.7919 6.72749 11.8271 7.4577 12.7618 C 8.4477 14.0291 9.82965 15.25 12.0002 15.25 C 14.2088 15.25 15.5699 14.2712 16.5051 13.0209 C 17.2251 12.0585 18.7909 11.9013 19.5458 13.0435 C 20.1708 13.9891 20.8488 14.7306 22.1722 15.0424 C 22.5754 15.1374 22.8252 15.5412 22.7302 15.9444 C 22.6352 16.3476 22.2313 16.5974 21.8282 16.5024 C 19.9762 16.066 19.0206 14.9692 18.2944 13.8705 C 18.2374 13.7844 18.1519 13.7406 18.0408 13.7427 C 17.9223 13.7449 17.7936 13.8027 17.7063 13.9195 C 16.5386 15.4804 14.7604 16.75 12.0002 16.75 C 9.15759 16.75 7.38876 15.1101 6.27565 13.6853 C 6.20392 13.5934 6.11032 13.5585 6.02981 13.5602 C 5.95388 13.5619 5.88442 13.5946 5.83365 13.674 C 5.09416 14.8301 4.13929 16.0389 2.17218 16.5024 C 1.76901 16.5974 1.36516 16.3476 1.27016 15.9444 C 1.17516 15.5412 1.42498 15.1374 1.82816 15.0424 C 3.2291 14.7123 3.90775 13.9011 4.57004 12.8657 Z M 4.57004 17.8657 C 5.25688 16.7919 6.72749 16.8271 7.4577 17.7618 C 8.4477 19.0291 9.82965 20.25 12.0002 20.25 C 14.2088 20.25 15.5699 19.2712 16.5051 18.0209 C 17.2251 17.0585 18.7909 16.9013 19.5458 18.0435 C 20.1708 18.9891 20.8488 19.7306 22.1722 20.0424 C 22.5754 20.1374 22.8252 20.5412 22.7302 20.9444 C 22.6352 21.3476 22.2313 21.5974 21.8282 21.5024 C 19.9762 21.066 19.0206 19.9692 18.2944 18.8705 C 18.2374 18.7844 18.1519 18.7406 18.0408 18.7427 C 17.9223 18.7449 17.7936 18.8027 17.7063 18.9195 C 16.5386 20.4804 14.7604 21.75 12.0002 21.75 C 9.15759 21.75 7.38876 20.1101 6.27565 18.6853 C 6.20392 18.5934 6.11032 18.5585 6.02981 18.5602 C 5.95388 18.5619 5.88442 18.5946 5.83365 18.674 C 5.09416 19.8301 4.13929 21.0389 2.17218 21.5024 C 1.76901 21.5974 1.36516 21.3476 1.27016 20.9444 C 1.17516 20.5412 1.42498 20.1374 1.82816 20.0424 C 3.2291 19.7123 3.90775 18.9011 4.57004 17.8657 Z" fill="#FFFFFF" />
</svg>