<svg xmlns="http://www.w3.org/2000/svg" width="24" height="24" viewBox="0 0 24 24" fill="none">
  <g opacity="0.5"/>
  <g opacity="0.5"/>
  <path d="M19.5 5.5C19.5 6.88071 18.3808 8 17 8C15.6193 8 14.5 6.88071 14.5 5.5C14.5 4.11929 15.6193 3 17 3C18.3808 3 19.5 4.11929 19.5 5.5Z" fill="#FFFFFF"/>
  <path d="M16.6456 12.7938L15.5 11.5L9.00079 4.13417C8.45849 3.51957 7.51009 3.48996 6.93051 4.06954C6.40547 4.59458 6.37318 5.43532 6.8564 5.99908L7.84412 7.15142C8.44855 7.85659 7.47698 9.41384 7.47698 9.41384L5.11523 12.2589C5.86292 11.7897 6.8866 11.9706 7.45758 12.7015C8.44758 13.9687 9.82953 15.1897 12 15.1897C14.2087 15.1897 15.5698 14.2108 16.505 12.9606C16.5489 12.902 16.5959 12.8464 16.6456 12.7938Z" fill="#FFFFFF"/>
</svg>