<svg xmlns="http://www.w3.org/2000/svg" width="24" height="24" viewBox="0 0 24 24" fill="none">
  <path fill-rule="nonzero" clip-rule="nonzero" d="M 12.9386 4.73542 C 13.3511 4.69785 13.716 5.0018 13.7535 5.4143 C 13.8024 5.95058 13.893 6.53361 14.045 7.14711 C 14.1447 7.54916 13.8995 7.95586 13.4974 8.05549 C 13.0954 8.15512 12.6887 7.90997 12.5891 7.50791 C 12.4172 6.81421 12.3148 6.15558 12.2597 5.55036 C 12.2221 5.13785 12.5261 4.77299 12.9386 4.73542 Z M 5.23942 9.18054 C 5.47821 8.84208 5.94616 8.76129 6.28461 9.00008 C 6.78119 9.35043 7.30041 9.76836 7.81522 10.2641 C 8.1136 10.5514 8.12256 11.0262 7.83525 11.3246 C 7.54794 11.6229 7.07315 11.6319 6.77478 11.3446 C 6.31949 10.9062 5.85988 10.5362 5.41988 10.2257 C 5.08142 9.98694 5.00063 9.51899 5.23942 9.18054 Z M 13.836 8.99599 C 14.2094 8.81661 14.6574 8.97385 14.8368 9.3472 C 14.9605 9.60468 15.097 9.86417 15.2474 10.1247 C 15.3979 10.3852 15.5543 10.6332 15.7155 10.869 C 15.9491 11.2111 15.8612 11.6778 15.5192 11.9114 C 15.1772 12.145 14.7105 12.0572 14.4769 11.7151 C 14.2947 11.4485 14.118 11.1685 13.9484 10.8747 C 13.7788 10.5809 13.6246 10.2879 13.4848 9.99681 C 13.3054 9.62346 13.4627 9.17538 13.836 8.99599 Z M 8.48046 12.088 C 8.82249 11.8544 9.28917 11.9422 9.52281 12.2843 C 9.70496 12.5509 9.88164 12.8309 10.0513 13.1247 C 10.2209 13.4185 10.375 13.7115 10.5149 14.0026 C 10.6943 14.3759 10.537 14.824 10.1637 15.0034 C 9.79032 15.1828 9.34223 15.0256 9.16285 14.6522 C 9.03914 14.3947 8.90267 14.1352 8.75225 13.8747 C 8.60182 13.6142 8.44534 13.3662 8.28421 13.1304 C 8.05057 12.7883 8.13843 12.3217 8.48046 12.088 Z M 16.1644 12.6748 C 16.4517 12.3765 16.9265 12.3675 17.2249 12.6548 C 17.6802 13.0932 18.1398 13.4632 18.5798 13.7737 C 18.9183 14.0125 18.9991 14.4804 18.7603 14.8189 C 18.5215 15.1573 18.0535 15.2381 17.7151 14.9993 C 17.2185 14.649 16.6993 14.2311 16.1845 13.7353 C 15.8861 13.448 15.8771 12.9732 16.1644 12.6748 Z M 10.5022 15.9439 C 10.9043 15.8443 11.311 16.0894 11.4106 16.4915 C 11.5825 17.1852 11.6849 17.8438 11.74 18.4491 C 11.7776 18.8616 11.4736 19.2264 11.0611 19.264 C 10.6486 19.3016 10.2837 18.9976 10.2462 18.5851 C 10.1973 18.0488 10.1067 17.4658 9.95466 16.8523 C 9.85502 16.4502 10.1002 16.0436 10.5022 15.9439 Z" fill="#FFFFFF" />
  <path fill-rule="nonzero" clip-rule="nonzero" d="M13.2859 1.32632 C16.5256 1.71902 19.5509 3.57847 21.3096 6.62471 C23.0684 9.67094 23.1661 13.2206 21.8863 16.2227 C21.0051 18.2898 19.4699 20.0999 17.3748 21.3095 C12.2332 24.278 5.6586 22.5164 2.69007 17.3747 C-0.278462 12.2331 1.4832 5.65846 6.62484 2.68993 C8.71992 1.48034 11.0551 1.05591 13.2859 1.32632 Z M 13.7802 3.08033 C 13.7309 3.49161 13.3576 3.7851 12.9463 3.73585 C 12.5351 3.68661 12.2416 3.31329 12.2908 2.90201 C 12.297 2.85081 12.3032 2.8013 12.3096 2.75354 C 10.638 2.6958 8.93097 3.09054 7.37484 3.98897 C 5.81951 4.88694 4.62362 6.16839 3.83764 7.64494 C 3.88216 7.66328 3.92814 7.68258 3.97552 7.70286 C 4.35631 7.86585 4.53288 8.30668 4.36989 8.68748 C 4.20689 9.06827 3.76606 9.24484 3.38527 9.08184 C 3.33556 9.06057 3.2878 9.04062 3.24212 9.02195 C 2.41524 11.457 2.60225 14.2226 3.98911 16.6247 C 5.37596 19.0268 7.67752 20.5716 10.1998 21.073 C 10.2065 21.0241 10.2131 20.9728 10.2195 20.9191 C 10.2687 20.5078 10.6421 20.2143 11.0533 20.2636 C 11.4646 20.3128 11.7581 20.6861 11.7089 21.0974 C 11.7027 21.1486 11.6965 21.198 11.6901 21.2458 C 13.3618 21.3034 15.0695 20.9084 16.6248 20.0104 C 18.181 19.112 19.3764 17.831 20.1621 16.3545 C 20.1176 16.3362 20.0716 16.3168 20.0242 16.2966 C 19.6434 16.1336 19.4668 15.6927 19.6298 15.3119 C 19.7928 14.9311 20.2336 14.7546 20.6144 14.9176 C 20.6641 14.9388 20.7119 14.9588 20.7576 14.9775 C 21.5849 12.5411 21.3972 9.77639 20.0106 7.37471 C 18.624 4.97302 16.3236 3.42808 13.7999 2.92639 C 13.7932 2.97529 13.7866 3.02664 13.7802 3.08033 Z" fill="#FFFFFF" />
</svg>