<svg xmlns="http://www.w3.org/2000/svg" width="24" height="24" viewBox="0 0 24 24" fill="none">
  <path fill-rule="nonzero" clip-rule="nonzero" d="M 15 2.75 C 14.3096 2.75 13.75 3.30964 13.75 4 C 13.75 4.69036 14.3096 5.25 15 5.25 C 15.6904 5.25 16.25 4.69036 16.25 4 C 16.25 3.30964 15.6904 2.75 15 2.75 Z M 12.25 4 C 12.25 2.48122 13.4812 1.25 15 1.25 C 16.5188 1.25 17.75 2.48122 17.75 4 C 17.75 5.51878 16.5188 6.75 15 6.75 C 13.4812 6.75 12.25 5.51878 12.25 4 Z M 7.25831 5.39162 C 7.99545 4.93091 8.91147 4.86037 9.71046 5.20279 C 11.4363 5.94244 11.8694 8.19127 10.5417 9.51898 L 10.2124 9.84822 C 10.0802 9.98049 10.0428 10.0186 10.018 10.0472 C 9.5827 10.5498 9.61696 11.3051 10.0959 11.7662 C 10.1232 11.7925 10.1639 11.827 10.3076 11.9467 L 10.3183 11.9556 C 10.3991 12.023 10.4549 12.0695 10.5077 12.117 C 11.2618 12.7952 11.709 13.75 11.7473 14.7636 C 11.75 14.8345 11.75 14.9071 11.75 15.0123 V 16 C 11.75 16.4142 11.4142 16.75 11 16.75 C 10.5858 16.75 10.25 16.4142 10.25 16 V 15.0263 C 10.25 14.902 10.2499 14.8593 10.2484 14.8202 C 10.2254 14.2121 9.9571 13.6392 9.50464 13.2322 C 9.47553 13.2061 9.44277 13.1786 9.34736 13.0991 L 9.32611 13.0814 C 9.21352 12.9876 9.12715 12.9156 9.05566 12.8468 C 8.00192 11.8325 7.92655 10.1708 8.88412 9.06518 C 8.94909 8.99018 9.02859 8.91071 9.13223 8.8071 C 9.13865 8.80068 9.14517 8.79417 9.15178 8.78756 L 9.48102 8.45832 C 10.0583 7.88099 9.87003 6.90313 9.11958 6.58151 C 8.77215 6.43261 8.37384 6.46329 8.05331 6.66362 L 4.8975 8.636 C 4.54625 8.85553 4.08353 8.74875 3.864 8.3975 C 3.64447 8.04625 3.75125 7.58353 4.1025 7.364 L 7.25831 5.39162 Z M 22.7354 6.85291 C 22.8167 7.25908 22.5533 7.6542 22.1471 7.73544 C 20.9568 7.97348 20.0436 8.93217 19.8635 10.1326 L 18.9423 16.2737 C 20.9318 15.9353 22.75 17.4682 22.75 19.4888 C 22.75 21.2899 21.2899 22.75 19.4888 22.75 H 3.08684 C 2.07238 22.75 1.25 21.9276 1.25 20.9132 C 1.25 20.0209 1.89126 19.2576 2.77021 19.1038 L 17.3847 16.5463 L 18.3801 9.91005 C 18.6539 8.08452 20.0428 6.62658 21.8529 6.26456 C 22.2591 6.18333 22.6542 6.44674 22.7354 6.85291 Z M 11.7885 9.76283 C 11.9195 9.36987 12.3442 9.1575 12.7372 9.28849 C 13.5569 9.56173 14.4431 9.56173 15.2628 9.28849 C 15.6558 9.1575 16.0805 9.36987 16.2115 9.76283 C 16.3425 10.1558 16.1301 10.5805 15.7372 10.7115 C 14.6096 11.0874 13.3904 11.0874 12.2628 10.7115 C 11.8699 10.5805 11.6575 10.1558 11.7885 9.76283 Z M 7.53033 13.4697 C 7.82322 13.7626 7.82322 14.2374 7.53033 14.5303 C 6.42924 15.6314 4.93585 16.25 3.37868 16.25 H 3 C 2.58579 16.25 2.25 15.9142 2.25 15.5 C 2.25 15.0858 2.58579 14.75 3 14.75 H 3.37868 C 4.53803 14.75 5.64989 14.2895 6.46967 13.4697 C 6.76256 13.1768 7.23744 13.1768 7.53033 13.4697 Z M 21.25 19.4888 C 21.25 18.3947 20.2629 17.5654 19.1852 17.754 L 3.02878 20.5814 C 2.86759 20.6096 2.75 20.7495 2.75 20.9132 C 2.75 21.0992 2.90081 21.25 3.08684 21.25 H 19.4888 C 20.4615 21.25 21.25 20.4615 21.25 19.4888 Z" fill="#FFFFFF" />
</svg>