<svg xmlns="http://www.w3.org/2000/svg" width="24" height="24" viewBox="0 0 24 24" fill="none">
  <path fill-rule="nonzero" clip-rule="nonzero" d="M 1.25 12 C 1.25 6.06294 6.06294 1.25 12 1.25 C 17.9371 1.25 22.75 6.06294 22.75 12 C 22.75 17.9371 17.9371 22.75 12 22.75 C 9.44948 22.75 7.10642 21.8618 5.26327 20.3778 C 5.26237 20.377 5.26147 20.3763 5.26057 20.3756 C 2.81481 18.4051 1.25 15.3853 1.25 12 Z M 8.04197 20.3628 C 9.2419 20.9317 10.5838 21.25 12 21.25 C 15.315 21.25 18.2226 19.5062 19.8558 16.8859 C 19.3678 16.16 18.7873 15.5156 18.1356 14.9642 C 15.5297 17.766 11.8666 19.7717 8.04197 20.3628 Z M16.9049 14.0831 C15.5476 13.2689 13.9877 12.8011 12.3637 12.7539 L12.1617 13.0137 C10.2597 15.4591 7.42232 16.9758 4.36003 17.2163 C4.82408 17.8947 5.37613 18.5081 5.99973 19.0401 C10.0216 18.9577 14.0996 17.0241 16.9049 14.0831 Z M 12.4304 11.2553 C 15.6411 11.3552 18.6342 12.8723 20.613 15.3801 C 21.0242 14.3331 21.25 13.1929 21.25 12 C 21.25 11.9391 21.2494 11.8784 21.2482 11.8178 L 20.7123 11.273 C 20.7116 11.2722 20.7108 11.2715 20.7101 11.2708 C 18.2199 8.78174 14.8726 7.34726 11.3621 7.25477 C 11.3781 8.6414 11.7377 10.0185 12.4304 11.2553 Z M 11.4794 5.75754 C 14.9385 5.86634 18.2504 7.14958 20.8747 9.38333 C 19.7905 5.70046 16.4763 2.97277 12.4946 2.763 L 12.0065 3.93432 C 11.7598 4.52647 11.5844 5.13819 11.4794 5.75754 Z M 10.8453 2.82138 C 9.87052 2.94276 8.94286 3.21581 8.08664 3.61615 C 6.69211 7.14679 6.70456 11.0203 8.12401 14.5448 C 9.21599 13.9342 10.1898 13.1058 10.9777 12.0928 L 11.0955 11.9413 C 9.64098 9.3109 9.45848 6.14964 10.6219 3.35739 L 10.8453 2.82138 Z M 6.75952 15.1716 C 5.41261 11.8684 5.19063 8.27859 6.09358 4.88093 C 4.05077 6.57765 2.75 9.13692 2.75 12 C 2.75 13.3349 3.03276 14.6037 3.54166 15.7499 C 4.65324 15.745 5.74056 15.5451 6.75952 15.1716 Z" fill="#FFFFFF" />
</svg>