<svg xmlns="http://www.w3.org/2000/svg" width="24" height="24" viewBox="0 0 24 24" fill="none">
  <path fill-rule="nonzero" clip-rule="nonzero" d="M 7.16204 2.39775 C 8.61705 1.66333 10.2613 1.25 12 1.25 C 17.9371 1.25 22.75 6.06294 22.75 12 C 22.75 17.9371 17.9371 22.75 12 22.75 C 9.44991 22.75 7.10539 21.8611 5.2623 20.377 C 2.81687 18.4077 1.25 15.3866 1.25 12 C 1.25 7.80186 3.65661 4.16715 7.16204 2.39775 Z M 8.08674 3.61591 C 7.03918 6.26794 6.78598 9.11212 7.32492 11.8554 C 7.40477 12.2619 7.14001 12.6561 6.73357 12.7359 C 6.32712 12.8158 5.93291 12.551 5.85306 12.1446 C 5.38026 9.73801 5.46082 7.26179 6.09363 4.88073 C 4.05006 6.57803 2.75 9.13761 2.75 12 C 2.75 13.3349 3.03259 14.6037 3.54148 15.7499 C 6.44943 15.7372 9.19142 14.3894 10.9777 12.0928 L 11.0955 11.9413 C 9.64098 9.3109 9.45848 6.14964 10.6219 3.35739 L 10.8453 2.8213 C 9.87001 2.94264 8.94257 3.21571 8.08674 3.61591 Z M 12.4946 2.763 L 12.0065 3.93432 C 11.0138 6.31691 11.1763 9.01623 12.4304 11.2553 C 15.6411 11.3552 18.6342 12.8723 20.613 15.3801 C 21.0242 14.3331 21.25 13.1929 21.25 12 C 21.25 11.9391 21.2494 11.8784 21.2482 11.8178 L 20.7123 11.273 C 20.7116 11.2722 20.7108 11.2715 20.7101 11.2708 C 18.8158 9.37736 16.4255 8.09415 13.8447 7.54774 C 13.4394 7.46195 13.1805 7.0639 13.2663 6.65867 C 13.3521 6.25343 13.7501 5.99448 14.1553 6.08027 C 16.6249 6.60311 18.9372 7.73416 20.8747 9.38333 C 19.7905 5.70047 16.4763 2.97277 12.4946 2.763 Z M 19.8558 16.8859 C 18.1689 14.3766 15.3764 12.8414 12.3637 12.7539 L 12.1617 13.0137 C 10.2597 15.4591 7.42222 16.9758 4.35988 17.2163 C 4.82386 17.8945 5.37591 18.5079 5.9997 19.0401 C 9.00318 18.9786 12.0439 17.8847 14.5666 16.0983 C 14.9046 15.8589 15.3727 15.9389 15.6121 16.277 C 15.8515 16.615 15.7715 17.0831 15.4334 17.3225 C 13.2471 18.8707 10.6847 19.9543 8.04159 20.3628 C 9.24139 20.9318 10.5831 21.25 12 21.25 C 15.315 21.25 18.2226 19.5062 19.8558 16.8859 Z" fill="#FFFFFF" />
</svg>