<svg xmlns="http://www.w3.org/2000/svg" width="24" height="24" viewBox="0 0 24 24" fill="none">
  <path fill-rule="nonzero" clip-rule="nonzero" d="M 12.5 2.75 C 11.5335 2.75 10.75 3.5335 10.75 4.5 C 10.75 5.4665 11.5335 6.25 12.5 6.25 C 13.4665 6.25 14.25 5.4665 14.25 4.5 C 14.25 3.5335 13.4665 2.75 12.5 2.75 Z M 9.25003 4.5 C 9.25003 2.70507 10.7051 1.25 12.5 1.25 C 14.295 1.25 15.75 2.70507 15.75 4.5 C 15.75 6.29493 14.295 7.75 12.5 7.75 C 10.7051 7.75 9.25003 6.29493 9.25003 4.5 Z M 10.9292 9.2672 C 11.129 9.25637 11.3217 9.25 11.5 9.25 C 12.0541 9.25 12.6539 9.31157 13.1938 9.38913 C 14.7154 9.60766 15.8674 10.7305 16.3278 12.1117 C 16.4321 12.4245 16.7484 12.6149 17.0737 12.5607 L 18.8767 12.2602 C 19.2853 12.1921 19.6717 12.4681 19.7398 12.8767 C 19.8079 13.2853 19.5319 13.6717 19.1233 13.7398 L 17.3203 14.0403 C 16.267 14.2159 15.2425 13.599 14.9048 12.586 C 14.5975 11.6642 13.862 11.0005 12.9806 10.8739 C 12.7129 10.8354 12.4404 10.8029 12.1757 10.7809 L 11.9045 13.4923 C 11.8206 14.332 11.8108 14.5537 11.8675 14.7518 C 11.9241 14.9498 12.0497 15.1328 12.5652 15.8009 L 16.9942 21.5419 C 17.2473 21.8698 17.1865 22.3408 16.8585 22.5938 C 16.5306 22.8468 16.0596 22.7861 15.8066 22.4581 L 11.3775 16.7172 C 11.3536 16.6862 11.33 16.6556 11.3067 16.6254 C 10.896 16.0941 10.5711 15.6738 10.4253 15.1645 C 10.2796 14.6551 10.3329 14.1265 10.4004 13.4585 C 10.4042 13.4205 10.4081 13.382 10.412 13.3431 L 10.6661 10.8023 C 8.99274 11.076 7.75003 12.6491 7.75003 14.5 C 7.75003 14.9142 7.41424 15.25 7.00003 15.25 C 6.58581 15.25 6.25003 14.9142 6.25003 14.5 C 6.25003 11.8593 8.16383 9.41707 10.9292 9.2672 Z M 10.1471 16.7646 C 10.5533 16.8458 10.8167 17.2409 10.7355 17.6471 C 10.3779 19.4349 9.4014 21.0394 7.97772 22.1783 L 7.46855 22.5857 C 7.1451 22.8444 6.67313 22.792 6.41438 22.4685 C 6.15562 22.1451 6.20806 21.6731 6.53151 21.4143 L 7.04067 21.007 C 8.18877 20.0885 8.97625 18.7946 9.26459 17.3529 C 9.34583 16.9467 9.74094 16.6833 10.1471 16.7646 Z" fill="#FFFFFF" />
</svg>