<svg xmlns="http://www.w3.org/2000/svg" width="24" height="24" viewBox="0 0 24 24" fill="none">
  <path d="M14.0002 4.5C14.0002 5.88071 12.8809 7 11.5002 7C10.1194 7 9.00016 5.88071 9.00016 4.5C9.00016 3.11929 10.1194 2 11.5002 2C12.8809 2 14.0002 3.11929 14.0002 4.5Z" fill="#FFFFFF" />
  <path fill-rule="nonzero" clip-rule="nonzero" d="M 12.528 10.7532 C 12.4899 10.7505 12.4422 10.75 12.27 10.75 H 11.1789 L 11.0877 11.6615 C 10.9137 13.4019 10.8532 14.1013 11.0087 14.7631 C 11.1641 15.4248 11.5298 16.024 12.4607 17.5048 L 15.0355 21.6008 C 15.256 21.9515 15.1504 22.4145 14.7997 22.635 C 14.449 22.8554 13.986 22.7498 13.7656 22.3992 L 11.1907 18.3031 C 11.1662 18.2642 11.142 18.2256 11.118 18.1875 C 10.2832 16.8599 9.76801 16.0407 9.54843 15.1061 C 9.32884 14.1715 9.42529 13.2086 9.58159 11.6482 C 9.58608 11.6034 9.59061 11.5581 9.59519 11.5123 L 9.67133 10.7509 C 9.17015 10.7535 8.79942 10.7632 8.50011 10.7995 C 8.1229 10.8453 7.94697 10.925 7.82234 11.0249 C 7.69772 11.1249 7.58178 11.2794 7.45526 11.6377 C 7.32194 12.0153 7.20712 12.526 7.03624 13.295 L 6.7323 14.6627 C 6.64245 15.067 6.24181 15.322 5.83746 15.2321 C 5.43311 15.1423 5.17816 14.7417 5.26802 14.3373 L 5.58172 12.9256 C 5.74022 12.2123 5.87365 11.6118 6.04085 11.1382 C 6.21828 10.6357 6.45997 10.1948 6.88375 9.85489 C 7.30754 9.51494 7.79038 9.37465 8.3194 9.31045 C 8.81792 9.24995 9.43308 9.24997 10.1638 9.25 L 12.27 9.25 C 12.2783 9.25 12.2866 9.25 12.2947 9.25 C 12.4307 9.24997 12.5364 9.24995 12.6353 9.25704 C 13.7493 9.33691 14.7043 10.0826 15.052 11.1439 C 15.0828 11.2381 15.1084 11.3407 15.1414 11.4727 L 15.1474 11.4966 C 15.2035 11.7211 15.2202 11.7848 15.2357 11.8293 C 15.4459 12.4354 16.0808 12.7839 16.705 12.6359 C 16.7509 12.6251 16.8136 12.6049 17.0331 12.5318 L 17.763 12.2885 C 18.1559 12.1575 18.5807 12.3699 18.7117 12.7628 C 18.8427 13.1558 18.6303 13.5805 18.2373 13.7115 L 17.5075 13.9548 C 17.4965 13.9585 17.4857 13.9621 17.4751 13.9656 C 17.3031 14.023 17.171 14.067 17.0511 14.0955 C 15.6779 14.4211 14.2811 13.6543 13.8185 12.321 C 13.7781 12.2045 13.7444 12.0695 13.7005 11.8936 C 13.6977 11.8827 13.695 11.8716 13.6922 11.8604 C 13.6504 11.6934 13.6384 11.6472 13.6265 11.6109 C 13.4685 11.1285 13.0344 10.7895 12.528 10.7532 Z M 9.41619 16.876 C 9.76083 17.1057 9.85396 17.5714 9.6242 17.916 L 6.6242 22.416 C 6.39443 22.7607 5.92878 22.8538 5.58414 22.624 C 5.23949 22.3943 5.14636 21.9286 5.37612 21.584 L 8.37612 17.084 C 8.60589 16.7393 9.07154 16.6462 9.41619 16.876 Z" fill="#FFFFFF" />
</svg>