<svg xmlns="http://www.w3.org/2000/svg" width="24" height="24" viewBox="0 0 24 24" fill="none">
  <path fill-rule="nonzero" clip-rule="nonzero" d="M12 22 C6.47715 22 2 17.5228 2 12 C2 6.47715 6.47715 2 12 2 C17.5228 2 22 6.47715 22 12 C22 17.5228 17.5228 22 12 22 Z M 12.0002 9 C 13.1048 9 14.0002 8.10457 14.0002 7 C 14.0002 5.89543 13.1048 5 12.0002 5 C 10.8956 5 10.0002 5.89543 10.0002 7 C 10.0002 8.10457 10.8956 9 12.0002 9 Z M 6.29284 9.30945 C 5.91154 9.14785 5.4714 9.3259 5.30971 9.7072 C 5.148 10.0885 5.32605 10.5288 5.70739 10.6905 L 5.70871 10.691 L 5.71133 10.6921 L 5.72038 10.696 L 5.75338 10.7097 C 5.78186 10.7215 5.82313 10.7385 5.87608 10.7599 C 5.98193 10.8026 6.13459 10.8631 6.32498 10.9355 C 6.70531 11.08 7.23854 11.2726 7.85162 11.4654 C 8.84049 11.7765 10.088 12.1049 11.2502 12.2131 V 13.4522 C 11.2502 13.8837 11.1262 14.306 10.8928 14.6689 L 8.36931 18.5944 C 8.14532 18.9429 8.2462 19.4069 8.59463 19.6309 C 8.94305 19.8549 9.40709 19.754 9.63108 19.4056 L 12.0002 15.7203 L 14.3693 19.4056 C 14.5933 19.754 15.0573 19.8549 15.4058 19.6309 C 15.7542 19.4069 15.8551 18.9429 15.6311 18.5944 L 13.1075 14.6689 C 12.8742 14.306 12.7502 13.8837 12.7502 13.4522 V 12.2131 C 13.9124 12.1049 15.1599 11.7765 16.1488 11.4654 C 16.7619 11.2726 17.2951 11.08 17.6754 10.9355 C 17.8658 10.8631 18.0185 10.8026 18.1243 10.7599 C 18.1773 10.7385 18.2185 10.7215 18.247 10.7097 L 18.28 10.696 L 18.2891 10.6921 L 18.2917 10.691 L 18.2928 10.6906 C 18.6741 10.5289 18.8524 10.0885 18.6907 9.7072 C 18.529 9.3259 18.0887 9.1479 17.7074 9.30952 L 17.6999 9.31266 L 17.6727 9.32399 C 17.6482 9.33416 17.6111 9.34942 17.5625 9.36905 C 17.4653 9.40832 17.3223 9.465 17.1426 9.53328 C 16.7828 9.67002 16.2777 9.85241 15.6987 10.0346 C 14.5205 10.4052 13.1114 10.75 12.0002 10.75 C 10.8889 10.75 9.47991 10.4052 8.30172 10.0346 C 7.72264 9.85241 7.21763 9.67002 6.85776 9.53328 C 6.67806 9.465 6.53512 9.40832 6.43791 9.36905 C 6.38932 9.34942 6.3522 9.33416 6.32767 9.32399 L 6.30046 9.31266 L 6.2942 9.31003 L 6.29284 9.30945 Z" fill="#FFFFFF" />
</svg>