<svg xmlns="http://www.w3.org/2000/svg" width="24" height="24" viewBox="0 0 24 24" fill="none">
  <path fill-rule="nonzero" clip-rule="nonzero" d="M12 22 C6.47715 22 2 17.5228 2 12 C2 6.47715 6.47715 2 12 2 C17.5228 2 22 6.47715 22 12 C22 17.5228 17.5228 22 12 22 Z M 12.75 9 C 12.75 8.58579 12.4142 8.25 12 8.25 C 11.5858 8.25 11.25 8.58579 11.25 9 L 11.25 11.25 H 9 C 8.58579 11.25 8.25 11.5858 8.25 12 C 8.25 12.4142 8.58579 12.75 9 12.75 H 11.25 V 15 C 11.25 15.4142 11.5858 15.75 12 15.75 C 12.4142 15.75 12.75 15.4142 12.75 15 L 12.75 12.75 H 15 C 15.4142 12.75 15.75 12.4142 15.75 12 C 15.75 11.5858 15.4142 11.25 15 11.25 H 12.75 V 9 Z" fill="#FFFFFF" />
</svg>