<svg xmlns="http://www.w3.org/2000/svg" width="24" height="24" viewBox="0 0 24 24" fill="none">
  <path fill-rule="nonzero" clip-rule="nonzero" d="M 12 22 C 7.28595 22 4.92893 22 3.46447 20.5355 C 2 19.0711 2 16.714 2 12 C 2 7.28595 2 4.92893 3.46447 3.46447 C 4.92893 2 7.28595 2 12 2 C 16.714 2 19.0711 2 20.5355 3.46447 C 22 4.92893 22 7.28595 22 12 C 22 16.714 22 19.0711 20.5355 20.5355 C 19.0711 22 16.714 22 12 22 Z M12 8.25 C11.5858 8.25 11.25 8.58579 11.25 9 L11.25 11.25 L9 11.25 C8.58579 11.25 8.25 11.5858 8.25 12 C8.25 12.4142 8.58579 12.75 9 12.75 L11.25 12.75 L11.25 15 C11.25 15.4142 11.5858 15.75 12 15.75 C12.4142 15.75 12.75 15.4142 12.75 15 L12.75 12.75 L15 12.75 C15.4142 12.75 15.75 12.4142 15.75 12 C15.75 11.5858 15.4142 11.25 15 11.25 L12.75 11.25 L12.75 9 C12.75 8.58579 12.4142 8.25 12 8.25 Z" fill="#FFFFFF" />
</svg>