<svg xmlns="http://www.w3.org/2000/svg" width="24" height="24" viewBox="0 0 24 24" fill="none">
  <path opacity="0.5" d="M3.46447 20.5355C4.92893 22 7.28595 22 12 22C16.714 22 19.0711 22 20.5355 20.5355C22 19.0711 22 16.714 22 12C22 7.28595 22 4.92893 20.5355 3.46447C19.0711 2 16.714 2 12 2C7.28595 2 4.92893 2 3.46447 3.46447C2 4.92893 2 7.28595 2 12C2 16.714 2 19.0711 3.46447 20.5355Z" fill="#FFFFFF" />
  <path fill-rule="nonzero" clip-rule="nonzero" d="M14.0002 7.25 L16.0002 7.25 C17.519 7.25 18.7502 8.48122 18.7502 10 C18.7502 11.2469 17.9203 12.3 16.7828 12.637 L18.6362 15.6025 C18.8557 15.9538 18.749 16.4165 18.3977 16.636 C18.0464 16.8555 17.5837 16.7488 17.3642 16.3975 L15.0845 12.75 L14.7502 12.75 L14.7502 16 C14.7502 16.4142 14.4144 16.75 14.0002 16.75 C13.586 16.75 13.2502 16.4142 13.2502 16 L13.2502 8 C13.2502 7.58579 13.586 7.25 14.0002 7.25 Z M 14.7502 8.75 V 11.25 H 16.0002 C 16.6906 11.25 17.2502 10.6904 17.2502 10 C 17.2502 9.30964 16.6906 8.75 16.0002 8.75 H 14.7502 Z" fill="#FFFFFF" />
  <path fill-rule="nonzero" clip-rule="nonzero" d="M9.21606 7.77629 L11.7161 15.7763 C11.8396 16.1717 11.6193 16.5923 11.2239 16.7159 C10.8285 16.8394 10.4079 16.6191 10.2843 16.2237 L9.57381 13.95 L7.42659 13.95 L6.71606 16.2237 C6.59251 16.6191 6.17185 16.8394 5.77649 16.7159 C5.38114 16.5923 5.16079 16.1717 5.28434 15.7763 L7.78434 7.77629 C7.88219 7.46319 8.17216 7.25 8.5002 7.25 C8.82824 7.25 9.11822 7.46319 9.21606 7.77629 Z M 7.89534 12.45 H 9.10506 L 8.5002 10.5145 L 7.89534 12.45 Z" fill="#FFFFFF" />
</svg>