<svg xmlns="http://www.w3.org/2000/svg" width="24" height="24" viewBox="0 0 24 24" fill="none">
  <path fill-rule="nonzero" clip-rule="nonzero" d="M 2 12 C 2 7.28595 2 4.92893 3.46447 3.46447 C 4.92893 2 7.28595 2 12 2 C 16.714 2 19.0711 2 20.5355 3.46447 C 22 4.92893 22 7.28595 22 12 C 22 16.714 22 19.0711 20.5355 20.5355 C 19.0711 22 16.714 22 12 22 C 7.28595 22 4.92893 22 3.46447 20.5355 C 2 19.0711 2 16.714 2 12 Z M 9.21586 7.77629 C 9.11801 7.46319 8.82804 7.25 8.5 7.25 C 8.17196 7.25 7.88199 7.46319 7.78414 7.77629 L 5.28414 15.7763 C 5.16059 16.1717 5.38094 16.5923 5.77629 16.7159 C 6.17165 16.8394 6.59231 16.6191 6.71586 16.2237 L 7.42639 13.95 H 9.57361 L 10.2841 16.2237 C 10.4077 16.6191 10.8283 16.8394 11.2237 16.7159 C 11.6191 16.5923 11.8394 16.1717 11.7159 15.7763 L 9.21586 7.77629 Z M7.89514 12.45 L8.5 10.5145 L9.10486 12.45 L7.89514 12.45 Z M13.25 8 L13.25 16 C13.25 16.4142 13.5858 16.75 14 16.75 C14.4142 16.75 14.75 16.4142 14.75 16 L14.75 12.75 L15.0843 12.75 L17.364 16.3975 C17.5835 16.7488 18.0462 16.8555 18.3975 16.636 C18.7488 16.4165 18.8555 15.9538 18.636 15.6025 L16.7826 12.637 C17.9201 12.3 18.75 11.2469 18.75 10 C18.75 8.48122 17.5188 7.25 16 7.25 L14 7.25 C13.5858 7.25 13.25 7.58579 13.25 8 Z M 14.75 11.25 V 8.75 H 16 C 16.6904 8.75 17.25 9.30964 17.25 10 C 17.25 10.6904 16.6904 11.25 16 11.25 H 14.75 Z" fill="#FFFFFF" />
</svg>