<svg xmlns="http://www.w3.org/2000/svg" width="24" height="24" viewBox="0 0 24 24" fill="none">
  <path fill-rule="nonzero" clip-rule="nonzero" d="M3.17157 5.17157 C4.34315 4 6.22876 4 10 4 L11.5 4 C15.2712 4 17.1569 4 18.3284 5.17157 C19.2715 6.11466 19.4554 7.52043 19.4913 10 L19.9999 10 C20.9427 10 21.4141 10 21.707 10.2929 C21.9999 10.5858 21.9999 11.0572 21.9999 12 C21.9999 12.9428 21.9999 13.4142 21.707 13.7071 C21.4141 14 20.9427 14 19.9999 14 L19.4913 14 C19.4554 16.4796 19.2715 17.8853 18.3284 18.8284 C17.1569 20 15.2712 20 11.5 20 L10 20 C6.22876 20 4.34315 20 3.17157 18.8284 C2 17.6569 2 15.7712 2 12 C2 8.22876 2 6.34315 3.17157 5.17157 Z M 7.65562 8.63577 C 7.45446 8.27368 6.99786 8.14322 6.63577 8.34438 C 6.27675 8.54383 6.14545 8.99441 6.33933 9.35499 L 6.34434 9.36522 C 6.35119 9.37962 6.36431 9.40834 6.38177 9.45198 C 6.41665 9.53919 6.46907 9.6865 6.5235 9.89878 C 6.63224 10.3228 6.75 11.0101 6.75 12 C 6.75 12.9899 6.63224 13.6772 6.5235 14.1012 C 6.46907 14.3135 6.41665 14.4608 6.38177 14.548 C 6.36431 14.5917 6.35119 14.6204 6.34434 14.6348 L 6.33933 14.645 C 6.14545 15.0056 6.27675 15.4562 6.63577 15.6556 C 6.99786 15.8568 7.45446 15.7263 7.65562 15.3642 L 7 15 C 7.65562 15.3642 7.65616 15.3632 7.65634 15.3629 L 7.65711 15.3615 L 7.65878 15.3585 L 7.66263 15.3514 L 7.67226 15.333 C 7.67951 15.3189 7.68839 15.3012 7.69863 15.2797 C 7.71912 15.2367 7.74506 15.1787 7.77448 15.1051 C 7.83335 14.9579 7.90593 14.749 7.9765 14.4738 C 8.11776 13.9228 8.25 13.1101 8.25 12 C 8.25 10.8899 8.11776 10.0772 7.9765 9.52622 C 7.90593 9.251 7.83335 9.04206 7.77448 8.89489 C 7.74506 8.82135 7.71912 8.76335 7.69863 8.72032 C 7.68839 8.69881 7.67951 8.68106 7.67226 8.66699 L 7.66263 8.64864 L 7.65878 8.64152 L 7.65711 8.63847 L 7.65634 8.63708 L 7.65562 8.63577 Z M 7 9 C 7.65052 8.6386 7.65541 8.63548 7.65562 8.63577 L 7 9 Z M10.1358 8.34438 C9.77675 8.54383 9.64545 8.99441 9.83933 9.35499 L9.84434 9.36522 C9.85119 9.37962 9.86431 9.40834 9.88177 9.45198 C9.91665 9.53919 9.96907 9.6865 10.0235 9.89878 C10.1322 10.3228 10.25 11.0101 10.25 12 C10.25 12.9899 10.1322 13.6772 10.0235 14.1012 C9.96907 14.3135 9.91665 14.4608 9.88177 14.548 C9.86431 14.5917 9.85119 14.6204 9.84434 14.6348 L9.83933 14.645 C9.64545 15.0056 9.77675 15.4562 10.1358 15.6556 C10.4979 15.8568 10.9545 15.7263 11.1556 15.3642 C11.1554 15.3645 11.1505 15.3614 10.5024 15.0014 L11.1556 15.3642 L11.1563 15.3629 L11.1571 15.3615 L11.1588 15.3585 L11.1626 15.3514 L11.1723 15.333 C11.1795 15.3189 11.1884 15.3012 11.1986 15.2797 C11.2191 15.2367 11.2451 15.1787 11.2745 15.1051 C11.3333 14.9579 11.4059 14.749 11.4765 14.4738 C11.6178 13.9228 11.75 13.1101 11.75 12 C11.75 10.8899 11.6178 10.0772 11.4765 9.52622 C11.4059 9.251 11.3333 9.04206 11.2745 8.89489 C11.2451 8.82135 11.2191 8.76335 11.1986 8.72032 C11.1884 8.69881 11.1795 8.68106 11.1723 8.66699 L11.1626 8.64864 L11.1588 8.64152 L11.1571 8.63847 L11.1563 8.63708 C11.1562 8.63675 11.1556 8.63577 10.5 9 L11.1556 8.63577 C10.9545 8.27368 10.4979 8.14322 10.1358 8.34438 Z" fill="#FFFFFF" />
</svg>