<svg xmlns="http://www.w3.org/2000/svg" width="24" height="24" viewBox="0 0 24 24" fill="none">
  <path fill-rule="nonzero" clip-rule="nonzero" d="M3.17157 5.17157 C4.34315 4 6.22876 4 10 4 L11.5 4 C15.2712 4 17.1569 4 18.3284 5.17157 C19.2715 6.11466 19.4554 7.52043 19.4913 10 L19.9999 10 C20.9427 10 21.4141 10 21.707 10.2929 C21.9999 10.5858 21.9999 11.0572 21.9999 12 C21.9999 12.9428 21.9999 13.4142 21.707 13.7071 C21.4141 14 20.9427 14 19.9999 14 L19.4913 14 C19.4554 16.4796 19.2715 17.8853 18.3284 18.8284 C17.1569 20 15.2712 20 11.5 20 L10 20 C6.22876 20 4.34315 20 3.17157 18.8284 C2 17.6569 2 15.7712 2 12 C2 8.22876 2 6.34315 3.17157 5.17157 Z M6.63577 8.34438 C6.27675 8.54383 6.14545 8.99441 6.33933 9.35499 L6.34434 9.36522 C6.35119 9.37962 6.36431 9.40834 6.38177 9.45198 C6.41665 9.53919 6.46907 9.6865 6.5235 9.89878 C6.63224 10.3228 6.75 11.0101 6.75 12 C6.75 12.9899 6.63224 13.6772 6.5235 14.1012 C6.46907 14.3135 6.41665 14.4608 6.38177 14.548 C6.36431 14.5917 6.35119 14.6204 6.34434 14.6348 L6.33933 14.645 C6.14545 15.0056 6.27675 15.4562 6.63577 15.6556 C6.99786 15.8568 7.45446 15.7263 7.65562 15.3642 L7.65634 15.3629 L7.65711 15.3615 L7.65878 15.3585 L7.66263 15.3514 L7.67226 15.333 C7.67951 15.3189 7.68839 15.3012 7.69863 15.2797 C7.71912 15.2367 7.74506 15.1787 7.77448 15.1051 C7.83335 14.9579 7.90593 14.749 7.9765 14.4738 C8.11776 13.9228 8.25 13.1101 8.25 12 C8.25 10.8899 8.11776 10.0772 7.9765 9.52622 C7.90593 9.251 7.83335 9.04206 7.77448 8.89489 C7.74506 8.82135 7.71912 8.76335 7.69863 8.72032 C7.68839 8.69881 7.67951 8.68106 7.67226 8.66699 L7.66263 8.64864 L7.65878 8.64152 L7.65711 8.63847 L7.65634 8.63708 C7.65634 8.63708 7.65562 8.63577 7 9 L7.65562 8.63577 C7.45446 8.27368 6.99786 8.14322 6.63577 8.34438 Z" fill="#FFFFFF" />
</svg>