<svg xmlns="http://www.w3.org/2000/svg" width="24" height="24" viewBox="0 0 24 24" fill="none">
  <path fill-rule="nonzero" clip-rule="nonzero" d="M20.5279 10.3736 L20.5293 10.3759 L20.5334 10.3829 L20.5378 10.3907 L20.542 10.3982 L20.5465 10.4064 L20.5508 10.4146 L20.5548 10.4223 L20.5589 10.4303 L20.5624 10.4376 L20.5636 10.44 C20.8976 11.1097 20.6887 11.7911 20.3893 12.3718 C20.0834 12.9652 19.5646 13.6783 18.9338 14.5317 L15.8344 18.725 C14.8762 20.0215 14.1109 21.0569 13.4667 21.7264 C12.8619 22.3548 12.0839 22.9644 11.1563 22.6801 C10.2121 22.3907 9.9395 21.4349 9.82483 20.5838 C9.70266 19.6771 9.7027 18.4053 9.70274 16.8178 L9.70275 16.4435 C9.70276 15.8364 9.69612 15.4473 9.6538 15.1663 C9.61682 14.9207 9.56438 14.8478 9.53447 14.8165 C9.50071 14.7867 9.42195 14.7349 9.1586 14.7013 C8.86048 14.6633 8.45456 14.6619 7.81795 14.6619 C6.72671 14.6619 5.82693 14.6553 5.1526 14.5523 C4.49825 14.4524 3.82188 14.2296 3.45438 13.5931 L3.45289 13.5907 L3.44884 13.5838 L3.44441 13.576 L3.44023 13.5685 L3.4358 13.5603 L3.43146 13.5522 L3.42748 13.5445 L3.42344 13.5365 L3.41989 13.5293 L3.41872 13.5268 C3.08164 12.8509 3.3028 12.1735 3.60669 11.6029 C3.90984 11.0337 4.41863 10.3454 5.02896 9.51969 L8.16596 5.27538 C9.12413 3.97895 9.88942 2.9435 10.5337 2.27405 C11.1384 1.64564 11.9164 1.03608 12.844 1.32035 C13.7882 1.60969 14.0608 2.56554 14.1755 3.4166 C14.2977 4.32329 14.2977 5.59503 14.2976 7.18255 L14.2976 7.55704 C14.2976 8.1711 14.2993 8.55425 14.3379 8.83366 C14.3706 9.07063 14.4187 9.13635 14.4456 9.16446 C14.4825 9.19704 14.5688 9.2529 14.8402 9.29064 C15.1403 9.33237 15.5523 9.33858 16.1824 9.33858 L16.2426 9.33858 C17.3008 9.33855 18.1757 9.33852 18.8294 9.42992 C19.4779 9.5206 20.1572 9.73163 20.5279 10.3736 Z M 11.6145 3.31416 C 11.0465 3.90435 10.3387 4.85927 9.335 6.21733 L 6.27286 10.3604 C 5.61517 11.2502 5.17513 11.849 4.93062 12.3081 C 4.81161 12.5315 4.76693 12.6725 4.75421 12.7578 C 4.74635 12.8105 4.75115 12.8343 4.75742 12.8496 C 4.78161 12.8852 4.88663 12.9943 5.379 13.0695 C 5.9169 13.1516 6.69032 13.1619 7.81795 13.1619 L 7.86392 13.1619 C 8.44106 13.1618 8.94393 13.1618 9.3483 13.2134 C 9.78148 13.2686 10.2118 13.3942 10.568 13.7293 L 10.5739 13.7348 L 10.5796 13.7404 C 10.9296 14.0839 11.0719 14.5099 11.1371 14.9429 C 11.1994 15.3568 11.2028 15.8658 11.2028 16.4435 L 11.2027 16.753 C 11.2027 18.42 11.2044 19.5894 11.3114 20.3835 C 11.3647 20.7789 11.4363 21.0108 11.505 21.1404 C 11.5564 21.2374 11.586 21.2438 11.5943 21.2456 L 11.5958 21.2459 L 11.5973 21.2464 C 11.6078 21.25 11.6446 21.2628 11.7583 21.2056 C 11.9003 21.1341 12.1032 20.98 12.3858 20.6863 C 12.9538 20.0961 13.6616 19.1412 14.6654 17.7831 L 17.7275 13.6401 C 18.3815 12.7553 18.8172 12.1478 19.0561 11.6845 C 19.2608 11.2873 19.2385 11.1528 19.2249 11.1171 C 19.2024 11.0843 19.1016 10.9826 18.6217 10.9155 C 18.0846 10.8404 17.3161 10.8386 16.1824 10.8386 C 15.5796 10.8386 15.0567 10.8352 14.6336 10.7763 C 14.1968 10.7156 13.7655 10.5841 13.4123 10.252 L 13.4065 10.2465 L 13.4008 10.2409 C 13.0476 9.89419 12.9114 9.46874 12.852 9.03887 C 12.7975 8.64454 12.7976 8.15622 12.7976 7.60538 L 12.7976 7.24733 C 12.7976 5.58044 12.7959 4.41099 12.6889 3.61692 C 12.6356 3.22153 12.564 2.98959 12.4954 2.86008 C 12.4439 2.76301 12.4143 2.75666 12.406 2.75487 L 12.4045 2.75451 L 12.403 2.75401 C 12.3925 2.7504 12.3557 2.73767 12.242 2.79487 C 12.1 2.86633 11.8972 3.02042 11.6145 3.31416 Z" fill="#FFFFFF" />
</svg>