<svg xmlns="http://www.w3.org/2000/svg" width="24" height="24" viewBox="0 0 24 24" fill="none">
  <path fill-rule="nonzero" clip-rule="nonzero" d="M 12.3567 6.79173 C 12.7267 6.56855 13.3708 6.24675 13.9885 6.63333 C 14.621 7.02911 14.5877 7.76061 14.5333 8.18375 C 14.4717 8.66282 14.3017 9.29745 14.102 10.0425 L 14.0468 10.2485 C 14.0077 10.3943 13.977 10.5092 13.9531 10.6087 C 13.9409 10.6592 13.9318 10.7009 13.9249 10.7358 C 14.036 10.7768 14.1989 10.8232 14.4614 10.8935 L 14.5117 10.907 C 15.0041 11.0389 15.4487 11.158 15.7772 11.2971 C 16.1032 11.4352 16.5469 11.6869 16.6905 12.2181 L 16.6926 12.2258 L 16.6949 12.2343 L 16.6969 12.2423 L 16.6988 12.2502 L 16.7006 12.2582 L 16.7024 12.2663 L 16.7042 12.2749 L 16.7058 12.2829 C 16.8158 12.8294 16.5226 13.2517 16.281 13.5173 C 16.0319 13.7914 15.6621 14.0888 15.2547 14.4132 L 13.1952 16.0532 C 12.5818 16.5417 12.0622 16.9555 11.6433 17.2083 C 11.2733 17.4314 10.6292 17.7532 10.0114 17.3666 C 9.37896 16.9709 9.41224 16.2394 9.46664 15.8162 C 9.52824 15.3371 9.69834 14.7025 9.89803 13.9574 L 9.9532 13.7515 C 9.99228 13.6057 10.023 13.4908 10.0469 13.3913 C 10.0578 13.3462 10.0663 13.3081 10.0728 13.2756 C 9.96145 13.2288 9.79443 13.175 9.53863 13.1065 C 9.02039 12.9676 8.55593 12.8407 8.21199 12.6899 C 7.88373 12.5459 7.44693 12.2881 7.30504 11.7632 L 7.30294 11.7555 L 7.30071 11.747 L 7.29871 11.739 L 7.29681 11.7311 L 7.29498 11.7232 L 7.29321 11.7152 L 7.29141 11.7066 L 7.28984 11.6986 C 7.17835 11.1451 7.48144 10.7253 7.72358 10.466 C 7.96296 10.2096 8.3168 9.92793 8.70292 9.62054 L 10.8047 7.94679 C 11.4181 7.45826 11.9377 7.04446 12.3567 6.79173 Z M11.6948 9.15552 L9.67973 10.7602 C9.33829 11.0321 9.10378 11.2204 8.94371 11.3679 C9.16106 11.4482 9.47254 11.5359 9.92686 11.6576 C10.2304 11.7389 10.5148 11.8254 10.7517 11.936 C10.9846 12.0448 11.239 12.2074 11.4161 12.4795 L11.4189 12.478 C11.603 12.79 11.6099 13.1076 11.5775 13.3666 C11.5494 13.5905 11.4801 13.8492 11.4121 14.1025 L11.362 14.2893 C11.1717 14.9995 11.0398 15.4968 10.9776 15.8551 C11.291 15.6505 11.7076 15.3204 12.3052 14.8445 L14.3203 13.2398 C14.6622 12.9675 14.897 12.7756 15.0552 12.6256 C14.8372 12.5484 14.5276 12.4642 14.0731 12.3424 C13.7886 12.2662 13.5095 12.1904 13.2842 12.0951 C13.0461 11.9945 12.7747 11.8352 12.5894 11.5358 L12.5852 11.529 L12.5811 11.5221 C12.397 11.21 12.3901 10.8924 12.4225 10.6334 C12.4506 10.4095 12.5199 10.1509 12.5879 9.89758 L12.638 9.71067 C12.8283 9.00044 12.9602 8.50318 13.0223 8.14483 C12.709 8.34951 12.2924 8.67962 11.6948 9.15552 Z" fill="#FFFFFF" />
  <path fill-rule="nonzero" clip-rule="nonzero" d="M12 1.25 C17.9371 1.25 22.75 6.06294 22.75 12 C22.75 17.9371 17.9371 22.75 12 22.75 C6.06294 22.75 1.25 17.9371 1.25 12 C1.25 6.06294 6.06294 1.25 12 1.25 Z M2.75 12 C2.75 17.1086 6.89137 21.25 12 21.25 C17.1086 21.25 21.25 17.1086 21.25 12 C21.25 6.89137 17.1086 2.75 12 2.75 C6.89137 2.75 2.75 6.89137 2.75 12 Z" fill="#FFFFFF" />
</svg>