<svg xmlns="http://www.w3.org/2000/svg" width="24" height="24" viewBox="0 0 24 24" fill="none">
  <path fill-rule="nonzero" clip-rule="nonzero" d="M12 1.25 C12.6047 1.25 13.1616 1.40029 13.7712 1.65242 C14.3599 1.89589 15.0437 2.25472 15.8951 2.70154 L17.9626 3.7865 C19.0076 4.33487 19.8438 4.77371 20.4895 5.20491 C21.1585 5.65164 21.6737 6.12201 22.0489 6.75918 C22.4228 7.39421 22.591 8.08184 22.6717 8.90072 C22.75 9.69557 22.75 10.6731 22.75 11.9025 L22.75 12.0975 C22.75 13.3269 22.75 14.3044 22.6717 15.0993 C22.591 15.9182 22.4228 16.6058 22.0489 17.2408 C21.6737 17.878 21.1585 18.3484 20.4895 18.7951 C19.8438 19.2263 19.0076 19.6651 17.9626 20.2135 L15.8951 21.2985 C15.0437 21.7453 14.3599 22.1041 13.7712 22.3476 C13.1616 22.5997 12.6047 22.75 12 22.75 C11.3953 22.75 10.8384 22.5997 10.2288 22.3476 C9.64006 22.1041 8.95628 21.7453 8.10481 21.2984 L6.03737 20.2135 C4.99241 19.6651 4.15616 19.2263 3.51047 18.7951 C2.84154 18.3484 2.32632 17.878 1.95112 17.2408 C1.57718 16.6058 1.40896 15.9182 1.32829 15.0993 C1.24999 14.3044 1.24999 13.3268 1.25 12.0974 L1.25 11.9026 C1.24999 10.6731 1.24999 9.69558 1.32829 8.90072 C1.40896 8.08184 1.57718 7.39421 1.95112 6.75918 C2.32632 6.12201 2.84154 5.65164 3.51047 5.20491 C4.15616 4.77371 4.99242 4.33487 6.03739 3.78651 L8.1049 2.70153 C8.95633 2.25471 9.64008 1.89588 10.2288 1.65242 C10.8384 1.40029 11.3953 1.25 12 1.25 Z M8.7708 4.04608 L8.50895 4.18349 L17.0088 8.65708 L20.3395 6.99174 C20.1604 6.81578 19.9387 6.64078 19.6565 6.45232 C19.0845 6.07032 18.3189 5.66748 17.2292 5.09563 L15.2292 4.04608 C14.3395 3.57917 13.716 3.2528 13.198 3.03856 C12.6938 2.83004 12.3395 2.75 12 2.75 C11.6605 2.75 11.3062 2.83004 10.802 3.03856 C10.284 3.2528 9.66052 3.57917 8.7708 4.04608 Z M 6.94466 5.00439 L 6.7708 5.09563 C 5.68111 5.66747 4.91553 6.07032 4.34352 6.45232 C 4.06131 6.64078 3.83956 6.81578 3.66054 6.99174 L 12 11.1615 L 15.3572 9.48289 L 7.15069 5.16369 C 7.07096 5.12173 7.00191 5.06743 6.94466 5.00439 Z M 2.93768 8.30737 C 2.88718 8.52125 2.84901 8.76413 2.82106 9.04778 C 2.75084 9.7606 2.75 10.6644 2.75 11.9415 V 12.0585 C 2.75 13.3356 2.75084 14.2394 2.82106 14.9522 C 2.88974 15.6494 3.02022 16.1002 3.24367 16.4797 C 3.46587 16.857 3.78727 17.1762 4.34352 17.5477 C 4.91553 17.9297 5.68111 18.3325 6.7708 18.9044 L 8.7708 19.9539 C 9.66052 20.4208 10.284 20.7472 10.802 20.9614 C 10.9656 21.0291 11.1134 21.0832 11.25 21.1255 V 12.4635 L 2.93768 8.30737 Z M 12.75 21.1255 C 12.8866 21.0832 13.0344 21.0291 13.198 20.9614 C 13.716 20.7472 14.3395 20.4208 15.2292 19.9539 L 17.2292 18.9044 C 18.3189 18.3325 19.0845 17.9297 19.6565 17.5477 C 20.2127 17.1762 20.5341 16.857 20.7563 16.4797 C 20.9798 16.1002 21.1103 15.6494 21.1789 14.9522 C 21.2492 14.2394 21.25 13.3356 21.25 12.0585 V 11.9415 C 21.25 10.6644 21.2492 9.7606 21.1789 9.04778 C 21.151 8.76412 21.1128 8.52125 21.0623 8.30736 L 17.75 9.96352 V 13 C 17.75 13.4142 17.4142 13.75 17 13.75 C 16.5858 13.75 16.25 13.4142 16.25 13 V 10.7135 L 12.75 12.4635 V 21.1255 Z" fill="#FFFFFF" />
</svg>