<svg xmlns="http://www.w3.org/2000/svg" width="24" height="24" viewBox="0 0 24 24" fill="none">
  <path fill-rule="nonzero" clip-rule="nonzero" d="M11.7501 6.40636 C13.2305 6.40636 13.378 6.5625 14.1441 6.5625 C14.7825 6.5625 16.6977 5.00011 17.6553 5.00011 C18.6129 5.00011 19.7302 5.56261 19.7302 7.18761 L19.7302 9.0625 C19.7282 9.55469 19.5494 11.0634 18.8494 10.6602 C19.6769 11.6382 19.7605 12.7785 19.7492 13.8825 C19.9722 13.947 20.1997 14.0195 20.4205 14.095 C21.1044 14.3289 21.8297 14.6271 22.1574 14.8387 C22.5053 15.0634 22.6052 15.5277 22.3805 15.8756 C22.1558 16.2236 21.6915 16.3235 21.3436 16.0988 C21.1874 15.9979 20.6223 15.7493 19.9352 15.5144 C19.8592 15.4883 19.783 15.463 19.7072 15.4385 C19.6609 15.8724 19.5461 16.2683 19.3754 16.6292 L19.3989 16.6416 C19.8086 16.8581 20.1888 17.1067 20.4312 17.2652 C20.4732 17.2926 20.511 17.3173 20.5441 17.3387 C20.8921 17.5634 20.992 18.0277 20.7673 18.3756 C20.5425 18.7236 20.0783 18.8235 19.7303 18.5988 C19.6892 18.5722 19.6454 18.5436 19.5991 18.5134 C19.3538 18.3533 19.0401 18.1485 18.6981 17.9678 C18.6179 17.9254 18.5408 17.887 18.467 17.8524 C16.7367 19.4748 13.6302 20 11.7501 20 C9.86991 20 6.76347 19.4748 5.03317 17.8524 C4.95935 17.887 4.88218 17.9254 4.80199 17.9678 C4.45999 18.1485 4.1463 18.3533 3.90097 18.5134 C3.85472 18.5436 3.8109 18.5722 3.76978 18.5988 C3.42182 18.8235 2.95757 18.7236 2.73285 18.3756 C2.50813 18.0277 2.60803 17.5634 2.95599 17.3387 C2.98912 17.3173 3.02694 17.2926 3.06889 17.2652 C3.3113 17.1067 3.69148 16.8581 4.1012 16.6416 L4.12478 16.6292 C3.95408 16.2684 3.83925 15.8724 3.79298 15.4386 C3.71731 15.4631 3.64124 15.4884 3.56532 15.5144 C2.87823 15.7493 2.3132 15.9979 2.15698 16.0988 C1.80903 16.3235 1.34478 16.2236 1.12006 15.8756 C0.895339 15.5277 0.995241 15.0634 1.3432 14.8387 C1.67085 14.6271 2.39614 14.3289 3.08003 14.095 C3.30072 14.0196 3.52812 13.947 3.751 13.8826 C3.73963 12.7786 3.82323 11.6382 4.65075 10.6602 C3.95081 11.0634 3.77197 9.55469 3.77004 9.0625 L3.77004 7.1875 C3.77004 5.5625 4.88724 5 5.84485 5 C6.80245 5 8.71769 6.5625 9.3561 6.5625 C10.1222 6.5625 10.2698 6.40636 11.7501 6.40636 Z M11.0745 15.6004 C10.9751 15.6342 10.8535 15.6876 10.7464 15.7738 C10.6389 15.8603 10.5001 16.0206 10.5001 16.25 C10.5001 16.4794 10.6389 16.6397 10.7464 16.7262 C10.8535 16.8124 10.9751 16.8658 11.0745 16.8996 C11.2771 16.9686 11.5162 17 11.7501 17 C11.984 17 12.2231 16.9686 12.4257 16.8996 C12.5251 16.8658 12.6467 16.8124 12.7537 16.7262 C12.8612 16.6397 13.0001 16.4794 13.0001 16.25 C13.0001 16.0206 12.8612 15.8603 12.7537 15.7738 C12.6467 15.6876 12.5251 15.6342 12.4257 15.6004 C12.2231 15.5314 11.984 15.5 11.7501 15.5 C11.5162 15.5 11.2771 15.5314 11.0745 15.6004 Z M13.9201 12.5005 C13.7778 12.7387 13.7101 13.0274 13.7101 13.3125 C13.7101 13.5976 13.7778 13.8863 13.9201 14.1245 C14.0566 14.3529 14.326 14.625 14.7301 14.625 C15.1342 14.625 15.4036 14.3529 15.54 14.1245 C15.6823 13.8863 15.7501 13.5976 15.7501 13.3125 C15.7501 13.0274 15.6823 12.7387 15.54 12.5005 C15.4036 12.2721 15.1342 12 14.7301 12 C14.326 12 14.0566 12.2721 13.9201 12.5005 Z M7.96016 12.5005 C7.81786 12.7387 7.75009 13.0274 7.75009 13.3125 C7.75009 13.5976 7.81786 13.8863 7.96016 14.1245 C8.09658 14.3529 8.36599 14.625 8.7701 14.625 C9.17421 14.625 9.44362 14.3529 9.58004 14.1245 C9.72234 13.8863 9.79011 13.5976 9.79011 13.3125 C9.79011 13.0274 9.72234 12.7387 9.58004 12.5005 C9.44362 12.2721 9.17421 12 8.7701 12 C8.36599 12 8.09658 12.2721 7.96016 12.5005 Z" fill="#FFFFFF" />
</svg>