<svg xmlns="http://www.w3.org/2000/svg" width="24" height="24" viewBox="0 0 24 24" fill="none">
  <path fill-rule="nonzero" clip-rule="nonzero" d="M 12 22 C 7.28595 22 4.92893 22 3.46447 20.5355 C 2 19.0711 2 16.714 2 12 C 2 7.28595 2 4.92893 3.46447 3.46447 C 4.92893 2 7.28595 2 12 2 C 16.714 2 19.0711 2 20.5355 3.46447 C 22 4.92893 22 7.28595 22 12 C 22 16.714 22 19.0711 20.5355 20.5355 C 19.0711 22 16.714 22 12 22 Z M16.0303 8.96967 C15.7374 8.67678 15.2626 8.67678 14.9697 8.96967 L10.5 13.4393 L9.03033 11.9697 C8.73744 11.6768 8.26256 11.6768 7.96967 11.9697 C7.67678 12.2626 7.67678 12.7374 7.96967 13.0303 L9.96967 15.0303 C10.2626 15.3232 10.7374 15.3232 11.0303 15.0303 L16.0303 10.0303 C16.3232 9.73744 16.3232 9.26256 16.0303 8.96967 Z" fill="#FFFFFF" />
</svg>