<svg xmlns="http://www.w3.org/2000/svg" width="24" height="24" viewBox="0 0 24 24" fill="none">
  <path fill-rule="nonzero" clip-rule="nonzero" d="M 22 12 C 22 17.5228 17.5228 22 12 22 C 6.47715 22 2 17.5228 2 12 C 2 6.47715 6.47715 2 12 2 C 17.5228 2 22 6.47715 22 12 Z M16.0303 8.96967 C15.7374 8.67678 15.2626 8.67678 14.9697 8.96967 L12.7348 11.2045 L10.5 13.4393 L9.03033 11.9697 C8.73744 11.6768 8.26256 11.6768 7.96967 11.9697 C7.67678 12.2626 7.67678 12.7374 7.96967 13.0303 L9.96967 15.0303 C10.2626 15.3232 10.7374 15.3232 11.0303 15.0303 L16.0303 10.0303 C16.3232 9.73744 16.3232 9.26256 16.0303 8.96967 Z" fill="#FFFFFF" />
</svg>