<svg xmlns="http://www.w3.org/2000/svg" width="24" height="24" viewBox="0 0 24 24" fill="none">
  <path d="M16.0303 10.0303C16.3232 9.73744 16.3232 9.26256 16.0303 8.96967C15.7374 8.67678 15.2626 8.67678 14.9697 8.96967L10.5 13.4393L9.03033 11.9697C8.73744 11.6768 8.26256 11.6768 7.96967 11.9697C7.67678 12.2626 7.67678 12.7374 7.96967 13.0303L9.96967 15.0303C10.2626 15.3232 10.7374 15.3232 11.0303 15.0303L16.0303 10.0303Z" fill="#FFFFFF" />
  <path fill-rule="nonzero" clip-rule="nonzero" d="M12 1.25 C17.9371 1.25 22.75 6.06294 22.75 12 C22.75 17.9371 17.9371 22.75 12 22.75 C6.06294 22.75 1.25 17.9371 1.25 12 C1.25 6.06294 6.06294 1.25 12 1.25 Z M2.75 12 C2.75 17.1086 6.89137 21.25 12 21.25 C17.1086 21.25 21.25 17.1086 21.25 12 C21.25 6.89137 17.1086 2.75 12 2.75 C6.89137 2.75 2.75 6.89137 2.75 12 Z" fill="#FFFFFF" />
</svg>