<svg xmlns="http://www.w3.org/2000/svg" width="24" height="24" viewBox="0 0 24 24" fill="none">
  <path fill-rule="nonzero" clip-rule="nonzero" d="M 22 12 C 22 17.5228 17.5228 22 12 22 C 6.47715 22 2 17.5228 2 12 C 2 6.47715 6.47715 2 12 2 C 17.5228 2 22 6.47715 22 12 Z M8.96963 8.96965 C8.67673 9.26254 8.67673 9.73742 8.96963 10.0303 L10.9393 12 L8.96965 13.9697 C8.67676 14.2625 8.67676 14.7374 8.96965 15.0303 C9.26254 15.3232 9.73742 15.3232 10.0303 15.0303 L12 13.0607 L13.9696 15.0303 C14.2625 15.3232 14.7374 15.3232 15.0303 15.0303 C15.3232 14.7374 15.3232 14.2625 15.0303 13.9696 L13.0606 12 L15.0303 10.0303 C15.3232 9.73744 15.3232 9.26256 15.0303 8.96967 C14.7374 8.67678 14.2625 8.67678 13.9696 8.96967 L12 10.9393 L10.0303 8.96965 C9.73739 8.67676 9.26252 8.67676 8.96963 8.96965 Z" fill="#FFFFFF" />
</svg>