<svg xmlns="http://www.w3.org/2000/svg" width="24" height="24" viewBox="0 0 24 24" fill="none">
  <path fill-rule="nonzero" clip-rule="nonzero" d="M 12 22 C 7.28595 22 4.92893 22 3.46447 20.5355 C 2 19.0711 2 16.714 2 12 C 2 7.28595 2 4.92893 3.46447 3.46447 C 4.92893 2 7.28595 2 12 2 C 16.714 2 19.0711 2 20.5355 3.46447 C 22 4.92893 22 7.28595 22 12 C 22 16.714 22 19.0711 20.5355 20.5355 C 19.0711 22 16.714 22 12 22 Z M8.96965 8.96967 C8.67676 9.26256 8.67676 9.73744 8.96965 10.0303 L10.9393 12 L8.96967 13.9697 C8.67678 14.2626 8.67678 14.7374 8.96967 15.0303 C9.26256 15.3232 9.73744 15.3232 10.0303 15.0303 L12 13.0607 L13.9696 15.0303 C14.2625 15.3232 14.7374 15.3232 15.0303 15.0303 C15.3232 14.7374 15.3232 14.2625 15.0303 13.9697 L13.0606 12 L15.0303 10.0303 C15.3232 9.73746 15.3232 9.26258 15.0303 8.96969 C14.7374 8.6768 14.2625 8.6768 13.9696 8.96969 L12 10.9394 L10.0303 8.96967 C9.73742 8.67678 9.26254 8.67678 8.96965 8.96967 Z" fill="#FFFFFF" />
</svg>