<svg xmlns="http://www.w3.org/2000/svg" width="24" height="24" viewBox="0 0 24 24" fill="none">
  <path fill-rule="nonzero" clip-rule="nonzero" d="M 12 22 C 6.47715 22 2 17.5228 2 12 C 2 6.47715 6.47715 2 12 2 C 17.5228 2 22 6.47715 22 12 C 22 17.5228 17.5228 22 12 22 Z M12.2857 8.75 C12.7974 8.75 13.281 8.84961 13.7168 9.02731 C14.1003 9.18372 14.5381 8.99958 14.6945 8.61604 C14.8509 8.23249 14.6667 7.79477 14.2832 7.63836 C13.669 7.38791 12.9931 7.25 12.2857 7.25 C9.55414 7.25 7.25 9.32875 7.25 12 C7.25 14.6712 9.55414 16.75 12.2857 16.75 C12.9931 16.75 13.669 16.6121 14.2832 16.3616 C14.6667 16.2052 14.8509 15.7675 14.6945 15.384 C14.5381 15.0004 14.1003 14.8163 13.7168 14.9727 C13.281 15.1504 12.7974 15.25 12.2857 15.25 C10.2834 15.25 8.75 13.747 8.75 12 C8.75 10.253 10.2834 8.75 12.2857 8.75 Z" fill="#FFFFFF" />
</svg>