<svg xmlns="http://www.w3.org/2000/svg" width="24" height="24" viewBox="0 0 24 24" fill="none">
  <path fill-rule="nonzero" clip-rule="nonzero" d="M15 1.25 C16.8722 1.25 18.424 2.62205 18.7047 4.41551 C19.4687 4.55348 20.1208 4.81753 20.6517 5.34835 C21.2536 5.95027 21.5125 6.70814 21.6335 7.60825 C21.75 8.47522 21.75 9.57754 21.75 10.9451 L21.75 16.0549 C21.75 17.4225 21.75 18.5248 21.6335 19.3918 C21.5125 20.2919 21.2536 21.0497 20.6517 21.6517 C20.0497 22.2536 19.2919 22.5125 18.3918 22.6335 C17.5248 22.75 16.4225 22.75 15.0549 22.75 L11.9451 22.75 C10.5775 22.75 9.47522 22.75 8.60825 22.6335 C7.70814 22.5125 6.95027 22.2536 6.34835 21.6517 C5.81753 21.1208 5.55348 20.4687 5.41551 19.7047 C3.62205 19.424 2.25 17.8722 2.25 16 L2.25 9.94357 C2.24998 8.10582 2.24997 6.65019 2.40314 5.51098 C2.56076 4.33856 2.89288 3.38961 3.64124 2.64124 C4.38961 1.89288 5.33856 1.56076 6.51098 1.40314 C7.65019 1.24997 9.10583 1.24998 10.9436 1.25 L15 1.25 Z M 17.1293 4.27117 C 16.8265 3.38623 15.9876 2.75 15 2.75 H 11 C 9.09318 2.75 7.73851 2.75159 6.71085 2.88976 C 5.70476 3.02502 5.12511 3.27869 4.7019 3.7019 C 4.27869 4.12511 4.02502 4.70476 3.88976 5.71085 C 3.75159 6.73851 3.75 8.09318 3.75 10 V 16 C 3.75 16.9876 4.38624 17.8265 5.27117 18.1293 C 5.24998 17.5194 5.24999 16.8297 5.25 16.0549 V 10.9451 C 5.24998 9.57754 5.24996 8.47522 5.36652 7.60825 C 5.48754 6.70814 5.74643 5.95027 6.34835 5.34835 C 6.95027 4.74643 7.70814 4.48754 8.60825 4.36652 C 9.47522 4.24996 10.5775 4.24998 11.9451 4.25 H 15.0549 C 15.8297 4.24999 16.5194 4.24998 17.1293 4.27117 Z M7.40901 6.40901 C7.13225 6.68577 6.9518 7.07435 6.85315 7.80812 C6.75159 8.56347 6.75 9.56458 6.75 11 L6.75 16 C6.75 17.4354 6.75159 18.4365 6.85315 19.1919 C6.9518 19.9257 7.13225 20.3142 7.40901 20.591 C7.68577 20.8678 8.07435 21.0482 8.80812 21.1469 C9.56347 21.2484 10.5646 21.25 12 21.25 L15 21.25 C16.4354 21.25 17.4365 21.2484 18.1919 21.1469 C18.9257 21.0482 19.3142 20.8678 19.591 20.591 C19.8678 20.3142 20.0482 19.9257 20.1469 19.1919 C20.2484 18.4365 20.25 17.4354 20.25 16 L20.25 11 C20.25 9.56458 20.2484 8.56347 20.1469 7.80812 C20.0482 7.07435 19.8678 6.68577 19.591 6.40901 C19.3142 6.13225 18.9257 5.9518 18.1919 5.85315 C17.4365 5.75159 16.4354 5.75 15 5.75 L12 5.75 C10.5646 5.75 9.56347 5.75159 8.80812 5.85315 C8.07435 5.9518 7.68577 6.13225 7.40901 6.40901 Z" fill="#FFFFFF" />
</svg>