<svg xmlns="http://www.w3.org/2000/svg" width="24" height="24" viewBox="0 0 24 24" fill="none">
  <path fill-rule="nonzero" clip-rule="nonzero" d="M7.75 5.61798 L7.75 10.2499 L8 10.2499 C8.41421 10.2499 8.75 10.5857 8.75 10.9999 L8.75 16.9999 C8.75 19.071 7.07107 20.7499 5 20.7499 C2.92893 20.7499 1.25 19.071 1.25 16.9999 L1.25 10.9999 C1.25 10.5857 1.58579 10.2499 2 10.2499 L2.25 10.2499 L2.25 6.61798 C2.25 5.95513 2.6245 5.34917 3.21738 5.05273 L5.21738 4.05273 C6.38095 3.47094 7.75 4.31706 7.75 5.61798 Z M2.75 11.7499 L2.75 16.9999 C2.75 18.2426 3.75736 19.2499 5 19.2499 C6.24264 19.2499 7.25 18.2426 7.25 16.9999 L7.25 11.7499 L2.75 11.7499 Z M 6.25 10.2499 V 5.61798 C 6.25 5.43213 6.05442 5.31126 5.8882 5.39437 L 3.8882 6.39437 C 3.8035 6.43672 3.75 6.52329 3.75 6.61798 V 10.2499 H 6.25 Z" fill="#FFFFFF" />
  <path fill-rule="nonzero" clip-rule="nonzero" d="M16.5 4.24994 C19.9518 4.24994 22.75 7.04816 22.75 10.4999 C22.75 13.6979 20.3482 16.3349 17.25 16.7054 L17.25 19.2499 L19.5 19.2499 C19.9142 19.2499 20.25 19.5857 20.25 19.9999 C20.25 20.4142 19.9142 20.7499 19.5 20.7499 L13.5 20.7499 C13.0858 20.7499 12.75 20.4142 12.75 19.9999 C12.75 19.5857 13.0858 19.2499 13.5 19.2499 L15.75 19.2499 L15.75 16.7054 C12.6518 16.3349 10.25 13.6979 10.25 10.4999 C10.25 7.04816 13.0482 4.24994 16.5 4.24994 Z M 16.5 15.2499 C 19.1234 15.2499 21.25 13.1233 21.25 10.4999 C 21.25 7.87659 19.1234 5.74994 16.5 5.74994 C 13.8766 5.74994 11.75 7.87659 11.75 10.4999 C 11.75 13.1233 13.8766 15.2499 16.5 15.2499 Z" fill="#FFFFFF" />
</svg>