<svg xmlns="http://www.w3.org/2000/svg" width="24" height="24" viewBox="0 0 24 24" fill="none">
  <path fill-rule="nonzero" clip-rule="nonzero" d="M 11.9426 1.25 H 12.0574 C 14.3658 1.24999 16.1748 1.24998 17.5863 1.43975 C 19.031 1.63399 20.1711 2.03933 21.0659 2.93414 C 21.9607 3.82895 22.366 4.96897 22.5603 6.41371 C 22.75 7.82519 22.75 9.63423 22.75 11.9426 V 12.0574 C 22.75 14.3658 22.75 16.1748 22.5603 17.5863 C 22.366 19.031 21.9607 20.1711 21.0659 21.0659 C 20.1711 21.9607 19.031 22.366 17.5863 22.5603 C 16.1748 22.75 14.3658 22.75 12.0574 22.75 H 11.9426 C 9.63423 22.75 7.82519 22.75 6.41371 22.5603 C 4.96897 22.366 3.82895 21.9607 2.93414 21.0659 C 2.03933 20.1711 1.63399 19.031 1.43975 17.5863 C 1.24998 16.1748 1.24999 14.3658 1.25 12.0574 V 11.9426 C 1.24999 9.63423 1.24998 7.82519 1.43975 6.41371 C 1.63399 4.96897 2.03933 3.82895 2.93414 2.93414 C 3.82895 2.03933 4.96897 1.63399 6.41371 1.43975 C 7.82519 1.24998 9.63423 1.24999 11.9426 1.25 Z M 6.61358 2.92637 C 5.33517 3.09825 4.56445 3.42514 3.9948 3.9948 C 3.42514 4.56445 3.09825 5.33517 2.92637 6.61358 C 2.75159 7.91356 2.75 9.62177 2.75 12 C 2.75 14.3782 2.75159 16.0864 2.92637 17.3864 C 3.09825 18.6648 3.42514 19.4355 3.9948 20.0052 C 4.56445 20.5749 5.33517 20.9018 6.61358 21.0736 C 7.91356 21.2484 9.62177 21.25 12 21.25 C 14.3782 21.25 16.0864 21.2484 17.3864 21.0736 C 18.6648 20.9018 19.4355 20.5749 20.0052 20.0052 C 20.5749 19.4355 20.9018 18.6648 21.0736 17.3864 C 21.2484 16.0864 21.25 14.3782 21.25 12 C 21.25 9.62177 21.2484 7.91356 21.0736 6.61358 C 20.9018 5.33517 20.5749 4.56445 20.0052 3.9948 C 19.4355 3.42514 18.6648 3.09825 17.3864 2.92637 C 16.0864 2.75159 14.3782 2.75 12 2.75 C 9.62177 2.75 7.91356 2.75159 6.61358 2.92637 Z" fill="#FFFFFF" />
  <path fill-rule="evenodd" clip-rule="evenodd" d="M9.28571 8.75C7.28342 8.75 5.75 10.253 5.75 12C5.75 13.747 7.28342 15.25 9.28571 15.25C9.79735 15.25 10.281 15.1504 10.7168 14.9727C11.1003 14.8163 11.5381 15.0004 11.6945 15.384C11.8509 15.7675 11.6667 16.2052 11.2832 16.3616C10.669 16.6121 9.99311 16.75 9.28571 16.75C6.55414 16.75 4.25 14.6712 4.25 12C4.25 9.32875 6.55414 7.25 9.28571 7.25C9.99311 7.25 10.669 7.38791 11.2832 7.63836C11.6667 7.79477 11.8509 8.23249 11.6945 8.61604C11.5381 8.99958 11.1003 9.18372 10.7168 9.02731C10.281 8.84961 9.79735 8.75 9.28571 8.75Z" fill="#FFFFFF" />
  <path fill-rule="evenodd" clip-rule="evenodd" d="M17.2857 8.75C15.2834 8.75 13.75 10.253 13.75 12C13.75 13.747 15.2834 15.25 17.2857 15.25C17.7974 15.25 18.281 15.1504 18.7168 14.9727C19.1003 14.8163 19.5381 15.0004 19.6945 15.384C19.8509 15.7675 19.6667 16.2052 19.2832 16.3616C18.669 16.6121 17.9931 16.75 17.2857 16.75C14.5541 16.75 12.25 14.6712 12.25 12C12.25 9.32875 14.5541 7.25 17.2857 7.25C17.9931 7.25 18.669 7.38791 19.2832 7.63836C19.6667 7.79477 19.8509 8.23249 19.6945 8.61604C19.5381 8.99958 19.1003 9.18372 18.7168 9.02731C18.281 8.84961 17.7974 8.75 17.2857 8.75Z" fill="#FFFFFF" />
</svg>