<svg xmlns="http://www.w3.org/2000/svg" width="24" height="24" viewBox="0 0 24 24" fill="none">
  <path fill-rule="nonzero" clip-rule="nonzero" d="M 2 12 C 2 7.28595 2 4.92893 3.46447 3.46447 C 4.92893 2 7.28595 2 12 2 C 16.714 2 19.0711 2 20.5355 3.46447 C 22 4.92893 22 7.28595 22 12 C 22 16.714 22 19.0711 20.5355 20.5355 C 19.0711 22 16.714 22 12 22 C 7.28595 22 4.92893 22 3.46447 20.5355 C 2 19.0711 2 16.714 2 12 Z M 13.75 12 C 13.75 10.253 15.2834 8.75 17.2857 8.75 C 17.7974 8.75 18.281 8.84961 18.7168 9.02731 C 19.1003 9.18372 19.5381 8.99958 19.6945 8.61604 C 19.8509 8.23249 19.6667 7.79477 19.2832 7.63836 C 18.669 7.38791 17.9931 7.25 17.2857 7.25 C 14.5541 7.25 12.25 9.32875 12.25 12 C 12.25 14.6712 14.5541 16.75 17.2857 16.75 C 17.9931 16.75 18.669 16.6121 19.2832 16.3616 C 19.6667 16.2052 19.8509 15.7675 19.6945 15.384 C 19.5381 15.0004 19.1003 14.8163 18.7168 14.9727 C 18.281 15.1504 17.7974 15.25 17.2857 15.25 C 15.2834 15.25 13.75 13.747 13.75 12 Z M9.28571 8.75 C9.79735 8.75 10.281 8.84961 10.7168 9.02731 C11.1003 9.18372 11.5381 8.99958 11.6945 8.61604 C11.8509 8.23249 11.6667 7.79477 11.2832 7.63836 C10.669 7.38791 9.99311 7.25 9.28571 7.25 C6.55414 7.25 4.25 9.32875 4.25 12 C4.25 14.6712 6.55414 16.75 9.28571 16.75 C9.99311 16.75 10.669 16.6121 11.2832 16.3616 C11.6667 16.2052 11.8509 15.7675 11.6945 15.384 C11.5381 15.0004 11.1003 14.8163 10.7168 14.9727 C10.281 15.1504 9.79735 15.25 9.28571 15.25 C7.28342 15.25 5.75 13.747 5.75 12 C5.75 10.253 7.28342 8.75 9.28571 8.75 Z" fill="#FFFFFF" />
</svg>