<svg xmlns="http://www.w3.org/2000/svg" width="24" height="24" viewBox="0 0 24 24" fill="none">
  <path fill-rule="nonzero" clip-rule="nonzero" d="M12 2.25 C13.5188 2.25 14.75 3.48122 14.75 5 C14.75 5.78328 14.4224 6.48937 13.8982 6.98967 C13.9625 7.10375 14.0289 7.22288 14.0977 7.34619 L15.895 10.5686 C16.0727 10.8873 16.1784 11.0749 16.2675 11.2018 C16.2954 11.2415 16.3152 11.2655 16.3271 11.2788 L16.3288 11.2791 C16.344 11.2695 16.3699 11.2518 16.4082 11.2208 C16.529 11.1231 16.6825 10.9715 16.9412 10.7138 L17.0202 10.635 C17.3393 10.317 17.6294 10.0279 17.8934 9.79145 C17.8007 9.54509 17.75 9.27824 17.75 9 C17.75 7.75736 18.7574 6.75 20 6.75 C21.2426 6.75 22.25 7.75736 22.25 9 C22.25 9.98302 21.6196 10.8188 20.741 11.1251 C20.738 11.1822 20.7344 11.2399 20.7302 11.298 C20.7072 11.6228 20.6654 12.0116 20.6176 12.4565 L20.4329 14.1733 C20.403 14.4516 20.3742 14.7293 20.3459 15.0034 C20.2338 16.0858 20.1267 17.1211 19.9668 17.994 C19.8657 18.5459 19.7382 19.0659 19.5617 19.5172 C19.3866 19.9648 19.1451 20.3925 18.7881 20.712 C18.1583 21.2758 17.3986 21.522 16.4918 21.6381 C15.6169 21.75 14.5137 21.75 13.1398 21.75 L10.8602 21.75 C9.48625 21.75 8.38307 21.75 7.50819 21.6381 C6.60137 21.522 5.84173 21.2758 5.21187 20.712 C4.8549 20.3925 4.61339 19.9648 4.43833 19.5172 C4.26178 19.0659 4.1343 18.5459 4.03322 17.994 C3.87332 17.121 3.76616 16.0856 3.65412 15.0031 C3.62574 14.7289 3.59705 14.4517 3.5671 14.1733 L3.38243 12.4564 C3.33458 12.0116 3.29277 11.6228 3.26976 11.298 C3.26564 11.2399 3.26199 11.1822 3.25898 11.1251 C2.3804 10.8188 1.75 9.98302 1.75 9 C1.75 7.75736 2.75736 6.75 4 6.75 C5.24264 6.75 6.25 7.75736 6.25 9 C6.25 9.27824 6.19926 9.54508 6.10664 9.79144 C6.37058 10.0279 6.6607 10.317 6.97976 10.635 L7.05879 10.7138 C7.31753 10.9715 7.47104 11.1231 7.5918 11.2208 C7.63012 11.2518 7.65596 11.2695 7.67118 11.2791 L7.67287 11.2788 C7.68483 11.2655 7.70459 11.2415 7.7325 11.2018 C7.82158 11.0749 7.92732 10.8873 8.10504 10.5686 L9.90223 7.34628 C9.97102 7.22294 10.0375 7.10378 10.1018 6.98967 C9.57756 6.48937 9.25 5.78328 9.25 5 C9.25 3.48122 10.4812 2.25 12 2.25 Z M10.75 5 C10.75 5.48504 11.0261 5.90689 11.4332 6.11457 C11.6025 6.20095 11.7944 6.25 12 6.25 C12.2056 6.25 12.3975 6.20095 12.5668 6.11457 C12.9739 5.90689 13.25 5.48504 13.25 5 C13.25 4.30964 12.6904 3.75 12 3.75 C11.3096 3.75 10.75 4.30964 10.75 5 Z M11.2046 8.09072 L9.39842 11.3291 C9.24306 11.6078 9.09945 11.8653 8.96009 12.0638 C8.81155 12.2753 8.60887 12.5089 8.29846 12.6456 C8.03016 12.7637 7.73429 12.8049 7.44397 12.7648 C7.10824 12.7184 6.84933 12.5495 6.64834 12.3869 C6.45971 12.2343 6.25065 12.026 6.02438 11.8006 L6.0002 11.7765 C5.62484 11.4026 5.35033 11.1315 5.14066 10.9397 C5.02084 11.0103 4.89386 11.0701 4.76107 11.1179 C4.76255 11.1417 4.7642 11.1664 4.76601 11.192 C4.78687 11.4865 4.82571 11.8486 4.87514 12.3082 L5.0585 14.0129 C5.0905 14.3104 5.12056 14.6003 5.14978 14.8822 C5.2193 15.553 5.28409 16.178 5.35903 16.75 L18.641 16.75 C18.7159 16.178 18.7807 15.553 18.8502 14.8822 C18.8794 14.6003 18.9095 14.3104 18.9415 14.0129 L19.1249 12.3082 C19.1743 11.8486 19.2131 11.4865 19.234 11.192 C19.2358 11.1664 19.2374 11.1417 19.2389 11.1179 C19.1061 11.0701 18.9792 11.0103 18.8593 10.9397 C18.6497 11.1315 18.3752 11.4026 17.9998 11.7765 L17.9756 11.8006 C17.7493 12.026 17.5403 12.2343 17.3517 12.3869 C17.1507 12.5495 16.8918 12.7184 16.556 12.7648 C16.2657 12.8049 15.9698 12.7637 15.7015 12.6456 C15.3911 12.5089 15.1885 12.2753 15.0399 12.0638 C14.9005 11.8653 14.7569 11.6077 14.6016 11.3291 L12.7954 8.09071 C12.7143 7.94528 12.6401 7.81229 12.5712 7.69043 C12.3867 7.72949 12.1955 7.75 12 7.75 C11.8045 7.75 11.6133 7.72949 11.4288 7.69043 C11.3599 7.81229 11.2857 7.94528 11.2046 8.09072 Z M 5.61801 18.25 C 5.68337 18.526 5.75521 18.7662 5.83525 18.9708 C 5.96405 19.3 6.0962 19.4904 6.21228 19.5943 C 6.52851 19.8774 6.9509 20.0545 7.69857 20.1502 C 8.46719 20.2486 9.47421 20.25 10.9121 20.25 H 13.0879 C 14.5258 20.25 15.5328 20.2486 16.3014 20.1502 C 17.0491 20.0545 17.4715 19.8774 17.7877 19.5943 C 17.9038 19.4904 18.036 19.3 18.1647 18.9708 C 18.2448 18.7662 18.3166 18.526 18.382 18.25 H 5.61801 Z M3.25 9 C3.25 9.41421 3.58579 9.75 4 9.75 L4.00904 9.74995 C4.23192 9.74737 4.4311 9.64827 4.56799 9.48982 C4.68188 9.35799 4.75 9.18789 4.75 9 C4.75 8.58579 4.41421 8.25 4 8.25 C3.58579 8.25 3.25 8.58579 3.25 9 Z M19.25 9 C19.25 9.18789 19.3181 9.35799 19.432 9.48982 C19.5689 9.64827 19.7681 9.74737 19.991 9.74995 L20 9.75 C20.4142 9.75 20.75 9.41421 20.75 9 C20.75 8.58579 20.4142 8.25 20 8.25 C19.5858 8.25 19.25 8.58579 19.25 9 Z" fill="#FFFFFF" />
</svg>