<svg xmlns="http://www.w3.org/2000/svg" width="24" height="24" viewBox="0 0 24 24" fill="none">
  <path fill-rule="nonzero" clip-rule="nonzero" d="M12 10.7502 C12.5017 10.7502 12.8144 11.075 12.9865 11.2998 C13.1509 11.5144 13.3163 11.8114 13.486 12.1159 L13.6075 12.3338 C13.6303 12.3748 13.6482 12.4069 13.6639 12.4345 C13.6913 12.4409 13.723 12.4481 13.7628 12.4571 L14.0006 12.5109 C14.3284 12.5849 14.6542 12.6586 14.9043 12.7571 C15.1804 12.8659 15.5547 13.0779 15.699 13.5418 C15.8407 13.9975 15.6619 14.3835 15.5057 14.6316 C15.3611 14.8612 15.1414 15.118 14.9165 15.3809 L14.7559 15.5688 C14.7214 15.6091 14.6954 15.6395 14.6735 15.6658 C14.6765 15.7022 14.6806 15.7445 14.686 15.8011 L14.7102 16.0505 C14.7444 16.4025 14.7774 16.7426 14.7653 17.0146 C14.7526 17.2999 14.6841 17.7317 14.297 18.0256 C13.8976 18.3288 13.4565 18.2627 13.1767 18.1826 C12.919 18.1087 12.6144 17.9684 12.3077 17.8271 L12.0849 17.7245 C12.0675 17.7164 12.0516 17.7091 12.0371 17.7025 C12.0237 17.6964 12.0115 17.6908 12 17.6856 C11.9761 17.6964 11.9486 17.7091 11.9151 17.7245 L11.6923 17.8271 C11.3856 17.9684 11.0811 18.1087 10.8233 18.1826 C10.5436 18.2627 10.1025 18.3288 9.70309 18.0256 C9.31592 17.7317 9.24746 17.2999 9.23476 17.0146 C9.22264 16.7426 9.25567 16.4025 9.28984 16.0506 L9.31402 15.8011 C9.31951 15.7445 9.32359 15.7022 9.32658 15.6658 C9.30468 15.6395 9.27869 15.6091 9.24421 15.5688 L9.08354 15.3809 C8.85863 15.118 8.63894 14.8612 8.49439 14.6316 C8.3382 14.3835 8.15937 13.9975 8.30109 13.5418 C8.44535 13.0779 8.81965 12.8659 9.09579 12.7571 C9.34588 12.6586 9.67166 12.5849 9.99947 12.5109 L10.2373 12.4571 C10.277 12.4481 10.3088 12.4409 10.3361 12.4345 C10.3518 12.4069 10.3698 12.3748 10.3926 12.3339 L10.5141 12.1159 C10.6837 11.8114 10.8492 11.5144 11.0135 11.2998 C11.1857 11.075 11.4983 10.7502 12 10.7502 Z M11.8011 12.8878 L11.7028 13.0642 L11.6804 13.1048 C11.6019 13.2484 11.4718 13.4863 11.255 13.6509 C11.0336 13.8189 10.7673 13.8767 10.6116 13.9106 L10.5683 13.9201 L10.3774 13.9633 C10.2022 14.0029 10.0595 14.0352 9.93753 14.0659 C10.0169 14.1636 10.12 14.2849 10.2541 14.4417 L10.3842 14.5939 L10.4142 14.6286 C10.5221 14.7529 10.6964 14.9536 10.777 15.2128 C10.8566 15.4688 10.8291 15.7326 10.8118 15.899 L10.807 15.9458 L10.7874 16.1488 C10.7691 16.3371 10.7549 16.4873 10.7455 16.6095 C10.8497 16.5636 10.9682 16.5091 11.1091 16.4443 L11.2878 16.362 L11.3282 16.3431 C11.4717 16.2754 11.7214 16.1576 12 16.1576 C12.2787 16.1576 12.5284 16.2754 12.6719 16.3431 L12.7123 16.362 L12.891 16.4443 C13.0318 16.5091 13.1504 16.5636 13.2546 16.6095 C13.2451 16.4873 13.231 16.3371 13.2127 16.1488 L13.193 15.9458 L13.1883 15.899 C13.1709 15.7326 13.1435 15.4688 13.2231 15.2128 C13.3037 14.9536 13.478 14.7529 13.5859 14.6286 L13.6159 14.5939 L13.746 14.4417 C13.8801 14.2849 13.9832 14.1636 14.0625 14.0659 C13.9405 14.0352 13.7978 14.0029 13.6227 13.9633 L13.4318 13.9201 L13.3884 13.9106 C13.2327 13.8767 12.9664 13.8189 12.7451 13.6509 C12.5282 13.4863 12.3982 13.2484 12.3196 13.1048 L12.2973 13.0642 L12.199 12.8878 C12.1228 12.7512 12.0582 12.6353 12 12.5346 C11.9419 12.6353 11.8773 12.7512 11.8011 12.8878 Z M10.7394 17.0117 L10.7387 17.0085 C10.7391 17.0107 10.7393 17.0117 10.7394 17.0117 Z M13.2607 17.0117 C13.2607 17.0117 13.261 17.0107 13.2614 17.0085 L13.2607 17.0117 Z" fill="#FFFFFF" />
  <path fill-rule="nonzero" clip-rule="nonzero" d="M12 1.25 C12.7064 1.25 13.155 1.74935 13.4567 2.19717 C13.7629 2.65167 14.0824 3.30648 14.4612 4.08282 L16.724 8.71958 C16.943 9.16842 17.0839 9.45523 17.2062 9.65422 C17.291 9.79232 17.3374 9.83677 17.3483 9.8462 C17.3795 9.86072 17.4086 9.86537 17.4355 9.86347 C17.4528 9.85385 17.5014 9.82316 17.5908 9.74055 C17.7529 9.59068 17.9547 9.36242 18.2747 8.9981 L18.3038 8.96498 C18.8765 8.313 19.3443 7.78043 19.7296 7.42022 C19.9272 7.23552 20.1348 7.0653 20.3531 6.9433 C20.575 6.81924 20.8537 6.71955 21.1717 6.74748 C21.6447 6.78903 22.0645 7.02828 22.3588 7.38387 C22.7139 7.81286 22.7538 8.41259 22.7498 8.93104 C22.7455 9.49109 22.6755 10.2344 22.5886 11.158 L22.3512 13.6798 C22.1662 15.6455 22.0213 17.185 21.7704 18.381 C21.5147 19.5995 21.1303 20.5636 20.3963 21.3145 C19.6512 22.0767 18.7357 22.4254 17.6043 22.5909 C16.516 22.75 15.1414 22.75 13.4194 22.75 L10.5806 22.75 C8.85869 22.75 7.48403 22.75 6.39573 22.5909 C5.26436 22.4254 4.34888 22.0767 3.60382 21.3145 C2.86979 20.5636 2.4854 19.5995 2.22971 18.381 C1.97873 17.185 1.83384 15.6455 1.64885 13.6798 L1.41151 11.158 C1.32458 10.2344 1.25461 9.4911 1.25026 8.93104 C1.24622 8.41259 1.28618 7.81286 1.64125 7.38387 C1.93556 7.02828 2.35533 6.78903 2.8284 6.74748 C3.14638 6.71955 3.42506 6.81924 3.64699 6.9433 C3.86525 7.0653 4.07291 7.23552 4.27048 7.42022 C4.65579 7.78042 5.1236 8.313 5.69628 8.96497 L5.72538 8.9981 C6.04541 9.36242 6.24721 9.59068 6.40929 9.74055 C6.49864 9.82316 6.54723 9.85385 6.56457 9.86347 C6.59142 9.86537 6.62056 9.86072 6.65181 9.8462 C6.66267 9.83677 6.70903 9.79233 6.79388 9.65422 C6.91614 9.45523 7.05705 9.16843 7.27608 8.71959 L9.53886 4.08283 C9.91768 3.30649 10.2372 2.65167 10.5434 2.19718 C10.8451 1.74936 11.2937 1.25 12 1.25 Z M10.861 4.79379 L8.60836 9.40976 C8.40969 9.81692 8.23706 10.1707 8.07192 10.4395 C7.90282 10.7147 7.67982 11.0082 7.33245 11.183 C7.01901 11.3408 6.66586 11.3987 6.31634 11.3435 C5.92305 11.2813 5.62461 11.0579 5.39095 10.8419 C5.16444 10.6325 4.91089 10.3438 4.62331 10.0164 L4.59843 9.98804 C3.9896 9.29494 3.57063 8.81934 3.24613 8.51599 C3.08554 8.36587 2.97998 8.28889 2.9151 8.25262 L2.91421 8.25213 C2.88044 8.26445 2.84123 8.28885 2.80252 8.33352 C2.80284 8.33368 2.80222 8.33567 2.80089 8.3399 C2.79153 8.36975 2.74704 8.5116 2.75021 8.91937 C2.754 9.40668 2.81715 10.0849 2.90854 11.056 L3.13774 13.4913 C3.32823 15.5153 3.46628 16.9699 3.69773 18.0729 C3.92652 19.1632 4.22785 19.8071 4.67644 20.266 C5.114 20.7136 5.67605 20.9697 6.61279 21.1067 C7.5801 21.2481 8.84501 21.25 10.6401 21.25 L13.36 21.25 C15.1551 21.25 16.42 21.2481 17.3873 21.1067 C18.324 20.9697 18.8861 20.7136 19.3236 20.266 C19.7722 19.8071 20.0735 19.1632 20.3023 18.0729 C20.5338 16.9699 20.6718 15.5153 20.8623 13.4913 L21.0915 11.056 C21.1829 10.0849 21.2461 9.40668 21.2499 8.91937 C21.253 8.51152 21.2084 8.36967 21.199 8.33985 C21.1977 8.33563 21.1972 8.33368 21.1975 8.33351 C21.1976 8.33349 21.1975 8.33348 21.1975 8.33351 C21.1588 8.28885 21.1196 8.26445 21.0859 8.25213 L21.085 8.25262 C21.0201 8.28889 20.9145 8.36587 20.7539 8.51599 C20.4294 8.81934 20.0105 9.29494 19.4016 9.98804 L19.3768 10.0164 C19.0892 10.3438 18.8356 10.6325 18.6091 10.8419 C18.3755 11.0579 18.077 11.2813 17.6837 11.3435 C17.3342 11.3987 16.9811 11.3408 16.6676 11.183 C16.3203 11.0082 16.0972 10.7147 15.9281 10.4395 C15.763 10.1707 15.5904 9.81688 15.3917 9.40969 L13.1391 4.79378 C12.7274 3.95013 12.453 3.39205 12.2127 3.03525 C12.1109 2.88414 12.0409 2.80859 12 2.7722 C11.9592 2.80859 11.8892 2.88414 11.7874 3.03525 C11.547 3.39205 11.2727 3.95013 10.861 4.79379 Z M 21.1975 8.33351 C 21.1994 8.33572 21.2014 8.33797 21.2033 8.34028 C 21.2009 8.33738 21.1993 8.3353 21.1983 8.33425 C 21.198 8.33385 21.1977 8.3336 21.1975 8.33351 Z M12.0441 2.74096 C12.0441 2.74049 12.0411 2.74146 12.0348 2.74527 C12.0409 2.74333 12.0441 2.74143 12.0441 2.74096 Z M11.9652 2.74527 C11.959 2.74146 11.9559 2.74049 11.956 2.74096 C11.956 2.74143 11.9591 2.74333 11.9652 2.74527 Z" fill="#FFFFFF" />
</svg>