<svg xmlns="http://www.w3.org/2000/svg" width="24" height="24" viewBox="0 0 24 24" fill="none">
  <path fill-rule="nonzero" clip-rule="nonzero" d="M 21.8382 11.1263 L 21.609 13.5616 C 21.2313 17.5742 21.0425 19.5805 19.8599 20.7902 C 18.6773 22 16.9048 22 13.3599 22 H 10.6401 C 7.09517 22 5.32271 22 4.14009 20.7902 C 2.95748 19.5805 2.76865 17.5742 2.391 13.5616 L 2.16181 11.1263 C 1.9818 9.2137 1.8918 8.25739 2.21899 7.86207 C 2.39598 7.64823 2.63666 7.5172 2.89399 7.4946 C 3.36968 7.45282 3.96708 8.1329 5.16187 9.49307 C 5.77977 10.1965 6.08872 10.5482 6.43337 10.6027 C 6.62434 10.6328 6.81892 10.6018 6.99526 10.5131 C 7.31351 10.3529 7.5257 9.91812 7.95007 9.04852 L 10.1869 4.46486 C 10.9888 2.82162 11.3898 2 12 2 C 12.6102 2 13.0112 2.82162 13.8131 4.46485 L 16.0499 9.04851 C 16.4743 9.91812 16.6865 10.3529 17.0047 10.5131 C 17.1811 10.6018 17.3757 10.6328 17.5666 10.6027 C 17.9113 10.5482 18.2202 10.1965 18.8381 9.49307 C 20.0329 8.1329 20.6303 7.45282 21.106 7.4946 C 21.3633 7.5172 21.604 7.64823 21.781 7.86207 C 22.1082 8.25739 22.0182 9.2137 21.8382 11.1263 Z M8.25 18 C8.25 18.4142 8.58579 18.75 9 18.75 L15 18.75 C15.4142 18.75 15.75 18.4142 15.75 18 C15.75 17.5858 15.4142 17.25 15 17.25 L9 17.25 C8.58579 17.25 8.25 17.5858 8.25 18 Z" fill="#FFFFFF" />
</svg>