<svg xmlns="http://www.w3.org/2000/svg" width="24" height="24" viewBox="0 0 24 24" fill="none">
  <path d="M21.9999 8.16234L21.9999 8.23487C21.9999 9.09561 21.9999 9.52598 21.7927 9.8781C21.5855 10.2302 21.2093 10.4392 20.4569 10.8572L19.6636 11.298C20.2102 9.44984 20.3926 7.46414 20.4601 5.76597C20.4629 5.69316 20.4662 5.61945 20.4695 5.54497L20.4718 5.49279C21.1231 5.71896 21.4887 5.88758 21.7168 6.20408C22 6.59692 22 7.11873 21.9999 8.16234Z" fill="#FFFFFF" />
  <path d="M2 8.16234L2 8.23487C2.00003 9.09561 2.00004 9.52598 2.20723 9.8781C2.41442 10.2302 2.79063 10.4392 3.54305 10.8572L4.33681 11.2982C3.79007 9.45001 3.60767 7.46422 3.54025 5.76597C3.53736 5.69316 3.5341 5.61945 3.53081 5.54497L3.5285 5.49266C2.87701 5.7189 2.51126 5.88752 2.2831 6.20408C1.99996 6.59692 1.99997 7.11873 2 8.16234Z" fill="#FFFFFF" />
  <path fill-rule="nonzero" clip-rule="nonzero" d="M16.3771 2.34674 C17.5159 2.53887 18.0852 2.63494 18.5609 3.22083 C19.0367 3.80673 19.0115 4.43998 18.9612 5.70647 C18.7886 10.0545 17.8503 15.4853 12.75 15.9657 L12.75 19.5 L14.1802 19.5 C14.6569 19.5 15.0673 19.8365 15.1608 20.3039 L15.35 21.25 L18 21.25 C18.4142 21.25 18.75 21.5858 18.75 22 C18.75 22.4142 18.4142 22.75 18 22.75 L6 22.75 C5.58579 22.75 5.25 22.4142 5.25 22 C5.25 21.5858 5.58579 21.25 6 21.25 L8.65 21.25 L8.83922 20.3039 C8.93271 19.8365 9.34312 19.5 9.8198 19.5 L11.25 19.5 L11.25 15.9657 C6.14996 15.4851 5.21169 10.0544 5.03907 5.70647 C4.98879 4.43998 4.96365 3.80673 5.43937 3.22083 C5.91508 2.63494 6.48445 2.53887 7.62318 2.34674 C8.74724 2.15709 10.2166 2 12.0002 2 C13.7837 2 15.2531 2.15709 16.3771 2.34674 Z M12.787 5.80711 C12.5068 5.69103 12.1842 5.75519 11.9697 5.96969 L10.4697 7.46969 C10.1768 7.76258 10.1768 8.23746 10.4697 8.53035 C10.7626 8.82325 11.2374 8.82325 11.5303 8.53035 L11.75 8.31068 L11.75 10.5 C11.75 10.9142 12.0858 11.25 12.5 11.25 C12.9142 11.25 13.25 10.9142 13.25 10.5 L13.25 6.50002 C13.25 6.19668 13.0673 5.9232 12.787 5.80711 Z" fill="#FFFFFF" />
</svg>