<svg xmlns="http://www.w3.org/2000/svg" width="24" height="24" viewBox="0 0 24 24" fill="none">
  <path fill-rule="nonzero" clip-rule="nonzero" d="M 13 4.25 C 13.4142 4.25 13.75 4.58579 13.75 5 C 13.75 5.69036 14.3096 6.25 15 6.25 C 15.4142 6.25 15.75 6.58579 15.75 7 C 15.75 7.41421 15.4142 7.75 15 7.75 C 14.5499 7.75 14.125 7.64186 13.75 7.45015 V 10.5 C 13.75 11.7426 12.7426 12.75 11.5 12.75 C 10.2574 12.75 9.25 11.7426 9.25 10.5 C 9.25 9.25736 10.2574 8.25 11.5 8.25 C 11.763 8.25 12.0154 8.29512 12.25 8.37803 V 5 C 12.25 4.58579 12.5858 4.25 13 4.25 Z M 12.25 10.5 C 12.25 10.0858 11.9142 9.75 11.5 9.75 C 11.0858 9.75 10.75 10.0858 10.75 10.5 C 10.75 10.9142 11.0858 11.25 11.5 11.25 C 11.9142 11.25 12.25 10.9142 12.25 10.5 Z" fill="#FFFFFF" />
  <path fill-rule="nonzero" clip-rule="nonzero" d="M 7.4984 1.60719 C 8.66129 1.41099 10.1724 1.25 12.0002 1.25 C 13.8279 1.25 15.339 1.41099 16.5019 1.60719 L 16.6368 1.62983 C 17.647 1.79893 18.4866 1.93949 19.1432 2.74808 C 19.5643 3.26668 19.7001 3.82713 19.7314 4.45323 L 20.2231 4.61712 C 20.6862 4.77147 21.0921 4.90675 21.4142 5.05656 C 21.7623 5.21852 22.0814 5.42714 22.3253 5.76555 C 22.5692 6.10396 22.6662 6.47262 22.7097 6.85411 C 22.75 7.20701 22.75 7.63488 22.7499 8.12306 L 22.7499 8.26828 C 22.7499 8.67007 22.75 9.02499 22.7203 9.32179 C 22.6881 9.64348 22.6169 9.95621 22.4391 10.2584 C 22.2613 10.5607 22.0225 10.7748 21.7569 10.9591 C 21.5118 11.1292 21.2016 11.3015 20.8503 11.4966 L 18.2097 12.9637 C 17.6703 14.025 16.9292 14.9713 15.9101 15.6548 C 15.0354 16.2414 13.9881 16.6128 12.75 16.7187 V 18.75 H 14.1802 C 15.0144 18.75 15.7326 19.3388 15.8962 20.1568 L 16.1149 21.25 H 18 C 18.4142 21.25 18.75 21.5858 18.75 22 C 18.75 22.4142 18.4142 22.75 18 22.75 H 6 C 5.58579 22.75 5.25 22.4142 5.25 22 C 5.25 21.5858 5.58579 21.25 6 21.25 H 7.88515 L 8.10379 20.1568 C 8.26739 19.3388 8.98562 18.75 9.81981 18.75 H 11.25 V 16.7187 C 10.012 16.6127 8.9648 16.2414 8.09017 15.6548 C 7.07115 14.9713 6.33018 14.0252 5.79078 12.964 L 3.14962 11.4966 C 2.79836 11.3015 2.48813 11.1292 2.24307 10.9591 C 1.97748 10.7748 1.73867 10.5607 1.56083 10.2584 C 1.38299 9.95621 1.3118 9.64348 1.27965 9.32179 C 1.24999 9.02497 1.25 8.67008 1.25001 8.26827 L 1.25 8.12304 C 1.24996 7.63488 1.24992 7.20701 1.2902 6.85411 C 1.33375 6.47262 1.43076 6.10396 1.67466 5.76555 C 1.91857 5.42714 2.23762 5.21852 2.58577 5.05656 C 2.90781 4.90675 3.31373 4.77147 3.77686 4.61712 L 4.26891 4.4531 C 4.30023 3.82706 4.43608 3.26664 4.85712 2.74808 C 5.51366 1.93949 6.35333 1.79893 7.36355 1.62983 L 7.4984 1.60719 Z M 9.41486 21.25 H 14.5852 L 14.4253 20.451 C 14.402 20.3341 14.2994 20.25 14.1802 20.25 H 9.81981 C 9.70064 20.25 9.59804 20.3341 9.57467 20.451 L 9.41486 21.25 Z M4.3021 6.02318 L4.28849 6.02772 C3.77708 6.19819 3.45362 6.3072 3.21847 6.4166 C3.0008 6.51786 2.93077 6.58817 2.89154 6.6426 C2.85231 6.69703 2.80775 6.7857 2.78053 7.02422 C2.75111 7.28191 2.74999 7.62323 2.75001 8.16231 L2.75001 8.23484 C2.75002 8.68002 2.75089 8.95925 2.77221 9.17263 C2.79187 9.36934 2.82428 9.44786 2.85363 9.49774 C2.88298 9.54762 2.93588 9.61407 3.09829 9.72679 C3.27447 9.84906 3.51814 9.98542 3.90729 10.2016 L4.97298 10.7937 C4.5454 9.22376 4.37367 7.54348 4.3021 6.02318 Z M 19.0274 10.7934 L 20.0927 10.2016 C 20.4818 9.98542 20.7255 9.84906 20.9016 9.72679 C 21.0641 9.61407 21.117 9.54762 21.1463 9.49774 C 21.1757 9.44786 21.2081 9.36934 21.2277 9.17263 C 21.2491 8.95925 21.2499 8.68002 21.2499 8.23484 L 21.2499 8.16231 C 21.25 7.62323 21.2488 7.28191 21.2194 7.02422 C 21.1922 6.7857 21.1476 6.69703 21.1084 6.6426 C 21.0692 6.58817 20.9991 6.51786 20.7815 6.4166 C 20.5463 6.3072 20.2229 6.19819 19.7115 6.02772 L 19.6982 6.0233 C 19.6266 7.54349 19.4549 9.22363 19.0274 10.7934 Z M 12.0002 2.75 C 10.2608 2.75 8.83319 2.90319 7.74796 3.08629 C 6.54104 3.28992 6.28751 3.3661 6.02161 3.69358 C 5.75956 4.01632 5.73468 4.32156 5.78848 5.67672 C 5.87815 7.93537 6.1761 10.3727 7.09884 12.2264 C 7.55432 13.1414 8.14983 13.8887 8.92569 14.409 C 9.69656 14.9261 10.6911 15.25 12.0002 15.25 C 13.3092 15.25 14.3037 14.9261 15.0746 14.409 C 15.8505 13.8887 16.446 13.1414 16.9015 12.2264 C 17.8242 10.3727 18.1222 7.93537 18.2118 5.67672 C 18.2656 4.32156 18.2407 4.01632 17.9787 3.69358 C 17.7128 3.3661 17.4593 3.28992 16.2524 3.08629 C 15.1671 2.90319 13.7395 2.75 12.0002 2.75 Z" fill="#FFFFFF" />
</svg>