<svg xmlns="http://www.w3.org/2000/svg" width="24" height="24" viewBox="0 0 24 24" fill="none">
  <path d="M11.3164 11.2666C11.8687 11.2666 12.3164 10.8189 12.3164 10.2666C12.3164 9.71432 11.8687 9.2666 11.3164 9.2666C10.7641 9.2666 10.3164 9.71432 10.3164 10.2666C10.3164 10.8189 10.7641 11.2666 11.3164 11.2666Z" fill="#FFFFFF" />
  <path fill-rule="nonzero" clip-rule="nonzero" d="M 12.0002 2 C 13.7837 2 15.2531 2.15709 16.3771 2.34674 C 17.5159 2.53887 18.0852 2.63494 18.5609 3.22083 C 19.0367 3.80673 19.0115 4.43998 18.9612 5.70647 C 18.7886 10.0545 17.8503 15.4853 12.75 15.9657 V 19.5 H 14.1802 C 14.6569 19.5 15.0673 19.8365 15.1608 20.3039 L 15.35 21.25 H 18 C 18.4142 21.25 18.75 21.5858 18.75 22 C 18.75 22.4142 18.4142 22.75 18 22.75 H 6 C 5.58579 22.75 5.25 22.4142 5.25 22 C 5.25 21.5858 5.58579 21.25 6 21.25 H 8.65 L 8.83922 20.3039 C 8.93271 19.8365 9.34312 19.5 9.8198 19.5 H 11.25 V 15.9657 C 6.14996 15.4851 5.21169 10.0544 5.03907 5.70647 C 4.98879 4.43998 4.96365 3.80673 5.43937 3.22083 C 5.91508 2.63494 6.48445 2.53887 7.62318 2.34674 C 8.74724 2.15709 10.2166 2 12.0002 2 Z M 13.5 4.75 C 13.5 4.33579 13.1642 4 12.75 4 C 12.3358 4 12 4.33579 12 4.75 V 8.12803 C 11.7654 8.04512 11.513 8 11.25 8 C 10.0074 8 9 9.00736 9 10.25 C 9 11.4926 10.0074 12.5 11.25 12.5 C 12.4926 12.5 13.5 11.4926 13.5 10.25 V 7.20015 C 13.875 7.39186 14.2999 7.5 14.75 7.5 C 15.1642 7.5 15.5 7.16421 15.5 6.75 C 15.5 6.33579 15.1642 6 14.75 6 C 14.0596 6 13.5 5.44036 13.5 4.75 Z" fill="#FFFFFF" />
  <path d="M2 8.16234L2 8.23487C2.00003 9.09561 2.00004 9.52598 2.20723 9.8781C2.41442 10.2302 2.79063 10.4392 3.54304 10.8572L4.33681 11.2982C3.79007 9.45001 3.60767 7.46422 3.54025 5.76597C3.53736 5.69318 3.53411 5.61949 3.53081 5.54502L3.5285 5.49266C2.87701 5.7189 2.51126 5.88752 2.2831 6.20408C1.99996 6.59692 1.99997 7.11873 2 8.16234Z" fill="#FFFFFF" />
  <path d="M21.9999 8.16234L21.9999 8.23487C21.9999 9.09561 21.9999 9.52598 21.7927 9.8781C21.5855 10.2302 21.2093 10.4392 20.4569 10.8572L19.6636 11.298C20.2102 9.44984 20.3926 7.46414 20.4601 5.76597C20.4629 5.69316 20.4662 5.61945 20.4695 5.54497L20.4718 5.49279C21.1231 5.71896 21.4887 5.88758 21.7168 6.20408C22 6.59692 22 7.11873 21.9999 8.16234Z" fill="#FFFFFF" />
</svg>