<svg xmlns="http://www.w3.org/2000/svg" width="24" height="24" viewBox="0 0 24 24" fill="none">
  <path d="M21.9999 8.16234L21.9999 8.23487C21.9999 9.09561 21.9999 9.52598 21.7927 9.8781C21.5855 10.2302 21.2093 10.4392 20.4569 10.8572L19.6636 11.298C20.2102 9.44984 20.3926 7.46414 20.4601 5.76597C20.4629 5.69316 20.4662 5.61945 20.4695 5.54497L20.4718 5.49279C21.1231 5.71896 21.4887 5.88758 21.7168 6.20408C22 6.59692 22 7.11873 21.9999 8.16234Z" fill="#FFFFFF" />
  <path d="M2 8.16234L2 8.23487C2.00003 9.09561 2.00004 9.52598 2.20723 9.8781C2.41442 10.2302 2.79063 10.4392 3.54305 10.8572L4.33681 11.2982C3.79007 9.45001 3.60767 7.46422 3.54025 5.76597C3.53736 5.69316 3.5341 5.61945 3.53081 5.54497L3.5285 5.49266C2.87701 5.7189 2.51126 5.88752 2.2831 6.20408C1.99996 6.59692 1.99997 7.11873 2 8.16234Z" fill="#FFFFFF" />
  <path fill-rule="nonzero" clip-rule="nonzero" d="M 12.0002 2 C 13.7837 2 15.2531 2.15709 16.3771 2.34674 C 17.5159 2.53887 18.0852 2.63494 18.5609 3.22083 C 19.0367 3.80673 19.0115 4.43998 18.9612 5.70647 C 18.7886 10.0545 17.8503 15.4853 12.75 15.9657 V 19.5 H 14.1802 C 14.6569 19.5 15.0673 19.8365 15.1608 20.3039 L 15.35 21.25 H 18 C 18.4142 21.25 18.75 21.5858 18.75 22 C 18.75 22.4142 18.4142 22.75 18 22.75 H 6 C 5.58579 22.75 5.25 22.4142 5.25 22 C 5.25 21.5858 5.58579 21.25 6 21.25 H 8.65 L 8.83922 20.3039 C 8.93271 19.8365 9.34312 19.5 9.8198 19.5 H 11.25 V 15.9657 C 6.14996 15.4851 5.21169 10.0544 5.03907 5.70647 C 4.98879 4.43998 4.96365 3.80673 5.43937 3.22083 C 5.91508 2.63494 6.48445 2.53887 7.62318 2.34674 C 8.74724 2.15709 10.2166 2 12.0002 2 Z M 12.9524 6.19887 L 12.8541 6.02251 C 12.4741 5.34084 12.2841 5 12 5 C 11.7159 5 11.5259 5.34084 11.1459 6.02251 L 11.0476 6.19887 C 10.9397 6.39258 10.8857 6.48944 10.8015 6.55334 C 10.7173 6.61725 10.6125 6.64097 10.4028 6.68841 L 10.2119 6.73161 C 9.47396 6.89857 9.10501 6.98205 9.01723 7.26432 C 8.92945 7.54659 9.18097 7.84072 9.68403 8.42898 L 9.81418 8.58117 C 9.95713 8.74833 10.0286 8.83191 10.0608 8.93532 C 10.0929 9.03872 10.0821 9.15023 10.0605 9.37327 L 10.0408 9.57632 C 9.96476 10.3612 9.92674 10.7536 10.1565 10.9281 C 10.3864 11.1025 10.7318 10.9435 11.4227 10.6254 L 11.6014 10.5431 C 11.7978 10.4527 11.8959 10.4075 12 10.4075 C 12.1041 10.4075 12.2022 10.4527 12.3986 10.5431 L 12.5773 10.6254 C 13.2682 10.9435 13.6136 11.1025 13.8435 10.9281 C 14.0733 10.7536 14.0352 10.3612 13.9592 9.57632 L 13.9395 9.37327 C 13.9179 9.15023 13.9071 9.03872 13.9392 8.93532 C 13.9714 8.83191 14.0429 8.74833 14.1858 8.58117 L 14.316 8.42898 C 14.819 7.84072 15.0706 7.54659 14.9828 7.26432 C 14.895 6.98205 14.526 6.89857 13.7881 6.73161 L 13.5972 6.68841 C 13.3875 6.64097 13.2827 6.61725 13.1985 6.55334 C 13.1143 6.48944 13.0603 6.39258 12.9524 6.19887 Z" fill="#FFFFFF" />
</svg>