<svg xmlns="http://www.w3.org/2000/svg" width="24" height="24" viewBox="0 0 24 24" fill="none">
  <path fill-rule="nonzero" clip-rule="nonzero" d="M 11.0135 4.79963 C 11.1857 4.57481 11.4983 4.25 12 4.25 C 12.5017 4.25 12.8143 4.57481 12.9865 4.79963 C 13.1508 5.01421 13.3163 5.31124 13.486 5.61577 L 13.6075 5.83369 C 13.6303 5.87459 13.6482 5.90677 13.6639 5.9343 C 13.6912 5.94071 13.723 5.94792 13.7627 5.9569 L 14.0006 6.0107 C 14.3284 6.08478 14.6542 6.15839 14.9042 6.25695 C 15.1804 6.36577 15.5547 6.5777 15.6989 7.04161 C 15.8407 7.49734 15.6618 7.88336 15.5056 8.13146 C 15.3611 8.36108 15.1414 8.61786 14.9165 8.88075 L 14.7558 9.06861 C 14.7213 9.10894 14.6953 9.13935 14.6735 9.16566 C 14.6764 9.202 14.6805 9.24433 14.686 9.30093 L 14.7102 9.55039 C 14.7444 9.90232 14.7774 10.2424 14.7653 10.5145 C 14.7526 10.7997 14.6841 11.2315 14.2969 11.5254 C 13.8975 11.8286 13.4564 11.7626 13.1767 11.6824 C 12.919 11.6086 12.6144 11.4682 12.3077 11.3269 L 12.0849 11.2243 C 12.0514 11.2089 12.024 11.1963 12 11.1854 C 11.976 11.1963 11.9486 11.2089 11.9151 11.2243 L 11.6923 11.3269 C 11.3856 11.4682 11.081 11.6086 10.8233 11.6824 C 10.5436 11.7626 10.1025 11.8286 9.70306 11.5254 C 9.31589 11.2315 9.24743 10.7997 9.23473 10.5145 C 9.22261 10.2424 9.25563 9.90234 9.28981 9.55042 L 9.31399 9.30093 C 9.31948 9.24433 9.32356 9.202 9.32655 9.16566 C 9.30465 9.13935 9.27866 9.10894 9.24418 9.06861 L 9.08351 8.88075 C 8.8586 8.61786 8.63891 8.36108 8.49436 8.13146 C 8.33817 7.88336 8.15934 7.49734 8.30106 7.04161 C 8.44532 6.5777 8.81962 6.36577 9.09576 6.25695 C 9.34585 6.1584 9.67163 6.08478 9.99944 6.0107 L 10.2373 5.95691 C 10.277 5.94792 10.3088 5.94071 10.3361 5.9343 C 10.3518 5.90677 10.3697 5.87459 10.3925 5.83369 L 10.514 5.61576 C 10.6837 5.31124 10.8492 5.01421 11.0135 4.79963 Z M 12 6.03448 C 11.9419 6.13513 11.8772 6.25103 11.801 6.38769 L 11.7027 6.56405 L 11.6804 6.60466 C 11.6019 6.74827 11.4718 6.9861 11.255 7.15071 C 11.0336 7.31876 10.7673 7.37659 10.6116 7.4104 L 10.5683 7.41992 L 10.3774 7.46312 C 10.2022 7.50275 10.0595 7.53509 9.9375 7.56575 C 10.0169 7.66345 10.1199 7.78474 10.254 7.94154 L 10.3842 8.09372 L 10.4141 8.12841 C 10.5221 8.25273 10.6963 8.45346 10.7769 8.71261 C 10.8566 8.96869 10.8291 9.23243 10.8118 9.39882 L 10.807 9.4456 L 10.7873 9.64866 C 10.7691 9.83692 10.7549 9.98718 10.7455 10.1094 C 10.8497 10.0635 10.9682 10.0089 11.109 9.94409 L 11.2878 9.8618 L 11.3281 9.8429 C 11.4716 9.77522 11.7213 9.65746 12 9.65746 C 12.2787 9.65746 12.5284 9.77521 12.6719 9.84289 L 12.7122 9.8618 L 12.891 9.9441 C 13.0318 10.0089 13.1503 10.0635 13.2545 10.1094 C 13.2451 9.98718 13.2309 9.83692 13.2127 9.64866 L 13.193 9.4456 L 13.1882 9.39882 C 13.1709 9.23243 13.1434 8.96869 13.2231 8.71261 C 13.3037 8.45346 13.4779 8.25273 13.5859 8.12841 L 13.6158 8.09372 L 13.746 7.94153 C 13.8801 7.78474 13.9831 7.66345 14.0625 7.56575 C 13.9405 7.53509 13.7978 7.50275 13.6226 7.46312 L 13.4317 7.41992 L 13.3884 7.4104 C 13.2327 7.37659 12.9664 7.31877 12.745 7.15071 C 12.5282 6.9861 12.3981 6.74827 12.3196 6.60466 L 12.2973 6.56405 L 12.199 6.38769 C 12.1228 6.25103 12.0581 6.13513 12 6.03448 Z M10.7393 10.5115 L10.7387 10.5084 C10.7391 10.5106 10.7393 10.5116 10.7393 10.5115 Z M13.2607 10.5115 C13.2607 10.5116 13.2609 10.5106 13.2613 10.5084 L13.2607 10.5115 Z" fill="#FFFFFF" />
  <path fill-rule="nonzero" clip-rule="nonzero" d="M 7.4984 1.60719 C 8.66129 1.41099 10.1724 1.25 12.0002 1.25 C 13.8279 1.25 15.339 1.41099 16.5019 1.60719 L 16.6368 1.62983 C 17.647 1.79893 18.4866 1.93949 19.1432 2.74808 C 19.5643 3.26668 19.7001 3.82713 19.7314 4.45322 L 20.2231 4.61712 C 20.6862 4.77147 21.0921 4.90675 21.4142 5.05656 C 21.7623 5.21852 22.0814 5.42714 22.3253 5.76555 C 22.5692 6.10396 22.6662 6.47262 22.7098 6.85411 C 22.75 7.20701 22.75 7.63488 22.75 8.12306 L 22.75 8.26828 C 22.75 8.67007 22.75 9.02499 22.7203 9.32179 C 22.6882 9.64348 22.617 9.95621 22.4391 10.2584 C 22.2613 10.5607 22.0225 10.7748 21.7569 10.9591 C 21.5118 11.1292 21.2016 11.3015 20.8503 11.4966 L 18.2097 12.9637 C 17.6703 14.025 16.9292 14.9713 15.9101 15.6548 C 15.0354 16.2414 13.9881 16.6128 12.75 16.7187 V 18.75 H 14.1802 C 15.0144 18.75 15.7326 19.3388 15.8962 20.1568 L 16.1149 21.25 H 18 C 18.4142 21.25 18.75 21.5858 18.75 22 C 18.75 22.4142 18.4142 22.75 18 22.75 H 6 C 5.58579 22.75 5.25 22.4142 5.25 22 C 5.25 21.5858 5.58579 21.25 6 21.25 H 7.88515 L 8.10379 20.1568 C 8.26739 19.3388 8.98562 18.75 9.81981 18.75 H 11.25 V 16.7187 C 10.012 16.6127 8.9648 16.2414 8.09017 15.6548 C 7.07115 14.9713 6.33018 14.0252 5.79078 12.964 L 3.14962 11.4966 C 2.79836 11.3015 2.48813 11.1292 2.24307 10.9591 C 1.97748 10.7748 1.73867 10.5607 1.56083 10.2584 C 1.38299 9.95621 1.3118 9.64348 1.27965 9.32179 C 1.24999 9.02497 1.25 8.67008 1.25001 8.26827 L 1.25 8.12304 C 1.24996 7.63488 1.24992 7.20701 1.2902 6.85411 C 1.33375 6.47262 1.43076 6.10396 1.67466 5.76555 C 1.91857 5.42714 2.23762 5.21852 2.58577 5.05656 C 2.90781 4.90675 3.31373 4.77147 3.77686 4.61712 L 4.26891 4.4531 C 4.30023 3.82706 4.43608 3.26664 4.85712 2.74808 C 5.51366 1.93949 6.35333 1.79893 7.36355 1.62983 L 7.4984 1.60719 Z M 9.41486 21.25 H 14.5852 L 14.4253 20.451 C 14.402 20.3341 14.2994 20.25 14.1802 20.25 H 9.81981 C 9.70064 20.25 9.59804 20.3341 9.57467 20.451 L 9.41486 21.25 Z M 4.3021 6.02318 L 4.28849 6.02772 C 3.77708 6.19819 3.45362 6.3072 3.21847 6.4166 C 3.0008 6.51786 2.93077 6.58817 2.89154 6.6426 C 2.85231 6.69703 2.80775 6.7857 2.78053 7.02422 C 2.75111 7.28191 2.74999 7.62323 2.75001 8.16231 L 2.75001 8.23484 C 2.75002 8.68002 2.75089 8.95925 2.77221 9.17263 C 2.79187 9.36934 2.82428 9.44786 2.85363 9.49774 C 2.88298 9.54762 2.93588 9.61407 3.09829 9.72679 C 3.27447 9.84906 3.51814 9.98542 3.90729 10.2016 L 4.97298 10.7937 C 4.5454 9.22376 4.37367 7.54348 4.3021 6.02318 Z M19.0274 10.7935 L20.0927 10.2016 C20.4818 9.98542 20.7255 9.84906 20.9017 9.72679 C21.0641 9.61407 21.117 9.54762 21.1463 9.49774 C21.1757 9.44786 21.2081 9.36934 21.2277 9.17263 C21.2491 8.95925 21.2499 8.68002 21.25 8.23484 L21.25 8.16231 C21.25 7.62323 21.2488 7.28191 21.2194 7.02422 C21.1922 6.7857 21.1477 6.69703 21.1084 6.6426 C21.0692 6.58817 20.9992 6.51786 20.7815 6.4166 C20.5463 6.3072 20.2229 6.19819 19.7115 6.02772 L19.6982 6.0233 C19.6266 7.54349 19.4549 9.22364 19.0274 10.7935 Z M 12.0002 2.75 C 10.2608 2.75 8.83319 2.90319 7.74796 3.08629 C 6.54104 3.28992 6.28751 3.3661 6.02161 3.69358 C 5.75956 4.01632 5.73468 4.32156 5.78848 5.67672 C 5.87815 7.93537 6.1761 10.3727 7.09884 12.2264 C 7.55432 13.1414 8.14983 13.8887 8.92569 14.409 C 9.69656 14.9261 10.6911 15.25 12.0002 15.25 C 13.3092 15.25 14.3037 14.9261 15.0746 14.409 C 15.8505 13.8887 16.446 13.1414 16.9015 12.2264 C 17.8242 10.3727 18.1222 7.93537 18.2118 5.67672 C 18.2656 4.32156 18.2407 4.01632 17.9787 3.69358 C 17.7128 3.3661 17.4593 3.28992 16.2524 3.08629 C 15.1671 2.90319 13.7395 2.75 12.0002 2.75 Z" fill="#FFFFFF" />
</svg>