<svg xmlns="http://www.w3.org/2000/svg" width="24" height="24" viewBox="0 0 24 24" fill="none">
  <path fill-rule="nonzero" clip-rule="nonzero" d="M12 2 C16.714 2 19.0711 2 20.5355 3.46447 C22 4.92893 22 7.28595 22 12 C22 16.714 22 19.0711 20.5355 20.5355 C19.0711 22 16.714 22 12 22 C7.28595 22 4.92893 22 3.46447 20.5355 C2 19.0711 2 16.714 2 12 C2 7.28595 2 4.92893 3.46447 3.46447 C4.92893 2 7.28595 2 12 2 Z M12 6.25 C11.5858 6.25 11.25 6.58579 11.25 7 L11.25 13 C11.25 13.4142 11.5858 13.75 12 13.75 C12.4142 13.75 12.75 13.4142 12.75 13 L12.75 7 C12.75 6.58579 12.4142 6.25 12 6.25 Z M 12 17 C 12.5523 17 13 16.5523 13 16 C 13 15.4477 12.5523 15 12 15 C 11.4477 15 11 15.4477 11 16 C 11 16.5523 11.4477 17 12 17 Z" fill="#FFFFFF" />
</svg>