<svg xmlns="http://www.w3.org/2000/svg" width="24" height="24" viewBox="0 0 24 24" fill="none">
  <path d="M12 6.25C12.4142 6.25 12.75 6.58579 12.75 7V13C12.75 13.4142 12.4142 13.75 12 13.75C11.5858 13.75 11.25 13.4142 11.25 13V7C11.25 6.58579 11.5858 6.25 12 6.25Z" fill="#FFFFFF" />
  <path d="M13 16C13 16.5523 12.5523 17 12 17C11.4477 17 11 16.5523 11 16C11 15.4477 11.4477 15 12 15C12.5523 15 13 15.4477 13 16Z" fill="#FFFFFF" />
  <path fill-rule="nonzero" clip-rule="nonzero" d="M12 1.25 C12.7046 1.25 13.3481 1.44359 14.0514 1.77037 C14.7319 2.08656 15.5196 2.55303 16.5054 3.13685 L17.2585 3.58285 C18.2447 4.16683 19.0323 4.63324 19.6392 5.07944 C20.2669 5.54083 20.7482 6.01311 21.0967 6.63212 C21.4445 7.25014 21.6016 7.91095 21.6769 8.69506 C21.75 9.45538 21.75 10.3866 21.75 11.556 L21.75 12.4441 C21.75 13.6135 21.75 14.5446 21.6769 15.3049 C21.6016 16.0891 21.4445 16.7499 21.0967 17.3679 C20.7482 17.9869 20.2669 18.4592 19.6392 18.9206 C19.0323 19.3668 18.2446 19.8332 17.2585 20.4172 L16.5054 20.8632 C15.5196 21.447 14.7319 21.9134 14.0514 22.2296 C13.3481 22.5564 12.7046 22.75 12 22.75 C11.2954 22.75 10.6519 22.5564 9.94858 22.2296 C9.2681 21.9135 8.48038 21.447 7.4946 20.8632 L6.74148 20.4172 C5.75533 19.8332 4.96771 19.3668 4.36076 18.9206 C3.73315 18.4592 3.25177 17.9869 2.90334 17.3679 C2.55548 16.7499 2.39841 16.0891 2.32306 15.3049 C2.24999 14.5446 2.24999 13.6135 2.25 12.444 L2.25 11.556 C2.24999 10.3865 2.24999 9.45539 2.32306 8.69506 C2.39841 7.91095 2.55548 7.25014 2.90334 6.63212 C3.25177 6.01311 3.73315 5.54083 4.36076 5.07944 C4.96771 4.63324 5.75533 4.16682 6.74148 3.58283 L7.49457 3.13685 C8.48039 2.55304 9.26808 2.08656 9.94858 1.77037 C10.6519 1.44359 11.2954 1.25 12 1.25 Z M8.22524 4.44744 L7.53909 4.85379 C6.5121 5.46197 5.78906 5.89115 5.24924 6.288 C4.72326 6.67467 4.419 6.99746 4.2105 7.36788 C4.00145 7.73929 3.88005 8.1739 3.81618 8.83855 C3.7508 9.51884 3.75 10.378 3.75 11.5937 L3.75 12.4063 C3.75 13.622 3.7508 14.4812 3.81618 15.1614 C3.88005 15.8261 4.00145 16.2607 4.2105 16.6321 C4.419 17.0025 4.72326 17.3253 5.24924 17.712 C5.78906 18.1089 6.5121 18.538 7.53909 19.1462 L8.22524 19.5526 C9.25238 20.1608 9.97606 20.5884 10.5807 20.8693 C11.1702 21.1432 11.5907 21.25 12 21.25 C12.4093 21.25 12.8298 21.1432 13.4193 20.8693 C14.0239 20.5884 14.7476 20.1608 15.7748 19.5526 L16.4609 19.1462 C17.4879 18.538 18.2109 18.1089 18.7508 17.712 C19.2767 17.3253 19.581 17.0025 19.7895 16.6321 C19.9986 16.2607 20.1199 15.8261 20.1838 15.1614 C20.2492 14.4812 20.25 13.622 20.25 12.4063 L20.25 11.5937 C20.25 10.378 20.2492 9.51884 20.1838 8.83855 C20.1199 8.1739 19.9986 7.73929 19.7895 7.36788 C19.581 6.99746 19.2767 6.67467 18.7508 6.288 C18.2109 5.89115 17.4879 5.46197 16.4609 4.85379 L15.7748 4.44744 C14.7476 3.83917 14.0239 3.41161 13.4193 3.13069 C12.8298 2.85676 12.4093 2.75 12 2.75 C11.5907 2.75 11.1702 2.85676 10.5807 3.13069 C9.97606 3.41161 9.25238 3.83917 8.22524 4.44744 Z" fill="#FFFFFF" />
</svg>