<svg xmlns="http://www.w3.org/2000/svg" width="24" height="24" viewBox="0 0 24 24" fill="none">
  <path fill-rule="nonzero" clip-rule="nonzero" d="M 5.31171 10.7615 C 8.23007 5.58716 9.68925 3 12 3 C 14.3107 3 15.7699 5.58716 18.6883 10.7615 L 19.0519 11.4063 C 21.4771 15.7061 22.6897 17.856 21.5937 19.428 C 20.4978 21 17.7864 21 12.3637 21 H 11.6363 C 6.21356 21 3.50217 21 2.40626 19.428 C 1.31034 17.856 2.52291 15.7061 4.94805 11.4063 L 5.31171 10.7615 Z M12 7.25 C11.5858 7.25 11.25 7.58579 11.25 8 L11.25 13 C11.25 13.4142 11.5858 13.75 12 13.75 C12.4142 13.75 12.75 13.4142 12.75 13 L12.75 8 C12.75 7.58579 12.4142 7.25 12 7.25 Z M 12 17 C 12.5523 17 13 16.5523 13 16 C 13 15.4477 12.5523 15 12 15 C 11.4477 15 11 15.4477 11 16 C 11 16.5523 11.4477 17 12 17 Z" fill="#FFFFFF" />
</svg>