<svg xmlns="http://www.w3.org/2000/svg" width="24" height="24" viewBox="0 0 24 24" fill="none">
  <path fill-rule="nonzero" clip-rule="nonzero" d="M 7.84308 3.80211 C 9.8718 2.6007 10.8862 2 12 2 C 13.1138 2 14.1282 2.6007 16.1569 3.80211 L 16.8431 4.20846 C 18.8718 5.40987 19.8862 6.01057 20.4431 7 C 21 7.98943 21 9.19084 21 11.5937 V 12.4063 C 21 14.8092 21 16.0106 20.4431 17 C 19.8862 17.9894 18.8718 18.5901 16.8431 19.7915 L 16.1569 20.1979 C 14.1282 21.3993 13.1138 22 12 22 C 10.8862 22 9.8718 21.3993 7.84308 20.1979 L 7.15692 19.7915 C 5.1282 18.5901 4.11384 17.9894 3.55692 17 C 3 16.0106 3 14.8092 3 12.4063 V 11.5937 C 3 9.19084 3 7.98943 3.55692 7 C 4.11384 6.01057 5.1282 5.40987 7.15692 4.20846 L 7.84308 3.80211 Z M13 16 C13 15.4477 12.5523 15 12 15 C11.4477 15 11 15.4477 11 16 C11 16.5523 11.4477 17 12 17 C12.5523 17 13 16.5523 13 16 Z M12 6.25 C11.5858 6.25 11.25 6.58579 11.25 7 L11.25 13 C11.25 13.4142 11.5858 13.75 12 13.75 C12.4142 13.75 12.75 13.4142 12.75 13 L12.75 7 C12.75 6.58579 12.4142 6.25 12 6.25 Z" fill="#FFFFFF" />
</svg>