<svg xmlns="http://www.w3.org/2000/svg" width="24" height="24" viewBox="0 0 24 24" fill="none">
  <path fill-rule="nonzero" clip-rule="nonzero" d="M22 12 C22 17.5228 17.5228 22 12 22 C6.47715 22 2 17.5228 2 12 C2 6.47715 6.47715 2 12 2 C17.5228 2 22 6.47715 22 12 Z M12 6.25 C11.5858 6.25 11.25 6.58579 11.25 7 L11.25 13 C11.25 13.4142 11.5858 13.75 12 13.75 C12.4142 13.75 12.75 13.4142 12.75 13 L12.75 7 C12.75 6.58579 12.4142 6.25 12 6.25 Z M 12 17 C 12.5523 17 13 16.5523 13 16 C 13 15.4477 12.5523 15 12 15 C 11.4477 15 11 15.4477 11 16 C 11 16.5523 11.4477 17 12 17 Z" fill="#FFFFFF" />
</svg>