<svg xmlns="http://www.w3.org/2000/svg" width="24" height="24" viewBox="0 0 24 24" fill="none">
  <path fill-rule="nonzero" clip-rule="nonzero" d="M 3.25 6 C 3.25 4.45831 4.48029 3.26447 6.00774 2.50075 C 7.58004 1.7146 9.69967 1.25 12 1.25 C 14.3003 1.25 16.42 1.7146 17.9923 2.50075 C 19.5197 3.26447 20.75 4.45831 20.75 6 V 18 C 20.75 19.5417 19.5197 20.7355 17.9923 21.4992 C 16.42 22.2854 14.3003 22.75 12 22.75 C 9.69967 22.75 7.58004 22.2854 6.00774 21.4992 C 4.48029 20.7355 3.25 19.5417 3.25 18 V 6 Z M4.75 6 C4.75 6.66745 5.31057 7.47361 6.67856 8.15761 C8.00168 8.81917 9.88205 9.25 12 9.25 C14.118 9.25 15.9983 8.81917 17.3214 8.15761 C18.6894 7.47361 19.25 6.66745 19.25 6 C19.25 5.33255 18.6894 4.52639 17.3214 3.84239 C15.9983 3.18083 14.118 2.75 12 2.75 C9.88205 2.75 8.00168 3.18083 6.67856 3.84239 C5.31057 4.52639 4.75 5.33255 4.75 6 Z M 4.75 18 C 4.75 18.6674 5.31057 19.4736 6.67856 20.1576 C 8.00168 20.8192 9.88205 21.25 12 21.25 C 14.118 21.25 15.9983 20.8192 17.3214 20.1576 C 18.6894 19.4736 19.25 18.6674 19.25 18 V 14.7072 C 18.8733 15.0077 18.4459 15.2724 17.9923 15.4992 C 16.42 16.2854 14.3003 16.75 12 16.75 C 9.69967 16.75 7.58004 16.2854 6.00774 15.4992 C 5.55414 15.2724 5.12675 15.0077 4.75 14.7072 V 18 Z M19.25 8.70722 C18.8733 9.00772 18.4459 9.27245 17.9923 9.49925 C16.42 10.2854 14.3003 10.75 12 10.75 C9.69967 10.75 7.58004 10.2854 6.00774 9.49925 C5.55414 9.27245 5.12675 9.00772 4.75 8.70722 L4.75 12 C4.75 12.6674 5.31057 13.4736 6.67856 14.1576 C8.00168 14.8192 9.88205 15.25 12 15.25 C14.118 15.25 15.9983 14.8192 17.3214 14.1576 C18.6894 13.4736 19.25 12.6674 19.25 12 L19.25 8.70722 Z" fill="#FFFFFF" />
</svg>