<svg xmlns="http://www.w3.org/2000/svg" width="24" height="24" viewBox="0 0 24 24" fill="none">
  <path fill-rule="nonzero" clip-rule="nonzero" d="M18.0909 2.54877 C18.6465 2.85989 18.9739 3.34477 19.2191 3.91434 C19.4499 4.45076 19.6433 5.1508 19.8738 5.98536 L20.4164 7.94926 C20.6469 8.7834 20.8403 9.48355 20.917 10.0605 C20.9983 10.6724 20.9659 11.2583 20.6397 11.8063 C20.3155 12.3509 19.8157 12.6653 19.2377 12.8994 C18.688 13.1219 17.9695 13.3086 17.1066 13.5329 L15.0882 14.0574 C14.225 14.2818 13.5066 14.4685 12.9162 14.5423 C12.2945 14.62 11.7064 14.5888 11.1541 14.2795 C10.5985 13.9684 10.271 13.4835 10.0259 12.9139 C9.79499 12.3775 9.60161 11.6775 9.37108 10.8429 L8.82853 8.87901 C8.59805 8.04488 8.40459 7.34473 8.32794 6.76777 C8.24664 6.15584 8.27903 5.56998 8.60526 5.02195 C8.92943 4.47736 9.4292 4.16293 10.0072 3.92891 C10.557 3.70634 11.2755 3.51963 12.1384 3.2954 L14.1567 2.7709 C15.02 2.54651 15.7383 2.3598 16.3288 2.286 C16.9504 2.20831 17.5385 2.23946 18.0909 2.54877 Z M14.485 4.2354 L12.5651 4.73434 C11.64 4.97476 11.0179 5.138 10.5701 5.31928 C10.1402 5.49334 9.98164 5.64227 9.89418 5.78921 C9.80876 5.93269 9.75658 6.13148 9.81487 6.57022 C9.87625 7.03217 10.0402 7.63187 10.2885 8.53074 L10.8029 10.3928 C11.0512 11.2914 11.2185 11.8906 11.4037 12.3209 C11.5793 12.729 11.7296 12.8826 11.8869 12.9707 C12.0476 13.0607 12.2685 13.1116 12.7301 13.0539 C13.2118 12.9937 13.835 12.8333 14.76 12.5929 L16.6798 12.0939 C17.605 11.8535 18.2271 11.6903 18.6748 11.509 C19.1047 11.3349 19.2633 11.186 19.3508 11.0391 C19.4362 10.8956 19.4883 10.6968 19.4301 10.2581 C19.3687 9.79611 19.2048 9.19641 18.9564 8.29754 L18.442 6.43548 C18.1937 5.53684 18.0265 4.93768 17.8413 4.50734 C17.6656 4.09931 17.5154 3.94567 17.358 3.85754 C17.1974 3.7676 16.9764 3.71673 16.5148 3.77442 C16.0331 3.83463 15.4099 3.99503 14.485 4.2354 Z" fill="#FFFFFF" />
  <path fill-rule="nonzero" clip-rule="nonzero" d="M3.2007 4.72469 L4.9044 5.19738 C5.82129 5.45177 6.5469 6.1586 6.80003 7.07483 L8.86688 14.5562 C9.93146 14.7927 10.8651 15.4794 11.3734 16.4667 L19.8115 14.2738 C20.2124 14.1696 20.6219 14.4101 20.7261 14.811 C20.8303 15.2119 20.5897 15.6214 20.1888 15.7256 L11.7683 17.9139 C11.8638 19.6102 10.7247 21.1788 9.00137 21.6266 C7.03215 22.1384 4.97848 21.0108 4.43836 19.0558 C3.89563 17.0913 5.10375 15.1025 7.0808 14.5887 C7.1556 14.5692 7.23053 14.5521 7.3055 14.5374 L5.35419 7.47427 C5.24592 7.08236 4.92898 6.76086 4.50338 6.64278 L2.79968 6.17009 C2.40054 6.05936 2.16675 5.64602 2.27749 5.24688 C2.38823 4.84775 2.80157 4.61396 3.2007 4.72469 Z M7.45809 16.0404 C6.25419 16.3533 5.5746 17.5357 5.8842 18.6563 C6.19641 19.7864 7.41235 20.4897 8.62408 20.1748 C9.82797 19.862 10.5076 18.6796 10.198 17.5589 C9.88575 16.4288 8.66981 15.7255 7.45809 16.0404 Z" fill="#FFFFFF" />
</svg>