<svg xmlns="http://www.w3.org/2000/svg" width="24" height="24" viewBox="0 0 24 24" fill="none">
  <path fill-rule="nonzero" clip-rule="nonzero" d="M3.46447 3.46447 C4.92893 2 7.28595 2 12 2 C16.714 2 19.0711 2 20.5355 3.46447 C22 4.92893 22 7.28595 22 12 C22 16.714 22 19.0711 20.5355 20.5355 C19.0711 22 16.714 22 12 22 C7.28595 22 4.92893 22 3.46447 20.5355 C2 19.0711 2 16.714 2 12 C2 7.28595 2 4.92893 3.46447 3.46447 Z M8.25 8 L8.25 16 C8.25 16.9665 9.0335 17.75 10 17.75 L15 17.75 C15.4142 17.75 15.75 17.4142 15.75 17 C15.75 16.5858 15.4142 16.25 15 16.25 L10 16.25 C9.86193 16.25 9.75 16.1381 9.75 16 L9.75 12.75 L15 12.75 C15.4142 12.75 15.75 12.4142 15.75 12 C15.75 11.5858 15.4142 11.25 15 11.25 L9.75 11.25 L9.75 8 C9.75 7.86193 9.86193 7.75 10 7.75 L15 7.75 C15.4142 7.75 15.75 7.41421 15.75 7 C15.75 6.58579 15.4142 6.25 15 6.25 L10 6.25 C9.0335 6.25 8.25 7.0335 8.25 8 Z" fill="#FFFFFF" />
</svg>