<svg xmlns="http://www.w3.org/2000/svg" width="24" height="24" viewBox="0 0 24 24" fill="none">
  <path fill-rule="nonzero" clip-rule="nonzero" d="M 3 10 C 3 6.22876 3 4.34315 4.17157 3.17157 C 5.34315 2 7.22876 2 11 2 H 13 C 16.7712 2 18.6569 2 19.8284 3.17157 C 21 4.34315 21 6.22876 21 10 V 14 C 21 17.7712 21 19.6569 19.8284 20.8284 C 18.6569 22 16.7712 22 13 22 H 11 C 7.22876 22 5.34315 22 4.17157 20.8284 C 3 19.6569 3 17.7712 3 14 V 10 Z M6 12 L6 16 C6 17.4142 6 18.1213 6.43934 18.5607 C6.87868 19 7.58579 19 9 19 L15 19 C16.4142 19 17.1213 19 17.5607 18.5607 C18 18.1213 18 17.4142 18 16 L18 12 C18 10.5858 18 9.87868 17.5607 9.43934 C17.1213 9 16.4142 9 15 9 L9 9 C7.58579 9 6.87868 9 6.43934 9.43934 C6 9.87868 6 10.5858 6 12 Z M 7 5.25 C 6.58579 5.25 6.25 5.58579 6.25 6 C 6.25 6.41421 6.58579 6.75 7 6.75 H 12 C 12.4142 6.75 12.75 6.41421 12.75 6 C 12.75 5.58579 12.4142 5.25 12 5.25 H 7 Z" fill="#FFFFFF" />
</svg>