<svg xmlns="http://www.w3.org/2000/svg" width="24" height="24" viewBox="0 0 24 24" fill="none">
  <path fill-rule="nonzero" clip-rule="nonzero" d="M13.6976 3.07325 C13.7303 3.08987 13.7629 3.10701 13.7952 3.12465 L18.5895 5.73882 C18.6721 5.7839 18.7527 5.83183 18.831 5.88245 C19.0371 5.7971 19.263 5.75 19.5 5.75 C20.4665 5.75 21.25 6.5335 21.25 7.5 C21.25 8.07605 20.9717 8.5871 20.5422 8.90599 C20.5435 8.94761 20.5442 8.98934 20.5442 9.03118 L20.5442 13.9688 C20.5442 14.1693 20.5282 14.3674 20.4972 14.5617 C20.9521 14.8777 21.25 15.4041 21.25 16 C21.25 16.9665 20.4665 17.75 19.5 17.75 C19.0844 17.75 18.7027 17.6051 18.4025 17.3631 L17.1587 18.0413 L19.1556 21.6358 C19.3568 21.9979 19.2263 22.4545 18.8642 22.6556 C18.5022 22.8568 18.0456 22.7263 17.8444 22.3642 L15.8417 18.7595 L13.7953 19.8754 C13.7629 19.893 13.7303 19.9101 13.6976 19.9268 C13.5071 20.687 12.8193 21.25 12 21.25 C11.1807 21.25 10.4929 20.687 10.3024 19.9267 C10.2697 19.9101 10.2371 19.893 10.2048 19.8754 L8.15826 18.7594 L6.1556 22.3642 C5.95444 22.7263 5.49784 22.8568 5.13575 22.6556 C4.77367 22.4545 4.64321 21.9979 4.84437 21.6358 L6.84128 18.0413 L5.59753 17.3631 C5.29735 17.6051 4.91559 17.75 4.5 17.75 C3.5335 17.75 2.75 16.9665 2.75 16 C2.75 15.4041 3.04787 14.8777 3.50286 14.5617 C3.47178 14.3674 3.45578 14.1693 3.45578 13.9688 L3.45578 9.03118 C3.45578 8.98935 3.45648 8.94762 3.45786 8.906 C3.02834 8.58711 2.75 8.07606 2.75 7.5 C2.75 6.5335 3.5335 5.75 4.5 5.75 C4.73697 5.75 4.96294 5.7971 5.16906 5.88245 C5.24734 5.83183 5.32787 5.7839 5.41054 5.73883 L10.2048 3.12465 C10.2371 3.10701 10.2697 3.08988 10.3024 3.07326 C10.4929 2.31302 11.1807 1.75 12 1.75 C12.8193 1.75 13.5071 2.31301 13.6976 3.07325 Z M10.6369 4.59754 L6.18481 7.02514 C6.22728 7.17614 6.25 7.33542 6.25 7.5 C6.25 8.30883 5.70127 8.9895 4.95578 9.19006 L4.95578 13.9688 C4.95578 14.0867 4.965 14.2032 4.98291 14.3175 C5.71455 14.5271 6.25 15.201 6.25 16 C6.25 16.0035 6.24999 16.0069 6.24997 16.0104 L7.56977 16.73 L9.82099 12.6778 C9.46296 12.2136 9.25 11.6316 9.25 11 C9.25 9.48122 10.4812 8.25 12 8.25 C13.5188 8.25 14.75 9.48122 14.75 11 C14.75 11.6316 14.537 12.2136 14.179 12.6778 L16.4302 16.7301 L17.75 16.0104 C17.75 16.0069 17.75 16.0035 17.75 16 C17.75 15.201 18.2855 14.5271 19.0171 14.3175 C19.035 14.2032 19.0442 14.0867 19.0442 13.9688 L19.0442 9.19006 C18.2987 8.98951 17.75 8.30884 17.75 7.5 C17.75 7.33542 17.7727 7.17614 17.8152 7.02513 L13.3631 4.59753 C13.0424 4.99544 12.5509 5.25 12 5.25 C11.4491 5.25 10.9577 4.99544 10.6369 4.59754 Z M 15.1133 17.4482 L 12.9625 13.5769 C 12.6629 13.6888 12.3386 13.75 12 13.75 C 11.6614 13.75 11.3371 13.6888 11.0375 13.5769 L 8.88675 17.4482 L 10.6369 18.4025 C 10.9577 18.0046 11.4491 17.75 12 17.75 C 12.5509 17.75 13.0424 18.0046 13.3631 18.4025 L 15.1133 17.4482 Z M10.75 11 C10.75 11.6904 11.3096 12.25 12 12.25 C12.6904 12.25 13.25 11.6904 13.25 11 C13.25 10.3096 12.6904 9.75 12 9.75 C11.3096 9.75 10.75 10.3096 10.75 11 Z" fill="#FFFFFF" />
</svg>