<svg xmlns="http://www.w3.org/2000/svg" width="24" height="24" viewBox="0 0 24 24" fill="none">
  <path opacity="0.5" fill-rule="evenodd" clip-rule="evenodd" d="M9.25 11C9.25 9.48122 10.4812 8.25 12 8.25C13.5188 8.25 14.75 9.48122 14.75 11C14.75 12.5188 13.5188 13.75 12 13.75C10.4812 13.75 9.25 12.5188 9.25 11Z" fill="#FFFFFF" />
  <path d="M9.82112 12.6779L4.84452 21.6358C4.64336 21.9979 4.77382 22.4545 5.1359 22.6557C5.49799 22.8568 5.95459 22.7264 6.15575 22.3643L11.0377 13.5768C10.5524 13.3955 10.1321 13.0811 9.82112 12.6779Z" fill="#FFFFFF" />
  <path d="M12.9626 13.5768L17.8445 22.3643C18.0457 22.7264 18.5023 22.8568 18.8644 22.6557C19.2265 22.4545 19.3569 21.9979 19.1558 21.6358L14.179 12.6777C13.8681 13.0809 13.4478 13.3954 12.9626 13.5768Z" fill="#FFFFFF" />
  <path d="M12 5.25C11.0335 5.25 10.25 4.4665 10.25 3.5C10.25 2.5335 11.0335 1.75 12 1.75C12.9665 1.75 13.75 2.5335 13.75 3.5C13.75 4.4665 12.9665 5.25 12 5.25Z" fill="#FFFFFF" />
  <path d="M2.75 7.5C2.75 6.5335 3.5335 5.75 4.5 5.75C5.4665 5.75 6.25 6.5335 6.25 7.5C6.25 8.4665 5.4665 9.25 4.5 9.25C3.5335 9.25 2.75 8.4665 2.75 7.5Z" fill="#FFFFFF" />
  <path d="M19.5 5.75C18.5335 5.75 17.75 6.5335 17.75 7.5C17.75 8.4665 18.5335 9.25 19.5 9.25C20.4665 9.25 21.25 8.4665 21.25 7.5C21.25 6.5335 20.4665 5.75 19.5 5.75Z" fill="#FFFFFF" />
  <path d="M19.5 14.25C18.5335 14.25 17.75 15.0335 17.75 16C17.75 16.9665 18.5335 17.75 19.5 17.75C20.4665 17.75 21.25 16.9665 21.25 16C21.25 15.0335 20.4665 14.25 19.5 14.25Z" fill="#FFFFFF" />
  <path d="M4.5 14.25C3.5335 14.25 2.75 15.0335 2.75 16C2.75 16.9665 3.5335 17.75 4.5 17.75C5.4665 17.75 6.25 16.9665 6.25 16C6.25 15.0335 5.4665 14.25 4.5 14.25Z" fill="#FFFFFF" />
  <path d="M10.25 19.5C10.25 20.4665 11.0335 21.25 12 21.25C12.9665 21.25 13.75 20.4665 13.75 19.5C13.75 18.5335 12.9665 17.75 12 17.75C11.0335 17.75 10.25 18.5335 10.25 19.5Z" fill="#FFFFFF" />
  <path opacity="0.5" fill-rule="nonzero" clip-rule="nonzero" d="M10.6366 4.59718 L6.18471 7.02472 C6.0388 6.50638 5.66011 6.08555 5.16861 5.88219 C5.24682 5.83163 5.32726 5.78376 5.40984 5.73873 L10.2041 3.12456 C10.2367 3.10677 10.2695 3.0895 10.3025 3.07275 C10.2682 3.20947 10.25 3.35257 10.25 3.49992 C10.25 3.91539 10.3948 4.29705 10.6366 4.59718 Z M4.95508 9.19017 L4.95508 13.9687 C4.95508 14.0865 4.96429 14.203 4.98218 14.3172 C4.82901 14.2734 4.66724 14.2499 4.5 14.2499 C4.12916 14.2499 3.78526 14.3653 3.50223 14.562 C3.4711 14.3676 3.45508 14.1694 3.45508 13.9687 L3.45508 9.03109 C3.45508 8.98909 3.45578 8.94719 3.45718 8.90541 C3.74842 9.12186 4.10925 9.24992 4.5 9.24992 C4.65741 9.24992 4.80997 9.22914 4.95508 9.19017 Z M6.24997 16.0107 L10.6367 18.4026 C10.3948 18.7028 10.25 19.0844 10.25 19.4999 C10.25 19.6473 10.2682 19.7904 10.3025 19.9271 C10.2695 19.9103 10.2367 19.893 10.2041 19.8753 L5.59726 17.3633 C5.99273 17.0446 6.24668 16.5574 6.24997 16.0107 Z M13.3629 18.4021 L17.75 16.0099 C17.7531 16.5566 18.0068 17.044 18.4022 17.3628 L13.7945 19.8753 C13.7625 19.8928 13.7302 19.9098 13.6977 19.9263 C13.7319 19.7898 13.75 19.647 13.75 19.4999 C13.75 19.0842 13.605 18.7023 13.3629 18.4021 Z M19.0164 14.3176 C19.0343 14.2032 19.0435 14.0867 19.0435 13.9687 L19.0435 9.18979 C19.1891 9.22901 19.3421 9.24992 19.5 9.24992 C19.8901 9.24992 20.2505 9.12225 20.5415 8.90642 C20.5428 8.94787 20.5435 8.98942 20.5435 9.03109 L20.5435 13.9687 C20.5435 14.1691 20.5276 14.3671 20.4965 14.5612 C20.2137 14.3649 19.8703 14.2499 19.5 14.2499 C19.3322 14.2499 19.17 14.2735 19.0164 14.3176 Z M17.8151 7.02537 L13.3629 4.59771 C13.605 4.29749 13.75 3.91563 13.75 3.49992 C13.75 3.35286 13.7319 3.21003 13.6977 3.07356 C13.7302 3.09006 13.7625 3.10706 13.7945 3.12456 L18.5888 5.73873 C18.6715 5.78386 18.7522 5.83185 18.8305 5.88254 C18.3392 6.08612 17.9608 6.50703 17.8151 7.02537 Z" fill="#FFFFFF" />
</svg>