<svg xmlns="http://www.w3.org/2000/svg" width="24" height="24" viewBox="0 0 24 24" fill="none">
  <path fill-rule="nonzero" clip-rule="nonzero" d="M13.6976 3.07336 C13.7303 3.08994 13.7628 3.10703 13.795 3.12464 L18.5893 5.73881 C18.672 5.78391 18.7525 5.83185 18.8308 5.88249 C19.037 5.79712 19.263 5.75 19.5 5.75 C20.4665 5.75 21.25 6.5335 21.25 7.5 C21.25 8.07615 20.9716 8.58726 20.5419 8.90614 C20.5433 8.94771 20.544 8.98938 20.544 9.03117 L20.544 13.9688 C20.544 14.1692 20.528 14.3673 20.497 14.5616 C20.952 14.8776 21.25 15.404 21.25 16 C21.25 16.9665 20.4665 17.75 19.5 17.75 C19.0844 17.75 18.7026 17.6051 18.4024 17.3631 L17.0949 18.076 L19.1492 21.6242 C19.3567 21.9827 19.2344 22.4415 18.8759 22.6491 C18.5174 22.8566 18.0586 22.7342 17.8511 22.3758 L15.7776 18.7943 L13.795 19.8753 C13.7628 19.8929 13.7303 19.91 13.6976 19.9266 C13.5072 20.6869 12.8193 21.25 12 21.25 C11.1807 21.25 10.493 20.687 10.3024 19.9269 C10.2696 19.9102 10.237 19.893 10.2046 19.8753 L8.22252 18.7946 L6.14919 22.3758 C5.94166 22.7342 5.48282 22.8566 5.12435 22.6491 C4.76588 22.4415 4.64352 21.9827 4.85105 21.6242 L6.90514 18.0763 L5.59745 17.3632 C5.29729 17.6052 4.91556 17.75 4.5 17.75 C3.5335 17.75 2.75 16.9665 2.75 16 C2.75 15.4041 3.04779 14.8779 3.50266 14.5618 C3.47157 14.3675 3.45557 14.1693 3.45557 13.9688 L3.45557 9.03117 C3.45557 8.98928 3.45626 8.94751 3.45765 8.90584 C3.02825 8.58694 2.75 8.07596 2.75 7.5 C2.75 6.5335 3.5335 5.75 4.5 5.75 C4.73691 5.75 4.96283 5.79708 5.16891 5.88239 C5.24718 5.83179 5.32768 5.78387 5.41033 5.73881 L10.2046 3.12464 C10.237 3.10695 10.2696 3.08978 10.3024 3.07312 C10.493 2.31295 11.1808 1.75 12 1.75 C12.8193 1.75 13.5072 2.31307 13.6976 3.07336 Z M10.6368 4.59745 L6.18477 7.02503 C6.22727 7.17606 6.25 7.33538 6.25 7.5 C6.25 8.30891 5.70117 8.98963 4.95557 9.19011 L4.95557 13.9688 C4.95557 14.0866 4.96478 14.2031 4.98269 14.3174 C5.71444 14.5269 6.25 15.2009 6.25 16 C6.25 16.0035 6.24999 16.007 6.24997 16.0105 L7.65694 16.7777 L10.3486 12.1284 C10.1287 11.8072 10.0001 11.4186 10.0001 11 C10.0001 9.89543 10.8956 9 12.0001 9 C13.1047 9 14.0001 9.89543 14.0001 11 C14.0001 11.4186 13.8715 11.8072 13.6516 12.1284 L16.3431 16.7774 L17.75 16.0103 C17.75 16.0069 17.75 16.0034 17.75 16 C17.75 15.2011 18.2853 14.5272 19.0169 14.3175 C19.0348 14.2032 19.044 14.0867 19.044 13.9688 L19.044 9.19 C18.2986 8.98938 17.75 8.30876 17.75 7.5 C17.75 7.33545 17.7727 7.1762 17.8152 7.02522 L13.3631 4.5976 C13.0423 4.99547 12.5509 5.25 12 5.25 C11.4491 5.25 10.9576 4.9954 10.6368 4.59745 Z M 8.97432 17.496 L 10.6368 18.4025 C 10.9576 18.0046 11.4491 17.75 12 17.75 C 12.5509 17.75 13.0423 18.0045 13.3631 18.4024 L 15.0258 17.4957 L 12.3998 12.96 C 12.2707 12.9862 12.137 13 12.0001 13 C 11.8632 13 11.7296 12.9862 11.6004 12.96 L 8.97432 17.496 Z" fill="#FFFFFF" />
</svg>