<svg xmlns="http://www.w3.org/2000/svg" width="24" height="24" viewBox="0 0 24 24" fill="none">
  <path fill-rule="nonzero" clip-rule="nonzero" d="M8.66699 9.41667 L11.2503 9.41667 L11.2503 11.9478 C11.2501 11.9651 11.25 11.9825 11.25 11.9998 C11.25 12.0172 11.2501 12.0346 11.2503 12.0519 L11.2503 14.5832 L8.66699 14.5832 C7.24026 14.5832 6.08366 13.4266 6.08366 11.9998 C6.08366 10.5731 7.24021 9.41667 8.66699 9.41667 Z M 11.2503 7.91667 H 8.66699 C 7.24026 7.91667 6.08366 6.76007 6.08366 5.33333 C 6.08366 3.9066 7.24026 2.75 8.66699 2.75 H 11.2503 V 7.91667 Z M12.7503 2.75 L15.3333 2.75 C16.7601 2.75 17.9167 3.9066 17.9167 5.33333 C17.9167 6.76002 16.7597 7.9165 15.333 7.9165 L12.7503 7.91663 L12.7503 2.75 Z M15.3331 9.4165 C16.7598 9.41652 17.9167 10.5731 17.9167 11.9998 C17.9167 13.4266 16.7601 14.5832 15.3333 14.5832 C13.9204 14.5832 12.7724 13.4489 12.7503 12.0412 L12.7503 11.9584 C12.7724 10.5509 13.9203 9.41664 15.3331 9.4165 Z M8.66699 16.0832 L11.2503 16.0832 L11.2502 18.6668 C11.2502 20.0936 10.0936 21.2502 8.66683 21.2502 C7.24009 21.2502 6.0835 20.0936 6.0835 18.6668 C6.0835 17.24 7.2403 16.0832 8.66699 16.0832 Z" fill="#FFFFFF" />
</svg>