<svg xmlns="http://www.w3.org/2000/svg" width="24" height="24" viewBox="0 0 24 24" fill="none">
  <path fill-rule="nonzero" clip-rule="nonzero" d="M8.66683 1.25 L15.3335 1.25 C17.5887 1.25 19.4168 3.07817 19.4168 5.33333 C19.4168 6.70965 18.7359 7.92693 17.6926 8.66666 C18.7359 9.4064 19.4168 10.6237 19.4168 12 C19.4168 14.2552 17.5887 16.0833 15.3335 16.0833 C14.3534 16.0833 13.4539 15.738 12.7502 15.1624 L12.7502 18.6667 C12.7502 20.9218 10.922 22.75 8.66683 22.75 C6.41167 22.75 4.5835 20.9218 4.5835 18.6667 C4.5835 17.2903 5.26442 16.0731 6.30777 15.3333 C5.26442 14.5936 4.5835 13.3763 4.5835 12 C4.5835 10.6237 5.26442 9.4064 6.30776 8.66667 C5.26442 7.92693 4.5835 6.70965 4.5835 5.33333 C4.5835 3.07817 6.41167 1.25 8.66683 1.25 Z M11.2502 14.5833 L11.2502 12 L11.2502 9.41666 L8.66683 9.41667 C7.24009 9.41666 6.0835 10.5733 6.0835 12 C6.0835 13.4267 7.24009 14.5833 8.66683 14.5833 L11.2502 14.5833 Z M 8.66683 7.91667 H 11.2502 V 2.75 H 8.66683 C 7.24009 2.75 6.0835 3.9066 6.0835 5.33333 C 6.0835 6.76007 7.24009 7.91667 8.66683 7.91667 Z M17.9168 5.33333 C17.9168 3.9066 16.7602 2.75 15.3335 2.75 L12.7502 2.75 L12.7502 7.91666 L14.0432 7.91666 L15.3363 7.91667 C16.7617 7.91517 17.9168 6.75914 17.9168 5.33333 Z M12.7502 11.9968 L12.7502 12.0032 C12.7519 13.4284 13.9078 14.5833 15.3335 14.5833 C16.7602 14.5833 17.9168 13.4267 17.9168 12 C17.9168 10.5741 16.7616 9.41801 15.336 9.41667 L15.3303 9.41667 C13.9061 9.41838 12.7519 10.5726 12.7502 11.9968 Z M 8.66683 16.0833 C 7.24009 16.0833 6.0835 17.2399 6.0835 18.6667 C 6.0835 20.0934 7.24009 21.25 8.66683 21.25 C 10.0936 21.25 11.2502 20.0934 11.2502 18.6667 V 16.0833 H 8.66683 Z" fill="#FFFFFF" />
</svg>