<svg xmlns="http://www.w3.org/2000/svg" width="24" height="24" viewBox="0 0 24 24" fill="none">
  <path fill-rule="nonzero" clip-rule="nonzero" d="M 5 1.25 C 5.41421 1.25 5.75 1.58579 5.75 2 V 3.08515 L 7.32358 2.77043 C 9.11678 2.41179 10.9756 2.58245 12.6735 3.26161 L 12.8771 3.34307 C 14.2919 3.90898 15.849 4.01466 17.3273 3.64509 C 18.5579 3.33744 19.75 4.2682 19.75 5.53669 V 12.9037 C 19.75 13.8922 19.0773 14.7538 18.1183 14.9935 L 17.9039 15.0471 C 15.9814 15.5277 13.9563 15.3903 12.1164 14.6543 C 10.6886 14.0832 9.12562 13.9397 7.61776 14.2413 L 5.75 14.6149 V 22 C 5.75 22.4142 5.41421 22.75 5 22.75 C 4.58579 22.75 4.25 22.4142 4.25 22 V 2 C 4.25 1.58579 4.58579 1.25 5 1.25 Z M 5.75 13.0851 L 7.32358 12.7704 C 9.11678 12.4118 10.9756 12.5825 12.6735 13.2616 C 14.2206 13.8805 15.9235 13.996 17.5401 13.5919 L 17.7545 13.5383 C 18.0457 13.4655 18.25 13.2039 18.25 12.9037 V 5.53669 C 18.25 5.24405 17.975 5.02933 17.6911 5.10031 C 15.9069 5.54635 14.0276 5.4188 12.32 4.73578 L 12.1164 4.65433 C 10.6886 4.08323 9.12562 3.93973 7.61776 4.2413 L 5.75 4.61485 V 13.0851 Z" fill="#FFFFFF" />
</svg>