<svg xmlns="http://www.w3.org/2000/svg" width="24" height="24" viewBox="0 0 24 24" fill="none">
  <path fill-rule="nonzero" clip-rule="nonzero" d="M 5 1.25 C 5.41421 1.25 5.75 1.58579 5.75 2 V 3.08515 L 7.32358 2.77043 C 9.11678 2.41179 10.9756 2.58245 12.6735 3.26161 L 13.0868 3.42693 C 14.3652 3.93832 15.7724 4.03382 17.1082 3.69986 C 18.3875 3.38005 19.4147 4.76652 18.7363 5.89719 L 17.4578 8.02808 C 17.0814 8.65542 17.021 8.78483 17.0056 8.90275 C 16.9972 8.96731 16.9972 9.03269 17.0056 9.09725 C 17.021 9.21517 17.0814 9.34458 17.4578 9.97192 L 19.0184 12.573 C 19.5884 13.5229 19.0787 14.7534 18.004 15.0221 L 17.9039 15.0471 C 15.9814 15.5277 13.9563 15.3903 12.1164 14.6543 C 10.6886 14.0832 9.12562 13.9397 7.61776 14.2413 L 5.75 14.6149 V 22 C 5.75 22.4142 5.41421 22.75 5 22.75 C 4.58579 22.75 4.25 22.4142 4.25 22 V 2 C 4.25 1.58579 4.58579 1.25 5 1.25 Z M 5.75 13.0851 L 7.32358 12.7704 C 9.11678 12.4118 10.9756 12.5825 12.6735 13.2616 C 14.2206 13.8805 15.9235 13.996 17.5401 13.5919 L 17.6402 13.5669 C 17.7377 13.5425 17.7839 13.4309 17.7322 13.3447 L 16.1716 10.7437 C 16.1517 10.7106 16.132 10.6779 16.1125 10.6455 C 15.8295 10.1756 15.5796 9.76055 15.5183 9.29176 C 15.493 9.09808 15.493 8.90192 15.5183 8.70824 C 15.5796 8.23946 15.8295 7.82441 16.1125 7.35454 C 16.132 7.32208 16.1517 7.28936 16.1716 7.25634 L 17.4254 5.16658 C 15.7976 5.56324 14.0861 5.4422 12.5297 4.81964 L 12.1164 4.65433 C 10.6886 4.08323 9.12562 3.93973 7.61776 4.2413 L 5.75 4.61485 V 13.0851 Z" fill="#FFFFFF" />
</svg>