<svg xmlns="http://www.w3.org/2000/svg" width="24" height="24" viewBox="0 0 24 24" fill="none">
  <path d="M11.9998 12.25C12.414 12.25 12.7498 12.5858 12.7498 13V15C12.7498 15.4142 12.414 15.75 11.9998 15.75C11.5856 15.75 11.2498 15.4142 11.2498 15V13C11.2498 12.5858 11.5856 12.25 11.9998 12.25Z" fill="#FFFFFF" />
  <path fill-rule="nonzero" clip-rule="nonzero" d="M5.95508 1.25 L18.0446 1.25 C18.4774 1.24995 18.8742 1.24991 19.197 1.29331 C19.5525 1.3411 19.9282 1.45355 20.2373 1.76257 C20.5463 2.07159 20.6587 2.44732 20.7065 2.8028 C20.7499 3.12561 20.7499 3.52244 20.7498 3.95526 L20.7498 4.17158 L20.75 4.25163 C20.7509 4.5773 20.7519 4.92879 20.6166 5.25549 C20.4813 5.58218 20.232 5.83001 20.0011 6.05963 L19.9444 6.11612 L16.7017 9.35876 C16.0804 9.9801 15.9269 10.1524 15.845 10.3501 C15.7631 10.5477 15.7498 10.7782 15.7498 11.6569 L15.7498 19.0253 C15.7498 19.4697 15.7498 19.8408 15.7291 20.1454 C15.7074 20.4625 15.6608 20.762 15.5405 21.0524 C15.2614 21.7262 14.726 22.2616 14.0522 22.5407 C13.7618 22.661 13.4623 22.7076 13.1452 22.7292 C12.8406 22.75 12.4695 22.75 12.0251 22.75 L11.9746 22.75 C11.5301 22.75 11.1591 22.75 10.8545 22.7292 C10.5374 22.7076 10.2378 22.661 9.94744 22.5407 C9.27362 22.2616 8.73826 21.7262 8.45916 21.0524 C8.33887 20.762 8.29223 20.4625 8.27059 20.1454 C8.24981 19.8408 8.24982 19.4697 8.24982 19.0253 L8.24982 11.6569 C8.24982 10.7782 8.23655 10.5477 8.15467 10.3501 C8.0728 10.1524 7.91925 9.9801 7.29792 9.35877 L4.05528 6.11612 L3.99857 6.05963 C3.76762 5.83001 3.51836 5.58218 3.38304 5.25549 C3.24771 4.92879 3.24873 4.5773 3.24967 4.25163 L3.24982 4.17158 L3.24982 3.95526 C3.24977 3.52244 3.24972 3.12561 3.29312 2.8028 C3.34092 2.44732 3.45336 2.07159 3.76239 1.76257 C4.07141 1.45355 4.44714 1.3411 4.80262 1.29331 C5.12543 1.24991 5.52226 1.24995 5.95508 1.25 Z M 4.8255 2.82187 L 4.82306 2.82324 L 4.82169 2.82568 C 4.82068 2.82761 4.81906 2.83093 4.81698 2.83597 C 4.80802 2.85775 4.79273 2.90611 4.77975 3.00267 C 4.75142 3.21339 4.74982 3.5074 4.74982 4.00001 V 4.17158 C 4.74982 4.19924 4.74983 4.22534 4.74986 4.25 H 19.2498 C 19.2498 4.22534 19.2498 4.19924 19.2498 4.17158 V 4.00001 C 19.2498 3.5074 19.2482 3.21339 19.2199 3.00267 C 19.2069 2.90611 19.1916 2.85775 19.1827 2.83597 C 19.1806 2.83093 19.179 2.82761 19.178 2.82568 L 19.1766 2.82324 L 19.1742 2.82187 C 19.1722 2.82086 19.1689 2.81924 19.1639 2.81717 C 19.1421 2.80821 19.0937 2.79291 18.9972 2.77993 C 18.7864 2.7516 18.4924 2.75001 17.9998 2.75001 H 5.99982 C 5.50722 2.75001 5.21321 2.7516 5.00249 2.77993 C 4.90593 2.79291 4.85757 2.80821 4.83579 2.81717 C 4.83074 2.81924 4.82743 2.82086 4.8255 2.82187 Z M 18.1892 5.75 H 5.81048 L 8.4441 8.38351 C 8.756 8.69482 9.02688 8.96518 9.23724 9.25 H 14.7624 C 14.9728 8.96519 15.2436 8.69485 15.5555 8.38355 L 18.1892 5.75 Z M 14.2631 10.75 H 9.7365 C 9.75042 10.9925 9.75017 11.2522 9.7499 11.536 L 9.74982 19 C 9.74982 19.4762 9.75023 19.7958 9.76711 20.0433 C 9.78354 20.284 9.81302 20.4012 9.84497 20.4784 C 9.97184 20.7846 10.2152 21.028 10.5215 21.1549 C 10.5986 21.1868 10.7158 21.2163 10.9566 21.2327 C 11.204 21.2496 11.5236 21.25 11.9998 21.25 C 12.476 21.25 12.7956 21.2496 13.0431 21.2327 C 13.2838 21.2163 13.401 21.1868 13.4782 21.1549 C 13.7845 21.028 14.0278 20.7846 14.1547 20.4784 C 14.1866 20.4012 14.2161 20.284 14.2325 20.0433 C 14.2494 19.7958 14.2498 19.4762 14.2498 19 L 14.2497 11.536 C 14.2495 11.2522 14.2492 10.9925 14.2631 10.75 Z" fill="#FFFFFF" />
</svg>