<svg xmlns="http://www.w3.org/2000/svg" width="24" height="24" viewBox="0 0 24 24" fill="none">
  <path d="M20 4.25H4.00002L4 4C4 3.05719 4 2.58579 4.29289 2.29289C4.58579 2 5.05719 2 6 2H18C18.9428 2 19.4142 2 19.7071 2.29289C20 2.58579 20 3.05719 20 4L20 4.25Z" fill="#FFFFFF" />
  <path d="M16.1716 8.82843C16.0094 8.99057 15.87 9.12998 15.75 9.25475V9.25H8.25V9.25475C8.12999 9.12999 7.99061 8.99061 7.8285 8.8285L4.75 5.75H19.25L16.1716 8.82843Z" fill="#FFFFFF" />
  <path fill-rule="nonzero" clip-rule="nonzero" d="M9 11.6569 C9 11.2795 9 10.9893 8.98503 10.75 L15.015 10.75 C15 10.9893 15 11.2795 15 11.6569 L15 19 C15 19.9319 15 20.3978 14.8478 20.7654 C14.6448 21.2554 14.2554 21.6448 13.7654 21.8478 C13.3978 22 12.9319 22 12 22 C11.0681 22 10.6022 22 10.2346 21.8478 C9.74458 21.6448 9.35523 21.2554 9.15224 20.7654 C9 20.3978 9 19.9319 9 19 L9 11.6569 Z M 12.75 13 C 12.75 12.5858 12.4142 12.25 12 12.25 C 11.5858 12.25 11.25 12.5858 11.25 13 V 15 C 11.25 15.4142 11.5858 15.75 12 15.75 C 12.4142 15.75 12.75 15.4142 12.75 15 V 13 Z" fill="#FFFFFF" />
</svg>