<svg xmlns="http://www.w3.org/2000/svg" width="24" height="24" viewBox="0 0 24 24" fill="none">
  <path fill-rule="nonzero" clip-rule="nonzero" d="M12 1.25 C17.9371 1.25 22.75 6.06294 22.75 12 C22.75 17.9371 17.9371 22.75 12 22.75 C6.06294 22.75 1.25 17.9371 1.25 12 C1.25 6.06294 6.06294 1.25 12 1.25 Z M2.75 12 C2.75 14.2845 3.57813 16.3755 4.95056 17.9893 C4.95679 17.9826 4.96317 17.976 4.96969 17.9694 L17.9697 4.96967 C17.9762 4.96319 17.9827 4.95685 17.9894 4.95066 C16.3756 3.57817 14.2845 2.75 12 2.75 C6.89137 2.75 2.75 6.89137 2.75 12 Z M 6.0105 19.0492 C 7.62432 20.4218 9.71544 21.25 12 21.25 C 17.1086 21.25 21.25 17.1086 21.25 12 C 21.25 9.7155 20.4218 7.62442 19.0493 6.01062 C 19.0431 6.01728 19.0368 6.02386 19.0303 6.03034 L 6.03034 19.0301 C 6.02382 19.0366 6.0172 19.043 6.0105 19.0492 Z" fill="#FFFFFF" />
</svg>