<svg xmlns="http://www.w3.org/2000/svg" width="24" height="24" viewBox="0 0 24 24" fill="none">
  <path fill-rule="nonzero" clip-rule="nonzero" d="M10.7064 1.25004 L13.2938 1.25004 C14.3815 1.24952 15.1375 1.24916 15.8289 1.53554 C16.5202 1.82192 17.0545 2.35671 17.8233 3.12624 L20.8739 6.17684 C21.6435 6.94564 22.1783 7.47993 22.4646 8.1713 C22.751 8.86268 22.7507 9.61863 22.7501 10.7064 L22.7501 13.2938 C22.7507 14.3815 22.751 15.1375 22.4646 15.8289 C22.1783 16.5202 21.6435 17.0545 20.8739 17.8233 L17.8233 20.874 C17.0545 21.6435 16.5202 22.1783 15.8289 22.4646 C15.1375 22.751 14.3815 22.7507 13.2938 22.7501 L10.7064 22.7501 C9.61863 22.7507 8.86268 22.751 8.1713 22.4646 C7.47992 22.1783 6.94564 21.6435 6.17683 20.8739 L3.12624 17.8233 C2.35671 17.0545 1.82192 16.5202 1.53554 15.8289 C1.24916 15.1375 1.24952 14.3815 1.25004 13.2938 L1.25004 10.7064 C1.24952 9.61863 1.24916 8.86268 1.53554 8.1713 C1.82192 7.47993 2.35671 6.94565 3.12625 6.17684 L6.17684 3.12625 C6.94564 2.35671 7.47993 1.82192 8.1713 1.53554 C8.86268 1.24916 9.61863 1.24952 10.7064 1.25004 Z M8.74533 2.92136 C8.36389 3.07936 8.04706 3.37742 7.1367 4.28778 L4.28778 7.1367 C3.37742 8.04706 3.07936 8.36389 2.92136 8.74533 C2.76336 9.12676 2.75009 9.56156 2.75009 10.849 L2.75009 13.1512 C2.75009 14.4386 2.76336 14.8734 2.92136 15.2548 C3.07936 15.6363 3.37742 15.9531 4.28778 16.8635 L5.1818 17.7575 L17.7576 5.18191 L16.8635 4.28778 C15.9531 3.37742 15.6363 3.07936 15.2549 2.92136 C14.8734 2.76336 14.4386 2.75009 13.1512 2.75009 L10.849 2.75009 C9.56156 2.75009 9.12676 2.76336 8.74533 2.92136 Z M 6.24246 18.8182 L 7.1367 19.7124 C 8.04706 20.6228 8.36389 20.9208 8.74533 21.0788 C 9.12676 21.2368 9.56156 21.2501 10.849 21.2501 H 13.1512 C 14.4386 21.2501 14.8734 21.2368 15.2549 21.0788 C 15.6363 20.9208 15.9531 20.6228 16.8635 19.7124 L 19.7124 16.8635 C 20.6228 15.9531 20.9208 15.6363 21.0788 15.2548 C 21.2368 14.8734 21.2501 14.4386 21.2501 13.1512 V 10.849 C 21.2501 9.56156 21.2368 9.12676 21.0788 8.74533 C 20.9208 8.36389 20.6228 8.04706 19.7124 7.1367 L 18.8183 6.24257 L 6.24246 18.8182 Z" fill="#FFFFFF" />
</svg>