<svg xmlns="http://www.w3.org/2000/svg" width="24" height="24" viewBox="0 0 24 24" fill="none">
  <path fill-rule="nonzero" clip-rule="nonzero" d="M 2 12 C 2 7.28595 2 4.92893 3.46447 3.46447 C 4.92893 2 7.28595 2 12 2 C 16.714 2 19.0711 2 20.5355 3.46447 C 22 4.92893 22 7.28595 22 12 C 22 16.714 22 19.0711 20.5355 20.5355 C 19.0711 22 16.714 22 12 22 C 7.28595 22 4.92893 22 3.46447 20.5355 C 2 19.0711 2 16.714 2 12 Z M 6.25 8 C 6.25 7.58579 5.91421 7.25 5.5 7.25 C 5.08579 7.25 4.75 7.58579 4.75 8 V 10 C 4.75 11.5188 5.98122 12.75 7.5 12.75 H 9.75 V 16 C 9.75 16.4142 10.0858 16.75 10.5 16.75 C 10.9142 16.75 11.25 16.4142 11.25 16 V 8 C 11.25 7.58579 10.9142 7.25 10.5 7.25 C 10.0858 7.25 9.75 7.58579 9.75 8 V 11.25 H 7.5 C 6.80964 11.25 6.25 10.6904 6.25 10 V 8 Z M19.0198 7.45938 C18.7213 7.17228 18.2465 7.18159 17.9594 7.48017 L14.25 11.3379 L14.25 8 C14.25 7.58579 13.9142 7.25 13.5 7.25 C13.0858 7.25 12.75 7.58579 12.75 8 L12.75 16 C12.75 16.4142 13.0858 16.75 13.5 16.75 C13.9142 16.75 14.25 16.4142 14.25 16 L14.25 13.5021 L15.3047 12.4051 L17.8686 16.4047 C18.0921 16.7535 18.556 16.8549 18.9048 16.6314 C19.2535 16.4079 19.3549 15.944 19.1314 15.5953 L16.3738 11.2933 L19.0406 8.51983 C19.3277 8.22125 19.3184 7.74647 19.0198 7.45938 Z" fill="#FFFFFF" />
</svg>