<svg xmlns="http://www.w3.org/2000/svg" width="24" height="24" viewBox="0 0 24 24" fill="none">
  <path fill-rule="nonzero" clip-rule="nonzero" d="M 2 13.0869 C 2 10.9906 2 9.94241 2.55325 9.14745 C 2.99989 8.50568 3.71844 8.15634 5 7.68117 V 7.06009 C 5 5.75506 5 5.10254 5.33815 4.65303 C 5.4252 4.53731 5.52676 4.43372 5.64021 4.34492 C 6.08089 4 6.7206 4 8 4 H 8.81818 C 9.32544 4 9.57907 4 9.78716 4.05687 C 10.3519 4.21122 10.7929 4.66113 10.9442 5.23713 L 11.0162 5.53028 L 14.0179 4.45927 C 17.6539 3.16195 19.4718 2.51329 20.7359 3.42756 C 22 4.34183 22 6.30539 22 10.2325 V 15.8834 C 22 18.7668 22 20.2085 21.1213 21.1042 C 20.2426 22 18.8284 22 16 22 H 8 C 5.17157 22 3.75736 22 2.87868 21.1042 C 2 20.2085 2 18.7668 2 15.8834 V 13.0869 Z M7.46967 10.5303 L8.96967 12.0303 C9.00804 12.0687 9.04954 12.102 9.09334 12.1304 C9 12.564 9 13.1561 9 14 C9 14.8313 9 15.4182 9.08923 15.8501 L7.46967 17.4697 C7.17678 17.7626 7.17678 18.2374 7.46967 18.5303 C7.76256 18.8232 8.23744 18.8232 8.53033 18.5303 L10.1499 16.9108 C10.5818 17 11.1687 17 12 17 C12.8313 17 13.4182 17 13.8501 16.9108 L15.4697 18.5303 C15.7626 18.8232 16.2374 18.8232 16.5303 18.5303 C16.8232 18.2374 16.8232 17.7626 16.5303 17.4697 L14.9108 15.8501 C15 15.4182 15 14.8313 15 14 C15 13.1687 15 12.5818 14.9108 12.1499 L16.5303 10.5303 C16.8232 10.2374 16.8232 9.76256 16.5303 9.46967 C16.2374 9.17678 15.7626 9.17678 15.4697 9.46967 L13.8501 11.0892 C13.4182 11 12.8313 11 12 11 C11.1561 11 10.564 11 10.1304 11.0933 C10.102 11.0495 10.0687 11.008 10.0303 10.9697 L8.53033 9.46967 C8.23744 9.17678 7.76256 9.17678 7.46967 9.46967 C7.17678 9.76256 7.17678 10.2374 7.46967 10.5303 Z" fill="#FFFFFF" />
</svg>