<svg xmlns="http://www.w3.org/2000/svg" width="24" height="24" viewBox="0 0 24 24" fill="none">
  <path fill-rule="nonzero" clip-rule="nonzero" d="M22 19.2058 C22 20.4896 20.649 21.3245 19.5008 20.7504 C18.5727 20.2864 17.4672 20.3552 16.6039 20.9308 C15.6326 21.5782 14.3674 21.5782 13.3961 20.9308 L13.0435 20.6957 C12.4116 20.2744 11.5884 20.2744 10.9565 20.6957 L10.6039 20.9308 C9.63264 21.5782 8.36736 21.5782 7.39614 20.9308 C6.5328 20.3552 5.42726 20.2864 4.4992 20.7504 C3.35098 21.3245 2 20.4896 2 19.2058 L2 12 C2 6.47715 6.47715 2 12 2 C17.5228 2 22 6.47715 22 12 L22 19.2058 Z M16 10.5 C16 9.67157 15.5523 9 15 9 C14.4477 9 14 9.67157 14 10.5 C14 11.3284 14.4477 12 15 12 C15.5523 12 16 11.3284 16 10.5 Z M 9 12 C 9.55228 12 10 11.3284 10 10.5 C 10 9.67157 9.55228 9 9 9 C 8.44772 9 8 9.67157 8 10.5 C 8 11.3284 8.44772 12 9 12 Z" fill="#FFFFFF" />
</svg>