<svg xmlns="http://www.w3.org/2000/svg" width="24" height="24" viewBox="0 0 24 24" fill="none">
  <path d="M10 10.5C10 11.3284 9.55228 12 9 12C8.44772 12 8 11.3284 8 10.5C8 9.67157 8.44772 9 9 9C9.55228 9 10 9.67157 10 10.5Z" fill="#FFFFFF" />
  <path d="M16 10.5C16 11.3284 15.5523 12 15 12C14.4477 12 14 11.3284 14 10.5C14 9.67157 14.4477 9 15 9C15.5523 9 16 9.67157 16 10.5Z" fill="#FFFFFF" />
  <path fill-rule="nonzero" clip-rule="nonzero" d="M12 1.25 C17.9578 1.25 22.75 6.21861 22.75 12.3006 L22.75 19.723 C22.75 21.5695 20.8375 22.8461 19.1574 21.9808 C18.4757 21.6297 17.6651 21.6808 17.0284 22.1181 C15.8014 22.9606 14.1986 22.9606 12.9716 22.1181 L12.6189 21.8759 C12.2428 21.6176 11.7572 21.6176 11.3811 21.8759 L11.0284 22.1181 C9.80141 22.9606 8.19859 22.9606 6.97157 22.1181 C6.33486 21.6808 5.52425 21.6297 4.8426 21.9808 C3.16246 22.8461 1.25 21.5695 1.25 19.723 L1.25 12.3006 C1.25 6.21861 6.04216 1.25 12 1.25 Z M2.75 12.3006 L2.75 19.723 C2.75 20.5212 3.53949 20.9647 4.1558 20.6472 C5.33026 20.0424 6.73074 20.133 7.8207 20.8815 C8.53613 21.3728 9.46387 21.3728 10.1793 20.8815 L10.532 20.6394 C11.4196 20.0298 12.5804 20.0298 13.468 20.6394 L13.8207 20.8815 C14.5361 21.3728 15.4639 21.3728 16.1793 20.8815 C17.2693 20.133 18.6697 20.0424 19.8442 20.6472 C20.4605 20.9647 21.25 20.5212 21.25 19.723 L21.25 12.3006 C21.25 7.00485 17.0879 2.75 12 2.75 C6.91215 2.75 2.75 7.00485 2.75 12.3006 Z" fill="#FFFFFF" />
</svg>