<svg xmlns="http://www.w3.org/2000/svg" width="24" height="24" viewBox="0 0 24 24" fill="none">
  <path opacity="0.5" d="M2 12C2 7.28595 2 4.92893 3.46447 3.46447C4.92893 2 7.28595 2 12 2C16.714 2 19.0711 2 20.5355 3.46447C22 4.92893 22 7.28595 22 12C22 16.714 22 19.0711 20.5355 20.5355C19.0711 22 16.714 22 12 22C7.28595 22 4.92893 22 3.46447 20.5355C2 19.0711 2 16.714 2 12Z" fill="#FFFFFF" />
  <path fill-rule="nonzero" clip-rule="nonzero" d="M6.91381 11.25 C6.56296 10.8117 6.3008 10.2947 6.15783 9.7228 C5.61958 7.56979 7.56979 5.61958 9.7228 6.15783 C10.2947 6.3008 10.8117 6.56295 11.25 6.91381 L11.25 2.00024 C11.4932 2 11.7431 2 12 2 C12.2569 2 12.5068 2 12.75 2.00024 L12.75 6.91404 C13.1884 6.56307 13.7055 6.30083 14.2775 6.15783 C16.4305 5.61958 18.3807 7.56979 17.8425 9.7228 C17.6995 10.2947 17.4373 10.8117 17.0865 11.25 L21.9998 11.25 C22 11.4932 22 11.7431 22 12 C22 12.2569 22 12.5068 21.9998 12.75 L14.0129 12.75 C13.9969 12.7502 13.9809 12.7503 13.9649 12.7503 L13.837 12.7503 C14.1757 14.1835 15.4633 15.25 17 15.25 C17.4142 15.25 17.75 15.5858 17.75 16 C17.75 16.4142 17.4142 16.75 17 16.75 C15.14 16.75 13.5296 15.6809 12.75 14.1236 L12.75 21.9998 C12.5068 22 12.2569 22 12 22 C11.7431 22 11.4932 22 11.25 21.9998 L11.25 14.1236 C10.4704 15.6809 8.86003 16.75 7 16.75 C6.58579 16.75 6.25 16.4142 6.25 16 C6.25 15.5858 6.58579 15.25 7 15.25 C8.53669 15.25 9.82428 14.1835 10.163 12.7503 L10.0354 12.7503 C10.0193 12.7503 10.0033 12.7502 9.98737 12.75 L2.00024 12.75 C2 12.5068 2 12.2569 2 12 C2 11.7431 2 11.4932 2.00024 11.25 L6.91381 11.25 Z M11.25 11.25 L11.25 9.99741 C11.233 8.86763 10.4582 7.88785 9.359 7.61305 C8.30455 7.34943 7.34943 8.30455 7.61305 9.359 C7.88786 10.4582 8.86764 11.233 9.99743 11.25 L11.25 11.25 Z M14.0029 11.25 C15.1326 11.233 16.1124 10.4582 16.3872 9.359 C16.6509 8.30455 15.6957 7.34943 14.6413 7.61305 C13.5394 7.88852 12.7636 8.87236 12.7502 10.0056 L12.7503 10.0354 L12.7503 11.25 L14.0029 11.25 Z" fill="#FFFFFF" />
</svg>