<svg xmlns="http://www.w3.org/2000/svg" width="24" height="24" viewBox="0 0 24 24" fill="none">
  <path fill-rule="nonzero" clip-rule="nonzero" d="M11.9426 1.25 L12.0574 1.25 C14.3658 1.24999 16.1748 1.24998 17.5863 1.43975 C19.031 1.63399 20.1711 2.03933 21.0659 2.93414 C21.9607 3.82895 22.366 4.96897 22.5603 6.41371 C22.75 7.82519 22.75 9.63423 22.75 11.9426 L22.75 12.0574 C22.75 14.3658 22.75 16.1748 22.5603 17.5863 C22.366 19.031 21.9607 20.1711 21.0659 21.0659 C20.1711 21.9607 19.031 22.366 17.5863 22.5603 C16.1748 22.75 14.3658 22.75 12.0574 22.75 L11.9426 22.75 C9.63423 22.75 7.82519 22.75 6.41371 22.5603 C4.96897 22.366 3.82895 21.9607 2.93414 21.0659 C2.03933 20.1711 1.63399 19.031 1.43975 17.5863 C1.24998 16.1748 1.24999 14.3658 1.25 12.0574 L1.25 11.9426 C1.24999 9.63422 1.24998 7.82519 1.43975 6.41371 C1.63399 4.96897 2.03933 3.82895 2.93414 2.93414 C3.82895 2.03933 4.96897 1.63399 6.41371 1.43975 C7.82519 1.24998 9.63424 1.24999 11.9426 1.25 Z M 11.25 2.75028 C 9.25629 2.75238 7.77266 2.77054 6.61358 2.92637 C 5.33517 3.09825 4.56445 3.42514 3.9948 3.9948 C 3.42514 4.56445 3.09825 5.33517 2.92637 6.61358 C 2.77054 7.77266 2.75238 9.25629 2.75028 11.25 H 6.91376 C 6.56279 10.8116 6.30055 10.2945 6.15756 9.72253 C 5.6193 7.56951 7.56951 5.6193 9.72253 6.15756 C 10.2945 6.30055 10.8116 6.56279 11.25 6.91376 V 2.75028 Z M 2.75028 12.75 C 2.75238 14.7437 2.77054 16.2273 2.92637 17.3864 C 3.09825 18.6648 3.42514 19.4355 3.9948 20.0052 C 4.56445 20.5749 5.33517 20.9018 6.61358 21.0736 C 7.77266 21.2295 9.25629 21.2476 11.25 21.2497 V 14.1236 C 10.4704 15.6809 8.86003 16.75 7 16.75 C 6.58579 16.75 6.25 16.4142 6.25 16 C 6.25 15.5858 6.58579 15.25 7 15.25 C 8.53679 15.25 9.82445 14.1834 10.163 12.75 H 10.0351 L 10.0259 12.75 H 2.75028 Z M 12.75 21.2497 C 14.7437 21.2476 16.2273 21.2295 17.3864 21.0736 C 18.6648 20.9018 19.4355 20.5749 20.0052 20.0052 C 20.5749 19.4355 20.9018 18.6648 21.0736 17.3864 C 21.2295 16.2273 21.2476 14.7437 21.2497 12.75 H 13.9741 L 13.9649 12.75 H 13.837 C 14.1756 14.1834 15.4632 15.25 17 15.25 C 17.4142 15.25 17.75 15.5858 17.75 16 C 17.75 16.4142 17.4142 16.75 17 16.75 C 15.14 16.75 13.5296 15.6809 12.75 14.1236 V 21.2497 Z M21.2497 11.25 C21.2476 9.25629 21.2295 7.77266 21.0736 6.61358 C20.9018 5.33517 20.5749 4.56445 20.0052 3.9948 C19.4355 3.42514 18.6648 3.09825 17.3864 2.92637 C16.2273 2.77054 14.7437 2.75238 12.75 2.75028 L12.75 6.91376 C13.1884 6.56279 13.7055 6.30055 14.2775 6.15756 C16.4305 5.6193 18.3807 7.56951 17.8425 9.72253 C17.6995 10.2945 17.4372 10.8116 17.0863 11.25 L21.2497 11.25 Z M12.75 11.25 L13.9722 11.25 C15.1149 11.2467 16.1099 10.4679 16.3872 9.35872 C16.6509 8.30428 15.6957 7.34916 14.6413 7.61277 C13.5317 7.89017 12.7527 8.88589 12.75 10.0291 L12.75 11.25 Z M 11.25 10.0275 C 11.2466 8.88494 10.4678 7.89004 9.35872 7.61277 C 8.30428 7.34916 7.34916 8.30428 7.61277 9.35872 C 7.89006 10.4679 8.88513 11.2467 10.0278 11.25 H 11.25 V 10.0275 Z" fill="#FFFFFF" />
</svg>