<svg xmlns="http://www.w3.org/2000/svg" width="24" height="24" viewBox="0 0 24 24" fill="none">
  <path fill-rule="nonzero" clip-rule="nonzero" d="M6.23717 4.71172 L5.71898 4.88444 C5.10163 5.09023 4.69491 5.22686 4.39264 5.36502 C4.10684 5.49565 3.97863 5.60032 3.89347 5.70785 C3.80831 5.81537 3.73579 5.96415 3.67408 6.27228 C3.60882 6.59815 3.56898 7.02536 3.51007 7.67343 L3.14309 11.7102 L3.09474 12.242 C3.89787 11.6202 4.90572 11.2502 5.99999 11.2502 C8.34511 11.2502 10.2933 12.9497 10.6802 15.1842 C11.5423 14.9348 12.4577 14.9348 13.3198 15.1842 C13.7067 12.9497 15.6549 11.2502 18 11.2502 C19.0943 11.2502 20.1021 11.6202 20.9052 12.242 L20.4899 7.67343 C20.431 7.02536 20.3912 6.59815 20.3259 6.27228 C20.2642 5.96415 20.1917 5.81537 20.1065 5.70785 C20.0214 5.60032 19.8931 5.49565 19.6073 5.36502 C19.3051 5.22686 18.8984 5.09023 18.281 4.88444 L17.7628 4.71172 C17.3699 4.58073 17.1575 4.15599 17.2885 3.76303 C17.4195 3.37008 17.8442 3.15771 18.2372 3.28869 L18.792 3.47362 C19.3629 3.6639 19.8468 3.82519 20.2309 4.00078 C20.6397 4.18763 20.9975 4.41689 21.2824 4.77654 C21.5672 5.13619 21.7084 5.53702 21.7967 5.97774 C21.8796 6.39189 21.9258 6.89989 21.9803 7.49918 L22.6775 15.1691 C22.7247 15.4364 22.7495 15.7114 22.75 15.9922 C22.7445 18.6109 20.62 20.7502 18 20.7502 C15.6367 20.7502 13.6766 19.0244 13.3111 16.7643 L13.0921 16.6861 C12.3858 16.4342 11.6142 16.4342 10.9079 16.6861 L10.6889 16.7643 C10.3234 19.0244 8.36324 20.7502 5.99999 20.7502 C3.38 20.7502 1.25544 18.6109 1.25 15.9922 C1.25046 15.7114 1.27528 15.4364 1.32246 15.1691 L2.01972 7.49919 C2.07418 6.89989 2.12035 6.39189 2.20328 5.97774 C2.29154 5.53702 2.43275 5.13619 2.7176 4.77654 C3.00244 4.41689 3.36027 4.18763 3.76907 4.00078 C4.15321 3.82519 4.63714 3.6639 5.20803 3.47362 L5.76282 3.28869 C6.15578 3.15771 6.58052 3.37008 6.71151 3.76303 C6.84249 4.15599 6.63012 4.58073 6.23717 4.71172 Z M21.1902 15.3764 C20.8993 13.8799 19.5816 12.7502 18 12.7502 C16.2051 12.7502 14.75 14.2053 14.75 16.0002 C14.75 17.7951 16.2051 19.2502 18 19.2502 C19.7841 19.2502 21.2325 17.8126 21.2498 16.0325 L21.1902 15.3764 Z M 2.8098 15.3764 L 2.75015 16.0325 C 2.76749 17.8126 4.21585 19.2502 5.99999 19.2502 C 7.79492 19.2502 9.24999 17.7951 9.24999 16.0002 C 9.24999 14.2053 7.79492 12.7502 5.99999 12.7502 C 4.41842 12.7502 3.10071 13.8799 2.8098 15.3764 Z" fill="#FFFFFF" />
</svg>