<svg xmlns="http://www.w3.org/2000/svg" width="24" height="24" viewBox="0 0 24 24" fill="none">
  <path fill-rule="nonzero" clip-rule="nonzero" d="M3.46447 20.5355 C2 19.0711 2 16.714 2 12 C2 7.28595 2 4.92893 3.46447 3.46447 C4.92893 2 7.28595 2 12 2 C16.714 2 19.0711 2 20.5355 3.46447 C22 4.92893 22 7.28595 22 12 C22 16.714 22 19.0711 20.5355 20.5355 C19.0711 22 16.714 22 12 22 C7.28595 22 4.92893 22 3.46447 20.5355 Z M18.75 16 C18.75 15.5858 18.4142 15.25 18 15.25 L6 15.25 C5.58579 15.25 5.25 15.5858 5.25 16 C5.25 16.4142 5.58579 16.75 6 16.75 L18 16.75 C18.4142 16.75 18.75 16.4142 18.75 16 Z M 18 12.75 C 18.4142 12.75 18.75 12.4142 18.75 12 C 18.75 11.5858 18.4142 11.25 18 11.25 H 6 C 5.58579 11.25 5.25 11.5858 5.25 12 C 5.25 12.4142 5.58579 12.75 6 12.75 H 18 Z M18.75 8 C18.75 7.58579 18.4142 7.25 18 7.25 L6 7.25 C5.58579 7.25 5.25 7.58579 5.25 8 C5.25 8.41421 5.58579 8.75 6 8.75 L18 8.75 C18.4142 8.75 18.75 8.41421 18.75 8 Z" fill="#FFFFFF" />
</svg>