<svg xmlns="http://www.w3.org/2000/svg" width="24" height="24" viewBox="0 0 24 24" fill="none">
  <path fill-rule="nonzero" clip-rule="nonzero" d="M 11.6597 5.75 C 10.8236 5.75 10.2857 6.34219 10.2857 6.90909 C 10.2857 7.3233 9.94987 7.65909 9.53566 7.65909 C 9.12145 7.65909 8.78566 7.3233 8.78566 6.90909 C 8.78566 5.36727 10.1497 4.25 11.6597 4.25 C 13.1697 4.25 14.5337 5.36727 14.5337 6.90909 C 14.5337 7.58928 14.2865 8.22354 13.8444 8.7044 C 13.7045 8.85669 13.5496 9.00942 13.4085 9.14851 C 13.3834 9.17327 13.3587 9.1976 13.3346 9.22141 C 13.1675 9.38672 13.0202 9.53616 12.8939 9.68456 C 12.8066 9.78721 12.7396 9.87796 12.6889 9.95888 C 13.2574 10.0668 13.8094 10.2856 14.3035 10.6187 L 21.736 15.629 C 22.6856 16.2692 22.9429 17.3256 22.6125 18.2165 C 22.2875 19.0928 21.4219 19.75 20.2973 19.75 H 3.70231 C 2.58964 19.75 1.72778 19.1049 1.39567 18.2392 C 1.05806 17.3591 1.29658 16.3086 2.22358 15.6566 L 9.31927 10.6653 C 9.85574 10.2879 10.4656 10.0483 11.093 9.94251 C 11.1984 9.43649 11.4859 9.02479 11.7513 8.71278 C 11.9231 8.51074 12.1111 8.32181 12.2797 8.15509 C 12.3074 8.12767 12.3345 8.10096 12.3609 8.07485 C 12.5028 7.93486 12.6272 7.81207 12.7402 7.68925 C 12.9223 7.49112 13.0337 7.22136 13.0337 6.90909 C 13.0337 6.34219 12.4958 5.75 11.6597 5.75 Z M 13.4651 11.8624 C 12.9825 11.5371 12.3993 11.373 11.81 11.3799 C 11.2256 11.3866 10.6525 11.5614 10.1823 11.8922 L 3.08659 16.8834 C 2.7415 17.1262 2.69597 17.4407 2.79616 17.7019 C 2.90185 17.9775 3.19965 18.25 3.70231 18.25 H 20.2973 C 20.8056 18.25 21.103 17.9729 21.2061 17.6949 C 21.3038 17.4314 21.2543 17.1133 20.8976 16.8728 L 13.4651 11.8624 Z" fill="#FFFFFF" />
</svg>