<svg xmlns="http://www.w3.org/2000/svg" width="24" height="24" viewBox="0 0 24 24" fill="none">
  <path fill-rule="nonzero" clip-rule="nonzero" d="M10.2857 3.90909 C10.2857 4.3233 9.94987 4.65909 9.53566 4.65909 C9.12145 4.65909 8.78566 4.3233 8.78566 3.90909 C8.78566 2.36727 10.1497 1.25 11.6597 1.25 C13.1697 1.25 14.5337 2.36727 14.5337 3.90909 C14.5337 4.58928 14.2865 5.22354 13.8444 5.7044 C13.7045 5.85668 13.5496 6.00942 13.4085 6.14851 L13.3346 6.22141 C13.1675 6.38672 13.0202 6.53616 12.8939 6.68456 C12.8066 6.78721 12.7396 6.87796 12.6889 6.95888 C13.2574 7.06682 13.8094 7.2856 14.3035 7.61866 L21.736 12.629 C22.6856 13.2692 22.9429 14.3256 22.6125 15.2165 C22.2875 16.0928 21.4219 16.75 20.2973 16.75 L17.9905 16.75 C17.9998 17.1135 17.9998 17.5271 17.9998 18 C17.9998 19.8856 17.9998 20.8284 17.414 21.4142 C16.8282 22 15.8854 22 13.9998 22 L9.99977 22 C8.11415 22 7.17135 22 6.58556 21.4142 C5.99977 20.8284 5.99977 19.8856 5.99977 18 C5.99977 17.5271 5.99977 17.1135 6.00901 16.75 L3.70231 16.75 C2.58964 16.75 1.72778 16.105 1.39567 15.2392 C1.05806 14.3591 1.29658 13.3086 2.22358 12.6566 L9.31927 7.66529 C9.85574 7.28792 10.4656 7.04826 11.093 6.94251 C11.1984 6.43649 11.4859 6.02479 11.7513 5.71278 C11.9231 5.51074 12.1111 5.32181 12.2797 5.15509 L12.3609 5.07483 C12.5028 4.93485 12.6273 4.81206 12.7402 4.68925 C12.9223 4.49112 13.0337 4.22136 13.0337 3.90909 C13.0337 3.34219 12.4958 2.75 11.6597 2.75 C10.8236 2.75 10.2857 3.34219 10.2857 3.90909 Z M 17.807 15.25 H 20.2973 C 20.8056 15.25 21.103 14.9729 21.2061 14.6949 C 21.3038 14.4314 21.2543 14.1133 20.8976 13.8728 L 13.4651 8.86245 C 12.9825 8.53714 12.3993 8.373 11.81 8.37985 C 11.2256 8.38665 10.6525 8.56138 10.1823 8.89216 L 3.08659 13.8834 C 2.7415 14.1262 2.69597 14.4407 2.79616 14.7019 C 2.90185 14.9775 3.19965 15.25 3.70231 15.25 H 6.19252 C 6.27896 14.9828 6.40418 14.7672 6.58556 14.5858 C 7.17135 14 8.11415 14 9.99977 14 H 13.9998 C 15.8854 14 16.8282 14 17.414 14.5858 C 17.5954 14.7672 17.7206 14.9828 17.807 15.25 Z" fill="#FFFFFF" />
</svg>