<svg xmlns="http://www.w3.org/2000/svg" width="24" height="24" viewBox="0 0 24 24" fill="none">
  <path fill-rule="nonzero" clip-rule="nonzero" d="M10.2857 3.90909 C10.2857 4.3233 9.94987 4.65909 9.53566 4.65909 C9.12145 4.65909 8.78566 4.3233 8.78566 3.90909 C8.78566 2.36727 10.1497 1.25 11.6597 1.25 C13.1697 1.25 14.5337 2.36727 14.5337 3.90909 C14.5337 4.58928 14.2865 5.22354 13.8444 5.7044 C13.7045 5.85668 13.5496 6.00942 13.4085 6.14851 L13.3346 6.22141 C13.1675 6.38672 13.0202 6.53616 12.8939 6.68456 C12.8066 6.78721 12.7396 6.87796 12.6889 6.95888 C13.2574 7.06682 13.8094 7.2856 14.3035 7.61866 L21.736 12.629 C22.6856 13.2692 22.9429 14.3256 22.6125 15.2165 C22.2875 16.0928 21.4219 16.75 20.2973 16.75 L18.7408 16.75 C18.7498 17.114 18.7498 17.5136 18.7498 17.948 L18.7498 18.052 C18.7498 18.9505 18.7498 19.6997 18.6699 20.2945 C18.5855 20.9223 18.3998 21.4891 17.9443 21.9445 C17.4888 22.4 16.922 22.5857 16.2943 22.6701 C15.6995 22.7501 14.9502 22.75 14.0518 22.75 L9.94775 22.75 C9.04928 22.75 8.30007 22.7501 7.70529 22.6701 C7.0775 22.5857 6.5107 22.4 6.05523 21.9445 C5.59976 21.4891 5.41409 20.9223 5.32968 20.2945 C5.24972 19.6997 5.24974 18.9505 5.24977 18.052 L5.24977 17.948 C5.24976 17.5136 5.24974 17.114 5.25877 16.75 L3.70231 16.75 C2.58964 16.75 1.72778 16.105 1.39567 15.2392 C1.05806 14.3591 1.29658 13.3086 2.22358 12.6566 L9.31927 7.66529 C9.85574 7.28792 10.4656 7.04826 11.093 6.94251 C11.1984 6.43649 11.4859 6.02479 11.7513 5.71278 C11.9231 5.51074 12.1111 5.32181 12.2797 5.15509 L12.3609 5.07483 C12.5028 4.93485 12.6273 4.81206 12.7402 4.68925 C12.9223 4.49112 13.0337 4.22136 13.0337 3.90909 C13.0337 3.34219 12.4958 2.75 11.6597 2.75 C10.8236 2.75 10.2857 3.34219 10.2857 3.90909 Z M 18.5857 15.25 H 20.2973 C 20.8056 15.25 21.103 14.9729 21.2061 14.6949 C 21.3038 14.4314 21.2543 14.1133 20.8976 13.8728 L 13.4651 8.86245 C 12.9825 8.53714 12.3993 8.373 11.81 8.37985 C 11.2256 8.38665 10.6525 8.56138 10.1823 8.89216 L 3.08659 13.8834 C 2.7415 14.1262 2.69597 14.4407 2.79616 14.7019 C 2.90185 14.9775 3.19965 15.25 3.70231 15.25 H 5.41385 C 5.52291 14.8032 5.71283 14.3979 6.05523 14.0555 C 6.5107 13.6 7.0775 13.4143 7.70529 13.3299 C 8.30008 13.2499 9.04929 13.25 9.94777 13.25 H 14.0518 C 14.9503 13.25 15.6995 13.2499 16.2943 13.3299 C 16.922 13.4143 17.4888 13.6 17.9443 14.0555 C 18.2867 14.3979 18.4766 14.8032 18.5857 15.25 Z M7.11589 15.1161 C6.98557 15.2464 6.87835 15.4439 6.81631 15.9054 C6.75137 16.3884 6.74977 17.036 6.74977 18 C6.74977 18.964 6.75137 19.6116 6.81631 20.0946 C6.87835 20.5561 6.98557 20.7536 7.11589 20.8839 C7.24621 21.0142 7.4437 21.1214 7.90517 21.1835 C8.3882 21.2484 9.03576 21.25 9.99977 21.25 L13.9998 21.25 C14.9638 21.25 15.6113 21.2484 16.0944 21.1835 C16.5558 21.1214 16.7533 21.0142 16.8837 20.8839 C17.014 20.7536 17.1212 20.5561 17.1832 20.0946 C17.2482 19.6116 17.2498 18.964 17.2498 18 C17.2498 17.036 17.2482 16.3884 17.1832 15.9054 C17.1212 15.4439 17.014 15.2464 16.8837 15.1161 C16.7533 14.9858 16.5558 14.8786 16.0944 14.8165 C15.6113 14.7516 14.9638 14.75 13.9998 14.75 L9.99977 14.75 C9.03576 14.75 8.3882 14.7516 7.90517 14.8165 C7.4437 14.8786 7.24621 14.9858 7.11589 15.1161 Z" fill="#FFFFFF" />
</svg>