<svg xmlns="http://www.w3.org/2000/svg" width="24" height="24" viewBox="0 0 24 24" fill="none">
  <path opacity="0.5" fill-rule="nonzero" clip-rule="nonzero" d="M12 22 C6.47715 22 2 17.5228 2 12 C2 6.47715 6.47715 2 12 2 C17.5228 2 22 6.47715 22 12 C22 17.5228 17.5228 22 12 22 Z M 12 16 C 14.2091 16 16 14.2091 16 12 C 16 9.79086 14.2091 8 12 8 C 9.79086 8 8 9.79086 8 12 C 8 14.2091 9.79086 16 12 16 Z" fill="#FFFFFF" />
  <path d="M5.47875 19.5818L9.75149 15.309C9.3348 15.0254 8.97447 14.6651 8.69079 14.2484L4.41807 18.5211C4.74471 18.9005 5.09934 19.2551 5.47875 19.5818Z" fill="#FFFFFF" />
  <path d="M4.41797 5.47912L8.6907 9.75185C8.97436 9.33516 9.33468 8.97485 9.75136 8.69119L5.47863 4.41846C5.09922 4.74509 4.7446 5.09971 4.41797 5.47912Z" fill="#FFFFFF" />
  <path d="M14.2479 8.69128L18.5206 4.41856C18.9 4.7452 19.2547 5.09982 19.5813 5.47924L15.3085 9.75198C15.0249 9.33529 14.6646 8.97496 14.2479 8.69128Z" fill="#FFFFFF" />
  <path d="M19.5812 18.521L15.3084 14.2483C15.0248 14.665 14.6645 15.0253 14.2478 15.3089L18.5205 19.5817C18.8999 19.255 19.2545 18.9004 19.5812 18.521Z" fill="#FFFFFF" />
</svg>