<svg xmlns="http://www.w3.org/2000/svg" width="24" height="24" viewBox="0 0 24 24" fill="none">
  <path fill-rule="nonzero" clip-rule="nonzero" d="M12 1.25 C17.9371 1.25 22.75 6.06294 22.75 12 C22.75 17.9371 17.9371 22.75 12 22.75 C6.06294 22.75 1.25 17.9371 1.25 12 C1.25 6.06294 6.06294 1.25 12 1.25 Z M2.75 12 C2.75 14.2843 3.57804 16.3753 4.95033 17.989 L8.1528 14.7865 C7.58488 14.0038 7.25 13.041 7.25 12 C7.25 10.959 7.58488 9.99619 8.1528 9.21346 L4.95034 6.011 C3.57804 7.62475 2.75 9.71567 2.75 12 Z M9.21346 8.1528 C9.99619 7.58488 10.959 7.25 12 7.25 C13.041 7.25 14.0038 7.58488 14.7865 8.1528 L17.989 4.95034 C16.3753 3.57804 14.2843 2.75 12 2.75 C9.71567 2.75 7.62475 3.57804 6.011 4.95034 L9.21346 8.1528 Z M 6.01099 19.0497 C 7.62474 20.422 9.71567 21.25 12 21.25 C 14.2843 21.25 16.3753 20.422 17.989 19.0497 L 14.7865 15.8472 C 14.0038 16.4151 13.041 16.75 12 16.75 C 10.959 16.75 9.99619 16.4151 9.21346 15.8472 L 6.01099 19.0497 Z M 15.8472 14.7865 L 19.0497 17.989 C 20.422 16.3753 21.25 14.2843 21.25 12 C 21.25 9.71567 20.422 7.62475 19.0497 6.011 L 15.8472 9.21346 C 16.4151 9.99619 16.75 10.959 16.75 12 C 16.75 13.041 16.4151 14.0038 15.8472 14.7865 Z M8.75 12 C8.75 13.7949 10.2051 15.25 12 15.25 C13.7949 15.25 15.25 13.7949 15.25 12 C15.25 10.2051 13.7949 8.75 12 8.75 C10.2051 8.75 8.75 10.2051 8.75 12 Z" fill="#FFFFFF" />
</svg>