<svg xmlns="http://www.w3.org/2000/svg" width="24" height="24" viewBox="0 0 24 24" fill="none">
  <path fill-rule="nonzero" clip-rule="nonzero" d="M 2 12 C 2 7.28595 2 4.92893 3.46447 3.46447 C 4.92893 2 7.28595 2 12 2 C 16.714 2 19.0711 2 20.5355 3.46447 C 22 4.92893 22 7.28595 22 12 C 22 16.714 22 19.0711 20.5355 20.5355 C 19.0711 22 16.714 22 12 22 C 7.28595 22 4.92893 22 3.46447 20.5355 C 2 19.0711 2 16.714 2 12 Z M 6.75 8 C 6.75 7.58579 6.41421 7.25 6 7.25 C 5.58579 7.25 5.25 7.58579 5.25 8 V 15.619 C 5.25 16.0333 5.58579 16.369 6 16.369 C 6.41421 16.369 6.75 16.0333 6.75 15.619 V 12.75 H 10.0648 V 15.619 C 10.0648 16.0333 10.4006 16.369 10.8148 16.369 C 11.229 16.369 11.5648 16.0333 11.5648 15.619 V 8 C 11.5648 7.58579 11.229 7.25 10.8148 7.25 C 10.4006 7.25 10.0648 7.58579 10.0648 8 V 11.25 H 6.75 V 8 Z M16.0472 7.24999 C15.6619 7.24988 15.3826 7.2498 15.1373 7.2884 C14.1647 7.44147 13.2582 8.06957 13.0133 9.04367 C12.9529 9.28415 12.9533 9.55225 12.9536 9.83607 L12.9537 9.90476 L12.9537 13.7143 L12.9536 13.783 C12.9533 14.0668 12.9529 14.3349 13.0133 14.5754 C13.2582 15.5495 14.1647 16.1776 15.1373 16.3306 C15.3826 16.3693 15.6619 16.3692 16.0472 16.3691 L16.1111 16.369 L16.175 16.3691 C16.5604 16.3692 16.8396 16.3693 17.0849 16.3306 C17.3655 16.2865 17.6405 16.2028 17.8958 16.0827 L18.5346 16.5882 C18.8595 16.8452 19.3312 16.7902 19.5882 16.4654 C19.8452 16.1405 19.7902 15.6688 19.4654 15.4118 L19.0199 15.0594 C19.1015 14.9094 19.1655 14.7478 19.2089 14.5754 C19.2693 14.3349 19.269 14.0668 19.2686 13.783 L19.2685 13.7143 L19.2685 9.90476 L19.2686 9.83606 C19.269 9.55224 19.2693 9.28415 19.2089 9.04367 C18.964 8.06957 18.0575 7.44147 17.0849 7.2884 C16.8396 7.2498 16.5604 7.24988 16.175 7.24999 L16.1111 7.25 L16.0472 7.24999 Z M 17.7656 14.0669 L 17.5394 13.888 C 17.2146 13.631 16.7429 13.686 16.4859 14.0108 C 16.2852 14.2645 16.2748 14.6077 16.4345 14.8683 C 16.3471 14.8689 16.2412 14.869 16.1111 14.869 C 15.635 14.869 15.4839 14.8667 15.3705 14.8489 C 14.8151 14.7615 14.5271 14.4445 14.4681 14.2097 C 14.4594 14.1751 14.4537 14.1131 14.4537 13.7143 V 9.90476 C 14.4537 9.50598 14.4594 9.44399 14.4681 9.40939 C 14.5271 9.17452 14.8151 8.85757 15.3705 8.77016 C 15.4839 8.75231 15.635 8.75 16.1111 8.75 C 16.5873 8.75 16.7383 8.75231 16.8517 8.77016 C 17.4071 8.85757 17.6951 9.17452 17.7541 9.40939 C 17.7628 9.44399 17.7685 9.50598 17.7685 9.90476 V 13.7143 C 17.7685 13.8861 17.7675 13.9954 17.7656 14.0669 Z" fill="#FFFFFF" />
</svg>