<svg xmlns="http://www.w3.org/2000/svg" width="24" height="24" viewBox="0 0 24 24" fill="none">
  <path fill-rule="nonzero" clip-rule="nonzero" d="M 11.9426 1.25 H 12.0574 C 14.3658 1.24999 16.1748 1.24998 17.5863 1.43975 C 19.031 1.63399 20.1711 2.03933 21.0659 2.93414 C 21.9607 3.82895 22.366 4.96897 22.5603 6.41371 C 22.75 7.82519 22.75 9.63423 22.75 11.9426 V 12.0574 C 22.75 14.3658 22.75 16.1748 22.5603 17.5863 C 22.366 19.031 21.9607 20.1711 21.0659 21.0659 C 20.1711 21.9607 19.031 22.366 17.5863 22.5603 C 16.1748 22.75 14.3658 22.75 12.0574 22.75 H 11.9426 C 9.63423 22.75 7.82519 22.75 6.41371 22.5603 C 4.96897 22.366 3.82895 21.9607 2.93414 21.0659 C 2.03933 20.1711 1.63399 19.031 1.43975 17.5863 C 1.24998 16.1748 1.24999 14.3658 1.25 12.0574 V 11.9426 C 1.24999 9.63423 1.24998 7.82519 1.43975 6.41371 C 1.63399 4.96897 2.03933 3.82895 2.93414 2.93414 C 3.82895 2.03933 4.96897 1.63399 6.41371 1.43975 C 7.82519 1.24998 9.63423 1.24999 11.9426 1.25 Z M 6.61358 2.92637 C 5.33517 3.09825 4.56445 3.42514 3.9948 3.9948 C 3.42514 4.56445 3.09825 5.33517 2.92637 6.61358 C 2.75159 7.91356 2.75 9.62177 2.75 12 C 2.75 14.3782 2.75159 16.0864 2.92637 17.3864 C 3.09825 18.6648 3.42514 19.4355 3.9948 20.0052 C 4.56445 20.5749 5.33517 20.9018 6.61358 21.0736 C 7.91356 21.2484 9.62177 21.25 12 21.25 C 14.3782 21.25 16.0864 21.2484 17.3864 21.0736 C 18.6648 20.9018 19.4355 20.5749 20.0052 20.0052 C 20.5749 19.4355 20.9018 18.6648 21.0736 17.3864 C 21.2484 16.0864 21.25 14.3782 21.25 12 C 21.25 9.62177 21.2484 7.91356 21.0736 6.61358 C 20.9018 5.33517 20.5749 4.56445 20.0052 3.9948 C 19.4355 3.42514 18.6648 3.09825 17.3864 2.92637 C 16.0864 2.75159 14.3782 2.75 12 2.75 C 9.62177 2.75 7.91356 2.75159 6.61358 2.92637 Z" fill="#FFFFFF" />
  <path fill-rule="nonzero" clip-rule="nonzero" d="M 16.0472 7.25001 C 16.0682 7.25002 16.0895 7.25002 16.1111 7.25002 C 16.1327 7.25002 16.154 7.25002 16.175 7.25001 C 16.5604 7.2499 16.8396 7.24982 17.0849 7.28842 C 18.0575 7.44149 18.964 8.0696 19.2089 9.04369 C 19.2693 9.28417 19.269 9.55226 19.2686 9.83608 C 19.2685 9.85888 19.2685 9.88179 19.2685 9.90479 V 13.7143 C 19.2685 13.7373 19.2685 13.7602 19.2686 13.783 C 19.269 14.0668 19.2693 14.3349 19.2089 14.5754 C 19.1655 14.7478 19.1015 14.9094 19.0199 15.0594 L 19.4654 15.4119 C 19.7902 15.6689 19.8452 16.1406 19.5882 16.4654 C 19.3312 16.7902 18.8595 16.8452 18.5346 16.5882 L 17.8958 16.0827 C 17.6405 16.2028 17.3655 16.2865 17.0849 16.3307 C 16.8396 16.3693 16.5604 16.3692 16.175 16.3691 C 16.154 16.3691 16.1327 16.3691 16.1111 16.3691 C 16.0895 16.3691 16.0682 16.3691 16.0472 16.3691 C 15.6619 16.3692 15.3826 16.3693 15.1373 16.3307 C 14.1647 16.1776 13.2582 15.5495 13.0133 14.5754 C 12.9529 14.3349 12.9533 14.0668 12.9536 13.783 C 12.9537 13.7602 12.9537 13.7373 12.9537 13.7143 V 9.90479 C 12.9537 9.88179 12.9537 9.85889 12.9536 9.83609 C 12.9533 9.55227 12.9529 9.28418 13.0133 9.04369 C 13.2582 8.0696 14.1647 7.44149 15.1373 7.28842 C 15.3826 7.24982 15.6619 7.2499 16.0472 7.25001 Z M17.7656 14.067 C17.7675 13.9954 17.7685 13.8861 17.7685 13.7143 L17.7685 9.90479 C17.7685 9.50601 17.7628 9.44401 17.7541 9.40942 C17.6951 9.17455 17.4071 8.85759 16.8517 8.77018 C16.7383 8.75233 16.5873 8.75002 16.1111 8.75002 C15.635 8.75002 15.4839 8.75233 15.3705 8.77018 C14.8151 8.85759 14.5271 9.17455 14.4681 9.40942 C14.4594 9.44401 14.4537 9.50601 14.4537 9.90479 L14.4537 13.7143 C14.4537 14.1131 14.4594 14.1751 14.4681 14.2097 C14.5271 14.4445 14.8151 14.7615 15.3705 14.8489 C15.4839 14.8668 15.635 14.8691 16.1111 14.8691 C16.2412 14.8691 16.3471 14.8689 16.4345 14.8683 C16.2748 14.6077 16.2852 14.2645 16.4859 14.0109 C16.7429 13.686 17.2146 13.631 17.5394 13.888 L17.7656 14.067 Z M 6 7.25002 C 6.41421 7.25002 6.75 7.58581 6.75 8.00002 V 11.25 H 10.0648 V 8.00002 C 10.0648 7.58581 10.4006 7.25002 10.8148 7.25002 C 11.229 7.25002 11.5648 7.58581 11.5648 8.00002 V 15.6191 C 11.5648 16.0333 11.229 16.3691 10.8148 16.3691 C 10.4006 16.3691 10.0648 16.0333 10.0648 15.6191 V 12.75 H 6.75 V 15.6191 C 6.75 16.0333 6.41421 16.3691 6 16.3691 C 5.58579 16.3691 5.25 16.0333 5.25 15.6191 V 8.00002 C 5.25 7.58581 5.58579 7.25002 6 7.25002 Z" fill="#FFFFFF" />
</svg>