<svg xmlns="http://www.w3.org/2000/svg" width="24" height="24" viewBox="0 0 24 24" fill="none">
  <path fill-rule="nonzero" clip-rule="nonzero" d="M 13.1061 22 H 10.8939 C 7.44737 22 5.72409 22 4.54903 20.9882 C 3.37396 19.9764 3.13025 18.2827 2.64284 14.8952 L 2.36407 12.9579 C 1.98463 10.3208 1.79491 9.00229 2.33537 7.87495 C 2.87583 6.7476 4.02619 6.06234 6.32691 4.69181 L 7.71175 3.86687 C 9.80104 2.62229 10.8457 2 12 2 C 13.1543 2 14.199 2.62229 16.2882 3.86687 L 17.6731 4.69181 C 19.9738 6.06234 21.1242 6.7476 21.6646 7.87495 C 22.2051 9.00229 22.0154 10.3208 21.6359 12.9579 L 21.3572 14.8952 C 20.8697 18.2827 20.626 19.9764 19.451 20.9882 C 18.2759 22 16.5526 22 13.1061 22 Z M8.39757 15.5532 C8.15092 15.8859 8.22072 16.3557 8.55349 16.6023 C9.5259 17.3231 10.7151 17.7498 12.0001 17.7498 C13.2851 17.7498 14.4743 17.3231 15.4467 16.6023 C15.7795 16.3557 15.8493 15.8859 15.6026 15.5532 C15.356 15.2204 14.8863 15.1506 14.5535 15.3973 C13.8251 15.9371 12.946 16.2498 12.0001 16.2498 C11.0542 16.2498 10.1751 15.9371 9.44671 15.3973 C9.11395 15.1506 8.64423 15.2204 8.39757 15.5532 Z" fill="#FFFFFF" />
</svg>