<svg xmlns="http://www.w3.org/2000/svg" width="24" height="24" viewBox="0 0 24 24" fill="none">
  <path fill-rule="nonzero" clip-rule="nonzero" d="M2.33537 7.87495 C2.87583 6.7476 4.02619 6.06234 6.32691 4.69181 L7.71175 3.86687 C9.80104 2.62229 10.8457 2 12 2 C13.1543 2 14.199 2.62229 16.2882 3.86687 L17.6731 4.69181 C19.9738 6.06234 21.1242 6.7476 21.6646 7.87495 C22.2051 9.00229 22.0154 10.3208 21.6359 12.9579 L21.3572 14.8952 C20.8697 18.2827 20.626 19.9764 19.451 20.9882 C18.2759 22 16.5526 22 13.1061 22 L10.8939 22 C7.44737 22 5.72409 22 4.54903 20.9882 C3.37396 19.9764 3.13025 18.2827 2.64284 14.8952 L2.36407 12.9579 C1.98463 10.3208 1.79491 9.00229 2.33537 7.87495 Z M13.45 16.5095 C13.7315 16.8134 14.206 16.8315 14.5099 16.55 C14.8137 16.2684 14.8318 15.7939 14.5503 15.4901 C13.1489 13.9775 10.8514 13.9775 9.44996 15.4901 C9.16845 15.7939 9.18656 16.2684 9.49041 16.55 C9.79427 16.8315 10.2688 16.8134 10.5503 16.5095 C11.3581 15.6377 12.6422 15.6377 13.45 16.5095 Z M 8.55029 14.3505 C 10.4626 12.2864 13.5376 12.2864 15.4499 14.3505 C 15.7315 14.6544 16.206 14.6725 16.5098 14.391 C 16.8137 14.1095 16.8318 13.6349 16.5503 13.3311 C 14.0443 10.6262 9.9559 10.6262 7.44995 13.3311 C 7.16844 13.6349 7.18655 14.1095 7.4904 14.391 C 7.79425 14.6725 8.26878 14.6544 8.55029 14.3505 Z M17.4499 12.192 C17.7314 12.4959 18.206 12.514 18.5098 12.2325 C18.8137 11.951 18.8318 11.4764 18.5503 11.1726 C14.9397 7.27552 9.06046 7.27552 5.44993 11.1726 C5.16842 11.4764 5.18653 11.951 5.49038 12.2325 C5.79423 12.514 6.26876 12.4959 6.55027 12.192 C9.56716 8.93571 14.433 8.93571 17.4499 12.192 Z" fill="#FFFFFF" />
</svg>