<svg xmlns="http://www.w3.org/2000/svg" width="24" height="24" viewBox="0 0 24 24" fill="none">
  <path d="M6.55028 12.192C9.56717 8.93571 14.4331 8.93571 17.4499 12.192C17.7314 12.4959 18.206 12.514 18.5098 12.2325C18.8137 11.951 18.8318 11.4764 18.5503 11.1726C14.9398 7.27552 9.06047 7.27552 5.44994 11.1726C5.16843 11.4764 5.18654 11.951 5.49039 12.2325C5.79424 12.514 6.26877 12.4959 6.55028 12.192Z" fill="#FFFFFF" />
  <path d="M8.5503 14.3505C10.4626 12.2864 13.5376 12.2864 15.45 14.3505C15.7315 14.6544 16.206 14.6725 16.5098 14.391C16.8137 14.1095 16.8318 13.6349 16.5503 13.3311C14.0443 10.6262 9.95592 10.6262 7.44996 13.3311C7.16845 13.6349 7.18656 14.1095 7.49041 14.391C7.79426 14.6725 8.26879 14.6544 8.5503 14.3505Z" fill="#FFFFFF" />
  <path d="M10.5503 16.5095C11.3581 15.6376 12.6422 15.6376 13.45 16.5095C13.7315 16.8134 14.206 16.8315 14.5099 16.55C14.8137 16.2684 14.8318 15.7939 14.5503 15.4901C13.1489 13.9775 10.8514 13.9775 9.44997 15.4901C9.16846 15.7939 9.18657 16.2684 9.49043 16.55C9.79428 16.8315 10.2688 16.8134 10.5503 16.5095Z" fill="#FFFFFF" />
  <path fill-rule="nonzero" clip-rule="nonzero" d="M12 1.25 C12.7251 1.25 13.3866 1.44911 14.1107 1.7871 C14.8117 2.11428 15.6223 2.59716 16.6382 3.20233 L18.0938 4.06943 C19.2129 4.73606 20.1047 5.26727 20.7799 5.77524 C21.4769 6.29963 22 6.8396 22.3409 7.55072 C22.682 8.26219 22.7745 9.0068 22.7448 9.87584 C22.7161 10.717 22.569 11.7396 22.3844 13.0219 L22.0921 15.0537 C21.8547 16.7036 21.6663 18.0129 21.3849 19.0322 C21.0948 20.0829 20.6831 20.9169 19.9404 21.5565 C19.1982 22.1956 18.3102 22.4814 17.2237 22.6177 C16.1685 22.75 14.8372 22.75 13.1577 22.75 L10.8423 22.75 C9.16281 22.75 7.83154 22.75 6.77634 22.6177 C5.68984 22.4814 4.80184 22.1956 4.05965 21.5565 C3.31686 20.9169 2.90523 20.0829 2.61512 19.0322 C2.33368 18.0128 2.14531 16.7036 1.90792 15.0537 L1.61556 13.0219 C1.43105 11.7397 1.2839 10.717 1.25519 9.87584 C1.22554 9.0068 1.31799 8.26219 1.65907 7.55072 C1.99999 6.8396 2.52314 6.29963 3.22015 5.77524 C3.89535 5.26727 4.78711 4.73606 5.90622 4.06943 L7.36183 3.20233 C8.37772 2.59716 9.18832 2.11428 9.88928 1.7871 C10.6134 1.44911 11.2749 1.25 12 1.25 Z M8.09558 4.51121 L6.71074 5.33615 C5.54643 6.02973 4.72482 6.52034 4.12194 6.9739 C3.53347 7.41662 3.21121 7.78294 3.01167 8.19917 C2.81229 8.61505 2.72937 9.09337 2.75432 9.82469 C2.77991 10.5745 2.91437 11.5163 3.10643 12.851 L3.3852 14.7884 C3.6317 16.5016 3.80791 17.7162 4.06102 18.633 C4.30838 19.5289 4.60614 20.0476 5.03841 20.4198 C5.47129 20.7926 6.03246 21.0127 6.963 21.1294 C7.91405 21.2486 9.15124 21.25 10.8939 21.25 L13.1061 21.25 C14.8488 21.25 16.086 21.2486 17.037 21.1294 C17.9676 21.0127 18.5287 20.7926 18.9616 20.4198 C19.3939 20.0476 19.6916 19.5289 19.939 18.633 C20.1921 17.7162 20.3683 16.5016 20.6148 14.7884 L20.8936 12.8511 C21.0856 11.5163 21.2201 10.5745 21.2457 9.82469 C21.2706 9.09337 21.1877 8.61505 20.9883 8.19917 C20.7888 7.78294 20.4665 7.41662 19.8781 6.9739 C19.2752 6.52034 18.4536 6.02973 17.2893 5.33615 L15.9044 4.51121 C14.8469 3.88126 14.1008 3.43781 13.4763 3.14633 C12.8672 2.86203 12.4293 2.75 12 2.75 C11.5708 2.75 11.1328 2.86203 10.5237 3.14633 C9.89923 3.43781 9.15309 3.88126 8.09558 4.51121 Z" fill="#FFFFFF" />
</svg>