<svg xmlns="http://www.w3.org/2000/svg" width="24" height="24" viewBox="0 0 24 24" fill="none">
  <path fill-rule="nonzero" clip-rule="nonzero" d="M2.5192 7.82274 C3.0384 6.87421 3.98695 6.28551 5.88403 5.10813 L7.88403 3.86687 C9.88939 2.62229 10.8921 2 12 2 C13.1079 2 14.1106 2.62229 16.116 3.86687 L18.116 5.10812 C20.0131 6.28551 20.9616 6.87421 21.4808 7.82274 C22 8.77128 22 9.91549 22 12.2039 L22 13.725 C22 17.6258 22 19.5763 20.8284 20.7881 C19.6569 22 17.7712 22 14 22 L10 22 C6.22876 22 4.34315 22 3.17157 20.7881 C2 19.5763 2 17.6258 2 13.725 L2 12.2039 C2 9.91549 2 8.77128 2.5192 7.82274 Z M 9 17.25 C 8.58579 17.25 8.25 17.5858 8.25 18 C 8.25 18.4142 8.58579 18.75 9 18.75 H 15 C 15.4142 18.75 15.75 18.4142 15.75 18 C 15.75 17.5858 15.4142 17.25 15 17.25 H 9 Z" fill="#FFFFFF" />
</svg>