<svg xmlns="http://www.w3.org/2000/svg" width="24" height="24" viewBox="0 0 24 24" fill="none">
  <path d="M6.55017 12.192C9.56706 8.93571 14.4329 8.93571 17.4498 12.192C17.7313 12.4959 18.2059 12.514 18.5097 12.2325C18.8136 11.951 18.8317 11.4764 18.5502 11.1726C14.9396 7.27552 9.06036 7.27552 5.44983 11.1726C5.16832 11.4764 5.18643 11.951 5.49029 12.2325C5.79414 12.514 6.26866 12.4959 6.55017 12.192Z" fill="#FFFFFF" />
  <path d="M8.55019 14.3505C10.4625 12.2864 13.5375 12.2864 15.4499 14.3505C15.7314 14.6544 16.2059 14.6725 16.5097 14.391C16.8136 14.1095 16.8317 13.6349 16.5502 13.3311C14.0442 10.6262 9.95581 10.6262 7.44985 13.3311C7.16834 13.6349 7.18645 14.1095 7.4903 14.391C7.79415 14.6725 8.26868 14.6544 8.55019 14.3505Z" fill="#FFFFFF" />
  <path d="M10.5502 16.5095C11.358 15.6376 12.6421 15.6376 13.4499 16.5095C13.7314 16.8134 14.2059 16.8315 14.5098 16.55C14.8136 16.2684 14.8317 15.7939 14.5502 15.4901C13.1488 13.9775 10.8513 13.9775 9.44987 15.4901C9.16836 15.7939 9.18647 16.2684 9.49032 16.55C9.79417 16.8315 10.2687 16.8134 10.5502 16.5095Z" fill="#FFFFFF" />
  <path fill-rule="nonzero" clip-rule="nonzero" d="M12 1.25 C12.7081 1.25 13.3515 1.45282 14.0494 1.79224 C14.7241 2.12034 15.5036 2.60409 16.4771 3.20831 L18.5437 4.49091 C19.4649 5.06262 20.2026 5.5204 20.7711 5.95581 C21.3599 6.40669 21.8121 6.86589 22.1387 7.46263 C22.4646 8.05812 22.6114 8.69174 22.6818 9.4407 C22.75 10.1665 22.75 11.0541 22.75 12.1672 L22.75 13.7799 C22.75 15.6838 22.75 17.1866 22.5973 18.3616 C22.4406 19.567 22.1114 20.5401 21.3676 21.3094 C20.6204 22.0824 19.6695 22.4277 18.4924 22.5914 C17.3515 22.75 15.8944 22.75 14.0581 22.75 L9.94185 22.75 C8.10556 22.75 6.64849 22.75 5.50761 22.5914 C4.33046 22.4277 3.37958 22.0824 2.63236 21.3094 C1.88856 20.5401 1.55937 19.567 1.4027 18.3616 C1.24998 17.1866 1.24999 15.6837 1.25 13.7799 L1.25 12.1672 C1.24999 11.0541 1.24999 10.1665 1.31819 9.4407 C1.38857 8.69174 1.53535 8.05812 1.86131 7.46263 C2.18795 6.86589 2.64015 6.40669 3.2289 5.95581 C3.79744 5.5204 4.53509 5.06261 5.45628 4.4909 L7.52286 3.20832 C8.49642 2.60409 9.27585 2.12035 9.95055 1.79224 C10.6485 1.45282 11.2919 1.25 12 1.25 Z M8.27953 4.50412 L6.27953 5.74537 C5.31869 6.34169 4.6441 6.76135 4.14092 7.1467 C3.65133 7.52164 3.36965 7.83106 3.17709 8.18285 C2.98385 8.53589 2.87103 8.94865 2.81161 9.58104 C2.75076 10.2286 2.75 11.0458 2.75 12.2039 L2.75 13.725 C2.75 15.6959 2.75149 17.1012 2.89019 18.1683 C3.02642 19.2163 3.28301 19.8244 3.71079 20.2669 C4.13514 20.7058 4.71286 20.9664 5.71422 21.1057 C6.73983 21.2483 8.09247 21.25 10 21.25 L14 21.25 C15.9075 21.25 17.2602 21.2483 18.2858 21.1057 C19.2871 20.9664 19.8649 20.7058 20.2892 20.2669 C20.717 19.8244 20.9736 19.2163 21.1098 18.1683 C21.2485 17.1012 21.25 15.6959 21.25 13.725 L21.25 12.2039 C21.25 11.0458 21.2492 10.2286 21.1884 9.58104 C21.129 8.94865 21.0162 8.53589 20.8229 8.18285 C20.6303 7.83106 20.3487 7.52164 19.8591 7.1467 C19.3559 6.76135 18.6813 6.34169 17.7205 5.74537 L15.7205 4.50412 C14.7047 3.87371 13.9905 3.43153 13.3935 3.14119 C12.8118 2.85833 12.3998 2.75 12 2.75 C11.6002 2.75 11.1882 2.85833 10.6065 3.1412 C10.0095 3.43153 9.29529 3.87371 8.27953 4.50412 Z" fill="#FFFFFF" />
</svg>