<svg xmlns="http://www.w3.org/2000/svg" width="24" height="24" viewBox="0 0 24 24" fill="none">
  <path d="M12.7501 9.99979C12.7501 9.58557 12.4143 9.24979 12.0001 9.24979C11.5859 9.24979 11.2501 9.58557 11.2501 9.99979L11.2501 12.2498H9.00011C8.58589 12.2498 8.25011 12.5856 8.25011 12.9998C8.25011 13.414 8.58589 13.7498 9.00011 13.7498H11.2501V15.9998C11.2501 16.414 11.5859 16.7498 12.0001 16.7498C12.4143 16.7498 12.7501 16.414 12.7501 15.9998L12.7501 13.7498H15.0001C15.4143 13.7498 15.7501 13.414 15.7501 12.9998C15.7501 12.5856 15.4143 12.2498 15.0001 12.2498H12.7501V9.99979Z" fill="#FFFFFF" />
  <path fill-rule="nonzero" clip-rule="nonzero" d="M12 1.25 C12.7251 1.25 13.3866 1.44911 14.1107 1.7871 C14.8117 2.11428 15.6223 2.59716 16.6382 3.20233 L18.0938 4.06943 C19.2129 4.73606 20.1047 5.26727 20.7799 5.77524 C21.4769 6.29963 22 6.8396 22.3409 7.55072 C22.682 8.26219 22.7745 9.0068 22.7448 9.87584 C22.7161 10.717 22.569 11.7396 22.3844 13.0219 L22.0921 15.0537 C21.8547 16.7036 21.6663 18.0129 21.3849 19.0322 C21.0948 20.0829 20.6831 20.9169 19.9404 21.5565 C19.1982 22.1956 18.3102 22.4814 17.2237 22.6177 C16.1685 22.75 14.8372 22.75 13.1577 22.75 L10.8423 22.75 C9.16281 22.75 7.83154 22.75 6.77634 22.6177 C5.68984 22.4814 4.80184 22.1956 4.05965 21.5565 C3.31686 20.9169 2.90523 20.0829 2.61512 19.0322 C2.33368 18.0128 2.14531 16.7036 1.90792 15.0537 L1.61556 13.0219 C1.43105 11.7397 1.2839 10.717 1.25519 9.87584 C1.22554 9.0068 1.31799 8.26219 1.65907 7.55072 C1.99999 6.8396 2.52314 6.29963 3.22015 5.77524 C3.89535 5.26727 4.78711 4.73606 5.90622 4.06943 L7.36183 3.20233 C8.37772 2.59716 9.18832 2.11428 9.88928 1.7871 C10.6134 1.44911 11.2749 1.25 12 1.25 Z M8.09558 4.51121 L6.71074 5.33615 C5.54643 6.02973 4.72482 6.52034 4.12194 6.9739 C3.53347 7.41662 3.21121 7.78294 3.01167 8.19917 C2.81229 8.61505 2.72937 9.09337 2.75432 9.82469 C2.77991 10.5745 2.91437 11.5163 3.10643 12.851 L3.3852 14.7884 C3.6317 16.5016 3.80791 17.7162 4.06102 18.633 C4.30838 19.5289 4.60614 20.0476 5.03841 20.4198 C5.47129 20.7926 6.03246 21.0127 6.963 21.1294 C7.91405 21.2486 9.15124 21.25 10.8939 21.25 L13.1061 21.25 C14.8488 21.25 16.086 21.2486 17.037 21.1294 C17.9676 21.0127 18.5287 20.7926 18.9616 20.4198 C19.3939 20.0476 19.6916 19.5289 19.939 18.633 C20.1921 17.7162 20.3683 16.5016 20.6148 14.7884 L20.8936 12.8511 C21.0856 11.5163 21.2201 10.5745 21.2457 9.82469 C21.2706 9.09337 21.1877 8.61505 20.9883 8.19917 C20.7888 7.78294 20.4665 7.41662 19.8781 6.9739 C19.2752 6.52034 18.4536 6.02973 17.2893 5.33615 L15.9044 4.51121 C14.8469 3.88126 14.1008 3.43781 13.4763 3.14633 C12.8672 2.86203 12.4293 2.75 12 2.75 C11.5708 2.75 11.1328 2.86203 10.5237 3.14633 C9.89923 3.43781 9.15309 3.88126 8.09558 4.51121 Z" fill="#FFFFFF" />
</svg>