<svg xmlns="http://www.w3.org/2000/svg" width="24" height="24" viewBox="0 0 24 24" fill="none">
  <path fill-rule="nonzero" clip-rule="nonzero" d="M 14 22 H 10 C 6.22876 22 4.34315 22 3.17157 20.7881 C 2 19.5763 2 17.6258 2 13.725 V 12.2039 C 2 9.91549 2 8.77128 2.5192 7.82274 C 3.0384 6.87421 3.98695 6.28551 5.88403 5.10813 L 7.88403 3.86687 C 9.88939 2.62229 10.8921 2 12 2 C 13.1079 2 14.1106 2.62229 16.116 3.86687 L 18.116 5.10812 C 20.0131 6.28551 20.9616 6.87421 21.4808 7.82274 C 22 8.77128 22 9.91549 22 12.2039 V 13.725 C 22 17.6258 22 19.5763 20.8284 20.7881 C 19.6569 22 17.7712 22 14 22 Z M17.4498 12.192 C17.7313 12.4959 18.2059 12.514 18.5097 12.2325 C18.8136 11.951 18.8317 11.4764 18.5502 11.1726 C14.9396 7.27552 9.06036 7.27552 5.44983 11.1726 C5.16832 11.4764 5.18643 11.951 5.49028 12.2325 C5.79413 12.514 6.26866 12.4959 6.55017 12.192 C9.56706 8.93571 14.4329 8.93571 17.4498 12.192 Z M15.4498 14.3505 C15.7314 14.6544 16.2059 14.6725 16.5097 14.391 C16.8136 14.1095 16.8317 13.6349 16.5502 13.3311 C14.0442 10.6262 9.95581 10.6262 7.44985 13.3311 C7.16834 13.6349 7.18645 14.1095 7.4903 14.391 C7.79415 14.6725 8.26868 14.6544 8.55019 14.3505 C10.4625 12.2864 13.5375 12.2864 15.4498 14.3505 Z M13.4499 16.5095 C13.7314 16.8134 14.2059 16.8315 14.5098 16.55 C14.8136 16.2684 14.8317 15.7939 14.5502 15.4901 C13.1488 13.9775 10.8513 13.9775 9.44986 15.4901 C9.16835 15.7939 9.18646 16.2684 9.49031 16.55 C9.79417 16.8315 10.2687 16.8134 10.5502 16.5095 C11.358 15.6377 12.6421 15.6377 13.4499 16.5095 Z" fill="#FFFFFF" />
</svg>