<svg xmlns="http://www.w3.org/2000/svg" width="24" height="24" viewBox="0 0 24 24" fill="none">
  <path fill-rule="nonzero" clip-rule="nonzero" d="M2.33537 7.87495 C2.87583 6.7476 4.02619 6.06234 6.32691 4.69181 L7.71175 3.86687 C9.80104 2.62229 10.8457 2 12 2 C13.1543 2 14.199 2.62229 16.2882 3.86687 L17.6731 4.69181 C19.9738 6.06234 21.1242 6.7476 21.6646 7.87495 C22.2051 9.00229 22.0154 10.3208 21.6359 12.9579 L21.3572 14.8952 C20.8697 18.2827 20.626 19.9764 19.451 20.9882 C18.2759 22 16.5526 22 13.1061 22 L10.8939 22 C7.44737 22 5.72409 22 4.54903 20.9882 C3.37396 19.9764 3.13025 18.2827 2.64284 14.8952 L2.36407 12.9579 C1.98463 10.3208 1.79491 9.00229 2.33537 7.87495 Z M12.0001 9.24979 C11.5859 9.24979 11.2501 9.58558 11.2501 9.99979 L11.2501 12.2498 L9.0001 12.2498 C8.58589 12.2498 8.2501 12.5856 8.2501 12.9998 C8.2501 13.414 8.58589 13.7498 9.0001 13.7498 L11.2501 13.7498 L11.2501 15.9998 C11.2501 16.414 11.5859 16.7498 12.0001 16.7498 C12.4143 16.7498 12.7501 16.414 12.7501 15.9998 L12.7501 13.7498 L15.0001 13.7498 C15.4143 13.7498 15.7501 13.414 15.7501 12.9998 C15.7501 12.5856 15.4143 12.2498 15.0001 12.2498 L12.7501 12.2498 L12.7501 9.99979 C12.7501 9.58558 12.4143 9.24979 12.0001 9.24979 Z" fill="#FFFFFF" />
</svg>