<svg xmlns="http://www.w3.org/2000/svg" width="24" height="24" viewBox="0 0 24 24" fill="none">
  <path fill-rule="nonzero" clip-rule="nonzero" d="M17.544 1.49857 C18.2629 1.90987 18.511 2.65005 18.6122 3.41751 C18.7114 4.1698 18.6962 5.17362 18.6775 6.39777 L18.6665 7.12305 C18.6544 7.91704 18.6669 8.08891 18.7259 8.22792 C18.7829 8.36232 18.8892 8.48099 19.4604 9.00421 L19.9839 9.48369 C20.8613 10.2874 21.5851 10.9503 22.0536 11.5343 C22.5399 12.1402 22.8839 12.8228 22.7004 13.628 C22.5191 14.4235 21.9207 14.9051 21.2233 15.2696 C20.5446 15.6243 19.5975 15.956 18.441 16.361 L17.758 16.6002 C17.7333 16.6088 17.7093 16.6173 17.6859 16.6255 L21.5303 20.4699 C21.8232 20.7628 21.8232 21.2377 21.5303 21.5306 C21.2374 21.8235 20.7626 21.8235 20.4697 21.5306 L16.4697 17.5306 C16.4585 17.5194 16.4477 17.5079 16.4373 17.4962 C16.3703 17.6316 16.2869 17.8098 16.1769 18.0494 L15.8718 18.7137 C15.3538 19.842 14.9307 20.7636 14.5134 21.4115 C14.0878 22.0723 13.5531 22.6337 12.743 22.7351 C11.9187 22.8384 11.2791 22.4083 10.74 21.8553 C10.2182 21.32 9.64616 20.5187 8.95248 19.5469 L8.53855 18.9671 C8.08585 18.3329 7.98151 18.2144 7.85944 18.1446 C7.73636 18.0742 7.57839 18.0437 6.79813 17.9723 L6.08514 17.907 C4.88842 17.7975 3.90291 17.7074 3.17507 17.5274 C2.42603 17.3422 1.72676 17.009 1.40213 16.2436 C1.08259 15.4902 1.30926 14.7457 1.67313 14.0516 C2.03065 13.3695 2.62441 12.5457 3.3514 11.5371 L3.77952 10.9431 C4.24727 10.294 4.34436 10.1356 4.38149 9.97264 C4.41777 9.81347 4.3996 9.63911 4.25502 8.86874 L4.12234 8.16182 C3.89821 6.96778 3.71433 5.98815 3.68494 5.22709 C3.65464 4.4423 3.77784 3.68672 4.38078 3.13487 C4.98782 2.57927 5.74973 2.53274 6.52104 2.64685 C7.26483 2.75689 8.20554 3.0464 9.34735 3.3978 L10.0272 3.60702 C10.7686 3.83515 10.9285 3.86837 11.0785 3.84959 C11.2339 3.83012 11.394 3.75237 12.0804 3.34588 L12.7076 2.97441 C13.769 2.3458 14.6378 1.83126 15.3437 1.54072 C16.0621 1.24503 16.8278 1.08878 17.544 1.49857 Z M13.4178 4.29716 L12.7422 4.69734 C12.2154 5.01032 11.7704 5.27465 11.2649 5.33796 C10.7542 5.40192 10.2652 5.25066 9.6966 5.0748 L8.96802 4.85048 C7.7488 4.4753 6.91831 4.22195 6.30151 4.1307 C5.69883 4.04154 5.50449 4.13981 5.39353 4.24137 C5.27846 4.34669 5.15965 4.54303 5.18383 5.16922 C5.20841 5.80603 5.36962 6.67572 5.60821 7.94698 L5.75053 8.70473 C5.86331 9.30141 5.95834 9.80418 5.844 10.3059 C5.73046 10.8041 5.42825 11.2224 5.06497 11.7251 L4.60438 12.364 C3.83249 13.435 3.30352 14.1721 3.00168 14.748 C2.7003 15.3229 2.73296 15.5398 2.78306 15.6579 C2.82806 15.764 2.93966 15.924 3.53516 16.0712 C4.1387 16.2205 5.00882 16.3022 6.28697 16.4192 L6.93485 16.4785 L7.05381 16.4893 C7.64642 16.5426 8.16092 16.5889 8.60434 16.8426 C9.04872 17.0968 9.34758 17.5169 9.69049 17.9988 L9.75937 18.0955 L10.1351 18.6219 C10.8767 19.6606 11.3826 20.3655 11.8141 20.8082 C12.2378 21.2428 12.4345 21.2621 12.5566 21.2468 C12.6931 21.2297 12.9015 21.1439 13.2524 20.5992 C13.6047 20.0522 13.9843 19.2298 14.5343 18.0319 L14.8621 17.3179 C15.1202 16.7539 15.3345 16.2857 15.7122 15.94 C16.0914 15.593 16.5752 15.4242 17.1539 15.2223 L17.8865 14.9659 C19.1162 14.5352 19.9583 14.2382 20.5285 13.9402 C21.0914 13.646 21.2039 13.444 21.2379 13.2947 C21.2697 13.1551 21.2622 12.9446 20.8837 12.473 C20.4962 11.9901 19.8602 11.4046 18.9225 10.5456 L18.4472 10.1103 L18.3612 10.0316 C17.9243 9.63271 17.5457 9.2869 17.345 8.81361 C17.1461 8.34464 17.1547 7.82701 17.1647 7.21994 L17.1767 6.43877 C17.1965 5.13504 17.2081 4.24305 17.1251 3.61361 C17.0424 2.98631 16.8936 2.8546 16.7991 2.80054 C16.7019 2.74496 16.5071 2.68397 15.9146 2.92782 C15.3217 3.17189 14.5467 3.62858 13.4178 4.29716 Z" fill="#FFFFFF" />
</svg>