<svg xmlns="http://www.w3.org/2000/svg" width="24" height="24" viewBox="0 0 24 24" fill="none">
  <path fill-rule="nonzero" clip-rule="nonzero" d="M13.0222 4.40984 L12.46 4.7688 L12.3603 4.83257 C11.8424 5.16416 11.4074 5.44273 10.9044 5.52484 C10.3969 5.60771 9.90236 5.47744 9.32322 5.32487 L9.21179 5.29557 L8.58349 5.13099 C7.34449 4.80643 6.49925 4.58715 5.87493 4.52053 C5.26347 4.45528 5.06855 4.56096 4.95978 4.66731 C4.85001 4.77465 4.73912 4.97008 4.78789 5.58751 C4.83759 6.21691 5.0335 7.0721 5.32339 8.3243 L5.47044 8.95945 L5.49647 9.07144 C5.63303 9.65771 5.74902 10.1557 5.65337 10.661 C5.55851 11.1621 5.27033 11.5903 4.92597 12.1021 L4.86023 12.1999 L4.48792 12.7547 C3.75468 13.8474 3.25282 14.5986 2.97268 15.1809 C2.69289 15.7624 2.73662 15.971 2.78899 16.0808 C2.83727 16.1819 2.95581 16.3377 3.56323 16.4613 C4.17649 16.5861 5.05489 16.6333 6.34288 16.6996 L6.99598 16.7332 L7.11533 16.7392 C7.71334 16.769 8.22933 16.7948 8.68271 17.0282 C9.13832 17.2626 9.45505 17.6676 9.81895 18.1329 L9.8916 18.2257 L10.2898 18.7332 C11.0756 19.7346 11.6114 20.414 12.0622 20.8362 C12.5038 21.2498 12.7051 21.2648 12.8336 21.2439 C12.9746 21.2208 13.1807 21.1253 13.5102 20.5737 C13.8421 20.0181 14.1907 19.1883 14.696 17.9784 L14.9526 17.364 L14.9971 17.2573 C15.2341 16.6878 15.4314 16.2137 15.7978 15.8555 C16.1645 15.4969 16.6426 15.3111 17.2158 15.0883 L17.2158 15.0883 L17.3232 15.0466 L17.9416 14.8054 C19.1596 14.3303 19.9944 14.0027 20.5559 13.6846 C21.1121 13.3695 21.2144 13.165 21.2417 13.0207 C21.2669 12.8878 21.2548 12.683 20.8555 12.2292 C20.4473 11.7654 19.7854 11.2094 18.8095 10.3938 L18.315 9.9805 L18.2249 9.90535 C17.7711 9.52725 17.3767 9.1986 17.1558 8.73565 C16.9363 8.27579 16.9245 7.75902 16.9107 7.15734 L16.9107 7.15733 L16.9079 7.03779 L16.8919 6.38125 C16.8604 5.08676 16.8368 4.20282 16.7289 3.58298 C16.6217 2.96748 16.4687 2.84385 16.3704 2.79329 C16.266 2.73954 16.063 2.68862 15.477 2.95382 C14.8904 3.2193 14.1296 3.70282 13.0222 4.40984 Z M17.0569 1.45957 C17.794 1.83895 18.0741 2.56472 18.2066 3.32558 C18.3361 4.069 18.3604 5.06626 18.3899 6.28037 L18.4075 7.00127 C18.4267 7.79041 18.4462 7.9569 18.5095 8.08967 C18.5713 8.21915 18.682 8.33229 19.277 8.82955 L19.8217 9.28487 C20.7347 10.0478 21.4878 10.6772 21.9815 11.2383 C22.4931 11.8196 22.8694 12.487 22.7156 13.2997 C22.5639 14.1009 21.9791 14.6023 21.2954 14.9897 C20.6281 15.3677 19.6905 15.7334 18.5444 16.1803 L18.5444 16.1803 L18.4866 16.2029 L17.8682 16.444 C17.1308 16.7317 16.9665 16.8106 16.8465 16.928 C16.7261 17.0457 16.6427 17.2095 16.3367 17.942 L16.0563 18.6135 L16.0563 18.6135 C15.5807 19.7524 15.1918 20.6836 14.7979 21.343 C14.395 22.0175 13.8802 22.5928 13.0753 22.7243 C12.2577 22.8577 11.6012 22.4596 11.0368 21.931 C10.4916 21.4204 9.88525 20.6476 9.15021 19.7107 L9.15017 19.7107 L8.71151 19.1516 C8.23214 18.5407 8.12263 18.4269 7.99627 18.3619 C7.86754 18.2956 7.70459 18.2716 6.91893 18.2312 L6.20121 18.1943 C4.99403 18.1322 4.0014 18.0812 3.26417 17.9312 C2.50797 17.7774 1.79259 17.4757 1.43522 16.7267 C1.08195 15.9864 1.28264 15.2338 1.62099 14.5305 C1.95346 13.8395 2.5176 12.9989 3.20772 11.9705 L3.61468 11.364 C4.05958 10.7011 4.14925 10.542 4.17955 10.3819 C4.20901 10.2263 4.18499 10.0576 4.00909 9.29777 L3.8477 8.60068 C3.57569 7.42589 3.35216 6.46046 3.29254 5.70561 C3.23094 4.92556 3.3256 4.16731 3.9111 3.59481 C4.49761 3.02133 5.25746 2.94613 6.03409 3.029 C6.78457 3.10908 7.74011 3.35942 8.90165 3.66372 L8.90166 3.66372 L9.59189 3.84453 C10.3443 4.04164 10.5094 4.06947 10.6627 4.04444 C10.8209 4.01862 10.9803 3.93386 11.6528 3.50451 L12.2677 3.11191 C13.3094 2.44676 14.1615 1.90273 14.8586 1.58725 C15.568 1.2662 16.3259 1.08338 17.0569 1.45957 Z M19.5303 18.4695 L21.5303 20.4695 C21.8232 20.7624 21.8232 21.2373 21.5303 21.5302 C21.2374 21.8231 20.7625 21.8231 20.4696 21.5302 L18.4696 19.5302 C18.1767 19.2373 18.1767 18.7624 18.4696 18.4695 C18.7625 18.1767 19.2374 18.1767 19.5303 18.4695 Z" fill="#FFFFFF" />
</svg>