<svg xmlns="http://www.w3.org/2000/svg" width="24" height="24" viewBox="0 0 24 24" fill="none">
  <path fill-rule="nonzero" clip-rule="nonzero" d="M 15.6347 2.12433 C 15.9618 1.29189 17.1377 1.29189 17.4648 2.12433 L 17.8928 3.21354 L 18.9775 3.6429 C 19.8068 3.97121 19.8068 5.14713 18.9775 5.47544 L 17.8928 5.90481 L 17.4648 6.99401 C 17.1377 7.82645 15.9618 7.82646 15.6347 6.99402 L 15.2067 5.90481 L 14.122 5.47544 C 13.2927 5.14714 13.2927 3.97121 14.122 3.6429 L 15.2067 3.21354 L 15.6347 2.12433 Z M16.5497 2.52989 L16.135 3.58533 C16.0354 3.83891 15.8351 4.04027 15.5813 4.14073 L14.5243 4.55917 L15.5813 4.97762 C15.8351 5.07808 16.0354 5.27943 16.135 5.53301 L16.5497 6.58845 L16.9645 5.53301 C17.0641 5.27943 17.2644 5.07808 17.5181 4.97762 L18.5752 4.55917 L17.5181 4.14073 C17.2644 4.04027 17.0641 3.83891 16.9645 3.58533 L16.5497 2.52989 Z" fill="#FFFFFF" />
  <path fill-rule="nonzero" clip-rule="nonzero" d="M 3.3142 3.3142 C 4.73313 1.89527 7.03366 1.89527 8.45259 3.3142 L 20.6858 15.5474 C 22.1047 16.9663 22.1047 19.2669 20.6858 20.6858 C 19.2669 22.1047 16.9663 22.1047 15.5474 20.6858 L 3.3142 8.45259 C 1.89527 7.03366 1.89527 4.73313 3.3142 3.3142 Z M 7.39193 4.37486 C 6.55879 3.54171 5.208 3.54171 4.37486 4.37486 C 3.54171 5.208 3.54171 6.55879 4.37486 7.39193 L 5.96114 8.97821 L 8.97821 5.96114 L 7.39193 4.37486 Z M16.6081 19.6251 C17.4412 20.4583 18.792 20.4583 19.6251 19.6251 C20.4583 18.792 20.4583 17.4412 19.6251 16.6081 L10.0389 7.0218 L7.0218 10.0389 L16.6081 19.6251 Z" fill="#FFFFFF" />
  <path fill-rule="nonzero" clip-rule="nonzero" d="M21.332 8.94659 L21.4865 9.33987 L21.8778 9.49475 C22.7071 9.82306 22.7071 10.999 21.8778 11.3273 L21.4865 11.4822 L21.332 11.8755 C21.0049 12.7079 19.8289 12.7079 19.5018 11.8755 L19.3473 11.4822 L18.956 11.3273 C18.1266 10.999 18.1266 9.82306 18.956 9.49475 L19.3473 9.33987 L19.5018 8.94659 C19.8289 8.11416 21.0049 8.11416 21.332 8.94659 Z M 20.4169 9.35216 L 20.2756 9.71166 C 20.176 9.96524 19.9757 10.1666 19.7219 10.2671 L 19.3583 10.411 L 19.7219 10.555 C 19.9757 10.6555 20.176 10.8568 20.2756 11.1104 L 20.4169 11.4699 L 20.5582 11.1104 C 20.6578 10.8568 20.858 10.6555 21.1118 10.555 L 21.4755 10.411 L 21.1118 10.2671 C 20.858 10.1666 20.6578 9.96524 20.5582 9.71166 L 20.4169 9.35216 Z" fill="#FFFFFF" />
  <path fill-rule="nonzero" clip-rule="nonzero" d="M 4.66784 15.1243 C 4.99493 14.2919 6.17088 14.2919 6.49797 15.1243 L 6.65251 15.5176 L 7.04379 15.6725 C 7.87315 16.0008 7.87315 17.1767 7.04378 17.505 L 6.65251 17.6599 L 6.49797 18.0532 C 6.17088 18.8856 4.99493 18.8856 4.66784 18.0532 L 4.5133 17.6599 L 4.12203 17.505 C 3.29266 17.1767 3.29266 16.0008 4.12202 15.6725 L 4.5133 15.5176 L 4.66784 15.1243 Z M5.44164 15.8894 C5.342 16.143 5.14174 16.3443 4.88796 16.4448 L4.52427 16.5888 L4.88796 16.7327 C5.14174 16.8332 5.342 17.0345 5.44164 17.2881 L5.5829 17.6476 L5.72417 17.2881 C5.82381 17.0345 6.02407 16.8332 6.27785 16.7327 L6.64154 16.5888 L6.27785 16.4448 C6.02407 16.3443 5.82381 16.143 5.72417 15.8894 L5.5829 15.5299 L5.44164 15.8894 Z" fill="#FFFFFF" />
</svg>