<svg xmlns="http://www.w3.org/2000/svg" width="24" height="24" viewBox="0 0 24 24" fill="none">
  <path fill-rule="nonzero" clip-rule="nonzero" d="M13 2.75 L16.25 2.75 L16.25 6.25 L13 6.25 C9.82436 6.25 7.25 8.82436 7.25 12 C7.25 15.1756 9.82436 17.75 13 17.75 L16.25 17.75 L16.25 21.25 L13 21.25 C7.89137 21.25 3.75 17.1086 3.75 12 C3.75 6.89137 7.89137 2.75 13 2.75 Z M 17.75 2.75 V 6.25 H 19.5 C 19.9142 6.25 20.25 5.91421 20.25 5.5 V 3.5 C 20.25 3.08579 19.9142 2.75 19.5 2.75 H 17.75 Z M 17.75 17.75 V 21.25 H 19.5 C 19.9142 21.25 20.25 20.9142 20.25 20.5 V 18.5 C 20.25 18.0858 19.9142 17.75 19.5 17.75 H 17.75 Z M 2.25 12 C 2.25 6.06294 7.06294 1.25 13 1.25 H 19.5 C 20.7426 1.25 21.75 2.25736 21.75 3.5 V 5.5 C 21.75 6.74264 20.7426 7.75 19.5 7.75 H 13 C 10.6528 7.75 8.75 9.65279 8.75 12 C 8.75 14.3472 10.6528 16.25 13 16.25 H 19.5 C 20.7426 16.25 21.75 17.2574 21.75 18.5 V 20.5 C 21.75 21.7426 20.7426 22.75 19.5 22.75 H 13 C 7.06294 22.75 2.25 17.9371 2.25 12 Z" fill="#FFFFFF" />
</svg>