<svg xmlns="http://www.w3.org/2000/svg" width="24" height="24" viewBox="0 0 24 24" fill="none">
  <path d="M7.1709 9.33522C7.29437 9.08813 7.75678 8.74997 8.5 8.74997C9.24321 8.74997 9.70562 9.08813 9.8291 9.33522C10.0142 9.70575 10.4647 9.85602 10.8352 9.67087C11.2058 9.48572 11.3561 9.03525 11.1709 8.66472C10.7121 7.74662 9.60349 7.24997 8.5 7.24997C7.39651 7.24997 6.28787 7.74662 5.8291 8.66472C5.64394 9.03525 5.79422 9.48572 6.16475 9.67087C6.53528 9.85602 6.98575 9.70575 7.1709 9.33522Z" fill="#FFFFFF" />
  <path d="M15.5 8.74997C14.7568 8.74997 14.2944 9.08813 14.1709 9.33522C13.9857 9.70575 13.5353 9.85602 13.1647 9.67087C12.7942 9.48572 12.6439 9.03525 12.8291 8.66472C13.2879 7.74662 14.3965 7.24997 15.5 7.24997C16.6035 7.24997 17.7121 7.74662 18.1709 8.66472C18.3561 9.03525 18.2058 9.48572 17.8352 9.67087C17.4647 9.85602 17.0142 9.70575 16.8291 9.33522C16.7056 9.08813 16.2432 8.74997 15.5 8.74997Z" fill="#FFFFFF" />
  <path fill-rule="nonzero" clip-rule="nonzero" d="M8.83532 2.21219 C10.4988 2.48944 11.2486 2.61205 12 2.61205 C12.7514 2.61205 13.5012 2.48944 15.1647 2.21219 L16.2753 2.02709 C17.3084 1.85487 18.1627 1.71246 18.845 1.69597 C19.5606 1.67869 20.224 1.7937 20.7775 2.2626 C21.3309 2.73139 21.5535 3.3665 21.6541 4.07485 C21.7501 4.7501 21.75 5.61548 21.75 6.66192 L21.75 12 C21.75 17.9642 17.1263 20.8143 14.395 21.9762 L14.3684 21.9875 C14.0282 22.1323 13.7096 22.2678 13.3438 22.359 C12.9582 22.4551 12.5482 22.4964 12 22.4964 C11.4518 22.4964 11.0418 22.4551 10.6562 22.359 C10.2904 22.2678 9.97181 22.1323 9.63161 21.9875 L9.60498 21.9762 C6.87373 20.8143 2.25 17.9642 2.25 12 L2.25 6.66189 C2.24997 5.61547 2.24995 4.75009 2.34586 4.07485 C2.44648 3.3665 2.66908 2.73139 3.22247 2.2626 C3.77599 1.7937 4.43942 1.67869 5.15499 1.69597 C5.83727 1.71246 6.69156 1.85487 7.72475 2.02709 L8.83532 2.21219 Z M4.19203 3.40713 C4.03818 3.53747 3.90715 3.7494 3.83096 4.2858 C3.7518 4.84308 3.75 5.60098 3.75 6.71887 L3.75 12 C3.75 17.0165 7.6042 19.495 10.1921 20.5959 C10.5633 20.7538 10.7788 20.8437 11.019 20.9035 C11.2489 20.9608 11.5289 20.9964 12 20.9964 C12.4711 20.9964 12.7511 20.9608 12.981 20.9035 C13.2212 20.8437 13.4367 20.7538 13.8079 20.5959 C16.3958 19.495 20.25 17.0165 20.25 12 L20.25 6.71887 C20.25 5.60098 20.2482 4.84308 20.1691 4.2858 C20.0929 3.7494 19.9618 3.53747 19.808 3.40713 C19.6542 3.2769 19.4235 3.18243 18.8813 3.19554 C18.318 3.20914 17.5693 3.33211 16.4657 3.51604 L15.3377 3.70404 C13.7671 3.96585 12.89 4.11205 12 4.11205 C11.11 4.11205 10.2329 3.96585 8.66226 3.70404 L7.5343 3.51605 C6.43066 3.33211 5.682 3.20914 5.11876 3.19554 C4.57647 3.18243 4.34577 3.2769 4.19203 3.40713 Z" fill="#FFFFFF" />
  <path d="M7.9569 15.5172C7.67123 15.2173 7.6841 14.7413 7.98405 14.4556L8.01577 14.4267C8.03121 14.4131 8.05113 14.396 8.07562 14.376C8.12461 14.336 8.19189 14.2844 8.2782 14.2252C8.45092 14.1067 8.6995 13.9584 9.02945 13.8134C9.69192 13.5222 10.6696 13.25 12 13.25C13.3304 13.25 14.3081 13.5222 14.9706 13.8134C15.3005 13.9584 15.5491 14.1067 15.7218 14.2252C15.8081 14.2844 15.8754 14.336 15.9244 14.376C15.9489 14.396 15.9688 14.4131 15.9842 14.4267L16.0041 14.4446L16.0115 14.4514L16.0146 14.4543L16.016 14.4556L16.0172 14.4569C16.3172 14.7425 16.3288 15.2173 16.0431 15.5172C15.76 15.8144 15.2913 15.8285 14.9909 15.5508C14.989 15.5491 14.9835 15.5443 14.9758 15.538C14.9578 15.5233 14.9239 15.4968 14.8735 15.4623C14.7728 15.3932 14.6058 15.2915 14.367 15.1866C13.8919 14.9778 13.1196 14.75 12 14.75C10.8804 14.75 10.1081 14.9778 9.63305 15.1866C9.39425 15.2915 9.22721 15.3932 9.12649 15.4623C9.09073 15.4868 9.06315 15.5073 9.04379 15.5224C9.03592 15.5285 9.02939 15.5337 9.02419 15.538C9.01651 15.5443 9.01172 15.5484 9.00977 15.5501C8.70947 15.8285 8.2402 15.8147 7.9569 15.5172Z" fill="#FFFFFF" />
</svg>