<svg xmlns="http://www.w3.org/2000/svg" width="24" height="24" viewBox="0 0 24 24" fill="none">
  <path fill-rule="nonzero" clip-rule="nonzero" d="M21 11.9012 C21 17.5901 16.761 20.3508 14.1014 21.523 C13.38 21.841 13.0193 22 12 22 C10.9807 22 10.62 21.841 9.89856 21.523 C7.23896 20.3508 3 17.5901 3 11.9012 L3 6.42911 C3 4.16001 3 3.02545 3.70725 2.40466 C4.4145 1.78386 5.49553 1.97055 7.6576 2.34392 L8.71202 2.52602 C10.3523 2.80927 11.1724 2.9509 12 2.9509 C12.8276 2.9509 13.6477 2.80927 15.288 2.52602 L16.3424 2.34392 C18.5045 1.97055 19.5855 1.78386 20.2927 2.40466 C21 3.02545 21 4.16001 21 6.42911 L21 11.9012 Z M 7.1709 9.14008 C 7.29437 8.88406 7.75678 8.53367 8.5 8.53367 C 9.24322 8.53367 9.70563 8.88406 9.8291 9.14008 C 10.0143 9.52401 10.4647 9.67972 10.8352 9.48787 C 11.2058 9.29603 11.3561 8.82927 11.1709 8.44534 C 10.7121 7.49404 9.60349 6.97943 8.5 6.97943 C 7.39651 6.97943 6.28787 7.49404 5.8291 8.44534 C 5.64395 8.82927 5.79422 9.29603 6.16475 9.48787 C 6.53528 9.67972 6.98575 9.52401 7.1709 9.14008 Z M15.5 8.53367 C16.2432 8.53367 16.7056 8.88406 16.8291 9.14008 C17.0143 9.52401 17.4647 9.67972 17.8352 9.48787 C18.2058 9.29603 18.3561 8.82927 18.1709 8.44534 C17.7121 7.49404 16.6035 6.97943 15.5 6.97943 C14.3965 6.97943 13.2879 7.49404 12.8291 8.44534 C12.6439 8.82927 12.7942 9.29603 13.1648 9.48787 C13.5353 9.67972 13.9857 9.52401 14.1709 9.14008 C14.2944 8.88406 14.7568 8.53367 15.5 8.53367 Z M7.98852 14.5419 L7.99015 14.5434 C8.00187 14.5544 8.05246 14.6005 8.07562 14.62 C8.1246 14.6615 8.19189 14.715 8.2782 14.7763 C8.45092 14.899 8.6995 15.0527 9.02945 15.203 C9.69192 15.5047 10.6696 15.7868 12 15.7868 C13.3304 15.7868 14.3081 15.5047 14.9706 15.203 C15.3005 15.0527 15.5491 14.899 15.7218 14.7763 C15.8081 14.715 15.8754 14.6615 15.9244 14.62 C15.9489 14.5993 15.9688 14.5816 15.9842 14.5675 L16.0041 14.549 L16.0115 14.5419 L16.0146 14.5389 L16.016 14.5375 L16.0172 14.5363 C16.3172 14.2403 16.3288 13.7484 16.0431 13.4376 C15.76 13.1296 15.2913 13.115 14.991 13.4028 L14.9902 13.4035 C14.9883 13.4053 14.9835 13.4095 14.9758 13.416 C14.9578 13.4313 14.9239 13.4587 14.8735 13.4945 C14.7728 13.5661 14.6057 13.6714 14.3669 13.7802 C13.8919 13.9965 13.1196 14.2326 12 14.2326 C10.8804 14.2326 10.1081 13.9965 9.63305 13.7802 C9.39425 13.6714 9.22721 13.5661 9.12649 13.4945 C9.09073 13.4691 9.04355 13.4316 9.02418 13.416 C8.72388 13.1275 8.2402 13.1293 7.9569 13.4376 C7.67123 13.7484 7.68858 14.2459 7.98852 14.5419 Z" fill="#FFFFFF" />
</svg>