<svg xmlns="http://www.w3.org/2000/svg" width="24" height="24" viewBox="0 0 24 24" fill="none">
  <path fill-rule="nonzero" clip-rule="nonzero" d="M 15.9131 9.37926 L 16.7582 12.6766 C 17.7517 16.5526 15.4742 19.335 13.7324 20.8219 C 13.201 21.2755 12.9353 21.5023 11.907 21.7903 C 10.8787 22.0784 10.5401 22.0208 9.86292 21.9058 C 7.64328 21.5286 4.34019 20.3093 3.34673 16.4334 L 2.50159 13.136 C 2.06102 11.4171 1.84073 10.5577 2.13226 9.88284 C 2.22999 9.6566 2.36579 9.45054 2.53319 9.27447 C 3.03253 8.74929 3.87944 8.65827 5.57328 8.47622 C 6.82756 8.34142 7.45471 8.27402 8.06578 8.12524 C 8.27824 8.07352 8.48901 8.01448 8.69774 7.94822 C 9.29811 7.75765 9.87347 7.48822 11.0242 6.94934 C 12.5782 6.22163 13.3551 5.85777 14.0388 6.05159 C 14.268 6.11656 14.4841 6.22403 14.677 6.36888 C 15.2522 6.80094 15.4725 7.66038 15.9131 9.37926 Z M 6.00531 13.368 C 6.03405 13.072 6.2643 12.7673 6.643 12.6658 C 7.02171 12.5643 7.37345 12.7131 7.54635 12.9551 C 7.78715 13.2921 8.25557 13.3701 8.5926 13.1293 C 8.92963 12.8885 9.00764 12.4201 8.76684 12.0831 C 8.21636 11.3126 7.2139 10.9599 6.25477 11.2169 C 5.29565 11.4739 4.60382 12.2806 4.51233 13.223 C 4.47231 13.6353 4.77408 14.002 5.18635 14.042 C 5.59863 14.082 5.96529 13.7803 6.00531 13.368 Z M12.4389 11.1126 C12.8176 11.0111 13.1693 11.1598 13.3422 11.4018 C13.583 11.7389 14.0515 11.8169 14.3885 11.5761 C14.7255 11.3353 14.8035 10.8669 14.5627 10.5298 C14.0123 9.75936 13.0098 9.4067 12.0507 9.66369 C11.0915 9.92069 10.3997 10.7273 10.3082 11.6698 C10.2682 12.0821 10.57 12.4488 10.9823 12.4888 C11.3945 12.5288 11.7612 12.227 11.8012 11.8148 C11.8299 11.5187 12.0602 11.2141 12.4389 11.1126 Z M13.2012 16.231 C13.6482 15.6287 13.6485 15.629 13.6482 15.6287 L13.6468 15.6277 L13.6453 15.6266 L13.642 15.6242 L13.6342 15.6186 L13.6138 15.6043 C13.598 15.5934 13.5779 15.5801 13.5536 15.5647 C13.5049 15.534 13.439 15.4953 13.3563 15.4527 C13.1912 15.3677 12.9582 15.2672 12.6619 15.1867 C12.0642 15.0244 11.226 14.9485 10.1948 15.2248 C9.16352 15.5011 8.47553 15.9859 8.03909 16.4254 C7.82274 16.6433 7.67124 16.8468 7.57071 17.003 C7.52043 17.0811 7.48274 17.1477 7.45591 17.1986 C7.44249 17.2241 7.43177 17.2457 7.42353 17.2629 L7.41298 17.2855 L7.40905 17.2943 L7.40741 17.298 L7.40667 17.2997 L7.40598 17.3013 C7.40581 17.3017 7.40598 17.3013 8.09421 17.5994 L7.40598 17.3013 C7.24136 17.6814 7.41605 18.123 7.79614 18.2876 C8.17273 18.4507 8.60966 18.2807 8.7778 17.9079 L8.78307 17.8976 C8.79097 17.8826 8.80687 17.8539 8.83206 17.8148 C8.8825 17.7364 8.96952 17.6172 9.10341 17.4824 C9.36744 17.2165 9.82678 16.8763 10.583 16.6737 C11.3392 16.4711 11.9071 16.536 12.2687 16.6343 C12.4521 16.6841 12.587 16.7438 12.6699 16.7864 C12.7113 16.8077 12.7394 16.8247 12.7537 16.8337 L12.7634 16.84 C13.0954 17.0788 13.5588 17.0075 13.8034 16.6779 C14.0503 16.3453 13.9808 15.8756 13.6482 15.6287 L13.2012 16.231 Z" fill="#FFFFFF" />
  <path opacity="0.6" d="M20.6522 12.4334L21.4974 9.13602C21.9379 7.41716 22.1582 6.55769 21.8667 5.88284C21.769 5.6566 21.6332 5.45054 21.4658 5.27447C20.9664 4.74929 20.1195 4.65827 18.4257 4.47622C17.1714 4.34142 16.5442 4.27402 15.9332 4.12524C15.7207 4.07352 15.5099 4.01448 15.3012 3.94822C14.7008 3.75765 14.1255 3.48822 12.9748 2.94934C11.4208 2.22163 10.6438 1.85777 9.96018 2.05159C9.731 2.11656 9.51484 2.22403 9.32199 2.36888C8.74675 2.80094 8.52647 3.66038 8.0859 5.37926L7.38637 8.10846L7.3418 8.2657C7.60651 8.22507 7.8371 8.18083 8.06544 8.12524C8.2779 8.07352 8.48866 8.01448 8.6974 7.94822C9.29776 7.75765 9.87312 7.48822 11.0238 6.94935C12.5778 6.22163 13.3548 5.85777 14.0384 6.05159C14.2676 6.11656 14.4838 6.22403 14.6766 6.36888C15.2519 6.80094 15.4721 7.66038 15.9127 9.37926L16.7579 12.6766C17.2028 14.4124 16.9917 15.9289 16.4664 17.208L16.499 17.221C18.2401 16.4706 19.978 15.0638 20.6522 12.4334Z" fill="#FFFFFF" />
  <path opacity="0.6" d="M15.7281 8.66554C15.7628 8.70346 15.8021 8.73836 15.8456 8.76946C16.1826 9.01026 16.651 8.93224 16.8918 8.59521C17.0647 8.35322 17.4165 8.20448 17.7952 8.30596C18.1739 8.40743 18.4041 8.71211 18.4329 9.00814C18.4729 9.42041 18.8396 9.72218 19.2518 9.68216C19.6641 9.64214 19.9659 9.27548 19.9259 8.8632C19.8344 7.92071 19.1425 7.11407 18.1834 6.85707C17.2243 6.60007 16.2218 6.95274 15.6713 7.72321C15.6085 7.81119 15.5673 7.90813 15.5469 8.00764C15.6054 8.20709 15.6649 8.42576 15.7281 8.66554Z" fill="#FFFFFF" />
  <path opacity="0.6" d="M10.2402 7.31496C10.4702 7.20876 10.7282 7.08797 11.0242 6.94935C12.2202 6.38926 12.956 6.0447 13.5432 6.00406C13.2441 5.67583 12.8474 5.42715 12.3872 5.30385C11.4281 5.04685 10.4256 5.39951 9.87516 6.16998C9.63436 6.50701 9.71238 6.97544 10.0494 7.21623C10.1095 7.25916 10.1738 7.29196 10.2402 7.31496Z" fill="#FFFFFF" />
</svg>