<svg xmlns="http://www.w3.org/2000/svg" width="24" height="24" viewBox="0 0 24 24" fill="none">
  <path d="M21.5366 9.13602L20.6914 12.4334C20.2619 14.1092 19.3848 15.2884 18.3546 16.1176C18.5739 14.974 18.569 13.7001 18.2112 12.3042L17.3472 8.93331C17.296 8.73345 17.2459 8.53801 17.1966 8.34978C17.3679 8.27209 17.5772 8.24746 17.7955 8.30594C18.1742 8.40742 18.4044 8.7121 18.4332 9.00812C18.4732 9.42039 18.8398 9.72217 19.2521 9.68214C19.6644 9.64212 19.9662 9.27546 19.9261 8.86319C19.8347 7.9207 19.1428 7.11405 18.1837 6.85705C17.7011 6.72773 17.2074 6.75278 16.766 6.90777L16.7494 6.86317C16.5249 6.26679 16.1968 5.63442 15.5778 5.16951C15.2393 4.91528 14.8568 4.7244 14.4479 4.60846C13.6893 4.39339 12.9853 4.53161 12.3843 4.73161C11.8259 4.9174 11.1749 5.22232 10.4597 5.55734L10.388 5.59092C9.20344 6.14565 8.72944 6.3644 8.2439 6.51852C8.09652 6.5653 7.94799 6.6078 7.79848 6.64598L8.12513 5.37926C8.5657 3.66038 8.78598 2.80094 9.36122 2.36888C9.55407 2.22403 9.77023 2.11656 9.99941 2.05159C10.683 1.85777 11.46 2.22163 13.014 2.94934C14.1647 3.48822 14.7401 3.75765 15.3404 3.94822C15.5492 4.01448 15.7599 4.07352 15.9724 4.12524C16.5835 4.27402 17.2106 4.34142 18.4649 4.47622C20.1587 4.65827 21.0057 4.74929 21.505 5.27447C21.6724 5.45054 21.8082 5.6566 21.9059 5.88284C22.1974 6.55769 21.9772 7.41713 21.5366 9.13602Z" fill="#FFFFFF" />
  <path fill-rule="nonzero" clip-rule="nonzero" d="M16.7582 12.6766 C17.7517 16.5526 15.4742 19.335 13.7324 20.8219 C13.201 21.2755 12.9353 21.5023 11.907 21.7903 C10.8787 22.0784 10.5401 22.0208 9.86292 21.9058 C7.64328 21.5286 4.34019 20.3093 3.34673 16.4334 L2.50159 13.136 C2.06102 11.4171 1.84073 10.5577 2.13226 9.88284 C2.22999 9.6566 2.36579 9.45054 2.53319 9.27447 C3.03253 8.74929 3.87946 8.65827 5.5733 8.47622 C6.82757 8.34142 7.45471 8.27401 8.06578 8.12524 C8.27824 8.07352 8.48901 8.01448 8.69774 7.94822 C9.29811 7.75765 9.87347 7.48821 11.0242 6.94934 C12.5782 6.22163 13.3551 5.85777 14.0388 6.05158 C14.268 6.11656 14.4841 6.22403 14.677 6.36888 C15.2522 6.80094 15.4725 7.66038 15.9131 9.37926 L16.7582 12.6766 Z M 6.00531 13.368 C 6.03405 13.072 6.2643 12.7673 6.643 12.6658 C 7.02171 12.5643 7.37345 12.7131 7.54635 12.9551 C 7.78715 13.2921 8.25557 13.3701 8.5926 13.1293 C 8.92963 12.8885 9.00764 12.4201 8.76684 12.0831 C 8.21636 11.3126 7.2139 10.9599 6.25477 11.2169 C 5.29565 11.4739 4.60382 12.2806 4.51233 13.223 C 4.47231 13.6353 4.77408 14.002 5.18635 14.042 C 5.59863 14.082 5.96529 13.7803 6.00531 13.368 Z M 11.8012 11.8148 C 11.8299 11.5187 12.0602 11.2141 12.4389 11.1126 C 12.8176 11.0111 13.1693 11.1598 13.3422 11.4018 C 13.583 11.7389 14.0515 11.8169 14.3885 11.5761 C 14.7255 11.3353 14.8035 10.8669 14.5627 10.5298 C 14.0123 9.75936 13.0098 9.4067 12.0507 9.66369 C 11.0915 9.92069 10.3997 10.7273 10.3082 11.6698 C 10.2682 12.0821 10.57 12.4488 10.9823 12.4888 C 11.3945 12.5288 11.7612 12.227 11.8012 11.8148 Z M13.6472 15.6287 L13.6458 15.6277 L13.6443 15.6266 L13.641 15.6242 L13.6332 15.6186 L13.6128 15.6043 C13.597 15.5934 13.5769 15.5801 13.5526 15.5647 C13.5039 15.534 13.438 15.4953 13.3554 15.4527 C13.1902 15.3677 12.9572 15.2672 12.6609 15.1867 C12.0632 15.0244 11.225 14.9485 10.1938 15.2248 C9.16254 15.5011 8.47455 15.9859 8.03811 16.4254 C7.82176 16.6433 7.67026 16.8468 7.56974 17.003 C7.51945 17.0811 7.48176 17.1477 7.45494 17.1986 C7.44152 17.2241 7.43079 17.2457 7.42255 17.2629 L7.41201 17.2855 L7.40807 17.2943 L7.40643 17.298 L7.40569 17.2997 C7.40569 17.2997 7.405 17.3013 8.09323 17.5994 L7.405 17.3013 C7.24039 17.6814 7.41507 18.123 7.79517 18.2876 C8.17175 18.4507 8.60869 18.2807 8.77682 17.9079 L8.78209 17.8976 C8.78999 17.8826 8.80589 17.8539 8.83109 17.8148 C8.88152 17.7364 8.96854 17.6172 9.10243 17.4824 C9.36646 17.2165 9.82581 16.8763 10.582 16.6737 C11.3382 16.4711 11.9061 16.536 12.2677 16.6343 C12.4511 16.6841 12.586 16.7438 12.6689 16.7864 C12.7103 16.8077 12.7384 16.8247 12.7527 16.8337 L12.7625 16.84 C13.0945 17.0788 13.5579 17.0075 13.8024 16.6779 C14.0493 16.3453 13.9798 15.8756 13.6472 15.6287 Z" fill="#FFFFFF" />
</svg>