<svg xmlns="http://www.w3.org/2000/svg" width="24" height="24" viewBox="0 0 24 24" fill="none">
  <path fill-rule="nonzero" clip-rule="nonzero" d="M21 11.4061 C21 16.8106 16.761 19.4332 14.1014 20.5469 C13.38 20.849 13.0193 21 12 21 C10.9807 21 10.62 20.849 9.89856 20.5469 C7.23896 19.4332 3 16.8106 3 11.4061 L3 6.20766 C3 4.05201 3 2.97418 3.70725 2.38442 C4.4145 1.79467 5.49553 1.97202 7.6576 2.32673 L8.71202 2.49971 C10.3523 2.76881 11.1724 2.90336 12 2.90336 C12.8276 2.90336 13.6477 2.76881 15.288 2.49971 L16.3424 2.32673 C18.5045 1.97202 19.5855 1.79467 20.2927 2.38442 C21 2.97418 21 4.05201 21 6.20766 L21 11.4061 Z M 7.99594 13.8125 C 7.696 14.0937 7.67123 14.5731 7.9569 14.8683 C 8.2402 15.1612 8.70946 15.1748 9.00977 14.9007 L 9.01531 14.896 L 9.02419 14.8888 C 9.02939 14.8846 9.03592 14.8795 9.04379 14.8734 C 9.06315 14.8586 9.09073 14.8384 9.12649 14.8143 C 9.22721 14.7463 9.39425 14.6462 9.63305 14.5429 C 10.1081 14.3373 10.8804 14.1131 12 14.1131 C 13.1196 14.1131 13.8919 14.3373 14.367 14.5429 C 14.6058 14.6462 14.7728 14.7463 14.8735 14.8143 C 14.9239 14.8483 14.9578 14.8743 14.9758 14.8888 L 14.9862 14.8973 L 14.9909 14.9014 C 15.2913 15.1748 15.76 15.1609 16.0431 14.8683 C 16.3288 14.5731 16.3172 14.1058 16.0172 13.8246 L 16.016 13.8234 L 16.0146 13.8221 L 16.0115 13.8192 L 16.0041 13.8125 L 15.9842 13.7949 C 15.9688 13.7815 15.9489 13.7647 15.9244 13.745 C 15.8754 13.7056 15.8081 13.6548 15.7218 13.5965 C 15.5491 13.4799 15.3005 13.3339 14.9706 13.1912 C 14.3081 12.9045 13.3304 12.6366 12 12.6366 C 10.6696 12.6366 9.69192 12.9045 9.02945 13.1912 C 8.6995 13.3339 8.45092 13.4799 8.2782 13.5965 C 8.19189 13.6548 8.1246 13.7056 8.07562 13.745 C 8.05113 13.7647 8.03121 13.7815 8.01576 13.7949 L 7.99594 13.8125 Z M8.50016 8.20699 C9.24338 8.20699 9.70579 8.53985 9.82926 8.78308 C10.0144 9.14781 10.4649 9.29574 10.8354 9.11348 C11.2059 8.93122 11.3562 8.4878 11.1711 8.12307 C10.7123 7.21934 9.60365 6.73046 8.50016 6.73046 C7.39668 6.73046 6.28804 7.21934 5.82926 8.12307 C5.64411 8.4878 5.79439 8.93122 6.16492 9.11348 C6.53544 9.29574 6.98591 9.14781 7.17107 8.78308 C7.29454 8.53985 7.75695 8.20699 8.50016 8.20699 Z M15.5002 8.20699 C16.2434 8.20699 16.7058 8.53985 16.8293 8.78308 C17.0144 9.14781 17.4649 9.29574 17.8354 9.11348 C18.2059 8.93122 18.3562 8.4878 18.1711 8.12307 C17.7123 7.21934 16.6037 6.73046 15.5002 6.73046 C14.3967 6.73046 13.288 7.21934 12.8293 8.12307 C12.6441 8.4878 12.7944 8.93122 13.1649 9.11348 C13.5354 9.29574 13.9859 9.14781 14.1711 8.78308 C14.2945 8.53985 14.7569 8.20699 15.5002 8.20699 Z" fill="#FFFFFF" />
</svg>