<svg xmlns="http://www.w3.org/2000/svg" width="24" height="24" viewBox="0 0 24 24" fill="none">
  <path d="M12 10.35C12.9113 10.35 13.65 11.0887 13.65 12C13.65 12.9113 12.9113 13.65 12 13.65C11.0887 13.65 10.35 12.9113 10.35 12C10.35 11.0887 11.0887 10.35 12 10.35Z" fill="#FFFFFF" />
  <path fill-rule="nonzero" clip-rule="nonzero" d="M3.46447 3.46447 C4.92893 2 7.28595 2 12 2 C16.714 2 19.0711 2 20.5355 3.46447 C22 4.92893 22 7.28595 22 12 C22 16.714 22 19.0711 20.5355 20.5355 C19.0711 22 16.714 22 12 22 C7.28595 22 4.92893 22 3.46447 20.5355 C2 19.0711 2 16.714 2 12 C2 7.28595 2 4.92893 3.46447 3.46447 Z M 6.75 12 C 6.75 9.1005 9.1005 6.75 12 6.75 C 14.8995 6.75 17.25 9.1005 17.25 12 C 17.25 12.6327 17.1384 13.2376 16.9345 13.7973 C 16.8991 13.8944 16.8295 13.9989 16.7183 14.1015 L 16.6377 14.1758 C 16.3369 14.4533 15.8853 14.4888 15.5448 14.2618 C 15.2981 14.0974 15.15 13.8206 15.15 13.5241 V 12 C 15.15 10.2603 13.7397 8.85 12 8.85 C 10.2603 8.85 8.85 10.2603 8.85 12 C 8.85 13.7397 10.2603 15.15 12 15.15 C 12.7017 15.15 13.3499 14.9205 13.8735 14.5325 C 14.0557 14.9233 14.3431 15.2635 14.7127 15.5099 C 15.6294 16.121 16.8451 16.0252 17.6548 15.2783 L 17.7354 15.204 C 17.9855 14.9732 18.211 14.6756 18.3439 14.3108 C 18.6069 13.5889 18.75 12.8103 18.75 12 C 18.75 8.27208 15.7279 5.25 12 5.25 C 8.27208 5.25 5.25 8.27208 5.25 12 C 5.25 15.7279 8.27208 18.75 12 18.75 C 12.4142 18.75 12.75 18.4142 12.75 18 C 12.75 17.5858 12.4142 17.25 12 17.25 C 9.1005 17.25 6.75 14.8995 6.75 12 Z" fill="#FFFFFF" />
</svg>