<svg xmlns="http://www.w3.org/2000/svg" width="24" height="24" viewBox="0 0 24 24" fill="none">
  <path fill-rule="nonzero" clip-rule="nonzero" d="M6.75 12 C6.75 14.8995 9.1005 17.25 12 17.25 C12.4142 17.25 12.75 17.5858 12.75 18 C12.75 18.4142 12.4142 18.75 12 18.75 C8.27208 18.75 5.25 15.7279 5.25 12 C5.25 8.27208 8.27208 5.25 12 5.25 C15.7279 5.25 18.75 8.27208 18.75 12 C18.75 12.8103 18.6069 13.5889 18.3439 14.3108 C18.211 14.6756 17.9855 14.9732 17.7354 15.204 L17.6548 15.2783 C16.8451 16.0252 15.6294 16.121 14.7127 15.5099 C14.3431 15.2635 14.0557 14.9233 13.8735 14.5325 C13.3499 14.9205 12.7017 15.15 12 15.15 C10.2603 15.15 8.85 13.7397 8.85 12 C8.85 10.2603 10.2603 8.85 12 8.85 C13.7397 8.85 15.15 10.2603 15.15 12 L15.15 13.5241 C15.15 13.8206 15.2981 14.0974 15.5448 14.2618 C15.8853 14.4888 16.3369 14.4533 16.6377 14.1758 L16.7183 14.1015 C16.8295 13.9989 16.8991 13.8944 16.9345 13.7973 C17.1384 13.2376 17.25 12.6327 17.25 12 C17.25 9.1005 14.8995 6.75 12 6.75 C9.1005 6.75 6.75 9.1005 6.75 12 Z M12 10.35 C11.0887 10.35 10.35 11.0887 10.35 12 C10.35 12.9113 11.0887 13.65 12 13.65 C12.9113 13.65 13.65 12.9113 13.65 12 C13.65 11.0887 12.9113 10.35 12 10.35 Z" fill="#FFFFFF" />
  <path fill-rule="nonzero" clip-rule="nonzero" d="M12 1.25 C17.9371 1.25 22.75 6.06294 22.75 12 C22.75 17.9371 17.9371 22.75 12 22.75 C6.06294 22.75 1.25 17.9371 1.25 12 C1.25 6.06294 6.06294 1.25 12 1.25 Z M2.75 12 C2.75 17.1086 6.89137 21.25 12 21.25 C17.1086 21.25 21.25 17.1086 21.25 12 C21.25 6.89137 17.1086 2.75 12 2.75 C6.89137 2.75 2.75 6.89137 2.75 12 Z" fill="#FFFFFF" />
</svg>