<svg xmlns="http://www.w3.org/2000/svg" width="24" height="24" viewBox="0 0 24 24" fill="none">
  <path opacity="0.5" d="M3.46447 3.46447C2 4.92893 2 7.28595 2 12C2 16.714 2 19.0711 3.46447 20.5355C4.92893 22 7.28595 22 12 22C16.714 22 19.0711 22 20.5355 20.5355C22 19.0711 22 16.714 22 12C22 7.28595 22 4.92893 20.5355 3.46447C19.0711 2 16.714 2 12 2C7.28595 2 4.92893 2 3.46447 3.46447Z" fill="#FFFFFF" />
  <path fill-rule="nonzero" clip-rule="nonzero" d="M 12 6.75 C 9.1005 6.75 6.75 9.1005 6.75 12 C 6.75 14.8995 9.1005 17.25 12 17.25 C 12.4142 17.25 12.75 17.5858 12.75 18 C 12.75 18.4142 12.4142 18.75 12 18.75 C 8.27208 18.75 5.25 15.7279 5.25 12 C 5.25 8.27208 8.27208 5.25 12 5.25 C 15.7279 5.25 18.75 8.27208 18.75 12 C 18.75 12.8103 18.6069 13.5889 18.3439 14.3108 C 18.211 14.6756 17.9855 14.9732 17.7354 15.204 L 17.6548 15.2783 C 16.8451 16.0252 15.6294 16.121 14.7127 15.5099 C 14.3431 15.2635 14.0557 14.9233 13.8735 14.5325 C 13.3499 14.9205 12.7017 15.15 12 15.15 C 10.2603 15.15 8.85 13.7397 8.85 12 C 8.85 10.2603 10.2603 8.85 12 8.85 C 13.7397 8.85 15.15 10.2603 15.15 12 V 13.5241 C 15.15 13.8206 15.2981 14.0974 15.5448 14.2618 C 15.8853 14.4888 16.3369 14.4533 16.6377 14.1758 L 16.7183 14.1015 C 16.8295 13.9989 16.8991 13.8944 16.9345 13.7973 C 17.1384 13.2376 17.25 12.6327 17.25 12 C 17.25 9.1005 14.8995 6.75 12 6.75 Z M12 10.35 C11.0887 10.35 10.35 11.0887 10.35 12 C10.35 12.9113 11.0887 13.65 12 13.65 C12.9113 13.65 13.65 12.9113 13.65 12 C13.65 11.0887 12.9113 10.35 12 10.35 Z" fill="#FFFFFF" />
</svg>