<svg xmlns="http://www.w3.org/2000/svg" width="24" height="24" viewBox="0 0 24 24" fill="none">
  <path fill-rule="nonzero" clip-rule="nonzero" d="M6.75 12 C6.75 14.8995 9.1005 17.25 12 17.25 C12.4142 17.25 12.75 17.5858 12.75 18 C12.75 18.4142 12.4142 18.75 12 18.75 C8.27208 18.75 5.25 15.7279 5.25 12 C5.25 8.27208 8.27208 5.25 12 5.25 C15.7279 5.25 18.75 8.27208 18.75 12 C18.75 12.8103 18.6069 13.5889 18.3439 14.3108 C18.211 14.6756 17.9855 14.9732 17.7354 15.204 L17.6548 15.2783 C16.8451 16.0252 15.6294 16.121 14.7127 15.5099 C14.3431 15.2635 14.0557 14.9233 13.8735 14.5325 C13.3499 14.9205 12.7017 15.15 12 15.15 C10.2603 15.15 8.85 13.7397 8.85 12 C8.85 10.2603 10.2603 8.85 12 8.85 C13.7397 8.85 15.15 10.2603 15.15 12 L15.15 13.5241 C15.15 13.8206 15.2981 14.0974 15.5448 14.2618 C15.8853 14.4888 16.3369 14.4533 16.6377 14.1758 L16.7183 14.1015 C16.8295 13.9989 16.8991 13.8944 16.9345 13.7973 C17.1384 13.2376 17.25 12.6327 17.25 12 C17.25 9.1005 14.8995 6.75 12 6.75 C9.1005 6.75 6.75 9.1005 6.75 12 Z M12 10.35 C11.0887 10.35 10.35 11.0887 10.35 12 C10.35 12.9113 11.0887 13.65 12 13.65 C12.9113 13.65 13.65 12.9113 13.65 12 C13.65 11.0887 12.9113 10.35 12 10.35 Z" fill="#FFFFFF" />
  <path fill-rule="nonzero" clip-rule="nonzero" d="M12.0574 1.25 C14.3658 1.24999 16.1748 1.24998 17.5863 1.43975 C19.031 1.63399 20.1711 2.03933 21.0659 2.93414 C21.9607 3.82895 22.366 4.96897 22.5603 6.41371 C22.75 7.82519 22.75 9.63423 22.75 11.9426 L22.75 12.0574 C22.75 14.3658 22.75 16.1748 22.5603 17.5863 C22.366 19.031 21.9607 20.1711 21.0659 21.0659 C20.1711 21.9607 19.031 22.366 17.5863 22.5603 C16.1748 22.75 14.3658 22.75 12.0574 22.75 L11.9426 22.75 C9.63423 22.75 7.82519 22.75 6.41371 22.5603 C4.96897 22.366 3.82895 21.9607 2.93414 21.0659 C2.03933 20.1711 1.63399 19.031 1.43975 17.5863 C1.24998 16.1748 1.24999 14.3658 1.25 12.0574 L1.25 11.9426 C1.24999 9.63422 1.24998 7.82519 1.43975 6.41371 C1.63399 4.96897 2.03933 3.82895 2.93414 2.93414 C3.82895 2.03933 4.96897 1.63399 6.41371 1.43975 C7.82519 1.24998 9.63424 1.24999 11.9426 1.25 L12.0574 1.25 Z M3.9948 3.9948 C3.42514 4.56445 3.09825 5.33517 2.92637 6.61358 C2.75159 7.91356 2.75 9.62177 2.75 12 C2.75 14.3782 2.75159 16.0864 2.92637 17.3864 C3.09825 18.6648 3.42514 19.4355 3.9948 20.0052 C4.56445 20.5749 5.33517 20.9018 6.61358 21.0736 C7.91356 21.2484 9.62177 21.25 12 21.25 C14.3782 21.25 16.0864 21.2484 17.3864 21.0736 C18.6648 20.9018 19.4355 20.5749 20.0052 20.0052 C20.5749 19.4355 20.9018 18.6648 21.0736 17.3864 C21.2484 16.0864 21.25 14.3782 21.25 12 C21.25 9.62177 21.2484 7.91356 21.0736 6.61358 C20.9018 5.33517 20.5749 4.56445 20.0052 3.9948 C19.4355 3.42514 18.6648 3.09825 17.3864 2.92637 C16.0864 2.75159 14.3782 2.75 12 2.75 C9.62177 2.75 7.91356 2.75159 6.61358 2.92637 C5.33517 3.09825 4.56445 3.42514 3.9948 3.9948 Z" fill="#FFFFFF" />
</svg>