<svg xmlns="http://www.w3.org/2000/svg" width="24" height="24" viewBox="0 0 24 24" fill="none">
  <path fill-rule="nonzero" clip-rule="nonzero" d="M3.46447 3.46447 C4.92893 2 7.28595 2 12 2 C16.714 2 19.0711 2 20.5355 3.46447 C22 4.92893 22 7.28595 22 12 C22 16.714 22 19.0711 20.5355 20.5355 C19.0711 22 16.714 22 12 22 C7.28595 22 4.92893 22 3.46447 20.5355 C2 19.0711 2 16.714 2 12 C2 7.28595 2 4.92893 3.46447 3.46447 Z M 12 13 C 12.5523 13 13 12.5523 13 12 C 13 11.4477 12.5523 11 12 11 C 11.4477 11 11 11.4477 11 12 C 11 12.5523 11.4477 13 12 13 Z M9 12 C9 11.4477 8.55228 11 8 11 C7.44772 11 7 11.4477 7 12 C7 12.5523 7.44772 13 8 13 C8.55228 13 9 12.5523 9 12 Z M 16 13 C 16.5523 13 17 12.5523 17 12 C 17 11.4477 16.5523 11 16 11 C 15.4477 11 15 11.4477 15 12 C 15 12.5523 15.4477 13 16 13 Z" fill="#FFFFFF" />
</svg>