<svg xmlns="http://www.w3.org/2000/svg" width="24" height="24" viewBox="0 0 24 24" fill="none">
  <path d="M9 12C9 12.5523 8.55228 13 8 13C7.44772 13 7 12.5523 7 12C7 11.4477 7.44772 11 8 11C8.55228 11 9 11.4477 9 12Z" fill="#FFFFFF" />
  <path d="M13 12C13 12.5523 12.5523 13 12 13C11.4477 13 11 12.5523 11 12C11 11.4477 11.4477 11 12 11C12.5523 11 13 11.4477 13 12Z" fill="#FFFFFF" />
  <path d="M16 13C16.5523 13 17 12.5523 17 12C17 11.4477 16.5523 11 16 11C15.4477 11 15 11.4477 15 12C15 12.5523 15.4477 13 16 13Z" fill="#FFFFFF" />
  <path fill-rule="nonzero" clip-rule="nonzero" d="M12 1.25 C17.9371 1.25 22.75 6.06294 22.75 12 C22.75 17.9371 17.9371 22.75 12 22.75 C6.06294 22.75 1.25 17.9371 1.25 12 C1.25 6.06294 6.06294 1.25 12 1.25 Z M2.75 12 C2.75 17.1086 6.89137 21.25 12 21.25 C17.1086 21.25 21.25 17.1086 21.25 12 C21.25 6.89137 17.1086 2.75 12 2.75 C6.89137 2.75 2.75 6.89137 2.75 12 Z" fill="#FFFFFF" />
</svg>