<svg xmlns="http://www.w3.org/2000/svg" width="24" height="24" viewBox="0 0 24 24" fill="none">
  <path fill-rule="nonzero" clip-rule="nonzero" d="M 2.25 12 C 2.25 10.4812 3.48122 9.25 5 9.25 C 6.51878 9.25 7.75 10.4812 7.75 12 C 7.75 13.5188 6.51878 14.75 5 14.75 C 3.48122 14.75 2.25 13.5188 2.25 12 Z M 5 10.75 C 4.30964 10.75 3.75 11.3096 3.75 12 C 3.75 12.6904 4.30964 13.25 5 13.25 C 5.69036 13.25 6.25 12.6904 6.25 12 C 6.25 11.3096 5.69036 10.75 5 10.75 Z" fill="#FFFFFF" />
  <path fill-rule="nonzero" clip-rule="nonzero" d="M 9.25 12 C 9.25 10.4812 10.4812 9.25 12 9.25 C 13.5188 9.25 14.75 10.4812 14.75 12 C 14.75 13.5188 13.5188 14.75 12 14.75 C 10.4812 14.75 9.25 13.5188 9.25 12 Z M 12 10.75 C 11.3096 10.75 10.75 11.3096 10.75 12 C 10.75 12.6904 11.3096 13.25 12 13.25 C 12.6904 13.25 13.25 12.6904 13.25 12 C 13.25 11.3096 12.6904 10.75 12 10.75 Z" fill="#FFFFFF" />
  <path fill-rule="nonzero" clip-rule="nonzero" d="M19 9.25 C20.5188 9.25 21.75 10.4812 21.75 12 C21.75 13.5188 20.5188 14.75 19 14.75 C17.4812 14.75 16.25 13.5188 16.25 12 C16.25 10.4812 17.4812 9.25 19 9.25 Z M17.75 12 C17.75 12.6904 18.3096 13.25 19 13.25 C19.6904 13.25 20.25 12.6904 20.25 12 C20.25 11.3096 19.6904 10.75 19 10.75 C18.3096 10.75 17.75 11.3096 17.75 12 Z" fill="#FFFFFF" />
</svg>