<svg xmlns="http://www.w3.org/2000/svg" width="24" height="24" viewBox="0 0 24 24" fill="none">
  <path fill-rule="nonzero" clip-rule="nonzero" d="M 22 12 C 22 17.5228 17.5228 22 12 22 C 6.47715 22 2 17.5228 2 12 C 2 6.47715 6.47715 2 12 2 C 17.5228 2 22 6.47715 22 12 Z M 8 13 C 8.55228 13 9 12.5523 9 12 C 9 11.4477 8.55228 11 8 11 C 7.44772 11 7 11.4477 7 12 C 7 12.5523 7.44772 13 8 13 Z M 12 13 C 12.5523 13 13 12.5523 13 12 C 13 11.4477 12.5523 11 12 11 C 11.4477 11 11 11.4477 11 12 C 11 12.5523 11.4477 13 12 13 Z M 16 13 C 16.5523 13 17 12.5523 17 12 C 17 11.4477 16.5523 11 16 11 C 15.4477 11 15 11.4477 15 12 C 15 12.5523 15.4477 13 16 13 Z" fill="#FFFFFF" />
</svg>