<svg xmlns="http://www.w3.org/2000/svg" width="24" height="24" viewBox="0 0 24 24" fill="none">
  <path fill-rule="nonzero" clip-rule="nonzero" d="M12 2.25 C17.3978 2.25 21.75 6.7036 21.75 12.168 C21.75 13.6274 21.4397 15.0147 20.8821 16.2641 C21.9337 16.3859 22.75 17.2794 22.75 18.3636 C22.75 20.7862 20.7862 22.75 18.3636 22.75 L5.63636 22.75 C3.21384 22.75 1.25 20.7862 1.25 18.3636 C1.25 17.2794 2.06635 16.3859 3.11791 16.2641 C2.56026 15.0147 2.25 13.6274 2.25 12.168 C2.25 6.7036 6.6022 2.25 12 2.25 Z M 19.217 16.25 C 19.8748 15.042 20.25 13.6509 20.25 12.168 C 20.25 7.50575 16.5433 3.75 12 3.75 C 7.45667 3.75 3.75 7.50575 3.75 12.168 C 3.75 13.6509 4.12517 15.042 4.78296 16.25 H 7.17157 C 7.90092 16.25 8.60039 16.5397 9.11612 17.0555 L 9.94454 17.8839 C 10.179 18.1183 10.4969 18.25 10.8284 18.25 H 13.1716 C 13.5031 18.25 13.821 18.1183 14.0555 17.8839 L 14.8839 17.0555 C 15.3996 16.5397 16.0991 16.25 16.8284 16.25 H 19.217 Z M2.75 18.3636 C2.75 19.9577 4.04227 21.25 5.63636 21.25 L18.3636 21.25 C19.9577 21.25 21.25 19.9577 21.25 18.3636 C21.25 18.0247 20.9753 17.75 20.6364 17.75 L16.8284 17.75 C16.4969 17.75 16.179 17.8817 15.9445 18.1161 L15.1161 18.9445 C14.6004 19.4603 13.9009 19.75 13.1716 19.75 L10.8284 19.75 C10.0991 19.75 9.39961 19.4603 8.88388 18.9445 L8.05546 18.1161 C7.82104 17.8817 7.50309 17.75 7.17157 17.75 L3.36364 17.75 C3.02473 17.75 2.75 18.0247 2.75 18.3636 Z" fill="#FFFFFF" />
</svg>