<svg xmlns="http://www.w3.org/2000/svg" width="24" height="24" viewBox="0 0 24 24" fill="none">
  <path opacity="0.5" d="M3.03414 8.89004C2.5536 5.68645 2.31333 4.08466 3.21098 3.04233C4.10862 2 5.72833 2 8.96776 2H15.0335C18.2729 2 19.8927 2 20.7903 3.04233C21.6879 4.08466 21.4477 5.68646 20.9671 8.89004L19.7671 16.89C19.4015 19.3276 19.2187 20.5464 18.3747 21.2732C17.5308 22 16.2984 22 13.8335 22H10.1678C7.70289 22 6.47046 22 5.62653 21.2732C4.7826 20.5464 4.59978 19.3276 4.23414 16.89L3.03414 8.89004Z" fill="#FFFFFF" />
  <path fill-rule="nonzero" clip-rule="nonzero" d="M 3.51725 12.1152 L 3.22723 10.1817 L 5.07161 8.13244 L 3.68916 6.75 H 2.72952 C 2.66003 6.18322 2.61535 5.68747 2.60645 5.25 H 21.3935 C 21.3846 5.68747 21.3399 6.18322 21.2704 6.75 H 20.3105 L 18.928 8.13244 L 20.7727 10.182 L 20.4828 12.1148 L 18.8824 13.8219 L 20.0513 14.9909 L 19.7746 16.8355 L 17.8559 14.9168 L 15.9791 16.9187 L 17.3105 18.25 H 19.556 C 19.4582 18.8397 19.3611 19.3331 19.242 19.75 H 4.75791 C 4.63884 19.3331 4.54177 18.8397 4.44393 18.25 H 6.68916 L 8.02051 16.9187 L 6.14373 14.9168 L 4.22526 16.8352 L 3.94856 14.9906 L 5.11729 13.8219 L 3.51725 12.1152 Z M6.07644 7.01596 L6.3158 6.75 L5.81048 6.75 L6.07644 7.01596 Z M7.13857 8.07809 L8.99982 9.93934 L10.9392 8 L9.68916 6.75 L8.33385 6.75 L7.13857 8.07809 Z M11.9998 6.93934 L12.1892 6.75 L11.8105 6.75 L11.9998 6.93934 Z M13.0605 8 L14.9998 9.93934 L16.8611 8.07809 L15.6658 6.75 L14.3105 6.75 L13.0605 8 Z M17.9232 7.01596 L18.1892 6.75 L17.6838 6.75 L17.9232 7.01596 Z M16.0605 11 L17.8211 12.7607 L19.4815 10.9896 L17.8659 9.19457 L16.0605 11 Z M14.9998 12.0607 L13.0605 14 L14.9179 15.8574 L16.7947 13.8555 L14.9998 12.0607 Z M11.9998 15.0607 L10.1082 16.9523 L11.3247 18.25 L12.6749 18.25 L13.8915 16.9523 L11.9998 15.0607 Z M15.1892 18.25 L14.9527 18.0135 L14.731 18.25 L15.1892 18.25 Z M9.04696 18.0135 L8.81048 18.25 L9.26865 18.25 L9.04696 18.0135 Z M10.9392 14 L8.99982 12.0607 L7.20494 13.8555 L9.08172 15.8574 L10.9392 14 Z M7.93916 11 L6.13373 9.19457 L4.51817 10.9896 L6.1785 12.7607 L7.93916 11 Z M11.9998 12.9393 L13.9392 11 L11.9998 9.06066 L10.0605 11 L11.9998 12.9393 Z" fill="#FFFFFF" />
</svg>