<svg xmlns="http://www.w3.org/2000/svg" width="24" height="24" viewBox="0 0 24 24" fill="none">
  <path fill-rule="nonzero" clip-rule="nonzero" d="M15.0924 1.25 C16.6617 1.24998 17.92 1.24996 18.8945 1.38767 C19.9023 1.53007 20.7405 1.83575 21.3581 2.55292 C21.9757 3.27008 22.1537 4.14438 22.145 5.1621 C22.1366 6.14629 21.95 7.39065 21.7172 8.94253 L20.5009 17.0509 C20.3244 18.2276 20.1815 19.1805 19.9718 19.9262 C19.7535 20.7027 19.4398 21.3453 18.8637 21.8415 C18.2875 22.3377 17.6054 22.5525 16.8052 22.6533 C16.0365 22.75 15.073 22.75 13.883 22.75 L10.1173 22.75 C8.92732 22.75 7.96377 22.75 7.19513 22.6533 C6.39485 22.5525 5.71279 22.3377 5.13662 21.8415 C4.56045 21.3453 4.24683 20.7027 4.02849 19.9262 C3.81878 19.1804 3.67587 18.2275 3.49937 17.0508 L2.28314 8.94256 C2.05033 7.39066 1.86366 6.1463 1.85528 5.1621 C1.84661 4.14438 2.02457 3.27008 2.64218 2.55292 C3.25979 1.83575 4.09802 1.53007 5.10577 1.38767 C6.08032 1.24996 7.33861 1.24998 8.90788 1.25 L15.0924 1.25 Z M3.77879 3.53175 C3.49876 3.85692 3.34803 4.30468 3.35522 5.14933 C3.35551 5.18248 3.35603 5.21603 3.35678 5.25 L7.00045 5.25 C7.00065 5.25 7.00025 5.25 7.00045 5.25 L20.5005 5.25 C20.5007 5.25 20.5003 5.25 20.5005 5.25 L20.6435 5.25 C20.6443 5.21604 20.6448 5.18248 20.6451 5.14933 C20.6523 4.30468 20.5015 3.85692 20.2215 3.53175 C19.9415 3.20658 19.521 2.9911 18.6846 2.87292 C17.8273 2.75177 16.6755 2.75 15.033 2.75 L8.96727 2.75 C7.32479 2.75 6.17295 2.75177 5.31565 2.87292 C4.47927 2.9911 4.05882 3.20658 3.77879 3.53175 Z M 5.18949 6.75 H 3.48546 C 3.53687 7.15852 3.60161 7.61096 3.67631 8.1155 L 3.75015 8.18934 L 5.18949 6.75 Z M 4.05013 10.6106 L 4.6686 14.7338 L 6.37599 12.9365 L 4.05013 10.6106 Z M 5.15659 17.9593 C 5.17275 18.0594 5.18872 18.1563 5.20463 18.25 H 5.39887 L 5.15659 17.9593 Z M6.99527 19.75 L5.54256 19.75 C5.70127 20.2287 5.88266 20.5044 6.11546 20.7049 C6.38321 20.9355 6.73934 21.0841 7.38247 21.165 C8.04651 21.2486 8.91538 21.25 10.1673 21.25 L13.833 21.25 C15.0849 21.25 15.9538 21.2486 16.6178 21.165 C17.261 21.0841 17.6171 20.9355 17.8848 20.7049 C18.1176 20.5044 18.299 20.2287 18.4577 19.75 L14.0027 19.75 C14.0009 19.75 13.9991 19.75 13.9972 19.75 L7.00584 19.75 C7.00232 19.75 6.99879 19.75 6.99527 19.75 Z M 15.7131 18.25 H 18.1895 L 16.9018 16.9623 L 15.7131 18.25 Z M 19.0007 16.9399 C 19.0087 16.8869 19.0168 16.8332 19.0249 16.7788 L 19.404 14.2515 L 17.92 15.8592 L 19.0007 16.9399 Z M 19.856 11.2381 L 20.2249 8.77879 C 20.3197 8.14673 20.4033 7.5881 20.4704 7.09045 L 18.16 9.40079 L 19.856 11.2381 Z M 18.6895 6.75 H 15.7131 L 17.1418 8.2977 L 18.6895 6.75 Z M 12.2532 6.75 H 8.81081 L 10.5761 8.51531 L 12.2532 6.75 Z M11.6895 18.25 L10.5002 17.0607 L9.31081 18.25 L11.6895 18.25 Z M7.40946 11.8486 L9.54266 9.60317 L7.00015 7.06066 L4.81081 9.25 L7.40946 11.8486 Z M8.47047 12.9097 L10.5002 14.9393 L12.6895 12.75 L10.6037 10.6642 L8.47047 12.9097 Z M11.5608 16 L13.7385 18.1777 L15.8403 15.9008 L13.7502 13.8107 L11.5608 16 Z M 14.8108 12.75 L 16.8585 14.7977 L 18.9795 12.5 L 17.0985 10.4623 L 14.8108 12.75 Z M 13.7502 11.6893 L 16.0803 9.35921 L 13.9923 7.09721 L 11.6371 9.57632 L 13.7502 11.6893 Z M7.437 13.9975 L5.50363 16.0326 L7.27782 18.1617 L9.43949 16 L7.437 13.9975 Z" fill="#FFFFFF" />
</svg>