<svg xmlns="http://www.w3.org/2000/svg" width="24" height="24" viewBox="0 0 24 24" fill="none">
  <path fill-rule="nonzero" clip-rule="nonzero" d="M 22 12 C 22 17.5228 17.5228 22 12 22 C 6.47715 22 2 17.5228 2 12 C 2 6.47715 6.47715 2 12 2 C 17.5228 2 22 6.47715 22 12 Z M14.1096 8.41878 C13.0963 7.40445 12.5896 6.89728 12.0455 7.01734 C11.5013 7.1374 11.2545 7.81078 10.7611 9.15753 L10.4271 10.069 C10.2956 10.4281 10.2298 10.6076 10.1114 10.7465 C10.0583 10.8088 9.99792 10.8644 9.9315 10.9123 C9.78346 11.0188 9.5993 11.0696 9.23097 11.1711 C8.40079 11.4 7.98568 11.5145 7.82926 11.786 C7.76164 11.9035 7.72645 12.0368 7.72731 12.1723 C7.72929 12.4858 8.03373 12.7905 8.64262 13.4 L9.08892 13.848 C9.08914 13.8478 9.08871 13.8482 9.08892 13.848 L7.46948 15.4701 C7.17683 15.7632 7.17721 16.2381 7.47034 16.5308 C7.76348 16.8234 8.23835 16.823 8.531 16.5299 L10.1497 14.9086 L10.6225 15.3818 C11.2352 15.9951 11.5416 16.3018 11.8569 16.3023 C11.9898 16.3025 12.1205 16.2679 12.2359 16.202 C12.5099 16.0457 12.6249 15.6276 12.855 14.7913 C12.9562 14.4236 13.0068 14.2397 13.1129 14.0918 C13.1594 14.027 13.2134 13.9679 13.2736 13.9157 C13.4113 13.7965 13.5896 13.7295 13.9463 13.5955 L14.8684 13.2491 C16.2003 12.7487 16.8662 12.4985 16.9836 11.9557 C17.1009 11.413 16.598 10.9095 15.592 9.90258 L14.1096 8.41878 Z" fill="#FFFFFF" />
</svg>