<svg xmlns="http://www.w3.org/2000/svg" width="24" height="24" viewBox="0 0 24 24" fill="none">
  <path fill-rule="nonzero" clip-rule="nonzero" d="M 12 2.75 C 6.89137 2.75 2.75 6.89137 2.75 12 C 2.75 17.1086 6.89137 21.25 12 21.25 C 17.1086 21.25 21.25 17.1086 21.25 12 C 21.25 6.89137 17.1086 2.75 12 2.75 Z M 1.25 12 C 1.25 6.06294 6.06294 1.25 12 1.25 C 17.9371 1.25 22.75 6.06294 22.75 12 C 22.75 17.9371 17.9371 22.75 12 22.75 C 6.06294 22.75 1.25 17.9371 1.25 12 Z" fill="#FFFFFF" />
  <path fill-rule="nonzero" clip-rule="nonzero" d="M 14.9849 7.40455 L 16.6067 9.02795 C 17.0951 9.51684 17.5202 9.94231 17.7997 10.3195 C 18.0948 10.7177 18.3445 11.215 18.2156 11.8109 C 18.0868 12.4069 17.6538 12.7565 17.2205 12.997 C 16.8101 13.2248 16.2472 13.4362 15.6006 13.6791 L 14.5887 14.0593 C 14.1652 14.2184 14.1342 14.2418 14.1165 14.2571 C 14.0982 14.2729 14.0819 14.2908 14.0678 14.3105 C 14.054 14.3297 14.0335 14.363 13.9134 14.7995 L 13.9027 14.8385 C 13.7923 15.2397 13.693 15.6007 13.5816 15.8784 C 13.4671 16.1635 13.285 16.5094 12.9184 16.7187 C 12.6848 16.852 12.4204 16.9219 12.1515 16.9215 C 11.7292 16.9208 11.3999 16.71 11.1596 16.5186 C 10.9256 16.3322 10.6611 16.0674 10.3672 15.7731 L 9.82669 15.2321 L 8.0306 17.03 C 7.73786 17.323 7.26298 17.3233 6.96994 17.0305 C 6.6769 16.7378 6.67666 16.2629 6.9694 15.9699 L 8.76657 14.1709 L 8.25181 13.6556 C 7.95974 13.3633 7.69683 13.1001 7.5116 12.8674 C 7.32137 12.6284 7.11189 12.3015 7.10925 11.8823 C 7.10752 11.6084 7.17862 11.339 7.31531 11.1017 C 7.52462 10.7382 7.86833 10.5574 8.15177 10.4437 C 8.42772 10.3329 8.7862 10.2341 9.18436 10.1243 C 9.19726 10.1208 9.2102 10.1172 9.22318 10.1136 C 9.66055 9.99305 9.6936 9.97252 9.71263 9.95883 C 9.73271 9.94437 9.75099 9.92752 9.76708 9.90865 C 9.78243 9.89064 9.80569 9.85908 9.96188 9.4328 L 10.3091 8.48509 C 10.3157 8.46716 10.3222 8.44929 10.3287 8.43148 C 10.5684 7.77732 10.7767 7.20858 11.0024 6.79378 C 11.2403 6.35657 11.5883 5.91768 12.187 5.78557 C 12.786 5.65343 13.2862 5.90534 13.6858 6.20203 C 14.0649 6.48345 14.4928 6.91187 14.9849 7.40455 Z M 12.5123 7.24995 C 12.5119 7.25001 12.5112 7.25013 12.5102 7.25034 C 12.5081 7.25081 12.5075 7.25108 12.5079 7.25094 C 12.5081 7.25082 12.5083 7.25079 12.5079 7.25094 C 12.5076 7.25107 12.5064 7.25182 12.5032 7.25416 C 12.5 7.25655 12.4947 7.26073 12.4875 7.26752 C 12.4554 7.29772 12.3989 7.36566 12.32 7.51074 C 12.1539 7.81596 11.9826 8.2776 11.7175 9.00113 L 11.3703 9.94883 C 11.3615 9.97294 11.3527 9.99717 11.3438 10.0215 C 11.2352 10.3202 11.1221 10.6312 10.9087 10.8816 C 10.8144 10.9923 10.7071 11.0912 10.589 11.1762 C 10.322 11.3684 10.0027 11.4556 9.69638 11.5393 C 9.67144 11.5461 9.64659 11.5529 9.62186 11.5597 C 9.17241 11.6836 8.89793 11.7605 8.71061 11.8357 C 8.67993 11.848 8.65547 11.8588 8.63622 11.868 C 8.64848 11.8856 8.66449 11.9072 8.68524 11.9333 C 8.81105 12.0914 9.01182 12.294 9.34144 12.6239 L 11.3998 14.6844 C 11.7315 15.0164 11.9352 15.2187 12.0941 15.3453 C 12.1193 15.3653 12.1404 15.381 12.1577 15.3931 C 12.1668 15.3739 12.1774 15.3497 12.1895 15.3196 C 12.2653 15.1309 12.3426 14.8543 12.4672 14.4015 C 12.4739 14.3769 12.4807 14.3521 12.4875 14.3272 C 12.5709 14.0213 12.6577 13.7027 12.8491 13.436 C 12.9317 13.3209 13.0275 13.2159 13.1345 13.1232 C 13.3828 12.9082 13.6922 12.7928 13.989 12.6821 C 14.0131 12.6731 14.0372 12.6641 14.0611 12.6552 L 15.0197 12.295 C 15.7354 12.0261 16.1914 11.8527 16.4926 11.6855 C 16.6356 11.6061 16.7025 11.5495 16.7322 11.5175 C 16.7452 11.5034 16.7488 11.4965 16.7489 11.4964 C 16.749 11.496 16.7493 11.495 16.7495 11.4939 C 16.7498 11.4927 16.7499 11.4919 16.75 11.4915 C 16.7499 11.4912 16.7495 11.483 16.7435 11.465 C 16.7296 11.4234 16.692 11.3441 16.5946 11.2126 C 16.3893 10.9356 16.0457 10.5889 15.5052 10.0478 L 13.9641 8.50509 C 13.4197 7.96013 13.0705 7.61339 12.7917 7.40639 C 12.6591 7.30801 12.5795 7.27019 12.5378 7.25634 C 12.5284 7.25322 12.5219 7.25165 12.518 7.25086 C 12.5147 7.2502 12.5129 7.25 12.5123 7.24995 Z" fill="#FFFFFF" />
</svg>