<svg xmlns="http://www.w3.org/2000/svg" width="24" height="24" viewBox="0 0 24 24" fill="none">
  <path fill-rule="evenodd" clip-rule="evenodd" d="M22.75 8C22.75 8.41421 22.4142 8.75 22 8.75H17C16.5858 8.75 16.25 8.41421 16.25 8C16.25 7.58579 16.5858 7.25 17 7.25L22 7.25C22.4142 7.25 22.75 7.58579 22.75 8Z" fill="#FFFFFF" />
  <path fill-rule="evenodd" clip-rule="evenodd" d="M22.75 12.5C22.75 12.9142 22.4142 13.25 22 13.25H18C17.5858 13.25 17.25 12.9142 17.25 12.5C17.25 12.0858 17.5858 11.75 18 11.75H22C22.4142 11.75 22.75 12.0858 22.75 12.5Z" fill="#FFFFFF" />
  <path fill-rule="nonzero" clip-rule="nonzero" d="M 13.7605 7.29224 L 14.1966 7.72835 C 14.932 8.46373 15.5319 9.06363 15.9422 9.58515 C 16.3622 10.1191 16.6764 10.683 16.6759 11.3489 C 16.6756 11.7215 16.5996 12.09 16.4525 12.4323 C 16.1896 13.0441 15.678 13.4378 15.081 13.7621 C 14.498 14.0788 13.7098 14.3925 12.7435 14.7771 L 12.5521 14.8532 C 11.9399 15.0969 11.7791 15.1689 11.6557 15.2667 C 11.5467 15.353 11.4528 15.457 11.378 15.5742 C 11.2934 15.707 11.2382 15.8743 11.0583 16.5082 L 11.0484 16.5428 C 10.927 16.9707 10.8212 17.3435 10.7083 17.6318 C 10.5933 17.9253 10.427 18.2543 10.1137 18.484 C 9.75352 18.7481 9.306 18.8645 8.8628 18.8093 C 8.47725 18.7613 8.17174 18.5551 7.92839 18.3548 C 7.68926 18.158 7.41531 17.884 7.10076 17.5694 L 6.04035 16.509 L 3.87701 18.6723 C 3.58412 18.9652 3.10924 18.9652 2.81635 18.6723 C 2.52346 18.3794 2.52346 17.9046 2.81635 17.6117 L 4.97969 15.4483 L 3.91948 14.3881 C 3.60488 14.0736 3.33089 13.7996 3.13408 13.5605 C 2.93379 13.3171 2.72754 13.0116 2.67955 12.626 C 2.6244 12.1829 2.74078 11.7353 3.00486 11.3752 C 3.2346 11.0618 3.56355 10.8955 3.85702 10.7806 C 4.14539 10.6676 4.51813 10.5618 4.9461 10.4404 L 4.98066 10.4306 C 5.61458 10.2507 5.78183 10.1955 5.91462 10.1108 C 6.03187 10.036 6.13582 9.94218 6.22218 9.83317 C 6.31999 9.70972 6.39195 9.54897 6.63562 8.93672 L 6.71176 8.74541 C 7.09632 7.77911 7.41003 6.99084 7.72677 6.40781 C 8.05109 5.81082 8.44472 5.29922 9.05655 5.03634 C 9.39882 4.88928 9.7674 4.81329 10.1399 4.81299 C 10.8058 4.81245 11.3697 5.12666 11.9037 5.54669 C 12.4252 5.95691 13.0251 6.55684 13.7605 7.29224 Z M8.13601 16.4833 C8.48342 16.8307 8.70564 17.0518 8.88161 17.1966 C8.99004 17.2858 9.04472 17.3145 9.06082 17.322 C9.11564 17.326 9.17027 17.3118 9.21621 17.2816 C9.22661 17.2672 9.26039 17.2155 9.3116 17.0848 C9.39472 16.8726 9.48111 16.5713 9.61525 16.0986 L9.64019 16.0106 C9.78288 15.5065 9.89518 15.1097 10.1134 14.7676 C10.2779 14.5096 10.4844 14.2809 10.7242 14.0909 C11.0423 13.8389 11.4255 13.6867 11.9124 13.4933 L12.143 13.4016 C13.1662 12.9944 13.8701 12.7129 14.365 12.444 C14.8551 12.1778 15.0098 11.9903 15.0743 11.8402 C15.1412 11.6846 15.1757 11.517 15.1759 11.3477 C15.176 11.1842 15.108 10.9509 14.7632 10.5125 C14.415 10.0699 13.8798 9.53291 13.1011 8.75415 L12.7347 8.38777 C11.9559 7.60901 11.419 7.07386 10.9763 6.72567 C10.5379 6.38083 10.3046 6.31286 10.1411 6.31299 C9.97181 6.31313 9.80427 6.34767 9.64869 6.41451 C9.4985 6.47904 9.31108 6.63376 9.04482 7.12387 C8.77597 7.61874 8.49446 8.32262 8.0872 9.34589 L7.99551 9.57641 C7.80211 10.0634 7.64991 10.4466 7.39791 10.7647 C7.20791 11.0045 6.97922 11.2109 6.72126 11.3754 C6.37913 11.5937 5.98238 11.706 5.47823 11.8487 L5.39021 11.8736 C4.91757 12.0077 4.61629 12.0941 4.40407 12.1772 C4.27332 12.2285 4.22164 12.2622 4.20723 12.2726 C4.17704 12.3186 4.16283 12.3732 4.16681 12.428 C4.17434 12.4441 4.20301 12.4988 4.29225 12.6072 C4.43708 12.7832 4.65811 13.0054 5.00552 13.3528 L6.56198 14.9093 L6.57075 14.9179 L6.57938 14.9267 L8.13601 16.4833 Z" fill="#FFFFFF" />
  <path d="M21.9999 17.75C22.4141 17.75 22.7499 17.4142 22.7499 17C22.7499 16.5858 22.4141 16.25 21.9999 16.25H12.9999C12.5857 16.25 12.2499 16.5858 12.2499 17C12.2499 17.4142 12.5857 17.75 12.9999 17.75H21.9999Z" fill="#FFFFFF" />
</svg>