<svg xmlns="http://www.w3.org/2000/svg" width="24" height="24" viewBox="0 0 24 24" fill="none">
  <path fill-rule="nonzero" clip-rule="nonzero" d="M 16.4746 4.3747 L 19.6474 7.55072 C 20.6549 8.55917 21.4713 9.37641 21.9969 10.0856 C 22.5382 10.8161 22.8881 11.5853 22.6982 12.4634 C 22.5083 13.3415 21.8718 13.8972 21.0771 14.3383 C 20.3055 14.7665 19.2245 15.1727 17.8906 15.6738 L 15.9136 16.4166 C 15.1192 16.7151 14.9028 16.8081 14.742 16.9474 C 14.6611 17.0174 14.5887 17.0967 14.5263 17.1837 C 14.4021 17.3568 14.329 17.5812 14.1037 18.4 L 14.0914 18.4449 C 13.8627 19.2762 13.6739 19.9623 13.4671 20.4774 C 13.2573 21.0003 12.974 21.4955 12.465 21.786 C 12.1114 21.9878 11.7112 22.0936 11.3041 22.093 C 10.7179 22.0921 10.227 21.8014 9.78647 21.4506 C 9.35243 21.1049 8.8497 20.6016 8.24065 19.9919 L 6.65338 18.403 L 2.5306 22.53 C 2.23786 22.823 1.76298 22.8233 1.46994 22.5305 C 1.1769 22.2378 1.17666 21.7629 1.4694 21.4699 L 5.59326 17.3418 L 4.05842 15.8054 C 3.45318 15.1996 2.9536 14.6995 2.61002 14.2678 C 2.26127 13.8297 1.97215 13.3421 1.96848 12.7599 C 1.96586 12.3451 2.07354 11.9371 2.28053 11.5777 C 2.57116 11.0731 3.06341 10.7919 3.58296 10.5834 C 4.09477 10.3779 4.77597 10.1901 5.60112 9.96265 L 5.6457 9.95036 C 6.46601 9.7242 6.69053 9.65088 6.86346 9.52638 C 6.9526 9.4622 7.0337 9.38748 7.10499 9.30383 C 7.24338 9.14144 7.33502 8.92324 7.62798 8.12367 L 8.34447 6.16811 C 8.83874 4.819 9.23907 3.72629 9.66362 2.9461 C 10.1005 2.14324 10.654 1.49811 11.5357 1.30359 C 12.4175 1.10904 13.1908 1.46156 13.9246 2.0063 C 14.6375 2.53559 15.4597 3.35863 16.4746 4.3747 Z M 13.0304 3.21067 C 12.4277 2.76322 12.1086 2.71327 11.8588 2.76836 C 11.609 2.82349 11.3402 3.0033 10.9812 3.66306 C 10.6161 4.33394 10.2525 5.32066 9.73087 6.7443 L 9.03642 8.63971 C 9.02304 8.67621 9.00987 8.71226 8.99686 8.74786 C 8.76267 9.3886 8.58179 9.88351 8.24665 10.2768 C 8.09712 10.4522 7.92696 10.609 7.73987 10.7437 C 7.3205 11.0456 6.81257 11.1852 6.15537 11.3659 C 6.11884 11.3759 6.08184 11.3861 6.04438 11.3964 C 5.16337 11.6393 4.56523 11.8054 4.1418 11.9754 C 3.71693 12.146 3.615 12.2662 3.58038 12.3263 C 3.50616 12.4552 3.46751 12.6015 3.46845 12.7504 C 3.46889 12.8201 3.49835 12.9752 3.78366 13.3337 C 4.06799 13.6909 4.50615 14.1312 5.15229 14.778 L 9.26897 18.8989 C 9.91923 19.5498 10.3618 19.9912 10.721 20.2772 C 11.0814 20.5643 11.2369 20.5929 11.3064 20.593 C 11.4519 20.5933 11.595 20.5554 11.7215 20.4832 C 11.7821 20.4486 11.9033 20.3466 12.0751 19.9187 C 12.2462 19.4923 12.4133 18.8896 12.6574 18.0021 C 12.6677 17.9648 12.6778 17.9279 12.6878 17.8914 C 12.8678 17.2352 13.0069 16.7283 13.3075 16.3093 C 13.4384 16.1268 13.5903 15.9604 13.76 15.8134 C 14.15 15.4758 14.642 15.2914 15.2786 15.0527 C 15.314 15.0395 15.3498 15.0261 15.386 15.0124 L 17.3032 14.2921 C 18.7112 13.7631 19.6865 13.3946 20.3491 13.0268 C 21.0001 12.6655 21.178 12.3967 21.2321 12.1463 C 21.2863 11.8958 21.2353 11.5773 20.7917 10.9787 C 20.3403 10.3695 19.6045 9.63013 18.541 8.5656 L 15.4588 5.48018 C 14.3876 4.40792 13.6433 3.66571 13.0304 3.21067 Z" fill="#FFFFFF" />
</svg>