<svg xmlns="http://www.w3.org/2000/svg" width="24" height="24" viewBox="0 0 24 24" fill="none">
  <path fill-rule="nonzero" clip-rule="nonzero" d="M 12 2.75 C 6.89137 2.75 2.75 6.89137 2.75 12 C 2.75 17.1086 6.89137 21.25 12 21.25 C 17.1086 21.25 21.25 17.1086 21.25 12 C 21.25 6.89137 17.1086 2.75 12 2.75 Z M 1.25 12 C 1.25 6.06294 6.06294 1.25 12 1.25 C 17.9371 1.25 22.75 6.06294 22.75 12 C 22.75 17.9371 17.9371 22.75 12 22.75 C 6.06294 22.75 1.25 17.9371 1.25 12 Z M 12 7.75 C 11.3787 7.75 10.875 8.25368 10.875 8.875 C 10.875 9.28921 10.5392 9.625 10.125 9.625 C 9.71079 9.625 9.375 9.28921 9.375 8.875 C 9.375 7.42525 10.5503 6.25 12 6.25 C 13.4497 6.25 14.625 7.42525 14.625 8.875 C 14.625 9.83834 14.1056 10.6796 13.3353 11.1354 C 13.1385 11.2518 12.9761 11.3789 12.8703 11.5036 C 12.7675 11.6246 12.75 11.7036 12.75 11.75 V 13 C 12.75 13.4142 12.4142 13.75 12 13.75 C 11.5858 13.75 11.25 13.4142 11.25 13 V 11.75 C 11.25 11.2441 11.4715 10.8336 11.7266 10.533 C 11.9786 10.236 12.2929 10.0092 12.5715 9.84439 C 12.9044 9.64739 13.125 9.28655 13.125 8.875 C 13.125 8.25368 12.6213 7.75 12 7.75 Z M12 17 C11.4477 17 11 16.5523 11 16 C11 15.4477 11.4477 15 12 15 C12.5523 15 13 15.4477 13 16 C13 16.5523 12.5523 17 12 17 Z" fill="#FFFFFF" />
</svg>