<svg xmlns="http://www.w3.org/2000/svg" width="24" height="24" viewBox="0 0 24 24" fill="none">
  <path fill-rule="nonzero" clip-rule="nonzero" d="M 22 12 C 22 17.5228 17.5228 22 12 22 C 6.47715 22 2 17.5228 2 12 C 2 6.47715 6.47715 2 12 2 C 17.5228 2 22 6.47715 22 12 Z M12 7.75 C12.6213 7.75 13.125 8.25368 13.125 8.875 C13.125 9.18004 13.0046 9.45543 12.807 9.65877 C12.7496 9.71789 12.6842 9.78321 12.6138 9.85346 C12.3804 10.0863 12.0929 10.3733 11.8642 10.6672 C11.555 11.0644 11.25 11.5948 11.25 12.25 L11.25 13 C11.25 13.4142 11.5858 13.75 12 13.75 C12.4142 13.75 12.75 13.4142 12.75 13 L12.75 12.25 C12.75 12.0768 12.8289 11.8699 13.0479 11.5885 C13.2138 11.3753 13.4029 11.1864 13.6187 10.9708 C13.7027 10.8869 13.7907 10.7989 13.883 10.704 C14.3415 10.232 14.625 9.58584 14.625 8.875 C14.625 7.42525 13.4497 6.25 12 6.25 C10.5503 6.25 9.375 7.42525 9.375 8.875 C9.375 9.28921 9.71079 9.625 10.125 9.625 C10.5392 9.625 10.875 9.28921 10.875 8.875 C10.875 8.25368 11.3787 7.75 12 7.75 Z M 12 17 C 12.5523 17 13 16.5523 13 16 C 13 15.4477 12.5523 15 12 15 C 11.4477 15 11 15.4477 11 16 C 11 16.5523 11.4477 17 12 17 Z" fill="#FFFFFF" />
</svg>