<svg xmlns="http://www.w3.org/2000/svg" width="24" height="24" viewBox="0 0 24 24" fill="none">
  <path fill-rule="nonzero" clip-rule="nonzero" d="M3.46447 20.5355 C2 19.0711 2 16.714 2 12 C2 7.28595 2 4.92893 3.46447 3.46447 C4.92893 2 7.28595 2 12 2 C16.714 2 19.0711 2 20.5355 3.46447 C22 4.92893 22 7.28595 22 12 C22 16.714 22 19.0711 20.5355 20.5355 C19.0711 22 16.714 22 12 22 C7.28595 22 4.92893 22 3.46447 20.5355 Z M 19 18.75 C 19.4142 18.75 19.75 18.4142 19.75 18 C 19.75 17.5858 19.4142 17.25 19 17.25 H 5 C 4.58579 17.25 4.25 17.5858 4.25 18 C 4.25 18.4142 4.58579 18.75 5 18.75 H 19 Z M19.75 14 C19.75 13.5858 19.4142 13.25 19 13.25 L5 13.25 C4.58579 13.25 4.25 13.5858 4.25 14 C4.25 14.4142 4.58579 14.75 5 14.75 L19 14.75 C19.4142 14.75 19.75 14.4142 19.75 14 Z M 19 10.75 C 19.4142 10.75 19.75 10.4142 19.75 10 C 19.75 9.58579 19.4142 9.25 19 9.25 H 5 C 4.58579 9.25 4.25 9.58579 4.25 10 C 4.25 10.4142 4.58579 10.75 5 10.75 H 19 Z M19.75 6 C19.75 5.58579 19.4142 5.25 19 5.25 L5 5.25 C4.58579 5.25 4.25 5.58579 4.25 6 C4.25 6.41421 4.58579 6.75 5 6.75 L19 6.75 C19.4142 6.75 19.75 6.41421 19.75 6 Z" fill="#FFFFFF" />
</svg>