<svg xmlns="http://www.w3.org/2000/svg" width="24" height="24" viewBox="0 0 24 24" fill="none">
  <path fill-rule="nonzero" clip-rule="nonzero" d="M16.379 5.35282 C16.7365 5.56215 16.8565 6.0216 16.6472 6.37903 L12.8692 12.8299 L13.9805 14.7275 C14.4609 14.0702 15.2522 13.65 16.125 13.65 C17.5456 13.65 18.75 14.7631 18.75 16.2 C18.75 17.6369 17.5456 18.75 16.125 18.75 C15.1327 18.75 14.2458 18.2069 13.8013 17.3896 L12 14.314 L10.1987 17.3896 C9.75417 18.2069 8.86733 18.75 7.875 18.75 C6.4544 18.75 5.25 17.6369 5.25 16.2 C5.25 14.7631 6.4544 13.65 7.875 13.65 C8.74784 13.65 9.53906 14.0702 10.0195 14.7275 L11.1308 12.8299 L7.35282 6.37903 C7.14349 6.0216 7.26355 5.56215 7.62097 5.35282 C7.9784 5.14349 8.43785 5.26355 8.64718 5.62097 L12 11.3458 L15.3528 5.62097 C15.5622 5.26355 16.0216 5.14349 16.379 5.35282 Z M7.875 15.15 C7.22453 15.15 6.75 15.6487 6.75 16.2 C6.75 16.7513 7.22453 17.25 7.875 17.25 C8.52547 17.25 9 16.7513 9 16.2 C9 15.6487 8.52547 15.15 7.875 15.15 Z M 16.125 15.15 C 15.4745 15.15 15 15.6487 15 16.2 C 15 16.7513 15.4745 17.25 16.125 17.25 C 16.7755 17.25 17.25 16.7513 17.25 16.2 C 17.25 15.6487 16.7755 15.15 16.125 15.15 Z" fill="#FFFFFF" />
  <path fill-rule="nonzero" clip-rule="nonzero" d="M12.0574 1.25 C14.3658 1.24999 16.1748 1.24998 17.5863 1.43975 C19.031 1.63399 20.1711 2.03933 21.0659 2.93414 C21.9607 3.82895 22.366 4.96897 22.5603 6.41371 C22.75 7.82519 22.75 9.63423 22.75 11.9426 L22.75 12.0574 C22.75 14.3658 22.75 16.1748 22.5603 17.5863 C22.366 19.031 21.9607 20.1711 21.0659 21.0659 C20.1711 21.9607 19.031 22.366 17.5863 22.5603 C16.1748 22.75 14.3658 22.75 12.0574 22.75 L11.9426 22.75 C9.63423 22.75 7.82519 22.75 6.41371 22.5603 C4.96897 22.366 3.82895 21.9607 2.93414 21.0659 C2.03933 20.1711 1.63399 19.031 1.43975 17.5863 C1.24998 16.1748 1.24999 14.3658 1.25 12.0574 L1.25 11.9426 C1.24999 9.63422 1.24998 7.82519 1.43975 6.41371 C1.63399 4.96897 2.03933 3.82895 2.93414 2.93414 C3.82895 2.03933 4.96897 1.63399 6.41371 1.43975 C7.82519 1.24998 9.63424 1.24999 11.9426 1.25 L12.0574 1.25 Z M3.9948 3.9948 C3.42514 4.56445 3.09825 5.33517 2.92637 6.61358 C2.75159 7.91356 2.75 9.62177 2.75 12 C2.75 14.3782 2.75159 16.0864 2.92637 17.3864 C3.09825 18.6648 3.42514 19.4355 3.9948 20.0052 C4.56445 20.5749 5.33517 20.9018 6.61358 21.0736 C7.91356 21.2484 9.62177 21.25 12 21.25 C14.3782 21.25 16.0864 21.2484 17.3864 21.0736 C18.6648 20.9018 19.4355 20.5749 20.0052 20.0052 C20.5749 19.4355 20.9018 18.6648 21.0736 17.3864 C21.2484 16.0864 21.25 14.3782 21.25 12 C21.25 9.62177 21.2484 7.91356 21.0736 6.61358 C20.9018 5.33517 20.5749 4.56445 20.0052 3.9948 C19.4355 3.42514 18.6648 3.09825 17.3864 2.92637 C16.0864 2.75159 14.3782 2.75 12 2.75 C9.62177 2.75 7.91356 2.75159 6.61358 2.92637 C5.33517 3.09825 4.56445 3.42514 3.9948 3.9948 Z" fill="#FFFFFF" />
</svg>