<svg xmlns="http://www.w3.org/2000/svg" width="24" height="24" viewBox="0 0 24 24" fill="none">
  <path fill-rule="nonzero" clip-rule="nonzero" d="M16.5 2.25 C18.2949 2.25 19.75 3.70507 19.75 5.5 C19.75 7.29493 18.2949 8.75 16.5 8.75 C15.4472 8.75 14.5113 8.24942 13.9174 7.4733 L9.43806 10.6089 C9.63809 11.0306 9.75 11.5022 9.75 12 C9.75 12.4978 9.63809 12.9694 9.43806 13.3911 L13.9174 16.5267 C14.5113 15.7506 15.4472 15.25 16.5 15.25 C18.2949 15.25 19.75 16.7051 19.75 18.5 C19.75 20.2949 18.2949 21.75 16.5 21.75 C14.7051 21.75 13.25 20.2949 13.25 18.5 C13.25 18.3041 13.2673 18.1122 13.3006 17.9259 L8.56991 14.6144 C8.54587 14.5976 8.52312 14.5796 8.50168 14.5606 C7.94993 14.9925 7.25503 15.25 6.5 15.25 C4.70507 15.25 3.25 13.7949 3.25 12 C3.25 10.2051 4.70507 8.75 6.5 8.75 C7.25503 8.75 7.94993 9.00747 8.50168 9.43939 C8.52312 9.42038 8.54587 9.4024 8.56991 9.38558 L13.3006 6.07412 C13.2673 5.88776 13.25 5.69591 13.25 5.5 C13.25 3.70507 14.7051 2.25 16.5 2.25 Z M14.75 5.5 C14.75 6.4665 15.5335 7.25 16.5 7.25 C17.4665 7.25 18.25 6.4665 18.25 5.5 C18.25 4.5335 17.4665 3.75 16.5 3.75 C15.5335 3.75 14.75 4.5335 14.75 5.5 Z M 6.5 10.25 C 5.5335 10.25 4.75 11.0335 4.75 12 C 4.75 12.9665 5.5335 13.75 6.5 13.75 C 7.4665 13.75 8.25 12.9665 8.25 12 C 8.25 11.0335 7.4665 10.25 6.5 10.25 Z M 16.5 16.75 C 15.5335 16.75 14.75 17.5335 14.75 18.5 C 14.75 19.4665 15.5335 20.25 16.5 20.25 C 17.4665 20.25 18.25 19.4665 18.25 18.5 C 18.25 17.5335 17.4665 16.75 16.5 16.75 Z" fill="#FFFFFF" />
</svg>