<svg xmlns="http://www.w3.org/2000/svg" width="24" height="24" viewBox="0 0 24 24" fill="none">
  <path fill-rule="nonzero" clip-rule="nonzero" d="M 7.84725 1.25 C 7.86195 1.25 7.87671 1.25001 7.8915 1.25001 L 16.1523 1.25 C 16.5984 1.24996 17.0036 1.24991 17.3324 1.29296 C 17.6917 1.33999 18.0709 1.45011 18.3846 1.75553 C 18.7011 2.06368 18.818 2.44094 18.8676 2.80014 C 18.9123 3.1243 18.9123 3.52236 18.9122 3.95444 L 18.9122 5.38934 L 22.6372 17.7362 C 22.9332 18.7175 22.6511 19.8725 21.6512 20.4724 C 20.1185 21.392 17.0033 22.75 11.9998 22.75 C 6.99629 22.75 3.88107 21.392 2.34844 20.4724 C 1.34849 19.8725 1.06638 18.7175 1.36243 17.7362 L 5.08735 5.38934 V 4.00001 C 5.08735 3.98478 5.08735 3.96958 5.08735 3.95444 C 5.0873 3.52236 5.08725 3.1243 5.13201 2.80014 C 5.18161 2.44094 5.29849 2.06368 5.61498 1.75553 C 5.92867 1.45011 6.30791 1.33999 6.66718 1.29296 C 6.99603 1.24991 7.40119 1.24996 7.84725 1.25 Z M 6.39448 6.25001 L 2.7985 18.1695 C 2.66267 18.6197 2.81554 19.0034 3.12016 19.1862 C 3.90957 19.6598 5.25522 20.3103 7.22865 20.7535 L 9.03424 6.25001 H 6.39448 Z M 10.5458 6.25001 L 8.70654 21.0241 C 9.68304 21.1645 10.7789 21.25 11.9998 21.25 C 13.2207 21.25 14.3166 21.1645 15.2931 21.0241 L 13.4538 6.25001 H 10.5458 Z M 14.9654 6.25001 L 16.7709 20.7535 C 18.7444 20.3103 20.09 19.6598 20.8794 19.1862 C 21.1841 19.0034 21.3369 18.6197 21.2011 18.1695 L 17.6051 6.25001 H 14.9654 Z M 17.4122 4.75001 V 4.00001 C 17.4122 3.50684 17.4106 3.21443 17.3817 3.00533 C 17.3685 2.90991 17.3531 2.86299 17.3445 2.84254 C 17.3425 2.8378 17.3409 2.83473 17.34 2.833 L 17.3387 2.83074 C 17.3386 2.83062 17.3389 2.83094 17.3387 2.83074 C 17.3377 2.82976 17.3369 2.82902 17.3359 2.82843 C 17.3348 2.8277 17.3296 2.82451 17.3178 2.81979 C 17.292 2.80944 17.2391 2.79354 17.1377 2.78027 C 16.9181 2.75152 16.6129 2.75001 16.1081 2.75001 H 7.8915 C 7.38668 2.75001 7.08154 2.75152 6.86187 2.78027 C 6.76052 2.79354 6.70759 2.80944 6.68176 2.81979 C 6.66998 2.82451 6.66482 2.8277 6.66366 2.82843 C 6.66274 2.82902 6.66239 2.82928 6.66138 2.83026 C 6.66118 2.83046 6.6615 2.83014 6.66138 2.83026 L 6.65959 2.833 C 6.65866 2.83473 6.65712 2.8378 6.65512 2.84254 C 6.64648 2.86299 6.63108 2.90991 6.61791 3.00533 C 6.58903 3.21443 6.58735 3.50684 6.58735 4.00001 V 4.75001 H 17.4122 Z" fill="#FFFFFF" />
</svg>