<svg xmlns="http://www.w3.org/2000/svg" width="24" height="24" viewBox="0 0 24 24" fill="none">
  <path fill-rule="nonzero" clip-rule="nonzero" d="M 10.1554 3.24721 C 9.63603 3.64348 9.02607 4.2512 8.14314 5.13412 C 7.26022 6.01704 6.65251 6.62701 6.25624 7.14638 C 5.87318 7.64845 5.75903 7.97676 5.75903 8.2861 C 5.75903 8.59544 5.87318 8.92375 6.25624 9.42582 C 6.65251 9.94519 7.26022 10.5552 8.14314 11.4381 L 12.5619 15.8569 C 13.4448 16.7398 14.0548 17.3475 14.5742 17.7438 C 15.0762 18.1268 15.4046 18.241 15.7139 18.241 C 16.0232 18.241 16.3516 18.1268 16.8536 17.7438 C 17.373 17.3475 17.983 16.7398 18.8659 15.8569 C 19.7488 14.9739 20.3565 14.364 20.7528 13.8446 C 21.1358 13.3425 21.25 13.0142 21.25 12.7049 C 21.25 12.3955 21.1358 12.0672 20.7528 11.5652 C 20.3565 11.0458 19.7488 10.4358 18.8659 9.55289 L 14.4471 5.13412 C 13.5642 4.2512 12.9542 3.64348 12.4348 3.24721 C 11.9328 2.86415 11.6045 2.75 11.2951 2.75 C 10.9858 2.75 10.6575 2.86415 10.1554 3.24721 Z M 9.24553 2.05468 C 9.88103 1.56981 10.5259 1.25 11.2951 1.25 C 12.0643 1.25 12.7092 1.56982 13.3447 2.05468 C 13.9537 2.51929 14.6342 3.19981 15.4696 4.0353 L 15.7139 4.27955 C 15.9527 4.04176 16.1652 3.84094 16.3989 3.70599 C 17.1143 3.29295 17.9958 3.29295 18.7112 3.70599 C 18.9775 3.85972 19.2162 4.09895 19.4976 4.38093 C 19.5176 4.40097 19.5379 4.42123 19.5583 4.44169 C 19.5788 4.46214 19.599 4.48235 19.6191 4.50235 C 19.901 4.78378 20.1403 5.02254 20.294 5.28881 C 20.7071 6.00423 20.7071 6.88566 20.294 7.60108 C 20.1591 7.83481 19.9582 8.04734 19.7204 8.28614 L 19.9647 8.53041 C 20.8002 9.36586 21.4807 10.0463 21.9453 10.6553 C 22.4302 11.2908 22.75 11.9357 22.75 12.7049 C 22.75 13.4741 22.4302 14.119 21.9453 14.7545 C 21.4807 15.3634 20.8002 16.0439 19.9647 16.8793 L 19.8884 16.9557 C 19.0529 17.7912 18.3724 18.4717 17.7635 18.9363 C 17.128 19.4212 16.4831 19.741 15.7139 19.741 C 14.9447 19.741 14.2998 19.4212 13.6643 18.9363 C 13.0554 18.4717 12.3749 17.7912 11.5394 16.9557 L 11.2951 16.7114 L 6.30199 21.7045 C 6.28153 21.725 6.26131 21.7452 6.24131 21.7653 C 5.95989 22.0473 5.72113 22.2865 5.45487 22.4402 C 4.73945 22.8533 3.85802 22.8533 3.1426 22.4402 C 2.87633 22.2865 2.63757 22.0473 2.35614 21.7653 C 2.33615 21.7452 2.31593 21.725 2.29548 21.7045 C 2.27502 21.6841 2.25477 21.6638 2.23472 21.6438 C 1.95274 21.3624 1.71351 21.1237 1.55979 20.8574 C 1.14674 20.142 1.14674 19.2605 1.55979 18.5451 C 1.71351 18.2789 1.95274 18.0401 2.23471 17.7587 C 2.25476 17.7387 2.27502 17.7185 2.29548 17.698 L 7.28862 12.7049 L 7.04431 12.4606 C 6.20883 11.6251 5.52831 10.9446 5.06371 10.3357 C 4.57884 9.7002 4.25903 9.05528 4.25903 8.2861 C 4.25903 7.51692 4.57884 6.872 5.06371 6.23651 C 5.52832 5.62756 6.20884 4.94707 7.04433 4.11161 L 7.12065 4.03529 C 7.9561 3.1998 8.63659 2.51929 9.24553 2.05468 Z M 8.34928 13.7655 L 3.35614 18.7587 C 2.97955 19.1353 2.89985 19.2241 2.85882 19.2951 C 2.71373 19.5464 2.71373 19.8561 2.85882 20.1074 C 2.89985 20.1785 2.97955 20.2673 3.35614 20.6439 C 3.73273 21.0204 3.82154 21.1002 3.8926 21.1412 C 4.14392 21.2863 4.45355 21.2863 4.70487 21.1412 C 4.77593 21.1002 4.86474 21.0204 5.24133 20.6439 L 10.2345 15.6507 L 8.34928 13.7655 Z M 18.6594 7.22505 C 18.8992 6.98245 18.9606 6.91054 18.995 6.85108 C 19.1401 6.59976 19.1401 6.29012 18.995 6.03881 C 18.9539 5.96775 18.8742 5.87894 18.4977 5.50235 C 18.1211 5.12576 18.0322 5.04606 17.9612 5.00503 C 17.7099 4.85993 17.4002 4.85993 17.1489 5.00503 C 17.0895 5.03936 17.0176 5.10079 16.775 5.34064 L 18.6594 7.22505 Z" fill="#FFFFFF" />
</svg>