<svg xmlns="http://www.w3.org/2000/svg" width="24" height="24" viewBox="0 0 24 24" fill="none">
  <path fill-rule="nonzero" clip-rule="nonzero" d="M2.75 6 L2.75 15.25 L11.25 15.25 L11.2499 11.2315 C11.2493 10.5577 11.2489 10.0358 11.4043 9.59173 C11.6807 8.8018 12.3018 8.18073 13.0917 7.90432 C13.5358 7.74892 14.0576 7.74936 14.7315 7.74993 L15.0306 7.74998 C16.8592 7.74967 17.9755 7.74949 18.8991 8.07267 C20.5508 8.65062 21.8494 9.94923 22.4273 11.6009 C22.7505 12.5245 22.7503 13.6408 22.75 15.4694 L22.75 15.9952 L22.75 16 L22.75 16.0048 L22.75 18 C22.75 18.4142 22.4142 18.75 22 18.75 C21.5858 18.75 21.25 18.4142 21.25 18 L21.25 16.75 L12 16.75 L2.75 16.75 L2.75 18 C2.75 18.4142 2.41421 18.75 2 18.75 C1.58579 18.75 1.25 18.4142 1.25 18 L1.25 6 C1.25 5.58579 1.58579 5.25 2 5.25 C2.41421 5.25 2.75 5.58579 2.75 6 Z M21.2498 15.25 C21.2476 13.4751 21.2243 12.7045 21.0115 12.0963 C20.5843 10.8755 19.6245 9.91567 18.4037 9.4885 C17.7524 9.26061 16.9148 9.25 14.8571 9.25 C13.9964 9.25 13.7573 9.26061 13.5871 9.32015 C13.2281 9.44579 12.9458 9.72809 12.8201 10.0872 C12.7606 10.2573 12.75 10.4964 12.75 11.3571 L12.75 15.25 L21.2498 15.25 Z" fill="#FFFFFF" />
  <path fill-rule="nonzero" clip-rule="nonzero" d="M7 7.75 C8.79493 7.75 10.25 9.20507 10.25 11 C10.25 12.7949 8.79493 14.25 7 14.25 C5.20507 14.25 3.75 12.7949 3.75 11 C3.75 9.20507 5.20507 7.75 7 7.75 Z M5.25 11 C5.25 11.9665 6.0335 12.75 7 12.75 C7.9665 12.75 8.75 11.9665 8.75 11 C8.75 10.0335 7.9665 9.25 7 9.25 C6.0335 9.25 5.25 10.0335 5.25 11 Z" fill="#FFFFFF" />
</svg>