<svg xmlns="http://www.w3.org/2000/svg" width="24" height="24" viewBox="0 0 24 24" fill="none">
  <path d="M3.75 3C3.75 2.58579 4.08579 2.25 4.5 2.25H19.5C19.9142 2.25 20.25 2.58579 20.25 3C20.25 3.41421 19.9142 3.75 19.5 3.75L4.5 3.75C4.08579 3.75 3.75 3.41421 3.75 3Z" fill="#FFFFFF" />
  <path fill-rule="nonzero" clip-rule="nonzero" d="M 19.3918 5.36652 C 20.2919 5.48754 21.0497 5.74643 21.6517 6.34835 C 22.2536 6.95027 22.5125 7.70814 22.6335 8.60825 C 22.75 9.47522 22.75 10.5775 22.75 11.9451 V 12.0549 C 22.75 13.4225 22.75 14.5248 22.6335 15.3918 C 22.5125 16.2919 22.2536 17.0497 21.6517 17.6516 C 21.0497 18.2536 20.2919 18.5125 19.3918 18.6335 C 18.5248 18.75 17.4225 18.75 16.0549 18.75 H 7.94513 C 6.57754 18.75 5.47522 18.75 4.60825 18.6335 C 3.70814 18.5125 2.95027 18.2536 2.34835 17.6516 C 1.74643 17.0497 1.48754 16.2919 1.36652 15.3918 C 1.24996 14.5248 1.24998 13.4225 1.25 12.0549 V 11.9451 C 1.24998 10.5775 1.24996 9.47521 1.36652 8.60825 C 1.48754 7.70814 1.74643 6.95027 2.34835 6.34835 C 2.95027 5.74643 3.70814 5.48754 4.60825 5.36652 C 5.47522 5.24996 6.57753 5.24998 7.94512 5.25 L 16.0549 5.25 C 17.4225 5.24998 18.5248 5.24996 19.3918 5.36652 Z M 19.1919 6.85315 C 18.4365 6.75159 17.4354 6.75 16 6.75 H 8 C 6.56459 6.75 5.56347 6.75159 4.80812 6.85315 C 4.07435 6.9518 3.68577 7.13225 3.40901 7.40901 C 3.13225 7.68577 2.9518 8.07435 2.85315 8.80812 C 2.75159 9.56347 2.75 10.5646 2.75 12 C 2.75 13.4354 2.75159 14.4365 2.85315 15.1919 C 2.9518 15.9257 3.13225 16.3142 3.40901 16.591 C 3.68577 16.8678 4.07435 17.0482 4.80812 17.1469 C 5.56347 17.2484 6.56459 17.25 8 17.25 H 16 C 17.4354 17.25 18.4365 17.2484 19.1919 17.1469 C 19.9257 17.0482 20.3142 16.8678 20.591 16.591 C 20.8678 16.3142 21.0482 15.9257 21.1469 15.1919 C 21.2484 14.4365 21.25 13.4354 21.25 12 C 21.25 10.5646 21.2484 9.56347 21.1469 8.80812 C 21.0482 8.07434 20.8678 7.68577 20.591 7.40901 C 20.3142 7.13225 19.9257 6.9518 19.1919 6.85315 Z" fill="#FFFFFF" />
  <path d="M4.5 21.75C4.08579 21.75 3.75 21.4142 3.75 21C3.75 20.5858 4.08579 20.25 4.5 20.25H19.5C19.9142 20.25 20.25 20.5858 20.25 21C20.25 21.4142 19.9142 21.75 19.5 21.75H4.5Z" fill="#FFFFFF" />
</svg>