<svg xmlns="http://www.w3.org/2000/svg" width="24" height="24" viewBox="0 0 24 24" fill="none">
  <path fill-rule="nonzero" clip-rule="nonzero" d="M3.78655 4.29693 C3.8244 3.83367 3.90514 3.41527 4.10423 3.02453 C4.41582 2.41301 4.913 1.91582 5.52453 1.60423 C5.91527 1.40514 6.33367 1.3244 6.79693 1.28655 C7.24449 1.24999 7.79521 1.24999 8.46858 1.25 L15.5314 1.25 C16.2048 1.24999 16.7555 1.24998 17.2031 1.28655 C17.6663 1.3244 18.0847 1.40514 18.4755 1.60423 C19.087 1.91582 19.5842 2.413 19.8958 3.02453 C20.0949 3.41527 20.1756 3.83367 20.2134 4.29693 C20.242 4.64627 20.2482 5.05846 20.2496 5.54277 C20.7831 5.70001 21.2518 5.94849 21.6517 6.34835 C22.2536 6.95027 22.5125 7.70814 22.6335 8.60825 C22.75 9.47522 22.75 10.5775 22.75 11.9451 L22.75 12.0549 C22.75 13.4225 22.75 14.5248 22.6335 15.3917 C22.5125 16.2919 22.2536 17.0497 21.6517 17.6516 C21.2518 18.0515 20.7831 18.3 20.2496 18.4572 C20.2483 18.9415 20.242 19.3537 20.2134 19.7031 C20.1756 20.1663 20.0949 20.5847 19.8958 20.9755 C19.5842 21.587 19.087 22.0842 18.4755 22.3958 C18.0847 22.5949 17.6663 22.6756 17.2031 22.7134 C16.7555 22.75 16.2048 22.75 15.5314 22.75 L8.46859 22.75 C7.79521 22.75 7.2445 22.75 6.79693 22.7134 C6.33367 22.6756 5.91527 22.5949 5.52453 22.3958 C4.91301 22.0842 4.41582 21.587 4.10423 20.9755 C3.90514 20.5847 3.8244 20.1663 3.78655 19.7031 C3.75801 19.3537 3.75175 18.9415 3.75038 18.4572 C3.2169 18.3 2.74821 18.0515 2.34835 17.6516 C1.74643 17.0497 1.48754 16.2919 1.36652 15.3918 C1.24996 14.5248 1.24998 13.4225 1.25 12.0549 L1.25 11.9451 C1.24998 10.5775 1.24996 9.47521 1.36652 8.60825 C1.48754 7.70814 1.74643 6.95027 2.34835 6.34835 C2.74821 5.94849 3.21689 5.70001 3.75038 5.54277 C3.75175 5.05846 3.75801 4.64627 3.78655 4.29693 Z M 17.0809 2.78157 C 16.7017 2.75058 16.2124 2.75 15.5 2.75 L 8.5 2.75 C 7.78756 2.75 7.29833 2.75058 6.91908 2.78157 C 6.54858 2.81184 6.34956 2.86735 6.20552 2.94074 C 5.87623 3.10852 5.60852 3.37623 5.44074 3.70552 C 5.36735 3.84956 5.31184 4.04858 5.28157 4.41908 C 5.26191 4.6597 5.25449 4.94458 5.25169 5.30265 C 6.00228 5.24997 6.89559 5.24998 7.94512 5.25 L 16.0549 5.25 C 17.1044 5.24998 17.9977 5.24997 18.7483 5.30265 C 18.7455 4.94458 18.7381 4.6597 18.7184 4.41908 C 18.6882 4.04858 18.6327 3.84956 18.5593 3.70552 C 18.3915 3.37623 18.1238 3.10852 17.7945 2.94074 C 17.6504 2.86735 17.4514 2.81184 17.0809 2.78157 Z M 18.7483 18.6973 C 17.9977 18.75 17.1044 18.75 16.0549 18.75 H 7.94513 C 6.89559 18.75 6.00229 18.75 5.25169 18.6973 C 5.25449 19.0554 5.26191 19.3403 5.28157 19.5809 C 5.31184 19.9514 5.36735 20.1504 5.44074 20.2945 C 5.60852 20.6238 5.87623 20.8915 6.20552 21.0593 C 6.34956 21.1327 6.54858 21.1882 6.91908 21.2184 C 7.29833 21.2494 7.78756 21.25 8.5 21.25 H 15.5 C 16.2124 21.25 16.7017 21.2494 17.0809 21.2184 C 17.4514 21.1882 17.6504 21.1327 17.7945 21.0593 C 18.1238 20.8915 18.3915 20.6238 18.5593 20.2945 C 18.6327 20.1504 18.6882 19.9514 18.7184 19.5809 C 18.7381 19.3403 18.7455 19.0554 18.7483 18.6973 Z M 19.1919 6.85315 C 18.4365 6.75159 17.4354 6.75 16 6.75 L 8 6.75 C 6.56459 6.75 5.56347 6.75159 4.80812 6.85315 C 4.07435 6.9518 3.68577 7.13225 3.40901 7.40901 C 3.13225 7.68577 2.9518 8.07435 2.85315 8.80812 C 2.75159 9.56347 2.75 10.5646 2.75 12 C 2.75 13.4354 2.75159 14.4365 2.85315 15.1919 C 2.9518 15.9257 3.13225 16.3142 3.40901 16.591 C 3.68577 16.8678 4.07435 17.0482 4.80812 17.1469 C 5.56347 17.2484 6.56459 17.25 8 17.25 H 16 C 17.4354 17.25 18.4365 17.2484 19.1919 17.1469 C 19.9257 17.0482 20.3142 16.8678 20.591 16.591 C 20.8678 16.3142 21.0482 15.9257 21.1469 15.1919 C 21.2484 14.4365 21.25 13.4354 21.25 12 C 21.25 10.5646 21.2484 9.56347 21.1469 8.80812 C 21.0482 8.07434 20.8678 7.68577 20.591 7.40901 C 20.3142 7.13225 19.9257 6.9518 19.1919 6.85315 Z" fill="#FFFFFF" />
</svg>