<svg xmlns="http://www.w3.org/2000/svg" width="24" height="24" viewBox="0 0 24 24" fill="none">
  <path opacity="0.5" d="M14 22H10C6.22876 22 4.34315 22 3.17157 20.7881C2 19.5763 2 17.6258 2 13.725V12.2039C2 9.91549 2 8.77128 2.5192 7.82274C3.0384 6.87421 3.98695 6.28551 5.88403 5.10813L7.88403 3.86687C9.88939 2.62229 10.8921 2 12 2C13.1079 2 14.1106 2.62229 16.116 3.86687L18.116 5.10812C20.0131 6.28551 20.9616 6.87421 21.4808 7.82274C22 8.77128 22 9.91549 22 12.2039V13.725C22 17.6258 22 19.5763 20.8284 20.7881C19.6569 22 17.7712 22 14 22Z" fill="#FFFFFF" />
  <path fill-rule="nonzero" clip-rule="nonzero" d="M 2 12.25 C 2 11.8358 2.33605 11.5 2.75059 11.5 C 8.13961 11.5 12.5083 15.8652 12.5083 21.25 C 12.5083 21.6642 12.1722 22 11.7577 22 C 11.3431 22 11.0071 21.6642 11.0071 21.25 C 11.0071 16.6937 7.31053 13 2.75059 13 C 2.33605 13 2 12.6642 2 12.25 Z M2.75059 14.5 C6.48145 14.5 9.5059 17.5221 9.5059 21.25 C9.5059 21.6642 9.16985 22 8.75531 22 C8.34077 22 8.00472 21.6642 8.00472 21.25 C8.00472 18.3505 5.65237 16 2.75059 16 C2.33605 16 2 15.6642 2 15.25 C2 14.8358 2.33605 14.5 2.75059 14.5 Z M 2 18.25 C 2 17.8358 2.33605 17.5 2.75059 17.5 C 4.82329 17.5 6.50354 19.1789 6.50354 21.25 C 6.50354 21.6642 6.16749 22 5.75295 22 C 5.33841 22 5.00236 21.6642 5.00236 21.25 C 5.00236 20.0074 3.99421 19 2.75059 19 C 2.33605 19 2 18.6642 2 18.25 Z" fill="#FFFFFF" />
</svg>