<svg xmlns="http://www.w3.org/2000/svg" width="24" height="24" viewBox="0 0 24 24" fill="none">
  <path fill-rule="nonzero" clip-rule="nonzero" d="M3.46447 3.46447 C4.92893 2 7.28595 2 12 2 C16.714 2 19.0711 2 20.5355 3.46447 C22 4.92893 22 7.28595 22 12 C22 16.714 22 19.0711 20.5355 20.5355 C19.0711 22 16.714 22 12 22 C7.28595 22 4.92893 22 3.46447 20.5355 C2 19.0711 2 16.714 2 12 C2 7.28595 2 4.92893 3.46447 3.46447 Z M6.75 11.25 L6.75 8.75 L10 8.75 C10.4142 8.75 10.75 8.41421 10.75 8 C10.75 7.58579 10.4142 7.25 10 7.25 L6 7.25 C5.58579 7.25 5.25 7.58579 5.25 8 L5.25 12 L5.25 16 C5.25 16.4142 5.58579 16.75 6 16.75 C6.41421 16.75 6.75 16.4142 6.75 16 L6.75 12.75 L10 12.75 C10.4142 12.75 10.75 12.4142 10.75 12 C10.75 11.5858 10.4142 11.25 10 11.25 L6.75 11.25 Z M11.55 7.4 C11.2186 7.64853 11.1515 8.11863 11.4 8.45 L14.0625 12 L11.4 15.55 C11.1515 15.8814 11.2186 16.3515 11.55 16.6 C11.8814 16.8485 12.3515 16.7814 12.6 16.45 L15 13.25 L17.4 16.45 C17.6485 16.7814 18.1186 16.8485 18.45 16.6 C18.7814 16.3515 18.8485 15.8814 18.6 15.55 L15.9375 12 L18.6 8.45 C18.8485 8.11863 18.7814 7.64853 18.45 7.4 C18.1186 7.15147 17.6485 7.21863 17.4 7.55 L15 10.75 L12.6 7.55 C12.3515 7.21863 11.8814 7.15147 11.55 7.4 Z" fill="#FFFFFF" />
</svg>