<svg xmlns="http://www.w3.org/2000/svg" width="24" height="24" viewBox="0 0 24 24" fill="none">
  <path fill-rule="nonzero" clip-rule="nonzero" d="M 2 12 C 2 8.22876 2 6.34315 3.17157 5.17157 C 4.34315 4 6.22876 4 10 4 H 14 C 17.7712 4 19.6569 4 20.8284 5.17157 C 22 6.34315 22 8.22876 22 12 C 22 15.7712 22 17.6569 20.8284 18.8284 C 19.6569 20 17.7712 20 14 20 H 10 C 6.22876 20 4.34315 20 3.17157 18.8284 C 2 17.6569 2 15.7712 2 12 Z M 6 15.25 C 5.58579 15.25 5.25 15.5858 5.25 16 C 5.25 16.4142 5.58579 16.75 6 16.75 H 10 C 10.4142 16.75 10.75 16.4142 10.75 16 C 10.75 15.5858 10.4142 15.25 10 15.25 H 6 Z M 7.75 13 C 7.75 12.5858 7.41421 12.25 7 12.25 H 6 C 5.58579 12.25 5.25 12.5858 5.25 13 C 5.25 13.4142 5.58579 13.75 6 13.75 H 7 C 7.41421 13.75 7.75 13.4142 7.75 13 Z M11.5 12.25 L9.5 12.25 C9.08579 12.25 8.75 12.5858 8.75 13 C8.75 13.4142 9.08579 13.75 9.5 13.75 L11.5 13.75 C11.9142 13.75 12.25 13.4142 12.25 13 C12.25 12.5858 11.9142 12.25 11.5 12.25 Z M 18.75 13 C 18.75 12.5858 18.4142 12.25 18 12.25 H 14 C 13.5858 12.25 13.25 12.5858 13.25 13 C 13.25 13.4142 13.5858 13.75 14 13.75 H 18 C 18.4142 13.75 18.75 13.4142 18.75 13 Z M 12.5 15.25 C 12.0858 15.25 11.75 15.5858 11.75 16 C 11.75 16.4142 12.0858 16.75 12.5 16.75 H 14 C 14.4142 16.75 14.75 16.4142 14.75 16 C 14.75 15.5858 14.4142 15.25 14 15.25 H 12.5 Z M15.75 16 C15.75 16.4142 16.0858 16.75 16.5 16.75 L18 16.75 C18.4142 16.75 18.75 16.4142 18.75 16 C18.75 15.5858 18.4142 15.25 18 15.25 L16.5 15.25 C16.0858 15.25 15.75 15.5858 15.75 16 Z" fill="#FFFFFF" />
</svg>