<svg xmlns="http://www.w3.org/2000/svg" width="24" height="24" viewBox="0 0 24 24" fill="none">
  <path fill-rule="nonzero" clip-rule="nonzero" d="M11.2479 2 L11.2479 4.98056 C11.2479 5.39592 11.5846 5.73264 12 5.73264 C12.4154 5.73264 12.7521 5.39592 12.7521 4.98056 L12.7521 2 C17.6907 2.36618 21.6338 6.30929 22 11.2479 L19.0194 11.2479 C18.6041 11.2479 18.2674 11.5846 18.2674 12 C18.2674 12.4154 18.6041 12.7521 19.0194 12.7521 L22 12.7521 C21.6338 17.6907 17.6907 21.6338 12.7521 22 L12.7521 19.0194 C12.7521 18.6041 12.4154 18.2674 12 18.2674 C11.5846 18.2674 11.2479 18.6041 11.2479 19.0194 L11.2479 22 C6.30929 21.6338 2.36618 17.6907 2 12.7521 L4.98056 12.7521 C5.39592 12.7521 5.73264 12.4154 5.73264 12 C5.73264 11.5846 5.39592 11.2479 4.98056 11.2479 L2 11.2479 C2.36618 6.30929 6.30929 2.36618 11.2479 2 Z M9.24236 12 C9.24236 12.4154 9.57908 12.7521 9.99444 12.7521 L11.2479 12.7521 L11.2479 14.0056 C11.2479 14.4209 11.5846 14.7576 12 14.7576 C12.4154 14.7576 12.7521 14.4209 12.7521 14.0056 L12.7521 12.7521 L14.0056 12.7521 C14.4209 12.7521 14.7576 12.4154 14.7576 12 C14.7576 11.5846 14.4209 11.2479 14.0056 11.2479 L12.7521 11.2479 L12.7521 9.99444 C12.7521 9.57908 12.4154 9.24236 12 9.24236 C11.5846 9.24236 11.2479 9.57908 11.2479 9.99444 L11.2479 11.2479 L9.99444 11.2479 C9.57908 11.2479 9.24236 11.5846 9.24236 12 Z" fill="#FFFFFF" />
</svg>