<svg xmlns="http://www.w3.org/2000/svg" width="24" height="24" viewBox="0 0 24 24" fill="none">
  <path d="M9.25 12C9.25 11.5858 9.58579 11.25 10 11.25H11.25V10C11.25 9.58579 11.5858 9.25 12 9.25C12.4142 9.25 12.75 9.58579 12.75 10V11.25H14C14.4142 11.25 14.75 11.5858 14.75 12C14.75 12.4142 14.4142 12.75 14 12.75H12.75V14C12.75 14.4142 12.4142 14.75 12 14.75C11.5858 14.75 11.25 14.4142 11.25 14V12.75H10C9.58579 12.75 9.25 12.4142 9.25 12Z" fill="#FFFFFF" />
  <path fill-rule="nonzero" clip-rule="nonzero" d="M12 1.25 C17.9371 1.25 22.75 6.06294 22.75 12 C22.75 17.9371 17.9371 22.75 12 22.75 C6.06294 22.75 1.25 17.9371 1.25 12 C1.25 6.06294 6.06294 1.25 12 1.25 Z M 11.25 2.77997 C 6.7395 3.14188 3.14188 6.7395 2.77997 11.25 H 5 C 5.41421 11.25 5.75 11.5858 5.75 12 C 5.75 12.4142 5.41421 12.75 5 12.75 H 2.77997 C 3.14188 17.2605 6.7395 20.8581 11.25 21.22 V 19 C 11.25 18.5858 11.5858 18.25 12 18.25 C 12.4142 18.25 12.75 18.5858 12.75 19 V 21.22 C 17.2605 20.8581 20.8581 17.2605 21.22 12.75 H 19 C 18.5858 12.75 18.25 12.4142 18.25 12 C 18.25 11.5858 18.5858 11.25 19 11.25 H 21.22 C 20.8581 6.7395 17.2605 3.14188 12.75 2.77997 V 5 C 12.75 5.41421 12.4142 5.75 12 5.75 C 11.5858 5.75 11.25 5.41421 11.25 5 V 2.77997 Z" fill="#FFFFFF" />
</svg>