<svg xmlns="http://www.w3.org/2000/svg" width="24" height="24" viewBox="0 0 24 24" fill="none">
  <path fill-rule="nonzero" clip-rule="nonzero" d="M 12 22 C 7.28595 22 4.92893 22 3.46447 20.5355 C 2 19.0711 2 16.714 2 12 C 2 7.28595 2 4.92893 3.46447 3.46447 C 4.92893 2 7.28595 2 12 2 C 16.714 2 19.0711 2 20.5355 3.46447 C 22 4.92893 22 7.28595 22 12 C 22 16.714 22 19.0711 20.5355 20.5355 C 19.0711 22 16.714 22 12 22 Z M 10.6831 18.6203 C 11.9925 18.8808 13.3497 18.7471 14.5831 18.2362 C 15.8165 17.7253 16.8707 16.8601 17.6124 15.7501 C 18.3541 14.6401 18.75 13.335 18.75 12 C 18.75 11.5858 18.4142 11.25 18 11.25 C 17.5858 11.25 17.25 11.5858 17.25 12 C 17.25 13.0384 16.9421 14.0534 16.3652 14.9167 C 15.7883 15.7801 14.9684 16.453 14.0091 16.8504 C 13.0498 17.2477 11.9942 17.3517 10.9758 17.1491 C 9.95738 16.9466 9.02192 16.4465 8.28769 15.7123 C 7.55346 14.9781 7.05345 14.0426 6.85088 13.0242 C 6.64831 12.0058 6.75227 10.9502 7.14963 9.99091 C 7.54699 9.0316 8.2199 8.21166 9.08326 7.63479 C 9.94662 7.05791 10.9616 6.75 12 6.75 C 12.4142 6.75 12.75 6.41421 12.75 6 C 12.75 5.58579 12.4142 5.25 12 5.25 C 10.665 5.25 9.35993 5.64588 8.2499 6.38758 C 7.13987 7.12928 6.2747 8.18349 5.76381 9.41689 C 5.25292 10.6503 5.11925 12.0075 5.3797 13.3169 C 5.64015 14.6262 6.28303 15.829 7.22703 16.773 C 8.17103 17.717 9.37377 18.3599 10.6831 18.6203 Z M13.3109 6.04536 C13.1476 6.42606 13.3239 6.867 13.7046 7.03022 C15.1679 7.65761 16.3424 8.83208 16.9698 10.2954 C17.133 10.6761 17.5739 10.8524 17.9546 10.6891 C18.3353 10.5259 18.5116 10.085 18.3484 9.70428 C17.5693 7.88714 16.1129 6.4307 14.2957 5.65159 C13.915 5.48837 13.4741 5.66467 13.3109 6.04536 Z" fill="#FFFFFF" />
</svg>