<svg xmlns="http://www.w3.org/2000/svg" width="24" height="24" viewBox="0 0 24 24" fill="none">
  <path d="M3 6.38597C3 5.90152 3.34538 5.50879 3.77143 5.50879L6.43567 5.50832C6.96502 5.49306 7.43202 5.11033 7.61214 4.54412C7.61688 4.52923 7.62232 4.51087 7.64185 4.44424L7.75665 4.05256C7.8269 3.81241 7.8881 3.60318 7.97375 3.41617C8.31209 2.67736 8.93808 2.16432 9.66147 2.03297C9.84457 1.99972 10.0385 1.99986 10.2611 2.00002H13.7391C13.9617 1.99986 14.1556 1.99972 14.3387 2.03297C15.0621 2.16432 15.6881 2.67736 16.0264 3.41617C16.1121 3.60318 16.1733 3.81241 16.2435 4.05256L16.3583 4.44424C16.3778 4.51087 16.3833 4.52923 16.388 4.54412C16.5682 5.11033 17.1278 5.49353 17.6571 5.50879H20.2286C20.6546 5.50879 21 5.90152 21 6.38597C21 6.87043 20.6546 7.26316 20.2286 7.26316H3.77143C3.34538 7.26316 3 6.87043 3 6.38597Z" fill="#FFFFFF" />
  <path fill-rule="nonzero" clip-rule="nonzero" d="M11.5956 22.0001 C8.81289 22.0001 7.42153 22.0001 6.51689 21.1142 C5.61225 20.2283 5.5197 18.7751 5.33459 15.8686 L5.06788 11.6807 C4.96744 10.1037 4.91722 9.31524 5.37105 8.81558 C5.82488 8.31592 6.59127 8.31592 8.12404 8.31592 L15.876 8.31592 C17.4087 8.31592 18.1751 8.31592 18.6289 8.81558 C19.0828 9.31524 19.0326 10.1037 18.9321 11.6807 L18.6654 15.8686 C18.4803 18.7751 18.3878 20.2283 17.4831 21.1142 C16.5785 22.0001 15.1871 22.0001 12.4044 22.0001 L11.5956 22.0001 Z M 10.2463 12.1886 C 10.2051 11.7548 9.83753 11.4382 9.42537 11.4816 C 9.01321 11.525 8.71251 11.9119 8.75372 12.3457 L 9.25372 17.6089 C 9.29494 18.0427 9.66247 18.3593 10.0746 18.3159 C 10.4868 18.2725 10.7875 17.8856 10.7463 17.4518 L 10.2463 12.1886 Z M14.5746 11.4816 C14.1625 11.4382 13.7949 11.7548 13.7537 12.1886 L13.2537 17.4518 C13.2125 17.8856 13.5132 18.2725 13.9254 18.3159 C14.3375 18.3593 14.7051 18.0427 14.7463 17.6089 L15.2463 12.3457 C15.2875 11.9119 14.9868 11.525 14.5746 11.4816 Z" fill="#FFFFFF" />
</svg>