<svg xmlns="http://www.w3.org/2000/svg" width="24" height="24" viewBox="0 0 24 24" fill="none">
  <path d="M3 6.52381C3 6.12932 3.32671 5.80952 3.72973 5.80952H8.51787C8.52437 4.9683 8.61554 3.81504 9.45037 3.01668C10.1074 2.38839 11.0081 2 12 2C12.9919 2 13.8926 2.38839 14.5496 3.01668C15.3844 3.81504 15.4756 4.9683 15.4821 5.80952H20.2703C20.6733 5.80952 21 6.12932 21 6.52381C21 6.9183 20.6733 7.2381 20.2703 7.2381H3.72973C3.32671 7.2381 3 6.9183 3 6.52381Z" fill="#FFFFFF" />
  <path fill-rule="nonzero" clip-rule="nonzero" d="M11.5956 22 C8.81289 22 7.42153 22 6.51689 21.1141 C5.61225 20.2281 5.5197 18.7749 5.33459 15.8685 L5.06788 11.6806 C4.96744 10.1036 4.91722 9.31511 5.37105 8.81545 C5.82488 8.31579 6.59127 8.31579 8.12404 8.31579 L15.876 8.31579 C17.4087 8.31579 18.1751 8.31579 18.6289 8.81545 C19.0828 9.31511 19.0326 10.1036 18.9321 11.6806 L18.6654 15.8685 C18.4803 18.7749 18.3878 20.2281 17.4831 21.1141 C16.5785 22 15.1871 22 12.4044 22 L11.5956 22 Z M 10.2463 12.1885 C 10.2051 11.7546 9.83753 11.4381 9.42537 11.4815 C 9.01321 11.5249 8.71251 11.9117 8.75372 12.3456 L 9.25372 17.6087 C 9.29494 18.0426 9.66247 18.3591 10.0746 18.3157 C 10.4868 18.2724 10.7875 17.8855 10.7463 17.4516 L 10.2463 12.1885 Z M14.5746 11.4815 C14.1625 11.4381 13.7949 11.7546 13.7537 12.1885 L13.2537 17.4516 C13.2125 17.8855 13.5132 18.2724 13.9254 18.3157 C14.3375 18.3591 14.7051 18.0426 14.7463 17.6087 L15.2463 12.3456 C15.2875 11.9117 14.9868 11.5249 14.5746 11.4815 Z" fill="#FFFFFF" />
</svg>