<svg xmlns="http://www.w3.org/2000/svg" width="24" height="24" viewBox="0 0 24 24" fill="none">
  <path fill-rule="nonzero" clip-rule="nonzero" d="M 6.0877 1.62849 C 6.74671 1.24239 7.51383 1.15855 8.22522 1.34565 L 8.71531 1.47455 C 9.29318 1.62654 9.78648 1.99695 10.1061 2.50128 C 11.0139 3.93392 12.9861 3.93392 13.8939 2.50128 C 14.2135 1.99695 14.7068 1.62654 15.2847 1.47455 L 15.7748 1.34565 C 16.4862 1.15855 17.2533 1.24239 17.9123 1.62849 C 18.4266 1.92978 19.133 2.36631 19.6498 2.78056 C 19.8023 2.90278 19.9563 3.0374 20.1077 3.17731 L 20.1483 3.21476 C 20.5819 3.61538 20.9731 3.97681 21.2457 4.32981 C 21.5539 4.72887 21.7531 5.1679 21.75 5.7204 C 21.7467 6.2921 21.5129 6.74435 21.1816 7.15053 C 20.8803 7.5198 20.4478 7.90974 19.9541 8.35481 L 19.7286 8.55817 C 19.1866 9.04693 19.0936 9.15151 19.0419 9.26967 C 18.9881 9.39279 18.9733 9.54555 18.9733 10.2955 L 18.9733 18.3118 C 18.9734 18.9333 18.9734 19.4743 18.91 19.9276 C 18.8405 20.4244 18.6897 20.8675 18.3605 21.2796 C 17.7344 22.0635 16.9318 22.21 15.9803 22.3837 C 15.9378 22.3915 15.8949 22.3993 15.8518 22.4072 C 14.8201 22.597 13.5179 22.75 12 22.75 C 10.4821 22.75 9.1799 22.597 8.14824 22.4072 C 8.10508 22.3993 8.06222 22.3915 8.01966 22.3837 C 7.06824 22.21 6.26564 22.0635 5.63954 21.2796 C 5.31029 20.8675 5.15952 20.4244 5.09001 19.9276 C 5.02659 19.4743 5.02663 18.9333 5.02667 18.3118 L 5.02667 10.2955 C 5.02667 9.54555 5.01191 9.39279 4.95808 9.26967 C 4.90643 9.15151 4.81339 9.04693 4.27138 8.55817 L 4.0861 8.3911 C 4.07263 8.37896 4.05921 8.36686 4.04584 8.3548 C 3.5522 7.90973 3.1197 7.51979 2.81845 7.15053 C 2.48708 6.74435 2.25333 6.2921 2.25004 5.7204 C 2.24685 5.1679 2.44607 4.72887 2.75428 4.32981 C 3.02691 3.97681 3.41813 3.61537 3.85175 3.21475 C 3.86522 3.20231 3.87873 3.18983 3.89227 3.17731 C 4.04368 3.0374 4.19768 2.90278 4.35016 2.78056 C 4.86698 2.36631 5.57345 1.92978 6.0877 1.62849 Z M 7.84368 2.79632 C 7.49533 2.7047 7.1413 2.74969 6.84597 2.92272 C 6.34033 3.21897 5.71427 3.60955 5.28831 3.95098 C 5.16949 4.04622 5.04253 4.15676 4.91031 4.27895 C 4.42321 4.72908 4.12775 5.00545 3.94143 5.24669 C 3.78222 5.45283 3.74922 5.5749 3.75001 5.71175 C 3.75069 5.82941 3.78299 5.95994 3.98073 6.20232 C 4.20043 6.47162 4.54474 6.78488 5.09061 7.27712 L 5.2759 7.4442 C 5.30368 7.46925 5.33128 7.49406 5.35868 7.51869 C 5.77015 7.88853 6.13454 8.21604 6.33248 8.6688 C 6.52839 9.11691 6.52764 9.6117 6.52678 10.1808 C 6.52673 10.2187 6.52667 10.2569 6.52667 10.2955 V 18.2649 C 6.52667 18.9468 6.52834 19.3824 6.57554 19.7198 C 6.61826 20.025 6.69192 20.1937 6.81155 20.3435 C 7.05521 20.6485 7.28144 20.7226 8.4196 20.932 C 9.37174 21.1071 10.5828 21.25 12 21.25 C 13.4172 21.25 14.6283 21.1071 15.5804 20.932 C 16.7186 20.7226 16.9448 20.6485 17.1884 20.3435 C 17.3081 20.1937 17.3817 20.025 17.4245 19.7198 C 17.4717 19.3824 17.4733 18.9468 17.4733 18.2649 V 10.2955 C 17.4733 10.2569 17.4733 10.2187 17.4732 10.1808 C 17.4724 9.6117 17.4716 9.11691 17.6675 8.6688 C 17.8655 8.21604 18.2299 7.88852 18.6413 7.51868 C 18.6687 7.49406 18.6963 7.46924 18.7241 7.4442 L 18.9094 7.27712 C 19.4553 6.78488 19.7996 6.47162 20.0193 6.20232 C 20.217 5.95994 20.2493 5.82941 20.25 5.71175 C 20.2508 5.5749 20.2178 5.45283 20.0586 5.24669 C 19.8722 5.00544 19.5768 4.72908 19.0897 4.27895 C 18.9575 4.15676 18.8305 4.04621 18.7117 3.95098 C 18.2857 3.60955 17.6597 3.21897 17.154 2.92272 C 16.8587 2.74969 16.5047 2.7047 16.1563 2.79632 L 15.6662 2.92521 C 15.4679 2.97738 15.2852 3.10815 15.161 3.30419 C 13.6641 5.66628 10.3359 5.66628 8.83905 3.30419 C 8.71483 3.10815 8.53211 2.97738 8.33377 2.92521 L 7.84368 2.79632 Z" fill="#FFFFFF" />
</svg>