<svg xmlns="http://www.w3.org/2000/svg" width="24" height="24" viewBox="0 0 24 24" fill="none">
  <path fill-rule="nonzero" clip-rule="nonzero" d="M11.5238 1.25 L12.4762 1.25 C18.1503 1.25 22.75 5.84974 22.75 11.5238 C22.75 12.201 22.201 12.75 21.5238 12.75 L12.75 12.75 L12.75 20 C12.75 21.5188 11.5188 22.75 10 22.75 C8.48122 22.75 7.25 21.5188 7.25 20 L7.25 19 C7.25 18.5858 7.58579 18.25 8 18.25 C8.41421 18.25 8.75 18.5858 8.75 19 L8.75 20 C8.75 20.6904 9.30964 21.25 10 21.25 C10.6904 21.25 11.25 20.6904 11.25 20 L11.25 12.75 L2.47619 12.75 C1.79898 12.75 1.25 12.201 1.25 11.5238 C1.25 5.84974 5.84974 1.25 11.5238 1.25 Z M 8.84386 3.16683 C 5.39174 4.27297 2.87041 7.4588 2.75419 11.25 H 6.41544 C 6.59146 9.80771 6.94148 7.65426 7.60615 5.73755 C 7.92504 4.81796 8.32834 3.91674 8.84386 3.16683 Z M7.92709 11.25 L16.0729 11.25 C15.8969 9.86814 15.5666 7.93018 14.9767 6.229 C14.6154 5.18734 14.1746 4.28791 13.6521 3.66173 C13.1383 3.04589 12.5974 2.75 12 2.75 C11.4026 2.75 10.8617 3.04589 10.3479 3.66173 C9.82539 4.28791 9.38457 5.18734 9.02335 6.229 C8.43343 7.93018 8.10314 9.86814 7.92709 11.25 Z M17.5846 11.25 L21.2458 11.25 C21.1296 7.45881 18.6083 4.27298 15.1562 3.16684 C15.6717 3.91675 16.075 4.81796 16.3939 5.73755 C17.0585 7.65426 17.4086 9.80771 17.5846 11.25 Z" fill="#FFFFFF" />
</svg>