<svg xmlns="http://www.w3.org/2000/svg" width="24" height="24" viewBox="0 0 24 24" fill="none">
  <path d="M11.7006 6.9571C12.0766 6.78324 12.2404 6.33752 12.0665 5.96157C11.8927 5.58561 11.447 5.42177 11.071 5.59563C9.1061 6.50429 7.59171 8.31108 6.89971 10.4974C6.77471 10.8923 6.99352 11.3138 7.38843 11.4388C7.78333 11.5638 8.20479 11.345 8.32978 10.9501C8.9073 9.12545 10.1551 7.67181 11.7006 6.9571Z" fill="#FFFFFF" />
  <path fill-rule="nonzero" clip-rule="nonzero" d="M14.3856 1.72865 C18.8467 3.59087 21.75 8.02164 21.75 12.9281 L21.75 13.1928 C21.75 18.4551 17.5745 22.75 12.3885 22.75 L11.6115 22.75 C6.42548 22.75 2.25 18.4551 2.25 13.1928 L2.25 12.9281 C2.25 8.02164 5.15333 3.59087 9.61438 1.72865 C11.1432 1.09045 12.8568 1.09045 14.3856 1.72865 Z M10.1922 3.11289 C6.30376 4.73608 3.75 8.61139 3.75 12.9281 L3.75 13.1928 C3.75 17.6587 7.2855 21.25 11.6115 21.25 L12.3885 21.25 C16.7145 21.25 20.25 17.6587 20.25 13.1928 L20.25 12.9281 C20.25 8.61139 17.6962 4.73608 13.8078 3.11289 C12.6487 2.62904 11.3513 2.62904 10.1922 3.11289 Z" fill="#FFFFFF" />
</svg>