<svg xmlns="http://www.w3.org/2000/svg" width="24" height="24" viewBox="0 0 24 24" fill="none">
  <path fill-rule="nonzero" clip-rule="nonzero" d="M 11.6115 22 C 6.85549 22 3 18.0569 3 13.1928 V 12.9281 C 3 8.31651 5.72854 4.16347 9.90329 2.42077 C 11.2473 1.85974 12.7527 1.85974 14.0967 2.42077 C 18.2715 4.16347 21 8.31651 21 12.9281 V 13.1928 C 21 18.0569 17.1445 22 12.3885 22 H 11.6115 Z M12.0664 5.96145 C11.8925 5.5855 11.4468 5.42166 11.0708 5.59552 C9.10593 6.50418 7.59154 8.31097 6.89954 10.4973 C6.77454 10.8922 6.99335 11.3137 7.38826 11.4387 C7.78316 11.5637 8.20462 11.3449 8.32961 10.9499 C8.90712 9.12534 10.155 7.6717 11.7004 6.95699 C12.0764 6.78313 12.2402 6.33741 12.0664 5.96145 Z" fill="#FFFFFF" />
</svg>