<svg xmlns="http://www.w3.org/2000/svg" width="24" height="24" viewBox="0 0 24 24" fill="none">
  <path d="M15.75 11C15.75 10.5858 15.4142 10.25 15 10.25C14.5858 10.25 14.25 10.5858 14.25 11V13C14.25 13.4142 14.5858 13.75 15 13.75C15.4142 13.75 15.75 13.4142 15.75 13V11Z" fill="#FFFFFF" />
  <path fill-rule="nonzero" clip-rule="nonzero" d="M15.0253 1.25 C15.4697 1.24999 15.8408 1.24999 16.1454 1.27077 C16.4625 1.29241 16.762 1.33905 17.0524 1.45933 C17.4718 1.63307 17.8376 1.9061 18.1213 2.25 L19.0253 2.25 C19.4697 2.24999 19.8408 2.24999 20.1454 2.27077 C20.4625 2.29241 20.762 2.33905 21.0524 2.45933 C21.7262 2.73844 22.2616 3.27379 22.5407 3.94762 C22.661 4.23801 22.7076 4.53754 22.7292 4.85464 C22.75 5.15925 22.75 5.53028 22.75 5.97474 L22.75 6.02526 C22.75 6.46972 22.75 6.84075 22.7292 7.14537 C22.7076 7.46247 22.661 7.76199 22.5407 8.05238 C22.3908 8.41428 22.1669 8.73624 21.8875 9 C22.1669 9.26377 22.3908 9.58572 22.5407 9.94762 C22.661 10.238 22.7076 10.5375 22.7292 10.8546 C22.75 11.1592 22.75 11.5303 22.75 11.9747 L22.75 12.0253 C22.75 12.4697 22.75 12.8408 22.7292 13.1454 C22.7076 13.4625 22.661 13.762 22.5407 14.0524 C22.3908 14.4143 22.1669 14.7362 21.8875 15 C22.1669 15.2638 22.3908 15.5857 22.5407 15.9476 C22.661 16.238 22.7076 16.5375 22.7292 16.8546 C22.75 17.1592 22.75 17.5303 22.75 17.9747 L22.75 18.0253 C22.75 18.4697 22.75 18.8408 22.7292 19.1454 C22.7076 19.4625 22.661 19.762 22.5407 20.0524 C22.2616 20.7262 21.7262 21.2616 21.0524 21.5407 C20.762 21.661 20.4625 21.7076 20.1454 21.7292 C19.8408 21.75 19.4697 21.75 19.0253 21.75 L18.1213 21.75 C17.8376 22.0939 17.4718 22.3669 17.0524 22.5407 C16.762 22.661 16.4625 22.7076 16.1454 22.7292 C15.8408 22.75 15.4697 22.75 15.0253 22.75 L14.9747 22.75 C14.5303 22.75 14.1592 22.75 13.8546 22.7292 C13.5375 22.7076 13.238 22.661 12.9476 22.5407 C12.5282 22.3669 12.1624 22.0939 11.8787 21.75 L4.97474 21.75 C4.53028 21.75 4.15925 21.75 3.85464 21.7292 C3.53754 21.7076 3.23801 21.661 2.94762 21.5407 C2.27379 21.2616 1.73844 20.7262 1.45933 20.0524 C1.33905 19.762 1.29241 19.4625 1.27077 19.1454 C1.24999 18.8408 1.24999 18.4697 1.25 18.0253 L1.25 17.9748 C1.24999 17.5303 1.24999 17.1592 1.27077 16.8546 C1.29241 16.5375 1.33905 16.238 1.45933 15.9476 C1.60924 15.5857 1.83305 15.2638 2.11254 15 C1.83305 14.7362 1.60924 14.4143 1.45933 14.0524 C1.33905 13.762 1.29241 13.4625 1.27077 13.1454 C1.24999 12.8408 1.24999 12.4697 1.25 12.0253 L1.25 11.9748 C1.24999 11.5303 1.24999 11.1592 1.27077 10.8546 C1.29241 10.5375 1.33905 10.238 1.45933 9.94762 C1.60924 9.58572 1.83305 9.26377 2.11254 9 C1.83305 8.73623 1.60924 8.41428 1.45933 8.05238 C1.33905 7.76199 1.29241 7.46247 1.27077 7.14537 C1.24999 6.84075 1.24999 6.46971 1.25 6.02525 L1.25 5.97475 C1.24999 5.53029 1.24999 5.15925 1.27077 4.85464 C1.29241 4.53754 1.33905 4.23801 1.45933 3.94762 C1.73844 3.27379 2.27379 2.73844 2.94762 2.45933 C3.23801 2.33905 3.53754 2.29241 3.85464 2.27077 C4.15925 2.24999 4.53029 2.24999 4.97475 2.25 L11.8787 2.25 C12.1624 1.9061 12.5282 1.63307 12.9476 1.45933 C13.238 1.33905 13.5375 1.29241 13.8546 1.27077 C14.1592 1.24999 14.5303 1.24999 14.9748 1.25 L15.0253 1.25 Z M5 3.75 C4.5238 3.75 4.20421 3.75041 3.95674 3.76729 C3.71602 3.78372 3.5988 3.81319 3.52165 3.84515 C3.21536 3.97202 2.97202 4.21536 2.84515 4.52165 C2.81319 4.5988 2.78372 4.71602 2.76729 4.95674 C2.75041 5.20421 2.75 5.5238 2.75 6 C2.75 6.4762 2.75041 6.7958 2.76729 7.04326 C2.78372 7.28399 2.81319 7.4012 2.84515 7.47836 C2.97202 7.78464 3.21536 8.02798 3.52165 8.15485 C3.5988 8.18681 3.71602 8.21629 3.95674 8.23271 C4.20421 8.24959 4.5238 8.25 5 8.25 L11.25 8.25 L11.25 4.97474 C11.25 4.53028 11.25 4.15925 11.2708 3.85464 C11.2732 3.81955 11.2759 3.78467 11.2789 3.75 L5 3.75 Z M5 9.75 C4.5238 9.75 4.20421 9.75041 3.95674 9.76729 C3.71602 9.78372 3.5988 9.81319 3.52165 9.84515 C3.21536 9.97202 2.97202 10.2154 2.84515 10.5216 C2.81319 10.5988 2.78372 10.716 2.76729 10.9567 C2.75041 11.2042 2.75 11.5238 2.75 12 C2.75 12.4762 2.75041 12.7958 2.76729 13.0433 C2.78372 13.284 2.81319 13.4012 2.84515 13.4784 C2.97202 13.7846 3.21536 14.028 3.52165 14.1549 C3.5988 14.1868 3.71602 14.2163 3.95674 14.2327 C4.20421 14.2496 4.5238 14.25 5 14.25 L11.25 14.25 L11.25 9.75 L5 9.75 Z M5 15.75 C4.5238 15.75 4.20421 15.7504 3.95674 15.7673 C3.71602 15.7837 3.5988 15.8132 3.52165 15.8452 C3.21536 15.972 2.97202 16.2154 2.84515 16.5216 C2.81319 16.5988 2.78372 16.716 2.76729 16.9567 C2.75041 17.2042 2.75 17.5238 2.75 18 C2.75 18.4762 2.75041 18.7958 2.76729 19.0433 C2.78372 19.284 2.81319 19.4012 2.84515 19.4784 C2.97202 19.7846 3.21536 20.028 3.52165 20.1549 C3.5988 20.1868 3.71602 20.2163 3.95674 20.2327 C4.20421 20.2496 4.5238 20.25 5 20.25 L11.2789 20.25 C11.2759 20.2153 11.2732 20.1805 11.2708 20.1454 C11.25 19.8408 11.25 19.4697 11.25 19.0253 L11.25 15.75 L5 15.75 Z M19 20.25 C19.4762 20.25 19.7958 20.2496 20.0433 20.2327 C20.284 20.2163 20.4012 20.1868 20.4784 20.1549 C20.7846 20.028 21.028 19.7846 21.1549 19.4784 C21.1868 19.4012 21.2163 19.284 21.2327 19.0433 C21.2496 18.7958 21.25 18.4762 21.25 18 C21.25 17.5238 21.2496 17.2042 21.2327 16.9567 C21.2163 16.716 21.1868 16.5988 21.1549 16.5216 C21.028 16.2154 20.7846 15.972 20.4784 15.8452 C20.4012 15.8132 20.284 15.7837 20.0433 15.7673 C19.7958 15.7504 19.4762 15.75 19 15.75 L18.75 15.75 L18.75 19.0251 C18.75 19.4697 18.75 19.8407 18.7292 20.1454 C18.7268 20.1805 18.7241 20.2153 18.7211 20.25 L19 20.25 Z M19 14.25 C19.4762 14.25 19.7958 14.2496 20.0433 14.2327 C20.284 14.2163 20.4012 14.1868 20.4784 14.1549 C20.7846 14.028 21.028 13.7846 21.1549 13.4784 C21.1868 13.4012 21.2163 13.284 21.2327 13.0433 C21.2496 12.7958 21.25 12.4762 21.25 12 C21.25 11.5238 21.2496 11.2042 21.2327 10.9567 C21.2163 10.716 21.1868 10.5988 21.1549 10.5216 C21.028 10.2154 20.7846 9.97202 20.4784 9.84515 C20.4012 9.81319 20.284 9.78372 20.0433 9.76729 C19.7958 9.75041 19.4762 9.75 19 9.75 L18.75 9.75 L18.75 14.25 L19 14.25 Z M19 8.25 C19.4762 8.25 19.7958 8.24959 20.0433 8.23271 C20.284 8.21629 20.4012 8.18681 20.4784 8.15485 C20.7846 8.02798 21.028 7.78464 21.1549 7.47836 C21.1868 7.4012 21.2163 7.28399 21.2327 7.04326 C21.2496 6.7958 21.25 6.4762 21.25 6 C21.25 5.5238 21.2496 5.20421 21.2327 4.95674 C21.2163 4.71602 21.1868 4.5988 21.1549 4.52165 C21.028 4.21536 20.7846 3.97202 20.4784 3.84515 C20.4012 3.81319 20.284 3.78372 20.0433 3.76729 C19.7958 3.75041 19.4762 3.75 19 3.75 L18.7211 3.75 C18.7241 3.78467 18.7268 3.81955 18.7292 3.85464 C18.75 4.15925 18.75 4.53028 18.75 4.97474 L18.75 8.25 L19 8.25 Z M 16.4784 21.1549 C 16.7339 21.049 16.9457 20.862 17.0825 20.625 C 17.1096 20.578 17.1338 20.5291 17.1548 20.4784 C 17.1868 20.4012 17.2163 20.284 17.2327 20.0433 C 17.2496 19.7958 17.25 19.4762 17.25 19 V 5 C 17.25 4.5238 17.2496 4.20421 17.2327 3.95674 C 17.2163 3.71602 17.1868 3.5988 17.1549 3.52165 C 17.1338 3.47092 17.1097 3.42196 17.0825 3.37499 C 16.9457 3.138 16.7339 2.95101 16.4784 2.84515 C 16.4012 2.81319 16.284 2.78372 16.0433 2.76729 C 15.7958 2.75041 15.4762 2.75 15 2.75 C 14.5238 2.75 14.2042 2.75041 13.9567 2.76729 C 13.716 2.78372 13.5988 2.81319 13.5216 2.84515 C 13.2661 2.95101 13.0543 3.138 12.9175 3.37499 C 12.8903 3.42196 12.8662 3.47092 12.8452 3.52165 C 12.8132 3.5988 12.7837 3.71602 12.7673 3.95674 C 12.7504 4.20421 12.75 4.5238 12.75 5 L 12.75 19 C 12.75 19.4762 12.7504 19.7958 12.7673 20.0433 C 12.7837 20.284 12.8132 20.4012 12.8452 20.4784 C 12.8662 20.5291 12.8903 20.578 12.9175 20.625 C 13.0543 20.862 13.2661 21.049 13.5216 21.1549 C 13.5988 21.1868 13.716 21.2163 13.9567 21.2327 C 14.2042 21.2496 14.5238 21.25 15 21.25 C 15.4762 21.25 15.7958 21.2496 16.0433 21.2327 C 16.284 21.2163 16.4012 21.1868 16.4784 21.1549 Z" fill="#FFFFFF" />
</svg>