<svg xmlns="http://www.w3.org/2000/svg" width="24" height="24" viewBox="0 0 24 24" fill="none">
  <path fill-rule="nonzero" clip-rule="nonzero" d="M 12 22 C 7.28595 22 4.92893 22 3.46447 20.5355 C 2 19.0711 2 16.714 2 12 C 2 7.28595 2 4.92893 3.46447 3.46447 C 4.92893 2 7.28595 2 12 2 C 16.714 2 19.0711 2 20.5355 3.46447 C 22 4.92893 22 7.28595 22 12 C 22 16.714 22 19.0711 20.5355 20.5355 C 19.0711 22 16.714 22 12 22 Z M4.08397 8.37596 C3.73933 8.60573 3.6462 9.07138 3.87596 9.41602 L5.59861 12 L3.87596 14.584 C3.6462 14.9286 3.73933 15.3943 4.08397 15.624 C4.42862 15.8538 4.89427 15.7607 5.12404 15.416 L6.5 13.3521 L7.87596 15.416 C8.10573 15.7607 8.57138 15.8538 8.91603 15.624 C9.12957 15.4817 9.24655 15.2488 9.25 15.0102 C9.25345 15.2488 9.37043 15.4817 9.58397 15.624 C9.92862 15.8538 10.3943 15.7607 10.624 15.416 L12 13.3521 L13.376 15.416 C13.6057 15.7607 14.0714 15.8538 14.416 15.624 C14.6296 15.4817 14.7466 15.2487 14.75 15.0101 C14.7534 15.2487 14.8704 15.4817 15.084 15.624 C15.4286 15.8538 15.8943 15.7607 16.124 15.416 L17.5 13.3521 L18.876 15.416 C19.1057 15.7607 19.5714 15.8538 19.916 15.624 C20.2607 15.3943 20.3538 14.9286 20.124 14.584 L18.4014 12 L20.124 9.41602 C20.3538 9.07138 20.2607 8.60573 19.916 8.37596 C19.5714 8.1462 19.1057 8.23933 18.876 8.58397 L17.5 10.6479 L16.124 8.58397 C15.8943 8.23933 15.4286 8.1462 15.084 8.37596 C14.8704 8.51833 14.7534 8.75127 14.75 8.98987 C14.7466 8.75127 14.6296 8.51833 14.416 8.37596 C14.0714 8.1462 13.6057 8.23933 13.376 8.58397 L12 10.6479 L10.624 8.58397 C10.3943 8.23933 9.92862 8.1462 9.58397 8.37596 C9.37043 8.51832 9.25345 8.75125 9.25 8.98984 C9.24655 8.75125 9.12957 8.51832 8.91603 8.37596 C8.57138 8.1462 8.10573 8.23933 7.87596 8.58397 L6.5 10.6479 L5.12404 8.58397 C4.89427 8.23933 4.42862 8.1462 4.08397 8.37596 Z" fill="#FFFFFF" />
  <path d="M9.12404 9.41602L7.40139 12L9.12404 14.584C9.20713 14.7086 9.24799 14.8491 9.25 14.9885C9.25202 14.8491 9.29287 14.7086 9.37596 14.584L11.0986 12L9.37596 9.41602C9.29287 9.29139 9.25202 9.15094 9.25 9.01154C9.24799 9.15094 9.20713 9.29139 9.12404 9.41602Z" fill="#FFFFFF" />
  <path d="M14.624 9.41602L12.9014 12L14.624 14.584C14.7071 14.7086 14.748 14.8491 14.75 14.9885C14.752 14.8491 14.7929 14.7086 14.876 14.584L16.5986 12L14.876 9.41602C14.7929 9.29138 14.752 9.15091 14.75 9.0115C14.748 9.15091 14.7071 9.29138 14.624 9.41602Z" fill="#FFFFFF" />
</svg>