<svg xmlns="http://www.w3.org/2000/svg" width="24" height="24" viewBox="0 0 24 24" fill="none">
  <path opacity="0.5" d="M3.46447 20.5355C4.92893 22 7.28595 22 12 22C16.714 22 19.0711 22 20.5355 20.5355C22 19.0711 22 16.714 22 12C22 7.28595 22 4.92893 20.5355 3.46447C19.0711 2 16.714 2 12 2C7.28595 2 4.92893 2 3.46447 3.46447C2 4.92893 2 7.28595 2 12C2 16.714 2 19.0711 3.46447 20.5355Z" fill="#FFFFFF" />
  <path fill-rule="nonzero" clip-rule="nonzero" d="M 4.08405 8.37604 C 4.4287 8.14628 4.89435 8.23941 5.12412 8.58405 L 6.50008 10.648 L 7.87604 8.58405 C 8.10581 8.23941 8.57146 8.14628 8.9161 8.37604 C 9.12965 8.51841 9.24663 8.75133 9.25008 8.98992 C 9.25353 8.75133 9.37051 8.51841 9.58405 8.37604 C 9.9287 8.14628 10.3944 8.23941 10.6241 8.58405 L 12.0001 10.648 L 13.376 8.58405 C 13.6058 8.23941 14.0715 8.14628 14.4161 8.37604 C 14.6297 8.51841 14.7466 8.75135 14.7501 8.98995 C 14.7535 8.75135 14.8705 8.51841 15.0841 8.37604 C 15.4287 8.14628 15.8944 8.23941 16.1241 8.58405 L 17.5001 10.648 L 18.876 8.58405 C 19.1058 8.23941 19.5715 8.14628 19.9161 8.37604 C 20.2608 8.60581 20.3539 9.07146 20.1241 9.4161 L 18.4015 12.0001 L 20.1241 14.5841 C 20.3539 14.9287 20.2608 15.3944 19.9161 15.6241 C 19.5715 15.8539 19.1058 15.7608 18.876 15.4161 L 17.5001 13.3522 L 16.1241 15.4161 C 15.8944 15.7608 15.4287 15.8539 15.0841 15.6241 C 14.8705 15.4817 14.7535 15.2488 14.7501 15.0102 C 14.7466 15.2488 14.6297 15.4817 14.4161 15.6241 C 14.0715 15.8539 13.6058 15.7608 13.376 15.4161 L 12.0001 13.3522 L 10.6241 15.4161 C 10.3944 15.7608 9.9287 15.8539 9.58405 15.6241 C 9.37051 15.4818 9.25353 15.2488 9.25008 15.0102 C 9.24663 15.2488 9.12965 15.4818 8.9161 15.6241 C 8.57146 15.8539 8.10581 15.7608 7.87604 15.4161 L 6.50008 13.3522 L 5.12412 15.4161 C 4.89435 15.7608 4.4287 15.8539 4.08405 15.6241 C 3.73941 15.3944 3.64628 14.9287 3.87604 14.5841 L 5.59869 12.0001 L 3.87604 9.4161 C 3.64628 9.07146 3.73941 8.60581 4.08405 8.37604 Z M 14.6241 9.4161 L 12.9015 12.0001 L 14.6241 14.5841 C 14.7072 14.7087 14.7481 14.8492 14.7501 14.9886 C 14.7521 14.8492 14.7929 14.7087 14.876 14.5841 L 16.5987 12.0001 L 14.876 9.4161 C 14.7929 9.29146 14.7521 9.15099 14.7501 9.01158 C 14.7481 9.15099 14.7072 9.29146 14.6241 9.4161 Z M7.40147 12.0001 L9.12412 14.5841 C9.2072 14.7087 9.24807 14.8491 9.25008 14.9885 C9.25209 14.8491 9.29295 14.7087 9.37604 14.5841 L11.0987 12.0001 L9.37604 9.4161 C9.29295 9.29147 9.25209 9.15102 9.25008 9.01162 C9.24807 9.15102 9.2072 9.29147 9.12412 9.4161 L7.40147 12.0001 Z" fill="#FFFFFF" />
</svg>