<svg xmlns="http://www.w3.org/2000/svg" width="24" height="24" viewBox="0 0 24 24" fill="none">
  <path fill-rule="nonzero" clip-rule="nonzero" d="M5.12404 8.58398 L6.5 10.6479 L7.87596 8.58398 C8.10573 8.23933 8.57138 8.1462 8.91603 8.37597 C9.12957 8.51833 9.24656 8.75126 9.25 8.98986 C9.25344 8.75126 9.37043 8.51833 9.58397 8.37597 C9.92862 8.1462 10.3943 8.23933 10.624 8.58398 L12 10.6479 L13.376 8.58398 C13.6057 8.23933 14.0714 8.1462 14.416 8.37597 C14.6296 8.51833 14.7466 8.75127 14.75 8.98987 C14.7534 8.75127 14.8704 8.51833 15.084 8.37597 C15.4286 8.1462 15.8943 8.23933 16.124 8.58398 L17.5 10.6479 L18.876 8.58398 C19.1057 8.23933 19.5714 8.1462 19.916 8.37597 C20.2607 8.60573 20.3538 9.07138 20.124 9.41603 L18.4014 12 L20.124 14.584 C20.3538 14.9286 20.2607 15.3943 19.916 15.624 C19.5714 15.8538 19.1057 15.7607 18.876 15.416 L17.5 13.3521 L16.124 15.416 C15.8943 15.7607 15.4286 15.8538 15.084 15.624 C14.8704 15.4817 14.7534 15.2487 14.75 15.0101 C14.7466 15.2487 14.6296 15.4817 14.416 15.624 C14.0714 15.8538 13.6057 15.7607 13.376 15.416 L12 13.3521 L10.624 15.416 C10.3943 15.7607 9.92862 15.8538 9.58397 15.624 C9.37043 15.4817 9.25344 15.2487 9.25 15.0102 C9.24656 15.2487 9.12957 15.4817 8.91603 15.624 C8.57138 15.8538 8.10573 15.7607 7.87596 15.416 L6.5 13.3521 L5.12404 15.416 C4.89427 15.7607 4.42862 15.8538 4.08397 15.624 C3.73933 15.3943 3.6462 14.9286 3.87596 14.584 L5.59861 12 L3.87596 9.41603 C3.6462 9.07138 3.73933 8.60573 4.08397 8.37597 C4.42862 8.1462 4.89427 8.23933 5.12404 8.58398 Z M9.12404 14.584 C9.20713 14.7086 9.24799 14.8491 9.25 14.9885 C9.25201 14.8491 9.29287 14.7086 9.37596 14.584 L11.0986 12 L9.37596 9.41603 C9.29287 9.29139 9.25201 9.15093 9.25 9.01153 C9.24799 9.15093 9.20713 9.29139 9.12404 9.41603 L7.40139 12 L9.12404 14.584 Z M14.624 14.584 C14.7071 14.7086 14.748 14.8491 14.75 14.9885 C14.752 14.8491 14.7929 14.7086 14.876 14.584 L16.5986 12 L14.876 9.41603 C14.7929 9.29139 14.752 9.15092 14.75 9.01151 C14.748 9.15092 14.7071 9.29139 14.624 9.41603 L12.9014 12 L14.624 14.584 Z" fill="#FFFFFF" />
  <path fill-rule="nonzero" clip-rule="nonzero" d="M12.0574 1.25 C14.3658 1.24999 16.1748 1.24998 17.5863 1.43975 C19.031 1.63399 20.1711 2.03933 21.0659 2.93414 C21.9607 3.82895 22.366 4.96897 22.5603 6.41371 C22.75 7.82519 22.75 9.63423 22.75 11.9426 L22.75 12.0574 C22.75 14.3658 22.75 16.1748 22.5603 17.5863 C22.366 19.031 21.9607 20.1711 21.0659 21.0659 C20.1711 21.9607 19.031 22.366 17.5863 22.5603 C16.1748 22.75 14.3658 22.75 12.0574 22.75 L11.9426 22.75 C9.63423 22.75 7.82519 22.75 6.41371 22.5603 C4.96897 22.366 3.82895 21.9607 2.93414 21.0659 C2.03933 20.1711 1.63399 19.031 1.43975 17.5863 C1.24998 16.1748 1.24999 14.3658 1.25 12.0574 L1.25 11.9426 C1.24999 9.63422 1.24998 7.82519 1.43975 6.41371 C1.63399 4.96897 2.03933 3.82895 2.93414 2.93414 C3.82895 2.03933 4.96897 1.63399 6.41371 1.43975 C7.82519 1.24998 9.63424 1.24999 11.9426 1.25 L12.0574 1.25 Z M3.9948 3.9948 C3.42514 4.56445 3.09825 5.33517 2.92637 6.61358 C2.75159 7.91356 2.75 9.62177 2.75 12 C2.75 14.3782 2.75159 16.0864 2.92637 17.3864 C3.09825 18.6648 3.42514 19.4355 3.9948 20.0052 C4.56445 20.5749 5.33517 20.9018 6.61358 21.0736 C7.91356 21.2484 9.62177 21.25 12 21.25 C14.3782 21.25 16.0864 21.2484 17.3864 21.0736 C18.6648 20.9018 19.4355 20.5749 20.0052 20.0052 C20.5749 19.4355 20.9018 18.6648 21.0736 17.3864 C21.2484 16.0864 21.25 14.3782 21.25 12 C21.25 9.62177 21.2484 7.91356 21.0736 6.61358 C20.9018 5.33517 20.5749 4.56445 20.0052 3.9948 C19.4355 3.42514 18.6648 3.09825 17.3864 2.92637 C16.0864 2.75159 14.3782 2.75 12 2.75 C9.62177 2.75 7.91356 2.75159 6.61358 2.92637 C5.33517 3.09825 4.56445 3.42514 3.9948 3.9948 Z" fill="#FFFFFF" />
</svg>