<svg xmlns="http://www.w3.org/2000/svg" width="24" height="24" viewBox="0 0 24 24" fill="none">
  <path d="M17.2905 11.9684C17.2905 12.7071 16.6984 13.3059 15.9679 13.3059C15.2374 13.3059 14.6453 12.7071 14.6453 11.9684C14.6453 11.2297 15.2374 10.6309 15.9679 10.6309C16.6984 10.6309 17.2905 11.2297 17.2905 11.9684Z" fill="#FFFFFF" />
  <path fill-rule="nonzero" clip-rule="nonzero" d="M18.1316 7.40774 C19.0094 7.53259 19.7404 7.80048 20.284 8.42826 C20.8275 9.05605 20.9934 9.82426 20.9998 10.7206 C21.006 11.587 20.8614 12.6831 20.6813 14.0493 L20.3158 16.8211 C20.175 17.8892 20.061 18.7537 19.8838 19.4306 C19.6994 20.1352 19.4271 20.7194 18.9162 21.1718 C18.4052 21.6241 17.7966 21.8199 17.0816 21.9116 C16.3947 21.9998 15.5322 21.9998 14.4667 21.9998 L9.53332 21.9998 C8.46777 21.9998 7.60534 21.9998 6.91841 21.9116 C6.20337 21.8199 5.59477 21.6241 5.08383 21.1718 C4.57289 20.7194 4.3006 20.1352 4.11616 19.4306 C3.93897 18.7537 3.825 17.8892 3.68419 16.8211 L3.31873 14.0493 C3.13858 12.6831 2.99404 11.587 3.00019 10.7206 C3.00655 9.82426 3.17252 9.05605 3.71603 8.42826 C4.25955 7.80048 4.99062 7.53259 5.86839 7.40774 C6.7168 7.28707 7.81031 7.28709 9.17326 7.28711 L14.8267 7.28711 C16.1897 7.28709 17.2832 7.28707 18.1316 7.40774 Z M 6.05259 8.73222 C 5.32568 8.83561 4.95802 9.02418 4.71116 9.30931 C 4.4643 9.59445 4.32805 9.98791 4.32278 10.7302 C 4.31738 11.4915 4.44802 12.4942 4.63662 13.9246 L 4.68663 14.3039 L 5.05822 14.0318 C 6.0171 13.3295 7.43388 13.364 8.34576 14.1273 L 11.7301 16.9601 C 12.0499 17.2278 12.6011 17.2778 12.9989 17.0438 L 13.2341 16.9054 C 14.3594 16.2435 15.8676 16.3133 16.9059 17.0955 L 18.7378 18.4755 C 18.8281 17.9799 18.909 17.3707 19.0107 16.5996 L 19.3634 13.9246 C 19.552 12.4942 19.6826 11.4915 19.6772 10.7302 C 19.6719 9.98791 19.5357 9.59445 19.2888 9.30931 C 19.042 9.02418 18.6743 8.83561 17.9474 8.73222 C 17.2019 8.62619 16.2018 8.62462 14.7748 8.62462 H 9.22521 C 7.79821 8.62462 6.7981 8.62619 6.05259 8.73222 Z" fill="#FFFFFF" />
  <g opacity="0.7" />
  <g opacity="0.4" />
</svg>