<svg xmlns="http://www.w3.org/2000/svg" width="24" height="24" viewBox="0 0 24 24" fill="none">
  <path fill-rule="nonzero" clip-rule="nonzero" d="M 8.69934 1.25001 C 8.71302 1.25001 8.72689 1.25001 8.74097 1.25001 H 15.2588 C 15.2728 1.25001 15.2867 1.25001 15.3004 1.25001 C 15.5202 1.24995 15.6888 1.2499 15.8362 1.26571 C 17.1903 1.41104 18.2268 2.52305 18.2897 3.87008 C 19.5324 4.24111 20.4024 5.4249 20.3416 6.75728 C 20.7401 6.93704 21.0929 7.18502 21.3948 7.5298 C 22.0112 8.23385 22.1994 9.09539 22.2067 10.1006 C 22.2136 11.0723 22.0497 12.3015 21.8454 13.8337 L 21.4309 16.9422 C 21.2712 18.1401 21.142 19.1096 20.941 19.8688 C 20.7319 20.659 20.423 21.3141 19.8436 21.8215 C 19.2641 22.3288 18.5739 22.5483 17.763 22.6512 C 16.9839 22.75 16.0058 22.75 14.7974 22.75 H 9.20247 C 7.99402 22.75 7.01592 22.75 6.23686 22.6512 C 5.42593 22.5483 4.73571 22.3288 4.15625 21.8215 C 3.57679 21.3141 3.26798 20.659 3.05881 19.8688 C 2.85786 19.1096 2.72861 18.1401 2.56891 16.9422 L 2.15444 13.8337 C 1.95013 12.3015 1.78621 11.0723 1.79318 10.1006 C 1.8004 9.09539 1.98862 8.23385 2.60503 7.5298 C 2.90689 7.18502 3.25976 6.93703 3.65819 6.75728 C 3.59746 5.42494 4.46737 4.24117 5.71004 3.87011 C 5.77292 2.52306 6.80941 1.41104 8.16358 1.26571 C 8.31093 1.2499 8.47949 1.24995 8.69934 1.25001 Z M 7.23209 3.75001 H 16.7676 C 16.6611 3.22633 16.2263 2.8162 15.6761 2.75715 C 15.6198 2.75111 15.5396 2.75001 15.2588 2.75001 H 8.74097 C 8.46012 2.75001 8.37992 2.75111 8.32363 2.75715 C 7.77343 2.8162 7.33861 3.22633 7.23209 3.75001 Z M 5.18083 6.36744 C 6.12317 6.24998 7.3196 6.24999 8.7941 6.25001 H 15.2057 C 16.6802 6.24999 17.8767 6.24998 18.819 6.36744 C 18.6969 5.74074 18.1452 5.25001 17.4618 5.25001 H 6.53801 C 5.85464 5.25001 5.30291 5.74074 5.18083 6.36744 Z M 5.25493 7.87068 C 4.43054 7.98663 4.01357 8.19811 3.7336 8.51788 C 3.45363 8.83766 3.29912 9.27892 3.29314 10.1114 C 3.28702 10.9652 3.43518 12.0897 3.64907 13.6939 L 3.70579 14.1192 L 4.1272 13.814 C 5.21468 13.0264 6.82145 13.0652 7.85563 13.9212 L 11.6938 17.0981 C 12.0566 17.3983 12.6816 17.4544 13.1327 17.192 L 13.3996 17.0368 C 14.6758 16.2944 16.3862 16.3727 17.5638 17.25 L 19.6413 18.7976 C 19.7437 18.2419 19.8355 17.5586 19.9508 16.6939 L 20.3508 13.6939 C 20.5647 12.0897 20.7128 10.9652 20.7067 10.1114 C 20.7007 9.27892 20.5462 8.83766 20.2662 8.51788 C 19.9863 8.19811 19.5693 7.98663 18.7449 7.87068 C 17.8994 7.75177 16.7652 7.75001 15.1468 7.75001 H 8.85302 C 7.23464 7.75001 6.10042 7.75177 5.25493 7.87068 Z M 19.1677 20.3153 L 16.6677 18.4529 C 15.985 17.9444 14.9252 17.8847 14.1538 18.3334 L 13.887 18.4886 C 12.9152 19.0539 11.6044 18.9712 10.7374 18.2536 L 6.89919 15.0767 C 6.4012 14.6645 5.55027 14.6355 5.00705 15.0289 L 3.93098 15.8082 L 4.04907 16.6939 C 4.21706 17.9538 4.33511 18.8285 4.50887 19.4849 C 4.67721 20.1209 4.87533 20.4574 5.14434 20.6929 C 5.41335 20.9284 5.77307 21.0803 6.42568 21.1631 C 7.09932 21.2486 7.98194 21.25 9.25302 21.25 H 14.7468 C 16.0179 21.25 16.9005 21.2486 17.5742 21.1631 C 18.2268 21.0803 18.5865 20.9284 18.8555 20.6929 C 18.9717 20.5912 19.0746 20.4706 19.1677 20.3153 Z M 16.4999 10.75 C 16.0857 10.75 15.7499 11.0858 15.7499 11.5 C 15.7499 11.9142 16.0857 12.25 16.4999 12.25 C 16.9141 12.25 17.2499 11.9142 17.2499 11.5 C 17.2499 11.0858 16.9141 10.75 16.4999 10.75 Z M 14.2499 11.5 C 14.2499 10.2574 15.2573 9.25001 16.4999 9.25001 C 17.7426 9.25001 18.7499 10.2574 18.7499 11.5 C 18.7499 12.7427 17.7426 13.75 16.4999 13.75 C 15.2573 13.75 14.2499 12.7427 14.2499 11.5 Z" fill="#FFFFFF" />
</svg>