<svg xmlns="http://www.w3.org/2000/svg" width="24" height="24" viewBox="0 0 24 24" fill="none">
  <path d="M17.2905 11.9687C17.2905 12.7073 16.6984 13.3062 15.9679 13.3062C15.2374 13.3062 14.6453 12.7073 14.6453 11.9687C14.6453 11.23 15.2374 10.6311 15.9679 10.6311C16.6984 10.6311 17.2905 11.23 17.2905 11.9687Z" fill="#FFFFFF" />
  <path fill-rule="nonzero" clip-rule="nonzero" d="M18.1316 7.40799 C19.0094 7.53283 19.7404 7.80072 20.284 8.42851 C20.8275 9.05629 20.9934 9.82451 20.9998 10.7209 C21.006 11.5872 20.8614 12.6834 20.6813 14.0496 L20.3158 16.8213 C20.175 17.8894 20.061 18.7539 19.8838 19.4309 C19.6994 20.1355 19.4271 20.7197 18.9162 21.172 C18.4052 21.6244 17.7966 21.8201 17.0816 21.9119 C16.3947 22 15.5322 22 14.4667 22 L9.53332 22 C8.46777 22 7.60534 22 6.91841 21.9119 C6.20337 21.8201 5.59477 21.6244 5.08383 21.172 C4.57289 20.7197 4.3006 20.1355 4.11616 19.4309 C3.93897 18.7539 3.825 17.8895 3.68419 16.8214 L3.31873 14.0496 C3.13858 12.6834 2.99404 11.5872 3.00019 10.7209 C3.00655 9.82451 3.17252 9.05629 3.71603 8.42851 C4.25955 7.80072 4.99062 7.53283 5.86839 7.40799 C6.7168 7.28732 7.81031 7.28734 9.17326 7.28736 L14.8267 7.28736 C16.1897 7.28734 17.2832 7.28732 18.1316 7.40799 Z M 6.05259 8.73247 C 5.32568 8.83586 4.95802 9.02442 4.71116 9.30956 C 4.4643 9.5947 4.32805 9.98816 4.32278 10.7305 C 4.31738 11.4918 4.44802 12.4945 4.63662 13.9249 L 4.68663 14.3042 L 5.05822 14.032 C 6.0171 13.3297 7.43388 13.3643 8.34576 14.1275 L 11.7301 16.9603 C 12.0499 17.228 12.6011 17.2781 12.9989 17.0441 L 13.2341 16.9057 C 14.3594 16.2437 15.8676 16.3135 16.9059 17.0958 L 18.7378 18.4758 C 18.8281 17.9802 18.909 17.3709 19.0107 16.5999 L 19.3634 13.9249 C 19.552 12.4945 19.6826 11.4918 19.6772 10.7305 C 19.6719 9.98816 19.5357 9.5947 19.2888 9.30956 C 19.042 9.02442 18.6743 8.83586 17.9474 8.73247 C 17.2019 8.62643 16.2018 8.62487 14.7748 8.62487 H 9.22521 C 7.79821 8.62487 6.7981 8.62643 6.05259 8.73247 Z" fill="#FFFFFF" />
  <path d="M8.85886 2.00001H15.141C15.3502 1.99995 15.5106 1.99991 15.6508 2.01515C16.6479 2.12351 17.4639 2.78957 17.81 3.68676H6.18981C6.53588 2.78957 7.35195 2.12351 8.34899 2.01515C8.48922 1.99991 8.64963 1.99995 8.85886 2.00001Z" fill="#FFFFFF" />
  <path d="M6.87943 4.5C5.62786 4.5 4.60163 5.33974 4.25915 6.45377C4.25201 6.477 4.24517 6.50034 4.23862 6.5238C4.59696 6.40323 4.96989 6.32446 5.34741 6.27068C6.31974 6.13218 7.54855 6.13225 8.97598 6.13234L9.08258 6.13234L15.1789 6.13234C16.6063 6.13225 17.8351 6.13218 18.8074 6.27068C19.185 6.32446 19.5579 6.40323 19.9162 6.5238C19.9097 6.50034 19.9028 6.477 19.8957 6.45377C19.5532 5.33974 18.527 4.5 17.2754 4.5H6.87943Z" fill="#FFFFFF" />
</svg>