<svg xmlns="http://www.w3.org/2000/svg" width="24" height="24" viewBox="0 0 24 24" fill="none">
  <path fill-rule="nonzero" clip-rule="nonzero" d="M3.46447 3.46447 C4.92893 2 7.28595 2 12 2 C16.714 2 19.0711 2 20.5355 3.46447 C22 4.92893 22 7.28595 22 12 C22 16.714 22 19.0711 20.5355 20.5355 C19.0711 22 16.714 22 12 22 C7.28595 22 4.92893 22 3.46447 20.5355 C2 19.0711 2 16.714 2 12 C2 7.28595 2 4.92893 3.46447 3.46447 Z M7.25 12 C7.25 14.6234 9.37665 16.75 12 16.75 C14.6234 16.75 16.75 14.6234 16.75 12 C16.75 9.37665 14.6234 7.25 12 7.25 C9.37665 7.25 7.25 9.37665 7.25 12 Z M 8.75 12 C 8.75 10.2051 10.2051 8.75 12 8.75 C 13.7949 8.75 15.25 10.2051 15.25 12 C 15.25 13.7949 13.7949 15.25 12 15.25 C 10.2051 15.25 8.75 13.7949 8.75 12 Z" fill="#FFFFFF" />
</svg>