<svg xmlns="http://www.w3.org/2000/svg" width="24" height="24" viewBox="0 0 24 24" fill="none">
  <path fill-rule="evenodd" clip-rule="evenodd" d="M12 10.25C12.4142 10.25 12.75 10.5858 12.75 11V12.25H14C14.4142 12.25 14.75 12.5858 14.75 13C14.75 13.4142 14.4142 13.75 14 13.75H12.75V15C12.75 15.4142 12.4142 15.75 12 15.75C11.5858 15.75 11.25 15.4142 11.25 15V13.75H10C9.58579 13.75 9.25 13.4142 9.25 13C9.25 12.5858 9.58579 12.25 10 12.25H11.25V11C11.25 10.5858 11.5858 10.25 12 10.25Z" fill="#FFFFFF" />
  <path fill-rule="nonzero" clip-rule="nonzero" d="M9.77778 21 C6.65675 21 5.09624 21 3.97524 20.2646 C3.48995 19.9462 3.07328 19.5371 2.74902 19.0607 C2 17.9601 2 16.4279 2 13.3636 C2 10.2994 2 8.76721 2.74902 7.6666 C3.07328 7.19014 3.48995 6.78104 3.97524 6.46268 C4.69555 5.99013 5.59733 5.82123 6.978 5.76086 C7.63685 5.76086 8.20412 5.27068 8.33333 4.63636 C8.52715 3.68489 9.37805 3 10.3663 3 L13.6337 3 C14.6219 3 15.4728 3.68489 15.6667 4.63636 C15.7959 5.27068 16.3631 5.76086 17.022 5.76086 C18.4027 5.82123 19.3044 5.99013 20.0248 6.46268 C20.51 6.78104 20.9267 7.19014 21.251 7.6666 C22 8.76721 22 10.2994 22 13.3636 C22 16.4279 22 17.9601 21.251 19.0607 C20.9267 19.5371 20.51 19.9462 20.0248 20.2646 C18.9038 21 17.3433 21 14.2222 21 L9.77778 21 Z M16 13 C16 10.7909 14.2091 9 12 9 C9.79086 9 8 10.7909 8 13 C8 15.2091 9.79086 17 12 17 C14.2091 17 16 15.2091 16 13 Z M 18 9.25 C 17.5858 9.25 17.25 9.58579 17.25 10 C 17.25 10.4142 17.5858 10.75 18 10.75 H 19 C 19.4142 10.75 19.75 10.4142 19.75 10 C 19.75 9.58579 19.4142 9.25 19 9.25 H 18 Z" fill="#FFFFFF" />
</svg>