<svg xmlns="http://www.w3.org/2000/svg" width="24" height="24" viewBox="0 0 24 24" fill="none">
  <path opacity="0.5" d="M12 22C7.28595 22 4.92893 22 3.46447 20.5355C2 19.0711 2 16.714 2 12C2 7.28595 2 4.92893 3.46447 3.46447C4.92893 2 7.28595 2 12 2C16.714 2 19.0711 2 20.5355 3.46447C22 4.92893 22 7.28595 22 12C22 16.714 22 19.0711 20.5355 20.5355C19.0711 22 16.714 22 12 22Z" fill="#FFFFFF" />
  <path fill-rule="nonzero" clip-rule="nonzero" d="M12 7.25 C14.6234 7.25 16.75 9.37665 16.75 12 C16.75 14.6234 14.6234 16.75 12 16.75 C9.37665 16.75 7.25 14.6234 7.25 12 C7.25 9.37665 9.37665 7.25 12 7.25 Z M 12 8.75 C 10.2051 8.75 8.75 10.2051 8.75 12 C 8.75 13.7949 10.2051 15.25 12 15.25 C 13.7949 15.25 15.25 13.7949 15.25 12 C 15.25 10.2051 13.7949 8.75 12 8.75 Z" fill="#FFFFFF" />
</svg>