<svg xmlns="http://www.w3.org/2000/svg" width="24" height="24" viewBox="0 0 24 24" fill="none">
  <path fill-rule="nonzero" clip-rule="nonzero" d="M 7.59843 4.48666 C 7.86525 3.17678 9.03088 2.25 10.3663 2.25 H 13.6337 C 14.9691 2.25 16.1347 3.17678 16.4016 4.48666 C 16.4632 4.78904 16.7371 5.01086 17.022 5.01086 H 17.0384 L 17.0548 5.01157 C 18.4582 5.07294 19.5362 5.24517 20.4362 5.83558 C 21.0032 6.20757 21.4909 6.68617 21.871 7.24464 C 22.3439 7.93947 22.5524 8.73694 22.6524 9.70145 C 22.75 10.6438 22.75 11.825 22.75 13.3211 V 13.4062 C 22.75 14.9023 22.75 16.0835 22.6524 17.0258 C 22.5524 17.9903 22.3439 18.7878 21.871 19.4826 C 21.4909 20.0411 21.0032 20.5197 20.4362 20.8917 C 19.7327 21.3532 18.9262 21.5567 17.948 21.6544 C 16.9903 21.75 15.789 21.75 14.2634 21.75 H 9.73657 C 8.21098 21.75 7.00967 21.75 6.05196 21.6544 C 5.07379 21.5567 4.26731 21.3532 3.56385 20.8917 C 2.99682 20.5197 2.50905 20.0411 2.12899 19.4826 C 1.65612 18.7878 1.44756 17.9903 1.34762 17.0258 C 1.24998 16.0835 1.24999 14.9023 1.25 13.4062 V 13.3211 C 1.24999 11.825 1.24998 10.6438 1.34762 9.70145 C 1.44756 8.73694 1.65612 7.93947 2.12899 7.24464 C 2.50905 6.68617 2.99682 6.20757 3.56385 5.83558 C 4.46383 5.24517 5.5418 5.07294 6.94523 5.01157 L 6.96161 5.01086 H 6.978 C 7.26288 5.01086 7.53683 4.78905 7.59843 4.48666 Z M 10.3663 3.75 C 9.72522 3.75 9.18905 4.19299 9.06824 4.78607 C 8.87258 5.74659 8.021 6.50186 6.99633 6.51078 C 5.64772 6.57069 4.92536 6.73636 4.38664 7.08978 C 3.98309 7.35452 3.63752 7.6941 3.36906 8.08857 C 3.09291 8.49435 2.92696 9.01325 2.83963 9.85604 C 2.75094 10.7121 2.75 11.8156 2.75 13.3636 C 2.75 14.9117 2.75094 16.0152 2.83963 16.8712 C 2.92696 17.714 3.09291 18.2329 3.36906 18.6387 C 3.63752 19.0332 3.98309 19.3728 4.38664 19.6375 C 4.80417 19.9114 5.33844 20.0756 6.20104 20.1618 C 7.07549 20.2491 8.20193 20.25 9.77778 20.25 H 14.2222 C 15.7981 20.25 16.9245 20.2491 17.799 20.1618 C 18.6616 20.0756 19.1958 19.9114 19.6134 19.6375 C 20.0169 19.3728 20.3625 19.0332 20.6309 18.6387 C 20.9071 18.2329 21.073 17.714 21.1604 16.8712 C 21.2491 16.0152 21.25 14.9117 21.25 13.3636 C 21.25 11.8156 21.2491 10.7121 21.1604 9.85604 C 21.073 9.01325 20.9071 8.49435 20.6309 8.08857 C 20.3625 7.6941 20.0169 7.35452 19.6134 7.08978 C 19.0746 6.73636 18.3523 6.57069 17.0037 6.51078 C 15.979 6.50186 15.1274 5.74659 14.9318 4.78607 C 14.8109 4.19299 14.2748 3.75 13.6337 3.75 H 10.3663 Z M 12 10.75 C 10.7574 10.75 9.75 11.7574 9.75 13 C 9.75 14.2426 10.7574 15.25 12 15.25 C 13.2426 15.25 14.25 14.2426 14.25 13 C 14.25 11.7574 13.2426 10.75 12 10.75 Z M 8.25 13 C 8.25 10.9289 9.92893 9.25 12 9.25 C 14.0711 9.25 15.75 10.9289 15.75 13 C 15.75 15.0711 14.0711 16.75 12 16.75 C 9.92893 16.75 8.25 15.0711 8.25 13 Z M 17.25 10 C 17.25 9.58579 17.5858 9.25 18 9.25 H 19 C 19.4142 9.25 19.75 9.58579 19.75 10 C 19.75 10.4142 19.4142 10.75 19 10.75 H 18 C 17.5858 10.75 17.25 10.4142 17.25 10 Z" fill="#FFFFFF" />
</svg>