<svg xmlns="http://www.w3.org/2000/svg" width="24" height="24" viewBox="0 0 24 24" fill="none">
  <path fill-rule="nonzero" clip-rule="nonzero" d="M 14.2222 21 H 9.77778 C 6.65675 21 5.09624 21 3.97524 20.2646 C 3.48995 19.9462 3.07328 19.5371 2.74902 19.0607 C 2 17.9601 2 16.4279 2 13.3636 C 2 10.2994 2 8.76721 2.74902 7.6666 C 3.07328 7.19014 3.48995 6.78104 3.97524 6.46268 C 4.69555 5.99013 5.59733 5.82123 6.978 5.76086 C 7.63685 5.76086 8.20412 5.27068 8.33333 4.63636 C 8.52715 3.68489 9.37805 3 10.3663 3 H 13.6337 C 14.6219 3 15.4728 3.68489 15.6667 4.63636 C 15.7959 5.27068 16.3631 5.76086 17.022 5.76086 C 18.4027 5.82123 19.3044 5.99013 20.0248 6.46268 C 20.51 6.78104 20.9267 7.19014 21.251 7.6666 C 22 8.76721 22 10.2994 22 13.3636 C 22 16.4279 22 17.9601 21.251 19.0607 C 20.9267 19.5371 20.51 19.9462 20.0248 20.2646 C 18.9038 21 17.3433 21 14.2222 21 Z M 15.2697 9.59961 C 15.2697 9.1854 14.9339 8.84961 14.5197 8.84961 C 14.1055 8.84961 13.7697 9.1854 13.7697 9.59961 V 9.74316 C 12.2996 8.99864 10.4581 9.24066 9.22951 10.4692 C 7.69954 11.9992 7.69954 14.4798 9.22951 16.0098 C 10.7595 17.5397 13.2401 17.5397 14.77 16.0098 C 15.421 15.3588 15.7957 14.5337 15.8923 13.6844 C 15.9391 13.2728 15.6434 12.9012 15.2319 12.8544 C 14.8203 12.8076 14.4487 13.1033 14.4019 13.5148 C 14.3422 14.0392 14.112 14.5465 13.7094 14.9491 C 12.7652 15.8933 11.2344 15.8933 10.2902 14.9491 C 9.34598 14.0049 9.34598 12.4741 10.2902 11.5299 C 10.9379 10.8822 11.8617 10.6788 12.6828 10.9198 C 12.3737 11.0637 12.1928 11.4061 12.2661 11.7542 C 12.3515 12.1595 12.7492 12.4189 13.1546 12.3335 L 14.6743 12.0135 C 15.0213 11.9404 15.2697 11.6342 15.2697 11.2796 V 9.59961 Z" fill="#FFFFFF" />
</svg>