<svg xmlns="http://www.w3.org/2000/svg" width="24" height="24" viewBox="0 0 24 24" fill="none">
  <path fill-rule="evenodd" clip-rule="evenodd" d="M8 4C8 3.44772 8.41328 3 8.92308 3H15.0769C15.5867 3 16 3.44772 16 4C16 4.55228 15.5867 5 15.0769 5H8.92308C8.41328 5 8 4.55228 8 4Z" fill="#FFFFFF" />
  <path fill-rule="nonzero" clip-rule="nonzero" d="M9.77778 21 C6.65675 21 5.09624 21 3.97524 20.2777 C3.48995 19.965 3.07328 19.5632 2.74902 19.0953 C2 18.0143 2 16.5095 2 13.4999 L2 13.4979 C2 10.4896 2 8.98547 2.74886 7.90473 C3.07312 7.43676 3.48979 7.03497 3.97508 6.72228 C5.09607 6 6.65659 6 9.77761 6 L14.2221 6 C17.3431 6 18.9036 6 20.0246 6.72228 C20.5099 7.03497 20.9266 7.43676 21.2508 7.90473 C21.9998 8.9857 22 10.4903 22 13.4999 C22 16.5095 22 18.0143 21.251 19.0953 C20.9267 19.5632 20.51 19.965 20.0248 20.2777 C18.9038 21 17.3433 21 14.2222 21 L9.77778 21 Z M7.83333 13.4999 C7.83333 15.7189 9.69881 17.5178 12 17.5178 C14.3012 17.5178 16.1667 15.7189 16.1667 13.4999 C16.1667 11.2808 14.3012 9.48196 12 9.48196 C9.69881 9.48196 7.83333 11.2808 7.83333 13.4999 Z M 9.5 13.4999 C 9.5 12.1685 10.6193 11.0891 12 11.0891 C 13.3807 11.0891 14.5 12.1685 14.5 13.4999 C 14.5 14.8313 13.3807 15.9106 12 15.9106 C 10.6193 15.9106 9.5 14.8313 9.5 13.4999 Z M 18.1111 9.48196 C 17.6509 9.48196 17.2778 9.84174 17.2778 10.2855 C 17.2778 10.7294 17.6509 11.0891 18.1111 11.0891 H 18.6667 C 19.1269 11.0891 19.5 10.7294 19.5 10.2855 C 19.5 9.84174 19.1269 9.48196 18.6667 9.48196 H 18.1111 Z" fill="#FFFFFF" />
</svg>