<svg xmlns="http://www.w3.org/2000/svg" width="24" height="24" viewBox="0 0 24 24" fill="none">
  <path fill-rule="nonzero" clip-rule="nonzero" d="M 7.59843 4.48666 C 7.86525 3.17678 9.03088 2.25 10.3663 2.25 H 13.6337 C 14.9691 2.25 16.1347 3.17678 16.4016 4.48666 C 16.4632 4.78904 16.7371 5.01086 17.022 5.01086 C 17.0329 5.01086 17.0439 5.0111 17.0548 5.01157 C 18.4582 5.07294 19.5362 5.24517 20.4362 5.83558 C 21.0032 6.20757 21.4909 6.68617 21.871 7.24464 C 22.3439 7.93947 22.5524 8.73694 22.6524 9.70145 C 22.75 10.6438 22.75 11.825 22.75 13.3211 V 13.4062 C 22.75 14.9023 22.75 16.0835 22.6524 17.0258 C 22.5524 17.9903 22.3439 18.7878 21.871 19.4826 C 21.4909 20.0411 21.0032 20.5197 20.4362 20.8917 C 19.7327 21.3532 18.9262 21.5567 17.948 21.6544 C 16.9903 21.75 15.789 21.75 14.2634 21.75 H 9.73657 C 8.21098 21.75 7.00967 21.75 6.05196 21.6544 C 5.07379 21.5567 4.26731 21.3532 3.56385 20.8917 C 2.99682 20.5197 2.50905 20.0411 2.12899 19.4826 C 1.65612 18.7878 1.44756 17.9903 1.34762 17.0258 C 1.24998 16.0835 1.24999 14.9023 1.25 13.4062 V 13.3211 C 1.24999 11.825 1.24998 10.6438 1.34762 9.70145 C 1.44756 8.73694 1.65612 7.93947 2.12899 7.24464 C 2.50905 6.68617 2.99682 6.20757 3.56385 5.83558 C 4.46383 5.24517 5.5418 5.07294 6.94523 5.01157 C 6.95615 5.0111 6.96707 5.01086 6.978 5.01086 C 7.26288 5.01086 7.53683 4.78905 7.59843 4.48666 Z M 10.3663 3.75 C 9.72522 3.75 9.18905 4.19299 9.06824 4.78607 C 8.87258 5.74659 8.021 6.50186 6.99633 6.51078 C 5.64772 6.57069 4.92536 6.73636 4.38664 7.08978 C 3.98309 7.35452 3.63752 7.6941 3.36906 8.08857 C 3.09291 8.49435 2.92696 9.01325 2.83963 9.85604 C 2.75094 10.7121 2.75 11.8156 2.75 13.3636 C 2.75 14.9117 2.75094 16.0152 2.83963 16.8712 C 2.92696 17.714 3.09291 18.2329 3.36906 18.6387 C 3.63752 19.0332 3.98309 19.3728 4.38664 19.6375 C 4.80417 19.9114 5.33844 20.0756 6.20104 20.1618 C 7.07549 20.2491 8.20193 20.25 9.77778 20.25 H 14.2222 C 15.7981 20.25 16.9245 20.2491 17.799 20.1618 C 18.6616 20.0756 19.1958 19.9114 19.6134 19.6375 C 20.0169 19.3728 20.3625 19.0332 20.6309 18.6387 C 20.9071 18.2329 21.073 17.714 21.1604 16.8712 C 21.2491 16.0152 21.25 14.9117 21.25 13.3636 C 21.25 11.8156 21.2491 10.7121 21.1604 9.85604 C 21.073 9.01325 20.9071 8.49435 20.6309 8.08857 C 20.3625 7.6941 20.0169 7.35452 19.6134 7.08978 C 19.0746 6.73636 18.3523 6.57069 17.0037 6.51078 C 15.979 6.50186 15.1274 5.74659 14.9318 4.78607 C 14.8109 4.19299 14.2748 3.75 13.6337 3.75 H 10.3663 Z M 14.5197 8.25 C 14.9339 8.25 15.2697 8.58579 15.2697 9 V 10.6799 C 15.2697 11.0346 15.0213 11.3408 14.6742 11.4138 L 13.1545 11.7339 C 12.7492 11.8193 12.3514 11.5599 12.2661 11.1546 C 12.1928 10.8065 12.3737 10.4641 12.6828 10.3202 C 11.8617 10.0792 10.9379 10.2825 10.2902 10.9303 C 9.34597 11.8745 9.34597 13.4053 10.2902 14.3495 C 11.2343 15.2937 12.7652 15.2937 13.7094 14.3495 C 14.112 13.9469 14.3422 13.4396 14.4019 12.9152 C 14.4487 12.5037 14.8203 12.208 15.2319 12.2548 C 15.6434 12.3016 15.9391 12.6732 15.8923 13.0848 C 15.7957 13.9341 15.421 14.7592 14.77 15.4101 C 13.24 16.9401 10.7595 16.9401 9.2295 15.4101 C 7.69953 13.8802 7.69953 11.3996 9.2295 9.86963 C 10.4581 8.64105 12.2996 8.39903 13.7697 9.14355 V 9 C 13.7697 8.58579 14.1055 8.25 14.5197 8.25 Z" fill="#FFFFFF" />
</svg>