<svg xmlns="http://www.w3.org/2000/svg" width="24" height="24" viewBox="0 0 24 24" fill="none">
  <path fill-rule="nonzero" clip-rule="nonzero" d="M9.77778 21 C6.65675 21 5.09624 21 3.97524 20.2646 C3.48995 19.9462 3.07328 19.5371 2.74902 19.0607 C2 17.9601 2 16.4279 2 13.3636 C2 10.2994 2 8.76721 2.74902 7.6666 C3.07328 7.19014 3.48995 6.78104 3.97524 6.46268 C4.69555 5.99013 5.59733 5.82123 6.978 5.76086 C7.63685 5.76086 8.20412 5.27068 8.33333 4.63636 C8.52715 3.68489 9.37805 3 10.3663 3 L13.6337 3 C14.6219 3 15.4728 3.68489 15.6667 4.63636 C15.7959 5.27068 16.3631 5.76086 17.022 5.76086 C18.4027 5.82123 19.3044 5.99013 20.0248 6.46268 C20.51 6.78104 20.9267 7.19014 21.251 7.6666 C22 8.76721 22 10.2994 22 13.3636 C22 16.4279 22 17.9601 21.251 19.0607 C20.9267 19.5371 20.51 19.9462 20.0248 20.2646 C18.9038 21 17.3433 21 14.2222 21 L9.77778 21 Z M 12 9.27273 C 9.69881 9.27273 7.83333 11.1043 7.83333 13.3636 C 7.83333 15.623 9.69881 17.4545 12 17.4545 C 14.3012 17.4545 16.1667 15.623 16.1667 13.3636 C 16.1667 11.1043 14.3012 9.27273 12 9.27273 Z M12 10.9091 C13.3807 10.9091 14.5 12.008 14.5 13.3636 C14.5 14.7192 13.3807 15.8182 12 15.8182 C10.6193 15.8182 9.5 14.7192 9.5 13.3636 C9.5 12.008 10.6193 10.9091 12 10.9091 Z M16.7222 10.0909 C16.7222 10.5428 17.0953 10.9091 17.5556 10.9091 L18.6667 10.9091 C19.1269 10.9091 19.5 10.5428 19.5 10.0909 C19.5 9.63904 19.1269 9.27273 18.6667 9.27273 L17.5556 9.27273 C17.0953 9.27273 16.7222 9.63904 16.7222 10.0909 Z" fill="#FFFFFF" />
</svg>