<svg xmlns="http://www.w3.org/2000/svg" width="24" height="24" viewBox="0 0 24 24" fill="none">
  <path fill-rule="nonzero" clip-rule="nonzero" d="M 11.9426 1.25 H 12.0574 C 14.3658 1.24999 16.1748 1.24998 17.5863 1.43975 C 19.031 1.63399 20.1711 2.03933 21.0659 2.93414 C 21.9607 3.82895 22.366 4.96897 22.5603 6.41371 C 22.75 7.82519 22.75 9.63423 22.75 11.9426 V 12.0574 C 22.75 14.3658 22.75 16.1748 22.5603 17.5863 C 22.366 19.031 21.9607 20.1711 21.0659 21.0659 C 20.1711 21.9607 19.031 22.366 17.5863 22.5603 C 16.1748 22.75 14.3658 22.75 12.0574 22.75 H 11.9426 C 9.63423 22.75 7.82519 22.75 6.41371 22.5603 C 4.96897 22.366 3.82895 21.9607 2.93414 21.0659 C 2.03933 20.1711 1.63399 19.031 1.43975 17.5863 C 1.24998 16.1748 1.24999 14.3658 1.25 12.0574 V 11.9426 C 1.24999 9.63423 1.24998 7.82519 1.43975 6.41371 C 1.63399 4.96897 2.03933 3.82895 2.93414 2.93414 C 3.82895 2.03933 4.96897 1.63399 6.41371 1.43975 C 7.82519 1.24998 9.63423 1.24999 11.9426 1.25 Z M 6.61358 2.92637 C 5.33517 3.09825 4.56445 3.42514 3.9948 3.9948 C 3.42514 4.56445 3.09825 5.33517 2.92637 6.61358 C 2.89922 6.81554 2.87624 7.02735 2.85681 7.25 H 6.58829 L 9.44439 2.76185 C 8.31691 2.77915 7.39205 2.82171 6.61358 2.92637 Z M 11.2072 2.75032 C 11.1886 2.80268 11.1638 2.85379 11.1327 2.90266 L 8.36626 7.25 H 13.0883 L 15.9189 2.80191 C 14.8557 2.7507 13.5747 2.75 12 2.75 C 11.727 2.75 11.4629 2.75002 11.2072 2.75032 Z M 17.5982 2.95698 L 14.8663 7.25 H 21.1432 C 21.1238 7.02735 21.1008 6.81554 21.0736 6.61358 C 20.9018 5.33517 20.5749 4.56445 20.0052 3.9948 C 19.4677 3.45731 18.7512 3.13594 17.5982 2.95698 Z M 21.2233 8.75 H 13.5112 C 13.5033 8.75013 13.4953 8.75013 13.4874 8.75 H 7.01122 C 7.00327 8.75013 6.99532 8.75013 6.98737 8.75 H 2.77672 C 2.75045 9.67173 2.75 10.7422 2.75 12 C 2.75 14.3782 2.75159 16.0864 2.92637 17.3864 C 3.09825 18.6648 3.42514 19.4355 3.9948 20.0052 C 4.56445 20.5749 5.33517 20.9018 6.61358 21.0736 C 7.91356 21.2484 9.62177 21.25 12 21.25 C 14.3782 21.25 16.0864 21.2484 17.3864 21.0736 C 18.6648 20.9018 19.4355 20.5749 20.0052 20.0052 C 20.5749 19.4355 20.9018 18.6648 21.0736 17.3864 C 21.2484 16.0864 21.25 14.3782 21.25 12 C 21.25 10.7422 21.2496 9.67173 21.2233 8.75 Z M 13.3682 11.9212 L 13.4699 11.9868 C 14.0897 12.3866 14.6263 12.7328 15.0004 13.0636 C 15.3983 13.4156 15.75 13.8686 15.75 14.5 C 15.75 15.1314 15.3983 15.5844 15.0004 15.9364 C 14.6263 16.2671 14.0897 16.6133 13.4699 17.0132 L 13.3682 17.0788 C 12.7421 17.4828 12.1979 17.834 11.7459 18.0347 C 11.2756 18.2435 10.673 18.394 10.0982 18.0289 C 9.55356 17.6828 9.38842 17.0922 9.31912 16.5722 C 9.24994 16.053 9.24996 15.3674 9.25 14.5549 V 14.4451 C 9.24996 13.6326 9.24994 12.947 9.31912 12.4278 C 9.38842 11.9078 9.55356 11.3172 10.0982 10.9711 C 10.673 10.606 11.2756 10.7565 11.7459 10.9653 C 12.1979 11.166 12.7421 11.5172 13.3682 11.9212 Z M10.8579 12.2517 C10.8585 12.2525 10.8644 12.2529 10.8737 12.2504 C10.862 12.2496 10.8573 12.2509 10.8579 12.2517 Z M10.8971 12.2532 C10.8749 12.296 10.8362 12.3994 10.806 12.6259 C10.7516 13.0338 10.75 13.6179 10.75 14.5 C10.75 15.3821 10.7516 15.9662 10.806 16.3741 C10.8362 16.6006 10.8749 16.704 10.8971 16.7468 C10.9373 16.7399 11.0119 16.7194 11.1372 16.6638 C11.4688 16.5166 11.9134 16.2323 12.6073 15.7846 C13.2907 15.3436 13.7285 15.0587 14.0066 14.8127 C14.2627 14.5863 14.251 14.5061 14.25 14.4996 C14.251 14.4932 14.2627 14.4137 14.0066 14.1873 C13.7285 13.9413 13.2907 13.6564 12.6073 13.2154 C11.9134 12.7677 11.4688 12.4834 11.1372 12.3362 C11.0119 12.2806 10.9373 12.2601 10.8971 12.2532 Z M10.8579 16.7483 C10.8573 16.7491 10.862 16.7504 10.8737 16.7496 C10.8644 16.7472 10.8585 16.7475 10.8579 16.7483 Z M10.9101 16.7682 C10.9131 16.7722 10.9148 16.7736 10.9149 16.7733 C10.915 16.7731 10.9135 16.7711 10.9101 16.7682 Z M10.9101 12.2318 C10.9135 12.2289 10.915 12.2269 10.9149 12.2267 C10.9148 12.2264 10.9131 12.2278 10.9101 12.2318 Z" fill="#FFFFFF" />
</svg>