<svg xmlns="http://www.w3.org/2000/svg" width="24" height="24" viewBox="0 0 24 24" fill="none">
  <path fill-rule="nonzero" clip-rule="nonzero" d="M 11.9426 1.25 H 12.0574 C 14.3658 1.24999 16.1748 1.24998 17.5863 1.43975 C 19.031 1.63399 20.1711 2.03933 21.0659 2.93414 C 21.9607 3.82895 22.366 4.96897 22.5603 6.41371 C 22.75 7.82519 22.75 9.63423 22.75 11.9426 V 12.0574 C 22.75 14.3658 22.75 16.1748 22.5603 17.5863 C 22.366 19.031 21.9607 20.1711 21.0659 21.0659 C 20.1711 21.9607 19.031 22.366 17.5863 22.5603 C 16.1748 22.75 14.3658 22.75 12.0574 22.75 H 11.9426 C 9.63423 22.75 7.82519 22.75 6.41371 22.5603 C 4.96897 22.366 3.82895 21.9607 2.93414 21.0659 C 2.03933 20.1711 1.63399 19.031 1.43975 17.5863 C 1.24998 16.1748 1.24999 14.3658 1.25 12.0574 V 11.9426 C 1.24999 9.63423 1.24998 7.82519 1.43975 6.41371 C 1.63399 4.96897 2.03933 3.82895 2.93414 2.93414 C 3.82895 2.03933 4.96897 1.63399 6.41371 1.43975 C 7.82519 1.24998 9.63423 1.24999 11.9426 1.25 Z M 6.61358 2.92637 C 5.33517 3.09825 4.56445 3.42514 3.9948 3.9948 C 3.42514 4.56445 3.09825 5.33517 2.92637 6.61358 C 2.89922 6.81554 2.87624 7.02735 2.85681 7.25 H 6.58829 L 9.44439 2.76185 C 8.31691 2.77915 7.39205 2.82171 6.61358 2.92637 Z M 11.2072 2.75032 C 11.1886 2.80268 11.1638 2.85379 11.1327 2.90266 L 8.36626 7.25 H 13.0883 L 15.9189 2.80191 C 14.8557 2.7507 13.5747 2.75 12 2.75 C 11.727 2.75 11.4629 2.75002 11.2072 2.75032 Z M 17.5982 2.95698 L 14.8663 7.25 H 21.1432 C 21.1238 7.02735 21.1008 6.81554 21.0736 6.61358 C 20.9018 5.33517 20.5749 4.56445 20.0052 3.9948 C 19.4677 3.45731 18.7512 3.13594 17.5982 2.95698 Z M 21.2233 8.75 H 13.5112 C 13.5033 8.75013 13.4953 8.75013 13.4874 8.75 H 7.01122 C 7.00327 8.75013 6.99532 8.75013 6.98737 8.75 H 2.77672 C 2.75045 9.67173 2.75 10.7422 2.75 12 C 2.75 14.3782 2.75159 16.0864 2.92637 17.3864 C 3.09825 18.6648 3.42514 19.4355 3.9948 20.0052 C 4.56445 20.5749 5.33517 20.9018 6.61358 21.0736 C 7.91356 21.2484 9.62177 21.25 12 21.25 C 14.3782 21.25 16.0864 21.2484 17.3864 21.0736 C 18.6648 20.9018 19.4355 20.5749 20.0052 20.0052 C 20.5749 19.4355 20.9018 18.6648 21.0736 17.3864 C 21.2484 16.0864 21.25 14.3782 21.25 12 C 21.25 10.7422 21.2496 9.67173 21.2233 8.75 Z" fill="#FFFFFF" />
</svg>