<svg xmlns="http://www.w3.org/2000/svg" width="24" height="24" viewBox="0 0 24 24" fill="none">
  <path d="M12 2C13.8452 2 15.3293 2 16.5401 2.08783L13.0986 7.25002H8.40139L11.9014 2H12Z" fill="#FFFFFF" />
  <path d="M3.46447 3.46447C4.71683 2.2121 6.62194 2.03072 10.0957 2.00445L6.59861 7.25002H2.10418C2.25143 5.48593 2.6068 4.32213 3.46447 3.46447Z" fill="#FFFFFF" />
  <path fill-rule="nonzero" clip-rule="nonzero" d="M 2 12 C 2 10.7633 2 9.68875 2.02644 8.75002 H 21.9736 C 22 9.68875 22 10.7633 22 12 C 22 16.714 22 19.0711 20.5355 20.5355 C 19.0711 22 16.714 22 12 22 C 7.28595 22 4.92893 22 3.46447 20.5355 C 2 19.0711 2 16.714 2 12 Z M13.014 12.5852 C11.6719 11.7193 11.0008 11.2863 10.5004 11.6042 C10 11.9221 10 12.7814 10 14.5 C10 16.2186 10 17.0779 10.5004 17.3958 C11.0008 17.7137 11.6719 17.2807 13.014 16.4148 C14.338 15.5605 15 15.1334 15 14.5 C15 13.8666 14.338 13.4395 13.014 12.5852 Z" fill="#FFFFFF" />
  <path d="M21.8958 7.25002C21.7486 5.48593 21.3932 4.32213 20.5355 3.46447C19.9382 2.86714 19.1924 2.51345 18.1987 2.30403L14.9014 7.25002H21.8958Z" fill="#FFFFFF" />
</svg>