<svg xmlns="http://www.w3.org/2000/svg" width="24" height="24" viewBox="0 0 24 24" fill="none">
  <path d="M16.5401 2.08783C15.3293 2 13.8452 2 12 2H11.9014L8.40139 7.25002H13.0986L16.5401 2.08783Z" fill="#FFFFFF" />
  <path d="M10.0957 2.00445C6.62194 2.03072 4.71683 2.2121 3.46447 3.46447C2.6068 4.32213 2.25143 5.48593 2.10418 7.25002H6.59861L10.0957 2.00445Z" fill="#FFFFFF" />
  <path fill-rule="nonzero" clip-rule="nonzero" d="M2.02644 8.75002 L21.9736 8.75002 C22 9.68875 22 10.7633 22 12 C22 16.714 22 19.0711 20.5355 20.5355 C19.0711 22 16.714 22 12 22 C7.28595 22 4.92893 22 3.46447 20.5355 C2 19.0711 2 16.714 2 12 C2 10.7633 2 9.68875 2.02644 8.75002 Z M5.75 14 C5.75 14.4142 6.08579 14.75 6.5 14.75 L14.5 14.75 C14.9142 14.75 15.25 14.4142 15.25 14 C15.25 13.5858 14.9142 13.25 14.5 13.25 L6.5 13.25 C6.08579 13.25 5.75 13.5858 5.75 14 Z M 6.5 16.75 C 6.08579 16.75 5.75 17.0858 5.75 17.5 C 5.75 17.9142 6.08579 18.25 6.5 18.25 H 12 C 12.4142 18.25 12.75 17.9142 12.75 17.5 C 12.75 17.0858 12.4142 16.75 12 16.75 H 6.5 Z" fill="#FFFFFF" />
  <path d="M20.5355 3.46447C21.3932 4.32213 21.7486 5.48593 21.8958 7.25002H14.9014L18.1987 2.30403C19.1924 2.51345 19.9382 2.86714 20.5355 3.46447Z" fill="#FFFFFF" />
</svg>