<svg xmlns="http://www.w3.org/2000/svg" width="24" height="24" viewBox="0 0 24 24" fill="none">
  <path fill-rule="nonzero" clip-rule="nonzero" d="M 11.9426 1.25 H 12.0574 C 14.3658 1.24999 16.1748 1.24998 17.5863 1.43975 C 19.031 1.63399 20.1711 2.03933 21.0659 2.93414 C 21.859 3.72729 22.2687 4.71445 22.4865 5.93898 C 22.7006 7.14188 22.7398 8.63844 22.7479 10.4967 C 22.7497 10.9109 22.4154 11.2482 22.0012 11.25 C 21.587 11.2518 21.2498 10.9175 21.2479 10.5033 C 21.2451 9.86262 21.2384 9.2807 21.2232 8.75 H 13.5112 C 13.5033 8.75013 13.4953 8.75013 13.4874 8.75 H 7.01122 C 7.00327 8.75013 6.99532 8.75013 6.98737 8.75 H 2.77672 C 2.75045 9.67173 2.75 10.7422 2.75 12 C 2.75 14.3782 2.75159 16.0864 2.92637 17.3864 C 3.09825 18.6648 3.42514 19.4355 3.9948 20.0052 C 4.47928 20.4897 5.10692 20.7966 6.06179 20.9836 C 7.03759 21.1747 8.2972 21.2303 10.0064 21.2448 C 10.4206 21.2483 10.7535 21.5869 10.75 22.0011 C 10.7465 22.4153 10.4078 22.7483 9.99364 22.7448 C 8.28967 22.7303 6.90193 22.6767 5.77345 22.4556 C 4.62404 22.2305 3.69048 21.8222 2.93414 21.0659 C 2.03933 20.1711 1.63399 19.031 1.43975 17.5863 C 1.24998 16.1748 1.24999 14.3658 1.25 12.0574 V 11.9426 C 1.24999 9.63423 1.24998 7.82519 1.43975 6.41371 C 1.63399 4.96897 2.03933 3.82895 2.93414 2.93414 C 3.82895 2.03933 4.96897 1.63399 6.41371 1.43975 C 7.82519 1.24998 9.63423 1.24999 11.9426 1.25 Z M 2.85681 7.25 H 6.58829 L 9.44439 2.76185 C 8.31691 2.77915 7.39205 2.82171 6.61358 2.92637 C 5.33517 3.09825 4.56445 3.42514 3.9948 3.9948 C 3.42514 4.56445 3.09825 5.33517 2.92637 6.61358 C 2.89922 6.81554 2.87624 7.02735 2.85681 7.25 Z M 11.2072 2.75032 C 11.1886 2.80268 11.1638 2.85379 11.1327 2.90266 L 8.36626 7.25 H 13.0883 L 15.9189 2.80191 C 14.8557 2.7507 13.5747 2.75 12 2.75 C 11.727 2.75 11.4629 2.75002 11.2072 2.75032 Z M 17.5982 2.95698 L 14.8663 7.25 H 21.1432 C 21.11 6.86849 21.0665 6.52079 21.0097 6.20174 C 20.8255 5.16648 20.5122 4.50178 20.0052 3.9948 C 19.4677 3.45731 18.7512 3.13594 17.5982 2.95698 Z M 18.4488 12.988 C 19.4328 12.004 21.0281 12.004 22.012 12.988 C 22.996 13.9719 22.996 15.5672 22.012 16.5512 L 17.7302 20.833 C 17.4994 21.0639 17.3387 21.2246 17.1585 21.3652 C 16.9467 21.5304 16.7175 21.6721 16.4749 21.7877 C 16.2686 21.886 16.0531 21.9578 15.7434 22.061 L 13.8653 22.687 C 13.4243 22.834 12.9381 22.7192 12.6095 22.3905 C 12.2808 22.0619 12.166 21.5757 12.313 21.1347 L 12.939 19.2567 C 13.0422 18.947 13.114 18.7314 13.2123 18.5251 C 13.3279 18.2826 13.4696 18.0533 13.6348 17.8415 C 13.7753 17.6613 13.936 17.5006 14.1669 17.2698 L 18.4488 12.988 Z M 20.9514 14.0486 C 20.5532 13.6505 19.9076 13.6505 19.5095 14.0486 L 19.3777 14.1803 C 19.3829 14.1966 19.3885 14.2133 19.3944 14.2305 C 19.4762 14.4661 19.6315 14.7784 19.9266 15.0734 C 20.2216 15.3685 20.5339 15.5238 20.7695 15.6056 C 20.7867 15.6115 20.8034 15.6171 20.8197 15.6223 L 20.9514 15.4905 C 21.3495 15.0924 21.3495 14.4468 20.9514 14.0486 Z M 19.6857 16.7562 C 19.4193 16.6068 19.1372 16.4054 18.8659 16.1341 C 18.5946 15.8628 18.3932 15.5807 18.2438 15.3143 L 15.2578 18.3003 C 14.9856 18.5725 14.8944 18.6655 14.8176 18.764 C 14.7193 18.8899 14.6351 19.0262 14.5664 19.1704 C 14.5127 19.2831 14.4703 19.4063 14.3485 19.7715 L 14.0029 20.8084 L 14.1916 20.9971 L 15.2285 20.6515 C 15.5937 20.5297 15.7169 20.4873 15.8296 20.4336 C 15.9738 20.3649 16.1101 20.2807 16.236 20.1824 C 16.3345 20.1056 16.4275 20.0144 16.6997 19.7422 L 19.6857 16.7562 Z" fill="#FFFFFF" />
</svg>