<svg xmlns="http://www.w3.org/2000/svg" width="24" height="24" viewBox="0 0 24 24" fill="none">
  <path d="M12 2C13.8452 2 15.3293 2 16.5401 2.08783L13.0986 7.25002H8.40139L11.9014 2H12Z" fill="#FFFFFF" />
  <path d="M3.46447 3.46447C4.71683 2.2121 6.62194 2.03072 10.0957 2.00445L6.59861 7.25002H2.10418C2.25143 5.48593 2.6068 4.32213 3.46447 3.46447Z" fill="#FFFFFF" />
  <path d="M2 12C2 10.7633 2 9.68875 2.02644 8.75002H21.9736C22 9.68875 22 10.7633 22 12C22 12.0867 22 12.1727 22 12.2579C21.4335 11.8534 20.7946 11.6799 20.1687 11.5958C19.4552 11.4998 18.5736 11.4999 17.5924 11.5H17.4076C16.4264 11.4999 15.5448 11.4998 14.8313 11.5958C14.0522 11.7005 13.253 11.9437 12.5984 12.5984C11.9437 13.253 11.7005 14.0522 11.5958 14.8313C11.4998 15.5448 11.4999 16.4264 11.5 17.4076V17.5924C11.4999 18.5736 11.4998 19.4552 11.5958 20.1687C11.6799 20.7946 11.8534 21.4335 12.2579 22C12.1727 22 12.0867 22 12 22C7.28595 22 4.92893 22 3.46447 20.5355C2 19.0711 2 16.714 2 12Z" fill="#FFFFFF" />
  <path d="M21.8958 7.25002C21.7486 5.48593 21.3932 4.32213 20.5355 3.46447C19.9382 2.86714 19.1924 2.51345 18.1987 2.30403L14.9014 7.25002H21.8958Z" fill="#FFFFFF" />
  <path fill-rule="nonzero" clip-rule="nonzero" d="M 17.5 22 C 15.3787 22 14.318 22 13.659 21.341 C 13 20.682 13 19.6213 13 17.5 C 13 15.3787 13 14.318 13.659 13.659 C 14.318 13 15.3787 13 17.5 13 C 19.6213 13 20.682 13 21.341 13.659 C 22 14.318 22 15.3787 22 17.5 C 22 19.6213 22 20.682 21.341 21.341 C 20.682 22 19.6213 22 17.5 22 Z M19.7121 15.2879 C19.3281 14.904 18.7057 14.904 18.3217 15.2879 L18.2639 15.3458 C18.2081 15.4016 18.1828 15.4795 18.1968 15.5572 C18.2055 15.6061 18.2218 15.6775 18.2514 15.7628 C18.3105 15.9332 18.4222 16.157 18.6326 16.3674 C18.843 16.5778 19.0668 16.6895 19.2372 16.7486 C19.3225 16.7782 19.3939 16.7945 19.4428 16.8032 C19.5205 16.8172 19.5984 16.7919 19.6542 16.7361 L19.7121 16.6783 C20.096 16.2943 20.096 15.6719 19.7121 15.2879 Z M17.35 19.0403 L19.1488 17.2415 C19.1923 17.198 19.1724 17.1231 19.1143 17.1029 C18.902 17.0293 18.6258 16.891 18.3674 16.6326 C18.109 16.3742 17.9707 16.098 17.8971 15.8857 C17.8769 15.8276 17.802 15.8077 17.7585 15.8512 L15.9597 17.65 C15.8154 17.7943 15.7433 17.8664 15.6812 17.946 C15.608 18.0398 15.5453 18.1413 15.4941 18.2488 C15.4507 18.3398 15.4184 18.4366 15.3539 18.6302 L15.0136 19.651 C14.9819 19.7463 15.0067 19.8513 15.0777 19.9223 C15.1487 19.9933 15.2537 20.0181 15.349 19.9864 L16.3698 19.6461 C16.5634 19.5816 16.6602 19.5493 16.7512 19.5059 C16.8587 19.4547 16.9602 19.392 17.054 19.3188 C17.1336 19.2567 17.2057 19.1846 17.35 19.0403 Z" fill="#FFFFFF" />
</svg>