<svg xmlns="http://www.w3.org/2000/svg" width="24" height="24" viewBox="0 0 24 24" fill="none">
  <path fill-rule="nonzero" clip-rule="nonzero" d="M 12 2.75 C 6.89137 2.75 2.75 6.89137 2.75 12 C 2.75 17.1086 6.89137 21.25 12 21.25 C 17.1086 21.25 21.25 17.1086 21.25 12 C 21.25 6.89137 17.1086 2.75 12 2.75 Z M 1.25 12 C 1.25 6.06294 6.06294 1.25 12 1.25 C 17.9371 1.25 22.75 6.06294 22.75 12 C 22.75 17.9371 17.9371 22.75 12 22.75 C 6.06294 22.75 1.25 17.9371 1.25 12 Z M 10.7474 5.99364 C 10.7509 6.40784 10.4179 6.74646 10.0038 6.74997 C 9.14788 6.75723 8.55011 6.7855 8.10037 6.8736 C 7.67158 6.95759 7.43423 7.08568 7.25996 7.25996 C 7.08568 7.43423 6.95759 7.67158 6.8736 8.10037 C 6.7855 8.55011 6.75723 9.14788 6.74997 10.0038 C 6.74646 10.4179 6.40784 10.7509 5.99364 10.7474 C 5.57944 10.7439 5.24652 10.4052 5.25003 9.99103 C 5.25724 9.14035 5.28357 8.41444 5.40157 7.81203 C 5.52367 7.18869 5.75316 6.64543 6.1993 6.1993 C 6.64543 5.75316 7.18869 5.52367 7.81203 5.40157 C 8.41444 5.28357 9.14035 5.25724 9.99103 5.25003 C 10.4052 5.24652 10.7439 5.57944 10.7474 5.99364 Z M 13.2502 5.99364 C 13.2537 5.57944 13.5923 5.24652 14.0065 5.25003 C 14.8572 5.25724 15.5831 5.28357 16.1855 5.40157 C 16.8089 5.52367 17.3521 5.75316 17.7983 6.1993 C 18.2444 6.64543 18.4739 7.18869 18.596 7.81203 C 18.714 8.41444 18.7403 9.14035 18.7475 9.99103 C 18.751 10.4052 18.4181 10.7439 18.0039 10.7474 C 17.5897 10.7509 17.2511 10.4179 17.2476 10.0038 C 17.2403 9.14788 17.2121 8.55011 17.124 8.10037 C 17.04 7.67158 16.9119 7.43423 16.7376 7.25996 C 16.5633 7.08568 16.326 6.95759 15.8972 6.8736 C 15.4475 6.7855 14.8497 6.75723 13.9938 6.74997 C 13.5796 6.74646 13.2467 6.40784 13.2502 5.99364 Z M 5.99364 13.2502 C 6.40784 13.2467 6.74646 13.5796 6.74997 13.9938 C 6.75723 14.8497 6.7855 15.4475 6.8736 15.8972 C 6.95759 16.326 7.08568 16.5633 7.25996 16.7376 C 7.43423 16.9119 7.67158 17.04 8.10037 17.124 C 8.55011 17.2121 9.14788 17.2403 10.0038 17.2476 C 10.4179 17.2511 10.7509 17.5897 10.7474 18.0039 C 10.7439 18.4181 10.4052 18.751 9.99103 18.7475 C 9.14035 18.7403 8.41444 18.714 7.81203 18.596 C 7.18869 18.4739 6.64543 18.2444 6.1993 17.7983 C 5.75316 17.3521 5.52367 16.8089 5.40157 16.1855 C 5.28357 15.5831 5.25724 14.8572 5.25003 14.0065 C 5.24652 13.5923 5.57944 13.2537 5.99364 13.2502 Z M 18.0039 13.2502 C 18.4181 13.2537 18.751 13.5923 18.7475 14.0065 C 18.7403 14.8572 18.714 15.5831 18.596 16.1855 C 18.4739 16.8089 18.2444 17.3521 17.7983 17.7983 C 17.3521 18.2444 16.8089 18.4739 16.1855 18.596 C 15.5831 18.714 14.8572 18.7403 14.0065 18.7475 C 13.5923 18.751 13.2537 18.4181 13.2502 18.0039 C 13.2467 17.5897 13.5796 17.2511 13.9938 17.2476 C 14.8497 17.2403 15.4475 17.2121 15.8972 17.124 C 16.326 17.04 16.5633 16.9119 16.7376 16.7376 C 16.9119 16.5633 17.04 16.326 17.124 15.8972 C 17.2121 15.4475 17.2403 14.8497 17.2476 13.9938 C 17.2511 13.5796 17.5897 13.2467 18.0039 13.2502 Z" fill="#FFFFFF" />
</svg>