<svg xmlns="http://www.w3.org/2000/svg" width="24" height="24" viewBox="0 0 24 24" fill="none">
  <path fill-rule="nonzero" clip-rule="nonzero" d="M 9.94358 1.25 L 10 1.25 C 10.4142 1.25 10.75 1.58579 10.75 2 C 10.75 2.41421 10.4142 2.75 10 2.75 C 8.09318 2.75 6.73851 2.75159 5.71085 2.88976 C 4.70476 3.02502 4.12511 3.27869 3.7019 3.7019 C 3.27869 4.12511 3.02502 4.70476 2.88976 5.71085 C 2.75159 6.73851 2.75 8.09318 2.75 10 C 2.75 10.4142 2.41421 10.75 2 10.75 C 1.58579 10.75 1.25 10.4142 1.25 10 L 1.25 9.94358 C 1.24998 8.10582 1.24997 6.65019 1.40314 5.51098 C 1.56076 4.33856 1.89288 3.38961 2.64124 2.64124 C 3.38961 1.89288 4.33856 1.56076 5.51098 1.40314 C 6.65019 1.24997 8.10582 1.24998 9.94358 1.25 Z M 18.2892 2.88976 C 17.2615 2.75159 15.9068 2.75 14 2.75 C 13.5858 2.75 13.25 2.41421 13.25 2 C 13.25 1.58579 13.5858 1.25 14 1.25 L 14.0564 1.25 C 15.8942 1.24998 17.3498 1.24997 18.489 1.40314 C 19.6614 1.56076 20.6104 1.89288 21.3588 2.64124 C 22.1071 3.38961 22.4392 4.33856 22.5969 5.51098 C 22.75 6.65019 22.75 8.10583 22.75 9.94359 V 10 C 22.75 10.4142 22.4142 10.75 22 10.75 C 21.5858 10.75 21.25 10.4142 21.25 10 C 21.25 8.09318 21.2484 6.73851 21.1102 5.71085 C 20.975 4.70476 20.7213 4.12511 20.2981 3.7019 C 19.8749 3.27869 19.2952 3.02502 18.2892 2.88976 Z M 2 13.25 C 2.41421 13.25 2.75 13.5858 2.75 14 C 2.75 15.9068 2.75159 17.2615 2.88976 18.2892 C 3.02502 19.2952 3.27869 19.8749 3.7019 20.2981 C 4.12511 20.7213 4.70476 20.975 5.71085 21.1102 C 6.73851 21.2484 8.09318 21.25 10 21.25 C 10.4142 21.25 10.75 21.5858 10.75 22 C 10.75 22.4142 10.4142 22.75 10 22.75 H 9.94359 C 8.10583 22.75 6.65019 22.75 5.51098 22.5969 C 4.33856 22.4392 3.38961 22.1071 2.64124 21.3588 C 1.89288 20.6104 1.56076 19.6614 1.40314 18.489 C 1.24997 17.3498 1.24998 15.8942 1.25 14.0564 L 1.25 14 C 1.25 13.5858 1.58579 13.25 2 13.25 Z M 22 13.25 C 22.4142 13.25 22.75 13.5858 22.75 14 V 14.0564 C 22.75 15.8942 22.75 17.3498 22.5969 18.489 C 22.4392 19.6614 22.1071 20.6104 21.3588 21.3588 C 20.6104 22.1071 19.6614 22.4392 18.489 22.5969 C 17.3498 22.75 15.8942 22.75 14.0564 22.75 H 14 C 13.5858 22.75 13.25 22.4142 13.25 22 C 13.25 21.5858 13.5858 21.25 14 21.25 C 15.9068 21.25 17.2615 21.2484 18.2892 21.1102 C 19.2952 20.975 19.8749 20.7213 20.2981 20.2981 C 20.7213 19.8749 20.975 19.2952 21.1102 18.2892 C 21.2484 17.2615 21.25 15.9068 21.25 14 C 21.25 13.5858 21.5858 13.25 22 13.25 Z" fill="#FFFFFF" />
</svg>