<svg xmlns="http://www.w3.org/2000/svg" width="24" height="24" viewBox="0 0 24 24" fill="none">
  <path fill-rule="nonzero" clip-rule="nonzero" d="M 11.9426 1.25 H 12.0574 C 14.3658 1.24999 16.1748 1.24998 17.5863 1.43975 C 19.031 1.63399 20.1711 2.03933 21.0659 2.93414 C 21.9607 3.82895 22.366 4.96897 22.5603 6.41371 C 22.75 7.82519 22.75 9.63423 22.75 11.9426 V 12.0574 C 22.75 14.3658 22.75 16.1748 22.5603 17.5863 C 22.366 19.031 21.9607 20.1711 21.0659 21.0659 C 20.1711 21.9607 19.031 22.366 17.5863 22.5603 C 16.1748 22.75 14.3658 22.75 12.0574 22.75 H 11.9426 C 9.63423 22.75 7.82519 22.75 6.41371 22.5603 C 4.96897 22.366 3.82895 21.9607 2.93414 21.0659 C 2.03933 20.1711 1.63399 19.031 1.43975 17.5863 C 1.24998 16.1748 1.24999 14.3658 1.25 12.0574 V 11.9426 C 1.24999 9.63423 1.24998 7.82519 1.43975 6.41371 C 1.63399 4.96897 2.03933 3.82895 2.93414 2.93414 C 3.82895 2.03933 4.96897 1.63399 6.41371 1.43975 C 7.82519 1.24998 9.63423 1.24999 11.9426 1.25 Z M 6.61358 2.92637 C 5.33517 3.09825 4.56445 3.42514 3.9948 3.9948 C 3.42514 4.56445 3.09825 5.33517 2.92637 6.61358 C 2.75159 7.91356 2.75 9.62177 2.75 12 C 2.75 14.3782 2.75159 16.0864 2.92637 17.3864 C 3.09825 18.6648 3.42514 19.4355 3.9948 20.0052 C 4.56445 20.5749 5.33517 20.9018 6.61358 21.0736 C 7.91356 21.2484 9.62177 21.25 12 21.25 C 14.3782 21.25 16.0864 21.2484 17.3864 21.0736 C 18.6648 20.9018 19.4355 20.5749 20.0052 20.0052 C 20.5749 19.4355 20.9018 18.6648 21.0736 17.3864 C 21.2484 16.0864 21.25 14.3782 21.25 12 C 21.25 9.62177 21.2484 7.91356 21.0736 6.61358 C 20.9018 5.33517 20.5749 4.56445 20.0052 3.9948 C 19.4355 3.42514 18.6648 3.09825 17.3864 2.92637 C 16.0864 2.75159 14.3782 2.75 12 2.75 C 9.62177 2.75 7.91356 2.75159 6.61358 2.92637 Z M 10.7474 5.99364 C 10.7509 6.40784 10.4179 6.74646 10.0038 6.74997 C 9.14788 6.75723 8.55011 6.7855 8.10037 6.8736 C 7.67158 6.95759 7.43423 7.08568 7.25996 7.25996 C 7.08568 7.43423 6.95759 7.67158 6.8736 8.10037 C 6.7855 8.55011 6.75723 9.14788 6.74997 10.0038 C 6.74646 10.4179 6.40784 10.7509 5.99364 10.7474 C 5.57944 10.7439 5.24652 10.4052 5.25003 9.99103 C 5.25724 9.14035 5.28357 8.41444 5.40157 7.81203 C 5.52367 7.18869 5.75316 6.64543 6.1993 6.1993 C 6.64543 5.75316 7.18869 5.52367 7.81203 5.40157 C 8.41444 5.28357 9.14035 5.25724 9.99103 5.25003 C 10.4052 5.24652 10.7439 5.57944 10.7474 5.99364 Z M 13.2502 5.99364 C 13.2537 5.57944 13.5923 5.24652 14.0065 5.25003 C 14.8572 5.25724 15.5831 5.28357 16.1855 5.40157 C 16.8089 5.52367 17.3521 5.75316 17.7983 6.1993 C 18.2444 6.64543 18.4739 7.18869 18.596 7.81203 C 18.714 8.41444 18.7403 9.14035 18.7475 9.99103 C 18.751 10.4052 18.4181 10.7439 18.0039 10.7474 C 17.5897 10.7509 17.2511 10.4179 17.2476 10.0038 C 17.2403 9.14788 17.2121 8.55011 17.124 8.10037 C 17.04 7.67158 16.9119 7.43423 16.7376 7.25996 C 16.5633 7.08568 16.326 6.95759 15.8972 6.8736 C 15.4475 6.7855 14.8497 6.75723 13.9938 6.74997 C 13.5796 6.74646 13.2467 6.40784 13.2502 5.99364 Z M 5.99364 13.2502 C 6.40784 13.2467 6.74646 13.5796 6.74997 13.9938 C 6.75723 14.8497 6.7855 15.4475 6.8736 15.8972 C 6.95759 16.326 7.08568 16.5633 7.25996 16.7376 C 7.43423 16.9119 7.67158 17.04 8.10037 17.124 C 8.55011 17.2121 9.14788 17.2403 10.0038 17.2476 C 10.4179 17.2511 10.7509 17.5897 10.7474 18.0039 C 10.7439 18.4181 10.4052 18.751 9.99103 18.7475 C 9.14035 18.7403 8.41444 18.714 7.81203 18.596 C 7.18869 18.4739 6.64543 18.2444 6.1993 17.7983 C 5.75316 17.3521 5.52367 16.8089 5.40157 16.1855 C 5.28357 15.5831 5.25724 14.8572 5.25003 14.0065 C 5.24652 13.5923 5.57944 13.2537 5.99364 13.2502 Z M 18.0039 13.2502 C 18.4181 13.2537 18.751 13.5923 18.7475 14.0065 C 18.7403 14.8572 18.714 15.5831 18.596 16.1855 C 18.4739 16.8089 18.2444 17.3521 17.7983 17.7983 C 17.3521 18.2444 16.8089 18.4739 16.1855 18.596 C 15.5831 18.714 14.8572 18.7403 14.0065 18.7475 C 13.5923 18.751 13.2537 18.4181 13.2502 18.0039 C 13.2467 17.5897 13.5796 17.2511 13.9938 17.2476 C 14.8497 17.2403 15.4475 17.2121 15.8972 17.124 C 16.326 17.04 16.5633 16.9119 16.7376 16.7376 C 16.9119 16.5633 17.04 16.326 17.124 15.8972 C 17.2121 15.4475 17.2403 14.8497 17.2476 13.9938 C 17.2511 13.5796 17.5897 13.2467 18.0039 13.2502 Z" fill="#FFFFFF" />
</svg>