<svg xmlns="http://www.w3.org/2000/svg" width="24" height="24" viewBox="0 0 24 24" fill="none">
  <path fill-rule="nonzero" clip-rule="nonzero" d="M3.46447 3.46447 C4.92893 2 7.28595 2 12 2 C16.714 2 19.0711 2 20.5355 3.46447 C22 4.92893 22 7.28595 22 12 C22 16.714 22 19.0711 20.5355 20.5355 C19.0711 22 16.714 22 12 22 C7.28595 22 4.92893 22 3.46447 20.5355 C2 19.0711 2 16.714 2 12 C2 7.28595 2 4.92893 3.46447 3.46447 Z M 16 10 C 17.1046 10 18 9.10457 18 8 C 18 6.89543 17.1046 6 16 6 C 14.8954 6 14 6.89543 14 8 C 14 9.10457 14.8954 10 16 10 Z M 6.32092 13.1038 C 6.94501 12.5241 7.91991 12.5566 8.50397 13.1766 L 11.1515 15.9869 C 11.9509 16.8356 13.2596 16.9499 14.1941 16.2527 C 14.8073 15.7953 15.661 15.8473 16.2141 16.3757 L 18.4819 18.5423 C 18.7814 18.8284 19.2562 18.8176 19.5423 18.5181 C 19.8284 18.2186 19.8176 17.7438 19.5181 17.4577 L 17.2503 15.2911 C 16.1679 14.257 14.4971 14.1553 13.2972 15.0504 C 12.9735 15.2919 12.5202 15.2523 12.2433 14.9584 L 9.59579 12.1481 C 8.44651 10.9281 6.52816 10.8641 5.3001 12.0047 L 4.4896 12.7575 C 4.1861 13.0394 4.16858 13.5139 4.45047 13.8174 C 4.73236 14.1209 5.20691 14.1385 5.51041 13.8566 L 6.32092 13.1038 Z" fill="#FFFFFF" />
</svg>