<svg xmlns="http://www.w3.org/2000/svg" width="24" height="24" viewBox="0 0 24 24" fill="none">
  <path fill-rule="nonzero" clip-rule="nonzero" d="M 11.9427 1.25 H 12.0575 C 14.3659 1.24999 16.1749 1.24998 17.5864 1.43975 C 19.0311 1.63399 20.1712 2.03933 21.066 2.93414 C 21.9608 3.82895 22.3661 4.96897 22.5603 6.41371 C 22.7501 7.82519 22.7501 9.63423 22.7501 11.9426 V 12.0574 C 22.7501 12.5023 22.7501 12.9287 22.7487 13.3372 C 22.7508 13.3696 22.7507 13.4025 22.7484 13.4356 C 22.7419 15.1021 22.7106 16.4688 22.5603 17.5863 C 22.3661 19.031 21.9608 20.1711 21.066 21.0659 C 20.1712 21.9607 19.0311 22.366 17.5864 22.5603 C 16.8486 22.6594 16.0023 22.7068 15.0327 22.7294 C 14.9408 22.7515 14.8431 22.7566 14.7438 22.7414 C 14.7332 22.7398 14.7228 22.7379 14.7124 22.7359 C 13.9107 22.75 13.0282 22.75 12.0575 22.75 H 11.9427 C 9.63433 22.75 7.82529 22.75 6.4138 22.5603 C 4.96907 22.366 3.82904 21.9607 2.93423 21.0659 C 2.03942 20.1711 1.63408 19.031 1.43984 17.5863 C 1.25007 16.1748 1.25008 14.3658 1.2501 12.0574 V 11.9426 C 1.25009 11.3365 1.25009 10.7647 1.25352 10.2256 C 1.24841 10.1729 1.24893 10.1208 1.25462 10.07 C 1.26582 8.62518 1.30473 7.41868 1.43984 6.41371 C 1.63408 4.96897 2.03942 3.82895 2.93423 2.93414 C 3.82904 2.03933 4.96907 1.63399 6.4138 1.43975 C 7.82529 1.24998 9.63433 1.24999 11.9427 1.25 Z M 2.75118 10.8037 C 2.75015 11.1826 2.7501 11.5809 2.7501 12 C 2.7501 14.3782 2.75169 16.0864 2.92647 17.3864 C 3.09834 18.6648 3.42524 19.4355 3.99489 20.0052 C 4.56455 20.5749 5.33527 20.9018 6.61367 21.0736 C 7.91365 21.2484 9.62187 21.25 12.0001 21.25 C 12.8044 21.25 13.5321 21.2498 14.1933 21.2428 C 14.7362 15.0501 9.3515 9.85595 3.08743 10.7554 L 2.75118 10.8037 Z M 15.7011 21.2078 C 16.3324 21.182 16.8893 21.1405 17.3865 21.0736 C 18.6649 20.9018 19.4356 20.5749 20.0053 20.0052 C 20.575 19.4355 20.9018 18.6648 21.0737 17.3864 C 21.194 16.4918 21.2323 15.4038 21.2444 14.0371 L 20.9238 13.9927 C 18.5043 13.6577 16.3038 14.7947 15.0847 16.636 C 15.5912 18.0541 15.8189 19.6005 15.7011 21.2078 Z M14.3875 15.0736 C15.9698 13.22 18.4402 12.1345 21.1295 12.5069 L21.25 12.5236 C21.2501 12.3528 21.2501 12.1783 21.2501 12 C21.2501 9.62177 21.2485 7.91356 21.0737 6.61358 C20.9018 5.33517 20.575 4.56445 20.0053 3.9948 C19.4356 3.42514 18.6649 3.09825 17.3865 2.92637 C16.0865 2.75159 14.3783 2.75 12.0001 2.75 C9.62187 2.75 7.91365 2.75159 6.61367 2.92637 C5.33527 3.09825 4.56455 3.42514 3.99489 3.9948 C3.42524 4.56445 3.09834 5.33517 2.92647 6.61358 C2.82673 7.35537 2.78339 8.2301 2.76456 9.28639 L2.87423 9.27064 C7.79524 8.56403 12.2459 11.1169 14.3875 15.0736 Z M 16.0001 6.75 C 15.3097 6.75 14.7501 7.30964 14.7501 8 C 14.7501 8.69036 15.3097 9.25 16.0001 9.25 C 16.6905 9.25 17.2501 8.69036 17.2501 8 C 17.2501 7.30964 16.6905 6.75 16.0001 6.75 Z M 13.2501 8 C 13.2501 6.48122 14.4813 5.25 16.0001 5.25 C 17.5189 5.25 18.7501 6.48122 18.7501 8 C 18.7501 9.51878 17.5189 10.75 16.0001 10.75 C 14.4813 10.75 13.2501 9.51878 13.2501 8 Z" fill="#FFFFFF" />
</svg>