<svg xmlns="http://www.w3.org/2000/svg" width="24" height="24" viewBox="0 0 24 24" fill="none">
  <path fill-rule="nonzero" clip-rule="nonzero" d="M 11.9426 1.25 H 12.0574 C 14.3658 1.24999 16.1748 1.24998 17.5863 1.43975 C 19.031 1.63399 20.1711 2.03933 21.0659 2.93414 C 21.9607 3.82895 22.366 4.96897 22.5603 6.41371 C 22.75 7.82519 22.75 9.63423 22.75 11.9426 V 12.0574 C 22.75 14.3658 22.75 16.1748 22.5603 17.5863 C 22.366 19.031 21.9607 20.1711 21.0659 21.0659 C 20.1711 21.9607 19.031 22.366 17.5863 22.5603 C 16.1748 22.75 14.3658 22.75 12.0574 22.75 H 11.9426 C 9.63423 22.75 7.82519 22.75 6.41371 22.5603 C 4.96897 22.366 3.82895 21.9607 2.93414 21.0659 C 2.03933 20.1711 1.63399 19.031 1.43975 17.5863 C 1.24998 16.1748 1.24999 14.3658 1.25 12.0574 V 11.9426 C 1.24999 9.63423 1.24998 7.82519 1.43975 6.41371 C 1.63399 4.96897 2.03933 3.82895 2.93414 2.93414 C 3.82895 2.03933 4.96897 1.63399 6.41371 1.43975 C 7.82519 1.24998 9.63423 1.24999 11.9426 1.25 Z M 6.61358 2.92637 C 5.33517 3.09825 4.56445 3.42514 3.9948 3.9948 C 3.42514 4.56445 3.09825 5.33517 2.92637 6.61358 C 2.75159 7.91356 2.75 9.62177 2.75 12 C 2.75 14.3782 2.75159 16.0864 2.92637 17.3864 C 3.09825 18.6648 3.42514 19.4355 3.9948 20.0052 C 4.56445 20.5749 5.33517 20.9018 6.61358 21.0736 C 7.91356 21.2484 9.62177 21.25 12 21.25 C 14.3782 21.25 16.0864 21.2484 17.3864 21.0736 C 18.6648 20.9018 19.4355 20.5749 20.0052 20.0052 C 20.5749 19.4355 20.9018 18.6648 21.0736 17.3864 C 21.2484 16.0864 21.25 14.3782 21.25 12 C 21.25 9.62177 21.2484 7.91356 21.0736 6.61358 C 20.9018 5.33517 20.5749 4.56445 20.0052 3.9948 C 19.4355 3.42514 18.6648 3.09825 17.3864 2.92637 C 16.0864 2.75159 14.3782 2.75 12 2.75 C 9.62177 2.75 7.91356 2.75159 6.61358 2.92637 Z M 16 6.75 C 15.3096 6.75 14.75 7.30964 14.75 8 C 14.75 8.69036 15.3096 9.25 16 9.25 C 16.6904 9.25 17.25 8.69036 17.25 8 C 17.25 7.30964 16.6904 6.75 16 6.75 Z M 13.25 8 C 13.25 6.48122 14.4812 5.25 16 5.25 C 17.5188 5.25 18.75 6.48122 18.75 8 C 18.75 9.51878 17.5188 10.75 16 10.75 C 14.4812 10.75 13.25 9.51878 13.25 8 Z M 8.50397 13.1766 C 7.91991 12.5566 6.94501 12.5241 6.32092 13.1038 L 5.51041 13.8566 C 5.20691 14.1385 4.73236 14.1209 4.45047 13.8174 C 4.16858 13.5139 4.1861 13.0394 4.48959 12.7575 L 5.3001 12.0047 C 6.52816 10.8641 8.44651 10.9281 9.59579 12.1481 L 12.2433 14.9584 C 12.5202 15.2523 12.9735 15.2919 13.2972 15.0504 C 14.4971 14.1553 16.1679 14.257 17.2503 15.2911 L 19.5181 17.4577 C 19.8176 17.7438 19.8284 18.2186 19.5423 18.5181 C 19.2562 18.8176 18.7814 18.8284 18.4819 18.5423 L 16.2141 16.3757 C 15.661 15.8473 14.8073 15.7953 14.1941 16.2527 C 13.2596 16.9499 11.9509 16.8356 11.1515 15.9869 L 8.50397 13.1766 Z" fill="#FFFFFF" />
</svg>