<svg xmlns="http://www.w3.org/2000/svg" width="24" height="24" viewBox="0 0 24 24" fill="none">
  <path d="M18 8C18 9.10457 17.1046 10 16 10C14.8954 10 14 9.10457 14 8C14 6.89543 14.8954 6 16 6C17.1046 6 18 6.89543 18 8Z" fill="#FFFFFF" />
  <path fill-rule="nonzero" clip-rule="nonzero" d="M 11.9426 1.25 H 12.0574 C 14.3658 1.24999 16.1748 1.24998 17.5863 1.43975 C 19.031 1.63399 20.1711 2.03933 21.0659 2.93414 C 21.9607 3.82895 22.366 4.96897 22.5603 6.41371 C 22.75 7.82519 22.75 9.63423 22.75 11.9426 V 12.0309 C 22.75 13.9397 22.75 15.5023 22.6463 16.7745 C 22.5422 18.0531 22.3287 19.1214 21.8509 20.0087 C 21.6401 20.4001 21.3812 20.7506 21.0659 21.0659 C 20.1711 21.9607 19.031 22.366 17.5863 22.5603 C 16.1748 22.75 14.3658 22.75 12.0574 22.75 H 11.9426 C 9.63423 22.75 7.82519 22.75 6.41371 22.5603 C 4.96897 22.366 3.82895 21.9607 2.93414 21.0659 C 2.14086 20.2726 1.7312 19.2852 1.51335 18.0604 C 1.29935 16.8573 1.2602 15.3603 1.25207 13.5015 C 1.25 13.0287 1.25 12.5286 1.25 12.001 V 11.9426 C 1.24999 9.63424 1.24998 7.82519 1.43975 6.41371 C 1.63399 4.96897 2.03933 3.82895 2.93414 2.93414 C 3.82895 2.03933 4.96897 1.63399 6.41371 1.43975 C 7.82519 1.24998 9.63424 1.24999 11.9426 1.25 Z M 6.61358 2.92637 C 5.33517 3.09825 4.56445 3.42514 3.9948 3.9948 C 3.42514 4.56445 3.09825 5.33517 2.92637 6.61358 C 2.75159 7.91356 2.75 9.62178 2.75 12 C 2.75 12.2905 2.75 12.5715 2.75034 12.8435 L 3.75148 11.9675 C 4.66275 11.1702 6.03617 11.2159 6.89238 12.0721 L 11.1821 16.3618 C 11.8693 17.0491 12.9511 17.1428 13.7463 16.5839 L 14.0445 16.3744 C 15.1887 15.5702 16.7368 15.6634 17.7764 16.599 L 20.6068 19.1463 C 20.8917 18.548 21.0609 17.7618 21.1513 16.6527 C 21.2494 15.4482 21.25 13.9459 21.25 12 C 21.25 9.62178 21.2484 7.91356 21.0736 6.61358 C 20.9018 5.33517 20.5749 4.56445 20.0052 3.9948 C 19.4355 3.42514 18.6648 3.09825 17.3864 2.92637 C 16.0864 2.75159 14.3782 2.75 12 2.75 C 9.62178 2.75 7.91356 2.75159 6.61358 2.92637 Z" fill="#FFFFFF" />
</svg>