<svg xmlns="http://www.w3.org/2000/svg" width="24" height="24" viewBox="0 0 24 24" fill="none">
  <path fill-rule="evenodd" clip-rule="evenodd" d="M20.5303 3.46967C20.8232 3.76256 20.8232 4.23744 20.5303 4.53033L15.5303 9.53033C15.2374 9.82322 14.7626 9.82322 14.4697 9.53033L12.4697 7.53033C12.1768 7.23744 12.1768 6.76256 12.4697 6.46967C12.7626 6.17678 13.2374 6.17678 13.5303 6.46967L15 7.93934L19.4697 3.46967C19.7626 3.17678 20.2374 3.17678 20.5303 3.46967Z" fill="#FFFFFF" />
  <path fill-rule="nonzero" clip-rule="nonzero" d="M12 1.25 C12.4142 1.25 12.75 1.58579 12.75 2 C12.75 2.41421 12.4142 2.75 12 2.75 C9.62179 2.75 7.91357 2.75159 6.61359 2.92637 C5.33518 3.09825 4.56446 3.42514 3.99481 3.9948 C3.42515 4.56445 3.09826 5.33517 2.92638 6.61358 C2.78125 7.69302 2.75553 9.05395 2.75099 10.8462 L3.25772 10.4028 C4.46614 9.34547 6.28742 9.40612 7.42283 10.5415 L11.7126 14.8313 C12.1421 15.2608 12.8182 15.3193 13.3152 14.9701 L13.6134 14.7605 C15.0437 13.7553 16.9788 13.8718 18.2782 15.0412 L21.0522 17.5378 C21.0596 17.4882 21.0667 17.4377 21.0736 17.3864 C21.2484 16.0864 21.25 14.3782 21.25 12 C21.25 11.5858 21.5858 11.25 22 11.25 C22.4142 11.25 22.75 11.5858 22.75 12 L22.75 12.0574 C22.75 14.3658 22.75 16.1748 22.5603 17.5863 C22.366 19.031 21.9607 20.1711 21.0659 21.0659 C20.1711 21.9607 19.031 22.366 17.5863 22.5603 C16.1748 22.75 14.3658 22.75 12.0574 22.75 L11.9426 22.75 C9.63424 22.75 7.8252 22.75 6.41372 22.5603 C4.96898 22.366 3.82896 21.9607 2.93415 21.0659 C2.03934 20.1711 1.634 19.031 1.43976 17.5863 C1.24999 16.1748 1.25 14.3658 1.25001 12.0574 L1.25001 11.9426 C1.25 9.63423 1.24999 7.82519 1.43976 6.41371 C1.634 4.96897 2.03934 3.82895 2.93415 2.93414 C3.82896 2.03933 4.96898 1.63399 6.41372 1.43975 C7.8252 1.24998 9.63424 1.24999 11.9426 1.25 L12 1.25 Z M 2.92638 17.3864 C 3.09826 18.6648 3.42515 19.4355 3.99481 20.0052 C 4.56446 20.5749 5.33518 20.9018 6.61359 21.0736 C 7.91357 21.2484 9.62179 21.25 12 21.25 C 14.3782 21.25 16.0865 21.2484 17.3864 21.0736 C 18.6648 20.9018 19.4356 20.5749 20.0052 20.0052 C 20.2487 19.7617 20.4479 19.4814 20.6096 19.1404 C 20.5707 19.1166 20.5334 19.089 20.4983 19.0574 L 17.2748 16.1562 C 16.4951 15.4545 15.334 15.3846 14.4759 15.9877 L 14.1777 16.1973 C 13.0843 16.9657 11.5968 16.8369 10.6519 15.8919 L 6.36217 11.6022 C 5.78516 11.0252 4.85959 10.9944 4.24547 11.5317 L 2.75039 12.8399 C 2.75297 14.7884 2.7729 16.2448 2.92638 17.3864 Z" fill="#FFFFFF" />
  <path fill-rule="nonzero" clip-rule="nonzero" d="M12 1.25 C12.4142 1.25 12.75 1.58579 12.75 2 C12.75 2.41421 12.4142 2.75 12 2.75 C9.62179 2.75 7.91357 2.75159 6.61359 2.92637 C5.33518 3.09825 4.56446 3.42514 3.99481 3.9948 C3.42515 4.56445 3.09826 5.33517 2.92638 6.61358 C2.78125 7.69302 2.75553 9.05395 2.75099 10.8462 L3.25772 10.4028 C4.46614 9.34547 6.28742 9.40612 7.42283 10.5415 L11.7126 14.8313 C12.1421 15.2608 12.8182 15.3193 13.3152 14.9701 L13.6134 14.7605 C15.0437 13.7553 16.9788 13.8718 18.2782 15.0412 L21.0522 17.5378 C21.0596 17.4882 21.0667 17.4377 21.0736 17.3864 C21.2484 16.0864 21.25 14.3782 21.25 12 C21.25 11.5858 21.5858 11.25 22 11.25 C22.4142 11.25 22.75 11.5858 22.75 12 L22.75 12.0574 C22.75 14.3658 22.75 16.1748 22.5603 17.5863 C22.366 19.031 21.9607 20.1711 21.0659 21.0659 C20.1711 21.9607 19.031 22.366 17.5863 22.5603 C16.1748 22.75 14.3658 22.75 12.0574 22.75 L11.9426 22.75 C9.63424 22.75 7.8252 22.75 6.41372 22.5603 C4.96898 22.366 3.82896 21.9607 2.93415 21.0659 C2.03934 20.1711 1.634 19.031 1.43976 17.5863 C1.24999 16.1748 1.25 14.3658 1.25001 12.0574 L1.25001 11.9426 C1.25 9.63423 1.24999 7.82519 1.43976 6.41371 C1.634 4.96897 2.03934 3.82895 2.93415 2.93414 C3.82896 2.03933 4.96898 1.63399 6.41372 1.43975 C7.8252 1.24998 9.63424 1.24999 11.9426 1.25 L12 1.25 Z M 2.92638 17.3864 C 3.09826 18.6648 3.42515 19.4355 3.99481 20.0052 C 4.56446 20.5749 5.33518 20.9018 6.61359 21.0736 C 7.91357 21.2484 9.62179 21.25 12 21.25 C 14.3782 21.25 16.0865 21.2484 17.3864 21.0736 C 18.6648 20.9018 19.4356 20.5749 20.0052 20.0052 C 20.2487 19.7617 20.4479 19.4814 20.6096 19.1404 C 20.5707 19.1166 20.5334 19.089 20.4983 19.0574 L 17.2748 16.1562 C 16.4951 15.4545 15.334 15.3846 14.4759 15.9877 L 14.1777 16.1973 C 13.0843 16.9657 11.5968 16.8369 10.6519 15.8919 L 6.36217 11.6022 C 5.78516 11.0252 4.85959 10.9944 4.24547 11.5317 L 2.75039 12.8399 C 2.75297 14.7884 2.7729 16.2448 2.92638 17.3864 Z" fill="#FFFFFF" />
</svg>