<svg xmlns="http://www.w3.org/2000/svg" width="24" height="24" viewBox="0 0 24 24" fill="none">
  <path fill-rule="evenodd" clip-rule="evenodd" d="M17 11.75C17.4142 11.75 17.75 11.4142 17.75 11V3.81066L19.4697 5.53033C19.7626 5.82322 20.2374 5.82322 20.5303 5.53033C20.8232 5.23744 20.8232 4.76256 20.5303 4.46967L17.5303 1.46967C17.2374 1.17678 16.7626 1.17678 16.4697 1.46967L13.4697 4.46967C13.1768 4.76256 13.1768 5.23744 13.4697 5.53033C13.7626 5.82322 14.2374 5.82322 14.5303 5.53033L16.25 3.81066V11C16.25 11.4142 16.5858 11.75 17 11.75Z" fill="#FFFFFF" />
  <path fill-rule="nonzero" clip-rule="nonzero" d="M12 1.25 C12.4142 1.25 12.75 1.58579 12.75 2 C12.75 2.41421 12.4142 2.75 12 2.75 C9.62177 2.75 7.91356 2.75159 6.61358 2.92637 C5.33517 3.09825 4.56445 3.42514 3.9948 3.9948 C3.42514 4.56445 3.09825 5.33517 2.92637 6.61358 C2.78124 7.69302 2.75552 9.05395 2.75098 10.8462 L3.25771 10.4028 C4.46613 9.34547 6.28741 9.40612 7.42282 10.5415 L11.7125 14.8313 C12.1421 15.2608 12.8182 15.3193 13.3152 14.9701 L13.6134 14.7605 C15.0437 13.7553 16.9788 13.8718 18.2782 15.0412 L21.0522 17.5378 C21.0596 17.4882 21.0667 17.4377 21.0736 17.3864 C21.2484 16.0864 21.25 14.3782 21.25 12 C21.25 11.5858 21.5858 11.25 22 11.25 C22.4142 11.25 22.75 11.5858 22.75 12 L22.75 12.0574 C22.75 14.3658 22.75 16.1748 22.5603 17.5863 C22.366 19.031 21.9607 20.1711 21.0659 21.0659 C20.1711 21.9607 19.031 22.366 17.5863 22.5603 C16.1748 22.75 14.3658 22.75 12.0574 22.75 L11.9426 22.75 C9.63423 22.75 7.82519 22.75 6.41371 22.5603 C4.96897 22.366 3.82895 21.9607 2.93414 21.0659 C2.03933 20.1711 1.63399 19.031 1.43975 17.5863 C1.24998 16.1748 1.24999 14.3658 1.25 12.0574 L1.25 11.9426 C1.24999 9.63423 1.24998 7.82519 1.43975 6.41371 C1.63399 4.96897 2.03933 3.82895 2.93414 2.93414 C3.82895 2.03933 4.96897 1.63399 6.41371 1.43975 C7.82519 1.24998 9.63423 1.24999 11.9426 1.25 L12 1.25 Z M 2.92637 17.3864 C 3.09825 18.6648 3.42514 19.4355 3.9948 20.0052 C 4.56445 20.5749 5.33517 20.9018 6.61358 21.0736 C 7.91356 21.2484 9.62177 21.25 12 21.25 C 14.3782 21.25 16.0864 21.2484 17.3864 21.0736 C 18.6648 20.9018 19.4355 20.5749 20.0052 20.0052 C 20.2487 19.7617 20.4479 19.4814 20.6096 19.1404 C 20.5707 19.1166 20.5334 19.089 20.4983 19.0574 L 17.2747 16.1562 C 16.4951 15.4545 15.334 15.3846 14.4758 15.9877 L 14.1776 16.1973 C 13.0843 16.9657 11.5968 16.8369 10.6519 15.8919 L 6.36216 11.6022 C 5.78515 11.0252 4.85958 10.9944 4.24546 11.5317 L 2.75038 12.8399 C 2.75296 14.7884 2.77289 16.2448 2.92637 17.3864 Z" fill="#FFFFFF" />
</svg>