<svg xmlns="http://www.w3.org/2000/svg" width="24" height="24" viewBox="0 0 24 24" fill="none">
  <path d="M17 9C17 10.1046 16.1046 11 15 11C13.8954 11 13 10.1046 13 9C13 7.89543 13.8954 7 15 7C16.1046 7 17 7.89543 17 9Z" fill="#FFFFFF" />
  <path fill-rule="nonzero" clip-rule="nonzero" d="M12 1.25 C17.9371 1.25 22.75 6.06294 22.75 12 C22.75 17.9371 17.9371 22.75 12 22.75 C6.06294 22.75 1.25 17.9371 1.25 12 C1.25 6.06294 6.06294 1.25 12 1.25 Z M11.1822 15.3618 C11.8694 16.0491 12.9512 16.1428 13.7464 15.5839 L14.0446 15.3744 C15.1888 14.5702 16.7369 14.6634 17.7765 15.599 L19.609 17.2612 C20.6438 15.7676 21.25 13.9546 21.25 12 C21.25 6.89137 17.1086 2.75 12 2.75 C6.93735 2.75 2.82464 6.81714 2.751 11.8623 L3.75159 10.9675 C4.66286 10.1702 6.03628 10.2159 6.89249 11.0721 L11.1822 15.3618 Z" fill="#FFFFFF" />
</svg>