<svg xmlns="http://www.w3.org/2000/svg" width="24" height="24" viewBox="0 0 24 24" fill="none">
  <path fill-rule="nonzero" clip-rule="nonzero" d="M 2.8301 10.7772 L 3.25771 10.4031 C 4.46613 9.34572 6.28741 9.40636 7.42282 10.5418 L 11.7125 14.8315 C 12.1421 15.261 12.8182 15.3196 13.3152 14.9703 L 13.6134 14.7607 C 15.0437 13.7555 16.9788 13.872 18.2782 15.0415 L 20.0211 16.6101 C 20.8028 15.2529 21.25 13.6787 21.25 12 C 21.25 6.89137 17.1086 2.75 12 2.75 C 7.30589 2.75 3.42845 6.24656 2.8301 10.7772 Z M 19.1617 17.8547 L 17.2747 16.1564 C 16.4951 15.4547 15.334 15.3849 14.4758 15.988 L 14.1776 16.1975 C 13.0843 16.9659 11.5968 16.8371 10.6519 15.8922 L 6.36215 11.6024 C 5.78514 11.0254 4.85958 10.9946 4.24546 11.5319 L 2.78496 12.8099 C 3.19518 17.5392 7.16424 21.25 12 21.25 C 14.8872 21.25 17.4654 19.9272 19.1617 17.8547 Z M 1.25 12 C 1.25 6.06294 6.06294 1.25 12 1.25 C 17.9371 1.25 22.75 6.06294 22.75 12 C 22.75 17.9371 17.9371 22.75 12 22.75 C 6.06294 22.75 1.25 17.9371 1.25 12 Z M 15 7.75 C 14.3096 7.75 13.75 8.30964 13.75 9 C 13.75 9.69036 14.3096 10.25 15 10.25 C 15.6904 10.25 16.25 9.69036 16.25 9 C 16.25 8.30964 15.6904 7.75 15 7.75 Z M 12.25 9 C 12.25 7.48122 13.4812 6.25 15 6.25 C 16.5188 6.25 17.75 7.48122 17.75 9 C 17.75 10.5188 16.5188 11.75 15 11.75 C 13.4812 11.75 12.25 10.5188 12.25 9 Z" fill="#FFFFFF" />
</svg>