<svg xmlns="http://www.w3.org/2000/svg" width="24" height="24" viewBox="0 0 24 24" fill="none">
  <path d="M18.5116 10.0767C18.5116 10.8153 17.8869 11.4142 17.1163 11.4142C16.3457 11.4142 15.7209 10.8153 15.7209 10.0767C15.7209 9.33801 16.3457 8.7392 17.1163 8.7392C17.8869 8.7392 18.5116 9.33801 18.5116 10.0767Z" fill="#FFFFFF" />
  <path fill-rule="nonzero" clip-rule="nonzero" d="M18.0363 5.53205 C19.1269 5.6726 20.0097 5.96873 20.7058 6.63601 C21.402 7.30329 21.7109 8.14942 21.8575 9.19481 C22 10.2106 22 11.5085 22 13.1472 L22 13.2478 C22 14.8864 22 16.1843 21.8575 17.2001 C21.7109 18.2455 21.402 19.0916 20.7058 19.7589 C20.0097 20.4262 19.1269 20.7223 18.0363 20.8629 C16.9766 20.9994 15.6225 20.9994 13.9129 20.9994 L10.0871 20.9994 C8.37751 20.9994 7.02344 20.9994 5.9637 20.8629 C4.87307 20.7223 3.99033 20.4262 3.29418 19.7589 C2.59803 19.0916 2.28908 18.2455 2.14245 17.2001 C1.99997 16.1843 1.99999 14.8864 2 13.2478 L2 13.1472 C1.99999 11.5085 1.99997 10.2106 2.14245 9.19481 C2.28908 8.14942 2.59803 7.30329 3.29418 6.63601 C3.99033 5.96873 4.87308 5.6726 5.9637 5.53205 C7.02343 5.39548 8.37751 5.39549 10.0871 5.39551 L13.9129 5.39551 C15.6225 5.39549 16.9766 5.39548 18.0363 5.53205 Z M 6.14963 6.8576 C 5.21373 6.97821 4.67452 7.2044 4.28084 7.58175 C 3.88716 7.95911 3.65119 8.47595 3.52536 9.37303 C 3.42443 10.0926 3.40184 10.9919 3.3968 12.1682 L 3.86764 11.7733 C 4.99175 10.8305 6.68596 10.8846 7.74215 11.897 L 11.7326 15.7219 C 12.1321 16.1049 12.7611 16.1571 13.2234 15.8457 L 13.5008 15.6589 C 14.8313 14.7626 16.6314 14.8664 17.8402 15.9092 L 20.2479 17.9862 C 20.3463 17.7222 20.4206 17.4071 20.4746 17.0219 C 20.6032 16.1056 20.6047 14.8977 20.6047 13.1975 C 20.6047 11.4972 20.6032 10.2893 20.4746 9.37303 C 20.3488 8.47595 20.1128 7.95911 19.7192 7.58175 C 19.3255 7.2044 18.7863 6.97821 17.8504 6.8576 C 16.8944 6.73441 15.6343 6.73298 13.8605 6.73298 H 10.1395 C 8.36575 6.73298 7.10559 6.73441 6.14963 6.8576 Z" fill="#FFFFFF" />
  <g opacity="0.5" />
</svg>