<svg xmlns="http://www.w3.org/2000/svg" width="24" height="24" viewBox="0 0 24 24" fill="none">
  <path d="M18 8C18 9.10457 17.1046 10 16 10C14.8954 10 14 9.10457 14 8C14 6.89543 14.8954 6 16 6C17.1046 6 18 6.89543 18 8Z" fill="#FFFFFF" />
  <path fill-rule="nonzero" clip-rule="nonzero" d="M12.0574 1.25 C14.3658 1.24999 16.1748 1.24998 17.5863 1.43975 C19.031 1.63399 20.1711 2.03933 21.0659 2.93414 C21.9607 3.82895 22.366 4.96897 22.5603 6.41371 C22.75 7.82519 22.75 9.63423 22.75 11.9426 L22.75 12.0574 C22.75 14.3658 22.75 16.1748 22.5603 17.5863 C22.366 19.031 21.9607 20.1711 21.0659 21.0659 C20.1711 21.9607 19.031 22.366 17.5863 22.5603 C16.1748 22.75 14.3658 22.75 12.0574 22.75 L11.9426 22.75 C9.63423 22.75 7.82519 22.75 6.41371 22.5603 C4.96897 22.366 3.82895 21.9607 2.93414 21.0659 C2.03933 20.1711 1.63399 19.031 1.43975 17.5863 C1.24998 16.1748 1.24999 14.3658 1.25 12.0574 L1.25 11.9426 C1.24999 9.63422 1.24998 7.82519 1.43975 6.41371 C1.63399 4.96897 2.03933 3.82895 2.93414 2.93414 C3.82895 2.03933 4.96897 1.63399 6.41371 1.43975 C7.82519 1.24998 9.63424 1.24999 11.9426 1.25 L12.0574 1.25 Z M3.9948 3.9948 C3.42514 4.56445 3.09825 5.33517 2.92637 6.61358 C2.80368 7.52616 2.76633 8.63992 2.75497 10.0454 L2.98073 10.0129 C8.02844 9.28807 12.5459 12.2376 14.2554 16.5626 C15.5805 14.3343 18.1828 12.8559 21.0266 13.2497 L21.2487 13.2804 C21.2499 12.8764 21.25 12.4502 21.25 12 C21.25 9.62178 21.2484 7.91356 21.0736 6.61358 C20.9018 5.33517 20.5749 4.56445 20.0052 3.9948 C19.4355 3.42514 18.6648 3.09825 17.3864 2.92637 C16.0864 2.75159 14.3782 2.75 12 2.75 C9.62178 2.75 7.91356 2.75159 6.61358 2.92637 C5.33517 3.09825 4.56445 3.42514 3.9948 3.9948 Z" fill="#FFFFFF" />
</svg>