<svg xmlns="http://www.w3.org/2000/svg" width="24" height="24" viewBox="0 0 24 24" fill="none">
  <path d="M18.5116 10.0771C18.5116 10.8157 17.8869 11.4146 17.1163 11.4146C16.3457 11.4146 15.7209 10.8157 15.7209 10.0771C15.7209 9.33841 16.3457 8.7396 17.1163 8.7396C17.8869 8.7396 18.5116 9.33841 18.5116 10.0771Z" fill="#FFFFFF" />
  <path fill-rule="nonzero" clip-rule="nonzero" d="M18.0363 5.53245 C19.1269 5.673 20.0097 5.96913 20.7058 6.63641 C21.402 7.30369 21.7109 8.14982 21.8575 9.19521 C22 10.211 22 11.5089 22 13.1476 L22 13.2482 C22 14.8868 22 16.1847 21.8575 17.2005 C21.7109 18.2459 21.402 19.092 20.7058 19.7593 C20.0097 20.4266 19.1269 20.7227 18.0363 20.8633 C16.9766 20.9998 15.6225 20.9998 13.9129 20.9998 L10.0871 20.9998 C8.37751 20.9998 7.02344 20.9998 5.9637 20.8633 C4.87307 20.7227 3.99033 20.4266 3.29418 19.7593 C2.59803 19.092 2.28908 18.2459 2.14245 17.2005 C1.99997 16.1847 1.99999 14.8868 2 13.2482 L2 13.1475 C1.99999 11.5089 1.99997 10.211 2.14245 9.19521 C2.28908 8.14982 2.59803 7.30369 3.29418 6.63641 C3.99033 5.96913 4.87308 5.673 5.9637 5.53245 C7.02343 5.39588 8.37751 5.39589 10.0871 5.39591 L13.9129 5.39591 C15.6225 5.39589 16.9766 5.39588 18.0363 5.53245 Z M 6.14963 6.858 C 5.21373 6.97861 4.67452 7.20479 4.28084 7.58215 C 3.88716 7.9595 3.65119 8.47635 3.52536 9.37343 C 3.42443 10.093 3.40184 10.9923 3.3968 12.1686 L 3.86764 11.7737 C 4.99175 10.8309 6.68596 10.885 7.74215 11.8974 L 11.7326 15.7223 C 12.1321 16.1053 12.7611 16.1575 13.2234 15.8461 L 13.5008 15.6593 C 14.8313 14.763 16.6314 14.8668 17.8402 15.9096 L 20.2479 17.9866 C 20.3463 17.7226 20.4206 17.4075 20.4746 17.0223 C 20.6032 16.106 20.6047 14.8981 20.6047 13.1979 C 20.6047 11.4976 20.6032 10.2897 20.4746 9.37343 C 20.3488 8.47635 20.1128 7.9595 19.7192 7.58215 C 19.3255 7.20479 18.7863 6.97861 17.8504 6.858 C 16.8944 6.7348 15.6343 6.73338 13.8605 6.73338 H 10.1395 C 8.36575 6.73338 7.10559 6.7348 6.14963 6.858 Z" fill="#FFFFFF" />
  <path d="M17.0863 2.61039C16.2265 2.49997 15.1318 2.49998 13.7672 2.5H10.6775C9.31284 2.49998 8.21815 2.49997 7.35834 2.61039C6.46796 2.72473 5.72561 2.96835 5.13682 3.53075C4.79725 3.8551 4.56856 4.22833 4.41279 4.64928C4.91699 4.41928 5.48704 4.28374 6.12705 4.20084C7.21143 4.06037 8.597 4.06038 10.3463 4.06039H14.2612C16.0105 4.06038 17.396 4.06037 18.4804 4.20084C19.0394 4.27325 19.545 4.38581 20 4.56638C19.8454 4.17917 19.625 3.83365 19.3078 3.53075C18.719 2.96835 17.9767 2.72473 17.0863 2.61039Z" fill="#FFFFFF" />
</svg>