<svg xmlns="http://www.w3.org/2000/svg" width="24" height="24" viewBox="0 0 24 24" fill="none">
  <path d="M21.9998 12.6978C21.9983 14.1674 21.9871 15.4165 21.9036 16.4414C21.8067 17.6308 21.6081 18.6246 21.1636 19.45C20.9676 19.814 20.7267 20.1401 20.4334 20.4334C19.601 21.2657 18.5405 21.6428 17.1966 21.8235C15.8835 22 14.2007 22 12.0534 22H11.9466C9.79929 22 8.11646 22 6.80345 21.8235C5.45951 21.6428 4.39902 21.2657 3.56664 20.4334C2.82871 19.6954 2.44763 18.777 2.24498 17.6376C2.04591 16.5184 2.00949 15.1259 2.00192 13.3967C2 12.9569 2 12.4917 2 12.0009V11.9466C1.99999 9.79929 1.99998 8.11646 2.17651 6.80345C2.3572 5.45951 2.73426 4.39902 3.56664 3.56664C4.39902 2.73426 5.45951 2.3572 6.80345 2.17651C7.97111 2.01952 9.47346 2.00215 11.302 2.00024C11.6873 1.99983 12 2.31236 12 2.69767C12 3.08299 11.6872 3.3952 11.3019 3.39561C9.44749 3.39757 8.06751 3.41446 6.98937 3.55941C5.80016 3.7193 5.08321 4.02339 4.5533 4.5533C4.02339 5.08321 3.7193 5.80016 3.55941 6.98937C3.39683 8.19866 3.39535 9.7877 3.39535 12C3.39535 12.2702 3.39535 12.5314 3.39567 12.7844L4.32696 11.9696C5.17465 11.2278 6.45225 11.2704 7.24872 12.0668L11.2392 16.0573C11.8785 16.6966 12.8848 16.7837 13.6245 16.2639L13.9019 16.0689C14.9663 15.3209 16.4064 15.4076 17.3734 16.2779L20.0064 18.6476C20.2714 18.091 20.4288 17.3597 20.5128 16.3281C20.592 15.3561 20.6029 14.1755 20.6044 12.6979C20.6048 12.3126 20.917 12 21.3023 12C21.6876 12 22.0002 12.3125 21.9998 12.6978Z" fill="#FFFFFF" />
  <path fill-rule="nonzero" clip-rule="nonzero" d="M 17.5 11 C 15.3787 11 14.318 11 13.659 10.341 C 13 9.68198 13 8.62132 13 6.5 C 13 4.37868 13 3.31802 13.659 2.65901 C 14.318 2 15.3787 2 17.5 2 C 19.6213 2 20.682 2 21.341 2.65901 C 22 3.31802 22 4.37868 22 6.5 C 22 8.62132 22 9.68198 21.341 10.341 C 20.682 11 19.6213 11 17.5 11 Z M19.7121 4.28794 C19.3281 3.90402 18.7057 3.90402 18.3217 4.28794 L18.2639 4.34578 C18.2081 4.40158 18.1828 4.47953 18.1968 4.55721 C18.2055 4.60607 18.2218 4.67751 18.2514 4.76276 C18.3105 4.93324 18.4222 5.15704 18.6326 5.36742 C18.843 5.5778 19.0668 5.68949 19.2372 5.74864 C19.3225 5.77822 19.3939 5.79447 19.4428 5.80324 C19.5205 5.81718 19.5984 5.7919 19.6542 5.7361 L19.7121 5.67826 C20.096 5.29434 20.096 4.67187 19.7121 4.28794 Z M17.35 8.0403 L19.1488 6.24148 C19.1923 6.19799 19.1724 6.12308 19.1143 6.10292 C18.902 6.02926 18.6258 5.89095 18.3674 5.63258 C18.109 5.37421 17.9707 5.09801 17.8971 4.88568 C17.8769 4.82757 17.802 4.80767 17.7585 4.85116 L15.9597 6.65 C15.8154 6.79427 15.7433 6.86642 15.6812 6.94596 C15.608 7.0398 15.5453 7.14133 15.4941 7.24876 C15.4507 7.33983 15.4184 7.43662 15.3539 7.63021 L15.0136 8.65104 C14.9819 8.74631 15.0067 8.85134 15.0777 8.92234 C15.1487 8.99335 15.2537 9.01814 15.349 8.98639 L16.3698 8.64611 C16.5634 8.58158 16.6602 8.54932 16.7512 8.50591 C16.8587 8.45472 16.9602 8.39197 17.054 8.31878 C17.1336 8.25673 17.2057 8.18459 17.35 8.0403 Z" fill="#FFFFFF" />
</svg>