<svg xmlns="http://www.w3.org/2000/svg" width="24" height="24" viewBox="0 0 24 24" fill="none">
  <path fill-rule="nonzero" clip-rule="nonzero" d="M12 1.25 C12.4142 1.25 12.75 1.58579 12.75 2 C12.75 2.41421 12.4142 2.75 12 2.75 C9.62177 2.75 7.91356 2.75159 6.61358 2.92637 C5.33517 3.09825 4.56445 3.42514 3.9948 3.9948 C3.42514 4.56445 3.09825 5.33517 2.92637 6.61358 C2.78124 7.69307 2.75552 9.05407 2.75098 10.8465 L3.25771 10.4031 C4.46613 9.34572 6.28741 9.40636 7.42282 10.5418 L11.7125 14.8315 C12.1421 15.261 12.8182 15.3196 13.3152 14.9703 L13.6134 14.7607 C15.0437 13.7555 16.9788 13.872 18.2782 15.0415 L21.0522 17.5381 C21.0596 17.4883 21.0667 17.4378 21.0736 17.3864 C21.2484 16.0864 21.25 14.3782 21.25 12 C21.25 11.5858 21.5858 11.25 22 11.25 C22.4142 11.25 22.75 11.5858 22.75 12 L22.75 12.0574 C22.75 14.3658 22.75 16.1748 22.5603 17.5863 C22.366 19.031 21.9607 20.1711 21.0659 21.0659 C20.1711 21.9607 19.031 22.366 17.5863 22.5603 C16.1748 22.75 14.3658 22.75 12.0574 22.75 L11.9426 22.75 C9.63423 22.75 7.82519 22.75 6.41371 22.5603 C4.96897 22.366 3.82895 21.9607 2.93414 21.0659 C2.03933 20.1711 1.63399 19.031 1.43975 17.5863 C1.26257 16.2684 1.25081 14.5851 1.25005 12.4912 L1.25 11.9426 C1.24999 9.63423 1.24998 7.82519 1.43975 6.41371 C1.63399 4.96897 2.03933 3.82895 2.93414 2.93414 C3.82895 2.03933 4.96897 1.63399 6.41371 1.43975 C7.82519 1.24998 9.63423 1.24999 11.9426 1.25 L12 1.25 Z M 20.6095 19.1406 C 20.5706 19.1168 20.5334 19.0892 20.4983 19.0576 L 17.2747 16.1564 C 16.4951 15.4547 15.334 15.3849 14.4758 15.988 L 14.1776 16.1975 C 13.0843 16.9659 11.5968 16.8371 10.6519 15.8922 L 6.36216 11.6024 C 5.78515 11.0254 4.85958 10.9946 4.24546 11.5319 L 2.75038 12.8401 C 2.75296 14.7885 2.77289 16.2449 2.92637 17.3864 C 3.09825 18.6648 3.42514 19.4355 3.9948 20.0052 C 4.56445 20.5749 5.33517 20.9018 6.61358 21.0736 C 7.91356 21.2484 9.62177 21.25 12 21.25 C 14.3782 21.25 16.0864 21.2484 17.3864 21.0736 C 18.6648 20.9018 19.4355 20.5749 20.0052 20.0052 C 20.2487 19.7617 20.4478 19.4815 20.6095 19.1406 Z" fill="#FFFFFF" />
  <path fill-rule="nonzero" clip-rule="nonzero" d="M22.75 5.3754 C22.75 6.16255 22.3923 6.89306 21.9641 7.49719 C21.5288 8.11137 20.9654 8.67229 20.4315 9.13605 L20.3467 9.20987 C19.6287 9.83503 19.0307 10.3556 18 10.3556 C16.9693 10.3556 16.3713 9.83502 15.6533 9.20986 L15.5685 9.13604 C15.0347 8.67228 14.4712 8.11136 14.0359 7.49718 C13.6077 6.89306 13.25 6.16255 13.25 5.37541 C13.25 3.96616 13.9303 2.82879 15.066 2.41077 C16.0057 2.06486 17.0666 2.28181 18 2.97655 C18.9334 2.28181 19.9943 2.06486 20.934 2.41077 C22.0697 2.82878 22.75 3.96615 22.75 5.3754 Z M 20.4159 3.81844 C 19.9897 3.66155 19.2867 3.73783 18.5317 4.49679 C 18.391 4.63831 18.1996 4.71788 18 4.71788 C 17.8004 4.71788 17.609 4.63831 17.4683 4.49679 C 16.7133 3.73783 16.0103 3.66155 15.5841 3.81844 C 15.1697 3.97095 14.75 4.44214 14.75 5.37541 C 14.75 5.71639 14.9126 6.14016 15.2597 6.62976 C 15.5996 7.1093 16.0663 7.58155 16.5522 8.00368 C 17.3851 8.72727 17.5762 8.85564 18 8.85564 C 18.4239 8.85564 18.6149 8.72727 19.4478 8.00369 C 19.9337 7.58156 20.4004 7.10932 20.7403 6.62978 C 21.0874 6.14018 21.25 5.7164 21.25 5.3754 C 21.25 4.44213 20.8303 3.97095 20.4159 3.81844 Z" fill="#FFFFFF" />
</svg>