<svg xmlns="http://www.w3.org/2000/svg" width="24" height="24" viewBox="0 0 24 24" fill="none">
  <path fill-rule="nonzero" clip-rule="nonzero" d="M 18.4488 1.98797 C 19.4327 1.00401 21.0281 1.00401 22.012 1.98797 C 22.996 2.97193 22.996 4.56724 22.012 5.5512 L 17.7604 9.80286 C 17.7502 9.81305 17.7401 9.82311 17.7302 9.83304 C 17.4994 10.0639 17.3387 10.2246 17.1585 10.3652 C 16.9467 10.5304 16.7174 10.6721 16.4749 10.7877 C 16.2686 10.886 16.053 10.9578 15.7433 11.061 C 15.73 11.0655 15.7165 11.07 15.7028 11.0745 L 13.8653 11.687 C 13.4243 11.834 12.9381 11.7192 12.6094 11.3905 C 12.2808 11.0619 12.166 10.5757 12.313 10.1347 L 12.9255 8.2972 C 12.93 8.28353 12.9345 8.27003 12.939 8.25672 C 13.0422 7.94696 13.114 7.73137 13.2123 7.5251 C 13.3279 7.28255 13.4696 7.05332 13.6348 6.84146 C 13.7753 6.66128 13.9361 6.50063 14.167 6.2698 C 14.1769 6.25987 14.1869 6.24982 14.1971 6.23962 L 18.4488 1.98797 Z M 20.9514 3.04863 C 20.5532 2.65046 19.9076 2.65046 19.5094 3.04863 L 19.3777 3.18035 C 19.3829 3.19659 19.3885 3.21331 19.3944 3.23049 C 19.4762 3.46613 19.6315 3.77841 19.9265 4.07345 C 20.2216 4.36849 20.5339 4.52382 20.7695 4.60558 C 20.7867 4.61154 20.8034 4.61709 20.8196 4.62226 L 20.9514 4.49054 C 21.3495 4.09237 21.3495 3.4468 20.9514 3.04863 Z M 19.6857 5.75618 C 19.4193 5.60682 19.1372 5.40542 18.8659 5.13411 C 18.5946 4.8628 18.3932 4.58066 18.2438 4.31427 L 15.2578 7.30028 C 14.9856 7.57251 14.8944 7.66554 14.8176 7.76399 C 14.7193 7.88995 14.6351 8.02623 14.5664 8.17043 C 14.5127 8.28313 14.4702 8.40631 14.3485 8.77154 L 14.1232 9.44743 L 14.5526 9.87678 L 15.2284 9.65148 C 15.5937 9.52974 15.7169 9.48732 15.8296 9.4336 C 15.9738 9.36488 16.11 9.28065 16.236 9.18241 C 16.3344 9.10563 16.4275 9.01442 16.6997 8.7422 L 19.6857 5.75618 Z" fill="#FFFFFF" />
  <path fill-rule="nonzero" clip-rule="nonzero" d="M12 1.25 C12.4142 1.25 12.75 1.58579 12.75 2 C12.75 2.41421 12.4142 2.75 12 2.75 C9.62177 2.75 7.91356 2.75159 6.61358 2.92637 C5.33517 3.09825 4.56445 3.42514 3.9948 3.9948 C3.42514 4.56445 3.09825 5.33517 2.92637 6.61358 C2.78124 7.69302 2.75552 9.05395 2.75098 10.8462 L3.25771 10.4028 C4.46613 9.34547 6.28741 9.40612 7.42282 10.5415 L11.7125 14.8313 C12.1421 15.2608 12.8182 15.3193 13.3152 14.9701 L13.6134 14.7605 C15.0437 13.7553 16.9788 13.8718 18.2782 15.0412 L21.0522 17.5378 C21.0596 17.4882 21.0667 17.4377 21.0736 17.3864 C21.2484 16.0864 21.25 14.3782 21.25 12 C21.25 11.5858 21.5858 11.25 22 11.25 C22.4142 11.25 22.75 11.5858 22.75 12 L22.75 12.0574 C22.75 14.3658 22.75 16.1748 22.5603 17.5863 C22.366 19.031 21.9607 20.1711 21.0659 21.0659 C20.1711 21.9607 19.031 22.366 17.5863 22.5603 C16.1748 22.75 14.3658 22.75 12.0574 22.75 L11.9426 22.75 C9.63423 22.75 7.82519 22.75 6.41371 22.5603 C4.96897 22.366 3.82895 21.9607 2.93414 21.0659 C2.03933 20.1711 1.63399 19.031 1.43975 17.5863 C1.24998 16.1748 1.24999 14.3658 1.25 12.0574 L1.25 11.9426 C1.24999 9.63423 1.24998 7.82519 1.43975 6.41371 C1.63399 4.96897 2.03933 3.82895 2.93414 2.93414 C3.82895 2.03933 4.96897 1.63399 6.41371 1.43975 C7.82519 1.24998 9.63423 1.24999 11.9426 1.25 L12 1.25 Z M 2.92637 17.3864 C 3.09825 18.6648 3.42514 19.4355 3.9948 20.0052 C 4.56445 20.5749 5.33517 20.9018 6.61358 21.0736 C 7.91356 21.2484 9.62177 21.25 12 21.25 C 14.3782 21.25 16.0864 21.2484 17.3864 21.0736 C 18.6648 20.9018 19.4355 20.5749 20.0052 20.0052 C 20.2487 19.7617 20.4479 19.4814 20.6096 19.1404 C 20.5707 19.1166 20.5334 19.089 20.4983 19.0574 L 17.2747 16.1562 C 16.4951 15.4545 15.334 15.3846 14.4758 15.9877 L 14.1776 16.1973 C 13.0843 16.9657 11.5968 16.8369 10.6519 15.8919 L 6.36216 11.6022 C 5.78515 11.0252 4.85958 10.9944 4.24546 11.5317 L 2.75038 12.8399 C 2.75296 14.7884 2.77289 16.2448 2.92637 17.3864 Z" fill="#FFFFFF" />
</svg>