<svg xmlns="http://www.w3.org/2000/svg" width="24" height="24" viewBox="0 0 24 24" fill="none">
  <path fill-rule="nonzero" clip-rule="nonzero" d="M 8.67239 7.54199 H 15.3276 C 18.7024 7.54199 20.3898 7.54199 21.3377 8.52882 C 22.2855 9.51565 22.0625 11.0403 21.6165 14.0895 L 21.1935 16.9811 C 20.8437 19.3723 20.6689 20.5679 19.7717 21.2839 C 18.8745 21.9999 17.5512 21.9999 14.9046 21.9999 H 9.09536 C 6.44881 21.9999 5.12553 21.9999 4.22834 21.2839 C 3.33115 20.5679 3.15626 19.3723 2.80648 16.9811 L 2.38351 14.0895 C 1.93748 11.0403 1.71447 9.51565 2.66232 8.52882 C 3.61017 7.54199 5.29758 7.54199 8.67239 7.54199 Z M8 18.0001 C8 18.4143 8.3731 18.7501 8.83333 18.7501 L15.1667 18.7501 C15.6269 18.7501 16 18.4143 16 18.0001 C16 17.5859 15.6269 17.2501 15.1667 17.2501 L8.83333 17.2501 C8.3731 17.2501 8 17.5859 8 18.0001 Z" fill="#FFFFFF" />
  <g opacity="0.4" />
  <g opacity="0.7" />
</svg>