<svg xmlns="http://www.w3.org/2000/svg" width="24" height="24" viewBox="0 0 24 24" fill="none">
  <path fill-rule="nonzero" clip-rule="nonzero" d="M 6.25 8 C 6.25 4.82436 8.82436 2.25 12 2.25 C 15.1756 2.25 17.75 4.82436 17.75 8 V 11 C 17.75 14.1756 15.1756 16.75 12 16.75 C 8.82436 16.75 6.25 14.1756 6.25 11 V 8 Z M 7.81597 7.25 H 9 C 9.41421 7.25 9.75 7.58579 9.75 8 C 9.75 8.41421 9.41421 8.75 9 8.75 H 7.75 V 10.25 H 9 C 9.41421 10.25 9.75 10.5858 9.75 11 C 9.75 11.4142 9.41421 11.75 9 11.75 H 7.81597 C 8.1702 13.7395 9.9087 15.25 12 15.25 C 14.0913 15.25 15.8298 13.7395 16.184 11.75 L 13.5 11.75 C 13.0858 11.75 12.75 11.4142 12.75 11 C 12.75 10.5858 13.0858 10.25 13.5 10.25 L 16.25 10.25 V 8.75 H 13.5 C 13.0858 8.75 12.75 8.41421 12.75 8 C 12.75 7.58579 13.0858 7.25 13.5 7.25 H 16.184 C 15.8298 5.26049 14.0913 3.75 12 3.75 C 9.9087 3.75 8.1702 5.26049 7.81597 7.25 Z M 4 9.25 C 4.41421 9.25 4.75 9.58579 4.75 10 V 11 C 4.75 15.0041 7.99594 18.25 12 18.25 C 16.0041 18.25 19.25 15.0041 19.25 11 V 10 C 19.25 9.58579 19.5858 9.25 20 9.25 C 20.4142 9.25 20.75 9.58579 20.75 10 V 11 C 20.75 15.5798 17.2314 19.3379 12.75 19.7183 V 22 C 12.75 22.4142 12.4142 22.75 12 22.75 C 11.5858 22.75 11.25 22.4142 11.25 22 V 19.7183 C 6.7686 19.3379 3.25 15.5798 3.25 11 V 10 C 3.25 9.58579 3.58579 9.25 4 9.25 Z" fill="#FFFFFF" />
</svg>