<svg xmlns="http://www.w3.org/2000/svg" width="24" height="24" viewBox="0 0 24 24" fill="none">
  <path fill-rule="evenodd" clip-rule="evenodd" d="M3.69231 10.3721C4.07466 10.3721 4.38462 10.6845 4.38462 11.0698V12.9302C4.38462 17.1687 7.79414 20.6047 12 20.6047C16.2059 20.6047 19.6154 17.1687 19.6154 12.9302V11.0698C19.6154 10.6845 19.9253 10.3721 20.3077 10.3721C20.69 10.3721 21 10.6845 21 11.0698V12.9302C21 17.9393 16.9706 22 12 22C7.02944 22 3 17.9393 3 12.9302V11.0698C3 10.6845 3.30996 10.3721 3.69231 10.3721Z" fill="#FFFFFF" />
  <path fill-rule="nonzero" clip-rule="nonzero" d="M12 2 C15.4412 2 18.2308 4.81124 18.2308 8.27907 L18.2308 12.9302 C18.2308 16.3981 15.4412 19.2093 12 19.2093 C8.55884 19.2093 5.76923 16.3981 5.76923 12.9302 L5.76923 8.27907 C5.76923 4.81123 8.55884 2 12 2 Z M9.67822 7.39068 C9.94645 7.64624 10.3641 7.64354 10.629 7.39112 L10.6363 7.38596 C10.6574 7.37132 10.7115 7.33721 10.8078 7.29795 C10.9996 7.2198 11.3713 7.11628 12 7.11628 C12.6287 7.11628 13.0004 7.2198 13.1922 7.29795 C13.2885 7.33721 13.3426 7.37132 13.3637 7.38596 L13.371 7.39112 C13.6359 7.64354 14.0536 7.64624 14.3218 7.39068 C14.5996 7.12597 14.6119 6.6844 14.3492 6.40441 L13.8562 6.87412 C14.3492 6.40441 14.3485 6.40361 14.3485 6.40361 L14.3477 6.40279 L14.3461 6.40114 L14.3428 6.3977 L14.3357 6.39036 C14.3307 6.38527 14.3251 6.37977 14.319 6.37391 C14.3068 6.36218 14.2925 6.349 14.2759 6.33461 C14.2426 6.3058 14.2004 6.27232 14.1482 6.23613 C14.0434 6.16357 13.9003 6.0814 13.7113 6.00438 C13.3324 5.84997 12.7811 5.72093 12 5.72093 C11.2189 5.72093 10.6676 5.84997 10.2887 6.00438 C10.0997 6.0814 9.95658 6.16357 9.85184 6.23613 C9.79962 6.27232 9.75739 6.3058 9.72413 6.33461 C9.70751 6.349 9.69318 6.36218 9.68099 6.37391 C9.67489 6.37977 9.66934 6.38527 9.66431 6.39036 L9.65716 6.3977 L9.65388 6.40114 L9.65231 6.40279 L9.65154 6.40361 C9.65154 6.40361 9.65078 6.40441 10.1538 6.88372 L9.65078 6.40441 C9.3881 6.6844 9.40039 7.12597 9.67822 7.39068 Z M9.67822 10.1814 C9.94645 10.4369 10.3641 10.4342 10.629 10.1818 L10.6363 10.1767 C10.6574 10.162 10.7115 10.1279 10.8078 10.0886 C10.9996 10.0105 11.3713 9.90698 12 9.90698 C12.6287 9.90698 13.0004 10.0105 13.1922 10.0886 C13.2885 10.1279 13.3426 10.162 13.3637 10.1767 L13.371 10.1818 C13.6359 10.4342 14.0536 10.4369 14.3218 10.1814 C14.5996 9.91667 14.6119 9.4751 14.3492 9.19511 L13.8562 9.66482 C14.3492 9.1951 14.3485 9.1943 14.3485 9.1943 L14.3477 9.19349 L14.3461 9.19183 L14.3428 9.1884 L14.3357 9.18106 C14.3307 9.17597 14.3251 9.17047 14.319 9.16461 C14.3068 9.15288 14.2925 9.13969 14.2759 9.1253 C14.2426 9.0965 14.2004 9.06301 14.1482 9.02683 C14.0434 8.95427 13.9003 8.8721 13.7113 8.79507 C13.3324 8.64067 12.7811 8.51163 12 8.51163 C11.2189 8.51163 10.6676 8.64067 10.2887 8.79507 C10.0997 8.8721 9.95658 8.95427 9.85184 9.02683 C9.79962 9.06301 9.75739 9.0965 9.72413 9.1253 C9.70751 9.13969 9.69318 9.15288 9.68099 9.16461 C9.67489 9.17047 9.66934 9.17597 9.66431 9.18106 L9.65716 9.1884 L9.65388 9.19183 L9.65231 9.19349 L9.65154 9.1943 C9.65154 9.1943 9.65078 9.19511 10.1538 9.67442 L9.65078 9.19511 C9.3881 9.4751 9.40039 9.91667 9.67822 10.1814 Z" fill="#FFFFFF" />
</svg>