<svg xmlns="http://www.w3.org/2000/svg" width="24" height="24" viewBox="0 0 24 24" fill="none">
  <path fill-rule="nonzero" clip-rule="nonzero" d="M 12.7555 11.7589 C 12.7552 11.7639 12.7549 11.7693 12.7546 11.7753 C 12.7502 11.8568 12.75 11.9692 12.75 12.1586 C 12.75 12.2399 12.7501 12.2815 12.7512 12.3117 L 12.7528 12.3128 C 12.7797 12.3274 12.8172 12.3461 12.8902 12.3825 L 13.8778 12.8737 C 14.048 12.9583 14.1495 13.0085 14.2249 13.0413 C 14.2322 13.0444 14.2387 13.0472 14.2445 13.0495 C 14.2448 13.0446 14.2451 13.0391 14.2454 13.0332 C 14.2497 12.9517 14.25 12.8392 14.25 12.6498 C 14.25 12.5686 14.2499 12.527 14.2488 12.4967 L 14.2472 12.4957 C 14.2203 12.4811 14.1828 12.4623 14.1097 12.426 L 13.1222 11.9348 C 12.952 11.8501 12.8505 11.7999 12.7751 11.7672 C 12.7678 11.7641 12.7613 11.7613 12.7555 11.7589 Z M12.75 13.988 L12.75 16.5078 C12.75 17.7498 11.739 18.75 10.5 18.75 C9.26103 18.75 8.25 17.7498 8.25 16.5078 C8.25 15.2658 9.26103 14.2655 10.5 14.2655 C10.7627 14.2655 11.0152 14.3105 11.25 14.3932 L11.25 12.2628 C11.2498 12.2378 11.2499 12.2138 11.2499 12.1909 C11.25 12.1799 11.25 12.1691 11.25 12.1586 L11.25 12.1412 C11.25 12.1298 11.25 12.1186 11.25 12.1073 L11.2501 12.031 C11.2503 11.9075 11.2515 11.7937 11.2566 11.6961 C11.2634 11.5676 11.2792 11.4027 11.3401 11.2355 C11.5782 10.5815 12.235 10.1802 12.9233 10.2601 C13.0994 10.2805 13.2536 10.3397 13.3718 10.391 C13.4879 10.4414 13.6252 10.5097 13.7747 10.584 L14.7778 11.083 C14.7872 11.0877 14.7969 11.0924 14.8068 11.0974 C14.9124 11.1496 15.044 11.2147 15.1596 11.3026 C15.4525 11.5254 15.6535 11.8483 15.7231 12.2103 C15.7506 12.3533 15.7503 12.5004 15.75 12.6176 C15.75 12.6286 15.75 12.6394 15.75 12.6498 L15.75 12.6673 C15.75 12.8334 15.75 12.9863 15.7433 13.1124 C15.7366 13.2408 15.7208 13.4057 15.6599 13.573 C15.4218 14.2269 14.765 14.6283 14.0766 14.5484 C13.9005 14.5279 13.7464 14.4687 13.6281 14.4174 C13.5121 14.3671 13.3748 14.2988 13.2253 14.2244 L12.75 13.988 Z M 11.25 16.5078 C 11.25 16.1015 10.9179 15.7655 10.5 15.7655 C 10.0821 15.7655 9.75 16.1015 9.75 16.5078 C 9.75 16.914 10.0821 17.25 10.5 17.25 C 10.9179 17.25 11.25 16.914 11.25 16.5078 Z" fill="#FFFFFF" />
  <path fill-rule="nonzero" clip-rule="nonzero" d="M 8.69935 1.25001 H 15.3004 C 15.5203 1.24995 15.6888 1.2499 15.8362 1.26571 C 17.1903 1.41104 18.2268 2.52307 18.2897 3.87013 C 19.4805 4.22571 20.3289 5.3275 20.3443 6.59118 C 20.9453 6.77151 21.4637 7.05595 21.888 7.51432 C 22.54 8.21857 22.7421 9.08649 22.7498 10.1003 C 22.7572 11.075 22.5835 12.3067 22.3678 13.8363 L 21.9288 16.9499 C 21.7602 18.146 21.6232 19.1176 21.4101 19.879 C 21.1871 20.6756 20.8585 21.331 20.25 21.8349 C 19.6463 22.3347 18.9301 22.5502 18.0835 22.6518 C 17.265 22.75 16.2353 22.75 14.9532 22.75 H 9.04687 C 7.76478 22.75 6.73501 22.75 5.91647 22.6518 C 5.06993 22.5502 4.35372 22.3347 3.75003 21.8349 C 3.14152 21.331 2.81286 20.6756 2.58989 19.879 C 2.37676 19.1176 2.23979 18.146 2.07118 16.9499 L 1.63219 13.8363 C 1.41651 12.3067 1.24283 11.075 1.25023 10.1003 C 1.25792 9.08649 1.45997 8.21857 2.11196 7.51432 C 2.53621 7.05606 3.05445 6.77164 3.65528 6.5913 C 3.67058 5.3275 4.51917 4.22559 5.71005 3.87007 C 5.77295 2.52304 6.80943 1.41104 8.16359 1.26571 C 8.31094 1.2499 8.4795 1.24995 8.69935 1.25001 Z M 5.18902 6.32785 C 6.11481 6.24999 7.24973 6.25 8.61594 6.25001 H 15.384 C 16.75 6.25 17.8848 6.24999 18.8105 6.32781 C 18.6734 5.72018 18.1306 5.25001 17.4617 5.25001 H 6.53787 C 5.86896 5.25001 5.32618 5.72019 5.18902 6.32785 Z M15.6761 2.75715 C15.6198 2.75111 15.5396 2.75001 15.2588 2.75001 L8.74099 2.75001 C8.46013 2.75001 8.37993 2.75111 8.32365 2.75715 C7.77344 2.8162 7.33862 3.22633 7.2321 3.75001 L16.7677 3.75001 C16.6611 3.22633 16.2263 2.8162 15.6761 2.75715 Z M3.21267 8.53336 C2.91681 8.85293 2.75644 9.28782 2.75018 10.1117 C2.74373 10.9618 2.89981 12.0828 3.12616 13.6883 L3.54913 16.6883 C3.7269 17.9491 3.8514 18.821 4.03437 19.4747 C4.21058 20.1042 4.41795 20.4405 4.70664 20.6795 C5.00014 20.9225 5.39417 21.0784 6.09519 21.1625 C6.81393 21.2488 7.75347 21.25 9.09536 21.25 L14.9046 21.25 C16.2465 21.25 17.1861 21.2488 17.9048 21.1625 C18.6058 21.0784 18.9999 20.9225 19.2934 20.6795 C19.582 20.4405 19.7894 20.1042 19.9656 19.4747 C20.1486 18.821 20.2731 17.9491 20.4509 16.6883 L20.8738 13.6883 C21.1002 12.0828 21.2563 10.9618 21.2498 10.1117 C21.2436 9.28782 21.0832 8.85293 20.7873 8.53336 C20.4844 8.20618 20.0289 7.98917 19.1439 7.87145 C18.2427 7.75159 17.0364 7.75001 15.3276 7.75001 L8.67239 7.75001 C6.96357 7.75001 5.75726 7.75159 4.85612 7.87145 C3.97106 7.98917 3.51557 8.20618 3.21267 8.53336 Z" fill="#FFFFFF" />
</svg>