<svg xmlns="http://www.w3.org/2000/svg" width="24" height="24" viewBox="0 0 24 24" fill="none">
  <path fill-rule="nonzero" clip-rule="nonzero" d="M 18.6731 3.66678 C 18.0356 3.78024 17.1965 4.05792 15.9723 4.466 L 11.9723 5.79934 C 11.2959 6.02481 10.8487 6.17507 10.5192 6.32833 C 10.2072 6.47345 10.0724 6.59025 9.98595 6.71015 C 9.89953 6.83005 9.83138 6.99494 9.79235 7.33679 C 9.75113 7.69779 9.75 8.16956 9.75 8.88256 V 10.959 L 20.25 7.45895 C 20.2499 6.21736 20.2459 5.35983 20.1541 4.7342 C 20.0627 4.11097 19.906 3.88657 19.7309 3.76032 C 19.5557 3.63407 19.2933 3.55641 18.6731 3.66678 Z M21.7402 5.99952 L21.75 5.99952 L21.75 7.38161 C21.75 7.41692 21.75 7.45241 21.75 7.4881 L21.75 16.9995 C21.75 19.0706 20.0711 20.7495 18 20.7495 C15.9289 20.7495 14.25 19.0706 14.25 16.9995 C14.25 14.9285 15.9289 13.2495 18 13.2495 C18.8442 13.2495 19.6233 13.5285 20.25 13.9992 L20.25 9.04009 L9.75 12.5401 L9.75 18.9995 C9.75 21.0706 8.07107 22.7495 6 22.7495 C3.92893 22.7495 2.25 21.0706 2.25 18.9995 C2.25 16.9285 3.92893 15.2495 6 15.2495 C6.8442 15.2495 7.62325 15.5285 8.25 15.9992 L8.25 8.84095 C8.25 8.81336 8.25 8.78594 8.25 8.7587 L8.25 7.99952 L8.25495 7.99952 C8.26085 7.69183 8.27376 7.41423 8.30203 7.16664 C8.35738 6.68182 8.47799 6.23696 8.76908 5.83309 C9.06018 5.42921 9.44407 5.17412 9.88651 4.96829 C10.3027 4.77466 10.8321 4.59824 11.4584 4.38947 L15.5559 3.02365 C16.7078 2.63965 17.6516 2.32502 18.4103 2.18999 C19.1991 2.04961 19.9525 2.07106 20.608 2.54346 C21.2634 3.01586 21.522 3.72389 21.6382 4.51655 C21.7003 4.93995 21.7279 5.43502 21.7402 5.99952 Z M 20.25 16.9995 C 20.25 15.7569 19.2426 14.7495 18 14.7495 C 16.7574 14.7495 15.75 15.7569 15.75 16.9995 C 15.75 18.2422 16.7574 19.2495 18 19.2495 C 19.2426 19.2495 20.25 18.2422 20.25 16.9995 Z M 8.25 18.9995 C 8.25 17.7569 7.24264 16.7495 6 16.7495 C 4.75736 16.7495 3.75 17.7569 3.75 18.9995 C 3.75 20.2422 4.75736 21.2495 6 21.2495 C 7.24264 21.2495 8.25 20.2422 8.25 18.9995 Z" fill="#FFFFFF" />
</svg>