<svg xmlns="http://www.w3.org/2000/svg" width="24" height="24" viewBox="0 0 24 24" fill="none">
  <path fill-rule="nonzero" clip-rule="nonzero" d="M 19.1753 4.81074 C 18.9778 4.26549 18.4312 3.92768 17.8552 3.99487 C 17.7921 4.00224 17.6774 4.03117 17.4371 4.13589 C 17.1988 4.2398 16.8938 4.39203 16.4521 4.61285 L 13.8187 5.92957 C 13.4266 6.12559 13.3215 6.18176 13.2408 6.24345 C 12.9968 6.42999 12.83 6.69982 12.7723 7.00146 C 12.7532 7.10122 12.75 7.22042 12.75 7.65875 C 12.75 8.15252 12.7502 8.49341 12.7639 8.75308 C 12.7777 9.01477 12.8031 9.1303 12.8247 9.19003 C 13.0222 9.73529 13.5688 10.0731 14.1448 10.0059 C 14.2079 9.99854 14.3226 9.9696 14.5629 9.86489 C 14.8012 9.76098 15.1062 9.60875 15.5479 9.38793 L 18.1813 8.07121 C 18.5734 7.87518 18.6785 7.81902 18.7592 7.75732 C 19.0032 7.57079 19.17 7.30096 19.2277 6.99932 C 19.2468 6.89956 19.25 6.78035 19.25 6.34203 C 19.25 5.84825 19.2498 5.50737 19.2361 5.2477 C 19.2223 4.986 19.1969 4.87048 19.1753 4.81074 Z M 17.6814 2.50498 C 18.9486 2.35716 20.1511 3.10033 20.5856 4.29989 C 20.6835 4.57023 20.7179 4.86251 20.734 5.16888 C 20.75 5.47273 20.75 5.8533 20.75 6.32096 V 6.34203 C 20.75 6.36286 20.75 6.38342 20.75 6.40372 C 20.7502 6.75149 20.7503 7.02351 20.701 7.28132 C 20.5739 7.94492 20.2071 8.53854 19.6703 8.94893 C 19.4618 9.10836 19.2184 9.2299 18.9073 9.38527 C 18.8892 9.39435 18.8708 9.40353 18.8521 9.41285 L 16.1999 10.739 C 15.7816 10.9481 15.4412 11.1183 15.1622 11.2399 C 14.881 11.3625 14.6042 11.4625 14.3186 11.4958 C 13.7636 11.5605 13.2211 11.4544 12.75 11.2138 V 18.0004 C 12.75 20.6237 10.6234 22.7504 8 22.7504 C 5.37665 22.7504 3.25 20.6237 3.25 18.0004 C 3.25 15.377 5.37665 13.2504 8 13.2504 C 9.25721 13.2504 10.4003 13.7388 11.25 14.5363 V 8.00039 C 11.2498 7.89841 11.25 7.7916 11.25 7.67982 V 7.65875 C 11.25 7.63792 11.25 7.61736 11.25 7.59706 C 11.2498 7.24929 11.2497 6.97727 11.299 6.71946 C 11.4261 6.05585 11.7929 5.46223 12.3297 5.05185 C 12.5382 4.89242 12.7816 4.77088 13.0927 4.61551 C 13.1108 4.60644 13.1292 4.59725 13.1479 4.58793 L 15.8001 3.2618 C 16.2184 3.05265 16.5588 2.88244 16.8378 2.76086 C 17.119 2.63826 17.3958 2.53829 17.6814 2.50498 Z M 11.25 18.0004 C 11.25 16.2055 9.79493 14.7504 8 14.7504 C 6.20507 14.7504 4.75 16.2055 4.75 18.0004 C 4.75 19.7953 6.20507 21.2504 8 21.2504 C 9.79493 21.2504 11.25 19.7953 11.25 18.0004 Z" fill="#FFFFFF" />
</svg>