<svg xmlns="http://www.w3.org/2000/svg" width="24" height="24" viewBox="0 0 24 24" fill="none">
  <path fill-rule="nonzero" clip-rule="nonzero" d="M 12 9.75001 C 12.4142 9.75001 12.75 10.0858 12.75 10.5 C 12.75 11.0386 13.0654 11.6006 13.5835 12.0603 C 14.1145 12.5314 14.6946 12.75 15 12.75 C 15.4142 12.75 15.75 13.0858 15.75 13.5 C 15.75 13.9142 15.4142 14.25 15 14.25 C 14.2617 14.25 13.4202 13.8634 12.75 13.3197 V 17 C 12.75 18.2427 11.7426 19.25 10.5 19.25 C 9.25736 19.25 8.25 18.2427 8.25 17 C 8.25 15.7574 9.25736 14.75 10.5 14.75 C 10.763 14.75 11.0154 14.7951 11.25 14.878 V 10.5 C 11.25 10.0858 11.5858 9.75001 12 9.75001 Z M 11.25 17 C 11.25 16.5858 10.9142 16.25 10.5 16.25 C 10.0858 16.25 9.75 16.5858 9.75 17 C 9.75 17.4142 10.0858 17.75 10.5 17.75 C 10.9142 17.75 11.25 17.4142 11.25 17 Z" fill="#FFFFFF" />
  <path fill-rule="nonzero" clip-rule="nonzero" d="M 8.69935 1.25001 H 15.3004 C 15.5203 1.24995 15.6888 1.2499 15.8362 1.26571 C 17.1903 1.41104 18.2268 2.52307 18.2897 3.87013 C 19.4805 4.22571 20.3289 5.3275 20.3443 6.59118 C 20.9453 6.77151 21.4637 7.05595 21.888 7.51432 C 22.54 8.21857 22.7421 9.08649 22.7498 10.1003 C 22.7572 11.075 22.5835 12.3067 22.3678 13.8363 L 21.9288 16.9499 C 21.7602 18.146 21.6232 19.1176 21.4101 19.879 C 21.1871 20.6756 20.8585 21.331 20.25 21.8349 C 19.6463 22.3347 18.9301 22.5502 18.0835 22.6518 C 17.265 22.75 16.2353 22.75 14.9532 22.75 H 9.04687 C 7.76478 22.75 6.73501 22.75 5.91647 22.6518 C 5.06993 22.5502 4.35372 22.3347 3.75003 21.8349 C 3.14152 21.331 2.81286 20.6756 2.58989 19.879 C 2.37676 19.1176 2.23979 18.146 2.07118 16.9499 L 1.63219 13.8363 C 1.41651 12.3067 1.24283 11.075 1.25023 10.1003 C 1.25792 9.08649 1.45997 8.21857 2.11196 7.51432 C 2.53621 7.05606 3.05445 6.77164 3.65528 6.5913 C 3.67058 5.3275 4.51917 4.22559 5.71005 3.87007 C 5.77295 2.52304 6.80943 1.41104 8.16359 1.26571 C 8.31094 1.2499 8.4795 1.24995 8.69935 1.25001 Z M 5.18902 6.32785 C 6.11481 6.24999 7.24973 6.25 8.61594 6.25001 H 15.384 C 16.75 6.25 17.8848 6.24999 18.8105 6.32781 C 18.6734 5.72018 18.1306 5.25001 17.4617 5.25001 H 6.53787 C 5.86896 5.25001 5.32618 5.72019 5.18902 6.32785 Z M15.6761 2.75715 C15.6198 2.75111 15.5396 2.75001 15.2588 2.75001 L8.74099 2.75001 C8.46013 2.75001 8.37993 2.75111 8.32365 2.75715 C7.77344 2.8162 7.33862 3.22633 7.2321 3.75001 L16.7677 3.75001 C16.6611 3.22633 16.2263 2.8162 15.6761 2.75715 Z M3.21267 8.53336 C2.91681 8.85293 2.75644 9.28782 2.75018 10.1117 C2.74373 10.9618 2.89981 12.0828 3.12616 13.6883 L3.54913 16.6883 C3.7269 17.9491 3.8514 18.821 4.03437 19.4747 C4.21058 20.1042 4.41795 20.4405 4.70664 20.6795 C5.00014 20.9225 5.39417 21.0784 6.09519 21.1625 C6.81393 21.2488 7.75347 21.25 9.09536 21.25 L14.9046 21.25 C16.2465 21.25 17.1861 21.2488 17.9048 21.1625 C18.6058 21.0784 18.9999 20.9225 19.2934 20.6795 C19.582 20.4405 19.7894 20.1042 19.9656 19.4747 C20.1486 18.821 20.2731 17.9491 20.4509 16.6883 L20.8738 13.6883 C21.1002 12.0828 21.2563 10.9618 21.2498 10.1117 C21.2436 9.28782 21.0832 8.85293 20.7873 8.53336 C20.4844 8.20618 20.0289 7.98917 19.1439 7.87145 C18.2427 7.75159 17.0364 7.75001 15.3276 7.75001 L8.67239 7.75001 C6.96357 7.75001 5.75726 7.75159 4.85612 7.87145 C3.97106 7.98917 3.51557 8.20618 3.21267 8.53336 Z" fill="#FFFFFF" />
</svg>