<svg xmlns="http://www.w3.org/2000/svg" width="24" height="24" viewBox="0 0 24 24" fill="none">
  <path fill-rule="nonzero" clip-rule="nonzero" d="M 8.51159 3.69837 C 8.9663 4.07389 9.54565 4.25 10 4.25 C 10.4142 4.25 10.75 4.58579 10.75 5 C 10.75 5.41421 10.4142 5.75 10 5.75 C 9.27955 5.75 8.44852 5.50913 7.75 5.0045 V 11 C 7.75 11.1595 7.7002 11.3074 7.6153 11.429 C 7.21563 12.7712 5.97212 13.75 4.5 13.75 C 2.70507 13.75 1.25 12.2949 1.25 10.5 C 1.25 8.70507 2.70507 7.25 4.5 7.25 C 5.14432 7.25 5.74485 7.4375 6.25 7.76091 V 2 H 7.75 C 7.75 2.79785 8.0784 3.34061 8.51159 3.69837 Z M 6.25 10.5 C 6.25 9.5335 5.4665 8.75 4.5 8.75 C 3.5335 8.75 2.75 9.5335 2.75 10.5 C 2.75 11.4665 3.5335 12.25 4.5 12.25 C 5.4665 12.25 6.25 11.4665 6.25 10.5 Z M 19.5727 3.94109 C 18.901 4.11226 18.0215 4.47821 16.7452 5.01241 L 14.7452 5.84951 C 14.135 6.10492 13.7328 6.27436 13.4371 6.43763 C 13.1575 6.59205 13.0364 6.70818 12.9594 6.82394 C 12.8823 6.93969 12.822 7.09625 12.7875 7.41379 C 12.751 7.74954 12.75 8.18597 12.75 8.8475 V 10.8922 L 21.2497 7.49235 C 21.2478 6.38367 21.2348 5.58512 21.1466 4.98852 C 21.0473 4.31734 20.8772 4.0875 20.6925 3.96459 C 20.5079 3.84167 20.2302 3.77354 19.5727 3.94109 Z M22.75 7.98252 C22.7503 7.99404 22.7503 8.00554 22.75 8.01702 L22.75 17.1538 L22.7318 17.1538 C22.7438 17.2676 22.75 17.3831 22.75 17.5 C22.75 19.2949 21.2949 20.75 19.5 20.75 C17.7051 20.75 16.25 19.2949 16.25 17.5 C16.25 15.7051 17.7051 14.25 19.5 14.25 C20.1443 14.25 20.7449 14.4375 21.25 14.7609 L21.25 9.10778 L12.75 12.5078 L12.75 19 L12.7118 19 C12.7369 19.163 12.75 19.33 12.75 19.5 C12.75 21.2949 11.2949 22.75 9.5 22.75 C7.70507 22.75 6.25 21.2949 6.25 19.5 C6.25 17.7051 7.70507 16.25 9.5 16.25 C10.1443 16.25 10.7449 16.4375 11.25 16.7609 L11.25 12.0175 C11.2497 12.006 11.2497 11.9945 11.25 11.983 L11.25 8.80836 C11.25 8.19649 11.25 7.67809 11.2963 7.25181 C11.3455 6.79827 11.4527 6.38052 11.7106 5.99288 C11.9686 5.60525 12.3126 5.34512 12.712 5.12457 C13.0873 4.91728 13.5655 4.71715 14.13 4.48093 L16.224 3.60446 C17.4282 3.10042 18.4102 2.68938 19.2023 2.48754 C20.0213 2.27883 20.8164 2.24517 21.5236 2.71585 C22.2308 3.18652 22.5067 3.93292 22.6304 4.769 C22.7501 5.5776 22.75 6.64216 22.75 7.94757 L22.75 7.98252 Z M 19.5 15.75 C 18.5335 15.75 17.75 16.5335 17.75 17.5 C 17.75 18.4665 18.5335 19.25 19.5 19.25 C 20.4665 19.25 21.25 18.4665 21.25 17.5 C 21.25 16.5335 20.4665 15.75 19.5 15.75 Z M 9.5 17.75 C 8.5335 17.75 7.75 18.5335 7.75 19.5 C 7.75 20.4665 8.5335 21.25 9.5 21.25 C 10.4665 21.25 11.25 20.4665 11.25 19.5 C 11.25 18.5335 10.4665 17.75 9.5 17.75 Z" fill="#FFFFFF" />
</svg>