<svg xmlns="http://www.w3.org/2000/svg" width="24" height="24" viewBox="0 0 24 24" fill="none">
  <path fill-rule="nonzero" clip-rule="nonzero" d="M 10.9451 1.25 H 13.0549 C 14.4225 1.24998 15.5248 1.24996 16.3918 1.36652 C 17.2919 1.48754 18.0498 1.74643 18.6517 2.34835 C 19.0519 2.74855 19.3004 3.2177 19.4577 3.75175 C 19.6692 3.75503 19.8458 3.76426 20.0084 3.79001 C 21.3991 4.01027 22.4898 5.10094 22.71 6.49159 C 22.7502 6.74548 22.7501 7.03358 22.75 7.43528 C 22.75 7.45653 22.75 7.4781 22.75 7.5 V 16.5 C 22.75 16.5219 22.75 16.5435 22.75 16.5647 C 22.7501 16.9664 22.7502 17.2545 22.71 17.5084 C 22.4898 18.8991 21.3991 19.9897 20.0084 20.21 C 19.8458 20.2357 19.6692 20.245 19.4577 20.2482 C 19.3004 20.7823 19.0519 21.2514 18.6517 21.6517 C 18.0498 22.2536 17.2919 22.5125 16.3918 22.6335 C 15.5248 22.75 14.4225 22.75 13.0549 22.75 H 10.9452 C 9.57756 22.75 8.47524 22.75 7.60827 22.6335 C 6.70816 22.5125 5.95029 22.2536 5.34837 21.6517 C 4.94817 21.2514 4.69961 20.7823 4.54238 20.2482 C 4.33086 20.245 4.15422 20.2357 3.99161 20.21 C 2.60096 19.9897 1.51029 18.8991 1.29004 17.5084 C 1.24982 17.2545 1.2499 16.9664 1.25001 16.5647 C 1.25002 16.5435 1.25002 16.5219 1.25002 16.5 V 7.5 C 1.25002 7.4781 1.25002 7.45652 1.25001 7.43527 C 1.2499 7.03357 1.24982 6.74548 1.29004 6.49159 C 1.51029 5.10094 2.60096 4.01027 3.99161 3.79001 C 4.15422 3.76426 4.33086 3.75503 4.54238 3.75175 C 4.69961 3.2177 4.94817 2.74855 5.34837 2.34835 C 5.95029 1.74643 6.70816 1.48754 7.60827 1.36652 C 8.47524 1.24996 9.57756 1.24998 10.9451 1.25 Z M 4.30193 5.26229 C 4.27396 5.26483 4.24942 5.26788 4.22626 5.27155 C 3.47745 5.39015 2.89017 5.97743 2.77157 6.72624 C 2.75235 6.84758 2.75002 7.00684 2.75002 7.5 V 16.5 C 2.75002 16.9932 2.75235 17.1524 2.77157 17.2738 C 2.89017 18.0226 3.47745 18.6099 4.22626 18.7285 C 4.24942 18.7321 4.27396 18.7352 4.30193 18.7377 C 4.24999 17.9893 4.25001 17.0995 4.25002 16.0549 V 7.94512 C 4.25001 6.90052 4.24999 6.01069 4.30193 5.26229 Z M 19.6981 18.7377 C 19.7261 18.7352 19.7506 18.7321 19.7738 18.7285 C 20.5226 18.6099 21.1099 18.0226 21.2285 17.2738 C 21.2477 17.1524 21.25 16.9932 21.25 16.5 V 7.5 C 21.25 7.00684 21.2477 6.84758 21.2285 6.72624 C 21.1099 5.97743 20.5226 5.39015 19.7738 5.27155 C 19.7506 5.26788 19.7261 5.26483 19.6981 5.26229 C 19.7501 6.01069 19.75 6.90053 19.75 7.94513 V 16.0549 C 19.75 17.0995 19.7501 17.9893 19.6981 18.7377 Z M 7.80814 2.85315 C 7.07437 2.9518 6.6858 3.13225 6.40903 3.40901 C 6.13227 3.68577 5.95182 4.07435 5.85317 4.80812 C 5.75162 5.56347 5.75002 6.56458 5.75002 8 V 16 C 5.75002 17.4354 5.75162 18.4365 5.85317 19.1919 C 5.95182 19.9257 6.13227 20.3142 6.40903 20.591 C 6.6858 20.8678 7.07437 21.0482 7.80814 21.1469 C 8.56349 21.2484 9.56461 21.25 11 21.25 H 13 C 14.4354 21.25 15.4366 21.2484 16.1919 21.1469 C 16.9257 21.0482 17.3143 20.8678 17.591 20.591 C 17.8678 20.3142 18.0482 19.9257 18.1469 19.1919 C 18.2484 18.4365 18.25 17.4354 18.25 16 V 8 C 18.25 6.56458 18.2484 5.56347 18.1469 4.80812 C 18.0482 4.07435 17.8678 3.68577 17.591 3.40901 C 17.3143 3.13225 16.9257 2.9518 16.1919 2.85315 C 15.4366 2.75159 14.4354 2.75 13 2.75 H 11 C 9.56461 2.75 8.56349 2.75159 7.80814 2.85315 Z M 13.75 10.4501 V 14 C 13.75 15.5188 12.5188 16.75 11 16.75 C 9.48124 16.75 8.25002 15.5188 8.25002 14 C 8.25002 12.4812 9.48124 11.25 11 11.25 C 11.4501 11.25 11.875 11.3581 12.25 11.5499 V 8.75 C 12.25 8.33579 12.5858 8 13 8 C 13.4142 8 13.7341 8.36417 13.9682 8.70583 C 14.1934 9.03443 14.5716 9.25 15 9.25 C 15.4142 9.25 15.75 9.58579 15.75 10 C 15.75 10.4142 15.4142 10.75 15 10.75 C 14.5499 10.75 14.1251 10.6419 13.75 10.4501 Z M 11 12.75 C 10.3097 12.75 9.75002 13.3096 9.75002 14 C 9.75002 14.6904 10.3097 15.25 11 15.25 C 11.6904 15.25 12.25 14.6904 12.25 14 C 12.25 13.3096 11.6904 12.75 11 12.75 Z" fill="#FFFFFF" />
</svg>