<svg xmlns="http://www.w3.org/2000/svg" width="24" height="24" viewBox="0 0 24 24" fill="none">
  <path fill-rule="nonzero" clip-rule="nonzero" d="M 10.9451 1.25 H 13.0549 C 14.4225 1.24998 15.5248 1.24996 16.3918 1.36652 C 17.2919 1.48754 18.0498 1.74643 18.6517 2.34835 C 19.0519 2.74855 19.3004 3.2177 19.4577 3.75175 C 19.6692 3.75503 19.8458 3.76426 20.0084 3.79001 C 21.3991 4.01027 22.4898 5.10094 22.71 6.49159 C 22.7502 6.74548 22.7501 7.03358 22.75 7.43528 C 22.75 7.45653 22.75 7.4781 22.75 7.5 V 16.5 C 22.75 16.5219 22.75 16.5435 22.75 16.5647 C 22.7501 16.9664 22.7502 17.2545 22.71 17.5084 C 22.4898 18.8991 21.3991 19.9897 20.0084 20.21 C 19.8458 20.2357 19.6692 20.245 19.4577 20.2482 C 19.3004 20.7823 19.0519 21.2514 18.6517 21.6517 C 18.0498 22.2536 17.2919 22.5125 16.3918 22.6335 C 15.5248 22.75 14.4225 22.75 13.0549 22.75 H 10.9452 C 9.57756 22.75 8.47524 22.75 7.60827 22.6335 C 6.70816 22.5125 5.95029 22.2536 5.34837 21.6517 C 4.94817 21.2514 4.69961 20.7823 4.54238 20.2482 C 4.33086 20.245 4.15422 20.2357 3.99161 20.21 C 2.60096 19.9897 1.51029 18.8991 1.29004 17.5084 C 1.24982 17.2545 1.2499 16.9664 1.25001 16.5647 C 1.25002 16.5435 1.25002 16.5219 1.25002 16.5 V 7.5 C 1.25002 7.4781 1.25002 7.45652 1.25001 7.43527 C 1.2499 7.03357 1.24982 6.74548 1.29004 6.49159 C 1.51029 5.10094 2.60096 4.01027 3.99161 3.79001 C 4.15422 3.76426 4.33086 3.75503 4.54238 3.75175 C 4.69961 3.2177 4.94817 2.74855 5.34837 2.34835 C 5.95029 1.74643 6.70816 1.48754 7.60827 1.36652 C 8.47524 1.24996 9.57756 1.24998 10.9451 1.25 Z M 4.30193 5.26229 C 4.27396 5.26483 4.24942 5.26788 4.22626 5.27155 C 3.47745 5.39015 2.89017 5.97743 2.77157 6.72624 C 2.75235 6.84758 2.75002 7.00684 2.75002 7.5 V 16.5 C 2.75002 16.9932 2.75235 17.1524 2.77157 17.2738 C 2.89017 18.0226 3.47745 18.6099 4.22626 18.7285 C 4.24942 18.7321 4.27396 18.7352 4.30193 18.7377 C 4.24999 17.9893 4.25001 17.0995 4.25002 16.0549 V 7.94512 C 4.25001 6.90052 4.24999 6.01069 4.30193 5.26229 Z M 19.6981 18.7377 C 19.7261 18.7352 19.7506 18.7321 19.7738 18.7285 C 20.5226 18.6099 21.1099 18.0226 21.2285 17.2738 C 21.2477 17.1524 21.25 16.9932 21.25 16.5 V 7.5 C 21.25 7.00684 21.2477 6.84758 21.2285 6.72624 C 21.1099 5.97743 20.5226 5.39015 19.7738 5.27155 C 19.7506 5.26788 19.7261 5.26483 19.6981 5.26229 C 19.7501 6.01069 19.75 6.90053 19.75 7.94513 V 16.0549 C 19.75 17.0995 19.7501 17.9893 19.6981 18.7377 Z M 7.80814 2.85315 C 7.07437 2.9518 6.6858 3.13225 6.40903 3.40901 C 6.13227 3.68577 5.95182 4.07435 5.85317 4.80812 C 5.75162 5.56347 5.75002 6.56458 5.75002 8 V 16 C 5.75002 17.4354 5.75162 18.4365 5.85317 19.1919 C 5.95182 19.9257 6.13227 20.3142 6.40903 20.591 C 6.6858 20.8678 7.07437 21.0482 7.80814 21.1469 C 8.56349 21.2484 9.56461 21.25 11 21.25 H 13 C 14.4354 21.25 15.4366 21.2484 16.1919 21.1469 C 16.9257 21.0482 17.3143 20.8678 17.591 20.591 C 17.8678 20.3142 18.0482 19.9257 18.1469 19.1919 C 18.2484 18.4365 18.25 17.4354 18.25 16 V 8 C 18.25 6.56458 18.2484 5.56347 18.1469 4.80812 C 18.0482 4.07435 17.8678 3.68577 17.591 3.40901 C 17.3143 3.13225 16.9257 2.9518 16.1919 2.85315 C 15.4366 2.75159 14.4354 2.75 13 2.75 H 11 C 9.56461 2.75 8.56349 2.75159 7.80814 2.85315 Z M 14.9786 8.36896 C 14.9705 8.37131 14.9383 8.38107 14.8684 8.41151 C 14.7604 8.45859 14.6183 8.52939 14.3938 8.64164 L 13.0771 9.3 C 12.9813 9.34791 12.9267 9.37533 12.886 9.39748 C 12.8606 9.41136 12.8503 9.41805 12.8477 9.41979 C 12.7993 9.45697 12.7662 9.51056 12.7546 9.57046 C 12.7542 9.57352 12.7528 9.58575 12.7518 9.61471 C 12.7501 9.66096 12.75 9.72205 12.75 9.82918 C 12.75 10.0802 12.7503 10.239 12.7565 10.3566 C 12.7605 10.4327 12.7661 10.4659 12.7676 10.4742 C 12.8083 10.5767 12.9116 10.6406 13.0215 10.631 C 13.0295 10.6287 13.0618 10.6189 13.1316 10.5885 C 13.2396 10.5414 13.3818 10.4706 13.6063 10.3584 L 14.923 9.7 C 15.0188 9.65209 15.0734 9.62468 15.114 9.60252 C 15.1395 9.58865 15.1498 9.58195 15.1523 9.58021 C 15.2009 9.54292 15.234 9.48912 15.2456 9.429 C 15.2446 9.43393 15.2468 9.42673 15.2483 9.38529 C 15.2499 9.33904 15.25 9.27795 15.25 9.17082 C 15.25 8.91982 15.2498 8.76101 15.2436 8.64336 C 15.2396 8.56729 15.2339 8.53409 15.2324 8.52584 C 15.1917 8.42327 15.0885 8.35945 14.9786 8.36896 Z M 14.7973 6.87982 C 15.6037 6.78575 16.3689 7.25868 16.6454 8.02204 C 16.7134 8.20986 16.7329 8.40019 16.7415 8.56454 C 16.75 8.72648 16.75 8.92534 16.75 9.1521 V 9.17082 C 16.75 9.18435 16.75 9.19795 16.7501 9.21163 C 16.7503 9.37353 16.7505 9.54526 16.7188 9.71096 C 16.638 10.1333 16.4045 10.511 16.063 10.7722 C 15.9289 10.8746 15.7752 10.9512 15.6303 11.0234 C 15.6181 11.0295 15.6059 11.0356 15.5938 11.0416 L 14.2604 11.7084 C 14.0575 11.8098 13.8797 11.8987 13.731 11.9635 C 13.5801 12.0293 13.4012 12.097 13.2028 12.1202 C 13.0493 12.1381 12.8974 12.1355 12.75 12.1142 V 15 C 12.75 16.5188 11.5188 17.75 10 17.75 C 8.48124 17.75 7.25002 16.5188 7.25002 15 C 7.25002 13.4812 8.48124 12.25 10 12.25 C 10.4501 12.25 10.875 12.3581 11.25 12.5499 V 10 C 11.2499 9.95086 11.25 9.90012 11.25 9.8479 V 9.82918 C 11.25 9.81565 11.25 9.80205 11.25 9.78837 C 11.2498 9.62647 11.2495 9.45474 11.2812 9.28904 C 11.3621 8.86674 11.5955 8.48898 11.9371 8.22783 C 12.0711 8.12536 12.2248 8.04878 12.3697 7.97658 C 12.382 7.97048 12.3942 7.96441 12.4063 7.95836 L 13.7397 7.29164 C 13.9425 7.19022 14.1204 7.10128 14.269 7.03648 C 14.4199 6.97071 14.5988 6.90297 14.7973 6.87982 Z M 11.25 15 C 11.25 14.3096 10.6904 13.75 10 13.75 C 9.30967 13.75 8.75002 14.3096 8.75002 15 C 8.75002 15.6904 9.30967 16.25 10 16.25 C 10.6904 16.25 11.25 15.6904 11.25 15 Z" fill="#FFFFFF" />
</svg>