<svg xmlns="http://www.w3.org/2000/svg" width="24" height="24" viewBox="0 0 24 24" fill="none">
  <path fill-rule="nonzero" clip-rule="nonzero" d="M 17.7971 3.3568 C 18.441 2.86719 19.3233 2.68917 20.1838 3.06604 C 20.894 3.37708 21.5116 3.74924 21.9628 4.18966 C 22.416 4.63206 22.75 5.195 22.75 5.85989 V 18.5764 C 22.75 19.3688 22.2796 20.0115 21.686 20.492 C 21.0861 20.9776 20.2637 21.3817 19.314 21.7069 C 17.4072 22.3597 14.8213 22.7501 12 22.7501 C 9.17869 22.7501 6.59281 22.3597 4.686 21.7069 C 3.73627 21.3817 2.91391 20.9776 2.31397 20.492 C 1.72038 20.0115 1.25 19.3688 1.25 18.5764 V 5.85989 C 1.25 5.195 1.58399 4.63206 2.0372 4.18966 C 2.48839 3.74924 3.10596 3.37708 3.81617 3.06604 C 4.67668 2.68917 5.55899 2.86719 6.20295 3.3568 C 6.83685 3.83877 7.25 4.62479 7.25 5.50224 V 8.11022 C 8.64413 8.37843 10.2649 8.5336 12 8.5336 C 13.7351 8.5336 15.3559 8.37843 16.75 8.11022 V 5.50224 C 16.75 4.62479 17.1631 3.83877 17.7971 3.3568 Z M 18.25 7.75342 C 19.134 7.49711 19.8512 7.19455 20.3705 6.87151 C 21.0928 6.42225 21.25 6.05639 21.25 5.85989 C 21.25 5.73022 21.1887 5.53021 20.915 5.26306 C 20.6393 4.99393 20.1984 4.70995 19.5821 4.44004 C 19.2679 4.30246 18.9588 4.35786 18.7049 4.55087 C 18.441 4.75152 18.25 5.09732 18.25 5.50224 V 7.75342 Z M 21.25 8.08989 C 21.2211 8.10859 21.192 8.12703 21.1628 8.1452 C 20.279 8.695 19.065 9.13509 17.6653 9.45128 C 16.0264 9.82148 14.0801 10.0336 12 10.0336 C 9.91994 10.0336 7.9736 9.82148 6.33475 9.45128 C 4.93499 9.13509 3.72104 8.695 2.83719 8.1452 C 2.80798 8.12703 2.77891 8.10859 2.75 8.08989 V 17.8425 L 5.79302 14.9948 L 7.165 13.8464 C 8.1622 13.0117 9.65619 13.0575 10.5965 13.957 L 13.9176 17.1339 C 14.1922 17.3966 14.6395 17.4374 14.9659 17.2179 L 15.1967 17.0627 C 16.3608 16.2802 17.9311 16.3683 18.9937 17.2831 L 21.0374 19.0426 C 21.2064 18.8414 21.25 18.6833 21.25 18.5764 V 8.08989 Z M 19.7551 19.9179 L 18.015 18.4199 C 17.468 17.9489 16.6413 17.8991 16.0336 18.3076 L 15.8028 18.4628 C 14.8979 19.0711 13.6701 18.973 12.8807 18.2178 L 9.55962 15.0409 C 9.17417 14.6722 8.54158 14.6503 8.12777 14.9966 L 6.78763 16.1184 L 3.31313 19.3698 C 3.72644 19.6888 4.34957 20.0062 5.17187 20.2877 C 6.88434 20.874 9.29846 21.2501 12 21.2501 C 14.7015 21.2501 17.1157 20.874 18.8281 20.2877 C 19.1723 20.1699 19.4815 20.0458 19.7551 19.9179 Z M 2.75 5.85989 C 2.75 6.05639 2.90725 6.42225 3.62948 6.87151 C 4.1488 7.19455 4.86599 7.49711 5.75 7.75342 V 5.50224 C 5.75 5.09732 5.55899 4.75152 5.29508 4.55087 C 5.04123 4.35786 4.73207 4.30246 4.41793 4.44004 C 3.80164 4.70995 3.36068 4.99393 3.08497 5.26306 C 2.81128 5.53021 2.75 5.73022 2.75 5.85989 Z M 18 12.2501 C 17.5858 12.2501 17.25 12.5859 17.25 13.0001 C 17.25 13.4143 17.5858 13.7501 18 13.7501 C 18.4142 13.7501 18.75 13.4143 18.75 13.0001 C 18.75 12.5859 18.4142 12.2501 18 12.2501 Z M 15.75 13.0001 C 15.75 11.7574 16.7574 10.7501 18 10.7501 C 19.2426 10.7501 20.25 11.7574 20.25 13.0001 C 20.25 14.2427 19.2426 15.2501 18 15.2501 C 16.7574 15.2501 15.75 14.2427 15.75 13.0001 Z" fill="#FFFFFF" />
</svg>