<svg xmlns="http://www.w3.org/2000/svg" width="24" height="24" viewBox="0 0 24 24" fill="none">
  <path fill-rule="nonzero" clip-rule="nonzero" d="M 5.948 1.25 H 6.052 C 6.95048 1.24997 7.6997 1.24995 8.29448 1.32991 C 8.92228 1.41432 9.48908 1.59999 9.94455 2.05546 C 10.4 2.51093 10.5857 3.07773 10.6701 3.70552 C 10.7501 4.30031 10.75 5.04953 10.75 5.94801 V 18.052 C 10.75 18.9505 10.7501 19.6997 10.6701 20.2945 C 10.5857 20.9223 10.4 21.4891 9.94455 21.9445 C 9.48908 22.4 8.92228 22.5857 8.29448 22.6701 C 7.6997 22.7501 6.95048 22.75 6.052 22.75 H 5.94801 C 5.04953 22.75 4.30031 22.7501 3.70552 22.6701 C 3.07773 22.5857 2.51093 22.4 2.05546 21.9445 C 1.59999 21.4891 1.41432 20.9223 1.32991 20.2945 C 1.24995 19.6997 1.24997 18.9505 1.25 18.052 V 5.948 C 1.24997 5.04952 1.24995 4.3003 1.32991 3.70552 C 1.41432 3.07773 1.59999 2.51093 2.05546 2.05546 C 2.51093 1.59999 3.07773 1.41432 3.70552 1.32991 C 4.3003 1.24995 5.04952 1.24997 5.948 1.25 Z M 3.90539 2.81654 C 3.44393 2.87858 3.24644 2.9858 3.11612 3.11612 C 2.9858 3.24644 2.87858 3.44393 2.81654 3.90539 C 2.7516 4.38843 2.75 5.03599 2.75 6 V 18 C 2.75 18.964 2.7516 19.6116 2.81654 20.0946 C 2.87858 20.5561 2.9858 20.7536 3.11612 20.8839 C 3.24644 21.0142 3.44393 21.1214 3.90539 21.1835 C 4.38843 21.2484 5.03599 21.25 6 21.25 C 6.96401 21.25 7.61157 21.2484 8.09461 21.1835 C 8.55607 21.1214 8.75357 21.0142 8.88389 20.8839 C 9.0142 20.7536 9.12143 20.5561 9.18347 20.0946 C 9.24841 19.6116 9.25 18.964 9.25 18 V 6 C 9.25 5.03599 9.24841 4.38843 9.18347 3.90539 C 9.12143 3.44393 9.0142 3.24644 8.88389 3.11612 C 8.75357 2.9858 8.55607 2.87858 8.09461 2.81654 C 7.61157 2.7516 6.96401 2.75 6 2.75 C 5.03599 2.75 4.38843 2.7516 3.90539 2.81654 Z M 17.948 1.25 H 18.052 C 18.9505 1.24997 19.6997 1.24995 20.2945 1.32991 C 20.9223 1.41432 21.4891 1.59999 21.9445 2.05546 C 22.4 2.51093 22.5857 3.07773 22.6701 3.70552 C 22.7501 4.30031 22.75 5.04953 22.75 5.94801 V 18.052 C 22.75 18.9505 22.7501 19.6997 22.6701 20.2945 C 22.5857 20.9223 22.4 21.4891 21.9445 21.9445 C 21.4891 22.4 20.9223 22.5857 20.2945 22.6701 C 19.6997 22.7501 18.9505 22.75 18.052 22.75 H 17.948 C 17.0495 22.75 16.3003 22.7501 15.7055 22.6701 C 15.0777 22.5857 14.5109 22.4 14.0555 21.9445 C 13.6 21.4891 13.4143 20.9223 13.3299 20.2945 C 13.2499 19.6997 13.25 18.9505 13.25 18.052 V 5.94801 C 13.25 5.04953 13.2499 4.3003 13.3299 3.70552 C 13.4143 3.07773 13.6 2.51093 14.0555 2.05546 C 14.5109 1.59999 15.0777 1.41432 15.7055 1.32991 C 16.3003 1.24995 17.0495 1.24997 17.948 1.25 Z M 15.9054 2.81654 C 15.4439 2.87858 15.2464 2.9858 15.1161 3.11612 C 14.9858 3.24644 14.8786 3.44393 14.8165 3.90539 C 14.7516 4.38843 14.75 5.03599 14.75 6 V 18 C 14.75 18.964 14.7516 19.6116 14.8165 20.0946 C 14.8786 20.5561 14.9858 20.7536 15.1161 20.8839 C 15.2464 21.0142 15.4439 21.1214 15.9054 21.1835 C 16.3884 21.2484 17.036 21.25 18 21.25 C 18.964 21.25 19.6116 21.2484 20.0946 21.1835 C 20.5561 21.1214 20.7536 21.0142 20.8839 20.8839 C 21.0142 20.7536 21.1214 20.5561 21.1835 20.0946 C 21.2484 19.6116 21.25 18.964 21.25 18 V 6 C 21.25 5.03599 21.2484 4.38843 21.1835 3.90539 C 21.1214 3.44393 21.0142 3.24644 20.8839 3.11612 C 20.7536 2.9858 20.5561 2.87858 20.0946 2.81654 C 19.6116 2.7516 18.964 2.75 18 2.75 C 17.036 2.75 16.3884 2.7516 15.9054 2.81654 Z" fill="#FFFFFF" />
</svg>