<svg xmlns="http://www.w3.org/2000/svg" width="24" height="24" viewBox="0 0 24 24" fill="none">
  <path fill-rule="nonzero" clip-rule="nonzero" d="M 12 2.75 C 6.89137 2.75 2.75 6.89137 2.75 12 C 2.75 17.1086 6.89137 21.25 12 21.25 C 17.1086 21.25 21.25 17.1086 21.25 12 C 21.25 6.89137 17.1086 2.75 12 2.75 Z M 1.25 12 C 1.25 6.06294 6.06294 1.25 12 1.25 C 17.9371 1.25 22.75 6.06294 22.75 12 C 22.75 17.9371 17.9371 22.75 12 22.75 C 6.06294 22.75 1.25 17.9371 1.25 12 Z M 9.47824 7.25 H 9.52176 C 9.73604 7.24999 9.93288 7.24997 10.0982 7.26125 C 10.2759 7.27338 10.4712 7.30099 10.6697 7.38321 C 11.0985 7.56083 11.4392 7.90151 11.6168 8.3303 C 11.699 8.52881 11.7266 8.72415 11.7387 8.90179 C 11.75 9.06712 11.75 9.26396 11.75 9.47824 V 14.5218 C 11.75 14.736 11.75 14.9329 11.7387 15.0982 C 11.7266 15.2759 11.699 15.4712 11.6168 15.6697 C 11.4392 16.0985 11.0985 16.4392 10.6697 16.6168 C 10.4712 16.699 10.2759 16.7266 10.0982 16.7387 C 9.93288 16.75 9.73604 16.75 9.52176 16.75 H 9.47824 C 9.26396 16.75 9.06712 16.75 8.90179 16.7387 C 8.72415 16.7266 8.52881 16.699 8.3303 16.6168 C 7.90151 16.4392 7.56083 16.0985 7.38321 15.6697 C 7.30099 15.4712 7.27338 15.2759 7.26125 15.0982 C 7.24997 14.9329 7.24999 14.736 7.25 14.5218 V 9.47824 C 7.24999 9.26396 7.24997 9.06712 7.26125 8.90179 C 7.27338 8.72415 7.30099 8.52881 7.38321 8.3303 C 7.56083 7.9015 7.9015 7.56083 8.3303 7.38321 C 8.52881 7.30099 8.72415 7.27338 8.90179 7.26125 C 9.06712 7.24997 9.26396 7.24999 9.47824 7.25 Z M 8.90131 8.7703 C 8.84248 8.79558 8.79558 8.84248 8.7703 8.90131 C 8.76844 8.90866 8.76234 8.93706 8.75778 9.0039 C 8.75041 9.1119 8.75 9.25677 8.75 9.5 V 14.5 C 8.75 14.7432 8.75041 14.8881 8.75778 14.9961 C 8.76234 15.0629 8.76844 15.0913 8.7703 15.0987 C 8.79558 15.1575 8.84248 15.2044 8.90131 15.2297 C 8.90866 15.2316 8.93706 15.2377 9.0039 15.2422 C 9.1119 15.2496 9.25677 15.25 9.5 15.25 C 9.74323 15.25 9.8881 15.2496 9.9961 15.2422 C 10.0629 15.2377 10.0913 15.2316 10.0987 15.2297 C 10.1575 15.2044 10.2044 15.1575 10.2297 15.0987 C 10.2316 15.0913 10.2377 15.0629 10.2422 14.9961 C 10.2496 14.8881 10.25 14.7432 10.25 14.5 V 9.5 C 10.25 9.25677 10.2496 9.1119 10.2422 9.0039 C 10.2377 8.93706 10.2316 8.90866 10.2297 8.90131 C 10.2044 8.84247 10.1575 8.79558 10.0987 8.7703 C 10.0913 8.76843 10.0629 8.76233 9.9961 8.75778 C 9.8881 8.75041 9.74323 8.75 9.5 8.75 C 9.25677 8.75 9.1119 8.75041 9.0039 8.75778 C 8.93707 8.76234 8.90866 8.76844 8.90131 8.7703 Z M 14.4782 7.25 H 14.5218 C 14.736 7.24999 14.9329 7.24997 15.0982 7.26125 C 15.2759 7.27338 15.4712 7.30099 15.6697 7.38321 C 16.0985 7.56083 16.4392 7.90151 16.6168 8.3303 C 16.699 8.52881 16.7266 8.72415 16.7387 8.90179 C 16.75 9.06712 16.75 9.26396 16.75 9.47824 V 14.5218 C 16.75 14.736 16.75 14.9329 16.7387 15.0982 C 16.7266 15.2759 16.699 15.4712 16.6168 15.6697 C 16.4392 16.0985 16.0985 16.4392 15.6697 16.6168 C 15.4712 16.699 15.2759 16.7266 15.0982 16.7387 C 14.9329 16.75 14.736 16.75 14.5218 16.75 H 14.4782 C 14.264 16.75 14.0671 16.75 13.9018 16.7387 C 13.7241 16.7266 13.5288 16.699 13.3303 16.6168 C 12.9015 16.4392 12.5608 16.0985 12.3832 15.6697 C 12.301 15.4712 12.2734 15.2759 12.2613 15.0982 C 12.25 14.9329 12.25 14.736 12.25 14.5218 V 9.47824 C 12.25 9.26396 12.25 9.06712 12.2613 8.90179 C 12.2734 8.72415 12.301 8.52881 12.3832 8.3303 C 12.5608 7.90151 12.9015 7.56083 13.3303 7.38321 C 13.5288 7.30099 13.7241 7.27338 13.9018 7.26125 C 14.0671 7.24997 14.264 7.24999 14.4782 7.25 Z M 13.9013 8.7703 C 13.8425 8.79558 13.7956 8.84248 13.7703 8.90131 C 13.7684 8.90866 13.7623 8.93707 13.7578 9.0039 C 13.7504 9.1119 13.75 9.25677 13.75 9.5 V 14.5 C 13.75 14.7432 13.7504 14.8881 13.7578 14.9961 C 13.7623 15.0629 13.7684 15.0913 13.7703 15.0987 C 13.7956 15.1575 13.8425 15.2044 13.9013 15.2297 C 13.9087 15.2316 13.9371 15.2377 14.0039 15.2422 C 14.1119 15.2496 14.2568 15.25 14.5 15.25 C 14.7432 15.25 14.8881 15.2496 14.9961 15.2422 C 15.0629 15.2377 15.0913 15.2316 15.0987 15.2297 C 15.1575 15.2044 15.2044 15.1575 15.2297 15.0987 C 15.2316 15.0913 15.2377 15.0629 15.2422 14.9961 C 15.2496 14.8881 15.25 14.7432 15.25 14.5 V 9.5 C 15.25 9.25677 15.2496 9.1119 15.2422 9.0039 C 15.2377 8.93707 15.2316 8.90867 15.2297 8.90131 C 15.2044 8.84248 15.1575 8.79558 15.0987 8.7703 C 15.0913 8.76844 15.0629 8.76234 14.9961 8.75778 C 14.8881 8.75041 14.7432 8.75 14.5 8.75 C 14.2568 8.75 14.1119 8.75041 14.0039 8.75778 C 13.9371 8.76233 13.9087 8.76844 13.9013 8.7703 Z" fill="#FFFFFF" />
</svg>