<svg xmlns="http://www.w3.org/2000/svg" width="24" height="24" viewBox="0 0 24 24" fill="none">
  <path fill-rule="nonzero" clip-rule="nonzero" d="M12 22 C6.47715 22 2 17.5228 2 12 C2 6.47715 6.47715 2 12 2 C17.5228 2 22 6.47715 22 12 C22 17.5228 17.5228 22 12 22 Z M 8.07612 8.61732 C 8 8.80109 8 9.03406 8 9.5 V 14.5 C 8 14.9659 8 15.1989 8.07612 15.3827 C 8.17761 15.6277 8.37229 15.8224 8.61732 15.9239 C 8.80109 16 9.03406 16 9.5 16 C 9.96594 16 10.1989 16 10.3827 15.9239 C 10.6277 15.8224 10.8224 15.6277 10.9239 15.3827 C 11 15.1989 11 14.9659 11 14.5 V 9.5 C 11 9.03406 11 8.80109 10.9239 8.61732 C 10.8224 8.37229 10.6277 8.17761 10.3827 8.07612 C 10.1989 8 9.96594 8 9.5 8 C 9.03406 8 8.80109 8 8.61732 8.07612 C 8.37229 8.17761 8.17761 8.37229 8.07612 8.61732 Z M 13.0761 8.61732 C 13 8.80109 13 9.03406 13 9.5 V 14.5 C 13 14.9659 13 15.1989 13.0761 15.3827 C 13.1776 15.6277 13.3723 15.8224 13.6173 15.9239 C 13.8011 16 14.0341 16 14.5 16 C 14.9659 16 15.1989 16 15.3827 15.9239 C 15.6277 15.8224 15.8224 15.6277 15.9239 15.3827 C 16 15.1989 16 14.9659 16 14.5 V 9.5 C 16 9.03406 16 8.80109 15.9239 8.61732 C 15.8224 8.37229 15.6277 8.17761 15.3827 8.07612 C 15.1989 8 14.9659 8 14.5 8 C 14.0341 8 13.8011 8 13.6173 8.07612 C 13.3723 8.17761 13.1776 8.37229 13.0761 8.61732 Z" fill="#FFFFFF" />
</svg>