<svg xmlns="http://www.w3.org/2000/svg" width="24" height="24" viewBox="0 0 24 24" fill="none">
  <path fill-rule="nonzero" clip-rule="nonzero" d="M2.95491 5.06107 C3.26331 4.6366 3.6366 4.26331 4.06107 3.95491 C5.3754 3 7.25027 3 11 3 L13 3 C16.7497 3 18.6246 3 19.9389 3.95491 C20.3634 4.26331 20.7367 4.6366 21.0451 5.06107 C22 6.3754 22 8.25027 22 12 C22 15.7497 22 17.6246 21.0451 18.9389 C20.7367 19.3634 20.3634 19.7367 19.9389 20.0451 C18.6246 21 16.7497 21 13 21 L11 21 C7.25027 21 5.3754 21 4.06107 20.0451 C3.6366 19.7367 3.26331 19.3634 2.95491 18.9389 C2 17.6246 2 15.7497 2 12 C2 8.25027 2 6.3754 2.95491 5.06107 Z M 11.174 12.4404 C 11 12.8692 11 13.4128 11 14.5 C 11 15.5872 11 16.1308 11.174 16.5596 C 11.406 17.1313 11.8509 17.5856 12.411 17.8224 C 12.8311 18 13.3636 18 14.4286 18 H 15.5714 C 16.6364 18 17.1689 18 17.589 17.8224 C 18.1491 17.5856 18.594 17.1313 18.826 16.5596 C 19 16.1308 19 15.5872 19 14.5 C 19 13.4128 19 12.8692 18.826 12.4404 C 18.594 11.8687 18.1491 11.4144 17.589 11.1776 C 17.1689 11 16.6364 11 15.5714 11 H 14.4286 C 13.3636 11 12.8311 11 12.411 11.1776 C 11.8509 11.4144 11.406 11.8687 11.174 12.4404 Z" fill="#FFFFFF" />
</svg>