<svg xmlns="http://www.w3.org/2000/svg" width="24" height="24" viewBox="0 0 24 24" fill="none">
  <path fill-rule="nonzero" clip-rule="nonzero" d="M11.0748 7.50835 L15.795 10.2952 C17.0683 11.047 17.0683 12.953 15.795 13.7048 L11.0748 16.4916 C9.74622 17.276 8.25 16.2093 8.25 14.7868 L8.25 9.21316 C8.25 7.79065 9.74622 6.72395 11.0748 7.50835 Z M9.75 9.21316 L9.75 14.7868 C9.75 14.9853 9.84615 15.1242 9.95947 15.195 C10.0691 15.2636 10.1919 15.271 10.3122 15.2 L15.0324 12.4131 C15.165 12.3348 15.25 12.1852 15.25 12 C15.25 11.8148 15.165 11.6652 15.0324 11.5869 L10.3122 8.80003 C10.1919 8.72898 10.0691 8.73641 9.95947 8.80498 C9.84615 8.87585 9.75 9.01468 9.75 9.21316 Z" fill="#FFFFFF" />
  <path fill-rule="nonzero" clip-rule="nonzero" d="M12 1.25 C17.9371 1.25 22.75 6.06294 22.75 12 C22.75 17.9371 17.9371 22.75 12 22.75 C6.06294 22.75 1.25 17.9371 1.25 12 C1.25 6.06294 6.06294 1.25 12 1.25 Z M2.75 12 C2.75 17.1086 6.89137 21.25 12 21.25 C17.1086 21.25 21.25 17.1086 21.25 12 C21.25 6.89137 17.1086 2.75 12 2.75 C6.89137 2.75 2.75 6.89137 2.75 12 Z" fill="#FFFFFF" />
</svg>