<svg xmlns="http://www.w3.org/2000/svg" width="24" height="24" viewBox="0 0 24 24" fill="none">
  <path fill-rule="nonzero" clip-rule="nonzero" d="M 5.26429 9.55722 C 5.49232 6.03569 8.42083 3.25 12 3.25 C 15.5791 3.25 18.5077 6.0357 18.7357 9.55723 C 19.1142 9.36092 19.5441 9.25 20 9.25 C 21.5188 9.25 22.75 10.4812 22.75 12 V 14 C 22.75 15.5188 21.5188 16.75 20 16.75 C 19.9484 16.75 19.8971 16.7486 19.8461 16.7458 V 16.75 C 18.4123 16.75 17.25 15.5877 17.25 14.1538 V 9.99998 C 17.25 7.1005 14.8995 4.75 12 4.75 C 9.1005 4.75 6.75 7.1005 6.75 9.99998 V 14.1538 C 6.75 15.5877 5.58766 16.75 4.15385 16.75 V 16.7458 C 4.10292 16.7486 4.05163 16.75 4 16.75 C 2.48122 16.75 1.25 15.5188 1.25 14 V 12 C 1.25 10.4812 2.48122 9.25 4 9.25 C 4.45584 9.25 4.88577 9.36091 5.26429 9.55722 Z M 5.25 11.9992 C 5.24958 11.3092 4.6901 10.75 4 10.75 C 3.30964 10.75 2.75 11.3096 2.75 12 V 14 C 2.75 14.6904 3.30964 15.25 4 15.25 C 4.6901 15.25 5.24958 14.6908 5.25 14.0008 C 5.25 14.0005 5.25 14.001 5.25 14.0008 V 11.9992 C 5.25 11.9995 5.25 11.999 5.25 11.9992 Z M 8.25 10 C 8.25 7.92893 9.92893 6.25 12 6.25 C 14.0711 6.25 15.75 7.92893 15.75 10 V 13 C 15.75 14.8142 14.4617 16.3275 12.75 16.675 V 19 C 12.75 19.4142 12.4142 19.75 12 19.75 C 11.5858 19.75 11.25 19.4142 11.25 19 V 16.675 C 9.53832 16.3275 8.25 14.8142 8.25 13 V 10 Z M 9.87803 9.25 H 10 C 10.4142 9.25 10.75 9.58579 10.75 10 C 10.75 10.4142 10.4142 10.75 10 10.75 H 9.75 V 12.25 H 10 C 10.4142 12.25 10.75 12.5858 10.75 13 C 10.75 13.4142 10.4142 13.75 10 13.75 H 9.87803 C 10.1869 14.6239 11.0203 15.25 12 15.25 C 12.9797 15.25 13.8131 14.6239 14.122 13.75 H 13 C 12.5858 13.75 12.25 13.4142 12.25 13 C 12.25 12.5858 12.5858 12.25 13 12.25 H 14.25 V 10.75 H 13 C 12.5858 10.75 12.25 10.4142 12.25 10 C 12.25 9.58579 12.5858 9.25 13 9.25 H 14.122 C 13.8131 8.37611 12.9797 7.75 12 7.75 C 11.0203 7.75 10.1869 8.37611 9.87803 9.25 Z M 20 10.75 C 19.3096 10.75 18.75 11.3096 18.75 12 V 14 C 18.75 14.6904 19.3096 15.25 20 15.25 C 20.6904 15.25 21.25 14.6904 21.25 14 V 12 C 21.25 11.3096 20.6904 10.75 20 10.75 Z" fill="#FFFFFF" />
</svg>