<svg xmlns="http://www.w3.org/2000/svg" width="24" height="24" viewBox="0 0 24 24" fill="none">
  <path fill-rule="nonzero" clip-rule="nonzero" d="M 22 12 C 22 17.5228 17.5228 22 12 22 C 6.47715 22 2 17.5228 2 12 C 2 6.47715 6.47715 2 12 2 C 17.5228 2 22 6.47715 22 12 Z M10.0038 5.251 C9.58955 5.24749 9.25093 5.58042 9.24742 5.99462 C9.24016 6.85049 9.21189 7.44826 9.1238 7.898 C9.0398 8.32679 8.91171 8.56414 8.73744 8.73841 C8.56316 8.91269 8.32582 9.04078 7.89702 9.12477 C7.44729 9.21287 6.84952 9.24114 5.99364 9.2484 C5.57944 9.25191 5.24652 9.59053 5.25003 10.0047 C5.25354 10.4189 5.59216 10.7519 6.00636 10.7483 C6.85705 10.7411 7.58296 10.7148 8.18536 10.5968 C8.80871 10.4747 9.35196 10.2452 9.7981 9.79907 C10.2442 9.35294 10.4737 8.80968 10.5958 8.18634 C10.7138 7.58393 10.7402 6.85802 10.7474 6.00734 C10.7509 5.59314 10.4179 5.25452 10.0038 5.251 Z M13.9935 5.251 C13.5793 5.25452 13.2463 5.59314 13.2499 6.00734 C13.2571 6.85802 13.2834 7.58393 13.4014 8.18634 C13.5235 8.80968 13.753 9.35294 14.1991 9.79907 C14.6453 10.2452 15.1885 10.4747 15.8119 10.5968 C16.4143 10.7148 17.1402 10.7411 17.9909 10.7483 C18.4051 10.7519 18.7437 10.4189 18.7472 10.0047 C18.7507 9.59053 18.4178 9.25191 18.0036 9.2484 C17.1477 9.24114 16.5499 9.21287 16.1002 9.12477 C15.6714 9.04078 15.4341 8.91269 15.2598 8.73841 C15.0855 8.56414 14.9574 8.32679 14.8734 7.898 C14.7853 7.44826 14.7571 6.85049 14.7498 5.99462 C14.7463 5.58042 14.4077 5.24749 13.9935 5.251 Z M 6.00636 13.2503 C 5.59216 13.2468 5.25354 13.5798 5.25003 13.994 C 5.24652 14.4082 5.57944 14.7468 5.99364 14.7503 C 6.84952 14.7576 7.44729 14.7858 7.89702 14.8739 C 8.32582 14.9579 8.56316 15.086 8.73744 15.2603 C 8.91171 15.4346 9.0398 15.6719 9.1238 16.1007 C 9.21189 16.5504 9.24016 17.1482 9.24742 18.0041 C 9.25093 18.4183 9.58955 18.7512 10.0038 18.7477 C 10.4179 18.7442 10.7509 18.4056 10.7474 17.9914 C 10.7402 17.1407 10.7138 16.4148 10.5958 15.8124 C 10.4737 15.189 10.2442 14.6458 9.7981 14.1996 C 9.35196 13.7535 8.80871 13.524 8.18536 13.4019 C 7.58296 13.2839 6.85705 13.2576 6.00636 13.2503 Z M18.7472 13.994 C18.7437 13.5798 18.4051 13.2468 17.9909 13.2503 C17.1402 13.2576 16.4143 13.2839 15.8119 13.4019 C15.1885 13.524 14.6453 13.7535 14.1991 14.1996 C13.753 14.6458 13.5235 15.189 13.4014 15.8124 C13.2834 16.4148 13.2571 17.1407 13.2499 17.9914 C13.2463 18.4056 13.5793 18.7442 13.9935 18.7477 C14.4077 18.7512 14.7463 18.4183 14.7498 18.0041 C14.7571 17.1482 14.7853 16.5504 14.8734 16.1007 C14.9574 15.6719 15.0855 15.4346 15.2598 15.2603 C15.4341 15.086 15.6714 14.9579 16.1002 14.8739 C16.5499 14.7858 17.1477 14.7576 18.0036 14.7503 C18.4178 14.7468 18.7507 14.4082 18.7472 13.994 Z" fill="#FFFFFF" />
</svg>