<svg xmlns="http://www.w3.org/2000/svg" width="24" height="24" viewBox="0 0 24 24" fill="none">
  <path fill-rule="nonzero" clip-rule="nonzero" d="M 12 2.75 C 6.89137 2.75 2.75 6.89137 2.75 12 C 2.75 17.1086 6.89137 21.25 12 21.25 C 17.1086 21.25 21.25 17.1086 21.25 12 C 21.25 6.89137 17.1086 2.75 12 2.75 Z M 1.25 12 C 1.25 6.06294 6.06294 1.25 12 1.25 C 17.9371 1.25 22.75 6.06294 22.75 12 C 22.75 17.9371 17.9371 22.75 12 22.75 C 6.06294 22.75 1.25 17.9371 1.25 12 Z M 12 8.75 C 10.2051 8.75 8.75 10.2051 8.75 12 C 8.75 13.7949 10.2051 15.25 12 15.25 C 13.7949 15.25 15.25 13.7949 15.25 12 C 15.25 10.2051 13.7949 8.75 12 8.75 Z M 7.25 12 C 7.25 9.37665 9.37665 7.25 12 7.25 C 14.6234 7.25 16.75 9.37665 16.75 12 C 16.75 14.6234 14.6234 16.75 12 16.75 C 9.37665 16.75 7.25 14.6234 7.25 12 Z" fill="#FFFFFF" />
</svg>