<svg xmlns="http://www.w3.org/2000/svg" width="24" height="24" viewBox="0 0 24 24" fill="none">
  <path d="M8.75 12C8.75 10.2051 10.2051 8.75 12 8.75C13.7949 8.75 15.25 10.2051 15.25 12C15.25 13.7949 13.7949 15.25 12 15.25C10.2051 15.25 8.75 13.7949 8.75 12Z" fill="#FFFFFF" />
  <path fill-rule="nonzero" clip-rule="nonzero" d="M12 22 C6.47715 22 2 17.5228 2 12 C2 6.47715 6.47715 2 12 2 C17.5228 2 22 6.47715 22 12 C22 17.5228 17.5228 22 12 22 Z M 12 7.25 C 9.37665 7.25 7.25 9.37665 7.25 12 C 7.25 14.6234 9.37665 16.75 12 16.75 C 14.6234 16.75 16.75 14.6234 16.75 12 C 16.75 9.37665 14.6234 7.25 12 7.25 Z" fill="#FFFFFF" />
</svg>