<svg xmlns="http://www.w3.org/2000/svg" width="24" height="24" viewBox="0 0 24 24" fill="none">
  <path opacity="0.5" d="M12 22C17.5228 22 22 17.5228 22 12C22 6.47715 17.5228 2 12 2C6.47715 2 2 6.47715 2 12C2 17.5228 6.47715 22 12 22Z" fill="#FFFFFF" />
  <path fill-rule="nonzero" clip-rule="nonzero" d="M 7.25 12 C 7.25 9.37665 9.37665 7.25 12 7.25 C 14.6234 7.25 16.75 9.37665 16.75 12 C 16.75 14.6234 14.6234 16.75 12 16.75 C 9.37665 16.75 7.25 14.6234 7.25 12 Z M8.75 12 C8.75 13.7949 10.2051 15.25 12 15.25 C13.7949 15.25 15.25 13.7949 15.25 12 C15.25 10.2051 13.7949 8.75 12 8.75 C10.2051 8.75 8.75 10.2051 8.75 12 Z" fill="#FFFFFF" />
</svg>