<svg xmlns="http://www.w3.org/2000/svg" width="24" height="24" viewBox="0 0 24 24" fill="none">
  <path fill-rule="nonzero" clip-rule="nonzero" d="M2 12 C2 6.47715 6.47715 2 12 2 C17.5228 2 22 6.47715 22 12 C22 15.5887 20.1097 18.7358 17.2704 20.5 L21.25 20.5 C21.6642 20.5 22 20.8358 22 21.25 C22 21.6642 21.6642 22 21.25 22 L12 22 C6.47715 22 2 17.5228 2 12 Z M 12 9 C 12.8284 9 13.5 8.32843 13.5 7.5 C 13.5 6.67157 12.8284 6 12 6 C 11.1716 6 10.5 6.67157 10.5 7.5 C 10.5 8.32843 11.1716 9 12 9 Z M 12 18 C 12.8284 18 13.5 17.3284 13.5 16.5 C 13.5 15.6716 12.8284 15 12 15 C 11.1716 15 10.5 15.6716 10.5 16.5 C 10.5 17.3284 11.1716 18 12 18 Z M7.5 10.5 C6.67157 10.5 6 11.1716 6 12 C6 12.8284 6.67157 13.5 7.5 13.5 C8.32843 13.5 9 12.8284 9 12 C9 11.1716 8.32843 10.5 7.5 10.5 Z M 18 12 C 18 11.1716 17.3284 10.5 16.5 10.5 C 15.6716 10.5 15 11.1716 15 12 C 15 12.8284 15.6716 13.5 16.5 13.5 C 17.3284 13.5 18 12.8284 18 12 Z" fill="#FFFFFF" />
</svg>