<svg xmlns="http://www.w3.org/2000/svg" width="24" height="24" viewBox="0 0 24 24" fill="none">
  <path d="M12 14.25C10.7574 14.25 9.75 13.2426 9.75 12C9.75 10.7574 10.7574 9.75 12 9.75C13.2426 9.75 14.25 10.7574 14.25 12C14.25 13.2426 13.2426 14.25 12 14.25Z" fill="#FFFFFF" />
  <path fill-rule="nonzero" clip-rule="nonzero" d="M 12 22 C 6.47715 22 2 17.5228 2 12 C 2 6.47715 6.47715 2 12 2 C 17.5228 2 22 6.47715 22 12 C 22 15.5887 20.1097 18.7358 17.2704 20.5 H 21.25 C 21.6642 20.5 22 20.8358 22 21.25 C 22 21.6642 21.6642 22 21.25 22 H 12 Z M 13 5.5 C 13 4.94772 12.5523 4.5 12 4.5 C 11.4477 4.5 11 4.94772 11 5.5 C 11 6.05228 11.4477 6.5 12 6.5 C 12.5523 6.5 13 6.05228 13 5.5 Z M6.5 12 C6.5 11.4477 6.05228 11 5.5 11 C4.94772 11 4.5 11.4477 4.5 12 C4.5 12.5523 4.94772 13 5.5 13 C6.05228 13 6.5 12.5523 6.5 12 Z M19.5 12 C19.5 11.4477 19.0523 11 18.5 11 C17.9477 11 17.5 11.4477 17.5 12 C17.5 12.5523 17.9477 13 18.5 13 C19.0523 13 19.5 12.5523 19.5 12 Z M12 17.5 C11.4477 17.5 11 17.9477 11 18.5 C11 19.0523 11.4477 19.5 12 19.5 C12.5523 19.5 13 19.0523 13 18.5 C13 17.9477 12.5523 17.5 12 17.5 Z M 8.25 12 C 8.25 14.0711 9.92893 15.75 12 15.75 C 14.0711 15.75 15.75 14.0711 15.75 12 C 15.75 9.92893 14.0711 8.25 12 8.25 C 9.92893 8.25 8.25 9.92893 8.25 12 Z" fill="#FFFFFF" />
</svg>