<svg xmlns="http://www.w3.org/2000/svg" width="24" height="24" viewBox="0 0 24 24" fill="none">
  <path fill-rule="nonzero" clip-rule="nonzero" d="M9.53033 2.46967 L11.5303 4.46967 C11.7448 4.68417 11.809 5.00676 11.6929 5.28701 C11.5768 5.56727 11.3033 5.75 11 5.75 L9 5.75 C5.54822 5.75 2.75 8.54822 2.75 12 C2.75 15.4517 5.54846 18.25 9.00028 18.25 L9.5 18.25 C9.91421 18.25 10.25 18.5858 10.25 19 C10.25 19.4142 9.91421 19.75 9.5 19.75 L9.00028 19.75 C4.72011 19.75 1.25 16.2802 1.25 12 C1.25 7.71979 4.71979 4.25 9 4.25 L9.18934 4.25 L8.46967 3.53033 C8.17678 3.23744 8.17678 2.76256 8.46967 2.46967 C8.76256 2.17678 9.23744 2.17678 9.53033 2.46967 Z M14.5 4.25 L15 4.25 C19.2802 4.25 22.75 7.71979 22.75 12 C22.75 16.2802 19.2802 19.75 15 19.75 L14.8107 19.75 L15.5303 20.4697 C15.8232 20.7626 15.8232 21.2374 15.5303 21.5303 C15.2374 21.8232 14.7626 21.8232 14.4697 21.5303 L12.4697 19.5303 C12.2552 19.3158 12.191 18.9932 12.3071 18.713 C12.4232 18.4327 12.6967 18.25 13 18.25 L15 18.25 C18.4518 18.25 21.25 15.4518 21.25 12 C21.25 8.54822 18.4518 5.75 15 5.75 L14.5 5.75 C14.0858 5.75 13.75 5.41421 13.75 5 C13.75 4.58579 14.0858 4.25 14.5 4.25 Z" fill="#FFFFFF" />
  <path opacity="0.5" d="M12.75 10C12.75 9.69668 12.5673 9.4232 12.287 9.30711C12.0068 9.19103 11.6842 9.25519 11.4697 9.46969L9.96967 10.9697C9.67678 11.2626 9.67678 11.7375 9.96967 12.0304C10.2626 12.3232 10.7374 12.3232 11.0303 12.0304L11.25 11.8107V14C11.25 14.4142 11.5858 14.75 12 14.75C12.4142 14.75 12.75 14.4142 12.75 14V10Z" fill="#FFFFFF" />
</svg>