<svg xmlns="http://www.w3.org/2000/svg" width="24" height="24" viewBox="0 0 24 24" fill="none">
  <path fill-rule="nonzero" clip-rule="nonzero" d="M 12 22 C 6.47715 22 2 17.5228 2 12 C 2 6.47715 6.47715 2 12 2 C 17.5228 2 22 6.47715 22 12 C 22 17.5228 17.5228 22 12 22 Z M10.564 7.46105 L7.34247 9.76215 C5.80701 10.8589 5.80701 13.1409 7.34247 14.2377 L10.564 16.5388 C10.9011 16.7795 11.3695 16.7015 11.6102 16.3644 C11.851 16.0274 11.7729 15.5589 11.4359 15.3182 L8.21432 13.0171 C7.51639 12.5186 7.51639 11.4813 8.21432 10.9828 L11.4359 8.68165 C11.7729 8.44089 11.851 7.97248 11.6102 7.63542 C11.3695 7.29836 10.9011 7.22029 10.564 7.46105 Z M 16.5 15.1318 V 8.86887 C 16.5 8.07017 15.6099 7.59378 14.9453 8.03682 L 10.2481 11.1683 C 9.65434 11.5641 9.65434 12.4366 10.2481 12.8324 L 14.9453 15.9639 C 15.6099 16.4069 16.5 15.9305 16.5 15.1318 Z" fill="#FFFFFF" />
</svg>