<svg xmlns="http://www.w3.org/2000/svg" width="24" height="24" viewBox="0 0 24 24" fill="none">
  <path fill-rule="nonzero" clip-rule="nonzero" d="M 1.25 12 C 1.25 6.06294 6.06294 1.25 12 1.25 C 17.9371 1.25 22.75 6.06294 22.75 12 C 22.75 17.9371 17.9371 22.75 12 22.75 C 6.06294 22.75 1.25 17.9371 1.25 12 Z M 12 2.75 C 6.89137 2.75 2.75 6.89137 2.75 12 C 2.75 17.1086 6.89137 21.25 12 21.25 C 17.1086 21.25 21.25 17.1086 21.25 12 C 21.25 6.89137 17.1086 2.75 12 2.75 Z M 14.4828 7.51916 C 15.6411 6.69182 17.25 7.51979 17.25 8.94319 V 15.0568 C 17.25 16.4802 15.6411 17.3082 14.4828 16.4808 L 10.2033 13.424 C 9.22619 12.7261 9.22619 11.2739 10.2033 10.576 L 14.4828 7.51916 Z M 15.75 8.94319 C 15.75 8.73985 15.5202 8.62157 15.3547 8.73976 L 11.0752 11.7966 C 10.9356 11.8963 10.9356 12.1037 11.0752 12.2034 L 15.3547 15.2602 C 15.5202 15.3784 15.75 15.2602 15.75 15.0568 V 8.94319 Z M 11.6103 7.6355 C 11.8511 7.97256 11.773 8.44097 11.4359 8.68173 L 8.21438 10.9828 C 7.51645 11.4814 7.51645 12.5186 8.21438 13.0172 L 11.4359 15.3183 C 11.773 15.559 11.8511 16.0274 11.6103 16.3645 C 11.3695 16.7016 10.9011 16.7796 10.5641 16.5389 L 7.34253 14.2378 C 5.80707 13.141 5.80706 10.859 7.34252 9.76223 L 10.5641 7.46113 C 10.9011 7.22037 11.3695 7.29844 11.6103 7.6355 Z" fill="#FFFFFF" />
</svg>