<svg xmlns="http://www.w3.org/2000/svg" width="24" height="24" viewBox="0 0 24 24" fill="none">
  <path fill-rule="nonzero" clip-rule="nonzero" d="M22.7498 6.42642 L22.7498 17.5738 C22.7498 18.7107 22.2555 19.7011 21.4787 20.2679 C20.6815 20.8494 19.6076 20.9544 18.6712 20.3094 L18.6624 20.3033 L13.75 16.7096 L13.75 16.8771 C13.75 17.9129 13.2773 18.8102 12.5457 19.3197 C11.7998 19.8392 10.8013 19.9319 9.92676 19.3569 L2.50931 14.48 C1.63899 13.9077 1.25 12.918 1.25 12.0001 C1.25 11.0822 1.639 10.0925 2.50932 9.52023 L9.92676 4.64326 C10.8013 4.06826 11.7998 4.16104 12.5457 4.68051 C13.2773 5.18999 13.75 6.08735 13.75 7.12313 L13.75 7.2906 L18.6624 3.69687 L18.6712 3.69083 C19.6076 3.04585 20.6815 3.15078 21.4787 3.73235 C22.2555 4.2991 22.7498 5.28953 22.7498 6.42642 Z M 13.75 14.8511 L 19.5298 19.0794 C 19.8935 19.3258 20.2682 19.2942 20.5946 19.0561 C 20.9437 18.8014 21.2498 18.2843 21.2498 17.5738 L 21.2498 6.42642 C 21.2498 5.71593 20.9437 5.19882 20.5946 4.94415 C 20.2682 4.706 19.8935 4.67439 19.5299 4.92083 L 13.75 9.14914 L 13.75 14.8511 Z M10.7508 5.89661 L3.3334 10.7736 C2.97524 11.0091 2.75 11.4686 2.75 12.0001 C2.75 12.5316 2.97524 12.9911 3.33339 13.2266 L10.7508 18.1036 C11.0703 18.3136 11.4024 18.288 11.6885 18.0888 C11.989 17.8795 12.25 17.4577 12.25 16.8771 L12.25 7.12313 C12.25 6.54246 11.989 6.12071 11.6885 5.91145 C11.4024 5.71218 11.0703 5.68659 10.7508 5.89661 Z" fill="#FFFFFF" />
</svg>