<svg xmlns="http://www.w3.org/2000/svg" width="24" height="24" viewBox="0 0 24 24" fill="none">
  <path fill-rule="nonzero" clip-rule="nonzero" d="M 1.25 12 C 1.25 6.06294 6.06294 1.25 12 1.25 C 12.2883 1.25 12.5511 1.41526 12.676 1.67511 C 12.8009 1.93496 12.7658 2.24339 12.5857 2.46852 L 10.5857 4.96852 C 10.3269 5.29197 9.85493 5.34441 9.53148 5.08565 C 9.20803 4.82689 9.15559 4.35493 9.41435 4.03148 L 10.3174 2.90266 C 6.01213 3.69386 2.75 7.46598 2.75 12 C 2.75 17.1086 6.89137 21.25 12 21.25 C 17.1086 21.25 21.25 17.1086 21.25 12 C 21.25 8.20808 18.9682 4.94742 15.6997 3.51935 C 15.3202 3.35351 15.1469 2.91137 15.3127 2.53181 C 15.4786 2.15224 15.9207 1.97898 16.3003 2.14482 C 20.0954 3.80298 22.75 7.59065 22.75 12 C 22.75 17.9371 17.9371 22.75 12 22.75 C 6.06294 22.75 1.25 17.9371 1.25 12 Z M 10.3249 7.82402 C 10.5847 7.94891 10.75 8.2117 10.75 8.5 V 15.5 C 10.75 15.9142 10.4142 16.25 10 16.25 C 9.58579 16.25 9.25 15.9142 9.25 15.5 V 10.0605 L 7.96852 11.0857 C 7.64507 11.3444 7.17311 11.292 6.91435 10.9685 C 6.65559 10.6451 6.70803 10.1731 7.03148 9.91435 L 9.53148 7.91435 C 9.75661 7.73425 10.065 7.69913 10.3249 7.82402 Z M 14.25 9.25 C 13.6977 9.25 13.25 9.69772 13.25 10.25 V 13.75 C 13.25 14.3023 13.6977 14.75 14.25 14.75 C 14.8023 14.75 15.25 14.3023 15.25 13.75 V 10.25 C 15.25 9.69772 14.8023 9.25 14.25 9.25 Z M 11.75 10.25 C 11.75 8.86929 12.8693 7.75 14.25 7.75 C 15.6307 7.75 16.75 8.86929 16.75 10.25 V 13.75 C 16.75 15.1307 15.6307 16.25 14.25 16.25 C 12.8693 16.25 11.75 15.1307 11.75 13.75 V 10.25 Z" fill="#FFFFFF" />
</svg>