<svg xmlns="http://www.w3.org/2000/svg" width="24" height="24" viewBox="0 0 24 24" fill="none">
  <path fill-rule="nonzero" clip-rule="nonzero" d="M 10.3249 7.82403 C 10.5848 7.94892 10.75 8.2117 10.75 8.50001 V 15.5 C 10.75 15.9142 10.4142 16.25 10 16.25 C 9.58581 16.25 9.25003 15.9142 9.25003 15.5 V 10.0605 L 7.96855 11.0857 C 7.6451 11.3444 7.17313 11.292 6.91438 10.9685 C 6.65562 10.6451 6.70806 10.1731 7.03151 9.91436 L 9.53151 7.91436 C 9.75663 7.73425 10.0651 7.69914 10.3249 7.82403 Z M 12.6746 8.60472 C 12.8447 8.09429 13.3224 7.75001 13.8604 7.75001 H 16.5 C 16.9142 7.75001 17.25 8.08579 17.25 8.50001 C 17.25 8.91422 16.9142 9.25001 16.5 9.25001 H 14.0406 L 13.5406 10.75 H 14.5 C 16.0188 10.75 17.25 11.9812 17.25 13.5 C 17.25 15.0188 16.0188 16.25 14.5 16.25 H 12.5 C 12.0858 16.25 11.75 15.9142 11.75 15.5 C 11.75 15.0858 12.0858 14.75 12.5 14.75 H 14.5 C 15.1904 14.75 15.75 14.1904 15.75 13.5 C 15.75 12.8097 15.1904 12.25 14.5 12.25 H 13.1937 C 12.3405 12.25 11.7381 11.4141 12.0079 10.6047 L 12.6746 8.60472 Z" fill="#FFFFFF" />
  <path fill-rule="evenodd" clip-rule="evenodd" d="M11.324 1.67511C11.4489 1.41526 11.7117 1.25 12 1.25C12.7353 1.25 13.4541 1.32394 14.1492 1.46503C19.0563 2.46112 22.75 6.79837 22.75 12C22.75 17.9371 17.9371 22.75 12 22.75C6.06294 22.75 1.25 17.9371 1.25 12C1.25 7.59065 3.90459 3.80298 7.69972 2.14482C8.07929 1.97898 8.52143 2.15224 8.68726 2.53181C8.8531 2.91137 8.67984 3.35351 8.30028 3.51935C5.03179 4.94742 2.75 8.20808 2.75 12C2.75 17.1086 6.89137 21.25 12 21.25C17.1086 21.25 21.25 17.1086 21.25 12C21.25 7.84953 18.5158 4.33622 14.75 3.16544V4.5C14.75 4.81852 14.5488 5.10229 14.2483 5.20772C13.9477 5.31315 13.6133 5.21724 13.4143 4.96852L11.4143 2.46852C11.2342 2.24339 11.1991 1.93496 11.324 1.67511Z" fill="#FFFFFF" />
</svg>