<svg xmlns="http://www.w3.org/2000/svg" width="24" height="24" viewBox="0 0 24 24" fill="none">
  <path fill-rule="nonzero" clip-rule="nonzero" d="M 12 2.75 C 6.89137 2.75 2.75 6.89137 2.75 12 C 2.75 17.1086 6.89137 21.25 12 21.25 C 17.1086 21.25 21.25 17.1086 21.25 12 C 21.25 6.89137 17.1086 2.75 12 2.75 Z M 1.25 12 C 1.25 6.06294 6.06294 1.25 12 1.25 C 17.9371 1.25 22.75 6.06294 22.75 12 C 22.75 17.9371 17.9371 22.75 12 22.75 C 6.06294 22.75 1.25 17.9371 1.25 12 Z M 8.64531 8.73976 C 8.47984 8.62157 8.25 8.73985 8.25 8.94319 V 15.0568 C 8.25 15.2602 8.47984 15.3784 8.64531 15.2602 L 12.9248 12.2034 C 13.0644 12.1037 13.0644 11.8963 12.9248 11.7966 L 8.64531 8.73976 Z M 6.75 8.94319 C 6.75 7.51979 8.3589 6.69182 9.51717 7.51916 L 13.7967 10.576 C 14.7738 11.2739 14.7738 12.7261 13.7967 13.424 L 9.51717 16.4808 C 8.3589 17.3082 6.75 16.4802 6.75 15.0568 V 8.94319 Z M 12.3897 7.6355 C 12.6305 7.29844 13.0989 7.22037 13.4359 7.46113 L 16.6575 9.76223 C 18.1929 10.859 18.1929 13.141 16.6575 14.2378 L 13.4359 16.5389 C 13.0989 16.7796 12.6305 16.7016 12.3897 16.3645 C 12.1489 16.0274 12.227 15.559 12.5641 15.3183 L 15.7856 13.0172 C 16.4836 12.5186 16.4836 11.4814 15.7856 10.9828 L 12.5641 8.68173 C 12.227 8.44097 12.1489 7.97256 12.3897 7.6355 Z" fill="#FFFFFF" />
</svg>