<svg xmlns="http://www.w3.org/2000/svg" width="24" height="24" viewBox="0 0 24 24" fill="none">
  <path fill-rule="nonzero" clip-rule="nonzero" d="M 11.324 1.67511 C 11.4489 1.41526 11.7117 1.25 12 1.25 C 17.9371 1.25 22.75 6.06294 22.75 12 C 22.75 17.9371 17.9371 22.75 12 22.75 C 6.06294 22.75 1.25 17.9371 1.25 12 C 1.25 7.59065 3.90459 3.80298 7.69972 2.14482 C 8.07929 1.97898 8.52143 2.15224 8.68726 2.53181 C 8.8531 2.91137 8.67984 3.35351 8.30028 3.51935 C 5.03179 4.94742 2.75 8.20808 2.75 12 C 2.75 17.1086 6.89137 21.25 12 21.25 C 17.1086 21.25 21.25 17.1086 21.25 12 C 21.25 7.46598 17.9879 3.69386 13.6826 2.90266 L 14.5857 4.03148 C 14.8444 4.35493 14.792 4.82689 14.4685 5.08565 C 14.1451 5.34441 13.6731 5.29197 13.4143 4.96852 L 11.4143 2.46852 C 11.2342 2.24339 11.1991 1.93496 11.324 1.67511 Z M 10.3249 7.82402 C 10.5847 7.94891 10.75 8.2117 10.75 8.5 V 15.5 C 10.75 15.9142 10.4142 16.25 10 16.25 C 9.58579 16.25 9.25 15.9142 9.25 15.5 V 10.0605 L 7.96852 11.0857 C 7.64507 11.3444 7.17311 11.292 6.91435 10.9685 C 6.65559 10.6451 6.70803 10.1731 7.03148 9.91435 L 9.53148 7.91435 C 9.75661 7.73425 10.065 7.69913 10.3249 7.82402 Z M 12.6745 8.60472 C 12.8447 8.09429 13.3223 7.75 13.8604 7.75 H 16.5 C 16.9142 7.75 17.25 8.08579 17.25 8.5 C 17.25 8.91421 16.9142 9.25 16.5 9.25 H 14.0406 L 13.5406 10.75 H 14.5 C 16.0188 10.75 17.25 11.9812 17.25 13.5 C 17.25 15.0188 16.0188 16.25 14.5 16.25 H 12.5 C 12.0858 16.25 11.75 15.9142 11.75 15.5 C 11.75 15.0858 12.0858 14.75 12.5 14.75 H 14.5 C 15.1904 14.75 15.75 14.1904 15.75 13.5 C 15.75 12.8096 15.1904 12.25 14.5 12.25 H 13.1937 C 12.3405 12.25 11.7381 11.4141 12.0079 10.6047 L 12.6745 8.60472 Z M 13.4309 11.0791 L 13.431 11.0787 L 13.4309 11.0791 Z" fill="#FFFFFF" />
</svg>