<svg xmlns="http://www.w3.org/2000/svg" width="24" height="24" viewBox="0 0 24 24" fill="none">
  <path fill-rule="nonzero" clip-rule="nonzero" d="M 1.25 12 C 1.25 6.06294 6.06294 1.25 12 1.25 C 12.2883 1.25 12.5511 1.41526 12.676 1.67511 C 12.8009 1.93496 12.7658 2.24339 12.5857 2.46852 L 10.5857 4.96852 C 10.3269 5.29197 9.85493 5.34441 9.53148 5.08565 C 9.20803 4.82689 9.15559 4.35493 9.41435 4.03148 L 10.3174 2.90266 C 6.01213 3.69386 2.75 7.46598 2.75 12 C 2.75 17.1086 6.89137 21.25 12 21.25 C 17.1086 21.25 21.25 17.1086 21.25 12 C 21.25 8.20808 18.9682 4.94742 15.6997 3.51935 C 15.3202 3.35351 15.1469 2.91137 15.3127 2.53181 C 15.4786 2.15224 15.9207 1.97898 16.3003 2.14482 C 20.0954 3.80298 22.75 7.59065 22.75 12 C 22.75 17.9371 17.9371 22.75 12 22.75 C 6.06294 22.75 1.25 17.9371 1.25 12 Z M 10.1745 8.60472 C 10.3447 8.09429 10.8223 7.75 11.3604 7.75 H 14 C 14.4142 7.75 14.75 8.08579 14.75 8.5 C 14.75 8.91421 14.4142 9.25 14 9.25 H 11.5406 L 11.0406 10.75 H 12 C 13.5188 10.75 14.75 11.9812 14.75 13.5 C 14.75 15.0188 13.5188 16.25 12 16.25 H 10 C 9.58579 16.25 9.25 15.9142 9.25 15.5 C 9.25 15.0858 9.58579 14.75 10 14.75 H 12 C 12.6904 14.75 13.25 14.1904 13.25 13.5 C 13.25 12.8096 12.6904 12.25 12 12.25 H 10.6937 C 9.84052 12.25 9.23805 11.4141 9.50786 10.6047 L 10.1745 8.60472 Z M 10.9309 11.0791 L 10.931 11.0787 L 10.9309 11.0791 Z" fill="#FFFFFF" />
</svg>