<svg xmlns="http://www.w3.org/2000/svg" width="24" height="24" viewBox="0 0 24 24" fill="none">
  <path fill-rule="nonzero" clip-rule="nonzero" d="M12 22 C6.47715 22 2 17.5228 2 12 C2 6.47715 6.47715 2 12 2 C17.5228 2 22 6.47715 22 12 C22 17.5228 17.5228 22 12 22 Z M 13.436 7.46105 C 13.0989 7.22029 12.6305 7.29836 12.3898 7.63542 C 12.149 7.97248 12.2271 8.44089 12.5641 8.68165 L 15.7857 10.9828 C 16.4836 11.4813 16.4836 12.5186 15.7857 13.0171 L 12.5641 15.3182 C 12.2271 15.5589 12.149 16.0274 12.3898 16.3644 C 12.6305 16.7015 13.0989 16.7795 13.436 16.5388 L 16.6575 14.2377 C 18.193 13.1409 18.193 10.8589 16.6575 9.76215 L 13.436 7.46105 Z M7.5 15.1318 C7.5 15.9305 8.39014 16.4069 9.0547 15.9639 L13.7519 12.8324 C14.3457 12.4366 14.3457 11.5641 13.7519 11.1683 L9.0547 8.03682 C8.39015 7.59378 7.5 8.07017 7.5 8.86887 L7.5 15.1318 Z" fill="#FFFFFF" />
</svg>