<svg xmlns="http://www.w3.org/2000/svg" width="24" height="24" viewBox="0 0 24 24" fill="none">
  <path fill-rule="nonzero" clip-rule="nonzero" d="M 19.4697 4.46967 C 19.7626 4.17678 20.2374 4.17678 20.5303 4.46967 L 22.5303 6.46967 C 22.8232 6.76256 22.8232 7.23744 22.5303 7.53033 L 20.5303 9.53033 C 20.2374 9.82322 19.7626 9.82322 19.4697 9.53033 C 19.1768 9.23744 19.1768 8.76256 19.4697 8.46967 L 20.1893 7.75 H 18.3971 C 17.5531 7.75 16.9733 7.75082 16.517 7.79516 C 16.077 7.83793 15.8108 7.91703 15.59 8.04205 C 15.3692 8.16707 15.1644 8.35464 14.9013 8.70996 C 14.6286 9.07834 14.3295 9.57518 13.8953 10.2989 L 11.3722 14.5041 C 10.9613 15.189 10.6254 15.7488 10.3042 16.1826 C 9.96851 16.636 9.616 16.9989 9.14905 17.2632 C 8.6821 17.5276 8.18961 17.6432 7.62807 17.6978 C 7.09086 17.75 6.438 17.75 5.63936 17.75 H 2 C 1.58579 17.75 1.25 17.4142 1.25 17 C 1.25 16.5858 1.58579 16.25 2 16.25 H 5.60286 C 6.44685 16.25 7.02675 16.2492 7.48296 16.2048 C 7.92299 16.1621 8.18919 16.083 8.41 15.9579 C 8.63081 15.8329 8.8356 15.6454 9.09867 15.29 C 9.37141 14.9217 9.67046 14.4248 10.1047 13.7011 L 12.6278 9.49586 C 13.0387 8.81102 13.3746 8.25119 13.6958 7.8174 C 14.0315 7.36397 14.384 7.00113 14.851 6.73675 C 15.3179 6.47237 15.8104 6.35677 16.3719 6.30219 C 16.9091 6.24998 17.562 6.24999 18.3606 6.25 L 20.1893 6.25 L 19.4697 5.53033 C 19.1768 5.23744 19.1768 4.76256 19.4697 4.46967 Z M 7.73131 7.79145 C 7.53519 7.75328 7.31332 7.75 6.66762 7.75 H 2 C 1.58579 7.75 1.25 7.41421 1.25 7 C 1.25 6.58579 1.58579 6.25 2 6.25 H 6.66762 C 6.69223 6.25 6.7165 6.24999 6.74045 6.24999 C 7.28573 6.24986 7.6618 6.24977 8.01789 6.31908 C 8.81735 6.47469 9.54442 6.88635 10.0892 7.49182 C 10.3318 7.76151 10.5252 8.08403 10.8057 8.55169 C 10.818 8.57222 10.8305 8.59303 10.8431 8.61413 C 11.0562 8.96931 10.9411 9.43001 10.5859 9.64312 C 10.2307 9.85623 9.76999 9.74106 9.55688 9.38587 C 9.22467 8.83219 9.10771 8.64362 8.97408 8.49509 C 8.64722 8.13181 8.21098 7.88481 7.73131 7.79145 Z M 13.4141 14.3569 C 13.7693 14.1438 14.23 14.2589 14.4431 14.6141 C 14.7753 15.1678 14.8923 15.3564 15.0259 15.5049 C 15.3528 15.8682 15.789 16.1152 16.2687 16.2086 C 16.4648 16.2467 16.6867 16.25 17.3324 16.25 H 20.1893 L 19.4697 15.5303 C 19.1768 15.2374 19.1768 14.7626 19.4697 14.4697 C 19.7626 14.1768 20.2374 14.1768 20.5303 14.4697 L 22.5303 16.4697 C 22.8232 16.7626 22.8232 17.2374 22.5303 17.5303 L 20.5303 19.5303 C 20.2374 19.8232 19.7626 19.8232 19.4697 19.5303 C 19.1768 19.2374 19.1768 18.7626 19.4697 18.4697 L 20.1893 17.75 H 17.3324 C 17.3078 17.75 17.2835 17.75 17.2595 17.75 C 16.7143 17.7501 16.3382 17.7502 15.9821 17.6809 C 15.1826 17.5253 14.4556 17.1137 13.9108 16.5082 C 13.6682 16.2385 13.4748 15.916 13.1943 15.4483 C 13.182 15.4278 13.1695 15.407 13.1569 15.3859 C 12.9438 15.0307 13.0589 14.57 13.4141 14.3569 Z" fill="#FFFFFF" />
</svg>