<svg xmlns="http://www.w3.org/2000/svg" width="24" height="24" viewBox="0 0 24 24" fill="none">
  <path fill-rule="nonzero" clip-rule="nonzero" d="M 12 22 C 7.28595 22 4.92893 22 3.46447 20.5355 C 2 19.0711 2 16.714 2 12 C 2 7.28595 2 4.92893 3.46447 3.46447 C 4.92893 2 7.28595 2 12 2 C 16.714 2 19.0711 2 20.5355 3.46447 C 22 4.92893 22 7.28595 22 12 C 22 16.714 22 19.0711 20.5355 20.5355 C 19.0711 22 16.714 22 12 22 Z M16.2623 7.47719 C16.011 7.73562 15.9834 8.12871 16.1762 8.41667 L15.8054 8.41667 C15.3357 8.41665 14.9322 8.41663 14.5961 8.44839 C14.237 8.48233 13.8985 8.55631 13.5706 8.73678 C13.2417 8.91784 12.9998 9.16404 12.7825 9.44943 C12.5803 9.71485 12.3717 10.0528 12.1307 10.4434 L10.6104 12.9068 C10.3468 13.3341 10.1764 13.6086 10.0242 13.8085 C9.88225 13.9948 9.78978 14.0697 9.70604 14.1158 C9.62126 14.1625 9.50453 14.2021 9.26275 14.2249 C9.00564 14.2492 8.67346 14.25 8.16171 14.25 L6 14.25 C5.58579 14.25 5.25 14.5858 5.25 15 C5.25 15.4142 5.58579 15.75 6 15.75 L8.1946 15.75 C8.66434 15.75 9.06785 15.75 9.40387 15.7183 C9.76303 15.6843 10.1015 15.6104 10.4294 15.4299 C10.7583 15.2488 11.0002 15.0026 11.2175 14.7172 C11.4197 14.4518 11.6282 14.1138 11.8693 13.7233 L13.3896 11.2598 C13.6532 10.8325 13.8236 10.5581 13.9758 10.3582 C14.1178 10.1718 14.2102 10.0969 14.294 10.0509 C14.3787 10.0042 14.4955 9.96458 14.7373 9.94173 C14.9944 9.91744 15.3265 9.91667 15.8383 9.91667 L16.1762 9.91667 C15.9834 10.2046 16.011 10.5977 16.2623 10.8561 C16.551 11.1531 17.0258 11.1598 17.3228 10.8711 L18.5228 9.70441 C18.6681 9.5632 18.75 9.36924 18.75 9.16667 C18.75 8.96409 18.6681 8.77013 18.5228 8.62892 L17.3228 7.46225 C17.0258 7.17351 16.551 7.1802 16.2623 7.47719 Z M9.38531 9.76916 C9.61368 9.81237 9.81783 9.92609 9.96852 10.0889 C10.0234 10.1482 10.0759 10.2269 10.2818 10.5606 C10.4993 10.913 10.9614 11.0224 11.3139 10.8049 C11.6664 10.5874 11.7758 10.1253 11.5582 9.77278 L11.5278 9.72348 C11.3679 9.4639 11.2363 9.25039 11.0694 9.07011 C10.6972 8.66783 10.2033 8.39734 9.66421 8.29532 C9.42305 8.24968 9.17103 8.24981 8.85843 8.24998 L8.80057 8.25 L6 8.25 C5.58579 8.25 5.25 8.58579 5.25 9 C5.25 9.41421 5.58579 9.75 6 9.75 L8.80057 9.75 C9.19932 9.75 9.30046 9.7531 9.38531 9.76916 Z M12.6861 13.0284 C12.3336 13.246 12.2242 13.7081 12.4418 14.0606 L12.4722 14.1098 C12.6321 14.3694 12.7637 14.5829 12.9306 14.7632 C13.3028 15.1655 13.7967 15.436 14.3358 15.538 C14.5769 15.5837 14.829 15.5835 15.1416 15.5834 L15.1994 15.5833 L16.1762 15.5833 C15.9834 15.8713 16.011 16.2644 16.2623 16.5228 C16.551 16.8198 17.0258 16.8265 17.3228 16.5377 L18.5228 15.3711 C18.6681 15.2299 18.75 15.0359 18.75 14.8333 C18.75 14.6308 18.6681 14.4368 18.5228 14.2956 L17.3228 13.1289 C17.0258 12.8402 16.551 12.8469 16.2623 13.1439 C16.011 13.4023 15.9834 13.7954 16.1762 14.0833 L15.1994 14.0833 C14.8007 14.0833 14.6995 14.0802 14.6147 14.0642 C14.3863 14.021 14.1822 13.9072 14.0315 13.7444 C13.9766 13.6851 13.9241 13.6064 13.7182 13.2728 C13.5007 12.9203 13.0386 12.8109 12.6861 13.0284 Z" fill="#FFFFFF" />
</svg>