<svg xmlns="http://www.w3.org/2000/svg" width="24" height="24" viewBox="0 0 24 24" fill="none">
  <path fill-rule="nonzero" clip-rule="nonzero" d="M6.27769 1.7555 L17.0667 8.72261 C18.217 9.46544 18.75 10.7659 18.75 12.0001 C18.75 13.2342 18.217 14.5347 17.0667 15.2775 L6.2777 22.2447 C5.1348 22.9827 3.83956 22.8659 2.86078 22.1965 C1.89423 21.5354 1.25 20.3551 1.25 18.9672 L1.25 5.03297 C1.25 3.64507 1.89423 2.46477 2.86078 1.80371 C3.83955 1.13428 5.1348 1.01747 6.27769 1.7555 Z M2.75 5.03297 L2.75 18.9672 C2.75 19.8885 3.17287 20.5926 3.70758 20.9583 C4.23005 21.3157 4.87023 21.368 5.46397 20.9846 L16.253 14.0174 C16.8895 13.6064 17.25 12.8364 17.25 12.0001 C17.25 11.1637 16.8895 10.3938 16.253 9.98271 L5.46397 3.0156 C4.87022 2.63219 4.23005 2.68448 3.70757 3.04182 C3.17287 3.40753 2.75 4.11167 2.75 5.03297 Z" fill="#FFFFFF" />
  <path d="M22.75 5.00008C22.75 4.58586 22.4142 4.25008 22 4.25008C21.5858 4.25008 21.25 4.58586 21.25 5.00008V19.0001C21.25 19.4143 21.5858 19.7501 22 19.7501C22.4142 19.7501 22.75 19.4143 22.75 19.0001V5.00008Z" fill="#FFFFFF" />
</svg>