<svg xmlns="http://www.w3.org/2000/svg" width="24" height="24" viewBox="0 0 24 24" fill="none">
  <path fill-rule="nonzero" clip-rule="nonzero" d="M 1.25 12 C 1.25 6.06294 6.06294 1.25 12 1.25 C 17.9371 1.25 22.75 6.06294 22.75 12 C 22.75 17.9371 17.9371 22.75 12 22.75 C 6.06294 22.75 1.25 17.9371 1.25 12 Z M 12 2.75 C 6.89137 2.75 2.75 6.89137 2.75 12 C 2.75 17.1086 6.89137 21.25 12 21.25 C 17.1086 21.25 21.25 17.1086 21.25 12 C 21.25 6.89137 17.1086 2.75 12 2.75 Z M 12 6.25 C 12.4142 6.25 12.75 6.58579 12.75 7 L 12.75 17 C 12.75 17.4142 12.4142 17.75 12 17.75 C 11.5858 17.75 11.25 17.4142 11.25 17 L 11.25 7 C 11.25 6.58579 11.5858 6.25 12 6.25 Z M 7 8.25 C 7.41421 8.25 7.75 8.58579 7.75 9 V 15 C 7.75 15.4142 7.41421 15.75 7 15.75 C 6.58579 15.75 6.25 15.4142 6.25 15 V 9 C 6.25 8.58579 6.58579 8.25 7 8.25 Z M 17 9.25 C 17.4142 9.25 17.75 9.58579 17.75 10 V 14 C 17.75 14.4142 17.4142 14.75 17 14.75 C 16.5858 14.75 16.25 14.4142 16.25 14 V 10 C 16.25 9.58579 16.5858 9.25 17 9.25 Z" fill="#FFFFFF" />
</svg>