<svg xmlns="http://www.w3.org/2000/svg" width="24" height="24" viewBox="0 0 24 24" fill="none">
  <path fill-rule="nonzero" clip-rule="nonzero" d="M3.46447 3.46447 C4.92893 2 7.28595 2 12 2 C16.714 2 19.0711 2 20.5355 3.46447 C22 4.92893 22 7.28595 22 12 C22 16.714 22 19.0711 20.5355 20.5355 C19.0711 22 16.714 22 12 22 C7.28595 22 4.92893 22 3.46447 20.5355 C2 19.0711 2 16.714 2 12 C2 7.28595 2 4.92893 3.46447 3.46447 Z M 12.75 7 C 12.75 6.58579 12.4142 6.25 12 6.25 C 11.5858 6.25 11.25 6.58579 11.25 7 V 17 C 11.25 17.4142 11.5858 17.75 12 17.75 C 12.4142 17.75 12.75 17.4142 12.75 17 V 7 Z M 7.75 9 C 7.75 8.58579 7.41421 8.25 7 8.25 C 6.58579 8.25 6.25 8.58579 6.25 9 V 15 C 6.25 15.4142 6.58579 15.75 7 15.75 C 7.41421 15.75 7.75 15.4142 7.75 15 V 9 Z M 17.75 10 C 17.75 9.58579 17.4142 9.25 17 9.25 C 16.5858 9.25 16.25 9.58579 16.25 10 V 14 C 16.25 14.4142 16.5858 14.75 17 14.75 C 17.4142 14.75 17.75 14.4142 17.75 14 V 10 Z" fill="#FFFFFF" />
</svg>