<svg xmlns="http://www.w3.org/2000/svg" width="24" height="24" viewBox="0 0 24 24" fill="none">
  <path fill-rule="nonzero" clip-rule="nonzero" d="M12 22 C6.47715 22 2 17.5228 2 12 C2 6.47715 6.47715 2 12 2 C17.5228 2 22 6.47715 22 12 C22 17.5228 17.5228 22 12 22 Z M 8.58579 8.58579 C 8 9.17157 8 10.1144 8 12 C 8 13.8856 8 14.8284 8.58579 15.4142 C 9.17157 16 10.1144 16 12 16 C 13.8856 16 14.8284 16 15.4142 15.4142 C 16 14.8284 16 13.8856 16 12 C 16 10.1144 16 9.17157 15.4142 8.58579 C 14.8284 8 13.8856 8 12 8 C 10.1144 8 9.17157 8 8.58579 8.58579 Z" fill="#FFFFFF" />
</svg>