<svg xmlns="http://www.w3.org/2000/svg" width="24" height="24" viewBox="0 0 24 24" fill="none">
  <path fill-rule="nonzero" clip-rule="nonzero" d="M 9.45109 3.25 H 9.54891 C 11.1512 3.24999 12.4205 3.24998 13.4248 3.36868 C 14.4557 3.49054 15.3044 3.74638 16.0134 4.3282 C 16.2539 4.52558 16.4744 4.74612 16.6718 4.98663 C 17.2536 5.69558 17.5095 6.54428 17.6313 7.57525 C 17.6587 7.80698 17.6798 8.05283 17.696 8.31364 C 18.482 7.92192 19.148 7.60005 19.7032 7.41841 C 20.3546 7.20525 21.0456 7.11922 21.6829 7.51309 C 22.3202 7.90695 22.5523 8.56347 22.6529 9.24146 C 22.7501 9.89558 22.75 10.7572 22.75 11.7924 V 12.2076 C 22.75 13.2428 22.7501 14.1044 22.6529 14.7585 C 22.5523 15.4365 22.3202 16.093 21.6829 16.4869 C 21.0456 16.8808 20.3546 16.7948 19.7032 16.5816 C 19.148 16.3999 18.482 16.0781 17.696 15.6864 C 17.6798 15.9472 17.6587 16.193 17.6313 16.4248 C 17.5095 17.4557 17.2536 18.3044 16.6718 19.0134 C 16.4744 19.2539 16.2539 19.4744 16.0134 19.6718 C 15.3044 20.2536 14.4557 20.5095 13.4248 20.6313 C 12.4205 20.75 11.1512 20.75 9.54895 20.75 H 9.45105 C 7.84881 20.75 6.57946 20.75 5.57525 20.6313 C 4.54428 20.5095 3.69558 20.2536 2.98663 19.6718 C 2.74612 19.4744 2.52558 19.2539 2.3282 19.0134 C 1.74638 18.3044 1.49054 17.4557 1.36868 16.4248 C 1.24998 15.4205 1.24999 14.1512 1.25 12.5489 V 11.4511 C 1.24999 9.84882 1.24998 8.57947 1.36868 7.57525 C 1.49054 6.54428 1.74638 5.69558 2.3282 4.98663 C 2.52558 4.74612 2.74612 4.52558 2.98663 4.3282 C 3.69558 3.74638 4.54428 3.49054 5.57525 3.36868 C 6.57947 3.24998 7.84883 3.24999 9.45109 3.25 Z M 16.25 12.5 V 11.5 C 16.25 9.83789 16.2488 8.65724 16.1417 7.75133 C 16.0366 6.86197 15.8384 6.33563 15.5123 5.93822 C 15.3772 5.77366 15.2263 5.62277 15.0618 5.48772 C 14.6644 5.16158 14.138 4.96344 13.2487 4.85831 C 12.3428 4.75123 11.1621 4.75 9.5 4.75 C 7.83789 4.75 6.65724 4.75123 5.75133 4.85831 C 4.86197 4.96344 4.33563 5.16158 3.93822 5.48772 C 3.77366 5.62277 3.62277 5.77366 3.48772 5.93822 C 3.16158 6.33563 2.96344 6.86197 2.85831 7.75133 C 2.75123 8.65724 2.75 9.83789 2.75 11.5 V 12.5 C 2.75 14.1621 2.75123 15.3428 2.85831 16.2487 C 2.96344 17.138 3.16158 17.6644 3.48772 18.0618 C 3.62277 18.2263 3.77366 18.3772 3.93822 18.5123 C 4.33563 18.8384 4.86197 19.0366 5.75133 19.1417 C 6.65724 19.2488 7.83789 19.25 9.5 19.25 C 11.1621 19.25 12.3428 19.2488 13.2487 19.1417 C 14.138 19.0366 14.6644 18.8384 15.0618 18.5123 C 15.2263 18.3772 15.3772 18.2263 15.5123 18.0618 C 15.8384 17.6644 16.0366 17.138 16.1417 16.2487 C 16.2488 15.3428 16.25 14.1621 16.25 12.5 Z M 17.75 14.0365 L 17.9938 14.1584 C 18.9892 14.6561 19.6598 14.9891 20.1697 15.156 C 20.669 15.3194 20.8202 15.2567 20.8943 15.2109 C 20.9684 15.1651 21.092 15.0579 21.1692 14.5382 C 21.248 14.0076 21.25 13.2588 21.25 12.1459 V 11.8541 C 21.25 10.7412 21.248 9.99243 21.1692 9.46179 C 21.092 8.94208 20.9684 8.83487 20.8943 8.78906 C 20.8202 8.74326 20.669 8.68063 20.1697 8.84403 C 19.6598 9.01086 18.9892 9.34395 17.9938 9.84164 L 17.75 9.96353 V 11.3665 C 17.75 11.3946 17.75 11.4228 17.75 11.4511 V 12.5489 C 17.75 12.5772 17.75 12.6054 17.75 12.6335 V 14.0365 Z M 9.5 7.75 C 9.72259 7.75 9.93367 7.84887 10.0762 8.01986 L 12.5762 11.0199 C 12.8413 11.3381 12.7983 11.811 12.4801 12.0762 C 12.1619 12.3413 11.689 12.2983 11.4238 11.9801 L 10.25 10.5715 V 15.5 C 10.25 15.9142 9.91422 16.25 9.5 16.25 C 9.08579 16.25 8.75 15.9142 8.75 15.5 V 10.5715 L 7.57617 11.9801 C 7.31099 12.2983 6.83807 12.3413 6.51986 12.0762 C 6.20165 11.811 6.15866 11.3381 6.42383 11.0199 L 8.92383 8.01986 C 9.06633 7.84887 9.27742 7.75 9.5 7.75 Z" fill="#FFFFFF" />
</svg>