<svg xmlns="http://www.w3.org/2000/svg" width="24" height="24" viewBox="0 0 24 24" fill="none">
  <path d="M13 17C13 15.1144 13 14.1716 13.5858 13.5858C14.1716 13 15.1144 13 17 13H18C19.8856 13 20.8284 13 21.4142 13.5858C22 14.1716 22 15.1144 22 17C22 18.8856 22 19.8284 21.4142 20.4142C20.8284 21 19.8856 21 18 21H17C15.1144 21 14.1716 21 13.5858 20.4142C13 19.8284 13 18.8856 13 17Z" fill="#FFFFFF" />
  <path fill-rule="nonzero" clip-rule="nonzero" d="M 10 3 H 14 C 17.7712 3 19.6569 3 20.8284 4.17157 C 21.7775 5.1206 21.9577 6.86626 21.992 9.49974 C 22.0042 10.4366 22.0102 10.905 21.7166 11.2025 C 21.4229 11.5 20.9486 11.5 20 11.5 H 17.5 C 14.6716 11.5 13.2574 11.5 12.3787 12.3787 C 11.5 13.2574 11.5 14.6716 11.5 17.5 V 19.5 C 11.5 19.9659 11.5 20.1989 11.4239 20.3827 C 11.3224 20.6277 11.1277 20.8224 10.8827 20.9239 C 10.6989 21 10.4659 21 10 21 C 6.22876 21 4.34315 21 3.17157 19.8284 C 2 18.6569 2 16.7712 2 13 V 11 C 2 7.22876 2 5.34315 3.17157 4.17157 C 4.34315 3 6.22876 3 10 3 Z M 8.03033 6.96967 C 7.73744 6.67678 7.26256 6.67678 6.96967 6.96967 C 6.67678 7.26256 6.67678 7.73744 6.96967 8.03033 L 9.68934 10.75 H 8.5 C 8.08579 10.75 7.75 11.0858 7.75 11.5 C 7.75 11.9142 8.08579 12.25 8.5 12.25 H 11.5 C 11.9142 12.25 12.25 11.9142 12.25 11.5 V 8.5 C 12.25 8.08579 11.9142 7.75 11.5 7.75 C 11.0858 7.75 10.75 8.08579 10.75 8.5 V 9.68934 L 8.03033 6.96967 Z" fill="#FFFFFF" />
</svg>