<svg xmlns="http://www.w3.org/2000/svg" width="24" height="24" viewBox="0 0 24 24" fill="none">
  <path fill-rule="nonzero" clip-rule="nonzero" d="M 2 12.5 V 11.5 C 2 8.21252 2 6.56878 2.90796 5.46243 C 3.07418 5.25989 3.25989 5.07418 3.46243 4.90796 C 4.56878 4 6.21252 4 9.5 4 C 12.7875 4 14.4312 4 15.5376 4.90796 C 15.7401 5.07418 15.9258 5.25989 16.092 5.46243 C 16.7936 6.3173 16.9531 7.49303 16.9893 9.50002 L 17.6584 9.17082 C 19.6042 8.19788 20.5772 7.7114 21.2886 8.15107 C 22 8.59075 22 9.67853 22 11.8541 V 12.1459 C 22 14.3215 22 15.4093 21.2886 15.8489 C 20.5772 16.2886 19.6042 15.8021 17.6584 14.8292 L 16.9893 14.5 C 16.9531 16.507 16.7936 17.6827 16.092 18.5376 C 15.9258 18.7401 15.7401 18.9258 15.5376 19.092 C 14.4312 20 12.7875 20 9.5 20 C 6.21252 20 4.56878 20 3.46243 19.092 C 3.25989 18.9258 3.07418 18.7401 2.90796 18.5376 C 2 17.4312 2 15.7875 2 12.5 Z M 13.5607 9.56066 C 14.1464 8.97487 14.1464 8.02513 13.5607 7.43934 C 12.9749 6.85355 12.0251 6.85355 11.4393 7.43934 C 10.8536 8.02513 10.8536 8.97487 11.4393 9.56066 C 12.0251 10.1464 12.9749 10.1464 13.5607 9.56066 Z" fill="#FFFFFF" />
</svg>