<svg xmlns="http://www.w3.org/2000/svg" width="24" height="24" viewBox="0 0 24 24" fill="none">
  <path fill-rule="nonzero" clip-rule="nonzero" d="M12.75 2 L12.75 3.00293 L14.5 3.00293 C15.1483 3.00766 15.7286 3.019 16.25 3.04617 L16.25 20.9529 C15.7286 20.9801 15.1483 20.9914 14.5 20.9962 L12.75 20.9962 L12.75 22 C12.75 22.4142 12.4142 22.75 12 22.75 C11.5858 22.75 11.25 22.4142 11.25 22 L11.25 20.9962 L9.49991 20.9962 C8.85162 20.9914 8.2714 20.9801 7.75 20.9529 L7.75 3.04617 C8.2714 3.019 8.85162 3.00766 9.49991 3.00293 L11.25 3.00293 L11.25 2 C11.25 1.58579 11.5858 1.25 12 1.25 C12.4142 1.25 12.75 1.58579 12.75 2 Z M 12.75 20.9962 V 20.3333 C 12.75 19.9191 12.4142 19.5833 12 19.5833 C 11.5858 19.5833 11.25 19.9191 11.25 20.3333 V 20.9962 H 12.75 Z M12.75 3.00293 L11.25 3.00293 L11.25 3.66667 C11.25 4.08088 11.5858 4.41667 12 4.41667 C12.4142 4.41667 12.75 4.08088 12.75 3.66667 L12.75 3.00293 Z M 12.75 7 C 12.75 6.58579 12.4142 6.25 12 6.25 C 11.5858 6.25 11.25 6.58579 11.25 7 V 10.3333 C 11.25 10.7475 11.5858 11.0833 12 11.0833 C 12.4142 11.0833 12.75 10.7475 12.75 10.3333 V 7 Z M 12.75 13.6667 C 12.75 13.2525 12.4142 12.9167 12 12.9167 C 11.5858 12.9167 11.25 13.2525 11.25 13.6667 V 17 C 11.25 17.4142 11.5858 17.75 12 17.75 C 12.4142 17.75 12.75 17.4142 12.75 17 V 13.6667 Z M6.25 3.20215 L6.25 7.75 L3.04661 7.75 C3.13653 6.02414 3.39994 4.94275 4.17157 4.17112 C4.69042 3.65227 5.34931 3.3632 6.25 3.20215 Z M3.00559 9.25 L6.25 9.25 L6.25 14.75 L3.0056 14.75 C3 14.2163 3 13.6346 3 12.9995 L3 10.9995 C3 10.3648 3 9.78349 3.00559 9.25 Z M 4.17157 19.828 C 3.40007 19.0565 3.13662 17.9753 3.04665 16.25 H 6.25 V 20.7969 C 5.34931 20.6359 4.69042 20.3468 4.17157 19.828 Z M 17.75 7.75 V 3.20215 C 18.6507 3.3632 19.3096 3.65227 19.8284 4.17112 C 20.6001 4.94275 20.8635 6.02414 20.9534 7.75 H 17.75 Z M20.9944 9.25 C21 9.78349 21 10.3648 21 10.9995 L21 12.9995 C21 13.6346 21 14.2163 20.9944 14.75 L17.75 14.75 L17.75 9.25 L20.9944 9.25 Z M 17.75 16.25 H 20.9533 C 20.8634 17.9753 20.5999 19.0565 19.8284 19.828 C 19.3096 20.3468 18.6507 20.6359 17.75 20.7969 V 16.25 Z" fill="#FFFFFF" />
</svg>