<svg xmlns="http://www.w3.org/2000/svg" width="24" height="24" viewBox="0 0 24 24" fill="none">
  <path fill-rule="nonzero" clip-rule="nonzero" d="M 11.9426 1.25 H 12.0574 C 14.3658 1.24999 16.1748 1.24998 17.5863 1.43975 C 19.031 1.63399 20.1711 2.03933 21.0659 2.93414 C 21.9607 3.82895 22.366 4.96897 22.5603 6.41371 C 22.75 7.82519 22.75 9.63423 22.75 11.9426 V 12.0574 C 22.75 14.3658 22.75 16.1748 22.5603 17.5863 C 22.366 19.031 21.9607 20.1711 21.0659 21.0659 C 20.1711 21.9607 19.031 22.366 17.5863 22.5603 C 16.1748 22.75 14.3658 22.75 12.0574 22.75 H 11.9426 C 9.63423 22.75 7.82519 22.75 6.41371 22.5603 C 4.96897 22.366 3.82895 21.9607 2.93414 21.0659 C 2.03933 20.1711 1.63399 19.031 1.43975 17.5863 C 1.24998 16.1748 1.24999 14.3658 1.25 12.0574 V 11.9426 C 1.24999 9.63423 1.24998 7.82519 1.43975 6.41371 C 1.63399 4.96897 2.03933 3.82895 2.93414 2.93414 C 3.82895 2.03933 4.96897 1.63399 6.41371 1.43975 C 7.82519 1.24998 9.63423 1.24999 11.9426 1.25 Z M 6.25 2.98181 C 5.18517 3.16506 4.50829 3.4813 3.9948 3.9948 C 3.4813 4.50829 3.16506 5.18517 2.98181 6.25 H 6.25 V 2.98181 Z M 7.75 2.81997 V 11.25 H 16.25 V 2.81997 C 15.1242 2.75085 13.7418 2.75 12 2.75 C 10.2582 2.75 8.87584 2.75085 7.75 2.81997 Z M 17.75 2.98181 V 6.25 H 21.0182 C 20.8349 5.18517 20.5187 4.50829 20.0052 3.9948 C 19.4917 3.4813 18.8148 3.16506 17.75 2.98181 Z M 21.18 7.75 H 17.75 V 11.25 H 21.2497 C 21.2483 9.8547 21.2389 8.70923 21.18 7.75 Z M 21.2497 12.75 H 17.75 V 16.25 H 21.18 C 21.2389 15.2908 21.2483 14.1453 21.2497 12.75 Z M 21.0182 17.75 H 17.75 V 21.0182 C 18.8148 20.8349 19.4917 20.5187 20.0052 20.0052 C 20.5187 19.4917 20.8349 18.8148 21.0182 17.75 Z M 16.25 21.18 V 12.75 H 7.75 V 21.18 C 8.87584 21.2491 10.2582 21.25 12 21.25 C 13.7418 21.25 15.1242 21.2491 16.25 21.18 Z M 6.25 21.0182 V 17.75 H 2.98181 C 3.16506 18.8148 3.4813 19.4917 3.9948 20.0052 C 4.50829 20.5187 5.18517 20.8349 6.25 21.0182 Z M 2.81997 16.25 H 6.25 V 12.75 H 2.75028 C 2.75175 14.1453 2.76108 15.2908 2.81997 16.25 Z M 2.75028 11.25 H 6.25 V 7.75 H 2.81997 C 2.76108 8.70923 2.75175 9.8547 2.75028 11.25 Z" fill="#FFFFFF" />
</svg>