<svg xmlns="http://www.w3.org/2000/svg" width="24" height="24" viewBox="0 0 24 24" fill="none">
  <path fill-rule="nonzero" clip-rule="nonzero" d="M13.1384 2 C13.5223 2 13.763 2.41474 13.5725 2.74807 L12.8571 4 L16.25 4.00002 L16.25 20 L12.8571 20 L13.5725 21.2519 C13.763 21.5853 13.5223 22 13.1384 22 L10.8616 22 C10.4776 22 10.237 21.5853 10.4274 21.2519 L11.1428 20 L7.74998 20 L7.74998 4.00002 L11.1428 4 L10.4274 2.74807 C10.237 2.41474 10.4776 2 10.8616 2 L13.1384 2 Z M 12.8571 20 L 12.4341 19.2597 C 12.2421 18.9238 11.7578 18.9238 11.5658 19.2597 L 11.1428 20 H 12.8571 Z M12.8571 4 L11.1428 4 L11.5658 4.74029 C11.7578 5.07619 12.2421 5.07619 12.4341 4.74029 L12.8571 4 Z M 12.75 7.5 C 12.75 7.08579 12.4142 6.75 12 6.75 C 11.5858 6.75 11.25 7.08579 11.25 7.5 V 8.5 C 11.25 8.91421 11.5858 9.25 12 9.25 C 12.4142 9.25 12.75 8.91421 12.75 8.5 V 7.5 Z M 12.75 11.5 C 12.75 11.0858 12.4142 10.75 12 10.75 C 11.5858 10.75 11.25 11.0858 11.25 11.5 V 12.5 C 11.25 12.9142 11.5858 13.25 12 13.25 C 12.4142 13.25 12.75 12.9142 12.75 12.5 V 11.5 Z M 12.75 15.5 C 12.75 15.0858 12.4142 14.75 12 14.75 C 11.5858 14.75 11.25 15.0858 11.25 15.5 V 16.5 C 11.25 16.9142 11.5858 17.25 12 17.25 C 12.4142 17.25 12.75 16.9142 12.75 16.5 V 15.5 Z M6.24998 4.01095 L6.24998 8.25 L2.01092 8.25 C2.0472 6.54467 2.20367 5.55366 2.87866 4.87868 C3.55364 4.2037 4.54464 4.04722 6.24998 4.01095 Z M2 9.75 L6.24998 9.75 L6.24998 14.25 L2 14.25 L2 9.75 Z M 2.87866 19.1213 C 2.20367 18.4463 2.0472 17.4553 2.01092 15.75 H 6.24998 V 19.9891 C 4.54464 19.9528 3.55364 19.7963 2.87866 19.1213 Z M 17.75 8.25 V 4.01095 C 19.4553 4.04722 20.4463 4.2037 21.1213 4.87868 C 21.7963 5.55366 21.9528 6.54467 21.989 8.25 H 17.75 Z M22 9.75 L22 14.25 L17.75 14.25 L17.75 9.75 L22 9.75 Z M 17.75 15.75 H 21.989 C 21.9528 17.4553 21.7963 18.4463 21.1213 19.1213 C 20.4463 19.7963 19.4553 19.9528 17.75 19.9891 V 15.75 Z" fill="#FFFFFF" />
</svg>