<svg xmlns="http://www.w3.org/2000/svg" width="24" height="24" viewBox="0 0 24 24" fill="none">
  <path d="M5.25 2.00169C3.85306 2.01188 3.08814 2.08343 2.58579 2.58579C2.08343 3.08814 2.01188 3.85306 2.00169 5.25H5.25V2.00169Z" fill="#FFFFFF"/>
  <path d="M2.00169 6.75C2.01188 8.14694 2.08343 8.91186 2.58579 9.41421C3.08814 9.91657 3.85306 9.98812 5.25 9.99831V6.75H2.00169Z" fill="#FFFFFF"/>
  <path d="M6.75 10H10.25V2H6.75V10Z" fill="#FFFFFF"/>
  <path d="M11.75 2.00169V5.25H14.9983C14.9881 3.85306 14.9166 3.08814 14.4142 2.58579C13.9119 2.08343 13.1469 2.01188 11.75 2.00169Z" fill="#FFFFFF"/>
  <path d="M14.9983 6.75H11.75V9.99831C13.1469 9.98812 13.9119 9.91657 14.4142 9.41421C14.9166 8.91186 14.9881 8.14694 14.9983 6.75Z" fill="#FFFFFF"/>
  <path fill-rule="evenodd" clip-rule="evenodd" d="M2.46967 12.4697C2.76256 12.1768 3.23744 12.1768 3.53033 12.4697L4.53033 13.4697C4.82322 13.7626 4.82322 14.2374 4.53033 14.5303C4.31981 14.7408 4.01528 14.8001 3.75187 14.7079C3.75402 14.9958 3.75864 15.292 3.76855 15.5673C3.77779 15.8243 3.79129 16.0518 3.81012 16.2309C3.82509 16.3733 3.83996 16.4464 3.8451 16.4716C3.84744 16.4831 3.84776 16.4847 3.84515 16.4784C3.97202 16.7846 4.21536 17.028 4.52165 17.1548C4.5988 17.1868 4.71601 17.2163 4.95674 17.2327C5.20421 17.2496 5.5238 17.25 6 17.25C6.41421 17.25 6.75 17.5858 6.75 18C6.75 18.4142 6.41421 18.75 6 18.75H5.97474C5.53028 18.75 5.15925 18.75 4.85464 18.7292C4.53754 18.7076 4.23801 18.6609 3.94762 18.5407C3.27379 18.2616 2.73844 17.7262 2.45933 17.0524C2.37486 16.8485 2.33936 16.5876 2.31834 16.3877C2.29434 16.1594 2.2793 15.8933 2.26952 15.6213C2.25885 15.3249 2.25402 15.0083 2.25182 14.7066C1.98758 14.8006 1.68118 14.7418 1.46967 14.5303C1.17678 14.2374 1.17678 13.7626 1.46967 13.4697L2.46967 12.4697Z" fill="#FFFFFF"/>
  <g opacity="0.5"/>
  <g opacity="0.5">
    <path d="M12.7503 14.0092C11.6642 14.0368 11.0249 14.1469 10.586 14.5858C10.0837 15.0881 10.0121 15.8531 10.002 17.25H12.7503V14.0092Z" fill="#FFFFFF"/>
    <path d="M10.002 18.75C10.0121 20.1469 10.0837 20.9119 10.586 21.4142C11.0249 21.8531 11.6642 21.9632 12.7503 21.9908V18.75H10.002Z" fill="#FFFFFF"/>
    <path d="M14.2503 22H16.7503V14H14.2503V22Z" fill="#FFFFFF"/>
    <path d="M18.2503 14.0092V17.25H20.9986C20.9884 15.8531 20.9168 15.0881 20.4145 14.5858C19.9756 14.1469 19.3363 14.0368 18.2503 14.0092Z" fill="#FFFFFF"/>
    <path d="M20.9986 18.75H18.2503V21.9908C19.3363 21.9632 19.9756 21.8531 20.4145 21.4142C20.9168 20.9119 20.9884 20.1469 20.9986 18.75Z" fill="#FFFFFF"/>
  </g>
</svg>