<svg xmlns="http://www.w3.org/2000/svg" width="24" height="24" viewBox="0 0 24 24" fill="none">
  <path fill-rule="nonzero" clip-rule="nonzero" d="M6.89021 1.25798 C6.92604 1.25272 6.96271 1.25 7 1.25 C7.03054 1.25 7.06065 1.25182 7.09022 1.25537 C7.56895 1.25 8.0929 1.25 8.66318 1.25 L11 1.25 C11.9665 1.25 12.75 2.0335 12.75 3 L12.75 3.25 L15.3368 3.25 C15.9071 3.25 16.4311 3.25 16.9098 3.25537 C16.9394 3.25182 16.9695 3.25 17 3.25 C17.0373 3.25 17.074 3.25272 17.1098 3.25798 C18.1013 3.27282 18.9372 3.31552 19.6351 3.45123 C20.3716 3.59441 21.0011 3.84937 21.5254 4.32121 C22.1032 4.84118 22.4032 5.48961 22.5608 6.26187 C22.7102 6.99356 22.7404 7.88373 22.7477 8.94079 C22.7492 8.96032 22.75 8.98007 22.75 9 C22.75 9.01674 22.7495 9.03335 22.7484 9.04982 C22.75 9.34826 22.75 9.66455 22.75 9.99793 L22.75 16.01 C22.75 16.6932 22.75 17.3071 22.7355 17.8525 C22.745 17.9002 22.75 17.9495 22.75 18 C22.75 18.068 22.7409 18.134 22.724 18.1966 C22.6635 19.6689 22.4576 20.8399 21.5254 21.6788 C21.0011 22.1506 20.3716 22.4056 19.6351 22.5488 C18.9372 22.6845 18.1013 22.7272 17.1098 22.742 C17.0739 22.7473 17.0373 22.75 17 22.75 C16.9695 22.75 16.9394 22.7482 16.9098 22.7446 C16.4311 22.75 15.9072 22.75 15.337 22.75 L13 22.75 C12.0335 22.75 11.25 21.9665 11.25 21 L11.25 20.75 L8.66297 20.75 C8.09277 20.75 7.56889 20.75 7.09022 20.7446 C7.06064 20.7482 7.03053 20.75 7 20.75 C6.96271 20.75 6.92605 20.7473 6.89022 20.742 C5.89869 20.7272 5.06284 20.6845 4.36486 20.5488 C3.62845 20.4056 2.99885 20.1506 2.47459 19.6788 C1.54244 18.8399 1.33645 17.6689 1.27604 16.1966 C1.25906 16.134 1.25 16.068 1.25 16 C1.25 15.9495 1.25499 15.9002 1.2645 15.8525 C1.25 15.307 1.25 14.6932 1.25 14.01 L1.25 7.99854 C1.25 7.66493 1.25 7.34845 1.25163 7.04982 C1.25055 7.03335 1.25 7.01674 1.25 7 C1.25 6.98007 1.25078 6.96032 1.2523 6.94079 C1.25963 5.88373 1.28982 4.99356 1.43915 4.26187 C1.59677 3.48961 1.89684 2.84118 2.47459 2.32121 C2.99885 1.84937 3.62845 1.59441 4.36486 1.45123 C5.06284 1.31552 5.89869 1.27282 6.89021 1.25798 Z M 12.75 4.75 L 12.75 8.25 L 16.25 8.25 V 4.75095 C 15.9615 4.75 15.6566 4.75 15.3333 4.75 H 12.75 Z M 11.25 3 C 11.25 2.86193 11.1381 2.75 11 2.75 H 8.66667 C 8.34339 2.75 8.03847 2.75 7.75 2.75095 V 6.25 L 11.25 6.25 L 11.25 3 Z M11.25 7.75 L2.75003 7.75 C2.75 7.83194 2.75 7.91525 2.75 8 L2.75 14 C2.75 14.4571 2.75003 14.8714 2.75401 15.25 L11.25 15.25 L11.25 7.75 Z M 2.76246 6.25 L 6.25 6.25 V 2.77374 C 5.5948 2.79672 5.07616 2.84102 4.65115 2.92366 C 4.08877 3.033 3.73967 3.20068 3.47803 3.43615 C 3.20202 3.68456 3.02163 4.00928 2.90886 4.56183 C 2.8197 4.99868 2.77969 5.5418 2.76246 6.25 Z M2.81392 16.75 C2.90418 17.7534 3.10598 18.229 3.47803 18.5639 C3.73967 18.7993 4.08877 18.967 4.65115 19.0763 C5.07616 19.159 5.5948 19.2033 6.25 19.2263 L6.25 16.75 L2.81392 16.75 Z M11.25 16.75 L7.75 16.75 L7.75 19.2491 C8.03847 19.25 8.34339 19.25 8.66667 19.25 L11.25 19.25 L11.25 16.75 Z M 17.75 4.77374 V 8.25 L 21.2375 8.25 C 21.2203 7.5418 21.1803 6.99868 21.0911 6.56183 C 20.9784 6.00928 20.798 5.68456 20.522 5.43615 C 20.2603 5.20068 19.9112 5.033 19.3489 4.92366 C 18.9238 4.84102 18.4052 4.79672 17.75 4.77374 Z M 21.25 9.75 H 12.75 V 17.25 H 21.246 C 21.25 16.8714 21.25 16.4571 21.25 16 V 10 C 21.25 9.91525 21.25 9.83194 21.25 9.75 Z M 16.25 18.75 H 12.75 V 21 C 12.75 21.1381 12.8619 21.25 13 21.25 H 15.3333 C 15.6566 21.25 15.9615 21.25 16.25 21.2491 L 16.25 18.75 Z M 21.1861 18.75 H 17.75 L 17.75 21.2263 C 18.4052 21.2033 18.9238 21.159 19.3489 21.0763 C 19.9112 20.967 20.2603 20.7993 20.522 20.5639 C 20.894 20.229 21.0958 19.7534 21.1861 18.75 Z" fill="#FFFFFF" />
</svg>