<svg xmlns="http://www.w3.org/2000/svg" width="24" height="24" viewBox="0 0 24 24" fill="none">
  <path fill-rule="nonzero" clip-rule="nonzero" d="M 9.77629 3.12017 C 9.3001 2.28685 9.90181 1.25 10.8616 1.25 H 13.1384 C 14.0982 1.25 14.6999 2.28685 14.2237 3.12017 L 13.0853 5.11239 C 12.6054 5.95216 11.3946 5.95216 10.9147 5.11239 L 9.77629 3.12017 Z M 11.2924 2.75 L 12 3.98833 L 12.7076 2.75 H 11.2924 Z M 7.94513 3.25 L 8.5 3.25 C 8.91421 3.25 9.25 3.58579 9.25 4 C 9.25 4.41421 8.91421 4.75 8.5 4.75 H 8 C 7.91516 4.75 7.83184 4.75001 7.75 4.75004 V 19.25 C 7.83184 19.25 7.91516 19.25 8 19.25 H 8.5 C 8.91421 19.25 9.25 19.5858 9.25 20 C 9.25 20.4142 8.91421 20.75 8.5 20.75 H 7.94513 C 7.63162 20.75 7.33204 20.75 7.04605 20.7486 C 7.03082 20.7495 7.01546 20.75 7 20.75 C 6.98169 20.75 6.96353 20.7493 6.94555 20.7481 C 6.02806 20.7424 5.25306 20.7202 4.60825 20.6335 C 3.70814 20.5125 2.95027 20.2536 2.34835 19.6517 C 1.74643 19.0497 1.48754 18.2919 1.36652 17.3918 C 1.24996 16.5248 1.24998 15.4225 1.25 14.0549 V 9.94513 C 1.24998 8.57754 1.24996 7.47522 1.36652 6.60825 C 1.48754 5.70814 1.74643 4.95027 2.34835 4.34835 C 2.95027 3.74643 3.70814 3.48754 4.60825 3.36652 C 5.25306 3.27983 6.02806 3.25763 6.94556 3.25195 C 6.96354 3.25066 6.98169 3.25 7 3.25 C 7.01546 3.25 7.03082 3.25047 7.04605 3.25139 C 7.33204 3.24999 7.63161 3.24999 7.94513 3.25 Z M 6.25 4.76115 C 5.68097 4.77341 5.2098 4.79914 4.80812 4.85315 C 4.07435 4.9518 3.68577 5.13225 3.40901 5.40901 C 3.13225 5.68577 2.9518 6.07435 2.85315 6.80812 C 2.79914 7.2098 2.77341 7.68097 2.76115 8.25 H 6.25 V 4.76115 Z M 6.25 9.75 H 2.75004 C 2.75001 9.83184 2.75 9.91516 2.75 10 V 14 C 2.75 14.0848 2.75001 14.1682 2.75004 14.25 H 6.25 V 9.75 Z M 6.25 15.75 H 2.76115 C 2.77341 16.319 2.79914 16.7902 2.85315 17.1919 C 2.9518 17.9257 3.13225 18.3142 3.40901 18.591 C 3.68577 18.8678 4.07435 19.0482 4.80812 19.1469 C 5.2098 19.2009 5.68097 19.2266 6.25 19.2389 V 15.75 Z M 16.25 4.75004 C 16.1682 4.75001 16.0848 4.75 16 4.75 H 15.5 C 15.0858 4.75 14.75 4.41421 14.75 4 C 14.75 3.58579 15.0858 3.25 15.5 3.25 L 16.0549 3.25 C 16.3684 3.24999 16.668 3.24999 16.954 3.25139 C 16.9692 3.25047 16.9845 3.25 17 3.25 C 17.0183 3.25 17.0365 3.25066 17.0544 3.25195 C 17.9719 3.25763 18.7469 3.27983 19.3918 3.36652 C 20.2919 3.48754 21.0497 3.74643 21.6517 4.34835 C 22.2536 4.95027 22.5125 5.70814 22.6335 6.60825 C 22.75 7.47522 22.75 8.57754 22.75 9.94513 V 14.0549 C 22.75 15.4225 22.75 16.5248 22.6335 17.3918 C 22.5125 18.2919 22.2536 19.0497 21.6517 19.6517 C 21.0497 20.2536 20.2919 20.5125 19.3918 20.6335 C 18.7469 20.7202 17.9719 20.7424 17.0544 20.7481 C 17.0365 20.7493 17.0183 20.75 17 20.75 C 16.9845 20.75 16.9692 20.7495 16.954 20.7486 C 16.668 20.75 16.3684 20.75 16.0549 20.75 H 15.5 C 15.0858 20.75 14.75 20.4142 14.75 20 C 14.75 19.5858 15.0858 19.25 15.5 19.25 H 16 C 16.0848 19.25 16.1682 19.25 16.25 19.25 V 4.75004 Z M 17.75 4.76115 V 8.25 H 21.2389 C 21.2266 7.68097 21.2009 7.2098 21.1469 6.80812 C 21.0482 6.07434 20.8678 5.68577 20.591 5.40901 C 20.3142 5.13225 19.9257 4.9518 19.1919 4.85315 C 18.7902 4.79914 18.319 4.77341 17.75 4.76115 Z M 21.25 9.75 H 17.75 V 14.25 H 21.25 C 21.25 14.1682 21.25 14.0848 21.25 14 V 10 C 21.25 9.91516 21.25 9.83184 21.25 9.75 Z M 21.2389 15.75 H 17.75 V 19.2389 C 18.319 19.2266 18.7902 19.2009 19.1919 19.1469 C 19.9257 19.0482 20.3142 18.8678 20.591 18.591 C 20.8678 18.3142 21.0482 17.9257 21.1469 17.1919 C 21.2009 16.7902 21.2266 16.319 21.2389 15.75 Z M 12 6.75 C 12.4142 6.75 12.75 7.08579 12.75 7.5 V 8.5 C 12.75 8.91421 12.4142 9.25 12 9.25 C 11.5858 9.25 11.25 8.91421 11.25 8.5 V 7.5 C 11.25 7.08579 11.5858 6.75 12 6.75 Z M 12 10.75 C 12.4142 10.75 12.75 11.0858 12.75 11.5 V 12.5 C 12.75 12.9142 12.4142 13.25 12 13.25 C 11.5858 13.25 11.25 12.9142 11.25 12.5 V 11.5 C 11.25 11.0858 11.5858 10.75 12 10.75 Z M 12 14.75 C 12.4142 14.75 12.75 15.0858 12.75 15.5 V 16.5 C 12.75 16.9142 12.4142 17.25 12 17.25 C 11.5858 17.25 11.25 16.9142 11.25 16.5 V 15.5 C 11.25 15.0858 11.5858 14.75 12 14.75 Z M 9.77629 20.8798 L 10.9147 18.8876 C 11.3946 18.0478 12.6054 18.0478 13.0853 18.8876 L 14.2237 20.8798 C 14.6999 21.7131 14.0982 22.75 13.1384 22.75 H 10.8616 C 9.90181 22.75 9.3001 21.7131 9.77629 20.8798 Z M 12 20.0117 L 11.2924 21.25 H 12.7076 L 12 20.0117 Z" fill="#FFFFFF" />
</svg>