<svg xmlns="http://www.w3.org/2000/svg" width="24" height="24" viewBox="0 0 24 24" fill="none">
  <path fill-rule="nonzero" clip-rule="nonzero" d="M 12 1.25 C 12.4142 1.25 12.75 1.58579 12.75 2 V 3.66667 C 12.75 4.08088 12.4142 4.41667 12 4.41667 C 11.5858 4.41667 11.25 4.08088 11.25 3.66667 V 2 C 11.25 1.58579 11.5858 1.25 12 1.25 Z M 12 6.25 C 12.4142 6.25 12.75 6.58579 12.75 7 V 10.3333 C 12.75 10.7475 12.4142 11.0833 12 11.0833 C 11.5858 11.0833 11.25 10.7475 11.25 10.3333 V 7 C 11.25 6.58579 11.5858 6.25 12 6.25 Z M 12 12.9167 C 12.4142 12.9167 12.75 13.2525 12.75 13.6667 V 17 C 12.75 17.4142 12.4142 17.75 12 17.75 C 11.5858 17.75 11.25 17.4142 11.25 17 V 13.6667 C 11.25 13.2525 11.5858 12.9167 12 12.9167 Z M 12 19.5833 C 12.4142 19.5833 12.75 19.9191 12.75 20.3333 V 22 C 12.75 22.4142 12.4142 22.75 12 22.75 C 11.5858 22.75 11.25 22.4142 11.25 22 V 20.3333 C 11.25 19.9191 11.5858 19.5833 12 19.5833 Z" fill="#FFFFFF" />
  <path fill-rule="nonzero" clip-rule="nonzero" d="M 10.2499 2.99791 C 10.2529 3.41212 9.91958 3.75034 9.50538 3.75336 C 8.82678 3.75832 8.2382 3.77072 7.72281 3.79918 C 7.74053 3.8631 7.75 3.93044 7.75 4 V 20 C 7.75 20.0696 7.74053 20.1369 7.72281 20.2008 C 8.23821 20.2293 8.82678 20.2417 9.50538 20.2466 C 9.91958 20.2497 10.2529 20.5879 10.2499 21.0021 C 10.2469 21.4163 9.90864 21.7496 9.49444 21.7466 C 8.10141 21.7364 6.95678 21.6966 6.02397 21.5183 C 5.07002 21.3359 4.28134 20.9989 3.64124 20.3588 C 2.89288 19.6104 2.56076 18.6614 2.40314 17.489 C 2.24997 16.3498 2.24998 14.8942 2.25 13.0564 V 10.9436 C 2.24998 9.10582 2.24997 7.65019 2.40314 6.51098 C 2.56076 5.33855 2.89288 4.38961 3.64124 3.64124 C 4.28134 3.00114 5.07002 2.6641 6.02397 2.4817 C 6.95678 2.30335 8.10141 2.26357 9.49444 2.2534 C 9.90864 2.25038 10.2469 2.58371 10.2499 2.99791 Z M 6.25077 20.0342 C 6.25026 20.0229 6.25 20.0115 6.25 20 V 16.25 H 3.79756 C 3.81812 16.6311 3.84757 16.9754 3.88976 17.2892 C 4.02502 18.2952 4.27869 18.8749 4.7019 19.2981 C 5.05765 19.6538 5.52191 19.888 6.25077 20.0342 Z M 3.75573 14.75 H 6.25 V 9.25 H 3.75573 C 3.75018 9.77625 3.75 10.3567 3.75 11 V 13 C 3.75 13.6433 3.75018 14.2237 3.75573 14.75 Z M 3.79756 7.75 H 6.25 V 4 C 6.25 3.98853 6.25026 3.97712 6.25077 3.96577 C 5.52191 4.11202 5.05765 4.34616 4.7019 4.7019 C 4.27869 5.12511 4.02502 5.70476 3.88976 6.71085 C 3.84757 7.02461 3.81812 7.36886 3.79756 7.75 Z M 13.75 2.99791 C 13.753 2.58371 14.0913 2.25038 14.5055 2.2534 C 15.8985 2.26357 17.0432 2.30335 17.976 2.4817 C 18.93 2.6641 19.7186 3.00113 20.3588 3.64124 C 21.1071 4.38961 21.4392 5.33855 21.5969 6.51098 C 21.75 7.65019 21.75 9.10583 21.75 10.9436 V 13.0564 C 21.75 14.8942 21.75 16.3498 21.5969 17.489 C 21.4392 18.6614 21.1071 19.6104 20.3588 20.3588 C 19.7186 20.9989 18.93 21.3359 17.976 21.5183 C 17.0432 21.6967 15.8985 21.7364 14.5055 21.7466 C 14.0913 21.7496 13.753 21.4163 13.75 21.0021 C 13.747 20.5879 14.0803 20.2497 14.4945 20.2466 C 15.1732 20.2417 15.7618 20.2293 16.2772 20.2008 C 16.2595 20.1369 16.25 20.0696 16.25 20 V 4 C 16.25 3.93044 16.2595 3.8631 16.2772 3.79918 C 15.7618 3.77072 15.1732 3.75832 14.4945 3.75336 C 14.0803 3.75034 13.747 3.41212 13.75 2.99791 Z M 17.7492 3.96577 C 17.7497 3.97712 17.75 3.98853 17.75 4 V 7.75 H 20.2024 C 20.1819 7.36886 20.1524 7.02461 20.1102 6.71085 C 19.975 5.70476 19.7213 5.12511 19.2981 4.7019 C 18.9424 4.34616 18.4781 4.11202 17.7492 3.96577 Z M 20.2443 9.25 H 17.75 V 14.75 H 20.2443 C 20.2498 14.2237 20.25 13.6433 20.25 13 V 11 C 20.25 10.3567 20.2498 9.77625 20.2443 9.25 Z M 20.2024 16.25 H 17.75 V 20 C 17.75 20.0115 17.7497 20.0229 17.7492 20.0342 C 18.4781 19.888 18.9424 19.6538 19.2981 19.2981 C 19.7213 18.8749 19.975 18.2952 20.1102 17.2892 C 20.1524 16.9754 20.1819 16.6311 20.2024 16.25 Z" fill="#FFFFFF" />
</svg>