<svg xmlns="http://www.w3.org/2000/svg" width="24" height="24" viewBox="0 0 24 24" fill="none">
  <path d="M8.50989 2.00001H15.49C15.7225 1.99995 15.9007 1.99991 16.0565 2.01515C17.1643 2.12352 18.0711 2.78958 18.4556 3.68678H5.54428C5.92879 2.78958 6.83555 2.12352 7.94337 2.01515C8.09917 1.99991 8.27741 1.99995 8.50989 2.00001Z" fill="#FFFFFF" />
  <path d="M6.31052 4.72312C4.91989 4.72312 3.77963 5.56287 3.3991 6.67691C3.39117 6.70013 3.38356 6.72348 3.37629 6.74693C3.77444 6.62636 4.18881 6.54759 4.60827 6.49382C5.68865 6.35531 7.05399 6.35538 8.64002 6.35547H15.5321C17.1181 6.35538 18.4835 6.35531 19.5639 6.49382C19.9833 6.54759 20.3977 6.62636 20.7958 6.74693C20.7886 6.72348 20.781 6.70013 20.773 6.67691C20.3925 5.56287 19.2522 4.72312 17.8616 4.72312H6.31052Z" fill="#FFFFFF" />
  <path fill-rule="nonzero" clip-rule="nonzero" d="M15.3276 7.54204 C18.7024 7.54204 20.3898 7.54204 21.3377 8.52887 C22.2855 9.51569 22.0625 11.0404 21.6165 14.0896 L21.1935 16.9811 C20.8437 19.3724 20.6689 20.568 19.7717 21.284 C18.8745 22 17.5512 22 14.9046 22 L9.09534 22 C6.4488 22 5.12553 22 4.22834 21.284 C3.33115 20.568 3.15626 19.3724 2.80648 16.9811 L2.38351 14.0896 C1.93748 11.0403 1.71447 9.5157 2.66232 8.52887 C3.61017 7.54204 5.29758 7.54204 8.67239 7.54204 L15.3276 7.54204 Z M 14.5812 15.7942 C 15.1396 15.4481 15.1396 14.5519 14.5812 14.2058 L 11.2096 12.1156 C 10.6669 11.7792 10 12.2171 10 12.9099 V 17.0901 C 10 17.7829 10.6669 18.2208 11.2096 17.8844 L 14.5812 15.7942 Z" fill="#FFFFFF" />
</svg>