<svg xmlns="http://www.w3.org/2000/svg" width="24" height="24" viewBox="0 0 24 24" fill="none">
  <path d="M5.25 2.00169C3.85306 2.01188 3.08814 2.08343 2.58579 2.58579C2.08343 3.08814 2.01188 3.85306 2.00169 5.25H5.25V2.00169Z" fill="#FFFFFF" />
  <path d="M2.00169 6.75C2.01188 8.14694 2.08343 8.91186 2.58579 9.41421C3.08814 9.91657 3.85306 9.98812 5.25 9.99831V6.75H2.00169Z" fill="#FFFFFF" />
  <path d="M6.75 10H10.25V2H6.75V10Z" fill="#FFFFFF" />
  <path d="M11.75 2.00169V5.25H14.9983C14.9881 3.85306 14.9166 3.08814 14.4142 2.58579C13.9119 2.08343 13.1469 2.01188 11.75 2.00169Z" fill="#FFFFFF" />
  <path d="M14.9983 6.75H11.75V9.99831C13.1469 9.98812 13.9119 9.91657 14.4142 9.41421C14.9166 8.91186 14.9881 8.14694 14.9983 6.75Z" fill="#FFFFFF" />
  <path d="M12.75 14.0092C11.664 14.0368 11.0247 14.1469 10.5858 14.5858C10.0834 15.0881 10.0119 15.8531 10.0017 17.25H12.75V14.0092Z" fill="#FFFFFF" />
  <path d="M10.0017 18.75C10.0119 20.1469 10.0834 20.9119 10.5858 21.4142C11.0247 21.8531 11.664 21.9632 12.75 21.9908V18.75H10.0017Z" fill="#FFFFFF" />
  <path d="M14.25 22H16.75V14H14.25V22Z" fill="#FFFFFF" />
  <path d="M18.25 14.0092V17.25H20.9983C20.9881 15.8531 20.9166 15.0881 20.4142 14.5858C19.9753 14.1469 19.336 14.0368 18.25 14.0092Z" fill="#FFFFFF" />
  <path d="M20.9983 18.75H18.25V21.9908C19.336 21.9632 19.9753 21.8531 20.4142 21.4142C20.9166 20.9119 20.9881 20.1469 20.9983 18.75Z" fill="#FFFFFF" />
  <path fill-rule="nonzero" clip-rule="nonzero" d="M 19.0433 6.76729 C 18.7958 6.75041 18.4762 6.75 18 6.75 C 17.5858 6.75 17.25 6.41421 17.25 6 C 17.25 5.58579 17.5858 5.25 18 5.25 L 18.0253 5.25 C 18.4697 5.24999 18.8408 5.24999 19.1454 5.27077 C 19.4625 5.2924 19.762 5.33905 20.0524 5.45933 C 20.7262 5.73844 21.2616 6.27379 21.5407 6.94762 C 21.6251 7.15155 21.6606 7.41236 21.6817 7.61233 C 21.7057 7.84059 21.7207 8.10675 21.7305 8.37872 C 21.7411 8.67506 21.746 8.99166 21.7482 9.29335 C 22.0124 9.19939 22.3188 9.25816 22.5303 9.46967 C 22.8232 9.76256 22.8232 10.2374 22.5303 10.5303 L 21.5303 11.5303 C 21.2374 11.8232 20.7626 11.8232 20.4697 11.5303 L 19.4697 10.5303 C 19.1768 10.2374 19.1768 9.76256 19.4697 9.46967 C 19.6802 9.25915 19.9847 9.19994 20.2481 9.29205 C 20.246 9.00421 20.2414 8.70798 20.2315 8.43266 C 20.2222 8.17572 20.2087 7.94823 20.1899 7.76913 C 20.1749 7.62667 20.16 7.55364 20.1549 7.52841 C 20.1526 7.51691 20.1522 7.51534 20.1549 7.52165 C 20.028 7.21536 19.7846 6.97202 19.4784 6.84515 C 19.4012 6.81319 19.284 6.78371 19.0433 6.76729 Z M 2.46967 12.4697 C 2.76256 12.1768 3.23744 12.1768 3.53033 12.4697 L 4.53033 13.4697 C 4.82322 13.7626 4.82322 14.2374 4.53033 14.5303 C 4.31981 14.7408 4.01528 14.8001 3.75187 14.7079 C 3.75402 14.9958 3.75864 15.292 3.76855 15.5673 C 3.77779 15.8243 3.79129 16.0518 3.81012 16.2309 C 3.82509 16.3733 3.83996 16.4464 3.8451 16.4716 C 3.84744 16.4831 3.84776 16.4847 3.84515 16.4784 C 3.97202 16.7846 4.21536 17.028 4.52165 17.1548 C 4.5988 17.1868 4.71601 17.2163 4.95674 17.2327 C 5.20421 17.2496 5.5238 17.25 6 17.25 C 6.41421 17.25 6.75 17.5858 6.75 18 C 6.75 18.4142 6.41421 18.75 6 18.75 H 5.97474 C 5.53028 18.75 5.15925 18.75 4.85464 18.7292 C 4.53754 18.7076 4.23801 18.6609 3.94762 18.5407 C 3.27379 18.2616 2.73844 17.7262 2.45933 17.0524 C 2.37486 16.8485 2.33936 16.5876 2.31834 16.3877 C 2.29434 16.1594 2.2793 15.8933 2.26952 15.6213 C 2.25885 15.3249 2.25402 15.0083 2.25182 14.7066 C 1.98758 14.8006 1.68118 14.7418 1.46967 14.5303 C 1.17678 14.2374 1.17678 13.7626 1.46967 13.4697 L 2.46967 12.4697 Z" fill="#FFFFFF" />
</svg>