<svg xmlns="http://www.w3.org/2000/svg" width="24" height="24" viewBox="0 0 24 24" fill="none">
  <path fill-rule="nonzero" clip-rule="nonzero" d="M 9.98966 10.91 C 10.4482 10.609 11.0657 10.5541 11.6048 10.8884 L 14.9764 12.9785 C 15.5136 13.3116 15.75 13.8874 15.75 14.4102 C 15.75 14.933 15.5136 15.5088 14.9764 15.8418 L 11.6048 17.932 C 11.0657 18.2662 10.4482 18.2114 9.98966 17.9103 C 9.539 17.6144 9.25 17.0934 9.25 16.5003 V 12.32 C 9.25 11.727 9.539 11.2059 9.98966 10.91 Z M 10.8129 12.1639 C 10.7945 12.176 10.75 12.2203 10.75 12.32 V 16.5003 C 10.75 16.6 10.7945 16.6443 10.8129 16.6564 L 10.8142 16.6572 L 14.186 14.5669 C 14.2072 14.5538 14.25 14.5085 14.25 14.4102 C 14.25 14.3118 14.2072 14.2665 14.186 14.2534 L 10.8145 12.1633 L 10.8129 12.1639 Z" fill="#FFFFFF" />
  <path fill-rule="nonzero" clip-rule="nonzero" d="M8.69935 1.25001 L15.3004 1.25001 C15.5203 1.24995 15.6888 1.2499 15.8362 1.26571 C17.1903 1.41104 18.2268 2.52307 18.2897 3.87013 C19.4805 4.22571 20.3289 5.3275 20.3443 6.59118 C20.9453 6.77151 21.4637 7.05595 21.888 7.51432 C22.54 8.21857 22.7421 9.08649 22.7498 10.1003 C22.7572 11.075 22.5835 12.3067 22.3678 13.8363 L21.9288 16.9499 C21.7602 18.146 21.6232 19.1176 21.4101 19.879 C21.1871 20.6756 20.8585 21.331 20.25 21.8349 C19.6463 22.3347 18.9301 22.5502 18.0835 22.6518 C17.265 22.75 16.2352 22.75 14.9531 22.75 L9.04682 22.75 C7.76474 22.75 6.73501 22.75 5.91647 22.6518 C5.06993 22.5502 4.35372 22.3347 3.75003 21.8349 C3.14152 21.331 2.81286 20.6756 2.58989 19.879 C2.37676 19.1176 2.23979 18.146 2.07118 16.9499 L1.63219 13.8363 C1.41651 12.3067 1.24283 11.075 1.25023 10.1003 C1.25792 9.08649 1.45997 8.21857 2.11196 7.51432 C2.53621 7.05606 3.05445 6.77164 3.65528 6.5913 C3.67058 5.3275 4.51917 4.22559 5.71005 3.87007 C5.77295 2.52304 6.80943 1.41104 8.16359 1.26571 C8.31094 1.2499 8.4795 1.24995 8.69935 1.25001 Z M 18.8105 6.32781 C 18.6734 5.72018 18.1306 5.25001 17.4617 5.25001 H 6.53787 C 5.86896 5.25001 5.32618 5.72019 5.18902 6.32785 C 6.11481 6.24999 7.24973 6.25 8.61594 6.25001 H 15.384 C 16.75 6.25 17.8848 6.24999 18.8105 6.32781 Z M 16.7677 3.75001 C 16.6611 3.22633 16.2263 2.8162 15.6761 2.75715 C 15.6198 2.75111 15.5396 2.75001 15.2588 2.75001 H 8.74099 C 8.46013 2.75001 8.37993 2.75111 8.32365 2.75715 C 7.77344 2.8162 7.33862 3.22633 7.2321 3.75001 H 16.7677 Z M3.21267 8.53336 C2.91681 8.85293 2.75644 9.28782 2.75018 10.1117 C2.74373 10.9618 2.89981 12.0828 3.12616 13.6883 L3.54913 16.6883 C3.7269 17.9491 3.8514 18.821 4.03437 19.4747 C4.21058 20.1042 4.41795 20.4405 4.70664 20.6795 C5.00014 20.9225 5.39417 21.0784 6.09519 21.1625 C6.81393 21.2488 7.75347 21.25 9.09536 21.25 L14.9046 21.25 C16.2465 21.25 17.1861 21.2488 17.9048 21.1625 C18.6058 21.0784 18.9999 20.9225 19.2934 20.6795 C19.582 20.4405 19.7894 20.1042 19.9656 19.4747 C20.1486 18.821 20.2731 17.9491 20.4509 16.6883 L20.8738 13.6883 C21.1002 12.0828 21.2563 10.9618 21.2498 10.1117 C21.2436 9.28782 21.0832 8.85293 20.7873 8.53336 C20.4844 8.20618 20.0289 7.98917 19.1439 7.87145 C18.2427 7.75159 17.0364 7.75001 15.3276 7.75001 L8.67239 7.75001 C6.96357 7.75001 5.75726 7.75159 4.85612 7.87145 C3.97106 7.98917 3.51557 8.20618 3.21267 8.53336 Z" fill="#FFFFFF" />
</svg>