<svg xmlns="http://www.w3.org/2000/svg" width="24" height="24" viewBox="0 0 24 24" fill="none">
  <path fill-rule="nonzero" clip-rule="nonzero" d="M 18.5407 5.45926 C 14.9284 1.84691 9.07161 1.84691 5.45926 5.45926 C 1.84691 9.07161 1.84691 14.9284 5.45926 18.5407 C 9.07161 22.1531 14.9284 22.1531 18.5407 18.5407 C 22.1531 14.9284 22.1531 9.07161 18.5407 5.45926 Z M 4.3986 4.3986 C 8.59674 0.200466 15.4033 0.200466 19.6014 4.3986 C 23.7995 8.59674 23.7995 15.4033 19.6014 19.6014 C 15.4033 23.7995 8.59674 23.7995 4.3986 19.6014 C 0.200466 15.4033 0.200466 8.59674 4.3986 4.3986 Z M 7.93414 6.87348 C 8.22703 7.16637 8.22703 7.64125 7.93414 7.93414 C 5.68862 10.1797 5.68862 13.8204 7.93414 16.0659 C 8.22703 16.3588 8.22703 16.8336 7.93414 17.1265 C 7.64124 17.4194 7.16637 17.4194 6.87348 17.1265 C 4.04218 14.2952 4.04217 9.70478 6.87348 6.87348 C 7.16637 6.58059 7.64124 6.58059 7.93414 6.87348 Z M 16.0659 6.87348 C 16.3588 6.58059 16.8336 6.58059 17.1265 6.87348 C 19.9578 9.70478 19.9578 14.2952 17.1265 17.1265 C 16.8336 17.4194 16.3588 17.4194 16.0659 17.1265 C 15.773 16.8336 15.773 16.3588 16.0659 16.0659 C 18.3114 13.8204 18.3114 10.1797 16.0659 7.93414 C 15.773 7.64125 15.773 7.16637 16.0659 6.87348 Z M 12 9.75 C 10.7574 9.75 9.75 10.7574 9.75 12 C 9.75 13.2426 10.7574 14.25 12 14.25 C 13.2426 14.25 14.25 13.2426 14.25 12 C 14.25 10.7574 13.2426 9.75 12 9.75 Z M 8.25 12 C 8.25 9.92893 9.92893 8.25 12 8.25 C 14.0711 8.25 15.75 9.92893 15.75 12 C 15.75 14.0711 14.0711 15.75 12 15.75 C 9.92893 15.75 8.25 14.0711 8.25 12 Z" fill="#FFFFFF" />
</svg>