<svg xmlns="http://www.w3.org/2000/svg" width="24" height="24" viewBox="0 0 24 24" fill="none">
  <path fill-rule="nonzero" clip-rule="nonzero" d="M4.92893 19.0711 C1.02369 15.1658 1.02369 8.83418 4.92893 4.92893 C8.83418 1.02369 15.1658 1.02369 19.0711 4.92893 C22.9763 8.83418 22.9763 15.1658 19.0711 19.0711 C15.1658 22.9763 8.83418 22.9763 4.92893 19.0711 Z M 17.1265 6.87348 C 16.8336 6.58058 16.3588 6.58058 16.0659 6.87348 C 15.773 7.16637 15.773 7.64124 16.0659 7.93414 C 18.3114 10.1797 18.3114 13.8203 16.0659 16.0659 C 15.773 16.3588 15.773 16.8336 16.0659 17.1265 C 16.3588 17.4194 16.8336 17.4194 17.1265 17.1265 C 19.9578 14.2952 19.9578 9.70478 17.1265 6.87348 Z M9.34835 9.34835 C7.88388 10.8128 7.88388 13.1872 9.34835 14.6517 C10.8128 16.1161 13.1872 16.1161 14.6517 14.6517 C16.1161 13.1872 16.1161 10.8128 14.6517 9.34835 C13.1872 7.88388 10.8128 7.88388 9.34835 9.34835 Z M 10.409 10.409 C 11.2877 9.53033 12.7123 9.53033 13.591 10.409 C 14.4697 11.2877 14.4697 12.7123 13.591 13.591 C 12.7123 14.4697 11.2877 14.4697 10.409 13.591 C 9.53033 12.7123 9.53033 11.2877 10.409 10.409 Z M 7.93414 7.93414 C 8.22703 7.64124 8.22703 7.16637 7.93414 6.87348 C 7.64124 6.58058 7.16637 6.58058 6.87348 6.87348 C 4.04217 9.70478 4.04217 14.2952 6.87348 17.1265 C 7.16637 17.4194 7.64124 17.4194 7.93414 17.1265 C 8.22703 16.8336 8.22703 16.3588 7.93414 16.0659 C 5.68862 13.8203 5.68862 10.1797 7.93414 7.93414 Z" fill="#FFFFFF" />
</svg>