<svg xmlns="http://www.w3.org/2000/svg" width="24" height="24" viewBox="0 0 24 24" fill="none">
  <path fill-rule="nonzero" clip-rule="nonzero" d="M 12.1402 4.90978 C 11.426 5.25674 10.5209 5.85164 9.2311 6.70205 L 9.01216 6.84641 C 8.9955 6.8574 8.97905 6.86824 8.96283 6.87895 C 8.58263 7.12974 8.31931 7.30343 8.03077 7.43078 C 7.74641 7.55627 7.44756 7.64593 7.14108 7.69768 C 6.83009 7.7502 6.51464 7.75013 6.05918 7.75004 C 6.03974 7.75004 6.02004 7.75003 6.00008 7.75003 C 4.55641 7.75003 4.06911 7.76631 3.6548 7.958 C 3.25445 8.14323 2.82804 8.54443 2.6188 8.93278 C 2.40052 9.33789 2.36045 9.75309 2.2834 11.0173 C 2.26225 11.3642 2.25 11.6968 2.25 12 C 2.25 12.3033 2.26225 12.6358 2.2834 12.9828 C 2.36045 14.247 2.40052 14.6622 2.6188 15.0673 C 2.82804 15.4556 3.25445 15.8568 3.6548 16.0421 C 4.06911 16.2338 4.55641 16.25 6.00008 16.25 C 6.02004 16.25 6.03973 16.25 6.05917 16.25 C 6.51464 16.2499 6.83009 16.2499 7.14108 16.3024 C 7.44756 16.3541 7.74641 16.4438 8.03077 16.5693 C 8.31931 16.6966 8.58263 16.8703 8.96282 17.1211 C 8.97905 17.1318 8.99549 17.1427 9.01216 17.1537 L 9.2311 17.298 C 10.5209 18.1484 11.426 18.7433 12.1402 19.0903 C 12.8525 19.4363 13.2087 19.4502 13.4578 19.3651 C 13.5952 19.3183 13.7297 19.2498 13.8485 19.1664 C 14.0651 19.0141 14.2626 18.7195 14.4015 17.9482 C 14.541 17.1733 14.5924 16.1014 14.6635 14.5706 C 14.7156 13.451 14.75 12.5118 14.75 12 C 14.75 11.4883 14.7156 10.549 14.6635 9.42946 C 14.5924 7.89871 14.541 6.82677 14.4015 6.05188 C 14.2626 5.28052 14.0651 4.98595 13.8485 4.8337 C 13.7297 4.75023 13.5952 4.68181 13.4578 4.63492 C 13.2087 4.54989 12.8525 4.56376 12.1402 4.90978 Z M 11.4848 3.56055 C 12.3108 3.15928 13.1241 2.9361 13.9423 3.21531 C 14.2142 3.30809 14.4759 3.44128 14.7109 3.60646 C 15.417 4.10266 15.7159 4.88667 15.8778 5.78612 C 16.037 6.67048 16.0914 7.84243 16.1592 9.30232 L 16.1619 9.35983 C 16.2137 10.4748 16.25 11.448 16.25 12 C 16.25 12.552 16.2137 13.5253 16.1619 14.6402 L 16.1592 14.6977 C 16.0914 16.1576 16.037 17.3296 15.8778 18.2139 C 15.7159 19.1134 15.417 19.8974 14.7109 20.3936 C 14.4759 20.5588 14.2142 20.692 13.9423 20.7848 C 13.1241 21.064 12.3108 20.8408 11.4848 20.4395 C 10.6712 20.0443 9.68413 19.3934 8.45327 18.5819 L 8.18647 18.4059 C 7.73856 18.1106 7.58448 18.0119 7.42513 17.9416 C 7.25452 17.8663 7.0752 17.8125 6.89132 17.7814 C 6.71956 17.7524 6.5366 17.75 6.00008 17.75 C 5.94569 17.75 5.89203 17.7501 5.83907 17.7501 C 4.62215 17.7507 3.77659 17.7512 3.02496 17.4034 C 2.33016 17.082 1.66141 16.4527 1.29828 15.7788 C 0.905663 15.0501 0.859593 14.2881 0.794087 13.2045 C 0.791489 13.1615 0.788861 13.1181 0.786179 13.0741 C 0.763733 12.7058 0.75 12.3416 0.75 12 C 0.75 11.6585 0.763733 11.2943 0.786179 10.926 C 0.788861 10.882 0.791489 10.8385 0.794087 10.7955 C 0.859593 9.712 0.905663 8.94996 1.29828 8.22128 C 1.66141 7.54732 2.33016 6.9181 3.02496 6.59664 C 3.77659 6.24889 4.62215 6.24933 5.83906 6.24998 C 5.89203 6.25 5.94569 6.25003 6.00008 6.25003 C 6.5366 6.25003 6.71956 6.24762 6.89132 6.21862 C 7.0752 6.18757 7.25452 6.13377 7.42513 6.05848 C 7.58448 5.98815 7.73856 5.88945 8.18647 5.59411 L 8.45328 5.4182 C 9.68414 4.60662 10.6712 3.95576 11.4848 3.56055 Z M 19.5199 5.42408 C 19.8381 5.1589 20.311 5.2019 20.5762 5.52011 L 20 6.00024 C 20.5762 5.52011 20.5762 5.52011 20.5762 5.52011 L 20.5773 5.52148 L 20.5786 5.52303 L 20.5816 5.52664 L 20.5891 5.53591 C 20.5948 5.543 20.6018 5.55194 20.6102 5.56272 C 20.6269 5.5843 20.6486 5.6133 20.6748 5.64986 C 20.727 5.723 20.7966 5.8264 20.8775 5.96125 C 21.0394 6.23106 21.2462 6.62623 21.45 7.15601 C 21.8582 8.21738 22.25 9.80868 22.25 12.0002 C 22.25 14.1918 21.8582 15.7831 21.45 16.8445 C 21.2462 17.3743 21.0394 17.7694 20.8775 18.0392 C 20.7966 18.1741 20.727 18.2775 20.6748 18.3506 C 20.6486 18.3872 20.6269 18.4162 20.6102 18.4378 C 20.6052 18.4442 20.6007 18.45 20.5966 18.4551 C 20.5939 18.4586 20.5914 18.4617 20.5891 18.4646 L 20.5816 18.4739 L 20.5786 18.4775 L 20.5773 18.479 C 20.5773 18.479 20.5762 18.4804 20 18.0002 L 20.5762 18.4804 C 20.311 18.7986 19.8381 18.8416 19.5199 18.5764 C 19.2032 18.3125 19.1591 17.8429 19.42 17.5247 M19.5199 5.42408 C19.2032 5.68797 19.1591 6.15763 19.42 6.47578 L19.422 6.47812 L19.4235 6.48024 L19.42 6.47578 C19.42 6.47578 19.4218 6.47803 19.4235 6.48024 C19.4288 6.48709 19.4393 6.50086 19.4542 6.52172 C19.4839 6.56343 19.5315 6.63347 19.5913 6.73299 C19.7106 6.93192 19.8788 7.24926 20.05 7.69448 C20.3918 8.58311 20.75 9.99181 20.75 12.0002 C20.75 14.0087 20.3918 15.4174 20.05 16.306 C19.8788 16.7512 19.7106 17.0686 19.5913 17.2675 C19.5315 17.367 19.4839 17.4371 19.4542 17.4788 C19.4393 17.4996 19.4288 17.5134 19.4235 17.5202 C19.4218 17.5224 19.42 17.5247 19.42 17.5247 M 17.6358 8.34463 C 17.9979 8.14347 18.4545 8.27392 18.6556 8.63601 L 18.0276 8.9849 C 18.6556 8.63602 18.6556 8.63601 18.6556 8.63601 L 18.6563 8.63732 L 18.6571 8.63872 L 18.6588 8.64176 L 18.6626 8.64888 L 18.6723 8.66723 C 18.6795 8.6813 18.6884 8.69906 18.6986 8.72057 C 18.7191 8.76359 18.7451 8.82159 18.7745 8.89514 C 18.8333 9.0423 18.9059 9.25124 18.9765 9.52646 C 19.1178 10.0774 19.25 10.8901 19.25 12.0002 C 19.25 13.1104 19.1178 13.9231 18.9765 14.474 C 18.9059 14.7492 18.8333 14.9582 18.7745 15.1053 C 18.7451 15.1789 18.7191 15.2369 18.6986 15.2799 C 18.6884 15.3014 18.6795 15.3192 18.6723 15.3333 L 18.6626 15.3516 L 18.6588 15.3587 L 18.6571 15.3618 L 18.6563 15.3632 C 18.6563 15.3632 18.6556 15.3645 18.0276 15.0156 L 18.6556 15.3645 C 18.4545 15.7266 17.9979 15.857 17.6358 15.6559 C 17.2768 15.4564 17.1455 15.0058 17.3393 14.6453 L 17.3443 14.635 C 17.3512 14.6206 17.3643 14.5919 17.3818 14.5483 C 17.4167 14.4611 17.4691 14.3137 17.5235 14.1015 C 17.6322 13.6774 17.75 12.9901 17.75 12.0002 C 17.75 11.0104 17.6322 10.3231 17.5235 9.89902 C 17.4691 9.68675 17.4167 9.53944 17.3818 9.45222 C 17.3643 9.40858 17.3512 9.37986 17.3443 9.36547 L 17.3393 9.35523 C 17.1455 8.99465 17.2768 8.54408 17.6358 8.34463 Z" fill="#FFFFFF" />
</svg>