<svg xmlns="http://www.w3.org/2000/svg" width="24" height="24" viewBox="0 0 24 24" fill="none">
  <path d="M15.7212 7.34884C15.7212 8.37634 14.8883 9.2093 13.8608 9.2093C12.8333 9.2093 12.0003 8.37634 12.0003 7.34884C12.0003 6.32133 12.8333 5.48837 13.8608 5.48837C14.8883 5.48837 15.7212 6.32133 15.7212 7.34884Z" fill="#FFFFFF" />
  <path fill-rule="nonzero" clip-rule="nonzero" d="M16.0856 2.10839 C16.923 2.22097 17.628 2.4618 18.1879 3.02172 C18.7478 3.58164 18.9886 4.28664 19.1012 5.12395 C19.2096 5.93044 19.2096 6.95585 19.2096 8.22803 L19.2096 15.772 C19.2096 17.0441 19.2096 18.0696 19.1012 18.876 C18.9886 19.7134 18.7478 20.4184 18.1879 20.9783 C17.628 21.5382 16.923 21.779 16.0856 21.8916 C15.2792 22 14.2538 22 12.9816 22 L11.019 22 C9.74686 22 8.72144 22 7.91496 21.8916 C7.07765 21.779 6.37266 21.5382 5.81274 20.9783 C5.25281 20.4184 5.01198 19.7134 4.89941 18.876 C4.79098 18.0696 4.791 17.0442 4.79102 15.772 L4.79102 8.22802 C4.791 6.95585 4.79098 5.93043 4.89941 5.12395 C5.01198 4.28664 5.25281 3.58164 5.81274 3.02172 C6.37266 2.4618 7.07765 2.22097 7.91496 2.10839 C8.72144 1.99997 9.74685 1.99998 11.019 2 L12.9816 2 C14.2538 1.99998 15.2792 1.99997 16.0856 2.10839 Z M 16.8088 16.6302 L 17.7949 17.6708 C 17.8137 17.134 17.8142 16.4954 17.8142 15.7209 V 8.27907 C 17.8142 6.9438 17.8128 6.01253 17.7183 5.30988 C 17.6265 4.6273 17.4587 4.26584 17.2012 4.00838 C 16.9438 3.75093 16.5823 3.58307 15.8997 3.4913 C 15.1971 3.39683 14.2658 3.39535 12.9305 3.39535 H 11.0701 C 9.73481 3.39535 8.80354 3.39683 8.10089 3.4913 C 7.41831 3.58307 7.05685 3.75093 6.79939 4.00838 C 6.54194 4.26584 6.37408 4.6273 6.28231 5.30988 C 6.18784 6.01253 6.18636 6.9438 6.18636 8.27907 V 12.904 L 6.18966 12.9007 C 7.10649 11.96 8.52488 12.0245 9.37301 13.019 L 12.3133 16.4668 C 12.5488 16.7429 12.8587 16.7555 13.0964 16.5596 L 13.3008 16.3912 C 14.3767 15.5045 15.852 15.6204 16.8088 16.6302 Z" fill="#FFFFFF" />
  <g opacity="0.5">
    <path d="M5.01606 4.5H5C4.5355 4.5 4.30325 4.5 4.10891 4.53078C3.03918 4.70021 2.20021 5.53918 2.03078 6.60891C2 6.80325 2 7.0355 2 7.5V16.5C2 16.9645 2 17.1968 2.03078 17.3911C2.20021 18.4608 3.03918 19.2998 4.10891 19.4692C4.30325 19.5 4.5355 19.5 5 19.5H5.01606C4.96635 19.301 4.92858 19.093 4.89941 18.876C4.79098 18.0696 4.791 17.0442 4.79102 15.772V8.22802C4.791 6.95585 4.79098 5.93043 4.89941 5.12395C4.92858 4.90701 4.96635 4.69895 5.01606 4.5Z" fill="#FFFFFF" />
    <path d="M18.9845 19.5C19.0343 19.301 19.072 19.093 19.1012 18.876C19.2096 18.0696 19.2096 17.0442 19.2096 15.772V8.22803C19.2096 6.95588 19.2096 5.93042 19.1012 5.12395C19.072 4.90701 19.0343 4.69895 18.9845 4.5H19C19.4645 4.5 19.6968 4.5 19.8911 4.53078C20.9608 4.70021 21.7998 5.53918 21.9692 6.60891C22 6.80325 22 7.0355 22 7.5V16.5C22 16.9645 22 17.1968 21.9692 17.3911C21.7998 18.4608 20.9608 19.2998 19.8911 19.4692C19.6968 19.5 19.4645 19.5 19 19.5H18.9845Z" fill="#FFFFFF" />
  </g>
</svg>