<svg xmlns="http://www.w3.org/2000/svg" width="24" height="24" viewBox="0 0 24 24" fill="none">
  <path fill-rule="nonzero" clip-rule="nonzero" d="M12 22 C6.47715 22 2 17.5228 2 12 C2 6.47715 6.47715 2 12 2 C17.5228 2 22 6.47715 22 12 C22 17.5228 17.5228 22 12 22 Z M7.55004 9.60004 L8.75004 10.5 L7.55004 11.4 C7.21867 11.6486 7.15152 12.1187 7.40004 12.45 C7.64857 12.7814 8.11867 12.8486 8.45004 12.6 L10.45 11.1 C10.6389 10.9584 10.75 10.7361 10.75 10.5 C10.75 10.264 10.6389 10.0417 10.45 9.90004 L8.45004 8.40004 C8.11867 8.15152 7.64857 8.21867 7.40004 8.55004 C7.15152 8.88141 7.21867 9.35152 7.55004 9.60004 Z M16.6 8.55004 C16.3515 8.21867 15.8814 8.15152 15.55 8.40004 L13.55 9.90004 C13.3612 10.0417 13.25 10.264 13.25 10.5 C13.25 10.7361 13.3612 10.9584 13.55 11.1 L15.55 12.6 C15.8814 12.8486 16.3515 12.7814 16.6 12.45 C16.8486 12.1187 16.7814 11.6486 16.45 11.4 L15.25 10.5 L16.45 9.60004 C16.7814 9.35152 16.8486 8.88141 16.6 8.55004 Z M15.5304 16.5304 C15.8233 16.2375 15.8233 15.7626 15.5304 15.4697 L15.0304 14.9697 C14.4713 14.4107 13.5711 14.4009 13 14.9403 C12.4392 14.4105 11.5609 14.4105 11 14.9403 C10.429 14.4009 9.52875 14.4107 8.96971 14.9697 L8.46971 15.4697 C8.17682 15.7626 8.17682 16.2375 8.46971 16.5304 C8.76261 16.8233 9.23748 16.8233 9.53037 16.5304 L10.0005 16.0603 C10.5613 16.5896 11.4394 16.5895 12 16.0599 C12.5607 16.5895 13.4388 16.5896 13.9996 16.0603 L14.4697 16.5304 C14.7626 16.8233 15.2375 16.8233 15.5304 16.5304 Z" fill="#FFFFFF" />
</svg>