<svg xmlns="http://www.w3.org/2000/svg" width="24" height="24" viewBox="0 0 24 24" fill="none">
  <path d="M15.4754 9.51572C15.6898 10.3159 15.4311 11.0805 14.8977 11.2234C14.3642 11.3664 13.7579 10.8336 13.5435 10.0334C13.3291 9.23316 13.5877 8.4686 14.1212 8.32565C14.6547 8.18271 15.2609 8.71552 15.4754 9.51572Z" fill="#FFFFFF" />
  <path d="M9.67994 11.0687C9.89436 11.8689 9.63571 12.6335 9.10225 12.7764C8.56878 12.9194 7.9625 12.3865 7.74809 11.5863C7.53368 10.7861 7.79232 10.0216 8.32579 9.87863C8.85925 9.73569 9.46553 10.2685 9.67994 11.0687Z" fill="#FFFFFF" />
  <path fill-rule="nonzero" clip-rule="nonzero" d="M 12 2.75 C 6.89137 2.75 2.75 6.89137 2.75 12 C 2.75 17.1086 6.89137 21.25 12 21.25 C 17.1086 21.25 21.25 17.1086 21.25 12 C 21.25 6.89137 17.1086 2.75 12 2.75 Z M 1.25 12 C 1.25 6.06294 6.06294 1.25 12 1.25 C 17.9371 1.25 22.75 6.06294 22.75 12 C 22.75 17.9371 17.9371 22.75 12 22.75 C 6.06294 22.75 1.25 17.9371 1.25 12 Z M 17.1789 13.3409 C 17.467 13.6385 17.4593 14.1133 17.1617 14.4014 C 16.9917 14.566 16.8128 14.7246 16.6256 14.8766 L 16.8441 15.3216 C 17.3971 16.4482 16.9214 17.8094 15.787 18.3464 C 14.6752 18.8728 13.3468 18.4085 12.8047 17.3043 L 12.5315 16.7477 C 11.2117 16.998 9.90919 16.9561 8.73026 16.6606 C 8.32847 16.5599 8.0844 16.1526 8.1851 15.7508 C 8.2858 15.349 8.69315 15.1049 9.09494 15.2056 C 10.2252 15.4889 11.5232 15.4924 12.841 15.1393 C 14.1588 14.7862 15.2811 14.1342 16.1183 13.3237 C 16.4159 13.0356 16.8908 13.0433 17.1789 13.3409 Z M 14.0048 16.345 L 14.1513 16.6433 C 14.3319 17.0114 14.7747 17.1661 15.1452 16.9907 C 15.5233 16.8117 15.6818 16.358 15.4975 15.9825 L 15.3707 15.7241 C 14.9417 15.9631 14.4851 16.1716 14.0048 16.345 Z" fill="#FFFFFF" />
</svg>