<svg xmlns="http://www.w3.org/2000/svg" width="24" height="24" viewBox="0 0 24 24" fill="none">
  <path fill-rule="nonzero" clip-rule="nonzero" d="M12 22 C6.47715 22 2 17.5228 2 12 C2 6.47715 6.47715 2 12 2 C17.5228 2 22 6.47715 22 12 C22 17.5228 17.5228 22 12 22 Z M8.1851 15.7508 C8.0844 16.1526 8.32847 16.5599 8.73026 16.6606 C10.1166 17.0081 11.6739 17.005 13.2292 16.5882 L13.2817 16.574 L13.478 16.9738 C13.8393 17.71 14.7249 18.0194 15.4661 17.6685 C16.2223 17.3106 16.5394 16.4031 16.1708 15.652 L16.0128 15.3301 C16.4297 15.0492 16.8142 14.7378 17.1617 14.4014 C17.4593 14.1133 17.467 13.6385 17.1789 13.3409 C16.8908 13.0433 16.4159 13.0356 16.1183 13.3237 C15.2811 14.1342 14.1588 14.7862 12.841 15.1393 C11.5232 15.4924 10.2252 15.4889 9.09494 15.2056 C8.69315 15.1049 8.2858 15.349 8.1851 15.7508 Z M15.4754 9.51572 C15.2609 8.71552 14.6547 8.18271 14.1212 8.32565 C13.5877 8.4686 13.3291 9.23316 13.5435 10.0334 C13.7579 10.8336 14.3642 11.3664 14.8977 11.2234 C15.4311 11.0805 15.6898 10.3159 15.4754 9.51572 Z M 9.10225 12.7764 C 9.63571 12.6335 9.89436 11.8689 9.67994 11.0687 C 9.46553 10.2685 8.85926 9.73569 8.32579 9.87863 C 7.79232 10.0216 7.53368 10.7861 7.74809 11.5863 C 7.9625 12.3865 8.56878 12.9194 9.10225 12.7764 Z" fill="#FFFFFF" />
</svg>