<svg xmlns="http://www.w3.org/2000/svg" width="24" height="24" viewBox="0 0 24 24" fill="none">
  <path fill-rule="nonzero" clip-rule="nonzero" d="M2.47995 6.50359 C3.42298 4.87021 5.49632 4.31466 9.643 3.20356 C13.7897 2.09246 15.863 1.53691 17.4964 2.47995 C19.1298 3.42298 19.6853 5.49632 20.7964 9.643 C21.9075 13.7897 22.4631 15.863 21.5201 17.4964 C20.577 19.1298 18.5037 19.6853 14.357 20.7964 C10.2103 21.9075 8.13698 22.4631 6.50359 21.5201 C4.87021 20.577 4.31466 18.5037 3.20356 14.357 C2.09246 10.2103 1.53691 8.13698 2.47995 6.50359 Z M8.18526 15.7507 C8.08455 16.1525 8.32863 16.5598 8.73041 16.6606 C10.1168 17.008 11.674 17.0049 13.2294 16.5881 L13.2818 16.574 L13.478 16.9737 C13.8393 17.7099 14.7249 18.0193 15.4661 17.6684 C16.2223 17.3105 16.5395 16.403 16.1708 15.6519 L16.0128 15.3302 C16.4298 15.0492 16.8143 14.7378 17.1618 14.4014 C17.4594 14.1133 17.4671 13.6384 17.179 13.3408 C16.8909 13.0432 16.4161 13.0355 16.1185 13.3236 C15.2813 14.1341 14.1589 14.7862 12.8412 15.1393 C11.5234 15.4924 10.2254 15.4889 9.09509 15.2056 C8.69331 15.1049 8.28596 15.3489 8.18526 15.7507 Z M15.4755 9.51583 C15.2611 8.71564 14.6548 8.18282 14.1213 8.32577 C13.5879 8.46871 13.3292 9.23327 13.5436 10.0335 C13.758 10.8337 14.3643 11.3665 14.8978 11.2235 C15.4312 11.0806 15.6899 10.316 15.4755 9.51583 Z M 9.10222 12.7765 C 9.63569 12.6335 9.89433 11.8689 9.67992 11.0687 C 9.46551 10.2685 8.85923 9.73574 8.32577 9.87868 C 7.7923 10.0216 7.53366 10.7862 7.74807 11.5864 C 7.96248 12.3866 8.56876 12.9194 9.10222 12.7765 Z" fill="#FFFFFF" />
</svg>