<svg xmlns="http://www.w3.org/2000/svg" width="24" height="24" viewBox="0 0 24 24" fill="none">
  <path fill-rule="nonzero" clip-rule="nonzero" d="M 12 22 C 7.28595 22 4.92893 22 3.46447 20.5355 C 2 19.0711 2 16.714 2 12 C 2 7.28595 2 4.92893 3.46447 3.46447 C 4.92893 2 7.28595 2 12 2 C 16.714 2 19.0711 2 20.5355 3.46447 C 22 4.92893 22 7.28595 22 12 C 22 16.714 22 19.0711 20.5355 20.5355 C 19.0711 22 16.714 22 12 22 Z M9 16.75 L15 16.75 C15.4142 16.75 15.75 16.4142 15.75 16 C15.75 15.5858 15.4142 15.25 15 15.25 L9 15.25 C8.58579 15.25 8.25 15.5858 8.25 16 C8.25 16.4142 8.58579 16.75 9 16.75 Z M10 10.5 C10 9.67157 9.55228 9 9 9 C8.44772 9 8 9.67157 8 10.5 C8 11.3284 8.44772 12 9 12 C9.55228 12 10 11.3284 10 10.5 Z M 15 12 C 15.5523 12 16 11.3284 16 10.5 C 16 9.67157 15.5523 9 15 9 C 14.4477 9 14 9.67157 14 10.5 C 14 11.3284 14.4477 12 15 12 Z" fill="#FFFFFF" />
</svg>