<svg xmlns="http://www.w3.org/2000/svg" width="24" height="24" viewBox="0 0 24 24" fill="none">
  <path d="M16 10.5C16 11.3284 15.5523 12 15 12C14.4477 12 14 11.3284 14 10.5C14 9.67157 14.4477 9 15 9C15.5523 9 16 9.67157 16 10.5Z" fill="#FFFFFF" />
  <path d="M10 10.5C10 11.3284 9.55229 12 9 12C8.44772 12 8 11.3284 8 10.5C8 9.67157 8.44772 9 9 9C9.55229 9 10 9.67157 10 10.5Z" fill="#FFFFFF" />
  <path fill-rule="nonzero" clip-rule="nonzero" d="M 11.9426 1.25 H 12.0574 C 14.3658 1.24999 16.1748 1.24998 17.5863 1.43975 C 19.031 1.63399 20.1711 2.03933 21.0659 2.93414 C 21.9607 3.82895 22.366 4.96897 22.5603 6.41371 C 22.75 7.82519 22.75 9.63423 22.75 11.9426 V 12.0574 C 22.75 14.3658 22.75 16.1748 22.5603 17.5863 C 22.366 19.031 21.9607 20.1711 21.0659 21.0659 C 20.1711 21.9607 19.031 22.366 17.5863 22.5603 C 16.1748 22.75 14.3658 22.75 12.0574 22.75 H 11.9426 C 9.63423 22.75 7.82519 22.75 6.41371 22.5603 C 4.96897 22.366 3.82895 21.9607 2.93414 21.0659 C 2.03933 20.1711 1.63399 19.031 1.43975 17.5863 C 1.24998 16.1748 1.24999 14.3658 1.25 12.0574 V 11.9426 C 1.24999 9.63423 1.24998 7.82519 1.43975 6.41371 C 1.63399 4.96897 2.03933 3.82895 2.93414 2.93414 C 3.82895 2.03933 4.96897 1.63399 6.41371 1.43975 C 7.82519 1.24998 9.63423 1.24999 11.9426 1.25 Z M 6.61358 2.92637 C 5.33517 3.09825 4.56445 3.42514 3.9948 3.9948 C 3.42514 4.56445 3.09825 5.33517 2.92637 6.61358 C 2.75159 7.91356 2.75 9.62177 2.75 12 C 2.75 12.0988 2.75 12.1964 2.75002 12.2929 C 2.76834 12.2994 2.78654 12.3066 2.8046 12.3146 L 7.01535 14.1861 L 9.8645 13.0464 C 11.2354 12.4981 12.7646 12.4981 14.1355 13.0464 L 16.9846 14.1861 L 21.1954 12.3146 C 21.2135 12.3066 21.2317 12.2994 21.25 12.2929 C 21.25 12.1964 21.25 12.0988 21.25 12 C 21.25 9.62177 21.2484 7.91356 21.0736 6.61358 C 20.9018 5.33517 20.5749 4.56445 20.0052 3.9948 C 19.4355 3.42514 18.6648 3.09825 17.3864 2.92637 C 16.0864 2.75159 14.3782 2.75 12 2.75 C 9.62177 2.75 7.91356 2.75159 6.61358 2.92637 Z M 21.2452 13.934 L 17.7135 15.5036 L 17.4911 18.3945 L 20.3352 19.6134 C 20.7063 19.0864 20.9381 18.3941 21.0736 17.3864 C 21.1969 16.4694 21.234 15.3492 21.2452 13.934 Z M 18.9993 20.6728 L 17.3696 19.9744 L 17.284 21.0869 C 17.3184 21.0826 17.3526 21.0782 17.3864 21.0736 C 18.0447 20.9851 18.5684 20.8555 18.9993 20.6728 Z M 15.7705 21.2049 L 16.21 15.4918 L 13.5784 14.4391 C 12.5652 14.0338 11.4348 14.0338 10.4216 14.4391 L 7.79004 15.4918 L 8.22951 21.2049 C 9.26302 21.2494 10.4979 21.25 12 21.25 C 13.5021 21.25 14.737 21.2494 15.7705 21.2049 Z M 6.71601 21.0869 L 6.63043 19.9744 L 5.00069 20.6728 C 5.43161 20.8555 5.95529 20.9851 6.61358 21.0736 C 6.64744 21.0782 6.68159 21.0826 6.71601 21.0869 Z M 3.66477 19.6134 L 6.5089 18.3945 L 6.28653 15.5036 L 2.7548 13.934 C 2.76597 15.3492 2.80308 16.4694 2.92637 17.3864 C 3.06186 18.3941 3.29366 19.0864 3.66477 19.6134 Z" fill="#FFFFFF" />
</svg>