<svg xmlns="http://www.w3.org/2000/svg" width="24" height="24" viewBox="0 0 24 24" fill="none">
  <path fill-rule="nonzero" clip-rule="nonzero" d="M 12 2.75 C 6.89137 2.75 2.75 6.89137 2.75 12 C 2.75 12.0985 2.75154 12.1967 2.7546 12.2945 C 2.77137 12.3006 2.78805 12.3073 2.8046 12.3146 L 7.01535 14.1861 L 9.8645 13.0464 C 11.2354 12.4981 12.7646 12.4981 14.1355 13.0464 L 16.9846 14.1861 L 21.1954 12.3146 C 21.212 12.3073 21.2286 12.3006 21.2454 12.2945 C 21.2485 12.1967 21.25 12.0985 21.25 12 C 21.25 6.89137 17.1086 2.75 12 2.75 Z M 21.0263 14.0313 L 17.707 15.5065 L 17.339 19.5545 C 19.1761 18.2539 20.5179 16.3 21.0263 14.0313 Z M 15.7512 20.4578 C 15.7517 20.4492 15.7523 20.4407 15.7531 20.4321 L 16.2025 15.4888 L 13.5784 14.4391 C 12.5652 14.0338 11.4348 14.0338 10.4216 14.4391 L 7.79753 15.4888 L 8.24692 20.4321 C 8.2477 20.4407 8.24833 20.4492 8.24882 20.4578 C 9.39532 20.967 10.6646 21.25 12 21.25 C 13.3354 21.25 14.6047 20.967 15.7512 20.4578 Z M 6.66096 19.5545 L 6.29295 15.5065 L 2.97374 14.0313 C 3.48209 16.3 4.82393 18.2539 6.66096 19.5545 Z M 1.25 12 C 1.25 6.06294 6.06294 1.25 12 1.25 C 17.9371 1.25 22.75 6.06294 22.75 12 C 22.75 17.9371 17.9371 22.75 12 22.75 C 6.06294 22.75 1.25 17.9371 1.25 12 Z" fill="#FFFFFF" />
  <path d="M16 10.5C16 11.3284 15.5523 12 15 12C14.4477 12 14 11.3284 14 10.5C14 9.67157 14.4477 9 15 9C15.5523 9 16 9.67157 16 10.5Z" fill="#FFFFFF" />
  <path d="M10 10.5C10 11.3284 9.55229 12 9 12C8.44772 12 8 11.3284 8 10.5C8 9.67157 8.44772 9 9 9C9.55229 9 10 9.67157 10 10.5Z" fill="#FFFFFF" />
</svg>