<svg xmlns="http://www.w3.org/2000/svg" width="24" height="24" viewBox="0 0 24 24" fill="none">
  <path fill-rule="evenodd" clip-rule="evenodd" d="M10.8011 2.56967C10.8792 2.95444 10.6305 3.32966 10.2458 3.40776C6.81159 4.10481 4.10481 6.81156 3.40771 10.2457C3.3296 10.6305 2.95437 10.8791 2.56961 10.801C2.18484 10.7229 1.93624 10.3477 2.01435 9.9629C2.82504 5.96912 5.96917 2.82503 9.96297 2.0144C10.3477 1.9363 10.723 2.1849 10.8011 2.56967Z" fill="#FFFFFF" />
  <path fill-rule="evenodd" clip-rule="evenodd" d="M2.56976 13.199C2.95452 13.1209 3.32975 13.3695 3.40786 13.7543C4.10496 17.1885 6.81174 19.8952 10.2459 20.5923C10.6307 20.6704 10.8793 21.0456 10.8012 21.4304C10.7231 21.8151 10.3479 22.0638 9.96312 21.9857C5.96932 21.175 2.82519 18.0309 2.0145 14.0371C1.9364 13.6524 2.18499 13.2772 2.56976 13.199Z" fill="#FFFFFF" />
  <path fill-rule="evenodd" clip-rule="evenodd" d="M13.1989 2.56962C13.277 2.18485 13.6523 1.93625 14.037 2.01435C18.0308 2.82498 21.175 5.96907 21.9857 9.96285C22.0638 10.3476 21.8152 10.7228 21.4304 10.801C21.0456 10.8791 20.6704 10.6305 20.5923 10.2457C19.8952 6.81151 17.1884 4.10476 13.7542 3.40771C13.3695 3.32961 13.1208 2.95439 13.1989 2.56962Z" fill="#FFFFFF" />
  <path fill-rule="evenodd" clip-rule="evenodd" d="M21.4304 13.199C21.8152 13.2772 22.0638 13.6524 21.9857 14.0371C21.175 18.0309 18.0308 21.175 14.037 21.9857C13.6523 22.0637 13.277 21.8151 13.1989 21.4304C13.1208 21.0456 13.3695 20.6704 13.7542 20.5923C17.1884 19.8952 19.8952 17.1885 20.5923 13.7543C20.6704 13.3695 21.0456 13.1209 21.4304 13.199Z" fill="#FFFFFF" />
  <path fill-rule="nonzero" clip-rule="nonzero" d="M11.9999 19.5828 C7.81206 19.5828 4.41712 16.1879 4.41712 12 C4.41712 7.81215 7.81206 4.41721 11.9999 4.41721 C16.1878 4.41721 19.5827 7.81215 19.5827 12 C19.5827 16.1879 16.1878 19.5828 11.9999 19.5828 Z M8.94071 14.5387 C8.70692 14.8542 8.77308 15.2994 9.0885 15.5332 C9.90944 16.1417 10.9141 16.5023 11.9999 16.5023 C13.0857 16.5023 14.0904 16.1417 14.9114 15.5332 C15.2268 15.2994 15.2929 14.8542 15.0591 14.5387 C14.8253 14.2233 14.3801 14.1572 14.0647 14.391 C13.4751 14.828 12.7643 15.0805 11.9999 15.0805 C11.2355 15.0805 10.5247 14.828 9.93514 14.391 C9.61973 14.1572 9.17451 14.2233 8.94071 14.5387 Z M15.3174 10.4005 C15.3174 9.71345 14.9461 9.15647 14.488 9.15647 C14.03 9.15647 13.6587 9.71345 13.6587 10.4005 C13.6587 11.0876 14.03 11.6446 14.488 11.6446 C14.9461 11.6446 15.3174 11.0876 15.3174 10.4005 Z M 9.51182 11.6446 C 9.96987 11.6446 10.3412 11.0876 10.3412 10.4005 C 10.3412 9.71345 9.96987 9.15647 9.51182 9.15647 C 9.05377 9.15647 8.68245 9.71345 8.68245 10.4005 C 8.68245 11.0876 9.05377 11.6446 9.51182 11.6446 Z" fill="#FFFFFF" />
</svg>