<svg xmlns="http://www.w3.org/2000/svg" width="24" height="24" viewBox="0 0 24 24" fill="none">
  <path d="M21.9962 13.8093L17.7146 15.5216L17.5089 18.4021L20.7954 19.8106C20.8777 19.8459 20.9504 19.8941 21.0122 19.9519C21.8456 18.6894 21.9759 16.8396 21.9962 13.8093Z" fill="#FFFFFF" />
  <path d="M19.8878 21.0536L17.3958 19.9856L17.263 21.8449C18.3637 21.7166 19.2093 21.4821 19.8878 21.0536Z" fill="#FFFFFF" />
  <path d="M15.7513 21.9562C15.7515 21.953 15.7517 21.9498 15.7519 21.9466L16.2129 15.4925L13.5784 14.4387C12.5652 14.0334 11.4348 14.0334 10.4216 14.4387L7.78712 15.4925L8.24809 21.9466C8.24832 21.9498 8.24853 21.953 8.24872 21.9562C9.30136 22 10.5372 22 12 22C13.4628 22 14.6986 22 15.7513 21.9562Z" fill="#FFFFFF" />
  <path d="M6.73701 21.8449L6.60421 19.9856L4.11222 21.0536C4.79068 21.4821 5.63633 21.7166 6.73701 21.8449Z" fill="#FFFFFF" />
  <path d="M2.98779 19.9519C3.0496 19.8941 3.12231 19.8459 3.20456 19.8106L6.49111 18.4021L6.28537 15.5216L2.00377 13.8093C2.02413 16.8396 2.15438 18.6894 2.98779 19.9519Z" fill="#FFFFFF" />
  <path fill-rule="nonzero" clip-rule="nonzero" d="M3.46447 3.46447 C4.92893 2 7.28595 2 12 2 C16.714 2 19.0711 2 20.5355 3.46447 C22 4.92893 22 7.28595 22 12 L22 12.2498 C21.9072 12.2498 21.8129 12.2671 21.7215 12.3036 L17 14.1918 L14.1355 13.046 C12.7646 12.4977 11.2354 12.4977 9.8645 13.046 L6.99997 14.1918 L2.2785 12.3036 C2.1871 12.2671 2.09277 12.2498 2.00001 12.2498 L2 12 C2 7.28595 2 4.92893 3.46447 3.46447 Z M10 10.5 C10 9.67157 9.55228 9 9 9 C8.44772 9 8 9.67157 8 10.5 C8 11.3284 8.44772 12 9 12 C9.55228 12 10 11.3284 10 10.5 Z M 15 12 C 15.5523 12 16 11.3284 16 10.5 C 16 9.67157 15.5523 9 15 9 C 14.4477 9 14 9.67157 14 10.5 C 14 11.3284 14.4477 12 15 12 Z" fill="#FFFFFF" />
</svg>