<svg xmlns="http://www.w3.org/2000/svg" width="24" height="24" viewBox="0 0 24 24" fill="none">
  <path d="M21.8239 13.8782L17.712 15.5226L17.3321 20.4614C19.6316 19.0093 21.298 16.6457 21.8239 13.8782Z" fill="#FFFFFF" />
  <path d="M15.7657 21.2667L16.21 15.4914L13.5784 14.4387C12.5652 14.0334 11.4348 14.0334 10.4216 14.4387L7.79004 15.4914L8.23427 21.2667C9.39657 21.7395 10.6679 22 12 22C13.3321 22 14.6034 21.7395 15.7657 21.2667Z" fill="#FFFFFF" />
  <path d="M6.66789 20.4614L6.28929 15.5392L2.21174 14.0568C2.77423 16.7473 4.41806 19.0406 6.66789 20.4614Z" fill="#FFFFFF" />
  <path fill-rule="nonzero" clip-rule="nonzero" d="M21.9982 12.193 L17 14.1918 L14.1355 13.046 C12.7646 12.4977 11.2354 12.4977 9.8645 13.046 L6.98724 14.1969 L2.00733 12.3864 C2.00246 12.2582 2 12.1294 2 12 C2 6.47715 6.47715 2 12 2 C17.5228 2 22 6.47715 22 12 C22 12.0645 21.9994 12.1288 21.9982 12.193 Z M16 10.5 C16 9.67157 15.5523 9 15 9 C14.4477 9 14 9.67157 14 10.5 C14 11.3284 14.4477 12 15 12 C15.5523 12 16 11.3284 16 10.5 Z M 9 12 C 9.55228 12 10 11.3284 10 10.5 C 10 9.67157 9.55228 9 9 9 C 8.44772 9 8 9.67157 8 10.5 C 8 11.3284 8.44772 12 9 12 Z" fill="#FFFFFF" />
</svg>