<svg xmlns="http://www.w3.org/2000/svg" width="24" height="24" viewBox="0 0 24 24" fill="none">
  <path fill-rule="nonzero" clip-rule="nonzero" d="M3.46447 3.46447 C4.92893 2 7.28595 2 12 2 C16.714 2 19.0711 2 20.5355 3.46447 C22 4.92893 22 7.28595 22 12 C22 16.714 22 19.0711 20.5355 20.5355 C19.0711 22 16.714 22 12 22 C7.28595 22 4.92893 22 3.46447 20.5355 C2 19.0711 2 16.714 2 12 C2 7.28595 2 4.92893 3.46447 3.46447 Z M 8.39747 17.4466 C 8.64413 17.7794 9.11385 17.8492 9.44661 17.6025 C 10.175 17.0627 11.0541 16.75 12 16.75 C 12.9459 16.75 13.825 17.0627 14.5534 17.6025 C 14.8862 17.8492 15.3559 17.7794 15.6025 17.4466 C 15.8492 17.1138 15.7794 16.6441 15.4466 16.3975 C 14.4742 15.6767 13.285 15.25 12 15.25 C 10.715 15.25 9.5258 15.6767 8.55339 16.3975 C 8.22062 16.6441 8.15082 17.1138 8.39747 17.4466 Z M16 10.5 C16 9.67157 15.5523 9 15 9 C14.4477 9 14 9.67157 14 10.5 C14 11.3284 14.4477 12 15 12 C15.5523 12 16 11.3284 16 10.5 Z M 9 12 C 9.55228 12 10 11.3284 10 10.5 C 10 9.67157 9.55228 9 9 9 C 8.44772 9 8 9.67157 8 10.5 C 8 11.3284 8.44772 12 9 12 Z" fill="#FFFFFF" />
</svg>