<svg xmlns="http://www.w3.org/2000/svg" width="24" height="24" viewBox="0 0 24 24" fill="none">
  <path d="M13 16C13 16.5523 12.5523 17 12 17C11.4477 17 11 16.5523 11 16C11 15.4477 11.4477 15 12 15C12.5523 15 13 15.4477 13 16Z" fill="#FFFFFF" />
  <path fill-rule="nonzero" clip-rule="nonzero" d="M 20.9207 1.40499 C 21.1613 1.58965 21.2671 1.90111 21.1885 2.19412 L 20.1931 5.90926 L 22.0891 4.81459 C 22.4478 4.60748 22.9065 4.73039 23.1136 5.0891 C 23.3207 5.44782 23.1978 5.90652 22.8391 6.11362 L 19.375 8.11362 C 19.1123 8.2653 18.7841 8.24379 18.5434 8.05912 C 18.3028 7.87445 18.197 7.563 18.2756 7.26999 L 19.271 3.55485 L 17.375 4.64952 C 17.0163 4.85663 16.5576 4.73372 16.3505 4.375 C 16.1434 4.01628 16.2663 3.55759 16.625 3.35048 L 20.0891 1.35048 C 20.3518 1.19881 20.68 1.22032 20.9207 1.40499 Z M 12 2.75 C 6.89137 2.75 2.75 6.89137 2.75 12 C 2.75 17.1086 6.89137 21.25 12 21.25 C 17.1086 21.25 21.25 17.1086 21.25 12 C 21.25 11.5858 21.5858 11.25 22 11.25 C 22.4142 11.25 22.75 11.5858 22.75 12 C 22.75 17.9371 17.9371 22.75 12 22.75 C 6.06294 22.75 1.25 17.9371 1.25 12 C 1.25 6.06294 6.06294 1.25 12 1.25 C 12.4142 1.25 12.75 1.58579 12.75 2 C 12.75 2.41422 12.4142 2.75 12 2.75 Z M 13.3983 5.125 C 13.6054 4.76628 14.0641 4.64338 14.4229 4.85048 L 16.1549 5.85048 C 16.4176 6.00216 16.5631 6.29715 16.5235 6.5979 C 16.4839 6.89865 16.267 7.14594 15.974 7.22445 L 14.9909 7.48786 L 15.1549 7.58253 C 15.5136 7.78964 15.6365 8.24833 15.4294 8.60705 C 15.2223 8.96577 14.7636 9.08868 14.4049 8.88157 L 12.6729 7.88157 C 12.4101 7.7299 12.2647 7.43491 12.3043 7.13416 C 12.3439 6.83341 12.5607 6.58612 12.8537 6.50761 L 13.8368 6.24419 L 13.6729 6.14952 C 13.3141 5.94242 13.1912 5.48372 13.3983 5.125 Z M 5.99846 10.4424 C 6.30644 10.1654 6.78064 10.1905 7.05764 10.4985 C 7.52249 11.0153 8.02255 11.25 8.5 11.25 C 8.97745 11.25 9.47751 11.0153 9.94236 10.4985 C 10.2194 10.1905 10.6936 10.1654 11.0015 10.4424 C 11.3095 10.7194 11.3346 11.1936 11.0576 11.5015 C 10.3887 12.2453 9.50979 12.75 8.5 12.75 C 7.49021 12.75 6.61134 12.2453 5.94236 11.5015 C 5.66537 11.1936 5.69049 10.7194 5.99846 10.4424 Z M 12.9985 10.4424 C 13.3064 10.1654 13.7806 10.1905 14.0576 10.4985 C 14.5225 11.0153 15.0225 11.25 15.5 11.25 C 15.9775 11.25 16.4775 11.0153 16.9424 10.4985 C 17.2194 10.1905 17.6936 10.1654 18.0015 10.4424 C 18.3095 10.7194 18.3346 11.1936 18.0576 11.5015 C 17.3887 12.2453 16.5098 12.75 15.5 12.75 C 14.4902 12.75 13.6113 12.2453 12.9424 11.5015 C 12.6654 11.1936 12.6905 10.7194 12.9985 10.4424 Z" fill="#FFFFFF" />
</svg>