<svg xmlns="http://www.w3.org/2000/svg" width="24" height="24" viewBox="0 0 24 24" fill="none">
  <path d="M13 16C13 16.5523 12.5523 17 12 17C11.4477 17 11 16.5523 11 16C11 15.4477 11.4477 15 12 15C12.5523 15 13 15.4477 13 16Z" fill="#FFFFFF" />
  <path fill-rule="nonzero" clip-rule="nonzero" d="M 20.9207 1.40499 C 21.1613 1.58965 21.2671 1.90111 21.1885 2.19412 L 20.1931 5.90926 L 22.0891 4.81459 C 22.4478 4.60748 22.9065 4.73039 23.1136 5.0891 C 23.3207 5.44782 23.1978 5.90652 22.8391 6.11362 L 19.375 8.11362 C 19.1123 8.2653 18.7841 8.24379 18.5434 8.05912 C 18.3028 7.87445 18.197 7.563 18.2756 7.26999 L 19.271 3.55485 L 17.375 4.64952 C 17.0163 4.85663 16.5576 4.73372 16.3505 4.375 C 16.1434 4.01628 16.2663 3.55759 16.625 3.35048 L 20.0891 1.35048 C 20.3518 1.19881 20.68 1.22032 20.9207 1.40499 Z M 11.9426 1.25 L 12 1.25 C 12.4142 1.25 12.75 1.58579 12.75 2 C 12.75 2.41422 12.4142 2.75 12 2.75 C 9.62177 2.75 7.91356 2.7516 6.61358 2.92637 C 5.33517 3.09825 4.56445 3.42514 3.9948 3.9948 C 3.42514 4.56446 3.09825 5.33518 2.92637 6.61358 C 2.75159 7.91356 2.75 9.62178 2.75 12 C 2.75 14.3782 2.75159 16.0864 2.92637 17.3864 C 3.09825 18.6648 3.42514 19.4356 3.9948 20.0052 C 4.56445 20.5749 5.33517 20.9018 6.61358 21.0736 C 7.91356 21.2484 9.62177 21.25 12 21.25 C 14.3782 21.25 16.0864 21.2484 17.3864 21.0736 C 18.6648 20.9018 19.4355 20.5749 20.0052 20.0052 C 20.5749 19.4356 20.9018 18.6648 21.0736 17.3864 C 21.2484 16.0864 21.25 14.3782 21.25 12 C 21.25 11.5858 21.5858 11.25 22 11.25 C 22.4142 11.25 22.75 11.5858 22.75 12 V 12.0574 C 22.75 14.3658 22.75 16.1748 22.5603 17.5863 C 22.366 19.031 21.9607 20.1711 21.0659 21.0659 C 20.1711 21.9607 19.031 22.366 17.5863 22.5603 C 16.1748 22.75 14.3658 22.75 12.0574 22.75 H 11.9426 C 9.63423 22.75 7.82519 22.75 6.41371 22.5603 C 4.96897 22.366 3.82895 21.9607 2.93414 21.0659 C 2.03933 20.1711 1.63399 19.031 1.43975 17.5863 C 1.24998 16.1748 1.24999 14.3658 1.25 12.0574 V 11.9426 C 1.24999 9.63423 1.24998 7.82519 1.43975 6.41371 C 1.63399 4.96897 2.03933 3.82895 2.93414 2.93414 C 3.82895 2.03933 4.96897 1.63399 6.41371 1.43975 C 7.82519 1.24998 9.63423 1.24999 11.9426 1.25 Z M 13.3985 5.12485 C 13.6056 4.76613 14.0643 4.64323 14.423 4.85033 L 16.1551 5.85033 C 16.4178 6.00201 16.5633 6.29699 16.5237 6.59775 C 16.4841 6.8985 16.2672 7.14578 15.9742 7.2243 L 14.9911 7.48771 L 15.1551 7.58238 C 15.5138 7.78949 15.6367 8.24818 15.4296 8.6069 C 15.2225 8.96562 14.7638 9.08853 14.4051 8.88142 L 12.673 7.88142 C 12.4103 7.72975 12.2649 7.43476 12.3045 7.13401 C 12.344 6.83326 12.5609 6.58597 12.8539 6.50746 L 13.837 6.24404 L 13.673 6.14937 C 13.3143 5.94226 13.1914 5.48357 13.3985 5.12485 Z M 5.99846 10.4424 C 6.30644 10.1654 6.78064 10.1905 7.05764 10.4985 C 7.52249 11.0153 8.02255 11.25 8.5 11.25 C 8.97745 11.25 9.47751 11.0153 9.94236 10.4985 C 10.2194 10.1905 10.6936 10.1654 11.0015 10.4424 C 11.3095 10.7194 11.3346 11.1936 11.0576 11.5015 C 10.3887 12.2453 9.50979 12.75 8.5 12.75 C 7.49021 12.75 6.61134 12.2453 5.94236 11.5015 C 5.66537 11.1936 5.69049 10.7194 5.99846 10.4424 Z M 12.9985 10.4424 C 13.3064 10.1654 13.7806 10.1905 14.0576 10.4985 C 14.5225 11.0153 15.0225 11.25 15.5 11.25 C 15.9775 11.25 16.4775 11.0153 16.9424 10.4985 C 17.2194 10.1905 17.6936 10.1654 18.0015 10.4424 C 18.3095 10.7194 18.3346 11.1936 18.0576 11.5015 C 17.3887 12.2453 16.5098 12.75 15.5 12.75 C 14.4902 12.75 13.6113 12.2453 12.9424 11.5015 C 12.6654 11.1936 12.6905 10.7194 12.9985 10.4424 Z" fill="#FFFFFF" />
</svg>