<svg xmlns="http://www.w3.org/2000/svg" width="24" height="24" viewBox="0 0 24 24" fill="none">
  <path fill-rule="nonzero" clip-rule="nonzero" d="M 12 2.75 C 6.89137 2.75 2.75 6.89137 2.75 12 C 2.75 17.1086 6.89137 21.25 12 21.25 C 17.1086 21.25 21.25 17.1086 21.25 12 C 21.25 6.89137 17.1086 2.75 12 2.75 Z M 1.25 12 C 1.25 6.06294 6.06294 1.25 12 1.25 C 17.9371 1.25 22.75 6.06294 22.75 12 C 22.75 17.9371 17.9371 22.75 12 22.75 C 6.06294 22.75 1.25 17.9371 1.25 12 Z M 8.39747 15.5534 C 8.64413 15.2206 9.11385 15.1508 9.44661 15.3975 C 10.175 15.9373 11.0541 16.25 12 16.25 C 12.9459 16.25 13.825 15.9373 14.5534 15.3975 C 14.8862 15.1508 15.3559 15.2206 15.6025 15.5534 C 15.8492 15.8862 15.7794 16.3559 15.4466 16.6025 C 14.4742 17.3233 13.285 17.75 12 17.75 C 10.715 17.75 9.5258 17.3233 8.55339 16.6025 C 8.22062 16.3559 8.15082 15.8862 8.39747 15.5534 Z" fill="#FFFFFF" />
  <path d="M16 10.5C16 11.3284 15.5523 12 15 12C14.4477 12 14 11.3284 14 10.5C14 9.67157 14.4477 9 15 9C15.5523 9 16 9.67157 16 10.5Z" fill="#FFFFFF" />
  <path d="M10 10.5C10 11.3284 9.55229 12 9 12C8.44772 12 8 11.3284 8 10.5C8 9.67157 8.44772 9 9 9C9.55229 9 10 9.67157 10 10.5Z" fill="#FFFFFF" />
</svg>