<svg xmlns="http://www.w3.org/2000/svg" width="24" height="24" viewBox="0 0 24 24" fill="none">
  <path fill-rule="nonzero" clip-rule="nonzero" d="M3.46447 3.46447 C4.92893 2 7.28595 2 12 2 C16.714 2 19.0711 2 20.5355 3.46447 C22 4.92893 22 7.28595 22 12 C22 16.714 22 19.0711 20.5355 20.5355 C19.0711 22 16.714 22 12 22 C7.28595 22 4.92893 22 3.46447 20.5355 C2 19.0711 2 16.714 2 12 C2 7.28595 2 4.92893 3.46447 3.46447 Z M 15 12 C 15.5523 12 16 11.3284 16 10.5 C 16 9.67157 15.5523 9 15 9 C 14.4477 9 14 9.67157 14 10.5 C 14 11.3284 14.4477 12 15 12 Z M10 10.5 C10 9.67157 9.55228 9 9 9 C8.44772 9 8 9.67157 8 10.5 C8 11.3284 8.44772 12 9 12 C9.55228 12 10 11.3284 10 10.5 Z M8.39747 15.5534 C8.15082 15.8862 8.22062 16.3559 8.55339 16.6025 C9.5258 17.3233 10.715 17.75 12 17.75 C13.285 17.75 14.4742 17.3233 15.4466 16.6025 C15.7794 16.3559 15.8492 15.8862 15.6025 15.5534 C15.3559 15.2206 14.8862 15.1508 14.5534 15.3975 C13.825 15.9373 12.9459 16.25 12 16.25 C11.0541 16.25 10.175 15.9373 9.44661 15.3975 C9.11385 15.1508 8.64413 15.2206 8.39747 15.5534 Z" fill="#FFFFFF" />
</svg>