<svg xmlns="http://www.w3.org/2000/svg" width="24" height="24" viewBox="0 0 24 24" fill="none">
  <path d="M16 10.5C16 11.3284 15.5523 12 15 12C14.4477 12 14 11.3284 14 10.5C14 9.67157 14.4477 9 15 9C15.5523 9 16 9.67157 16 10.5Z" fill="#FFFFFF" />
  <path d="M10 10.5C10 11.3284 9.55229 12 9 12C8.44772 12 8 11.3284 8 10.5C8 9.67157 8.44772 9 9 9C9.55229 9 10 9.67157 10 10.5Z" fill="#FFFFFF" />
  <path fill-rule="nonzero" clip-rule="nonzero" d="M 11.9426 1.25 H 12.0574 C 14.3658 1.24999 16.1748 1.24998 17.5863 1.43975 C 19.031 1.63399 20.1711 2.03933 21.0659 2.93414 C 21.9607 3.82895 22.366 4.96897 22.5603 6.41371 C 22.75 7.82519 22.75 9.63423 22.75 11.9426 V 15 C 22.75 19.2802 19.2802 22.75 15 22.75 H 11.9426 C 9.63423 22.75 7.82519 22.75 6.41371 22.5603 C 4.96897 22.366 3.82895 21.9607 2.93414 21.0659 C 2.03933 20.1711 1.63399 19.031 1.43975 17.5863 C 1.24998 16.1748 1.24999 14.3658 1.25 12.0574 V 11.9426 C 1.24999 9.63423 1.24998 7.82519 1.43975 6.41371 C 1.63399 4.96897 2.03933 3.82895 2.93414 2.93414 C 3.82895 2.03933 4.96897 1.63399 6.41371 1.43975 C 7.82519 1.24998 9.63423 1.24999 11.9426 1.25 Z M 6.61358 2.92637 C 5.33517 3.09825 4.56445 3.42514 3.9948 3.9948 C 3.42514 4.56445 3.09825 5.33517 2.92637 6.61358 C 2.75159 7.91356 2.75 9.62177 2.75 12 C 2.75 14.3782 2.75159 16.0864 2.92637 17.3864 C 3.09825 18.6648 3.42514 19.4355 3.9948 20.0052 C 4.56445 20.5749 5.33517 20.9018 6.61358 21.0736 C 7.91356 21.2484 9.62177 21.25 12 21.25 H 14.2504 C 14.2538 19.8837 14.2835 18.9862 14.5314 18.2232 C 14.7065 17.6845 14.9576 17.1816 15.2724 16.7269 C 14.3337 17.3721 13.2092 17.75 12 17.75 C 10.715 17.75 9.5258 17.3233 8.55339 16.6025 C 8.22062 16.3559 8.15082 15.8862 8.39747 15.5534 C 8.64413 15.2206 9.11385 15.1508 9.44661 15.3975 C 10.175 15.9373 11.0541 16.25 12 16.25 C 12.9459 16.25 13.825 15.9373 14.5534 15.3975 C 14.8862 15.1508 15.3559 15.2206 15.6025 15.5534 C 15.7327 15.7291 15.7748 15.9429 15.7365 16.1419 C 16.4015 15.4071 17.2544 14.8462 18.2232 14.5314 C 18.9862 14.2835 19.8837 14.2538 21.25 14.2504 V 12 C 21.25 9.62177 21.2484 7.91356 21.0736 6.61358 C 20.9018 5.33517 20.5749 4.56445 20.0052 3.9948 C 19.4355 3.42514 18.6648 3.09825 17.3864 2.92637 C 16.0864 2.75159 14.3782 2.75 12 2.75 C 9.62177 2.75 7.91356 2.75159 6.61358 2.92637 Z M 21.2053 15.7513 C 19.8482 15.7571 19.2061 15.7892 18.6867 15.958 C 17.3928 16.3784 16.3784 17.3928 15.958 18.6867 C 15.7892 19.2061 15.7571 19.8482 15.7513 21.2053 C 18.6025 20.8637 20.8637 18.6025 21.2053 15.7513 Z" fill="#FFFFFF" />
</svg>