<svg xmlns="http://www.w3.org/2000/svg" width="24" height="24" viewBox="0 0 24 24" fill="none">
  <path d="M15.4754 9.51572C15.6898 10.3159 15.4311 11.0805 14.8977 11.2234C14.3642 11.3664 13.7579 10.8336 13.5435 10.0334C13.3291 9.23316 13.5877 8.4686 14.1212 8.32565C14.6547 8.18271 15.2609 8.71552 15.4754 9.51572Z" fill="#FFFFFF" />
  <path d="M9.67994 11.0687C9.89436 11.8689 9.63571 12.6335 9.10225 12.7764C8.56878 12.9194 7.9625 12.3865 7.74809 11.5863C7.53368 10.7861 7.79232 10.0216 8.32579 9.87863C8.85925 9.73569 9.46553 10.2685 9.67994 11.0687Z" fill="#FFFFFF" />
  <path fill-rule="nonzero" clip-rule="nonzero" d="M 12 2.75 C 6.89137 2.75 2.75 6.89137 2.75 12 C 2.75 16.8562 6.49219 20.8383 11.2501 21.22 C 11.2521 19.2445 11.2763 17.9436 11.5515 16.8809 C 10.5717 16.9615 9.61622 16.8827 8.73026 16.6606 C 8.32847 16.5599 8.0844 16.1526 8.1851 15.7508 C 8.2858 15.349 8.69315 15.1049 9.09494 15.2056 C 10.0235 15.4383 11.0656 15.4824 12.1396 15.2945 C 12.1589 15.2911 12.1782 15.2885 12.1975 15.2866 C 13.1098 13.6152 14.6151 12.3236 16.4403 11.6849 C 17.587 11.2837 18.9634 11.2524 21.22 11.2501 C 20.8383 6.49219 16.8562 2.75 12 2.75 Z M 21.1392 12.7508 C 18.8834 12.756 17.804 12.7969 16.9358 13.1007 C 15.1405 13.7289 13.7289 15.1405 13.1007 16.9358 C 12.7969 17.804 12.756 18.8834 12.7508 21.1392 L 21.1392 12.7508 Z M 1.25 12 C 1.25 6.06294 6.06294 1.25 12 1.25 C 17.9371 1.25 22.75 6.06294 22.75 12 C 22.75 12.3623 22.7321 12.7206 22.697 13.0741 L 22.6705 13.3408 L 13.3408 22.6705 L 13.0741 22.697 C 12.7206 22.7321 12.3623 22.75 12 22.75 C 6.06294 22.75 1.25 17.9371 1.25 12 Z" fill="#FFFFFF" />
</svg>