<svg xmlns="http://www.w3.org/2000/svg" width="24" height="24" viewBox="0 0 24 24" fill="none">
  <path fill-rule="nonzero" clip-rule="nonzero" d="M 12 2.75 C 6.89137 2.75 2.75 6.89137 2.75 12 C 2.75 16.8562 6.49219 20.8383 11.2501 21.22 C 11.2524 18.9634 11.2837 17.587 11.6849 16.4403 C 12.4639 14.2142 14.2142 12.4639 16.4403 11.6849 C 17.587 11.2837 18.9634 11.2524 21.22 11.2501 C 20.8383 6.49219 16.8562 2.75 12 2.75 Z M 21.0404 12.751 C 18.8516 12.7573 17.7912 12.8014 16.9358 13.1007 C 15.1405 13.7289 13.7289 15.1405 13.1007 16.9358 C 12.8014 17.7912 12.7573 18.8516 12.751 21.0404 C 12.9011 20.9552 13.045 20.845 13.1779 20.712 L 20.712 13.1779 C 20.845 13.045 20.9552 12.9011 21.0404 12.751 Z M 1.25 12 C 1.25 6.06294 6.06294 1.25 12 1.25 C 17.9371 1.25 22.75 6.06294 22.75 12 C 22.75 12.8843 22.3423 13.669 21.7727 14.2386 L 14.2386 21.7727 C 13.669 22.3423 12.8843 22.75 12 22.75 C 6.06294 22.75 1.25 17.9371 1.25 12 Z" fill="#FFFFFF" />
</svg>