<svg xmlns="http://www.w3.org/2000/svg" width="24" height="24" viewBox="0 0 24 24" fill="none">
  <path fill-rule="evenodd" clip-rule="evenodd" d="M16.5 21.8389C16.4873 21.8417 16.4745 21.8444 16.4617 21.8472L16.4582 21.8479C16.4424 21.8512 16.4266 21.8545 16.4107 21.8578L16.4092 21.8581C16.4256 21.8548 16.4419 21.8514 16.4582 21.8479C16.4722 21.8449 16.4861 21.8419 16.5 21.8389Z" fill="#FFFFFF" />
  <path d="M22 15C21.4162 15 20.9239 15 20.5 15.0076C19.5724 15.0241 18.9718 15.0768 18.4549 15.2447C16.9327 15.7393 15.7393 16.9327 15.2447 18.4549C15.0768 18.9718 15.0241 19.5724 15.0076 20.5C15 20.9239 15 21.4162 15 22C15.4827 22 15.954 21.9511 16.4092 21.8581L16.4107 21.8578L16.4582 21.8479L16.4617 21.8472L16.5 21.8389C19.162 21.2577 21.2577 19.162 21.8389 16.5C21.9444 16.0168 22 15.5149 22 15Z" fill="#FFFFFF" />
  <path fill-rule="nonzero" clip-rule="nonzero" d="M2 12 C2 7.28595 2 4.92893 3.46447 3.46447 C4.92893 2 7.28595 2 12 2 C16.714 2 19.0711 2 20.5355 3.46447 C22 4.92893 22 7.28595 22 12 L22 13.5 L21.7409 13.4999 C20.1325 13.499 18.9754 13.4984 17.9914 13.8181 C17.012 14.1364 16.1372 14.6772 15.4255 15.3822 C15.1688 15.2053 14.8179 15.2015 14.5534 15.3975 C13.8251 15.9374 12.9459 16.25 12 16.25 C11.0541 16.25 10.175 15.9374 9.44666 15.3975 C9.11389 15.1509 8.64418 15.2207 8.39752 15.5534 C8.15086 15.8862 8.22067 16.3559 8.55343 16.6026 C9.52585 17.3234 10.7151 17.75 12 17.75 C12.723 17.75 13.4157 17.615 14.0565 17.3684 C13.9669 17.5708 13.8873 17.7786 13.8181 17.9914 C13.4984 18.9754 13.499 20.1325 13.4999 21.7409 L13.5 22 L12 22 C7.28595 22 4.92893 22 3.46447 20.5355 C2 19.0711 2 16.714 2 12 Z M 15 12 C 15.5523 12 16 11.3284 16 10.5 C 16 9.67157 15.5523 9 15 9 C 14.4477 9 14 9.67157 14 10.5 C 14 11.3284 14.4477 12 15 12 Z M 9 12 C 9.55228 12 10 11.3284 10 10.5 C 10 9.67157 9.55228 9 9 9 C 8.44772 9 8 9.67157 8 10.5 C 8 11.3284 8.44772 12 9 12 Z" fill="#FFFFFF" />
</svg>