<svg xmlns="http://www.w3.org/2000/svg" width="24" height="24" viewBox="0 0 24 24" fill="none">
  <path d="M21.2424 13.7083L13.7083 21.2424C13.6419 21.3087 13.5725 21.3718 13.5004 21.431C13.448 21.4741 13.3943 21.5151 13.3392 21.554C12.9462 21.8314 12.4858 22 12 22C12 21.4484 12 20.9513 12.003 20.5C12.0153 18.6662 12.0776 17.5889 12.3928 16.688C13.0964 14.6773 14.6773 13.0964 16.688 12.3928C17.5889 12.0776 18.6662 12.0153 20.5 12.003C20.9513 12 21.4484 12 22 12C22 12.4858 21.8314 12.9462 21.554 13.3392C21.5151 13.3943 21.4741 13.448 21.431 13.5004C21.3718 13.5725 21.3087 13.6419 21.2424 13.7083Z" fill="#FFFFFF" />
  <path fill-rule="nonzero" clip-rule="nonzero" d="M12 2 C16.7058 2 20.6524 5.2504 21.7171 9.62855 C21.8276 10.0829 21.4676 10.5 21 10.5 C18.5105 10.4992 17.5598 10.4986 16.1926 10.977 C16.1022 11.0086 16.0125 11.0417 15.9235 11.0763 C15.9728 10.8988 16 10.7042 16 10.5 C16 9.67157 15.5523 9 15 9 C14.4477 9 14 9.67157 14 10.5 C14 11.0509 14.198 11.5324 14.493 11.7932 C12.8891 12.7963 11.6495 14.317 10.9991 16.1302 C10.435 15.9927 9.91023 15.7411 9.44661 15.3975 C9.11385 15.1508 8.64413 15.2206 8.39747 15.5534 C8.15082 15.8862 8.22062 16.3559 8.55339 16.6025 C9.17479 17.0631 9.88473 17.4036 10.6516 17.5894 C10.499 18.6806 10.4995 19.298 10.5 21 C10.5 21.4676 10.0829 21.8276 9.62855 21.7171 C5.2504 20.6524 2 16.7058 2 12 C2 6.47715 6.47715 2 12 2 Z M 9 12 C 9.55228 12 10 11.3284 10 10.5 C 10 9.67157 9.55228 9 9 9 C 8.44772 9 8 9.67157 8 10.5 C 8 11.3284 8.44772 12 9 12 Z" fill="#FFFFFF" />
</svg>