<svg xmlns="http://www.w3.org/2000/svg" width="24" height="24" viewBox="0 0 24 24" fill="none">
  <path fill-rule="nonzero" clip-rule="nonzero" d="M 12.0001 2.75 C 10.7575 2.75 9.75012 3.75736 9.75012 5 V 5.25988 C 10.3072 5.24999 10.9184 5.24999 11.5893 5.25 H 12.411 C 13.0818 5.24999 13.693 5.24999 14.2501 5.25988 V 5 C 14.2501 3.75736 13.2428 2.75 12.0001 2.75 Z M15.7501 5.32793 C15.8928 5.34021 16.0308 5.35444 16.164 5.3709 C17.174 5.49569 18.0066 5.75783 18.7139 6.34483 C19.4212 6.93183 19.8323 7.70188 20.1411 8.67156 C20.4403 9.61129 20.6668 10.8194 20.9516 12.3381 L20.9723 12.4484 C21.3741 14.5912 21.6907 16.2799 21.7488 17.6112 C21.8084 18.9758 21.6054 20.106 20.8356 21.0335 C20.0658 21.961 18.9924 22.3689 17.6402 22.5618 C16.321 22.75 14.6028 22.75 12.4227 22.75 L11.5776 22.75 C9.3974 22.75 7.67927 22.75 6.36004 22.5618 C5.00785 22.3689 3.93443 21.961 3.16465 21.0335 C2.39488 20.106 2.19187 18.9758 2.25143 17.6112 C2.30954 16.2799 2.62618 14.5912 3.02798 12.4484 L3.04866 12.3381 C3.33339 10.8194 3.55991 9.61128 3.85914 8.67156 C4.16792 7.70188 4.57901 6.93183 5.2863 6.34483 C5.9936 5.75783 6.82622 5.49569 7.83619 5.3709 C7.96947 5.35444 8.10739 5.34021 8.25012 5.32793 L8.25012 5 C8.25012 2.92893 9.92905 1.25 12.0001 1.25 C14.0712 1.25 15.7501 2.92893 15.7501 5 L15.7501 5.32793 Z M 8.02012 6.85959 C 7.16458 6.96529 6.64786 7.16413 6.24426 7.49909 C 5.84065 7.83406 5.54999 8.30528 5.28843 9.12669 C 5.02057 9.96788 4.80982 11.0846 4.5137 12.6639 C 4.09798 14.8811 3.8029 16.4647 3.75 17.6766 C 3.69801 18.8679 3.88907 19.5576 4.31892 20.0756 C 4.74876 20.5935 5.39151 20.9084 6.57193 21.0768 C 7.77284 21.2482 9.38371 21.25 11.6395 21.25 H 12.3607 C 14.6165 21.25 16.2274 21.2482 17.4283 21.0768 C 18.6087 20.9084 19.2515 20.5935 19.6813 20.0756 C 20.1112 19.5576 20.3022 18.8679 20.2502 17.6766 C 20.1973 16.4647 19.9023 14.8811 19.4865 12.6639 C 19.1904 11.0846 18.9797 9.96788 18.7118 9.12669 C 18.4502 8.30528 18.1596 7.83406 17.756 7.49909 C 17.3524 7.16413 16.8357 6.96529 15.9801 6.85959 C 15.104 6.75133 13.9675 6.75 12.3607 6.75 H 11.6395 C 10.0327 6.75 8.89627 6.75133 8.02012 6.85959 Z M 9.12342 10.2602 C 9.53199 10.3283 9.80801 10.7147 9.73991 11.1233 L 8.73991 17.1233 C 8.67182 17.5319 8.2854 17.8079 7.87682 17.7398 C 7.46824 17.6717 7.19222 17.2853 7.26032 16.8767 L 8.26032 10.8767 C 8.32842 10.4681 8.71484 10.1921 9.12342 10.2602 Z M 14.8768 10.2602 C 15.2854 10.1921 15.6718 10.4681 15.7399 10.8767 L 16.7399 16.8767 C 16.808 17.2853 16.532 17.6717 16.1234 17.7398 C 15.7148 17.8079 15.3284 17.5319 15.2603 17.1233 L 14.2603 11.1233 C 14.1922 10.7147 14.4682 10.3283 14.8768 10.2602 Z" fill="#FFFFFF" />
</svg>