<svg xmlns="http://www.w3.org/2000/svg" width="24" height="24" viewBox="0 0 24 24" fill="none">
  <path fill-rule="nonzero" clip-rule="nonzero" d="M 8.25014 6.01489 C 8.25005 6.00994 8.25 6.00498 8.25 6 V 5 C 8.25 2.92893 9.92893 1.25 12 1.25 C 14.0711 1.25 15.75 2.92893 15.75 5 V 6 C 15.75 6.00498 15.75 6.00994 15.7499 6.0149 C 17.0371 6.05353 17.8248 6.1924 18.4261 6.69147 C 19.2593 7.38295 19.4787 8.55339 19.9177 10.8943 L 20.6677 14.8943 C 21.2849 18.186 21.5934 19.8318 20.6937 20.9159 C 19.794 22 18.1195 22 14.7704 22 H 9.22954 C 5.88048 22 4.20595 22 3.30624 20.9159 C 2.40652 19.8318 2.71512 18.186 3.33231 14.8943 L 4.08231 10.8943 C 4.52122 8.55339 4.74068 7.38295 5.57386 6.69147 C 6.17521 6.19239 6.96288 6.05353 8.25014 6.01489 Z M9.75 5 L9.75 6.00002 C9.75 6.00003 9.75 6.00002 9.75 6.00002 C9.82526 6 9.90177 6 9.97954 6 L14.0204 6 C14.0982 6 14.1747 5.99998 14.25 6 C14.25 6.00001 14.25 5.99999 14.25 6 L14.25 5 C14.25 3.75736 13.2426 2.75 12 2.75 C10.7574 2.75 9.75 3.75736 9.75 5 Z M 15.7399 10.8768 C 15.6718 10.4682 15.2854 10.1922 14.8768 10.2603 C 14.4682 10.3284 14.1922 10.7148 14.2603 11.1234 L 15.2603 17.1234 C 15.3284 17.532 15.7148 17.808 16.1234 17.7399 C 16.532 17.6718 16.808 17.2854 16.7399 16.8768 L 15.7399 10.8768 Z M 9.12317 10.2603 C 8.71459 10.1922 8.32817 10.4682 8.26007 10.8768 L 7.26007 16.8768 C 7.19198 17.2854 7.46799 17.6718 7.87657 17.7399 C 8.28515 17.808 8.67157 17.532 8.73966 17.1234 L 9.73966 11.1234 C 9.80776 10.7148 9.53174 10.3284 9.12317 10.2603 Z" fill="#FFFFFF" />
</svg>