<svg xmlns="http://www.w3.org/2000/svg" width="24" height="24" viewBox="0 0 24 24" fill="none">
  <path fill-rule="nonzero" clip-rule="nonzero" d="M 8.9211 7.29287 C 9.31164 7.15483 9.74013 7.35953 9.87817 7.75007 C 10.1874 8.62497 11.0218 9.25 12.0003 9.25 C 12.9788 9.25 13.8133 8.62497 14.1225 7.75007 C 14.2605 7.35953 14.689 7.15483 15.0796 7.29287 C 15.4701 7.43091 15.6748 7.8594 15.5368 8.24993 C 15.0223 9.70541 13.6343 10.75 12.0003 10.75 C 10.3664 10.75 8.97835 9.70541 8.46391 8.24993 C 8.32587 7.8594 8.53057 7.43091 8.9211 7.29287 Z M 12.3607 5.5 H 11.6395 C 10.0137 5.5 8.93165 5.50267 8.11211 5.60393 C 7.33378 5.70009 6.97502 5.86728 6.72326 6.07623 C 6.47149 6.28517 6.24105 6.60698 6.00309 7.35425 C 5.75254 8.14109 5.5505 9.20417 5.25088 10.8021 C 4.8309 13.042 4.54933 14.5634 4.49931 15.7093 C 4.4511 16.8139 4.63619 17.2835 4.89607 17.5966 C 5.15595 17.9097 5.58337 18.1782 6.67789 18.3344 C 7.81341 18.4964 9.36063 18.5 11.6395 18.5 H 12.3607 C 14.6397 18.5 16.1869 18.4964 17.3224 18.3344 C 18.4169 18.1782 18.8443 17.9097 19.1042 17.5966 C 19.3641 17.2835 19.5492 16.8139 19.501 15.7093 C 19.451 14.5634 19.1694 13.042 18.7494 10.8021 C 18.4498 9.20417 18.2477 8.14109 17.9972 7.35425 C 17.7592 6.60698 17.5288 6.28517 17.277 6.07623 C 17.0253 5.86728 16.6665 5.70009 15.8882 5.60393 C 15.0686 5.50267 13.9865 5.5 12.3607 5.5 Z M5.7653 4.92196 C6.8762 4 8.46398 4 11.6395 4 L12.3607 4 C15.5363 4 17.1241 4 18.235 4.92196 C19.3459 5.84393 19.6385 7.40452 20.2237 10.5257 C21.0466 14.9146 21.4581 17.1091 20.2585 18.5545 C19.0588 20 16.8261 20 12.3607 20 L11.6395 20 C7.17414 20 4.94143 20 3.74181 18.5545 C2.54219 17.1091 2.95365 14.9146 3.77657 10.5257 C4.36179 7.40452 4.65441 5.84393 5.7653 4.92196 Z" fill="#FFFFFF" />
</svg>