<svg xmlns="http://www.w3.org/2000/svg" width="24" height="24" viewBox="0 0 24 24" fill="none">
  <path fill-rule="nonzero" clip-rule="nonzero" d="M5.57386 4.69147 C6.40703 4 7.59787 4 9.97954 4 L14.0204 4 C16.4021 4 17.5929 4 18.4261 4.69147 C19.2593 5.38295 19.4787 6.55339 19.9177 8.89427 L20.6677 12.8943 C21.2849 16.186 21.5934 17.8318 20.6937 18.9159 C19.794 20 18.1195 20 14.7704 20 L9.22954 20 C5.88048 20 4.20595 20 3.30624 18.9159 C2.40652 17.8318 2.71512 16.186 3.33231 12.8943 L4.08231 8.89427 C4.52122 6.55339 4.74068 5.38295 5.57386 4.69147 Z M9.87822 7.75007 C9.74018 7.35953 9.31169 7.15483 8.92115 7.29287 C8.53061 7.43091 8.32592 7.8594 8.46396 8.24993 C8.97839 9.70541 10.3664 10.75 12.0004 10.75 C13.6343 10.75 15.0224 9.70541 15.5368 8.24993 C15.6748 7.8594 15.4701 7.43091 15.0796 7.29287 C14.6891 7.15483 14.2606 7.35953 14.1225 7.75007 C13.8133 8.62497 12.9789 9.25 12.0004 9.25 C11.0219 9.25 10.1875 8.62497 9.87822 7.75007 Z" fill="#FFFFFF" />
</svg>