<svg xmlns="http://www.w3.org/2000/svg" width="24" height="24" viewBox="0 0 24 24" fill="none">
  <path d="M16.0001 9C16.0001 9.55229 15.5523 10 15.0001 10C14.4478 10 14.0001 9.55229 14.0001 9C14.0001 8.44772 14.4478 8 15.0001 8C15.5523 8 16.0001 8.44772 16.0001 9Z" fill="#FFFFFF" />
  <path d="M10.0001 9C10.0001 9.55229 9.55235 10 9.00006 10C8.44778 10 8.00006 9.55229 8.00006 9C8.00006 8.44772 8.44778 8 9.00006 8C9.55235 8 10.0001 8.44772 10.0001 9Z" fill="#FFFFFF" />
  <path fill-rule="nonzero" clip-rule="nonzero" d="M 12.0001 2.75 C 10.7574 2.75 9.75006 3.75736 9.75006 5 V 5.25447 C 10.1676 5.24999 10.6183 5.25 11.1053 5.25 H 12.8948 C 13.3819 5.25 13.8326 5.24999 14.2501 5.25447 V 5 C 14.2501 3.75736 13.2427 2.75 12.0001 2.75 Z M15.7501 5.30694 C15.8851 5.31679 16.0153 5.32834 16.1411 5.34189 C17.0194 5.43657 17.754 5.63489 18.4063 6.08197 C18.6306 6.23574 18.8414 6.40849 19.0361 6.59833 C19.6025 7.15027 19.941 7.83166 20.2061 8.67439 C20.4635 9.49259 20.6715 10.5327 20.9328 11.8396 L20.9519 11.9351 C21.3286 13.8182 21.6254 15.3021 21.7106 16.484 C21.7977 17.6916 21.676 18.7075 21.1039 19.588 C20.9131 19.8817 20.6903 20.1534 20.4397 20.3982 C19.6886 21.1318 18.7162 21.4504 17.5149 21.6018 C16.3393 21.75 14.826 21.75 12.9055 21.75 L11.0946 21.75 C9.17418 21.75 7.66087 21.75 6.48518 21.6018 C5.28392 21.4504 4.31157 21.1318 3.56044 20.3982 C3.30982 20.1534 3.08705 19.8817 2.89619 19.588 C2.32415 18.7075 2.20244 17.6916 2.28954 16.484 C2.37478 15.302 2.67158 13.8181 3.04822 11.935 L3.06729 11.8396 C3.32867 10.5327 3.53667 9.49258 3.79405 8.67439 C4.05914 7.83166 4.39766 7.15027 4.96399 6.59833 C5.15877 6.40849 5.3695 6.23574 5.59385 6.08197 C6.24614 5.63489 6.98068 5.43657 7.85904 5.34189 C7.98479 5.32834 8.11506 5.31679 8.25006 5.30694 L8.25006 5 C8.25006 2.92893 9.929 1.25 12.0001 1.25 C14.0711 1.25 15.7501 2.92893 15.7501 5 L15.7501 5.30694 Z M 8.01978 6.83326 C 7.27307 6.91374 6.81176 7.06572 6.44188 7.31924 C 6.28838 7.42445 6.1442 7.54265 6.01093 7.67254 C 5.68979 7.98552 5.45028 8.40807 5.22492 9.12449 C 4.99463 9.85661 4.80147 10.8172 4.52967 12.1762 C 4.14013 14.1239 3.8633 15.5153 3.78565 16.5919 C 3.70906 17.6538 3.83838 18.2849 4.15401 18.7707 C 4.2846 18.9717 4.43702 19.1576 4.60849 19.3251 C 5.02293 19.7298 5.61646 19.9804 6.67278 20.1136 C 7.74368 20.2486 9.1623 20.25 11.1486 20.25 H 12.8515 C 14.8378 20.25 16.2564 20.2486 17.3273 20.1136 C 18.3837 19.9804 18.9772 19.7298 19.3916 19.3251 C 19.5631 19.1576 19.7155 18.9717 19.8461 18.7707 C 20.1617 18.2849 20.2911 17.6538 20.2145 16.5919 C 20.1368 15.5153 19.86 14.1239 19.4705 12.1762 C 19.1987 10.8173 19.0055 9.85661 18.7752 9.12449 C 18.5498 8.40807 18.3103 7.98552 17.9892 7.67254 C 17.8559 7.54265 17.7118 7.42445 17.5582 7.31924 C 17.1884 7.06572 16.7271 6.91374 15.9803 6.83326 C 15.2173 6.75101 14.2374 6.75 12.8515 6.75 H 11.1486 C 9.76271 6.75 8.78285 6.75101 8.01978 6.83326 Z" fill="#FFFFFF" />
</svg>