<svg xmlns="http://www.w3.org/2000/svg" width="24" height="24" viewBox="0 0 24 24" fill="none">
  <path fill-rule="nonzero" clip-rule="nonzero" d="M 8.25012 7.01346 C 8.25004 7.00898 8.25 7.00449 8.25 7 V 6 C 8.25 3.92893 9.92893 2.25 12 2.25 C 14.0711 2.25 15.75 3.92893 15.75 6 V 7 C 15.75 7.0045 15.75 7.00898 15.7499 7.01346 C 17.0472 7.04975 17.8375 7.18393 18.4425 7.67997 C 19.272 8.35995 19.5029 9.5144 19.9646 11.8233 L 20.5646 14.8233 C 21.2287 18.1437 21.5608 19.8039 20.6606 20.902 C 19.7604 22 18.0673 22 14.6812 22 H 9.3188 C 5.93262 22 4.23954 22 3.33936 20.902 C 2.43919 19.8039 2.77123 18.1437 3.43532 14.8233 L 4.03532 11.8233 C 4.4971 9.5144 4.72799 8.35995 5.55742 7.67997 C 6.16251 7.18392 6.95273 7.04975 8.25012 7.01346 Z M9.75 6 L9.75 7.00001 C9.75 7.00001 9.75 7.00001 9.75 7.00001 C9.80559 7 9.86185 7 9.9188 7 L14.0812 7 C14.1381 7 14.1944 6.99999 14.25 7 C14.25 7 14.25 7 14.25 7 L14.25 6 C14.25 4.75736 13.2426 3.75 12 3.75 C10.7574 3.75 9.75 4.75736 9.75 6 Z M 15 11 C 15.5523 11 16 10.5523 16 10 C 16 9.44772 15.5523 9 15 9 C 14.4477 9 14 9.44772 14 10 C 14 10.5523 14.4477 11 15 11 Z M9.99998 10 C9.99998 9.44772 9.55226 9 8.99998 9 C8.44769 9 7.99998 9.44772 7.99998 10 C7.99998 10.5523 8.44769 11 8.99998 11 C9.55226 11 9.99998 10.5523 9.99998 10 Z" fill="#FFFFFF" />
</svg>