<svg xmlns="http://www.w3.org/2000/svg" width="24" height="24" viewBox="0 0 24 24" fill="none">
  <path d="M15 11C15.5523 11 16 10.5523 16 10C16 9.44771 15.5523 9 15 9C14.4477 9 14 9.44771 14 10C14 10.5523 14.4477 11 15 11Z" fill="#FFFFFF" />
  <path d="M10 10C10 10.5523 9.55228 11 9 11C8.44771 11 8 10.5523 8 10C8 9.44771 8.44771 9 9 9C9.55228 9 10 9.44771 10 10Z" fill="#FFFFFF" />
  <path fill-rule="nonzero" clip-rule="nonzero" d="M 8.25 5.27567 V 5 C 8.25 2.92893 9.92893 1.25 12 1.25 C 14.0711 1.25 15.75 2.92893 15.75 5 V 5.27567 C 16.4084 5.29605 16.9947 5.33261 17.5149 5.39818 C 18.7162 5.54961 19.6886 5.8682 20.4397 6.6018 C 20.6903 6.84656 20.9131 7.1183 21.1039 7.41205 C 21.676 8.29247 21.7977 9.30842 21.7106 10.516 C 21.6254 11.6979 21.3286 13.1818 20.952 15.0648 L 20.9328 15.1604 C 20.6715 16.4673 20.4635 17.5074 20.2061 18.3256 C 19.941 19.1683 19.6025 19.8497 19.0361 20.4017 C 18.8414 20.5915 18.6306 20.7643 18.4063 20.918 C 17.754 21.3651 17.0194 21.5634 16.1411 21.6581 C 15.2883 21.75 14.2276 21.75 12.8948 21.75 H 11.1053 C 9.77249 21.75 8.71181 21.75 7.85904 21.6581 C 6.98068 21.5634 6.24614 21.3651 5.59385 20.918 C 5.3695 20.7643 5.15877 20.5915 4.96399 20.4017 C 4.39766 19.8497 4.05914 19.1683 3.79405 18.3256 C 3.53667 17.5074 3.32867 16.4673 3.06729 15.1604 L 3.04822 15.065 C 2.67158 13.1819 2.37478 11.698 2.28954 10.516 C 2.20244 9.30842 2.32415 8.29247 2.89619 7.41205 C 3.08705 7.1183 3.30982 6.84656 3.56044 6.6018 C 4.31157 5.8682 5.28392 5.54961 6.48518 5.39818 C 7.00535 5.33261 7.59162 5.29605 8.25 5.27567 Z M9.75 5 L9.75 5.2522 C10.1743 5.24999 10.6221 5.25 11.0946 5.25 L12.9055 5.25 C13.378 5.25 13.8258 5.24999 14.25 5.2522 L14.25 5 C14.25 3.75736 13.2426 2.75 12 2.75 C10.7574 2.75 9.75 3.75736 9.75 5 Z M4.60849 7.67491 C4.43702 7.84238 4.2846 8.02831 4.15401 8.2293 C3.83838 8.71507 3.70906 9.34622 3.78565 10.4081 C3.8633 11.4847 4.14013 12.8761 4.52967 14.8238 C4.80147 16.1828 4.99463 17.1434 5.22492 17.8755 C5.45028 18.5919 5.68979 19.0145 6.01093 19.3275 C6.1442 19.4573 6.28838 19.5755 6.44188 19.6808 C6.81176 19.9343 7.27307 20.0863 8.01978 20.1667 C8.78285 20.249 9.76271 20.25 11.1486 20.25 L12.8515 20.25 C14.2374 20.25 15.2173 20.249 15.9803 20.1667 C16.7271 20.0863 17.1884 19.9343 17.5582 19.6808 C17.7118 19.5755 17.8559 19.4573 17.9892 19.3275 C18.3103 19.0145 18.5498 18.5919 18.7752 17.8755 C19.0055 17.1434 19.1987 16.1827 19.4705 14.8238 C19.86 12.8761 20.1368 11.4847 20.2145 10.4081 C20.2911 9.34622 20.1617 8.71507 19.8461 8.2293 C19.7155 8.02831 19.5631 7.84238 19.3916 7.67491 C18.9772 7.27015 18.3837 7.01956 17.3273 6.88641 C16.2564 6.75141 14.8378 6.75 12.8515 6.75 L11.1486 6.75 C9.1623 6.75 7.74368 6.75141 6.67278 6.88641 C5.61646 7.01956 5.02293 7.27015 4.60849 7.67491 Z" fill="#FFFFFF" />
</svg>