<svg xmlns="http://www.w3.org/2000/svg" width="24" height="24" viewBox="0 0 24 24" fill="none">
  <path fill-rule="nonzero" clip-rule="nonzero" d="M 8.25 7.00151 L 8.25 6 C 8.25 3.92893 9.92893 2.25 12 2.25 C 14.0711 2.25 15.75 3.92893 15.75 6 V 7 L 15.75 7.00151 C 18.4344 7.0136 19.8606 7.1222 20.6606 8.09803 C 21.5608 9.19607 21.2287 10.8563 20.5646 14.1767 L 19.9646 17.1767 C 19.5029 19.4856 19.272 20.6401 18.4425 21.32 C 17.6131 22 16.4358 22 14.0812 22 H 9.9188 C 7.56417 22 6.38686 22 5.55742 21.32 C 4.72799 20.6401 4.4971 19.4856 4.03532 17.1767 L 3.43532 14.1767 C 2.77123 10.8563 2.43919 9.19607 3.33936 8.09803 C 4.13936 7.12219 5.56562 7.0136 8.25 7.00151 Z M9.75 6 L9.75 7 L14.25 7 L14.25 6 C14.25 4.75736 13.2426 3.75 12 3.75 C10.7574 3.75 9.75 4.75736 9.75 6 Z M 15 11 C 15.5523 11 16 10.5523 16 10 C 16 9.44772 15.5523 9 15 9 C 14.4477 9 14 9.44772 14 10 C 14 10.5523 14.4477 11 15 11 Z M9.99998 10 C9.99998 9.44772 9.55226 9 8.99998 9 C8.44769 9 7.99998 9.44772 7.99998 10 C7.99998 10.5523 8.44769 11 8.99998 11 C9.55226 11 9.99998 10.5523 9.99998 10 Z" fill="#FFFFFF" />
</svg>