<svg xmlns="http://www.w3.org/2000/svg" width="24" height="24" viewBox="0 0 24 24" fill="none">
  <path fill-rule="nonzero" clip-rule="nonzero" d="M 8.25013 6.01489 C 8.25003 6.00994 8.24998 6.00498 8.24998 6 V 5 C 8.24998 2.92893 9.92892 1.25 12 1.25 C 14.0711 1.25 15.75 2.92893 15.75 5 V 6 C 15.75 6.00498 15.7499 6.00994 15.7498 6.01489 C 17.0371 6.05353 17.8248 6.1924 18.4261 6.69147 C 19.2593 7.38295 19.4787 8.55339 19.9177 10.8943 L 20.6677 14.8943 C 21.2849 18.186 21.5934 19.8318 20.6937 20.9159 C 19.794 22 18.1195 22 14.7704 22 H 9.22954 C 5.88048 22 4.20595 22 3.30624 20.9159 C 2.40652 19.8318 2.71512 18.186 3.33231 14.8943 L 4.08231 10.8943 C 4.52122 8.55339 4.74068 7.38295 5.57386 6.69147 C 6.17521 6.1924 6.96287 6.05353 8.25013 6.01489 Z M9.74998 5 L9.74998 6.00002 C9.74998 6.00003 9.74998 6.00002 9.74998 6.00002 C9.82525 6 9.90176 6 9.97954 6 L14.0204 6 C14.0982 6 14.1747 5.99998 14.25 6 C14.25 6.00001 14.25 5.99999 14.25 6 L14.25 5 C14.25 3.75736 13.2426 2.75 12 2.75 C10.7573 2.75 9.74998 3.75736 9.74998 5 Z" fill="#FFFFFF" />
</svg>