<svg xmlns="http://www.w3.org/2000/svg" width="24" height="24" viewBox="0 0 24 24" fill="none">
  <path d="M14.8684 10.4115C14.9382 10.381 14.9705 10.3713 14.9785 10.3689C15.0884 10.3594 15.1917 10.4232 15.2324 10.5258C15.2339 10.5341 15.2395 10.5673 15.2435 10.6433C15.2497 10.761 15.25 10.9198 15.25 11.1708C15.25 11.2779 15.2499 11.339 15.2482 11.3853C15.2472 11.4142 15.2458 11.4264 15.2454 11.4295C15.2338 11.4894 15.2007 11.543 15.1523 11.5802C15.1497 11.5819 15.1394 11.5886 15.114 11.6025C15.0733 11.6246 15.0188 11.6521 14.9229 11.7L13.6062 12.3583C13.3817 12.4706 13.2396 12.5414 13.1316 12.5885C13.0617 12.6189 13.0295 12.6287 13.0214 12.631C12.9115 12.6405 12.8083 12.5767 12.7676 12.4741C12.7661 12.4659 12.7604 12.4327 12.7564 12.3566C12.7502 12.239 12.75 12.0801 12.75 11.8291C12.75 11.722 12.7501 11.6609 12.7517 11.6147C12.7528 11.5857 12.7541 11.5735 12.7546 11.5704C12.7662 11.5105 12.7993 11.4569 12.8477 11.4198C12.8502 11.418 12.8606 11.4113 12.886 11.3975C12.9266 11.3753 12.9812 11.3479 13.077 11.3L14.3938 10.6416C14.6183 10.5294 14.7604 10.4586 14.8684 10.4115Z" fill="#FFFFFF" />
  <path d="M9.99998 15.75C10.6903 15.75 11.25 16.3096 11.25 17C11.25 17.6903 10.6903 18.25 9.99998 18.25C9.30963 18.25 8.74998 17.6903 8.74998 17C8.74998 16.3096 9.30963 15.75 9.99998 15.75Z" fill="#FFFFFF" />
  <path fill-rule="nonzero" clip-rule="nonzero" d="M 8.25014 6.01489 C 8.25005 6.00994 8.25 6.00498 8.25 6 V 5 C 8.25 2.92893 9.92893 1.25 12 1.25 C 14.0711 1.25 15.75 2.92893 15.75 5 V 6 C 15.75 6.00498 15.75 6.00994 15.7499 6.0149 C 17.0371 6.05353 17.8248 6.1924 18.4261 6.69147 C 19.2593 7.38295 19.4787 8.55339 19.9177 10.8943 L 20.6677 14.8943 C 21.2849 18.186 21.5934 19.8318 20.6937 20.9159 C 19.794 22 18.1195 22 14.7704 22 H 9.22954 C 5.88048 22 4.20595 22 3.30624 20.9159 C 2.40652 19.8318 2.71512 18.186 3.33231 14.8943 L 4.08231 10.8943 C 4.52122 8.55339 4.74068 7.38295 5.57386 6.69147 C 6.17521 6.19239 6.96288 6.05353 8.25014 6.01489 Z M9.75 5 L9.75 6.00002 C9.75 6.00003 9.75 6.00002 9.75 6.00002 C9.82526 6 9.90177 6 9.97954 6 L14.0204 6 C14.0982 6 14.1747 5.99998 14.25 6 C14.25 6.00001 14.25 5.99999 14.25 6 L14.25 5 C14.25 3.75736 13.2426 2.75 12 2.75 C10.7574 2.75 9.75 3.75736 9.75 5 Z M 9.99998 19.75 C 11.5188 19.75 12.75 18.5188 12.75 17 V 14.1142 C 12.8974 14.1354 13.0493 14.138 13.2027 14.1201 C 13.4012 14.097 13.5801 14.0293 13.731 13.9635 C 13.8796 13.8987 14.0575 13.8098 14.2603 13.7083 L 15.6303 13.0234 C 15.7752 12.9512 15.9289 12.8746 16.0629 12.7721 C 16.4045 12.511 16.6379 12.1332 16.7188 11.7109 C 16.7505 11.5452 16.7503 11.3735 16.75 11.2116 L 16.75 11.1521 C 16.75 10.9253 16.75 10.7264 16.7415 10.5645 C 16.7328 10.4002 16.7134 10.2098 16.6454 10.022 C 16.3689 9.25865 15.6036 8.78572 14.7972 8.87979 C 14.5988 8.90293 14.4199 8.97068 14.269 9.03644 C 14.1204 9.10124 13.9425 9.19018 13.7397 9.2916 L 12.3697 9.97654 C 12.2248 10.0487 12.0711 10.1253 11.9371 10.2278 C 11.5955 10.4889 11.362 10.8667 11.2812 11.289 C 11.2495 11.4547 11.2498 11.6672 11.25 11.8291 V 14.5498 C 10.875 14.3581 10.4501 14.25 9.99998 14.25 C 8.4812 14.25 7.24998 15.4812 7.24998 17 C 7.24998 18.5188 8.4812 19.75 9.99998 19.75 Z" fill="#FFFFFF" />
</svg>