<svg xmlns="http://www.w3.org/2000/svg" width="24" height="24" viewBox="0 0 24 24" fill="none">
  <path opacity="0.5" d="M4.0828 10.8943C4.52171 8.55339 4.74117 7.38295 5.57434 6.69147C6.40752 6 7.59835 6 9.98003 6H14.0209C16.4026 6 17.5934 6 18.4266 6.69147C19.2598 7.38295 19.4792 8.55339 19.9181 10.8943L20.6681 14.8943C21.2853 18.186 21.5939 19.8318 20.6942 20.9159C19.7945 22 18.12 22 14.7709 22H9.23003C5.88097 22 4.20644 22 3.30672 20.9159C2.40701 19.8318 2.7156 18.186 3.3328 14.8943L4.0828 10.8943Z" fill="#FFFFFF" />
  <path d="M9.75 5C9.75 3.75736 10.7574 2.75 12 2.75C13.2426 2.75 14.25 3.75736 14.25 5V6C14.25 5.99999 14.25 6.00001 14.25 6C14.816 6.00018 15.3119 6.00174 15.7499 6.01488C15.75 6.00993 15.75 6.00497 15.75 6V5C15.75 2.92893 14.0711 1.25 12 1.25C9.92893 1.25 8.25 2.92893 8.25 5V6C8.25 6.00498 8.25005 6.00995 8.25015 6.01491C8.68814 6.00175 9.18397 6.00021 9.75 6.00002C9.75 6.00002 9.75 6.00003 9.75 6.00002V5Z" fill="#FFFFFF" />
  <path fill-rule="nonzero" clip-rule="nonzero" d="M 12.75 17 C 12.75 18.5188 11.5188 19.75 10 19.75 C 8.48122 19.75 7.25 18.5188 7.25 17 C 7.25 15.4812 8.48122 14.25 10 14.25 C 10.4501 14.25 10.875 14.3581 11.25 14.5498 V 11.8291 C 11.2498 11.6672 11.2495 11.4547 11.2812 11.289 C 11.362 10.8667 11.5955 10.4889 11.9371 10.2278 C 12.0711 10.1253 12.2248 10.0487 12.3697 9.97654 L 13.7397 9.2916 C 13.9425 9.19018 14.1204 9.10124 14.269 9.03644 C 14.4199 8.97068 14.5988 8.90293 14.7972 8.87979 C 15.6037 8.78572 16.3689 9.25865 16.6454 10.022 C 16.7134 10.2098 16.7328 10.4002 16.7415 10.5645 C 16.75 10.7264 16.75 10.9253 16.75 11.1521 L 16.75 11.2116 C 16.7503 11.3735 16.7505 11.5452 16.7188 11.7109 C 16.638 12.1332 16.4045 12.511 16.0629 12.7721 C 15.9289 12.8746 15.7752 12.9512 15.6303 13.0234 L 14.2603 13.7083 C 14.0575 13.8098 13.8796 13.8987 13.731 13.9635 C 13.5801 14.0293 13.4012 14.097 13.2028 14.1201 C 13.0493 14.138 12.8974 14.1354 12.75 14.1142 V 17 Z M14.8684 10.4115 C14.7604 10.4586 14.6183 10.5294 14.3938 10.6416 L13.0771 11.3 C12.9812 11.3479 12.9266 11.3753 12.886 11.3975 C12.8606 11.4113 12.8502 11.418 12.8477 11.4198 C12.7993 11.4569 12.7662 11.5105 12.7546 11.5704 C12.7542 11.5735 12.7528 11.5857 12.7518 11.6147 C12.7501 11.6609 12.75 11.722 12.75 11.8291 C12.75 12.0801 12.7502 12.239 12.7564 12.3566 C12.7604 12.4327 12.7661 12.4659 12.7676 12.4741 C12.8083 12.5767 12.9115 12.6405 13.0215 12.631 C13.0295 12.6287 13.0617 12.6189 13.1316 12.5885 C13.2396 12.5414 13.3817 12.4706 13.6062 12.3583 L14.9229 11.7 C15.0188 11.6521 15.0734 11.6246 15.114 11.6025 C15.1394 11.5886 15.1498 11.5819 15.1523 11.5802 C15.2007 11.543 15.2338 11.4894 15.2454 11.4295 C15.2458 11.4264 15.2472 11.4142 15.2482 11.3853 C15.2499 11.339 15.25 11.2779 15.25 11.1708 C15.25 10.9198 15.2498 10.761 15.2436 10.6433 C15.2396 10.5673 15.2339 10.5341 15.2324 10.5258 C15.1917 10.4232 15.0885 10.3594 14.9785 10.3689 C14.9705 10.3713 14.9383 10.381 14.8684 10.4115 Z M10 15.75 C9.30964 15.75 8.75 16.3096 8.75 17 C8.75 17.6903 9.30964 18.25 10 18.25 C10.6904 18.25 11.25 17.6903 11.25 17 C11.25 16.3096 10.6904 15.75 10 15.75 Z" fill="#FFFFFF" />
</svg>