<svg xmlns="http://www.w3.org/2000/svg" width="24" height="24" viewBox="0 0 24 24" fill="none">
  <path fill-rule="nonzero" clip-rule="nonzero" d="M 12.0001 2.75 C 10.7575 2.75 9.75012 3.75736 9.75012 5 V 5.25988 C 10.3072 5.24999 10.9184 5.24999 11.5893 5.25 H 12.411 C 13.0818 5.24999 13.693 5.24999 14.2501 5.25988 V 5 C 14.2501 3.75736 13.2428 2.75 12.0001 2.75 Z M15.7501 5.32793 C15.8928 5.34021 16.0308 5.35444 16.164 5.3709 C17.174 5.49569 18.0066 5.75783 18.7139 6.34483 C19.4212 6.93183 19.8323 7.70189 20.1411 8.67156 C20.4403 9.61129 20.6668 10.8194 20.9516 12.3381 L20.9723 12.4484 C21.3741 14.5912 21.6907 16.2799 21.7488 17.6112 C21.8084 18.9758 21.6054 20.106 20.8356 21.0335 C20.0658 21.961 18.9924 22.3689 17.6402 22.5618 C16.321 22.75 14.6028 22.75 12.4227 22.75 L11.5775 22.75 C9.39737 22.75 7.67926 22.75 6.36005 22.5618 C5.00785 22.3689 3.93443 21.961 3.16465 21.0335 C2.39488 20.106 2.19187 18.9758 2.25143 17.6112 C2.30954 16.2799 2.62618 14.5912 3.02798 12.4484 L3.04866 12.3381 C3.3334 10.8194 3.55991 9.61128 3.85914 8.67156 C4.16792 7.70189 4.57901 6.93183 5.2863 6.34483 C5.9936 5.75783 6.82622 5.49569 7.83619 5.3709 C7.96947 5.35444 8.10739 5.34021 8.25012 5.32793 L8.25012 5 C8.25012 2.92893 9.92905 1.25 12.0001 1.25 C14.0712 1.25 15.7501 2.92893 15.7501 5 L15.7501 5.32793 Z M 8.02012 6.85959 C 7.16458 6.96529 6.64786 7.16413 6.24426 7.49909 C 5.84065 7.83406 5.54999 8.30528 5.28843 9.12669 C 5.02057 9.96788 4.80982 11.0846 4.5137 12.6639 C 4.09798 14.8811 3.8029 16.4647 3.75 17.6766 C 3.69801 18.8679 3.88907 19.5576 4.31892 20.0756 C 4.74876 20.5935 5.39151 20.9084 6.57193 21.0768 C 7.77284 21.2482 9.38371 21.25 11.6395 21.25 H 12.3607 C 14.6165 21.25 16.2274 21.2482 17.4283 21.0768 C 18.6087 20.9084 19.2515 20.5935 19.6813 20.0756 C 20.1112 19.5576 20.3022 18.8679 20.2502 17.6766 C 20.1973 16.4647 19.9023 14.8811 19.4865 12.6639 C 19.1904 11.0846 18.9797 9.96788 18.7118 9.12669 C 18.4502 8.30528 18.1596 7.83406 17.756 7.49909 C 17.3524 7.16413 16.8357 6.96529 15.9801 6.85959 C 15.104 6.75133 13.9675 6.75 12.3607 6.75 H 11.6395 C 10.0327 6.75 8.89627 6.75133 8.02012 6.85959 Z" fill="#FFFFFF" />
  <path fill-rule="nonzero" clip-rule="nonzero" d="M 14.9787 10.3689 C 14.9706 10.3712 14.9384 10.381 14.8685 10.4114 C 14.7605 10.4585 14.6184 10.5293 14.3939 10.6416 L 13.0772 11.2999 C 12.9813 11.3478 12.9268 11.3753 12.8861 11.3974 C 12.8607 11.4113 12.8504 11.418 12.8478 11.4197 C 12.7994 11.4569 12.7663 11.5105 12.7547 11.5704 C 12.7543 11.5735 12.7529 11.5857 12.7519 11.6146 C 12.7502 11.6609 12.7501 11.722 12.7501 11.8291 C 12.7501 12.0801 12.7504 12.2389 12.7566 12.3566 C 12.7606 12.4326 12.7662 12.4658 12.7677 12.4741 C 12.8084 12.5767 12.9117 12.6405 13.0216 12.631 C 13.0296 12.6286 13.0619 12.6189 13.1317 12.5884 C 13.2397 12.5413 13.3818 12.4705 13.6063 12.3583 L 14.9231 11.6999 C 15.0189 11.652 15.0735 11.6246 15.1141 11.6025 C 15.1396 11.5886 15.1499 11.5819 15.1524 11.5801 C 15.2008 11.543 15.2339 11.4894 15.2455 11.4295 C 15.246 11.4264 15.2473 11.4142 15.2484 11.3852 C 15.25 11.339 15.2501 11.2779 15.2501 11.1708 C 15.2501 10.9198 15.2499 10.7609 15.2437 10.6433 C 15.2397 10.5672 15.234 10.534 15.2325 10.5258 C 15.1918 10.4232 15.0886 10.3594 14.9787 10.3689 Z M 14.7974 8.87975 C 15.6038 8.78569 16.369 9.25862 16.6455 10.022 C 16.7135 10.2098 16.733 10.4001 16.7416 10.5645 C 16.7501 10.7264 16.7501 10.9253 16.7501 11.152 V 11.1708 C 16.7501 11.1843 16.7501 11.1979 16.7502 11.2116 C 16.7504 11.3735 16.7506 11.5452 16.7189 11.7109 C 16.6381 12.1332 16.4046 12.511 16.0631 12.7721 C 15.929 12.8746 15.7753 12.9512 15.6304 13.0234 C 15.6182 13.0295 15.606 13.0355 15.5939 13.0416 L 14.2605 13.7083 C 14.0576 13.8097 13.8798 13.8987 13.7311 13.9635 C 13.5802 14.0292 13.4013 14.097 13.2029 14.1201 C 13.0494 14.138 12.8975 14.1354 12.7501 14.1141 V 16.9999 C 12.7501 18.5187 11.5189 19.7499 10.0001 19.7499 C 8.48133 19.7499 7.25012 18.5187 7.25012 16.9999 C 7.25012 15.4811 8.48133 14.2499 10.0001 14.2499 C 10.4502 14.2499 10.8751 14.3581 11.2501 14.5498 V 11.9999 C 11.25 11.9508 11.2501 11.9 11.2501 11.8478 V 11.8291 C 11.2501 11.8156 11.2501 11.802 11.2501 11.7883 C 11.2498 11.6264 11.2496 11.4547 11.2813 11.289 C 11.3622 10.8667 11.5956 10.4889 11.9372 10.2278 C 12.0712 10.1253 12.2249 10.0487 12.3698 9.97651 C 12.3821 9.97041 12.3942 9.96434 12.4063 9.95829 L 13.7398 9.29156 C 13.9426 9.19015 14.1205 9.10121 14.2691 9.03641 C 14.42 8.97064 14.5989 8.9029 14.7974 8.87975 Z M 11.2501 16.9999 C 11.2501 16.3096 10.6905 15.7499 10.0001 15.7499 C 9.30976 15.7499 8.75012 16.3096 8.75012 16.9999 C 8.75012 17.6903 9.30976 18.2499 10.0001 18.2499 C 10.6905 18.2499 11.2501 17.6903 11.2501 16.9999 Z" fill="#FFFFFF" />
</svg>