<svg xmlns="http://www.w3.org/2000/svg" width="24" height="24" viewBox="0 0 24 24" fill="none">
  <path fill-rule="nonzero" clip-rule="nonzero" d="M9.99976 2.25 L13.9998 2.25 C14.6982 2.25 15.301 2.65912 15.5817 3.25077 C16.2653 3.25574 16.798 3.28712 17.2736 3.47298 C17.8417 3.69505 18.336 4.07255 18.6997 4.5623 C19.0666 5.05639 19.2388 5.68968 19.4759 6.56133 L19.5223 6.73169 L20.035 9.69442 C20.2207 9.82247 20.382 9.97414 20.5222 10.1538 C21.4231 11.3075 20.9941 13.0234 20.1362 16.4552 C19.5905 18.6379 19.3176 19.7292 18.5039 20.3646 C17.6901 21 16.5652 21 14.3153 21 L9.68462 21 C7.43476 21 6.30983 21 5.49605 20.3646 C4.68227 19.7292 4.40943 18.6379 3.86376 16.4552 C3.00581 13.0234 2.57684 11.3075 3.47767 10.1538 C3.61781 9.97428 3.77895 9.82272 3.96448 9.69473 L4.47721 6.73169 L4.5236 6.56133 C4.76067 5.68968 4.93292 5.05639 5.29985 4.5623 C5.66357 4.07255 6.15778 3.69505 6.72597 3.47298 C7.20152 3.28712 7.73426 3.25574 8.4178 3.25077 C8.69851 2.65912 9.30136 2.25 9.99976 2.25 Z M 18.4177 9.14571 L 18.0564 7.05765 C 17.7726 6.01794 17.6696 5.69121 17.4954 5.45663 C 17.2996 5.19291 17.0335 4.98964 16.7275 4.87007 C 16.5077 4.78416 16.2421 4.75888 15.5803 4.75219 C 15.299 5.34225 14.697 5.75 13.9998 5.75 H 9.99976 C 9.30252 5.75 8.70052 5.34225 8.41921 4.75219 C 7.75738 4.75888 7.4918 4.78416 7.272 4.87007 C 6.96605 4.98964 6.69994 5.19291 6.50409 5.45662 C 6.32988 5.6912 6.22688 6.01794 5.9431 7.05765 L 5.58176 9.14577 C 6.57992 9 7.9096 9 9.68462 9 H 14.3153 C 16.0901 9 17.4196 9 18.4177 9.14571 Z M8 12.25 C7.58579 12.25 7.25 12.5858 7.25 13 L7.25 17 C7.25 17.4142 7.58579 17.75 8 17.75 C8.41421 17.75 8.75 17.4142 8.75 17 L8.75 13 C8.75 12.5858 8.41421 12.25 8 12.25 Z M 16.75 13 C 16.75 12.5858 16.4142 12.25 16 12.25 C 15.5858 12.25 15.25 12.5858 15.25 13 V 17 C 15.25 17.4142 15.5858 17.75 16 17.75 C 16.4142 17.75 16.75 17.4142 16.75 17 V 13 Z M12 12.25 C11.5858 12.25 11.25 12.5858 11.25 13 L11.25 17 C11.25 17.4142 11.5858 17.75 12 17.75 C12.4142 17.75 12.75 17.4142 12.75 17 L12.75 13 C12.75 12.5858 12.4142 12.25 12 12.25 Z" fill="#FFFFFF" />
</svg>