<svg xmlns="http://www.w3.org/2000/svg" width="24" height="24" viewBox="0 0 24 24" fill="none">
  <path fill-rule="nonzero" clip-rule="nonzero" d="M 9.63774 21.75 C 8.55256 21.75 7.67148 21.75 6.96266 21.6653 C 6.22365 21.5769 5.58901 21.3888 5.03439 20.9558 C 4.47977 20.5227 4.14337 19.9527 3.8784 19.2572 C 3.62426 18.5901 3.41058 17.7353 3.1474 16.6825 L 3.121 16.5769 C 2.70479 14.9121 2.37229 13.5822 2.26492 12.5261 C 2.15427 11.4377 2.26442 10.4888 2.88642 9.6922 C 3.16928 9.32992 3.50837 9.06269 3.89587 8.86426 L 4.52374 6.56133 C 4.76082 5.68968 4.93306 5.05639 5.29999 4.5623 C 5.66371 4.07255 6.15792 3.69505 6.72611 3.47298 C 7.20166 3.28712 7.7344 3.25574 8.41794 3.25077 C 8.69865 2.65912 9.3015 2.25 9.9999 2.25 H 13.9999 C 14.6983 2.25 15.3012 2.65912 15.5819 3.25077 C 16.2654 3.25574 16.7981 3.28712 17.2737 3.47298 C 17.8419 3.69505 18.3361 4.07255 18.6998 4.5623 C 19.0667 5.05639 19.239 5.68968 19.4761 6.56133 L 20.104 8.86431 C 20.4914 9.06274 20.8305 9.32995 21.1133 9.6922 C 21.7353 10.4888 21.8454 11.4377 21.7348 12.5261 C 21.6274 13.5822 21.2949 14.9121 20.8787 16.5769 L 20.8523 16.6824 C 20.5892 17.7352 20.3755 18.5901 20.1213 19.2572 C 19.8563 19.9527 19.5199 20.5227 18.9653 20.9558 C 18.4107 21.3888 17.7761 21.5769 17.0371 21.6653 C 16.3282 21.75 15.4472 21.75 14.362 21.75 H 9.63774 Z M7.27214 4.87007 C6.96619 4.98964 6.70008 5.19291 6.50423 5.45662 C6.32812 5.69376 6.22478 6.02508 5.93388 7.09195 L5.5803 8.38868 C6.61809 8.24996 7.95788 8.24998 9.62246 8.25 L11.995 8.25 C11.9985 8.24997 12.0021 8.24997 12.0056 8.25 L14.3773 8.25 C16.0419 8.24998 17.3817 8.24996 18.4195 8.3887 L18.0659 7.09194 C17.775 6.02508 17.6717 5.69377 17.4956 5.45663 C17.2997 5.19291 17.0336 4.98964 16.7277 4.87007 C16.5079 4.78416 16.2423 4.75888 15.5805 4.75219 C15.2991 5.34225 14.6971 5.75 13.9999 5.75 L9.9999 5.75 C9.30267 5.75 8.70067 5.34225 8.41935 4.75219 C7.75752 4.75888 7.49194 4.78416 7.27214 4.87007 Z M 10.3986 9.75 H 9.68452 C 7.89217 9.75 6.63034 9.75187 5.69971 9.88649 C 5.58177 9.90355 5.47171 9.92243 5.36887 9.94313 L 7.55983 13.1565 L 10.3986 9.75 Z M 4.03876 10.655 C 3.78099 11.0086 3.66752 11.4919 3.75723 12.3744 C 3.85233 13.3099 4.15656 14.5345 4.59127 16.2733 C 4.62077 16.3913 4.64932 16.5054 4.67705 16.6159 L 6.56132 14.3548 L 4.03876 10.655 Z M 5.15948 18.38 C 5.19928 18.5018 5.23926 18.6159 5.28013 18.7231 C 5.49144 19.2778 5.69835 19.5711 5.95751 19.7735 C 6.21667 19.9758 6.5514 20.1054 7.14076 20.1759 C 7.75015 20.2488 8.54133 20.25 9.68452 20.25 H 10.5808 L 7.43997 15.6435 L 5.15948 18.38 Z M13.419 20.25 L14.3152 20.25 C15.4584 20.25 16.2496 20.2488 16.859 20.1759 C17.4483 20.1054 17.783 19.9758 18.0422 19.7735 C18.3014 19.5711 18.5083 19.2778 18.7196 18.7231 C18.7606 18.6156 18.8006 18.5013 18.8405 18.3791 L16.5724 15.625 L13.419 20.25 Z M 19.3248 16.6075 C 19.3518 16.4997 19.3797 16.3883 19.4084 16.2733 C 19.8432 14.5345 20.1474 13.3099 20.2425 12.3744 C 20.3322 11.492 20.2187 11.0086 19.961 10.6551 L 17.4525 14.3341 L 19.3248 16.6075 Z M 18.6309 9.94314 C 18.5281 9.92243 18.418 9.90356 18.3 9.88649 C 17.3694 9.75187 16.1075 9.75 14.3152 9.75 H 13.6774 L 16.4594 13.1281 L 18.6309 9.94314 Z M 9.9999 3.75 C 9.86183 3.75 9.7499 3.86193 9.7499 4 C 9.7499 4.13807 9.86183 4.25 9.9999 4.25 H 13.9999 C 14.138 4.25 14.2499 4.13807 14.2499 4 C 14.2499 3.86193 14.138 3.75 13.9999 3.75 H 9.9999 Z M12.0409 10.1224 L8.43849 14.4452 L11.9999 19.6686 L15.5792 14.419 L12.0409 10.1224 Z" fill="#FFFFFF" />
</svg>