<svg xmlns="http://www.w3.org/2000/svg" width="24" height="24" viewBox="0 0 24 24" fill="none">
  <path d="M8.7499 13C8.7499 12.5858 8.41412 12.25 7.9999 12.25C7.58569 12.25 7.2499 12.5858 7.2499 13V17C7.2499 17.4142 7.58569 17.75 7.9999 17.75C8.41412 17.75 8.7499 17.4142 8.7499 17V13Z" fill="#FFFFFF" />
  <path d="M15.9999 12.25C16.4141 12.25 16.7499 12.5858 16.7499 13V17C16.7499 17.4142 16.4141 17.75 15.9999 17.75C15.5857 17.75 15.2499 17.4142 15.2499 17V13C15.2499 12.5858 15.5857 12.25 15.9999 12.25Z" fill="#FFFFFF" />
  <path d="M12.7499 13C12.7499 12.5858 12.4141 12.25 11.9999 12.25C11.5857 12.25 11.2499 12.5858 11.2499 13V17C11.2499 17.4142 11.5857 17.75 11.9999 17.75C12.4141 17.75 12.7499 17.4142 12.7499 17V13Z" fill="#FFFFFF" />
  <path fill-rule="nonzero" clip-rule="nonzero" d="M17.2737 3.47298 C17.8419 3.69505 18.3361 4.07255 18.6998 4.5623 C19.0667 5.05639 19.239 5.68968 19.4761 6.56133 L20.104 8.86431 C20.4914 9.06274 20.8305 9.32995 21.1133 9.6922 C21.7353 10.4888 21.8454 11.4377 21.7348 12.5261 C21.6274 13.5822 21.2949 14.9122 20.8787 16.577 L20.8523 16.6825 C20.5891 17.7353 20.3755 18.5901 20.1213 19.2572 C19.8563 19.9527 19.5199 20.5227 18.9653 20.9558 C18.4107 21.3888 17.7761 21.5769 17.0371 21.6653 C16.3282 21.75 15.4472 21.75 14.362 21.75 L9.63774 21.75 C8.55256 21.75 7.67148 21.75 6.96266 21.6653 C6.22365 21.5769 5.58901 21.3888 5.03439 20.9558 C4.47977 20.5227 4.14337 19.9527 3.8784 19.2572 C3.62426 18.5901 3.41058 17.7353 3.1474 16.6825 L3.121 16.5769 C2.70479 14.9121 2.37229 13.5822 2.26492 12.5261 C2.15427 11.4377 2.26442 10.4888 2.88642 9.6922 C3.16928 9.32992 3.50837 9.06269 3.89587 8.86426 L4.52374 6.56133 C4.76082 5.68968 4.93306 5.05639 5.29999 4.5623 C5.66371 4.07255 6.15792 3.69505 6.72611 3.47298 C7.20166 3.28712 7.7344 3.25574 8.41794 3.25077 C8.69865 2.65912 9.3015 2.25 9.9999 2.25 L13.9999 2.25 C14.6983 2.25 15.3012 2.65912 15.5819 3.25077 C16.2654 3.25574 16.7981 3.28712 17.2737 3.47298 Z M7.27214 4.87007 C6.96619 4.98964 6.70008 5.19291 6.50423 5.45662 C6.32812 5.69376 6.22478 6.02508 5.93388 7.09195 L5.5803 8.38868 C6.61809 8.24996 7.95788 8.24998 9.62246 8.25 L14.3773 8.25 C16.0419 8.24998 17.3817 8.24996 18.4195 8.3887 L18.0659 7.09194 C17.775 6.02508 17.6717 5.69377 17.4956 5.45663 C17.2997 5.19291 17.0336 4.98964 16.7277 4.87007 C16.5079 4.78416 16.2423 4.75888 15.5805 4.75219 C15.2991 5.34225 14.6971 5.75 13.9999 5.75 L9.9999 5.75 C9.30267 5.75 8.70067 5.34225 8.41935 4.75219 C7.75752 4.75888 7.49194 4.78416 7.27214 4.87007 Z M 9.9999 3.75 C 9.86183 3.75 9.7499 3.86193 9.7499 4 C 9.7499 4.13807 9.86183 4.25 9.9999 4.25 H 13.9999 C 14.138 4.25 14.2499 4.13807 14.2499 4 C 14.2499 3.86193 14.138 3.75 13.9999 3.75 H 9.9999 Z M4.06873 10.6153 C3.78989 10.9725 3.66411 11.4584 3.75723 12.3744 C3.85233 13.3099 4.15656 14.5345 4.59127 16.2733 C4.86853 17.3824 5.06163 18.1496 5.28013 18.7231 C5.49144 19.2778 5.69835 19.5711 5.95751 19.7735 C6.21667 19.9758 6.5514 20.1054 7.14076 20.1759 C7.75015 20.2488 8.54133 20.25 9.68452 20.25 L14.3152 20.25 C15.4584 20.25 16.2496 20.2488 16.859 20.1759 C17.4483 20.1054 17.783 19.9758 18.0422 19.7735 C18.3014 19.5711 18.5083 19.2778 18.7196 18.7231 C18.9381 18.1496 19.1312 17.3824 19.4084 16.2733 C19.8432 14.5345 20.1474 13.3099 20.2425 12.3744 C20.3356 11.4584 20.2098 10.9725 19.931 10.6153 C19.6522 10.2582 19.2112 10.0183 18.3 9.88649 C17.3694 9.75187 16.1075 9.75 14.3152 9.75 L9.68452 9.75 C7.89217 9.75 6.63034 9.75187 5.69971 9.88649 C4.78854 10.0183 4.34756 10.2582 4.06873 10.6153 Z" fill="#FFFFFF" />
</svg>