<svg xmlns="http://www.w3.org/2000/svg" width="24" height="24" viewBox="0 0 24 24" fill="none">
  <path d="M15.5433 9.5172C15.829 9.21725 15.8174 8.74252 15.5174 8.45686C15.2175 8.17119 14.7428 8.18277 14.4571 8.48272L12.1431 10.9125L11.5433 10.2827C11.2576 9.98277 10.7829 9.97119 10.483 10.2569C10.183 10.5425 10.1714 11.0173 10.4571 11.3172L11.6 12.5172C11.7415 12.6658 11.9378 12.75 12.1431 12.75C12.3483 12.75 12.5446 12.6658 12.6862 12.5172L15.5433 9.5172Z" fill="#FFFFFF" />
  <path fill-rule="nonzero" clip-rule="nonzero" d="M 1.29266 2.7512 C 1.43005 2.36044 1.8582 2.15503 2.24896 2.29242 L 2.55036 2.39838 C 3.16689 2.61511 3.69052 2.79919 4.10261 3.00139 C 4.54324 3.21759 4.92109 3.48393 5.20527 3.89979 C 5.48725 4.31243 5.60367 4.76515 5.6574 5.26153 C 5.66124 5.29706 5.6648 5.33321 5.66809 5.36996 L 17.1203 5.36996 C 17.9389 5.36995 18.7735 5.36993 19.4606 5.44674 C 19.8103 5.48584 20.1569 5.54814 20.4634 5.65583 C 20.7639 5.76141 21.0942 5.93432 21.3292 6.23974 C 21.711 6.73613 21.7777 7.31414 21.7416 7.90034 C 21.7071 8.45845 21.5686 9.15234 21.4039 9.97723 L 21.3935 10.0295 L 21.3925 10.0341 L 20.8836 12.5033 C 20.7339 13.2298 20.6079 13.841 20.4455 14.3231 C 20.2731 14.8346 20.0341 15.2842 19.6076 15.6318 C 19.1811 15.9793 18.6925 16.1226 18.1568 16.1882 C 17.6518 16.25 17.0278 16.25 16.2862 16.25 L 10.8804 16.25 C 9.53464 16.25 8.44479 16.25 7.58656 16.1283 C 6.69032 16.0012 5.93752 15.7285 5.34366 15.1022 C 4.79742 14.526 4.50529 13.9144 4.35897 13.0601 C 4.22191 12.2598 4.20828 11.2125 4.20828 9.75996 V 7.03832 C 4.20828 6.29837 4.20726 5.80316 4.16611 5.42295 C 4.12678 5.0596 4.05708 4.87818 3.96682 4.74609 C 3.87876 4.61723 3.74509 4.4968 3.44186 4.34802 C 3.11902 4.18961 2.68026 4.03406 2.01266 3.79934 L 1.75145 3.7075 C 1.36068 3.57012 1.15527 3.14197 1.29266 2.7512 Z M 5.70828 6.86996 L 5.70828 9.75996 C 5.70828 11.249 5.72628 12.1578 5.83744 12.8068 C 5.93933 13.4018 6.11202 13.7324 6.43219 14.0701 C 6.70473 14.3576 7.08235 14.5418 7.79716 14.6432 C 8.53783 14.7482 9.5209 14.75 10.9377 14.75 H 16.2406 C 17.0399 14.75 17.5714 14.7487 17.9746 14.6993 C 18.3573 14.6525 18.5348 14.571 18.66 14.469 C 18.7853 14.3669 18.9009 14.2095 19.024 13.8441 C 19.1537 13.4592 19.2623 12.9389 19.4237 12.156 L 19.9225 9.73591 L 19.9229 9.73369 C 20.1005 8.84376 20.217 8.2515 20.2444 7.80793 C 20.2704 7.38648 20.2043 7.23927 20.1429 7.15786 C 20.1367 7.15259 20.0931 7.11565 19.9661 7.07101 C 19.8107 7.01639 19.5895 6.97049 19.2939 6.93745 C 18.6991 6.87096 17.9454 6.86996 17.089 6.86996 H 5.70828 Z" fill="#FFFFFF" />
  <path fill-rule="nonzero" clip-rule="nonzero" d="M5.2502 19.5 C5.2502 18.2573 6.25756 17.25 7.5002 17.25 C8.74285 17.25 9.7502 18.2573 9.7502 19.5 C9.7502 20.7426 8.74285 21.75 7.5002 21.75 C6.25756 21.75 5.2502 20.7426 5.2502 19.5 Z M7.5002 20.25 C7.91442 20.25 8.2502 19.9142 8.2502 19.5 C8.2502 19.0857 7.91442 18.75 7.5002 18.75 C7.08599 18.75 6.7502 19.0857 6.7502 19.5 C6.7502 19.9142 7.08599 20.25 7.5002 20.25 Z" fill="#FFFFFF" />
  <path fill-rule="nonzero" clip-rule="nonzero" d="M14.25 19.5001 C14.25 18.2574 15.2574 17.2501 16.5 17.2501 C17.7426 17.2501 18.75 18.2574 18.75 19.5001 C18.75 20.7427 17.7426 21.7501 16.5 21.7501 C15.2574 21.7501 14.25 20.7427 14.25 19.5001 Z M16.5 20.2501 C16.9142 20.2501 17.25 19.9143 17.25 19.5001 C17.25 19.0859 16.9142 18.7501 16.5 18.7501 C16.0858 18.7501 15.75 19.0859 15.75 19.5001 C15.75 19.9143 16.0858 20.2501 16.5 20.2501 Z" fill="#FFFFFF" />
</svg>