<svg xmlns="http://www.w3.org/2000/svg" width="24" height="24" viewBox="0 0 24 24" fill="none">
  <path fill-rule="nonzero" clip-rule="nonzero" d="M 14.6646 2.32919 C 15.0351 2.14395 15.4856 2.29412 15.6708 2.6646 L 17.872 7.06692 C 19.2251 7.17087 20.0742 7.43628 20.6221 8.11398 C 21.5226 9.22795 21.1634 10.9044 20.4449 14.2572 L 20.0164 16.2572 C 19.5294 18.5297 19.2859 19.666 18.4608 20.333 C 17.6357 21 16.4737 21 14.1495 21 H 9.85053 C 7.52639 21 6.36432 21 5.53925 20.333 C 4.71418 19.666 4.47069 18.5297 3.98372 16.2572 L 3.55514 14.2572 C 2.83668 10.9044 2.47745 9.22795 3.378 8.11398 C 3.92585 7.43629 4.77494 7.17088 6.12802 7.06693 L 8.32918 2.6646 C 8.51442 2.29412 8.96493 2.14395 9.33541 2.32919 C 9.70589 2.51443 9.85606 2.96494 9.67082 3.33542 L 7.83589 7.00528 C 8.31911 7.00001 8.84638 7.00001 9.42196 7.00001 H 14.5781 C 15.1537 7.00001 15.6809 7.00001 16.1641 7.00528 L 14.3292 3.33542 C 14.1439 2.96494 14.2941 2.51443 14.6646 2.32919 Z M7.25 12 C7.25 12.4142 7.58579 12.75 8 12.75 L16 12.75 C16.4142 12.75 16.75 12.4142 16.75 12 C16.75 11.5858 16.4142 11.25 16 11.25 L8 11.25 C7.58579 11.25 7.25 11.5858 7.25 12 Z M 10 14.25 C 9.58579 14.25 9.25 14.5858 9.25 15 C 9.25 15.4142 9.58579 15.75 10 15.75 H 14 C 14.4142 15.75 14.75 15.4142 14.75 15 C 14.75 14.5858 14.4142 14.25 14 14.25 H 10 Z" fill="#FFFFFF" />
</svg>