<svg xmlns="http://www.w3.org/2000/svg" width="24" height="24" viewBox="0 0 24 24" fill="none">
  <path d="M9.99995 13.25C9.58573 13.25 9.24995 13.5858 9.24995 14C9.24995 14.4142 9.58573 14.75 9.99995 14.75H13.9999C14.4142 14.75 14.7499 14.4142 14.7499 14C14.7499 13.5858 14.4142 13.25 13.9999 13.25H9.99995Z" fill="#FFFFFF" />
  <path fill-rule="nonzero" clip-rule="nonzero" d="M 14.6645 2.32919 C 15.035 2.14395 15.4855 2.29412 15.6708 2.6646 L 17.4841 6.2912 C 17.9116 6.31294 18.3015 6.34614 18.6548 6.39687 C 19.7105 6.54845 20.5843 6.87432 21.2053 7.64247 C 21.8263 8.41062 21.9618 9.33329 21.8888 10.3973 C 21.8181 11.4285 21.5394 12.7289 21.191 14.3545 L 20.7396 16.4612 C 20.5047 17.5577 20.3141 18.4471 20.0743 19.1419 C 19.8244 19.866 19.4949 20.4614 18.9323 20.9163 C 18.3696 21.3711 17.7184 21.5685 16.958 21.6611 C 16.2284 21.75 15.3188 21.75 14.1974 21.75 H 9.80252 C 8.6812 21.75 7.77159 21.75 7.04196 21.6611 C 6.28159 21.5685 5.63033 21.3711 5.06769 20.9163 C 4.50505 20.4614 4.17561 19.866 3.92569 19.1419 C 3.68586 18.4471 3.49529 17.5577 3.26035 16.4612 L 2.80893 14.3546 C 2.46055 12.7289 2.18188 11.4285 2.11115 10.3973 C 2.03816 9.33329 2.17371 8.41062 2.7947 7.64247 C 3.41568 6.87432 4.28947 6.54845 5.34519 6.39687 C 5.69846 6.34615 6.08832 6.31294 6.51583 6.2912 L 8.32913 2.6646 C 8.51437 2.29412 8.96487 2.14395 9.33536 2.32919 C 9.70584 2.51443 9.85601 2.96494 9.67077 3.33542 L 8.21244 6.25207 C 8.576 6.25 8.95865 6.25001 9.36076 6.25001 H 14.6392 C 15.0412 6.25001 15.424 6.25 15.7875 6.25207 L 14.3291 3.33542 C 14.1439 2.96494 14.2941 2.51443 14.6645 2.32919 Z M5.73206 7.85873 C5.67289 7.86588 5.61501 7.87351 5.55837 7.88164 C4.67449 8.00855 4.24076 8.23967 3.9612 8.58549 C3.68634 8.92548 3.55112 9.38794 3.60471 10.25 L20.3953 10.25 C20.4488 9.38794 20.3136 8.92548 20.0388 8.58549 C19.7592 8.23967 19.3255 8.00855 18.4416 7.88164 C18.3849 7.87351 18.327 7.86588 18.2678 7.85872 L18.6708 8.6646 C18.856 9.03509 18.7058 9.48559 18.3354 9.67083 C17.9649 9.85607 17.5144 9.70591 17.3291 9.33542 L16.5419 7.76092 C15.9715 7.75035 15.3221 7.75001 14.5781 7.75001 L9.42191 7.75001 C8.67786 7.75001 8.02842 7.75035 7.45802 7.76092 L6.67077 9.33542 C6.48553 9.70591 6.03502 9.85607 5.66454 9.67083 C5.29405 9.48559 5.14388 9.03509 5.32913 8.6646 L5.73206 7.85873 Z M4.28844 14.1 L4.71701 16.1 C4.96442 17.2546 5.13707 18.0541 5.3436 18.6525 C5.54343 19.2314 5.74827 19.5376 6.01071 19.7498 C6.27314 19.9619 6.61545 20.0981 7.22341 20.1721 C7.85175 20.2487 8.66972 20.25 9.85048 20.25 L14.1495 20.25 C15.3302 20.25 16.1482 20.2487 16.7766 20.1721 C17.3845 20.0981 17.7268 19.9619 17.9893 19.7498 C18.2517 19.5376 18.4565 19.2314 18.6564 18.6525 C18.8629 18.0541 19.0355 17.2546 19.2829 16.1 L19.7115 14.1 C19.9085 13.1807 20.0733 12.409 20.193 11.75 L3.80694 11.75 C3.92663 12.409 4.09145 13.1807 4.28844 14.1 Z" fill="#FFFFFF" />
</svg>