<svg xmlns="http://www.w3.org/2000/svg" width="24" height="24" viewBox="0 0 24 24" fill="none">
  <path fill-rule="nonzero" clip-rule="nonzero" d="M3.04047 2.29242 L3.34187 2.39838 C3.95839 2.61511 4.48203 2.79919 4.89411 3.00139 C5.33474 3.21759 5.71259 3.48393 5.99677 3.89979 C6.27875 4.31243 6.39517 4.76515 6.4489 5.26153 C6.47295 5.48373 6.48564 5.72967 6.49233 6 L17.1305 6 C18.8155 6 20.3323 6 20.7762 6.57708 C21.2202 7.15417 21.0466 8.02369 20.6995 9.76275 L20.1997 12.1875 C19.8846 13.7164 19.727 14.4808 19.1753 14.9304 C18.6236 15.38 17.8431 15.38 16.2821 15.38 L10.9792 15.38 C8.19028 15.38 6.79583 15.38 5.92943 14.4662 C5.06302 13.5523 4.99979 12.5816 4.99979 9.64 L4.99979 7.03832 C4.99979 6.29837 4.99877 5.80316 4.95761 5.42295 C4.91828 5.0596 4.84858 4.87818 4.75832 4.74609 C4.67026 4.61723 4.53659 4.4968 4.23336 4.34802 C3.91052 4.18961 3.47177 4.03406 2.80416 3.79934 L2.54295 3.7075 C2.15218 3.57012 1.94678 3.14197 2.08416 2.7512 C2.22155 2.36044 2.6497 2.15503 3.04047 2.29242 Z M13 8.25 C12.5858 8.25 12.25 8.58579 12.25 9 L12.25 10.25 L11 10.25 C10.5858 10.25 10.25 10.5858 10.25 11 C10.25 11.4142 10.5858 11.75 11 11.75 L12.25 11.75 L12.25 13 C12.25 13.4142 12.5858 13.75 13 13.75 C13.4142 13.75 13.75 13.4142 13.75 13 L13.75 11.75 L15 11.75 C15.4142 11.75 15.75 11.4142 15.75 11 C15.75 10.5858 15.4142 10.25 15 10.25 L13.75 10.25 L13.75 9 C13.75 8.58579 13.4142 8.25 13 8.25 Z" fill="#FFFFFF" />
  <path d="M7.5 18C8.32843 18 9 18.6716 9 19.5C9 20.3284 8.32843 21 7.5 21C6.67157 21 6 20.3284 6 19.5C6 18.6716 6.67157 18 7.5 18Z" fill="#FFFFFF" />
  <path d="M16.5 18.0001C17.3284 18.0001 18 18.6716 18 19.5001C18 20.3285 17.3284 21.0001 16.5 21.0001C15.6716 21.0001 15 20.3285 15 19.5001C15 18.6716 15.6716 18.0001 16.5 18.0001Z" fill="#FFFFFF" />
</svg>