<svg xmlns="http://www.w3.org/2000/svg" width="24" height="24" viewBox="0 0 24 24" fill="none">
  <path fill-rule="nonzero" clip-rule="nonzero" d="M 8.41799 3.25089 C 8.69867 2.65917 9.30155 2.25 10 2.25 H 14 C 14.6984 2.25 15.3013 2.65917 15.582 3.25089 C 16.2655 3.25586 16.7983 3.28724 17.2738 3.47309 C 17.842 3.69516 18.3362 4.07266 18.6999 4.56242 C 19.0668 5.0565 19.2391 5.68979 19.4762 6.56144 L 20.2181 9.28272 L 20.4985 10.124 C 20.5065 10.1339 20.5144 10.1438 20.5222 10.1539 C 21.4231 11.3076 20.9941 13.0235 20.1362 16.4553 C 19.5905 18.638 19.3176 19.7293 18.5039 20.3647 C 17.6901 21.0001 16.5652 21.0001 14.3153 21.0001 H 9.68462 C 7.43476 21.0001 6.30983 21.0001 5.49605 20.3647 C 4.68227 19.7293 4.40943 18.638 3.86376 16.4553 C 3.00581 13.0235 2.57684 11.3076 3.47767 10.1539 C 3.48555 10.1438 3.4935 10.1338 3.50152 10.1239 L 3.7819 9.28271 L 4.52384 6.56145 C 4.76092 5.6898 4.93316 5.0565 5.30009 4.56242 C 5.66381 4.07266 6.15802 3.69516 6.72621 3.4731 C 7.20175 3.28724 7.73447 3.25586 8.41799 3.25089 Z M 8.41951 4.75231 C 7.75763 4.759 7.49204 4.78427 7.27224 4.87018 C 6.96629 4.98976 6.70018 5.19303 6.50433 5.45674 C 6.32822 5.69388 6.22488 6.0252 5.93398 7.09206 L 5.36442 9.18091 C 6.38451 9.00012 7.77753 9.00012 9.68462 9.00012 H 14.3153 C 16.2224 9.00012 17.6155 9.00012 18.6356 9.18092 L 18.066 7.09206 C 17.7751 6.0252 17.6718 5.69388 17.4957 5.45674 C 17.2998 5.19303 17.0337 4.98976 16.7278 4.87018 C 16.508 4.78427 16.2424 4.759 15.5805 4.75231 C 15.2992 5.3423 14.6972 5.75 14 5.75 H 10 C 9.30281 5.75 8.70084 5.3423 8.41951 4.75231 Z" fill="#FFFFFF" />
</svg>