<svg xmlns="http://www.w3.org/2000/svg" width="24" height="24" viewBox="0 0 24 24" fill="none">
  <path d="M12.0305 8.96966C11.7376 8.67677 11.2628 8.67677 10.9699 8.96966C10.677 9.26255 10.677 9.73743 10.9699 10.0303L11.9395 11L10.9699 11.9697C10.677 12.2626 10.677 12.7374 10.9699 13.0303C11.2628 13.3232 11.7376 13.3232 12.0305 13.0303L13.0002 12.0607L13.9699 13.0303C14.2628 13.3232 14.7376 13.3232 15.0305 13.0303C15.3234 12.7374 15.3234 12.2626 15.0305 11.9697L14.0609 11L15.0305 10.0303C15.3234 9.73743 15.3234 9.26255 15.0305 8.96966C14.7376 8.67677 14.2628 8.67677 13.9699 8.96966L13.0002 9.93933L12.0305 8.96966Z" fill="#FFFFFF" />
  <path fill-rule="nonzero" clip-rule="nonzero" d="M 1.29266 2.75123 C 1.43005 2.36047 1.8582 2.15506 2.24896 2.29245 L 2.55036 2.39841 C 3.16689 2.61514 3.69052 2.79922 4.10261 3.00142 C 4.54324 3.21762 4.92109 3.48396 5.20527 3.89982 C 5.48725 4.31246 5.60367 4.76518 5.6574 5.26156 C 5.66124 5.29709 5.6648 5.33324 5.66809 5.36999 L 17.1203 5.36999 C 17.9389 5.36998 18.7735 5.36997 19.4606 5.44677 C 19.8103 5.48587 20.1569 5.54817 20.4634 5.65586 C 20.7639 5.76144 21.0942 5.93435 21.3292 6.23977 C 21.711 6.73616 21.7777 7.31417 21.7416 7.90037 C 21.7071 8.45848 21.5686 9.15237 21.4039 9.97726 L 21.3935 10.0295 L 21.3925 10.0341 L 20.8836 12.5034 C 20.7339 13.2298 20.6079 13.841 20.4455 14.3232 C 20.2731 14.8346 20.0341 15.2842 19.6076 15.6318 C 19.1811 15.9793 18.6925 16.1227 18.1568 16.1882 C 17.6518 16.25 17.0278 16.25 16.2862 16.25 L 10.8804 16.25 C 9.53464 16.25 8.44479 16.25 7.58656 16.1283 C 6.69032 16.0012 5.93752 15.7285 5.34366 15.1022 C 4.79742 14.526 4.50529 13.9144 4.35897 13.0601 C 4.22191 12.2599 4.20828 11.2125 4.20828 9.75999 V 7.03835 C 4.20828 6.2984 4.20726 5.80319 4.16611 5.42298 C 4.12678 5.05963 4.05708 4.87821 3.96682 4.74612 C 3.87876 4.61726 3.74509 4.49683 3.44186 4.34805 C 3.11902 4.18964 2.68026 4.03409 2.01266 3.79937 L 1.75145 3.70754 C 1.36068 3.57015 1.15527 3.142 1.29266 2.75123 Z M 5.70828 6.86999 L 5.70828 9.75999 C 5.70828 11.249 5.72628 12.1578 5.83744 12.8069 C 5.93933 13.4018 6.11202 13.7325 6.43219 14.0701 C 6.70473 14.3576 7.08235 14.5418 7.79716 14.6432 C 8.53783 14.7482 9.5209 14.75 10.9377 14.75 H 16.2406 C 17.0399 14.75 17.5714 14.7487 17.9746 14.6993 C 18.3573 14.6525 18.5348 14.571 18.66 14.469 C 18.7853 14.3669 18.9009 14.2095 19.024 13.8441 C 19.1537 13.4593 19.2623 12.9389 19.4237 12.1561 L 19.9225 9.73594 L 19.9229 9.73372 C 20.1005 8.84379 20.217 8.25153 20.2444 7.80796 C 20.2704 7.38651 20.2043 7.2393 20.1429 7.1579 C 20.1367 7.15262 20.0931 7.11568 19.9661 7.07104 C 19.8107 7.01642 19.5895 6.97052 19.2939 6.93748 C 18.6991 6.87099 17.9454 6.86999 17.089 6.86999 H 5.70828 Z" fill="#FFFFFF" />
  <path fill-rule="nonzero" clip-rule="nonzero" d="M5.2502 19.5 C5.2502 18.2573 6.25756 17.25 7.5002 17.25 C8.74285 17.25 9.7502 18.2573 9.7502 19.5 C9.7502 20.7426 8.74285 21.75 7.5002 21.75 C6.25756 21.75 5.2502 20.7426 5.2502 19.5 Z M7.5002 20.25 C7.91442 20.25 8.2502 19.9142 8.2502 19.5 C8.2502 19.0858 7.91442 18.75 7.5002 18.75 C7.08599 18.75 6.7502 19.0858 6.7502 19.5 C6.7502 19.9142 7.08599 20.25 7.5002 20.25 Z" fill="#FFFFFF" />
  <path fill-rule="nonzero" clip-rule="nonzero" d="M14.2502 19.5001 C14.2502 18.2574 15.2576 17.2501 16.5002 17.2501 C17.7428 17.2501 18.7502 18.2574 18.7502 19.5001 C18.7502 20.7427 17.7428 21.7501 16.5002 21.7501 C15.2576 21.7501 14.2502 20.7427 14.2502 19.5001 Z M16.5002 20.2501 C16.9144 20.2501 17.2502 19.9143 17.2502 19.5001 C17.2502 19.0859 16.9144 18.7501 16.5002 18.7501 C16.086 18.7501 15.7502 19.0859 15.7502 19.5001 C15.7502 19.9143 16.086 20.2501 16.5002 20.2501 Z" fill="#FFFFFF" />
</svg>