<svg xmlns="http://www.w3.org/2000/svg" width="24" height="24" viewBox="0 0 24 24" fill="none">
  <path fill-rule="nonzero" clip-rule="nonzero" d="M7.30681 1.24996 L16.6927 1.24996 C17.4937 1.24969 18.0433 1.24951 18.5318 1.38342 C19.5574 1.66458 20.4154 2.36798 20.8923 3.31853 C21.1194 3.77127 21.227 4.31024 21.3838 5.0957 L22.0034 8.19383 C22.235 9.35187 21.9176 10.4718 21.2498 11.3115 L21.2498 14.0564 C21.2498 15.8942 21.2498 17.3498 21.0966 18.489 C20.939 19.6614 20.6069 20.6104 19.8585 21.3587 C19.1102 22.1071 18.1612 22.4392 16.9888 22.5969 C15.8496 22.75 14.3939 22.75 12.5562 22.75 L11.4434 22.75 C9.60559 22.75 8.14996 22.75 7.01074 22.5969 C5.83832 22.4392 4.88937 22.1071 4.14101 21.3587 C3.39265 20.6104 3.06053 19.6614 2.9029 18.489 C2.74974 17.3498 2.74975 15.8942 2.74977 14.0564 L2.74977 11.3115 C2.08191 10.4718 1.76456 9.35186 1.99616 8.19383 L2.61576 5.0957 C2.77258 4.31024 2.88019 3.77127 3.1073 3.31853 C3.58414 2.36798 4.44215 1.66458 5.46776 1.38342 C5.95624 1.24951 6.50585 1.24969 7.30681 1.24996 Z M18.2682 12.75 C16.9942 12.75 15.8551 12.1215 15.1615 11.1455 C14.452 12.1138 13.3063 12.75 11.9996 12.75 C10.6929 12.75 9.54734 12.1139 8.83783 11.1458 C8.14422 12.1216 7.00523 12.75 5.73132 12.75 C5.20244 12.75 4.70264 12.6435 4.24977 12.4523 L4.24977 14 C4.24977 15.9068 4.25136 17.2615 4.38953 18.2891 C4.52479 19.2952 4.77846 19.8749 5.20167 20.2981 C5.62488 20.7213 6.20453 20.975 7.21062 21.1102 C7.6561 21.1701 8.16304 21.2044 8.74977 21.2239 L8.74977 18.4678 C8.74975 18.028 8.74973 17.6486 8.77795 17.3373 C8.80778 17.0082 8.87384 16.6822 9.05121 16.375 C9.24869 16.0329 9.53272 15.7489 9.87477 15.5514 C10.182 15.3741 10.5079 15.308 10.8371 15.2782 C11.1484 15.25 11.5278 15.25 11.9675 15.25 L12.032 15.25 C12.4718 15.25 12.8511 15.25 13.1624 15.2782 C13.4916 15.308 13.8176 15.3741 14.1248 15.5514 C14.4668 15.7489 14.7508 16.0329 14.9483 16.375 C15.1257 16.6822 15.1917 17.0082 15.2216 17.3373 C15.2498 17.6486 15.2498 18.028 15.2498 18.4678 L15.2498 21.2239 C15.8365 21.2044 16.3434 21.1701 16.7889 21.1102 C17.795 20.975 18.3747 20.7213 18.7979 20.2981 C19.2211 19.8749 19.4747 19.2952 19.61 18.2891 C19.7482 17.2615 19.7498 15.9068 19.7498 14 L19.7498 12.4524 C19.2969 12.6435 18.7971 12.75 18.2682 12.75 Z M 10.2498 21.248 C 10.6382 21.2499 11.0539 21.25 11.4998 21.25 H 12.4998 C 12.9457 21.25 13.3614 21.2499 13.7498 21.248 V 18.5 C 13.7498 18.0189 13.749 17.7082 13.7277 17.4727 C 13.7073 17.2476 13.6729 17.1659 13.6493 17.125 C 13.5835 17.011 13.4888 16.9163 13.3748 16.8505 C 13.3339 16.8269 13.2522 16.7925 13.027 16.772 C 12.7916 16.7507 12.4809 16.75 11.9998 16.75 C 11.5187 16.75 11.208 16.7507 10.9725 16.772 C 10.7474 16.7925 10.6656 16.8269 10.6248 16.8505 C 10.5108 16.9163 10.4161 17.011 10.3502 17.125 C 10.3267 17.1659 10.2922 17.2476 10.2718 17.4727 C 10.2505 17.7082 10.2498 18.0189 10.2498 18.5 V 21.248 Z M 8.67082 2.74999 H 7.41748 C 6.46302 2.74999 6.13246 2.75654 5.86433 2.83005 C 5.24897 2.99874 4.73416 3.42078 4.44806 3.99112 C 4.3234 4.23962 4.25214 4.56248 4.06496 5.4984 L 3.46703 8.48801 C 3.18126 9.91687 4.27415 11.25 5.73132 11.25 C 6.91763 11.25 7.91094 10.3511 8.02898 9.17063 L 8.09757 8.48474 L 8.10155 8.44273 L 8.67082 2.74999 Z M9.59103 8.62499 C9.46911 10.0341 10.5804 11.25 11.9996 11.25 C13.4298 11.25 14.5473 10.0151 14.405 8.59198 L13.8208 2.74999 L10.1785 2.74999 L9.59103 8.62499 Z M 18.1352 2.83005 C 17.8671 2.75654 17.5365 2.74999 16.5821 2.74999 H 15.3285 L 15.9706 9.17063 C 16.0886 10.3511 17.0819 11.25 18.2682 11.25 C 19.7254 11.25 20.8183 9.91687 20.5325 8.48801 L 19.9346 5.4984 C 19.7474 4.56248 19.6762 4.23962 19.5515 3.99112 C 19.2654 3.42078 18.7506 2.99874 18.1352 2.83005 Z" fill="#FFFFFF" />
</svg>