<svg xmlns="http://www.w3.org/2000/svg" width="24" height="24" viewBox="0 0 24 24" fill="none">
  <path fill-rule="nonzero" clip-rule="nonzero" d="M7.43548 1.25 L16.5649 1.25 C17.1349 1.24998 17.6188 1.24997 18.0187 1.29132 C18.4445 1.33534 18.8381 1.43094 19.2098 1.66071 C19.5816 1.89048 19.8431 2.19971 20.0729 2.56088 C20.2888 2.9001 20.5052 3.33297 20.7601 3.8428 L20.7765 3.87574 C20.7863 3.89518 20.7951 3.91504 20.8031 3.93526 L22.2067 7.4834 C22.3737 7.90559 22.5588 8.4323 22.613 8.97128 C22.6683 9.52258 22.5923 10.1541 22.1603 10.7019 C21.658 11.3389 20.8769 11.75 20.0001 11.75 C19.2121 11.75 18.5015 11.4186 18.0001 10.8875 C17.4988 11.4186 16.7882 11.75 16.0001 11.75 C15.2121 11.75 14.5015 11.4186 14.0001 10.8875 C13.4988 11.4186 12.7882 11.75 12.0001 11.75 C11.2121 11.75 10.5015 11.4186 10.0001 10.8875 C9.49875 11.4186 8.78815 11.75 8.00014 11.75 C7.21212 11.75 6.50152 11.4186 6.00014 10.8875 C5.49875 11.4186 4.78815 11.75 4.00014 11.75 C3.12341 11.75 2.34229 11.3389 1.83998 10.7019 C1.40802 10.1541 1.33204 9.52257 1.3874 8.97127 C1.44153 8.43229 1.62661 7.90559 1.79362 7.4834 L3.19724 3.93526 C3.20524 3.91504 3.21411 3.89518 3.22383 3.87574 L3.24033 3.84274 C3.49521 3.33294 3.71161 2.90009 3.92745 2.56088 C4.15726 2.19971 4.41876 1.89048 4.79053 1.66071 C5.1623 1.43094 5.55583 1.33534 5.98164 1.29132 C6.38157 1.24997 6.86552 1.24998 7.43548 1.25 Z M8.00014 10.25 C8.69049 10.25 9.25014 9.69036 9.25014 9 C9.25014 8.58579 9.58592 8.25 10.0001 8.25 C10.4144 8.25 10.7501 8.58579 10.7501 9 C10.7501 9.69036 11.3098 10.25 12.0001 10.25 C12.6905 10.25 13.2501 9.69036 13.2501 9 C13.2501 8.58579 13.5859 8.25 14.0001 8.25 C14.4144 8.25 14.7501 8.58579 14.7501 9 C14.7501 9.69036 15.3098 10.25 16.0001 10.25 C16.6905 10.25 17.2501 9.69036 17.2501 9 C17.2501 8.58579 17.5859 8.25 18.0001 8.25 C18.4144 8.25 18.7501 8.58579 18.7501 9 C18.7501 9.69036 19.3098 10.25 20.0001 10.25 C20.3981 10.25 20.7524 10.0649 20.9825 9.77305 C21.0965 9.62859 21.1516 9.43094 21.1205 9.12114 C21.0881 8.79903 20.9692 8.43275 20.8119 8.03518 L19.4203 4.51739 C19.1526 3.98204 18.9737 3.62749 18.8074 3.36612 C18.6474 3.1147 18.5328 3.00562 18.4212 2.93669 C18.3097 2.86776 18.1609 2.81401 17.8644 2.78336 C17.5507 2.75093 17.1448 2.75 16.528 2.75 L7.47236 2.75 C6.85556 2.75 6.44962 2.75093 6.13591 2.78336 C5.83949 2.81401 5.69066 2.86776 5.57913 2.93669 C5.4676 3.00562 5.35296 3.1147 5.19299 3.36612 C5.02668 3.62749 4.84778 3.98204 4.58006 4.51739 L3.18845 8.03518 C3.03117 8.43275 2.91224 8.79903 2.8799 9.12115 C2.84879 9.43095 2.90389 9.62861 3.01781 9.77307 C3.24793 10.0649 3.60218 10.25 4.00014 10.25 C4.69049 10.25 5.25014 9.69036 5.25014 9 C5.25014 8.58579 5.58592 8.25 6.00014 8.25 C6.41435 8.25 6.75014 8.58579 6.75014 9 C6.75014 9.69036 7.30978 10.25 8.00014 10.25 Z" fill="#FFFFFF" />
  <path d="M19.7502 15C19.7502 14.5858 19.4144 14.25 19.0002 14.25C18.586 14.25 18.2502 14.5858 18.2502 15V21.25H5.75022V15C5.75022 14.5858 5.41444 14.25 5.00022 14.25C4.58601 14.25 4.25022 14.5858 4.25022 15V21.25H3.00022C2.58601 21.25 2.25022 21.5858 2.25022 22C2.25022 22.4142 2.58601 22.75 3.00022 22.75H21.0002C21.4144 22.75 21.7502 22.4142 21.7502 22C21.7502 21.5858 21.4144 21.25 21.0002 21.25H19.7502V15Z" fill="#FFFFFF" />
</svg>