<svg xmlns="http://www.w3.org/2000/svg" width="24" height="24" viewBox="0 0 24 24" fill="none">
  <path d="M14.5 21.9913V18.5C14.5 17.5654 14.5 17.0981 14.299 16.75C14.1674 16.522 13.978 16.3326 13.75 16.201C13.4019 16 12.9346 16 12 16C11.0654 16 10.5981 16 10.25 16.201C10.022 16.3326 9.83261 16.522 9.70096 16.75C9.5 17.0981 9.5 17.5654 9.5 18.5V21.9913H14.5Z" fill="#FFFFFF" />
  <path opacity="0.5" fill-rule="nonzero" clip-rule="nonzero" d="M5.73204 12 C7.30367 12 8.6196 10.8091 8.77598 9.24523 L8.84499 8.55511 C8.6819 10.4038 10.139 12 12.0003 12 C13.8742 12 15.3385 10.382 15.152 8.51733 L15.225 9.24523 C15.3814 10.8091 16.6973 12 18.269 12 C19.1592 12 19.9468 11.6244 20.5 11.034 L20.5 14 C20.5 17.7712 20.5 19.6568 19.3284 20.8284 C18.3853 21.7715 16.9796 21.9554 14.5 21.9913 L9.5 21.9913 C7.02043 21.9554 5.61466 21.7715 4.67157 20.8284 C3.5 19.6568 3.5 17.7712 3.5 14 L3.5 11.0329 C4.05323 11.6239 4.84126 12 5.73204 12 Z M14.5 18.5 C14.5 17.5654 14.5 17.0981 14.299 16.75 C14.1674 16.522 13.978 16.3326 13.75 16.201 C13.4019 16 12.9346 16 12 16 C11.0654 16 10.5981 16 10.25 16.201 C10.022 16.3326 9.83261 16.522 9.70096 16.75 C9.5 17.0981 9.5 17.5654 9.5 18.5 L9.5 21.9913 L14.5 21.9913 L14.5 18.5 Z" fill="#FFFFFF" />
  <path d="M9.4998 2H14.4998L15.1515 8.51737C15.338 10.382 13.8737 12 11.9998 12C10.1259 12 8.6616 10.382 8.84806 8.51737L9.4998 2Z" fill="#FFFFFF" />
  <path opacity="0.7" d="M3.33024 5.35133C3.50832 4.46093 3.59736 4.01573 3.7784 3.65484C4.15987 2.89439 4.84628 2.33168 5.66677 2.10675C6.05616 2 6.51017 2 7.4182 2H9.50051L8.77598 9.24527C8.6196 10.8091 7.30367 12 5.73204 12C3.80159 12 2.35373 10.2339 2.73232 8.34093L3.33024 5.35133Z" fill="#FFFFFF" />
  <path opacity="0.7" d="M20.6703 5.35133C20.4922 4.46093 20.4031 4.01573 20.2221 3.65484C19.8406 2.89439 19.1542 2.33168 18.3337 2.10675C17.9443 2 17.4903 2 16.5823 2H14.5L15.2245 9.24527C15.3809 10.8091 16.6968 12 18.2685 12C20.1989 12 21.6468 10.2339 21.2682 8.34093L20.6703 5.35133Z" fill="#FFFFFF" />
</svg>