<svg xmlns="http://www.w3.org/2000/svg" width="24" height="24" viewBox="0 0 24 24" fill="none">
  <path fill-rule="nonzero" clip-rule="nonzero" d="M 7.43526 1.25 H 16.5647 C 17.1346 1.24998 17.6186 1.24997 18.0185 1.29132 C 18.4443 1.33534 18.8378 1.43094 19.2096 1.66071 C 19.5814 1.89048 19.8429 2.19971 20.0727 2.56088 C 20.2885 2.9001 20.5049 3.33297 20.7598 3.8428 L 20.7763 3.87574 C 20.786 3.89518 20.7949 3.91504 20.8029 3.93526 L 22.2065 7.4834 C 22.3735 7.90559 22.5586 8.4323 22.6127 8.97128 C 22.6681 9.52258 22.5921 10.1541 22.1601 10.7019 C 21.8068 11.15 21.3155 11.4863 20.75 11.6463 V 21.25 H 22 C 22.4142 21.25 22.75 21.5858 22.75 22 C 22.75 22.4142 22.4142 22.75 22 22.75 H 2 C 1.58579 22.75 1.25 22.4142 1.25 22 C 1.25 21.5858 1.58579 21.25 2 21.25 H 3.25 V 11.6464 C 2.68446 11.4863 2.19312 11.15 1.83975 10.7019 C 1.40779 10.1541 1.33182 9.52257 1.38718 8.97127 C 1.4413 8.43229 1.62639 7.90559 1.7934 7.4834 L 3.19701 3.93526 C 3.20501 3.91504 3.21388 3.89518 3.22361 3.87574 L 3.2401 3.84275 C 3.49498 3.33295 3.71139 2.90009 3.92723 2.56088 C 4.15704 2.19971 4.41853 1.89048 4.79031 1.66071 C 5.16208 1.43094 5.55561 1.33534 5.98142 1.29132 C 6.38134 1.24997 6.86529 1.24998 7.43526 1.25 Z M17.9999 10.8875 C17.4985 11.4186 16.7879 11.75 15.9999 11.75 C15.2119 11.75 14.5013 11.4186 13.9999 10.8875 C13.4985 11.4186 12.7879 11.75 11.9999 11.75 C11.2119 11.75 10.5013 11.4186 9.99992 10.8875 C9.49853 11.4186 8.78793 11.75 7.99991 11.75 C7.2119 11.75 6.5013 11.4186 5.99992 10.8875 C5.66398 11.2433 5.23413 11.5095 4.75 11.6465 L4.75 21.25 L8.75 21.25 L8.75 18.4677 C8.74998 18.028 8.74997 17.6486 8.77818 17.3374 C8.80802 17.0082 8.87407 16.6822 9.05144 16.375 C9.24892 16.033 9.53296 15.7489 9.875 15.5514 C10.1822 15.3741 10.5082 15.308 10.8373 15.2782 C11.1486 15.25 11.528 15.25 11.9678 15.25 L12.0322 15.25 C12.472 15.25 12.8514 15.25 13.1627 15.2782 C13.4918 15.308 13.8178 15.3741 14.125 15.5514 C14.467 15.7489 14.7511 16.033 14.9486 16.375 C15.1259 16.6822 15.192 17.0082 15.2218 17.3374 C15.25 17.6486 15.25 18.028 15.25 18.4678 L15.25 21.25 L19.25 21.25 L19.25 11.6465 C18.7658 11.5096 18.3359 11.2433 17.9999 10.8875 Z M 10.25 21.25 H 13.75 V 18.5 C 13.75 18.0189 13.7493 17.7082 13.7279 17.4727 C 13.7075 17.2476 13.6731 17.1659 13.6495 17.125 C 13.5837 17.011 13.489 16.9163 13.375 16.8505 C 13.3341 16.8269 13.2524 16.7925 13.0273 16.7721 C 12.7918 16.7507 12.4811 16.75 12 16.75 C 11.5189 16.75 11.2082 16.7507 10.9727 16.7721 C 10.7476 16.7925 10.6659 16.8269 10.625 16.8505 C 10.511 16.9163 10.4163 17.011 10.3505 17.125 C 10.3269 17.1659 10.2925 17.2476 10.2721 17.4727 C 10.2507 17.7082 10.25 18.0189 10.25 18.5 V 21.25 Z M 6.74991 9 C 6.74991 9.69036 7.30956 10.25 7.99991 10.25 C 8.69027 10.25 9.24991 9.69036 9.24991 9 C 9.24991 8.58579 9.5857 8.25 9.99991 8.25 C 10.4141 8.25 10.7499 8.58579 10.7499 9 C 10.7499 9.69036 11.3096 10.25 11.9999 10.25 C 12.6903 10.25 13.2499 9.69036 13.2499 9 C 13.2499 8.58579 13.5857 8.25 13.9999 8.25 C 14.4141 8.25 14.7499 8.58579 14.7499 9 C 14.7499 9.69036 15.3096 10.25 15.9999 10.25 C 16.6903 10.25 17.2499 9.69036 17.2499 9 C 17.2499 8.58579 17.5857 8.25 17.9999 8.25 C 18.4141 8.25 18.7499 8.58579 18.7499 9 C 18.7499 9.69036 19.3096 10.25 19.9999 10.25 C 20.3979 10.25 20.7522 10.0649 20.9823 9.77305 C 21.0962 9.62859 21.1513 9.43094 21.1202 9.12114 C 21.0879 8.79903 20.969 8.43275 20.8117 8.03518 L 19.4201 4.51739 C 19.1524 3.98204 18.9735 3.62749 18.8071 3.36612 C 18.6472 3.1147 18.5325 3.00562 18.421 2.93669 C 18.3095 2.86776 18.1606 2.81401 17.8642 2.78336 C 17.5505 2.75093 17.1446 2.75 16.5278 2.75 H 7.47214 C 6.85533 2.75 6.4494 2.75093 6.13569 2.78336 C 5.83927 2.81401 5.69044 2.86776 5.5789 2.93669 C 5.46737 3.00562 5.35274 3.1147 5.19276 3.36612 C 5.02646 3.62749 4.84755 3.98204 4.57983 4.51739 L 3.18823 8.03518 C 3.03095 8.43275 2.91202 8.79903 2.87967 9.12115 C 2.84856 9.43095 2.90366 9.62861 3.01759 9.77307 C 3.2477 10.0649 3.60196 10.25 3.99991 10.25 C 4.69027 10.25 5.24991 9.69036 5.24991 9 C 5.24991 8.58579 5.5857 8.25 5.99991 8.25 C 6.41413 8.25 6.74991 8.58579 6.74991 9 Z" fill="#FFFFFF" />
</svg>