<svg xmlns="http://www.w3.org/2000/svg" width="24" height="24" viewBox="0 0 24 24" fill="none">
  <path fill-rule="nonzero" clip-rule="nonzero" d="M 7.46778 2.25 H 7.53223 C 7.97201 2.24998 8.35136 2.24997 8.66265 2.27818 C 8.99183 2.30802 9.31779 2.37407 9.625 2.55144 C 9.96704 2.74892 10.2511 3.03296 10.4486 3.375 C 10.6259 3.68221 10.692 4.00817 10.7218 4.33735 C 10.75 4.64865 10.75 5.028 10.75 5.4678 L 10.75 14.5322 C 10.75 14.972 10.75 15.3514 10.7218 15.6627 C 10.692 15.9918 10.6259 16.3178 10.4486 16.625 C 10.2511 16.967 9.96704 17.2511 9.625 17.4486 C 9.31779 17.6259 8.99183 17.692 8.66265 17.7218 C 8.35135 17.75 7.972 17.75 7.53221 17.75 H 7.46779 C 7.028 17.75 6.64865 17.75 6.33735 17.7218 C 6.00817 17.692 5.68221 17.6259 5.375 17.4486 C 5.03296 17.2511 4.74892 16.967 4.55144 16.625 C 4.37407 16.3178 4.30802 15.9918 4.27818 15.6627 C 4.24997 15.3514 4.24998 14.972 4.25 14.5322 L 4.25 5.5 C 4.25 5.48922 4.25 5.47848 4.25 5.46778 C 4.24998 5.02799 4.24997 4.64864 4.27818 4.33735 C 4.30802 4.00817 4.37407 3.68221 4.55144 3.375 C 4.74892 3.03296 5.03296 2.74892 5.375 2.55144 C 5.68221 2.37408 6.00817 2.30802 6.33735 2.27818 C 6.64864 2.24997 7.02799 2.24998 7.46778 2.25 Z M 6.47274 3.77206 C 6.2476 3.79247 6.16586 3.82689 6.125 3.85048 C 6.01098 3.91631 5.91631 4.01099 5.85048 4.125 C 5.82689 4.16587 5.79246 4.2476 5.77206 4.47275 C 5.75072 4.7082 5.75 5.01889 5.75 5.5 L 5.75 14.5 C 5.75 14.9811 5.75072 15.2918 5.77206 15.5273 C 5.79246 15.7524 5.82689 15.8341 5.85048 15.875 C 5.91631 15.989 6.01098 16.0837 6.125 16.1495 C 6.16586 16.1731 6.2476 16.2075 6.47274 16.2279 C 6.7082 16.2493 7.01889 16.25 7.5 16.25 C 7.98111 16.25 8.2918 16.2493 8.52725 16.2279 C 8.7524 16.2075 8.83414 16.1731 8.875 16.1495 C 8.98901 16.0837 9.08369 15.989 9.14952 15.875 C 9.17311 15.8341 9.20754 15.7524 9.22794 15.5273 C 9.24928 15.2918 9.25 14.9811 9.25 14.5 L 9.25 5.5 C 9.25 5.01889 9.24928 4.7082 9.22794 4.47275 C 9.20753 4.2476 9.17311 4.16586 9.14952 4.125 C 9.08369 4.01099 8.98901 3.91631 8.875 3.85048 C 8.83414 3.82689 8.7524 3.79247 8.52725 3.77206 C 8.2918 3.75072 7.98111 3.75 7.5 3.75 C 7.01889 3.75 6.7082 3.75072 6.47274 3.77206 Z M 16.4678 5.25 H 16.5322 C 16.972 5.24998 17.3514 5.24997 17.6627 5.27818 C 17.9918 5.30802 18.3178 5.37407 18.625 5.55144 C 18.967 5.74892 19.2511 6.03296 19.4486 6.375 C 19.6259 6.68221 19.692 7.00817 19.7218 7.33735 C 19.75 7.64864 19.75 8.02797 19.75 8.46775 V 14.5322 C 19.75 14.972 19.75 15.3514 19.7218 15.6627 C 19.692 15.9918 19.6259 16.3178 19.4486 16.625 C 19.2511 16.967 18.967 17.2511 18.625 17.4486 C 18.3178 17.6259 17.9918 17.692 17.6627 17.7218 C 17.3514 17.75 16.972 17.75 16.5322 17.75 H 16.4678 C 16.028 17.75 15.6486 17.75 15.3373 17.7218 C 15.0082 17.692 14.6822 17.6259 14.375 17.4486 C 14.033 17.2511 13.7489 16.967 13.5514 16.625 C 13.3741 16.3178 13.308 15.9918 13.2782 15.6627 C 13.25 15.3514 13.25 14.972 13.25 14.5322 V 8.46776 C 13.25 8.02798 13.25 7.64864 13.2782 7.33735 C 13.308 7.00817 13.3741 6.68222 13.5514 6.375 C 13.7489 6.03296 14.033 5.74892 14.375 5.55144 C 14.6822 5.37408 15.0082 5.30802 15.3373 5.27818 C 15.6486 5.24997 16.028 5.24998 16.4678 5.25 Z M 15.4727 6.77206 C 15.2476 6.79247 15.1659 6.82689 15.125 6.85048 C 15.011 6.91631 14.9163 7.01099 14.8505 7.125 C 14.8269 7.16586 14.7925 7.2476 14.7721 7.47275 C 14.7507 7.7082 14.75 8.01889 14.75 8.5 V 14.5 C 14.75 14.9811 14.7507 15.2918 14.7721 15.5273 C 14.7925 15.7524 14.8269 15.8341 14.8505 15.875 C 14.9163 15.989 15.011 16.0837 15.125 16.1495 C 15.1659 16.1731 15.2476 16.2075 15.4727 16.2279 C 15.7082 16.2493 16.0189 16.25 16.5 16.25 C 16.9811 16.25 17.2918 16.2493 17.5273 16.2279 C 17.7524 16.2075 17.8341 16.1731 17.875 16.1495 C 17.989 16.0837 18.0837 15.989 18.1495 15.875 C 18.1731 15.8341 18.2075 15.7524 18.2279 15.5273 C 18.2493 15.2918 18.25 14.9811 18.25 14.5 V 8.5 C 18.25 8.01889 18.2493 7.7082 18.2279 7.47275 C 18.2075 7.2476 18.1731 7.16586 18.1495 7.125 C 18.0837 7.01099 17.989 6.91631 17.875 6.85048 C 17.8341 6.82689 17.7524 6.79247 17.5273 6.77206 C 17.2918 6.75072 16.9811 6.75 16.5 6.75 C 16.0189 6.75 15.7082 6.75072 15.4727 6.77206 Z M 1.25 21 C 1.25 20.5858 1.58579 20.25 2 20.25 H 22 C 22.4142 20.25 22.75 20.5858 22.75 21 C 22.75 21.4142 22.4142 21.75 22 21.75 H 2 C 1.58579 21.75 1.25 21.4142 1.25 21 Z" fill="#FFFFFF" />
</svg>