<svg xmlns="http://www.w3.org/2000/svg" width="24" height="24" viewBox="0 0 24 24" fill="none">
  <path fill-rule="nonzero" clip-rule="nonzero" d="M 1.25 3 C 1.25 2.58579 1.58579 2.25 2 2.25 L 22 2.25 C 22.4142 2.25 22.75 2.58579 22.75 3 C 22.75 3.41422 22.4142 3.75 22 3.75 L 2 3.75 C 1.58579 3.75 1.25 3.41421 1.25 3 Z M 7.94801 7.25 H 16.052 C 16.9505 7.24997 17.6997 7.24995 18.2945 7.32991 C 18.9223 7.41432 19.4891 7.59999 19.9445 8.05546 C 20.4 8.51093 20.5857 9.07773 20.6701 9.70552 C 20.7501 10.3003 20.75 11.0495 20.75 11.948 V 12.052 C 20.75 12.9505 20.7501 13.6997 20.6701 14.2945 C 20.5857 14.9223 20.4 15.4891 19.9445 15.9445 C 19.4891 16.4 18.9223 16.5857 18.2945 16.6701 C 17.6997 16.7501 16.9505 16.75 16.052 16.75 H 7.94801 C 7.04952 16.75 6.3003 16.7501 5.70552 16.6701 C 5.07773 16.5857 4.51093 16.4 4.05546 15.9445 C 3.59999 15.4891 3.41432 14.9223 3.32991 14.2945 C 3.24995 13.6997 3.24997 12.9505 3.25 12.052 V 11.948 C 3.24997 11.0495 3.24995 10.3003 3.32991 9.70552 C 3.41432 9.07773 3.59999 8.51093 4.05546 8.05546 C 4.51093 7.59999 5.07773 7.41432 5.70552 7.32991 C 6.3003 7.24995 7.04952 7.24997 7.94801 7.25 Z M 5.90539 8.81654 C 5.44393 8.87858 5.24643 8.9858 5.11612 9.11612 C 4.9858 9.24644 4.87858 9.44393 4.81654 9.90539 C 4.75159 10.3884 4.75 11.036 4.75 12 C 4.75 12.964 4.75159 13.6116 4.81654 14.0946 C 4.87858 14.5561 4.9858 14.7536 5.11612 14.8839 C 5.24643 15.0142 5.44393 15.1214 5.90539 15.1835 C 6.38843 15.2484 7.03599 15.25 8 15.25 H 16 C 16.964 15.25 17.6116 15.2484 18.0946 15.1835 C 18.5561 15.1214 18.7536 15.0142 18.8839 14.8839 C 19.0142 14.7536 19.1214 14.5561 19.1835 14.0946 C 19.2484 13.6116 19.25 12.964 19.25 12 C 19.25 11.036 19.2484 10.3884 19.1835 9.90539 C 19.1214 9.44393 19.0142 9.24644 18.8839 9.11612 C 18.7536 8.9858 18.5561 8.87858 18.0946 8.81654 C 17.6116 8.7516 16.964 8.75 16 8.75 H 8 C 7.03599 8.75 6.38843 8.7516 5.90539 8.81654 Z M 1.25 21 C 1.25 20.5858 1.58579 20.25 2 20.25 L 22 20.25 C 22.4142 20.25 22.75 20.5858 22.75 21 C 22.75 21.4142 22.4142 21.75 22 21.75 L 2 21.75 C 1.58579 21.75 1.25 21.4142 1.25 21 Z" fill="#FFFFFF" />
</svg>