<svg xmlns="http://www.w3.org/2000/svg" width="24" height="24" viewBox="0 0 24 24" fill="none">
  <path fill-rule="nonzero" clip-rule="nonzero" d="M 7.46777 4.25 H 7.53222 C 7.97201 4.24998 8.35136 4.24997 8.66265 4.27818 C 8.99183 4.30802 9.31779 4.37408 9.625 4.55144 C 9.96704 4.74892 10.2511 5.03296 10.4486 5.375 C 10.6259 5.68221 10.692 6.00817 10.7218 6.33735 C 10.75 6.64865 10.75 7.028 10.75 7.4678 L 10.75 11.25 H 13.25 V 9.4678 C 13.25 9.028 13.25 8.64865 13.2782 8.33735 C 13.308 8.00817 13.3741 7.68221 13.5514 7.375 C 13.7489 7.03296 14.033 6.74892 14.375 6.55144 C 14.6822 6.37407 15.0082 6.30802 15.3373 6.27818 C 15.6486 6.24997 16.028 6.24998 16.4678 6.25 H 16.5322 C 16.972 6.24998 17.3514 6.24997 17.6627 6.27818 C 17.9918 6.30802 18.3178 6.37408 18.625 6.55144 C 18.967 6.74892 19.2511 7.03296 19.4486 7.375 C 19.6259 7.68221 19.692 8.00817 19.7218 8.33735 C 19.75 8.64864 19.75 9.02797 19.75 9.46775 V 11.25 H 22 C 22.4142 11.25 22.75 11.5858 22.75 12 C 22.75 12.4142 22.4142 12.75 22 12.75 H 19.75 V 14.5322 C 19.75 14.972 19.75 15.3514 19.7218 15.6627 C 19.692 15.9918 19.6259 16.3178 19.4486 16.625 C 19.2511 16.967 18.967 17.2511 18.625 17.4486 C 18.3178 17.6259 17.9918 17.692 17.6627 17.7218 C 17.3514 17.75 16.972 17.75 16.5322 17.75 H 16.4678 C 16.028 17.75 15.6486 17.75 15.3373 17.7218 C 15.0082 17.692 14.6822 17.6259 14.375 17.4486 C 14.033 17.2511 13.7489 16.967 13.5514 16.625 C 13.3741 16.3178 13.308 15.9918 13.2782 15.6627 C 13.25 15.3514 13.25 14.972 13.25 14.5322 V 12.75 H 10.75 V 16.5322 C 10.75 16.972 10.75 17.3514 10.7218 17.6627 C 10.692 17.9918 10.6259 18.3178 10.4486 18.625 C 10.2511 18.967 9.96704 19.2511 9.625 19.4486 C 9.31779 19.6259 8.99183 19.692 8.66265 19.7218 C 8.35135 19.75 7.972 19.75 7.53221 19.75 H 7.46779 C 7.028 19.75 6.64865 19.75 6.33735 19.7218 C 6.00817 19.692 5.68221 19.6259 5.375 19.4486 C 5.03296 19.2511 4.74892 18.967 4.55144 18.625 C 4.37407 18.3178 4.30802 17.9918 4.27818 17.6627 C 4.24997 17.3514 4.24998 16.972 4.25 16.5322 L 4.25 12.75 H 2 C 1.58579 12.75 1.25 12.4142 1.25 12 C 1.25 11.5858 1.58579 11.25 2 11.25 H 4.25 L 4.25 7.5 C 4.25 7.48922 4.25 7.47848 4.25 7.46778 C 4.24998 7.02799 4.24997 6.64864 4.27818 6.33735 C 4.30802 6.00817 4.37407 5.68221 4.55144 5.375 C 4.74892 5.03296 5.03296 4.74892 5.375 4.55144 C 5.68221 4.37407 6.00817 4.30802 6.33735 4.27818 C 6.64864 4.24997 7.02798 4.24998 7.46777 4.25 Z M5.75 12.001 L5.75 16.5 C5.75 16.9811 5.75072 17.2918 5.77206 17.5273 C5.79246 17.7524 5.82689 17.8341 5.85048 17.875 C5.91631 17.989 6.01098 18.0837 6.125 18.1495 C6.16586 18.1731 6.2476 18.2075 6.47274 18.2279 C6.7082 18.2493 7.01889 18.25 7.5 18.25 C7.98111 18.25 8.2918 18.2493 8.52725 18.2279 C8.7524 18.2075 8.83414 18.1731 8.875 18.1495 C8.98901 18.0837 9.08369 17.989 9.14952 17.875 C9.17311 17.8341 9.20753 17.7524 9.22794 17.5273 C9.24928 17.2918 9.25 16.9811 9.25 16.5 L9.25 7.5 C9.25 7.01889 9.24928 6.7082 9.22794 6.47275 C9.20754 6.2476 9.17311 6.16587 9.14952 6.125 C9.08369 6.01099 8.98901 5.91631 8.875 5.85048 C8.83414 5.82689 8.7524 5.79247 8.52725 5.77206 C8.2918 5.75072 7.98111 5.75 7.5 5.75 C7.01889 5.75 6.7082 5.75072 6.47274 5.77206 C6.2476 5.79247 6.16586 5.82689 6.125 5.85048 C6.01098 5.91631 5.91631 6.01099 5.85048 6.125 C5.82689 6.16586 5.79246 6.2476 5.77206 6.47275 C5.75072 6.7082 5.75 7.01889 5.75 7.5 L5.75 11.999 C5.75 11.9993 5.75 11.9997 5.75 12 C5.75 12.0004 5.75 12.0007 5.75 12.001 Z M 14.75 14.5 C 14.75 14.9811 14.7507 15.2918 14.7721 15.5273 C 14.7925 15.7524 14.8269 15.8341 14.8505 15.875 C 14.9163 15.989 15.011 16.0837 15.125 16.1495 C 15.1659 16.1731 15.2476 16.2075 15.4727 16.2279 C 15.7082 16.2493 16.0189 16.25 16.5 16.25 C 16.9811 16.25 17.2918 16.2493 17.5273 16.2279 C 17.7524 16.2075 17.8341 16.1731 17.875 16.1495 C 17.989 16.0837 18.0837 15.989 18.1495 15.875 C 18.1731 15.8341 18.2075 15.7524 18.2279 15.5273 C 18.2493 15.2918 18.25 14.9811 18.25 14.5 V 9.5 C 18.25 9.01889 18.2493 8.7082 18.2279 8.47275 C 18.2075 8.2476 18.1731 8.16586 18.1495 8.125 C 18.0837 8.01099 17.989 7.91631 17.875 7.85048 C 17.8341 7.82689 17.7524 7.79247 17.5273 7.77206 C 17.2918 7.75072 16.9811 7.75 16.5 7.75 C 16.0189 7.75 15.7082 7.75072 15.4727 7.77206 C 15.2476 7.79247 15.1659 7.82689 15.125 7.85048 C 15.011 7.91631 14.9163 8.01099 14.8505 8.125 C 14.8269 8.16586 14.7925 8.2476 14.7721 8.47275 C 14.7507 8.7082 14.75 9.01889 14.75 9.5 V 14.5 Z" fill="#FFFFFF" />
</svg>