<svg xmlns="http://www.w3.org/2000/svg" width="24" height="24" viewBox="0 0 24 24" fill="none">
  <path fill-rule="nonzero" clip-rule="nonzero" d="M 3 1.25 C 3.41422 1.25 3.75 1.58579 3.75 2 L 3.75 22 C 3.75 22.4142 3.41421 22.75 3 22.75 C 2.58579 22.75 2.25 22.4142 2.25 22 L 2.25 2 C 2.25 1.58579 2.58579 1.25 3 1.25 Z M 21 1.25 C 21.4142 1.25 21.75 1.58579 21.75 2 L 21.75 22 C 21.75 22.4142 21.4142 22.75 21 22.75 C 20.5858 22.75 20.25 22.4142 20.25 22 L 20.25 2 C 20.25 1.58579 20.5858 1.25 21 1.25 Z M 11.948 3.25 H 12.052 C 12.9505 3.24997 13.6997 3.24994 14.2945 3.32991 C 14.9223 3.41432 15.4891 3.59999 15.9445 4.05546 C 16.4 4.51093 16.5857 5.07773 16.6701 5.70552 C 16.7501 6.3003 16.75 7.04952 16.75 7.94801 V 16.052 C 16.75 16.9505 16.7501 17.6997 16.6701 18.2945 C 16.5857 18.9223 16.4 19.4891 15.9445 19.9445 C 15.4891 20.4 14.9223 20.5857 14.2945 20.6701 C 13.6997 20.7501 12.9505 20.75 12.052 20.75 H 11.948 C 11.0495 20.75 10.3003 20.7501 9.70552 20.6701 C 9.07773 20.5857 8.51093 20.4 8.05546 19.9445 C 7.59999 19.4891 7.41432 18.9223 7.32991 18.2945 C 7.24995 17.6997 7.24997 16.9505 7.25 16.052 V 7.94801 C 7.24997 7.04952 7.24995 6.3003 7.32991 5.70552 C 7.41432 5.07773 7.59999 4.51093 8.05546 4.05546 C 8.51093 3.59999 9.07773 3.41432 9.70552 3.32991 C 10.3003 3.24995 11.0495 3.24997 11.948 3.25 Z M 9.90539 4.81654 C 9.44393 4.87858 9.24643 4.9858 9.11612 5.11612 C 8.9858 5.24643 8.87858 5.44393 8.81654 5.90539 C 8.75159 6.38843 8.75 7.03599 8.75 8 V 16 C 8.75 16.964 8.75159 17.6116 8.81654 18.0946 C 8.87858 18.5561 8.9858 18.7536 9.11612 18.8839 C 9.24643 19.0142 9.44393 19.1214 9.90539 19.1835 C 10.3884 19.2484 11.036 19.25 12 19.25 C 12.964 19.25 13.6116 19.2484 14.0946 19.1835 C 14.5561 19.1214 14.7536 19.0142 14.8839 18.8839 C 15.0142 18.7536 15.1214 18.5561 15.1835 18.0946 C 15.2484 17.6116 15.25 16.964 15.25 16 V 8 C 15.25 7.03599 15.2484 6.38843 15.1835 5.90539 C 15.1214 5.44393 15.0142 5.24643 14.8839 5.11612 C 14.7536 4.9858 14.5561 4.87858 14.0946 4.81654 C 13.6116 4.75159 12.964 4.75 12 4.75 C 11.036 4.75 10.3884 4.75159 9.90539 4.81654 Z" fill="#FFFFFF" />
</svg>