<svg xmlns="http://www.w3.org/2000/svg" width="24" height="24" viewBox="0 0 24 24" fill="none">
  <path fill-rule="nonzero" clip-rule="nonzero" d="M 1.25 3 C 1.25 2.58579 1.58579 2.25 2 2.25 L 22 2.25 C 22.4142 2.25 22.75 2.58579 22.75 3 C 22.75 3.41421 22.4142 3.75 22 3.75 L 2 3.75 C 1.58579 3.75 1.25 3.41421 1.25 3 Z M 7.46777 6.25 H 7.53223 C 7.97201 6.24998 8.35136 6.24997 8.66265 6.27818 C 8.99183 6.30802 9.31779 6.37407 9.625 6.55144 C 9.96704 6.74892 10.2511 7.03296 10.4486 7.375 C 10.6259 7.68221 10.692 8.00817 10.7218 8.33735 C 10.75 8.64865 10.75 9.028 10.75 9.46779 L 10.75 18.5322 C 10.75 18.972 10.75 19.3514 10.7218 19.6626 C 10.692 19.9918 10.6259 20.3178 10.4486 20.625 C 10.2511 20.967 9.96704 21.2511 9.625 21.4486 C 9.31779 21.6259 8.99183 21.692 8.66265 21.7218 C 8.35136 21.75 7.97203 21.75 7.53225 21.75 H 7.46775 C 7.02797 21.75 6.64864 21.75 6.33735 21.7218 C 6.00817 21.692 5.68221 21.6259 5.375 21.4486 C 5.03296 21.2511 4.74892 20.967 4.55144 20.625 C 4.37407 20.3178 4.30802 19.9918 4.27818 19.6626 C 4.24997 19.3514 4.24998 18.972 4.25 18.5322 L 4.25 9.46777 C 4.24998 9.02799 4.24997 8.64864 4.27818 8.33735 C 4.30802 8.00817 4.37407 7.68221 4.55144 7.375 C 4.74892 7.03296 5.03296 6.74892 5.375 6.55144 C 5.68221 6.37407 6.00817 6.30802 6.33735 6.27818 C 6.64864 6.24997 7.02798 6.24998 7.46777 6.25 Z M 6.47274 7.77206 C 6.2476 7.79246 6.16586 7.82689 6.125 7.85048 C 6.01099 7.91631 5.91631 8.01099 5.85048 8.125 C 5.82689 8.16586 5.79246 8.2476 5.77206 8.47274 C 5.75072 8.7082 5.75 9.01889 5.75 9.5 L 5.75 18.5 C 5.75 18.9811 5.75072 19.2918 5.77206 19.5273 C 5.79246 19.7524 5.82689 19.8341 5.85048 19.875 C 5.91631 19.989 6.01098 20.0837 6.125 20.1495 C 6.16586 20.1731 6.2476 20.2075 6.47274 20.2279 C 6.7082 20.2493 7.01889 20.25 7.5 20.25 C 7.98111 20.25 8.2918 20.2493 8.52725 20.2279 C 8.7524 20.2075 8.83414 20.1731 8.875 20.1495 C 8.98901 20.0837 9.08369 19.989 9.14952 19.875 C 9.17311 19.8341 9.20753 19.7524 9.22794 19.5273 C 9.24928 19.2918 9.25 18.9811 9.25 18.5 L 9.25 9.5 C 9.25 9.01889 9.24928 8.7082 9.22794 8.47275 C 9.20754 8.2476 9.17311 8.16586 9.14952 8.125 C 9.08369 8.01099 8.98901 7.91631 8.875 7.85048 C 8.83414 7.82689 8.7524 7.79246 8.52725 7.77206 C 8.2918 7.75072 7.98111 7.75 7.5 7.75 C 7.01889 7.75 6.7082 7.75072 6.47274 7.77206 Z M 16.4678 6.25 H 16.5322 C 16.972 6.24998 17.3514 6.24997 17.6627 6.27818 C 17.9918 6.30802 18.3178 6.37407 18.625 6.55144 C 18.967 6.74892 19.2511 7.03296 19.4486 7.375 C 19.6259 7.68221 19.692 8.00817 19.7218 8.33735 C 19.75 8.64864 19.75 9.02797 19.75 9.46775 V 15.5322 C 19.75 15.972 19.75 16.3514 19.7218 16.6627 C 19.692 16.9918 19.6259 17.3178 19.4486 17.625 C 19.2511 17.967 18.967 18.2511 18.625 18.4486 C 18.3178 18.6259 17.9918 18.692 17.6627 18.7218 C 17.3514 18.75 16.972 18.75 16.5322 18.75 H 16.4678 C 16.028 18.75 15.6486 18.75 15.3373 18.7218 C 15.0082 18.692 14.6822 18.6259 14.375 18.4486 C 14.033 18.2511 13.7489 17.967 13.5514 17.625 C 13.3741 17.3178 13.308 16.9918 13.2782 16.6626 C 13.25 16.3514 13.25 15.972 13.25 15.5322 V 9.46779 C 13.25 9.028 13.25 8.64865 13.2782 8.33735 C 13.308 8.00817 13.3741 7.68221 13.5514 7.375 C 13.7489 7.03296 14.033 6.74892 14.375 6.55144 C 14.6822 6.37407 15.0082 6.30802 15.3373 6.27818 C 15.6486 6.24997 16.028 6.24998 16.4678 6.25 Z M 15.4727 7.77206 C 15.2476 7.79246 15.1659 7.82689 15.125 7.85048 C 15.011 7.91631 14.9163 8.01098 14.8505 8.125 C 14.8269 8.16586 14.7925 8.2476 14.7721 8.47275 C 14.7507 8.7082 14.75 9.01889 14.75 9.5 V 15.5 C 14.75 15.9811 14.7507 16.2918 14.7721 16.5273 C 14.7925 16.7524 14.8269 16.8341 14.8505 16.875 C 14.9163 16.989 15.011 17.0837 15.125 17.1495 C 15.1659 17.1731 15.2476 17.2075 15.4727 17.2279 C 15.7082 17.2493 16.0189 17.25 16.5 17.25 C 16.9811 17.25 17.2918 17.2493 17.5273 17.2279 C 17.7524 17.2075 17.8341 17.1731 17.875 17.1495 C 17.989 17.0837 18.0837 16.989 18.1495 16.875 C 18.1731 16.8341 18.2075 16.7524 18.2279 16.5273 C 18.2493 16.2918 18.25 15.9811 18.25 15.5 V 9.5 C 18.25 9.01889 18.2493 8.7082 18.2279 8.47275 C 18.2075 8.2476 18.1731 8.16586 18.1495 8.125 C 18.0837 8.01099 17.989 7.91631 17.875 7.85048 C 17.8341 7.82689 17.7524 7.79246 17.5273 7.77206 C 17.2918 7.75072 16.9811 7.75 16.5 7.75 C 16.0189 7.75 15.7082 7.75072 15.4727 7.77206 Z" fill="#FFFFFF" />
</svg>