<svg xmlns="http://www.w3.org/2000/svg" width="24" height="24" viewBox="0 0 24 24" fill="none">
  <path fill-rule="nonzero" clip-rule="nonzero" d="M 12 1.25 C 12.4142 1.25 12.75 1.58579 12.75 2 V 4.25 L 16.5322 4.25 C 16.972 4.24998 17.3514 4.24997 17.6627 4.27818 C 17.9918 4.30802 18.3178 4.37407 18.625 4.55144 C 18.967 4.74892 19.2511 5.03296 19.4486 5.375 C 19.6259 5.68221 19.692 6.00817 19.7218 6.33735 C 19.75 6.64865 19.75 7.028 19.75 7.46779 V 7.53221 C 19.75 7.972 19.75 8.35135 19.7218 8.66265 C 19.692 8.99183 19.6259 9.31779 19.4486 9.625 C 19.2511 9.96704 18.967 10.2511 18.625 10.4486 C 18.3178 10.6259 17.9918 10.692 17.6627 10.7218 C 17.3514 10.75 16.972 10.75 16.5322 10.75 H 12.75 V 13.25 H 14.5322 C 14.972 13.25 15.3514 13.25 15.6627 13.2782 C 15.9918 13.308 16.3178 13.3741 16.625 13.5514 C 16.967 13.7489 17.2511 14.033 17.4486 14.375 C 17.6259 14.6822 17.692 15.0082 17.7218 15.3373 C 17.75 15.6486 17.75 16.028 17.75 16.4678 V 16.5322 C 17.75 16.972 17.75 17.3514 17.7218 17.6627 C 17.692 17.9918 17.6259 18.3178 17.4486 18.625 C 17.2511 18.967 16.967 19.2511 16.625 19.4486 C 16.3178 19.6259 15.9918 19.692 15.6627 19.7218 C 15.3514 19.75 14.972 19.75 14.5322 19.75 H 12.75 V 22 C 12.75 22.4142 12.4142 22.75 12 22.75 C 11.5858 22.75 11.25 22.4142 11.25 22 V 19.75 H 9.46775 C 9.02797 19.75 8.64864 19.75 8.33735 19.7218 C 8.00817 19.692 7.68221 19.6259 7.375 19.4486 C 7.03296 19.2511 6.74892 18.967 6.55144 18.625 C 6.37408 18.3178 6.30802 17.9918 6.27818 17.6627 C 6.24997 17.3514 6.24998 16.972 6.25 16.5322 V 16.4678 C 6.24998 16.028 6.24997 15.6486 6.27818 15.3373 C 6.30802 15.0082 6.37408 14.6822 6.55144 14.375 C 6.74892 14.033 7.03296 13.7489 7.375 13.5514 C 7.68221 13.3741 8.00817 13.308 8.33735 13.2782 C 8.64865 13.25 9.028 13.25 9.46779 13.25 H 11.25 V 10.75 H 7.4678 C 7.028 10.75 6.64865 10.75 6.33735 10.7218 C 6.00817 10.692 5.68221 10.6259 5.375 10.4486 C 5.03296 10.2511 4.74892 9.96704 4.55144 9.625 C 4.37407 9.31779 4.30802 8.99183 4.27818 8.66265 C 4.24997 8.35136 4.24998 7.97201 4.25 7.53222 V 7.46778 C 4.24998 7.02799 4.24997 6.64864 4.27818 6.33735 C 4.30802 6.00817 4.37407 5.68221 4.55144 5.375 C 4.74892 5.03296 5.03296 4.74892 5.375 4.55144 C 5.68221 4.37407 6.00817 4.30802 6.33735 4.27818 C 6.64864 4.24997 7.02799 4.24998 7.46778 4.25 C 7.47848 4.25 7.48922 4.25 7.5 4.25 H 11.25 V 2 C 11.25 1.58579 11.5858 1.25 12 1.25 Z M 7.5 5.75 C 7.01889 5.75 6.7082 5.75072 6.47275 5.77206 C 6.2476 5.79246 6.16586 5.82689 6.125 5.85048 C 6.01099 5.91631 5.91631 6.01099 5.85048 6.125 C 5.82689 6.16586 5.79247 6.2476 5.77206 6.47274 C 5.75072 6.7082 5.75 7.01889 5.75 7.5 C 5.75 7.98111 5.75072 8.2918 5.77206 8.52726 C 5.79247 8.7524 5.82689 8.83414 5.85048 8.875 C 5.91631 8.98901 6.01099 9.08369 6.125 9.14952 C 6.16587 9.17311 6.2476 9.20754 6.47275 9.22794 C 6.7082 9.24928 7.01889 9.25 7.5 9.25 H 16.5 C 16.9811 9.25 17.2918 9.24928 17.5273 9.22794 C 17.7524 9.20754 17.8341 9.17311 17.875 9.14952 C 17.989 9.08369 18.0837 8.98901 18.1495 8.875 C 18.1731 8.83414 18.2075 8.7524 18.2279 8.52725 C 18.2493 8.2918 18.25 7.98111 18.25 7.5 C 18.25 7.01889 18.2493 6.7082 18.2279 6.47275 C 18.2075 6.2476 18.1731 6.16586 18.1495 6.125 C 18.0837 6.01099 17.989 5.91631 17.875 5.85048 C 17.8341 5.82689 17.7524 5.79246 17.5273 5.77206 C 17.2918 5.75072 16.9811 5.75 16.5 5.75 H 7.5 Z M 9.5 14.75 C 9.01889 14.75 8.7082 14.7507 8.47275 14.7721 C 8.2476 14.7925 8.16586 14.8269 8.125 14.8505 C 8.01099 14.9163 7.91631 15.011 7.85048 15.125 C 7.82689 15.1659 7.79247 15.2476 7.77206 15.4727 C 7.75072 15.7082 7.75 16.0189 7.75 16.5 C 7.75 16.9811 7.75072 17.2918 7.77206 17.5273 C 7.79247 17.7524 7.82689 17.8341 7.85048 17.875 C 7.91631 17.989 8.01099 18.0837 8.125 18.1495 C 8.16586 18.1731 8.2476 18.2075 8.47275 18.2279 C 8.7082 18.2493 9.01889 18.25 9.5 18.25 H 14.5 C 14.9811 18.25 15.2918 18.2493 15.5273 18.2279 C 15.7524 18.2075 15.8341 18.1731 15.875 18.1495 C 15.989 18.0837 16.0837 17.989 16.1495 17.875 C 16.1731 17.8341 16.2075 17.7524 16.2279 17.5273 C 16.2493 17.2918 16.25 16.9811 16.25 16.5 C 16.25 16.0189 16.2493 15.7082 16.2279 15.4727 C 16.2075 15.2476 16.1731 15.1659 16.1495 15.125 C 16.0837 15.011 15.989 14.9163 15.875 14.8505 C 15.8341 14.8269 15.7524 14.7925 15.5273 14.7721 C 15.2918 14.7507 14.9811 14.75 14.5 14.75 H 9.5 Z" fill="#FFFFFF" />
</svg>