<svg xmlns="http://www.w3.org/2000/svg" width="24" height="24" viewBox="0 0 24 24" fill="none">
  <path fill-rule="nonzero" clip-rule="nonzero" d="M 1.25 21 C 1.25 20.5858 1.58579 20.25 2 20.25 L 22 20.25 C 22.4142 20.25 22.75 20.5858 22.75 21 C 22.75 21.4142 22.4142 21.75 22 21.75 L 2 21.75 C 1.58579 21.75 1.25 21.4142 1.25 21 Z M 1.25 3 C 1.25 2.58579 1.58579 2.25 2 2.25 L 22 2.25 C 22.4142 2.25 22.75 2.58579 22.75 3 C 22.75 3.41421 22.4142 3.75 22 3.75 L 2 3.75 C 1.58579 3.75 1.25 3.41421 1.25 3 Z" fill="#FFFFFF" />
  <path d="M4 12C4 13.8856 4 14.8284 4.58579 15.4142C5.17157 16 6.11438 16 8 16L16 16C17.8856 16 18.8284 16 19.4142 15.4142C20 14.8284 20 13.8856 20 12C20 10.1144 20 9.17157 19.4142 8.58579C18.8284 8 17.8856 8 16 8H8C6.11438 8 5.17157 8 4.58579 8.58579C4 9.17158 4 10.1144 4 12Z" fill="#FFFFFF" />
</svg>