<svg xmlns="http://www.w3.org/2000/svg" width="24" height="24" viewBox="0 0 24 24" fill="none">
  <path fill-rule="nonzero" clip-rule="nonzero" d="M3.17157 3.17157 C4.34315 2 6.22876 2 10 2 L14 2 C17.7712 2 19.6569 2 20.8284 3.17157 C22 4.34315 22 6.22876 22 10 L22 14 C22 17.7712 22 19.6569 20.8284 20.8284 C19.6569 22 17.7712 22 14 22 L10 22 C6.22876 22 4.34315 22 3.17157 20.8284 C2 19.6569 2 17.7712 2 14 L2 10 C2 6.22876 2 4.34315 3.17157 3.17157 Z M 7.91293 8.71701 C 8.09488 8.11506 8.40773 7.59322 8.74674 7.23356 C 9.10714 6.85119 9.39781 6.75 9.52267 6.75 C 9.82833 6.75 10.2387 6.92763 10.6131 7.76627 C 10.9917 8.61456 11.2501 9.99357 11.2501 12 C 11.2501 14.0988 11.515 15.7198 12.0173 16.8452 C 12.5239 17.9802 13.3522 18.75 14.4773 18.75 C 15.2014 18.75 15.8606 18.309 16.3448 17.7953 C 16.8504 17.2589 17.2769 16.5307 17.5229 15.717 C 17.6428 15.3205 17.4185 14.9019 17.022 14.7821 C 16.6255 14.6622 16.2069 14.8865 16.0871 15.283 C 15.9051 15.8849 15.5923 16.4068 15.2533 16.7664 C 14.8929 17.1488 14.6022 17.25 14.4773 17.25 C 14.1717 17.25 13.7613 17.0724 13.387 16.2338 C 13.0084 15.3855 12.7501 14.0065 12.7501 12 C 12.7501 9.9013 12.4851 8.28028 11.9828 7.15486 C 11.4761 6.01978 10.6478 5.25 9.52267 5.25 C 8.79862 5.25 8.13942 5.69098 7.6552 6.2047 C 7.14958 6.74112 6.72305 7.46928 6.47709 8.28299 C 6.35724 8.67949 6.58151 9.09807 6.978 9.21792 C 7.3745 9.33777 7.79308 9.1135 7.91293 8.71701 Z M 6 11.25 C 5.58579 11.25 5.25 11.5858 5.25 12 C 5.25 12.4142 5.58579 12.75 6 12.75 H 9.5 C 9.91421 12.75 10.25 12.4142 10.25 12 C 10.25 11.5858 9.91421 11.25 9.5 11.25 H 6 Z M 14.5 11.25 C 14.0858 11.25 13.75 11.5858 13.75 12 C 13.75 12.4142 14.0858 12.75 14.5 12.75 H 18 C 18.4142 12.75 18.75 12.4142 18.75 12 C 18.75 11.5858 18.4142 11.25 18 11.25 H 14.5 Z" fill="#FFFFFF" />
</svg>