<svg xmlns="http://www.w3.org/2000/svg" width="24" height="24" viewBox="0 0 24 24" fill="none">
  <path fill-rule="nonzero" clip-rule="nonzero" d="M3.17157 3.17157 C4.34315 2 6.22876 2 10 2 L14 2 C17.7712 2 19.6569 2 20.8284 3.17157 C22 4.34315 22 6.22876 22 10 L22 14 C22 17.7712 22 19.6569 20.8284 20.8284 C19.6569 22 17.7712 22 14 22 L10 22 C6.22876 22 4.34315 22 3.17157 20.8284 C2 19.6569 2 17.7712 2 14 L2 10 C2 6.22876 2 4.34315 3.17157 3.17157 Z M 8.75 6 C 8.75 5.58579 8.41421 5.25 8 5.25 C 7.58579 5.25 7.25 5.58579 7.25 6 V 7.25 H 6 C 5.58579 7.25 5.25 7.58579 5.25 8 C 5.25 8.41421 5.58579 8.75 6 8.75 H 7.25 L 7.25 12.052 C 7.24997 12.9505 7.24995 13.6997 7.32991 14.2945 C 7.41432 14.9223 7.59999 15.4891 8.05546 15.9445 C 8.51093 16.4 9.07773 16.5857 9.70552 16.6701 C 10.3003 16.7501 11.0495 16.75 11.948 16.75 L 15.25 16.75 V 18 C 15.25 18.4142 15.5858 18.75 16 18.75 C 16.4142 18.75 16.75 18.4142 16.75 18 V 16.75 H 18 C 18.4142 16.75 18.75 16.4142 18.75 16 C 18.75 15.5858 18.4142 15.25 18 15.25 H 12 C 11.036 15.25 10.3884 15.2484 9.90539 15.1835 C 9.44393 15.1214 9.24643 15.0142 9.11612 14.8839 C 8.9858 14.7536 8.87858 14.5561 8.81653 14.0946 C 8.75159 13.6116 8.75 12.964 8.75 12 V 6 Z M 12 8.75 C 12.964 8.75 13.6116 8.75159 14.0946 8.81653 C 14.5561 8.87858 14.7536 8.9858 14.8839 9.11612 C 15.0142 9.24643 15.1214 9.44393 15.1835 9.90539 C 15.2484 10.3884 15.25 11.036 15.25 12 V 13.4706 C 15.25 13.8848 15.5858 14.2206 16 14.2206 C 16.4142 14.2206 16.75 13.8848 16.75 13.4706 L 16.75 11.948 C 16.75 11.0495 16.7501 10.3003 16.6701 9.70552 C 16.5857 9.07773 16.4 8.51093 15.9445 8.05546 C 15.4891 7.59999 14.9223 7.41432 14.2945 7.32991 C 13.6997 7.24995 12.9505 7.24997 12.052 7.25 L 10.5294 7.25 C 10.1152 7.25 9.77941 7.58579 9.77941 8 C 9.77941 8.41421 10.1152 8.75 10.5294 8.75 H 12 Z" fill="#FFFFFF" />
</svg>