<svg xmlns="http://www.w3.org/2000/svg" width="24" height="24" viewBox="0 0 24 24" fill="none">
  <path fill-rule="nonzero" clip-rule="nonzero" d="M 5 1.25 C 5.41421 1.25 5.75 1.58579 5.75 2 V 11 C 5.75 12.9068 5.75159 14.2615 5.88976 15.2892 C 6.02502 16.2952 6.27869 16.8749 6.7019 17.2981 C 7.12511 17.7213 7.70476 17.975 8.71085 18.1102 C 9.73851 18.2484 11.0932 18.25 13 18.25 H 22 C 22.4142 18.25 22.75 18.5858 22.75 19 C 22.75 19.4142 22.4142 19.75 22 19.75 H 19.75 V 22 C 19.75 22.4142 19.4142 22.75 19 22.75 C 18.5858 22.75 18.25 22.4142 18.25 22 V 19.75 H 12.9436 C 11.1058 19.75 9.65019 19.75 8.51098 19.5969 C 7.33855 19.4392 6.38961 19.1071 5.64124 18.3588 C 4.89288 17.6104 4.56076 16.6614 4.40313 15.489 C 4.24997 14.3498 4.24998 12.8942 4.25 11.0564 L 4.25 5.75 H 2 C 1.58579 5.75 1.25 5.41421 1.25 5 C 1.25 4.58579 1.58579 4.25 2 4.25 H 4.25 V 2 C 4.25 1.58579 4.58579 1.25 5 1.25 Z M 15.2892 5.88976 C 14.2615 5.75159 12.9068 5.75 11 5.75 H 8 C 7.58579 5.75 7.25 5.41421 7.25 5 C 7.25 4.58579 7.58579 4.25 8 4.25 L 11.0564 4.25 C 12.8942 4.24998 14.3498 4.24997 15.489 4.40313 C 16.6614 4.56076 17.6104 4.89288 18.3588 5.64124 C 19.1071 6.38961 19.4392 7.33855 19.5969 8.51098 C 19.75 9.65019 19.75 11.1058 19.75 12.9436 V 16 C 19.75 16.4142 19.4142 16.75 19 16.75 C 18.5858 16.75 18.25 16.4142 18.25 16 V 13 C 18.25 11.0932 18.2484 9.73851 18.1102 8.71085 C 17.975 7.70476 17.7213 7.12511 17.2981 6.7019 C 16.8749 6.27869 16.2952 6.02502 15.2892 5.88976 Z" fill="#FFFFFF" />
  <path d="M8.5 11.5C8.5 10.0858 8.5 9.37868 8.93934 8.93934C9.37868 8.5 10.0858 8.5 11.5 8.5H12.5C13.9142 8.5 14.6213 8.5 15.0607 8.93934C15.5 9.37868 15.5 10.0858 15.5 11.5V12.5C15.5 13.9142 15.5 14.6213 15.0607 15.0607C14.6213 15.5 13.9142 15.5 12.5 15.5H11.5C10.0858 15.5 9.37868 15.5 8.93934 15.0607C8.5 14.6213 8.5 13.9142 8.5 12.5V11.5Z" fill="#FFFFFF" />
</svg>