<svg xmlns="http://www.w3.org/2000/svg" width="24" height="24" viewBox="0 0 24 24" fill="none">
  <path fill-rule="nonzero" clip-rule="nonzero" d="M 5 1.25 C 5.41421 1.25 5.75 1.58579 5.75 2 V 11 C 5.75 12.9068 5.75159 14.2615 5.88976 15.2892 C 6.02502 16.2952 6.27869 16.8749 6.7019 17.2981 C 7.12511 17.7213 7.70476 17.975 8.71085 18.1102 C 9.73851 18.2484 11.0932 18.25 13 18.25 H 22 C 22.4142 18.25 22.75 18.5858 22.75 19 C 22.75 19.4142 22.4142 19.75 22 19.75 H 19.75 V 22 C 19.75 22.4142 19.4142 22.75 19 22.75 C 18.5858 22.75 18.25 22.4142 18.25 22 V 19.75 H 12.9436 C 11.1058 19.75 9.65019 19.75 8.51098 19.5969 C 7.33855 19.4392 6.38961 19.1071 5.64124 18.3588 C 4.89288 17.6104 4.56076 16.6614 4.40313 15.489 C 4.24997 14.3498 4.24998 12.8942 4.25 11.0564 L 4.25 5.75 H 2 C 1.58579 5.75 1.25 5.41421 1.25 5 C 1.25 4.58579 1.58579 4.25 2 4.25 H 4.25 V 2 C 4.25 1.58579 4.58579 1.25 5 1.25 Z M 15.2892 5.88976 C 14.2615 5.75159 12.9068 5.75 11 5.75 H 8 C 7.58579 5.75 7.25 5.41421 7.25 5 C 7.25 4.58579 7.58579 4.25 8 4.25 L 11.0564 4.25 C 12.8942 4.24998 14.3498 4.24997 15.489 4.40313 C 16.6614 4.56076 17.6104 4.89288 18.3588 5.64124 C 19.1071 6.38961 19.4392 7.33855 19.5969 8.51098 C 19.75 9.65019 19.75 11.1058 19.75 12.9436 V 16 C 19.75 16.4142 19.4142 16.75 19 16.75 C 18.5858 16.75 18.25 16.4142 18.25 16 V 13 C 18.25 11.0932 18.2484 9.73851 18.1102 8.71085 C 17.975 7.70476 17.7213 7.12511 17.2981 6.7019 C 16.8749 6.27869 16.2952 6.02502 15.2892 5.88976 Z M 11.4506 7.75 H 12.5494 C 13.2142 7.74996 13.7871 7.74993 14.2458 7.81161 C 14.7375 7.8777 15.2087 8.02676 15.591 8.40901 C 15.9732 8.79126 16.1223 9.26252 16.1884 9.75416 C 16.2501 10.2129 16.25 10.7858 16.25 11.4506 V 12.5494 C 16.25 13.2142 16.2501 13.7871 16.1884 14.2458 C 16.1223 14.7375 15.9732 15.2087 15.591 15.591 C 15.2087 15.9732 14.7375 16.1223 14.2458 16.1884 C 13.7871 16.2501 13.2142 16.25 12.5494 16.25 H 11.4506 C 10.7858 16.25 10.2129 16.2501 9.75416 16.1884 C 9.26252 16.1223 8.79126 15.9732 8.40901 15.591 C 8.02676 15.2087 7.8777 14.7375 7.81161 14.2458 C 7.74993 13.7871 7.74996 13.2142 7.75 12.5494 V 11.4506 C 7.74996 10.7858 7.74993 10.2129 7.81161 9.75416 C 7.8777 9.26252 8.02676 8.79126 8.40901 8.40901 C 8.79126 8.02676 9.26252 7.8777 9.75416 7.81161 C 10.2129 7.74993 10.7858 7.74996 11.4506 7.75 Z M 9.95403 9.29823 C 9.62872 9.34196 9.52676 9.41258 9.46967 9.46967 C 9.41258 9.52676 9.34196 9.62872 9.29823 9.95403 C 9.25159 10.3009 9.25 10.7717 9.25 11.5 V 12.5 C 9.25 13.2283 9.25159 13.6991 9.29823 14.046 C 9.34196 14.3713 9.41258 14.4732 9.46967 14.5303 C 9.52676 14.5874 9.62872 14.658 9.95403 14.7018 C 10.3009 14.7484 10.7717 14.75 11.5 14.75 H 12.5 C 13.2283 14.75 13.6991 14.7484 14.046 14.7018 C 14.3713 14.658 14.4732 14.5874 14.5303 14.5303 C 14.5874 14.4732 14.658 14.3713 14.7018 14.046 C 14.7484 13.6991 14.75 13.2283 14.75 12.5 V 11.5 C 14.75 10.7717 14.7484 10.3009 14.7018 9.95403 C 14.658 9.62872 14.5874 9.52676 14.5303 9.46967 C 14.4732 9.41258 14.3713 9.34196 14.046 9.29823 C 13.6991 9.25159 13.2283 9.25 12.5 9.25 H 11.5 C 10.7717 9.25 10.3009 9.25159 9.95403 9.29823 Z" fill="#FFFFFF" />
</svg>