<svg xmlns="http://www.w3.org/2000/svg" width="24" height="24" viewBox="0 0 24 24" fill="none">
  <path fill-rule="nonzero" clip-rule="nonzero" d="M 12 2.75 C 9.1005 2.75 6.75 5.10051 6.75 8 C 6.75 10.8995 9.1005 13.25 12 13.25 C 14.8995 13.25 17.25 10.8995 17.25 8 C 17.25 5.10051 14.8995 2.75 12 2.75 Z M 5.25 8 C 5.25 4.27208 8.27208 1.25 12 1.25 C 15.7279 1.25 18.75 4.27208 18.75 8 C 18.75 8.60091 18.6715 9.18349 18.5241 9.73802 C 21.0013 10.7375 22.75 13.1638 22.75 16 C 22.75 19.7279 19.7279 22.75 16 22.75 C 14.5034 22.75 13.1193 22.2622 12.0001 21.4377 C 10.8806 22.2625 9.49722 22.75 8 22.75 C 4.27208 22.75 1.25 19.7279 1.25 16 C 1.25 13.1638 2.99868 10.7375 5.47587 9.73802 C 5.32852 9.18349 5.25 8.60091 5.25 8 Z M 6.02094 11.1356 C 4.10208 11.917 2.75 13.8014 2.75 16 C 2.75 18.8995 5.10051 21.25 8 21.25 C 10.8995 21.25 13.25 18.8995 13.25 16 C 13.25 15.5377 13.1904 15.0902 13.0787 14.6643 C 12.7275 14.7207 12.3672 14.75 12 14.75 C 9.40395 14.75 7.15019 13.2845 6.02094 11.1356 Z M 14.524 14.2623 C 14.6715 14.8173 14.75 15.3999 14.75 16 C 14.75 17.6778 14.1378 19.2127 13.1246 20.3934 C 13.9506 20.9353 14.938 21.25 16 21.25 C 18.8995 21.25 21.25 18.8995 21.25 16 C 21.25 13.8014 19.8979 11.917 17.9791 11.1356 C 17.238 12.5458 16.0126 13.6617 14.524 14.2623 Z" fill="#FFFFFF" />
</svg>