<svg xmlns="http://www.w3.org/2000/svg" width="24" height="24" viewBox="0 0 24 24" fill="none">
  <g opacity="0.5">
    <path d="M18.1134 22H5.88616C4.18402 22 3.33295 22 3.05381 21.4576C2.77467 20.9152 3.26934 20.2226 4.2587 18.8375L5.38815 17.2563C5.82805 16.6404 6.048 16.3325 6.37105 16.1662C6.69411 16 7.07252 16 7.82936 16H16.1702C16.927 16 17.3055 16 17.6285 16.1662C17.9516 16.3325 18.1715 16.6404 18.6114 17.2563L19.7409 18.8375C20.7302 20.2226 21.2249 20.9152 20.9458 21.4576C20.6666 22 19.8156 22 18.1134 22Z" fill="#FFFFFF" />
    <path d="M18.1134 2L5.88616 2C4.18402 2 3.33294 2 3.05381 2.54242C2.77467 3.08484 3.26934 3.77738 4.25869 5.16247L5.38815 6.74372C5.82805 7.35957 6.048 7.6675 6.37105 7.83375C6.69411 8 7.07252 8 7.82936 8L16.1702 8C16.927 8 17.3055 8 17.6285 7.83375C17.9516 7.6675 18.1715 7.35957 18.6114 6.74372L19.7409 5.16248C20.7302 3.77738 21.2249 3.08484 20.9458 2.54242C20.6666 2 19.8156 2 18.1134 2Z" fill="#FFFFFF" />
  </g>
  <path fill-rule="nonzero" clip-rule="nonzero" d="M 1.25 12 C 1.25 11.5858 1.58579 11.25 2 11.25 H 6 C 6.41421 11.25 6.75 11.5858 6.75 12 C 6.75 12.4142 6.41421 12.75 6 12.75 H 2 C 1.58579 12.75 1.25 12.4142 1.25 12 Z M 9.25 12 C 9.25 11.5858 9.58579 11.25 10 11.25 H 14 C 14.4142 11.25 14.75 11.5858 14.75 12 C 14.75 12.4142 14.4142 12.75 14 12.75 H 10 C 9.58579 12.75 9.25 12.4142 9.25 12 Z M 17.25 12 C 17.25 11.5858 17.5858 11.25 18 11.25 H 22 C 22.4142 11.25 22.75 11.5858 22.75 12 C 22.75 12.4142 22.4142 12.75 22 12.75 H 18 C 17.5858 12.75 17.25 12.4142 17.25 12 Z" fill="#FFFFFF" />
</svg>