<svg xmlns="http://www.w3.org/2000/svg" width="24" height="24" viewBox="0 0 24 24" fill="none">
  <path fill-rule="nonzero" clip-rule="nonzero" d="M 5.82635 1.25 C 5.84628 1.25 5.8663 1.25 5.88638 1.25 L 18.1737 1.25 C 18.9734 1.24996 19.6573 1.24992 20.1727 1.32581 C 20.6983 1.40321 21.3012 1.59364 21.6129 2.19924 C 21.9245 2.80484 21.729 3.40614 21.4865 3.87881 C 21.2487 4.3423 20.8512 4.89882 20.3863 5.54956 L 19.2046 7.20393 C 18.9995 7.49113 18.8176 7.7458 18.6449 7.94651 C 18.4575 8.16426 18.2487 8.35817 17.9719 8.50063 C 17.6951 8.64309 17.4159 8.70028 17.1299 8.72617 C 16.8661 8.75004 16.5532 8.75003 16.2002 8.75001 L 7.7998 8.75001 C 7.44684 8.75003 7.13387 8.75004 6.87014 8.72617 C 6.58405 8.70028 6.30491 8.64309 6.02808 8.50063 C 5.75126 8.35817 5.54247 8.16426 5.35512 7.94651 C 5.18241 7.74579 5.00051 7.49111 4.79538 7.20389 L 3.64861 5.59841 C 3.63694 5.58207 3.6253 5.56578 3.61371 5.54956 C 3.14884 4.89882 2.75128 4.3423 2.51348 3.87881 C 2.27098 3.40614 2.07549 2.80484 2.38715 2.19924 C 2.6988 1.59364 3.30172 1.40321 3.82731 1.32581 C 4.34268 1.24992 5.02661 1.24996 5.82635 1.25 Z M3.70208 2.9086 C3.70281 2.90888 3.70683 2.90623 3.71191 2.8998 C3.70388 2.90511 3.70134 2.90832 3.70208 2.9086 Z M3.72926 2.88991 C3.73599 2.93375 3.76183 3.02598 3.84808 3.19408 C4.02925 3.54719 4.3597 4.01324 4.86921 4.72655 L5.99867 6.30779 C6.22633 6.62652 6.36899 6.82504 6.49215 6.96817 C6.60551 7.09992 6.66823 7.14309 6.71445 7.16688 C6.76068 7.19067 6.83227 7.21661 7.00536 7.23228 C7.19342 7.2493 7.43788 7.25001 7.82957 7.25001 L16.1704 7.25001 C16.5621 7.25001 16.8066 7.2493 16.9946 7.23228 C17.1677 7.21661 17.2393 7.19067 17.2855 7.16688 C17.3318 7.14309 17.3945 7.09992 17.5078 6.96817 C17.631 6.82504 17.7737 6.62652 18.0013 6.30779 L19.1308 4.72655 C19.6403 4.01324 19.9708 3.54719 20.1519 3.19409 C20.2382 3.02598 20.264 2.93375 20.2707 2.88991 C20.2312 2.8699 20.1411 2.83733 19.9542 2.80981 C19.5615 2.75199 18.9902 2.75001 18.1136 2.75001 L5.88638 2.75 C5.00979 2.75 4.43847 2.75199 4.04584 2.8098 C3.85891 2.83733 3.76884 2.8699 3.72926 2.88991 Z M20.2979 2.9086 C20.2987 2.90832 20.2961 2.90511 20.2881 2.8998 C20.2932 2.90623 20.2972 2.90888 20.2979 2.9086 Z M20.2728 2.87005 C20.2731 2.86043 20.272 2.85649 20.2713 2.85693 C20.2707 2.85737 20.2705 2.86218 20.2728 2.87005 Z M3.72722 2.87005 C3.7295 2.86218 3.72933 2.85737 3.72867 2.85693 C3.72801 2.85649 3.72687 2.86043 3.72722 2.87005 Z M 1.25 12 C 1.25 11.5858 1.58579 11.25 2 11.25 H 6 C 6.41421 11.25 6.75 11.5858 6.75 12 C 6.75 12.4142 6.41421 12.75 6 12.75 H 2 C 1.58579 12.75 1.25 12.4142 1.25 12 Z M 9.25 12 C 9.25 11.5858 9.58579 11.25 10 11.25 H 14 C 14.4142 11.25 14.75 11.5858 14.75 12 C 14.75 12.4142 14.4142 12.75 14 12.75 H 10 C 9.58579 12.75 9.25 12.4142 9.25 12 Z M 17.25 12 C 17.25 11.5858 17.5858 11.25 18 11.25 H 22 C 22.4142 11.25 22.75 11.5858 22.75 12 C 22.75 12.4142 22.4142 12.75 22 12.75 H 18 C 17.5858 12.75 17.25 12.4142 17.25 12 Z M 7.79978 15.25 H 16.2002 C 16.5532 15.25 16.8661 15.25 17.1299 15.2738 C 17.4159 15.2997 17.6951 15.3569 17.9719 15.4994 C 18.2487 15.6418 18.4575 15.8358 18.6449 16.0535 C 18.8176 16.2542 18.9995 16.5089 19.2046 16.7961 L 20.3863 18.4505 C 20.8512 19.1012 21.2487 19.6577 21.4865 20.1212 C 21.729 20.5939 21.9245 21.1952 21.6129 21.8008 C 21.3012 22.4064 20.6983 22.5968 20.1727 22.6742 C 19.6573 22.7501 18.9734 22.7501 18.1737 22.75 H 5.82634 C 5.02661 22.7501 4.34268 22.7501 3.82731 22.6742 C 3.30172 22.5968 2.6988 22.4064 2.38715 21.8008 C 2.07549 21.1952 2.27098 20.5939 2.51348 20.1212 C 2.75128 19.6577 3.14884 19.1012 3.61371 18.4505 L 4.77807 16.8204 L 4.79539 16.7961 C 5.00052 16.5089 5.18241 16.2542 5.35512 16.0535 C 5.54247 15.8358 5.75126 15.6418 6.02808 15.4994 C 6.30491 15.3569 6.58406 15.2997 6.87014 15.2738 C 7.13386 15.25 7.44683 15.25 7.79978 15.25 Z M 7.00536 16.7677 C 6.83227 16.7834 6.76068 16.8093 6.71445 16.8331 C 6.66823 16.8569 6.60551 16.9001 6.49215 17.0318 C 6.36899 17.175 6.22633 17.3735 5.99867 17.6922 L 4.86921 19.2735 C 4.3597 19.9868 4.02925 20.4528 3.84808 20.8059 C 3.76183 20.974 3.73599 21.0663 3.72926 21.1101 C 3.76885 21.1301 3.85892 21.1627 4.04584 21.1902 C 4.43847 21.248 5.00979 21.25 5.88638 21.25 H 18.1136 C 18.9902 21.25 19.5615 21.248 19.9542 21.1902 C 20.1411 21.1627 20.2312 21.1301 20.2707 21.1101 C 20.264 21.0663 20.2382 20.974 20.1519 20.8059 C 19.9708 20.4528 19.6403 19.9868 19.1308 19.2735 L 18.0013 17.6922 C 17.7737 17.3735 17.631 17.175 17.5078 17.0318 C 17.3945 16.9001 17.3318 16.8569 17.2855 16.8331 C 17.2393 16.8093 17.1677 16.7834 16.9946 16.7677 C 16.8066 16.7507 16.5621 16.75 16.1704 16.75 H 7.82957 C 7.43788 16.75 7.19342 16.7507 7.00536 16.7677 Z M20.2713 21.1431 C20.272 21.1435 20.2731 21.1396 20.2728 21.13 C20.2705 21.1378 20.2707 21.1426 20.2713 21.1431 Z M20.2881 21.1002 C20.2961 21.0949 20.2987 21.0917 20.2979 21.0914 C20.2972 21.0911 20.2932 21.0938 20.2881 21.1002 Z M3.70208 21.0914 C3.70134 21.0917 3.70388 21.0949 3.71191 21.1002 C3.70683 21.0938 3.70281 21.0911 3.70208 21.0914 Z M3.72722 21.13 C3.72687 21.1396 3.72801 21.1435 3.72867 21.1431 C3.72933 21.1426 3.7295 21.1378 3.72722 21.13 Z" fill="#FFFFFF" />
</svg>