<svg xmlns="http://www.w3.org/2000/svg" width="24" height="24" viewBox="0 0 24 24" fill="none">
  <path fill-rule="nonzero" clip-rule="nonzero" d="M 12 1.25 C 12.4142 1.25 12.75 1.58579 12.75 2 V 6 C 12.75 6.41421 12.4142 6.75 12 6.75 C 11.5858 6.75 11.25 6.41421 11.25 6 V 2 C 11.25 1.58579 11.5858 1.25 12 1.25 Z M 5.54956 3.61372 C 5.56578 3.62531 5.58207 3.63694 5.59841 3.64861 L 7.20388 4.79538 C 7.4911 5.00051 7.74578 5.18241 7.94651 5.35512 C 8.16426 5.54247 8.35817 5.75126 8.50063 6.02808 C 8.64309 6.30491 8.70028 6.58406 8.72617 6.87014 C 8.75004 7.13387 8.75002 7.44684 8.75001 7.7998 V 16.2002 C 8.75002 16.5532 8.75004 16.8661 8.72617 17.1299 C 8.70027 17.4159 8.64309 17.6951 8.50063 17.9719 C 8.35817 18.2487 8.16426 18.4575 7.94651 18.6449 C 7.74579 18.8176 7.49113 18.9995 7.20392 19.2046 L 5.54956 20.3863 C 4.89882 20.8512 4.3423 21.2487 3.87881 21.4865 C 3.40614 21.729 2.80484 21.9245 2.19924 21.6129 C 1.59364 21.3012 1.40321 20.6983 1.32581 20.1727 C 1.24992 19.6573 1.24996 18.9734 1.25 18.1736 L 1.25 5.88638 C 1.25 5.8663 1.25 5.84629 1.25 5.82635 C 1.24996 5.02661 1.24992 4.34268 1.32581 3.82731 C 1.40321 3.30172 1.59364 2.6988 2.19924 2.38715 C 2.80484 2.07549 3.40614 2.27097 3.87881 2.51348 C 4.3423 2.75128 4.89882 3.14884 5.54956 3.61372 Z M2.85693 3.72867 C2.85737 3.72933 2.86218 3.7295 2.87005 3.72722 C2.86043 3.72687 2.85649 3.72801 2.85693 3.72867 Z M2.88991 3.72926 C2.8699 3.76884 2.83733 3.85891 2.8098 4.04584 C2.75199 4.43847 2.75 5.00979 2.75 5.88638 L2.75 18.1136 C2.75 18.9902 2.75199 19.5615 2.8098 19.9542 C2.83733 20.1411 2.8699 20.2312 2.88991 20.2707 C2.93375 20.264 3.02598 20.2382 3.19408 20.1519 C3.54719 19.9708 4.01324 19.6403 4.72655 19.1308 L6.30779 18.0013 C6.62652 17.7737 6.82504 17.631 6.96817 17.5078 C7.09992 17.3945 7.14309 17.3318 7.16688 17.2855 C7.19067 17.2393 7.21661 17.1677 7.23228 16.9946 C7.2493 16.8066 7.25 16.5621 7.25 16.1704 L7.25 7.82957 C7.25 7.43789 7.2493 7.19342 7.23228 7.00536 C7.21661 6.83227 7.19067 6.76068 7.16688 6.71446 C7.14309 6.66823 7.09992 6.60551 6.96817 6.49215 C6.82504 6.369 6.62652 6.22633 6.30779 5.99867 L4.72655 4.86921 C4.01324 4.3597 3.54719 4.02924 3.19408 3.84808 C3.02598 3.76183 2.93375 3.73599 2.88991 3.72926 Z M2.85693 20.2713 C2.85649 20.272 2.86043 20.2731 2.87005 20.2728 C2.86218 20.2705 2.85737 20.2707 2.85693 20.2713 Z M2.8998 20.2881 C2.90511 20.2961 2.90832 20.2987 2.9086 20.2979 C2.90888 20.2972 2.90623 20.2932 2.8998 20.2881 Z M2.8998 3.71191 C2.90623 3.70683 2.90888 3.70281 2.9086 3.70208 C2.90832 3.70134 2.90511 3.70388 2.8998 3.71191 Z M 20.8059 3.84808 C 20.4528 4.02924 19.9868 4.3597 19.2735 4.86921 L 17.6922 5.99867 C 17.3735 6.22633 17.175 6.369 17.0318 6.49215 C 16.9001 6.60551 16.8569 6.66823 16.8331 6.71446 C 16.8093 6.76068 16.7834 6.83227 16.7677 7.00536 C 16.7507 7.19342 16.75 7.43789 16.75 7.82957 V 16.1704 C 16.75 16.5621 16.7507 16.8066 16.7677 16.9946 C 16.7834 17.1677 16.8093 17.2393 16.8331 17.2855 C 16.8569 17.3318 16.9001 17.3945 17.0318 17.5078 C 17.175 17.631 17.3735 17.7737 17.6922 18.0013 L 19.2735 19.1308 C 19.9868 19.6403 20.4528 19.9708 20.8059 20.1519 C 20.974 20.2382 21.0663 20.264 21.1101 20.2707 C 21.1301 20.2312 21.1627 20.1411 21.1902 19.9542 C 21.248 19.5615 21.25 18.9902 21.25 18.1136 V 5.88638 C 21.25 5.00979 21.248 4.43847 21.1902 4.04584 C 21.1627 3.85892 21.1301 3.76885 21.1101 3.72926 C 21.0663 3.73599 20.974 3.76183 20.8059 3.84808 Z M21.1431 3.72867 C21.1435 3.72801 21.1396 3.72687 21.13 3.72722 C21.1378 3.7295 21.1426 3.72933 21.1431 3.72867 Z M21.1002 3.71191 C21.0949 3.70388 21.0917 3.70134 21.0914 3.70208 C21.0911 3.70281 21.0938 3.70683 21.1002 3.71191 Z M21.0914 20.2979 C21.0917 20.2987 21.0949 20.2961 21.1002 20.2881 C21.0938 20.2932 21.0911 20.2972 21.0914 20.2979 Z M21.13 20.2728 C21.1396 20.2731 21.1435 20.272 21.1431 20.2713 C21.1426 20.2707 21.1378 20.2705 21.13 20.2728 Z M 20.1212 2.51348 C 20.5939 2.27097 21.1952 2.07549 21.8008 2.38715 C 22.4064 2.6988 22.5968 3.30172 22.6742 3.82731 C 22.7501 4.34268 22.7501 5.02661 22.75 5.82634 V 18.1737 C 22.7501 18.9734 22.7501 19.6573 22.6742 20.1727 C 22.5968 20.6983 22.4064 21.3012 21.8008 21.6129 C 21.1952 21.9245 20.5939 21.729 20.1212 21.4865 C 19.6577 21.2487 19.1012 20.8512 18.4505 20.3863 L 16.7961 19.2046 C 16.5089 18.9995 16.2542 18.8176 16.0535 18.6449 C 15.8358 18.4575 15.6418 18.2487 15.4994 17.9719 C 15.3569 17.6951 15.2997 17.4159 15.2738 17.1299 C 15.25 16.8661 15.25 16.5532 15.25 16.2002 V 7.79978 C 15.25 7.44683 15.25 7.13387 15.2738 6.87014 C 15.2997 6.58406 15.3569 6.30491 15.4994 6.02808 C 15.6418 5.75126 15.8358 5.54247 16.0535 5.35512 C 16.2542 5.18241 16.5089 5.00051 16.7961 4.79538 L 18.4504 3.61373 C 19.1012 3.14885 19.6577 2.75128 20.1212 2.51348 Z M 12 9.25 C 12.4142 9.25 12.75 9.58579 12.75 10 V 14 C 12.75 14.4142 12.4142 14.75 12 14.75 C 11.5858 14.75 11.25 14.4142 11.25 14 V 10 C 11.25 9.58579 11.5858 9.25 12 9.25 Z M 12 17.25 C 12.4142 17.25 12.75 17.5858 12.75 18 V 22 C 12.75 22.4142 12.4142 22.75 12 22.75 C 11.5858 22.75 11.25 22.4142 11.25 22 V 18 C 11.25 17.5858 11.5858 17.25 12 17.25 Z" fill="#FFFFFF" />
</svg>