<svg xmlns="http://www.w3.org/2000/svg" width="24" height="24" viewBox="0 0 24 24" fill="none">
  <path fill-rule="nonzero" clip-rule="nonzero" d="M 12 4.75 C 10.9396 4.75 10.0907 5.07796 8.06584 5.88789 L 5.25737 7.01128 C 4.24694 7.41545 3.54677 7.69659 3.09295 7.93451 C 3.0486 7.95776 3.00863 7.97959 2.97267 8 C 3.00863 8.02041 3.0486 8.04224 3.09295 8.06549 C 3.54677 8.30341 4.24694 8.58455 5.25737 8.98872 L 8.06584 10.1121 C 10.0907 10.922 10.9396 11.25 12 11.25 C 13.0604 11.25 13.9093 10.922 15.9342 10.1121 L 18.7426 8.98872 C 19.7531 8.58455 20.4532 8.30341 20.9071 8.06549 C 20.9514 8.04224 20.9914 8.02041 21.0273 8 C 20.9914 7.97959 20.9514 7.95776 20.9071 7.93451 C 20.4532 7.69659 19.7531 7.41545 18.7426 7.01128 L 15.9342 5.88789 C 13.9093 5.07796 13.0604 4.75 12 4.75 Z M 7.62442 4.4489 C 9.50121 3.69796 10.6208 3.25 12 3.25 C 13.3792 3.25 14.4988 3.69796 16.3756 4.4489 C 16.4138 4.4642 16.4524 4.47962 16.4912 4.49517 L 19.3451 5.6367 C 20.2996 6.01851 21.0728 6.32776 21.6035 6.60601 C 21.8721 6.74683 22.1323 6.90648 22.333 7.09894 C 22.5392 7.29668 22.75 7.59658 22.75 8 C 22.75 8.40342 22.5392 8.70332 22.333 8.90106 C 22.1323 9.09352 21.8721 9.25317 21.6035 9.39399 C 21.0728 9.67223 20.2996 9.98148 19.3451 10.3633 L 16.4912 11.5048 C 16.4524 11.5204 16.4138 11.5358 16.3756 11.5511 C 14.4988 12.302 13.3792 12.75 12 12.75 C 10.6208 12.75 9.50121 12.302 7.62443 11.5511 C 7.58619 11.5358 7.54763 11.5204 7.50875 11.5048 L 4.65495 10.3633 C 3.70036 9.98149 2.92721 9.67224 2.39647 9.39399 C 2.12786 9.25317 1.86765 9.09352 1.66701 8.90106 C 1.46085 8.70332 1.25 8.40342 1.25 8 C 1.25 7.59658 1.46085 7.29668 1.66701 7.09894 C 1.86765 6.90648 2.12786 6.74683 2.39647 6.60601 C 2.92721 6.32776 3.70037 6.01851 4.65496 5.63669 L 7.50875 4.49517 C 7.54763 4.47962 7.58618 4.4642 7.62442 4.4489 Z M 2.49896 11.4401 L 2.50261 11.4432 C 2.50702 11.4471 2.51522 11.4541 2.52722 11.4641 C 2.55123 11.4842 2.59042 11.5161 2.64479 11.5581 C 2.75354 11.6422 2.92289 11.7663 3.1528 11.9154 C 3.61265 12.2136 4.31419 12.6114 5.25737 12.9887 L 8.06584 14.1121 C 10.0907 14.922 10.9396 15.25 12 15.25 C 13.0604 15.25 13.9093 14.922 15.9342 14.1121 L 18.7426 12.9887 C 19.6858 12.6114 20.3874 12.2136 20.8472 11.9154 C 21.0771 11.7663 21.2465 11.6422 21.3552 11.5581 C 21.4096 11.5161 21.4488 11.4842 21.4728 11.4641 C 21.4848 11.4541 21.493 11.4471 21.4974 11.4432 L 21.4995 11.4415 C 21.5 11.441 21.5006 11.4405 21.5011 11.44 C 21.8095 11.1652 22.2823 11.1915 22.5583 11.4992 C 22.8349 11.8075 22.8091 12.2817 22.5008 12.5583 L 22 12 C 22.5008 12.5583 22.501 12.5581 22.5008 12.5583 L 22.4994 12.5595 L 22.4977 12.5611 L 22.493 12.5652 L 22.4793 12.5772 C 22.4682 12.5868 22.4532 12.5997 22.4341 12.6155 C 22.3961 12.6473 22.3422 12.6911 22.2724 12.745 C 22.1329 12.8528 21.9299 13.001 21.6634 13.1739 C 21.1303 13.5196 20.3424 13.9644 19.2997 14.3814 L 16.4912 15.5048 C 16.4524 15.5204 16.4138 15.5358 16.3756 15.5511 C 14.4988 16.302 13.3792 16.75 12 16.75 C 10.6208 16.75 9.50121 16.302 7.62443 15.5511 C 7.58619 15.5358 7.54763 15.5204 7.50875 15.5048 L 4.70029 14.3814 C 3.65759 13.9644 2.86971 13.5196 2.33662 13.1739 C 2.07005 13.001 1.86705 12.8528 1.72757 12.745 C 1.65782 12.6911 1.60392 12.6473 1.56587 12.6155 C 1.54684 12.5997 1.53177 12.5868 1.52066 12.5772 L 1.50696 12.5652 L 1.50233 12.5611 L 1.50057 12.5595 L 1.4995 12.5586 C 1.49934 12.5584 1.49919 12.5583 2 12 L 1.4995 12.5586 C 1.19116 12.282 1.16512 11.8075 1.44171 11.4992 C 1.71775 11.1915 2.19058 11.1652 2.49896 11.4401 Z M 21.4996 15.4414 C 21.5001 15.4409 21.5006 15.4405 21.5011 15.44 C 21.8095 15.1652 22.2823 15.1915 22.5583 15.4992 C 22.8349 15.8075 22.8091 16.2817 22.5008 16.5583 L 22 16 C 22.5008 16.5583 22.501 16.5581 22.5008 16.5583 L 22.4994 16.5595 L 22.4977 16.5611 L 22.493 16.5652 L 22.4793 16.5772 C 22.4682 16.5868 22.4532 16.5997 22.4341 16.6155 C 22.3961 16.6473 22.3422 16.6911 22.2724 16.745 C 22.1329 16.8528 21.9299 17.001 21.6634 17.1739 C 21.1303 17.5196 20.3424 17.9644 19.2997 18.3814 L 16.4912 19.5048 C 16.4524 19.5204 16.4138 19.5358 16.3756 19.5511 C 14.4988 20.302 13.3792 20.75 12 20.75 C 10.6208 20.75 9.50121 20.302 7.62443 19.5511 C 7.58619 19.5358 7.54763 19.5204 7.50875 19.5048 L 4.70029 18.3814 C 3.65759 17.9644 2.86971 17.5196 2.33662 17.1739 C 2.07005 17.001 1.86705 16.8528 1.72757 16.745 C 1.65782 16.6911 1.60392 16.6473 1.56587 16.6155 C 1.54684 16.5997 1.53177 16.5868 1.52066 16.5772 L 1.50696 16.5652 L 1.50233 16.5611 L 1.50057 16.5595 L 1.4995 16.5586 C 1.49934 16.5584 1.49919 16.5583 2 16 L 1.4995 16.5586 C 1.19116 16.282 1.16512 15.8075 1.44171 15.4992 C 1.71774 15.1915 2.19053 15.1652 2.49891 15.44 C 2.49871 15.4398 2.49911 15.4402 2.49891 15.44 C 2.4991 15.4402 2.49987 15.4409 2.50006 15.441 C 2.49991 15.4409 2.50022 15.4412 2.50006 15.441 L 2.50261 15.4432 C 2.50702 15.4471 2.51522 15.4541 2.52722 15.4641 C 2.55123 15.4842 2.59042 15.5161 2.64479 15.5581 C 2.75354 15.6422 2.92289 15.7663 3.1528 15.9154 C 3.61265 16.2136 4.31419 16.6114 5.25737 16.9887 L 8.06584 18.1121 C 10.0907 18.922 10.9396 19.25 12 19.25 C 13.0604 19.25 13.9093 18.922 15.9342 18.1121 L 18.7426 16.9887 C 19.6858 16.6114 20.3874 16.2136 20.8472 15.9154 C 21.0771 15.7663 21.2465 15.6422 21.3552 15.5581 C 21.4096 15.5161 21.4488 15.4842 21.4728 15.4641 C 21.4848 15.4541 21.493 15.4471 21.4974 15.4432 L 21.4996 15.4414 Z" fill="#FFFFFF" />
</svg>