<svg xmlns="http://www.w3.org/2000/svg" width="24" height="24" viewBox="0 0 24 24" fill="none">
  <path d="M3.25 12.75V10.75C3.25 6.97876 3.25 5.09315 4.42157 3.92157C5.5142 2.82894 8.09768 2.75532 11.5 2.75036C11.5 2.33614 11.8358 2 12.25 2C12.6642 2 13 2.33579 13 2.75L13 20.75C13 21.1642 12.6642 21.5 12.25 21.5C11.8358 21.5 11.5 21.1642 11.5 20.75C8.09768 20.745 5.51421 20.6711 4.42157 19.5784C3.25 18.4069 3.25 16.5212 3.25 12.75Z" fill="#FFFFFF" />
  <path opacity="0.5" fill-rule="nonzero" clip-rule="nonzero" d="M13.5908 2.75 C13.5908 2.33579 13.9266 2 14.3408 2 L15.2521 2 C15.6859 2 16.0905 2 16.4653 2.00323 C16.8795 2.00681 17.2124 2.34548 17.2088 2.75968 C17.2052 3.17387 16.8665 3.50675 16.4523 3.50318 C16.0846 3.50001 15.6861 3.5 15.2499 3.5 L14.3408 3.5 C13.9266 3.5 13.5908 3.16421 13.5908 2.75 Z M13.5908 20.75 C13.5908 20.3358 13.9266 20 14.3408 20 L15.2499 20 C15.6861 20 16.0846 20 16.4523 19.9968 C16.8665 19.9932 17.2052 20.3261 17.2088 20.7403 C17.2124 21.1545 16.8795 21.4932 16.4653 21.4968 C16.0905 21.5 15.686 21.5 15.2522 21.5 L14.3408 21.5 C13.9266 21.5 13.5908 21.1642 13.5908 20.75 Z M18.6211 2.8046 C18.744 2.40905 19.1643 2.18805 19.5599 2.31098 C20.0753 2.47116 20.522 2.71876 20.9016 3.09835 C21.2811 3.47793 21.5288 3.92463 21.6889 4.44002 C21.8119 4.83557 21.5909 5.25589 21.1953 5.37882 C20.7998 5.50175 20.3794 5.28075 20.2565 4.8852 C20.1567 4.56401 20.0224 4.34048 19.8409 4.15901 C19.6594 3.97754 19.4359 3.84322 19.1147 3.7434 C18.7192 3.62047 18.4982 3.20015 18.6211 2.8046 Z M18.6211 20.6954 C18.4982 20.2998 18.7192 19.8795 19.1147 19.7566 C19.4359 19.6568 19.6594 19.5225 19.8409 19.341 C20.0224 19.1595 20.1567 18.936 20.2565 18.6148 C20.3794 18.2193 20.7998 17.9983 21.1953 18.1212 C21.5909 18.2441 21.8119 18.6644 21.6889 19.06 C21.5288 19.5754 21.2811 20.0221 20.9016 20.4017 C20.522 20.7812 20.0753 21.0288 19.5599 21.189 C19.1643 21.312 18.744 21.091 18.6211 20.6954 Z M21.2402 6.79112 C21.6544 6.78755 21.9931 7.12043 21.9967 7.53462 C21.9999 7.90941 21.9999 8.31395 21.9999 8.7477 L21.9999 10.1136 C21.9999 10.5278 21.6641 10.8636 21.2499 10.8636 C20.8357 10.8636 20.4999 10.5278 20.4999 10.1136 L20.4999 8.75 C20.4999 8.31379 20.4999 7.9153 20.4967 7.54756 C20.4932 7.13337 20.826 6.79469 21.2402 6.79112 Z M21.2402 16.7089 C20.826 16.7053 20.4932 16.3666 20.4967 15.9524 C20.4999 15.5847 20.4999 15.1862 20.4999 14.75 L20.4999 13.3864 C20.4999 12.9721 20.8357 12.6364 21.2499 12.6364 C21.6641 12.6364 21.9999 12.9722 21.9999 13.3864 L21.9999 14.7523 C21.9999 15.186 21.9999 15.5906 21.9967 15.9654 C21.9931 16.3796 21.6544 16.7125 21.2402 16.7089 Z" fill="#FFFFFF" />
</svg>