<svg xmlns="http://www.w3.org/2000/svg" width="24" height="24" viewBox="0 0 24 24" fill="none">
  <path fill-rule="nonzero" clip-rule="nonzero" d="M 9 3.75 C 8.56379 3.75 8.1653 3.75001 7.79757 3.75318 C 7.38337 3.75675 7.0447 3.42387 7.04112 3.00968 C 7.03755 2.59548 7.37043 2.25681 7.78463 2.25323 C 8.15946 2.25 8.56405 2.25 8.99787 2.25 L 9.90909 2.25 C 10.3233 2.25 10.6591 2.58579 10.6591 3 C 10.6591 3.41421 10.3233 3.75 9.90909 3.75 L 9 3.75 Z M 5.62882 3.0546 C 5.75175 3.45015 5.53075 3.87047 5.1352 3.9934 C 4.81401 4.09322 4.59048 4.22754 4.40901 4.40901 C 4.22754 4.59048 4.09322 4.81401 3.9934 5.1352 C 3.87047 5.53075 3.45015 5.75175 3.0546 5.62882 C 2.65905 5.50589 2.43805 5.08557 2.56098 4.69002 C 2.72116 4.17463 2.96876 3.72794 3.34835 3.34835 C 3.72794 2.96876 4.17463 2.72116 4.69002 2.56098 C 5.08557 2.43805 5.50589 2.65905 5.62882 3.0546 Z M 3.00968 7.04112 C 3.42387 7.0447 3.75675 7.38337 3.75318 7.79756 C 3.75001 8.1653 3.75 8.56379 3.75 9 L 3.75 10.3636 C 3.75 10.7779 3.41421 11.1136 3 11.1136 C 2.58579 11.1136 2.25 10.7779 2.25 10.3636 L 2.25 8.99787 C 2.25 8.56405 2.25 8.15946 2.25323 7.78463 C 2.25681 7.37043 2.59548 7.03755 3.00968 7.04112 Z M 3 12.8864 C 3.41421 12.8864 3.75 13.2222 3.75 13.6364 L 3.75 15 C 3.75 15.4362 3.75001 15.8347 3.75318 16.2024 C 3.75675 16.6166 3.42387 16.9553 3.00968 16.9589 C 2.59548 16.9625 2.25681 16.6296 2.25323 16.2154 C 2.25 15.8405 2.25 15.4359 2.25 15.0021 L 2.25 13.6364 C 2.25 13.2222 2.58579 12.8864 3 12.8864 Z M 3.0546 18.3712 C 3.45015 18.2483 3.87047 18.4693 3.9934 18.8648 C 4.09322 19.186 4.22754 19.4095 4.40901 19.591 C 4.59048 19.7725 4.81401 19.9068 5.1352 20.0066 C 5.53075 20.1295 5.75175 20.5498 5.62882 20.9454 C 5.50589 21.341 5.08557 21.562 4.69002 21.439 C 4.17463 21.2788 3.72794 21.0312 3.34835 20.6517 C 2.96876 20.2721 2.72116 19.8254 2.56098 19.31 C 2.43805 18.9144 2.65905 18.4941 3.0546 18.3712 Z M 7.04112 20.9903 C 7.0447 20.5761 7.38337 20.2432 7.79756 20.2468 C 8.1653 20.25 8.56379 20.25 9 20.25 H 9.90909 C 10.3233 20.25 10.6591 20.5858 10.6591 21 C 10.6591 21.4142 10.3233 21.75 9.90909 21.75 H 8.9977 C 8.56395 21.75 8.15941 21.75 7.78463 21.7468 C 7.37043 21.7432 7.03755 21.4045 7.04112 20.9903 Z" fill="#FFFFFF" />
  <path fill-rule="nonzero" clip-rule="nonzero" d="M 12 1.25 C 12.4142 1.25 12.75 1.58579 12.75 2 V 2.25 L 13.0564 2.25 C 14.8942 2.24998 16.3498 2.24997 17.489 2.40313 C 18.6614 2.56076 19.6104 2.89288 20.3588 3.64124 C 21.1071 4.38961 21.4392 5.33856 21.5969 6.51098 C 21.75 7.65019 21.75 9.10583 21.75 10.9436 V 13.0564 C 21.75 14.8942 21.75 16.3498 21.5969 17.489 C 21.4392 18.6614 21.1071 19.6104 20.3588 20.3588 C 19.6104 21.1071 18.6614 21.4392 17.489 21.5969 C 16.3498 21.75 14.8942 21.75 13.0564 21.75 H 12.75 V 22 C 12.75 22.4142 12.4142 22.75 12 22.75 C 11.5858 22.75 11.25 22.4142 11.25 22 V 21.0004 L 11.25 3.00159 L 11.25 3 L 11.25 2.99841 V 2 C 11.25 1.58579 11.5858 1.25 12 1.25 Z M 12.75 3.75 L 12.75 20.25 H 13 C 14.9068 20.25 16.2615 20.2484 17.2891 20.1102 C 18.2952 19.975 18.8749 19.7213 19.2981 19.2981 C 19.7213 18.8749 19.975 18.2952 20.1102 17.2892 C 20.2484 16.2615 20.25 14.9068 20.25 13 V 11 C 20.25 9.09318 20.2484 7.73852 20.1102 6.71085 C 19.975 5.70476 19.7213 5.12511 19.2981 4.7019 C 18.8749 4.27869 18.2952 4.02502 17.2892 3.88976 C 16.2615 3.75159 14.9068 3.75 13 3.75 H 12.75 Z" fill="#FFFFFF" />
</svg>