<svg xmlns="http://www.w3.org/2000/svg" width="24" height="24" viewBox="0 0 24 24" fill="none">
  <path fill-rule="nonzero" clip-rule="nonzero" d="M 8.46778 1.25 H 15.5322 C 15.972 1.24998 16.3514 1.24997 16.6627 1.27818 C 16.9918 1.30802 17.3178 1.37407 17.625 1.55144 C 17.967 1.74892 18.2511 2.03296 18.4486 2.375 C 18.6259 2.68221 18.692 3.00817 18.7218 3.33735 C 18.7333 3.46384 18.7401 3.60156 18.7441 3.75 L 19.069 3.75 C 19.4934 3.74999 19.8477 3.74999 20.1388 3.76897 C 20.4418 3.78872 20.7283 3.83128 21.0074 3.94117 C 21.7174 4.22069 22.2793 4.78261 22.5588 5.49258 C 22.6687 5.77171 22.7113 6.05823 22.731 6.3612 C 22.75 6.65235 22.75 7.00665 22.75 7.43105 V 7.4551 C 22.75 7.4958 22.75 7.53596 22.7501 7.57559 C 22.7506 8.23353 22.7511 8.74599 22.593 9.19346 C 22.3636 9.84304 21.8987 10.3829 21.2904 10.7061 C 20.8713 10.9288 20.3644 11.0044 19.7137 11.1014 C 19.6745 11.1073 19.6348 11.1132 19.5945 11.1192 L 15.5179 11.7307 C 14.6861 11.8555 14.1318 11.94 13.7209 12.0556 C 13.3303 12.1654 13.1623 12.2796 13.0528 12.4067 C 12.9236 12.5567 12.8363 12.7669 12.7902 13.2599 C 12.9356 13.2662 13.072 13.2765 13.1972 13.2933 C 13.5527 13.3411 13.9284 13.4535 14.2374 13.7626 C 14.5465 14.0716 14.6589 14.4473 14.7067 14.8028 C 14.7501 15.1256 14.7501 15.5224 14.75 15.9553 V 20.0447 C 14.7501 20.4776 14.7501 20.8744 14.7067 21.1972 C 14.6589 21.5527 14.5465 21.9284 14.2374 22.2374 C 13.9284 22.5465 13.5527 22.6589 13.1972 22.7067 C 12.8744 22.7501 12.4776 22.7501 12.0447 22.75 H 11.9553 C 11.5224 22.7501 11.1256 22.7501 10.8028 22.7067 C 10.4473 22.6589 10.0716 22.5465 9.76256 22.2374 C 9.45354 21.9284 9.34109 21.5527 9.2933 21.1972 C 9.2499 20.8744 9.24995 20.4776 9.25 20.0448 V 15.9553 C 9.24995 15.5224 9.2499 15.1256 9.2933 14.8028 C 9.34109 14.4473 9.45354 14.0716 9.76256 13.7626 C 10.0716 13.4535 10.4473 13.3411 10.8028 13.2933 C 10.949 13.2736 11.1105 13.2629 11.2836 13.257 C 11.3358 12.5533 11.4805 11.9337 11.9162 11.4278 C 12.2913 10.9923 12.7718 10.7643 13.3149 10.6116 C 13.8273 10.4675 14.4759 10.3702 15.2486 10.2543 L 19.372 9.63581 C 20.2001 9.5116 20.4254 9.46711 20.5865 9.38148 C 20.8631 9.23455 21.0744 8.98918 21.1786 8.69392 C 21.2394 8.52185 21.25 8.29243 21.25 7.4551 C 21.25 7.00044 21.2496 6.6953 21.2342 6.45878 C 21.2192 6.22858 21.1922 6.11609 21.1631 6.04208 C 21.0361 5.71937 20.7806 5.46395 20.4579 5.3369 C 20.3839 5.30776 20.2714 5.2808 20.0412 5.26579 C 19.8047 5.25037 19.4996 5.25 19.0449 5.25 H 18.7441 C 18.7401 5.39845 18.7333 5.53617 18.7218 5.66265 C 18.692 5.99183 18.6259 6.31779 18.4486 6.625 C 18.2511 6.96704 17.967 7.25108 17.625 7.44856 C 17.3178 7.62593 16.9918 7.69198 16.6627 7.72182 C 16.3514 7.75003 15.972 7.75002 15.5322 7.75 H 8.46777 C 8.02799 7.75002 7.64864 7.75003 7.33735 7.72182 C 7.00817 7.69198 6.68221 7.62593 6.375 7.44856 C 6.03296 7.25108 5.74892 6.96704 5.55144 6.625 C 5.37407 6.31779 5.30802 5.99183 5.27818 5.66265 C 5.26567 5.5246 5.25871 5.37317 5.25484 5.20902 C 4.96102 5.10744 4.75 4.82836 4.75 4.5 C 4.75 4.17164 4.96102 3.89257 5.25484 3.79099 C 5.25871 3.62683 5.26567 3.4754 5.27818 3.33735 C 5.30802 3.00817 5.37407 2.68221 5.55144 2.375 C 5.74892 2.03296 6.03296 1.74892 6.375 1.55144 C 6.68221 1.37407 7.00817 1.30802 7.33735 1.27818 C 7.64864 1.24997 8.02799 1.24998 8.46778 1.25 Z M 12.0047 14.75 C 12.0031 14.75 12.0016 14.75 12 14.75 C 11.5074 14.75 11.2134 14.7516 11.0027 14.7799 C 10.9061 14.7929 10.8577 14.8082 10.836 14.8172 C 10.8309 14.8192 10.8276 14.8209 10.8257 14.8219 L 10.8232 14.8232 L 10.8219 14.8257 C 10.8209 14.8276 10.8192 14.8309 10.8172 14.836 C 10.8082 14.8577 10.7929 14.9061 10.7799 15.0027 C 10.7516 15.2134 10.75 15.5074 10.75 16 V 20 C 10.75 20.4926 10.7516 20.7866 10.7799 20.9973 C 10.7929 21.0939 10.8082 21.1423 10.8172 21.164 C 10.8192 21.1691 10.8209 21.1724 10.8219 21.1743 L 10.8232 21.1768 L 10.8257 21.1781 C 10.8276 21.1792 10.8309 21.1808 10.836 21.1828 C 10.8577 21.1918 10.9061 21.2071 11.0027 21.2201 C 11.2134 21.2484 11.5074 21.25 12 21.25 C 12.4926 21.25 12.7866 21.2484 12.9973 21.2201 C 13.0939 21.2071 13.1423 21.1918 13.164 21.1828 C 13.1676 21.1814 13.1703 21.1801 13.1723 21.1792 C 13.1731 21.1788 13.1738 21.1784 13.1743 21.1781 L 13.1768 21.1768 L 13.1781 21.1743 C 13.1791 21.1724 13.1808 21.1691 13.1828 21.164 C 13.1918 21.1423 13.2071 21.0939 13.2201 20.9973 C 13.2484 20.7866 13.25 20.4926 13.25 20 V 16 C 13.25 15.5074 13.2484 15.2134 13.2201 15.0027 C 13.2071 14.9061 13.1918 14.8577 13.1828 14.836 C 13.1808 14.8309 13.1791 14.8276 13.1781 14.8257 L 13.1768 14.8232 L 13.1743 14.8219 C 13.1731 14.8212 13.1712 14.8203 13.1687 14.8191 C 13.1673 14.8185 13.1658 14.8179 13.164 14.8172 C 13.1423 14.8082 13.0939 14.7929 12.9973 14.7799 C 12.7873 14.7517 12.4945 14.75 12.0047 14.75 Z M 7.47275 2.77206 C 7.2476 2.79247 7.16586 2.82689 7.125 2.85048 C 7.01099 2.91631 6.91631 3.01099 6.85048 3.125 C 6.82689 3.16586 6.79246 3.2476 6.77206 3.47275 C 6.75072 3.7082 6.75 4.01889 6.75 4.5 C 6.75 4.98111 6.75072 5.2918 6.77206 5.52726 C 6.79246 5.7524 6.82689 5.83414 6.85048 5.875 C 6.91631 5.98902 7.01099 6.08369 7.125 6.14952 C 7.16586 6.17311 7.2476 6.20754 7.47275 6.22794 C 7.7082 6.24928 8.01889 6.25 8.5 6.25 H 15.5 C 15.9811 6.25 16.2918 6.24928 16.5273 6.22794 C 16.7524 6.20754 16.8341 6.17311 16.875 6.14952 C 16.989 6.08369 17.0837 5.98902 17.1495 5.875 C 17.1731 5.83414 17.2075 5.7524 17.2279 5.52726 C 17.2493 5.2918 17.25 4.98111 17.25 4.5 C 17.25 4.01889 17.2493 3.7082 17.2279 3.47275 C 17.2075 3.2476 17.1731 3.16587 17.1495 3.125 C 17.0837 3.01099 16.989 2.91631 16.875 2.85048 C 16.8341 2.82689 16.7524 2.79247 16.5273 2.77206 C 16.2918 2.75072 15.9811 2.75 15.5 2.75 H 8.5 C 8.01889 2.75 7.7082 2.75072 7.47275 2.77206 Z M10.8232 14.8232 C10.823 14.8236 10.8228 14.8237 10.8232 14.8232 C10.8236 14.8228 10.8236 14.823 10.8232 14.8232 Z" fill="#FFFFFF" />
</svg>