<svg xmlns="http://www.w3.org/2000/svg" width="24" height="24" viewBox="0 0 24 24" fill="none">
  <path fill-rule="nonzero" clip-rule="nonzero" d="M 1.25 6 C 1.25 3.37665 3.37665 1.25 6 1.25 C 8.62335 1.25 10.75 3.37665 10.75 6 V 6.43202 L 12.7833 4.39868 C 14.6383 2.54369 17.6459 2.54369 19.5008 4.39868 C 21.3558 6.25367 21.3558 9.26121 19.5008 11.1162 L 17.367 13.25 H 18 C 20.6234 13.25 22.75 15.3766 22.75 18 C 22.75 20.6234 20.6234 22.75 18 22.75 H 6 C 3.37665 22.75 1.25 20.6234 1.25 18 V 6 Z M 9.46412 21.25 H 18 C 19.7949 21.25 21.25 19.7949 21.25 18 C 21.25 16.2051 19.7949 14.75 18 14.75 H 15.867 L 9.8889 20.7281 C 9.7596 20.9121 9.61758 21.0865 9.46412 21.25 Z M 10.75 17.7457 L 18.4402 10.0555 C 19.7094 8.78633 19.7094 6.72855 18.4402 5.45934 C 17.171 4.19014 15.1132 4.19014 13.844 5.45934 L 10.75 8.55334 V 17.7457 Z M 6 2.75 C 4.20507 2.75 2.75 4.20507 2.75 6 V 18 C 2.75 19.7949 4.20507 21.25 6 21.25 C 7.79493 21.25 9.25 19.7949 9.25 18 V 6 C 9.25 4.20507 7.79493 2.75 6 2.75 Z M 6 17.75 C 5.86193 17.75 5.75 17.8619 5.75 18 C 5.75 18.1381 5.86193 18.25 6 18.25 C 6.13807 18.25 6.25 18.1381 6.25 18 C 6.25 17.8619 6.13807 17.75 6 17.75 Z M 4.25 18 C 4.25 17.0335 5.0335 16.25 6 16.25 C 6.9665 16.25 7.75 17.0335 7.75 18 C 7.75 18.9665 6.9665 19.75 6 19.75 C 5.0335 19.75 4.25 18.9665 4.25 18 Z" fill="#FFFFFF" />
</svg>