<svg xmlns="http://www.w3.org/2000/svg" width="24" height="24" viewBox="0 0 24 24" fill="none">
  <path fill-rule="nonzero" clip-rule="nonzero" d="M 10.8468 21.9342 C 5.86713 21.3624 2 17.1328 2 12 C 2 6.47715 6.47715 2 12 2 C 17.5228 2 22 6.47715 22 12 C 22 17.1565 18.7173 16.7325 15.9135 16.3703 C 14.2964 16.1614 12.8386 15.9731 12.2619 16.888 C 11.8674 17.5136 12.2938 18.2938 12.8168 18.8168 C 13.4703 19.4703 13.4703 20.5297 12.8168 21.1832 C 12.2938 21.7062 11.5816 22.0186 10.8468 21.9342 Z M11.085 6.99976 C11.085 6.17133 10.4134 5.49976 9.585 5.49976 C8.75658 5.49976 8.085 6.17133 8.085 6.99976 C8.085 7.82818 8.75658 8.49976 9.585 8.49976 C10.4134 8.49976 11.085 7.82818 11.085 6.99976 Z M 6.5 13 C 7.32843 13 8 12.3284 8 11.5 C 8 10.6716 7.32843 9.99998 6.5 9.99998 C 5.67157 9.99998 5 10.6716 5 11.5 C 5 12.3284 5.67157 13 6.5 13 Z M 17.5 13 C 18.3284 13 19 12.3284 19 11.5 C 19 10.6716 18.3284 9.99998 17.5 9.99998 C 16.6716 9.99998 16 10.6716 16 11.5 C 16 12.3284 16.6716 13 17.5 13 Z M 14.5 8.49998 C 15.3284 8.49998 16 7.82841 16 6.99998 C 16 6.17156 15.3284 5.49998 14.5 5.49998 C 13.6716 5.49998 13 6.17156 13 6.99998 C 13 7.82841 13.6716 8.49998 14.5 8.49998 Z" fill="#FFFFFF" />
</svg>