<svg xmlns="http://www.w3.org/2000/svg" width="24" height="24" viewBox="0 0 24 24" fill="none">
  <path fill-rule="nonzero" clip-rule="nonzero" d="M 5.96858 1.25 H 6.03142 C 6.7048 1.24999 7.25551 1.24998 7.70307 1.28655 C 8.16633 1.3244 8.58473 1.40514 8.97547 1.60423 C 9.587 1.91582 10.0842 2.413 10.3958 3.02453 C 10.5949 3.41527 10.6756 3.83367 10.7134 4.29693 C 10.75 4.74449 10.75 5.29519 10.75 5.96856 V 6.43202 L 12.8055 4.37648 C 13.2817 3.90032 13.6711 3.5109 14.0134 3.22028 C 14.3678 2.91947 14.7207 2.6807 15.1378 2.54519 C 15.7905 2.3331 16.4937 2.3331 17.1464 2.54519 C 17.5635 2.6807 17.9164 2.91947 18.2708 3.22028 C 18.6131 3.51089 19.0025 3.9003 19.4786 4.37644 L 19.5231 4.42095 C 19.9992 4.89707 20.3886 5.28646 20.6793 5.62878 C 20.9801 5.98312 21.2188 6.33606 21.3543 6.75314 C 21.5664 7.40588 21.5664 8.109 21.3543 8.76175 C 21.2188 9.17882 20.9801 9.53176 20.6793 9.8861 C 20.3886 10.2284 19.9992 10.6178 19.5231 11.0939 L 17.367 13.25 H 18.0314 C 18.7048 13.25 19.2555 13.25 19.7031 13.2866 C 20.1663 13.3244 20.5847 13.4051 20.9755 13.6042 C 21.587 13.9158 22.0842 14.413 22.3958 15.0245 C 22.5949 15.4153 22.6756 15.8337 22.7134 16.2969 C 22.75 16.7445 22.75 17.2952 22.75 17.9686 V 18.0314 C 22.75 18.7048 22.75 19.2555 22.7134 19.7031 C 22.6756 20.1663 22.5949 20.5847 22.3958 20.9755 C 22.0842 21.587 21.587 22.0842 20.9755 22.3958 C 20.5847 22.5949 20.1663 22.6756 19.7031 22.7134 C 19.2555 22.75 18.7048 22.75 18.0314 22.75 H 6.08734 C 6.0688 22.75 6.05017 22.75 6.03144 22.75 H 5.96856 C 5.29519 22.75 4.74449 22.75 4.29693 22.7134 C 3.83367 22.6756 3.41527 22.5949 3.02453 22.3958 C 2.413 22.0842 1.91582 21.587 1.60423 20.9755 C 1.40514 20.5847 1.3244 20.1663 1.28655 19.7031 C 1.24998 19.2555 1.24999 18.7048 1.25 18.0314 V 5.96858 C 1.24999 5.2952 1.24998 4.7445 1.28655 4.29693 C 1.3244 3.83367 1.40514 3.41527 1.60423 3.02453 C 1.91582 2.413 2.413 1.91582 3.02453 1.60423 C 3.41527 1.40514 3.83367 1.3244 4.29693 1.28655 C 4.7445 1.24998 5.2952 1.24999 5.96858 1.25 Z M 10.2386 21.25 H 18 C 18.7124 21.25 19.2017 21.2494 19.5809 21.2184 C 19.9514 21.1882 20.1504 21.1327 20.2945 21.0593 C 20.6238 20.8915 20.8915 20.6238 21.0593 20.2945 C 21.1327 20.1504 21.1882 19.9514 21.2184 19.5809 C 21.2494 19.2017 21.25 18.7124 21.25 18 C 21.25 17.2876 21.2494 16.7983 21.2184 16.4191 C 21.1882 16.0486 21.1327 15.8496 21.0593 15.7055 C 20.8915 15.3762 20.6238 15.1085 20.2945 14.9407 C 20.1504 14.8673 19.9514 14.8118 19.5809 14.7816 C 19.2017 14.7506 18.7124 14.75 18 14.75 H 15.867 L 10.6912 19.9258 C 10.6462 20.3018 10.5625 20.6483 10.3958 20.9755 C 10.3477 21.0698 10.2952 21.1614 10.2386 21.25 Z M 10.75 17.7457 L 18.4402 10.0555 C 18.944 9.55177 19.2895 9.20542 19.5357 8.91533 C 19.7763 8.63195 19.8778 8.45197 19.9278 8.29822 C 20.042 7.94674 20.042 7.56814 19.9278 7.21666 C 19.8778 7.06291 19.7763 6.88294 19.5357 6.59955 C 19.2895 6.30946 18.944 5.96312 18.4402 5.45934 C 17.9364 4.95557 17.5901 4.61005 17.3 4.36379 C 17.0166 4.12321 16.8366 4.02173 16.6829 3.97177 C 16.3314 3.85757 15.9528 3.85757 15.6013 3.97177 C 15.4476 4.02173 15.2676 4.12321 14.9842 4.36379 C 14.6941 4.61005 14.3478 4.95557 13.844 5.45934 L 11.7019 7.60143 C 11.0806 8.22277 10.927 8.39509 10.8452 8.59275 C 10.7637 8.78946 10.7501 9.0186 10.75 9.88681 C 10.75 9.89104 10.75 9.89528 10.75 9.89953 L 10.75 17.7457 Z M9.25 18.0413 C9.25 18.0276 9.25 18.0138 9.25 18 L9.25 9.89953 C9.25 9.85876 9.24996 9.81849 9.24992 9.77869 C9.24985 9.7004 9.24978 9.62395 9.25 9.54918 L9.25 6 C9.25 5.28756 9.24942 4.79833 9.21843 4.41908 C9.18816 4.04858 9.13265 3.84956 9.05926 3.70552 C8.89148 3.37623 8.62377 3.10852 8.29448 2.94074 C8.15045 2.86735 7.95142 2.81184 7.58092 2.78157 C7.20167 2.75058 6.71244 2.75 6 2.75 C5.28756 2.75 4.79833 2.75058 4.41908 2.78157 C4.04858 2.81184 3.84956 2.86735 3.70552 2.94074 C3.37623 3.10852 3.10852 3.37623 2.94074 3.70552 C2.86735 3.84956 2.81184 4.04858 2.78157 4.41908 C2.75058 4.79833 2.75 5.28756 2.75 6 L2.75 18 C2.75 18.7124 2.75058 19.2017 2.78157 19.5809 C2.81184 19.9514 2.86735 20.1504 2.94074 20.2945 C3.10852 20.6238 3.37623 20.8915 3.70552 21.0593 C3.84956 21.1327 4.04858 21.1882 4.41908 21.2184 C4.79833 21.2494 5.28756 21.25 6 21.25 C6.71244 21.25 7.20167 21.2494 7.58092 21.2184 C7.95142 21.1882 8.15044 21.1327 8.29448 21.0593 C8.62377 20.8915 8.89148 20.6238 9.05926 20.2945 C9.13265 20.1504 9.18816 19.9514 9.21843 19.5809 C9.24882 19.209 9.24997 18.7314 9.25 18.0413 Z M 4.25 19 C 4.25 18.5858 4.58579 18.25 5 18.25 H 7 C 7.41421 18.25 7.75 18.5858 7.75 19 C 7.75 19.4142 7.41421 19.75 7 19.75 H 5 C 4.58579 19.75 4.25 19.4142 4.25 19 Z" fill="#FFFFFF" />
</svg>