<svg xmlns="http://www.w3.org/2000/svg" width="24" height="24" viewBox="0 0 24 24" fill="none">
  <path fill-rule="nonzero" clip-rule="nonzero" d="M 12 2.75 C 6.89321 2.75 2.75 6.90121 2.75 12.0261 C 2.75 16.7885 6.32861 20.7112 10.9326 21.2412 C 11.395 21.2944 11.89 21.1004 12.2858 20.7036 C 12.6473 20.3412 12.6473 19.7528 12.2858 19.3904 C 11.9739 19.0776 11.6611 18.6609 11.4899 18.1872 C 11.3146 17.702 11.2713 17.0933 11.627 16.5276 C 11.9499 16.014 12.4341 15.739 12.9421 15.6053 C 13.4313 15.4766 13.9734 15.4693 14.494 15.5009 C 14.978 15.5303 15.4991 15.5978 16.0045 15.6633 C 16.0471 15.6689 16.0896 15.6744 16.132 15.6798 C 16.6889 15.7517 17.2328 15.8188 17.7581 15.8439 C 18.8324 15.8954 19.6599 15.76 20.2254 15.2976 C 20.7667 14.8552 21.25 13.9568 21.25 12.0261 C 21.25 6.90121 17.1068 2.75 12 2.75 Z M 1.25 12.0261 C 1.25 6.07647 6.0611 1.25 12 1.25 C 17.9389 1.25 22.75 6.07647 22.75 12.0261 C 22.75 14.1713 22.2132 15.6101 21.1748 16.459 C 20.1608 17.2879 18.8495 17.398 17.6863 17.3422 C 17.0929 17.3138 16.4934 17.239 15.9399 17.1675 C 15.901 17.1625 15.8625 17.1575 15.8241 17.1525 C 15.3046 17.0853 14.8335 17.0243 14.4032 16.9982 C 13.937 16.9699 13.5828 16.9878 13.3239 17.0559 C 13.0837 17.1191 12.968 17.2127 12.8968 17.326 C 12.858 17.3877 12.8307 17.4837 12.9007 17.6775 C 12.9749 17.8829 13.1368 18.1195 13.3478 18.3311 C 14.2933 19.279 14.2933 20.815 13.3478 21.7629 C 12.6976 22.4148 11.7682 22.8473 10.761 22.7314 C 5.40565 22.1148 1.25 17.5562 1.25 12.0261 Z M 9.585 6.24977 C 9.17079 6.24977 8.835 6.58556 8.835 6.99977 C 8.835 7.41399 9.17079 7.74977 9.585 7.74977 C 9.99922 7.74977 10.335 7.41399 10.335 6.99977 C 10.335 6.58556 9.99922 6.24977 9.585 6.24977 Z M 7.335 6.99977 C 7.335 5.75713 8.34236 4.74977 9.585 4.74977 C 10.8276 4.74977 11.835 5.75713 11.835 6.99977 C 11.835 8.24241 10.8276 9.24977 9.585 9.24977 C 8.34236 9.24977 7.335 8.24241 7.335 6.99977 Z M 14.5 6.25 C 14.0858 6.25 13.75 6.58579 13.75 7 C 13.75 7.41421 14.0858 7.75 14.5 7.75 C 14.9142 7.75 15.25 7.41421 15.25 7 C 15.25 6.58579 14.9142 6.25 14.5 6.25 Z M 12.25 7 C 12.25 5.75736 13.2574 4.75 14.5 4.75 C 15.7426 4.75 16.75 5.75736 16.75 7 C 16.75 8.24264 15.7426 9.25 14.5 9.25 C 13.2574 9.25 12.25 8.24264 12.25 7 Z M 6.5 10.75 C 6.08579 10.75 5.75 11.0858 5.75 11.5 C 5.75 11.9142 6.08579 12.25 6.5 12.25 C 6.91421 12.25 7.25 11.9142 7.25 11.5 C 7.25 11.0858 6.91421 10.75 6.5 10.75 Z M 4.25 11.5 C 4.25 10.2574 5.25736 9.25 6.5 9.25 C 7.74264 9.25 8.75 10.2574 8.75 11.5 C 8.75 12.7426 7.74264 13.75 6.5 13.75 C 5.25736 13.75 4.25 12.7426 4.25 11.5 Z M 17.5 10.75 C 17.0858 10.75 16.75 11.0858 16.75 11.5 C 16.75 11.9142 17.0858 12.25 17.5 12.25 C 17.9142 12.25 18.25 11.9142 18.25 11.5 C 18.25 11.0858 17.9142 10.75 17.5 10.75 Z M 15.25 11.5 C 15.25 10.2574 16.2574 9.25 17.5 9.25 C 18.7426 9.25 19.75 10.2574 19.75 11.5 C 19.75 12.7426 18.7426 13.75 17.5 13.75 C 16.2574 13.75 15.25 12.7426 15.25 11.5 Z" fill="#FFFFFF" />
</svg>