<svg xmlns="http://www.w3.org/2000/svg" width="24" height="24" viewBox="0 0 24 24" fill="none">
  <path fill-rule="nonzero" clip-rule="nonzero" d="M 20.2638 3.73616 C 18.949 2.42128 16.8171 2.42128 15.5022 3.73616 L 14.0466 5.19173 C 13.906 5.33239 13.7152 5.4114 13.5163 5.4114 C 13.3174 5.4114 13.1266 5.33239 12.986 5.19173 L 11.8943 4.10006 C 11.5843 3.79003 11.0816 3.79003 10.7716 4.10006 C 10.4616 4.41008 10.4616 4.91273 10.7716 5.22275 L 18.7772 13.2284 C 19.0873 13.5384 19.5899 13.5384 19.8999 13.2284 C 20.21 12.9184 20.21 12.4157 19.8999 12.1057 L 18.8083 11.014 C 18.5154 10.7211 18.5154 10.2462 18.8083 9.95336 L 20.2638 8.49779 C 21.5787 7.1829 21.5787 5.05105 20.2638 3.73616 Z M 14.4416 2.6755 C 16.3422 0.774832 19.4238 0.774832 21.3245 2.6755 C 23.2252 4.57618 23.2252 7.65777 21.3245 9.55845 L 20.3993 10.4837 L 20.9606 11.045 C 21.8564 11.9408 21.8564 13.3932 20.9606 14.2891 C 20.0648 15.1849 18.6124 15.1849 17.7166 14.2891 L 17.1552 13.7277 L 11.0615 19.8214 C 11.0389 19.844 11.0167 19.8663 10.9947 19.8883 C 10.6043 20.2792 10.3001 20.5839 9.92526 20.7825 C 9.67672 20.9142 9.40981 21.0079 9.13345 21.0603 C 8.71668 21.1393 8.28882 21.0915 7.73977 21.0301 C 7.70884 21.0266 7.67753 21.0231 7.64581 21.0196 L 7.17049 20.9668 C 6.98329 20.946 6.9314 20.9408 6.88523 20.9395 C 6.56202 20.93 6.24677 21.0406 6.00027 21.2499 C 5.96506 21.2798 5.92777 21.3163 5.79458 21.4494 L 5.16587 22.0781 C 4.27006 22.974 2.81767 22.974 1.92186 22.0781 C 1.02605 21.1823 1.02605 19.7299 1.92186 18.8341 L 2.55057 18.2054 C 2.68376 18.0722 2.72021 18.0349 2.7501 17.9997 C 2.95937 17.7532 3.06996 17.438 3.06054 17.1148 C 3.05919 17.0686 3.05401 17.0167 3.03321 16.8295 L 2.9804 16.3542 C 2.97687 16.3225 2.97337 16.2911 2.96991 16.2602 C 2.90852 15.7112 2.86068 15.2833 2.93971 14.8665 C 2.99212 14.5902 3.08575 14.3233 3.21746 14.0747 C 3.4161 13.6999 3.72074 13.3957 4.11163 13.0054 C 4.13367 12.9834 4.15598 12.9611 4.17856 12.9385 L 10.2723 6.84476 L 9.71095 6.28341 C 8.81514 5.3876 8.81514 3.93521 9.71095 3.0394 C 10.6068 2.14359 12.0592 2.14359 12.955 3.0394 L 13.5163 3.60074 L 14.4416 2.6755 Z M 11.333 7.90542 L 5.23922 13.9992 C 4.75037 14.488 4.62249 14.6269 4.54285 14.7771 C 4.48149 14.8929 4.43786 15.0173 4.41345 15.146 C 4.38176 15.3131 4.39488 15.5014 4.47122 16.1885 L 4.52689 16.6895 C 4.54359 16.8395 4.55654 16.9559 4.5599 17.0711 C 4.58012 17.7648 4.34277 18.4414 3.8936 18.9705 C 3.81904 19.0583 3.73622 19.1411 3.62947 19.2478 L 3.61123 19.2661 L 2.98252 19.8948 C 2.67249 20.2048 2.67249 20.7075 2.98252 21.0175 C 3.29254 21.3275 3.79519 21.3275 4.10521 21.0175 L 4.75222 20.3705 C 4.85887 20.2638 4.94168 20.1809 5.02949 20.1064 C 5.55856 19.6572 6.23522 19.4199 6.92895 19.4401 C 7.04412 19.4435 7.1605 19.4564 7.31052 19.4731 L 7.81145 19.5288 C 8.49856 19.6051 8.68687 19.6182 8.85397 19.5866 C 8.98272 19.5621 9.10708 19.5185 9.22287 19.4571 C 9.37314 19.3775 9.51201 19.2496 10.0008 18.7608 L 11.4393 17.3223 L 10.1162 15.9992 C 9.82332 15.7063 9.82332 15.2314 10.1162 14.9385 C 10.4091 14.6456 10.884 14.6456 11.1769 14.9385 L 12.5 16.2616 L 13.4393 15.3223 L 12.1162 13.9992 C 11.8233 13.7063 11.8233 13.2314 12.1162 12.9385 C 12.4091 12.6456 12.884 12.6456 13.1769 12.9385 L 14.5 14.2616 L 16.0946 12.667 L 11.333 7.90542 Z" fill="#FFFFFF" />
</svg>