<svg xmlns="http://www.w3.org/2000/svg" width="24" height="24" viewBox="0 0 24 24" fill="none">
  <path fill-rule="nonzero" clip-rule="nonzero" d="M 16.9997 20.66 C 12.2168 23.4214 6.10089 21.7826 3.33946 16.9997 C 0.578039 12.2168 2.21679 6.10089 6.99972 3.33946 C 8.94932 2.21386 11.1204 1.81935 13.1955 2.07088 C 16.2112 2.43642 19.0242 4.1664 20.66 6.99972 C 22.2958 9.83304 22.3875 13.1341 21.1962 15.9286 C 20.3765 17.8514 18.9493 19.5344 16.9997 20.66 Z M 14.25 6.5 C 14.6642 6.5 15 6.16421 15 5.75 C 15 5.33579 14.6642 5 14.25 5 C 13.8358 5 13.5 5.33579 13.5 5.75 C 13.5 6.16421 13.8358 6.5 14.25 6.5 Z M 14.25 11 C 14.9404 11 15.5 10.4404 15.5 9.75 C 15.5 9.05964 14.9404 8.5 14.25 8.5 C 13.5596 8.5 13 9.05964 13 9.75 C 13 10.4404 13.5596 11 14.25 11 Z M 14.25 15.5 C 14.9404 15.5 15.5 14.9404 15.5 14.25 C 15.5 13.5596 14.9404 13 14.25 13 C 13.5596 13 13 13.5596 13 14.25 C 13 14.9404 13.5596 15.5 14.25 15.5 Z M11 14.25 C11 13.5596 10.4404 13 9.75 13 C9.05964 13 8.5 13.5596 8.5 14.25 C8.5 14.9404 9.05964 15.5 9.75 15.5 C10.4404 15.5 11 14.9404 11 14.25 Z M 9.75 11 C 10.4404 11 11 10.4404 11 9.75 C 11 9.05964 10.4404 8.5 9.75 8.5 C 9.05964 8.5 8.5 9.05964 8.5 9.75 C 8.5 10.4404 9.05964 11 9.75 11 Z M15 18.25 C15 17.8358 14.6642 17.5 14.25 17.5 C13.8358 17.5 13.5 17.8358 13.5 18.25 C13.5 18.6642 13.8358 19 14.25 19 C14.6642 19 15 18.6642 15 18.25 Z M 9.75 19 C 10.1642 19 10.5 18.6642 10.5 18.25 C 10.5 17.8358 10.1642 17.5 9.75 17.5 C 9.33579 17.5 9 17.8358 9 18.25 C 9 18.6642 9.33579 19 9.75 19 Z M 9.75 6.5 C 10.1642 6.5 10.5 6.16421 10.5 5.75 C 10.5 5.33579 10.1642 5 9.75 5 C 9.33579 5 9 5.33579 9 5.75 C 9 6.16421 9.33579 6.5 9.75 6.5 Z M18.25 9 C17.8358 9 17.5 9.33579 17.5 9.75 C17.5 10.1642 17.8358 10.5 18.25 10.5 C18.6642 10.5 19 10.1642 19 9.75 C19 9.33579 18.6642 9 18.25 9 Z M 6.5 9.75 C 6.5 9.33579 6.16421 9 5.75 9 C 5.33579 9 5 9.33579 5 9.75 C 5 10.1642 5.33579 10.5 5.75 10.5 C 6.16421 10.5 6.5 10.1642 6.5 9.75 Z M18.25 13.5 C17.8358 13.5 17.5 13.8358 17.5 14.25 C17.5 14.6642 17.8358 15 18.25 15 C18.6642 15 19 14.6642 19 14.25 C19 13.8358 18.6642 13.5 18.25 13.5 Z M 6.5 14.25 C 6.5 13.8358 6.16421 13.5 5.75 13.5 C 5.33579 13.5 5 13.8358 5 14.25 C 5 14.6642 5.33579 15 5.75 15 C 6.16421 15 6.5 14.6642 6.5 14.25 Z" fill="#FFFFFF" />
</svg>