<svg xmlns="http://www.w3.org/2000/svg" width="24" height="24" viewBox="0 0 24 24" fill="none">
  <path fill-rule="nonzero" clip-rule="nonzero" d="M 7.58656 3.10761 C 7.18916 3.41081 6.7188 3.87892 6.02202 4.5757 L 4.57572 6.022 C 3.87894 6.71878 3.41083 7.18914 3.10763 7.58654 C 2.81764 7.96662 2.75002 8.19057 2.75002 8.38426 C 2.75002 8.57795 2.81764 8.8019 3.10763 9.18198 C 3.41083 9.57937 3.87894 10.0497 4.57572 10.7465 C 4.86862 11.0394 4.86862 11.5143 4.57572 11.8072 C 4.28283 12.1001 3.80796 12.1001 3.51506 11.8072 L 3.47816 11.7703 C 2.8278 11.12 2.28668 10.5789 1.9151 10.0919 C 1.5233 9.57835 1.25002 9.03779 1.25002 8.38426 C 1.25002 7.73073 1.5233 7.19018 1.9151 6.67666 C 2.28668 6.18964 2.8278 5.64856 3.47816 4.99824 C 3.49042 4.98598 3.50272 4.97368 3.51506 4.96134 L 4.96136 3.51504 C 4.97369 3.50271 4.98599 3.49041 4.99825 3.47815 C 5.64857 2.82778 6.18966 2.28666 6.67668 1.91508 C 7.1902 1.52328 7.73075 1.25 8.38428 1.25 C 9.03781 1.25 9.57837 1.52328 10.0919 1.91508 C 10.5789 2.28666 11.12 2.82778 11.7703 3.47814 L 11.8072 3.51504 C 11.9479 3.65569 12.0269 3.84646 12.0269 4.04537 C 12.0269 4.24428 11.9479 4.43505 11.8072 4.5757 L 9.39671 6.98619 C 9.10382 7.27909 8.62894 7.27909 8.33605 6.98619 C 8.04316 6.6933 8.04316 6.21843 8.33605 5.92553 L 10.215 4.04659 C 9.79407 3.63157 9.46901 3.32658 9.18201 3.10761 C 8.80192 2.81761 8.57797 2.75 8.38428 2.75 C 8.19059 2.75 7.96664 2.81762 7.58656 3.10761 Z M 19.9547 11.9731 C 20.1536 11.9731 20.3443 12.0522 20.485 12.1928 L 20.5219 12.2297 C 21.1722 12.88 21.7134 13.4211 22.0849 13.9081 C 22.4767 14.4217 22.75 14.9622 22.75 15.6157 C 22.75 16.2693 22.4767 16.8098 22.0849 17.3233 C 21.7134 17.8104 21.1722 18.3514 20.5219 19.0018 L 19.0018 20.5219 C 18.3515 21.1722 17.8104 21.7133 17.3234 22.0849 C 16.8098 22.4767 16.2693 22.75 15.6158 22.75 C 14.9622 22.75 14.4217 22.4767 13.9082 22.0849 C 13.4211 21.7133 12.8801 21.1722 12.2297 20.5219 L 12.1928 20.485 C 11.8999 20.1921 11.8999 19.7172 12.1928 19.4243 C 12.4857 19.1314 12.9606 19.1314 13.2535 19.4243 C 13.9503 20.1211 14.4206 20.5892 14.818 20.8924 C 15.1981 21.1824 15.4221 21.25 15.6158 21.25 C 15.8095 21.25 16.0334 21.1824 16.4135 20.8924 C 16.8109 20.5892 17.2812 20.1211 17.978 19.4243 L 19.4243 17.978 C 20.1211 17.2812 20.5892 16.8109 20.8924 16.4135 C 21.1824 16.0334 21.25 15.8094 21.25 15.6157 C 21.25 15.422 21.1824 15.1981 20.8924 14.818 C 20.6734 14.531 20.3685 14.206 19.9534 13.785 L 18.0745 15.664 C 17.7816 15.9569 17.3067 15.9569 17.0138 15.664 C 16.7209 15.3711 16.7209 14.8962 17.0138 14.6033 L 19.4243 12.1928 C 19.565 12.0522 19.7557 11.9731 19.9547 11.9731 Z" fill="#FFFFFF" />
  <path fill-rule="nonzero" clip-rule="nonzero" d="M 14.7566 2.62145 C 16.5852 0.792851 19.55 0.792851 21.3786 2.62145 C 23.2072 4.45005 23.2072 7.41479 21.3786 9.24339 L 11.8933 18.7287 C 11.3514 19.2706 11.0323 19.5897 10.6774 19.8665 C 10.2592 20.1927 9.80655 20.4725 9.32766 20.7007 C 8.92136 20.8943 8.49334 21.037 7.76623 21.2793 L 4.43511 22.3897 L 3.63303 22.6571 C 2.98247 22.8739 2.26522 22.7046 1.78032 22.2197 C 1.29542 21.7348 1.1261 21.0175 1.34296 20.367 L 2.72068 16.2338 C 2.96303 15.5067 3.10568 15.0787 3.29932 14.6724 C 3.52755 14.1935 3.80727 13.7409 4.13354 13.3226 C 4.41035 12.9677 4.72939 12.6487 5.27137 12.1067 L 14.7566 2.62145 Z M 20.3179 3.68211 C 19.0751 2.4393 17.0601 2.4393 15.8173 3.68211 L 15.1554 4.34404 C 15.1896 4.519 15.2474 4.75684 15.3438 5.03487 C 15.561 5.66083 15.9712 6.48288 16.7442 7.25585 C 17.5171 8.02881 18.3392 8.43903 18.9651 8.6562 C 19.2432 8.75266 19.481 8.81046 19.656 8.84466 L 20.3179 8.18272 C 21.5607 6.93991 21.5607 4.92492 20.3179 3.68211 Z M 18.4393 10.0614 C 17.6506 9.78321 16.6346 9.26763 15.6835 8.31651 C 14.7324 7.36538 14.2168 6.34939 13.9387 5.56075 L 6.36917 13.1302 C 5.77951 13.7199 5.52959 13.9716 5.3163 14.2451 C 5.05704 14.5775 4.83476 14.9371 4.65341 15.3177 C 4.50421 15.6307 4.3908 15.9669 4.12709 16.758 L 3.17992 19.5995 L 4.40051 20.8201 L 7.24203 19.8729 C 8.03314 19.6092 8.36927 19.4958 8.68233 19.3466 C 9.06287 19.1653 9.42252 18.943 9.75492 18.6837 C 10.0284 18.4704 10.2801 18.2205 10.8698 17.6308 L 18.4393 10.0614 Z" fill="#FFFFFF" />
</svg>