<svg xmlns="http://www.w3.org/2000/svg" width="24" height="24" viewBox="0 0 24 24" fill="none">
  <path fill-rule="nonzero" clip-rule="nonzero" d="M 15.948 1.25 L 18.052 1.25 C 18.9505 1.24997 19.6997 1.24995 20.2945 1.32991 C 20.9223 1.41432 21.4891 1.59999 21.9446 2.05546 C 22.4 2.51093 22.5857 3.07773 22.6701 3.70552 C 22.7501 4.30031 22.75 5.04953 22.75 5.94801 V 18.052 C 22.75 18.9505 22.7501 19.6997 22.6701 20.2945 C 22.5857 20.9223 22.4 21.4891 21.9446 21.9445 C 21.4891 22.4 20.9223 22.5857 20.2945 22.6701 C 19.6997 22.7501 18.9505 22.75 18.052 22.75 H 15.948 C 15.0495 22.75 14.3003 22.7501 13.7055 22.6701 C 13.0777 22.5857 12.5109 22.4 12.0555 21.9445 C 11.6 21.4891 11.4143 20.9223 11.3299 20.2945 C 11.2499 19.6997 11.25 18.9505 11.25 18.052 V 5.94801 C 11.25 5.04953 11.2499 4.30031 11.3299 3.70552 C 11.4143 3.07773 11.6 2.51093 12.0555 2.05546 C 12.5109 1.59999 13.0777 1.41432 13.7055 1.32991 C 14.3003 1.24995 15.0495 1.24997 15.948 1.25 Z M12.75 9.75 L12.75 11.25 L14 11.25 C14.4142 11.25 14.75 11.5858 14.75 12 C14.75 12.4142 14.4142 12.75 14 12.75 L12.75 12.75 L12.75 14.25 L15 14.25 C15.4142 14.25 15.75 14.5858 15.75 15 C15.75 15.4142 15.4142 15.75 15 15.75 L12.75 15.75 L12.75 17.25 L14 17.25 C14.4142 17.25 14.75 17.5858 14.75 18 C14.75 18.4142 14.4142 18.75 14 18.75 L12.7518 18.75 C12.756 19.3194 12.7701 19.7491 12.8165 20.0946 C12.8786 20.5561 12.9858 20.7536 13.1161 20.8839 C13.2464 21.0142 13.4439 21.1214 13.9054 21.1835 C14.3884 21.2484 15.036 21.25 16 21.25 L18 21.25 C18.964 21.25 19.6116 21.2484 20.0946 21.1835 C20.5561 21.1214 20.7536 21.0142 20.8839 20.8839 C21.0142 20.7536 21.1214 20.5561 21.1835 20.0946 C21.2484 19.6116 21.25 18.964 21.25 18 L21.25 6 C21.25 5.03599 21.2484 4.38843 21.1835 3.90539 C21.1214 3.44393 21.0142 3.24644 20.8839 3.11612 C20.7536 2.9858 20.5561 2.87858 20.0946 2.81654 C19.6116 2.7516 18.964 2.75 18 2.75 L16 2.75 C15.036 2.75 14.3884 2.7516 13.9054 2.81654 C13.4439 2.87858 13.2464 2.9858 13.1161 3.11612 C12.9858 3.24644 12.8786 3.44393 12.8165 3.9054 C12.7701 4.2509 12.756 4.68057 12.7518 5.25 L14 5.25 C14.4142 5.25 14.75 5.58579 14.75 6 C14.75 6.41422 14.4142 6.75 14 6.75 L12.75 6.75 L12.75 8.25 L15 8.25 C15.4142 8.25 15.75 8.58579 15.75 9 C15.75 9.41422 15.4142 9.75 15 9.75 L12.75 9.75 Z M 1.25 4.85 C 1.25001 2.82599 2.96565 1.25 5.00001 1.25 C 7.03436 1.25 8.75 2.82599 8.75 4.85 L 8.75001 15.5847 C 8.75005 16.1279 8.75007 16.4692 8.70597 16.8082 C 8.65403 17.2074 8.5565 17.5996 8.41535 17.9779 C 8.29559 18.2988 8.13547 18.603 7.87948 19.0893 L 6.3873 21.9245 C 6.11397 22.4438 5.57043 22.75 5 22.75 C 4.42957 22.75 3.88604 22.4438 3.61271 21.9245 L 2.12053 19.0893 C 1.86454 18.603 1.70442 18.2989 1.58466 17.9779 C 1.44351 17.5996 1.34598 17.2074 1.29404 16.8082 C 1.24994 16.4692 1.24996 16.1279 1.25 15.5847 L 1.25 4.85 Z M 5.00001 2.75 C 3.72065 2.75 2.75001 3.72599 2.75001 4.85 L 2.75001 5.40497 C 2.84638 5.46221 2.96715 5.52769 3.11065 5.59379 C 3.54827 5.79536 4.19123 6 5.00001 6 C 5.80878 6 6.45174 5.79536 6.88936 5.59379 C 7.03286 5.52769 7.15363 5.46221 7.25 5.40497 L 7.25 4.85 C 7.25 3.72599 6.27936 2.75 5.00001 2.75 Z M 7.25 7.07103 C 6.67722 7.30056 5.91577 7.5 5.00001 7.5 C 4.08424 7.5 3.32279 7.30056 2.75001 7.07103 L 2.75001 15.5338 C 2.75001 16.1439 2.75144 16.3836 2.7815 16.6146 C 2.81866 16.9002 2.8885 17.1815 2.99001 17.4535 C 3.07232 17.6741 3.18452 17.8903 3.4716 18.4357 L 4.44075 20.2771 H 5.55926 L 6.52841 18.4357 C 6.81549 17.8903 6.92769 17.6741 7.01 17.4535 C 7.11151 17.1815 7.18135 16.9002 7.21851 16.6146 C 7.24857 16.3836 7.25 16.1439 7.25 15.5338 L 7.25 7.07103 Z M2.47966 5.22344 C2.47929 5.22313 2.47932 5.22321 2.481 5.22455 L2.47966 5.22344 Z M7.51839 5.22502 C7.51939 5.22422 7.52003 5.2237 7.5203 5.22348 L7.51839 5.22502 Z" fill="#FFFFFF" />
</svg>