<svg xmlns="http://www.w3.org/2000/svg" width="24" height="24" viewBox="0 0 24 24" fill="none">
  <path fill-rule="nonzero" clip-rule="nonzero" d="M 13.6882 4.14229 L 14.6516 5.10571 C 14.9445 5.3986 14.9445 5.87348 14.6516 6.16637 C 14.3588 6.45926 13.8839 6.45926 13.591 6.16637 L 12.6269 5.20228 L 11.5662 6.26294 L 13.2374 7.93414 C 13.5303 8.22703 13.5303 8.7019 13.2374 8.9948 C 12.9445 9.28769 12.4697 9.28769 12.1768 8.9948 L 10.5056 7.3236 L 9.44492 8.38426 L 10.409 9.34835 C 10.7019 9.64124 10.7019 10.1161 10.409 10.409 C 10.1161 10.7019 9.64124 10.7019 9.34835 10.409 L 8.38426 9.44492 L 7.3236 10.5056 L 8.9948 12.1768 C 9.28769 12.4697 9.28769 12.9445 8.9948 13.2374 C 8.7019 13.5303 8.22703 13.5303 7.93414 13.2374 L 6.26294 11.5662 L 5.20228 12.6269 L 6.16637 13.591 C 6.45926 13.8839 6.45926 14.3588 6.16637 14.6516 C 5.87348 14.9445 5.3986 14.9445 5.10571 14.6516 L 4.14229 13.6882 C 3.67802 14.1568 3.34308 14.5094 3.10761 14.818 C 2.81761 15.1981 2.75 15.422 2.75 15.6157 C 2.75 15.8094 2.81762 16.0334 3.10761 16.4135 C 3.41081 16.8109 3.87892 17.2812 4.5757 17.978 L 6.022 19.4243 C 6.71878 20.1211 7.18914 20.5892 7.58653 20.8924 C 7.96662 21.1824 8.19057 21.25 8.38426 21.25 C 8.57795 21.25 8.8019 21.1824 9.18198 20.8924 C 9.57938 20.5892 10.0497 20.1211 10.7465 19.4243 L 19.4243 10.7465 C 20.1211 10.0497 20.5892 9.57938 20.8924 9.18198 C 21.1824 8.8019 21.25 8.57795 21.25 8.38426 C 21.25 8.19057 21.1824 7.96662 20.8924 7.58653 C 20.5892 7.18914 20.1211 6.71878 19.4243 6.022 L 17.978 4.5757 C 17.2812 3.87892 16.8109 3.41081 16.4135 3.10761 C 16.0334 2.81762 15.8094 2.75 15.6157 2.75 C 15.422 2.75 15.1981 2.81761 14.818 3.10761 C 14.5094 3.34308 14.1568 3.67802 13.6882 4.14229 Z M 13.9081 1.91508 C 14.4217 1.52328 14.9622 1.25 15.6157 1.25 C 16.2693 1.25 16.8098 1.52328 17.3233 1.91508 C 17.8104 2.28666 18.3514 2.82777 19.0017 3.47812 L 20.5219 4.99824 C 21.1722 5.64856 21.7133 6.18964 22.0849 6.67666 C 22.4767 7.19017 22.75 7.73073 22.75 8.38426 C 22.75 9.03779 22.4767 9.57834 22.0849 10.0919 C 21.7133 10.5789 21.1722 11.12 20.5219 11.7703 L 11.7703 20.5219 C 11.12 21.1722 10.5789 21.7133 10.0919 22.0849 C 9.57834 22.4767 9.03779 22.75 8.38426 22.75 C 7.73073 22.75 7.19017 22.4767 6.67666 22.0849 C 6.18964 21.7133 5.64856 21.1722 4.99824 20.5219 L 3.47812 19.0017 C 2.82777 18.3514 2.28666 17.8104 1.91508 17.3233 C 1.52328 16.8098 1.25 16.2693 1.25 15.6157 C 1.25 14.9622 1.52328 14.4217 1.91508 13.9081 C 2.28667 13.4211 2.82779 12.88 3.47816 12.2297 L 12.2297 3.47815 C 12.88 2.82778 13.4211 2.28666 13.9081 1.91508 Z" fill="#FFFFFF" />
</svg>