<svg xmlns="http://www.w3.org/2000/svg" width="24" height="24" viewBox="0 0 24 24" fill="none">
  <path fill-rule="nonzero" clip-rule="nonzero" d="M 5.948 1.25 L 8.9992 1.25 C 8.99894 1.25 8.99947 1.25 8.9992 1.25 C 8.99947 1.25 9.00054 1.25 9.0008 1.25 H 11.9993 C 11.9991 1.25 11.9996 1.25 11.9993 1.25 C 11.9996 1.25 12.0005 1.25 12.0007 1.25 H 14.9995 C 14.9993 1.25 14.9997 1.25 14.9995 1.25 C 14.9997 1.25 15.0004 1.25 15.0005 1.25 L 18.5383 1.25 C 19.2079 1.24999 19.7667 1.24997 20.219 1.29599 C 20.6925 1.34415 21.1318 1.44886 21.5278 1.71346 C 21.8281 1.9141 22.0859 2.17191 22.2865 2.47219 C 22.5511 2.86818 22.6559 3.30755 22.704 3.78102 C 22.75 4.23336 22.75 4.79209 22.75 5.46168 V 5.53832 C 22.75 6.20791 22.75 6.76665 22.704 7.21898 C 22.6559 7.69246 22.5511 8.13182 22.2865 8.52782 C 22.0859 8.82809 21.8281 9.08591 21.5278 9.28654 C 21.1318 9.55114 20.6925 9.65585 20.219 9.70402 C 19.7666 9.75003 19.2079 9.75002 18.5383 9.75 L 11 9.75 C 10.5074 9.75 10.2134 9.75159 10.0027 9.77993 C 9.90611 9.79291 9.85775 9.8082 9.83597 9.81716 C 9.83092 9.81924 9.82761 9.82085 9.82567 9.82186 L 9.82324 9.82324 L 9.82186 9.82567 C 9.82085 9.82761 9.81924 9.83092 9.81716 9.83597 C 9.8082 9.85775 9.79291 9.90611 9.77993 10.0027 C 9.75159 10.2134 9.75 10.5074 9.75 11 L 9.75 18.5383 C 9.75002 19.2079 9.75003 19.7666 9.70402 20.219 C 9.65585 20.6925 9.55114 21.1318 9.28654 21.5278 C 9.08591 21.8281 8.82809 22.0859 8.52782 22.2865 C 8.13182 22.5511 7.69246 22.6559 7.21898 22.704 C 6.76665 22.75 6.20791 22.75 5.53832 22.75 H 5.46168 C 4.79209 22.75 4.23336 22.75 3.78102 22.704 C 3.30755 22.6559 2.86818 22.5511 2.47219 22.2865 C 2.17191 22.0859 1.9141 21.8281 1.71346 21.5278 C 1.44886 21.1318 1.34415 20.6925 1.29599 20.219 C 1.24997 19.7667 1.24999 19.2079 1.25 18.5383 L 1.25 5.948 C 1.24997 5.04952 1.24995 4.3003 1.32991 3.70552 C 1.41432 3.07773 1.59999 2.51093 2.05546 2.05546 C 2.51093 1.59999 3.07773 1.41432 3.70552 1.32991 C 4.3003 1.24995 5.04952 1.24997 5.948 1.25 Z M 2.75 9.75 H 5 C 5.41422 9.75 5.75 9.41422 5.75 9 C 5.75 8.58579 5.41422 8.25 5 8.25 H 2.75 V 6 C 2.75 5.03599 2.7516 4.38843 2.81654 3.90539 C 2.87858 3.44393 2.9858 3.24644 3.11612 3.11612 C 3.24644 2.9858 3.44393 2.87858 3.90539 2.81654 C 4.38843 2.7516 5.03599 2.75 6 2.75 H 8.25 L 8.25 5 C 8.25 5.41422 8.58579 5.75 9 5.75 C 9.41422 5.75 9.75 5.41422 9.75 5 L 9.75 2.75 H 11.25 V 4 C 11.25 4.41422 11.5858 4.75 12 4.75 C 12.4142 4.75 12.75 4.41422 12.75 4 V 2.75 H 14.25 V 5 C 14.25 5.41422 14.5858 5.75 15 5.75 C 15.4142 5.75 15.75 5.41422 15.75 5 V 2.75 H 17.25 V 4 C 17.25 4.41422 17.5858 4.75 18 4.75 C 18.4142 4.75 18.75 4.41422 18.75 4 V 2.7501 C 19.3326 2.75075 19.7441 2.75542 20.0672 2.78828 C 20.422 2.82438 20.586 2.8882 20.6945 2.96067 C 20.831 3.05186 20.9481 3.16905 21.0393 3.30554 C 21.1118 3.41399 21.1756 3.57796 21.2117 3.93283 C 21.2491 4.30023 21.25 4.78216 21.25 5.5 C 21.25 6.21784 21.2491 6.69977 21.2117 7.06717 C 21.1756 7.42204 21.1118 7.58601 21.0393 7.69446 C 20.9481 7.83095 20.831 7.94814 20.6945 8.03934 C 20.586 8.1118 20.422 8.17562 20.0672 8.21172 C 19.6998 8.2491 19.2178 8.25 18.5 8.25 H 11 C 10.985 8.25 10.9701 8.25 10.9553 8.25 C 10.5224 8.24995 10.1256 8.2499 9.80279 8.2933 C 9.44731 8.34109 9.07159 8.45354 8.76257 8.76257 C 8.45354 9.07159 8.34109 9.44731 8.2933 9.80279 C 8.2499 10.1256 8.24995 10.5224 8.25 10.9553 C 8.25 10.9701 8.25 10.985 8.25 11 V 18.5 C 8.25 19.2178 8.2491 19.6998 8.21172 20.0672 C 8.17562 20.422 8.1118 20.586 8.03934 20.6945 C 7.94814 20.831 7.83095 20.9481 7.69447 21.0393 C 7.58602 21.1118 7.42204 21.1756 7.06717 21.2117 C 6.69977 21.2491 6.21784 21.25 5.5 21.25 C 4.78216 21.25 4.30023 21.2491 3.93283 21.2117 C 3.57796 21.1756 3.41399 21.1118 3.30554 21.0393 C 3.16905 20.9481 3.05186 20.831 2.96067 20.6945 C 2.8882 20.586 2.82438 20.422 2.78828 20.0672 C 2.75542 19.7441 2.75075 19.3326 2.7501 18.75 H 4 C 4.41422 18.75 4.75 18.4142 4.75 18 C 4.75 17.5858 4.41422 17.25 4 17.25 H 2.75 V 15.75 L 5 15.75 C 5.41422 15.75 5.75 15.4142 5.75 15 C 5.75 14.5858 5.41422 14.25 5 14.25 L 2.75 14.25 V 12.75 H 4 C 4.41422 12.75 4.75 12.4142 4.75 12 C 4.75 11.5858 4.41422 11.25 4 11.25 H 2.75 V 9.75 Z" fill="#FFFFFF" />
</svg>