<svg xmlns="http://www.w3.org/2000/svg" width="24" height="24" viewBox="0 0 24 24" fill="none">
  <path d="M8.35179 20.2418C9.19288 21.311 10.5142 22 12 22C13.4858 22 14.8071 21.311 15.6482 20.2418C13.2264 20.57 10.7736 20.57 8.35179 20.2418Z" fill="#FFFFFF" />
  <path fill-rule="nonzero" clip-rule="nonzero" d="M18.7491 9.7041 C18.7491 10.5491 18.9903 11.3752 19.4422 12.0782 L20.5496 13.8012 C21.5612 15.3749 20.789 17.5139 19.0296 18.0116 C14.4273 19.3134 9.57274 19.3134 4.97036 18.0116 C3.21105 17.5139 2.43882 15.3749 3.45036 13.8012 L4.5578 12.0782 C5.00972 11.3752 5.25087 10.5491 5.25087 9.7041 L5.25087 9 C5.25087 5.13401 8.27256 2 12 2 C15.7274 2 18.7491 5.13401 18.7491 9 L18.7491 9.7041 Z M12 5.25 C11.5858 5.25 11.25 5.58579 11.25 6 L11.25 10 C11.25 10.4142 11.5858 10.75 12 10.75 C12.4142 10.75 12.75 10.4142 12.75 10 L12.75 6 C12.75 5.58579 12.4142 5.25 12 5.25 Z" fill="#FFFFFF" />
</svg>