<svg xmlns="http://www.w3.org/2000/svg" width="24" height="24" viewBox="0 0 24 24" fill="none">
  <path d="M8.35179 20.2418C9.19288 21.311 10.5142 22 12 22C13.4858 22 14.8071 21.311 15.6482 20.2418C13.2264 20.57 10.7736 20.57 8.35179 20.2418Z" fill="#FFFFFF" />
  <path fill-rule="nonzero" clip-rule="nonzero" d="M 18.7491 9 V 9.7041 C 18.7491 10.5491 18.9903 11.3752 19.4422 12.0782 L 20.5496 13.8012 C 21.5612 15.3749 20.789 17.5139 19.0296 18.0116 C 14.4273 19.3134 9.57274 19.3134 4.97036 18.0116 C 3.21105 17.5139 2.43882 15.3749 3.45036 13.8012 L 4.5578 12.0782 C 5.00972 11.3752 5.25087 10.5491 5.25087 9.7041 V 9 C 5.25087 5.13401 8.27256 2 12 2 C 15.7274 2 18.7491 5.13401 18.7491 9 Z M10.0717 9.75 L12.1826 9.75 L9.56037 12.4697 C9.35356 12.6842 9.29169 13.0068 9.40362 13.287 C9.51554 13.5673 9.77922 13.75 10.0717 13.75 L13.9283 13.75 C14.3277 13.75 14.6515 13.4142 14.6515 13 C14.6515 12.5858 14.3277 12.25 13.9283 12.25 L11.8175 12.25 L14.4397 9.53033 C14.6465 9.31583 14.7083 8.99324 14.5964 8.71299 C14.4845 8.43273 14.2208 8.25 13.9283 8.25 L10.0717 8.25 C9.67233 8.25 9.34857 8.58578 9.34857 9 C9.34857 9.41421 9.67233 9.75 10.0717 9.75 Z" fill="#FFFFFF" />
</svg>