<svg xmlns="http://www.w3.org/2000/svg" width="24" height="24" viewBox="0 0 24 24" fill="none">
  <path d="M12.75 6C12.75 5.58579 12.4142 5.25 12 5.25C11.5858 5.25 11.25 5.58579 11.25 6V10C11.25 10.4142 11.5858 10.75 12 10.75C12.4142 10.75 12.75 10.4142 12.75 10V6Z" fill="#FFFFFF" />
  <path fill-rule="nonzero" clip-rule="nonzero" d="M 4.25004 9 C 4.25004 4.71979 7.71983 1.25 12 1.25 C 16.2802 1.25 19.75 4.71979 19.75 9 V 9.7041 C 19.75 10.401 19.9563 11.0824 20.3429 11.6622 L 21.4915 13.3851 C 22.8246 15.3848 21.8069 18.1028 19.4883 18.7351 C 18.7327 18.9412 17.9706 19.1155 17.2042 19.2581 L 17.2023 19.2632 C 16.4333 21.3151 14.378 22.75 12 22.75 C 9.62198 22.75 7.56667 21.3151 6.79768 19.2632 L 6.79578 19.2581 C 6.02937 19.1155 5.26738 18.9412 4.51177 18.7351 C 2.19318 18.1028 1.17547 15.3848 2.50856 13.3851 L 3.65717 11.6622 C 4.04375 11.0824 4.25004 10.401 4.25004 9.7041 V 9 Z M8.62349 19.5369 C9.33444 20.5585 10.571 21.25 12 21.25 C13.4289 21.25 14.6655 20.5585 15.3764 19.537 C13.1335 19.805 10.8664 19.8049 8.62349 19.5369 Z M 12 2.75 C 8.54826 2.75 5.75004 5.54822 5.75004 9 V 9.7041 C 5.75004 10.6972 5.45609 11.668 4.90524 12.4943 L 3.75664 14.2172 C 2.99147 15.3649 3.57561 16.925 4.90644 17.288 C 9.5507 18.5546 14.4494 18.5546 19.0936 17.288 C 20.4245 16.925 21.0086 15.3649 20.2434 14.2172 L 19.0948 12.4943 C 18.544 11.668 18.25 10.6972 18.25 9.7041 V 9 C 18.25 5.54822 15.4518 2.75 12 2.75 Z" fill="#FFFFFF" />
</svg>