<svg xmlns="http://www.w3.org/2000/svg" width="24" height="24" viewBox="0 0 24 24" fill="none">
  <path fill-rule="nonzero" clip-rule="nonzero" d="M12 1.25 C16.2802 1.25 19.75 4.71979 19.75 9 L19.75 9.7041 C19.75 10.401 19.9563 11.0824 20.3429 11.6622 L21.4915 13.3851 C22.8246 15.3848 21.8069 18.1028 19.4883 18.7351 C18.7327 18.9412 17.9706 19.1155 17.2042 19.2581 L17.2023 19.2632 C16.4333 21.3151 14.378 22.75 12 22.75 C9.62198 22.75 7.56667 21.3151 6.79768 19.2632 L6.79578 19.2581 C6.02937 19.1155 5.26738 18.9412 4.51177 18.7351 C2.19318 18.1028 1.17547 15.3848 2.50856 13.3851 L3.65717 11.6622 C4.04375 11.0824 4.25004 10.401 4.25004 9.7041 L4.25004 9 C4.25004 4.71979 7.71983 1.25 12 1.25 Z M 15.3764 19.537 C 13.1335 19.805 10.8664 19.8049 8.62349 19.5369 C 9.33444 20.5585 10.571 21.25 12 21.25 C 13.4289 21.25 14.6655 20.5585 15.3764 19.537 Z M5.75004 9 L5.75004 9.7041 C5.75004 10.6972 5.45609 11.668 4.90524 12.4943 L3.75664 14.2172 C2.99147 15.3649 3.57561 16.925 4.90644 17.288 C9.5507 18.5546 14.4494 18.5546 19.0936 17.288 C20.4245 16.925 21.0086 15.3649 20.2434 14.2172 L19.0948 12.4943 C18.544 11.668 18.25 10.6972 18.25 9.7041 L18.25 9 C18.25 5.54822 15.4518 2.75 12 2.75 C8.54826 2.75 5.75004 5.54822 5.75004 9 Z" fill="#FFFFFF" />
</svg>