<svg xmlns="http://www.w3.org/2000/svg" width="24" height="24" viewBox="0 0 24 24" fill="none">
  <path fill-rule="nonzero" clip-rule="nonzero" d="M 17.5 11 C 15.3787 11 14.318 11 13.659 10.341 C 13 9.68198 13 8.62132 13 6.5 C 13 4.37868 13 3.31802 13.659 2.65901 C 14.318 2 15.3787 2 17.5 2 C 19.6213 2 20.682 2 21.341 2.65901 C 22 3.31802 22 4.37868 22 6.5 C 22 8.62132 22 9.68198 21.341 10.341 C 20.682 11 19.6213 11 17.5 11 Z M14.9697 3.96967 C14.6768 4.26256 14.6768 4.73744 14.9697 5.03033 L16.4393 6.5 L14.9697 7.96967 C14.6768 8.26256 14.6768 8.73744 14.9697 9.03033 C15.2626 9.32322 15.7374 9.32322 16.0303 9.03033 L17.5 7.56066 L18.9697 9.03033 C19.2626 9.32322 19.7374 9.32322 20.0303 9.03033 C20.3232 8.73744 20.3232 8.26256 20.0303 7.96967 L18.5607 6.5 L20.0303 5.03033 C20.3232 4.73744 20.3232 4.26256 20.0303 3.96967 C19.7374 3.67678 19.2626 3.67678 18.9697 3.96967 L17.5 5.43934 L16.0303 3.96967 C15.7374 3.67678 15.2626 3.67678 14.9697 3.96967 Z" fill="#FFFFFF" />
  <path opacity="0.5" d="M20.5355 20.5355C22 19.0711 22 16.714 22 12C22 10.642 22 9.47956 21.965 8.47774C21.9069 9.36203 21.7523 9.92972 21.341 10.341C20.682 11 19.6213 11 17.5 11C15.3787 11 14.318 11 13.659 10.341C13 9.68198 13 8.62132 13 6.5C13 4.37868 13 3.31802 13.659 2.65901C14.0703 2.24774 14.638 2.09313 15.5223 2.03501C14.5204 2 13.358 2 12 2C7.28595 2 4.92893 2 3.46447 3.46447C2 4.92893 2 7.28595 2 12C2 16.714 2 19.0711 3.46447 20.5355C4.92893 22 7.28595 22 12 22C16.714 22 19.0711 22 20.5355 20.5355Z" fill="#FFFFFF" />
</svg>