<svg xmlns="http://www.w3.org/2000/svg" width="24" height="24" viewBox="0 0 24 24" fill="none">
  <path fill-rule="nonzero" clip-rule="nonzero" d="M 12 22 C 7.28595 22 4.92893 22 3.46447 20.5355 C 2 19.0711 2 16.714 2 12 C 2 7.28595 2 4.92893 3.46447 3.46447 C 4.92893 2 7.28595 2 12 2 L 12.2578 2.00001 C 11.8534 2.5665 11.6799 3.2054 11.5958 3.83127 C 11.4998 4.54482 11.4999 5.4264 11.5 6.40759 V 6.59241 C 11.4999 7.5736 11.4998 8.45518 11.5958 9.16873 C 11.7005 9.94777 11.9437 10.747 12.5983 11.4017 C 13.253 12.0563 14.0522 12.2995 14.8313 12.4042 C 15.5448 12.5002 16.4264 12.5001 17.4076 12.5 H 17.5924 C 18.5736 12.5001 19.4552 12.5002 20.1687 12.4042 C 20.7946 12.3201 21.4335 12.1466 22 11.7422 L 22 12 C 22 16.714 22 19.0711 20.5355 20.5355 C 19.0711 22 16.714 22 12 22 Z M6.25 14 C6.25 14.4142 6.58579 14.75 7 14.75 L11 14.75 C11.4142 14.75 11.75 14.4142 11.75 14 C11.75 13.5858 11.4142 13.25 11 13.25 L7 13.25 C6.58579 13.25 6.25 13.5858 6.25 14 Z M6.25 17.5 C6.25 17.9142 6.58579 18.25 7 18.25 L13 18.25 C13.4142 18.25 13.75 17.9142 13.75 17.5 C13.75 17.0858 13.4142 16.75 13 16.75 L7 16.75 C6.58579 16.75 6.25 17.0858 6.25 17.5 Z" fill="#FFFFFF" />
  <path fill-rule="nonzero" clip-rule="nonzero" d="M 17.5 11 C 15.3787 11 14.318 11 13.659 10.341 C 13 9.68198 13 8.62132 13 6.5 C 13 4.37868 13 3.31802 13.659 2.65901 C 14.318 2 15.3787 2 17.5 2 C 19.6213 2 20.682 2 21.341 2.65901 C 22 3.31802 22 4.37868 22 6.5 C 22 8.62132 22 9.68198 21.341 10.341 C 20.682 11 19.6213 11 17.5 11 Z M14.9697 3.96967 C14.6768 4.26256 14.6768 4.73744 14.9697 5.03033 L16.4393 6.5 L14.9697 7.96967 C14.6768 8.26256 14.6768 8.73744 14.9697 9.03033 C15.2626 9.32322 15.7374 9.32322 16.0303 9.03033 L17.5 7.56066 L18.9697 9.03033 C19.2626 9.32322 19.7374 9.32322 20.0303 9.03033 C20.3232 8.73744 20.3232 8.26256 20.0303 7.96967 L18.5607 6.5 L20.0303 5.03033 C20.3232 4.73744 20.3232 4.26256 20.0303 3.96967 C19.7374 3.67678 19.2626 3.67678 18.9697 3.96967 L17.5 5.43934 L16.0303 3.96967 C15.7374 3.67678 15.2626 3.67678 14.9697 3.96967 Z" fill="#FFFFFF" />
</svg>