<svg xmlns="http://www.w3.org/2000/svg" width="24" height="24" viewBox="0 0 24 24" fill="none">
  <circle cx="12" cy="6" r="4" fill="#FFFFFF" />
  <path fill-rule="nonzero" clip-rule="nonzero" d="M 18 15.75 C 16.7574 15.75 15.75 16.7574 15.75 18 C 15.75 18.3473 15.8287 18.6763 15.9693 18.97 L 18.9701 15.9693 C 18.6763 15.8287 18.3474 15.75 18 15.75 Z M 20.0307 17.0299 L 17.0299 20.0307 C 17.3236 20.1713 17.6526 20.25 18 20.25 C 19.2426 20.25 20.25 19.2426 20.25 18 C 20.25 17.6526 20.1713 17.3237 20.0307 17.0299 Z M 14.25 18 C 14.25 15.9289 15.9289 14.25 18 14.25 C 20.0711 14.25 21.75 15.9289 21.75 18 C 21.75 20.0711 20.0711 21.75 18 21.75 C 15.9289 21.75 14.25 20.0711 14.25 18 Z" fill="#FFFFFF" />
  <path d="M15.3267 13.4807C13.7841 14.3951 12.75 16.0768 12.75 18C12.75 19.0693 13.0697 20.0639 13.6187 20.8935C13.0991 20.9638 12.5572 21.001 12 21.001C8.13401 21.001 5 19.2101 5 17.001C5 14.7918 8.13401 13.001 12 13.001C13.2041 13.001 14.3372 13.1747 15.3267 13.4807Z" fill="#FFFFFF" />
</svg>