<svg xmlns="http://www.w3.org/2000/svg" width="24" height="24" viewBox="0 0 24 24" fill="none">
  <circle cx="12" cy="6" r="4" fill="#FFFFFF" />
  <path fill-rule="nonzero" clip-rule="nonzero" d="M 18 15.75 C 16.7574 15.75 15.75 16.7574 15.75 18 C 15.75 18.3473 15.8287 18.6763 15.9693 18.97 L 18.9701 15.9693 C 18.6763 15.8287 18.3474 15.75 18 15.75 Z M 20.0307 17.0299 L 17.0299 20.0307 C 17.3236 20.1713 17.6526 20.25 18 20.25 C 19.2426 20.25 20.25 19.2426 20.25 18 C 20.25 17.6526 20.1713 17.3237 20.0307 17.0299 Z M 14.25 18 C 14.25 15.9289 15.9289 14.25 18 14.25 C 20.0711 14.25 21.75 15.9289 21.75 18 C 21.75 20.0711 20.0711 21.75 18 21.75 C 15.9289 21.75 14.25 20.0711 14.25 18 Z" fill="#FFFFFF" />
  <path opacity="0.5" d="M17.2157 14.3321C15.5211 14.6927 14.25 16.1979 14.25 18C14.25 18.9823 14.6277 19.8764 15.2457 20.5449C14.2756 20.8356 13.1714 21 12 21C8.13401 21 5 19.2091 5 17C5 14.7909 8.13401 13 12 13C14.0722 13 15.934 13.5145 17.2157 14.3321Z" fill="#FFFFFF" />
</svg>