<svg xmlns="http://www.w3.org/2000/svg" width="24" height="24" viewBox="0 0 24 24" fill="none">
  <path fill-rule="nonzero" clip-rule="nonzero" d="M12.0001 1.25 C14.6235 1.25 16.7501 3.37665 16.7501 6 C16.7501 8.62335 14.6235 10.75 12.0001 10.75 C9.37678 10.75 7.25013 8.62335 7.25013 6 C7.25013 3.37665 9.37678 1.25 12.0001 1.25 Z M8.75013 6 C8.75013 7.79493 10.2052 9.25 12.0001 9.25 C13.7951 9.25 15.2501 7.79493 15.2501 6 C15.2501 4.20507 13.7951 2.75 12.0001 2.75 C10.2052 2.75 8.75013 4.20507 8.75013 6 Z" fill="#FFFFFF" />
  <path fill-rule="nonzero" clip-rule="nonzero" d="M12.0001 12.25 C14.3137 12.25 16.4452 12.7759 18.0247 13.6643 C19.5807 14.5396 20.7501 15.8661 20.7501 17.5 L20.7502 17.602 C20.7513 18.7638 20.7527 20.222 19.4737 21.2635 C18.8443 21.7761 17.9637 22.1406 16.7739 22.3815 C15.5809 22.6229 14.0259 22.75 12.0001 22.75 C9.97436 22.75 8.4194 22.6229 7.22634 22.3815 C6.03661 22.1406 5.15602 21.7761 4.52655 21.2635 C3.24752 20.222 3.24894 18.7638 3.25007 17.602 L3.25013 17.5 C3.25013 15.8661 4.41962 14.5396 5.97558 13.6643 C7.55506 12.7759 9.68658 12.25 12.0001 12.25 Z M4.75013 17.5 C4.75013 18.8078 4.79045 19.544 5.47372 20.1004 C5.84425 20.4022 6.46366 20.6967 7.52393 20.9113 C8.58087 21.1252 10.0259 21.25 12.0001 21.25 C13.9744 21.25 15.4194 21.1252 16.4763 20.9113 C17.5366 20.6967 18.156 20.4022 18.5265 20.1004 C19.2098 19.544 19.2501 18.8078 19.2501 17.5 C19.2501 16.6487 18.6288 15.7251 17.2893 14.9717 C15.9733 14.2315 14.1049 13.75 12.0001 13.75 C9.89541 13.75 8.02693 14.2315 6.71098 14.9717 C5.37151 15.7251 4.75013 16.6487 4.75013 17.5 Z" fill="#FFFFFF" />
</svg>