<svg xmlns="http://www.w3.org/2000/svg" width="24" height="24" viewBox="0 0 24 24" fill="none">
  <path d="M16 6C16 8.20914 14.2091 10 12 10C9.79086 10 8 8.20914 8 6C8 3.79086 9.79086 2 12 2C14.2091 2 16 3.79086 16 6Z" fill="#FFFFFF" />
  <path opacity="0.5" d="M14.4774 21.9208C13.7513 21.9728 12.9296 22 12 22C4 22 4 19.9853 4 17.5C4 15.0147 7.58172 13 12 13C14.8806 13 17.4056 13.8564 18.8142 15.1412C18.298 15 17.5737 15 16.5 15C14.8501 15 14.0251 15 13.5126 15.5126C13 16.0251 13 16.8501 13 18.5C13 20.1499 13 20.9749 13.5126 21.4874C13.7501 21.725 14.0547 21.8524 14.4774 21.9208Z" fill="#FFFFFF" />
  <path fill-rule="nonzero" clip-rule="nonzero" d="M 16.5 22 C 14.8501 22 14.0251 22 13.5126 21.4874 C 13 20.9749 13 20.1499 13 18.5 C 13 16.8501 13 16.0251 13.5126 15.5126 C 14.0251 15 14.8501 15 16.5 15 C 18.1499 15 18.9749 15 19.4874 15.5126 C 20 16.0251 20 16.8501 20 18.5 C 20 20.1499 20 20.9749 19.4874 21.4874 C 18.9749 22 18.1499 22 16.5 22 Z M 15.3569 16.532 C 15.1291 16.3042 14.7598 16.3042 14.532 16.532 C 14.3042 16.7598 14.3042 17.1291 14.532 17.3569 L 15.675 18.5 L 14.532 19.6431 C 14.3042 19.8709 14.3042 20.2402 14.532 20.468 C 14.7598 20.6958 15.1291 20.6958 15.3569 20.468 L 16.5 19.325 L 17.6431 20.468 C 17.8709 20.6958 18.2402 20.6958 18.468 20.468 C 18.6958 20.2402 18.6958 19.8709 18.468 19.6431 L 17.325 18.5 L 18.468 17.3569 C 18.6958 17.1291 18.6958 16.7598 18.468 16.532 C 18.2402 16.3042 17.8709 16.3042 17.6431 16.532 L 16.5 17.675 L 15.3569 16.532 Z" fill="#FFFFFF" />
</svg>