<svg xmlns="http://www.w3.org/2000/svg" width="24" height="24" viewBox="0 0 24 24" fill="none">
  <circle cx="12" cy="6" r="4" fill="#FFFFFF" />
  <path opacity="0.5" d="M18.0947 15.0312C17.6699 15 17.1487 15 16.5 15C14.8501 15 14.0251 15 13.5126 15.5126C13 16.0251 13 16.8501 13 18.5C13 19.6663 13 20.4204 13.1811 20.9433C12.7971 20.9806 12.4025 21 12 21C8.13401 21 5 19.2091 5 17C5 14.7909 8.13401 13 12 13C14.6134 13 16.8924 13.8184 18.0947 15.0312Z" fill="#FFFFFF" />
  <path fill-rule="nonzero" clip-rule="nonzero" d="M13.5126 21.4874 C13 20.9749 13 20.1499 13 18.5 C13 16.8501 13 16.0251 13.5126 15.5126 C14.0251 15 14.8501 15 16.5 15 C18.1499 15 18.9749 15 19.4874 15.5126 C20 16.0251 20 16.8501 20 18.5 C20 20.1499 20 20.9749 19.4874 21.4874 C18.9749 22 18.1499 22 16.5 22 C14.8501 22 14.0251 22 13.5126 21.4874 Z M15.5266 19.9765 C15.5995 20.0287 15.6712 20.08 15.7404 20.1308 C16 20.3209 16.25 20.5 16.5 20.5 C16.75 20.5 17 20.3209 17.2596 20.1308 C17.3288 20.08 17.4005 20.0287 17.4734 19.9765 C18.1755 19.4738 19 18.8833 19 17.8598 C19 16.7299 17.625 15.9285 16.5 17.0148 C15.375 15.9285 14 16.7299 14 17.8598 C14 18.8833 14.8245 19.4738 15.5266 19.9765 Z" fill="#FFFFFF" />
</svg>