<svg xmlns="http://www.w3.org/2000/svg" width="24" height="24" viewBox="0 0 24 24" fill="none">
  <path fill-rule="nonzero" clip-rule="nonzero" d="M 7.25013 6 C 7.25013 3.37665 9.37678 1.25 12.0001 1.25 C 14.6235 1.25 16.7501 3.37665 16.7501 6 C 16.7501 8.62335 14.6235 10.75 12.0001 10.75 C 9.37678 10.75 7.25013 8.62335 7.25013 6 Z M 12.0001 2.75 C 10.2052 2.75 8.75013 4.20507 8.75013 6 C 8.75013 7.79493 10.2052 9.25 12.0001 9.25 C 13.7951 9.25 15.2501 7.79493 15.2501 6 C 15.2501 4.20507 13.7951 2.75 12.0001 2.75 Z" fill="#FFFFFF" />
  <path d="M18.0001 13.9167C18.4143 13.9167 18.7501 14.2524 18.7501 14.6667V15.25H19.3333C19.7475 15.25 20.0833 15.5858 20.0833 16C20.0833 16.4142 19.7475 16.75 19.3333 16.75H18.7501V17.3333C18.7501 17.7475 18.4143 18.0833 18.0001 18.0833C17.5859 18.0833 17.2501 17.7475 17.2501 17.3333V16.75H16.6666C16.2524 16.75 15.9166 16.4142 15.9166 16C15.9166 15.5858 16.2524 15.25 16.6666 15.25H17.2501V14.6667C17.2501 14.2524 17.5859 13.9167 18.0001 13.9167Z" fill="#FFFFFF" />
  <path fill-rule="nonzero" clip-rule="nonzero" d="M14.7748 12.5129 C15.6218 11.7291 16.755 11.25 18.0001 11.25 C20.6235 11.25 22.7501 13.3766 22.7501 16 C22.7501 17.7601 21.7928 19.2966 20.3705 20.1172 C19.9974 20.9266 19.2986 21.5697 18.1197 22.0085 C16.81 22.4961 14.8682 22.75 12.0001 22.75 C9.97436 22.75 8.41939 22.6229 7.22634 22.3815 C6.03661 22.1406 5.15602 21.7761 4.52655 21.2635 C3.24752 20.222 3.24894 18.7638 3.25007 17.602 L3.25013 17.5 C3.25013 15.8661 4.41962 14.5396 5.97558 13.6643 C7.55506 12.7759 9.68658 12.25 12.0001 12.25 C12.9686 12.25 13.9021 12.3421 14.7748 12.5129 Z M 6.71098 14.9717 C 5.37151 15.7251 4.75013 16.6487 4.75013 17.5 C 4.75013 18.8078 4.79045 19.544 5.47372 20.1004 C 5.84425 20.4022 6.46366 20.6967 7.52392 20.9113 C 8.58087 21.1252 10.0259 21.25 12.0001 21.25 C 14.5781 21.25 16.2402 21.0366 17.311 20.7004 C 15.0142 20.3666 13.2501 18.3893 13.2501 16 C 13.2501 15.2322 13.4323 14.5069 13.7558 13.865 C 13.1941 13.79 12.6062 13.75 12.0001 13.75 C 9.89541 13.75 8.02693 14.2315 6.71098 14.9717 Z M14.7501 16 C14.7501 17.7949 16.2052 19.25 18.0001 19.25 C19.7951 19.25 21.2501 17.7949 21.2501 16 C21.2501 14.2051 19.7951 12.75 18.0001 12.75 C16.2052 12.75 14.7501 14.2051 14.7501 16 Z" fill="#FFFFFF" />
</svg>