<svg xmlns="http://www.w3.org/2000/svg" width="24" height="24" viewBox="0 0 24 24" fill="none">
  <path fill-rule="nonzero" clip-rule="nonzero" d="M12 1.25 C14.6234 1.25 16.75 3.37665 16.75 6 C16.75 8.62335 14.6234 10.75 12 10.75 C9.37665 10.75 7.25 8.62335 7.25 6 C7.25 3.37665 9.37665 1.25 12 1.25 Z M8.75 6 C8.75 7.79493 10.2051 9.25 12 9.25 C13.7949 9.25 15.25 7.79493 15.25 6 C15.25 4.20507 13.7949 2.75 12 2.75 C10.2051 2.75 8.75 4.20507 8.75 6 Z" fill="#FFFFFF" />
  <path fill-rule="nonzero" clip-rule="nonzero" d="M12 12.25 C14.0393 12.25 15.9225 12.7208 17.3219 13.5204 C18.7 14.3079 19.75 15.5101 19.75 17 C19.75 18.4899 18.7 19.6921 17.3219 20.4796 C15.9225 21.2792 14.0393 21.75 12 21.75 C9.96067 21.75 8.07752 21.2792 6.67815 20.4796 C5.3 19.6921 4.25 18.4899 4.25 17 C4.25 15.5101 5.3 14.3079 6.67815 13.5204 C8.07752 12.7208 9.96067 12.25 12 12.25 Z M5.75 17 C5.75 17.7193 6.26701 18.517 7.42236 19.1772 C8.55649 19.8253 10.1733 20.25 12 20.25 C13.8267 20.25 15.4435 19.8253 16.5776 19.1772 C17.733 18.517 18.25 17.7193 18.25 17 C18.25 16.2807 17.733 15.483 16.5776 14.8228 C15.4435 14.1747 13.8267 13.75 12 13.75 C10.1733 13.75 8.55649 14.1747 7.42236 14.8228 C6.26701 15.483 5.75 16.2807 5.75 17 Z" fill="#FFFFFF" />
</svg>