<svg xmlns="http://www.w3.org/2000/svg" width="24" height="24" viewBox="0 0 24 24" fill="none">
  <path fill-rule="nonzero" clip-rule="nonzero" d="M 22 12 C 22 17.5228 17.5228 22 12 22 C 6.47715 22 2 17.5228 2 12 C 2 6.47715 6.47715 2 12 2 C 17.5228 2 22 6.47715 22 12 Z M15 9 C15 7.34315 13.6569 6 12 6 C10.3431 6 9 7.34315 9 9 C9 10.6569 10.3431 12 12 12 C13.6569 12 15 10.6569 15 9 Z M 12 20.5 C 13.784 20.5 15.4397 19.9504 16.8069 19.0112 C 17.4108 18.5964 17.6688 17.8062 17.3178 17.1632 C 16.59 15.8303 15.0902 15 11.9999 15 C 8.90969 15 7.40997 15.8302 6.68214 17.1632 C 6.33105 17.8062 6.5891 18.5963 7.19296 19.0111 C 8.56018 19.9503 10.2159 20.5 12 20.5 Z" fill="#FFFFFF" />
</svg>