<svg xmlns="http://www.w3.org/2000/svg" width="24" height="24" viewBox="0 0 24 24" fill="none">
  <path fill-rule="nonzero" clip-rule="nonzero" d="M 10 4 H 14 C 17.7712 4 19.6569 4 20.8284 5.17157 C 22 6.34315 22 8.22876 22 12 C 22 15.7712 22 17.6569 20.8284 18.8284 C 19.6569 20 17.7712 20 14 20 H 10 C 6.22876 20 4.34315 20 3.17157 18.8284 C 2 17.6569 2 15.7712 2 12 C 2 8.22876 2 6.34315 3.17157 5.17157 C 4.34315 4 6.22876 4 10 4 Z M13.25 9 C13.25 9.41421 13.5858 9.75 14 9.75 L19 9.75 C19.4142 9.75 19.75 9.41421 19.75 9 C19.75 8.58579 19.4142 8.25 19 8.25 L14 8.25 C13.5858 8.25 13.25 8.58579 13.25 9 Z M14.25 12 C14.25 12.4142 14.5858 12.75 15 12.75 L19 12.75 C19.4142 12.75 19.75 12.4142 19.75 12 C19.75 11.5858 19.4142 11.25 19 11.25 L15 11.25 C14.5858 11.25 14.25 11.5858 14.25 12 Z M15.25 15 C15.25 15.4142 15.5858 15.75 16 15.75 L19 15.75 C19.4142 15.75 19.75 15.4142 19.75 15 C19.75 14.5858 19.4142 14.25 19 14.25 L16 14.25 C15.5858 14.25 15.25 14.5858 15.25 15 Z M11 9 C11 7.89543 10.1046 7 9 7 C7.89543 7 7 7.89543 7 9 C7 10.1046 7.89543 11 9 11 C10.1046 11 11 10.1046 11 9 Z M 9 17 C 13 17 13 16.1046 13 15 C 13 13.8954 11.2091 13 9 13 C 6.79086 13 5 13.8954 5 15 C 5 16.1046 5 17 9 17 Z" fill="#FFFFFF" />
</svg>