<svg xmlns="http://www.w3.org/2000/svg" width="24" height="24" viewBox="0 0 24 24" fill="none">
  <path fill-rule="nonzero" clip-rule="nonzero" d="M12.0002 1.25 C14.6235 1.25 16.7502 3.37665 16.7502 6 C16.7502 8.62335 14.6235 10.75 12.0002 10.75 C9.37683 10.75 7.25018 8.62335 7.25018 6 C7.25018 3.37665 9.37683 1.25 12.0002 1.25 Z M8.75018 6 C8.75018 7.79493 10.2053 9.25 12.0002 9.25 C13.7951 9.25 15.2502 7.79493 15.2502 6 C15.2502 4.20507 13.7951 2.75 12.0002 2.75 C10.2053 2.75 8.75018 4.20507 8.75018 6 Z" fill="#FFFFFF" />
  <path fill-rule="nonzero" clip-rule="nonzero" d="M2.72778 5.8181 L3.10975 7.34596 C3.71957 9.78523 5.64125 11.6764 8.0847 12.25 L16.0002 12.25 C18.0912 12.25 19.8512 13.8151 20.0956 15.8918 L20.745 21.4124 C20.7934 21.8237 20.4992 22.1965 20.0878 22.2449 C19.6764 22.2933 19.3037 21.999 19.2553 21.5876 L18.6058 16.0671 C18.4808 15.0039 17.7313 14.1515 16.7502 13.859 L16.7502 18.052 C16.7502 18.9505 16.7502 19.6997 16.6703 20.2945 C16.5859 20.9223 16.4002 21.4891 15.9447 21.9445 C15.4892 22.4 14.9225 22.5857 14.2947 22.6701 C13.6999 22.7501 12.9507 22.75 12.0522 22.75 L11.9482 22.75 C11.0497 22.75 10.3005 22.7501 9.7057 22.6701 C9.0779 22.5857 8.5111 22.4 8.05563 21.9445 C7.60016 21.4891 7.41449 20.9223 7.33009 20.2945 C7.25012 19.6997 7.25015 18.9505 7.25018 18.052 L7.25018 13.5787 C4.49604 12.7496 2.3593 10.5288 1.65454 7.70977 L1.27257 6.1819 C1.17211 5.78006 1.41643 5.37285 1.81828 5.27239 C2.22012 5.17193 2.62732 5.41625 2.72778 5.8181 Z M8.75018 18 C8.75018 18.964 8.75177 19.6116 8.81671 20.0946 C8.87875 20.5561 8.98598 20.7536 9.11629 20.8839 C9.24661 21.0142 9.44411 21.1214 9.90557 21.1835 C10.3886 21.2484 11.0362 21.25 12.0002 21.25 C12.9642 21.25 13.6117 21.2484 14.0948 21.1835 C14.5562 21.1214 14.7537 21.0142 14.8841 20.8839 C15.0144 20.7536 15.1216 20.5561 15.1836 20.0946 C15.2486 19.6116 15.2502 18.964 15.2502 18 L15.2502 13.75 L8.75018 13.75 L8.75018 18 Z" fill="#FFFFFF" />
</svg>