<svg xmlns="http://www.w3.org/2000/svg" width="24" height="24" viewBox="0 0 24 24" fill="none">
  <circle cx="11" cy="6" r="4" fill="#FFFFFF" />
  <path fill-rule="nonzero" clip-rule="nonzero" d="M14.5126 21.4874 C14 20.9749 14 20.1499 14 18.5 C14 16.8501 14 16.0251 14.5126 15.5126 C15.0251 15 15.8501 15 17.5 15 C19.1499 15 19.9749 15 20.4874 15.5126 C21 16.0251 21 16.8501 21 18.5 C21 20.1499 21 20.9749 20.4874 21.4874 C19.9749 22 19.1499 22 17.5 22 C15.8501 22 15.0251 22 14.5126 21.4874 Z M16.5266 19.9765 C16.5995 20.0287 16.6712 20.08 16.7404 20.1308 C17 20.3209 17.25 20.5 17.5 20.5 C17.75 20.5 18 20.3209 18.2596 20.1308 C18.3288 20.08 18.4005 20.0287 18.4734 19.9765 C19.1755 19.4738 20 18.8833 20 17.8598 C20 16.7299 18.625 15.9285 17.5 17.0148 C16.375 15.9285 15 16.7299 15 17.8598 C15 18.8833 15.8245 19.4738 16.5266 19.9765 Z" fill="#FFFFFF" />
  <path opacity="0.5" d="M14.5942 21.5625C14.5661 21.5388 14.5389 21.5138 14.5126 21.4874C14 20.9749 14 20.1499 14 18.5C14 16.8501 14 16.0251 14.5126 15.5126C15.0251 15 15.8501 15 17.5 15C17.6501 15 17.7933 15 17.9301 15.0004C16.547 13.6551 13.9614 12.75 11 12.75C6.58172 12.75 3 14.7647 3 17.25C3 19.7353 3 21.75 11 21.75C12.4426 21.75 13.625 21.6845 14.5942 21.5625Z" fill="#FFFFFF" />
</svg>