<svg xmlns="http://www.w3.org/2000/svg" width="24" height="24" viewBox="0 0 24 24" fill="none">
  <path fill-rule="nonzero" clip-rule="nonzero" d="M12.0001 1.25 C14.6234 1.25 16.7501 3.37665 16.7501 6 C16.7501 8.62335 14.6234 10.75 12.0001 10.75 C9.37672 10.75 7.25007 8.62335 7.25007 6 C7.25007 3.37665 9.37672 1.25 12.0001 1.25 Z M8.75007 6 C8.75007 7.79493 10.2051 9.25 12.0001 9.25 C13.795 9.25 15.2501 7.79493 15.2501 6 C15.2501 4.20507 13.795 2.75 12.0001 2.75 C10.2051 2.75 8.75007 4.20507 8.75007 6 Z" fill="#FFFFFF" />
  <path fill-rule="nonzero" clip-rule="nonzero" d="M8.00007 12.25 L16.0001 12.25 C18.0911 12.25 19.8511 13.8151 20.0955 15.8918 L20.7449 21.4124 C20.7933 21.8237 20.4991 22.1965 20.0877 22.2449 C19.6763 22.2933 19.3036 21.999 19.2552 21.5876 L18.6057 16.0671 C18.4807 15.0039 17.7312 14.1515 16.7501 13.859 L16.7501 18.052 C16.7501 18.9505 16.7501 19.6997 16.6702 20.2945 C16.5858 20.9223 16.4001 21.4891 15.9446 21.9445 C15.4891 22.4 14.9223 22.5857 14.2946 22.6701 C13.6998 22.7501 12.9505 22.75 12.0521 22.75 L11.948 22.75 C11.0496 22.75 10.3004 22.7501 9.70559 22.6701 C9.0778 22.5857 8.511 22.4 8.05553 21.9445 C7.60006 21.4891 7.41439 20.9223 7.32998 20.2945 C7.25002 19.6997 7.25004 18.9505 7.25007 18.052 L7.25007 13.859 C6.26894 14.1515 5.51949 15.0039 5.39441 16.0671 L4.74494 21.5876 C4.69654 21.999 4.32382 22.2933 3.91244 22.2449 C3.50106 22.1965 3.20681 21.8237 3.25521 21.4124 L3.90469 15.8918 C4.149 13.8151 5.90904 12.25 8.00007 12.25 Z M8.75007 18 C8.75007 18.964 8.75166 19.6116 8.81661 20.0946 C8.87865 20.5561 8.98587 20.7536 9.11619 20.8839 C9.2465 21.0142 9.444 21.1214 9.90546 21.1835 C10.3885 21.2484 11.0361 21.25 12.0001 21.25 C12.9641 21.25 13.6116 21.2484 14.0947 21.1835 C14.5561 21.1214 14.7536 21.0142 14.884 20.8839 C15.0143 20.7536 15.1215 20.5561 15.1835 20.0946 C15.2485 19.6116 15.2501 18.964 15.2501 18 L15.2501 13.75 L8.75007 13.75 L8.75007 18 Z" fill="#FFFFFF" />
</svg>