<svg xmlns="http://www.w3.org/2000/svg" width="24" height="24" viewBox="0 0 24 24" fill="none">
  <path fill-rule="nonzero" clip-rule="nonzero" d="M 7.25013 6 C 7.25013 3.37665 9.37678 1.25 12.0001 1.25 C 14.6235 1.25 16.7501 3.37665 16.7501 6 C 16.7501 8.62335 14.6235 10.75 12.0001 10.75 C 9.37678 10.75 7.25013 8.62335 7.25013 6 Z M 12.0001 2.75 C 10.2052 2.75 8.75013 4.20507 8.75013 6 C 8.75013 7.79493 10.2052 9.25 12.0001 9.25 C 13.7951 9.25 15.2501 7.79493 15.2501 6 C 15.2501 4.20507 13.7951 2.75 12.0001 2.75 Z" fill="#FFFFFF" />
  <path fill-rule="nonzero" clip-rule="nonzero" d="M14.7748 12.5129 C15.6218 11.7291 16.755 11.25 18.0001 11.25 C19.3116 11.25 20.5001 11.7825 21.3588 12.6412 C22.2176 13.5 22.7501 14.6885 22.7501 16 C22.7501 17.7601 21.7928 19.2966 20.3705 20.1172 C19.9974 20.9266 19.2986 21.5697 18.1197 22.0085 C16.81 22.4961 14.8682 22.75 12.0001 22.75 C9.97436 22.75 8.41939 22.6229 7.22634 22.3815 C6.03661 22.1406 5.15602 21.7761 4.52655 21.2635 C3.24752 20.222 3.24894 18.7638 3.25007 17.602 L3.25013 17.5 C3.25013 15.8661 4.41962 14.5396 5.97558 13.6643 C7.55506 12.7759 9.68658 12.25 12.0001 12.25 C12.9686 12.25 13.9021 12.3421 14.7748 12.5129 Z M 6.71098 14.9717 C 5.37151 15.7251 4.75013 16.6487 4.75013 17.5 C 4.75013 18.8078 4.79045 19.544 5.47372 20.1004 C 5.84425 20.4022 6.46366 20.6967 7.52392 20.9113 C 8.58087 21.1252 10.0259 21.25 12.0001 21.25 C 14.5782 21.25 16.2404 21.0366 17.3111 20.7003 C 16.2751 20.5496 15.3469 20.0643 14.6413 19.3587 C 13.7826 18.5 13.2501 17.3114 13.2501 16 C 13.2501 15.2322 13.4323 14.5069 13.7558 13.865 C 13.1941 13.79 12.6062 13.75 12.0001 13.75 C 9.89541 13.75 8.02693 14.2315 6.71098 14.9717 Z M14.7501 16 C14.7501 16.626 14.9267 17.2102 15.2333 17.7061 L19.7063 13.2331 C19.2103 12.9265 18.6262 12.75 18.0001 12.75 C16.2052 12.75 14.7501 14.2051 14.7501 16 Z M16.2939 18.7668 C16.7899 19.0734 17.374 19.25 18.0001 19.25 C19.7951 19.25 21.2501 17.7949 21.2501 16 C21.2501 15.3739 21.0736 14.7898 20.7669 14.2938 L16.2939 18.7668 Z" fill="#FFFFFF" />
</svg>