<svg xmlns="http://www.w3.org/2000/svg" width="24" height="24" viewBox="0 0 24 24" fill="none">
  <path fill-rule="nonzero" clip-rule="nonzero" d="M12.0001 1.25 C14.6235 1.25 16.7501 3.37665 16.7501 6 C16.7501 8.62335 14.6235 10.75 12.0001 10.75 C9.37678 10.75 7.25013 8.62335 7.25013 6 C7.25013 3.37665 9.37678 1.25 12.0001 1.25 Z M8.75013 6 C8.75013 7.79493 10.2052 9.25 12.0001 9.25 C13.7951 9.25 15.2501 7.79493 15.2501 6 C15.2501 4.20507 13.7951 2.75 12.0001 2.75 C10.2052 2.75 8.75013 4.20507 8.75013 6 Z" fill="#FFFFFF" />
  <path d="M17.197 14.1363C16.9041 13.8434 16.4292 13.8434 16.1363 14.1363C15.8434 14.4292 15.8434 14.9041 16.1363 15.197L16.9395 16.0002L16.1366 16.803C15.8437 17.0959 15.8437 17.5708 16.1366 17.8637C16.4295 18.1565 16.9044 18.1565 17.1973 17.8637L18.0001 17.0608L18.803 17.8637C19.0959 18.1565 19.5707 18.1565 19.8636 17.8637C20.1565 17.5708 20.1565 17.0959 19.8636 16.803L19.0608 16.0002L19.864 15.197C20.1569 14.9041 20.1569 14.4292 19.864 14.1363C19.5711 13.8434 19.0962 13.8434 18.8033 14.1363L18.0001 14.9395L17.197 14.1363Z" fill="#FFFFFF" />
  <path fill-rule="nonzero" clip-rule="nonzero" d="M 12.0001 12.25 C 12.9686 12.25 13.9021 12.3421 14.7748 12.5129 C 15.6218 11.7291 16.755 11.25 18.0001 11.25 C 20.6235 11.25 22.7501 13.3766 22.7501 16 C 22.7501 17.7601 21.7928 19.2966 20.3705 20.1172 C 19.9974 20.9266 19.2986 21.5697 18.1197 22.0085 C 16.81 22.4961 14.8682 22.75 12.0001 22.75 C 9.97436 22.75 8.41939 22.6229 7.22634 22.3815 C 6.03661 22.1406 5.15602 21.7761 4.52655 21.2635 C 3.24752 20.222 3.24894 18.7638 3.25007 17.602 L 3.25013 17.5 C 3.25013 15.8661 4.41962 14.5396 5.97558 13.6643 C 7.55506 12.7759 9.68658 12.25 12.0001 12.25 Z M4.75013 17.5 C4.75013 18.8078 4.79045 19.544 5.47372 20.1004 C5.84425 20.4022 6.46366 20.6967 7.52392 20.9113 C8.58087 21.1252 10.0259 21.25 12.0001 21.25 C14.5781 21.25 16.2402 21.0366 17.311 20.7004 C15.0142 20.3666 13.2501 18.3893 13.2501 16 C13.2501 15.2322 13.4323 14.5069 13.7558 13.865 C13.1941 13.79 12.6062 13.75 12.0001 13.75 C9.89541 13.75 8.02693 14.2315 6.71098 14.9717 C5.37151 15.7251 4.75013 16.6487 4.75013 17.5 Z M 18.0001 12.75 C 16.2052 12.75 14.7501 14.2051 14.7501 16 C 14.7501 17.7949 16.2052 19.25 18.0001 19.25 C 19.7951 19.25 21.2501 17.7949 21.2501 16 C 21.2501 14.2051 19.7951 12.75 18.0001 12.75 Z" fill="#FFFFFF" />
</svg>