<svg xmlns="http://www.w3.org/2000/svg" width="24" height="24" viewBox="0 0 24 24" fill="none">
  <path fill-rule="nonzero" clip-rule="nonzero" d="M 5.25013 6 C 5.25013 3.37665 7.37678 1.25 10.0001 1.25 C 12.6235 1.25 14.7501 3.37665 14.7501 6 C 14.7501 8.62335 12.6235 10.75 10.0001 10.75 C 7.37678 10.75 5.25013 8.62335 5.25013 6 Z M 10.0001 2.75 C 8.20521 2.75 6.75013 4.20507 6.75013 6 C 6.75013 7.79493 8.20521 9.25 10.0001 9.25 C 11.7951 9.25 13.2501 7.79493 13.2501 6 C 13.2501 4.20507 11.7951 2.75 10.0001 2.75 Z" fill="#FFFFFF" />
  <path fill-rule="nonzero" clip-rule="nonzero" d="M 3.97558 13.6643 C 5.55506 12.7759 7.68658 12.25 10.0001 12.25 C 12.3137 12.25 14.4452 12.7759 16.0247 13.6643 C 17.5807 14.5396 18.7501 15.8661 18.7501 17.5 L 18.7502 17.602 C 18.7513 18.7638 18.7527 20.222 17.4737 21.2635 C 16.8443 21.7761 15.9637 22.1406 14.7739 22.3815 C 13.5809 22.6229 12.0259 22.75 10.0001 22.75 C 7.97436 22.75 6.4194 22.6229 5.22634 22.3815 C 4.03661 22.1406 3.15602 21.7761 2.52655 21.2635 C 1.24752 20.222 1.24894 18.7638 1.25007 17.602 L 1.25013 17.5 C 1.25013 15.8661 2.41962 14.5396 3.97558 13.6643 Z M 4.71098 14.9717 C 3.37151 15.7251 2.75013 16.6487 2.75013 17.5 C 2.75013 18.8078 2.79045 19.544 3.47372 20.1004 C 3.84425 20.4022 4.46366 20.6967 5.52393 20.9113 C 6.58087 21.1252 8.02591 21.25 10.0001 21.25 C 11.9744 21.25 13.4194 21.1252 14.4763 20.9113 C 15.5366 20.6967 16.156 20.4022 16.5265 20.1004 C 17.2098 19.544 17.2501 18.8078 17.2501 17.5 C 17.2501 16.6487 16.6288 15.7251 15.2893 14.9717 C 13.9733 14.2315 12.1049 13.75 10.0001 13.75 C 7.89541 13.75 6.02693 14.2315 4.71098 14.9717 Z" fill="#FFFFFF" />
  <path fill-rule="nonzero" clip-rule="nonzero" d="M 16.6904 7.44694 C 17.411 7.12802 18.248 7.18847 19.0001 7.67889 C 19.7523 7.18847 20.5892 7.12802 21.3099 7.44694 C 22.1649 7.82533 22.7501 8.69929 22.7501 9.69973 C 22.7501 10.6481 22.3359 11.362 21.8396 11.9031 C 21.4522 12.3254 20.973 12.682 20.5946 12.9636 C 20.5133 13.0241 20.4367 13.0812 20.3666 13.1347 L 20.3646 13.1362 C 20.2159 13.2497 20.0236 13.3965 19.8209 13.5111 C 19.6169 13.6265 19.3345 13.75 19.0001 13.75 C 18.6658 13.75 18.3834 13.6265 18.1794 13.5111 C 17.9767 13.3965 17.7843 13.2497 17.6356 13.1362 L 17.6336 13.1347 C 17.5636 13.0812 17.487 13.0242 17.4058 12.9638 C 17.0274 12.6821 16.5481 12.3254 16.1607 11.9031 C 15.6644 11.362 15.2501 10.6481 15.2501 9.69973 C 15.2501 8.69929 15.8353 7.82533 16.6904 7.44694 Z M16.7501 9.69973 C16.7501 10.1638 16.9388 10.5324 17.2661 10.8891 C17.5481 11.1966 17.8845 11.448 18.2564 11.726 C18.35 11.796 18.4459 11.8676 18.5437 11.9423 C18.7062 12.0663 18.8188 12.1495 18.918 12.2056 C18.9581 12.2283 18.9848 12.2399 19.0001 12.2456 C19.0155 12.2399 19.0422 12.2283 19.0823 12.2056 C19.1815 12.1495 19.2941 12.0663 19.4566 11.9423 C19.5544 11.8676 19.6503 11.7959 19.7439 11.7259 C20.1158 11.448 20.4522 11.1966 20.7342 10.8891 C21.0614 10.5324 21.2501 10.1638 21.2501 9.69973 C21.2501 9.28775 21.0103 8.95469 20.7029 8.81862 C20.4366 8.7008 20.0128 8.68874 19.532 9.17232 C19.3912 9.31392 19.1998 9.39354 19.0001 9.39354 C18.8005 9.39354 18.609 9.31392 18.4683 9.17232 C17.9875 8.68874 17.5637 8.7008 17.2974 8.81862 C16.99 8.95469 16.7501 9.28775 16.7501 9.69973 Z" fill="#FFFFFF" />
</svg>