<svg xmlns="http://www.w3.org/2000/svg" width="24" height="24" viewBox="0 0 24 24" fill="none">
  <path fill-rule="nonzero" clip-rule="nonzero" d="M 16.5 15.75 C 14.9812 15.75 13.75 16.9812 13.75 18.5 C 13.75 19.0004 13.8832 19.4691 14.1167 19.8732 L 17.8732 16.1167 C 17.4691 15.8832 17.0004 15.75 16.5 15.75 Z M 18.9196 17.1916 L 15.1916 20.9196 C 15.5806 21.1305 16.0261 21.25 16.5 21.25 C 18.0188 21.25 19.25 20.0188 19.25 18.5 C 19.25 18.0261 19.1305 17.5806 18.9196 17.1916 Z M 12.25 18.5 C 12.25 16.1528 14.1528 14.25 16.5 14.25 C 17.689 14.25 18.7652 14.7393 19.5357 15.5256 C 20.2861 16.2914 20.75 17.3423 20.75 18.5 C 20.75 20.8472 18.8472 22.75 16.5 22.75 C 15.3423 22.75 14.2914 22.2861 13.5256 21.5357 C 12.7393 20.7652 12.25 19.689 12.25 18.5 Z" fill="#FFFFFF" />
  <path d="M16 6C16 8.20914 14.2091 10 12 10C9.79086 10 8 8.20914 8 6C8 3.79086 9.79086 2 12 2C14.2091 2 16 3.79086 16 6Z" fill="#FFFFFF" />
  <path d="M14.2951 13.1879C12.2137 14.0529 10.75 16.1055 10.75 18.5C10.75 19.8163 11.1943 21.0315 11.9378 22C4 21.9895 4 19.9788 4 17.5C4 15.0147 7.58172 13 12 13C12.7977 13 13.5681 13.0657 14.2951 13.1879Z" fill="#FFFFFF" />
</svg>