<svg xmlns="http://www.w3.org/2000/svg" width="24" height="24" viewBox="0 0 24 24" fill="none">
  <path fill-rule="nonzero" clip-rule="nonzero" d="M12 1.25 C14.6234 1.25 16.75 3.37665 16.75 6 C16.75 8.62335 14.6234 10.75 12 10.75 C9.37665 10.75 7.25 8.62335 7.25 6 C7.25 3.37665 9.37665 1.25 12 1.25 Z M8.75 6 C8.75 7.79493 10.2051 9.25 12 9.25 C13.7949 9.25 15.25 7.79493 15.25 6 C15.25 4.20507 13.7949 2.75 12 2.75 C10.2051 2.75 8.75 4.20507 8.75 6 Z" fill="#FFFFFF" />
  <path d="M18.8555 16.5729C19.1527 16.8614 19.1599 17.3362 18.8714 17.6334L17.0382 19.5223C16.8901 19.6749 16.6842 19.7575 16.4717 19.7495C16.2591 19.7414 16.06 19.6436 15.9239 19.4802L15.0904 18.4802C14.8252 18.162 14.8681 17.6891 15.1863 17.4239C15.5045 17.1587 15.9774 17.2016 16.2426 17.5198L16.5424 17.8794L17.795 16.5888C18.0834 16.2915 18.5583 16.2844 18.8555 16.5729Z" fill="#FFFFFF" />
  <path fill-rule="nonzero" clip-rule="nonzero" d="M 13.9107 21.6083 C 13.2991 21.7009 12.6587 21.75 12 21.75 C 9.96067 21.75 8.07752 21.2792 6.67815 20.4796 C 5.3 19.6921 4.25 18.4899 4.25 17 C 4.25 15.5101 5.3 14.3079 6.67815 13.5204 C 8.07752 12.7208 9.96067 12.25 12 12.25 C 13.8045 12.25 15.4825 12.6184 16.8117 13.2537 C 16.8742 13.2512 16.937 13.25 17 13.25 C 19.6234 13.25 21.75 15.3766 21.75 18 C 21.75 20.6234 19.6234 22.75 17 22.75 C 15.8204 22.75 14.7413 22.32 13.9107 21.6083 Z M13.75 18 C13.75 19.7949 15.2051 21.25 17 21.25 C18.7949 21.25 20.25 19.7949 20.25 18 C20.25 16.2051 18.7949 14.75 17 14.75 C15.2051 14.75 13.75 16.2051 13.75 18 Z M14.4176 14.0127 C13.6767 13.8444 12.8611 13.75 12 13.75 C10.1733 13.75 8.55649 14.1747 7.42236 14.8228 C6.26701 15.483 5.75 16.2807 5.75 17 C5.75 17.7193 6.26701 18.517 7.42236 19.1772 C8.55649 19.8253 10.1733 20.25 12 20.25 C12.2715 20.25 12.5388 20.2406 12.8009 20.2224 C12.4492 19.5593 12.25 18.8029 12.25 18 C12.25 16.3289 13.113 14.8593 14.4176 14.0127 Z" fill="#FFFFFF" />
</svg>