<svg xmlns="http://www.w3.org/2000/svg" viewBox="0 0 128 128"><path fill-rule="nonzero" clip-rule="nonzero" fill="#4FAA41" d="M90.491 57.282 L84.3 66.798 C84.761 72.739 84.55 78.639 83.296 84.48 C83.262 84.639 83.19 84.792 83.136 84.948 C82.529 87.112 82.052 89.323 81.282 91.427 C80.408 93.814 79.352 96.144 78.23 98.428 C76.36 100.677 74.275 102.757 72.185 104.811 C71.03 105.946 69.669 106.872 68.401 107.892 L67.374 109.712 L67.015 110.889 L66.52 116.294 L66.531 119.842 L66.777 123.445 L65.343 122.887 L63.967 122.404 C63.813 122.202 63.537 122.008 63.525 121.798 C63.475 120.976 63.508 120.151 63.511 119.328 L63.185 115.275 L62.501 111.391 L61.763 108.89 L62.589 105.995 C62.782 105.034 62.977 104.078 63.151 103.114 C62.978 104.078 62.719 105.034 62.463 105.995 C62.207 106.96 61.982 107.925 61.7 108.89 C60.052 107.473 58.432 106.119 56.853 104.63 C48.358 96.616 42.144 87.183 39.082 75.811 C38.239 72.681 37.677 69.501 37.496 66.266 C37.369 64.003 37.187 61.719 37.347 59.468 C37.773 53.478 38.639 47.548 40.395 41.78 L40.491 41.646 L43.681 33.029 C45.271 30.104 46.861 27.179 48.453 24.254 L54.354 16.491 C56.273 14.612 58.132 12.666 60.129 10.873 C61.905 9.28 63.331 7.573 63.396 5.056 C63.399 4.951 63.453 4.847 63.538 4.555 L64.043 5.828 C64.84 7.372 65.619 8.925 66.437 10.457 C67.73 12.879 69.792 14.662 71.646 16.608 C78.979 24.302 84.185 33.244 87.429 43.348 C88.995 47.873 90.121 52.492 90.491 57.282 Z M-23.599 49.375 L-22.416 50.385 L-23.599 49.375 L-24.404 47.612 L-23.599 49.375 Z" /></svg>