<svg xmlns="http://www.w3.org/2000/svg" width="24" height="24" viewBox="0 0 24 24" fill="none">
  <path fill-rule="nonzero" clip-rule="nonzero" d="M12.4382 21.2216 L12.6676 21.9356 L12.4382 21.2216 L12.5832 21.175 C12.8896 21.0766 13.1072 20.8399 13.1787 20.5642 C13.3197 20.0208 13.3456 19.4539 13.2548 18.8998 L12.5921 14.8553 C12.4344 13.8924 13.1766 13.0158 14.1537 13.0158 L19.3348 13.0158 C19.9014 13.0158 20.3332 12.5041 20.2361 11.9426 L19.5306 7.86285 C19.0238 4.93226 16.3813 2.75 13.245 2.75 L8.59635 2.75 C8.12244 2.75 7.72601 3.11303 7.68498 3.58754 L6.87282 12.9802 C6.8474 13.2742 6.96475 13.5622 7.18773 13.7544 L8.62647 14.9942 C9.30632 15.58 10.0392 16.2773 10.5235 17.184 C10.8354 17.768 11.0777 18.3866 11.244 19.0279 L11.7197 20.8618 C11.7548 20.9968 11.8523 21.1209 11.9998 21.192 C12.1345 21.2569 12.2931 21.2682 12.4382 21.2216 Z M11.3486 22.5433 C10.8166 22.2869 10.417 21.8137 10.2678 21.2384 L9.79208 19.4046 C9.65573 18.8789 9.45699 18.3711 9.20042 17.8908 C8.85404 17.2423 8.3025 16.6951 7.64729 16.1305 L6.20855 14.8907 C5.62022 14.3837 5.31149 13.6247 5.3784 12.851 L6.19056 3.45832 C6.29852 2.20975 7.3427 1.25 8.59635 1.25 L13.245 1.25 C17.0712 1.25 20.3708 3.91896 21.0087 7.60725 L21.7142 11.687 C21.9695 13.1635 20.8341 14.5158 19.3348 14.5158 L14.1537 14.5158 C14.1038 14.5158 14.0639 14.561 14.0724 14.6128 L14.7351 18.6573 C14.8596 19.4174 14.8241 20.1952 14.6307 20.9408 C14.4252 21.7328 13.819 22.3535 13.042 22.6031 L12.8126 21.8891 L13.042 22.6031 L12.897 22.6497 C12.3873 22.8135 11.8312 22.7758 11.3486 22.5433 Z M2.96767 14.5151 C2.5664 14.4978 2.25 14.1674 2.25 13.7658 L2.25 2.48726 C2.25 1.80474 2.80289 1.25 3.48671 1.25 C4.21268 1.25 4.78122 1.8721 4.71881 2.59389 L3.74721 13.8304 C3.71261 14.2306 3.36893 14.5324 2.96767 14.5151 Z" fill="#FFFFFF" />
</svg>