<svg xmlns="http://www.w3.org/2000/svg" width="24" height="24" viewBox="0 0 24 24" fill="none">
  <path d="M12 11.25C12.4142 11.25 12.75 11.5858 12.75 12V14.5C12.75 14.9142 12.4142 15.25 12 15.25C11.5858 15.25 11.25 14.9142 11.25 14.5V12C11.25 11.5858 11.5858 11.25 12 11.25Z" fill="#FFFFFF" />
  <path fill-rule="nonzero" clip-rule="nonzero" d="M6.26487 6.49198 C6.35884 4.91563 6.89708 3.62905 7.85181 2.71548 C8.90153 1.71101 10.3582 1.25 12 1.25 C13.6418 1.25 15.0985 1.71101 16.1482 2.71548 C17.1029 3.62905 17.6412 4.91563 17.7351 6.49198 C17.9348 6.55411 18.1308 6.62777 18.3222 6.7125 C20.3398 7.60535 21.75 9.68634 21.75 12.0992 C21.75 14.46 20.7329 16.2564 19.4129 17.6953 C18.3574 18.8461 17.0649 19.8095 15.9302 20.6553 C15.6737 20.8464 15.4253 21.0316 15.1895 21.2116 C14.729 21.563 14.2301 21.9413 13.7236 22.2279 C13.2168 22.5146 12.6344 22.75 12 22.75 C11.3656 22.75 10.7832 22.5146 10.2764 22.2279 C9.76987 21.9413 9.27099 21.563 8.81054 21.2116 C8.57482 21.0317 8.32624 20.8464 8.06984 20.6553 C6.93514 19.8095 5.64262 18.8461 4.58706 17.6953 C3.26713 16.2564 2.25 14.46 2.25 12.0992 C2.25 9.68634 3.66023 7.60535 5.67779 6.7125 C5.86925 6.62777 6.06517 6.55411 6.26487 6.49198 Z M 7.79032 6.24995 C 9.17125 6.23196 10.6375 6.74241 12 7.9077 C 13.3625 6.74241 14.8288 6.23196 16.2097 6.24995 C 16.0853 5.14336 15.6812 4.3447 15.1112 3.79924 C 14.414 3.13213 13.3706 2.75 12 2.75 C 10.6294 2.75 9.58601 3.13213 8.88885 3.79924 C 8.31882 4.3447 7.91472 5.14336 7.79032 6.24995 Z M3.75 12.0992 C3.75 13.9756 4.54161 15.4268 5.69244 16.6814 C6.64268 17.7173 7.79253 18.5756 8.92091 19.4178 C9.18967 19.6184 9.45722 19.8182 9.72058 20.0192 C10.1946 20.3809 10.6129 20.6949 11.015 20.9223 C11.4168 21.1496 11.7344 21.25 12 21.25 C12.2656 21.25 12.5832 21.1496 12.985 20.9223 C13.3871 20.6949 13.8054 20.3809 14.2794 20.0192 C14.5428 19.8182 14.8105 19.6183 15.0792 19.4177 C16.2076 18.5754 17.3573 17.7173 18.3076 16.6814 C19.4584 15.4268 20.25 13.9756 20.25 12.0992 C20.25 10.2748 19.1852 8.7347 17.7152 8.08418 C16.2864 7.4519 14.3626 7.61795 12.5319 9.4594 C12.3911 9.601 12.1997 9.68062 12 9.68062 C11.8003 9.68062 11.6089 9.601 11.4681 9.4594 C9.63741 7.61795 7.71357 7.4519 6.28482 8.08418 C4.81485 8.7347 3.75 10.2748 3.75 12.0992 Z" fill="#FFFFFF" />
</svg>