<svg xmlns="http://www.w3.org/2000/svg" width="24" height="24" viewBox="0 0 24 24" fill="none">
  <path fill-rule="nonzero" clip-rule="nonzero" d="M7.75 7 L7.75 7.00134 C9.11513 6.96863 10.6105 7.53302 12 8.93062 C16.0499 4.85701 21 7.86196 21 12.0992 C21 15.9375 18.0316 18.1516 15.5044 20.0368 C15.2417 20.2327 14.9838 20.4251 14.7344 20.6154 C13.8 21.3285 12.9 22 12 22 C11.1 22 10.2 21.3285 9.26556 20.6154 C9.01624 20.4251 8.75832 20.2327 8.49565 20.0368 C5.96837 18.1516 3 15.9375 3 12.0992 C3 9.87329 4.36604 7.98746 6.25 7.2892 L6.25 7 C6.25 5.19662 6.78019 3.73328 7.80968 2.72225 C8.83628 1.71407 10.2634 1.25 11.8718 1.25 C13.9089 1.25 15.6448 1.99898 16.6379 3.60564 C16.8557 3.95797 16.7467 4.42015 16.3944 4.63795 C16.042 4.85575 15.5798 4.74669 15.3621 4.39436 C14.7129 3.34422 13.5394 2.75 11.8718 2.75 C10.545 2.75 9.5362 3.12908 8.8607 3.79247 C8.1881 4.45301 7.75 5.48967 7.75 7 Z M12 11.25 C11.5858 11.25 11.25 11.5858 11.25 12 L11.25 14.5 C11.25 14.9142 11.5858 15.25 12 15.25 C12.4142 15.25 12.75 14.9142 12.75 14.5 L12.75 12 C12.75 11.5858 12.4142 11.25 12 11.25 Z" fill="#FFFFFF" />
</svg>