<svg xmlns="http://www.w3.org/2000/svg" width="24" height="24" viewBox="0 0 24 24" fill="none">
  <path fill-rule="nonzero" clip-rule="nonzero" d="M 5.62436 4.4241 C 3.96537 5.18243 2.75 6.98614 2.75 9.13701 C 2.75 11.3344 3.64922 13.0281 4.93829 14.4797 C 6.00072 15.676 7.28684 16.6675 8.54113 17.6345 C 8.83904 17.8642 9.13515 18.0925 9.42605 18.3218 C 9.95208 18.7365 10.4213 19.1004 10.8736 19.3647 C 11.0805 19.4856 11.2689 19.5765 11.442 19.6395 L 12.1694 16.73 L 10.4697 15.0302 C 10.1926 14.7531 10.1755 14.3094 10.4306 14.0118 L 12.8973 11.1339 L 10.0641 9.11021 C 9.76374 8.89569 9.66412 8.49455 9.82921 8.16445 L 11.0849 5.65354 C 9.14155 3.86228 7.13852 3.73198 5.62436 4.4241 Z M 12.6186 5.94032 L 11.4575 8.26214 L 14.4359 10.3896 C 14.6072 10.5119 14.7191 10.7005 14.7445 10.9094 C 14.7699 11.1183 14.7064 11.3282 14.5694 11.488 L 12.0214 14.4607 L 13.5303 15.9696 C 13.7166 16.1559 13.7915 16.4262 13.7276 16.6818 L 13.0453 19.4111 C 13.072 19.3962 13.099 19.3807 13.1264 19.3647 C 13.5787 19.1004 14.0479 18.7365 14.574 18.3218 C 14.8649 18.0925 15.161 17.8642 15.4589 17.6345 C 16.7132 16.6675 17.9993 15.676 19.0617 14.4797 C 20.3508 13.0281 21.25 11.3344 21.25 9.13701 C 21.25 6.98614 20.0346 5.18243 18.3756 4.4241 C 16.7843 3.69672 14.6531 3.87769 12.6186 5.94032 Z M12 4.45873 C14.3121 2.39015 16.901 2.10078 18.9992 3.05987 C21.2153 4.07283 22.75 6.42494 22.75 9.13701 C22.75 11.8025 21.6395 13.836 20.1833 15.4757 C19.0171 16.7888 17.5898 17.8879 16.3292 18.8585 C16.0434 19.0785 15.7662 19.292 15.5026 19.4998 C14.9903 19.9036 14.4405 20.3342 13.8832 20.6598 C13.3261 20.9853 12.6904 21.2499 12 21.2499 C11.3096 21.2499 10.6739 20.9853 10.1168 20.6598 C9.55955 20.3342 9.00965 19.9036 8.49742 19.4998 C8.23378 19.292 7.95659 19.0785 7.67083 18.8585 C6.41022 17.8879 4.98287 16.7888 3.81672 15.4757 C2.3605 13.836 1.25 11.8025 1.25 9.13701 C1.25 6.42494 2.78471 4.07283 5.00076 3.05987 C7.09896 2.10078 9.68795 2.39015 12 4.45873 Z" fill="#FFFFFF" />
</svg>