<svg xmlns="http://www.w3.org/2000/svg" width="24" height="24" viewBox="0 0 24 24" fill="none">
  <path fill-rule="nonzero" clip-rule="nonzero" d="M 6.25 7.2892 V 7 C 6.25 5.19099 6.79645 3.72534 7.85181 2.71548 C 8.90153 1.71101 10.3582 1.25 12 1.25 C 13.6418 1.25 15.0985 1.71101 16.1482 2.71548 C 17.2036 3.72534 17.75 5.19099 17.75 7 V 7.2892 C 19.634 7.98746 21 9.87329 21 12.0992 C 21 15.9375 18.0316 18.1516 15.5044 20.0368 C 15.2417 20.2327 14.9838 20.4251 14.7344 20.6154 C 13.8 21.3285 12.9 22 12 22 C 11.1 22 10.2 21.3285 9.26556 20.6154 C 9.01624 20.4251 8.75832 20.2327 8.49565 20.0368 C 5.96837 18.1516 3 15.9375 3 12.0992 C 3 9.87329 4.36604 7.98746 6.25 7.2892 Z M7.75 7 L7.75 7.00134 C9.11513 6.96863 10.6105 7.53302 12 8.93062 C13.3895 7.53302 14.8849 6.96863 16.25 7.00134 L16.25 7 C16.25 5.4953 15.8027 4.46095 15.1112 3.79924 C14.414 3.13213 13.3706 2.75 12 2.75 C10.6294 2.75 9.58601 3.13213 8.88885 3.79924 C8.19732 4.46095 7.75 5.4953 7.75 7 Z M12 11.25 C11.5858 11.25 11.25 11.5858 11.25 12 L11.25 14.5 C11.25 14.9142 11.5858 15.25 12 15.25 C12.4142 15.25 12.75 14.9142 12.75 14.5 L12.75 12 C12.75 11.5858 12.4142 11.25 12 11.25 Z" fill="#FFFFFF" />
</svg>