<svg xmlns="http://www.w3.org/2000/svg" width="24" height="24" viewBox="0 0 24 24" fill="none">
  <path fill-rule="nonzero" clip-rule="nonzero" d="M 12.4382 2.77841 C 12.2931 2.73181 12.1345 2.74311 11.9998 2.80804 C 11.8523 2.87913 11.7548 3.0032 11.7197 3.13821 L 11.244 4.97206 C 11.0777 5.61339 10.8354 6.23198 10.5235 6.81599 C 10.0392 7.72267 9.30632 8.42 8.62647 9.00585 L 7.18773 10.2456 C 6.96475 10.4378 6.8474 10.7258 6.87282 11.0198 L 7.68498 20.4125 C 7.72601 20.887 8.12244 21.25 8.59635 21.25 H 13.245 C 16.3813 21.25 19.0238 19.0677 19.5306 16.1371 L 20.2361 12.0574 C 20.3332 11.4959 19.9014 10.9842 19.3348 10.9842 H 14.1537 C 13.1766 10.9842 12.4344 10.1076 12.5921 9.14471 L 13.2548 5.10015 C 13.3456 4.54613 13.3197 3.97923 13.1787 3.43584 C 13.1072 3.16009 12.8896 2.92342 12.5832 2.82498 L 12.4382 2.77841 L 12.6676 2.06435 L 12.4382 2.77841 Z M 11.3486 1.45674 C 11.8312 1.2242 12.3873 1.18654 12.897 1.35029 L 13.042 1.39686 L 12.8126 2.11092 L 13.042 1.39686 C 13.819 1.64648 14.4252 2.26719 14.6307 3.0592 C 14.8241 3.80477 14.8596 4.58256 14.7351 5.34268 L 14.0724 9.38724 C 14.0639 9.439 14.1038 9.4842 14.1537 9.4842 H 19.3348 C 20.8341 9.4842 21.9695 10.8365 21.7142 12.313 L 21.0087 16.3928 C 20.3708 20.081 17.0712 22.75 13.245 22.75 H 8.59635 C 7.3427 22.75 6.29852 21.7902 6.19056 20.5417 L 5.3784 11.149 C 5.31149 10.3753 5.62022 9.61631 6.20855 9.10933 L 7.64729 7.86954 C 8.3025 7.30492 8.85404 6.75767 9.20042 6.10924 C 9.45699 5.62892 9.65573 5.12107 9.79208 4.59542 L 10.2678 2.76157 C 10.417 2.18627 10.8166 1.71309 11.3486 1.45674 Z M 2.96767 9.4849 C 3.36893 9.46758 3.71261 9.76945 3.74721 10.1696 L 4.71881 21.4061 C 4.78122 22.1279 4.21268 22.75 3.48671 22.75 C 2.80289 22.75 2.25 22.1953 2.25 21.5127 V 10.2342 C 2.25 9.83256 2.5664 9.50221 2.96767 9.4849 Z" fill="#FFFFFF" />
</svg>