<svg xmlns="http://www.w3.org/2000/svg" width="24" height="24" viewBox="0 0 24 24" fill="none">
  <path fill-rule="nonzero" clip-rule="nonzero" d="M 12 2.75 C 8.54822 2.75 5.75 5.54822 5.75 9 C 5.75 12.4518 8.54822 15.25 12 15.25 C 15.4518 15.25 18.25 12.4518 18.25 9 C 18.25 5.54822 15.4518 2.75 12 2.75 Z M 4.25 9 C 4.25 4.71979 7.71979 1.25 12 1.25 C 16.2802 1.25 19.75 4.71979 19.75 9 C 19.75 11.2254 18.812 13.2317 17.3098 14.6452 C 17.3359 14.6939 17.357 14.7462 17.3722 14.8017 L 18.0217 17.1709 C 18.3252 18.2776 18.5696 19.169 18.6807 19.8607 C 18.7897 20.5387 18.812 21.2371 18.4326 21.8048 C 18.2166 22.128 17.9233 22.3927 17.5766 22.5692 C 16.9468 22.8899 16.2599 22.7318 15.6446 22.4995 C 15.017 22.2625 14.2288 21.8518 13.2607 21.3474 L 13.2141 21.3231 C 12.4899 20.9457 12.3008 20.861 12.1191 20.8417 C 12.0399 20.8332 11.9601 20.8332 11.8809 20.8417 C 11.6992 20.861 11.5101 20.9457 10.7859 21.3231 L 10.7393 21.3474 C 9.77122 21.8518 8.98303 22.2625 8.35539 22.4995 C 7.74006 22.7318 7.0532 22.8899 6.42341 22.5692 C 6.07674 22.3927 5.78341 22.128 5.56741 21.8048 C 5.188 21.2371 5.21031 20.5387 5.31926 19.8607 C 5.43043 19.169 5.67482 18.2776 5.97827 17.1709 L 6.6278 14.8017 C 6.64302 14.7462 6.66409 14.6939 6.69015 14.6452 C 5.18798 13.2317 4.25 11.2254 4.25 9 Z M 7.96016 15.6151 L 7.43755 17.5213 C 7.11851 18.685 6.89691 19.4973 6.80026 20.0987 C 6.69985 20.7235 6.7747 20.9117 6.81454 20.9713 C 6.89239 21.0878 6.99326 21.1761 7.10403 21.2325 C 7.12687 21.2441 7.27015 21.3058 7.82563 21.0961 C 8.35876 20.8949 9.06684 20.5274 10.0928 19.9928 C 10.1276 19.9747 10.1621 19.9567 10.1962 19.9389 C 10.7642 19.6421 11.2211 19.4035 11.722 19.3501 C 11.9068 19.3304 12.0932 19.3304 12.278 19.3501 C 12.7789 19.4035 13.2358 19.6421 13.8038 19.9389 C 13.8379 19.9567 13.8724 19.9747 13.9072 19.9928 C 14.9332 20.5274 15.6412 20.8949 16.1744 21.0961 C 16.7299 21.3058 16.8731 21.2441 16.896 21.2325 C 17.0067 21.1761 17.1076 21.0878 17.1855 20.9713 C 17.2253 20.9117 17.3002 20.7235 17.1997 20.0987 C 17.1031 19.4973 16.8815 18.685 16.5625 17.5213 L 16.0398 15.6151 C 14.8635 16.335 13.4802 16.75 12 16.75 C 10.5198 16.75 9.13652 16.335 7.96016 15.6151 Z M 12 7.03449 C 11.9419 7.13513 11.8772 7.25103 11.801 7.38769 L 11.7027 7.56405 C 11.6958 7.5765 11.6884 7.59009 11.6804 7.60466 C 11.6019 7.74827 11.4718 7.9861 11.255 8.15071 C 11.0336 8.31877 10.7673 8.37659 10.6116 8.4104 C 10.596 8.41379 10.5815 8.41693 10.5683 8.41992 L 10.3774 8.46312 C 10.2022 8.50275 10.0595 8.53509 9.9375 8.56575 C 10.0169 8.66345 10.1199 8.78474 10.254 8.94154 L 10.3842 9.09372 C 10.3934 9.10452 10.4035 9.11609 10.4141 9.12841 C 10.5221 9.25273 10.6963 9.45346 10.7769 9.71261 C 10.8566 9.96869 10.8291 10.2324 10.8118 10.3988 C 10.81 10.4154 10.8084 10.431 10.807 10.4456 L 10.7873 10.6487 C 10.7691 10.8369 10.7549 10.9872 10.7455 11.1094 C 10.8497 11.0635 10.9682 11.0089 11.109 10.9441 L 11.2878 10.8618 C 11.3001 10.8561 11.3136 10.8498 11.3281 10.8429 C 11.4716 10.7752 11.7213 10.6575 12 10.6575 C 12.2787 10.6575 12.5284 10.7752 12.6719 10.8429 C 12.6864 10.8498 12.6999 10.8561 12.7122 10.8618 L 12.891 10.9441 C 13.0318 11.0089 13.1503 11.0635 13.2545 11.1094 C 13.2451 10.9872 13.2309 10.8369 13.2127 10.6487 L 13.193 10.4456 C 13.1916 10.431 13.19 10.4154 13.1882 10.3988 C 13.1709 10.2324 13.1434 9.96869 13.2231 9.71261 C 13.3037 9.45346 13.4779 9.25273 13.5859 9.12841 C 13.5965 9.11609 13.6066 9.10452 13.6158 9.09372 L 13.746 8.94153 C 13.8801 8.78474 13.9831 8.66345 14.0625 8.56575 C 13.9405 8.53509 13.7978 8.50275 13.6226 8.46312 L 13.4317 8.41992 C 13.4185 8.41693 13.404 8.41379 13.3884 8.4104 C 13.2327 8.37659 12.9664 8.31877 12.745 8.15071 C 12.5282 7.9861 12.3981 7.74827 12.3196 7.60466 C 12.3116 7.59009 12.3042 7.5765 12.2973 7.56405 L 12.199 7.38769 C 12.1228 7.25103 12.0581 7.13513 12 7.03449 Z M 11.0135 5.79963 C 11.1857 5.57481 11.4983 5.25 12 5.25 C 12.5017 5.25 12.8143 5.57481 12.9865 5.79963 C 13.1508 6.01421 13.3163 6.31124 13.486 6.61577 C 13.4937 6.62961 13.5014 6.64347 13.5091 6.65734 L 13.6075 6.83369 C 13.6303 6.87459 13.6482 6.90677 13.6639 6.9343 C 13.6912 6.94071 13.723 6.94792 13.7627 6.95691 L 13.9536 7.0001 C 13.9693 7.00364 13.9849 7.00717 14.0005 7.0107 C 14.3284 7.08478 14.6542 7.15839 14.9042 7.25695 C 15.1804 7.36577 15.5547 7.5777 15.6989 8.04161 C 15.8407 8.49734 15.6618 8.88336 15.5056 9.13146 C 15.3611 9.36108 15.1414 9.61786 14.9165 9.88074 C 14.9063 9.89262 14.8962 9.90452 14.886 9.91642 L 14.7558 10.0686 C 14.7213 10.1089 14.6953 10.1394 14.6735 10.1657 C 14.6764 10.202 14.6805 10.2443 14.686 10.3009 L 14.7057 10.504 C 14.7072 10.5195 14.7087 10.5349 14.7102 10.5504 C 14.7444 10.9023 14.7774 11.2424 14.7653 11.5145 C 14.7526 11.7997 14.6841 12.2315 14.2969 12.5254 C 13.8975 12.8286 13.4564 12.7626 13.1767 12.6824 C 12.919 12.6086 12.6144 12.4682 12.3077 12.3269 C 12.293 12.3201 12.2783 12.3134 12.2636 12.3066 L 12.0849 12.2243 C 12.0514 12.2089 12.024 12.1963 12 12.1854 C 11.976 12.1963 11.9486 12.2089 11.9151 12.2243 L 11.7364 12.3066 C 11.7217 12.3134 11.707 12.3201 11.6923 12.3269 C 11.3856 12.4682 11.081 12.6086 10.8233 12.6824 C 10.5436 12.7626 10.1025 12.8286 9.70306 12.5254 C 9.31589 12.2315 9.24743 11.7997 9.23473 11.5145 C 9.22261 11.2424 9.25563 10.9023 9.28981 10.5504 C 9.29131 10.5349 9.29281 10.5195 9.29432 10.504 L 9.31399 10.3009 C 9.31948 10.2443 9.32356 10.202 9.32655 10.1657 C 9.30465 10.1394 9.27866 10.1089 9.24418 10.0686 L 9.11403 9.91642 C 9.10385 9.90452 9.09367 9.89262 9.08351 9.88074 C 8.8586 9.61786 8.63891 9.36108 8.49436 9.13146 C 8.33817 8.88336 8.15934 8.49734 8.30105 8.04161 C 8.44532 7.5777 8.81962 7.36577 9.09576 7.25695 C 9.34585 7.15839 9.67164 7.08478 9.99945 7.0107 C 10.0151 7.00717 10.0307 7.00364 10.0463 7.0001 L 10.2373 6.95691 C 10.277 6.94792 10.3088 6.94071 10.3361 6.9343 C 10.3518 6.90677 10.3697 6.87459 10.3925 6.83369 L 10.4909 6.65734 C 10.4986 6.64347 10.5063 6.62961 10.514 6.61577 C 10.6837 6.31124 10.8492 6.01421 11.0135 5.79963 Z" fill="#FFFFFF" />
</svg>