<svg xmlns="http://www.w3.org/2000/svg" width="24" height="24" viewBox="0 0 24 24" fill="none">
  <path fill-rule="nonzero" clip-rule="nonzero" d="M 10.9478 1.25 H 13.0518 C 13.9503 1.24997 14.6995 1.24995 15.2943 1.32991 C 15.9221 1.41432 16.4889 1.59999 16.9443 2.05546 C 17.3998 2.51093 17.5855 3.07773 17.6699 3.70552 C 17.7499 4.30031 17.7498 5.04953 17.7498 5.94801 L 17.7498 7.28108 L 18.5893 7.73883 C 19.7942 8.39587 20.544 9.6587 20.544 11.0312 V 15.9688 C 20.544 17.3413 19.7942 18.6041 18.5893 19.2612 L 13.795 21.8754 C 12.676 22.4855 11.3236 22.4855 10.2046 21.8754 L 5.41032 19.2612 C 4.20534 18.6041 3.45557 17.3413 3.45557 15.9688 V 11.0312 C 3.45557 9.6587 4.20534 8.39587 5.41033 7.73883 L 6.24979 7.28108 L 6.24979 5.948 C 6.24976 5.04952 6.24974 4.3003 6.32971 3.70552 C 6.41411 3.07773 6.59978 2.51093 7.05525 2.05546 C 7.51072 1.59999 8.07752 1.41432 8.70532 1.32991 C 9.3001 1.24995 10.0493 1.24997 10.9478 1.25 Z M 7.74979 6.46317 L 10.2046 5.12465 C 11.3236 4.51446 12.676 4.51446 13.795 5.12465 L 16.2498 6.46317 V 6 C 16.2498 5.03599 16.2482 4.38843 16.1833 3.90539 C 16.1212 3.44393 16.014 3.24644 15.8837 3.11612 C 15.7534 2.9858 15.5559 2.87858 15.0944 2.81654 C 14.6114 2.7516 13.9638 2.75 12.9998 2.75 H 10.9998 C 10.0358 2.75 9.38822 2.7516 8.90519 2.81654 C 8.44373 2.87858 8.24623 2.9858 8.11591 3.11612 C 7.98559 3.24644 7.87837 3.44393 7.81633 3.90539 C 7.75139 4.38843 7.74979 5.03599 7.74979 6 V 6.46317 Z M 13.0769 6.44159 C 12.4055 6.07548 11.5941 6.07548 10.9227 6.44159 L 6.12842 9.05577 C 5.40543 9.45 4.95557 10.2077 4.95557 11.0312 V 15.9688 C 4.95557 16.7923 5.40543 17.55 6.12842 17.9442 L 10.9227 20.5584 C 11.5941 20.9245 12.4055 20.9245 13.0769 20.5584 L 17.8712 17.9442 C 18.5942 17.55 19.044 16.7923 19.044 15.9688 V 11.0312 C 19.044 10.2077 18.5942 9.45 17.8712 9.05577 L 13.0769 6.44159 Z M 11.9998 11.5346 C 11.9417 11.6353 11.877 11.7512 11.8008 11.8878 L 11.7025 12.0642 C 11.6956 12.0767 11.6882 12.0903 11.6802 12.1048 C 11.6017 12.2484 11.4716 12.4863 11.2548 12.6509 C 11.0334 12.8189 10.7671 12.8767 10.6114 12.9106 C 10.5958 12.9139 10.5813 12.9171 10.5681 12.9201 L 10.3772 12.9633 C 10.202 13.0029 10.0593 13.0353 9.93729 13.0659 C 10.0167 13.1636 10.1197 13.2849 10.2538 13.4417 L 10.384 13.5939 C 10.3932 13.6047 10.4032 13.6162 10.4139 13.6286 C 10.5219 13.7529 10.6961 13.9536 10.7767 14.2128 C 10.8564 14.4688 10.8289 14.7326 10.8116 14.899 C 10.8098 14.9156 10.8082 14.9312 10.8068 14.9458 L 10.7871 15.1488 C 10.7689 15.3371 10.7547 15.4873 10.7452 15.6095 C 10.8495 15.5636 10.968 15.5091 11.1088 15.4443 L 11.2876 15.362 C 11.2999 15.3563 11.3134 15.3499 11.3279 15.3431 C 11.4714 15.2754 11.7211 15.1576 11.9998 15.1576 C 12.2785 15.1576 12.5282 15.2754 12.6717 15.3431 C 12.6862 15.3499 12.6997 15.3563 12.712 15.362 L 12.8908 15.4443 C 13.0316 15.5091 13.1501 15.5636 13.2543 15.6095 C 13.2449 15.4873 13.2307 15.3371 13.2125 15.1488 L 13.1928 14.9458 C 13.1914 14.9312 13.1898 14.9156 13.188 14.899 C 13.1707 14.7326 13.1432 14.4689 13.2229 14.2128 C 13.3035 13.9536 13.4777 13.7529 13.5857 13.6286 C 13.5963 13.6162 13.6064 13.6047 13.6156 13.5939 L 13.7458 13.4417 C 13.8799 13.2849 13.9829 13.1636 14.0623 13.0659 C 13.9403 13.0353 13.7976 13.0029 13.6224 12.9633 L 13.4315 12.9201 C 13.4183 12.9171 13.4038 12.9139 13.3882 12.9106 C 13.2325 12.8767 12.9662 12.8189 12.7448 12.6509 C 12.528 12.4863 12.3979 12.2484 12.3194 12.1048 C 12.3114 12.0902 12.304 12.0767 12.2971 12.0642 L 12.1988 11.8878 C 12.1226 11.7512 12.0579 11.6353 11.9998 11.5346 Z M 11.0133 10.2998 C 11.1855 10.075 11.4981 9.75016 11.9998 9.75016 C 12.5015 9.75016 12.8141 10.075 12.9863 10.2998 C 13.1506 10.5144 13.3161 10.8114 13.4858 11.1159 C 13.4935 11.1298 13.5012 11.1436 13.5089 11.1575 L 13.6072 11.3339 C 13.63 11.3748 13.648 11.4069 13.6637 11.4345 C 13.691 11.4409 13.7228 11.4481 13.7625 11.4571 L 13.9534 11.5003 C 13.9691 11.5038 13.9847 11.5073 14.0004 11.5109 C 14.3282 11.5849 14.654 11.6586 14.904 11.7571 C 15.1802 11.8659 15.5545 12.0779 15.6987 12.5418 C 15.8405 12.9975 15.6616 13.3835 15.5054 13.6316 C 15.3609 13.8612 15.1412 14.118 14.9163 14.3809 C 14.9061 14.3928 14.8959 14.4047 14.8858 14.4166 L 14.7556 14.5688 C 14.7211 14.6091 14.6951 14.6395 14.6732 14.6658 C 14.6762 14.7022 14.6803 14.7445 14.6858 14.8011 L 14.7055 15.0041 C 14.707 15.0196 14.7085 15.0351 14.71 15.0505 C 14.7442 15.4025 14.7772 15.7426 14.7651 16.0146 C 14.7524 16.2999 14.6839 16.7317 14.2967 17.0256 C 13.8973 17.3288 13.4562 17.2627 13.1765 17.1826 C 12.9188 17.1087 12.6142 16.9684 12.3075 16.8271 C 12.2928 16.8203 12.2781 16.8135 12.2634 16.8068 L 12.0847 16.7245 C 12.0512 16.7091 12.0237 16.6964 11.9998 16.6856 C 11.9758 16.6964 11.9484 16.7091 11.9149 16.7245 L 11.7362 16.8068 C 11.7215 16.8135 11.7068 16.8203 11.6921 16.8271 C 11.3854 16.9684 11.0808 17.1087 10.8231 17.1826 C 10.5434 17.2627 10.1023 17.3288 9.70286 17.0256 C 9.31569 16.7317 9.24723 16.2999 9.23452 16.0146 C 9.2224 15.7426 9.25543 15.4025 9.28961 15.0506 C 9.29111 15.0351 9.29261 15.0196 9.29411 15.0041 L 9.31379 14.8011 C 9.31927 14.7445 9.32336 14.7022 9.32634 14.6658 C 9.30445 14.6395 9.27846 14.6091 9.24397 14.5688 L 9.11383 14.4166 C 9.10364 14.4047 9.09347 14.3928 9.0833 14.3809 C 8.85839 14.118 8.6387 13.8612 8.49415 13.6316 C 8.33797 13.3835 8.15913 12.9975 8.30085 12.5418 C 8.44511 12.0779 8.81942 11.8659 9.09556 11.7571 C 9.34564 11.6586 9.67142 11.5849 9.99923 11.5109 C 10.0149 11.5073 10.0305 11.5038 10.0461 11.5003 L 10.237 11.4571 C 10.2768 11.4481 10.3086 11.4409 10.3359 11.4345 C 10.3516 11.4069 10.3695 11.3748 10.3923 11.3339 L 10.4907 11.1575 C 10.4984 11.1436 10.5061 11.1298 10.5138 11.1159 C 10.6835 10.8114 10.849 10.5144 11.0133 10.2998 Z" fill="#FFFFFF" />
</svg>