<svg xmlns="http://www.w3.org/2000/svg" width="24" height="24" viewBox="0 0 24 24" fill="none">
  <path fill-rule="nonzero" clip-rule="nonzero" d="M 10.948 1.25 H 13.052 C 13.9505 1.24997 14.6997 1.24995 15.2945 1.32991 C 15.9223 1.41432 16.4891 1.59999 16.9445 2.05546 C 17.4 2.51093 17.5857 3.07773 17.6701 3.70552 C 17.7501 4.30031 17.75 5.04953 17.75 5.94801 L 17.75 7.40438 C 19.5884 9.00842 20.75 11.3686 20.75 14 C 20.75 18.8325 16.8325 22.75 12 22.75 C 7.16751 22.75 3.25 18.8325 3.25 14 C 3.25 11.3686 4.4116 9.00842 6.25 7.40438 L 6.25 5.948 C 6.24997 5.04952 6.24994 4.3003 6.32991 3.70552 C 6.41432 3.07773 6.59999 2.51093 7.05546 2.05546 C 7.51093 1.59999 8.07773 1.41432 8.70552 1.32991 C 9.3003 1.24995 10.0495 1.24997 10.948 1.25 Z M 7.75 6.34965 C 9.00837 5.6491 10.4576 5.25 12 5.25 C 13.5424 5.25 14.9916 5.6491 16.25 6.34965 V 6 C 16.25 5.03599 16.2484 4.38843 16.1835 3.90539 C 16.1214 3.44393 16.0142 3.24644 15.8839 3.11612 C 15.7536 2.9858 15.5561 2.87858 15.0946 2.81654 C 14.6116 2.7516 13.964 2.75 13 2.75 H 11 C 10.036 2.75 9.38843 2.7516 8.90539 2.81654 C 8.44393 2.87858 8.24643 2.9858 8.11612 3.11612 C 7.9858 3.24644 7.87858 3.44393 7.81653 3.90539 C 7.75159 4.38843 7.75 5.03599 7.75 6 V 6.34965 Z M 12 6.75 C 7.99594 6.75 4.75 9.99594 4.75 14 C 4.75 18.0041 7.99594 21.25 12 21.25 C 16.0041 21.25 19.25 18.0041 19.25 14 C 19.25 9.99594 16.0041 6.75 12 6.75 Z M 12 12.0345 C 11.9419 12.1351 11.8772 12.251 11.801 12.3877 L 11.7027 12.564 C 11.6958 12.5765 11.6884 12.5901 11.6804 12.6047 C 11.6019 12.7483 11.4718 12.9861 11.255 13.1507 C 11.0336 13.3188 10.7673 13.3766 10.6116 13.4104 C 10.596 13.4138 10.5815 13.4169 10.5683 13.4199 L 10.3774 13.4631 C 10.2022 13.5028 10.0595 13.5351 9.9375 13.5658 C 10.0169 13.6634 10.1199 13.7847 10.254 13.9415 L 10.3842 14.0937 C 10.3934 14.1045 10.4035 14.1161 10.4141 14.1284 C 10.5221 14.2527 10.6963 14.4535 10.7769 14.7126 C 10.8566 14.9687 10.8291 15.2324 10.8118 15.3988 C 10.81 15.4154 10.8084 15.431 10.807 15.4456 L 10.7873 15.6487 C 10.7691 15.8369 10.7549 15.9872 10.7455 16.1094 C 10.8497 16.0635 10.9682 16.0089 11.109 15.9441 L 11.2878 15.8618 C 11.3001 15.8561 11.3136 15.8498 11.3281 15.8429 C 11.4716 15.7752 11.7213 15.6575 12 15.6575 C 12.2787 15.6575 12.5284 15.7752 12.6719 15.8429 C 12.6864 15.8498 12.6999 15.8561 12.7122 15.8618 L 12.891 15.9441 C 13.0318 16.0089 13.1503 16.0635 13.2545 16.1094 C 13.2451 15.9872 13.2309 15.8369 13.2127 15.6487 L 13.193 15.4456 C 13.1916 15.4311 13.19 15.4154 13.1882 15.3988 C 13.1709 15.2324 13.1434 14.9687 13.2231 14.7126 C 13.3037 14.4535 13.4779 14.2527 13.5859 14.1284 C 13.5965 14.1161 13.6066 14.1045 13.6158 14.0937 L 13.746 13.9415 C 13.8801 13.7847 13.9831 13.6634 14.0625 13.5658 C 13.9405 13.5351 13.7978 13.5028 13.6226 13.4631 L 13.4317 13.4199 C 13.4185 13.4169 13.404 13.4138 13.3884 13.4104 C 13.2327 13.3766 12.9664 13.3188 12.745 13.1507 C 12.5282 12.9861 12.3981 12.7483 12.3196 12.6047 C 12.3116 12.5901 12.3042 12.5765 12.2973 12.564 L 12.199 12.3877 C 12.1228 12.251 12.0581 12.1351 12 12.0345 Z M 11.0135 10.7996 C 11.1857 10.5748 11.4983 10.25 12 10.25 C 12.5017 10.25 12.8143 10.5748 12.9865 10.7996 C 13.1508 11.0142 13.3163 11.3112 13.486 11.6158 C 13.4937 11.6296 13.5014 11.6435 13.5091 11.6573 L 13.6075 11.8337 C 13.6303 11.8746 13.6482 11.9068 13.6639 11.9343 C 13.6912 11.9407 13.723 11.9479 13.7627 11.9569 L 13.9536 12.0001 C 13.9693 12.0036 13.9849 12.0072 14.0006 12.0107 C 14.3284 12.0848 14.6542 12.1584 14.9042 12.257 C 15.1804 12.3658 15.5547 12.5777 15.6989 13.0416 C 15.8407 13.4973 15.6618 13.8834 15.5056 14.1315 C 15.3611 14.3611 15.1414 14.6179 14.9165 14.8808 C 14.9063 14.8926 14.8961 14.9045 14.886 14.9164 L 14.7558 15.0686 C 14.7213 15.1089 14.6953 15.1394 14.6735 15.1657 C 14.6764 15.202 14.6805 15.2443 14.686 15.3009 L 14.7057 15.504 C 14.7072 15.5195 14.7087 15.5349 14.7102 15.5504 C 14.7444 15.9023 14.7774 16.2424 14.7653 16.5145 C 14.7526 16.7997 14.6841 17.2315 14.2969 17.5254 C 13.8975 17.8286 13.4564 17.7626 13.1767 17.6824 C 12.9189 17.6086 12.6144 17.4682 12.3077 17.3269 C 12.293 17.3201 12.2783 17.3134 12.2636 17.3066 L 12.0849 17.2243 C 12.0514 17.2089 12.024 17.1963 12 17.1854 C 11.976 17.1963 11.9486 17.2089 11.9151 17.2243 L 11.7364 17.3066 C 11.7217 17.3134 11.707 17.3201 11.6923 17.3269 C 11.3856 17.4682 11.081 17.6086 10.8233 17.6824 C 10.5436 17.7626 10.1025 17.8286 9.70306 17.5254 C 9.31589 17.2315 9.24743 16.7997 9.23473 16.5145 C 9.22261 16.2424 9.25563 15.9023 9.28981 15.5504 C 9.29131 15.5349 9.29281 15.5195 9.29432 15.504 L 9.31399 15.3009 C 9.31948 15.2443 9.32356 15.202 9.32655 15.1657 C 9.30465 15.1394 9.27866 15.1089 9.24418 15.0686 L 9.11403 14.9164 C 9.10385 14.9045 9.09367 14.8926 9.08351 14.8807 C 8.85859 14.6179 8.63891 14.3611 8.49436 14.1315 C 8.33817 13.8834 8.15934 13.4973 8.30105 13.0416 C 8.44532 12.5777 8.81962 12.3658 9.09576 12.257 C 9.34584 12.1584 9.67163 12.0848 9.99943 12.0107 C 10.0151 12.0072 10.0307 12.0036 10.0463 12.0001 L 10.2373 11.9569 C 10.277 11.9479 10.3088 11.9407 10.3361 11.9343 C 10.3518 11.9068 10.3697 11.8746 10.3925 11.8337 L 10.4909 11.6573 C 10.4986 11.6435 10.5063 11.6296 10.514 11.6158 C 10.6837 11.3112 10.8492 11.0142 11.0135 10.7996 Z" fill="#FFFFFF" />
</svg>