<svg xmlns="http://www.w3.org/2000/svg" width="24" height="24" viewBox="0 0 24 24" fill="none">
  <path opacity="0.5" d="M13 2H11C9.11438 2 8.17157 2 7.58579 2.58579C7 3.17157 7 4.11438 7 6V8V10H17V8V6C17 4.11438 17 3.17157 16.4142 2.58579C15.8284 2 14.8856 2 13 2Z" fill="#FFFFFF" />
  <path fill-rule="nonzero" clip-rule="nonzero" d="M12 22 C7.58172 22 4 18.4183 4 14 C4 9.58172 7.58172 6 12 6 C16.4183 6 20 9.58172 20 14 C20 18.4183 16.4183 22 12 22 Z M 12 11 C 11.7159 11 11.5259 11.3408 11.1459 12.0225 L 11.0476 12.1989 C 10.9397 12.3926 10.8857 12.4894 10.8015 12.5533 C 10.7173 12.6172 10.6125 12.641 10.4028 12.6884 L 10.2119 12.7316 C 9.47396 12.8986 9.10501 12.982 9.01723 13.2643 C 8.92945 13.5466 9.18097 13.8407 9.68403 14.429 L 9.81418 14.5812 C 9.95713 14.7483 10.0286 14.8319 10.0608 14.9353 C 10.0929 15.0387 10.0821 15.1502 10.0605 15.3733 L 10.0408 15.5763 C 9.96476 16.3612 9.92674 16.7536 10.1565 16.9281 C 10.3864 17.1025 10.7318 16.9435 11.4227 16.6254 L 11.6014 16.5431 C 11.7978 16.4527 11.8959 16.4075 12 16.4075 C 12.1041 16.4075 12.2022 16.4527 12.3986 16.5431 L 12.5773 16.6254 C 13.2682 16.9435 13.6136 17.1025 13.8435 16.9281 C 14.0733 16.7536 14.0352 16.3612 13.9592 15.5763 L 13.9395 15.3733 C 13.9179 15.1502 13.9071 15.0387 13.9392 14.9353 C 13.9714 14.8319 14.0429 14.7483 14.1858 14.5812 L 14.316 14.429 C 14.819 13.8407 15.0706 13.5466 14.9828 13.2643 C 14.895 12.982 14.526 12.8986 13.7881 12.7316 L 13.5972 12.6884 C 13.3875 12.641 13.2827 12.6172 13.1985 12.5533 C 13.1143 12.4894 13.0603 12.3926 12.9524 12.1989 L 12.8541 12.0225 C 12.4741 11.3408 12.2841 11 12 11 Z" fill="#FFFFFF" />
</svg>