<svg xmlns="http://www.w3.org/2000/svg" width="24" height="24" viewBox="0 0 24 24" fill="none">
  <path opacity="0.5" d="M12.7949 2H10.7949C8.9093 2 7.96649 2 7.38071 2.58579C6.79492 3.17157 6.79492 4.11438 6.79492 6V8V9.5H16.7949V8V6C16.7949 4.11438 16.7949 3.17157 16.2091 2.58579C15.6233 2 14.6805 2 12.7949 2Z" fill="#FFFFFF" />
  <path fill-rule="nonzero" clip-rule="nonzero" d="M13.2304 5.78311 L18.0246 8.39728 C18.9886 8.92292 19.5885 9.93319 19.5885 11.0312 L19.5885 15.9688 C19.5885 17.0668 18.9886 18.0771 18.0246 18.6027 L13.2304 21.2169 C12.3352 21.705 11.2533 21.705 10.358 21.2169 L5.56381 18.6027 C4.59982 18.0771 4 17.0668 4 15.9688 L4 11.0312 C4 9.93319 4.59982 8.92292 5.56381 8.39728 L10.358 5.78311 C11.2533 5.29495 12.3352 5.29495 13.2304 5.78311 Z M 11.7944 10.5 C 11.5104 10.5 11.3204 10.8408 10.9404 11.5225 L 10.8421 11.6989 C 10.7341 11.8926 10.6801 11.9894 10.5959 12.0533 C 10.5117 12.1172 10.4069 12.141 10.1972 12.1884 L 10.0063 12.2316 C 9.26839 12.3986 8.89944 12.482 8.81166 12.7643 C 8.72388 13.0466 8.97541 13.3407 9.47846 13.929 L 9.60861 14.0812 C 9.75156 14.2483 9.82304 14.3319 9.85519 14.4353 C 9.88735 14.5387 9.87654 14.6502 9.85493 14.8733 L 9.83525 15.0763 C 9.7592 15.8612 9.72117 16.2536 9.95098 16.4281 C 10.1808 16.6025 10.5262 16.4435 11.2171 16.1254 L 11.3959 16.0431 C 11.5922 15.9527 11.6904 15.9075 11.7944 15.9075 C 11.8985 15.9075 11.9967 15.9527 12.193 16.0431 L 12.3717 16.1254 C 13.0626 16.4435 13.4081 16.6025 13.6379 16.4281 C 13.8677 16.2536 13.8297 15.8612 13.7536 15.0763 L 13.7339 14.8733 C 13.7123 14.6502 13.7015 14.5387 13.7337 14.4353 C 13.7658 14.3319 13.8373 14.2483 13.9802 14.0812 L 14.1104 13.929 C 14.6135 13.3407 14.865 13.0466 14.7772 12.7643 C 14.6894 12.482 14.3205 12.3986 13.5826 12.2316 L 13.3917 12.1884 C 13.182 12.141 13.0771 12.1172 12.993 12.0533 C 12.9088 11.9894 12.8548 11.8926 12.7468 11.6989 L 12.6485 11.5225 C 12.2685 10.8408 12.0785 10.5 11.7944 10.5 Z" fill="#FFFFFF" />
</svg>