<svg xmlns="http://www.w3.org/2000/svg" width="24" height="24" viewBox="0 0 24 24" fill="none">
  <path fill-rule="nonzero" clip-rule="nonzero" d="M 10.948 1.25 H 13.052 C 13.9505 1.24997 14.6997 1.24995 15.2945 1.32991 C 15.9223 1.41432 16.4891 1.59999 16.9445 2.05546 C 17.4 2.51093 17.5857 3.07773 17.6701 3.70552 C 17.734 4.18061 17.7468 4.75423 17.7494 5.42375 C 18.4941 5.5639 19.1312 5.8279 19.6517 6.34835 C 20.2536 6.95027 20.5125 7.70814 20.6335 8.60825 C 20.75 9.47522 20.75 10.5775 20.75 11.9451 V 13.0962 C 20.75 14.2647 20.75 15.1991 20.6714 15.96 C 20.59 16.747 20.4197 17.4117 20.0406 18.0251 C 19.6615 18.6385 19.1431 19.0881 18.4756 19.5128 C 17.8303 19.9234 16.9945 20.3413 15.9493 20.8639 L 15.9131 20.882 C 15.8561 20.9105 15.7998 20.9387 15.7441 20.9665 C 14.153 21.7628 13.1236 22.2779 12 22.2779 C 10.8764 22.2779 9.84703 21.7628 8.25588 20.9665 C 8.20024 20.9387 8.14392 20.9105 8.08688 20.882 L 8.05069 20.8639 C 7.00554 20.3413 6.16974 19.9234 5.52437 19.5128 C 4.85691 19.0881 4.33853 18.6385 3.95941 18.0251 C 3.58029 17.4117 3.41002 16.747 3.32865 15.96 C 3.24998 15.1991 3.24999 14.2647 3.25 13.0962 L 3.25 11.9451 C 3.24998 10.5775 3.24996 9.47522 3.36652 8.60825 C 3.48754 7.70814 3.74643 6.95027 4.34835 6.34835 C 4.8688 5.8279 5.50586 5.5639 6.25063 5.42375 C 6.2532 4.75423 6.26604 4.18061 6.32991 3.70552 C 6.41432 3.07773 6.59999 2.51093 7.05546 2.05546 C 7.51093 1.59999 8.07773 1.41432 8.70552 1.32991 C 9.3003 1.24995 10.0495 1.24997 10.948 1.25 Z M 7.75163 5.27562 C 8.39049 5.24998 9.11946 5.24999 9.94512 5.25 H 14.0549 C 14.8805 5.24999 15.6095 5.24998 16.2484 5.27562 C 16.2444 4.69342 16.2306 4.25606 16.1835 3.90539 C 16.1214 3.44393 16.0142 3.24644 15.8839 3.11612 C 15.7536 2.9858 15.5561 2.87858 15.0946 2.81654 C 14.6116 2.7516 13.964 2.75 13 2.75 H 11 C 10.036 2.75 9.38843 2.7516 8.90539 2.81654 C 8.44393 2.87858 8.24643 2.9858 8.11612 3.11612 C 7.9858 3.24644 7.87858 3.44393 7.81654 3.90539 C 7.76939 4.25606 7.75563 4.69342 7.75163 5.27562 Z M 6.80812 6.85315 C 6.07435 6.9518 5.68577 7.13225 5.40901 7.40901 C 5.13225 7.68578 4.9518 8.07435 4.85315 8.80812 C 4.75159 9.56347 4.75 10.5646 4.75 12 V 13.0557 C 4.75 14.2739 4.75093 15.1309 4.8207 15.8058 C 4.88868 16.4633 5.01711 16.8833 5.23539 17.2365 C 5.45367 17.5897 5.7719 17.8924 6.32962 18.2472 C 6.902 18.6114 7.6681 18.9955 8.7577 19.5403 C 10.5807 20.4518 11.2744 20.7779 12 20.7779 C 12.7256 20.7779 13.4193 20.4518 15.2423 19.5403 C 16.3319 18.9955 17.098 18.6114 17.6704 18.2472 C 18.2281 17.8924 18.5463 17.5897 18.7646 17.2365 C 18.9829 16.8833 19.1113 16.4633 19.1793 15.8058 C 19.2491 15.1309 19.25 14.2739 19.25 13.0557 V 12 C 19.25 10.5646 19.2484 9.56347 19.1469 8.80812 C 19.0482 8.07435 18.8678 7.68578 18.591 7.40901 C 18.3142 7.13225 17.9257 6.9518 17.1919 6.85315 C 16.4365 6.7516 15.4354 6.75 14 6.75 H 10 C 8.56459 6.75 7.56347 6.7516 6.80812 6.85315 Z M 12 11.0345 C 11.9419 11.1351 11.8772 11.251 11.801 11.3877 L 11.7027 11.564 C 11.6958 11.5765 11.6884 11.5901 11.6804 11.6047 C 11.6019 11.7483 11.4718 11.9861 11.255 12.1507 C 11.0336 12.3188 10.7673 12.3766 10.6116 12.4104 C 10.596 12.4138 10.5815 12.4169 10.5683 12.4199 L 10.3774 12.4631 C 10.2022 12.5028 10.0595 12.5351 9.9375 12.5658 C 10.0169 12.6634 10.1199 12.7847 10.254 12.9415 L 10.3842 13.0937 C 10.3934 13.1045 10.4035 13.1161 10.4141 13.1284 C 10.5221 13.2527 10.6963 13.4535 10.7769 13.7126 C 10.8566 13.9687 10.8291 14.2324 10.8118 14.3988 C 10.81 14.4154 10.8084 14.431 10.807 14.4456 L 10.7873 14.6487 C 10.7691 14.8369 10.7549 14.9872 10.7455 15.1094 C 10.8497 15.0635 10.9682 15.0089 11.109 14.9441 L 11.2878 14.8618 C 11.3001 14.8561 11.3136 14.8498 11.3281 14.8429 C 11.4716 14.7752 11.7213 14.6575 12 14.6575 C 12.2787 14.6575 12.5284 14.7752 12.6719 14.8429 C 12.6864 14.8498 12.6999 14.8561 12.7122 14.8618 L 12.891 14.9441 C 13.0318 15.0089 13.1503 15.0635 13.2545 15.1094 C 13.2451 14.9872 13.2309 14.8369 13.2127 14.6487 L 13.193 14.4456 C 13.1916 14.4311 13.19 14.4154 13.1882 14.3988 C 13.1709 14.2324 13.1434 13.9687 13.2231 13.7126 C 13.3037 13.4535 13.4779 13.2527 13.5859 13.1284 C 13.5966 13.1161 13.6066 13.1045 13.6158 13.0937 L 13.746 12.9415 C 13.8801 12.7847 13.9831 12.6634 14.0625 12.5658 C 13.9405 12.5351 13.7978 12.5028 13.6226 12.4631 L 13.4317 12.4199 C 13.4185 12.4169 13.404 12.4138 13.3884 12.4104 C 13.2327 12.3766 12.9664 12.3188 12.745 12.1507 C 12.5282 11.9861 12.3981 11.7483 12.3196 11.6047 C 12.3116 11.5901 12.3042 11.5765 12.2973 11.564 L 12.199 11.3877 C 12.1228 11.251 12.0581 11.1351 12 11.0345 Z M 11.0135 9.79963 C 11.1857 9.57481 11.4983 9.25 12 9.25 C 12.5017 9.25 12.8143 9.57481 12.9865 9.79963 C 13.1508 10.0142 13.3163 10.3112 13.486 10.6158 C 13.4937 10.6296 13.5014 10.6435 13.5091 10.6573 L 13.6075 10.8337 C 13.6303 10.8746 13.6482 10.9068 13.6639 10.9343 C 13.6912 10.9407 13.723 10.9479 13.7627 10.9569 L 13.9536 11.0001 C 13.9693 11.0036 13.9849 11.0072 14.0006 11.0107 C 14.3284 11.0848 14.6542 11.1584 14.9042 11.257 C 15.1804 11.3658 15.5547 11.5777 15.6989 12.0416 C 15.8407 12.4973 15.6618 12.8834 15.5056 13.1315 C 15.3611 13.3611 15.1414 13.6179 14.9165 13.8808 C 14.9063 13.8926 14.8961 13.9045 14.886 13.9164 L 14.7558 14.0686 C 14.7213 14.1089 14.6954 14.1394 14.6735 14.1657 C 14.6764 14.202 14.6805 14.2443 14.686 14.3009 L 14.7057 14.504 C 14.7072 14.5195 14.7087 14.5349 14.7102 14.5504 C 14.7444 14.9023 14.7774 15.2424 14.7653 15.5145 C 14.7526 15.7997 14.6841 16.2315 14.2969 16.5254 C 13.8975 16.8286 13.4564 16.7626 13.1767 16.6824 C 12.9189 16.6086 12.6144 16.4682 12.3077 16.3269 C 12.293 16.3201 12.2783 16.3134 12.2636 16.3066 L 12.0849 16.2243 C 12.0514 16.2089 12.024 16.1963 12 16.1854 C 11.976 16.1963 11.9486 16.2089 11.9151 16.2243 L 11.7364 16.3066 C 11.7217 16.3134 11.707 16.3201 11.6923 16.3269 C 11.3856 16.4682 11.081 16.6086 10.8233 16.6824 C 10.5436 16.7626 10.1025 16.8286 9.70306 16.5254 C 9.3159 16.2315 9.24743 15.7997 9.23473 15.5145 C 9.22261 15.2424 9.25564 14.9023 9.28981 14.5504 C 9.29131 14.5349 9.29282 14.5195 9.29432 14.504 L 9.31399 14.3009 C 9.31948 14.2443 9.32356 14.202 9.32655 14.1657 C 9.30465 14.1394 9.27866 14.1089 9.24418 14.0686 L 9.11403 13.9164 C 9.10385 13.9045 9.09367 13.8926 9.08351 13.8807 C 8.85859 13.6179 8.63891 13.3611 8.49436 13.1315 C 8.33817 12.8834 8.15934 12.4973 8.30106 12.0416 C 8.44532 11.5777 8.81962 11.3658 9.09576 11.257 C 9.34584 11.1584 9.67163 11.0848 9.99943 11.0107 C 10.0151 11.0072 10.0307 11.0036 10.0464 11.0001 L 10.2373 10.9569 C 10.277 10.9479 10.3088 10.9407 10.3361 10.9343 C 10.3518 10.9068 10.3697 10.8746 10.3925 10.8337 L 10.4909 10.6573 C 10.4986 10.6435 10.5063 10.6296 10.514 10.6158 C 10.6837 10.3112 10.8492 10.0142 11.0135 9.79963 Z" fill="#FFFFFF" />
</svg>