<svg xmlns="http://www.w3.org/2000/svg" width="24" height="24" viewBox="0 0 24 24" fill="none">
  <path fill-rule="nonzero" clip-rule="nonzero" d="M 11.292 3.30809 C 10.8982 3.82224 10.4538 4.61551 9.80827 5.77355 L 9.48057 6.36141 C 9.46082 6.39684 9.44132 6.43194 9.42201 6.4667 C 9.12127 7.0079 8.86745 7.46469 8.45844 7.77518 C 8.04503 8.08901 7.54106 8.20227 6.95535 8.3339 C 6.91771 8.34235 6.87973 8.35089 6.84141 8.35956 L 6.20506 8.50354 C 4.94974 8.78757 4.09576 8.98299 3.51082 9.21351 C 2.94002 9.43845 2.81953 9.62275 2.77361 9.77044 C 2.72514 9.9263 2.7237 10.1647 3.06494 10.7068 C 3.41129 11.257 3.99558 11.9432 4.85011 12.9425 L 5.28393 13.4498 C 5.30914 13.4793 5.33413 13.5084 5.35886 13.5373 C 5.76188 14.0074 6.09791 14.3993 6.25205 14.895 C 6.40526 15.3877 6.35448 15.9054 6.29291 16.5331 C 6.28913 16.5716 6.28532 16.6105 6.2815 16.6499 L 6.21591 17.3267 C 6.08682 18.6589 5.99978 19.5762 6.02922 20.2369 C 6.05859 20.8965 6.1979 21.0788 6.30865 21.1628 C 6.40716 21.2376 6.58925 21.3204 7.18248 21.1504 C 7.78535 20.9777 8.58659 20.6111 9.76202 20.0699 L 10.3578 19.7956 C 10.3945 19.7787 10.4309 19.7619 10.4669 19.7452 C 11.0117 19.4934 11.4843 19.2748 12 19.2748 C 12.5157 19.2748 12.9883 19.4934 13.5331 19.7452 C 13.5692 19.7619 13.6055 19.7787 13.6422 19.7956 L 14.238 20.0699 C 15.4134 20.6111 16.2147 20.9777 16.8176 21.1504 C 17.4108 21.3204 17.5929 21.2376 17.6914 21.1628 C 17.8021 21.0788 17.9414 20.8965 17.9708 20.2369 C 18.0002 19.5762 17.9132 18.6589 17.7841 17.3267 L 17.7185 16.6499 C 17.7147 16.6105 17.7109 16.5716 17.7071 16.5331 C 17.6456 15.9054 17.5948 15.3877 17.748 14.895 C 17.9021 14.3993 18.2382 14.0074 18.6412 13.5372 C 18.6659 13.5084 18.6909 13.4793 18.7161 13.4498 L 19.1499 12.9425 C 20.0044 11.9432 20.5887 11.257 20.9351 10.7068 C 21.2763 10.1647 21.2749 9.9263 21.2264 9.77044 C 21.1805 9.62275 21.06 9.43845 20.4892 9.21351 C 19.9043 8.98299 19.0503 8.78757 17.795 8.50354 L 17.1586 8.35956 C 17.1203 8.35089 17.0823 8.34235 17.0447 8.33389 C 16.459 8.20227 15.955 8.08901 15.5416 7.77518 C 15.1326 7.46469 14.8788 7.0079 14.578 6.4667 C 14.5587 6.43194 14.5392 6.39684 14.5195 6.36141 L 14.1918 5.77355 C 13.5462 4.61551 13.1018 3.82224 12.7081 3.30809 C 12.3147 2.79443 12.1138 2.75 12 2.75 C 11.8863 2.75 11.6853 2.79443 11.292 3.30809 Z M 10.1011 2.3961 C 10.5777 1.77363 11.1669 1.25 12 1.25 C 12.8331 1.25 13.4223 1.77363 13.899 2.3961 C 14.3674 3.00773 14.864 3.89876 15.471 4.98776 L 15.8296 5.63106 C 16.2222 6.33523 16.3226 6.48482 16.4486 6.58044 C 16.5698 6.67247 16.7262 6.7238 17.4896 6.89654 L 18.1897 7.05492 C 19.3653 7.32088 20.3338 7.53999 21.0392 7.81796 C 21.7714 8.10651 22.4121 8.5318 22.6588 9.32502 C 22.9029 10.1101 22.6285 10.8323 22.2045 11.5059 C 21.7925 12.1604 21.1344 12.9298 20.3306 13.8698 L 19.8561 14.4247 C 19.3391 15.0292 19.2311 15.1772 19.1803 15.3404 C 19.1286 15.5069 19.1334 15.6992 19.2115 16.5052 L 19.2831 17.2433 C 19.4048 18.4994 19.5041 19.5236 19.4693 20.3037 C 19.434 21.0977 19.2536 21.8601 18.5984 22.3576 C 17.9308 22.8643 17.1542 22.8072 16.4044 22.5924 C 15.6774 22.3841 14.7711 21.9667 13.6705 21.46 L 13.0149 21.1581 C 12.2975 20.8278 12.1439 20.7748 12 20.7748 C 11.8561 20.7748 11.7025 20.8278 10.9852 21.1581 L 10.3295 21.46 C 9.22898 21.9667 8.32265 22.3841 7.59565 22.5924 C 6.84587 22.8072 6.0692 22.8643 5.40168 22.3576 C 4.7464 21.8601 4.56607 21.0977 4.5307 20.3037 C 4.49595 19.5236 4.59523 18.4993 4.71697 17.2433 L 4.7885 16.5052 C 4.8666 15.6992 4.87147 15.5069 4.81971 15.3404 C 4.76894 15.1772 4.66094 15.0292 4.14393 14.4247 L 3.66945 13.8698 C 2.8656 12.9299 2.20753 12.1604 1.79553 11.5059 C 1.37149 10.8323 1.09714 10.1101 1.34127 9.32502 C 1.58794 8.5318 2.22867 8.10651 2.96086 7.81796 C 3.66622 7.53999 4.63474 7.32088 5.81038 7.05492 L 5.87404 7.04052 L 6.51039 6.89654 C 7.27382 6.72381 7.43023 6.67247 7.55148 6.58044 C 7.67743 6.48482 7.77785 6.33523 8.17039 5.63106 L 8.52899 4.98775 C 9.13601 3.89876 9.63268 3.00773 10.1011 2.3961 Z" fill="#FFFFFF" />
</svg>