<svg xmlns="http://www.w3.org/2000/svg" width="24" height="24" viewBox="0 0 24 24" fill="none">
  <path fill-rule="nonzero" clip-rule="nonzero" d="M3.46447 3.46447 C4.92893 2 7.28595 2 12 2 C16.714 2 19.0711 2 20.5355 3.46447 C22 4.92893 22 7.28595 22 12 C22 16.714 22 19.0711 20.5355 20.5355 C19.0711 22 16.714 22 12 22 C7.28595 22 4.92893 22 3.46447 20.5355 C2 19.0711 2 16.714 2 12 C2 7.28595 2 4.92893 3.46447 3.46447 Z M17 12.25 C16.5858 12.25 16.25 12.5858 16.25 13 L16.25 18 C16.25 18.4142 16.5858 18.75 17 18.75 C17.4142 18.75 17.75 18.4142 17.75 18 L17.75 13 C17.75 12.5858 17.4142 12.25 17 12.25 Z M 12.75 6 C 12.75 5.58579 12.4142 5.25 12 5.25 C 11.5858 5.25 11.25 5.58579 11.25 6 V 18 C 11.25 18.4142 11.5858 18.75 12 18.75 C 12.4142 18.75 12.75 18.4142 12.75 18 V 6 Z M7 8.25 C6.58579 8.25 6.25 8.58579 6.25 9 L6.25 18 C6.25 18.4142 6.58579 18.75 7 18.75 C7.41421 18.75 7.75 18.4142 7.75 18 L7.75 9 C7.75 8.58579 7.41421 8.25 7 8.25 Z" fill="#FFFFFF" />
</svg>