<svg xmlns="http://www.w3.org/2000/svg" width="24" height="24" viewBox="0 0 24 24" fill="none">
  <path fill-rule="nonzero" clip-rule="nonzero" d="M12.0494 1.25 C12.7142 1.24997 13.2871 1.24994 13.7458 1.31161 C14.2375 1.37771 14.7087 1.52677 15.091 1.90902 C15.4732 2.29126 15.6223 2.76252 15.6884 3.25416 C15.7501 3.71291 15.75 4.28577 15.75 4.95064 L15.75 12.378 C15.9846 12.2951 16.237 12.25 16.5 12.25 L19.5 12.25 C20.7426 12.25 21.75 13.2574 21.75 14.5 L21.75 21.25 L22 21.25 C22.4142 21.25 22.75 21.5858 22.75 22 C22.75 22.4142 22.4142 22.75 22 22.75 L2 22.75 C1.58579 22.75 1.25 22.4142 1.25 22 C1.25 21.5858 1.58579 21.25 2 21.25 L2.25 21.25 L2.25 9.50001 C2.25 8.25737 3.25736 7.25001 4.5 7.25001 L7.5 7.25001 C7.76298 7.25001 8.01542 7.29512 8.25 7.37804 L8.25 4.95063 C8.24996 4.28577 8.24993 3.7129 8.31161 3.25416 C8.3777 2.76252 8.52676 2.29126 8.90901 1.90901 C9.29126 1.52677 9.76252 1.37771 10.2542 1.31161 C10.7129 1.24994 11.2858 1.24997 11.9506 1.25 L12.0494 1.25 Z M 20.25 21.25 V 14.5 C 20.25 14.0858 19.9142 13.75 19.5 13.75 H 16.5 C 16.0858 13.75 15.75 14.0858 15.75 14.5 V 21.25 H 20.25 Z M 14.25 21.25 V 5.00001 C 14.25 4.2717 14.2484 3.80091 14.2018 3.45403 C 14.158 3.12873 14.0874 3.02677 14.0303 2.96967 C 13.9732 2.91258 13.8713 2.84197 13.546 2.79823 C 13.1991 2.7516 12.7283 2.75001 12 2.75001 C 11.2717 2.75001 10.8009 2.7516 10.454 2.79823 C 10.1287 2.84197 10.0268 2.91258 9.96967 2.96968 C 9.91258 3.02677 9.84197 3.12873 9.79823 3.45403 C 9.75159 3.80091 9.75 4.2717 9.75 5.00001 V 21.25 H 14.25 Z M 8.25 21.25 V 9.50001 C 8.25 9.08579 7.91421 8.75001 7.5 8.75001 H 4.5 C 4.08579 8.75001 3.75 9.08579 3.75 9.50001 V 21.25 H 8.25 Z" fill="#FFFFFF" />
</svg>