<svg xmlns="http://www.w3.org/2000/svg" width="24" height="24" viewBox="0 0 24 24" fill="none">
  <path d="M22 5C22 6.65685 20.6569 8 19 8C17.3431 8 16 6.65685 16 5C16 3.34315 17.3431 2 19 2C20.6569 2 22 3.34315 22 5Z" fill="#FFFFFF" />
  <path fill-rule="nonzero" clip-rule="nonzero" d="M 12 2 C 13.3988 2 14.59 2 15.612 2.03826 C 14.9196 2.82967 14.5 3.86584 14.5 5 C 14.5 7.48528 16.5147 9.5 19 9.5 C 20.1342 9.5 21.1703 9.08042 21.9617 8.38802 C 22 9.41 22 10.6012 22 12 C 22 16.714 22 19.0711 20.5355 20.5355 C 19.0711 22 16.714 22 12 22 C 7.28595 22 4.92893 22 3.46447 20.5355 C 2 19.0711 2 16.714 2 12 C 2 7.28595 2 4.92893 3.46447 3.46447 C 4.92893 2 7.28595 2 12 2 Z M14.5 10.75 L15.1893 10.75 L13.1768 12.7626 C13.0791 12.8602 12.9209 12.8602 12.8232 12.7626 L11.2374 11.1768 C10.554 10.4934 9.44598 10.4934 8.76256 11.1768 L6.46967 13.4697 C6.17678 13.7626 6.17678 14.2374 6.46967 14.5303 C6.76256 14.8232 7.23744 14.8232 7.53033 14.5303 L9.82322 12.2374 C9.92085 12.1398 10.0791 12.1398 10.1768 12.2374 L11.7626 13.8232 C12.446 14.5066 13.554 14.5066 14.2374 13.8232 L16.25 11.8107 L16.25 12.5 C16.25 12.9142 16.5858 13.25 17 13.25 C17.4142 13.25 17.75 12.9142 17.75 12.5 L17.75 10 C17.75 9.58579 17.4142 9.25 17 9.25 L14.5 9.25 C14.0858 9.25 13.75 9.58579 13.75 10 C13.75 10.4142 14.0858 10.75 14.5 10.75 Z" fill="#FFFFFF" />
</svg>