<svg xmlns="http://www.w3.org/2000/svg" width="24" height="24" viewBox="0 0 24 24" fill="none">
  <path fill-rule="nonzero" clip-rule="nonzero" d="M3.46447 3.46447 C4.92893 2 7.28595 2 12 2 C16.714 2 19.0711 2 20.5355 3.46447 C22 4.92893 22 7.28595 22 12 C22 16.714 22 19.0711 20.5355 20.5355 C19.0711 22 16.714 22 12 22 C7.28595 22 4.92893 22 3.46447 20.5355 C2 19.0711 2 16.714 2 12 C2 7.28595 2 4.92893 3.46447 3.46447 Z M 17.5762 10.4801 C 17.8413 10.1619 17.7983 9.68901 17.4801 9.42383 C 17.1619 9.15866 16.689 9.20165 16.4238 9.51986 L 14.6269 11.6761 C 14.2562 12.1211 14.0284 12.3915 13.8409 12.5609 C 13.7539 12.6394 13.7023 12.6708 13.6775 12.6827 C 13.6725 12.6852 13.6689 12.6866 13.6667 12.6875 C 13.6667 12.6875 13.6624 12.6858 13.659 12.6842 L 13.6558 12.6827 C 13.6311 12.6708 13.5795 12.6394 13.4925 12.5609 C 13.3049 12.3915 13.0772 12.1211 12.7064 11.6761 L 12.414 11.3252 C 12.0855 10.931 11.7894 10.5756 11.5128 10.3258 C 11.2119 10.0541 10.8328 9.81205 10.3333 9.81205 C 9.83384 9.81205 9.45478 10.0541 9.15384 10.3258 C 8.87725 10.5756 8.58113 10.931 8.25267 11.3253 L 6.42383 13.5199 C 6.15866 13.8381 6.20165 14.311 6.51986 14.5762 C 6.83807 14.8413 7.31099 14.7983 7.57617 14.4801 L 9.37306 12.3239 C 9.74385 11.8789 9.97155 11.6085 10.1591 11.4391 C 10.2461 11.3606 10.2977 11.3292 10.3225 11.3173 C 10.3251 11.316 10.3274 11.315 10.3292 11.3142 L 10.3333 11.3125 C 10.3356 11.3134 10.3392 11.3148 10.3442 11.3173 C 10.3689 11.3292 10.4205 11.3606 10.5075 11.4391 C 10.6951 11.6085 10.9228 11.8789 11.2936 12.3239 L 11.586 12.6748 C 11.9145 13.069 12.2106 13.4244 12.4872 13.6742 C 12.7881 13.9459 13.1672 14.188 13.6667 14.188 C 14.1662 14.188 14.5452 13.9459 14.8462 13.6742 C 15.1228 13.4244 15.4189 13.069 15.7473 12.6748 L 17.5762 10.4801 Z" fill="#FFFFFF" />
</svg>