<svg xmlns="http://www.w3.org/2000/svg" width="24" height="24" viewBox="0 0 24 24" fill="none">
  <path fill-rule="nonzero" clip-rule="nonzero" d="M3.46447 3.46447 C4.92893 2 7.28595 2 12 2 C16.714 2 19.0711 2 20.5355 3.46447 C22 4.92893 22 7.28595 22 12 C22 16.714 22 19.0711 20.5355 20.5355 C19.0711 22 16.714 22 12 22 C7.28595 22 4.92893 22 3.46447 20.5355 C2 19.0711 2 16.714 2 12 C2 7.28595 2 4.92893 3.46447 3.46447 Z M 7.53033 9.46967 C 7.23744 9.17678 6.76256 9.17678 6.46967 9.46967 C 6.17678 9.76256 6.17678 10.2374 6.46967 10.5303 L 8.76256 12.8232 C 9.44598 13.5066 10.554 13.5066 11.2374 12.8232 L 12.8232 11.2374 C 12.9209 11.1398 13.0791 11.1398 13.1768 11.2374 L 15.1893 13.25 H 14.5 C 14.0858 13.25 13.75 13.5858 13.75 14 C 13.75 14.4142 14.0858 14.75 14.5 14.75 H 17 C 17.4142 14.75 17.75 14.4142 17.75 14 V 11.5 C 17.75 11.0858 17.4142 10.75 17 10.75 C 16.5858 10.75 16.25 11.0858 16.25 11.5 V 12.1893 L 14.2374 10.1768 C 13.554 9.49336 12.446 9.49336 11.7626 10.1768 L 10.1768 11.7626 C 10.0791 11.8602 9.92085 11.8602 9.82322 11.7626 L 7.53033 9.46967 Z" fill="#FFFFFF" />
</svg>