<svg xmlns="http://www.w3.org/2000/svg" width="24" height="24" viewBox="0 0 24 24" fill="none">
  <path d="M17.5762 10.4801C17.8413 10.1619 17.7983 9.68901 17.4801 9.42383C17.1619 9.15866 16.689 9.20165 16.4238 9.51986L14.6269 11.6761C14.2562 12.1211 14.0284 12.3915 13.8409 12.5609C13.7539 12.6394 13.7023 12.6708 13.6775 12.6827C13.6725 12.6852 13.6689 12.6866 13.6667 12.6875C13.6644 12.6866 13.6608 12.6852 13.6558 12.6827C13.6311 12.6708 13.5795 12.6394 13.4925 12.5609C13.3049 12.3915 13.0772 12.1211 12.7064 11.6761L12.414 11.3252C12.0855 10.931 11.7894 10.5756 11.5128 10.3258C11.2119 10.0541 10.8328 9.81205 10.3333 9.81205C9.83385 9.81205 9.45478 10.0541 9.15384 10.3258C8.87725 10.5756 8.58113 10.931 8.25267 11.3253L6.42383 13.5199C6.15866 13.8381 6.20165 14.311 6.51986 14.5762C6.83807 14.8413 7.31099 14.7983 7.57617 14.4801L9.37306 12.3239C9.74385 11.8789 9.97155 11.6085 10.1591 11.4391C10.2461 11.3606 10.2977 11.3292 10.3225 11.3173C10.3275 11.3148 10.3311 11.3134 10.3333 11.3125C10.3356 11.3134 10.3392 11.3148 10.3442 11.3173C10.3689 11.3292 10.4205 11.3606 10.5075 11.4391C10.6951 11.6085 10.9228 11.8789 11.2936 12.3239L11.586 12.6748C11.9145 13.069 12.2106 13.4244 12.4872 13.6742C12.7881 13.9459 13.1672 14.188 13.6667 14.188C14.1662 14.188 14.5452 13.9459 14.8462 13.6742C15.1228 13.4244 15.4189 13.069 15.7473 12.6748L17.5762 10.4801Z" fill="#FFFFFF" />
  <path fill-rule="nonzero" clip-rule="nonzero" d="M11.9426 1.25 L12.0574 1.25 C14.3658 1.24999 16.1748 1.24998 17.5863 1.43975 C19.031 1.63399 20.1711 2.03933 21.0659 2.93414 C21.9607 3.82895 22.366 4.96897 22.5603 6.41371 C22.75 7.82519 22.75 9.63423 22.75 11.9426 L22.75 12.0574 C22.75 14.3658 22.75 16.1748 22.5603 17.5863 C22.366 19.031 21.9607 20.1711 21.0659 21.0659 C20.1711 21.9607 19.031 22.366 17.5863 22.5603 C16.1748 22.75 14.3658 22.75 12.0574 22.75 L11.9426 22.75 C9.63423 22.75 7.82519 22.75 6.41371 22.5603 C4.96897 22.366 3.82895 21.9607 2.93414 21.0659 C2.03933 20.1711 1.63399 19.031 1.43975 17.5863 C1.24998 16.1748 1.24999 14.3658 1.25 12.0574 L1.25 11.9426 C1.24999 9.63423 1.24998 7.82519 1.43975 6.41371 C1.63399 4.96897 2.03933 3.82895 2.93414 2.93414 C3.82895 2.03933 4.96897 1.63399 6.41371 1.43975 C7.82519 1.24998 9.63423 1.24999 11.9426 1.25 Z M3.9948 3.9948 C3.42514 4.56445 3.09825 5.33517 2.92637 6.61358 C2.75159 7.91356 2.75 9.62178 2.75 12 C2.75 14.3782 2.75159 16.0864 2.92637 17.3864 C3.09825 18.6648 3.42514 19.4355 3.9948 20.0052 C4.56445 20.5749 5.33517 20.9018 6.61358 21.0736 C7.91356 21.2484 9.62178 21.25 12 21.25 C14.3782 21.25 16.0864 21.2484 17.3864 21.0736 C18.6648 20.9018 19.4355 20.5749 20.0052 20.0052 C20.5749 19.4355 20.9018 18.6648 21.0736 17.3864 C21.2484 16.0864 21.25 14.3782 21.25 12 C21.25 9.62178 21.2484 7.91356 21.0736 6.61358 C20.9018 5.33517 20.5749 4.56445 20.0052 3.9948 C19.4355 3.42514 18.6648 3.09825 17.3864 2.92637 C16.0864 2.75159 14.3782 2.75 12 2.75 C9.62178 2.75 7.91356 2.75159 6.61358 2.92637 C5.33517 3.09825 4.56445 3.42514 3.9948 3.9948 Z" fill="#FFFFFF" />
</svg>