<svg xmlns="http://www.w3.org/2000/svg" width="24" height="24" viewBox="0 0 24 24" fill="none">
  <path fill-rule="nonzero" clip-rule="nonzero" d="M3.46447 3.46447 C4.92893 2 7.28595 2 12 2 C16.714 2 19.0711 2 20.5355 3.46447 C22 4.92893 22 7.28595 22 12 C22 16.714 22 19.0711 20.5355 20.5355 C19.0711 22 16.714 22 12 22 C7.28595 22 4.92893 22 3.46447 20.5355 C2 19.0711 2 16.714 2 12 C2 7.28595 2 4.92893 3.46447 3.46447 Z M 13.75 10 C 13.75 10.4142 14.0858 10.75 14.5 10.75 H 15.1893 L 13.1768 12.7626 C 13.0791 12.8602 12.9209 12.8602 12.8232 12.7626 L 11.2374 11.1768 C 10.554 10.4934 9.44598 10.4934 8.76256 11.1768 L 6.46967 13.4697 C 6.17678 13.7626 6.17678 14.2374 6.46967 14.5303 C 6.76256 14.8232 7.23744 14.8232 7.53033 14.5303 L 9.82322 12.2374 C 9.92085 12.1398 10.0791 12.1398 10.1768 12.2374 L 11.7626 13.8232 C 12.446 14.5066 13.554 14.5066 14.2374 13.8232 L 16.25 11.8107 V 12.5 C 16.25 12.9142 16.5858 13.25 17 13.25 C 17.4142 13.25 17.75 12.9142 17.75 12.5 V 10 C 17.75 9.58579 17.4142 9.25 17 9.25 H 14.5 C 14.0858 9.25 13.75 9.58579 13.75 10 Z" fill="#FFFFFF" />
</svg>