<svg xmlns="http://www.w3.org/2000/svg" width="24" height="24" viewBox="0 0 24 24" fill="none">
  <path fill-rule="nonzero" clip-rule="nonzero" d="M11.5195 1.86795 C12.168 2.29786 12.4816 2.88305 12.6236 3.59364 C12.7502 4.22701 12.7501 5.01878 12.75 5.92901 L12.75 8.0001 C12.75 8.96411 12.7516 9.61167 12.8165 10.0947 C12.8786 10.5562 12.9858 10.7537 13.1161 10.884 C13.2464 11.0143 13.4439 11.1215 13.9054 11.1836 C14.3884 11.2485 15.036 11.2501 16 11.2501 L18.0711 11.2501 C18.9813 11.25 19.7731 11.2499 20.4065 11.3765 C21.1171 11.5185 21.7022 11.8321 22.1322 12.4806 C22.5325 13.0845 22.6483 13.6738 22.5443 14.3229 C22.4555 14.8765 22.202 15.4759 21.9299 16.1191 L21.9014 16.1864 C21.6386 16.8079 21.3167 17.4061 20.9383 17.9725 C19.7571 19.7403 18.0782 21.1182 16.1138 21.9318 C14.1495 22.7454 11.9881 22.9583 9.90278 22.5435 C7.81749 22.1287 5.90202 21.1049 4.39861 19.6015 C2.89519 18.0981 1.87135 16.1826 1.45656 14.0973 C1.04177 12.012 1.25466 9.85056 2.0683 7.88625 C2.88194 5.92195 4.2598 4.24303 6.02762 3.0618 C6.59398 2.68338 7.19223 2.36147 7.81371 2.09871 L7.88107 2.07022 C8.52424 1.79812 9.1236 1.54455 9.67724 1.45583 C10.3263 1.35183 10.9156 1.46761 11.5195 1.86795 Z M8.39784 3.4803 C7.86308 3.70639 7.34832 3.98337 6.86098 4.30901 C5.33982 5.32541 4.15423 6.77006 3.45412 8.46028 C2.75401 10.1505 2.57083 12.0104 2.92774 13.8047 C3.28465 15.599 4.16563 17.2472 5.45927 18.5408 C6.7529 19.8345 8.40109 20.7154 10.1954 21.0724 C11.9897 21.4293 13.8496 21.2461 15.5398 20.546 C17.23 19.8459 18.6747 18.6603 19.6911 17.1391 C20.0167 16.6518 20.2937 16.137 20.5198 15.6023 C20.8302 14.8681 21.0067 14.4378 21.0632 14.0855 C21.1074 13.8094 21.0748 13.6005 20.8819 13.3094 C20.7186 13.063 20.5215 12.9292 20.1125 12.8474 C19.6427 12.7535 19.0024 12.7501 18 12.7501 L15.948 12.7501 C15.0495 12.7501 14.3003 12.7502 13.7055 12.6702 C13.0777 12.5858 12.5109 12.4001 12.0555 11.9446 C11.6 11.4892 11.4143 10.9224 11.3299 10.2946 C11.2499 9.6998 11.25 8.95056 11.25 8.05209 L11.25 6.0001 C11.25 4.99772 11.2466 4.35736 11.1527 3.88759 C11.0709 3.47861 10.9371 3.28153 10.6907 3.11818 C10.3996 2.92526 10.1907 2.89269 9.91457 2.93694 C9.56231 2.99338 9.13201 3.1699 8.39784 3.4803 Z" fill="#FFFFFF" />
  <path d="M14.6869 1.58859C14.2858 1.48535 13.8769 1.72684 13.7737 2.12798C13.6704 2.52912 13.9119 2.938 14.3131 3.04125C17.5624 3.87758 20.1223 6.43743 20.9586 9.68682C21.0619 10.088 21.4708 10.3295 21.8719 10.2262C22.273 10.123 22.5145 9.71407 22.4113 9.31293C21.4387 5.53429 18.4656 2.56115 14.6869 1.58859Z" fill="#FFFFFF" />
</svg>