<svg xmlns="http://www.w3.org/2000/svg" width="24" height="24" viewBox="0 0 24 24" fill="none">
  <path fill-rule="nonzero" clip-rule="nonzero" d="M17.2059 1.85619 C19.4601 2.74423 21.2558 4.53992 22.1438 6.79412 C22.5625 7.85691 22.2791 8.884 21.6325 9.61103 C21.0018 10.3202 20.0301 10.75 19 10.75 L15 10.75 C14.0335 10.75 13.25 9.96653 13.25 9.00003 L13.25 5.00003 C13.25 3.96989 13.6798 2.99824 14.389 2.36753 C15.116 1.72093 16.1431 1.4375 17.2059 1.85619 Z M14.75 9.00003 C14.75 9.1381 14.8619 9.25003 15 9.25003 L19 9.25003 C19.6267 9.25003 20.1817 8.98514 20.5117 8.61418 C20.8257 8.26109 20.9368 7.82268 20.7482 7.34392 C20.0127 5.47673 18.5233 3.98737 16.6561 3.2518 C16.1774 3.06319 15.7389 3.17435 15.3858 3.48838 C15.0149 3.8183 14.75 4.37331 14.75 5.00003 L14.75 9.00003 Z" fill="#FFFFFF" />
  <path fill-rule="nonzero" clip-rule="nonzero" d="M10.9953 2.86997 C11.6534 3.29637 11.9751 3.88016 12.1208 4.59406 C12.2502 5.22795 12.2501 6.02003 12.25 6.92784 L12.25 8.50002 C12.25 9.46403 12.2516 10.1116 12.3165 10.5946 C12.3786 11.0561 12.4858 11.2536 12.6161 11.3839 C12.7464 11.5142 12.9439 11.6214 13.4054 11.6835 C13.8884 11.7484 14.536 11.75 15.5 11.75 L17.0722 11.75 C17.98 11.7499 18.7721 11.7498 19.406 11.8792 C20.1199 12.025 20.7036 12.3466 21.1301 13.0048 C21.5256 13.6153 21.6394 14.2059 21.5264 14.8543 C21.4303 15.405 21.1662 15.9945 20.885 16.6218 L20.8547 16.6895 C20.621 17.2113 20.3431 17.715 20.0226 18.1946 C18.8963 19.8802 17.2955 21.194 15.4225 21.9698 C13.5496 22.7456 11.4886 22.9486 9.50033 22.5531 C7.51202 22.1576 5.68565 21.1813 4.25216 19.7479 C2.81867 18.3144 1.84245 16.488 1.44696 14.4997 C1.05146 12.5114 1.25444 10.4505 2.03024 8.57751 C2.80604 6.70457 4.11981 5.10374 5.80541 3.97745 C6.28506 3.65696 6.78871 3.37898 7.31056 3.14528 L7.37816 3.11499 C8.00554 2.83384 8.59499 2.56967 9.1457 2.47365 C9.79417 2.36057 10.3847 2.47444 10.9953 2.86997 Z M7.92364 4.51427 C7.47817 4.71376 7.04824 4.95106 6.63876 5.22466 C5.19983 6.18612 4.07833 7.55268 3.41606 9.15154 C2.75379 10.7504 2.58051 12.5097 2.91813 14.2071 C3.25575 15.9044 4.08911 17.4635 5.31282 18.6872 C6.53653 19.9109 8.09563 20.7443 9.79296 21.0819 C11.4903 21.4195 13.2496 21.2462 14.8485 20.584 C16.4473 19.9217 17.8139 18.8002 18.7754 17.3613 C19.049 16.9518 19.2863 16.5218 19.4858 16.0764 C19.8078 15.3572 19.9887 14.9403 20.0487 14.5967 C20.095 14.3311 20.0668 14.1224 19.8712 13.8204 C19.7064 13.566 19.5096 13.4313 19.1059 13.3489 C18.639 13.2536 18.0016 13.25 17 13.25 L15.448 13.25 C14.5495 13.25 13.8003 13.2501 13.2055 13.1701 C12.5777 13.0857 12.0109 12.9 11.5555 12.4446 C11.1 11.9891 10.9143 11.4223 10.8299 10.7945 C10.7499 10.1997 10.75 9.45048 10.75 8.55201 L10.75 7.00002 C10.75 5.99846 10.7464 5.36104 10.6511 4.89407 C10.5687 4.49038 10.434 4.29366 10.1797 4.12886 C9.87762 3.93318 9.66896 3.90504 9.40336 3.95135 C9.05972 4.01127 8.64284 4.19218 7.92364 4.51427 Z" fill="#FFFFFF" />
</svg>