<svg xmlns="http://www.w3.org/2000/svg" width="24" height="24" viewBox="0 0 24 24" fill="none">
  <path fill-rule="nonzero" clip-rule="nonzero" d="M2 1.25 L22 1.25 C22.4142 1.25 22.75 1.58579 22.75 2 C22.75 2.41421 22.4142 2.75 22 2.75 L20 2.75 L20 10.5 C20 13.5641 20 15.0962 18.9958 16.0481 C17.9916 17 16.3753 17 13.1429 17 L12.75 17 L12.75 20.5365 L14.3354 21.3292 C14.7059 21.5144 14.8561 21.9649 14.6708 22.3354 C14.4856 22.7059 14.0351 22.8561 13.6646 22.6708 L12 21.8385 L10.3354 22.6708 C9.96493 22.8561 9.51442 22.7059 9.32918 22.3354 C9.14394 21.9649 9.29411 21.5144 9.66459 21.3292 L11.25 20.5365 L11.25 17 L10.8571 17 C7.62465 17 6.00841 17 5.00421 16.0481 C4 15.0962 4 13.5641 4 10.5 L4 2.75 L2 2.75 C1.58579 2.75 1.25 2.41421 1.25 2 C1.25 1.58579 1.58579 1.25 2 1.25 Z M15.5303 7.96967 C15.2374 7.67678 14.7626 7.67678 14.4697 7.96967 L13.1768 9.26256 C13.1067 9.33262 13.0499 9.38939 13 9.43771 C12.9501 9.38939 12.8933 9.33262 12.8232 9.26256 L12.213 8.65235 C12.0681 8.50728 11.9113 8.35041 11.7612 8.23584 C11.5852 8.10161 11.3335 7.95711 11 7.95711 C10.6665 7.95711 10.4148 8.10161 10.2388 8.23584 C10.0887 8.35042 9.9319 8.50732 9.78691 8.65241 L8.46967 9.96967 C8.17678 10.2626 8.17678 10.7374 8.46967 11.0303 C8.76256 11.3232 9.23744 11.3232 9.53033 11.0303 L10.8232 9.73744 C10.8933 9.66738 10.9501 9.61061 11 9.56229 C11.0499 9.61061 11.1067 9.66738 11.1768 9.73744 L11.7869 10.3476 C11.9319 10.4927 12.0887 10.6496 12.2388 10.7642 C12.4148 10.8984 12.6665 11.0429 13 11.0429 C13.3335 11.0429 13.5852 10.8984 13.7612 10.7642 C13.9113 10.6496 14.0681 10.4927 14.2131 10.3476 L15.5303 9.03033 C15.8232 8.73744 15.8232 8.26256 15.5303 7.96967 Z" fill="#FFFFFF" />
</svg>