<svg xmlns="http://www.w3.org/2000/svg" width="24" height="24" viewBox="0 0 24 24" fill="none">
  <path fill-rule="nonzero" clip-rule="nonzero" d="M 2 12 C 2 6.47715 6.47715 2 12 2 C 17.5228 2 22 6.47715 22 12 C 22 17.5228 17.5228 22 12 22 C 6.47715 22 2 17.5228 2 12 Z M11.25 5 C11.25 5.41421 11.5858 5.75 12 5.75 C15.4518 5.75 18.25 8.54822 18.25 12 C18.25 15.4518 15.4518 18.25 12 18.25 C8.54822 18.25 5.75 15.4518 5.75 12 C5.75 11.5858 5.41421 11.25 5 11.25 C4.58579 11.25 4.25 11.5858 4.25 12 C4.25 16.2802 7.71979 19.75 12 19.75 C16.2802 19.75 19.75 16.2802 19.75 12 C19.75 7.71979 16.2802 4.25 12 4.25 C11.5858 4.25 11.25 4.58579 11.25 5 Z M 12 7.25 C 11.5858 7.25 11.25 7.58579 11.25 8 C 11.25 8.41421 11.5858 8.75 12 8.75 C 13.7949 8.75 15.25 10.2051 15.25 12 C 15.25 13.7949 13.7949 15.25 12 15.25 C 11.5858 15.25 11.25 15.5858 11.25 16 C 11.25 16.4142 11.5858 16.75 12 16.75 C 14.6234 16.75 16.75 14.6234 16.75 12 C 16.75 9.37665 14.6234 7.25 12 7.25 Z" fill="#FFFFFF" />
</svg>