<svg xmlns="http://www.w3.org/2000/svg" width="24" height="24" viewBox="0 0 24 24" fill="none">
  <path fill-rule="nonzero" clip-rule="nonzero" d="M 10.4606 1.25 L 13.5 1.25 C 13.9142 1.25 14.25 1.58579 14.25 2 C 14.25 2.41421 13.9142 2.75 13.5 2.75 H 10.5 C 8.84876 2.75 7.663 2.75079 6.73809 2.83873 C 5.82434 2.92561 5.24291 3.09223 4.77938 3.37628 C 4.20752 3.72672 3.72672 4.20752 3.37628 4.77938 C 3.09223 5.24291 2.92561 5.82434 2.83873 6.73809 C 2.75079 7.663 2.75 8.84876 2.75 10.5 V 11.5 C 2.75 12.6751 2.75041 13.5189 2.79584 14.1847 C 2.84081 14.8438 2.92737 15.2736 3.07351 15.6264 C 3.50486 16.6678 4.33223 17.4951 5.3736 17.9265 C 5.88923 18.1401 6.54706 18.2199 7.8025 18.2416 L 7.83432 18.2421 C 8.23232 18.249 8.58109 18.2549 8.87097 18.287 C 9.18246 18.3215 9.4871 18.3912 9.77986 18.5615 C 10.0702 18.7304 10.2795 18.9559 10.4621 19.2063 C 10.6307 19.4378 10.804 19.7306 11.0004 20.0623 L 11.5587 21.0057 C 11.7515 21.3313 12.2485 21.3313 12.4412 21.0057 L 12.9996 20.0623 C 13.1959 19.7306 13.3692 19.4378 13.5379 19.2063 C 13.7204 18.9559 13.9298 18.7304 14.2201 18.5615 C 14.5129 18.3912 14.8175 18.3215 15.129 18.287 C 15.4189 18.2549 15.7676 18.249 16.1656 18.2421 L 16.1975 18.2416 C 17.4529 18.2199 18.1108 18.1401 18.6264 17.9265 C 19.6678 17.4951 20.4951 16.6678 20.9265 15.6264 C 21.0726 15.2736 21.1592 14.8438 21.2042 14.1847 C 21.2496 13.5189 21.25 12.6751 21.25 11.5 V 10.5 C 21.25 10.0858 21.5858 9.75 22 9.75 C 22.4142 9.75 22.75 10.0858 22.75 10.5 V 11.5278 C 22.75 12.6691 22.75 13.564 22.7007 14.2868 C 22.6505 15.0223 22.5468 15.6344 22.3123 16.2004 C 21.7287 17.6093 20.6093 18.7287 19.2004 19.3123 C 18.3955 19.6457 17.4786 19.7197 16.2233 19.7413 C 15.7842 19.7489 15.5061 19.7545 15.2941 19.7779 C 15.096 19.7999 15.0192 19.832 14.9742 19.8582 C 14.9268 19.8857 14.8622 19.936 14.7501 20.0898 C 14.6287 20.2564 14.4916 20.4865 14.2742 20.8539 L 13.7321 21.7697 C 12.9585 23.0767 11.0415 23.0767 10.2679 21.7697 L 9.72579 20.8539 C 9.50835 20.4865 9.37122 20.2564 9.24985 20.0898 C 9.13772 19.936 9.07313 19.8857 9.02572 19.8582 C 8.98078 19.832 8.90399 19.7999 8.70588 19.7779 C 8.49387 19.7545 8.21575 19.7489 7.77666 19.7413 C 6.52138 19.7197 5.60454 19.6457 4.79957 19.3123 C 3.39066 18.7287 2.27128 17.6093 1.68769 16.2004 C 1.45323 15.6344 1.3495 15.0223 1.29932 14.2868 C 1.24999 13.564 1.25 12.6691 1.25 11.5278 L 1.25 10.4606 C 1.24999 8.85726 1.24999 7.60029 1.34547 6.59611 C 1.44279 5.57256 1.64457 4.73445 2.09732 3.99563 C 2.57144 3.22194 3.22194 2.57144 3.99563 2.09732 C 4.73445 1.64457 5.57256 1.44279 6.59611 1.34547 C 7.60029 1.24999 8.85726 1.24999 10.4606 1.25 Z M 19 2.75 C 17.7574 2.75 16.75 3.75736 16.75 5 C 16.75 6.24264 17.7574 7.25 19 7.25 C 20.2426 7.25 21.25 6.24264 21.25 5 C 21.25 3.75736 20.2426 2.75 19 2.75 Z M 15.25 5 C 15.25 2.92893 16.9289 1.25 19 1.25 C 21.0711 1.25 22.75 2.92893 22.75 5 C 22.75 7.07107 21.0711 8.75 19 8.75 C 16.9289 8.75 15.25 7.07107 15.25 5 Z" fill="#FFFFFF" />
</svg>