<svg xmlns="http://www.w3.org/2000/svg" width="24" height="24" viewBox="0 0 24 24" fill="none">
  <path fill-rule="nonzero" clip-rule="nonzero" d="M13.0867 21.3877 C12.6035 22.204 11.3965 22.204 10.9133 21.3877 L10.3712 20.4718 C9.95073 19.7614 9.74049 19.4063 9.40279 19.2098 C9.06509 19.0134 8.63992 19.0061 7.78958 18.9915 C6.53422 18.9698 5.74689 18.8929 5.08658 18.6194 C3.86144 18.1119 2.88807 17.1386 2.3806 15.9134 C2 14.9946 2 13.8297 2 11.5 L2 10.5 C2 7.22657 2 5.58985 2.7368 4.38751 C3.14908 3.71473 3.71473 3.14908 4.38751 2.7368 C5.58985 2 7.22657 2 10.5 2 L13.5 2 C16.7734 2 18.4101 2 19.6125 2.7368 C20.2853 3.14908 20.8509 3.71473 21.2632 4.38751 C22 5.58985 22 7.22657 22 10.5 L22 11.5 C22 13.8297 22 14.9946 21.6194 15.9134 C21.1119 17.1386 20.1386 18.1119 18.9134 18.6194 C18.2531 18.8929 17.4658 18.9698 16.2104 18.9915 C15.36 19.0061 14.9349 19.0134 14.5972 19.2098 C14.2595 19.4062 14.0492 19.7614 13.6288 20.4718 L13.0867 21.3877 Z M14.9697 7.29926 C14.6768 7.59215 14.6768 8.06703 14.9697 8.35992 L15.1412 8.53149 C15.8229 9.21315 16.2797 9.67217 16.5753 10.0597 C16.8577 10.4298 16.9216 10.6453 16.9216 10.8296 C16.9216 11.0139 16.8577 11.2294 16.5753 11.5995 C16.2797 11.987 15.8229 12.446 15.1412 13.1277 L14.9697 13.2993 C14.6768 13.5922 14.6768 14.067 14.9697 14.3599 C15.2626 14.6528 15.7374 14.6528 16.0303 14.3599 L16.2387 14.1516 C16.874 13.5163 17.4038 12.9865 17.7678 12.5094 C18.1521 12.0058 18.4216 11.4737 18.4216 10.8296 C18.4216 10.1855 18.1521 9.65338 17.7678 9.14978 C17.4038 8.67266 16.874 8.14289 16.2387 7.50759 L16.0303 7.29926 C15.7374 7.00637 15.2626 7.00637 14.9697 7.29926 Z M 14.0184 6.19411 C 14.1256 5.79402 13.8882 5.38276 13.4881 5.27556 C 13.088 5.16835 12.6767 5.40579 12.5695 5.80589 L 9.98131 15.4651 C 9.8741 15.8652 10.1115 16.2765 10.5116 16.3837 C 10.9117 16.4909 11.323 16.2535 11.4302 15.8534 L 14.0184 6.19411 Z M9.03033 7.29926 C8.73744 7.00637 8.26256 7.00637 7.96967 7.29926 L7.7981 7.47083 L7.76133 7.5076 C7.12599 8.1429 6.59619 8.67266 6.23216 9.14978 C5.84793 9.65338 5.57843 10.1855 5.57843 10.8296 C5.57843 11.4737 5.84793 12.0058 6.23216 12.5094 C6.59619 12.9865 7.12599 13.5163 7.76133 14.1516 L7.7981 14.1883 L7.96967 14.3599 C8.26256 14.6528 8.73744 14.6528 9.03033 14.3599 C9.32322 14.067 9.32322 13.5922 9.03033 13.2993 L8.85876 13.1277 C8.1771 12.446 7.72033 11.987 7.42469 11.5995 C7.14226 11.2294 7.07843 11.0139 7.07843 10.8296 C7.07843 10.6453 7.14226 10.4298 7.42469 10.0597 C7.72033 9.67217 8.1771 9.21315 8.85876 8.53149 L9.03033 8.35992 C9.32322 8.06703 9.32322 7.59215 9.03033 7.29926 Z" fill="#FFFFFF" />
</svg>