<svg xmlns="http://www.w3.org/2000/svg" width="24" height="24" viewBox="0 0 24 24" fill="none">
  <path fill-rule="nonzero" clip-rule="nonzero" d="M 22 12 C 22 17.5228 17.5228 22 12 22 C 10.4003 22 8.88837 21.6244 7.54753 20.9565 C 7.19121 20.7791 6.78393 20.72 6.39939 20.8229 L 4.17335 21.4185 C 3.20701 21.677 2.32295 20.793 2.58151 19.8267 L 3.17712 17.6006 C 3.28001 17.2161 3.22094 16.8088 3.04346 16.4525 C 2.37562 15.1116 2 13.5997 2 12 C 2 6.47715 6.47715 2 12 2 C 17.5228 2 22 6.47715 22 12 Z M 16 12 C 16 11.1555 15.0732 10.586 13.2196 9.44695 C 11.3406 8.29234 10.4011 7.71504 9.70056 8.13891 C 9 8.56279 9 9.70853 9 12 C 9 14.2915 9 15.4372 9.70056 15.8611 C 10.4011 16.285 11.3406 15.7077 13.2196 14.5531 C 15.0732 13.414 16 12.8445 16 12 Z" fill="#FFFFFF" />
</svg>