<svg xmlns="http://www.w3.org/2000/svg" width="24" height="24" viewBox="0 0 24 24" fill="none">
  <path fill-rule="nonzero" clip-rule="nonzero" d="M 22 12 C 22 17.5228 17.5228 22 12 22 C 10.4003 22 8.88837 21.6244 7.54753 20.9565 C 7.19121 20.7791 6.78393 20.72 6.39939 20.8229 L 4.17335 21.4185 C 3.20701 21.677 2.32295 20.793 2.58151 19.8267 L 3.17712 17.6006 C 3.28001 17.2161 3.22094 16.8088 3.04346 16.4525 C 2.37562 15.1116 2 13.5997 2 12 C 2 6.47715 6.47715 2 12 2 C 17.5228 2 22 6.47715 22 12 Z M 7.5 11.1084 C 7.5 12.4768 8.81884 13.9126 10.0286 14.9417 C 10.8524 15.6426 11.2644 15.9931 12 15.9931 C 12.7356 15.9931 13.1476 15.6426 13.9714 14.9417 C 15.1812 13.9126 16.5 12.4768 16.5 11.1084 C 16.5 8.43124 14.0249 7.43172 12 9.4998 C 9.97507 7.43172 7.5 8.43124 7.5 11.1084 Z" fill="#FFFFFF" />
</svg>