<svg xmlns="http://www.w3.org/2000/svg" width="24" height="24" viewBox="0 0 24 24" fill="none">
  <path fill-rule="nonzero" clip-rule="nonzero" d="M 10.4606 1.25 H 13.5394 C 15.1427 1.24999 16.3997 1.24999 17.4039 1.34547 C 18.4274 1.44279 19.2655 1.64457 20.0044 2.09732 C 20.7781 2.57144 21.4286 3.22194 21.9027 3.99563 C 22.3554 4.73445 22.5572 5.57256 22.6545 6.59611 C 22.75 7.60029 22.75 8.85725 22.75 10.4606 V 11.5278 C 22.75 12.6691 22.75 13.564 22.7007 14.2868 C 22.6505 15.0223 22.5468 15.6344 22.3123 16.2004 C 21.7287 17.6093 20.6093 18.7287 19.2004 19.3123 C 18.3955 19.6457 17.4786 19.7197 16.2233 19.7413 C 15.7842 19.7489 15.5061 19.7545 15.2941 19.7779 C 15.096 19.7999 15.0192 19.832 14.9742 19.8582 C 14.9268 19.8857 14.8622 19.936 14.7501 20.0898 C 14.6287 20.2564 14.4916 20.4865 14.2742 20.8539 L 13.7321 21.7697 C 12.9585 23.0767 11.0415 23.0767 10.2679 21.7697 L 9.72579 20.8539 C 9.50835 20.4865 9.37122 20.2564 9.24985 20.0898 C 9.13772 19.936 9.07313 19.8857 9.02572 19.8582 C 8.98078 19.832 8.90399 19.7999 8.70588 19.7779 C 8.49387 19.7545 8.21575 19.7489 7.77666 19.7413 C 6.52138 19.7197 5.60454 19.6457 4.79957 19.3123 C 3.39066 18.7287 2.27128 17.6093 1.68769 16.2004 C 1.45323 15.6344 1.3495 15.0223 1.29932 14.2868 C 1.24999 13.564 1.25 12.6691 1.25 11.5278 L 1.25 10.4606 C 1.24999 8.85726 1.24999 7.60029 1.34547 6.59611 C 1.44279 5.57256 1.64457 4.73445 2.09732 3.99563 C 2.57144 3.22194 3.22194 2.57144 3.99563 2.09732 C 4.73445 1.64457 5.57256 1.44279 6.59611 1.34547 C 7.60029 1.24999 8.85726 1.24999 10.4606 1.25 Z M 6.73809 2.83873 C 5.82434 2.92561 5.24291 3.09223 4.77938 3.37628 C 4.20752 3.72672 3.72672 4.20752 3.37628 4.77938 C 3.09223 5.24291 2.92561 5.82434 2.83873 6.73809 C 2.75079 7.663 2.75 8.84876 2.75 10.5 V 11.5 C 2.75 12.6751 2.75041 13.5189 2.79584 14.1847 C 2.84081 14.8438 2.92737 15.2736 3.07351 15.6264 C 3.50486 16.6678 4.33223 17.4951 5.3736 17.9265 C 5.88923 18.1401 6.54706 18.2199 7.8025 18.2416 L 7.83432 18.2421 C 8.23232 18.249 8.58109 18.2549 8.87097 18.287 C 9.18246 18.3215 9.4871 18.3912 9.77986 18.5615 C 10.0702 18.7304 10.2795 18.9559 10.4621 19.2063 C 10.6307 19.4378 10.804 19.7306 11.0004 20.0623 L 11.5587 21.0057 C 11.7515 21.3313 12.2485 21.3313 12.4412 21.0057 L 12.9996 20.0623 C 13.1959 19.7306 13.3692 19.4378 13.5379 19.2063 C 13.7204 18.9559 13.9298 18.7304 14.2201 18.5615 C 14.5129 18.3912 14.8175 18.3215 15.129 18.287 C 15.4189 18.2549 15.7676 18.249 16.1656 18.2421 L 16.1975 18.2416 C 17.4529 18.2199 18.1108 18.1401 18.6264 17.9265 C 19.6678 17.4951 20.4951 16.6678 20.9265 15.6264 C 21.0726 15.2736 21.1592 14.8438 21.2042 14.1847 C 21.2496 13.5189 21.25 12.6751 21.25 11.5 V 10.5 C 21.25 8.84876 21.2492 7.663 21.1613 6.73809 C 21.0744 5.82434 20.9078 5.24291 20.6237 4.77938 C 20.2733 4.20752 19.7925 3.72672 19.2206 3.37628 C 18.7571 3.09223 18.1757 2.92561 17.2619 2.83873 C 16.337 2.75079 15.1512 2.75 13.5 2.75 H 10.5 C 8.84876 2.75 7.663 2.75079 6.73809 2.83873 Z M 15.272 6.42848 C 16.507 6.89026 17.25 8.14531 17.25 9.71474 C 17.25 10.8757 16.5511 11.9574 15.8168 12.7961 C 15.0591 13.6614 14.1381 14.4085 13.4549 14.912 C 13.4283 14.9316 13.4015 14.9515 13.3745 14.9716 C 13.0029 15.2478 12.5824 15.5603 12 15.5603 C 11.4176 15.5603 10.9972 15.2478 10.6255 14.9716 C 10.5985 14.9515 10.5717 14.9316 10.5451 14.912 C 9.86191 14.4085 8.94088 13.6614 8.18323 12.7961 C 7.44886 11.9574 6.75 10.8757 6.75 9.71476 C 6.75 8.14532 7.49299 6.89027 8.72797 6.42848 C 9.77086 6.03852 10.9575 6.29174 12 7.10194 C 13.0425 6.29174 14.2291 6.03852 15.272 6.42848 Z M 14.7467 7.83347 C 14.2295 7.64009 13.4049 7.74331 12.5359 8.63085 C 12.3948 8.77494 12.2017 8.85614 12 8.85614 C 11.7983 8.85614 11.6052 8.77494 11.4641 8.63085 C 10.5951 7.7433 9.77052 7.64009 9.25333 7.83347 C 8.74454 8.02372 8.25 8.60702 8.25 9.71476 C 8.25 10.3064 8.63279 11.0325 9.31176 11.808 C 9.96746 12.5568 10.7914 13.2302 11.435 13.7045 C 11.678 13.8835 11.8008 13.972 11.899 14.0252 C 11.9645 14.0606 11.9832 14.0604 11.9976 14.0603 C 11.9984 14.0603 11.9992 14.0603 12 14.0603 C 12.0008 14.0603 12.0016 14.0603 12.0024 14.0603 C 12.0168 14.0604 12.0355 14.0606 12.101 14.0252 C 12.1992 13.972 12.322 13.8835 12.565 13.7045 C 13.2086 13.2302 14.0325 12.5568 14.6882 11.808 C 15.3672 11.0325 15.75 10.3064 15.75 9.71474 C 15.75 8.60701 15.2555 8.02372 14.7467 7.83347 Z" fill="#FFFFFF" />
</svg>