<svg xmlns="http://www.w3.org/2000/svg" width="24" height="24" viewBox="0 0 24 24" fill="none">
  <path fill-rule="nonzero" clip-rule="nonzero" d="M13.0867 21.3877 C12.6035 22.204 11.3965 22.204 10.9133 21.3877 L10.3712 20.4718 C9.95073 19.7614 9.74049 19.4063 9.40279 19.2098 C9.06509 19.0134 8.63992 19.0061 7.78958 18.9915 C6.53422 18.9698 5.74689 18.8929 5.08658 18.6194 C3.86144 18.1119 2.88807 17.1386 2.3806 15.9134 C2 14.9946 2 13.8297 2 11.5 L2 10.5 C2 7.22657 2 5.58985 2.7368 4.38751 C3.14908 3.71473 3.71473 3.14908 4.38751 2.7368 C5.58985 2 7.22657 2 10.5 2 L13.5 2 C16.7734 2 18.4101 2 19.6125 2.7368 C20.2853 3.14908 20.8509 3.71473 21.2632 4.38751 C22 5.58985 22 7.22657 22 10.5 L22 11.5 C22 13.8297 22 14.9946 21.6194 15.9134 C21.1119 17.1386 20.1386 18.1119 18.9134 18.6194 C18.2531 18.8929 17.4658 18.9698 16.2104 18.9915 C15.36 19.0061 14.9349 19.0134 14.5972 19.2098 C14.2595 19.4062 14.0492 19.7614 13.6288 20.4718 L13.0867 21.3877 Z M12 6.25 C11.5858 6.25 11.25 6.58579 11.25 7 L11.25 15 C11.25 15.4142 11.5858 15.75 12 15.75 C12.4142 15.75 12.75 15.4142 12.75 15 L12.75 7 C12.75 6.58579 12.4142 6.25 12 6.25 Z M 8.75 9 C 8.75 8.58579 8.41421 8.25 8 8.25 C 7.58579 8.25 7.25 8.58579 7.25 9 V 13 C 7.25 13.4142 7.58579 13.75 8 13.75 C 8.41421 13.75 8.75 13.4142 8.75 13 V 9 Z M16 8.25 C15.5858 8.25 15.25 8.58579 15.25 9 L15.25 13 C15.25 13.4142 15.5858 13.75 16 13.75 C16.4142 13.75 16.75 13.4142 16.75 13 L16.75 9 C16.75 8.58579 16.4142 8.25 16 8.25 Z" fill="#FFFFFF" />
</svg>