<svg xmlns="http://www.w3.org/2000/svg" width="24" height="24" viewBox="0 0 24 24" fill="none">
  <path fill-rule="nonzero" clip-rule="nonzero" d="M 12 2.75 C 6.89137 2.75 2.75 6.89137 2.75 12 C 2.75 13.4811 3.09753 14.8788 3.7148 16.1181 C 3.96254 16.6155 4.05794 17.2103 3.90163 17.7945 L 3.30602 20.0205 C 3.19663 20.4293 3.57066 20.8034 3.97949 20.694 L 6.20553 20.0984 C 6.78973 19.9421 7.38451 20.0375 7.88191 20.2852 C 9.12121 20.9025 10.5189 21.25 12 21.25 C 17.1086 21.25 21.25 17.1086 21.25 12 C 21.25 11.3655 21.1862 10.7466 21.065 10.1492 C 20.9826 9.74326 21.2448 9.34739 21.6508 9.26499 C 22.0567 9.18259 22.4526 9.44487 22.535 9.8508 C 22.6761 10.5458 22.75 11.2647 22.75 12 C 22.75 17.9371 17.9371 22.75 12 22.75 C 10.2817 22.75 8.65552 22.3463 7.21315 21.6279 C 6.99791 21.5207 6.77813 21.4979 6.59324 21.5474 L 4.3672 22.143 C 2.84337 22.5507 1.44927 21.1566 1.857 19.6328 L 2.4526 17.4068 C 2.50208 17.2219 2.47933 17.0021 2.37213 16.7869 C 1.65371 15.3445 1.25 13.7183 1.25 12 C 1.25 6.06294 6.06294 1.25 12 1.25 C 12.7353 1.25 13.4541 1.32394 14.1492 1.46503 C 14.5551 1.54743 14.8174 1.9433 14.735 2.34924 C 14.6526 2.75517 14.2567 3.01745 13.8508 2.93505 C 13.2534 2.81378 12.6345 2.75 12 2.75 Z M 15.25 5 C 15.25 2.92893 16.9289 1.25 19 1.25 C 21.0711 1.25 22.75 2.92893 22.75 5 C 22.75 7.07107 21.0711 8.75 19 8.75 C 16.9289 8.75 15.25 7.07107 15.25 5 Z M 19 2.75 C 17.7574 2.75 16.75 3.75736 16.75 5 C 16.75 6.24264 17.7574 7.25 19 7.25 C 20.2426 7.25 21.25 6.24264 21.25 5 C 21.25 3.75736 20.2426 2.75 19 2.75 Z" fill="#FFFFFF" />
</svg>