<svg xmlns="http://www.w3.org/2000/svg" width="24" height="24" viewBox="0 0 24 24" fill="none">
  <path fill-rule="nonzero" clip-rule="nonzero" d="M 12 2.75 C 6.89137 2.75 2.75 6.89137 2.75 12 C 2.75 13.4811 3.09753 14.8788 3.7148 16.1181 C 3.96254 16.6155 4.05794 17.2103 3.90163 17.7945 L 3.30602 20.0205 C 3.19663 20.4293 3.57066 20.8034 3.97949 20.694 L 6.20553 20.0984 C 6.78973 19.9421 7.38451 20.0375 7.88191 20.2852 C 9.12121 20.9025 10.5189 21.25 12 21.25 C 17.1086 21.25 21.25 17.1086 21.25 12 C 21.25 6.89137 17.1086 2.75 12 2.75 Z M 1.25 12 C 1.25 6.06294 6.06294 1.25 12 1.25 C 17.9371 1.25 22.75 6.06294 22.75 12 C 22.75 17.9371 17.9371 22.75 12 22.75 C 10.2817 22.75 8.65552 22.3463 7.21315 21.6279 C 6.99791 21.5207 6.77814 21.4979 6.59324 21.5474 L 4.3672 22.143 C 2.84337 22.5507 1.44927 21.1566 1.857 19.6328 L 2.4526 17.4068 C 2.50208 17.2219 2.47933 17.0021 2.37213 16.7869 C 1.65371 15.3445 1.25 13.7183 1.25 12 Z M 13.5574 8.77428 L 13.6652 8.84049 C 14.5468 9.38223 15.2815 9.8336 15.788 10.2603 C 16.3147 10.7039 16.75 11.2479 16.75 12 C 16.75 12.7521 16.3147 13.2961 15.788 13.7397 C 15.2815 14.1664 14.5469 14.6178 13.6652 15.1595 L 13.5574 15.2257 C 12.6647 15.7744 11.9203 16.2318 11.3103 16.4898 C 10.6827 16.7552 9.97712 16.905 9.31231 16.5028 C 8.66252 16.1096 8.4409 15.4216 8.34481 14.7348 C 8.24994 14.0568 8.24997 13.1547 8.25 12.0599 V 11.9401 C 8.24997 10.8453 8.24994 9.94316 8.34481 9.26518 C 8.4409 8.57844 8.66252 7.89039 9.31231 7.49723 C 9.97712 7.09498 10.6827 7.24485 11.3103 7.51022 C 11.9203 7.76818 12.6647 8.22564 13.5574 8.77428 Z M 10.0888 8.7806 C 10.038 8.81132 9.90939 8.90807 9.83033 9.47304 C 9.75178 10.0344 9.75 10.8303 9.75 12 C 9.75 13.1697 9.75178 13.9656 9.83033 14.527 C 9.90939 15.0919 10.038 15.1887 10.0888 15.2194 C 10.1255 15.2416 10.2427 15.3126 10.7261 15.1082 C 11.2182 14.9001 11.8651 14.5051 12.8269 13.9141 C 13.7753 13.3313 14.4116 12.9379 14.8217 12.5924 C 15.2219 12.2554 15.25 12.0924 15.25 12 C 15.25 11.9076 15.2219 11.7446 14.8217 11.4076 C 14.4116 11.0621 13.7753 10.6687 12.8269 10.0859 C 11.8651 9.49491 11.2182 9.0999 10.7261 8.89178 C 10.2427 8.68738 10.1255 8.75837 10.0888 8.7806 Z" fill="#FFFFFF" />
</svg>