<svg xmlns="http://www.w3.org/2000/svg" width="24" height="24" viewBox="0 0 24 24" fill="none">
  <path fill-rule="nonzero" clip-rule="nonzero" d="M13.0867 21.3877 C12.6035 22.204 11.3965 22.204 10.9133 21.3877 L10.3712 20.4718 C9.95073 19.7614 9.74049 19.4063 9.40279 19.2098 C9.06509 19.0134 8.63992 19.0061 7.78958 18.9915 C6.53422 18.9698 5.74689 18.8929 5.08658 18.6194 C3.86144 18.1119 2.88807 17.1386 2.3806 15.9134 C2 14.9946 2 13.8297 2 11.5 L2 10.5 C2 7.22657 2 5.58985 2.7368 4.38751 C3.14908 3.71473 3.71473 3.14908 4.38751 2.7368 C5.58985 2 7.22657 2 10.5 2 L13.5 2 C16.7734 2 18.4101 2 19.6125 2.7368 C20.2853 3.14908 20.8509 3.71473 21.2632 4.38751 C22 5.58985 22 7.22657 22 10.5 L22 11.5 C22 13.8297 22 14.9946 21.6194 15.9134 C21.1119 17.1386 20.1386 18.1119 18.9134 18.6194 C18.2531 18.8929 17.4658 18.9698 16.2104 18.9915 C15.36 19.0061 14.9349 19.0134 14.5972 19.2098 C14.2595 19.4062 14.0492 19.7614 13.6288 20.4718 L13.0867 21.3877 Z M 16 12 C 16.5523 12 17 11.5523 17 11 C 17 10.4477 16.5523 10 16 10 C 15.4477 10 15 10.4477 15 11 C 15 11.5523 15.4477 12 16 12 Z M13 11 C13 10.4477 12.5523 10 12 10 C11.4477 10 11 10.4477 11 11 C11 11.5523 11.4477 12 12 12 C12.5523 12 13 11.5523 13 11 Z M 8 12 C 8.55228 12 9 11.5523 9 11 C 9 10.4477 8.55228 10 8 10 C 7.44772 10 7 10.4477 7 11 C 7 11.5523 7.44772 12 8 12 Z" fill="#FFFFFF" />
</svg>