<svg xmlns="http://www.w3.org/2000/svg" width="24" height="24" viewBox="0 0 24 24" fill="none">
  <path fill-rule="nonzero" clip-rule="nonzero" d="M 22 12 C 22 17.5228 17.5228 22 12 22 C 10.4003 22 8.88837 21.6244 7.54753 20.9565 C 7.19121 20.7791 6.78393 20.72 6.39939 20.8229 L 4.17335 21.4185 C 3.20701 21.677 2.32295 20.793 2.58151 19.8267 L 3.17712 17.6006 C 3.28001 17.2161 3.22094 16.8088 3.04346 16.4525 C 2.37562 15.1116 2 13.5997 2 12 C 2 6.47715 6.47715 2 12 2 C 17.5228 2 22 6.47715 22 12 Z M12 7.25 C11.5858 7.25 11.25 7.58579 11.25 8 L11.25 16 C11.25 16.4142 11.5858 16.75 12 16.75 C12.4142 16.75 12.75 16.4142 12.75 16 L12.75 8 C12.75 7.58579 12.4142 7.25 12 7.25 Z M 8.75 10 C 8.75 9.58579 8.41421 9.25 8 9.25 C 7.58579 9.25 7.25 9.58579 7.25 10 V 14 C 7.25 14.4142 7.58579 14.75 8 14.75 C 8.41421 14.75 8.75 14.4142 8.75 14 V 10 Z M16 9.25 C15.5858 9.25 15.25 9.58579 15.25 10 L15.25 14 C15.25 14.4142 15.5858 14.75 16 14.75 C16.4142 14.75 16.75 14.4142 16.75 14 L16.75 10 C16.75 9.58579 16.4142 9.25 16 9.25 Z" fill="#FFFFFF" />
</svg>