<svg xmlns="http://www.w3.org/2000/svg" width="24" height="24" viewBox="0 0 24 24" fill="none">
  <path fill-rule="nonzero" clip-rule="nonzero" d="M 12 2.75 C 6.89137 2.75 2.75 6.89137 2.75 12 C 2.75 13.4811 3.09753 14.8788 3.7148 16.1181 C 3.96254 16.6155 4.05794 17.2103 3.90163 17.7945 L 3.30602 20.0205 C 3.19663 20.4293 3.57066 20.8034 3.97949 20.694 L 6.20553 20.0984 C 6.78973 19.9421 7.38451 20.0375 7.88191 20.2852 C 9.12121 20.9025 10.5189 21.25 12 21.25 C 17.1086 21.25 21.25 17.1086 21.25 12 C 21.25 6.89137 17.1086 2.75 12 2.75 Z M 1.25 12 C 1.25 6.06294 6.06294 1.25 12 1.25 C 17.9371 1.25 22.75 6.06294 22.75 12 C 22.75 17.9371 17.9371 22.75 12 22.75 C 10.2817 22.75 8.65552 22.3463 7.21315 21.6279 C 6.99791 21.5207 6.77814 21.4979 6.59324 21.5474 L 4.3672 22.143 C 2.84337 22.5507 1.44927 21.1566 1.857 19.6328 L 2.4526 17.4068 C 2.50208 17.2219 2.47933 17.0021 2.37213 16.7869 C 1.65371 15.3445 1.25 13.7183 1.25 12 Z M 15.5303 9.46967 C 15.8232 9.76256 15.8232 10.2374 15.5303 10.5303 L 11.5303 14.5303 C 11.2417 14.819 10.7751 14.8238 10.4806 14.541 L 8.4806 12.621 C 8.18179 12.3342 8.1721 11.8594 8.45896 11.5606 C 8.74582 11.2618 9.22059 11.2521 9.5194 11.539 L 10.9893 12.9501 L 14.4697 9.46967 C 14.7626 9.17678 15.2374 9.17678 15.5303 9.46967 Z" fill="#FFFFFF" />
</svg>