<svg xmlns="http://www.w3.org/2000/svg" width="24" height="24" viewBox="0 0 24 24" fill="none">
  <path fill-rule="nonzero" clip-rule="nonzero" d="M 22 12 C 22 17.5228 17.5228 22 12 22 C 10.4003 22 8.88837 21.6244 7.54753 20.9565 C 7.19121 20.7791 6.78393 20.72 6.39939 20.8229 L 4.17335 21.4185 C 3.20701 21.677 2.32295 20.793 2.58151 19.8267 L 3.17712 17.6006 C 3.28001 17.2161 3.22094 16.8088 3.04346 16.4525 C 2.37562 15.1116 2 13.5997 2 12 C 2 6.47715 6.47715 2 12 2 C 17.5228 2 22 6.47715 22 12 Z M15.5303 9.46967 C15.2374 9.17678 14.7626 9.17678 14.4697 9.46967 L10.9893 12.9501 L9.5194 11.539 C9.22059 11.2521 8.74582 11.2618 8.45896 11.5606 C8.1721 11.8594 8.18179 12.3342 8.4806 12.621 L10.4806 14.541 C10.7751 14.8238 11.2417 14.819 11.5303 14.5303 L15.5303 10.5303 C15.8232 10.2374 15.8232 9.76256 15.5303 9.46967 Z" fill="#FFFFFF" />
</svg>