<svg xmlns="http://www.w3.org/2000/svg" width="24" height="24" viewBox="0 0 24 24" fill="none">
  <path fill-rule="nonzero" clip-rule="nonzero" d="M22.75 12 C22.75 17.9371 17.9371 22.75 12 22.75 C10.2817 22.75 8.65553 22.3463 7.21315 21.6279 C6.99791 21.5207 6.77814 21.4979 6.59324 21.5474 L4.3672 22.143 C2.84337 22.5507 1.44927 21.1566 1.857 19.6328 L2.4526 17.4068 C2.50208 17.2219 2.47933 17.0021 2.37213 16.7869 C1.65371 15.3445 1.25 13.7183 1.25 12 C1.25 6.06294 6.06294 1.25 12 1.25 C17.9371 1.25 22.75 6.06294 22.75 12 Z M12 2.75 C6.89137 2.75 2.75 6.89137 2.75 12 C2.75 13.4811 3.09752 14.8788 3.7148 16.1181 C3.96254 16.6155 4.05794 17.2103 3.90163 17.7945 L3.30602 20.0205 C3.19663 20.4293 3.57066 20.8034 3.97949 20.694 L6.20553 20.0984 C6.78973 19.9421 7.38451 20.0375 7.88191 20.2852 C9.12121 20.9025 10.5189 21.25 12 21.25 C17.1086 21.25 21.25 17.1086 21.25 12 C21.25 6.89137 17.1086 2.75 12 2.75 Z" fill="#FFFFFF" />
</svg>