<svg xmlns="http://www.w3.org/2000/svg" width="24" height="24" viewBox="0 0 24 24" fill="none">
  <path fill-rule="nonzero" clip-rule="nonzero" d="M12 22 C10.4003 22 8.88837 21.6244 7.54753 20.9565 C7.19121 20.7791 6.78393 20.72 6.39939 20.8229 L4.17335 21.4185 C3.20701 21.677 2.32295 20.793 2.58151 19.8267 L3.17712 17.6006 C3.28001 17.2161 3.22094 16.8088 3.04346 16.4525 C2.37562 15.1116 2 13.5997 2 12 C2 6.47715 6.47715 2 12 2 C17.5228 2 22 6.47715 22 12 C22 17.5228 17.5228 22 12 22 Z M 8 13.25 C 7.58579 13.25 7.25 13.5858 7.25 14 C 7.25 14.4142 7.58579 14.75 8 14.75 H 13.5 C 13.9142 14.75 14.25 14.4142 14.25 14 C 14.25 13.5858 13.9142 13.25 13.5 13.25 H 8 Z M7.25 10.5 C7.25 10.9142 7.58579 11.25 8 11.25 L16 11.25 C16.4142 11.25 16.75 10.9142 16.75 10.5 C16.75 10.0858 16.4142 9.75 16 9.75 L8 9.75 C7.58579 9.75 7.25 10.0858 7.25 10.5 Z" fill="#FFFFFF" />
</svg>