<svg xmlns="http://www.w3.org/2000/svg" width="24" height="24" viewBox="0 0 24 24" fill="none">
  <path fill-rule="nonzero" clip-rule="nonzero" d="M 12 22 C 7.28595 22 4.92893 22 3.46447 20.5355 C 2 19.0711 2 16.714 2 12 C 2 7.28595 2 4.92893 3.46447 3.46447 C 4.92893 2 7.28595 2 12 2 C 16.714 2 19.0711 2 20.5355 3.46447 C 22 4.92893 22 7.28595 22 12 C 22 16.714 22 19.0711 20.5355 20.5355 C 19.0711 22 16.714 22 12 22 Z M14.4743 8.419 C14.1534 8.15707 13.6809 8.20484 13.419 8.52572 L8.28571 14.814 L6.581 12.7257 C6.31906 12.4048 5.84659 12.3571 5.52572 12.619 C5.20484 12.8809 5.15707 13.3534 5.419 13.6743 L7.70472 16.4743 C7.84716 16.6488 8.06047 16.75 8.28571 16.75 C8.51096 16.75 8.72427 16.6488 8.86671 16.4743 L14.581 9.47428 C14.8429 9.15341 14.7952 8.68094 14.4743 8.419 Z M18.4743 8.41901 C18.1534 8.15707 17.681 8.20484 17.419 8.52571 L12.2514 14.8558 C12.0384 14.7803 11.7939 14.8014 11.5901 14.9344 C11.2432 15.1608 11.1455 15.6256 11.3719 15.9724 L11.6575 16.4099 C11.7883 16.6103 12.0068 16.7362 12.2457 16.7489 C12.4846 16.7617 12.7152 16.6596 12.8665 16.4743 L18.581 9.47429 C18.8429 9.15342 18.7952 8.68095 18.4743 8.41901 Z" fill="#FFFFFF" />
</svg>