<svg xmlns="http://www.w3.org/2000/svg" width="24" height="24" viewBox="0 0 24 24" fill="none">
  <path d="M22 8.5C22 4.91015 19.0899 2 15.5 2C13.4171 2 11.5631 2.9823 10.3735 4.50721C15.4471 4.70336 19.5 8.87838 19.5 14C19.5 14.1103 19.4981 14.2202 19.4944 14.3296L19.8267 14.4185C20.793 14.677 21.677 13.793 21.4185 12.8267L21.2911 12.3506C21.1882 11.9661 21.2501 11.5598 21.4155 11.1977C21.7908 10.376 22 9.46242 22 8.5Z" fill="#FFFFFF" />
  <path fill-rule="nonzero" clip-rule="nonzero" d="M 18 14 C 18 18.4183 14.4183 22 10 22 C 8.76449 22 7.5944 21.7199 6.54976 21.2198 C 6.19071 21.0479 5.78393 20.9876 5.39939 21.0904 L 4.17335 21.4185 C 3.20701 21.677 2.32295 20.793 2.58151 19.8267 L 2.90955 18.6006 C 3.01245 18.2161 2.95209 17.8093 2.7802 17.4502 C 2.28008 16.4056 2 15.2355 2 14 C 2 9.58172 5.58172 6 10 6 C 14.4183 6 18 9.58172 18 14 Z M 6.5 15 C 7.05228 15 7.5 14.5523 7.5 14 C 7.5 13.4477 7.05228 13 6.5 13 C 5.94772 13 5.5 13.4477 5.5 14 C 5.5 14.5523 5.94772 15 6.5 15 Z M 10 15 C 10.5523 15 11 14.5523 11 14 C 11 13.4477 10.5523 13 10 13 C 9.44772 13 9 13.4477 9 14 C 9 14.5523 9.44772 15 10 15 Z M 13.5 15 C 14.0523 15 14.5 14.5523 14.5 14 C 14.5 13.4477 14.0523 13 13.5 13 C 12.9477 13 12.5 13.4477 12.5 14 C 12.5 14.5523 12.9477 15 13.5 15 Z" fill="#FFFFFF" />
</svg>