<svg xmlns="http://www.w3.org/2000/svg" width="24" height="24" viewBox="0 0 24 24" fill="none">
  <path fill-rule="nonzero" clip-rule="nonzero" d="M10.5487 21.5277 C10.1762 22.1572 9.24547 22.1572 8.87291 21.5277 L8.62285 21.1053 C8.2221 20.4282 8.02172 20.0897 7.70253 19.9009 C7.38334 19.712 6.96698 19.6987 6.13427 19.6721 C5.35348 19.6471 4.82871 19.579 4.38002 19.3931 C3.43533 19.0018 2.68478 18.2513 2.29348 17.3066 C2 16.5981 2 15.6999 2 13.9035 L2 13.1324 C2 10.6083 2 9.34622 2.56813 8.4191 C2.88604 7.90033 3.3222 7.46416 3.84097 7.14626 C4.76808 6.57813 6.03013 6.57812 8.55422 6.57812 L10.8675 6.57812 C13.3916 6.57812 14.6536 6.57813 15.5807 7.14626 C16.0995 7.46416 16.5357 7.90033 16.8536 8.4191 C17.4217 9.34622 17.4217 10.6083 17.4217 13.1324 L17.4217 13.9035 C17.4217 15.6999 17.4217 16.5981 17.1282 17.3066 C16.7369 18.2513 15.9864 19.0018 15.0417 19.3931 C14.593 19.579 14.0682 19.6471 13.2874 19.6721 C12.4547 19.6987 12.0383 19.712 11.7191 19.9009 C11.3999 20.0897 11.1996 20.4282 10.7988 21.1053 L10.5487 21.5277 Z M 13.0843 14.289 C 13.6167 14.289 14.0482 13.8574 14.0482 13.3251 C 14.0482 12.7928 13.6167 12.3613 13.0843 12.3613 C 12.552 12.3613 12.1205 12.7928 12.1205 13.3251 C 12.1205 13.8574 12.552 14.289 13.0843 14.289 Z M10.6747 13.3251 C10.6747 12.7928 10.2432 12.3613 9.71084 12.3613 C9.17852 12.3613 8.74699 12.7928 8.74699 13.3251 C8.74699 13.8574 9.17852 14.289 9.71084 14.289 C10.2432 14.289 10.6747 13.8574 10.6747 13.3251 Z M 6.33735 14.289 C 6.86967 14.289 7.30121 13.8574 7.30121 13.3251 C 7.30121 12.7928 6.86967 12.3613 6.33735 12.3613 C 5.80503 12.3613 5.37349 12.7928 5.37349 13.3251 C 5.37349 13.8574 5.80503 14.289 6.33735 14.289 Z" fill="#FFFFFF" />
  <path d="M15.1696 2C16.3214 1.99999 17.2372 1.99999 17.9717 2.06982C18.7249 2.14143 19.3617 2.29154 19.9289 2.63915C20.5125 2.9968 21.0032 3.48748 21.3608 4.0711C21.7085 4.63836 21.8586 5.27514 21.9302 6.02829C22 6.76279 22 7.67871 22 8.83039V9.61699C22 10.4367 22 11.0886 21.9639 11.6173C21.927 12.1581 21.85 12.6226 21.6698 13.0575C21.2296 14.1202 20.3853 14.9646 19.3225 15.4048C19.2959 15.4158 19.2692 15.4265 19.2423 15.4367C19.114 15.4858 19.0042 15.5278 18.9077 15.5591C18.9217 15.0903 18.9217 14.5563 18.9217 13.9537V13.0614C18.9217 11.8598 18.9217 10.8532 18.8439 10.0349C18.7625 9.17817 18.5853 8.37421 18.1325 7.63536C17.6909 6.91475 17.0851 6.30889 16.3645 5.8673C15.6256 5.41453 14.8217 5.23733 13.9649 5.15588C13.1466 5.07807 12.14 5.07809 10.9384 5.07812H8.48326C7.66717 5.0781 6.94105 5.07809 6.30276 5.10245C6.3325 4.9994 6.37324 4.88128 6.42106 4.74264C6.5024 4.50682 6.60519 4.28381 6.73554 4.0711C7.09318 3.48748 7.58386 2.9968 8.16748 2.63915C8.73473 2.29154 9.37152 2.14143 10.1247 2.06982C10.8592 1.99999 11.775 1.99999 12.9268 2H15.1696Z" fill="#FFFFFF" />
</svg>