<svg xmlns="http://www.w3.org/2000/svg" width="24" height="24" viewBox="0 0 24 24" fill="none">
  <path fill-rule="nonzero" clip-rule="nonzero" d="M10.4036 22.4797 C9.9938 23.1721 8.97002 23.1721 8.5602 22.4797 L8.28514 22.015 C7.84431 21.2703 7.6239 20.8979 7.27278 20.6902 C6.92167 20.4825 6.46368 20.4678 5.5477 20.4385 C4.68882 20.4111 4.11158 20.3361 3.61802 20.1317 C2.57886 19.7012 1.75326 18.8756 1.32282 17.8365 C1 17.0571 1 16.0691 1 14.093 L1 13.2448 C1 10.4683 1 9.08006 1.62495 8.06023 C1.97464 7.48958 2.45442 7.0098 3.02507 6.66011 C4.04489 6.03516 5.43314 6.03516 8.20964 6.03516 L10.7542 6.03516 C13.5307 6.03516 14.919 6.03516 15.9388 6.66011 C16.5094 7.0098 16.9892 7.48958 17.3389 8.06023 C17.9639 9.08006 17.9639 10.4683 17.9639 13.2448 L17.9639 14.093 C17.9639 16.0691 17.9639 17.0571 17.641 17.8365 C17.2106 18.8756 16.385 19.7012 15.3458 20.1317 C14.8523 20.3361 14.275 20.4111 13.4161 20.4385 C12.5001 20.4678 12.0422 20.4825 11.691 20.6902 C11.3399 20.8979 11.1195 21.2703 10.6787 22.015 L10.4036 22.4797 Z M 13.1928 14.5171 C 13.7783 14.5171 14.253 14.0424 14.253 13.4568 C 14.253 12.8713 13.7783 12.3966 13.1928 12.3966 C 12.6072 12.3966 12.1325 12.8713 12.1325 13.4568 C 12.1325 14.0424 12.6072 14.5171 13.1928 14.5171 Z M10.5422 13.4568 C10.5422 12.8713 10.0675 12.3966 9.48193 12.3966 C8.89637 12.3966 8.42169 12.8713 8.42169 13.4568 C8.42169 14.0424 8.89637 14.5171 9.48193 14.5171 C10.0675 14.5171 10.5422 14.0424 10.5422 13.4568 Z M 5.77108 14.5171 C 6.35664 14.5171 6.83133 14.0424 6.83133 13.4568 C 6.83133 12.8713 6.35664 12.3966 5.77108 12.3966 C 5.18553 12.3966 4.71084 12.8713 4.71084 13.4568 C 4.71084 14.0424 5.18553 14.5171 5.77108 14.5171 Z" fill="#FFFFFF" />
  <path opacity="0.5" d="M15.486 1C16.7529 0.999992 17.7603 0.999986 18.5683 1.07681C19.3967 1.15558 20.0972 1.32069 20.7212 1.70307C21.3632 2.09648 21.9029 2.63623 22.2963 3.27821C22.6787 3.90219 22.8438 4.60265 22.9226 5.43112C22.9994 6.23907 22.9994 7.24658 22.9994 8.51343V9.37869C22.9994 10.2803 22.9994 10.9975 22.9597 11.579C22.9191 12.174 22.8344 12.6848 22.6362 13.1632C22.152 14.3323 21.2232 15.2611 20.0541 15.7453C20.0249 15.7574 19.9955 15.7691 19.966 15.7804C19.8249 15.8343 19.7039 15.8806 19.5978 15.915H17.9477C17.9639 15.416 17.9639 14.8217 17.9639 14.093V13.2448C17.9639 10.4683 17.9639 9.08006 17.3389 8.06023C16.9892 7.48958 16.5094 7.0098 15.9388 6.66011C14.919 6.03516 13.5307 6.03516 10.7542 6.03516H8.20964C7.22423 6.03516 6.41369 6.03516 5.73242 6.06309V4.4127C5.76513 4.29934 5.80995 4.16941 5.86255 4.0169C5.95202 3.75751 6.06509 3.51219 6.20848 3.27821C6.60188 2.63623 7.14163 2.09648 7.78361 1.70307C8.40759 1.32069 9.10805 1.15558 9.93651 1.07681C10.7445 0.999986 11.7519 0.999992 13.0188 1H15.486Z" fill="#FFFFFF" />
</svg>