<svg xmlns="http://www.w3.org/2000/svg" width="24" height="24" viewBox="0 0 24 24" fill="none">
  <path fill-rule="nonzero" clip-rule="nonzero" d="M 13.3365 1.25 H 15.6634 C 16.8583 1.24999 17.8086 1.24999 18.5706 1.32244 C 19.352 1.39674 20.0127 1.55247 20.6012 1.91312 C 21.2067 2.28418 21.7158 2.79326 22.0868 3.39876 C 22.4475 3.9873 22.6032 4.64796 22.6775 5.42935 C 22.75 6.19141 22.75 7.14162 22.7499 8.33653 V 9.15226 C 22.75 10.0028 22.75 10.6794 22.7125 11.2279 C 22.6742 11.7891 22.5943 12.2709 22.4074 12.7221 C 21.9507 13.8247 21.0746 14.7008 19.972 15.1575 C 19.5929 15.3146 19.1887 15.397 18.7308 15.4419 C 18.7255 15.5812 18.7188 15.7137 18.7102 15.8397 C 18.6695 16.4357 18.5848 16.9436 18.3884 17.4178 C 17.9063 18.5817 16.9816 19.5064 15.8177 19.9885 C 15.2209 20.2357 14.5625 20.3081 13.7346 20.3346 C 13.2892 20.3489 13.0044 20.3587 12.7881 20.385 C 12.5837 20.41 12.5069 20.4433 12.4654 20.4679 C 12.4193 20.4951 12.3557 20.5451 12.2447 20.6979 C 12.1249 20.863 11.9891 21.0907 11.7742 21.4539 L 11.5147 21.8922 C 10.8378 23.0359 9.16217 23.0359 8.48523 21.8922 L 8.2258 21.4539 C 8.01082 21.0907 7.87511 20.863 7.75524 20.6979 C 7.64427 20.5451 7.58064 20.4951 7.53453 20.4679 C 7.49305 20.4433 7.41631 20.41 7.21182 20.3851 C 6.99552 20.3587 6.71078 20.3489 6.26533 20.3346 C 5.43745 20.3081 4.77912 20.2357 4.18225 19.9885 C 3.01837 19.5064 2.09367 18.5817 1.61157 17.4178 C 1.41517 16.9436 1.33047 16.4357 1.2898 15.8397 C 1.24999 15.2563 1.25 14.5361 1.25 13.6274 V 12.7613 C 1.24999 11.4848 1.24999 10.4732 1.32705 9.6627 C 1.40595 8.83288 1.57089 8.13673 1.94996 7.51814 C 2.34162 6.879 2.87899 6.34163 3.51813 5.94996 C 4.13672 5.57089 4.83287 5.40595 5.66269 5.32705 C 5.87363 5.30699 6.0982 5.29216 6.33751 5.28118 C 6.41754 4.56134 6.57708 3.94704 6.91307 3.39877 C 7.28412 2.79326 7.7932 2.28418 8.3987 1.91312 C 8.98723 1.55247 9.64789 1.39674 10.4293 1.32244 C 11.1913 1.24999 12.1416 1.24999 13.3365 1.25 Z M 7.85331 5.2512 C 8.1401 5.25 8.44243 5.25 8.7613 5.25 H 11.2387 C 12.5153 5.24999 13.5268 5.24999 14.3373 5.32705 C 15.1671 5.40595 15.8633 5.57089 16.4819 5.94996 C 17.121 6.34163 17.6584 6.879 18.05 7.51814 C 18.4291 8.13673 18.5941 8.83288 18.673 9.6627 C 18.75 10.4732 18.75 11.4847 18.75 12.7613 V 13.6274 C 18.75 13.7307 18.75 13.8316 18.7499 13.9301 C 19.0253 13.8944 19.2262 13.8428 19.398 13.7717 C 20.1331 13.4672 20.7171 12.8832 21.0216 12.1481 C 21.1201 11.9101 21.1829 11.6106 21.216 11.1258 C 21.2495 10.6343 21.2499 10.0089 21.2499 9.12503 V 8.37503 C 21.2499 7.13296 21.2492 6.25408 21.1842 5.57133 C 21.1204 4.89973 20.9998 4.49574 20.8079 4.18251 C 20.5605 3.77884 20.2211 3.43945 19.8174 3.19208 C 19.5042 3.00013 19.1002 2.87956 18.4286 2.81571 C 17.7459 2.75079 16.867 2.75 15.6249 2.75 H 13.3749 C 12.1329 2.75 11.254 2.75079 10.5713 2.81571 C 9.89967 2.87956 9.49568 3.00013 9.18245 3.19208 C 8.77879 3.43945 8.4394 3.77884 8.19203 4.18251 C 8.03147 4.44453 7.92229 4.76687 7.85331 5.2512 Z M 5.80467 6.82031 C 5.08465 6.88877 4.64517 7.01855 4.30188 7.22892 C 3.86458 7.4969 3.4969 7.86458 3.22892 8.30189 C 3.01855 8.64518 2.88877 9.08466 2.82031 9.80468 C 2.75079 10.5359 2.75 11.4761 2.75 12.8 V 13.6 C 2.75 14.5422 2.75041 15.2112 2.78632 15.7376 C 2.82178 16.2573 2.88931 16.5828 2.99739 16.8438 C 3.32725 17.6401 3.95994 18.2728 4.75628 18.6027 C 5.09046 18.7411 5.52102 18.81 6.31328 18.8354 L 6.34438 18.8364 C 6.74979 18.8493 7.1024 18.8606 7.39344 18.8961 C 7.70371 18.9339 8.00853 19.0055 8.29822 19.1768 C 8.58327 19.3454 8.78917 19.569 8.96888 19.8164 C 9.13514 20.0453 9.30644 20.3347 9.50062 20.6629 L 9.77606 21.1282 C 9.82147 21.2049 9.90074 21.25 9.99998 21.25 C 10.0992 21.25 10.1785 21.2049 10.2239 21.1282 L 10.4994 20.6628 C 10.6935 20.3347 10.8648 20.0453 11.0311 19.8164 C 11.2108 19.569 11.4167 19.3454 11.7018 19.1768 C 11.9914 19.0055 12.2963 18.9339 12.6065 18.8961 C 12.8976 18.8606 13.2502 18.8493 13.6556 18.8364 L 13.6867 18.8354 C 14.479 18.81 14.9095 18.7411 15.2437 18.6027 C 16.0401 18.2728 16.6728 17.6401 17.0026 16.8438 C 17.1107 16.5828 17.1782 16.2573 17.2137 15.7376 C 17.2496 15.2112 17.25 14.5422 17.25 13.6 V 12.8 C 17.25 11.4761 17.2492 10.5359 17.1797 9.80468 C 17.1112 9.08466 16.9814 8.64518 16.7711 8.30189 C 16.5031 7.86458 16.1354 7.4969 15.6981 7.22892 C 15.3548 7.01855 14.9154 6.88877 14.1953 6.82031 C 13.4641 6.75079 12.5239 6.75 11.2 6.75 H 8.8 C 7.47611 6.75 6.53585 6.75079 5.80467 6.82031 Z" fill="#FFFFFF" />
  <path d="M7.5 13C7.5 13.5523 7.05229 14 6.5 14C5.94772 14 5.5 13.5523 5.5 13C5.5 12.4477 5.94772 12 6.5 12C7.05229 12 7.5 12.4477 7.5 13Z" fill="#FFFFFF" />
  <path d="M11 13C11 13.5523 10.5523 14 10 14C9.44772 14 9 13.5523 9 13C9 12.4477 9.44772 12 10 12C10.5523 12 11 12.4477 11 13Z" fill="#FFFFFF" />
  <path d="M14.5 13C14.5 13.5523 14.0523 14 13.5 14C12.9477 14 12.5 13.5523 12.5 13C12.5 12.4477 12.9477 12 13.5 12C14.0523 12 14.5 12.4477 14.5 13Z" fill="#FFFFFF" />
</svg>