<svg xmlns="http://www.w3.org/2000/svg" width="24" height="24" viewBox="0 0 24 24" fill="none">
  <path fill-rule="nonzero" clip-rule="nonzero" d="M 18 14 C 18 18.4183 14.4183 22 10 22 C 8.76449 22 7.5944 21.7199 6.54976 21.2198 C 6.19071 21.0479 5.78393 20.9876 5.39939 21.0904 L 4.17335 21.4185 C 3.20701 21.677 2.32295 20.793 2.58151 19.8267 L 2.90955 18.6006 C 3.01245 18.2161 2.95209 17.8093 2.7802 17.4502 C 2.28008 16.4056 2 15.2355 2 14 C 2 9.58172 5.58172 6 10 6 C 14.4183 6 18 9.58172 18 14 Z M 6.5 15 C 7.05228 15 7.5 14.5523 7.5 14 C 7.5 13.4477 7.05228 13 6.5 13 C 5.94772 13 5.5 13.4477 5.5 14 C 5.5 14.5523 5.94772 15 6.5 15 Z M 10 15 C 10.5523 15 11 14.5523 11 14 C 11 13.4477 10.5523 13 10 13 C 9.44772 13 9 13.4477 9 14 C 9 14.5523 9.44772 15 10 15 Z M 13.5 15 C 14.0523 15 14.5 14.5523 14.5 14 C 14.5 13.4477 14.0523 13 13.5 13 C 12.9477 13 12.5 13.4477 12.5 14 C 12.5 14.5523 12.9477 15 13.5 15 Z" fill="#FFFFFF" />
  <path opacity="0.6" d="M17.9842 14.5084C18.0921 14.4638 18.1986 14.4163 18.3035 14.3661C18.5952 14.2264 18.9257 14.1774 19.2381 14.261L20.2343 14.5275C21.0194 14.7376 21.7377 14.0193 21.5277 13.2342L21.2611 12.238C21.1775 11.9256 21.2266 11.595 21.3662 11.3033C21.7726 10.4545 22.0001 9.50385 22.0001 8.5C22.0001 4.91015 19.09 2 15.5001 2C12.7901 2 10.4674 3.6585 9.4917 6.0159C9.65982 6.00535 9.82936 6 10.0001 6C14.4184 6 18.0001 9.58172 18.0001 14C18.0001 14.1708 17.9948 14.3403 17.9842 14.5084Z" fill="#FFFFFF" />
</svg>