<svg xmlns="http://www.w3.org/2000/svg" width="24" height="24" viewBox="0 0 24 24" fill="none">
  <path fill-rule="nonzero" clip-rule="nonzero" d="M 15.124 4.88497 C 15.1368 4.89639 15.1497 4.90785 15.1626 4.91933 L 19.1765 8.48717 C 19.9254 9.15286 20.5463 9.7047 20.9726 10.2057 C 21.4206 10.7322 21.7396 11.299 21.7396 12.0005 C 21.7396 12.7019 21.4206 13.2687 20.9726 13.7952 C 20.5463 14.2962 19.9254 14.848 19.1765 15.5137 L 15.1626 19.0816 C 15.1497 19.0931 15.1368 19.1045 15.124 19.1159 C 14.7996 19.4044 14.4968 19.6736 14.2352 19.8464 C 13.9783 20.016 13.5112 20.2623 12.9879 20.0273 C 12.4647 19.7923 12.3385 19.2796 12.2946 18.9749 C 12.2499 18.6646 12.2499 18.2595 12.25 17.8253 C 12.25 17.8081 12.25 17.7909 12.25 17.7736 V 16.2051 C 10.7985 16.3051 9.32763 16.6906 8.04102 17.3175 C 6.52808 18.0547 5.31979 19.1 4.66405 20.3491 C 4.50365 20.6546 4.1555 20.8112 3.82047 20.7286 C 3.48544 20.646 3.25 20.3455 3.25 20.0005 C 3.25 15.2795 4.63138 12.2055 6.6065 10.3157 C 8.3281 8.66845 10.4264 7.99252 12.25 7.85106 V 6.2273 C 12.25 6.21002 12.25 6.19278 12.25 6.17558 C 12.2499 5.74145 12.2499 5.33628 12.2946 5.02602 C 12.3385 4.72135 12.4647 4.20856 12.9879 3.97357 C 13.5112 3.73859 13.9783 3.98495 14.2352 4.15455 C 14.4968 4.32726 14.7996 4.59649 15.124 4.88497 Z M13.7531 5.67741 C13.7504 5.8263 13.75 6.0066 13.75 6.2273 L13.75 8.57188 C13.75 8.9861 13.4142 9.32188 13 9.32188 C11.3104 9.32188 9.26355 9.84942 7.6435 11.3995 C6.34242 12.6444 5.25269 14.6103 4.88393 17.6572 C5.6098 16.9815 6.46516 16.4168 7.38398 15.9691 C9.09995 15.133 11.0874 14.679 13 14.679 C13.4142 14.679 13.75 15.0148 13.75 15.429 L13.75 17.7736 C13.75 17.9943 13.7504 18.1746 13.7531 18.3235 C13.8661 18.2266 14.0011 18.1071 14.1661 17.9605 L18.1384 14.4295 C18.9395 13.7174 19.48 13.2347 19.8302 12.8231 C20.1665 12.4279 20.2396 12.1971 20.2396 12.0005 C20.2396 11.8038 20.1665 11.573 19.8302 11.1778 C19.48 10.7662 18.9395 10.2835 18.1384 9.57137 L14.1661 6.04044 C14.0011 5.89382 13.8661 5.77431 13.7531 5.67741 Z" fill="#FFFFFF" />
</svg>