<svg xmlns="http://www.w3.org/2000/svg" width="24" height="24" viewBox="0 0 24 24" fill="none">
  <path fill-rule="nonzero" clip-rule="nonzero" d="M 12 1.25 C 12.4142 1.25 12.75 1.58579 12.75 2 V 8.18934 L 14.4697 6.46967 C 14.7626 6.17678 15.2374 6.17678 15.5303 6.46967 C 15.8232 6.76256 15.8232 7.23744 15.5303 7.53033 L 12.5303 10.5303 C 12.2374 10.8232 11.7626 10.8232 11.4697 10.5303 L 8.46967 7.53033 C 8.17678 7.23744 8.17678 6.76256 8.46967 6.46967 C 8.76256 6.17678 9.23744 6.17678 9.53033 6.46967 L 11.25 8.18934 V 2 C 11.25 1.58579 11.5858 1.25 12 1.25 Z M 16.2536 2.05354 C 16.2941 1.64131 16.6612 1.34001 17.0734 1.38056 C 18.7643 1.54688 20.0677 1.93602 21.0659 2.93422 C 21.9607 3.82903 22.366 4.96906 22.5603 6.41379 C 22.75 7.82528 22.75 9.63432 22.75 11.9427 V 12.0575 C 22.75 12.3718 22.75 12.677 22.7495 12.9731 C 22.7498 12.982 22.75 12.991 22.75 13 C 22.75 13.0099 22.7498 13.0197 22.7494 13.0295 C 22.746 14.8816 22.7225 16.3794 22.5603 17.5864 C 22.366 19.0311 21.9607 20.1711 21.0659 21.066 C 20.1711 21.9608 19.031 22.3661 17.5863 22.5603 C 16.1748 22.7501 14.3658 22.7501 12.0574 22.7501 H 11.9426 C 9.63423 22.7501 7.82519 22.7501 6.41371 22.5603 C 4.96897 22.3661 3.82895 21.9608 2.93414 21.066 C 2.03933 20.1711 1.63399 19.0311 1.43975 17.5864 C 1.27747 16.3794 1.25397 14.8816 1.25057 13.0295 C 1.25019 13.0197 1.25 13.0099 1.25 13 C 1.25 12.991 1.25016 12.982 1.25047 12.9731 C 1.25 12.677 1.25 12.3718 1.25 12.0575 V 11.9427 C 1.24999 9.63432 1.24998 7.82528 1.43975 6.41379 C 1.63399 4.96906 2.03933 3.82903 2.93414 2.93422 C 3.93234 1.93602 5.23569 1.54688 6.92658 1.38056 C 7.33881 1.34001 7.70585 1.64131 7.7464 2.05354 C 7.78695 2.46576 7.48564 2.8328 7.07342 2.87335 C 5.51402 3.02674 4.62954 3.36014 3.9948 3.99488 C 3.42514 4.56454 3.09825 5.33526 2.92637 6.61366 C 2.75159 7.91364 2.75 9.62186 2.75 12.0001 C 2.75 12.0842 2.75 12.1675 2.75001 12.25 H 5.16026 C 5.20556 12.25 5.25031 12.25 5.29454 12.2499 C 6.06705 12.2491 6.67886 12.2485 7.22924 12.5016 C 7.77961 12.7547 8.17729 13.2197 8.67941 13.8067 C 8.70816 13.8403 8.73725 13.8743 8.76673 13.9087 L 9.37216 14.6151 C 10.0059 15.3544 10.1838 15.5373 10.3975 15.6356 C 10.6113 15.734 10.8659 15.75 11.8397 15.75 H 12.1603 C 13.1341 15.75 13.3887 15.734 13.6025 15.6356 C 13.8162 15.5373 13.9941 15.3544 14.6278 14.6151 L 15.2333 13.9087 C 15.2628 13.8743 15.2918 13.8403 15.3206 13.8067 C 15.8227 13.2197 16.2204 12.7547 16.7708 12.5016 C 17.3211 12.2485 17.933 12.2491 18.7055 12.2499 C 18.7497 12.25 18.7944 12.25 18.8397 12.25 H 21.25 C 21.25 12.1675 21.25 12.0842 21.25 12.0001 C 21.25 9.62186 21.2484 7.91364 21.0736 6.61366 C 20.9018 5.33526 20.5749 4.56454 20.0052 3.99488 C 19.3705 3.36014 18.486 3.02674 16.9266 2.87335 C 16.5144 2.8328 16.2131 2.46576 16.2536 2.05354 Z M 21.2465 13.75 H 18.8397 C 17.8659 13.75 17.6113 13.766 17.3975 13.8644 C 17.1838 13.9627 17.0059 14.1456 16.3722 14.8849 L 15.7667 15.5913 C 15.7372 15.6257 15.7082 15.6597 15.6794 15.6933 C 15.1773 16.2803 14.7796 16.7453 14.2292 16.9984 C 13.6789 17.2515 13.067 17.2509 12.2945 17.2501 C 12.2503 17.25 12.2056 17.25 12.1603 17.25 H 11.8397 C 11.7944 17.25 11.7497 17.25 11.7055 17.2501 C 10.933 17.2509 10.3211 17.2515 9.77076 16.9984 C 9.22039 16.7453 8.82271 16.2803 8.32059 15.6933 C 8.29184 15.6597 8.26275 15.6257 8.23327 15.5913 L 7.62784 14.8849 C 6.9941 14.1456 6.81622 13.9627 6.60245 13.8644 C 6.38869 13.766 6.13407 13.75 5.16026 13.75 H 2.7535 C 2.76294 15.2527 2.79778 16.4301 2.92637 17.3865 C 3.09825 18.6649 3.42514 19.4356 3.9948 20.0053 C 4.56445 20.5749 5.33517 20.9018 6.61358 21.0737 C 7.91356 21.2485 9.62177 21.2501 12 21.2501 C 14.3782 21.2501 16.0864 21.2485 17.3864 21.0737 C 18.6648 20.9018 19.4355 20.5749 20.0052 20.0053 C 20.5749 19.4356 20.9018 18.6649 21.0736 17.3865 C 21.2022 16.4301 21.2371 15.2527 21.2465 13.75 Z" fill="#FFFFFF" />
</svg>