<svg xmlns="http://www.w3.org/2000/svg" width="24" height="24" viewBox="0 0 24 24" fill="none">
  <path fill-rule="nonzero" clip-rule="nonzero" d="M 2 12 C 2 7.28595 2 4.92893 3.46447 3.46447 C 4.92893 2 7.28595 2 12 2 C 16.714 2 19.0711 2 20.5355 3.46447 C 22 4.92893 22 7.28595 22 12 C 22 16.714 22 19.0711 20.5355 20.5355 C 19.0711 22 16.714 22 12 22 C 7.28595 22 4.92893 22 3.46447 20.5355 C 2 19.0711 2 16.714 2 12 Z M5 8.49982 C5.41783 8.18597 5.9372 8 6.5 8 L17.5 8 C18.0628 8 18.5822 8.18597 19 8.49982 L19 7.5 C19 6.67157 18.3284 6 17.5 6 L6.5 6 C5.67157 6 5 6.67157 5 7.5 L5 8.49982 Z M 5 10.5 V 11.4998 C 5.41783 11.186 5.9372 11 6.5 11 H 17.5 C 18.0628 11 18.5822 11.186 19 11.4998 V 10.5 C 19 9.67157 18.3284 9 17.5 9 H 6.5 C 5.67157 9 5 9.67157 5 10.5 Z M20 14.2502 L18.9791 14.2501 L18.9791 13.2503 C18.8603 12.5407 18.2432 12 17.4998 12 L6.49983 12 C5.75646 12 5.13939 12.5407 5.02051 13.2503 L5.02051 14.2501 L4 14.2502 C3.58579 14.2502 3.25 14.5859 3.25 15.0002 C3.25 15.4144 3.58579 15.7502 4 15.7502 L6.30147 15.7502 C7.17044 15.7502 7.39887 15.7631 7.59386 15.8425 C7.6145 15.8509 7.63492 15.8599 7.65508 15.8694 C7.84554 15.9591 8.00971 16.1184 8.59805 16.7579 L8.70937 16.879 C9.14654 17.3551 9.49191 17.7311 9.94463 17.9582 C10.0289 18.0005 10.1153 18.0384 10.2035 18.0718 C10.6771 18.2512 11.1877 18.2508 11.834 18.2502 L11.9462 18.2502 L12.052 18.2502 C12.6634 18.2507 13.1464 18.2511 13.5987 18.0892 C13.683 18.059 13.7658 18.0247 13.8467 17.9864 C14.2811 17.7811 14.6223 17.4393 15.0543 17.0066 L15.3588 16.7021 C15.9801 16.0807 16.1524 15.9272 16.3501 15.8453 C16.5477 15.7634 16.7782 15.7502 17.6569 15.7502 L20 15.7502 C20.4142 15.7502 20.75 15.4144 20.75 15.0002 C20.75 14.5859 20.4142 14.2502 20 14.2502 Z" fill="#FFFFFF" />
</svg>