<svg xmlns="http://www.w3.org/2000/svg" width="24" height="24" viewBox="0 0 24 24" fill="none">
  <path fill-rule="nonzero" clip-rule="nonzero" d="M 11.9426 1.25 H 12.0574 C 14.3658 1.24999 16.1748 1.24998 17.5863 1.43975 C 19.031 1.63399 20.1711 2.03933 21.0659 2.93414 C 21.9607 3.82895 22.366 4.96897 22.5603 6.41371 C 22.75 7.82519 22.75 9.63423 22.75 11.9426 V 12.0574 C 22.75 12.3718 22.75 12.6769 22.7495 12.9731 C 22.7498 12.982 22.75 12.991 22.75 13 C 22.75 13.0099 22.7498 13.0197 22.7494 13.0296 C 22.746 14.8816 22.7225 16.3793 22.5603 17.5863 C 22.366 19.031 21.9607 20.1711 21.0659 21.0659 C 20.1711 21.9607 19.031 22.366 17.5863 22.5603 C 16.1748 22.75 14.3658 22.75 12.0574 22.75 H 11.9426 C 9.63423 22.75 7.82519 22.75 6.41371 22.5603 C 4.96897 22.366 3.82895 21.9607 2.93414 21.0659 C 2.03933 20.1711 1.63399 19.031 1.43975 17.5863 C 1.27747 16.3793 1.25397 14.8816 1.25057 13.0295 C 1.25019 13.0197 1.25 13.0099 1.25 13 C 1.25 12.991 1.25016 12.982 1.25047 12.9731 C 1.25 12.6769 1.25 12.3718 1.25 12.0574 V 11.9426 C 1.24999 9.63423 1.24998 7.82519 1.43975 6.41371 C 1.63399 4.96897 2.03933 3.82895 2.93414 2.93414 C 3.82895 2.03933 4.96897 1.63399 6.41371 1.43975 C 7.82519 1.24998 9.63423 1.24999 11.9426 1.25 Z M 2.7535 13.75 C 2.76294 15.2526 2.79778 16.43 2.92637 17.3864 C 3.09825 18.6648 3.42514 19.4355 3.9948 20.0052 C 4.56445 20.5749 5.33517 20.9018 6.61358 21.0736 C 7.91356 21.2484 9.62177 21.25 12 21.25 C 14.3782 21.25 16.0864 21.2484 17.3864 21.0736 C 18.6648 20.9018 19.4355 20.5749 20.0052 20.0052 C 20.5749 19.4355 20.9018 18.6648 21.0736 17.3864 C 21.2022 16.43 21.2371 15.2526 21.2465 13.75 H 18.8397 C 17.8659 13.75 17.6113 13.766 17.3975 13.8644 C 17.1838 13.9627 17.0059 14.1456 16.3722 14.8849 L 15.7667 15.5913 C 15.7372 15.6257 15.7082 15.6597 15.6794 15.6933 C 15.1773 16.2803 14.7796 16.7453 14.2292 16.9984 C 13.6789 17.2515 13.067 17.2509 12.2945 17.2501 C 12.2503 17.25 12.2056 17.25 12.1603 17.25 H 11.8397 C 11.7944 17.25 11.7497 17.25 11.7055 17.2501 C 10.933 17.2509 10.3211 17.2515 9.77076 16.9984 C 9.22039 16.7453 8.82271 16.2803 8.32059 15.6933 C 8.29184 15.6597 8.26275 15.6257 8.23327 15.5913 L 7.62784 14.8849 C 6.9941 14.1456 6.81622 13.9627 6.60245 13.8644 C 6.38869 13.766 6.13407 13.75 5.16026 13.75 H 2.7535 Z M21.25 12.25 C21.25 12.1675 21.25 12.0842 21.25 12 C21.25 9.62177 21.2484 7.91356 21.0736 6.61358 C20.9018 5.33517 20.5749 4.56445 20.0052 3.9948 C19.4355 3.42514 18.6648 3.09825 17.3864 2.92637 C16.0864 2.75159 14.3782 2.75 12 2.75 C9.62177 2.75 7.91356 2.75159 6.61358 2.92637 C5.33517 3.09825 4.56445 3.42514 3.9948 3.9948 C3.42514 4.56445 3.09825 5.33517 2.92637 6.61358 C2.75159 7.91356 2.75 9.62177 2.75 12 C2.75 12.0842 2.75 12.1675 2.75001 12.25 L5.16026 12.25 C5.20556 12.25 5.25031 12.25 5.29454 12.2499 C6.06705 12.2491 6.67886 12.2485 7.22924 12.5016 C7.77961 12.7547 8.17729 13.2197 8.67941 13.8067 C8.70816 13.8403 8.73725 13.8743 8.76673 13.9087 L9.37216 14.6151 C10.0059 15.3544 10.1838 15.5373 10.3975 15.6356 C10.6113 15.734 10.8659 15.75 11.8397 15.75 L12.1603 15.75 C13.1341 15.75 13.3887 15.734 13.6025 15.6356 C13.8162 15.5373 13.9941 15.3544 14.6278 14.6151 L15.2333 13.9087 C15.2628 13.8743 15.2918 13.8403 15.3206 13.8067 C15.8227 13.2197 16.2204 12.7547 16.7708 12.5016 C17.3211 12.2485 17.933 12.2491 18.7055 12.2499 C18.7497 12.25 18.7944 12.25 18.8397 12.25 L21.25 12.25 Z" fill="#FFFFFF" />
</svg>