<svg xmlns="http://www.w3.org/2000/svg" width="24" height="24" viewBox="0 0 24 24" fill="none">
  <path d="M3.46447 20.5355C4.92893 22 7.28595 22 12 22C16.714 22 19.0711 22 20.5355 20.5355C21.8063 19.2647 21.9744 17.3219 21.9966 13.75H18.8397C17.8659 13.75 17.6113 13.766 17.3975 13.8644C17.1838 13.9627 17.0059 14.1456 16.3722 14.8849L15.6794 15.6933C15.1773 16.2803 14.7796 16.7453 14.2292 16.9984C13.6789 17.2515 13.067 17.2509 12.2945 17.2501H11.7055C10.933 17.2509 10.3211 17.2515 9.77076 16.9984C9.22038 16.7453 8.82271 16.2803 8.32058 15.6933L7.62784 14.8849C6.9941 14.1456 6.81622 13.9627 6.60245 13.8644C6.38869 13.766 6.13407 13.75 5.16026 13.75H2.00339C2.02561 17.3219 2.19367 19.2647 3.46447 20.5355Z" fill="#FFFFFF" />
  <path fill-rule="evenodd" clip-rule="evenodd" d="M7.25 7C7.25 6.58579 7.58579 6.25 8 6.25H16C16.4142 6.25 16.75 6.58579 16.75 7C16.75 7.41421 16.4142 7.75 16 7.75H8C7.58579 7.75 7.25 7.41421 7.25 7Z" fill="#FFFFFF" />
  <path fill-rule="nonzero" clip-rule="nonzero" d="M 12 2 C 16.714 2 19.0711 2 20.5355 3.46447 C 22 4.92893 22 7.28595 22 12 L 22 12.25 L 18.7055 12.2499 C 17.933 12.2491 17.3211 12.2485 16.7708 12.5016 C 16.2204 12.7547 15.8227 13.2197 15.3206 13.8067 L 14.6278 14.6151 C 13.9941 15.3544 13.8162 15.5373 13.6025 15.6356 C 13.3887 15.734 13.1341 15.75 12.1603 15.75 H 11.8397 C 10.8659 15.75 10.6113 15.734 10.3975 15.6356 C 10.1838 15.5373 10.0059 15.3544 9.37216 14.6151 L 8.67941 13.8067 C 8.17729 13.2197 7.77961 12.7547 7.22924 12.5016 C 6.67886 12.2485 6.06705 12.2491 5.29454 12.2499 L 2.00001 12.25 L 2 12 C 2 7.28595 2 4.92893 3.46447 3.46447 C 4.92893 2 7.28595 2 12 2 Z M9.25 10.5 C9.25 10.9142 9.58579 11.25 10 11.25 L14 11.25 C14.4142 11.25 14.75 10.9142 14.75 10.5 C14.75 10.0858 14.4142 9.75 14 9.75 L10 9.75 C9.58579 9.75 9.25 10.0858 9.25 10.5 Z" fill="#FFFFFF" />
</svg>