<svg xmlns="http://www.w3.org/2000/svg" width="24" height="24" viewBox="0 0 24 24" fill="none">
  <path fill-rule="nonzero" clip-rule="nonzero" d="M 10.9463 1.25 H 13.0537 C 14.1865 1.24998 15.1123 1.24996 15.8431 1.34822 C 16.6071 1.45093 17.2694 1.67321 17.7981 2.2019 C 18.3268 2.7306 18.5491 3.39294 18.6518 4.15689 C 18.7023 4.53259 18.7268 4.95979 18.7388 5.44015 C 19.797 5.61086 20.6642 5.94692 21.3588 6.64144 C 22.1071 7.3898 22.4392 8.33875 22.5969 9.51117 C 22.75 10.6504 22.75 12.106 22.75 13.9438 V 14.0566 C 22.75 15.8944 22.75 17.35 22.5969 18.4892 C 22.4392 19.6616 22.1071 20.6106 21.3588 21.359 C 20.6104 22.1073 19.6614 22.4394 18.489 22.5971 C 17.3498 22.7502 15.8942 22.7502 14.0564 22.7502 H 9.94359 C 8.10583 22.7502 6.65019 22.7502 5.51098 22.5971 C 4.33856 22.4394 3.38961 22.1073 2.64124 21.359 C 1.89288 20.6106 1.56076 19.6616 1.40314 18.4892 C 1.24997 17.35 1.24998 15.8944 1.25 14.0566 V 13.9438 C 1.24998 12.106 1.24997 10.6504 1.40314 9.51117 C 1.56076 8.33875 1.89288 7.3898 2.64124 6.64144 C 3.33576 5.94692 4.20302 5.61086 5.26124 5.44015 C 5.27316 4.95979 5.29771 4.53259 5.34822 4.15689 C 5.45093 3.39294 5.67321 2.7306 6.2019 2.2019 C 6.7306 1.67321 7.39293 1.45093 8.15689 1.34822 C 8.88775 1.24996 9.81348 1.24998 10.9463 1.25 Z M 5.25 6.96613 C 4.51901 7.11288 4.05575 7.34825 3.7019 7.7021 C 3.27869 8.12531 3.02502 8.70495 2.88976 9.71104 C 2.75159 10.7387 2.75 12.0934 2.75 14.0002 C 2.75 15.907 2.75159 17.2617 2.88976 18.2893 C 3.02502 19.2954 3.27869 19.8751 3.7019 20.2983 C 4.12511 20.7215 4.70476 20.9752 5.71085 21.1104 C 6.73851 21.2486 8.09318 21.2502 10 21.2502 H 14 C 15.9068 21.2502 17.2615 21.2486 18.2892 21.1104 C 19.2952 20.9752 19.8749 20.7215 20.2981 20.2983 C 20.7213 19.8751 20.975 19.2954 21.1102 18.2893 C 21.2484 17.2617 21.25 15.907 21.25 14.0002 C 21.25 12.0934 21.2484 10.7387 21.1102 9.71104 C 20.975 8.70495 20.7213 8.12531 20.2981 7.7021 C 19.9443 7.34825 19.481 7.11288 18.75 6.96613 V 8.1265 C 18.75 8.17264 18.75 8.21822 18.7501 8.26327 C 18.7509 9.04932 18.7516 9.67194 18.4904 10.2297 C 18.2291 10.7874 17.7504 11.1855 17.146 11.6881 C 17.1114 11.7169 17.0763 11.746 17.0409 11.7756 L 16.2837 12.4066 C 15.3973 13.1452 14.6789 13.7439 14.0448 14.1517 C 13.3843 14.5765 12.7411 14.8449 12 14.8449 C 11.2589 14.8449 10.6157 14.5765 9.95518 14.1517 C 9.32112 13.7439 8.60272 13.1452 7.71637 12.4066 L 6.95912 11.7756 C 6.92368 11.746 6.88864 11.7169 6.85401 11.6881 C 6.2496 11.1855 5.77086 10.7874 5.50963 10.2297 C 5.2484 9.67194 5.24906 9.04932 5.2499 8.26326 C 5.24995 8.21822 5.25 8.17264 5.25 8.1265 L 5.25 6.96613 Z M 8.35676 2.83484 C 7.75914 2.91519 7.4661 3.05902 7.26256 3.26256 C 7.05902 3.4661 6.91519 3.75914 6.83484 4.35676 C 6.75159 4.97595 6.75 5.80029 6.75 7 V 8.1265 C 6.75 9.11781 6.76657 9.37686 6.86801 9.59345 C 6.96946 9.81003 7.15786 9.9886 7.9194 10.6232 L 8.63903 11.2229 C 9.57199 12.0004 10.2197 12.5384 10.7666 12.8901 C 11.2959 13.2306 11.6549 13.3449 12 13.3449 C 12.3451 13.3449 12.7041 13.2306 13.2334 12.8901 C 13.7803 12.5384 14.428 12.0004 15.361 11.2229 L 16.0806 10.6232 C 16.8421 9.9886 17.0305 9.81003 17.132 9.59345 C 17.2334 9.37686 17.25 9.11781 17.25 8.1265 V 7 C 17.25 5.80029 17.2484 4.97595 17.1652 4.35676 C 17.0848 3.75914 16.941 3.4661 16.7374 3.26256 C 16.5339 3.05902 16.2409 2.91519 15.6432 2.83484 C 15.0241 2.75159 14.1997 2.75 13 2.75 H 11 C 9.80029 2.75 8.97595 2.75159 8.35676 2.83484 Z M 9.25 6 C 9.25 5.58579 9.58579 5.25 10 5.25 H 14 C 14.4142 5.25 14.75 5.58579 14.75 6 C 14.75 6.41422 14.4142 6.75 14 6.75 H 10 C 9.58579 6.75 9.25 6.41422 9.25 6 Z M 10.25 9 C 10.25 8.58579 10.5858 8.25 11 8.25 H 13 C 13.4142 8.25 13.75 8.58579 13.75 9 C 13.75 9.41422 13.4142 9.75 13 9.75 H 11 C 10.5858 9.75 10.25 9.41422 10.25 9 Z" fill="#FFFFFF" />
</svg>