<svg xmlns="http://www.w3.org/2000/svg" width="24" height="24" viewBox="0 0 24 24" fill="none">
  <path fill-rule="nonzero" clip-rule="nonzero" d="M 19 2.75 C 17.7574 2.75 16.75 3.75736 16.75 5 C 16.75 6.24264 17.7574 7.25 19 7.25 C 20.2426 7.25 21.25 6.24264 21.25 5 C 21.25 3.75736 20.2426 2.75 19 2.75 Z M 15.25 5 C 15.25 2.92893 16.9289 1.25 19 1.25 C 21.0711 1.25 22.75 2.92893 22.75 5 C 22.75 7.07107 21.0711 8.75 19 8.75 C 16.9289 8.75 15.25 7.07107 15.25 5 Z M 9.94359 3.25 L 13 3.25 C 13.4142 3.25 13.75 3.58579 13.75 4 C 13.75 4.41421 13.4142 4.75 13 4.75 H 10 C 8.09318 4.75 6.73851 4.75159 5.71085 4.88976 C 4.70476 5.02502 4.12511 5.27869 3.7019 5.7019 C 3.27869 6.12511 3.02502 6.70476 2.88976 7.71085 C 2.75159 8.73851 2.75 10.0932 2.75 12 C 2.75 13.9068 2.75159 15.2615 2.88976 16.2892 C 3.02502 17.2952 3.27869 17.8749 3.7019 18.2981 C 4.12511 18.7213 4.70476 18.975 5.71085 19.1102 C 6.73851 19.2484 8.09318 19.25 10 19.25 H 14 C 15.9068 19.25 17.2615 19.2484 18.2892 19.1102 C 19.2952 18.975 19.8749 18.7213 20.2981 18.2981 C 20.7213 17.8749 20.975 17.2952 21.1102 16.2892 C 21.2484 15.2615 21.25 13.9068 21.25 12 C 21.25 11.6271 21.2527 11.3546 21.255 11.1204 C 21.2587 10.7412 21.2615 10.4622 21.2502 10.0191 C 21.2397 9.60497 21.5669 9.26077 21.9809 9.25024 C 22.395 9.23972 22.7392 9.56686 22.7498 9.98094 C 22.7616 10.447 22.7586 10.7652 22.7547 11.1672 C 22.7525 11.4012 22.75 11.6635 22.75 12 V 12.0564 C 22.75 13.8942 22.75 15.3498 22.5969 16.489 C 22.4392 17.6614 22.1071 18.6104 21.3588 19.3588 C 20.6104 20.1071 19.6614 20.4392 18.489 20.5969 C 17.3498 20.75 15.8942 20.75 14.0564 20.75 H 9.94359 C 8.10583 20.75 6.65019 20.75 5.51098 20.5969 C 4.33856 20.4392 3.38961 20.1071 2.64124 19.3588 C 1.89288 18.6104 1.56076 17.6614 1.40314 16.489 C 1.24997 15.3498 1.24998 13.8942 1.25 12.0564 V 11.9436 C 1.24998 10.1058 1.24997 8.65019 1.40314 7.51098 C 1.56076 6.33855 1.89288 5.38961 2.64124 4.64124 C 3.38961 3.89288 4.33856 3.56076 5.51098 3.40313 C 6.65019 3.24997 8.10582 3.24998 9.94359 3.25 Z M 5.42383 7.51986 C 5.68901 7.20165 6.16193 7.15866 6.48014 7.42383 L 8.63903 9.22291 C 9.57199 10.0004 10.2197 10.5384 10.7666 10.8901 C 11.2959 11.2306 11.6549 11.3449 12 11.3449 C 12.3451 11.3449 12.7041 11.2306 13.2334 10.8901 C 13.7803 10.5384 14.428 10.0004 15.361 9.22291 C 15.6792 8.95774 16.1521 9.00073 16.4173 9.31894 C 16.6824 9.63715 16.6395 10.1101 16.3212 10.3752 L 16.2837 10.4066 C 15.3973 11.1452 14.6789 11.7439 14.0448 12.1517 C 13.3843 12.5765 12.7411 12.8449 12 12.8449 C 11.2589 12.8449 10.6157 12.5765 9.95518 12.1517 C 9.32112 11.7439 8.60272 11.1452 7.71637 10.4066 L 5.51986 8.57617 C 5.20165 8.31099 5.15866 7.83807 5.42383 7.51986 Z" fill="#FFFFFF" />
</svg>