<svg xmlns="http://www.w3.org/2000/svg" width="24" height="24" viewBox="0 0 24 24" fill="none">
  <path fill-rule="nonzero" clip-rule="nonzero" d="M3.17157 5.17157 C4.34315 4 6.22876 4 10 4 L14 4 C17.7712 4 19.6569 4 20.8284 5.17157 C22 6.34315 22 8.22876 22 12 C22 15.7712 22 17.6569 20.8284 18.8284 C19.6569 20 17.7712 20 14 20 L10 20 C6.22876 20 4.34315 20 3.17157 18.8284 C2 17.6569 2 15.7712 2 12 C2 8.22876 2 6.34315 3.17157 5.17157 Z M18.5762 7.51986 C18.311 7.20165 17.8381 7.15866 17.5199 7.42383 L15.361 9.22291 C14.428 10.0004 13.7803 10.5384 13.2334 10.8901 C12.7041 11.2306 12.3451 11.3449 12 11.3449 C11.6549 11.3449 11.2959 11.2306 10.7666 10.8901 C10.2197 10.5384 9.57199 10.0004 8.63903 9.22291 L6.48014 7.42383 C6.16193 7.15866 5.68901 7.20165 5.42383 7.51986 C5.15866 7.83807 5.20165 8.31099 5.51986 8.57617 L7.71636 10.4066 C8.60271 11.1452 9.32112 11.7439 9.95518 12.1517 C10.6157 12.5765 11.2589 12.8449 12 12.8449 C12.7411 12.8449 13.3843 12.5765 14.0448 12.1517 C14.6789 11.7439 15.3973 11.1452 16.2837 10.4066 L18.4801 8.57617 C18.7983 8.31099 18.8413 7.83807 18.5762 7.51986 Z" fill="#FFFFFF" />
</svg>