<svg xmlns="http://www.w3.org/2000/svg" width="24" height="24" viewBox="0 0 24 24" fill="none">
  <path fill-rule="nonzero" clip-rule="nonzero" d="M 18.3715 3.02906 C 17.9435 2.86413 17.4778 2.82269 17.0274 2.90947 L 16.75 2.96292 V 4.61813 C 17.4742 4.47982 18.2228 4.54702 18.9109 4.8122 C 19.338 4.97679 19.8019 5.01813 20.25 4.93273 V 3.27443 C 19.6437 3.35379 19.025 3.28092 18.4506 3.05957 L 18.3715 3.02906 Z M16.75 6.14572 L16.75 6.24956 L17.5 6.24956 C20.3995 6.24956 22.75 8.60006 22.75 11.4996 L22.75 16.7927 C22.75 18.4257 21.4261 19.7496 19.7931 19.7496 L15.25 19.7496 L15.25 21.9996 C15.25 22.4138 14.9142 22.7496 14.5 22.7496 C14.0858 22.7496 13.75 22.4138 13.75 21.9996 L13.75 19.7496 L11.25 19.7496 L11.25 21.9996 C11.25 22.4138 10.9142 22.7496 10.5 22.7496 C10.0858 22.7496 9.75 22.4138 9.75 21.9996 L9.75 19.7496 L4.23256 19.7496 C2.58534 19.7496 1.25 18.4142 1.25 16.767 L1.25 11.4996 C1.25 8.60006 3.6005 6.24956 6.5 6.24956 C6.62219 6.24956 6.74341 6.25373 6.86352 6.26195 C6.90777 6.25381 6.95339 6.24956 7 6.24956 L15.25 6.24956 L15.25 2.75042 C15.25 2.15479 15.6726 1.64293 16.2575 1.53023 L16.7436 1.43657 C17.4698 1.29663 18.2207 1.36345 18.9109 1.6294 L18.99 1.65991 C19.4023 1.81877 19.8531 1.84845 20.2825 1.745 C21.0305 1.56486 21.75 2.13165 21.75 2.90097 L21.75 5.12246 C21.75 5.706 21.3502 6.21354 20.7829 6.35019 L20.7163 6.36623 C19.9371 6.55389 19.1193 6.50005 18.3715 6.21186 C17.9435 6.04692 17.4778 6.00549 17.0274 6.09227 L16.75 6.14572 Z M15.25 7.74956 L10.1742 7.74956 C11.1466 8.70245 11.75 10.0305 11.75 11.4996 L11.75 18.2496 L19.7931 18.2496 C20.5977 18.2496 21.25 17.5973 21.25 16.7927 L21.25 11.4996 C21.25 9.42849 19.5711 7.74956 17.5 7.74956 L16.75 7.74956 L16.75 10.9996 C16.75 11.4138 16.4142 11.7496 16 11.7496 C15.5858 11.7496 15.25 11.4138 15.25 10.9996 L15.25 7.74956 Z M 10.25 18.2496 V 11.4996 C 10.25 9.42849 8.57107 7.74956 6.5 7.74956 C 4.42893 7.74956 2.75 9.42849 2.75 11.4996 V 16.767 C 2.75 17.5858 3.41376 18.2496 4.23256 18.2496 H 10.25 Z M 4.25 15.9996 C 4.25 15.5853 4.58579 15.2496 5 15.2496 H 8 C 8.41421 15.2496 8.75 15.5853 8.75 15.9996 C 8.75 16.4138 8.41421 16.7496 8 16.7496 H 5 C 4.58579 16.7496 4.25 16.4138 4.25 15.9996 Z" fill="#FFFFFF" />
</svg>