<svg xmlns="http://www.w3.org/2000/svg" width="24" height="24" viewBox="0 0 24 24" fill="none">
  <path fill-rule="nonzero" clip-rule="nonzero" d="M 14.9889 3.98966 C 15.2707 3.68613 15.7453 3.66856 16.0488 3.95041 L 21.265 8.79403 C 22.2119 9.67333 22.75 10.9072 22.75 12.1994 C 22.75 13.5616 22.1523 14.8553 21.115 15.7382 L 16.0246 20.0711 C 15.7092 20.3396 15.2358 20.3016 14.9673 19.9861 C 14.6989 19.6707 14.7369 19.1974 15.0523 18.9289 L 20.1427 14.596 C 20.8452 13.998 21.25 13.122 21.25 12.1994 C 21.25 11.3243 20.8856 10.4887 20.2443 9.89322 L 15.0281 5.0496 C 14.7246 4.76775 14.707 4.2932 14.9889 3.98966 Z M 13.124 4.88452 C 13.1368 4.89594 13.1497 4.9074 13.1626 4.91888 L 17.1765 8.48672 C 17.9254 9.15241 18.5463 9.70425 18.9726 10.2052 C 19.4206 10.7317 19.7396 11.2986 19.7396 12 C 19.7396 12.7014 19.4206 13.2683 18.9726 13.7948 C 18.5463 14.2958 17.9254 14.8476 17.1765 15.5133 L 13.1626 19.0811 C 13.1497 19.0926 13.1368 19.1041 13.124 19.1155 C 12.7996 19.404 12.4968 19.6732 12.2352 19.8459 C 11.9783 20.0155 11.5112 20.2619 10.9879 20.0269 C 10.4647 19.7919 10.3385 19.2791 10.2946 18.9744 C 10.2499 18.6642 10.2499 18.259 10.25 17.8249 C 10.25 17.8077 10.25 17.7904 10.25 17.7732 V 16.2046 C 8.7985 16.3047 7.32763 16.6902 6.04102 17.3171 C 4.52808 18.0543 3.31979 19.0996 2.66405 20.3486 C 2.50365 20.6541 2.1555 20.8108 1.82047 20.7282 C 1.48544 20.6456 1.25 20.3451 1.25 20 C 1.25 15.279 2.63138 12.2051 4.6065 10.3152 C 6.3281 8.668 8.42636 7.99207 10.25 7.85061 V 6.22685 C 10.25 6.20957 10.25 6.19233 10.25 6.17513 C 10.2499 5.741 10.2499 5.33582 10.2946 5.02557 C 10.3385 4.7209 10.4647 4.20811 10.9879 3.97312 C 11.5112 3.73814 11.9783 3.9845 12.2352 4.1541 C 12.4968 4.32681 12.7996 4.59604 13.124 4.88452 Z M11.7531 5.67696 C11.7504 5.82585 11.75 6.00615 11.75 6.22685 L11.75 8.57143 C11.75 8.98565 11.4142 9.32143 11 9.32143 C9.31042 9.32143 7.26355 9.84897 5.6435 11.399 C4.34242 12.6439 3.25269 14.6098 2.88393 17.6568 C3.6098 16.9811 4.46516 16.4163 5.38398 15.9686 C7.09995 15.1325 9.08743 14.6786 11 14.6786 C11.4142 14.6786 11.75 15.0144 11.75 15.4286 L11.75 17.7732 C11.75 17.9939 11.7504 18.1742 11.7531 18.323 C11.8661 18.2261 12.0011 18.1066 12.1661 17.96 L16.1384 14.4291 C16.9395 13.717 17.48 13.2342 17.8302 12.8227 C18.1665 12.4275 18.2396 12.1967 18.2396 12 C18.2396 11.8033 18.1665 11.5725 17.8302 11.1773 C17.48 10.7658 16.9395 10.283 16.1384 9.57092 L12.1661 6.03999 C12.0011 5.89337 11.8661 5.77386 11.7531 5.67696 Z" fill="#FFFFFF" />
</svg>