<svg xmlns="http://www.w3.org/2000/svg" width="24" height="24" viewBox="0 0 24 24" fill="none">
  <path fill-rule="nonzero" clip-rule="nonzero" d="M12 2 C16.714 2 19.0711 2 20.5355 3.46447 C22 4.92893 22 7.28595 22 12 C22 16.714 22 19.0711 20.5355 20.5355 C19.0711 22 16.714 22 12 22 C7.28595 22 4.92893 22 3.46447 20.5355 C2 19.0711 2 16.714 2 12 C2 7.28595 2 4.92893 3.46447 3.46447 C4.92893 2 7.28595 2 12 2 Z M8.96383 6.86264 L6.75902 8.98043 C4.74699 10.913 4.74699 14.0594 6.75902 15.992 C7.05775 16.279 7.53253 16.2694 7.81947 15.9707 C8.1064 15.6719 8.09685 15.1972 7.79812 14.9102 C6.40063 13.5679 6.40063 11.4045 7.79812 10.0622 L10.0029 7.94444 C11.661 6.35185 14.3612 6.35185 16.0192 7.94444 C17.6603 9.52069 17.6603 12.0633 16.0192 13.6395 L13.8144 15.7573 C13.1305 16.4142 12.0097 16.4142 11.3258 15.7573 C10.6589 15.1168 10.6589 14.0912 11.3258 13.4507 L13.0897 11.7564 C13.3884 11.4695 13.398 10.9947 13.111 10.696 C12.8241 10.3973 12.3493 10.3877 12.0506 10.6747 L10.2867 12.3689 C9.0053 13.5997 9.0053 15.6083 10.2867 16.8391 C11.5511 18.0536 13.5891 18.0536 14.8535 16.8391 L17.0583 14.7213 C19.3139 12.5548 19.3139 9.02918 17.0583 6.86264 C14.8198 4.71245 11.2024 4.71245 8.96383 6.86264 Z" fill="#FFFFFF" />
</svg>