<svg xmlns="http://www.w3.org/2000/svg" width="24" height="24" viewBox="0 0 24 24" fill="none">
  <path fill-rule="nonzero" clip-rule="nonzero" d="M12 2 C16.714 2 19.0711 2 20.5355 3.46447 C22 4.92893 22 7.28595 22 12 C22 16.714 22 19.0711 20.5355 20.5355 C19.0711 22 16.714 22 12 22 C7.28595 22 4.92893 22 3.46447 20.5355 C2 19.0711 2 16.714 2 12 C2 7.28595 2 4.92893 3.46447 3.46447 C4.92893 2 7.28595 2 12 2 Z M11.1112 5.67256 C10.5458 5.95303 10.0391 6.44669 9.28211 7.18417 L9.18167 7.282 L6.9439 9.46067 L6.88615 9.51688 C6.46184 9.92981 6.17706 10.207 5.9731 10.4919 C5.00897 11.8387 5.00897 13.632 5.9731 14.9788 C6.17705 15.2637 6.46183 15.5409 6.88614 15.9538 L6.9439 16.01 C7.24069 16.299 7.71552 16.2926 8.00447 15.9958 C8.29342 15.699 8.28706 15.2242 7.99027 14.9353 C7.48707 14.4453 7.30854 14.2674 7.19279 14.1057 C6.6024 13.281 6.6024 12.1897 7.19279 11.365 C7.30854 11.2033 7.48707 11.0253 7.99027 10.5354 L10.228 8.35676 C11.1235 7.48499 11.4517 7.17806 11.7778 7.0163 C12.4936 6.66123 13.3426 6.66123 14.0583 7.0163 C14.3844 7.17806 14.7127 7.48499 15.6081 8.35676 C16.5051 9.23006 16.8179 9.54782 16.9817 9.86083 C17.3394 10.5443 17.3394 11.3511 16.9817 12.0346 C16.8179 12.3476 16.5051 12.6654 15.6081 13.5387 L13.4047 15.6838 C13.1746 15.9079 13.1102 15.9684 13.058 16.0073 C12.6249 16.3309 12.0177 16.3309 11.5846 16.0073 C11.5325 15.9684 11.468 15.9079 11.2379 15.6838 C11.0075 15.4595 10.9458 15.3971 10.9063 15.347 C10.5843 14.9385 10.5843 14.3756 10.9063 13.967 C10.9458 13.917 11.0075 13.8546 11.2379 13.6302 L12.9363 11.9767 C13.2331 11.6877 13.2395 11.2129 12.9505 10.9161 C12.6616 10.6193 12.1867 10.613 11.8899 10.9019 L10.1915 12.5555 L10.157 12.5891 C9.97768 12.7636 9.83724 12.9002 9.7282 13.0385 C8.977 13.9917 8.977 15.3224 9.7282 16.2755 C9.83724 16.4139 9.97767 16.5505 10.157 16.725 L10.1915 16.7586 L10.2257 16.7918 C10.4053 16.9668 10.5454 17.1033 10.6869 17.209 C11.6524 17.9303 12.9902 17.9303 13.9557 17.209 C14.0973 17.1033 14.2374 16.9668 14.417 16.7918 L14.4511 16.7586 L16.6544 14.6134 L16.7578 14.5128 C17.5124 13.7787 18.0208 13.2841 18.3107 12.7301 C18.8964 11.611 18.8964 10.2844 18.3107 9.1653 C18.0208 8.61133 17.5124 8.11674 16.7578 7.3826 L16.6544 7.282 L16.554 7.18417 C15.797 6.44669 15.2903 5.95303 14.7249 5.67256 C13.5892 5.10915 12.2469 5.10915 11.1112 5.67256 Z" fill="#FFFFFF" />
</svg>