<svg xmlns="http://www.w3.org/2000/svg" width="24" height="24" viewBox="0 0 24 24" fill="none">
  <path fill-rule="nonzero" clip-rule="nonzero" d="M 14.0992 2.39109 C 15.6207 0.869636 18.0875 0.869636 19.6089 2.39109 C 21.1304 3.91255 21.1304 6.37932 19.6089 7.90077 L 12.0149 15.4948 C 11.5869 15.9228 11.3255 16.1842 11.0342 16.4115 C 10.691 16.6792 10.3196 16.9087 9.92667 17.096 C 9.59315 17.2549 9.24244 17.3718 8.66818 17.5632 L 5.99553 18.4541 L 5.35386 18.668 C 4.77951 18.8594 4.14629 18.7099 3.7182 18.2818 C 3.2901 17.8537 3.14062 17.2205 3.33207 16.6462 L 4.43683 13.3318 C 4.62822 12.7576 4.7451 12.4069 4.90405 12.0734 C 5.09132 11.6804 5.32084 11.309 5.58856 10.9658 C 5.81578 10.6745 6.07719 10.4131 6.50525 9.98509 L 14.0992 2.39109 Z M5.96092 16.8845 L8.14619 16.156 C8.78244 15.944 9.04113 15.8564 9.28134 15.7419 C9.57594 15.6015 9.85436 15.4294 10.1117 15.2287 C10.3215 15.065 10.5155 14.8728 10.9898 14.3986 L16.8807 8.50764 C16.2708 8.26447 15.5345 7.85306 14.8408 7.15927 C14.147 6.46549 13.7355 5.72927 13.4924 5.11927 L7.60141 11.0102 C7.12718 11.4845 6.93497 11.6785 6.77132 11.8883 C6.57061 12.1457 6.39854 12.4241 6.25814 12.7187 C6.14366 12.9589 6.05606 13.2176 5.84398 13.8538 L5.11556 16.0391 L5.96092 16.8845 Z M18.076 7.31241 L18.5483 6.84011 C19.4839 5.90444 19.4839 4.38742 18.5483 3.45175 C17.6126 2.51608 16.0956 2.51608 15.1599 3.45175 L14.6876 3.92404 C14.7148 4.04787 14.7557 4.2027 14.8168 4.37873 C14.9847 4.86276 15.3022 5.49944 15.9014 6.09861 C16.5006 6.69778 17.1373 7.01532 17.6213 7.18325 C17.7973 7.24432 17.9521 7.28522 18.076 7.31241 Z M 3.25002 22 C 3.25002 21.5858 3.58581 21.25 4.00002 21.25 H 20 V 22.75 H 4.00002 C 3.58581 22.75 3.25002 22.4142 3.25002 22 Z" fill="#FFFFFF" />
</svg>