<svg xmlns="http://www.w3.org/2000/svg" width="24" height="24" viewBox="0 0 24 24" fill="none">
  <path fill-rule="nonzero" clip-rule="nonzero" d="M 1.25 12 C 1.25 6.06294 6.06294 1.25 12 1.25 C 12.4142 1.25 12.75 1.58579 12.75 2 C 12.75 2.41421 12.4142 2.75 12 2.75 C 6.89137 2.75 2.75 6.89137 2.75 12 C 2.75 17.1086 6.89137 21.25 12 21.25 C 17.1086 21.25 21.25 17.1086 21.25 12 C 21.25 11.5858 21.5858 11.25 22 11.25 C 22.4142 11.25 22.75 11.5858 22.75 12 C 22.75 17.9371 17.9371 22.75 12 22.75 C 6.06294 22.75 1.25 17.9371 1.25 12 Z M 16.7705 2.27591 C 18.1384 0.908028 20.3562 0.908028 21.7241 2.27591 C 23.092 3.6438 23.092 5.86158 21.7241 7.22947 L 15.076 13.8776 C 14.7047 14.2489 14.4721 14.4815 14.2126 14.684 C 13.9069 14.9224 13.5761 15.1268 13.2261 15.2936 C 12.929 15.4352 12.6169 15.5392 12.1188 15.7052 L 9.21426 16.6734 C 8.67801 16.8521 8.0868 16.7126 7.68711 16.3129 C 7.28742 15.9132 7.14785 15.322 7.3266 14.7857 L 8.29477 11.8812 C 8.46079 11.3831 8.56479 11.071 8.7064 10.7739 C 8.87319 10.4239 9.07761 10.0931 9.31605 9.78742 C 9.51849 9.52787 9.7511 9.29529 10.1224 8.924 L 16.7705 2.27591 Z M 20.6634 3.33657 C 19.8813 2.55448 18.6133 2.55448 17.8312 3.33657 L 17.4546 3.7132 C 17.4773 3.80906 17.509 3.92327 17.5532 4.05066 C 17.6965 4.46372 17.9677 5.00771 18.48 5.51999 C 18.9923 6.03227 19.5363 6.30346 19.9493 6.44677 C 20.0767 6.49097 20.1909 6.52273 20.2868 6.54543 L 20.6634 6.16881 C 21.4455 5.38671 21.4455 4.11867 20.6634 3.33657 Z M 19.1051 7.72709 C 18.5892 7.50519 17.9882 7.14946 17.4193 6.58065 C 16.8505 6.01185 16.4948 5.41082 16.2729 4.89486 L 11.2175 9.95026 C 10.801 10.3668 10.6376 10.532 10.4988 10.7099 C 10.3274 10.9297 10.1804 11.1676 10.0605 11.4192 C 9.96337 11.623 9.88868 11.8429 9.7024 12.4017 L 9.27051 13.6974 L 10.3026 14.7295 L 11.5983 14.2976 C 12.1571 14.1113 12.377 14.0366 12.5808 13.9395 C 12.8324 13.8196 13.0703 13.6726 13.2901 13.5012 C 13.468 13.3624 13.6332 13.199 14.0497 12.7825 L 19.1051 7.72709 Z" fill="#FFFFFF" />
</svg>