<svg xmlns="http://www.w3.org/2000/svg" width="24" height="24" viewBox="0 0 24 24" fill="none">
  <path fill-rule="nonzero" clip-rule="nonzero" d="M 11.9426 1.25 L 13.5 1.25 C 13.9142 1.25 14.25 1.58579 14.25 2 C 14.25 2.41421 13.9142 2.75 13.5 2.75 H 12 C 9.62177 2.75 7.91356 2.75159 6.61358 2.92637 C 5.33517 3.09825 4.56445 3.42514 3.9948 3.9948 C 3.42514 4.56445 3.09825 5.33517 2.92637 6.61358 C 2.75159 7.91356 2.75 9.62177 2.75 12 C 2.75 14.3782 2.75159 16.0864 2.92637 17.3864 C 3.09825 18.6648 3.42514 19.4355 3.9948 20.0052 C 4.56445 20.5749 5.33517 20.9018 6.61358 21.0736 C 7.91356 21.2484 9.62177 21.25 12 21.25 C 14.3782 21.25 16.0864 21.2484 17.3864 21.0736 C 18.6648 20.9018 19.4355 20.5749 20.0052 20.0052 C 20.5749 19.4355 20.9018 18.6648 21.0736 17.3864 C 21.2484 16.0864 21.25 14.3782 21.25 12 V 10.5 C 21.25 10.0858 21.5858 9.75 22 9.75 C 22.4142 9.75 22.75 10.0858 22.75 10.5 V 12.0574 C 22.75 14.3658 22.75 16.1748 22.5603 17.5863 C 22.366 19.031 21.9607 20.1711 21.0659 21.0659 C 20.1711 21.9607 19.031 22.366 17.5863 22.5603 C 16.1748 22.75 14.3658 22.75 12.0574 22.75 H 11.9426 C 9.63423 22.75 7.82519 22.75 6.41371 22.5603 C 4.96897 22.366 3.82895 21.9607 2.93414 21.0659 C 2.03933 20.1711 1.63399 19.031 1.43975 17.5863 C 1.24998 16.1748 1.24999 14.3658 1.25 12.0574 V 11.9426 C 1.24999 9.63423 1.24998 7.82519 1.43975 6.41371 C 1.63399 4.96897 2.03933 3.82895 2.93414 2.93414 C 3.82895 2.03933 4.96897 1.63399 6.41371 1.43975 C 7.82519 1.24998 9.63423 1.24999 11.9426 1.25 Z M 16.7705 2.27592 C 18.1384 0.908029 20.3562 0.908029 21.7241 2.27592 C 23.092 3.6438 23.092 5.86158 21.7241 7.22947 L 15.076 13.8776 C 14.7047 14.2489 14.4721 14.4815 14.2126 14.684 C 13.9069 14.9224 13.5761 15.1268 13.2261 15.2936 C 12.929 15.4352 12.6169 15.5392 12.1188 15.7052 L 9.21426 16.6734 C 8.67801 16.8521 8.0868 16.7126 7.68711 16.3129 C 7.28742 15.9132 7.14785 15.322 7.3266 14.7857 L 8.29477 11.8812 C 8.46079 11.3831 8.56479 11.071 8.7064 10.7739 C 8.87319 10.4239 9.07761 10.0931 9.31605 9.78742 C 9.51849 9.52787 9.7511 9.29529 10.1224 8.924 L 16.7705 2.27592 Z M 20.6634 3.33658 C 19.8813 2.55448 18.6133 2.55448 17.8312 3.33658 L 17.4546 3.7132 C 17.4773 3.80906 17.509 3.92327 17.5532 4.05066 C 17.6965 4.46372 17.9677 5.00771 18.48 5.51999 C 18.9923 6.03227 19.5363 6.30346 19.9493 6.44677 C 20.0767 6.49097 20.1909 6.52273 20.2868 6.54543 L 20.6634 6.16881 C 21.4455 5.38671 21.4455 4.11867 20.6634 3.33658 Z M 19.1051 7.72709 C 18.5892 7.50519 17.9882 7.14946 17.4193 6.58065 C 16.8505 6.01185 16.4948 5.41082 16.2729 4.89486 L 11.2175 9.95026 C 10.801 10.3668 10.6376 10.532 10.4988 10.7099 C 10.3274 10.9297 10.1804 11.1676 10.0605 11.4192 C 9.96337 11.623 9.88868 11.8429 9.7024 12.4017 L 9.27051 13.6974 L 10.3026 14.7295 L 11.5983 14.2976 C 12.1571 14.1113 12.377 14.0366 12.5808 13.9395 C 12.8324 13.8196 13.0703 13.6726 13.2901 13.5012 C 13.468 13.3624 13.6332 13.199 14.0497 12.7825 L 19.1051 7.72709 Z" fill="#FFFFFF" />
</svg>