<svg xmlns="http://www.w3.org/2000/svg" width="24" height="24" viewBox="0 0 24 24" fill="none">
  <path fill-rule="nonzero" clip-rule="nonzero" d="M 10.7521 1.99364 C 10.7556 2.40784 10.4226 2.74646 10.0084 2.74997 C 8.29884 2.76447 7.03889 2.82006 6.06281 3.01125 C 5.10767 3.19835 4.47982 3.50532 3.99518 3.98996 C 3.42533 4.55981 3.09834 5.33078 2.92642 6.60954 C 2.75159 7.90987 2.75 9.61855 2.75 11.9974 C 2.75 14.3762 2.75159 16.0849 2.92642 17.3852 C 3.09834 18.664 3.42533 19.435 3.99518 20.0048 C 4.56503 20.5747 5.336 20.9017 6.61476 21.0736 C 7.91509 21.2484 9.62377 21.25 12.0026 21.25 C 14.3814 21.25 16.0901 21.2484 17.3905 21.0736 C 18.6692 20.9017 19.4402 20.5747 20.01 20.0048 C 20.4947 19.5202 20.8017 18.8923 20.9887 17.9372 C 21.1799 16.9611 21.2355 15.7012 21.25 13.9916 C 21.2535 13.5774 21.5922 13.2444 22.0064 13.2479 C 22.4206 13.2515 22.7535 13.5901 22.75 14.0043 C 22.7355 15.7087 22.6819 17.0968 22.4608 18.2255 C 22.2356 19.3752 21.8272 20.309 21.0707 21.0655 C 20.1757 21.9605 19.0354 22.3659 17.5903 22.5602 C 16.1785 22.75 14.369 22.75 12.06 22.75 H 11.9452 C 9.63623 22.75 7.82673 22.75 6.41488 22.5602 C 4.96979 22.3659 3.82952 21.9605 2.93452 21.0655 C 2.03952 20.1705 1.63408 19.0302 1.43979 17.5851 C 1.24998 16.1733 1.24999 14.3638 1.25 12.0548 V 11.94 C 1.24999 9.63101 1.24998 7.82151 1.43979 6.40967 C 1.63408 4.96458 2.03952 3.8243 2.93452 2.9293 C 3.69102 2.1728 4.62478 1.76443 5.77447 1.53923 C 6.90322 1.31813 8.29131 1.26448 9.99573 1.25003 C 10.4099 1.24652 10.7485 1.57944 10.7521 1.99364 Z M 16.4697 1.46967 C 16.7626 1.17678 17.2374 1.17678 17.5303 1.46967 L 22.5303 6.46967 C 22.8232 6.76256 22.8232 7.23744 22.5303 7.53033 L 17.5303 12.5303 C 17.2374 12.8232 16.7626 12.8232 16.4697 12.5303 C 16.1768 12.2374 16.1768 11.7626 16.4697 11.4697 L 20.1893 7.75 H 14 C 12.4485 7.75 11.5328 8.50701 11.212 8.82933 L 11.0199 9.02244 L 10.8293 9.21204 C 10.507 9.53279 9.75 10.4485 9.75 12 V 15 C 9.75 15.4142 9.41421 15.75 9 15.75 C 8.58579 15.75 8.25 15.4142 8.25 15 V 12 C 8.25 9.91622 9.27703 8.64063 9.77125 8.14881 C 9.77125 8.14881 9.77125 8.14881 9.77125 8.14881 L 9.96178 7.9592 L 10.1488 7.77125 C 10.6406 7.27703 11.9162 6.25 14 6.25 H 20.1893 L 16.4697 2.53033 C 16.1768 2.23744 16.1768 1.76256 16.4697 1.46967 Z" fill="#FFFFFF" />
</svg>