<svg xmlns="http://www.w3.org/2000/svg" width="24" height="24" viewBox="0 0 24 24" fill="none">
  <path fill-rule="nonzero" clip-rule="nonzero" d="M 22 12 C 22 16.714 22 19.0711 20.5355 20.5355 C 19.0711 22 16.714 22 12 22 C 7.28595 22 4.92893 22 3.46447 20.5355 C 2 19.0711 2 16.714 2 12 C 2 7.28595 2 4.92893 3.46447 3.46447 C 4.92893 2 7.28595 2 12 2 C 16.714 2 19.0711 2 20.5355 3.46447 C 22 4.92893 22 7.28595 22 12 Z M17.4545 6.90343 C17.1251 6.65239 16.6545 6.71599 16.4034 7.04547 L10.1033 15.3143 L7.56499 12.4068 C7.29258 12.0947 6.81879 12.0626 6.50676 12.335 C6.19472 12.6074 6.1626 13.0812 6.43501 13.3932 L9.57787 16.9932 C9.72604 17.163 9.94266 17.2571 10.1678 17.2496 C10.393 17.2421 10.6029 17.1337 10.7394 16.9545 L17.5966 7.95453 C17.8476 7.62505 17.784 7.15446 17.4545 6.90343 Z" fill="#FFFFFF" />
</svg>