<svg xmlns="http://www.w3.org/2000/svg" width="24" height="24" viewBox="0 0 24 24" fill="none">
  <g opacity="0.5" />
  <path fill-rule="nonzero" clip-rule="nonzero" d="M 12 22 C 10.1144 22 9.17157 22 8.58579 21.4142 C 8 20.8284 8 19.8856 8 18 C 8 16.1144 8 15.1716 8.58579 14.5858 C 9.17157 14 10.1144 14 12 14 C 13.8856 14 14.8284 14 15.4142 14.5858 C 16 15.1716 16 16.1144 16 18 C 16 19.8856 16 20.8284 15.4142 21.4142 C 14.8284 22 13.8856 22 12 22 Z M 10.6936 15.7508 C 10.4333 15.4905 10.0112 15.4905 9.75082 15.7508 C 9.49047 16.0112 9.49047 16.4333 9.75082 16.6936 L 11.0572 18 L 9.75082 19.3064 C 9.49047 19.5667 9.49047 19.9888 9.75082 20.2492 C 10.0112 20.5095 10.4333 20.5095 10.6936 20.2492 L 12 18.9428 L 13.3064 20.2492 C 13.5667 20.5095 13.9888 20.5095 14.2492 20.2492 C 14.5095 19.9888 14.5095 19.5667 14.2492 19.3064 L 12.9428 18 L 14.2492 16.6936 C 14.5095 16.4333 14.5095 16.0112 14.2492 15.7508 C 13.9888 15.4905 13.5667 15.4905 13.3064 15.7508 L 12 17.0572 L 10.6936 15.7508 Z" fill="#FFFFFF" />
</svg>