<svg xmlns="http://www.w3.org/2000/svg" width="24" height="24" viewBox="0 0 24 24" fill="none">
  <g opacity="0.5" />
  <path fill-rule="nonzero" clip-rule="nonzero" d="M 12 22 C 10.1144 22 9.17157 22 8.58579 21.4142 C 8 20.8284 8 19.8856 8 18 C 8 16.1144 8 15.1716 8.58579 14.5858 C 9.17157 14 10.1144 14 12 14 C 13.8856 14 14.8284 14 15.4142 14.5858 C 16 15.1716 16 16.1144 16 18 C 16 19.8856 16 20.8284 15.4142 21.4142 C 14.8284 22 13.8856 22 12 22 Z M 14.2492 17.1381 C 14.5095 16.8777 14.5095 16.4556 14.2492 16.1953 C 13.9888 15.9349 13.5667 15.9349 13.3064 16.1953 L 11.1111 18.3905 L 10.6936 17.973 C 10.4333 17.7127 10.0112 17.7127 9.75082 17.973 C 9.49047 18.2334 9.49047 18.6555 9.75082 18.9158 L 10.6397 19.8047 C 10.9001 20.0651 11.3222 20.0651 11.5825 19.8047 L 14.2492 17.1381 Z" fill="#FFFFFF" />
</svg>