<svg xmlns="http://www.w3.org/2000/svg" width="24" height="24" viewBox="0 0 24 24" fill="none">
  <g opacity="0.5" />
  <path fill-rule="nonzero" clip-rule="nonzero" d="M 12 22 C 10.1144 22 9.17157 22 8.58579 21.4142 C 8 20.8284 8 19.8856 8 18 C 8 16.1144 8 15.1716 8.58579 14.5858 C 9.17157 14 10.1144 14 12 14 C 13.8856 14 14.8284 14 15.4142 14.5858 C 16 15.1716 16 16.1144 16 18 C 16 19.8856 16 20.8284 15.4142 21.4142 C 14.8284 22 13.8856 22 12 22 Z M 10.2222 18.6667 H 13.7778 C 14.146 18.6667 14.4444 18.3682 14.4444 18 C 14.4444 17.6318 14.146 17.3333 13.7778 17.3333 L 10.2222 17.3333 C 9.85403 17.3333 9.55556 17.6318 9.55556 18 C 9.55556 18.3682 9.85403 18.6667 10.2222 18.6667 Z" fill="#FFFFFF" />
</svg>