<svg xmlns="http://www.w3.org/2000/svg" width="24" height="24" viewBox="0 0 24 24" fill="none">
  <path fill-rule="nonzero" clip-rule="nonzero" d="M 12.4762 4.75 C 9.7261 4.75 7.5119 6.95083 7.5119 9.64706 C 7.5119 10.1092 7.5766 10.5555 7.69729 10.9781 C 8.19449 11.1216 8.65991 11.3389 9.08045 11.6171 C 9.42592 11.8456 9.52072 12.3109 9.29219 12.6564 C 9.06366 13.0019 8.59835 13.0967 8.25288 12.8681 C 7.87207 12.6162 7.43917 12.4355 6.97329 12.3451 C 6.75148 12.3021 6.52165 12.2794 6.28571 12.2794 C 4.3246 12.2794 2.75 13.8482 2.75 15.7647 C 2.75 17.6812 4.3246 19.25 6.28571 19.25 H 16.2857 C 19.0358 19.25 21.25 17.0492 21.25 14.3529 C 21.25 12.2162 19.8607 10.3909 17.9124 9.72463 C 17.4038 9.55072 16.8568 9.45588 16.2857 9.45588 C 15.7031 9.45588 15.1455 9.55458 14.6283 9.73526 C 14.2372 9.87185 13.8095 9.66557 13.6729 9.27453 C 13.5363 8.88348 13.7426 8.45575 14.1336 8.31916 C 14.8079 8.08364 15.5326 7.95588 16.2857 7.95588 C 16.5812 7.95588 16.8723 7.97555 17.1577 8.01367 C 16.477 6.11631 14.6422 4.75 12.4762 4.75 Z M18.8314 8.47127 C21.1313 9.44751 22.75 11.7093 22.75 14.3529 C22.75 17.8943 19.8474 20.75 16.2857 20.75 L6.28571 20.75 C3.51296 20.75 1.25 18.5264 1.25 15.7647 C1.25 13.0605 3.41987 10.8721 6.11351 10.7823 C6.04673 10.4136 6.0119 10.0341 6.0119 9.64706 C6.0119 6.10572 8.91446 3.25 12.4762 3.25 C15.6343 3.25 18.2724 5.49369 18.8314 8.47127 Z" fill="#FFFFFF" />
</svg>