<svg xmlns="http://www.w3.org/2000/svg" width="24" height="24" viewBox="0 0 24 24" fill="none">
  <g opacity="0.5" />
  <path fill-rule="nonzero" clip-rule="nonzero" d="M 12 22 C 10.1144 22 9.17157 22 8.58579 21.4142 C 8 20.8284 8 19.8856 8 18 C 8 16.1144 8 15.1716 8.58579 14.5858 C 9.17157 14 10.1144 14 12 14 C 13.8856 14 14.8284 14 15.4142 14.5858 C 16 15.1716 16 16.1144 16 18 C 16 19.8856 16 20.8284 15.4142 21.4142 C 14.8284 22 13.8856 22 12 22 Z M13.8047 18.9158 C14.0651 18.6555 14.0651 18.2334 13.8047 17.973 C13.5444 17.7127 13.1223 17.7127 12.8619 17.973 L12.6667 18.1683 L12.6667 16.2222 C12.6667 15.854 12.3682 15.5556 12 15.5556 C11.6318 15.5556 11.3333 15.854 11.3333 16.2222 L11.3333 18.1683 L11.1381 17.973 C10.8777 17.7127 10.4556 17.7127 10.1953 17.973 C9.93491 18.2334 9.93491 18.6555 10.1953 18.9158 L11.5286 20.2492 C11.7889 20.5095 12.2111 20.5095 12.4714 20.2492 L13.8047 18.9158 Z" fill="#FFFFFF" />
</svg>