<svg xmlns="http://www.w3.org/2000/svg" width="24" height="24" viewBox="0 0 24 24" fill="none">
  <path fill-rule="nonzero" clip-rule="nonzero" d="M 7.5 1.25 C 7.91421 1.25 8.25 1.58579 8.25 2 V 2.5 C 8.25 2.91421 7.91421 3.25 7.5 3.25 C 7.08579 3.25 6.75 2.91421 6.75 2.5 V 2 C 6.75 1.58579 7.08579 1.25 7.5 1.25 Z M 3.08086 3.08059 C 3.37375 2.78769 3.84862 2.78769 4.14152 3.08059 L 4.35758 3.29665 C 4.65047 3.58954 4.65047 4.06441 4.35758 4.35731 C 4.06468 4.6502 3.58981 4.6502 3.29692 4.35731 L 3.08086 4.14125 C 2.78796 3.84835 2.78796 3.37348 3.08086 3.08059 Z M 11.919 3.08073 C 12.2119 3.37362 12.2119 3.8485 11.919 4.14139 L 11.7029 4.35745 C 11.41 4.65034 10.9352 4.65034 10.6423 4.35745 C 10.3494 4.06456 10.3494 3.58968 10.6423 3.29679 L 10.8583 3.08073 C 11.1512 2.78784 11.6261 2.78784 11.919 3.08073 Z M 1.25 7.5 C 1.25 7.08579 1.58579 6.75 2 6.75 H 2.5 C 2.91421 6.75 3.25 7.08579 3.25 7.5 C 3.25 7.91421 2.91421 8.25 2.5 8.25 H 2 C 1.58579 8.25 1.25 7.91421 1.25 7.5 Z M 4.35758 10.6427 C 4.65047 10.9356 4.65047 11.4105 4.35758 11.7034 L 4.14152 11.9194 C 3.84862 12.2123 3.37375 12.2123 3.08086 11.9194 C 2.78796 11.6265 2.78796 11.1516 3.08086 10.8588 L 3.29692 10.6427 C 3.58981 10.3498 4.06468 10.3498 4.35758 10.6427 Z" fill="#FFFFFF" />
  <path d="M16.2857 22C19.4416 22 22 19.4717 22 16.3529C22 13.8811 20.393 11.7802 18.1551 11.015C17.8371 8.19371 15.4159 6 12.4762 6C9.32028 6 6.7619 8.52827 6.7619 11.6471C6.7619 12.3369 6.88706 12.9978 7.11616 13.6089C6.8475 13.5567 6.56983 13.5294 6.28571 13.5294C3.91878 13.5294 2 15.4256 2 17.7647C2 20.1038 3.91878 22 6.28571 22H16.2857Z" fill="#FFFFFF" />
  <path d="M9.81079 5.00423C9.28249 4.68421 8.66276 4.5 8 4.5C6.067 4.5 4.5 6.067 4.5 8C4.5 8.89287 4.83433 9.70764 5.38464 10.326C5.84363 7.88877 7.54928 5.89586 9.81079 5.00423Z" fill="#FFFFFF" />
</svg>