<svg xmlns="http://www.w3.org/2000/svg" width="24" height="24" viewBox="0 0 24 24" fill="none">
  <g opacity="0.5" />
  <path fill-rule="nonzero" clip-rule="nonzero" d="M 12 22 C 10.1144 22 9.17157 22 8.58579 21.4142 C 8 20.8284 8 19.8856 8 18 C 8 16.1144 8 15.1716 8.58579 14.5858 C 9.17157 14 10.1144 14 12 14 C 13.8856 14 14.8284 14 15.4142 14.5858 C 16 15.1716 16 16.1144 16 18 C 16 19.8856 16 20.8284 15.4142 21.4142 C 14.8284 22 13.8856 22 12 22 Z M 12.9159 16.2492 C 13.1762 15.9888 13.1762 15.5667 12.9159 15.3064 C 12.6555 15.046 12.2334 15.046 11.9731 15.3064 L 9.75084 17.5286 C 9.56017 17.7193 9.50313 18.006 9.60632 18.2551 C 9.70951 18.5042 9.9526 18.6667 10.2222 18.6667 H 12.1683 L 11.0842 19.7508 C 10.8238 20.0112 10.8238 20.4333 11.0842 20.6936 C 11.3445 20.954 11.7666 20.954 12.027 20.6936 L 14.2492 18.4714 C 14.4399 18.2807 14.4969 17.994 14.3937 17.7449 C 14.2905 17.4958 14.0474 17.3333 13.7778 17.3333 H 11.8317 L 12.9159 16.2492 Z" fill="#FFFFFF" />
</svg>