<svg xmlns="http://www.w3.org/2000/svg" width="24" height="24" viewBox="0 0 24 24" fill="none">
  <path fill-rule="nonzero" clip-rule="nonzero" d="M 7.5 1.25 C 7.91421 1.25 8.25 1.58579 8.25 2 V 2.5 C 8.25 2.91421 7.91421 3.25 7.5 3.25 C 7.08579 3.25 6.75 2.91421 6.75 2.5 V 2 C 6.75 1.58579 7.08579 1.25 7.5 1.25 Z M 3.08086 3.08059 C 3.37375 2.78769 3.84862 2.78769 4.14152 3.08059 L 4.35758 3.29665 C 4.65047 3.58954 4.65047 4.06441 4.35758 4.35731 C 4.06468 4.6502 3.58981 4.6502 3.29692 4.35731 L 3.08086 4.14125 C 2.78796 3.84835 2.78796 3.37348 3.08086 3.08059 Z M 11.919 3.08073 C 12.2119 3.37362 12.2119 3.8485 11.919 4.14139 L 11.7029 4.35745 C 11.41 4.65034 10.9352 4.65034 10.6423 4.35745 C 10.3494 4.06456 10.3494 3.58968 10.6423 3.29679 L 10.8583 3.08073 C 11.1512 2.78784 11.6261 2.78784 11.919 3.08073 Z M 8 5.25 C 7.41473 5.25 6.87421 5.43199 6.42907 5.74248 C 6.30317 5.83031 6.18487 5.92844 6.07543 6.03568 C 5.56518 6.53569 5.25 7.23036 5.25 8 C 5.25 8.83258 5.61998 9.57961 6.20595 10.0844 C 6.68157 8.2083 7.99393 6.66418 9.72404 5.85738 C 9.67438 5.81735 9.62331 5.77903 9.57093 5.74248 C 9.12579 5.43199 8.58527 5.25 8 5.25 Z M11.324 5.35144 C11.698 5.28479 12.0831 5.25 12.4762 5.25 C15.6343 5.25 18.2724 7.49369 18.8314 10.4713 C21.1313 11.4475 22.75 13.7093 22.75 16.3529 C22.75 19.8943 19.8474 22.75 16.2857 22.75 L6.28571 22.75 C3.51296 22.75 1.25 20.5264 1.25 17.7647 C1.25 15.0605 3.41987 12.8721 6.11351 12.7823 C6.0531 12.4487 6.01884 12.1064 6.01285 11.7576 C4.66823 11.0452 3.75 9.63052 3.75 8 C3.75 6.81095 4.23928 5.73483 5.02558 4.96432 C5.19421 4.79908 5.3766 4.64776 5.57093 4.51221 C6.25962 4.03182 7.09802 3.75 8 3.75 C8.90198 3.75 9.74038 4.03182 10.4291 4.51221 C10.6234 4.64776 10.8058 4.79908 10.9744 4.96432 C11.0986 5.08601 11.2154 5.21529 11.324 5.35144 Z M 17.1577 10.0137 C 16.477 8.11631 14.6422 6.75 12.4762 6.75 C 9.7261 6.75 7.5119 8.95083 7.5119 11.6471 C 7.5119 12.1092 7.5766 12.5555 7.69729 12.9781 C 8.19448 13.1216 8.65991 13.3389 9.08045 13.6171 C 9.42592 13.8456 9.52072 14.3109 9.29219 14.6564 C 9.06366 15.0019 8.59835 15.0967 8.25288 14.8681 C 7.87207 14.6162 7.43917 14.4355 6.97329 14.3451 C 6.75147 14.3021 6.52165 14.2794 6.28571 14.2794 C 4.3246 14.2794 2.75 15.8482 2.75 17.7647 C 2.75 19.6812 4.3246 21.25 6.28571 21.25 H 16.2857 C 19.0358 21.25 21.25 19.0492 21.25 16.3529 C 21.25 14.2162 19.8607 12.3909 17.9124 11.7246 C 17.4038 11.5507 16.8568 11.4559 16.2857 11.4559 C 15.7031 11.4559 15.1455 11.5546 14.6283 11.7353 C 14.2372 11.8718 13.8095 11.6656 13.6729 11.2745 C 13.5363 10.8835 13.7426 10.4557 14.1336 10.3192 C 14.8079 10.0836 15.5326 9.95588 16.2857 9.95588 C 16.5812 9.95588 16.8723 9.97555 17.1577 10.0137 Z M 1.25 7.5 C 1.25 7.08579 1.58579 6.75 2 6.75 H 2.5 C 2.91421 6.75 3.25 7.08579 3.25 7.5 C 3.25 7.91421 2.91421 8.25 2.5 8.25 H 2 C 1.58579 8.25 1.25 7.91421 1.25 7.5 Z M 4.35758 10.6427 C 4.65047 10.9356 4.65047 11.4105 4.35758 11.7034 L 4.14152 11.9194 C 3.84862 12.2123 3.37375 12.2123 3.08086 11.9194 C 2.78796 11.6265 2.78796 11.1516 3.08086 10.8588 L 3.29692 10.6427 C 3.58981 10.3498 4.06468 10.3498 4.35758 10.6427 Z" fill="#FFFFFF" />
</svg>