<svg xmlns="http://www.w3.org/2000/svg" width="24" height="24" viewBox="0 0 24 24" fill="none">
  <path opacity="0.5" d="M11.5 8C11.5 9.933 9.933 11.5 8 11.5C6.067 11.5 4.5 9.933 4.5 8C4.5 6.067 6.067 4.5 8 4.5C9.933 4.5 11.5 6.067 11.5 8Z" fill="#FFFFFF"/>
  <g opacity="0.5"/>
  <path d="M16.2857 22C19.4416 22 22 19.4717 22 16.3529C22 13.8811 20.393 11.7802 18.1551 11.015C17.8371 8.19371 15.4159 6 12.4762 6C9.32028 6 6.7619 8.52827 6.7619 11.6471C6.7619 12.3369 6.88706 12.9978 7.11616 13.6089C6.8475 13.5567 6.56983 13.5294 6.28571 13.5294C3.91878 13.5294 2 15.4256 2 17.7647C2 20.1038 3.91878 22 6.28571 22H16.2857Z" fill="#FFFFFF"/>
</svg>