<svg xmlns="http://www.w3.org/2000/svg" width="24" height="24" viewBox="0 0 24 24" fill="none">
  <g opacity="0.5" />
  <path fill-rule="nonzero" clip-rule="nonzero" d="M12 14 C13.8856 14 14.8284 14 15.4142 14.5858 C16 15.1716 16 16.1144 16 18 C16 19.8856 16 20.8284 15.4142 21.4142 C14.8284 22 13.8856 22 12 22 C10.1144 22 9.17157 22 8.58579 21.4142 C8 20.8284 8 19.8856 8 18 C8 16.1144 8 15.1716 8.58579 14.5858 C9.17157 14 10.1144 14 12 14 Z M 13.8047 17.0842 L 12.4714 15.7508 C 12.2111 15.4905 11.7889 15.4905 11.5286 15.7508 L 10.1953 17.0842 C 9.93491 17.3445 9.93491 17.7666 10.1953 18.027 C 10.4556 18.2873 10.8777 18.2873 11.1381 18.027 L 11.3333 17.8317 V 19.7778 C 11.3333 20.146 11.6318 20.4444 12 20.4444 C 12.3682 20.4444 12.6667 20.146 12.6667 19.7778 V 17.8317 L 12.8619 18.027 C 13.1223 18.2873 13.5444 18.2873 13.8047 18.027 C 14.0651 17.7666 14.0651 17.3445 13.8047 17.0842 Z" fill="#FFFFFF" />
</svg>