<svg xmlns="http://www.w3.org/2000/svg" width="24" height="24" viewBox="0 0 24 24" fill="none">
  <path fill-rule="nonzero" clip-rule="nonzero" d="M 10.8539 14.5105 C 11.1243 14.8243 11.0891 15.2978 10.7753 15.5682 L 8.0195 17.9426 H 10.2857 C 10.5993 17.9426 10.8797 18.1376 10.9888 18.4315 C 11.098 18.7254 11.0128 19.0562 10.7753 19.2608 L 6.48957 22.9531 C 6.17575 23.2235 5.70219 23.1883 5.43183 22.8745 C 5.16147 22.5606 5.19669 22.0871 5.5105 21.8167 L 8.26616 19.4426 H 6.00004 C 5.68653 19.4426 5.4061 19.2476 5.29696 18.9537 C 5.18781 18.6598 5.27297 18.3291 5.51048 18.1244 L 9.79619 14.4318 C 10.11 14.1615 10.5836 14.1967 10.8539 14.5105 Z M 15.5304 14.9697 C 15.8233 15.2626 15.8233 15.7374 15.5304 16.0303 L 13.5304 18.0303 C 13.2375 18.3232 12.7626 18.3232 12.4697 18.0303 C 12.1768 17.7374 12.1768 17.2626 12.4697 16.9697 L 14.4697 14.9697 C 14.7626 14.6768 15.2375 14.6768 15.5304 14.9697 Z M 17.5304 18.4697 C 17.8233 18.7626 17.8233 19.2375 17.5304 19.5303 L 15.5304 21.5303 C 15.2375 21.8232 14.7626 21.8232 14.4697 21.5303 C 14.1768 21.2375 14.1768 20.7626 14.4697 20.4697 L 16.4697 18.4697 C 16.7626 18.1768 17.2375 18.1768 17.5304 18.4697 Z M 13.5304 19.4697 C 13.8233 19.7626 13.8233 20.2375 13.5304 20.5303 L 11.5304 22.5303 C 11.2375 22.8232 10.7626 22.8232 10.4697 22.5303 C 10.1768 22.2375 10.1768 21.7626 10.4697 21.4697 L 12.4697 19.4697 C 12.7626 19.1768 13.2375 19.1768 13.5304 19.4697 Z" fill="#FFFFFF" />
  <path opacity="0.5" d="M16.2857 19C19.4416 19 22 16.4717 22 13.3529C22 10.8811 20.393 8.78024 18.1551 8.01498C17.8371 5.19371 15.4159 3 12.4762 3C9.32028 3 6.7619 5.52827 6.7619 8.64706C6.7619 9.33687 6.88706 9.9978 7.11616 10.6089C6.8475 10.5567 6.56983 10.5294 6.28571 10.5294C3.91878 10.5294 2 12.4256 2 14.7647C2 17.1038 3.91878 19 6.28571 19H16.2857Z" fill="#FFFFFF" />
</svg>