<svg xmlns="http://www.w3.org/2000/svg" width="24" height="24" viewBox="0 0 24 24" fill="none">
  <path fill-rule="nonzero" clip-rule="nonzero" d="M11.0174 2.80157 C9.33315 4.1283 8.25 6.18738 8.25 8.5 C8.25 12.5041 11.4959 15.75 15.5 15.75 C17.8126 15.75 19.8717 14.6669 21.1984 12.9826 C20.7078 17.6293 16.7767 21.25 12 21.25 C6.89137 21.25 2.75 17.1086 2.75 12 C2.75 7.22328 6.37072 3.29221 11.0174 2.80157 Z M 1.25 12 C 1.25 6.06294 6.06294 1.25 12 1.25 C 12.7166 1.25 13.0754 1.82126 13.1368 2.27627 C 13.196 2.71398 13.0342 3.27065 12.531 3.57467 C 10.8627 4.5828 9.75 6.41182 9.75 8.5 C 9.75 11.6756 12.3244 14.25 15.5 14.25 C 17.5882 14.25 19.4172 13.1373 20.4253 11.469 C 20.7293 10.9658 21.286 10.804 21.7237 10.8632 C 22.1787 10.9246 22.75 11.2834 22.75 12 C 22.75 17.9371 17.9371 22.75 12 22.75 C 6.06294 22.75 1.25 17.9371 1.25 12 Z" fill="#FFFFFF" />
</svg>