<svg xmlns="http://www.w3.org/2000/svg" width="24" height="24" viewBox="0 0 24 24" fill="none">
  <path fill-rule="nonzero" clip-rule="nonzero" d="M20.3655 2.12433 L20.7935 3.21354 L21.8781 3.6429 C22.7075 3.97121 22.7075 5.14714 21.8781 5.47544 L20.7935 5.90481 L20.3655 6.99402 C20.0384 7.82646 18.8624 7.82645 18.5353 6.99401 L18.1073 5.90481 L17.0227 5.47544 C16.1933 5.14713 16.1933 3.97121 17.0227 3.6429 L18.1073 3.21354 L18.5353 2.12433 C18.8624 1.29189 20.0384 1.29189 20.3655 2.12433 Z M19.4504 2.52989 L19.0357 3.58533 C18.936 3.83891 18.7358 4.04027 18.482 4.14073 L17.4249 4.55917 L18.482 4.97762 C18.7358 5.07808 18.936 5.27943 19.0357 5.53301 L19.4504 6.58846 L19.8651 5.53301 C19.9648 5.27943 20.165 5.07808 20.4188 4.97762 L21.4759 4.55917 L20.4188 4.14073 C20.165 4.04027 19.9648 3.83891 19.8651 3.58533 L19.4504 2.52989 Z M16.4981 7.94681 L16.6526 8.34008 L17.0439 8.49497 C17.8733 8.82328 17.8733 9.9992 17.0439 10.3275 L16.6526 10.4824 L16.4981 10.8757 C16.171 11.7081 14.9951 11.7081 14.668 10.8757 L14.5134 10.4824 L14.1222 10.3275 C13.2928 9.9992 13.2928 8.82328 14.1222 8.49497 L14.5134 8.34008 L14.668 7.94681 C14.9951 7.11437 16.171 7.11437 16.4981 7.94681 Z M15.583 8.35237 L15.4418 8.71188 C15.3421 8.96545 15.1419 9.16681 14.8881 9.26727 L14.5244 9.41124 L14.8881 9.55521 C15.1419 9.65567 15.3421 9.85703 15.4418 10.1106 L15.583 10.4701 L15.7243 10.1106 C15.824 9.85703 16.0242 9.65567 16.278 9.55521 L16.6417 9.41124 L16.278 9.26727 C16.0242 9.16681 15.824 8.96545 15.7243 8.71188 L15.583 8.35237 Z" fill="#FFFFFF" />
  <path fill-rule="nonzero" clip-rule="nonzero" d="M11.0174 2.80157 C9.33315 4.1283 8.25 6.18738 8.25 8.5 C8.25 12.5041 11.4959 15.75 15.5 15.75 C17.8126 15.75 19.8717 14.6669 21.1984 12.9826 C20.7078 17.6293 16.7767 21.25 12 21.25 C6.89137 21.25 2.75 17.1086 2.75 12 C2.75 7.22328 6.37072 3.29221 11.0174 2.80157 Z M 1.25 12 C 1.25 6.06294 6.06294 1.25 12 1.25 C 12.7166 1.25 13.0754 1.82126 13.1368 2.27627 C 13.196 2.71398 13.0342 3.27065 12.531 3.57467 C 10.8627 4.5828 9.75 6.41182 9.75 8.5 C 9.75 11.6756 12.3244 14.25 15.5 14.25 C 17.5882 14.25 19.4172 13.1373 20.4253 11.469 C 20.7293 10.9658 21.286 10.804 21.7237 10.8632 C 22.1787 10.9246 22.75 11.2834 22.75 12 C 22.75 17.9371 17.9371 22.75 12 22.75 C 6.06294 22.75 1.25 17.9371 1.25 12 Z" fill="#FFFFFF" />
</svg>