<svg xmlns="http://www.w3.org/2000/svg" width="24" height="24" viewBox="0 0 24 24" fill="none">
  <path fill-rule="nonzero" clip-rule="nonzero" d="M 11.0174 2.80157 C 6.37072 3.29221 2.75 7.22328 2.75 12 C 2.75 13.1448 2.95764 14.2397 3.33685 15.25 H 12.8489 C 10.1562 14.1916 8.25 11.5684 8.25 8.5 C 8.25 6.18738 9.33315 4.1283 11.0174 2.80157 Z M 18.1508 15.25 H 20.6631 C 20.9324 14.5327 21.1151 13.7727 21.1985 12.9825 C 20.4085 13.9854 19.359 14.7751 18.1508 15.25 Z M22.2375 15.2884 C22.5353 15.3877 22.75 15.6688 22.75 16 C22.75 16.4142 22.4142 16.75 22 16.75 L2 16.75 C1.58579 16.75 1.25 16.4142 1.25 16 C1.25 15.6688 1.46468 15.3877 1.76248 15.2884 C1.4296 14.2513 1.25 13.1461 1.25 12 C1.25 6.06294 6.06294 1.25 12 1.25 C12.7166 1.25 13.0754 1.82126 13.1368 2.27627 C13.196 2.71398 13.0342 3.27065 12.531 3.57467 C10.8627 4.5828 9.75 6.41182 9.75 8.5 C9.75 11.6756 12.3244 14.25 15.5 14.25 C17.5882 14.25 19.4172 13.1373 20.4253 11.469 C20.7293 10.9658 21.286 10.804 21.7237 10.8632 C22.1787 10.9246 22.75 11.2834 22.75 12 C22.75 13.1461 22.5704 14.2513 22.2375 15.2884 Z M 4.25 19 C 4.25 18.5858 4.58579 18.25 5 18.25 H 19 C 19.4142 18.25 19.75 18.5858 19.75 19 C 19.75 19.4142 19.4142 19.75 19 19.75 H 5 C 4.58579 19.75 4.25 19.4142 4.25 19 Z M 7.25 22 C 7.25 21.5858 7.58579 21.25 8 21.25 H 16 C 16.4142 21.25 16.75 21.5858 16.75 22 C 16.75 22.4142 16.4142 22.75 16 22.75 H 8 C 7.58579 22.75 7.25 22.4142 7.25 22 Z" fill="#FFFFFF" />
  <path fill-rule="nonzero" clip-rule="nonzero" d="M20.3655 2.12433 L20.7935 3.21354 L21.8781 3.6429 C22.7075 3.97121 22.7075 5.14714 21.8781 5.47544 L20.7935 5.90481 L20.3655 6.99402 C20.0384 7.82646 18.8624 7.82645 18.5353 6.99401 L18.1073 5.90481 L17.0227 5.47544 C16.1933 5.14713 16.1933 3.97121 17.0227 3.6429 L18.1073 3.21354 L18.5353 2.12433 C18.8624 1.29189 20.0384 1.29189 20.3655 2.12433 Z M19.4504 2.52989 L19.0357 3.58533 C18.936 3.83891 18.7358 4.04027 18.482 4.14073 L17.4249 4.55917 L18.482 4.97762 C18.7358 5.07808 18.936 5.27943 19.0357 5.53301 L19.4504 6.58846 L19.8651 5.53301 C19.9648 5.27943 20.165 5.07808 20.4188 4.97762 L21.4759 4.55917 L20.4188 4.14073 C20.165 4.04027 19.9648 3.83891 19.8651 3.58533 L19.4504 2.52989 Z M16.4981 7.94681 L16.6527 8.34008 L17.0439 8.49497 C17.8733 8.82328 17.8733 9.9992 17.0439 10.3275 L16.6527 10.4824 L16.4981 10.8757 C16.171 11.7081 14.9951 11.7081 14.668 10.8757 L14.5134 10.4824 L14.1222 10.3275 C13.2928 9.9992 13.2928 8.82328 14.1222 8.49497 L14.5134 8.34008 L14.668 7.94681 C14.9951 7.11437 16.171 7.11437 16.4981 7.94681 Z M15.583 8.35237 L15.4418 8.71188 C15.3421 8.96545 15.1419 9.16681 14.8881 9.26727 L14.5244 9.41124 L14.8881 9.55521 C15.1419 9.65567 15.3421 9.85703 15.4418 10.1106 L15.583 10.4701 L15.7243 10.1106 C15.824 9.85703 16.0242 9.65567 16.278 9.55521 L16.6417 9.41124 L16.278 9.26727 C16.0242 9.16681 15.824 8.96545 15.7243 8.71188 L15.583 8.35237 Z" fill="#FFFFFF" />
</svg>