<svg xmlns="http://www.w3.org/2000/svg" width="24" height="24" viewBox="0 0 24 24" fill="none">
  <path fill-rule="nonzero" clip-rule="nonzero" d="M11.0174 2.80157 C9.33315 4.1283 8.25 6.18738 8.25 8.5 C8.25 12.5041 11.4959 15.75 15.5 15.75 C17.8126 15.75 19.8717 14.6669 21.1984 12.9826 C20.7078 17.6293 16.7767 21.25 12 21.25 C6.89137 21.25 2.75 17.1086 2.75 12 C2.75 7.22328 6.37072 3.29221 11.0174 2.80157 Z M 1.25 12 C 1.25 6.06294 6.06294 1.25 12 1.25 C 12.7166 1.25 13.0754 1.82126 13.1368 2.27627 C 13.196 2.71398 13.0342 3.27065 12.531 3.57467 C 10.8627 4.5828 9.75 6.41182 9.75 8.5 C 9.75 11.6756 12.3244 14.25 15.5 14.25 C 17.5882 14.25 19.4172 13.1373 20.4253 11.469 C 20.7293 10.9658 21.286 10.804 21.7237 10.8632 C 22.1787 10.9246 22.75 11.2834 22.75 12 C 22.75 17.9371 17.9371 22.75 12 22.75 C 6.06294 22.75 1.25 17.9371 1.25 12 Z M 18 2.75 C 17.5858 2.75 17.25 2.41421 17.25 2 C 17.25 1.58579 17.5858 1.25 18 1.25 H 22 C 22.3033 1.25 22.5768 1.43273 22.6929 1.71299 C 22.809 1.99324 22.7448 2.31583 22.5303 2.53033 L 19.8107 5.25 H 22 C 22.4142 5.25 22.75 5.58579 22.75 6 C 22.75 6.41421 22.4142 6.75 22 6.75 H 18 C 17.6967 6.75 17.4232 6.56727 17.3071 6.28701 C 17.191 6.00676 17.2552 5.68417 17.4697 5.46967 L 20.1893 2.75 H 18 Z M 13.5 8.75 C 13.0858 8.75 12.75 8.41421 12.75 8 C 12.75 7.58579 13.0858 7.25 13.5 7.25 H 16.5 C 16.8033 7.25 17.0768 7.43273 17.1929 7.71299 C 17.309 7.99324 17.2448 8.31583 17.0303 8.53033 L 15.3107 10.25 H 16.5 C 16.9142 10.25 17.25 10.5858 17.25 11 C 17.25 11.4142 16.9142 11.75 16.5 11.75 H 13.5 C 13.1967 11.75 12.9232 11.5673 12.8071 11.287 C 12.691 11.0068 12.7552 10.6842 12.9697 10.4697 L 14.6893 8.75 H 13.5 Z" fill="#FFFFFF" />
</svg>