<svg xmlns="http://www.w3.org/2000/svg" width="24" height="24" viewBox="0 0 24 24" fill="none">
  <path fill-rule="nonzero" clip-rule="nonzero" d="M 18 2.75 C 17.5858 2.75 17.25 2.41421 17.25 2 C 17.25 1.58579 17.5858 1.25 18 1.25 H 22 C 22.3034 1.25 22.5768 1.43273 22.6929 1.71299 C 22.809 1.99324 22.7449 2.31583 22.5304 2.53033 L 19.8107 5.25 H 22 C 22.4142 5.25 22.75 5.58579 22.75 6 C 22.75 6.41421 22.4142 6.75 22 6.75 H 18 C 17.6967 6.75 17.4232 6.56727 17.3071 6.28701 C 17.191 6.00676 17.2552 5.68417 17.4697 5.46967 L 20.1894 2.75 H 18 Z M 13.5 8.75 C 13.0858 8.75 12.75 8.41421 12.75 8 C 12.75 7.58579 13.0858 7.25 13.5 7.25 H 16.5 C 16.8034 7.25 17.0768 7.43273 17.1929 7.71299 C 17.309 7.99324 17.2449 8.31583 17.0304 8.53033 L 15.3107 10.25 H 16.5 C 16.9142 10.25 17.25 10.5858 17.25 11 C 17.25 11.4142 16.9142 11.75 16.5 11.75 H 13.5 C 13.1967 11.75 12.9232 11.5673 12.8071 11.287 C 12.691 11.0068 12.7552 10.6842 12.9697 10.4697 L 14.6894 8.75 H 13.5 Z" fill="#FFFFFF" />
  <path opacity="0.5" d="M12 22C17.5228 22 22 17.5228 22 12C22 11.5373 21.3065 11.4608 21.0672 11.8568C19.9289 13.7406 17.8615 15 15.5 15C11.9101 15 9 12.0899 9 8.5C9 6.13845 10.2594 4.07105 12.1432 2.93276C12.5392 2.69347 12.4627 2 12 2C6.47715 2 2 6.47715 2 12C2 17.5228 6.47715 22 12 22Z" fill="#FFFFFF" />
</svg>