<svg xmlns="http://www.w3.org/2000/svg" width="24" height="24" viewBox="0 0 24 24" fill="none">
  <path fill-rule="nonzero" clip-rule="nonzero" d="M 7.33569 3.38268 C 7.93132 1.87244 10.0687 1.87244 10.6643 3.38268 L 11.7363 6.10082 C 11.7657 6.17532 11.8247 6.23429 11.8992 6.26367 L 14.6173 7.33569 C 16.1276 7.93132 16.1276 10.0687 14.6173 10.6643 L 11.8992 11.7363 C 11.8247 11.7657 11.7657 11.8247 11.7363 11.8992 L 10.6643 14.6173 C 10.0687 16.1276 7.93132 16.1276 7.33569 14.6173 L 6.26367 11.8992 C 6.23429 11.8247 6.17532 11.7657 6.10082 11.7363 L 3.38268 10.6643 C 1.87244 10.0687 1.87244 7.93132 3.38268 7.33569 L 6.10082 6.26367 C 6.17532 6.23429 6.23429 6.17532 6.26367 6.10082 L 7.33569 3.38268 Z M 9.26891 3.93301 C 9.17267 3.68899 8.82733 3.689 8.73109 3.93301 L 7.65907 6.65115 C 7.47722 7.11224 7.11224 7.47722 6.65116 7.65907 L 3.93301 8.73109 C 3.68899 8.82733 3.689 9.17267 3.93301 9.26891 L 6.65115 10.3409 C 7.11224 10.5228 7.47722 10.8878 7.65907 11.3488 L 8.73109 14.067 C 8.82733 14.311 9.17267 14.311 9.26891 14.067 L 10.3409 11.3488 C 10.5228 10.8878 10.8878 10.5228 11.3488 10.3409 L 14.067 9.26891 C 14.311 9.17267 14.311 8.82733 14.067 8.73109 L 11.3488 7.65907 C 10.8878 7.47722 10.5228 7.11224 10.3409 6.65116 L 9.26891 3.93301 Z M 15.7908 13.073 C 16.2235 11.9757 17.7765 11.9757 18.2092 13.073 L 18.9779 15.0221 L 20.927 15.7908 C 22.0243 16.2235 22.0243 17.7765 20.927 18.2092 L 18.9779 18.9779 L 18.2092 20.927 C 17.7765 22.0243 16.2235 22.0243 15.7908 20.927 L 15.0221 18.9779 L 13.073 18.2092 C 11.9757 17.7765 11.9757 16.2235 13.073 15.7908 L 15.0221 15.0221 L 15.7908 13.073 Z M 17 14.0953 L 16.3856 15.6533 C 16.2534 15.9883 15.9883 16.2534 15.6533 16.3856 L 14.0953 17 L 15.6533 17.6144 C 15.9883 17.7466 16.2534 18.0117 16.3856 18.3467 L 17 19.9047 L 17.6144 18.3467 C 17.7466 18.0117 18.0117 17.7466 18.3467 17.6144 L 19.9047 17 L 18.3467 16.3856 C 18.0117 16.2534 17.7466 15.9883 17.6144 15.6533 L 17 14.0953 Z" fill="#FFFFFF" />
</svg>