<svg xmlns="http://www.w3.org/2000/svg" width="24" height="24" viewBox="0 0 24 24" fill="none">
  <path fill-rule="nonzero" clip-rule="nonzero" d="M 12 1.25 C 12.4142 1.25 12.75 1.58579 12.75 2 V 4 C 12.75 4.41421 12.4142 4.75 12 4.75 C 11.5858 4.75 11.25 4.41421 11.25 4 V 2 C 11.25 1.58579 11.5858 1.25 12 1.25 Z M 3.66865 3.71609 C 3.94815 3.41039 4.42255 3.38915 4.72825 3.66865 L 6.95026 5.70024 C 7.25596 5.97974 7.2772 6.45413 6.9977 6.75983 C 6.7182 7.06553 6.2438 7.08677 5.9381 6.80727 L 3.71609 4.77569 C 3.41039 4.49619 3.38915 4.02179 3.66865 3.71609 Z M 20.3314 3.71609 C 20.6109 4.02179 20.5896 4.49619 20.2839 4.77569 L 18.0619 6.80727 C 17.7562 7.08677 17.2818 7.06553 17.0023 6.75983 C 16.7228 6.45413 16.744 5.97974 17.0497 5.70024 L 19.2718 3.66865 C 19.5775 3.38915 20.0518 3.41039 20.3314 3.71609 Z M 12 7.75 C 9.65279 7.75 7.75 9.65279 7.75 12 C 7.75 14.3472 9.65279 16.25 12 16.25 C 14.3472 16.25 16.25 14.3472 16.25 12 C 16.25 9.65279 14.3472 7.75 12 7.75 Z M 6.25 12 C 6.25 8.82436 8.82436 6.25 12 6.25 C 15.1756 6.25 17.75 8.82436 17.75 12 C 17.75 15.1756 15.1756 17.75 12 17.75 C 8.82436 17.75 6.25 15.1756 6.25 12 Z M 1.25 12 C 1.25 11.5858 1.58579 11.25 2 11.25 H 4 C 4.41421 11.25 4.75 11.5858 4.75 12 C 4.75 12.4142 4.41421 12.75 4 12.75 H 2 C 1.58579 12.75 1.25 12.4142 1.25 12 Z M 19.25 12 C 19.25 11.5858 19.5858 11.25 20 11.25 H 22 C 22.4142 11.25 22.75 11.5858 22.75 12 C 22.75 12.4142 22.4142 12.75 22 12.75 H 20 C 19.5858 12.75 19.25 12.4142 19.25 12 Z M 17.0255 17.0252 C 17.3184 16.7323 17.7933 16.7323 18.0862 17.0252 L 20.3082 19.2475 C 20.6011 19.5404 20.601 20.0153 20.3081 20.3082 C 20.0152 20.6011 19.5403 20.601 19.2475 20.3081 L 17.0255 18.0858 C 16.7326 17.7929 16.7326 17.3181 17.0255 17.0252 Z M 6.97467 17.0253 C 7.26756 17.3182 7.26756 17.7931 6.97467 18.086 L 4.75244 20.3082 C 4.45955 20.6011 3.98468 20.6011 3.69178 20.3082 C 3.39889 20.0153 3.39889 19.5404 3.69178 19.2476 L 5.91401 17.0253 C 6.2069 16.7324 6.68177 16.7324 6.97467 17.0253 Z M 12 19.25 C 12.4142 19.25 12.75 19.5858 12.75 20 V 22 C 12.75 22.4142 12.4142 22.75 12 22.75 C 11.5858 22.75 11.25 22.4142 11.25 22 V 20 C 11.25 19.5858 11.5858 19.25 12 19.25 Z" fill="#FFFFFF" />
</svg>