<svg xmlns="http://www.w3.org/2000/svg" width="24" height="24" viewBox="0 0 24 24" fill="none">
  <path d="M18 12C18 15.3137 15.3137 18 12 18C8.68629 18 6 15.3137 6 12C6 8.68629 8.68629 6 12 6C15.3137 6 18 8.68629 18 12Z" fill="#FFFFFF" />
  <path fill-rule="nonzero" clip-rule="nonzero" d="M 12 1.25 C 12.4142 1.25 12.75 1.58579 12.75 2 V 3 C 12.75 3.41421 12.4142 3.75 12 3.75 C 11.5858 3.75 11.25 3.41421 11.25 3 V 2 C 11.25 1.58579 11.5858 1.25 12 1.25 Z M 4.39861 4.39861 C 4.6915 4.10572 5.16638 4.10572 5.45927 4.39861 L 5.85211 4.79145 C 6.145 5.08434 6.145 5.55921 5.85211 5.85211 C 5.55921 6.145 5.08434 6.145 4.79145 5.85211 L 4.39861 5.45927 C 4.10572 5.16638 4.10572 4.6915 4.39861 4.39861 Z M 19.6011 4.39887 C 19.894 4.69176 19.894 5.16664 19.6011 5.45953 L 19.2083 5.85237 C 18.9154 6.14526 18.4405 6.14526 18.1476 5.85237 C 17.8547 5.55947 17.8547 5.0846 18.1476 4.79171 L 18.5405 4.39887 C 18.8334 4.10598 19.3082 4.10598 19.6011 4.39887 Z M 1.25 12 C 1.25 11.5858 1.58579 11.25 2 11.25 H 3 C 3.41421 11.25 3.75 11.5858 3.75 12 C 3.75 12.4142 3.41421 12.75 3 12.75 H 2 C 1.58579 12.75 1.25 12.4142 1.25 12 Z M 20.25 12 C 20.25 11.5858 20.5858 11.25 21 11.25 H 22 C 22.4142 11.25 22.75 11.5858 22.75 12 C 22.75 12.4142 22.4142 12.75 22 12.75 H 21 C 20.5858 12.75 20.25 12.4142 20.25 12 Z M 18.1476 18.1476 C 18.4405 17.8547 18.9154 17.8547 19.2083 18.1476 L 19.6011 18.5405 C 19.894 18.8334 19.894 19.3082 19.6011 19.6011 C 19.3082 19.894 18.8334 19.894 18.5405 19.6011 L 18.1476 19.2083 C 17.8547 18.9154 17.8547 18.4405 18.1476 18.1476 Z M 5.85211 18.1479 C 6.145 18.4408 6.145 18.9157 5.85211 19.2086 L 5.45927 19.6014 C 5.16638 19.8943 4.6915 19.8943 4.39861 19.6014 C 4.10572 19.3085 4.10572 18.8336 4.39861 18.5407 L 4.79145 18.1479 C 5.08434 17.855 5.55921 17.855 5.85211 18.1479 Z M 12 20.25 C 12.4142 20.25 12.75 20.5858 12.75 21 V 22 C 12.75 22.4142 12.4142 22.75 12 22.75 C 11.5858 22.75 11.25 22.4142 11.25 22 V 21 C 11.25 20.5858 11.5858 20.25 12 20.25 Z" fill="#FFFFFF" />
</svg>