<svg xmlns="http://www.w3.org/2000/svg" width="24" height="24" viewBox="0 0 24 24" fill="none">
  <path fill-rule="nonzero" clip-rule="nonzero" d="M 12 1.25 C 12.4142 1.25 12.75 1.58579 12.75 2 V 3 C 12.75 3.41421 12.4142 3.75 12 3.75 C 11.5858 3.75 11.25 3.41421 11.25 3 V 2 C 11.25 1.58579 11.5858 1.25 12 1.25 Z M 4.39861 4.39861 C 4.6915 4.10572 5.16638 4.10572 5.45927 4.39861 L 5.85211 4.79145 C 6.145 5.08434 6.145 5.55921 5.85211 5.85211 C 5.55921 6.145 5.08434 6.145 4.79145 5.85211 L 4.39861 5.45927 C 4.10572 5.16638 4.10572 4.6915 4.39861 4.39861 Z M 19.6011 4.39887 C 19.894 4.69176 19.894 5.16664 19.6011 5.45953 L 19.2083 5.85237 C 18.9154 6.14526 18.4405 6.14526 18.1476 5.85237 C 17.8547 5.55947 17.8547 5.0846 18.1476 4.79171 L 18.5405 4.39887 C 18.8334 4.10598 19.3082 4.10598 19.6011 4.39887 Z M 11.25 6.80317 C 8.70578 7.16709 6.75 9.35515 6.75 12 C 6.75 13.2135 7.16093 14.3296 7.85208 15.2187 H 16.1479 C 16.8391 14.3296 17.25 13.2135 17.25 12 C 17.25 9.35515 15.2942 7.16709 12.75 6.80317 V 11.1893 L 13.4697 10.4697 C 13.7626 10.1768 14.2374 10.1768 14.5303 10.4697 C 14.8232 10.7626 14.8232 11.2374 14.5303 11.5303 L 12.5303 13.5303 C 12.2374 13.8232 11.7626 13.8232 11.4697 13.5303 L 9.46967 11.5303 C 9.17678 11.2374 9.17678 10.7626 9.46967 10.4697 C 9.76256 10.1768 10.2374 10.1768 10.5303 10.4697 L 11.25 11.1893 V 6.80317 Z M 6.08267 15.25 C 5.5521 14.2858 5.25 13.1778 5.25 12 C 5.25 8.27208 8.27208 5.25 12 5.25 C 15.7279 5.25 18.75 8.27208 18.75 12 C 18.75 13.1778 18.4479 14.2858 17.9173 15.25 H 22 C 22.4142 15.25 22.75 15.5858 22.75 16 C 22.75 16.4142 22.4142 16.75 22 16.75 H 2 C 1.58579 16.75 1.25 16.4142 1.25 16 C 1.25 15.5858 1.58579 15.25 2 15.25 H 6.08267 Z M 1.25 12 C 1.25 11.5858 1.58579 11.25 2 11.25 H 3 C 3.41421 11.25 3.75 11.5858 3.75 12 C 3.75 12.4142 3.41421 12.75 3 12.75 H 2 C 1.58579 12.75 1.25 12.4142 1.25 12 Z M 20.25 12 C 20.25 11.5858 20.5858 11.25 21 11.25 H 22 C 22.4142 11.25 22.75 11.5858 22.75 12 C 22.75 12.4142 22.4142 12.75 22 12.75 H 21 C 20.5858 12.75 20.25 12.4142 20.25 12 Z M 4.25 19 C 4.25 18.5858 4.58579 18.25 5 18.25 H 19 C 19.4142 18.25 19.75 18.5858 19.75 19 C 19.75 19.4142 19.4142 19.75 19 19.75 H 5 C 4.58579 19.75 4.25 19.4142 4.25 19 Z M 7.25 22 C 7.25 21.5858 7.58579 21.25 8 21.25 H 16 C 16.4142 21.25 16.75 21.5858 16.75 22 C 16.75 22.4142 16.4142 22.75 16 22.75 H 8 C 7.58579 22.75 7.25 22.4142 7.25 22 Z" fill="#FFFFFF" />
</svg>