<svg xmlns="http://www.w3.org/2000/svg" width="24" height="24" viewBox="0 0 24 24" fill="none">
  <path fill-rule="nonzero" clip-rule="nonzero" d="M 17.5 16.5 C 17.5 19.5376 15.0376 22 12 22 C 8.96243 22 6.5 19.5376 6.5 16.5 C 6.5 14.7636 7.30465 13.2152 8.56141 12.2072 C 8.82505 11.9957 9 11.6857 9 11.3477 V 5 C 9 3.34315 10.3431 2 12 2 C 13.6569 2 15 3.34315 15 5 V 11.3477 C 15 11.6857 15.1749 11.9957 15.4386 12.2072 C 16.6954 13.2152 17.5 14.7636 17.5 16.5 Z M12 4.25 C11.5858 4.25 11.25 4.58579 11.25 5 L11.25 13.3804 C11.25 13.8172 10.9527 14.1876 10.592 14.4339 C9.93273 14.8841 9.5 15.6415 9.5 16.5 C9.5 17.8807 10.6193 19 12 19 C13.3807 19 14.5 17.8807 14.5 16.5 C14.5 15.6415 14.0673 14.8841 13.408 14.4339 C13.0473 14.1876 12.75 13.8172 12.75 13.3804 L12.75 5 C12.75 4.58579 12.4142 4.25 12 4.25 Z" fill="#FFFFFF" />
</svg>