<svg xmlns="http://www.w3.org/2000/svg" width="24" height="24" viewBox="0 0 24 24" fill="none">
  <path fill-rule="nonzero" clip-rule="nonzero" d="M 8.25 5 C 8.25 2.92893 9.92893 1.25 12 1.25 C 14.0711 1.25 15.75 2.92893 15.75 5 V 11.3477 C 15.75 11.42 15.7896 11.5273 15.9078 11.6221 C 17.3345 12.7663 18.25 14.5265 18.25 16.5 C 18.25 19.9518 15.4518 22.75 12 22.75 C 8.54822 22.75 5.75 19.9518 5.75 16.5 C 5.75 14.5265 6.66555 12.7663 8.09215 11.6221 C 8.21038 11.5273 8.25 11.42 8.25 11.3477 V 5 Z M 12 2.75 C 10.7574 2.75 9.75 3.75736 9.75 5 V 11.3477 C 9.75 11.9513 9.43973 12.4642 9.03066 12.7923 C 7.94374 13.664 7.25 15.0007 7.25 16.5 C 7.25 19.1234 9.37665 21.25 12 21.25 C 14.6234 21.25 16.75 19.1234 16.75 16.5 C 16.75 15.0007 16.0563 13.664 14.9693 12.7923 C 14.5603 12.4642 14.25 11.9513 14.25 11.3477 V 5 C 14.25 3.75736 13.2426 2.75 12 2.75 Z M 12 4.25 C 12.4142 4.25001 12.75 4.58581 12.75 5.00002 L 12.7498 13.3369 C 14.1831 13.6754 15.2498 14.9631 15.2498 16.4999 C 15.2498 18.2948 13.7947 19.7499 11.9998 19.7499 C 10.2048 19.7499 8.74977 18.2948 8.74977 16.4999 C 8.74977 14.9631 9.81643 13.6754 11.2498 13.3368 L 11.25 4.99998 C 11.25 4.58577 11.5858 4.24999 12 4.25 Z M 11.9998 14.7499 C 11.0333 14.7499 10.2498 15.5334 10.2498 16.4999 C 10.2498 17.4664 11.0333 18.2499 11.9998 18.2499 C 12.9663 18.2499 13.7498 17.4664 13.7498 16.4999 C 13.7498 15.5334 12.9663 14.7499 11.9998 14.7499 Z" fill="#FFFFFF" />
</svg>