<svg xmlns="http://www.w3.org/2000/svg" width="24" height="24" viewBox="0 0 24 24" fill="none">
  <path fill-rule="nonzero" clip-rule="nonzero" d="M4.31274 6.5 C4.67997 6.61221 5.16504 6.72181 5.75934 6.82086 C7.33609 7.08366 9.54289 7.25 12 7.25 C14.4571 7.25 16.6639 7.08366 18.2407 6.82086 C18.8349 6.72182 19.32 6.61222 19.6872 6.50002 C19.6866 6.49985 19.6861 6.49968 19.6855 6.49951 C19.051 6.30583 18.1032 6.13032 16.9168 5.99797 C16.5052 5.95204 16.2087 5.58109 16.2546 5.16944 C16.3006 4.75778 16.6715 4.46129 17.0832 4.50722 C18.3088 4.64395 19.361 4.83211 20.1234 5.06485 C20.4993 5.17957 20.8491 5.31812 21.1206 5.49321 C21.3529 5.64298 21.75 5.96462 21.75 6.5 C21.75 6.9311 21.4871 7.22395 21.2908 7.38382 C21.0852 7.55129 20.8276 7.67922 20.5677 7.78165 C20.0403 7.98945 19.3215 8.16141 18.4873 8.30046 C16.8067 8.58056 14.5135 8.75 12 8.75 C9.48655 8.75 7.19335 8.58056 5.51274 8.30046 C4.67845 8.16141 3.95965 7.98945 3.43231 7.78165 C3.17237 7.67922 2.91483 7.55129 2.70921 7.38382 C2.51293 7.22395 2.25 6.9311 2.25 6.5 C2.25 6.0689 2.51293 5.77605 2.70921 5.61618 C2.91483 5.44871 3.17237 5.32078 3.43231 5.21835 C3.95965 5.01055 4.67845 4.83859 5.51274 4.69954 C7.19335 4.41944 9.48655 4.25 12 4.25 C12.4142 4.25 12.75 4.58579 12.75 5 C12.75 5.41421 12.4142 5.75 12 5.75 C9.54289 5.75 7.33609 5.91634 5.75934 6.17914 C5.16504 6.27819 4.67997 6.38779 4.31274 6.5 Z M3.64796 6.78666 C3.64803 6.78667 3.64911 6.78572 3.65099 6.78384 C3.64884 6.78572 3.64789 6.78666 3.64796 6.78666 Z M20.3582 6.79149 C20.3588 6.79144 20.3551 6.78757 20.3454 6.78004 C20.3527 6.78778 20.3576 6.79154 20.3582 6.79149 Z M20.349 6.21616 C20.3512 6.21428 20.3521 6.21334 20.352 6.21334 C20.352 6.21333 20.3509 6.21428 20.349 6.21616 Z M3.65099 6.21616 C3.64911 6.21428 3.64803 6.21333 3.64796 6.21334 C3.64789 6.21334 3.64883 6.21428 3.65099 6.21616 Z" fill="#FFFFFF" />
  <path fill-rule="nonzero" clip-rule="nonzero" d="M 20.7062 9.74722 C 20.8459 10.1372 20.6431 10.5665 20.2532 10.7062 L 20.0002 10.0002 C 20.2532 10.7062 20.2534 10.7062 20.2532 10.7062 L 20.2522 10.7066 L 20.2509 10.707 L 20.2477 10.7082 L 20.2381 10.7115 L 20.2065 10.7223 C 20.1801 10.7312 20.1427 10.7435 20.0943 10.7587 C 19.9977 10.789 19.8575 10.831 19.6738 10.8805 C 19.3064 10.9797 18.7655 11.1094 18.0524 11.2382 C 16.6261 11.496 14.5125 11.7502 11.7243 11.7502 C 8.93627 11.7502 6.95557 11.496 5.65787 11.2355 C 5.00907 11.1053 4.53131 10.9735 4.20908 10.8714 C 4.04799 10.8203 3.92583 10.7766 3.84067 10.7442 C 3.79809 10.728 3.76478 10.7147 3.74047 10.7047 L 3.71075 10.6922 L 3.70091 10.6879 L 3.69723 10.6863 L 3.6957 10.6856 C 3.69538 10.6855 3.69438 10.685 4.00019 10.0002 L 3.69438 10.685 C 3.31616 10.5161 3.14647 10.0726 3.31536 9.69438 C 3.48378 9.31723 3.92527 9.14743 4.30278 9.31394 C 4.30224 9.3137 4.30225 9.31371 4.30278 9.31394 M 4.30278 9.31394 C 4.30224 9.3137 4.30225 9.31371 4.30278 9.31394 L 4.31288 9.31817 C 4.32406 9.32279 4.34421 9.33092 4.37357 9.34208 C 4.43231 9.3644 4.52795 9.39886 4.66249 9.44152 C 4.93155 9.52684 5.35644 9.64509 5.95308 9.76485 C 7.14625 10.0044 9.02762 10.2502 11.7243 10.2502 C 14.4209 10.2502 16.4452 10.0044 17.7857 9.76214 C 18.456 9.641 18.9556 9.5207 19.283 9.43234 C 19.4466 9.38817 19.5673 9.35197 19.6447 9.32764 C 19.6835 9.31547 19.7114 9.30628 19.7285 9.30053 L 19.7472 9.29414 L 19.9814 9.94776 C 19.7472 9.29413 19.747 9.2942 19.7472 9.29414 C 20.1371 9.15471 20.5666 9.35741 20.7062 9.74722 M 19.7472 9.29414 C 19.7471 9.29418 19.7474 9.29409 19.7472 9.29414 V 9.29414 Z" fill="#FFFFFF" />
  <path fill-rule="nonzero" clip-rule="nonzero" d="M15.7249 15.3025 L15.7263 15.302 L15.7276 15.3015 C15.7277 15.3014 15.7276 15.3015 15.7271 15.3017 C16.1111 15.1515 16.5446 15.3395 16.6971 15.7231 C16.8502 16.108 16.6622 16.5441 16.2773 16.6971 L16.0002 16.0002 C16.2773 16.6971 16.277 16.6972 16.2768 16.6973 L16.2762 16.6976 L16.275 16.698 L16.2723 16.6991 L16.2654 16.7018 L16.2461 16.7091 C16.2307 16.7148 16.2102 16.7221 16.1848 16.7309 C16.1338 16.7484 16.0626 16.7716 15.9708 16.7983 C15.7871 16.8519 15.5209 16.92 15.1687 16.987 C14.4642 17.121 13.4172 17.2502 12.0002 17.2502 C10.5832 17.2502 9.5362 17.121 8.83167 16.987 C8.47951 16.92 8.21331 16.8519 8.0296 16.7983 C7.93776 16.7716 7.86658 16.7484 7.81563 16.7309 C7.79016 16.7221 7.76975 16.7148 7.75434 16.7091 L7.73499 16.7018 L7.72812 16.6991 L7.72538 16.698 L7.72419 16.6976 L7.72364 16.6973 C7.72337 16.6972 7.72311 16.6971 8.0002 16.0002 L7.72311 16.6971 C7.33821 16.5441 7.15023 16.108 7.30326 15.7231 C7.45576 15.3395 7.88934 15.1515 8.27326 15.3017 M8.27564 15.3026 C8.28 15.3042 8.28929 15.3076 8.30356 15.3125 C8.3321 15.3223 8.3806 15.3382 8.44951 15.3583 C8.5873 15.3985 8.8069 15.4554 9.11195 15.5134 C9.72182 15.6294 10.6749 15.7502 12.0002 15.7502 C13.3255 15.7502 14.2786 15.6294 14.8885 15.5134 C15.1935 15.4554 15.4131 15.3985 15.5509 15.3583 C15.6198 15.3382 15.6683 15.3223 15.6968 15.3125 C15.7111 15.3076 15.7204 15.3042 15.7248 15.3026 M 15.7236 15.3031 L 15.7241 15.3029 L 15.7248 15.3026" fill="#FFFFFF" />
  <path fill-rule="evenodd" clip-rule="evenodd" d="M16.7099 18.2577C16.8438 18.6497 16.6346 19.076 16.2426 19.2099C15.4418 19.4835 14.4568 19.7502 13.0001 19.7502C11.6034 19.7502 10.5661 19.6247 9.86201 19.4927C9.45489 19.4165 9.18668 19.0246 9.26296 18.6175C9.33924 18.2103 9.73113 17.9421 10.1383 18.0184C10.7491 18.1328 11.6937 18.2502 13.0001 18.2502C14.2467 18.2502 15.0635 18.0276 15.7577 17.7905C16.1496 17.6566 16.5759 17.8658 16.7099 18.2577Z" fill="#FFFFFF" />
  <path fill-rule="nonzero" clip-rule="nonzero" d="M6.59123 12.5383 C6.60621 12.5491 6.6334 12.5671 6.67665 12.5906 C6.84682 12.683 7.23552 12.8434 8.02258 12.9826 C8.43047 13.0548 8.70264 13.4439 8.63049 13.8518 C8.55834 14.2597 8.16921 14.5318 7.76132 14.4597 C6.87564 14.303 6.31844 14.1029 5.9609 13.9088 C5.78017 13.8107 5.64468 13.7109 5.5431 13.6141 C5.49221 13.5656 5.45005 13.5181 5.41531 13.4723 C5.39796 13.4494 5.38257 13.4271 5.36896 13.4056 C5.36215 13.3948 5.35581 13.3842 5.34989 13.3739 L5.34135 13.3586 L5.33732 13.3511 L5.33537 13.3474 L5.3344 13.3455 C5.33393 13.3446 5.33345 13.3437 6.00016 13.0002 L5.33345 13.3437 C5.14373 12.9755 5.28843 12.5232 5.65664 12.3335 C5.98236 12.1656 6.37388 12.2595 6.59123 12.5383 Z M 18.3437 12.3335 C 18.7119 12.5232 18.8566 12.9755 18.6669 13.3437 L 18.0002 13.0002 C 18.6669 13.3437 18.6661 13.3451 18.6654 13.3465 L 18.6639 13.3493 L 18.6609 13.3551 L 18.6545 13.3667 C 18.6501 13.3746 18.6455 13.3825 18.6406 13.3906 C 18.6308 13.4069 18.62 13.4236 18.608 13.4407 C 18.5841 13.475 18.5559 13.5105 18.5228 13.547 C 18.4567 13.62 18.3719 13.6954 18.2639 13.7709 C 18.0497 13.9208 17.7378 14.0757 17.277 14.2171 C 16.3614 14.4982 14.7776 14.7502 12.0002 14.7502 C 11.5859 14.7502 11.2502 14.4144 11.2502 14.0002 C 11.2502 13.5859 11.5859 13.2502 12.0002 13.2502 C 14.7075 13.2502 16.1237 13.0021 16.8368 12.7832 C 17.1905 12.6746 17.3502 12.5795 17.404 12.5419 C 17.4058 12.5406 17.4075 12.5394 17.4091 12.5383 C 17.6264 12.2595 18.018 12.1656 18.3437 12.3335 Z" fill="#FFFFFF" />
</svg>