<svg xmlns="http://www.w3.org/2000/svg" width="24" height="24" viewBox="0 0 24 24" fill="none">
  <path fill-rule="nonzero" clip-rule="nonzero" d="M4.31274 6.5 C4.67997 6.61221 5.16504 6.72181 5.75934 6.82086 C7.33609 7.08366 9.54289 7.25 12 7.25 C14.4571 7.25 16.6639 7.08366 18.2407 6.82086 C18.8349 6.72182 19.32 6.61222 19.6872 6.50002 L19.6855 6.49951 C19.051 6.30583 18.1032 6.13032 16.9168 5.99797 C16.5052 5.95204 16.2087 5.58109 16.2546 5.16944 C16.3006 4.75778 16.6715 4.46129 17.0832 4.50722 C18.3088 4.64395 19.361 4.83211 20.1234 5.06485 C20.4993 5.17957 20.8491 5.31812 21.1206 5.49321 C21.3529 5.64298 21.75 5.96462 21.75 6.5 C21.75 6.9311 21.4871 7.22395 21.2908 7.38382 C21.0852 7.55129 20.8276 7.67922 20.5677 7.78165 C20.0403 7.98945 19.3215 8.16141 18.4873 8.30046 C16.8067 8.58056 14.5135 8.75 12 8.75 C9.48655 8.75 7.19335 8.58056 5.51274 8.30046 C4.67845 8.16141 3.95965 7.98945 3.43231 7.78165 C3.17237 7.67922 2.91483 7.55129 2.70921 7.38382 C2.51293 7.22395 2.25 6.9311 2.25 6.5 C2.25 6.0689 2.51293 5.77605 2.70921 5.61618 C2.91483 5.44871 3.17237 5.32078 3.43231 5.21835 C3.95965 5.01055 4.67845 4.83859 5.51274 4.69954 C7.19335 4.41944 9.48655 4.25 12 4.25 C12.4142 4.25 12.75 4.58579 12.75 5 C12.75 5.41421 12.4142 5.75 12 5.75 C9.54289 5.75 7.33609 5.91634 5.75934 6.17914 C5.16504 6.27819 4.67997 6.38779 4.31274 6.5 Z M20.3582 6.79149 C20.3582 6.79149 20.3551 6.78757 20.3454 6.78004 C20.3527 6.78778 20.3582 6.79149 20.3582 6.79149 Z" fill="#FFFFFF" />
  <path fill-rule="nonzero" clip-rule="nonzero" d="M 20.7061 9.74703 C 20.8458 10.137 20.6429 10.5663 20.253 10.7061 L 20 10 C 20.253 10.7061 20.253 10.7061 20.253 10.7061 L 20.2507 10.7068 L 20.2475 10.708 L 20.2379 10.7114 L 20.2064 10.7221 C 20.1799 10.731 20.1425 10.7433 20.0942 10.7585 C 19.9975 10.7888 19.8573 10.8308 19.6736 10.8803 C 19.3063 10.9795 18.7653 11.1092 18.0522 11.238 C 16.626 11.4958 14.5124 11.75 11.7241 11.75 C 8.93608 11.75 6.95538 11.4958 5.65768 11.2353 C 5.00888 11.1051 4.53113 10.9733 4.2089 10.8712 C 4.0478 10.8201 3.92564 10.7764 3.84048 10.744 C 3.79791 10.7279 3.76459 10.7145 3.74028 10.7045 L 3.71056 10.692 L 3.70072 10.6877 L 3.69704 10.6861 L 3.69551 10.6854 C 3.69551 10.6854 3.69419 10.6848 4 10 L 3.69419 10.6848 C 3.31597 10.5159 3.14628 10.0724 3.31518 9.69419 C 3.48359 9.31705 3.92508 9.14725 4.30259 9.31375 M 4.30259 9.31375 L 4.31269 9.31799 C 4.32387 9.3226 4.34402 9.33073 4.37339 9.3419 C 4.43212 9.36422 4.52776 9.39867 4.66231 9.44133 C 4.93136 9.52665 5.35625 9.6449 5.95289 9.76467 C 7.14606 10.0042 9.02744 10.25 11.7241 10.25 C 14.4207 10.25 16.445 10.0042 17.7855 9.76195 C 18.4558 9.64081 18.9554 9.52051 19.2828 9.43216 C 19.4465 9.38798 19.5671 9.35178 19.6446 9.32745 C 19.6833 9.31529 19.7112 9.30609 19.7283 9.30034 L 19.747 9.29395 L 19.9812 9.94758 C 19.747 9.29394 19.747 9.29395 19.747 9.29395 C 20.1369 9.15452 20.5664 9.35723 20.7061 9.74703" fill="#FFFFFF" />
  <path fill-rule="nonzero" clip-rule="nonzero" d="M15.7247 15.3023 L15.7269 15.3015 C16.1109 15.1513 16.5444 15.3393 16.6969 15.7229 C16.85 16.1078 16.662 16.5439 16.2771 16.6969 L16 16 C16.2771 16.6969 16.276 16.6974 16.276 16.6974 L16.2748 16.6978 L16.2721 16.6989 L16.2652 16.7016 L16.2459 16.7089 C16.2305 16.7146 16.21 16.7219 16.1846 16.7307 C16.1336 16.7482 16.0624 16.7714 15.9706 16.7981 C15.7869 16.8517 15.5207 16.9198 15.1685 16.9868 C14.464 17.1208 13.417 17.25 12 17.25 C10.583 17.25 9.536 17.1208 8.83147 16.9868 C8.47931 16.9198 8.21311 16.8517 8.0294 16.7981 C7.93755 16.7714 7.86638 16.7482 7.81543 16.7307 C7.78996 16.7219 7.76955 16.7146 7.75414 16.7089 L7.73479 16.7016 L7.72792 16.6989 L7.72518 16.6978 L7.72399 16.6974 L7.72291 16.6969 C7.72291 16.6969 7.72291 16.6969 8 16 L7.72291 16.6969 C7.33801 16.5439 7.15003 16.1078 7.30306 15.7229 C7.45556 15.3393 7.88914 15.1513 8.27306 15.3015 M8.27544 15.3024 C8.2798 15.304 8.28909 15.3074 8.30336 15.3123 C8.3319 15.3221 8.3804 15.338 8.44931 15.3581 C8.5871 15.3983 8.8067 15.4552 9.11175 15.5132 C9.72162 15.6292 10.6747 15.75 12 15.75 C13.3253 15.75 14.2784 15.6292 14.8883 15.5132 C15.1933 15.4552 15.4129 15.3983 15.5507 15.3581 C15.6196 15.338 15.6681 15.3221 15.6966 15.3123 C15.7109 15.3074 15.7204 15.304 15.7247 15.3023 M 15.7234 15.3029 L 15.7247 15.3023 L 15.7234 15.3029 Z" fill="#FFFFFF" />
  <path fill-rule="evenodd" clip-rule="evenodd" d="M16.7097 18.2575C16.8436 18.6495 16.6344 19.0758 16.2425 19.2097C15.4416 19.4833 14.4567 19.75 13 19.75C11.6032 19.75 10.566 19.6245 9.86188 19.4925C9.45475 19.4163 9.18655 19.0244 9.26283 18.6173C9.33911 18.2101 9.73099 17.9419 10.1381 18.0182C10.7489 18.1326 11.6936 18.25 13 18.25C14.2465 18.25 15.0634 18.0274 15.7575 17.7903C16.1495 17.6564 16.5758 17.8656 16.7097 18.2575Z" fill="#FFFFFF" />
  <path fill-rule="nonzero" clip-rule="nonzero" d="M6.59107 12.5381 C6.60605 12.5489 6.63324 12.567 6.67649 12.5904 C6.84666 12.6828 7.23536 12.8432 8.02243 12.9825 C8.43031 13.0546 8.70248 13.4437 8.63033 13.8516 C8.55819 14.2595 8.16905 14.5317 7.76117 14.4595 C6.87548 14.3029 6.31828 14.1028 5.96074 13.9087 C5.78001 13.8105 5.64452 13.7108 5.54294 13.614 C5.49206 13.5655 5.4499 13.5179 5.41515 13.4721 C5.3978 13.4493 5.38242 13.427 5.3688 13.4054 C5.36199 13.3946 5.35565 13.3841 5.34974 13.3738 L5.34119 13.3584 L5.33716 13.3509 L5.33521 13.3472 L5.33425 13.3454 C5.33425 13.3454 5.33329 13.3435 6 13 L5.33329 13.3435 C5.14358 12.9753 5.28827 12.523 5.65648 12.3333 C5.98221 12.1655 6.37372 12.2593 6.59107 12.5381 Z M 18.3435 12.3333 C 18.7117 12.523 18.8564 12.9753 18.6667 13.3435 L 18 13 C 18.6667 13.3435 18.6652 13.3463 18.6652 13.3463 L 18.6638 13.3492 L 18.6607 13.3549 L 18.6543 13.3666 C 18.6499 13.3744 18.6453 13.3824 18.6404 13.3905 C 18.6306 13.4067 18.6198 13.4234 18.6079 13.4405 C 18.5839 13.4748 18.5558 13.5104 18.5227 13.5468 C 18.4565 13.6198 18.3717 13.6952 18.2637 13.7708 C 18.0495 13.9206 17.7376 14.0755 17.2769 14.217 C 16.3613 14.498 14.7774 14.75 12 14.75 C 11.5858 14.75 11.25 14.4142 11.25 14 C 11.25 13.5858 11.5858 13.25 12 13.25 C 14.7073 13.25 16.1235 13.002 16.8367 12.783 C 17.1904 12.6745 17.3501 12.5794 17.4039 12.5417 C 17.4057 12.5404 17.4089 12.5381 17.4089 12.5381 C 17.6263 12.2593 18.0178 12.1655 18.3435 12.3333 Z" fill="#FFFFFF" />
</svg>