<svg xmlns="http://www.w3.org/2000/svg" width="24" height="24" viewBox="0 0 24 24" fill="none">
  <path fill-rule="nonzero" clip-rule="nonzero" d="M 6.25 5.5 C 6.25 3.70508 7.70507 2.25 9.5 2.25 C 11.2949 2.25 12.75 3.70507 12.75 5.5 C 12.75 7.29493 11.2949 8.75 9.5 8.75 H 3 C 2.58579 8.75 2.25 8.41421 2.25 8 C 2.25 7.58579 2.58579 7.25 3 7.25 H 9.5 C 10.4665 7.25 11.25 6.4665 11.25 5.5 C 11.25 4.5335 10.4665 3.75 9.5 3.75 C 8.5335 3.75 7.75 4.5335 7.75 5.5 V 5.85714 C 7.75 6.27136 7.41421 6.60714 7 6.60714 C 6.58579 6.60714 6.25 6.27136 6.25 5.85714 V 5.5 Z M 14.25 7.5 C 14.25 5.15279 16.1528 3.25 18.5 3.25 C 20.8472 3.25 22.75 5.15279 22.75 7.5 C 22.75 9.84721 20.8472 11.75 18.5 11.75 H 2 C 1.58579 11.75 1.25 11.4142 1.25 11 C 1.25 10.5858 1.58579 10.25 2 10.25 H 18.5 C 20.0188 10.25 21.25 9.01878 21.25 7.5 C 21.25 5.98122 20.0188 4.75 18.5 4.75 C 16.9812 4.75 15.75 5.98122 15.75 7.5 V 8 C 15.75 8.41421 15.4142 8.75 15 8.75 C 14.5858 8.75 14.25 8.41421 14.25 8 V 7.5 Z M 3.25 14 C 3.25 13.5858 3.58579 13.25 4 13.25 H 18.5 C 20.8472 13.25 22.75 15.1528 22.75 17.5 C 22.75 19.8472 20.8472 21.75 18.5 21.75 C 16.1528 21.75 14.25 19.8472 14.25 17.5 V 17 C 14.25 16.5858 14.5858 16.25 15 16.25 C 15.4142 16.25 15.75 16.5858 15.75 17 V 17.5 C 15.75 19.0188 16.9812 20.25 18.5 20.25 C 20.0188 20.25 21.25 19.0188 21.25 17.5 C 21.25 15.9812 20.0188 14.75 18.5 14.75 H 4 C 3.58579 14.75 3.25 14.4142 3.25 14 Z" fill="#FFFFFF" />
</svg>