<svg xmlns="http://www.w3.org/2000/svg" width="24" height="24" viewBox="0 0 24 24" fill="none">
  <path fill-rule="nonzero" clip-rule="nonzero" d="M2.06935 5.00839 C2.37464 3.39031 3.64031 2.12464 5.25839 1.81935 C5.62595 1.75 6.06722 1.75 6.94975 1.75 C7.33642 1.75 7.52976 1.75 7.71557 1.76738 C8.51665 1.84229 9.27652 2.15704 9.89594 2.67051 C10.0396 2.78961 10.1763 2.92633 10.4497 3.19975 L11 3.75 C11.8158 4.56578 12.2237 4.97367 12.7121 5.24543 C12.9804 5.39471 13.2651 5.5126 13.5604 5.59678 C14.0979 5.75 14.6747 5.75 15.8284 5.75 L16.2021 5.75 C18.8345 5.75 20.1506 5.75 21.0062 6.51946 C21.0849 6.59024 21.1598 6.66514 21.2305 6.74383 C22 7.59935 22 8.91554 22 11.5479 L22 13.75 C22 17.5212 22 19.4069 20.8284 20.5784 C19.6569 21.75 17.7712 21.75 14 21.75 L10 21.75 C6.22876 21.75 4.34315 21.75 3.17157 20.5784 C2 19.4069 2 17.5212 2 13.75 L2 6.69975 C2 5.81722 2 5.37595 2.06935 5.00839 Z M12 11 C11.5858 11 11.25 11.3358 11.25 11.75 L11.25 13 L10 13 C9.58579 13 9.25 13.3358 9.25 13.75 C9.25 14.1642 9.58579 14.5 10 14.5 L11.25 14.5 L11.25 15.75 C11.25 16.1642 11.5858 16.5 12 16.5 C12.4142 16.5 12.75 16.1642 12.75 15.75 L12.75 14.5 L14 14.5 C14.4142 14.5 14.75 14.1642 14.75 13.75 C14.75 13.3358 14.4142 13 14 13 L12.75 13 L12.75 11.75 C12.75 11.3358 12.4142 11 12 11 Z" fill="#FFFFFF" />
</svg>