<svg xmlns="http://www.w3.org/2000/svg" width="24" height="24" viewBox="0 0 24 24" fill="none">
  <path fill-rule="evenodd" clip-rule="evenodd" d="M12 11.75C11.3096 11.75 10.75 12.3096 10.75 13C10.75 13.6904 11.3096 14.25 12 14.25C12.6904 14.25 13.25 13.6904 13.25 13C13.25 12.3096 12.6904 11.75 12 11.75Z" fill="#FFFFFF" />
  <path fill-rule="nonzero" clip-rule="nonzero" d="M 22 11.7979 V 14 C 22 17.7712 22 19.6569 20.8284 20.8284 C 19.6569 22 17.7712 22 14 22 H 10 C 6.22876 22 4.34315 22 3.17157 20.8284 C 2 19.6569 2 17.7712 2 14 V 6.94975 C 2 6.06722 2 5.62595 2.06935 5.25839 C 2.37464 3.64031 3.64031 2.37464 5.25839 2.06935 C 5.62595 2 6.06722 2 6.94975 2 C 7.33642 2 7.52976 2 7.71557 2.01738 C 8.51665 2.09229 9.27652 2.40704 9.89594 2.92051 C 10.0396 3.03961 10.1763 3.17633 10.4497 3.44975 L 11 4 C 11.8158 4.81578 12.2237 5.22367 12.7121 5.49543 C 12.9804 5.64471 13.2651 5.7626 13.5604 5.84678 C 14.0979 6 14.6747 6 15.8284 6 H 16.2021 C 18.8345 6 20.1506 6 21.0062 6.76946 C 21.0849 6.84024 21.1598 6.91514 21.2305 6.99383 C 22 7.84935 22 9.16554 22 11.7979 Z M 12 10.25 C 10.4812 10.25 9.25 11.4812 9.25 13 C 9.25 14.2588 10.0957 15.32 11.25 15.6465 V 17.5 C 11.25 17.9142 11.5858 18.25 12 18.25 C 12.4142 18.25 12.75 17.9142 12.75 17.5 V 15.6465 C 13.9043 15.32 14.75 14.2588 14.75 13 C 14.75 11.4812 13.5188 10.25 12 10.25 Z" fill="#FFFFFF" />
</svg>