<svg xmlns="http://www.w3.org/2000/svg" width="24" height="24" viewBox="0 0 24 24" fill="none">
  <path fill-rule="nonzero" clip-rule="nonzero" d="M2.06935 5.25839 C2.37464 3.64031 3.64031 2.37464 5.25839 2.06935 C5.62595 2 6.06722 2 6.94975 2 C7.33642 2 7.52976 2 7.71557 2.01738 C8.51665 2.09229 9.27652 2.40704 9.89594 2.92051 C10.0396 3.03961 10.1763 3.17633 10.4497 3.44975 L11 4 C11.8158 4.81578 12.2237 5.22367 12.7121 5.49543 C12.9804 5.64471 13.2651 5.7626 13.5604 5.84678 C14.0979 6 14.6747 6 15.8284 6 L16.2021 6 C18.8345 6 20.1506 6 21.0062 6.76946 C21.0849 6.84024 21.1598 6.91514 21.2305 6.99383 C22 7.84935 22 9.16554 22 11.7979 L22 14 C22 17.7712 22 19.6569 20.8284 20.8284 C19.6569 22 17.7712 22 14 22 L10 22 C6.22876 22 4.34315 22 3.17157 20.8284 C2 19.6569 2 17.7712 2 14 L2 6.94975 C2 6.06722 2 5.62595 2.06935 5.25839 Z M14.4983 11.4394 C14.1887 11.1643 13.7146 11.1921 13.4394 11.5017 L11.3333 13.8711 L10.5606 13.0017 C10.2854 12.6921 9.81131 12.6643 9.50173 12.9394 C9.19214 13.2146 9.16426 13.6887 9.43944 13.9983 L10.7728 15.4983 C10.9151 15.6584 11.1191 15.75 11.3333 15.75 C11.5476 15.75 11.7516 15.6584 11.8939 15.4983 L14.5606 12.4983 C14.8357 12.1887 14.8079 11.7146 14.4983 11.4394 Z" fill="#FFFFFF" />
</svg>