<svg xmlns="http://www.w3.org/2000/svg" width="24" height="24" viewBox="0 0 24 24" fill="none">
  <path fill-rule="nonzero" clip-rule="nonzero" d="M 6.85929 1.25001 C 6.88904 1.25001 6.91919 1.25002 6.94976 1.25002 L 6.98675 1.25001 C 7.33818 1.24999 7.56433 1.24998 7.78542 1.27065 C 8.7367 1.35961 9.63905 1.73337 10.3746 2.34313 C 10.5456 2.48485 10.7055 2.64477 10.954 2.89329 L 11.5303 3.46969 C 12.3761 4.3154 12.7012 4.6311 13.0768 4.84005 C 13.2948 4.96134 13.526 5.05713 13.766 5.12552 C 14.1793 5.24333 14.6324 5.25002 15.8284 5.25002 L 16.253 5.25002 C 17.526 5.25 18.5521 5.24998 19.364 5.35206 C 20.2054 5.45784 20.9204 5.68358 21.5077 6.21185 C 21.6061 6.30032 21.6997 6.39394 21.7882 6.49231 C 22.3165 7.07965 22.5422 7.79459 22.648 8.63601 C 22.75 9.4479 22.75 10.4741 22.75 11.747 V 14.0564 C 22.75 15.8942 22.75 17.3498 22.5969 18.489 C 22.4393 19.6615 22.1071 20.6104 21.3588 21.3588 C 20.6104 22.1071 19.6615 22.4393 18.489 22.5969 C 17.3498 22.75 15.8942 22.75 14.0564 22.75 H 9.94361 C 8.10584 22.75 6.65021 22.75 5.51099 22.5969 C 4.33857 22.4393 3.38962 22.1071 2.64126 21.3588 C 1.8929 20.6104 1.56078 19.6615 1.40315 18.489 C 1.24999 17.3498 1.25 15.8942 1.25002 14.0564 L 1.25002 6.94976 C 1.25002 6.91919 1.25001 6.88904 1.25001 6.85929 C 1.2499 6.06338 1.24982 5.55685 1.33237 5.11935 C 1.6949 3.19788 3.19788 1.6949 5.11935 1.33237 C 5.55685 1.24982 6.06338 1.2499 6.85929 1.25001 Z M 6.94976 2.75002 C 6.03312 2.75002 5.67873 2.75329 5.39746 2.80636 C 4.08277 3.05441 3.05441 4.08277 2.80636 5.39746 C 2.75329 5.67873 2.75002 6.03312 2.75002 6.94976 V 14 C 2.75002 15.9068 2.75161 17.2615 2.88978 18.2892 C 3.02504 19.2953 3.27871 19.8749 3.70192 20.2981 C 4.12513 20.7213 4.70478 20.975 5.71087 21.1103 C 6.73853 21.2484 8.0932 21.25 10 21.25 H 14 C 15.9068 21.25 17.2615 21.2484 18.2892 21.1103 C 19.2953 20.975 19.8749 20.7213 20.2981 20.2981 C 20.7213 19.8749 20.975 19.2953 21.1103 18.2892 C 21.2484 17.2615 21.25 15.9068 21.25 14 V 11.7979 C 21.25 10.4621 21.2486 9.5305 21.1597 8.82312 C 21.0731 8.13448 20.9141 7.76356 20.6729 7.49539 C 20.6198 7.43637 20.5637 7.3802 20.5046 7.32712 C 20.2365 7.08592 19.8656 6.92692 19.1769 6.84034 C 18.4695 6.75141 17.538 6.75002 16.2021 6.75002 H 15.8284 C 15.7912 6.75002 15.7545 6.75002 15.7182 6.75003 C 14.6702 6.75025 13.9944 6.75038 13.3548 6.56806 C 13.0041 6.46811 12.6661 6.32811 12.3475 6.15083 C 11.7663 5.82747 11.2885 5.3495 10.5476 4.60833 C 10.522 4.58265 10.496 4.55666 10.4697 4.53035 L 9.91943 3.98009 C 9.63616 3.69682 9.52778 3.58951 9.41731 3.49793 C 8.91403 3.08073 8.29664 2.825 7.64576 2.76413 C 7.50289 2.75077 7.35038 2.75002 6.94976 2.75002 Z M 12 11.0345 C 11.9419 11.1352 11.8772 11.251 11.8011 11.3877 L 11.7027 11.5641 C 11.6958 11.5765 11.6884 11.5901 11.6804 11.6047 C 11.6019 11.7483 11.4718 11.9861 11.255 12.1507 C 11.0336 12.3188 10.7673 12.3766 10.6116 12.4104 C 10.596 12.4138 10.5815 12.4169 10.5683 12.4199 L 10.3774 12.4631 C 10.2022 12.5028 10.0595 12.5351 9.93752 12.5658 C 10.0169 12.6635 10.12 12.7848 10.254 12.9416 L 10.3842 13.0937 C 10.3934 13.1045 10.4035 13.1161 10.4142 13.1284 C 10.5221 13.2527 10.6964 13.4535 10.7769 13.7126 C 10.8566 13.9687 10.8291 14.2324 10.8118 14.3988 C 10.8101 14.4154 10.8084 14.4311 10.807 14.4456 L 10.7873 14.6487 C 10.7691 14.8369 10.7549 14.9872 10.7455 15.1094 C 10.8497 15.0635 10.9682 15.009 11.109 14.9441 L 11.2878 14.8618 C 11.3001 14.8561 11.3136 14.8498 11.3282 14.8429 C 11.4717 14.7752 11.7213 14.6575 12 14.6575 C 12.2787 14.6575 12.5284 14.7752 12.6719 14.8429 C 12.6865 14.8498 12.6999 14.8561 12.7122 14.8618 L 12.891 14.9441 C 13.0318 15.009 13.1504 15.0635 13.2546 15.1094 C 13.2451 14.9872 13.2309 14.8369 13.2127 14.6487 L 13.193 14.4456 C 13.1916 14.4311 13.19 14.4154 13.1883 14.3988 C 13.1709 14.2324 13.1435 13.9687 13.2231 13.7126 C 13.3037 13.4535 13.4779 13.2527 13.5859 13.1284 C 13.5966 13.1161 13.6066 13.1045 13.6158 13.0937 L 13.746 12.9416 C 13.8801 12.7848 13.9832 12.6635 14.0625 12.5658 C 13.9405 12.5351 13.7978 12.5028 13.6226 12.4631 L 13.4317 12.4199 C 13.4185 12.4169 13.404 12.4138 13.3884 12.4104 C 13.2327 12.3766 12.9664 12.3188 12.745 12.1507 C 12.5282 11.9861 12.3982 11.7483 12.3196 11.6047 C 12.3117 11.5901 12.3042 11.5765 12.2973 11.5641 L 12.199 11.3877 C 12.1228 11.251 12.0581 11.1352 12 11.0345 Z M 11.0135 9.79965 C 11.1857 9.57483 11.4983 9.25002 12 9.25002 C 12.5017 9.25002 12.8144 9.57483 12.9865 9.79965 C 13.1508 10.0142 13.3163 10.3113 13.486 10.6158 C 13.4937 10.6296 13.5014 10.6435 13.5092 10.6574 L 13.6075 10.8337 C 13.6303 10.8746 13.6482 10.9068 13.6639 10.9343 C 13.6912 10.9407 13.723 10.9479 13.7628 10.9569 L 13.9537 11.0001 C 13.9693 11.0037 13.9849 11.0072 14.0006 11.0107 C 14.3284 11.0848 14.6542 11.1584 14.9043 11.257 C 15.1804 11.3658 15.5547 11.5777 15.699 12.0416 C 15.8407 12.4974 15.6618 12.8834 15.5057 13.1315 C 15.3611 13.3611 15.1414 13.6179 14.9165 13.8808 C 14.9063 13.8926 14.8962 13.9045 14.886 13.9164 L 14.7558 14.0686 C 14.7214 14.109 14.6954 14.1394 14.6735 14.1657 C 14.6765 14.202 14.6805 14.2443 14.686 14.3009 L 14.7057 14.504 C 14.7072 14.5195 14.7087 14.535 14.7102 14.5504 C 14.7444 14.9023 14.7774 15.2424 14.7653 15.5145 C 14.7526 15.7997 14.6841 16.2315 14.297 16.5255 C 13.8975 16.8287 13.4564 16.7626 13.1767 16.6824 C 12.919 16.6086 12.6144 16.4683 12.3077 16.3269 C 12.293 16.3202 12.2783 16.3134 12.2636 16.3066 L 12.0849 16.2243 C 12.0515 16.2089 12.024 16.1963 12 16.1854 C 11.9761 16.1963 11.9486 16.2089 11.9151 16.2243 L 11.7364 16.3066 C 11.7217 16.3134 11.707 16.3202 11.6923 16.3269 C 11.3856 16.4683 11.0811 16.6086 10.8233 16.6824 C 10.5436 16.7626 10.1025 16.8287 9.70308 16.5255 C 9.31591 16.2315 9.24745 15.7997 9.23474 15.5145 C 9.22262 15.2424 9.25565 14.9023 9.28983 14.5504 C 9.29133 14.535 9.29283 14.5195 9.29433 14.504 L 9.31401 14.3009 C 9.31949 14.2443 9.32358 14.202 9.32656 14.1657 C 9.30467 14.1394 9.27868 14.109 9.24419 14.0686 L 9.11405 13.9164 C 9.10386 13.9045 9.09369 13.8926 9.08352 13.8808 C 8.85861 13.6179 8.63892 13.3611 8.49437 13.1315 C 8.33819 12.8834 8.15935 12.4974 8.30107 12.0416 C 8.44533 11.5777 8.81964 11.3658 9.09578 11.257 C 9.34586 11.1584 9.67164 11.0848 9.99945 11.0107 C 10.0151 11.0072 10.0307 11.0037 10.0464 11.0001 L 10.2373 10.9569 C 10.277 10.9479 10.3088 10.9407 10.3361 10.9343 C 10.3518 10.9068 10.3698 10.8746 10.3926 10.8337 L 10.4909 10.6574 C 10.4986 10.6435 10.5063 10.6296 10.514 10.6158 C 10.6837 10.3113 10.8492 10.0142 11.0135 9.79965 Z" fill="#FFFFFF" />
</svg>