<svg xmlns="http://www.w3.org/2000/svg" width="24" height="24" viewBox="0 0 24 24" fill="none">
  <path fill-rule="nonzero" clip-rule="nonzero" d="M2.06935 5.25839 C2.37464 3.64031 3.64031 2.37464 5.25839 2.06935 C5.62595 2 6.06722 2 6.94975 2 C7.33642 2 7.52976 2 7.71557 2.01738 C8.51665 2.09229 9.27652 2.40704 9.89594 2.92051 C10.0396 3.03961 10.1763 3.17633 10.4497 3.44975 L11 4 C11.8158 4.81578 12.2237 5.22367 12.7121 5.49543 C12.9804 5.64471 13.2651 5.7626 13.5604 5.84678 C14.0979 6 14.6747 6 15.8284 6 L16.2021 6 C18.8345 6 20.1506 6 21.0062 6.76946 C21.0849 6.84024 21.1598 6.91514 21.2305 6.99383 C22 7.84935 22 9.16554 22 11.7979 L22 14 C22 17.7712 22 19.6569 20.8284 20.8284 C19.6569 22 17.7712 22 14 22 L10 22 C6.22876 22 4.34315 22 3.17157 20.8284 C2 19.6569 2 17.7712 2 14 L2 6.94975 C2 6.06722 2 5.62595 2.06935 5.25839 Z M12.25 10 C12.25 10.4142 12.5858 10.75 13 10.75 L18 10.75 C18.4142 10.75 18.75 10.4142 18.75 10 C18.75 9.58579 18.4142 9.25 18 9.25 L13 9.25 C12.5858 9.25 12.25 9.58579 12.25 10 Z" fill="#FFFFFF" />
</svg>