<svg xmlns="http://www.w3.org/2000/svg" width="24" height="24" viewBox="0 0 24 24" fill="none">
  <path fill-rule="nonzero" clip-rule="nonzero" d="M 7.87879 1.25001 C 7.90541 1.25001 7.93242 1.25002 7.95982 1.25002 C 7.971 1.25002 7.98203 1.25002 7.99292 1.25002 C 8.27064 1.24999 8.45617 1.24998 8.63798 1.26592 C 9.41877 1.33437 10.1645 1.62224 10.777 2.09821 C 10.9198 2.20917 11.053 2.33408 11.2482 2.51709 L 11.2728 2.54018 L 11.713 2.95287 C 12.395 3.59227 12.6379 3.81125 12.9166 3.95661 C 13.082 4.0429 13.2583 4.11144 13.4419 4.16053 C 13.7546 4.24409 14.0998 4.25002 15.0628 4.25002 L 15.4086 4.25002 C 16.4217 4.25 17.2481 4.24998 17.9042 4.32731 C 18.5851 4.40757 19.1866 4.58062 19.6884 5.00374 C 19.7714 5.07373 19.8506 5.14796 19.9257 5.22617 C 20.3856 5.70563 20.5781 6.28918 20.6664 6.9475 C 20.7501 7.57129 20.75 8.35367 20.75 9.29669 V 11.3288 C 20.9639 11.5453 21.1507 11.7879 21.3064 12.051 C 21.7052 12.7249 21.7874 13.4837 21.7365 14.3501 C 21.687 15.1947 21.5018 16.2485 21.2703 17.5665 L 21.2551 17.6526 C 21.0892 18.5972 20.955 19.3614 20.7845 19.9677 C 20.6079 20.5956 20.374 21.1273 19.9657 21.5725 C 19.7721 21.7835 19.5551 21.971 19.3188 22.1311 C 18.8173 22.4708 18.2616 22.6162 17.6254 22.6845 C 17.0148 22.75 16.261 22.75 15.3362 22.75 H 8.66387 C 7.73899 22.75 6.98526 22.75 6.37465 22.6845 C 5.73841 22.6162 5.18271 22.4708 4.68122 22.1311 C 4.4449 21.971 4.22791 21.7835 4.03438 21.5725 C 3.62604 21.1273 3.39215 20.5956 3.21558 19.9677 C 3.04508 19.3613 2.91084 18.5972 2.74489 17.6525 L 2.72976 17.5664 C 2.49822 16.2485 2.31308 15.1947 2.2635 14.3501 C 2.21264 13.4837 2.29483 12.7249 2.69367 12.051 C 2.84938 11.7879 3.03619 11.5453 3.25002 11.3288 V 5.71233 C 3.25002 5.68337 3.25001 5.65484 3.25001 5.62672 C 3.24984 5.04761 3.24973 4.6462 3.32024 4.29584 C 3.63017 2.75585 4.90258 1.59182 6.4761 1.3135 C 6.83606 1.24982 7.25062 1.2499 7.87879 1.25001 Z M 4.75002 10.4912 C 4.99046 10.4287 5.2437 10.384 5.50912 10.3511 C 6.3253 10.25 7.36395 10.25 8.65443 10.25 H 15.3456 C 16.6361 10.25 17.6747 10.25 18.4909 10.3511 C 18.7563 10.384 19.0096 10.4287 19.25 10.4912 V 9.34845 C 19.25 8.34037 19.2484 7.65926 19.1797 7.14687 C 19.1141 6.65764 18.9988 6.42679 18.8432 6.26461 C 18.805 6.22478 18.7644 6.18667 18.7215 6.15049 C 18.5389 5.99652 18.2717 5.88101 17.7286 5.817 C 17.1707 5.75124 16.4331 5.75002 15.3617 5.75002 H 15.0628 C 15.0292 5.75002 14.9961 5.75003 14.9635 5.75004 C 14.1359 5.75025 13.5813 5.75039 13.0547 5.60967 C 12.7659 5.5325 12.4867 5.4242 12.2229 5.28657 C 11.7396 5.03451 11.3423 4.66182 10.7589 4.11455 C 10.7353 4.09238 10.7113 4.06992 10.6871 4.04717 L 10.2469 3.63448 C 10.0181 3.42006 9.93773 3.34569 9.85655 3.2826 C 9.47793 2.98835 9.00792 2.8041 8.50698 2.76018 C 8.39863 2.75069 8.28224 2.75002 7.95982 2.75002 C 7.22173 2.75002 6.95025 2.75291 6.73736 2.79057 C 5.72196 2.97017 4.9693 3.70465 4.79076 4.59178 C 4.75373 4.77576 4.75002 5.01416 4.75002 5.71233 V 10.4912 Z M 5.69359 11.8397 C 4.99602 11.9262 4.63636 12.0845 4.38843 12.3139 C 4.23167 12.4589 4.09544 12.6276 3.98453 12.815 C 3.80529 13.1179 3.71773 13.5265 3.76093 14.2622 C 3.80482 15.0099 3.9737 15.978 4.21545 17.3541 C 4.38984 18.3468 4.51189 19.0364 4.65958 19.5616 C 4.80352 20.0735 4.95305 20.355 5.13978 20.5585 C 5.25505 20.6842 5.38354 20.7951 5.52248 20.8892 C 5.74416 21.0394 6.0301 21.1389 6.53475 21.1931 C 7.05594 21.249 7.72897 21.25 8.70533 21.25 H 15.2947 C 16.2711 21.25 16.9441 21.249 17.4653 21.1931 C 17.9699 21.1389 18.2559 21.0394 18.4776 20.8892 C 18.6165 20.7951 18.745 20.6842 18.8603 20.5585 C 19.047 20.355 19.1965 20.0735 19.3405 19.5616 C 19.4882 19.0364 19.6102 18.3468 19.7846 17.3541 C 20.0263 15.978 20.1952 15.0099 20.2391 14.2622 C 20.2823 13.5265 20.1948 13.1179 20.0155 12.815 C 19.9046 12.6276 19.7684 12.4589 19.6116 12.3139 C 19.3637 12.0845 19.004 11.9262 18.3064 11.8397 C 17.5934 11.7514 16.648 11.75 15.2947 11.75 H 8.70533 C 7.35202 11.75 6.40669 11.7514 5.69359 11.8397 Z M 9.25002 17 C 9.25002 16.5858 9.58581 16.25 10 16.25 H 14 C 14.4142 16.25 14.75 16.5858 14.75 17 C 14.75 17.4142 14.4142 17.75 14 17.75 H 10 C 9.58581 17.75 9.25002 17.4142 9.25002 17 Z" fill="#FFFFFF" />
</svg>