<svg xmlns="http://www.w3.org/2000/svg" width="24" height="24" viewBox="0 0 24 24" fill="none">
  <path fill-rule="nonzero" clip-rule="nonzero" d="M 6.85929 1.25001 C 6.88904 1.25001 6.91919 1.25002 6.94976 1.25002 L 6.98675 1.25001 C 7.33818 1.24999 7.56433 1.24998 7.78542 1.27065 C 8.7367 1.35961 9.63905 1.73337 10.3746 2.34313 C 10.5456 2.48485 10.7055 2.64477 10.954 2.89329 L 11.5303 3.46969 C 12.3761 4.3154 12.7012 4.6311 13.0768 4.84005 C 13.2948 4.96134 13.526 5.05713 13.766 5.12552 C 14.1793 5.24333 14.6324 5.25002 15.8284 5.25002 L 16.253 5.25002 C 17.526 5.25 18.5521 5.24998 19.364 5.35206 C 20.2054 5.45784 20.9204 5.68358 21.5077 6.21185 C 21.6061 6.30032 21.6997 6.39394 21.7882 6.49231 C 22.3165 7.07965 22.5422 7.79459 22.648 8.63601 C 22.75 9.4479 22.75 10.4741 22.75 11.747 V 14.0564 C 22.75 15.8942 22.75 17.3498 22.5969 18.489 C 22.4393 19.6615 22.1071 20.6104 21.3588 21.3588 C 20.6104 22.1071 19.6615 22.4393 18.489 22.5969 C 17.3498 22.75 15.8942 22.75 14.0564 22.75 H 9.94361 C 8.10584 22.75 6.65021 22.75 5.51099 22.5969 C 4.33857 22.4393 3.38962 22.1071 2.64126 21.3588 C 1.8929 20.6104 1.56078 19.6615 1.40315 18.489 C 1.24999 17.3498 1.25 15.8942 1.25002 14.0564 L 1.25002 6.94976 C 1.25002 6.91919 1.25001 6.88904 1.25001 6.85929 C 1.2499 6.06338 1.24982 5.55685 1.33237 5.11935 C 1.6949 3.19788 3.19788 1.6949 5.11935 1.33237 C 5.55685 1.24982 6.06338 1.2499 6.85929 1.25001 Z M 6.94976 2.75002 C 6.03312 2.75002 5.67873 2.75329 5.39746 2.80636 C 4.08277 3.05441 3.05441 4.08277 2.80636 5.39746 C 2.75329 5.67873 2.75002 6.03312 2.75002 6.94976 V 14 C 2.75002 15.9068 2.75161 17.2615 2.88978 18.2892 C 3.02504 19.2953 3.27871 19.8749 3.70192 20.2981 C 4.12513 20.7213 4.70478 20.975 5.71087 21.1103 C 6.73853 21.2484 8.0932 21.25 10 21.25 H 14 C 15.9068 21.25 17.2615 21.2484 18.2892 21.1103 C 19.2953 20.975 19.8749 20.7213 20.2981 20.2981 C 20.7213 19.8749 20.975 19.2953 21.1103 18.2892 C 21.2484 17.2615 21.25 15.9068 21.25 14 V 11.7979 C 21.25 10.4621 21.2486 9.5305 21.1597 8.82312 C 21.0731 8.13448 20.9141 7.76356 20.6729 7.49539 C 20.6198 7.43637 20.5637 7.3802 20.5046 7.32712 C 20.2365 7.08592 19.8656 6.92692 19.1769 6.84034 C 19.043 6.82351 18.9012 6.80982 18.75 6.79867 V 10.8528 C 18.75 10.8617 18.75 10.871 18.75 10.8805 C 18.7502 10.9988 18.7504 11.1596 18.73 11.2966 C 18.7064 11.4556 18.6285 11.7812 18.2995 11.9845 C 17.9704 12.1879 17.6444 12.112 17.4916 12.062 C 17.36 12.0189 17.2162 11.9468 17.1105 11.8938 C 17.102 11.8895 17.0937 11.8854 17.0857 11.8814 L 16 11.3385 L 14.9143 11.8814 C 14.9063 11.8854 14.8981 11.8895 14.8896 11.8938 C 14.7838 11.9468 14.6401 12.0189 14.5084 12.062 C 14.3556 12.112 14.0296 12.1879 13.7006 11.9845 C 13.3716 11.7812 13.2936 11.4556 13.27 11.2966 C 13.2497 11.1596 13.2499 10.9988 13.25 10.8805 C 13.25 10.871 13.25 10.8617 13.25 10.8528 V 6.53689 C 12.9367 6.43975 12.6343 6.31039 12.3475 6.15083 C 11.7663 5.82747 11.2885 5.3495 10.5476 4.60833 C 10.522 4.58265 10.496 4.55666 10.4697 4.53035 L 9.91943 3.98009 C 9.63616 3.69682 9.52778 3.58951 9.41731 3.49793 C 8.91403 3.08073 8.29664 2.825 7.64576 2.76413 C 7.50289 2.75077 7.35038 2.75002 6.94976 2.75002 Z M 14.75 6.74267 V 10.2865 L 15.4857 9.91864 C 15.4872 9.9179 15.4897 9.91653 15.4933 9.9146 C 15.5391 9.88975 15.7533 9.77362 16 9.77362 C 16.2468 9.77362 16.4609 9.88975 16.5068 9.9146 C 16.5103 9.91653 16.5128 9.9179 16.5143 9.91864 L 17.25 10.2865 V 6.75235 C 16.9308 6.75013 16.5829 6.75002 16.2021 6.75002 H 15.8284 C 15.7912 6.75002 15.7545 6.75002 15.7182 6.75003 C 15.3555 6.75011 15.0375 6.75017 14.75 6.74267 Z" fill="#FFFFFF" />
</svg>