<svg xmlns="http://www.w3.org/2000/svg" width="24" height="24" viewBox="0 0 24 24" fill="none">
  <path fill-rule="nonzero" clip-rule="nonzero" d="M 11.9426 1.25 H 12.0574 C 14.3658 1.24999 16.1748 1.24998 17.5863 1.43975 C 19.031 1.63399 20.1711 2.03933 21.0659 2.93414 C 21.9607 3.82895 22.366 4.96897 22.5603 6.41371 C 22.75 7.82519 22.75 9.63423 22.75 11.9426 V 12.0574 C 22.75 14.3658 22.75 16.1748 22.5603 17.5863 C 22.366 19.031 21.9607 20.1711 21.0659 21.0659 C 20.1711 21.9607 19.031 22.366 17.5863 22.5603 C 16.1748 22.75 14.3658 22.75 12.0574 22.75 H 11.9426 C 9.63423 22.75 7.82519 22.75 6.41371 22.5603 C 4.96897 22.366 3.82895 21.9607 2.93414 21.0659 C 2.03933 20.1711 1.63399 19.031 1.43975 17.5863 C 1.24998 16.1748 1.24999 14.3658 1.25 12.0574 V 11.9426 C 1.24999 9.63423 1.24998 7.82519 1.43975 6.41371 C 1.63399 4.96897 2.03933 3.82895 2.93414 2.93414 C 3.82895 2.03933 4.96897 1.63399 6.41371 1.43975 C 7.82519 1.24998 9.63423 1.24999 11.9426 1.25 Z M 6.61358 2.92637 C 5.33517 3.09825 4.56445 3.42514 3.9948 3.9948 C 3.42514 4.56445 3.09825 5.33517 2.92637 6.61358 C 2.75159 7.91356 2.75 9.62177 2.75 12 C 2.75 14.3782 2.75159 16.0864 2.92637 17.3864 C 3.09825 18.6648 3.42514 19.4355 3.9948 20.0052 C 4.56445 20.5749 5.33517 20.9018 6.61358 21.0736 C 7.91356 21.2484 9.62177 21.25 12 21.25 C 14.3782 21.25 16.0864 21.2484 17.3864 21.0736 C 18.6648 20.9018 19.4355 20.5749 20.0052 20.0052 C 20.5749 19.4355 20.9018 18.6648 21.0736 17.3864 C 21.2484 16.0864 21.25 14.3782 21.25 12 C 21.25 9.62177 21.2484 7.91356 21.0736 6.61358 C 20.9018 5.33517 20.5749 4.56445 20.0052 3.9948 C 19.4355 3.42514 18.6648 3.09825 17.3864 2.92637 C 16.0864 2.75159 14.3782 2.75 12 2.75 C 9.62177 2.75 7.91356 2.75159 6.61358 2.92637 Z" fill="#FFFFFF" />
  <path fill-rule="evenodd" clip-rule="evenodd" d="M8.03033 5.96967C8.32322 6.26256 8.32322 6.73744 8.03033 7.03033L7.81066 7.25H8C9.67947 7.25 11.1554 8.12162 12 9.43718C12.8446 8.12162 14.3205 7.25 16 7.25H16.1893L15.9697 7.03033C15.6768 6.73744 15.6768 6.26256 15.9697 5.96967C16.2626 5.67678 16.7374 5.67678 17.0303 5.96967L18.5303 7.46967C18.8232 7.76256 18.8232 8.23744 18.5303 8.53033L17.0303 10.0303C16.7374 10.3232 16.2626 10.3232 15.9697 10.0303C15.6768 9.73744 15.6768 9.26256 15.9697 8.96967L16.1893 8.75H16C14.2051 8.75 12.75 10.2051 12.75 12V18C12.75 18.4142 12.4142 18.75 12 18.75C11.5858 18.75 11.25 18.4142 11.25 18V12C11.25 10.2051 9.79493 8.75 8 8.75H7.81066L8.03033 8.96967C8.32322 9.26256 8.32322 9.73744 8.03033 10.0303C7.73744 10.3232 7.26256 10.3232 6.96967 10.0303L5.46967 8.53033C5.17678 8.23744 5.17678 7.76256 5.46967 7.46967L6.96967 5.96967C7.26256 5.67678 7.73744 5.67678 8.03033 5.96967Z" fill="#FFFFFF" />
</svg>