<svg xmlns="http://www.w3.org/2000/svg" width="24" height="24" viewBox="0 0 24 24" fill="none">
  <path fill-rule="nonzero" clip-rule="nonzero" d="M3.46447 3.46447 C4.92893 2 7.28595 2 12 2 C16.714 2 19.0711 2 20.5355 3.46447 C22 4.92893 22 7.28595 22 12 C22 16.714 22 19.0711 20.5355 20.5355 C19.0711 22 16.714 22 12 22 C7.28595 22 4.92893 22 3.46447 20.5355 C2 19.0711 2 16.714 2 12 C2 7.28595 2 4.92893 3.46447 3.46447 Z M8.03033 5.96967 C7.73744 5.67678 7.26256 5.67678 6.96967 5.96967 L5.46967 7.46967 C5.17678 7.76256 5.17678 8.23744 5.46967 8.53033 L6.96967 10.0303 C7.26256 10.3232 7.73744 10.3232 8.03033 10.0303 C8.32322 9.73744 8.32322 9.26256 8.03033 8.96967 L7.81066 8.75 L8 8.75 C9.79493 8.75 11.25 10.2051 11.25 12 L11.25 18 C11.25 18.4142 11.5858 18.75 12 18.75 C12.4142 18.75 12.75 18.4142 12.75 18 L12.75 12 C12.75 10.2051 14.2051 8.75 16 8.75 L16.1893 8.75 L15.9697 8.96967 C15.6768 9.26256 15.6768 9.73744 15.9697 10.0303 C16.2626 10.3232 16.7374 10.3232 17.0303 10.0303 L18.5303 8.53033 C18.8232 8.23744 18.8232 7.76256 18.5303 7.46967 L17.0303 5.96967 C16.7374 5.67678 16.2626 5.67678 15.9697 5.96967 C15.6768 6.26256 15.6768 6.73744 15.9697 7.03033 L16.1893 7.25 L16 7.25 C14.3205 7.25 12.8446 8.12162 12 9.43718 C11.1554 8.12162 9.67947 7.25 8 7.25 L7.81066 7.25 L8.03033 7.03033 C8.32322 6.73744 8.32322 6.26256 8.03033 5.96967 Z" fill="#FFFFFF" />
</svg>