<svg xmlns="http://www.w3.org/2000/svg" width="24" height="24" viewBox="0 0 24 24" fill="none">
  <path fill-rule="nonzero" clip-rule="nonzero" d="M3.46447 3.46447 C4.92893 2 7.28595 2 12 2 C16.714 2 19.0711 2 20.5355 3.46447 C22 4.92893 22 7.28595 22 12 C22 16.714 22 19.0711 20.5355 20.5355 C19.0711 22 16.714 22 12 22 C7.28595 22 4.92893 22 3.46447 20.5355 C2 19.0711 2 16.714 2 12 C2 7.28595 2 4.92893 3.46447 3.46447 Z M12 5.75 C11.5858 5.75 11.25 6.08579 11.25 6.5 L11.25 12.5 C11.25 14.2949 9.79493 15.75 8 15.75 L7.81066 15.75 L8.03033 15.5303 C8.32322 15.2374 8.32322 14.7626 8.03033 14.4697 C7.73744 14.1768 7.26256 14.1768 6.96967 14.4697 L5.46967 15.9697 C5.17678 16.2626 5.17678 16.7374 5.46967 17.0303 L6.96967 18.5303 C7.26256 18.8232 7.73744 18.8232 8.03033 18.5303 C8.32322 18.2374 8.32322 17.7626 8.03033 17.4697 L7.81066 17.25 L8 17.25 C9.67947 17.25 11.1554 16.3784 12 15.0628 C12.8446 16.3784 14.3205 17.25 16 17.25 L16.1893 17.25 L15.9697 17.4697 C15.6768 17.7626 15.6768 18.2374 15.9697 18.5303 C16.2626 18.8232 16.7374 18.8232 17.0303 18.5303 L18.5303 17.0303 C18.8232 16.7374 18.8232 16.2626 18.5303 15.9697 L17.0303 14.4697 C16.7374 14.1768 16.2626 14.1768 15.9697 14.4697 C15.6768 14.7626 15.6768 15.2374 15.9697 15.5303 L16.1893 15.75 L16 15.75 C14.2051 15.75 12.75 14.2949 12.75 12.5 L12.75 6.5 C12.75 6.08579 12.4142 5.75 12 5.75 Z" fill="#FFFFFF" />
</svg>