<svg xmlns="http://www.w3.org/2000/svg" width="24" height="24" viewBox="0 0 24 24" fill="none">
  <path fill-rule="nonzero" clip-rule="nonzero" d="M 12 22 C 7.28595 22 4.92893 22 3.46447 20.5355 C 2 19.0711 2 16.714 2 12 C 2 7.28595 2 4.92893 3.46447 3.46447 C 4.92893 2 7.28595 2 12 2 C 16.714 2 19.0711 2 20.5355 3.46447 C 22 4.92893 22 7.28595 22 12 C 22 16.714 22 19.0711 20.5355 20.5355 C 19.0711 22 16.714 22 12 22 Z M13.9563 14.0951 C14.0056 14.052 14.052 14.0056 14.0951 13.9563 C14.2646 13.7631 14.3631 13.5168 14.5602 13.0241 C15.4841 10.7143 15.9461 9.55942 15.4978 8.89976 C15.3915 8.74336 15.2566 8.60846 15.1002 8.50218 C14.4406 8.05392 13.2857 8.51587 10.9759 9.43979 C10.4832 9.63685 10.2369 9.73539 10.0437 9.90486 C9.99441 9.94804 9.94804 9.99441 9.90486 10.0437 C9.73539 10.2369 9.63685 10.4832 9.43979 10.9759 C8.51587 13.2857 8.05392 14.4406 8.50218 15.1002 C8.60846 15.2566 8.74336 15.3915 8.89976 15.4978 C9.55942 15.9461 10.7143 15.4841 13.0241 14.5602 C13.5168 14.3631 13.7631 14.2646 13.9563 14.0951 Z" fill="#FFFFFF" />
</svg>