<svg xmlns="http://www.w3.org/2000/svg" width="24" height="24" viewBox="0 0 24 24" fill="none">
  <path fill-rule="nonzero" clip-rule="nonzero" d="M12 22 C6.47715 22 2 17.5228 2 12 C2 6.47715 6.47715 2 12 2 C17.5228 2 22 6.47715 22 12 C22 17.5228 17.5228 22 12 22 Z M13.9563 14.0949 C14.0055 14.0517 14.0519 14.0054 14.0951 13.9561 C14.2646 13.7629 14.3631 13.5165 14.5602 13.0239 C15.4841 10.7141 15.946 9.5592 15.4978 8.89954 C15.3915 8.74314 15.2566 8.60824 15.1002 8.50196 C14.4405 8.0537 13.2856 8.51565 10.9759 9.43956 C10.4832 9.63663 10.2368 9.73517 10.0436 9.90464 C9.99435 9.94782 9.94799 9.99419 9.9048 10.0434 C9.73533 10.2367 9.6368 10.483 9.43973 10.9757 C8.51582 13.2855 8.05386 14.4404 8.50212 15.1 C8.6084 15.2564 8.7433 15.3913 8.89971 15.4976 C9.55936 15.9459 10.7142 15.4839 13.024 14.56 C13.5167 14.3629 13.763 14.2644 13.9563 14.0949 Z" fill="#FFFFFF" />
</svg>