<svg xmlns="http://www.w3.org/2000/svg" width="24" height="24" viewBox="0 0 24 24" fill="none">
  <path fill-rule="nonzero" clip-rule="nonzero" d="M 11.9426 1.25 H 12.0574 C 14.3658 1.24999 16.1748 1.24998 17.5863 1.43975 C 19.031 1.63399 20.1711 2.03933 21.0659 2.93414 C 21.9607 3.82895 22.366 4.96897 22.5603 6.41371 C 22.75 7.82519 22.75 9.63423 22.75 11.9426 V 12.0574 C 22.75 14.3658 22.75 16.1748 22.5603 17.5863 C 22.366 19.031 21.9607 20.1711 21.0659 21.0659 C 20.1711 21.9607 19.031 22.366 17.5863 22.5603 C 16.1748 22.75 14.3658 22.75 12.0574 22.75 H 11.9426 C 9.63423 22.75 7.82519 22.75 6.41371 22.5603 C 4.96897 22.366 3.82895 21.9607 2.93414 21.0659 C 2.03933 20.1711 1.63399 19.031 1.43975 17.5863 C 1.24998 16.1748 1.24999 14.3658 1.25 12.0574 V 11.9426 C 1.24999 9.63423 1.24998 7.82519 1.43975 6.41371 C 1.63399 4.96897 2.03933 3.82895 2.93414 2.93414 C 3.82895 2.03933 4.96897 1.63399 6.41371 1.43975 C 7.82519 1.24998 9.63423 1.24999 11.9426 1.25 Z M 6.61358 2.92637 C 5.33517 3.09825 4.56445 3.42514 3.9948 3.9948 C 3.42514 4.56445 3.09825 5.33517 2.92637 6.61358 C 2.75159 7.91356 2.75 9.62177 2.75 12 C 2.75 14.3782 2.75159 16.0864 2.92637 17.3864 C 3.09825 18.6648 3.42514 19.4355 3.9948 20.0052 C 4.56445 20.5749 5.33517 20.9018 6.61358 21.0736 C 7.91356 21.2484 9.62177 21.25 12 21.25 C 14.3782 21.25 16.0864 21.2484 17.3864 21.0736 C 18.6648 20.9018 19.4355 20.5749 20.0052 20.0052 C 20.5749 19.4355 20.9018 18.6648 21.0736 17.3864 C 21.2484 16.0864 21.25 14.3782 21.25 12 C 21.25 9.62177 21.2484 7.91356 21.0736 6.61358 C 20.9018 5.33517 20.5749 4.56445 20.0052 3.9948 C 19.4355 3.42514 18.6648 3.09825 17.3864 2.92637 C 16.0864 2.75159 14.3782 2.75 12 2.75 C 9.62177 2.75 7.91356 2.75159 6.61358 2.92637 Z M 13.8491 9.18138 C 13.2441 9.34176 12.4289 9.66638 11.2545 10.1361 C 10.713 10.3527 10.6123 10.4038 10.5381 10.4688 C 10.5135 10.4903 10.4903 10.5135 10.4688 10.5381 C 10.4038 10.6123 10.3527 10.713 10.1361 11.2545 C 9.66638 12.4289 9.34176 13.2441 9.18137 13.8491 C 9.01438 14.479 9.09622 14.64 9.12251 14.6787 C 9.17565 14.7569 9.24309 14.8244 9.3213 14.8775 C 9.35998 14.9038 9.52101 14.9856 10.1509 14.8186 C 10.7559 14.6582 11.5711 14.3336 12.7455 13.8639 C 13.287 13.6473 13.3877 13.5962 13.4619 13.5312 C 13.4865 13.5097 13.5097 13.4865 13.5312 13.4619 C 13.5962 13.3877 13.6473 13.287 13.8639 12.7455 C 14.3336 11.5711 14.6582 10.7559 14.8186 10.1509 C 14.9856 9.52101 14.9038 9.35998 14.8775 9.3213 C 14.8244 9.2431 14.7569 9.17565 14.6787 9.12251 C 14.64 9.09622 14.479 9.01438 13.8491 9.18138 Z M 13.4647 7.73146 C 14.1546 7.54857 14.9008 7.45988 15.5218 7.88185 C 15.7564 8.04127 15.9587 8.24362 16.1182 8.47823 C 16.5401 9.0992 16.4514 9.84545 16.2685 10.5353 C 16.0818 11.2396 15.7216 12.1401 15.2767 13.2523 L 15.2566 13.3026 C 15.2453 13.3308 15.2342 13.3588 15.2231 13.3865 C 15.06 13.796 14.9156 14.1583 14.659 14.4508 C 14.5943 14.5247 14.5247 14.5943 14.4508 14.659 C 14.1583 14.9156 13.796 15.06 13.3865 15.2231 C 13.3588 15.2342 13.3308 15.2453 13.3026 15.2566 L 13.2523 15.2767 C 12.1401 15.7216 11.2396 16.0818 10.5353 16.2685 C 9.84544 16.4514 9.0992 16.5401 8.47823 16.1182 C 8.24362 15.9587 8.04128 15.7564 7.88185 15.5218 C 7.45988 14.9008 7.54857 14.1546 7.73146 13.4647 C 7.91816 12.7604 8.27841 11.8599 8.72331 10.7477 L 8.74343 10.6974 C 8.7547 10.6692 8.76584 10.6412 8.7769 10.6135 C 8.94004 10.204 9.08441 9.84172 9.34097 9.54916 C 9.40574 9.47529 9.47529 9.40574 9.54916 9.34097 C 9.84172 9.08441 10.204 8.94004 10.6135 8.7769 C 10.6412 8.76584 10.6692 8.7547 10.6974 8.74343 L 10.7477 8.7233 C 11.8599 8.27841 12.7604 7.91816 13.4647 7.73146 Z" fill="#FFFFFF" />
</svg>