<svg xmlns="http://www.w3.org/2000/svg" width="24" height="24" viewBox="0 0 24 24" fill="none">
  <path fill-rule="nonzero" clip-rule="nonzero" d="M3.55428 21.5288 C3.1282 21.2393 2.76071 20.8718 2.47117 20.4457 C1.25001 18.6487 2.50848 15.5025 5.02542 9.21017 C5.56228 7.86802 5.8307 7.19695 6.29238 6.67048 C6.41002 6.53633 6.53633 6.41002 6.67048 6.29238 C7.19695 5.8307 7.86802 5.56227 9.21017 5.02542 C15.5025 2.50848 18.6487 1.25001 20.4457 2.47117 C20.8718 2.7607 21.2393 3.1282 21.5288 3.55428 C22.75 5.35132 21.4915 8.49749 18.9746 14.7898 C18.4377 16.132 18.1693 16.8031 17.7076 17.3295 C17.59 17.4637 17.4637 17.59 17.3295 17.7076 C16.8031 18.1693 16.132 18.4377 14.7898 18.9746 C8.49749 21.4915 5.35132 22.75 3.55428 21.5288 Z M8.25 12 C8.25 14.0711 9.92893 15.75 12 15.75 C14.0711 15.75 15.75 14.0711 15.75 12 C15.75 9.92893 14.0711 8.25 12 8.25 C9.92893 8.25 8.25 9.92893 8.25 12 Z M 9.75 12 C 9.75 10.7574 10.7574 9.75 12 9.75 C 13.2426 9.75 14.25 10.7574 14.25 12 C 14.25 13.2426 13.2426 14.25 12 14.25 C 10.7574 14.25 9.75 13.2426 9.75 12 Z" fill="#FFFFFF" />
</svg>