<svg xmlns="http://www.w3.org/2000/svg" width="24" height="24" viewBox="0 0 24 24" fill="none">
  <path fill-rule="nonzero" clip-rule="nonzero" d="M2 12 C2 11.6147 2.31236 11.3023 2.69767 11.3023 L4.59041 11.3023 C4.92078 7.74914 7.74914 4.92078 11.3023 4.59041 L11.3023 2.69767 C11.3023 2.31236 11.6147 2 12 2 C12.3853 2 12.6977 2.31236 12.6977 2.69767 L12.6977 4.59041 C16.2509 4.92078 19.0792 7.74914 19.4096 11.3023 L21.3023 11.3023 C21.6876 11.3023 22 11.6147 22 12 C22 12.3853 21.6876 12.6977 21.3023 12.6977 L19.4096 12.6977 C19.0792 16.2509 16.2509 19.0792 12.6977 19.4096 L12.6977 21.3023 C12.6977 21.6876 12.3853 22 12 22 C11.6147 22 11.3023 21.6876 11.3023 21.3023 L11.3023 19.4096 C7.74914 19.0792 4.92078 16.2509 4.59041 12.6977 L2.69767 12.6977 C2.31236 12.6977 2 12.3853 2 12 Z M8.51163 12 C8.51163 13.9266 10.0734 15.4884 12 15.4884 C13.9266 15.4884 15.4884 13.9266 15.4884 12 C15.4884 10.0734 13.9266 8.51163 12 8.51163 C10.0734 8.51163 8.51163 10.0734 8.51163 12 Z" fill="#FFFFFF" />
  <path d="M9.90698 12C9.90698 10.8441 10.8441 9.90698 12 9.90698C13.1559 9.90698 14.093 10.8441 14.093 12C14.093 13.1559 13.1559 14.093 12 14.093C10.8441 14.093 9.90698 13.1559 9.90698 12Z" fill="#FFFFFF" />
</svg>