<svg xmlns="http://www.w3.org/2000/svg" width="24" height="24" viewBox="0 0 24 24" fill="none">
  <path fill-rule="nonzero" clip-rule="nonzero" d="M 12 1.25 C 12.4142 1.25 12.75 1.58579 12.75 2 V 3.28169 C 16.9842 3.64113 20.3589 7.01581 20.7183 11.25 H 22 C 22.4142 11.25 22.75 11.5858 22.75 12 C 22.75 12.4142 22.4142 12.75 22 12.75 H 20.7183 C 20.3589 16.9842 16.9842 20.3589 12.75 20.7183 V 22 C 12.75 22.4142 12.4142 22.75 12 22.75 C 11.5858 22.75 11.25 22.4142 11.25 22 V 20.7183 C 7.01581 20.3589 3.64113 16.9842 3.28169 12.75 H 2 C 1.58579 12.75 1.25 12.4142 1.25 12 C 1.25 11.5858 1.58579 11.25 2 11.25 H 3.28169 C 3.64113 7.01581 7.01581 3.64113 11.25 3.28169 V 2 C 11.25 1.58579 11.5858 1.25 12 1.25 Z M 12 4.75 C 7.99594 4.75 4.75 7.99594 4.75 12 C 4.75 16.0041 7.99594 19.25 12 19.25 C 16.0041 19.25 19.25 16.0041 19.25 12 C 19.25 7.99594 16.0041 4.75 12 4.75 Z M 12 9.75 C 10.7574 9.75 9.75 10.7574 9.75 12 C 9.75 13.2426 10.7574 14.25 12 14.25 C 13.2426 14.25 14.25 13.2426 14.25 12 C 14.25 10.7574 13.2426 9.75 12 9.75 Z M 8.25 12 C 8.25 9.92893 9.92893 8.25 12 8.25 C 14.0711 8.25 15.75 9.92893 15.75 12 C 15.75 14.0711 14.0711 15.75 12 15.75 C 9.92893 15.75 8.25 14.0711 8.25 12 Z" fill="#FFFFFF" />
</svg>