<svg xmlns="http://www.w3.org/2000/svg" width="24" height="24" viewBox="0 0 24 24" fill="none">
  <path fill-rule="nonzero" clip-rule="nonzero" d="M 17.3864 2.92637 C 16.0864 2.75159 14.3782 2.75 12 2.75 C 9.62177 2.75 7.91356 2.75159 6.61358 2.92637 C 5.33517 3.09825 4.56445 3.42514 3.9948 3.9948 C 3.42514 4.56445 3.09825 5.33517 2.92637 6.61358 C 2.75159 7.91356 2.75 9.62177 2.75 12 C 2.75 14.3782 2.75159 16.0864 2.92637 17.3864 C 3.09825 18.6648 3.42514 19.4355 3.9948 20.0052 C 4.56445 20.5749 5.33517 20.9018 6.61358 21.0736 C 7.91356 21.2484 9.62177 21.25 12 21.25 C 14.3782 21.25 16.0864 21.2484 17.3864 21.0736 C 18.6648 20.9018 19.4355 20.5749 20.0052 20.0052 C 20.5749 19.4355 20.9018 18.6648 21.0736 17.3864 C 21.2484 16.0864 21.25 14.3782 21.25 12 C 21.25 9.62177 21.2484 7.91356 21.0736 6.61358 C 20.9018 5.33517 20.5749 4.56445 20.0052 3.9948 C 19.4355 3.42514 18.6648 3.09825 17.3864 2.92637 Z M 17.5863 1.43975 C 19.031 1.63399 20.1711 2.03933 21.0659 2.93414 C 21.9607 3.82895 22.366 4.96897 22.5603 6.41371 C 22.75 7.82519 22.75 9.63423 22.75 11.9426 V 12.0574 C 22.75 14.3658 22.75 16.1748 22.5603 17.5863 C 22.366 19.031 21.9607 20.1711 21.0659 21.0659 C 20.1711 21.9607 19.031 22.366 17.5863 22.5603 C 16.1748 22.75 14.3658 22.75 12.0574 22.75 H 11.9426 C 9.63423 22.75 7.82519 22.75 6.41371 22.5603 C 4.96897 22.366 3.82895 21.9607 2.93414 21.0659 C 2.03933 20.1711 1.63399 19.031 1.43975 17.5863 C 1.24998 16.1748 1.24999 14.3658 1.25 12.0574 V 11.9426 C 1.24999 9.63423 1.24998 7.82519 1.43975 6.41371 C 1.63399 4.96897 2.03933 3.82895 2.93414 2.93414 C 3.82895 2.03933 4.96897 1.63399 6.41371 1.43975 C 7.82519 1.24998 9.63423 1.24999 11.9426 1.25 H 12.0574 C 14.3658 1.24999 16.1748 1.24998 17.5863 1.43975 Z" fill="#FFFFFF" />
  <path fill-rule="nonzero" clip-rule="nonzero" d="M 15.804 7.06497 L 15.5357 6.36463 C 16.8766 5.85082 18.1489 7.12317 17.6351 8.4641 L 14.123 17.6299 C 13.8465 18.3516 13.1899 18.7344 12.5484 18.7493 C 11.8988 18.7644 11.2097 18.3951 10.9741 17.6197 L 9.91755 14.1427 L 10.5834 13.9404 L 9.91755 14.1427 C 9.91226 14.1253 9.90413 14.1131 9.89537 14.1044 C 9.88661 14.0956 9.87441 14.0875 9.857 14.0822 L 6.38003 13.0257 C 5.60468 12.7901 5.23538 12.1009 5.25044 11.4514 C 5.26532 10.8098 5.64815 10.1533 6.36987 9.87672 L 15.5357 6.36463 L 15.804 7.06497 Z M 16.1707 7.75232 C 16.1543 7.74876 16.1229 7.74597 16.0724 7.76532 L 6.90658 11.2774 C 6.79785 11.3191 6.75195 11.4039 6.75004 11.4862 C 6.74909 11.5272 6.76027 11.5518 6.76671 11.5614 C 6.76679 11.5615 6.76688 11.5617 6.76697 11.5618 C 6.7698 11.5661 6.77826 11.579 6.81613 11.5905 L 10.2931 12.647 L 10.0751 13.3646 L 10.2931 12.647 C 10.803 12.8019 11.1978 13.1968 11.3528 13.7066 L 12.4093 17.1836 C 12.4208 17.2215 12.4336 17.2299 12.4379 17.2328 L 12.4383 17.233 C 12.448 17.2395 12.4725 17.2507 12.5136 17.2497 C 12.5959 17.2478 12.6807 17.2019 12.7223 17.0932 L 16.2344 7.92739 C 16.2538 7.87689 16.251 7.84541 16.2474 7.82907 C 16.2433 7.81013 16.2339 7.79318 16.2203 7.7795 C 16.2066 7.76582 16.1896 7.75645 16.1707 7.75232 Z" fill="#FFFFFF" />
</svg>