<svg xmlns="http://www.w3.org/2000/svg" width="24" height="24" viewBox="0 0 24 24" fill="none">
  <path fill-rule="nonzero" clip-rule="nonzero" d="M22.0126 2.95325 C22.7029 3.6123 23.0217 4.68853 22.4707 5.72049 L19.3187 11.6242 C19.1914 11.8626 19.1914 12.1381 19.3187 12.3765 L18.6571 12.7298 L19.3187 12.3765 L22.4707 18.2802 C23.0217 19.3122 22.7029 20.3884 22.0126 21.0475 C21.328 21.701 20.2449 21.9876 19.1972 21.5204 L2.68746 14.1579 C0.770992 13.3032 0.770992 10.6975 2.68746 9.84285 L19.1972 2.48035 C20.2449 2.01313 21.328 2.29971 22.0126 2.95325 Z M20.9768 4.03821 C20.6968 3.77096 20.2563 3.65045 19.8081 3.8503 L3.29838 11.2128 C2.56735 11.5388 2.56735 12.4619 3.29838 12.7879 L19.8081 20.1504 C20.2563 20.3503 20.6968 20.2298 20.9768 19.9625 C21.2509 19.7008 21.3375 19.3425 21.1475 18.9867 L17.9955 13.083 C17.6325 12.4031 17.6325 11.5976 17.9955 10.9177 L21.1475 5.01402 L21.8091 5.36725 L21.1475 5.01402 C21.3375 4.65823 21.2509 4.29996 20.9768 4.03821 Z" fill="#FFFFFF" />
</svg>