<svg xmlns="http://www.w3.org/2000/svg" width="24" height="24" viewBox="0 0 24 24" fill="none">
  <path fill-rule="nonzero" clip-rule="nonzero" d="M 1.98744 2.95325 C 2.67201 2.29971 3.75513 2.01313 4.80282 2.48035 L 21.3125 9.84285 C 23.229 10.6975 23.229 13.3032 21.3125 14.1579 L 4.80282 21.5204 C 3.75513 21.9876 2.67201 21.701 1.98744 21.0475 C 1.2971 20.3884 0.978305 19.3122 1.52928 18.2802 L 4.68131 12.3765 L 5.34291 12.7298 L 4.68131 12.3765 C 4.8086 12.1381 4.8086 11.8626 4.68131 11.6242 L 1.52928 5.72049 C 0.978304 4.68853 1.2971 3.6123 1.98744 2.95325 Z M 3.02323 4.03821 C 2.74905 4.29996 2.66253 4.65823 2.85249 5.01402 L 2.19088 5.36725 L 2.85249 5.01402 L 6.00452 10.9177 C 6.36753 11.5976 6.36753 12.4031 6.00452 13.083 L 2.85249 18.9867 C 2.66253 19.3425 2.74905 19.7008 3.02323 19.9625 C 3.30317 20.2298 3.74374 20.3503 4.19189 20.1504 L 20.7016 12.7879 C 21.4326 12.4619 21.4327 11.5388 20.7016 11.2128 L 4.19189 3.8503 C 3.74374 3.65045 3.30317 3.77096 3.02323 4.03821 Z" fill="#FFFFFF" />
</svg>