<svg xmlns="http://www.w3.org/2000/svg" width="24" height="24" viewBox="0 0 24 24" fill="none">
  <path fill-rule="nonzero" clip-rule="nonzero" d="M 21.047 1.98744 C 21.7005 2.67201 21.9871 3.75513 21.5199 4.80282 L 14.1574 21.3125 C 13.3027 23.229 10.697 23.229 9.84236 21.3125 L 2.47986 4.80282 C 2.01265 3.75513 2.29922 2.67201 2.95277 1.98744 C 3.61181 1.2971 4.68804 0.978305 5.72001 1.52928 L 5.36677 2.19088 L 5.72001 1.52928 L 11.6237 4.68131 L 11.2705 5.34291 L 11.6237 4.68131 C 11.8621 4.8086 12.1376 4.8086 12.376 4.68131 L 18.2797 1.52928 L 18.633 2.19088 L 18.2797 1.52928 C 19.3117 0.978304 20.3879 1.2971 21.047 1.98744 Z M 18.9862 2.85249 L 18.6356 2.19572 L 18.9862 2.85249 L 13.0825 6.00452 C 12.4026 6.36753 11.5972 6.36753 10.9172 6.00452 L 5.01353 2.85249 C 4.65774 2.66253 4.29947 2.74905 4.03773 3.02323 C 3.77047 3.30317 3.64996 3.74374 3.84981 4.19189 L 11.2123 20.7016 C 11.5383 21.4327 12.4614 21.4327 12.7874 20.7016 L 20.1499 4.19189 C 20.3498 3.74374 20.2293 3.30317 19.962 3.02323 C 19.7003 2.74905 19.342 2.66253 18.9862 2.85249 Z" fill="#FFFFFF" />
</svg>