<svg xmlns="http://www.w3.org/2000/svg" width="24" height="24" viewBox="0 0 24 24" fill="none">
  <path fill-rule="nonzero" clip-rule="nonzero" d="M21.047 22.0126 C20.3879 22.7029 19.3117 23.0217 18.2797 22.4707 L18.633 21.8091 L18.2797 22.4707 L12.376 19.3187 C12.1376 19.1914 11.8621 19.1914 11.6237 19.3187 L11.2705 18.6571 L11.6237 19.3187 L5.72001 22.4707 L5.36677 21.8091 L5.72001 22.4707 C4.68804 23.0217 3.61181 22.7029 2.95277 22.0126 C2.29922 21.328 2.01265 20.2449 2.47986 19.1972 L9.84236 2.68746 C10.697 0.770992 13.3027 0.770992 14.1574 2.68746 L21.5199 19.1972 C21.9871 20.2449 21.7005 21.328 21.047 22.0126 Z M18.9862 21.1475 C19.342 21.3375 19.7003 21.2509 19.962 20.9768 C20.2293 20.6968 20.3498 20.2563 20.1499 19.8081 L12.7874 3.29838 C12.4614 2.56735 11.5383 2.56735 11.2123 3.29838 L3.84981 19.8081 C3.64996 20.2563 3.77047 20.6968 4.03773 20.9768 C4.29947 21.2509 4.65774 21.3375 5.01353 21.1475 L10.9172 17.9955 C11.5972 17.6325 12.4026 17.6325 13.0825 17.9955 L18.9862 21.1475 L18.6356 21.8043 L18.9862 21.1475 Z" fill="#FFFFFF" />
</svg>