<svg xmlns="http://www.w3.org/2000/svg" width="24" height="24" viewBox="0 0 24 24" fill="none">
  <path fill-rule="nonzero" clip-rule="nonzero" d="M12 2 C16.4183 2 20 5.64588 20 10.1433 C20 14.6055 17.4467 19.8124 13.4629 21.6744 C12.5343 22.1085 11.4657 22.1085 10.5371 21.6744 C6.55332 19.8124 4 14.6055 4 10.1433 C4 5.64588 7.58172 2 12 2 Z M 9 8.75734 C 9 9.77693 10.1649 10.8543 11.0429 11.5215 C 11.4626 11.8405 11.6725 12 12 12 C 12.3275 12 12.5374 11.8405 12.9571 11.5215 C 13.8351 10.8543 15 9.77694 15 8.75733 C 15 7.02433 13.35 6.37732 12 7.71604 C 10.65 6.37732 9 7.02433 9 8.75734 Z" fill="#FFFFFF" />
</svg>