<svg xmlns="http://www.w3.org/2000/svg" width="24" height="24" viewBox="0 0 24 24" fill="none">
  <path fill-rule="nonzero" clip-rule="nonzero" d="M 3.25 10.1433 C 3.25 5.24427 7.15501 1.25 12 1.25 C 16.845 1.25 20.75 5.24427 20.75 10.1433 C 20.75 12.5084 20.076 15.0479 18.8844 17.2419 C 17.6944 19.4331 15.9556 21.3372 13.7805 22.3539 C 12.6506 22.882 11.3494 22.882 10.2195 22.3539 C 8.04437 21.3372 6.30562 19.4331 5.11556 17.2419 C 3.92403 15.0479 3.25 12.5084 3.25 10.1433 Z M 12 2.75 C 8.00843 2.75 4.75 6.04748 4.75 10.1433 C 4.75 12.2404 5.35263 14.5354 6.4337 16.526 C 7.51624 18.5192 9.04602 20.1496 10.8546 20.995 C 11.5821 21.335 12.4179 21.335 13.1454 20.995 C 14.954 20.1496 16.4838 18.5192 17.5663 16.526 C 18.6474 14.5354 19.25 12.2404 19.25 10.1433 C 19.25 6.04748 15.9916 2.75 12 2.75 Z M 14.2622 6.37982 C 15.2018 6.72098 15.75 7.64657 15.75 8.75733 C 15.75 9.53561 15.3182 10.2317 14.8835 10.7523 C 14.4314 11.2938 13.8712 11.7689 13.4109 12.1187 C 13.3872 12.1367 13.3633 12.155 13.3392 12.1735 C 12.9904 12.4407 12.5868 12.75 12 12.75 C 11.4132 12.75 11.0095 12.4407 10.6608 12.1735 C 10.6367 12.155 10.6128 12.1367 10.5891 12.1187 C 10.1288 11.7689 9.56863 11.2938 9.11649 10.7523 C 8.68177 10.2317 8.25 9.53562 8.25 8.75734 C 8.25 7.64658 8.79816 6.72098 9.73781 6.37982 C 10.4739 6.11258 11.2853 6.26382 12 6.74722 C 12.7147 6.26382 13.5261 6.11258 14.2622 6.37982 Z M 13.7503 7.78976 C 13.5127 7.7035 13.0567 7.72437 12.5281 8.24858 C 12.2357 8.53853 11.7643 8.53853 11.4719 8.24858 C 10.9433 7.72437 10.4873 7.7035 10.2497 7.78976 C 10.0269 7.87068 9.75 8.13509 9.75 8.75734 C 9.75 8.99865 9.90066 9.35108 10.2679 9.79085 C 10.6177 10.2097 11.0789 10.6069 11.4967 10.9244 C 11.7231 11.0964 11.8303 11.1756 11.9158 11.2223 C 11.9667 11.2501 11.9796 11.2501 11.9974 11.25 C 11.9982 11.25 11.9991 11.25 12 11.25 C 12.0009 11.25 12.0018 11.25 12.0026 11.25 C 12.0204 11.2501 12.0333 11.2501 12.0842 11.2223 C 12.1697 11.1756 12.2769 11.0964 12.5034 10.9244 C 12.9211 10.6069 13.3824 10.2098 13.7321 9.79086 C 14.0993 9.3511 14.25 8.99866 14.25 8.75733 C 14.25 8.13509 13.9731 7.87068 13.7503 7.78976 Z" fill="#FFFFFF" />
</svg>