<svg xmlns="http://www.w3.org/2000/svg" width="24" height="24" viewBox="0 0 24 24" fill="none">
  <path fill-rule="nonzero" clip-rule="nonzero" d="M 3.25 10.1433 C 3.25 5.24427 7.15501 1.25 12 1.25 C 16.845 1.25 20.75 5.24427 20.75 10.1433 C 20.75 12.5084 20.076 15.0479 18.8844 17.2419 C 17.6944 19.4331 15.9556 21.3372 13.7805 22.3539 C 12.6506 22.882 11.3494 22.882 10.2195 22.3539 C 8.04437 21.3372 6.30562 19.4331 5.11556 17.2419 C 3.92403 15.0479 3.25 12.5084 3.25 10.1433 Z M 12 2.75 C 8.00843 2.75 4.75 6.04748 4.75 10.1433 C 4.75 12.2404 5.35263 14.5354 6.4337 16.526 C 7.51624 18.5192 9.04602 20.1496 10.8546 20.995 C 11.5821 21.335 12.4179 21.335 13.1454 20.995 C 14.954 20.1496 16.4838 18.5192 17.5663 16.526 C 18.6474 14.5354 19.25 12.2404 19.25 10.1433 C 19.25 6.04748 15.9916 2.75 12 2.75 Z M 10.9666 5.9318 C 11.6301 5.6894 12.3698 5.6894 13.0334 5.9318 L 15.3753 6.78735 C 15.9163 6.98499 16.25 7.46744 16.25 8.00001 C 16.25 8.53258 15.9163 9.01502 15.3753 9.21267 L 15.25 9.25844 V 11.7002 C 15.25 12.3732 14.856 13.0287 14.1693 13.2821 C 13.6442 13.4759 12.779 13.75 12 13.75 C 11.221 13.75 10.3558 13.4759 9.83069 13.2821 C 9.14396 13.0287 8.75 12.3732 8.75 11.7002 V 9.25843 L 8.62471 9.21265 C 8.08368 9.01501 7.75 8.53256 7.75 7.99999 C 7.75 7.46742 8.08368 6.98498 8.62471 6.78733 L 10.9666 5.9318 Z M 10.25 9.8064 V 11.7002 C 10.25 11.805 10.3069 11.859 10.35 11.8749 C 10.8512 12.0598 11.5041 12.25 12 12.25 C 12.4959 12.25 13.1488 12.0598 13.65 11.8749 C 13.6931 11.859 13.75 11.805 13.75 11.7002 V 9.80641 L 13.0334 10.0682 C 12.3699 10.3106 11.6302 10.3106 10.9666 10.0682 L 10.25 9.8064 Z M 12.5187 7.34073 C 12.1875 7.21976 11.8125 7.21976 11.4813 7.34073 L 9.67667 7.99999 L 11.4813 8.65927 C 11.8125 8.78024 12.1875 8.78024 12.5187 8.65927 L 14.3233 8.00001 L 12.5187 7.34073 Z" fill="#FFFFFF" />
</svg>