<svg xmlns="http://www.w3.org/2000/svg" width="24" height="24" viewBox="0 0 24 24" fill="none">
  <path fill-rule="nonzero" clip-rule="nonzero" d="M 5.25 8.10747 C 5.25 4.3328 8.25958 1.25 12 1.25 C 15.7404 1.25 18.75 4.3328 18.75 8.10747 C 18.75 9.9148 18.2356 11.85 17.3281 13.5209 C 16.4221 15.1891 15.0919 16.6514 13.4148 17.4353 C 12.517 17.8549 11.483 17.8549 10.5852 17.4353 C 8.90807 16.6514 7.57789 15.1891 6.6719 13.5209 C 5.76445 11.85 5.25 9.9148 5.25 8.10747 Z M 12 2.75 C 9.113 2.75 6.75 5.13601 6.75 8.10747 C 6.75 9.64677 7.19305 11.3375 7.99005 12.805 C 8.78851 14.2752 9.90972 15.4638 11.2204 16.0764 C 11.7156 16.3079 12.2844 16.3079 12.7796 16.0764 C 14.0903 15.4638 15.2115 14.2752 16.01 12.805 C 16.8069 11.3375 17.25 9.64677 17.25 8.10747 C 17.25 5.13601 14.887 2.75 12 2.75 Z M 12 6.75 C 11.3096 6.75 10.75 7.30964 10.75 8 C 10.75 8.69036 11.3096 9.25 12 9.25 C 12.6904 9.25 13.25 8.69036 13.25 8 C 13.25 7.30964 12.6904 6.75 12 6.75 Z M 9.25 8 C 9.25 6.48122 10.4812 5.25 12 5.25 C 13.5188 5.25 14.75 6.48122 14.75 8 C 14.75 9.51878 13.5188 10.75 12 10.75 C 10.4812 10.75 9.25 9.51878 9.25 8 Z M 3.62731 14.5342 C 3.88455 14.8589 3.82989 15.3306 3.50523 15.5878 C 2.93157 16.0424 2.75 16.443 2.75 16.75 C 2.75 16.993 2.86028 17.288 3.19064 17.6296 C 3.52438 17.9747 4.04582 18.3252 4.75556 18.6471 C 6.00981 19.2159 7.74351 19.6466 9.75 19.8343 V 19.375 C 9.75 19.0807 9.9221 18.8136 10.1901 18.692 C 10.4581 18.5704 10.7724 18.6168 10.9939 18.8106 L 12.4939 20.1231 C 12.6566 20.2655 12.75 20.4712 12.75 20.6875 C 12.75 20.9038 12.6566 21.1095 12.4939 21.2519 L 10.9939 22.5644 C 10.7724 22.7582 10.4581 22.8046 10.1901 22.683 C 9.9221 22.5614 9.75 22.2943 9.75 22 V 21.3404 C 7.56512 21.1487 5.60927 20.6813 4.13599 20.0131 C 3.32214 19.644 2.62069 19.1979 2.11244 18.6724 C 1.60081 18.1434 1.25 17.494 1.25 16.75 C 1.25 15.7998 1.81667 15.012 2.5737 14.4122 C 2.89836 14.1549 3.37008 14.2096 3.62731 14.5342 Z M 20.3727 14.5342 C 20.6299 14.2096 21.1016 14.1549 21.4263 14.4122 C 22.1833 15.012 22.75 15.7998 22.75 16.75 C 22.75 18.1281 21.5819 19.1606 20.2034 19.8514 C 18.7617 20.5738 16.791 21.0851 14.5756 21.3096 C 14.1635 21.3514 13.7956 21.0512 13.7538 20.6391 C 13.7121 20.227 14.0123 19.859 14.4244 19.8173 C 16.522 19.6047 18.3014 19.1266 19.5314 18.5103 C 20.8246 17.8623 21.25 17.2066 21.25 16.75 C 21.25 16.443 21.0684 16.0424 20.4948 15.5878 C 20.1701 15.3306 20.1155 14.8589 20.3727 14.5342 Z" fill="#FFFFFF" />
</svg>