<svg xmlns="http://www.w3.org/2000/svg" width="24" height="24" viewBox="0 0 24 24" fill="none">
  <path fill-rule="nonzero" clip-rule="nonzero" d="M12 2 C16.4183 2 20 5.64588 20 10.1433 C20 14.6055 17.4467 19.8124 13.4629 21.6744 C12.5343 22.1085 11.4657 22.1085 10.5371 21.6744 C6.55332 19.8124 4 14.6055 4 10.1433 C4 5.64588 7.58172 2 12 2 Z M12 6.75 C11.5858 6.75 11.25 7.08579 11.25 7.5 L11.25 9.25 L9.5 9.25 C9.08579 9.25 8.75 9.58579 8.75 10 C8.75 10.4142 9.08579 10.75 9.5 10.75 L11.25 10.75 L11.25 12.5 C11.25 12.9142 11.5858 13.25 12 13.25 C12.4142 13.25 12.75 12.9142 12.75 12.5 L12.75 10.75 L14.5 10.75 C14.9142 10.75 15.25 10.4142 15.25 10 C15.25 9.58579 14.9142 9.25 14.5 9.25 L12.75 9.25 L12.75 7.5 C12.75 7.08579 12.4142 6.75 12 6.75 Z" fill="#FFFFFF" />
</svg>