<svg xmlns="http://www.w3.org/2000/svg" width="24" height="24" viewBox="0 0 24 24" fill="none">
  <path fill-rule="nonzero" clip-rule="nonzero" d="M12 2 C16.4183 2 20 5.64588 20 10.1433 C20 14.6055 17.4467 19.8124 13.4629 21.6744 C12.5343 22.1085 11.4657 22.1085 10.5371 21.6744 C6.55332 19.8124 4 14.6055 4 10.1433 C4 5.64588 7.58172 2 12 2 Z M8.25 10 C8.25 10.4142 8.58579 10.75 9 10.75 L15 10.75 C15.4142 10.75 15.75 10.4142 15.75 10 C15.75 9.58579 15.4142 9.25 15 9.25 L9 9.25 C8.58579 9.25 8.25 9.58579 8.25 10 Z" fill="#FFFFFF" />
</svg>