<svg xmlns="http://www.w3.org/2000/svg" width="24" height="24" viewBox="0 0 24 24" fill="none">
  <path fill-rule="nonzero" clip-rule="nonzero" d="M 13.4629 21.6744 C 12.5343 22.1085 11.4657 22.1085 10.5371 21.6744 C 6.55332 19.8124 4 14.6055 4 10.1433 C 4 5.64588 7.58172 2 12 2 C 16.4183 2 20 5.64588 20 10.1433 C 20 14.6055 17.4467 19.8124 13.4629 21.6744 Z M10.9666 5.9318 L8.62471 6.78733 C8.08368 6.98498 7.75 7.46742 7.75 7.99999 C7.75 8.53256 8.08368 9.01501 8.62471 9.21265 L8.75 9.25843 L8.75 11.7002 C8.75 12.3732 9.14396 13.0287 9.83069 13.2821 C10.3558 13.4759 11.221 13.75 12 13.75 C12.779 13.75 13.6442 13.4759 14.1693 13.2821 C14.856 13.0287 15.25 12.3732 15.25 11.7002 L15.25 9.25844 L15.3753 9.21267 C15.9163 9.01502 16.25 8.53258 16.25 8.00001 C16.25 7.46744 15.9163 6.98499 15.3753 6.78735 L13.0334 5.9318 C12.3698 5.6894 11.6301 5.6894 10.9666 5.9318 Z" fill="#FFFFFF" />
  <path fill-rule="evenodd" clip-rule="evenodd" d="M11.4813 7.34073C11.8125 7.21976 12.1875 7.21976 12.5187 7.34073L14.3233 8.00001L12.5187 8.65927C12.1875 8.78024 11.8125 8.78024 11.4813 8.65927L9.67667 7.99999L11.4813 7.34073Z" fill="#FFFFFF" />
  <path d="M10.25 11.7002V9.8064L10.9666 10.0682C11.6302 10.3106 12.3699 10.3106 13.0334 10.0682L13.75 9.80641V11.7002C13.75 11.805 13.6931 11.859 13.65 11.8749C13.1488 12.0598 12.4959 12.25 12 12.25C11.5041 12.25 10.8512 12.0598 10.35 11.8749C10.3069 11.859 10.25 11.805 10.25 11.7002Z" fill="#FFFFFF" />
</svg>