<svg xmlns="http://www.w3.org/2000/svg" width="24" height="24" viewBox="0 0 24 24" fill="none">
  <path opacity="0.5" fill-rule="nonzero" clip-rule="nonzero" d="M12 2 C16.4183 2 20 5.64588 20 10.1433 C20 14.6055 17.4467 19.8124 13.4629 21.6744 C12.5343 22.1085 11.4657 22.1085 10.5371 21.6744 C6.55332 19.8124 4 14.6055 4 10.1433 C4 5.64588 7.58172 2 12 2 Z M 12 14 C 14.2091 14 16 12.2091 16 10 C 16 7.79086 14.2091 6 12 6 C 9.79086 6 8 7.79086 8 10 C 8 12.2091 9.79086 14 12 14 Z" fill="#FFFFFF" />
  <path fill-rule="nonzero" clip-rule="nonzero" d="M12 14 C9.79086 14 8 12.2091 8 10 C8 7.79086 9.79086 6 12 6 C14.2091 6 16 7.79086 16 10 C16 12.2091 14.2091 14 12 14 Z M 12.75 8.5 C 12.75 8.08579 12.4142 7.75 12 7.75 C 11.5858 7.75 11.25 8.08579 11.25 8.5 V 9.25 H 10.5 C 10.0858 9.25 9.75 9.58579 9.75 10 C 9.75 10.4142 10.0858 10.75 10.5 10.75 H 11.25 V 11.5 C 11.25 11.9142 11.5858 12.25 12 12.25 C 12.4142 12.25 12.75 11.9142 12.75 11.5 V 10.75 H 13.5 C 13.9142 10.75 14.25 10.4142 14.25 10 C 14.25 9.58579 13.9142 9.25 13.5 9.25 H 12.75 V 8.5 Z" fill="#FFFFFF" />
</svg>