<svg xmlns="http://www.w3.org/2000/svg" width="24" height="24" viewBox="0 0 24 24" fill="none">
  <path opacity="0.5" d="M10.5371 21.6744C11.4657 22.1085 12.5343 22.1085 13.4629 21.6744C17.4467 19.8124 20 14.6055 20 10.1433C20 5.64588 16.4183 2 12 2C7.58172 2 4 5.64588 4 10.1433C4 14.6055 6.55332 19.8124 10.5371 21.6744Z" fill="#FFFFFF" />
  <path fill-rule="nonzero" clip-rule="nonzero" d="M13.0334 5.9318 L15.3753 6.78735 C15.9163 6.98499 16.25 7.46744 16.25 8.00001 C16.25 8.53258 15.9163 9.01502 15.3753 9.21267 L15.25 9.25844 L15.25 11.7002 C15.25 12.3732 14.856 13.0287 14.1693 13.2821 C13.6442 13.4759 12.779 13.75 12 13.75 C11.221 13.75 10.3558 13.4759 9.83069 13.2821 C9.14396 13.0287 8.75 12.3732 8.75 11.7002 L8.75 9.25843 L8.62471 9.21265 C8.08368 9.01501 7.75 8.53256 7.75 7.99999 C7.75 7.46742 8.08368 6.98498 8.62471 6.78733 L10.9666 5.9318 C11.6301 5.6894 12.3698 5.6894 13.0334 5.9318 Z M 10.25 9.8064 V 11.7002 C 10.25 11.805 10.3069 11.859 10.35 11.8749 C 10.8512 12.0598 11.5041 12.25 12 12.25 C 12.4959 12.25 13.1488 12.0598 13.65 11.8749 C 13.6931 11.859 13.75 11.805 13.75 11.7002 V 9.80641 L 13.0334 10.0682 C 12.3699 10.3106 11.6302 10.3106 10.9666 10.0682 L 10.25 9.8064 Z M 12.5187 7.34073 C 12.1875 7.21976 11.8125 7.21976 11.4813 7.34073 L 9.67667 7.99999 L 11.4813 8.65927 C 11.8125 8.78024 12.1875 8.78024 12.5187 8.65927 L 14.3233 8.00001 L 12.5187 7.34073 Z" fill="#FFFFFF" />
</svg>