<svg xmlns="http://www.w3.org/2000/svg" width="24" height="24" viewBox="0 0 24 24" fill="none">
  <path fill-rule="nonzero" clip-rule="nonzero" d="M 3.25 10.1433 C 3.25 5.24427 7.15501 1.25 12 1.25 C 16.845 1.25 20.75 5.24427 20.75 10.1433 C 20.75 12.5084 20.076 15.0479 18.8844 17.2419 C 17.6944 19.4331 15.9556 21.3372 13.7805 22.3539 C 12.6506 22.882 11.3494 22.882 10.2195 22.3539 C 8.04437 21.3372 6.30562 19.4331 5.11556 17.2419 C 3.92403 15.0479 3.25 12.5084 3.25 10.1433 Z M 12 2.75 C 8.00843 2.75 4.75 6.04748 4.75 10.1433 C 4.75 12.2404 5.35263 14.5354 6.4337 16.526 C 7.51624 18.5192 9.04602 20.1496 10.8546 20.995 C 11.5821 21.335 12.4179 21.335 13.1454 20.995 C 14.954 20.1496 16.4838 18.5192 17.5663 16.526 C 18.6474 14.5354 19.25 12.2404 19.25 10.1433 C 19.25 6.04748 15.9916 2.75 12 2.75 Z M 12 6.75 C 12.4142 6.75 12.75 7.08579 12.75 7.5 V 9.25 H 14.5 C 14.9142 9.25 15.25 9.58579 15.25 10 C 15.25 10.4142 14.9142 10.75 14.5 10.75 H 12.75 V 12.5 C 12.75 12.9142 12.4142 13.25 12 13.25 C 11.5858 13.25 11.25 12.9142 11.25 12.5 V 10.75 H 9.5 C 9.08579 10.75 8.75 10.4142 8.75 10 C 8.75 9.58579 9.08579 9.25 9.5 9.25 H 11.25 V 7.5 C 11.25 7.08579 11.5858 6.75 12 6.75 Z" fill="#FFFFFF" />
</svg>