<svg xmlns="http://www.w3.org/2000/svg" width="24" height="24" viewBox="0 0 24 24" fill="none">
  <path fill-rule="nonzero" clip-rule="nonzero" d="M12 2 C16.4183 2 20 5.64588 20 10.1433 C20 14.6055 17.4467 19.8124 13.4629 21.6744 C12.5343 22.1085 11.4657 22.1085 10.5371 21.6744 C6.55332 19.8124 4 14.6055 4 10.1433 C4 5.64588 7.58172 2 12 2 Z M8.25 10 C8.25 12.0711 9.92893 13.75 12 13.75 C12.7651 13.75 13.4774 13.5203 14.0706 13.1268 L14.9681 14.0293 C15.2602 14.323 15.7351 14.3243 16.0288 14.0322 C16.3225 13.7401 16.3238 13.2652 16.0317 12.9715 L15.1304 12.0653 C15.5217 11.4731 15.75 10.7628 15.75 10 C15.75 7.92893 14.0711 6.25 12 6.25 C9.92893 6.25 8.25 7.92893 8.25 10 Z M 9.75 10 C 9.75 8.75736 10.7574 7.75 12 7.75 C 13.2426 7.75 14.25 8.75736 14.25 10 C 14.25 10.6202 14.0001 11.1806 13.5937 11.5883 C 13.1854 11.9979 12.6229 12.25 12 12.25 C 10.7574 12.25 9.75 11.2426 9.75 10 Z" fill="#FFFFFF" />
</svg>