<svg xmlns="http://www.w3.org/2000/svg" width="24" height="24" viewBox="0 0 24 24" fill="none">
  <path fill-rule="evenodd" clip-rule="evenodd" d="M12 7.75C12.4142 7.75 12.75 8.08579 12.75 8.5V9.25H13.5C13.9142 9.25 14.25 9.58579 14.25 10C14.25 10.4142 13.9142 10.75 13.5 10.75H12.75V11.5C12.75 11.9142 12.4142 12.25 12 12.25C11.5858 12.25 11.25 11.9142 11.25 11.5V10.75H10.5C10.0858 10.75 9.75 10.4142 9.75 10C9.75 9.58579 10.0858 9.25 10.5 9.25H11.25V8.5C11.25 8.08579 11.5858 7.75 12 7.75Z" fill="#FFFFFF" />
  <path fill-rule="nonzero" clip-rule="nonzero" d="M12 2 C16.4183 2 20 5.64588 20 10.1433 C20 14.6055 17.4467 19.8124 13.4629 21.6744 C12.5343 22.1085 11.4657 22.1085 10.5371 21.6744 C6.55332 19.8124 4 14.6055 4 10.1433 C4 5.64588 7.58172 2 12 2 Z M 12 14 C 14.2091 14 16 12.2091 16 10 C 16 7.79086 14.2091 6 12 6 C 9.79086 6 8 7.79086 8 10 C 8 12.2091 9.79086 14 12 14 Z M12.75 8.5 L12.75 9.25 L13.5 9.25 C13.9142 9.25 14.25 9.58579 14.25 10 C14.25 10.4142 13.9142 10.75 13.5 10.75 L12.75 10.75 L12.75 11.5 C12.75 11.9142 12.4142 12.25 12 12.25 C11.5858 12.25 11.25 11.9142 11.25 11.5 L11.25 10.75 L10.5 10.75 C10.0858 10.75 9.75 10.4142 9.75 10 C9.75 9.58579 10.0858 9.25 10.5 9.25 L11.25 9.25 L11.25 8.5 C11.25 8.08579 11.5858 7.75 12 7.75 C12.4142 7.75 12.75 8.08579 12.75 8.5 Z" fill="#FFFFFF" />
</svg>