<svg xmlns="http://www.w3.org/2000/svg" width="24" height="24" viewBox="0 0 24 24" fill="none">
  <path fill-rule="nonzero" clip-rule="nonzero" d="M 4.25 8.51464 C 4.25 4.45264 7.77146 1.25 12 1.25 C 16.2285 1.25 19.75 4.45264 19.75 8.51464 C 19.75 12.3258 17.3871 16.8 13.5748 18.4292 C 12.574 18.8569 11.426 18.8569 10.4252 18.4292 C 6.61289 16.8 4.25 12.3258 4.25 8.51464 Z M 12 2.75 C 8.49655 2.75 5.75 5.38076 5.75 8.51464 C 5.75 11.843 7.85543 15.6998 11.0147 17.0499 C 11.639 17.3167 12.361 17.3167 12.9853 17.0499 C 16.1446 15.6998 18.25 11.843 18.25 8.51464 C 18.25 5.38076 15.5034 2.75 12 2.75 Z M 12 7.75 C 11.3096 7.75 10.75 8.30964 10.75 9 C 10.75 9.69036 11.3096 10.25 12 10.25 C 12.6904 10.25 13.25 9.69036 13.25 9 C 13.25 8.30964 12.6904 7.75 12 7.75 Z M 9.25 9 C 9.25 7.48122 10.4812 6.25 12 6.25 C 13.5188 6.25 14.75 7.48122 14.75 9 C 14.75 10.5188 13.5188 11.75 12 11.75 C 10.4812 11.75 9.25 10.5188 9.25 9 Z M 3.59541 14.9966 C 3.87344 15.3036 3.84992 15.7779 3.54288 16.0559 C 2.97519 16.57 2.75 17.0621 2.75 17.5 C 2.75 18.2637 3.47401 19.2048 5.23671 19.998 C 6.929 20.7596 9.31952 21.25 12 21.25 C 14.6805 21.25 17.071 20.7596 18.7633 19.998 C 20.526 19.2048 21.25 18.2637 21.25 17.5 C 21.25 17.0621 21.0248 16.57 20.4571 16.0559 C 20.1501 15.7779 20.1266 15.3036 20.4046 14.9966 C 20.6826 14.6895 21.1569 14.666 21.4639 14.9441 C 22.227 15.635 22.75 16.5011 22.75 17.5 C 22.75 19.2216 21.2354 20.5305 19.3788 21.3659 C 17.4518 22.2331 14.8424 22.75 12 22.75 C 9.15764 22.75 6.54815 22.2331 4.62116 21.3659 C 2.76457 20.5305 1.25 19.2216 1.25 17.5 C 1.25 16.5011 1.77305 15.635 2.53605 14.9441 C 2.84309 14.666 3.31738 14.6895 3.59541 14.9966 Z" fill="#FFFFFF" />
</svg>