<svg xmlns="http://www.w3.org/2000/svg" width="24" height="24" viewBox="0 0 24 24" fill="none">
  <path fill-rule="nonzero" clip-rule="nonzero" d="M 12 2.75 C 11.3096 2.75 10.75 3.30964 10.75 4 C 10.75 4.69036 11.3096 5.25 12 5.25 C 12.6904 5.25 13.25 4.69036 13.25 4 C 13.25 3.30964 12.6904 2.75 12 2.75 Z M 9.25 4 C 9.25 2.48122 10.4812 1.25 12 1.25 C 13.5188 1.25 14.75 2.48122 14.75 4 C 14.75 5.51878 13.5188 6.75 12 6.75 C 10.4812 6.75 9.25 5.51878 9.25 4 Z M 16.9894 7.16382 C 18.4102 6.85936 19.75 7.94247 19.75 9.39553 C 19.75 10.3779 19.1214 11.2501 18.1894 11.5608 L 16.0141 12.2859 C 15.877 12.3316 15.795 12.3591 15.7342 12.3821 C 15.6957 12.3966 15.6795 12.4044 15.6756 12.4063 C 15.5935 12.4582 15.5488 12.5528 15.561 12.6491 C 15.562 12.6534 15.5663 12.6709 15.5795 12.7098 C 15.6004 12.7714 15.6313 12.8522 15.6832 12.987 L 16.93 16.2287 C 17.4901 17.6849 16.4152 19.25 14.8549 19.25 C 14.0571 19.25 13.3205 18.8225 12.9246 18.1298 L 12 16.5117 L 11.0754 18.1298 C 10.6795 18.8225 9.94287 19.25 9.14506 19.25 C 7.58484 19.25 6.50994 17.6849 7.07002 16.2287 L 8.31681 12.987 C 8.36869 12.8522 8.3996 12.7714 8.42051 12.7098 C 8.43373 12.6709 8.43803 12.6534 8.43901 12.6491 C 8.4512 12.5528 8.40652 12.4582 8.32443 12.4063 C 8.32052 12.4044 8.30434 12.3966 8.26583 12.3821 C 8.20501 12.3591 8.12301 12.3316 7.98592 12.2859 L 5.81062 11.5608 C 4.87863 11.2501 4.25 10.3779 4.25 9.39553 C 4.25 7.94247 5.5898 6.85936 7.0106 7.16382 L 8.90817 7.57044 C 9.01467 7.59326 9.06443 7.60392 9.11353 7.61407 C 11.0177 8.00795 12.9823 8.00795 14.8865 7.61407 C 14.9356 7.60392 14.9853 7.59326 15.0918 7.57044 L 16.9894 7.16382 Z M 18.25 9.39553 C 18.25 8.89743 17.7907 8.52615 17.3037 8.63052 L 15.4034 9.03773 C 15.3006 9.05975 15.2453 9.0716 15.1903 9.08298 C 13.0857 9.51831 10.9143 9.51831 8.80969 9.08298 C 8.7547 9.0716 8.69947 9.05977 8.59688 9.03779 L 6.69631 8.63052 C 6.20927 8.52615 5.75 8.89743 5.75 9.39553 C 5.75 9.73228 5.96549 10.0313 6.28497 10.1378 L 8.46026 10.8629 C 8.47839 10.8689 8.49661 10.8749 8.5149 10.881 C 8.72048 10.9491 8.93409 11.0199 9.1102 11.1286 C 9.69929 11.4922 10.0186 12.169 9.92485 12.8548 C 9.89681 13.0599 9.81566 13.2698 9.73756 13.4718 C 9.73061 13.4898 9.72369 13.5077 9.71683 13.5255 L 8.47004 16.7672 C 8.28784 17.2409 8.63751 17.75 9.14506 17.75 C 9.40459 17.75 9.64422 17.6109 9.77299 17.3856 L 11.3488 14.6279 C 11.4823 14.3942 11.7309 14.25 12 14.25 C 12.2691 14.25 12.5177 14.3942 12.6512 14.6279 L 14.227 17.3856 C 14.3558 17.6109 14.5954 17.75 14.8549 17.75 C 15.3625 17.75 15.7122 17.2409 15.53 16.7672 L 14.2832 13.5255 C 14.2763 13.5077 14.2694 13.4898 14.2624 13.4718 C 14.1843 13.2698 14.1032 13.0599 14.0751 12.8548 C 13.9814 12.169 14.3007 11.4922 14.8898 11.1286 C 15.0659 11.0199 15.2795 10.9491 15.4851 10.881 C 15.5034 10.8749 15.5216 10.8689 15.5397 10.8629 L 17.715 10.1378 C 18.0345 10.0313 18.25 9.73228 18.25 9.39553 Z M 5.21639 14.1631 C 5.40245 14.5332 5.25328 14.984 4.88321 15.1701 C 3.36229 15.9348 2.75 16.7949 2.75 17.5 C 2.75 18.2637 3.47401 19.2048 5.23671 19.998 C 6.929 20.7596 9.31952 21.25 12 21.25 C 14.6805 21.25 17.071 20.7596 18.7633 19.998 C 20.526 19.2048 21.25 18.2637 21.25 17.5 C 21.25 16.7949 20.6377 15.9348 19.1168 15.1701 C 18.7467 14.984 18.5975 14.5332 18.7836 14.1631 C 18.9697 13.793 19.4205 13.6439 19.7906 13.8299 C 21.4366 14.6575 22.75 15.9 22.75 17.5 C 22.75 19.2216 21.2354 20.5305 19.3788 21.3659 C 17.4518 22.2331 14.8424 22.75 12 22.75 C 9.15764 22.75 6.54815 22.2331 4.62116 21.3659 C 2.76457 20.5305 1.25 19.2216 1.25 17.5 C 1.25 15.9 2.5634 14.6575 4.20941 13.8299 C 4.57948 13.6439 5.03032 13.793 5.21639 14.1631 Z" fill="#FFFFFF" />
</svg>