<svg xmlns="http://www.w3.org/2000/svg" width="24" height="24" viewBox="0 0 24 24" fill="none">
  <path fill-rule="nonzero" clip-rule="nonzero" d="M 17 2.75 C 15.7574 2.75 14.75 3.75736 14.75 5 C 14.75 6.24264 15.7574 7.25 17 7.25 C 18.2426 7.25 19.25 6.24264 19.25 5 C 19.25 3.75736 18.2426 2.75 17 2.75 Z M 13.25 5 C 13.25 2.92893 14.9289 1.25 17 1.25 C 19.0711 1.25 20.75 2.92893 20.75 5 C 20.75 6.81422 19.4617 8.32753 17.75 8.67499 V 9.26075 C 18.3712 9.2738 18.9168 9.30266 19.3918 9.36652 C 20.2919 9.48754 21.0497 9.74643 21.6517 10.3483 C 22.2536 10.9503 22.5125 11.7081 22.6335 12.6082 C 22.75 13.4752 22.75 14.5775 22.75 15.9451 V 16.0549 C 22.75 17.4225 22.75 18.5248 22.6335 19.3918 C 22.5125 20.2919 22.2536 21.0497 21.6517 21.6516 C 21.0497 22.2536 20.2919 22.5125 19.3918 22.6335 C 18.5248 22.75 17.4225 22.75 16.0549 22.75 H 7.94513 C 6.57754 22.75 5.47522 22.75 4.60825 22.6335 C 3.70814 22.5125 2.95027 22.2536 2.34835 21.6516 C 1.74643 21.0497 1.48754 20.2919 1.36652 19.3918 C 1.24996 18.5248 1.24998 17.4225 1.25 16.0549 V 15.9451 C 1.24998 14.5775 1.24996 13.4752 1.36652 12.6082 C 1.48754 11.7081 1.74643 10.9503 2.34835 10.3484 C 2.95027 9.74643 3.70814 9.48754 4.60825 9.36652 C 5.47522 9.24996 6.57754 9.24998 7.94513 9.25 H 16.0549 C 16.1205 9.25 16.1856 9.25 16.25 9.25001 V 8.67499 C 14.5383 8.32753 13.25 6.81422 13.25 5 Z M 16.25 10.75 C 16.1682 10.75 16.0848 10.75 16 10.75 H 8 C 6.56458 10.75 5.56347 10.7516 4.80812 10.8531 C 4.6605 10.873 4.52685 10.8962 4.40527 10.9227 L 12.3532 15.3382 C 12.361 15.3424 12.3688 15.3467 12.3765 15.3512 L 20.9208 20.098 C 21.0203 19.869 21.0949 19.5783 21.1469 19.1919 C 21.2484 18.4365 21.25 17.4354 21.25 16 C 21.25 14.5646 21.2484 13.5635 21.1469 12.8081 C 21.0482 12.0743 20.8678 11.6858 20.591 11.409 C 20.3142 11.1322 19.9257 10.9518 19.1919 10.8531 C 18.7902 10.7991 18.319 10.7734 17.75 10.7611 V 13 C 17.75 13.4142 17.4142 13.75 17 13.75 C 16.5858 13.75 16.25 13.4142 16.25 13 V 10.75 Z M 19.5947 21.0773 L 12.0106 16.8639 L 4.74465 21.138 C 4.76552 21.141 4.78667 21.144 4.80812 21.1469 C 5.56347 21.2484 6.56459 21.25 8 21.25 H 16 C 17.4354 21.25 18.4365 21.2484 19.1919 21.1469 C 19.3395 21.127 19.4731 21.1038 19.5947 21.0773 Z M 3.18976 20.3124 L 10.4891 16.0186 L 3.07919 11.902 C 2.97974 12.131 2.9051 12.4217 2.85315 12.8081 C 2.75159 13.5635 2.75 14.5646 2.75 16 C 2.75 17.4354 2.75159 18.4365 2.85315 19.1919 C 2.92283 19.7102 3.03333 20.0563 3.18976 20.3124 Z" fill="#FFFFFF" />
</svg>