<svg xmlns="http://www.w3.org/2000/svg" width="24" height="24" viewBox="0 0 24 24" fill="none">
  <path fill-rule="nonzero" clip-rule="nonzero" d="M 22 12 C 22 17.5228 17.5228 22 12 22 C 6.47715 22 2 17.5228 2 12 C 2 6.47715 6.47715 2 12 2 C 17.5228 2 22 6.47715 22 12 Z M13.3584 6.93033 C16.1583 7.68056 17.8199 10.5585 17.0697 13.3584 C16.3194 16.1583 13.4415 17.8199 10.6416 17.0697 C7.84168 16.3194 6.1801 13.4415 6.93033 10.6416 C7.0586 10.1629 7.2486 9.7184 7.48915 9.31389 L11.5282 12.583 C11.8501 12.8436 12.3224 12.7938 12.583 12.4718 C12.8436 12.1499 12.7938 11.6776 12.4718 11.417 L8.27405 8.01941 C7.71251 7.56491 6.80849 7.60723 6.35561 8.29795 C5.97096 8.8846 5.67232 9.54098 5.48144 10.2534 C4.51679 13.8535 6.65325 17.5539 10.2534 18.5186 C13.8535 19.4832 17.5539 17.3467 18.5186 13.7466 C19.4832 10.1465 17.3467 6.44608 13.7466 5.48144 C12.7796 5.22232 11.8033 5.18693 10.8745 5.34452 C10.4662 5.41381 10.1913 5.80103 10.2606 6.20941 C10.3299 6.61779 10.7171 6.89267 11.1255 6.82338 C11.8458 6.70116 12.604 6.72817 13.3584 6.93033 Z" fill="#FFFFFF" />
</svg>