<svg xmlns="http://www.w3.org/2000/svg" width="24" height="24" viewBox="0 0 24 24" fill="none">
  <path fill-rule="nonzero" clip-rule="nonzero" d="M 6.14214 6.14214 C 8.90356 3.38071 10.2843 2 12 2 C 13.7157 2 15.0964 3.38071 17.8579 6.14214 C 20.6193 8.90356 22 10.2843 22 12 C 22 13.7157 20.6193 15.0964 17.8579 17.8579 C 15.0964 20.6193 13.7157 22 12 22 C 10.2843 22 8.90356 20.6193 6.14214 17.8579 C 3.38071 15.0964 2 13.7157 2 12 C 2 10.2843 3.38071 8.90356 6.14214 6.14214 Z M 13.8463 8.45285 C 13.5441 8.16955 13.0695 8.18486 12.7862 8.48704 C 12.5029 8.78923 12.5182 9.26386 12.8204 9.54715 L 14.1034 10.75 H 10.6667 C 10.1116 10.75 9.28861 10.9003 8.5804 11.3784 C 7.83208 11.8835 7.25 12.7345 7.25 14 C 7.25 14.4142 7.58579 14.75 8 14.75 C 8.41421 14.75 8.75 14.4142 8.75 14 C 8.75 13.2655 9.05681 12.8665 9.41961 12.6216 C 9.8225 12.3497 10.3329 12.25 10.6667 12.25 H 14.1034 L 12.8204 13.4528 C 12.5182 13.7361 12.5029 14.2108 12.7862 14.513 C 13.0695 14.8151 13.5441 14.8305 13.8463 14.5472 L 16.513 12.0472 C 16.6642 11.9054 16.75 11.7073 16.75 11.5 C 16.75 11.2927 16.6642 11.0946 16.513 10.9528 L 13.8463 8.45285 Z" fill="#FFFFFF" />
</svg>