<svg xmlns="http://www.w3.org/2000/svg" width="24" height="24" viewBox="0 0 24 24" fill="none">
  <path fill-rule="nonzero" clip-rule="nonzero" d="M18.5 14 C20.433 14 22 15.4584 22 17.2573 C22 19.0422 20.8829 21.125 19.14 21.8698 C18.7337 22.0434 18.2663 22.0434 17.86 21.8698 C16.1171 21.125 15 19.0422 15 17.2573 C15 15.4584 16.567 14 18.5 14 Z M 18.5 18.5 C 19.0523 18.5 19.5 18.0523 19.5 17.5 C 19.5 16.9477 19.0523 16.5 18.5 16.5 C 17.9477 16.5 17.5 16.9477 17.5 17.5 C 17.5 18.0523 17.9477 18.5 18.5 18.5 Z" fill="#FFFFFF" />
  <path fill-rule="nonzero" clip-rule="nonzero" d="M5.5 2 C7.433 2 9 3.45835 9 5.25732 C9 7.04219 7.88292 9.12497 6.14003 9.86978 C5.73374 10.0434 5.26626 10.0434 4.85997 9.86978 C3.11708 9.12497 2 7.04219 2 5.25732 C2 3.45835 3.567 2 5.5 2 Z M 5.5 6.5 C 6.05228 6.5 6.5 6.05228 6.5 5.5 C 6.5 4.94772 6.05228 4.5 5.5 4.5 C 4.94772 4.5 4.5 4.94772 4.5 5.5 C 4.5 6.05228 4.94772 6.5 5.5 6.5 Z" fill="#FFFFFF" />
  <path fill-rule="evenodd" clip-rule="evenodd" d="M11.2501 5C11.2501 4.58579 11.5859 4.25 12.0001 4.25H16.132C18.8832 4.25 19.9295 7.843 17.6084 9.32007L7.19713 15.9454C6.14207 16.6168 6.61766 18.25 7.86821 18.25H10.1894L9.96977 18.0303C9.67688 17.7374 9.67688 17.2626 9.96977 16.9697C10.2627 16.6768 10.7375 16.6768 11.0304 16.9697L12.5304 18.4697C12.8233 18.7626 12.8233 19.2374 12.5304 19.5303L11.0304 21.0303C10.7375 21.3232 10.2627 21.3232 9.96977 21.0303C9.67688 20.7374 9.67688 20.2626 9.96977 19.9697L10.1894 19.75H7.86821C5.11697 19.75 4.07071 16.157 6.39181 14.6799L16.8031 8.05458C17.8581 7.38318 17.3825 5.75 16.132 5.75H12.0001C11.5859 5.75 11.2501 5.41421 11.2501 5Z" fill="#FFFFFF" />
</svg>