<svg xmlns="http://www.w3.org/2000/svg" width="24" height="24" viewBox="0 0 24 24" fill="none">
  <path fill-rule="nonzero" clip-rule="nonzero" d="M 6 3.75 C 5.30964 3.75 4.75 4.30964 4.75 5 C 4.75 5.69036 5.30964 6.25 6 6.25 C 6.69036 6.25 7.25 5.69036 7.25 5 C 7.25 4.30964 6.69036 3.75 6 3.75 Z M 3.25 5 C 3.25 3.48122 4.48122 2.25 6 2.25 C 7.25878 2.25 8.32002 3.09575 8.64648 4.25 H 16.5 C 18.8472 4.25 20.75 6.15279 20.75 8.5 C 20.75 10.8472 18.8472 12.75 16.5 12.75 H 7.5 C 5.98122 12.75 4.75 13.9812 4.75 15.5 C 4.75 17.0188 5.98122 18.25 7.5 18.25 H 18.1893 L 17.4697 17.5303 C 17.1768 17.2374 17.1768 16.7626 17.4697 16.4697 C 17.7626 16.1768 18.2374 16.1768 18.5303 16.4697 L 20.5303 18.4697 C 20.8232 18.7626 20.8232 19.2374 20.5303 19.5303 L 18.5303 21.5303 C 18.2374 21.8232 17.7626 21.8232 17.4697 21.5303 C 17.1768 21.2374 17.1768 20.7626 17.4697 20.4697 L 18.1893 19.75 H 7.5 C 5.15279 19.75 3.25 17.8472 3.25 15.5 C 3.25 13.1528 5.15279 11.25 7.5 11.25 H 16.5 C 18.0188 11.25 19.25 10.0188 19.25 8.5 C 19.25 6.98122 18.0188 5.75 16.5 5.75 H 8.64648 C 8.32002 6.90425 7.25878 7.75 6 7.75 C 4.48122 7.75 3.25 6.51878 3.25 5 Z" fill="#FFFFFF" />
</svg>