<svg xmlns="http://www.w3.org/2000/svg" width="24" height="24" viewBox="0 0 24 24" fill="none">
  <path fill-rule="nonzero" clip-rule="nonzero" d="M12.75 2 L12.75 3.5 L17.5 3.5 C18.9045 3.5 19.6067 3.5 20.1111 3.83706 C20.3295 3.98298 20.517 4.17048 20.6629 4.38886 C21 4.89331 21 5.59554 21 7 C21 8.40446 21 9.10669 20.6629 9.61114 C20.517 9.82952 20.3295 10.017 20.1111 10.1629 C19.6067 10.5 18.9045 10.5 17.5 10.5 L12.75 10.5 L12.75 12.5 L17.296 12.5 C17.9536 12.5 18.2824 12.5 18.5841 12.5982 C18.7172 12.6415 18.8454 12.6987 18.9665 12.7688 C19.2412 12.9277 19.4608 13.1723 19.9002 13.6616 C20.7509 14.6089 21.1762 15.0826 21.2786 15.6362 C21.3231 15.8767 21.3231 16.1233 21.2786 16.3638 C21.1762 16.9174 20.7509 17.3911 19.9002 18.3384 C19.4608 18.8277 19.2412 19.0723 18.9665 19.2312 C18.8454 19.3013 18.7172 19.3585 18.5841 19.4018 C18.2824 19.5 17.9536 19.5 17.296 19.5 L12.75 19.5 L12.75 21.25 L14 21.25 C14.4142 21.25 14.75 21.5858 14.75 22 C14.75 22.4142 14.4142 22.75 14 22.75 L10 22.75 C9.58579 22.75 9.25 22.4142 9.25 22 C9.25 21.5858 9.58579 21.25 10 21.25 L11.25 21.25 L11.25 19.5 L6.5 19.5 C5.09554 19.5 4.39331 19.5 3.88886 19.1629 C3.67048 19.017 3.48298 18.8295 3.33706 18.6111 C3 18.1067 3 17.4045 3 16 C3 14.5955 3 13.8933 3.33706 13.3889 C3.48298 13.1705 3.67048 12.983 3.88886 12.8371 C4.39331 12.5 5.09554 12.5 6.5 12.5 L11.25 12.5 L11.25 10.5 L6.70399 10.5 C6.04642 10.5 5.71764 10.5 5.41593 10.4018 C5.28282 10.3585 5.15463 10.3013 5.03346 10.2312 C4.75882 10.0723 4.53915 9.8277 4.09981 9.33844 C3.24911 8.39107 2.82376 7.91738 2.72136 7.36381 C2.67687 7.12331 2.67687 6.87669 2.72136 6.63619 C2.82376 6.08262 3.24911 5.60893 4.09981 4.66156 C4.53915 4.1723 4.75882 3.92767 5.03346 3.76879 C5.15463 3.6987 5.28282 3.64152 5.41593 3.5982 C5.71764 3.5 6.04642 3.5 6.70399 3.5 L11.25 3.5 L11.25 2 C11.25 1.58579 11.5858 1.25 12 1.25 C12.4142 1.25 12.75 1.58579 12.75 2 Z M 9 6.25 C 8.58579 6.25 8.25 6.58579 8.25 7 C 8.25 7.41421 8.58579 7.75 9 7.75 H 15 C 15.4142 7.75 15.75 7.41421 15.75 7 C 15.75 6.58579 15.4142 6.25 15 6.25 H 9 Z M8.25 16 C8.25 16.4142 8.58579 16.75 9 16.75 L15 16.75 C15.4142 16.75 15.75 16.4142 15.75 16 C15.75 15.5858 15.4142 15.25 15 15.25 L9 15.25 C8.58579 15.25 8.25 15.5858 8.25 16 Z" fill="#FFFFFF" />
</svg>