<svg xmlns="http://www.w3.org/2000/svg" width="24" height="24" viewBox="0 0 24 24" fill="none">
  <path opacity="0.5" fill-rule="nonzero" clip-rule="nonzero" d="M12.75 2 L12.75 3.5 L11.25 3.5 L11.25 2 C11.25 1.58579 11.5858 1.25 12 1.25 C12.4142 1.25 12.75 1.58579 12.75 2 Z M11.25 10.5 L12.75 10.5 L12.75 12.5 L11.25 12.5 L11.25 10.5 Z M 11.25 21.25 V 19.5 H 12.75 V 21.25 H 14 C 14.4142 21.25 14.75 21.5858 14.75 22 C 14.75 22.4142 14.4142 22.75 14 22.75 H 10 C 9.58579 22.75 9.25 22.4142 9.25 22 C 9.25 21.5858 9.58579 21.25 10 21.25 H 11.25 Z" fill="#FFFFFF" />
  <path fill-rule="nonzero" clip-rule="nonzero" d="M17.4995 3.5 C18.904 3.5 19.6062 3.5 20.1106 3.83706 C20.329 3.98298 20.5165 4.17048 20.6624 4.38886 C20.9995 4.89331 20.9995 5.59554 20.9995 7 C20.9995 8.40446 20.9995 9.10669 20.6624 9.61114 C20.5165 9.82952 20.329 10.017 20.1106 10.1629 C19.6062 10.5 18.904 10.5 17.4995 10.5 L6.7035 10.5 C6.04593 10.5 5.71715 10.5 5.41544 10.4018 C5.28233 10.3585 5.15414 10.3013 5.03298 10.2312 C4.75833 10.0723 4.53866 9.8277 4.09932 9.33844 C3.24862 8.39107 2.82327 7.91738 2.72087 7.36381 C2.67638 7.12331 2.67638 6.87669 2.72087 6.63619 C2.82327 6.08262 3.24863 5.60893 4.09933 4.66156 C4.53866 4.1723 4.75833 3.92767 5.03298 3.76879 C5.15414 3.6987 5.28233 3.64152 5.41544 3.5982 C5.71715 3.5 6.04593 3.5 6.7035 3.5 L17.4995 3.5 Z M 9 6.25 C 8.58579 6.25 8.25 6.58579 8.25 7 C 8.25 7.41421 8.58579 7.75 9 7.75 H 15 C 15.4142 7.75 15.75 7.41421 15.75 7 C 15.75 6.58579 15.4142 6.25 15 6.25 H 9 Z" fill="#FFFFFF" />
  <path fill-rule="nonzero" clip-rule="nonzero" d="M17.2955 12.5 C17.9531 12.5 18.2819 12.5 18.5836 12.5982 C18.7167 12.6415 18.8449 12.6987 18.966 12.7688 C19.2407 12.9277 19.4604 13.1723 19.8997 13.6616 C20.7504 14.6089 21.1757 15.0826 21.2781 15.6362 C21.3226 15.8767 21.3226 16.1233 21.2781 16.3638 C21.1757 16.9174 20.7504 17.3911 19.8997 18.3384 C19.4604 18.8277 19.2407 19.0723 18.966 19.2312 C18.8449 19.3013 18.7167 19.3585 18.5836 19.4018 C18.2819 19.5 17.9531 19.5 17.2955 19.5 L6.49951 19.5 C5.09505 19.5 4.39282 19.5 3.88837 19.1629 C3.66999 19.017 3.48249 18.8295 3.33657 18.6111 C2.99951 18.1067 2.99951 17.4045 2.99951 16 C2.99951 14.5955 2.99951 13.8933 3.33657 13.3889 C3.48249 13.1705 3.66999 12.983 3.88837 12.8371 C4.39282 12.5 5.09505 12.5 6.49951 12.5 L17.2955 12.5 Z M8.25 16 C8.25 16.4142 8.58579 16.75 9 16.75 L15 16.75 C15.4142 16.75 15.75 16.4142 15.75 16 C15.75 15.5858 15.4142 15.25 15 15.25 L9 15.25 C8.58579 15.25 8.25 15.5858 8.25 16 Z" fill="#FFFFFF" />
</svg>