<svg xmlns="http://www.w3.org/2000/svg" width="24" height="24" viewBox="0 0 24 24" fill="none">
  <path fill-rule="nonzero" clip-rule="nonzero" d="M12.75 2 L12.75 2.75 L17.5383 2.75 C18.2079 2.74998 18.7666 2.74997 19.219 2.79598 C19.6924 2.84415 20.1318 2.94886 20.5278 3.21346 C20.8281 3.4141 21.0859 3.67191 21.2865 3.97218 C21.5511 4.36818 21.6558 4.80755 21.704 5.28102 C21.75 5.73336 21.75 6.29209 21.75 6.96168 L21.75 7.03832 C21.75 7.70791 21.75 8.26664 21.704 8.71898 C21.6558 9.19245 21.5511 9.63182 21.2865 10.0278 C21.0859 10.3281 20.8281 10.5859 20.5278 10.7865 C20.1318 11.0511 19.6924 11.1559 19.219 11.204 C18.7666 11.25 18.2079 11.25 17.5383 11.25 L12.75 11.25 L12.75 11.75 L17.3936 11.75 C17.9556 11.7495 18.3988 11.7492 18.8162 11.885 C18.9992 11.9446 19.1755 12.0232 19.3421 12.1196 C19.722 12.3394 20.0179 12.6693 20.393 13.0878 L20.4822 13.1872 C20.8871 13.6381 21.2266 14.0162 21.4738 14.3517 C21.7336 14.7042 21.9361 15.0672 22.0161 15.4998 C22.0773 15.8305 22.0773 16.1695 22.0161 16.5002 C21.9361 16.9328 21.7336 17.2958 21.4738 17.6483 C21.2267 17.9838 20.8872 18.3619 20.4822 18.8128 L20.393 18.9122 C20.0179 19.3307 19.722 19.6606 19.3421 19.8804 C19.1755 19.9768 18.9992 20.0554 18.8162 20.115 C18.3988 20.2508 17.9556 20.2505 17.3936 20.25 L12.75 20.25 L12.75 21.25 L14 21.25 C14.4142 21.25 14.75 21.5858 14.75 22 C14.75 22.4142 14.4142 22.75 14 22.75 L10 22.75 C9.58579 22.75 9.25 22.4142 9.25 22 C9.25 21.5858 9.58579 21.25 10 21.25 L11.25 21.25 L11.25 20.25 L6.46166 20.25 C5.79208 20.25 5.23335 20.25 4.78102 20.204 C4.30755 20.1559 3.86818 20.0511 3.47218 19.7865 C3.17191 19.5859 2.91409 19.3281 2.71346 19.0278 C2.44886 18.6318 2.34415 18.1925 2.29598 17.719 C2.24997 17.2666 2.24998 16.7079 2.25 16.0383 L2.25 15.9617 C2.24998 15.2921 2.24997 14.7334 2.29598 14.281 C2.34415 13.8075 2.44886 13.3682 2.71346 12.9722 C2.91409 12.6719 3.17191 12.4141 3.47218 12.2135 C3.86818 11.9489 4.30755 11.8441 4.78102 11.796 C5.23335 11.75 5.79208 11.75 6.46165 11.75 L11.25 11.75 L11.25 11.25 L6.60638 11.25 C6.04435 11.2505 5.6012 11.2508 5.1838 11.115 C5.00078 11.0554 4.82452 10.9768 4.65792 10.8804 C4.27796 10.6606 3.98213 10.3307 3.60695 9.91219 L3.51778 9.81281 C3.11285 9.36189 2.77334 8.98382 2.52616 8.64831 C2.26641 8.29576 2.0639 7.93285 1.98387 7.50023 C1.9227 7.16955 1.9227 6.83045 1.98387 6.49977 C2.0639 6.06715 2.26641 5.70424 2.52616 5.35169 C2.77334 5.01618 3.11286 4.63811 3.51779 4.18718 L3.60695 4.08781 C3.98214 3.66934 4.27796 3.33939 4.65792 3.11959 C4.82452 3.02322 5.00078 2.9446 5.1838 2.88503 C5.6012 2.74917 6.04435 2.74952 6.60638 2.74995 L11.25 2.75 L11.25 2 C11.25 1.58579 11.5858 1.25 12 1.25 C12.4142 1.25 12.75 1.58579 12.75 2 Z M5.64805 4.31138 C5.56486 4.33845 5.48474 4.37419 5.40901 4.418 C5.2614 4.50339 5.12972 4.63716 4.65785 5.16266 C4.22267 5.64729 3.93269 5.97145 3.73379 6.24142 C3.54258 6.50095 3.48122 6.65166 3.45884 6.77262 C3.43104 6.92293 3.43104 7.07707 3.45884 7.22738 C3.48122 7.34834 3.54258 7.49905 3.73379 7.75858 C3.93269 8.02855 4.22267 8.35271 4.65785 8.83735 C5.12972 9.36284 5.2614 9.49661 5.40901 9.582 C5.48474 9.62581 5.56486 9.66155 5.64805 9.68862 C5.81021 9.7414 5.99772 9.75 6.70399 9.75 L17.5 9.75 C18.2178 9.75 18.6998 9.74909 19.0672 9.71172 C19.422 9.67562 19.586 9.6118 19.6945 9.53934 C19.8309 9.44814 19.9481 9.33095 20.0393 9.19446 C20.1118 9.08601 20.1756 8.92204 20.2117 8.56717 C20.2491 8.19977 20.25 7.71784 20.25 7 C20.25 6.28216 20.2491 5.80023 20.2117 5.43283 C20.1756 5.07796 20.1118 4.91399 20.0393 4.80554 C19.9481 4.66905 19.8309 4.55186 19.6945 4.46066 C19.586 4.3882 19.422 4.32438 19.0672 4.28828 C18.6998 4.25091 18.2178 4.25 17.5 4.25 L6.70399 4.25 C5.99772 4.25 5.81021 4.2586 5.64805 4.31138 Z M 18.3519 13.3114 C 18.1898 13.2586 18.0023 13.25 17.296 13.25 H 6.5 C 5.78216 13.25 5.30023 13.2509 4.93283 13.2883 C 4.57796 13.3244 4.41399 13.3882 4.30554 13.4607 C 4.16905 13.5519 4.05186 13.669 3.96066 13.8055 C 3.8882 13.914 3.82438 14.078 3.78828 14.4328 C 3.75091 14.8002 3.75 15.2822 3.75 16 C 3.75 16.7178 3.75091 17.1998 3.78828 17.5672 C 3.82438 17.922 3.8882 18.086 3.96066 18.1945 C 4.05186 18.331 4.16905 18.4481 4.30554 18.5393 C 4.41399 18.6118 4.57796 18.6756 4.93283 18.7117 C 5.30023 18.7491 5.78216 18.75 6.5 18.75 H 17.296 C 18.0023 18.75 18.1898 18.7414 18.3519 18.6886 C 18.4351 18.6615 18.5153 18.6258 18.591 18.582 C 18.7386 18.4966 18.8703 18.3628 19.3421 17.8373 C 19.7773 17.3527 20.0673 17.0286 20.2662 16.7586 C 20.4574 16.4991 20.5188 16.3483 20.5411 16.2274 C 20.569 16.0771 20.569 15.9229 20.5411 15.7726 C 20.5188 15.6517 20.4574 15.5009 20.2662 15.2414 C 20.0673 14.9714 19.7773 14.6473 19.3421 14.1627 C 18.8703 13.6372 18.7386 13.5034 18.591 13.418 C 18.5153 13.3742 18.4351 13.3385 18.3519 13.3114 Z" fill="#FFFFFF" />
</svg>