<svg xmlns="http://www.w3.org/2000/svg" width="24" height="24" viewBox="0 0 24 24" fill="none">
  <path fill-rule="nonzero" clip-rule="nonzero" d="M 9.45109 1.25 H 14.5489 C 16.1512 1.24999 17.4205 1.24998 18.4248 1.36868 C 19.4557 1.49054 20.3044 1.74638 21.0134 2.3282 C 21.2539 2.52558 21.4744 2.74612 21.6718 2.98663 C 22.2536 3.69558 22.5095 4.54428 22.6313 5.57525 C 22.75 6.57946 22.75 7.84881 22.75 9.45105 V 9.54895 C 22.75 11.1512 22.75 12.4205 22.6313 13.4248 C 22.5095 14.4557 22.2536 15.3044 21.6718 16.0134 C 21.4744 16.2539 21.2539 16.4744 21.0134 16.6718 C 20.2244 17.3193 19.2612 17.5637 18.0651 17.668 C 17.6525 17.704 17.2888 17.3986 17.2528 16.986 C 17.2169 16.5733 17.5222 16.2097 17.9349 16.1737 C 18.7105 16.106 19.2391 15.9823 19.6393 15.7841 L 13.5532 11.1026 L 3.50087 3.9223 C 3.49647 3.92759 3.49208 3.9329 3.48772 3.93822 C 3.16158 4.33563 2.96344 4.86197 2.85831 5.75133 C 2.75123 6.65724 2.75 7.83789 2.75 9.5 C 2.75 11.1621 2.75123 12.3428 2.85831 13.2487 C 2.96344 14.138 3.16158 14.6644 3.48772 15.0618 C 3.62277 15.2263 3.77366 15.3772 3.93822 15.5123 C 4.38084 15.8755 4.98216 16.0793 6.06515 16.1737 C 6.4778 16.2097 6.78315 16.5733 6.74717 16.986 C 6.71118 17.3986 6.3475 17.704 5.93485 17.668 C 4.7388 17.5637 3.77559 17.3193 2.98663 16.6718 C 2.74612 16.4744 2.52558 16.2539 2.3282 16.0134 C 1.74638 15.3044 1.49054 14.4557 1.36868 13.4248 C 1.24998 12.4205 1.24999 11.1512 1.25 9.54891 V 9.45109 C 1.24999 7.84882 1.24998 6.57947 1.36868 5.57525 C 1.49054 4.54428 1.74638 3.69558 2.3282 2.98663 C 2.52558 2.74612 2.74612 2.52558 2.98663 2.3282 C 3.69558 1.74638 4.54428 1.49054 5.57525 1.36868 C 6.57947 1.24998 7.84883 1.24999 9.45109 1.25 Z M 4.83688 3.03324 L 13.8992 9.50633 L 19.7076 3.25113 C 19.3541 3.06149 18.8982 2.93509 18.2487 2.85831 C 17.3428 2.75123 16.1621 2.75 14.5 2.75 H 9.5 C 7.83789 2.75 6.65724 2.75123 5.75133 2.85831 C 5.39256 2.90072 5.09287 2.95826 4.83688 3.03324 Z M 20.7629 4.31904 L 15.1096 10.4073 L 20.7344 14.7341 C 20.9321 14.377 21.063 13.9146 21.1417 13.2487 C 21.2488 12.3428 21.25 11.1621 21.25 9.5 C 21.25 7.83789 21.2488 6.65724 21.1417 5.75133 C 21.0668 5.11798 20.9448 4.66873 20.7629 4.31904 Z M 11.973 14.767 C 11.9235 14.8026 11.8386 14.8843 11.7149 15.0616 C 11.4598 15.4271 11.1718 15.9988 10.7389 16.8648 L 9.40358 19.536 C 9.14242 20.0584 8.96495 20.4144 8.85434 20.6806 C 8.7671 20.8906 8.75375 20.9739 8.75085 20.9853 C 8.77306 21.1146 8.86992 21.2185 8.99714 21.2499 C 9.00872 21.2478 9.0928 21.2403 9.30816 21.1682 C 9.58146 21.0767 9.94907 20.9249 10.4886 20.7014 C 10.5074 20.6936 10.5259 20.6859 10.5442 20.6783 C 10.8815 20.5384 11.1396 20.4314 11.4111 20.3753 C 11.7996 20.295 12.2004 20.295 12.5889 20.3753 C 12.8604 20.4314 13.1185 20.5384 13.4558 20.6783 C 13.4741 20.6859 13.4926 20.6936 13.5114 20.7014 C 14.0509 20.9249 14.4185 21.0767 14.6918 21.1682 C 14.9072 21.2403 14.9913 21.2478 15.0029 21.2499 C 15.1301 21.2185 15.2269 21.1146 15.2491 20.9853 C 15.2462 20.9739 15.2329 20.8906 15.1457 20.6806 C 15.0351 20.4144 14.8576 20.0584 14.5964 19.536 L 13.2611 16.8648 C 12.8282 15.9988 12.5402 15.4271 12.2851 15.0616 C 12.1614 14.8843 12.0765 14.8026 12.027 14.767 C 12.013 14.7569 12.0041 14.7522 12 14.7503 C 11.9959 14.7522 11.987 14.7569 11.973 14.767 Z M12 14.7503 C11.9991 14.7503 11.9997 14.7503 12 14.7503 C11.9984 14.7496 11.997 14.749 11.9974 14.7492 C11.9984 14.7495 11.9993 14.7502 12 14.7503 Z M 10.4848 14.2032 C 10.8149 13.7301 11.2827 13.25 12 13.25 C 12.7173 13.25 13.1851 13.7301 13.5152 14.2032 C 13.841 14.6701 14.1773 15.3429 14.5754 16.1393 L 15.9513 18.8915 C 16.196 19.3812 16.3976 19.7844 16.5309 20.1051 C 16.6557 20.4056 16.7858 20.7756 16.7407 21.1488 C 16.6454 21.9377 16.052 22.575 15.2717 22.7261 C 14.9027 22.7975 14.5244 22.694 14.2158 22.5907 C 13.8865 22.4805 13.47 22.3079 12.9642 22.0983 L 12.9373 22.0872 C 12.5198 21.9142 12.3999 21.8679 12.2853 21.8442 C 12.0971 21.8053 11.9029 21.8053 11.7147 21.8442 C 11.6001 21.8679 11.4802 21.9142 11.0627 22.0872 L 11.0357 22.0984 C 10.53 22.3079 10.1135 22.4805 9.78425 22.5907 C 9.47564 22.694 9.09733 22.7975 8.72826 22.7261 C 7.94805 22.575 7.3546 21.9377 7.25928 21.1488 C 7.2142 20.7756 7.34426 20.4056 7.46915 20.1051 C 7.60237 19.7844 7.80398 19.3811 8.04877 18.8915 L 9.42458 16.1393 C 9.82266 15.3429 10.159 14.6701 10.4848 14.2032 Z" fill="#FFFFFF" />
</svg>