<svg xmlns="http://www.w3.org/2000/svg" width="24" height="24" viewBox="0 0 24 24" fill="none">
  <path fill-rule="nonzero" clip-rule="nonzero" d="M 17.3864 2.92637 C 16.0864 2.75159 14.3782 2.75 12 2.75 C 9.62177 2.75 7.91356 2.75159 6.61358 2.92637 C 5.33517 3.09825 4.56445 3.42514 3.9948 3.9948 C 3.42514 4.56445 3.09825 5.33517 2.92637 6.61358 C 2.75159 7.91356 2.75 9.62177 2.75 12 C 2.75 14.3782 2.75159 16.0864 2.92637 17.3864 C 3.09825 18.6648 3.42514 19.4355 3.9948 20.0052 C 4.46242 20.4728 5.06554 20.7769 5.97376 20.9659 L 20.9659 5.97376 C 20.7769 5.06554 20.4728 4.46242 20.0052 3.9948 C 19.4355 3.42514 18.6648 3.09825 17.3864 2.92637 Z M 21.1873 7.87364 L 15.0611 13.9998 L 20.4683 19.4071 C 20.763 18.9078 20.9551 18.2678 21.0736 17.3864 C 21.2484 16.0864 21.25 14.3782 21.25 12 C 21.25 10.3215 21.2492 8.97669 21.1873 7.87364 Z M 19.4078 20.4679 L 14.0004 15.0605 L 7.87364 21.1873 C 8.97669 21.2492 10.3215 21.25 12 21.25 C 14.3782 21.25 16.0864 21.2484 17.3864 21.0736 C 18.2682 20.9551 18.9085 20.7628 19.4078 20.4679 Z M 17.5863 1.43975 C 19.031 1.63399 20.1711 2.03933 21.0659 2.93414 C 21.9607 3.82895 22.366 4.96897 22.5603 6.41371 C 22.75 7.82519 22.75 9.63423 22.75 11.9426 V 12.0574 C 22.75 14.3658 22.75 16.1748 22.5603 17.5863 C 22.366 19.031 21.9607 20.1711 21.0659 21.0659 C 20.1711 21.9607 19.031 22.366 17.5863 22.5603 C 16.1748 22.75 14.3658 22.75 12.0574 22.75 H 11.9426 C 9.63423 22.75 7.82519 22.75 6.41371 22.5603 C 4.96897 22.366 3.82895 21.9607 2.93414 21.0659 C 2.03933 20.1711 1.63399 19.031 1.43975 17.5863 C 1.24998 16.1748 1.24999 14.3658 1.25 12.0574 V 11.9426 C 1.24999 9.63423 1.24998 7.82519 1.43975 6.41371 C 1.63399 4.96897 2.03933 3.82895 2.93414 2.93414 C 3.82895 2.03933 4.96897 1.63399 6.41371 1.43975 C 7.82519 1.24998 9.63423 1.24999 11.9426 1.25 H 12.0574 C 14.3658 1.24999 16.1748 1.24998 17.5863 1.43975 Z M 4.75 8.75722 C 4.75 6.49419 6.70446 4.7499 9 4.7499 C 11.2955 4.7499 13.25 6.49419 13.25 8.75722 C 13.25 10.7835 12.0042 13.175 9.93476 14.0593 C 9.34021 14.3134 8.65979 14.3134 8.06524 14.0593 C 5.99581 13.175 4.75 10.7835 4.75 8.75722 Z M 9 6.2499 C 7.42955 6.2499 6.25 7.42231 6.25 8.75722 C 6.25 10.3007 7.23835 12.0747 8.65469 12.68 C 8.87274 12.7732 9.12726 12.7732 9.34531 12.68 C 10.7617 12.0747 11.75 10.3007 11.75 8.75722 C 11.75 7.42231 10.5705 6.2499 9 6.2499 Z" fill="#FFFFFF" />
  <path d="M10 9C10 9.55229 9.55229 10 9 10C8.44772 10 8 9.55229 8 9C8 8.44772 8.44772 8 9 8C9.55229 8 10 8.44772 10 9Z" fill="#FFFFFF" />
</svg>