<svg xmlns="http://www.w3.org/2000/svg" width="24" height="24" viewBox="0 0 24 24" fill="none">
  <path fill-rule="nonzero" clip-rule="nonzero" d="M 4.43057 6.51192 C 4.70014 6.19743 5.17361 6.161 5.48811 6.43057 L 12 12.0122 L 18.5119 6.43057 C 18.8264 6.161 19.2999 6.19743 19.5695 6.51192 C 19.839 6.82641 19.8026 7.29989 19.4881 7.56946 L 12.4881 13.5695 C 12.2072 13.8102 11.7928 13.8102 11.5119 13.5695 L 4.51192 7.56946 C 4.19743 7.29989 4.161 6.82641 4.43057 6.51192 Z M 4.43057 10.5119 C 4.70014 10.1974 5.17361 10.161 5.48811 10.4306 L 12 16.0122 L 18.5119 10.4306 C 18.8264 10.161 19.2999 10.1974 19.5695 10.5119 C 19.839 10.8264 19.8026 11.2999 19.4881 11.5695 L 12.4881 17.5695 C 12.2072 17.8102 11.7928 17.8102 11.5119 17.5695 L 4.51192 11.5695 C 4.19743 11.2999 4.161 10.8264 4.43057 10.5119 Z" fill="#FFFFFF" />
</svg>