<svg xmlns="http://www.w3.org/2000/svg" width="24" height="24" viewBox="0 0 24 24" fill="none">
  <path fill-rule="nonzero" clip-rule="nonzero" d="M 11.5119 6.43056 C 11.7928 6.18981 12.2072 6.18981 12.4881 6.43056 L 19.4881 12.4306 C 19.8026 12.7001 19.839 13.1736 19.5695 13.4881 C 19.2999 13.8026 18.8264 13.839 18.5119 13.5694 L 12 7.98781 L 5.48811 13.5694 C 5.17361 13.839 4.70014 13.8026 4.43057 13.4881 C 4.161 13.1736 4.19743 12.7001 4.51192 12.4306 L 11.5119 6.43056 Z M 4.51192 16.4306 L 11.5119 10.4306 C 11.7928 10.1898 12.2072 10.1898 12.4881 10.4306 L 19.4881 16.4306 C 19.8026 16.7001 19.839 17.1736 19.5695 17.4881 C 19.2999 17.8026 18.8264 17.839 18.5119 17.5694 L 12 11.9878 L 5.48811 17.5694 C 5.17361 17.839 4.70014 17.8026 4.43057 17.4881 C 4.161 17.1736 4.19743 16.7001 4.51192 16.4306 Z" fill="#FFFFFF" />
</svg>