<svg xmlns="http://www.w3.org/2000/svg" width="24" height="24" viewBox="0 0 24 24" fill="none">
  <path fill-rule="nonzero" clip-rule="nonzero" d="M 6.51192 4.43057 C 6.82641 4.161 7.29989 4.19743 7.56946 4.51192 L 13.5695 11.5119 C 13.8102 11.7928 13.8102 12.2072 13.5695 12.4881 L 7.56946 19.4881 C 7.29989 19.8026 6.82641 19.839 6.51192 19.5695 C 6.19743 19.2999 6.161 18.8264 6.43057 18.5119 L 12.0122 12 L 6.43057 5.48811 C 6.161 5.17361 6.19743 4.70014 6.51192 4.43057 Z M 10.5121 4.43068 C 10.8266 4.16111 11.3001 4.19753 11.5697 4.51202 L 17.5697 11.512 C 17.8104 11.7929 17.8104 12.2073 17.5697 12.4882 L 11.5697 19.4882 C 11.3001 19.8027 10.8266 19.8391 10.5121 19.5696 C 10.1976 19.3 10.1612 18.8265 10.4308 18.512 L 16.0124 12.0001 L 10.4308 5.48821 C 10.1612 5.17372 10.1976 4.70024 10.5121 4.43068 Z" fill="#FFFFFF" />
</svg>