<svg xmlns="http://www.w3.org/2000/svg" width="24" height="24" viewBox="0 0 24 24" fill="none">
  <path fill-rule="nonzero" clip-rule="nonzero" d="M 22 12 C 22 17.5228 17.5228 22 12 22 C 6.47715 22 2 17.5228 2 12 C 2 6.47715 6.47715 2 12 2 C 17.5228 2 22 6.47715 22 12 Z M5.46056 11.0833 L5 11.0833 C4.69656 11.0833 4.42302 11.2662 4.30699 11.5466 C4.19097 11.8269 4.25532 12.1496 4.47003 12.364 L5.63829 13.5307 C5.9311 13.8231 6.40542 13.8231 6.69823 13.5307 L7.86649 12.364 C8.0812 12.1496 8.14556 11.8269 8.02953 11.5466 C7.9135 11.2662 7.63996 11.0833 7.33652 11.0833 L6.9733 11.0833 C7.33639 8.63219 9.45213 6.75 12.0096 6.75 C13.6613 6.75 15.1289 7.53445 16.0602 8.7532 C16.3117 9.08233 16.7824 9.14526 17.1115 8.89376 C17.4406 8.64227 17.5036 8.17158 17.2521 7.84246 C16.0489 6.26793 14.148 5.25 12.0096 5.25 C8.62404 5.25 5.83331 7.79988 5.46056 11.0833 Z M 18.3617 10.4693 C 18.0689 10.1769 17.5946 10.1769 17.3018 10.4693 L 16.1335 11.636 C 15.9188 11.8504 15.8545 12.1731 15.9705 12.4534 C 16.0865 12.7338 16.3601 12.9167 16.6635 12.9167 H 17.0267 C 16.6636 15.3678 14.5479 17.25 11.9905 17.25 C 10.3464 17.25 8.88484 16.4729 7.9529 15.2638 C 7.70002 14.9358 7.22908 14.8748 6.90101 15.1277 C 6.57295 15.3806 6.512 15.8515 6.76487 16.1796 C 7.96886 17.7416 9.86205 18.75 11.9905 18.75 C 15.376 18.75 18.1667 16.2001 18.5395 12.9167 H 19 C 19.3035 12.9167 19.577 12.7338 19.693 12.4534 C 19.8091 12.1731 19.7447 11.8504 19.53 11.636 L 18.3617 10.4693 Z" fill="#FFFFFF" />
</svg>