<svg xmlns="http://www.w3.org/2000/svg" width="24" height="24" viewBox="0 0 24 24" fill="none">
  <path fill-rule="nonzero" clip-rule="nonzero" d="M3.46447 3.46447 C4.92893 2 7.28595 2 12 2 C16.714 2 19.0711 2 20.5355 3.46447 C22 4.92893 22 7.28595 22 12 C22 16.714 22 19.0711 20.5355 20.5355 C19.0711 22 16.714 22 12 22 C7.28595 22 4.92893 22 3.46447 20.5355 C2 19.0711 2 16.714 2 12 C2 7.28595 2 4.92893 3.46447 3.46447 Z M5.46058 11.0833 L5.00002 11.0833 C4.69658 11.0833 4.42304 11.2662 4.30701 11.5466 C4.19099 11.8269 4.25534 12.1496 4.47005 12.364 L5.63832 13.5307 C5.93113 13.8231 6.40544 13.8231 6.69825 13.5307 L7.86651 12.364 C8.08122 12.1496 8.14558 11.8269 8.02955 11.5466 C7.91353 11.2662 7.63998 11.0833 7.33654 11.0833 L6.97332 11.0833 C7.33642 8.63219 9.45215 6.75 12.0096 6.75 C13.541 6.75 14.9136 7.42409 15.8479 8.49347 C16.1204 8.80539 16.5942 8.83733 16.9061 8.56479 C17.2181 8.29226 17.25 7.81846 16.9775 7.50653 C15.7702 6.12471 13.9916 5.25 12.0096 5.25 C8.62406 5.25 5.83333 7.79988 5.46058 11.0833 Z M17.3018 10.4693 L16.1336 11.636 C15.9189 11.8504 15.8545 12.1731 15.9705 12.4534 C16.0866 12.7338 16.3601 12.9167 16.6636 12.9167 L17.0268 12.9167 C16.6637 15.3678 14.548 17.25 11.9905 17.25 C10.4591 17.25 9.08654 16.5759 8.15222 15.5065 C7.87968 15.1946 7.40589 15.1627 7.09396 15.4352 C6.78203 15.7077 6.7501 16.1815 7.02263 16.4935 C8.22995 17.8753 10.0085 18.75 11.9905 18.75 C15.376 18.75 18.1668 16.2001 18.5395 12.9167 L19.0001 12.9167 C19.3035 12.9167 19.5771 12.7338 19.6931 12.4534 C19.8091 12.1731 19.7448 11.8504 19.53 11.636 L18.3618 10.4693 C18.069 10.1769 17.5947 10.1769 17.3018 10.4693 Z" fill="#FFFFFF" />
</svg>