<svg xmlns="http://www.w3.org/2000/svg" width="24" height="24" viewBox="0 0 24 24" fill="none">
  <path d="M16.7275 6C16.7275 5.58579 16.3917 5.25 15.9775 5.25C15.5633 5.25 15.2275 5.58579 15.2275 6V7.0232C12.9877 5.46956 9.91113 5.70783 7.92796 7.73802C5.69068 10.0283 5.69068 13.7346 7.92796 16.0249C10.1748 18.325 13.8252 18.325 16.072 16.0249C17.3754 14.6907 17.9168 12.8781 17.7055 11.1509C17.6552 10.7398 17.2812 10.4472 16.87 10.4975C16.4589 10.5478 16.1663 10.9219 16.2166 11.333C16.3757 12.6337 15.9667 13.9861 14.999 14.9767C13.3407 16.6744 10.6593 16.6744 9.00097 14.9767C7.33301 13.2692 7.33301 10.4937 9.00097 8.78618C10.324 7.4318 12.298 7.15792 13.8844 7.96452H13.3258C12.9116 7.96452 12.5758 8.3003 12.5758 8.71452C12.5758 9.12873 12.9116 9.46452 13.3258 9.46452H15.9775C16.3917 9.46452 16.7275 9.12873 16.7275 8.71452V6Z" fill="#FFFFFF" />
  <path fill-rule="nonzero" clip-rule="nonzero" d="M11.9426 1.25 L12.0574 1.25 C14.3658 1.24999 16.1748 1.24998 17.5863 1.43975 C19.031 1.63399 20.1711 2.03933 21.0659 2.93414 C21.9607 3.82895 22.366 4.96897 22.5603 6.41371 C22.75 7.82519 22.75 9.63423 22.75 11.9426 L22.75 12.0574 C22.75 14.3658 22.75 16.1748 22.5603 17.5863 C22.366 19.031 21.9607 20.1711 21.0659 21.0659 C20.1711 21.9607 19.031 22.366 17.5863 22.5603 C16.1748 22.75 14.3658 22.75 12.0574 22.75 L11.9426 22.75 C9.63423 22.75 7.82519 22.75 6.4137 22.5603 C4.96897 22.366 3.82895 21.9607 2.93414 21.0659 C2.03933 20.1711 1.63399 19.031 1.43975 17.5863 C1.24998 16.1748 1.24999 14.3658 1.25 12.0574 L1.25 11.9426 C1.24999 9.63423 1.24998 7.82519 1.43975 6.41371 C1.63399 4.96897 2.03933 3.82895 2.93414 2.93414 C3.82895 2.03933 4.96897 1.63399 6.4137 1.43975 C7.82519 1.24998 9.63423 1.24999 11.9426 1.25 Z M3.9948 3.9948 C3.42514 4.56445 3.09825 5.33517 2.92637 6.61358 C2.75159 7.91356 2.75 9.62178 2.75 12 C2.75 14.3782 2.75159 16.0864 2.92637 17.3864 C3.09825 18.6648 3.42514 19.4355 3.9948 20.0052 C4.56445 20.5749 5.33517 20.9018 6.61358 21.0736 C7.91356 21.2484 9.62177 21.25 12 21.25 C14.3782 21.25 16.0864 21.2484 17.3864 21.0736 C18.6648 20.9018 19.4355 20.5749 20.0052 20.0052 C20.5749 19.4355 20.9018 18.6648 21.0736 17.3864 C21.2484 16.0864 21.25 14.3782 21.25 12 C21.25 9.62178 21.2484 7.91356 21.0736 6.61358 C20.9018 5.33517 20.5749 4.56445 20.0052 3.9948 C19.4355 3.42514 18.6648 3.09825 17.3864 2.92637 C16.0864 2.75159 14.3782 2.75 12 2.75 C9.62177 2.75 7.91356 2.75159 6.61358 2.92637 C5.33517 3.09825 4.56445 3.42514 3.9948 3.9948 Z" fill="#FFFFFF" />
</svg>