<svg xmlns="http://www.w3.org/2000/svg" width="24" height="24" viewBox="0 0 24 24" fill="none">
  <path fill-rule="nonzero" clip-rule="nonzero" d="M12 22 C6.47715 22 2 17.5228 2 12 C2 6.47715 6.47715 2 12 2 C17.5228 2 22 6.47715 22 12 C22 17.5228 17.5228 22 12 22 Z M15.9346 5.59158 C15.6522 5.47653 15.3283 5.54393 15.1152 5.76208 L14.3647 6.53037 C12.244 5.55465 9.66551 5.95905 7.92796 7.7378 C5.69068 10.0281 5.69068 13.7344 7.92796 16.0247 C10.1748 18.3248 13.8252 18.3248 16.072 16.0247 C17.0471 15.0265 17.5957 13.7606 17.7217 12.463 C17.7609 12.0595 17.4246 11.7349 17.0192 11.7349 C16.5972 11.7349 16.2651 12.0865 16.2069 12.5045 C16.0805 13.4112 15.6769 14.2826 14.999 14.9765 C13.3407 16.6742 10.6593 16.6742 9.00097 14.9765 C7.33301 13.269 7.33301 10.4935 9.00097 8.78596 C10.1467 7.61303 11.7795 7.25143 13.225 7.69705 L12.4635 8.47659 C12.2527 8.69245 12.1917 9.01364 12.3088 9.29174 C12.4259 9.56984 12.6983 9.75067 13 9.75067 L15.6517 9.75067 C16.0659 9.75067 16.4017 9.41489 16.4017 9.00067 L16.4017 6.28616 C16.4017 5.98121 16.217 5.70662 15.9346 5.59158 Z" fill="#FFFFFF" />
</svg>