<svg xmlns="http://www.w3.org/2000/svg" width="24" height="24" viewBox="0 0 24 24" fill="none">
  <path fill-rule="nonzero" clip-rule="nonzero" d="M 12 2 C 17.5228 2 22 6.47715 22 12 C 22 17.5228 17.5228 22 12 22 C 6.47715 22 2 17.5228 2 12 C 2 6.47715 6.47715 2 12 2 Z M 14.75 17 L 14.75 9 L 16.4349 10.9307 C 16.7073 11.2427 17.1811 11.2749 17.4931 11.0026 C 17.8052 10.7302 17.8374 10.2564 17.5651 9.94435 L 14.5651 6.50685 C 14.3595 6.2713 14.0294 6.18798 13.7367 6.29775 C 13.4439 6.40753 13.25 6.68737 13.25 7 L 13.25 17 C 13.25 17.4142 13.5858 17.75 14 17.75 C 14.4142 17.75 14.75 17.4142 14.75 17 Z M6.50685 12.9974 C6.19477 13.2698 6.16257 13.7436 6.43493 14.0557 L9.43493 17.4932 C9.6405 17.7287 9.97061 17.812 10.2633 17.7022 C10.5561 17.5925 10.75 17.3126 10.75 17 L10.75 7 C10.75 6.58579 10.4142 6.25 10 6.25 C9.58579 6.25 9.25 6.58579 9.25 7 L9.25 15 L7.56507 13.0693 C7.29271 12.7573 6.81893 12.7251 6.50685 12.9974 Z" fill="#FFFFFF" />
</svg>