<svg xmlns="http://www.w3.org/2000/svg" width="24" height="24" viewBox="0 0 24 24" fill="none">
  <path fill-rule="nonzero" clip-rule="nonzero" d="M 12 2 C 17.5228 2 22 6.47715 22 12 C 22 17.5228 17.5228 22 12 22 C 6.47715 22 2 17.5228 2 12 C 2 6.47715 6.47715 2 12 2 Z M 9.75 15 C 9.75 15.4142 10.0858 15.75 10.5 15.75 H 15 C 15.4142 15.75 15.75 15.4142 15.75 15 V 10.5 C 15.75 10.0858 15.4142 9.75 15 9.75 C 14.5858 9.75 14.25 10.0858 14.25 10.5 V 13.1893 L 9.53033 8.46967 C 9.23744 8.17678 8.76256 8.17678 8.46967 8.46967 C 8.17678 8.76256 8.17678 9.23744 8.46967 9.53033 L 13.1893 14.25 H 10.5 C 10.0858 14.25 9.75 14.5858 9.75 15 Z" fill="#FFFFFF" />
</svg>