<svg xmlns="http://www.w3.org/2000/svg" width="24" height="24" viewBox="0 0 24 24" fill="none">
  <path fill-rule="nonzero" clip-rule="nonzero" d="M 12 2.75 C 6.89137 2.75 2.75 6.89137 2.75 12 C 2.75 17.1086 6.89137 21.25 12 21.25 C 17.1086 21.25 21.25 17.1086 21.25 12 C 21.25 6.89137 17.1086 2.75 12 2.75 Z M 1.25 12 C 1.25 6.06294 6.06294 1.25 12 1.25 C 17.9371 1.25 22.75 6.06294 22.75 12 C 22.75 17.9371 17.9371 22.75 12 22.75 C 6.06294 22.75 1.25 17.9371 1.25 12 Z M 8.25 9 C 8.25 8.58579 8.58579 8.25 9 8.25 H 13.5 C 13.9142 8.25 14.25 8.58579 14.25 9 C 14.25 9.41421 13.9142 9.75 13.5 9.75 H 10.8107 L 15.5303 14.4697 C 15.8232 14.7626 15.8232 15.2374 15.5303 15.5303 C 15.2374 15.8232 14.7626 15.8232 14.4697 15.5303 L 9.75 10.8107 V 13.5 C 9.75 13.9142 9.41421 14.25 9 14.25 C 8.58579 14.25 8.25 13.9142 8.25 13.5 V 9 Z" fill="#FFFFFF" />
</svg>