<svg xmlns="http://www.w3.org/2000/svg" width="24" height="24" viewBox="0 0 24 24" fill="none">
  <path fill-rule="nonzero" clip-rule="nonzero" d="M12 22 C6.47715 22 2 17.5228 2 12 C2 6.47715 6.47715 2 12 2 C17.5228 2 22 6.47715 22 12 C22 17.5228 17.5228 22 12 22 Z M14.0303 8.46967 C13.7374 8.17678 13.2626 8.17678 12.9697 8.46967 L9.96967 11.4697 C9.67678 11.7626 9.67678 12.2374 9.96967 12.5303 L12.9697 15.5303 C13.2626 15.8232 13.7374 15.8232 14.0303 15.5303 C14.3232 15.2374 14.3232 14.7626 14.0303 14.4697 L11.5607 12 L14.0303 9.53033 C14.3232 9.23744 14.3232 8.76256 14.0303 8.46967 Z" fill="#FFFFFF" />
</svg>