<svg xmlns="http://www.w3.org/2000/svg" width="24" height="24" viewBox="0 0 24 24" fill="none">
  <path fill-rule="nonzero" clip-rule="nonzero" d="M 12 2.75 C 6.89137 2.75 2.75 6.89137 2.75 12 C 2.75 17.1086 6.89137 21.25 12 21.25 C 17.1086 21.25 21.25 17.1086 21.25 12 C 21.25 6.89137 17.1086 2.75 12 2.75 Z M 1.25 12 C 1.25 6.06294 6.06294 1.25 12 1.25 C 17.9371 1.25 22.75 6.06294 22.75 12 C 22.75 17.9371 17.9371 22.75 12 22.75 C 6.06294 22.75 1.25 17.9371 1.25 12 Z M 15.5303 8.46967 C 15.8232 8.76256 15.8232 9.23744 15.5303 9.53033 L 10.8107 14.25 H 13.5 C 13.9142 14.25 14.25 14.5858 14.25 15 C 14.25 15.4142 13.9142 15.75 13.5 15.75 H 9 C 8.58579 15.75 8.25 15.4142 8.25 15 V 10.5 C 8.25 10.0858 8.58579 9.75 9 9.75 C 9.41421 9.75 9.75 10.0858 9.75 10.5 V 13.1893 L 14.4697 8.46967 C 14.7626 8.17678 15.2374 8.17678 15.5303 8.46967 Z" fill="#FFFFFF" />
</svg>