<svg xmlns="http://www.w3.org/2000/svg" width="24" height="24" viewBox="0 0 24 24" fill="none">
  <path fill-rule="nonzero" clip-rule="nonzero" d="M 12 22 C 6.47715 22 2 17.5228 2 12 C 2 6.47715 6.47715 2 12 2 C 17.5228 2 22 6.47715 22 12 C 22 17.5228 17.5228 22 12 22 Z M 11.5303 8.46967 C 11.2374 8.17678 10.7626 8.17678 10.4697 8.46967 L 7.46967 11.4697 C 7.17678 11.7626 7.17678 12.2374 7.46967 12.5303 L 10.4697 15.5303 C 10.7626 15.8232 11.2374 15.8232 11.5303 15.5303 C 11.8232 15.2374 11.8232 14.7626 11.5303 14.4697 L 9.81066 12.75 H 16 C 16.4142 12.75 16.75 12.4142 16.75 12 C 16.75 11.5858 16.4142 11.25 16 11.25 H 9.81066 L 11.5303 9.53033 C 11.8232 9.23744 11.8232 8.76256 11.5303 8.46967 Z" fill="#FFFFFF" />
</svg>