<svg xmlns="http://www.w3.org/2000/svg" width="24" height="24" viewBox="0 0 24 24" fill="none">
  <path fill-rule="nonzero" clip-rule="nonzero" d="M 22 12 C 22 17.5228 17.5228 22 12 22 C 6.47715 22 2 17.5228 2 12 C 2 6.47715 6.47715 2 12 2 C 17.5228 2 22 6.47715 22 12 Z M 7 14.75 L 15 14.75 L 13.0693 16.4349 C 12.7573 16.7073 12.7251 17.1811 12.9974 17.4931 C 13.2698 17.8052 13.7436 17.8374 14.0557 17.5651 L 17.4932 14.5651 C 17.7287 14.3595 17.812 14.0294 17.7022 13.7367 C 17.5925 13.4439 17.3126 13.25 17 13.25 L 7 13.25 C 6.58579 13.25 6.25 13.5858 6.25 14 C 6.25 14.4142 6.58579 14.75 7 14.75 Z M11.0026 6.50685 C10.7302 6.19477 10.2564 6.16257 9.94435 6.43493 L6.50685 9.43493 C6.2713 9.6405 6.18798 9.97061 6.29775 10.2633 C6.40753 10.5561 6.68737 10.75 7 10.75 L17 10.75 C17.4142 10.75 17.75 10.4142 17.75 10 C17.75 9.58579 17.4142 9.25 17 9.25 L9 9.25 L10.9307 7.56507 C11.2427 7.29271 11.2749 6.81893 11.0026 6.50685 Z" fill="#FFFFFF" />
</svg>