<svg xmlns="http://www.w3.org/2000/svg" width="24" height="24" viewBox="0 0 24 24" fill="none">
  <path fill-rule="nonzero" clip-rule="nonzero" d="M 12 2.75 C 6.89137 2.75 2.75 6.89137 2.75 12 C 2.75 17.1086 6.89137 21.25 12 21.25 C 17.1086 21.25 21.25 17.1086 21.25 12 C 21.25 6.89137 17.1086 2.75 12 2.75 Z M 1.25 12 C 1.25 6.06294 6.06294 1.25 12 1.25 C 17.9371 1.25 22.75 6.06294 22.75 12 C 22.75 17.9371 17.9371 22.75 12 22.75 C 6.06294 22.75 1.25 17.9371 1.25 12 Z M 8.46967 10.4697 L 11.4697 7.46967 C 11.7626 7.17678 12.2374 7.17678 12.5303 7.46967 L 15.5303 10.4697 C 15.8232 10.7626 15.8232 11.2374 15.5303 11.5303 C 15.2374 11.8232 14.7626 11.8232 14.4697 11.5303 L 12.75 9.81066 V 16 C 12.75 16.4142 12.4142 16.75 12 16.75 C 11.5858 16.75 11.25 16.4142 11.25 16 V 9.81066 L 9.53033 11.5303 C 9.23744 11.8232 8.76256 11.8232 8.46967 11.5303 C 8.17678 11.2374 8.17678 10.7626 8.46967 10.4697 Z" fill="#FFFFFF" />
</svg>