<svg xmlns="http://www.w3.org/2000/svg" width="24" height="24" viewBox="0 0 24 24" fill="none">
  <path fill-rule="nonzero" clip-rule="nonzero" d="M 22 12 C 22 17.5228 17.5228 22 12 22 C 6.47715 22 2 17.5228 2 12 C 2 6.47715 6.47715 2 12 2 C 17.5228 2 22 6.47715 22 12 Z M 13.0303 8.46967 C 12.7374 8.17678 12.2626 8.17678 11.9697 8.46967 C 11.6768 8.76256 11.6768 9.23744 11.9697 9.53033 L 14.4393 12 L 11.9697 14.4697 C 11.6768 14.7626 11.6768 15.2374 11.9697 15.5303 C 12.2626 15.8232 12.7374 15.8232 13.0303 15.5303 L 16.0303 12.5303 C 16.3232 12.2374 16.3232 11.7626 16.0303 11.4697 L 13.0303 8.46967 Z M7.96967 8.46967 C7.67678 8.76256 7.67678 9.23744 7.96967 9.53033 L10.4393 12 L7.96967 14.4697 C7.67678 14.7626 7.67678 15.2374 7.96967 15.5303 C8.26256 15.8232 8.73744 15.8232 9.03033 15.5303 L12.0303 12.5303 C12.3232 12.2374 12.3232 11.7626 12.0303 11.4697 L9.03033 8.46967 C8.73744 8.17678 8.26256 8.17678 7.96967 8.46967 Z" fill="#FFFFFF" />
</svg>