<svg xmlns="http://www.w3.org/2000/svg" width="24" height="24" viewBox="0 0 24 24" fill="none">
  <path fill-rule="nonzero" clip-rule="nonzero" d="M 12 2.75 C 6.89137 2.75 2.75 6.89137 2.75 12 C 2.75 17.1086 6.89137 21.25 12 21.25 C 17.1086 21.25 21.25 17.1086 21.25 12 C 21.25 6.89137 17.1086 2.75 12 2.75 Z M 1.25 12 C 1.25 6.06294 6.06294 1.25 12 1.25 C 17.9371 1.25 22.75 6.06294 22.75 12 C 22.75 17.9371 17.9371 22.75 12 22.75 C 6.06294 22.75 1.25 17.9371 1.25 12 Z M 12.4697 8.46967 C 12.7626 8.17678 13.2374 8.17678 13.5303 8.46967 L 16.5303 11.4697 C 16.8232 11.7626 16.8232 12.2374 16.5303 12.5303 L 13.5303 15.5303 C 13.2374 15.8232 12.7626 15.8232 12.4697 15.5303 C 12.1768 15.2374 12.1768 14.7626 12.4697 14.4697 L 14.1893 12.75 H 8 C 7.58579 12.75 7.25 12.4142 7.25 12 C 7.25 11.5858 7.58579 11.25 8 11.25 H 14.1893 L 12.4697 9.53033 C 12.1768 9.23744 12.1768 8.76256 12.4697 8.46967 Z" fill="#FFFFFF" />
</svg>