<svg xmlns="http://www.w3.org/2000/svg" width="24" height="24" viewBox="0 0 24 24" fill="none">
  <path fill-rule="nonzero" clip-rule="nonzero" d="M12 22 C6.47715 22 2 17.5228 2 12 C2 6.47715 6.47715 2 12 2 C17.5228 2 22 6.47715 22 12 C22 17.5228 17.5228 22 12 22 Z M15.5303 9.96967 C15.2374 9.67678 14.7626 9.67678 14.4697 9.96967 L12 12.4393 L9.53033 9.96967 C9.23744 9.67678 8.76256 9.67678 8.46967 9.96967 C8.17678 10.2626 8.17678 10.7374 8.46967 11.0303 L11.4697 14.0303 C11.6103 14.171 11.8011 14.25 12 14.25 C12.1989 14.25 12.3897 14.171 12.5303 14.0303 L15.5303 11.0303 C15.8232 10.7374 15.8232 10.2626 15.5303 9.96967 Z" fill="#FFFFFF" />
</svg>