<svg xmlns="http://www.w3.org/2000/svg" width="24" height="24" viewBox="0 0 24 24" fill="none">
  <path fill-rule="nonzero" clip-rule="nonzero" d="M12 22 C6.47715 22 2 17.5228 2 12 C2 6.47715 6.47715 2 12 2 C17.5228 2 22 6.47715 22 12 C22 17.5228 17.5228 22 12 22 Z M12 9.75 C11.8011 9.75 11.6103 9.82902 11.4697 9.96967 L8.46967 12.9697 C8.17678 13.2626 8.17678 13.7374 8.46967 14.0303 C8.76256 14.3232 9.23744 14.3232 9.53033 14.0303 L12 11.5607 L14.4697 14.0303 C14.7626 14.3232 15.2374 14.3232 15.5303 14.0303 C15.8232 13.7374 15.8232 13.2626 15.5303 12.9697 L12.5303 9.96967 C12.3897 9.82902 12.1989 9.75 12 9.75 Z" fill="#FFFFFF" />
</svg>