<svg xmlns="http://www.w3.org/2000/svg" width="24" height="24" viewBox="0 0 24 24" fill="none">
  <path fill-rule="nonzero" clip-rule="nonzero" d="M 12 2.75 C 6.89137 2.75 2.75 6.89137 2.75 12 C 2.75 17.1086 6.89137 21.25 12 21.25 C 17.1086 21.25 21.25 17.1086 21.25 12 C 21.25 6.89137 17.1086 2.75 12 2.75 Z M 1.25 12 C 1.25 6.06294 6.06294 1.25 12 1.25 C 17.9371 1.25 22.75 6.06294 22.75 12 C 22.75 17.9371 17.9371 22.75 12 22.75 C 6.06294 22.75 1.25 17.9371 1.25 12 Z M 12 9.56066 L 9.53033 12.0303 C 9.23744 12.3232 8.76256 12.3232 8.46967 12.0303 C 8.17678 11.7374 8.17678 11.2626 8.46967 10.9697 L 11.4697 7.96967 C 11.7626 7.67678 12.2374 7.67678 12.5303 7.96967 L 15.5303 10.9697 C 15.8232 11.2626 15.8232 11.7374 15.5303 12.0303 C 15.2374 12.3232 14.7626 12.3232 14.4697 12.0303 L 12 9.56066 Z M 12 13.5607 L 9.53033 16.0303 C 9.23744 16.3232 8.76256 16.3232 8.46967 16.0303 C 8.17678 15.7374 8.17678 15.2626 8.46967 14.9697 L 11.4697 11.9697 C 11.7626 11.6768 12.2374 11.6768 12.5303 11.9697 L 15.5303 14.9697 C 15.8232 15.2626 15.8232 15.7374 15.5303 16.0303 C 15.2374 16.3232 14.7626 16.3232 14.4697 16.0303 L 12 13.5607 Z" fill="#FFFFFF" />
</svg>