<svg xmlns="http://www.w3.org/2000/svg" width="24" height="24" viewBox="0 0 24 24" fill="none">
  <path fill-rule="nonzero" clip-rule="nonzero" d="M 6.20679 4.78839 C 4.09895 6.48382 2.75 9.08438 2.75 12 C 2.75 17.1086 6.89137 21.25 12 21.25 C 13.6437 21.25 15.1872 20.8213 16.5249 20.0696 L 10.6284 13.8755 V 16.5 C 10.6284 16.9142 10.2926 17.25 9.87843 17.25 C 9.46422 17.25 9.12843 16.9142 9.12843 16.5 V 12 C 9.12843 11.6932 9.31518 11.4174 9.59997 11.3036 C 9.88475 11.1897 10.2102 11.2607 10.4216 11.4828 L 17.7852 19.218 C 19.8977 17.5227 21.25 14.9193 21.25 12 C 21.25 6.89137 17.1086 2.75 12 2.75 C 10.3512 2.75 8.80314 3.1814 7.46256 3.93747 L 13.1284 10.0807 V 7.50011 C 13.1284 7.0859 13.4642 6.75011 13.8784 6.75011 C 14.2926 6.75011 14.6284 7.0859 14.6284 7.50011 V 12.0001 C 14.6284 12.309 14.4391 12.5863 14.1514 12.6987 C 13.8637 12.8111 13.5365 12.7356 13.3271 12.5086 L 6.20679 4.78839 Z M 1.25 12 C 1.25 6.06294 6.06294 1.25 12 1.25 C 17.9371 1.25 22.75 6.06294 22.75 12 C 22.75 17.9371 17.9371 22.75 12 22.75 C 6.06294 22.75 1.25 17.9371 1.25 12 Z" fill="#FFFFFF" />
</svg>