<svg xmlns="http://www.w3.org/2000/svg" width="24" height="24" viewBox="0 0 24 24" fill="none">
  <path fill-rule="nonzero" clip-rule="nonzero" d="M12 2 C17.5228 2 22 6.47715 22 12 C22 17.5228 17.5228 22 12 22 C6.47715 22 2 17.5228 2 12 C2 6.47715 6.47715 2 12 2 Z M14.25 15 C14.25 14.5858 13.9142 14.25 13.5 14.25 L10.8107 14.25 L15.5303 9.53033 C15.8232 9.23744 15.8232 8.76256 15.5303 8.46967 C15.2374 8.17678 14.7626 8.17678 14.4697 8.46967 L9.75 13.1893 L9.75 10.5 C9.75 10.0858 9.41421 9.75 9 9.75 C8.58579 9.75 8.25 10.0858 8.25 10.5 L8.25 15 C8.25 15.4142 8.58579 15.75 9 15.75 L13.5 15.75 C13.9142 15.75 14.25 15.4142 14.25 15 Z" fill="#FFFFFF" />
</svg>