<svg xmlns="http://www.w3.org/2000/svg" width="24" height="24" viewBox="0 0 24 24" fill="none">
  <path fill-rule="nonzero" clip-rule="nonzero" d="M12 22 C6.47715 22 2 17.5228 2 12 C2 6.47715 6.47715 2 12 2 C17.5228 2 22 6.47715 22 12 C22 17.5228 17.5228 22 12 22 Z M9.96967 8.46967 C9.67678 8.76256 9.67678 9.23744 9.96967 9.53033 L12.4393 12 L9.96967 14.4697 C9.67678 14.7626 9.67678 15.2374 9.96967 15.5303 C10.2626 15.8232 10.7374 15.8232 11.0303 15.5303 L14.0303 12.5303 C14.3232 12.2374 14.3232 11.7626 14.0303 11.4697 L11.0303 8.46967 C10.7374 8.17678 10.2626 8.17678 9.96967 8.46967 Z" fill="#FFFFFF" />
</svg>