<svg xmlns="http://www.w3.org/2000/svg" width="24" height="24" viewBox="0 0 24 24" fill="none">
  <path fill-rule="nonzero" clip-rule="nonzero" d="M 22 12 C 22 17.5228 17.5228 22 12 22 C 6.47715 22 2 17.5228 2 12 C 2 6.47715 6.47715 2 12 2 C 17.5228 2 22 6.47715 22 12 Z M14.9697 8.46967 L11.9697 11.4697 C11.6768 11.7626 11.6768 12.2374 11.9697 12.5303 L14.9697 15.5303 C15.2626 15.8232 15.7374 15.8232 16.0303 15.5303 C16.3232 15.2374 16.3232 14.7626 16.0303 14.4697 L13.5607 12 L16.0303 9.53033 C16.3232 9.23744 16.3232 8.76256 16.0303 8.46967 C15.7374 8.17678 15.2626 8.17678 14.9697 8.46967 Z M 12.0303 8.46967 C 11.7374 8.17678 11.2626 8.17678 10.9697 8.46967 L 7.96967 11.4697 C 7.67678 11.7626 7.67678 12.2374 7.96967 12.5303 L 10.9697 15.5303 C 11.2626 15.8232 11.7374 15.8232 12.0303 15.5303 C 12.3232 15.2374 12.3232 14.7626 12.0303 14.4697 L 9.56066 12 L 12.0303 9.53033 C 12.3232 9.23744 12.3232 8.76256 12.0303 8.46967 Z" fill="#FFFFFF" />
</svg>