<svg xmlns="http://www.w3.org/2000/svg" width="24" height="24" viewBox="0 0 24 24" fill="none">
  <path fill-rule="nonzero" clip-rule="nonzero" d="M 22 12 C 22 17.5228 17.5228 22 12 22 C 6.47715 22 2 17.5228 2 12 C 2 6.47715 6.47715 2 12 2 C 17.5228 2 22 6.47715 22 12 Z M14.5 7.25 C14.2887 7.25 14.0872 7.33914 13.945 7.4955 L11.445 10.2455 C11.1664 10.552 11.189 11.0263 11.4955 11.305 C11.802 11.5836 12.2763 11.561 12.555 11.2545 L13.75 9.93996 L13.75 16 C13.75 16.4142 14.0858 16.75 14.5 16.75 C14.9142 16.75 15.25 16.4142 15.25 16 L15.25 9.93996 L16.445 11.2545 C16.7237 11.561 17.198 11.5836 17.5045 11.305 C17.811 11.0263 17.8336 10.552 17.555 10.2455 L15.055 7.4955 C14.9128 7.33914 14.7113 7.25 14.5 7.25 Z M9.5 7.25 C9.08579 7.25 8.75 7.58579 8.75 8 L8.75 14.06 L7.55495 12.7455 C7.27632 12.439 6.80199 12.4164 6.49549 12.695 C6.189 12.9737 6.16641 13.448 6.44504 13.7545 L8.94504 16.5045 C9.08719 16.6609 9.28869 16.75 9.5 16.75 C9.71131 16.75 9.91281 16.6609 10.055 16.5045 L12.555 13.7545 C12.8336 13.448 12.811 12.9737 12.5045 12.695 C12.198 12.4164 11.7237 12.439 11.445 12.7455 L10.25 14.06 L10.25 8 C10.25 7.58579 9.91421 7.25 9.5 7.25 Z" fill="#FFFFFF" />
</svg>