<svg xmlns="http://www.w3.org/2000/svg" width="24" height="24" viewBox="0 0 24 24" fill="none">
  <path fill-rule="nonzero" clip-rule="nonzero" d="M 12 2.75 C 6.89137 2.75 2.75 6.89137 2.75 12 C 2.75 17.1086 6.89137 21.25 12 21.25 C 17.1086 21.25 21.25 17.1086 21.25 12 C 21.25 6.89137 17.1086 2.75 12 2.75 Z M 1.25 12 C 1.25 6.06294 6.06294 1.25 12 1.25 C 17.9371 1.25 22.75 6.06294 22.75 12 C 22.75 17.9371 17.9371 22.75 12 22.75 C 6.06294 22.75 1.25 17.9371 1.25 12 Z M 9.96967 8.46967 C 10.2626 8.17678 10.7374 8.17678 11.0303 8.46967 L 14.0303 11.4697 C 14.3232 11.7626 14.3232 12.2374 14.0303 12.5303 L 11.0303 15.5303 C 10.7374 15.8232 10.2626 15.8232 9.96967 15.5303 C 9.67678 15.2374 9.67678 14.7626 9.96967 14.4697 L 12.4393 12 L 9.96967 9.53033 C 9.67678 9.23744 9.67678 8.76256 9.96967 8.46967 Z" fill="#FFFFFF" />
</svg>