<svg xmlns="http://www.w3.org/2000/svg" width="24" height="24" viewBox="0 0 24 24" fill="none">
  <path fill-rule="nonzero" clip-rule="nonzero" d="M12 22 C6.47715 22 2 17.5228 2 12 C2 6.47715 6.47715 2 12 2 C17.5228 2 22 6.47715 22 12 C22 17.5228 17.5228 22 12 22 Z M9.75 9 C9.75 9.41421 10.0858 9.75 10.5 9.75 L13.1893 9.75 L8.46967 14.4697 C8.17678 14.7626 8.17678 15.2374 8.46967 15.5303 C8.76256 15.8232 9.23744 15.8232 9.53033 15.5303 L14.25 10.8107 L14.25 13.5 C14.25 13.9142 14.5858 14.25 15 14.25 C15.4142 14.25 15.75 13.9142 15.75 13.5 L15.75 9 C15.75 8.58579 15.4142 8.25 15 8.25 L10.5 8.25 C10.0858 8.25 9.75 8.58579 9.75 9 Z" fill="#FFFFFF" />
</svg>