<svg xmlns="http://www.w3.org/2000/svg" width="24" height="24" viewBox="0 0 24 24" fill="none">
  <path fill-rule="nonzero" clip-rule="nonzero" d="M22 12 C22 17.5228 17.5228 22 12 22 C6.47715 22 2 17.5228 2 12 C2 6.47715 6.47715 2 12 2 C17.5228 2 22 6.47715 22 12 Z M8.46967 11.5303 C8.76256 11.8232 9.23744 11.8232 9.53033 11.5303 L11.25 9.81066 L11.25 16 C11.25 16.4142 11.5858 16.75 12 16.75 C12.4142 16.75 12.75 16.4142 12.75 16 L12.75 9.81066 L14.4697 11.5303 C14.7626 11.8232 15.2374 11.8232 15.5303 11.5303 C15.8232 11.2374 15.8232 10.7626 15.5303 10.4697 L12.5303 7.46967 C12.2374 7.17678 11.7626 7.17678 11.4697 7.46967 L8.46967 10.4697 C8.17678 10.7626 8.17678 11.2374 8.46967 11.5303 Z" fill="#FFFFFF" />
</svg>