<svg xmlns="http://www.w3.org/2000/svg" width="24" height="24" viewBox="0 0 24 24" fill="none">
  <path fill-rule="nonzero" clip-rule="nonzero" d="M 12 2.75 C 6.89137 2.75 2.75 6.89137 2.75 12 C 2.75 17.1086 6.89137 21.25 12 21.25 C 17.1086 21.25 21.25 17.1086 21.25 12 C 21.25 6.89137 17.1086 2.75 12 2.75 Z M 1.25 12 C 1.25 6.06294 6.06294 1.25 12 1.25 C 17.9371 1.25 22.75 6.06294 22.75 12 C 22.75 17.9371 17.9371 22.75 12 22.75 C 6.06294 22.75 1.25 17.9371 1.25 12 Z M 8.46967 7.96967 C 8.76256 7.67678 9.23744 7.67678 9.53033 7.96967 L 12 10.4393 L 14.4697 7.96967 C 14.7626 7.67678 15.2374 7.67678 15.5303 7.96967 C 15.8232 8.26256 15.8232 8.73744 15.5303 9.03033 L 12.5303 12.0303 C 12.2374 12.3232 11.7626 12.3232 11.4697 12.0303 L 8.46967 9.03033 C 8.17678 8.73744 8.17678 8.26256 8.46967 7.96967 Z M 8.46967 11.9697 C 8.76256 11.6768 9.23744 11.6768 9.53033 11.9697 L 12 14.4393 L 14.4697 11.9697 C 14.7626 11.6768 15.2374 11.6768 15.5303 11.9697 C 15.8232 12.2626 15.8232 12.7374 15.5303 13.0303 L 12.5303 16.0303 C 12.2374 16.3232 11.7626 16.3232 11.4697 16.0303 L 8.46967 13.0303 C 8.17678 12.7374 8.17678 12.2626 8.46967 11.9697 Z" fill="#FFFFFF" />
</svg>