<svg xmlns="http://www.w3.org/2000/svg" width="24" height="24" viewBox="0 0 24 24" fill="none">
  <path fill-rule="nonzero" clip-rule="nonzero" d="M 12 2.75 C 6.89137 2.75 2.75 6.89137 2.75 12 C 2.75 17.1086 6.89137 21.25 12 21.25 C 17.1086 21.25 21.25 17.1086 21.25 12 C 21.25 6.89137 17.1086 2.75 12 2.75 Z M 1.25 12 C 1.25 6.06294 6.06294 1.25 12 1.25 C 17.9371 1.25 22.75 6.06294 22.75 12 C 22.75 17.9371 17.9371 22.75 12 22.75 C 6.06294 22.75 1.25 17.9371 1.25 12 Z M 8.46967 8.46967 C 8.76256 8.17678 9.23744 8.17678 9.53033 8.46967 L 14.25 13.1893 V 10.5 C 14.25 10.0858 14.5858 9.75 15 9.75 C 15.4142 9.75 15.75 10.0858 15.75 10.5 V 15 C 15.75 15.4142 15.4142 15.75 15 15.75 H 10.5 C 10.0858 15.75 9.75 15.4142 9.75 15 C 9.75 14.5858 10.0858 14.25 10.5 14.25 H 13.1893 L 8.46967 9.53033 C 8.17678 9.23744 8.17678 8.76256 8.46967 8.46967 Z" fill="#FFFFFF" />
</svg>