<svg xmlns="http://www.w3.org/2000/svg" width="24" height="24" viewBox="0 0 24 24" fill="none">
  <path fill-rule="nonzero" clip-rule="nonzero" d="M 12 22 C 6.47715 22 2 17.5228 2 12 C 2 6.47715 6.47715 2 12 2 C 17.5228 2 22 6.47715 22 12 C 22 17.5228 17.5228 22 12 22 Z M 14.25 9 C 14.25 8.58579 13.9142 8.25 13.5 8.25 H 9 C 8.58579 8.25 8.25 8.58579 8.25 9 V 13.5 C 8.25 13.9142 8.58579 14.25 9 14.25 C 9.41421 14.25 9.75 13.9142 9.75 13.5 V 10.8107 L 14.4697 15.5303 C 14.7626 15.8232 15.2374 15.8232 15.5303 15.5303 C 15.8232 15.2374 15.8232 14.7626 15.5303 14.4697 L 10.8107 9.75 H 13.5 C 13.9142 9.75 14.25 9.41421 14.25 9 Z" fill="#FFFFFF" />
</svg>