<svg xmlns="http://www.w3.org/2000/svg" width="24" height="24" viewBox="0 0 24 24" fill="none">
  <path fill-rule="nonzero" clip-rule="nonzero" d="M 10.6634 3.47789 C 10.9518 3.77526 10.9445 4.25007 10.6471 4.53843 L 7.8508 7.25 H 18 C 18.4142 7.25 18.75 7.58579 18.75 8 C 18.75 8.41421 18.4142 8.75 18 8.75 H 7.8508 L 10.6471 11.4616 C 10.9445 11.7499 10.9518 12.2247 10.6634 12.5221 C 10.3751 12.8195 9.90026 12.8268 9.60289 12.5384 L 5.47789 8.53843 C 5.33222 8.39717 5.25 8.20291 5.25 8 C 5.25 7.79709 5.33222 7.60283 5.47789 7.46158 L 9.60289 3.46158 C 9.90026 3.17322 10.3751 3.18053 10.6634 3.47789 Z M 13.3366 11.4779 C 13.6249 11.1805 14.0997 11.1732 14.3971 11.4616 L 18.5221 15.4616 C 18.6678 15.6028 18.75 15.7971 18.75 16 C 18.75 16.2029 18.6678 16.3972 18.5221 16.5384 L 14.3971 20.5384 C 14.0997 20.8268 13.6249 20.8195 13.3366 20.5221 C 13.0482 20.2247 13.0555 19.7499 13.3529 19.4616 L 16.1492 16.75 L 6 16.75 C 5.58579 16.75 5.25 16.4142 5.25 16 C 5.25 15.5858 5.58579 15.25 6 15.25 L 16.1492 15.25 L 13.3529 12.5384 C 13.0555 12.2501 13.0482 11.7753 13.3366 11.4779 Z" fill="#FFFFFF" />
</svg>