<svg xmlns="http://www.w3.org/2000/svg" width="24" height="24" viewBox="0 0 24 24" fill="none">
  <path fill-rule="nonzero" clip-rule="nonzero" d="M 16 5.25 C 16.2029 5.25 16.3972 5.33222 16.5384 5.47789 L 20.5384 9.60289 C 20.8268 9.90026 20.8195 10.3751 20.5221 10.6634 C 20.2247 10.9518 19.7499 10.9445 19.4616 10.6471 L 16.75 7.8508 L 16.75 18 C 16.75 18.4142 16.4142 18.75 16 18.75 C 15.5858 18.75 15.25 18.4142 15.25 18 L 15.25 7.8508 L 12.5384 10.6471 C 12.2501 10.9445 11.7753 10.9518 11.4779 10.6634 C 11.1805 10.3751 11.1732 9.90026 11.4616 9.60289 L 15.4616 5.47789 C 15.6028 5.33222 15.7971 5.25 16 5.25 Z M 8 5.25 C 8.41421 5.25 8.75 5.58579 8.75 6 L 8.75 16.1492 L 11.4616 13.3529 C 11.7499 13.0555 12.2247 13.0482 12.5221 13.3366 C 12.8195 13.6249 12.8268 14.0997 12.5384 14.3971 L 8.53843 18.5221 C 8.39717 18.6678 8.20291 18.75 8 18.75 C 7.79709 18.75 7.60283 18.6678 7.46158 18.5221 L 3.46158 14.3971 C 3.17322 14.0997 3.18053 13.6249 3.47789 13.3366 C 3.77526 13.0482 4.25007 13.0555 4.53843 13.3529 L 7.25 16.1492 L 7.25 6 C 7.25 5.58579 7.58579 5.25 8 5.25 Z" fill="#FFFFFF" />
</svg>