<svg xmlns="http://www.w3.org/2000/svg" width="24" height="24" viewBox="0 0 24 24" fill="none">
  <path fill-rule="nonzero" clip-rule="nonzero" d="M 20.5355 3.46447 C 22 4.92893 22 7.28595 22 12 C 22 16.714 22 19.0711 20.5355 20.5355 C 19.0711 22 16.714 22 12 22 C 7.28595 22 4.92893 22 3.46447 20.5355 C 2 19.0711 2 16.714 2 12 C 2 7.28595 2 4.92893 3.46447 3.46447 C 4.92893 2 7.28595 2 12 2 C 16.714 2 19.0711 2 20.5355 3.46447 Z M 14.8284 15.5784 C 15.2426 15.5784 15.5784 15.2426 15.5784 14.8284 L 15.5784 10.5858 C 15.5784 10.1716 15.2426 9.83578 14.8284 9.83578 C 14.4142 9.83578 14.0784 10.1716 14.0784 10.5858 L 14.0784 13.0178 L 9.7019 8.64124 C 9.40901 8.34835 8.93413 8.34835 8.64124 8.64124 C 8.34835 8.93414 8.34835 9.40901 8.64124 9.7019 L 13.0178 14.0784 H 10.5858 C 10.1716 14.0784 9.83579 14.4142 9.83579 14.8284 C 9.83579 15.2426 10.1716 15.5784 10.5858 15.5784 L 14.8284 15.5784 Z" fill="#FFFFFF" />
</svg>