<svg xmlns="http://www.w3.org/2000/svg" width="24" height="24" viewBox="0 0 24 24" fill="none">
  <path fill-rule="nonzero" clip-rule="nonzero" d="M3.46447 20.5355 C2 19.0711 2 16.714 2 12 C2 7.28595 2 4.92893 3.46447 3.46447 C4.92893 2 7.28595 2 12 2 C16.714 2 19.0711 2 20.5355 3.46447 C22 4.92893 22 7.28595 22 12 C22 16.714 22 19.0711 20.5355 20.5355 C19.0711 22 16.714 22 12 22 C7.28595 22 4.92893 22 3.46447 20.5355 Z M9.96967 15.5303 C10.2626 15.8232 10.7374 15.8232 11.0303 15.5303 L14.0303 12.5303 C14.171 12.3897 14.25 12.1989 14.25 12 C14.25 11.8011 14.171 11.6103 14.0303 11.4697 L11.0303 8.46967 C10.7374 8.17678 10.2626 8.17678 9.96967 8.46967 C9.67678 8.76256 9.67678 9.23744 9.96967 9.53033 L12.4393 12 L9.96967 14.4697 C9.67678 14.7626 9.67678 15.2374 9.96967 15.5303 Z" fill="#FFFFFF" />
</svg>