<svg xmlns="http://www.w3.org/2000/svg" width="24" height="24" viewBox="0 0 24 24" fill="none">
  <path fill-rule="nonzero" clip-rule="nonzero" d="M 3.46447 20.5355 C 2 19.0711 2 16.714 2 12 C 2 7.28595 2 4.92893 3.46447 3.46447 C 4.92893 2 7.28595 2 12 2 C 16.714 2 19.0711 2 20.5355 3.46447 C 22 4.92893 22 7.28595 22 12 C 22 16.714 22 19.0711 20.5355 20.5355 C 19.0711 22 16.714 22 12 22 C 7.28595 22 4.92893 22 3.46447 20.5355 Z M 8.46967 14.0303 C 8.76256 14.3232 9.23744 14.3232 9.53033 14.0303 L 12 11.5607 L 14.4697 14.0303 C 14.7626 14.3232 15.2374 14.3232 15.5303 14.0303 C 15.8232 13.7374 15.8232 13.2626 15.5303 12.9697 L 12.5303 9.96967 C 12.3897 9.82902 12.1989 9.75 12 9.75 C 11.8011 9.75 11.6103 9.82902 11.4697 9.96967 L 8.46967 12.9697 C 8.17678 13.2626 8.17678 13.7374 8.46967 14.0303 Z" fill="#FFFFFF" />
</svg>