<svg xmlns="http://www.w3.org/2000/svg" width="24" height="24" viewBox="0 0 24 24" fill="none">
  <path fill-rule="nonzero" clip-rule="nonzero" d="M3.46447 3.46447 C4.92893 2 7.28595 2 12 2 C16.714 2 19.0711 2 20.5355 3.46447 C22 4.92893 22 7.28595 22 12 C22 16.714 22 19.0711 20.5355 20.5355 C19.0711 22 16.714 22 12 22 C7.28595 22 4.92893 22 3.46447 20.5355 C2 19.0711 2 16.714 2 12 C2 7.28595 2 4.92893 3.46447 3.46447 Z M12 7.25 C11.5858 7.25 11.25 7.58579 11.25 8 L11.25 14.1893 L9.53033 12.4697 C9.23744 12.1768 8.76256 12.1768 8.46967 12.4697 C8.17678 12.7626 8.17678 13.2374 8.46967 13.5303 L11.4697 16.5303 C11.6103 16.671 11.8011 16.75 12 16.75 C12.1989 16.75 12.3897 16.671 12.5303 16.5303 L15.5303 13.5303 C15.8232 13.2374 15.8232 12.7626 15.5303 12.4697 C15.2374 12.1768 14.7626 12.1768 14.4697 12.4697 L12.75 14.1893 L12.75 8 C12.75 7.58579 12.4142 7.25 12 7.25 Z" fill="#FFFFFF" />
</svg>