<svg xmlns="http://www.w3.org/2000/svg" width="24" height="24" viewBox="0 0 24 24" fill="none">
  <path fill-rule="nonzero" clip-rule="nonzero" d="M3.46447 20.5355 C2 19.0711 2 16.714 2 12 C2 7.28595 2 4.92893 3.46447 3.46447 C4.92893 2 7.28595 2 12 2 C16.714 2 19.0711 2 20.5355 3.46447 C22 4.92893 22 7.28595 22 12 C22 16.714 22 19.0711 20.5355 20.5355 C19.0711 22 16.714 22 12 22 C7.28595 22 4.92893 22 3.46447 20.5355 Z M7.25 12 C7.25 12.4142 7.58579 12.75 8 12.75 L14.1893 12.75 L12.4697 14.4697 C12.1768 14.7626 12.1768 15.2374 12.4697 15.5303 C12.7626 15.8232 13.2374 15.8232 13.5303 15.5303 L16.5303 12.5303 C16.671 12.3897 16.75 12.1989 16.75 12 C16.75 11.8011 16.671 11.6103 16.5303 11.4697 L13.5303 8.46967 C13.2374 8.17678 12.7626 8.17678 12.4697 8.46967 C12.1768 8.76256 12.1768 9.23744 12.4697 9.53033 L14.1893 11.25 L8 11.25 C7.58579 11.25 7.25 11.5858 7.25 12 Z" fill="#FFFFFF" />
</svg>