<svg xmlns="http://www.w3.org/2000/svg" width="24" height="24" viewBox="0 0 24 24" fill="none">
  <path fill-rule="nonzero" clip-rule="nonzero" d="M 2 12 C 2 7.28595 2 4.92893 3.46447 3.46447 C 4.92893 2 7.28595 2 12 2 C 16.714 2 19.0711 2 20.5355 3.46447 C 22 4.92893 22 7.28595 22 12 C 22 16.714 22 19.0711 20.5355 20.5355 C 19.0711 22 16.714 22 12 22 C 7.28595 22 4.92893 22 3.46447 20.5355 C 2 19.0711 2 16.714 2 12 Z M12.7455 12.555 L14.06 13.75 L8 13.75 C7.58579 13.75 7.25 14.0858 7.25 14.5 C7.25 14.9142 7.58579 15.25 8 15.25 L14.06 15.25 L12.7455 16.445 C12.439 16.7237 12.4164 17.198 12.695 17.5045 C12.9737 17.811 13.448 17.8336 13.7545 17.555 L16.5045 15.055 C16.6609 14.9128 16.75 14.7113 16.75 14.5 C16.75 14.2887 16.6609 14.0872 16.5045 13.945 L13.7545 11.445 C13.448 11.1664 12.9737 11.189 12.695 11.4955 C12.4164 11.802 12.439 12.2763 12.7455 12.555 Z M11.305 6.49549 C11.0263 6.189 10.552 6.16641 10.2455 6.44504 L7.4955 8.94504 C7.33914 9.08719 7.25 9.28869 7.25 9.5 C7.25 9.71131 7.33914 9.91281 7.4955 10.055 L10.2455 12.555 C10.552 12.8336 11.0263 12.811 11.305 12.5045 C11.5836 12.198 11.561 11.7237 11.2545 11.445 L9.93996 10.25 L16 10.25 C16.4142 10.25 16.75 9.91421 16.75 9.5 C16.75 9.08579 16.4142 8.75 16 8.75 L9.93996 8.75 L11.2545 7.55495 C11.561 7.27632 11.5836 6.80199 11.305 6.49549 Z" fill="#FFFFFF" />
</svg>