<svg xmlns="http://www.w3.org/2000/svg" width="24" height="24" viewBox="0 0 24 24" fill="none">
  <path fill-rule="nonzero" clip-rule="nonzero" d="M 11.9426 1.25 H 12.0574 C 14.3658 1.24999 16.1748 1.24998 17.5863 1.43975 C 19.031 1.63399 20.1711 2.03933 21.0659 2.93414 C 21.9607 3.82895 22.366 4.96897 22.5603 6.41371 C 22.75 7.82519 22.75 9.63423 22.75 11.9426 V 12.0574 C 22.75 14.3658 22.75 16.1748 22.5603 17.5863 C 22.366 19.031 21.9607 20.1711 21.0659 21.0659 C 20.1711 21.9607 19.031 22.366 17.5863 22.5603 C 16.1748 22.75 14.3658 22.75 12.0574 22.75 H 11.9426 C 9.63423 22.75 7.82519 22.75 6.41371 22.5603 C 4.96897 22.366 3.82895 21.9607 2.93414 21.0659 C 2.03933 20.1711 1.63399 19.031 1.43975 17.5863 C 1.24998 16.1748 1.24999 14.3658 1.25 12.0574 V 11.9426 C 1.24999 9.63423 1.24998 7.82519 1.43975 6.41371 C 1.63399 4.96897 2.03933 3.82895 2.93414 2.93414 C 3.82895 2.03933 4.96897 1.63399 6.41371 1.43975 C 7.82519 1.24998 9.63423 1.24999 11.9426 1.25 Z M 6.61358 2.92637 C 5.33517 3.09825 4.56445 3.42514 3.9948 3.9948 C 3.42514 4.56445 3.09825 5.33517 2.92637 6.61358 C 2.75159 7.91356 2.75 9.62177 2.75 12 C 2.75 14.3782 2.75159 16.0864 2.92637 17.3864 C 3.09825 18.6648 3.42514 19.4355 3.9948 20.0052 C 4.56445 20.5749 5.33517 20.9018 6.61358 21.0736 C 7.91356 21.2484 9.62177 21.25 12 21.25 C 14.3782 21.25 16.0864 21.2484 17.3864 21.0736 C 18.6648 20.9018 19.4355 20.5749 20.0052 20.0052 C 20.5749 19.4355 20.9018 18.6648 21.0736 17.3864 C 21.2484 16.0864 21.25 14.3782 21.25 12 C 21.25 9.62177 21.2484 7.91356 21.0736 6.61358 C 20.9018 5.33517 20.5749 4.56445 20.0052 3.9948 C 19.4355 3.42514 18.6648 3.09825 17.3864 2.92637 C 16.0864 2.75159 14.3782 2.75 12 2.75 C 9.62177 2.75 7.91356 2.75159 6.61358 2.92637 Z M 11.305 6.4955 C 11.5836 6.80199 11.561 7.27633 11.2545 7.55496 L 9.93996 8.75 H 16 C 16.4142 8.75 16.75 9.08579 16.75 9.5 C 16.75 9.91421 16.4142 10.25 16 10.25 H 9.93996 L 11.2545 11.445 C 11.561 11.7237 11.5836 12.198 11.305 12.5045 C 11.0263 12.811 10.552 12.8336 10.2455 12.555 L 7.4955 10.055 C 7.33914 9.91281 7.25 9.71131 7.25 9.5 C 7.25 9.28869 7.33914 9.08719 7.4955 8.94505 L 10.2455 6.44505 C 10.552 6.16642 11.0263 6.189 11.305 6.4955 Z M 12.695 11.4955 C 12.9737 11.189 13.448 11.1664 13.7545 11.445 L 16.5045 13.945 C 16.6609 14.0872 16.75 14.2887 16.75 14.5 C 16.75 14.7113 16.6609 14.9128 16.5045 15.055 L 13.7545 17.555 C 13.448 17.8336 12.9737 17.811 12.695 17.5045 C 12.4164 17.198 12.439 16.7237 12.7455 16.445 L 14.06 15.25 H 8 C 7.58579 15.25 7.25 14.9142 7.25 14.5 C 7.25 14.0858 7.58579 13.75 8 13.75 H 14.06 L 12.7455 12.555 C 12.439 12.2763 12.4164 11.802 12.695 11.4955 Z" fill="#FFFFFF" />
</svg>