<svg xmlns="http://www.w3.org/2000/svg" width="24" height="24" viewBox="0 0 24 24" fill="none">
  <path fill-rule="nonzero" clip-rule="nonzero" d="M 11.9426 1.25 H 12.0574 C 14.3658 1.24999 16.1748 1.24998 17.5863 1.43975 C 19.031 1.63399 20.1711 2.03933 21.0659 2.93414 C 21.9607 3.82895 22.366 4.96897 22.5603 6.41371 C 22.75 7.82519 22.75 9.63423 22.75 11.9426 V 12.0574 C 22.75 14.3658 22.75 16.1748 22.5603 17.5863 C 22.366 19.031 21.9607 20.1711 21.0659 21.0659 C 20.1711 21.9607 19.031 22.366 17.5863 22.5603 C 16.1748 22.75 14.3658 22.75 12.0574 22.75 H 11.9426 C 9.63423 22.75 7.82519 22.75 6.41371 22.5603 C 4.96897 22.366 3.82895 21.9607 2.93414 21.0659 C 2.03933 20.1711 1.63399 19.031 1.43975 17.5863 C 1.24998 16.1748 1.24999 14.3658 1.25 12.0574 V 11.9426 C 1.24999 9.63423 1.24998 7.82519 1.43975 6.41371 C 1.63399 4.96897 2.03933 3.82895 2.93414 2.93414 C 3.82895 2.03933 4.96897 1.63399 6.41371 1.43975 C 7.82519 1.24998 9.63423 1.24999 11.9426 1.25 Z M 6.61358 2.92637 C 5.33517 3.09825 4.56445 3.42514 3.9948 3.9948 C 3.42514 4.56445 3.09825 5.33517 2.92637 6.61358 C 2.75159 7.91356 2.75 9.62177 2.75 12 C 2.75 14.3782 2.75159 16.0864 2.92637 17.3864 C 3.09825 18.6648 3.42514 19.4355 3.9948 20.0052 C 4.56445 20.5749 5.33517 20.9018 6.61358 21.0736 C 7.91356 21.2484 9.62177 21.25 12 21.25 C 14.3782 21.25 16.0864 21.2484 17.3864 21.0736 C 18.6648 20.9018 19.4355 20.5749 20.0052 20.0052 C 20.5749 19.4355 20.9018 18.6648 21.0736 17.3864 C 21.2484 16.0864 21.25 14.3782 21.25 12 C 21.25 9.62177 21.2484 7.91356 21.0736 6.61358 C 20.9018 5.33517 20.5749 4.56445 20.0052 3.9948 C 19.4355 3.42514 18.6648 3.09825 17.3864 2.92637 C 16.0864 2.75159 14.3782 2.75 12 2.75 C 9.62177 2.75 7.91356 2.75159 6.61358 2.92637 Z M 14.5 7.25 C 14.7113 7.25 14.9128 7.33914 15.055 7.4955 L 17.555 10.2455 C 17.8336 10.552 17.811 11.0263 17.5045 11.305 C 17.198 11.5836 16.7237 11.561 16.445 11.2545 L 15.25 9.93995 L 15.25 16 C 15.25 16.4142 14.9142 16.75 14.5 16.75 C 14.0858 16.75 13.75 16.4142 13.75 16 L 13.75 9.93995 L 12.555 11.2545 C 12.2763 11.561 11.802 11.5836 11.4955 11.305 C 11.189 11.0263 11.1664 10.552 11.445 10.2455 L 13.945 7.4955 C 14.0872 7.33914 14.2887 7.25 14.5 7.25 Z M 9.5 7.25 C 9.91421 7.25 10.25 7.58579 10.25 8 L 10.25 14.06 L 11.445 12.7455 C 11.7237 12.439 12.198 12.4164 12.5045 12.695 C 12.811 12.9737 12.8336 13.448 12.555 13.7545 L 10.055 16.5045 C 9.91281 16.6609 9.71131 16.75 9.5 16.75 C 9.28869 16.75 9.08719 16.6609 8.94505 16.5045 L 6.44505 13.7545 C 6.16642 13.448 6.189 12.9737 6.4955 12.695 C 6.80199 12.4164 7.27633 12.439 7.55496 12.7455 L 8.75 14.06 L 8.75 8 C 8.75 7.58579 9.08579 7.25 9.5 7.25 Z" fill="#FFFFFF" />
</svg>