<svg xmlns="http://www.w3.org/2000/svg" width="24" height="24" viewBox="0 0 24 24" fill="none">
  <path fill-rule="nonzero" clip-rule="nonzero" d="M 12 22 C 7.28595 22 4.92893 22 3.46447 20.5355 C 2 19.0711 2 16.714 2 12 C 2 7.28595 2 4.92893 3.46447 3.46447 C 4.92893 2 7.28595 2 12 2 C 16.714 2 19.0711 2 20.5355 3.46447 C 22 4.92893 22 7.28595 22 12 C 22 16.714 22 19.0711 20.5355 20.5355 C 19.0711 22 16.714 22 12 22 Z M 8.46967 7.96967 C 8.17678 8.26256 8.17678 8.73744 8.46967 9.03033 L 11.4697 12.0303 C 11.7626 12.3232 12.2374 12.3232 12.5303 12.0303 L 15.5303 9.03033 C 15.8232 8.73744 15.8232 8.26256 15.5303 7.96967 C 15.2374 7.67678 14.7626 7.67678 14.4697 7.96967 L 12 10.4393 L 9.53033 7.96967 C 9.23744 7.67678 8.76256 7.67678 8.46967 7.96967 Z M 8.46967 11.9697 C 8.17678 12.2626 8.17678 12.7374 8.46967 13.0303 L 11.4697 16.0303 C 11.7626 16.3232 12.2374 16.3232 12.5303 16.0303 L 15.5303 13.0303 C 15.8232 12.7374 15.8232 12.2626 15.5303 11.9697 C 15.2374 11.6768 14.7626 11.6768 14.4697 11.9697 L 12 14.4393 L 9.53033 11.9697 C 9.23744 11.6768 8.76256 11.6768 8.46967 11.9697 Z" fill="#FFFFFF" />
</svg>