<svg xmlns="http://www.w3.org/2000/svg" width="24" height="24" viewBox="0 0 24 24" fill="none">
  <path fill-rule="nonzero" clip-rule="nonzero" d="M 2 12 C 2 7.28595 2 4.92893 3.46447 3.46447 C 4.92893 2 7.28595 2 12 2 C 16.714 2 19.0711 2 20.5355 3.46447 C 22 4.92893 22 7.28595 22 12 C 22 16.714 22 19.0711 20.5355 20.5355 C 19.0711 22 16.714 22 12 22 C 7.28595 22 4.92893 22 3.46447 20.5355 C 2 19.0711 2 16.714 2 12 Z M 7.55495 12.7455 C 7.27632 12.439 6.80199 12.4164 6.49549 12.695 C 6.189 12.9737 6.16641 13.448 6.44504 13.7545 L 8.94504 16.5045 C 9.08719 16.6609 9.28869 16.75 9.5 16.75 C 9.71131 16.75 9.91281 16.6609 10.055 16.5045 L 12.555 13.7545 C 12.8336 13.448 12.811 12.9737 12.5045 12.695 C 12.198 12.4164 11.7237 12.439 11.445 12.7455 L 10.25 14.06 V 8 C 10.25 7.58579 9.91421 7.25 9.5 7.25 C 9.08579 7.25 8.75 7.58579 8.75 8 V 14.06 L 7.55495 12.7455 Z M 11.4955 11.305 C 11.802 11.5836 12.2763 11.561 12.555 11.2545 L 13.75 9.93995 L 13.75 16 C 13.75 16.4142 14.0858 16.75 14.5 16.75 C 14.9142 16.75 15.25 16.4142 15.25 16 L 15.25 9.93995 L 16.445 11.2545 C 16.7237 11.561 17.198 11.5836 17.5045 11.305 C 17.811 11.0263 17.8336 10.552 17.555 10.2455 L 15.055 7.49549 C 14.9128 7.33914 14.7113 7.25 14.5 7.25 C 14.2887 7.25 14.0872 7.33914 13.945 7.49549 L 11.445 10.2455 C 11.1664 10.552 11.189 11.0263 11.4955 11.305 Z" fill="#FFFFFF" />
</svg>