<svg xmlns="http://www.w3.org/2000/svg" width="24" height="24" viewBox="0 0 24 24" fill="none">
  <path fill-rule="nonzero" clip-rule="nonzero" d="M20.5355 3.46447 C22 4.92893 22 7.28595 22 12 C22 16.714 22 19.0711 20.5355 20.5355 C19.0711 22 16.714 22 12 22 C7.28595 22 4.92893 22 3.46447 20.5355 C2 19.0711 2 16.714 2 12 C2 7.28595 2 4.92893 3.46447 3.46447 C4.92893 2 7.28595 2 12 2 C16.714 2 19.0711 2 20.5355 3.46447 Z M14.0303 8.46967 C13.7374 8.17678 13.2626 8.17678 12.9697 8.46967 L9.96967 11.4697 C9.82902 11.6103 9.75 11.8011 9.75 12 C9.75 12.1989 9.82902 12.3897 9.96967 12.5303 L12.9697 15.5303 C13.2626 15.8232 13.7374 15.8232 14.0303 15.5303 C14.3232 15.2374 14.3232 14.7626 14.0303 14.4697 L11.5607 12 L14.0303 9.53033 C14.3232 9.23744 14.3232 8.76256 14.0303 8.46967 Z" fill="#FFFFFF" />
</svg>