<svg xmlns="http://www.w3.org/2000/svg" width="24" height="24" viewBox="0 0 24 24" fill="none">
  <path fill-rule="nonzero" clip-rule="nonzero" d="M3.46447 3.46447 C4.92893 2 7.28595 2 12 2 C16.714 2 19.0711 2 20.5355 3.46447 C22 4.92893 22 7.28595 22 12 C22 16.714 22 19.0711 20.5355 20.5355 C19.0711 22 16.714 22 12 22 C7.28595 22 4.92893 22 3.46447 20.5355 C2 19.0711 2 16.714 2 12 C2 7.28595 2 4.92893 3.46447 3.46447 Z M9.17157 15.5784 L13.4142 15.5784 C13.8284 15.5784 14.1642 15.2426 14.1642 14.8284 C14.1642 14.4142 13.8284 14.0784 13.4142 14.0784 L10.9822 14.0784 L15.3588 9.7019 C15.6517 9.40901 15.6517 8.93414 15.3588 8.64124 C15.0659 8.34835 14.591 8.34835 14.2981 8.64124 L9.92157 13.0178 L9.92157 10.5858 C9.92157 10.1716 9.58579 9.83578 9.17157 9.83578 C8.75736 9.83578 8.42157 10.1716 8.42157 10.5858 L8.42157 14.8284 C8.42157 15.2426 8.75736 15.5784 9.17157 15.5784 Z" fill="#FFFFFF" />
</svg>