<svg xmlns="http://www.w3.org/2000/svg" width="24" height="24" viewBox="0 0 24 24" fill="none">
  <path fill-rule="nonzero" clip-rule="nonzero" d="M3.46447 3.46447 C4.92893 2 7.28595 2 12 2 C16.714 2 19.0711 2 20.5355 3.46447 C22 4.92893 22 7.28595 22 12 C22 16.714 22 19.0711 20.5355 20.5355 C19.0711 22 16.714 22 12 22 C7.28595 22 4.92893 22 3.46447 20.5355 C2 19.0711 2 16.714 2 12 C2 7.28595 2 4.92893 3.46447 3.46447 Z M8.46967 9.96967 C8.17678 10.2626 8.17678 10.7374 8.46967 11.0303 L11.4697 14.0303 C11.6103 14.171 11.8011 14.25 12 14.25 C12.1989 14.25 12.3897 14.171 12.5303 14.0303 L15.5303 11.0303 C15.8232 10.7374 15.8232 10.2626 15.5303 9.96967 C15.2374 9.67678 14.7626 9.67678 14.4697 9.96967 L12 12.4393 L9.53033 9.96967 C9.23744 9.67678 8.76256 9.67678 8.46967 9.96967 Z" fill="#FFFFFF" />
</svg>