<svg xmlns="http://www.w3.org/2000/svg" width="24" height="24" viewBox="0 0 24 24" fill="none">
  <path fill-rule="nonzero" clip-rule="nonzero" d="M 11.9426 1.25 H 12.0574 C 14.3658 1.24999 16.1748 1.24998 17.5863 1.43975 C 19.031 1.63399 20.1711 2.03933 21.0659 2.93414 C 21.9607 3.82895 22.366 4.96897 22.5603 6.41371 C 22.75 7.82519 22.75 9.63423 22.75 11.9426 V 12.0574 C 22.75 14.3658 22.75 16.1748 22.5603 17.5863 C 22.366 19.031 21.9607 20.1711 21.0659 21.0659 C 20.1711 21.9607 19.031 22.366 17.5863 22.5603 C 16.1748 22.75 14.3658 22.75 12.0574 22.75 H 11.9426 C 9.63423 22.75 7.82519 22.75 6.41371 22.5603 C 4.96897 22.366 3.82895 21.9607 2.93414 21.0659 C 2.03933 20.1711 1.63399 19.031 1.43975 17.5863 C 1.24998 16.1748 1.24999 14.3658 1.25 12.0574 V 11.9426 C 1.24999 9.63423 1.24998 7.82519 1.43975 6.41371 C 1.63399 4.96897 2.03933 3.82895 2.93414 2.93414 C 3.82895 2.03933 4.96897 1.63399 6.41371 1.43975 C 7.82519 1.24998 9.63423 1.24999 11.9426 1.25 Z M 6.61358 2.92637 C 5.33517 3.09825 4.56445 3.42514 3.9948 3.9948 C 3.42514 4.56445 3.09825 5.33517 2.92637 6.61358 C 2.75159 7.91356 2.75 9.62177 2.75 12 C 2.75 14.3782 2.75159 16.0864 2.92637 17.3864 C 3.09825 18.6648 3.42514 19.4355 3.9948 20.0052 C 4.56445 20.5749 5.33517 20.9018 6.61358 21.0736 C 7.91356 21.2484 9.62177 21.25 12 21.25 C 14.3782 21.25 16.0864 21.2484 17.3864 21.0736 C 18.6648 20.9018 19.4355 20.5749 20.0052 20.0052 C 20.5749 19.4355 20.9018 18.6648 21.0736 17.3864 C 21.2484 16.0864 21.25 14.3782 21.25 12 C 21.25 9.62177 21.2484 7.91356 21.0736 6.61358 C 20.9018 5.33517 20.5749 4.56445 20.0052 3.9948 C 19.4355 3.42514 18.6648 3.09825 17.3864 2.92637 C 16.0864 2.75159 14.3782 2.75 12 2.75 C 9.62177 2.75 7.91356 2.75159 6.61358 2.92637 Z M 12.0303 8.46967 C 12.3232 8.76256 12.3232 9.23744 12.0303 9.53033 L 9.56066 12 L 12.0303 14.4697 C 12.3232 14.7626 12.3232 15.2374 12.0303 15.5303 C 11.7374 15.8232 11.2626 15.8232 10.9697 15.5303 L 7.96967 12.5303 C 7.67678 12.2374 7.67678 11.7626 7.96967 11.4697 L 10.9697 8.46967 C 11.2626 8.17678 11.7374 8.17678 12.0303 8.46967 Z M 16.0303 8.46967 C 16.3232 8.76256 16.3232 9.23744 16.0303 9.53033 L 13.5607 12 L 16.0303 14.4697 C 16.3232 14.7626 16.3232 15.2374 16.0303 15.5303 C 15.7374 15.8232 15.2626 15.8232 14.9697 15.5303 L 11.9697 12.5303 C 11.6768 12.2374 11.6768 11.7626 11.9697 11.4697 L 14.9697 8.46967 C 15.2626 8.17678 15.7374 8.17678 16.0303 8.46967 Z" fill="#FFFFFF" />
</svg>