<svg xmlns="http://www.w3.org/2000/svg" width="24" height="24" viewBox="0 0 24 24" fill="none">
  <path fill-rule="nonzero" clip-rule="nonzero" d="M 3.46447 20.5355 C 2 19.0711 2 16.714 2 12 C 2 7.28595 2 4.92893 3.46447 3.46447 C 4.92893 2 7.28595 2 12 2 C 16.714 2 19.0711 2 20.5355 3.46447 C 22 4.92893 22 7.28595 22 12 C 22 16.714 22 19.0711 20.5355 20.5355 C 19.0711 22 16.714 22 12 22 C 7.28595 22 4.92893 22 3.46447 20.5355 Z M 12 16.75 C 12.4142 16.75 12.75 16.4142 12.75 16 V 9.81066 L 14.4697 11.5303 C 14.7626 11.8232 15.2374 11.8232 15.5303 11.5303 C 15.8232 11.2374 15.8232 10.7626 15.5303 10.4697 L 12.5303 7.46967 C 12.3897 7.32902 12.1989 7.25 12 7.25 C 11.8011 7.25 11.6103 7.32902 11.4697 7.46967 L 8.46967 10.4697 C 8.17678 10.7626 8.17678 11.2374 8.46967 11.5303 C 8.76256 11.8232 9.23744 11.8232 9.53033 11.5303 L 11.25 9.81066 V 16 C 11.25 16.4142 11.5858 16.75 12 16.75 Z" fill="#FFFFFF" />
</svg>