<svg xmlns="http://www.w3.org/2000/svg" width="24" height="24" viewBox="0 0 24 24" fill="none">
  <path fill-rule="nonzero" clip-rule="nonzero" d="M20.5355 20.5355 C19.0711 22 16.714 22 12 22 C7.28595 22 4.92893 22 3.46447 20.5355 C2 19.0711 2 16.714 2 12 C2 7.28595 2 4.92893 3.46447 3.46447 C4.92893 2 7.28595 2 12 2 C16.714 2 19.0711 2 20.5355 3.46447 C22 4.92893 22 7.28595 22 12 C22 16.714 22 19.0711 20.5355 20.5355 Z M14.8284 8.42157 L10.5858 8.42157 C10.1716 8.42157 9.83579 8.75736 9.83579 9.17157 C9.83579 9.58579 10.1716 9.92157 10.5858 9.92157 L13.0178 9.92157 L8.64124 14.2981 C8.34835 14.591 8.34835 15.0659 8.64124 15.3588 C8.93413 15.6517 9.40901 15.6517 9.7019 15.3588 L14.0784 10.9822 L14.0784 13.4142 C14.0784 13.8284 14.4142 14.1642 14.8284 14.1642 C15.2426 14.1642 15.5784 13.8284 15.5784 13.4142 L15.5784 9.17157 C15.5784 8.75736 15.2426 8.42157 14.8284 8.42157 Z" fill="#FFFFFF" />
</svg>