<svg xmlns="http://www.w3.org/2000/svg" width="24" height="24" viewBox="0 0 24 24" fill="none">
  <path fill-rule="nonzero" clip-rule="nonzero" d="M 3.46447 20.5355 C 2 19.0711 2 16.714 2 12 C 2 7.28595 2 4.92893 3.46447 3.46447 C 4.92893 2 7.28595 2 12 2 C 16.714 2 19.0711 2 20.5355 3.46447 C 22 4.92893 22 7.28595 22 12 C 22 16.714 22 19.0711 20.5355 20.5355 C 19.0711 22 16.714 22 12 22 C 7.28595 22 4.92893 22 3.46447 20.5355 Z M 9.17157 8.42157 C 8.75736 8.42157 8.42157 8.75736 8.42157 9.17157 L 8.42157 13.4142 C 8.42157 13.8284 8.75736 14.1642 9.17157 14.1642 C 9.58579 14.1642 9.92157 13.8284 9.92157 13.4142 L 9.92157 10.9822 L 14.2981 15.3588 C 14.591 15.6517 15.0659 15.6517 15.3588 15.3588 C 15.6517 15.0659 15.6517 14.591 15.3588 14.2981 L 10.9822 9.92157 H 13.4142 C 13.8284 9.92157 14.1642 9.58579 14.1642 9.17157 C 14.1642 8.75736 13.8284 8.42157 13.4142 8.42157 L 9.17157 8.42157 Z" fill="#FFFFFF" />
</svg>