<svg xmlns="http://www.w3.org/2000/svg" width="24" height="24" viewBox="0 0 24 24" fill="none">
  <path fill-rule="nonzero" clip-rule="nonzero" d="M3.46447 20.5355 C2 19.0711 2 16.714 2 12 C2 7.28595 2 4.92893 3.46447 3.46447 C4.92893 2 7.28595 2 12 2 C16.714 2 19.0711 2 20.5355 3.46447 C22 4.92893 22 7.28595 22 12 C22 16.714 22 19.0711 20.5355 20.5355 C19.0711 22 16.714 22 12 22 C7.28595 22 4.92893 22 3.46447 20.5355 Z M 8.46967 10.9697 C 8.17678 11.2626 8.17678 11.7374 8.46967 12.0303 C 8.76256 12.3232 9.23744 12.3232 9.53033 12.0303 L 12 9.56066 L 14.4697 12.0303 C 14.7626 12.3232 15.2374 12.3232 15.5303 12.0303 C 15.8232 11.7374 15.8232 11.2626 15.5303 10.9697 L 12.5303 7.96967 C 12.2374 7.67678 11.7626 7.67678 11.4697 7.96967 L 8.46967 10.9697 Z M8.46967 16.0303 C8.76256 16.3232 9.23744 16.3232 9.53033 16.0303 L12 13.5607 L14.4697 16.0303 C14.7626 16.3232 15.2374 16.3232 15.5303 16.0303 C15.8232 15.7374 15.8232 15.2626 15.5303 14.9697 L12.5303 11.9697 C12.2374 11.6768 11.7626 11.6768 11.4697 11.9697 L8.46967 14.9697 C8.17678 15.2626 8.17678 15.7374 8.46967 16.0303 Z" fill="#FFFFFF" />
</svg>