<svg xmlns="http://www.w3.org/2000/svg" width="24" height="24" viewBox="0 0 24 24" fill="none">
  <path fill-rule="nonzero" clip-rule="nonzero" d="M3.46447 20.5355 C2 19.0711 2 16.714 2 12 C2 7.28595 2 4.92893 3.46447 3.46447 C4.92893 2 7.28595 2 12 2 C16.714 2 19.0711 2 20.5355 3.46447 C22 4.92893 22 7.28595 22 12 C22 16.714 22 19.0711 20.5355 20.5355 C19.0711 22 16.714 22 12 22 C7.28595 22 4.92893 22 3.46447 20.5355 Z M 7.56507 13.0693 C 7.29271 12.7573 6.81893 12.7251 6.50685 12.9974 C 6.19477 13.2698 6.16257 13.7436 6.43493 14.0557 L 9.43493 17.4932 C 9.6405 17.7287 9.97062 17.812 10.2633 17.7022 C 10.5561 17.5925 10.75 17.3126 10.75 17 V 7 C 10.75 6.58579 10.4142 6.25 10 6.25 C 9.58579 6.25 9.25 6.58579 9.25 7 V 15 L 7.56507 13.0693 Z M 13.7367 6.29775 C 13.4439 6.40753 13.25 6.68737 13.25 7 L 13.25 17 C 13.25 17.4142 13.5858 17.75 14 17.75 C 14.4142 17.75 14.75 17.4142 14.75 17 L 14.75 9 L 16.4349 10.9306 C 16.7073 11.2427 17.1811 11.2749 17.4931 11.0026 C 17.8052 10.7302 17.8374 10.2564 17.5651 9.94435 L 14.5651 6.50685 C 14.3595 6.2713 14.0294 6.18798 13.7367 6.29775 Z" fill="#FFFFFF" />
</svg>