<svg xmlns="http://www.w3.org/2000/svg" width="24" height="24" viewBox="0 0 24 24" fill="none">
  <path fill-rule="nonzero" clip-rule="nonzero" d="M 13.698 3.3135 C 13.9703 3.19374 14.2875 3.24617 14.5068 3.44715 L 20.5068 8.94715 C 20.8121 9.22704 20.8328 9.70147 20.5529 10.0068 C 20.273 10.3121 19.7985 10.3328 19.4932 10.0529 L 14.75 5.70494 L 14.75 20 C 14.75 20.4142 14.4142 20.75 14 20.75 C 13.5858 20.75 13.25 20.4142 13.25 20 L 13.25 4.00002 C 13.25 3.70259 13.4258 3.43327 13.698 3.3135 Z M 10 3.25002 C 10.4142 3.25002 10.75 3.5858 10.75 4.00002 L 10.75 20 C 10.75 20.2974 10.5743 20.5668 10.302 20.6865 C 10.0298 20.8063 9.71246 20.7539 9.49321 20.5529 L 3.49321 15.0529 C 3.18787 14.773 3.16724 14.2986 3.44714 13.9932 C 3.72703 13.6879 4.20146 13.6673 4.5068 13.9471 L 9.25001 18.2951 L 9.25 4.00002 C 9.25 3.5858 9.58579 3.25002 10 3.25002 Z" fill="#FFFFFF" />
</svg>