<svg xmlns="http://www.w3.org/2000/svg" width="24" height="24" viewBox="0 0 24 24" fill="none">
  <path fill-rule="nonzero" clip-rule="nonzero" d="M 11.9627 1.25 H 12.0373 C 13.1272 1.24999 13.9973 1.24999 14.6973 1.31505 C 15.4163 1.38189 16.0299 1.52229 16.5822 1.84933 C 17.2442 2.24135 17.7916 2.80379 18.1713 3.47825 C 18.4866 4.03833 18.6221 4.66002 18.6868 5.39256 C 18.75 6.10791 18.75 6.99812 18.75 8.11816 V 8.49849 C 19.0975 8.33917 19.4836 8.25 19.8948 8.25 C 21.5165 8.25 22.75 9.63751 22.75 11.2456 V 15.8571 C 22.75 15.8924 22.75 15.9272 22.75 15.9616 C 22.7502 16.924 22.7503 17.5289 22.6394 18.047 C 22.3 19.6331 21.2115 20.9345 19.75 21.4787 V 22 C 19.75 22.4142 19.4142 22.75 19 22.75 C 18.5858 22.75 18.25 22.4142 18.25 22 V 21.7416 C 17.9717 21.7502 17.6569 21.7501 17.2898 21.75 C 17.2532 21.75 17.2162 21.75 17.1786 21.75 H 6.82145 C 6.78387 21.75 6.74682 21.75 6.71029 21.75 C 5.82825 21.7502 5.24814 21.7503 4.75002 21.6313 V 22 C 4.75002 22.4142 4.41423 22.75 4.00002 22.75 C 3.58581 22.75 3.25002 22.4142 3.25002 22 V 21 C 3.25002 20.9837 3.25054 20.9675 3.25157 20.9514 C 2.30161 20.2819 1.61716 19.2458 1.36064 18.047 C 1.24979 17.5289 1.24987 16.924 1.25001 15.9616 C 1.25001 15.9272 1.25002 15.8924 1.25002 15.8571 V 11.2456 C 1.25002 9.63751 2.4835 8.25 4.10528 8.25 C 4.5164 8.25 4.90257 8.33917 5.25002 8.49849 V 8.11813 C 5.25001 6.99811 5.25001 6.1079 5.31322 5.39256 C 5.37795 4.66002 5.51348 4.03833 5.82876 3.47825 C 6.20843 2.80379 6.75585 2.24135 7.41788 1.84933 C 7.97018 1.52229 8.58371 1.38189 9.30272 1.31505 C 10.0027 1.24999 10.8728 1.24999 11.9627 1.25 Z M 6.70123 10 C 6.86835 10.3828 6.96055 10.806 6.96055 11.2456 V 15.5833 H 17.0395 V 11.2456 C 17.0395 10.806 17.1317 10.3828 17.2988 10 H 17.25 V 8.15385 C 17.25 6.99009 17.2493 6.16617 17.1926 5.5246 C 17.1368 4.89264 17.0312 4.51078 16.8641 4.21406 C 16.6119 3.76591 16.2504 3.39613 15.8179 3.14002 C 15.5348 2.97239 15.1699 2.86545 14.5585 2.80862 C 13.9361 2.75076 13.1357 2.75 12 2.75 C 10.8643 2.75 10.064 2.75076 9.44155 2.80862 C 8.83017 2.86545 8.46525 2.97239 8.18216 3.14002 C 7.74965 3.39613 7.38816 3.76592 7.13589 4.21406 C 6.96886 4.51078 6.86324 4.89264 6.8074 5.5246 C 6.7507 6.16617 6.75002 6.99009 6.75002 8.15385 V 10 H 6.70123 Z M 4.10528 9.75 C 3.40165 9.75 2.75002 10.3733 2.75002 11.2456 V 15.8571 C 2.75002 16.9583 2.75421 17.3909 2.82744 17.7332 C 3.09231 18.971 3.98894 19.9022 5.09298 20.171 C 5.39548 20.2446 5.78173 20.25 6.82145 20.25 H 17.1786 C 18.2183 20.25 18.6046 20.2446 18.9071 20.171 C 20.0111 19.9022 20.9077 18.971 21.1726 17.7332 C 21.2458 17.3909 21.25 16.9583 21.25 15.8571 V 11.2456 C 21.25 10.3733 20.5984 9.75 19.8948 9.75 C 19.1911 9.75 18.5395 10.3733 18.5395 11.2456 V 16.3333 C 18.5395 16.7475 18.2037 17.0833 17.7895 17.0833 H 6.21055 C 5.79633 17.0833 5.46055 16.7475 5.46055 16.3333 V 11.2456 C 5.46055 10.3733 4.80891 9.75 4.10528 9.75 Z" fill="#FFFFFF" />
</svg>