<svg xmlns="http://www.w3.org/2000/svg" width="24" height="24" viewBox="0 0 24 24" fill="none">
  <path fill-rule="nonzero" clip-rule="nonzero" d="M 14.9364 2.99461 C 12.9931 2.66846 11.0072 2.66846 9.06394 2.99461 L 8.66638 3.06134 C 6.80909 3.37306 5.5529 5.04814 5.77596 6.84512 L 5.79399 6.99034 C 5.81085 7.12617 5.93477 7.25 6.10736 7.25 H 8.98422 C 8.99433 7.24979 9.00448 7.24979 9.01465 7.25 H 14.9857 C 14.9959 7.24979 15.006 7.24979 15.0161 7.25 H 17.893 C 18.0656 7.25 18.1895 7.12616 18.2064 6.99034 L 18.2244 6.84512 L 18.9687 6.93751 L 18.2244 6.84512 C 18.4474 5.04814 17.1913 3.37306 15.334 3.06134 L 14.9364 2.99461 Z M15.9279 8.75 L17.599 16.5484 C17.6939 16.674 17.7502 16.8304 17.7502 17 C17.7502 17.0574 17.7437 17.1132 17.7315 17.1669 L18.7335 21.8429 C18.8203 22.2479 18.5623 22.6466 18.1573 22.7334 C17.7523 22.8201 17.3536 22.5622 17.2668 22.1571 L16.3224 17.75 L7.67791 17.75 L6.73352 22.1571 C6.64673 22.5622 6.24804 22.8201 5.84303 22.7334 C5.43801 22.6466 5.18003 22.2479 5.26682 21.8429 L6.26881 17.1669 C6.25661 17.1132 6.25017 17.0574 6.25017 17 C6.25017 16.8304 6.30645 16.674 6.40136 16.5484 L8.07243 8.75 L6.10736 8.75 C5.20252 8.75 4.41853 8.08644 4.30541 7.17512 L4.28739 7.0299 C3.96205 4.40901 5.79509 2.02226 8.4181 1.58203 L8.81566 1.5153 C10.9233 1.16157 13.077 1.16157 15.1847 1.5153 L15.5822 1.58203 C18.2053 2.02226 20.0383 4.409 19.713 7.0299 L19.6949 7.17511 L18.9506 7.08273 L19.6949 7.17512 C19.5818 8.08644 18.7978 8.75 17.893 8.75 L15.9279 8.75 Z M 14.3939 8.75 H 9.60648 L 7.99934 16.25 H 16.001 L 14.3939 8.75 Z" fill="#FFFFFF" />
</svg>