<svg xmlns="http://www.w3.org/2000/svg" width="24" height="24" viewBox="0 0 24 24" fill="none">
  <path fill-rule="nonzero" clip-rule="nonzero" d="M8.75467 2.30839 L9.12781 2.24442 C11.0289 1.91853 12.9715 1.91853 14.8726 2.24442 L15.2457 2.30839 C17.3483 2.66883 18.798 4.6158 18.5406 6.73344 L18.5237 6.87265 C18.4627 7.37459 18.0367 7.75201 17.531 7.75201 L15.7672 7.75201 L18.7335 21.5947 C18.8203 21.9997 18.5623 22.3984 18.1573 22.4852 C17.7523 22.572 17.3536 22.314 17.2668 21.909 L16.3224 17.5019 L7.6779 17.5019 L6.73351 21.909 C6.64672 22.314 6.24803 22.572 5.84301 22.4852 C5.43799 22.3984 5.18001 21.9997 5.2668 21.5947 L8.2331 7.75201 L6.46936 7.75201 C5.96373 7.75201 5.53766 7.37459 5.47666 6.87265 L5.45974 6.73344 C5.20239 4.6158 6.65212 2.66883 8.75467 2.30839 Z M 14.25 7.75201 H 9.75031 C 9.75025 7.80379 9.74479 7.85635 9.73351 7.90901 L 7.99932 16.0019 H 16.001 L 14.2668 7.90901 C 14.2555 7.85635 14.2501 7.80379 14.25 7.75201 Z" fill="#FFFFFF" />
</svg>