<svg xmlns="http://www.w3.org/2000/svg" width="24" height="24" viewBox="0 0 24 24" fill="none">
  <path fill-rule="nonzero" clip-rule="nonzero" d="M 5.38517 2.75 C 4.48209 2.75 3.75 3.48209 3.75 4.38516 V 11.25 H 4.03429 C 4.04516 11.25 4.05599 11.25 4.06675 11.25 C 4.07208 11.25 4.07739 11.25 4.08268 11.25 L 19.9332 11.25 C 19.944 11.25 19.9548 11.25 19.9657 11.25 H 22 C 22.4142 11.25 22.75 11.5858 22.75 12 C 22.75 12.4142 22.4142 12.75 22 12.75 H 21.7321 C 21.7386 12.7949 21.7433 12.8405 21.7463 12.8864 C 21.7501 12.9442 21.75 13.0066 21.75 13.0668 L 21.75 13.1047 C 21.75 13.4799 21.75 13.6998 21.7344 13.9452 C 21.5925 16.1815 20.384 18.2467 18.6326 19.597 C 18.6463 19.6186 18.6591 19.6412 18.6708 19.6646 L 19.6708 21.6646 C 19.8561 22.0351 19.7059 22.4856 19.3354 22.6708 C 18.9649 22.8561 18.5144 22.7059 18.3292 22.3354 L 17.3615 20.4 C 16.5597 20.8059 15.6878 21.073 14.7809 21.1648 C 14.5364 21.1896 14.3872 21.1952 14.133 21.2047 L 14.1263 21.205 C 13.3861 21.2328 12.6615 21.25 12 21.25 C 11.3385 21.25 10.6139 21.2328 9.87368 21.205 L 9.86699 21.2047 C 9.61278 21.1952 9.46358 21.1896 9.2191 21.1648 C 8.31222 21.073 7.44028 20.8059 6.63851 20.4 L 5.67082 22.3354 C 5.48558 22.7059 5.03507 22.8561 4.66459 22.6708 C 4.29411 22.4856 4.14394 22.0351 4.32918 21.6646 L 5.32918 19.6646 C 5.34089 19.6412 5.35366 19.6186 5.3674 19.597 C 3.61596 18.2467 2.4075 16.1815 2.26556 13.9452 C 2.24999 13.6998 2.24999 13.4798 2.25 13.1046 L 2.25 13.0827 C 2.25 13.0774 2.25 13.0721 2.24999 13.0668 C 2.24999 13.0483 2.24998 13.0296 2.25008 13.0108 C 2.25003 13.0072 2.25 13.0036 2.25 13 V 12.75 H 2 C 1.58579 12.75 1.25 12.4142 1.25 12 C 1.25 11.5858 1.58579 11.25 2 11.25 H 2.25 V 4.38516 C 2.25 2.65366 3.65366 1.25 5.38517 1.25 C 6.66715 1.25 7.81998 2.0305 8.29609 3.22079 L 8.40623 3.49613 C 9.19952 3.29489 10.0603 3.34152 10.8717 3.68813 C 11.887 4.12189 12.6258 4.94029 13.0041 5.90053 C 13.1526 6.27744 12.975 6.70417 12.6029 6.86436 L 6.64215 9.43044 C 6.45572 9.51069 6.24473 9.51197 6.05735 9.43396 C 5.86997 9.35596 5.72221 9.20535 5.6478 9.01651 C 5.26959 8.05665 5.24692 6.94515 5.66723 5.91014 C 5.96643 5.17335 6.45214 4.56929 7.04665 4.13607 L 6.90338 3.77788 C 6.65506 3.15708 6.05379 2.75 5.38517 2.75 Z M 4.08268 12.75 C 4.04261 12.75 4.01877 12.75 4.00076 12.7502 C 3.98765 12.7504 3.98298 12.7506 3.98281 12.7506 C 3.98215 12.7506 3.98276 12.7506 3.98281 12.7506 C 3.85775 12.7587 3.75904 12.8581 3.75057 12.9831 C 3.75052 12.9843 3.75035 12.9893 3.75022 13.0008 C 3.75001 13.0188 3.75 13.0426 3.75 13.0827 C 3.75 13.4853 3.75031 13.6573 3.76255 13.8501 C 3.94798 16.7718 6.45762 19.3775 9.37024 19.6725 C 9.5652 19.6922 9.67311 19.6964 9.92999 19.7061 C 10.658 19.7334 11.3629 19.75 12 19.75 C 12.6371 19.75 13.342 19.7334 14.07 19.7061 C 14.3269 19.6964 14.4348 19.6922 14.6298 19.6725 C 17.5424 19.3775 20.052 16.7718 20.2375 13.8501 C 20.2497 13.6573 20.25 13.4853 20.25 13.0827 C 20.25 13.0426 20.25 13.0188 20.2498 13.0008 C 20.2497 12.9906 20.2495 12.9855 20.2495 12.9837 C 20.2494 12.9825 20.2494 12.9824 20.2495 12.9837 C 20.2413 12.8584 20.1415 12.7587 20.0162 12.7505 C 20.0174 12.7506 20.0177 12.7506 20.0162 12.7505 C 20.0142 12.7505 20.009 12.7503 19.9992 12.7502 C 19.9812 12.75 19.9574 12.75 19.9173 12.75 H 4.08268 Z M 10.2824 5.06753 C 9.62506 4.78672 8.91452 4.82579 8.30713 5.12147 C 7.76827 5.3838 7.31118 5.8486 7.05701 6.47451 C 6.89349 6.87716 6.83436 7.29656 6.86648 7.70078 L 11.2476 5.81471 C 10.9982 5.49339 10.6713 5.2337 10.2824 5.06753 Z" fill="#FFFFFF" />
</svg>