<svg xmlns="http://www.w3.org/2000/svg" width="24" height="24" viewBox="0 0 24 24" fill="none">
  <path d="M11.25 10.5V7.25H9.50003C8.53602 7.25 7.88846 7.2516 7.40542 7.31654C6.94396 7.37858 6.74646 7.4858 6.61615 7.61612C6.48583 7.74644 6.37861 7.94393 6.31656 8.40539C6.25162 8.88843 6.25003 9.53599 6.25003 10.5L11.25 10.5Z" fill="#FFFFFF" />
  <path d="M17.75 10.5C17.75 9.53599 17.7484 8.88843 17.6835 8.40539C17.6215 7.94393 17.5142 7.74644 17.3839 7.61612C17.2536 7.4858 17.0561 7.37858 16.5946 7.31654C16.1116 7.2516 15.464 7.25 14.5 7.25H12.75V10.5L17.75 10.5Z" fill="#FFFFFF" />
  <path fill-rule="nonzero" clip-rule="nonzero" d="M13 4 C16.7713 4 18.6569 4 19.8285 5.17157 C20.8509 6.19404 20.9811 7.76038 20.9976 10.6494 L20.9976 12.2666 C21.3779 12.4854 21.678 12.8248 21.8478 13.2346 C22 13.6022 22 14.0681 22 15 C22 15.9319 22 16.3978 21.8478 16.7654 C21.6448 17.2554 21.2554 17.6448 20.7654 17.8478 C20.513 17.9523 20.2142 17.9851 19.75 17.9953 L19.75 20 C19.75 20.4142 19.4142 20.75 19 20.75 C18.5858 20.75 18.25 20.4142 18.25 20 L18.25 18 L5.75 18 L5.75 20 C5.75 20.4142 5.41421 20.75 5 20.75 C4.58579 20.75 4.25 20.4142 4.25 20 L4.25 17.9953 C3.78581 17.9851 3.48702 17.9523 3.23463 17.8478 C2.74458 17.6448 2.35523 17.2554 2.15224 16.7654 C2 16.3978 2 15.9319 2 15 C2 14.0681 2 13.6022 2.15224 13.2346 C2.322 12.8248 2.6221 12.4854 3.00244 12.2665 L3.00244 10.6494 C3.019 7.76038 3.14913 6.19404 4.1716 5.17157 C5.34317 4 7.22879 4 11 4 L13 4 Z M 19.25 12.0001 V 10.448 C 19.2501 9.54955 19.2501 8.80028 19.1701 8.20552 C 19.0857 7.57773 18.9 7.01093 18.4446 6.55546 C 17.9891 6.09999 17.4223 5.91432 16.7945 5.82991 C 16.1997 5.74995 15.4505 5.74997 14.552 5.75 H 9.44803 C 8.54955 5.74997 7.80033 5.74995 7.20555 5.82991 C 6.57776 5.91432 6.01095 6.09999 5.55549 6.55546 C 5.10002 7.01093 4.91434 7.57773 4.82994 8.20552 C 4.74997 8.8003 4.75 9.54952 4.75003 10.448 V 12.0001 C 4.82946 12 4.91269 12 5 12 H 19 C 19.0873 12 19.1706 12 19.25 12.0001 Z" fill="#FFFFFF" />
</svg>