<svg xmlns="http://www.w3.org/2000/svg" width="24" height="24" viewBox="0 0 24 24" fill="none">
  <path fill-rule="evenodd" clip-rule="evenodd" d="M21.9743 7.25H2.02572C2.09185 5.22882 2.32803 4.01511 3.17157 3.17157C4.34315 2 6.22876 2 10 2H14C17.7712 2 19.6569 2 20.8284 3.17157C21.672 4.01511 21.9082 5.22882 21.9743 7.25Z" fill="#FFFFFF" />
  <path fill-rule="evenodd" clip-rule="evenodd" d="M2 10C2 9.55807 2 9.14203 2.00189 8.75H21.9981C22 9.14203 22 9.55807 22 10V12C22 12.4419 22 12.858 21.9981 13.25H2.00189C2 12.858 2 12.4419 2 12V10Z" fill="#FFFFFF" />
  <path fill-rule="nonzero" clip-rule="nonzero" d="M21.9743 14.75 C21.9082 16.7712 21.672 17.9849 20.8284 18.8284 C20.524 19.1328 20.1714 19.3582 19.75 19.5249 L19.75 22 C19.75 22.4142 19.4142 22.75 19 22.75 C18.5858 22.75 18.25 22.4142 18.25 22 L18.25 19.8713 C17.1801 20 15.8064 20 14 20 L10 20 C8.19364 20 6.81989 20 5.75 19.8713 L5.75 22 C5.75 22.4142 5.41421 22.75 5 22.75 C4.58579 22.75 4.25 22.4142 4.25 22 L4.25 19.5249 C3.82861 19.3582 3.47599 19.1328 3.17157 18.8284 C2.32803 17.9849 2.09185 16.7712 2.02572 14.75 L21.9743 14.75 Z M13 17 C13 16.4477 12.5523 16 12 16 C11.4477 16 11 16.4477 11 17 C11 17.5523 11.4477 18 12 18 C12.5523 18 13 17.5523 13 17 Z" fill="#FFFFFF" />
</svg>