<svg xmlns="http://www.w3.org/2000/svg" width="24" height="24" viewBox="0 0 24 24" fill="none">
  <path fill-rule="nonzero" clip-rule="nonzero" d="M 2 9.75 C 2 9.30807 2 8.89203 2.00189 8.5 H 11.25 V 19.75 L 10 19.75 C 8.19364 19.75 6.81989 19.75 5.75 19.6213 V 21.75 C 5.75 22.1642 5.41421 22.5 5 22.5 C 4.58579 22.5 4.25 22.1642 4.25 21.75 V 19.2749 C 3.82861 19.1082 3.47599 18.8828 3.17157 18.5784 C 2 17.4069 2 15.5212 2 11.75 V 9.75 Z M9 11 C8.58579 11 8.25 11.3358 8.25 11.75 L8.25 14.75 C8.25 15.1642 8.58579 15.5 9 15.5 C9.41421 15.5 9.75 15.1642 9.75 14.75 L9.75 11.75 C9.75 11.3358 9.41421 11 9 11 Z" fill="#FFFFFF" />
  <path d="M21.9743 7H2.02572C2.09185 4.97882 2.32803 3.76511 3.17157 2.92157C4.34315 1.75 6.22876 1.75 10 1.75H14C17.7712 1.75 19.6569 1.75 20.8284 2.92157C21.672 3.76511 21.9082 4.97882 21.9743 7Z" fill="#FFFFFF" />
  <path fill-rule="nonzero" clip-rule="nonzero" d="M 12.75 8.5 H 21.9981 C 22 8.89203 22 9.30807 22 9.75 V 11.75 C 22 15.5212 22 17.4069 20.8284 18.5784 C 20.524 18.8828 20.1714 19.1082 19.75 19.2749 V 21.75 C 19.75 22.1642 19.4142 22.5 19 22.5 C 18.5858 22.5 18.25 22.1642 18.25 21.75 V 19.6213 C 17.1801 19.75 15.8064 19.75 14 19.75 L 12.75 19.75 V 8.5 Z M15 11 C14.5858 11 14.25 11.3358 14.25 11.75 L14.25 14.75 C14.25 15.1642 14.5858 15.5 15 15.5 C15.4142 15.5 15.75 15.1642 15.75 14.75 L15.75 11.75 C15.75 11.3358 15.4142 11 15 11 Z" fill="#FFFFFF" />
</svg>