<svg xmlns="http://www.w3.org/2000/svg" width="24" height="24" viewBox="0 0 24 24" fill="none">
  <path fill-rule="nonzero" clip-rule="nonzero" d="M 3.17174 18.8284 C 2.32819 17.9849 2.09201 16.7712 2.02588 14.75 L 2 14 H 21.9744 V 14.75 C 21.9083 16.7712 21.6721 17.9849 20.8286 18.8284 C 20.5242 19.1328 20.1715 19.3582 19.7502 19.5249 V 22 C 19.7502 22.4142 19.4144 22.75 19.0002 22.75 C 18.5859 22.75 18.2502 22.4142 18.2502 22 V 19.8713 C 17.1803 20 15.8065 20 14.0002 20 H 10.0002 C 8.1938 20 6.82005 20 5.75016 19.8713 V 22 C 5.75016 22.4142 5.41438 22.75 5.00016 22.75 C 4.58595 22.75 4.25016 22.4142 4.25016 22 V 19.5249 C 3.82878 19.3582 3.47615 19.1328 3.17174 18.8284 Z M13.0002 17 C13.0002 16.4477 12.5524 16 12.0002 16 C11.4479 16 11.0002 16.4477 11.0002 17 C11.0002 17.5523 11.4479 18 12.0002 18 C12.5524 18 13.0002 17.5523 13.0002 17 Z" fill="#FFFFFF" />
  <path d="M3.17174 3.17157C2.32819 4.01511 2.09201 5.22882 2.02588 7.25L2 8H22L21.9744 7.25C21.9083 5.22882 21.6721 4.01511 20.8286 3.17157C19.657 2 17.7714 2 14.0002 2H10.0002C6.22893 2 4.34331 2 3.17174 3.17157Z" fill="#FFFFFF" />
  <path opacity="0.5" fill-rule="evenodd" clip-rule="evenodd" d="M2 10C2 9.55807 2.00189 8.39203 2.00377 8H22C22.0019 8.39203 22 9.55807 22 10V12C22 12.4419 22 13.608 21.9981 14H2.00189C2 13.608 2 12.4419 2 12V10Z" fill="#FFFFFF" />
</svg>