<svg xmlns="http://www.w3.org/2000/svg" width="24" height="24" viewBox="0 0 24 24" fill="none">
  <path fill-rule="nonzero" clip-rule="nonzero" d="M 9.94358 1.25 H 14.0564 C 15.8942 1.24998 17.3498 1.24997 18.489 1.40314 C 19.6614 1.56076 20.6104 1.89288 21.3588 2.64124 C 22.1071 3.38961 22.4392 4.33856 22.5969 5.51098 C 22.75 6.65019 22.75 8.10583 22.75 9.94359 V 12.0564 C 22.75 13.8942 22.75 15.3498 22.5969 16.489 C 22.4392 17.6614 22.1071 18.6104 21.3588 19.3588 C 20.8948 19.8227 20.3538 20.1267 19.7302 20.3282 C 19.7432 20.3834 19.75 20.4409 19.75 20.5 V 22 C 19.75 22.4142 19.4142 22.75 19 22.75 C 18.5858 22.75 18.25 22.4142 18.25 22 V 20.6263 C 17.1482 20.75 15.7681 20.75 14.0564 20.75 H 9.94359 C 8.23194 20.75 6.85177 20.75 5.75 20.6263 V 22 C 5.75 22.4142 5.41421 22.75 5 22.75 C 4.58579 22.75 4.25 22.4142 4.25 22 V 20.5 C 4.25 20.4409 4.25684 20.3834 4.26976 20.3282 C 3.6462 20.1267 3.10518 19.8227 2.64124 19.3588 C 1.89288 18.6104 1.56076 17.6614 1.40314 16.489 C 1.24997 15.3498 1.24998 13.8942 1.25 12.0564 V 9.94358 C 1.24998 8.10582 1.24997 6.65019 1.40314 5.51098 C 1.56076 4.33856 1.89288 3.38961 2.64124 2.64124 C 3.38961 1.89288 4.33856 1.56076 5.51098 1.40314 C 6.65019 1.24997 8.10582 1.24998 9.94358 1.25 Z M 2.75 11.75 V 12 C 2.75 13.9068 2.75159 15.2615 2.88976 16.2892 C 3.02502 17.2952 3.27869 17.8749 3.7019 18.2981 C 4.12511 18.7213 4.70476 18.975 5.71085 19.1102 C 6.73851 19.2484 8.09318 19.25 10 19.25 H 14 C 15.9068 19.25 17.2615 19.2484 18.2892 19.1102 C 19.2952 18.975 19.8749 18.7213 20.2981 18.2981 C 20.7213 17.8749 20.975 17.2952 21.1102 16.2892 C 21.2484 15.2615 21.25 13.9068 21.25 12 V 11.75 H 2.75 Z M21.25 10.25 L21.25 10 C21.25 8.09318 21.2484 6.73851 21.1102 5.71085 C20.975 4.70476 20.7213 4.12511 20.2981 3.7019 C19.8749 3.27869 19.2952 3.02502 18.2892 2.88976 C17.2615 2.75159 15.9068 2.75 14 2.75 L10 2.75 C8.09318 2.75 6.73851 2.75159 5.71085 2.88976 C4.70476 3.02502 4.12511 3.27869 3.7019 3.7019 C3.27869 4.12511 3.02502 4.70476 2.88976 5.71085 C2.75159 6.73851 2.75 8.09318 2.75 10 L2.75 10.25 L21.25 10.25 Z M 8.25 6.5 C 8.25 6.08579 8.58579 5.75 9 5.75 H 15 C 15.4142 5.75 15.75 6.08579 15.75 6.5 C 15.75 6.91421 15.4142 7.25 15 7.25 H 9 C 8.58579 7.25 8.25 6.91421 8.25 6.5 Z M 8.25 15.5 C 8.25 15.0858 8.58579 14.75 9 14.75 H 15 C 15.4142 14.75 15.75 15.0858 15.75 15.5 C 15.75 15.9142 15.4142 16.25 15 16.25 H 9 C 8.58579 16.25 8.25 15.9142 8.25 15.5 Z" fill="#FFFFFF" />
</svg>