<svg xmlns="http://www.w3.org/2000/svg" width="24" height="24" viewBox="0 0 24 24" fill="none">
  <path fill-rule="nonzero" clip-rule="nonzero" d="M 2 10 C 2 6.22876 2 4.34315 3.17157 3.17157 C 4.34315 2 6.22876 2 10 2 H 14 C 17.7712 2 19.6569 2 20.8284 3.17157 C 22 4.34315 22 6.22876 22 10 V 10.25 H 2 V 10 Z M8.25 6.5 C8.25 6.91421 8.58579 7.25 9 7.25 L15 7.25 C15.4142 7.25 15.75 6.91421 15.75 6.5 C15.75 6.08579 15.4142 5.75 15 5.75 L9 5.75 C8.58579 5.75 8.25 6.08579 8.25 6.5 Z" fill="#FFFFFF" />
  <path fill-rule="nonzero" clip-rule="nonzero" d="M 2 11.75 H 22 V 12 C 22 15.7712 22 17.6569 20.8284 18.8284 C 20.524 19.1328 20.1714 19.3582 19.75 19.5249 V 22 C 19.75 22.4142 19.4142 22.75 19 22.75 C 18.5858 22.75 18.25 22.4142 18.25 22 V 19.8713 C 17.1801 20 15.8064 20 14 20 H 10 C 8.19364 20 6.81989 20 5.75 19.8713 V 22 C 5.75 22.4142 5.41421 22.75 5 22.75 C 4.58579 22.75 4.25 22.4142 4.25 22 V 19.5249 C 3.82861 19.3582 3.47599 19.1328 3.17157 18.8284 C 2 17.6569 2 15.7712 2 12 V 11.75 Z M8.25 15.5 C8.25 15.9142 8.58579 16.25 9 16.25 L15 16.25 C15.4142 16.25 15.75 15.9142 15.75 15.5 C15.75 15.0858 15.4142 14.75 15 14.75 L9 14.75 C8.58579 14.75 8.25 15.0858 8.25 15.5 Z" fill="#FFFFFF" />
</svg>