<svg xmlns="http://www.w3.org/2000/svg" width="24" height="24" viewBox="0 0 24 24" fill="none">
  <path opacity="0.5" fill-rule="evenodd" clip-rule="evenodd" d="M2 10C2 9.55807 2.00189 8.39203 2.00377 8H22C22.0019 8.39203 22 9.55807 22 10V12C22 12.4419 22 13.608 21.9981 14H2.00189C2 13.608 2 12.4419 2 12V10Z" fill="#FFFFFF" />
  <path d="M13 11C13 11.5523 12.5523 12 12 12C11.4477 12 11 11.5523 11 11C11 10.4477 11.4477 10 12 10C12.5523 10 13 10.4477 13 11Z" fill="#FFFFFF" />
  <path fill-rule="nonzero" clip-rule="nonzero" d="M 2.02588 7.25 C 2.09201 5.22882 2.32819 4.01511 3.17174 3.17157 C 4.34331 2 6.22893 2 10.0002 2 H 14.0002 C 17.7714 2 19.657 2 20.8286 3.17157 C 21.6721 4.01511 21.9083 5.22882 21.9744 7.25 L 22 8 H 2 L 2.02588 7.25 Z M 12 6 C 12.5523 6 13 5.55228 13 5 C 13 4.44771 12.5523 4 12 4 C 11.4477 4 11 4.44771 11 5 C 11 5.55228 11.4477 6 12 6 Z" fill="#FFFFFF" />
  <path fill-rule="nonzero" clip-rule="nonzero" d="M2.02588 14.75 L2 14 L21.9744 14 L21.9744 14.75 C21.9083 16.7712 21.6721 17.9849 20.8286 18.8284 C20.5242 19.1328 20.1715 19.3582 19.7502 19.5249 L19.7502 22 C19.7502 22.4142 19.4144 22.75 19.0002 22.75 C18.5859 22.75 18.2502 22.4142 18.2502 22 L18.2502 19.8713 C17.1803 20 15.8065 20 14.0002 20 L10.0002 20 C8.1938 20 6.82005 20 5.75016 19.8713 L5.75016 22 C5.75016 22.4142 5.41438 22.75 5.00016 22.75 C4.58595 22.75 4.25016 22.4142 4.25016 22 L4.25016 19.5249 C3.82878 19.3582 3.47615 19.1328 3.17174 18.8284 C2.32819 17.9849 2.09201 16.7712 2.02588 14.75 Z M 12.0002 18 C 12.5524 18 13.0002 17.5523 13.0002 17 C 13.0002 16.4477 12.5524 16 12.0002 16 C 11.4479 16 11.0002 16.4477 11.0002 17 C 11.0002 17.5523 11.4479 18 12.0002 18 Z" fill="#FFFFFF" />
</svg>