<svg xmlns="http://www.w3.org/2000/svg" width="24" height="24" viewBox="0 0 24 24" fill="none">
  <path fill-rule="nonzero" clip-rule="nonzero" d="M 8.25 4 C 8.25 3.58579 8.58579 3.25 9 3.25 H 15 C 15.4142 3.25 15.75 3.58579 15.75 4 C 15.75 4.41421 15.4142 4.75 15 4.75 H 12.75 V 16.5 C 12.75 18.0188 13.9812 19.25 15.5 19.25 C 16.9604 19.25 18.1549 18.1117 18.2446 16.6739 C 16.5356 16.3243 15.25 14.8123 15.25 13 V 11.2 C 15.25 10.123 16.123 9.25 17.2 9.25 H 20.8 C 21.877 9.25 22.75 10.123 22.75 11.2 V 13 C 22.75 14.8155 21.4599 16.3296 19.7464 16.6757 C 19.6543 18.9414 17.7884 20.75 15.5 20.75 C 14.0484 20.75 12.7667 20.0222 12 18.9116 C 11.2333 20.0222 9.95165 20.75 8.5 20.75 C 6.21165 20.75 4.34571 18.9414 4.25357 16.6757 C 2.54011 16.3296 1.25 14.8155 1.25 13 V 10.8571 C 1.25 9.96954 1.96954 9.25 2.85714 9.25 H 7.14286 C 8.03046 9.25 8.75 9.96954 8.75 10.8571 V 13 C 8.75 14.8123 7.46439 16.3243 5.75541 16.6739 C 5.84512 18.1117 7.03962 19.25 8.5 19.25 C 10.0188 19.25 11.25 18.0188 11.25 16.5 V 4.75 H 9 C 8.58579 4.75 8.25 4.41421 8.25 4 Z M 2.85714 10.75 C 2.79797 10.75 2.75 10.798 2.75 10.8571 V 13 C 2.75 14.2426 3.75736 15.25 5 15.25 C 6.24264 15.25 7.25 14.2426 7.25 13 V 10.8571 C 7.25 10.798 7.20203 10.75 7.14286 10.75 H 2.85714 Z M 17.2 10.75 C 16.9515 10.75 16.75 10.9515 16.75 11.2 V 13 C 16.75 14.2426 17.7574 15.25 19 15.25 C 20.2426 15.25 21.25 14.2426 21.25 13 V 11.2 C 21.25 10.9515 21.0485 10.75 20.8 10.75 H 17.2 Z" fill="#FFFFFF" />
</svg>