<svg xmlns="http://www.w3.org/2000/svg" width="24" height="24" viewBox="0 0 24 24" fill="none">
  <path fill-rule="nonzero" clip-rule="nonzero" d="M 9.94358 1.25 H 14.0564 C 15.8942 1.24998 17.3498 1.24997 18.489 1.40314 C 19.6614 1.56076 20.6104 1.89288 21.3588 2.64124 C 22.1071 3.38961 22.4392 4.33856 22.5969 5.51098 C 22.75 6.65019 22.75 8.10583 22.75 9.94359 V 13.0564 C 22.75 13.7182 22.75 14.3304 22.7429 14.8961 C 22.7476 14.9301 22.75 14.9648 22.75 15 C 22.75 15.0428 22.7464 15.0848 22.7395 15.1257 C 22.7244 16.0329 22.6873 16.8162 22.5969 17.489 C 22.4392 18.6614 22.1071 19.6104 21.3588 20.3588 C 20.8948 20.8227 20.3538 21.1267 19.7302 21.3282 C 19.7432 21.3834 19.75 21.4409 19.75 21.5 V 22 C 19.75 22.4142 19.4142 22.75 19 22.75 C 18.5858 22.75 18.25 22.4142 18.25 22 V 21.6263 C 17.1482 21.75 15.7681 21.75 14.0564 21.75 H 9.94359 C 8.23194 21.75 6.85177 21.75 5.75 21.6263 V 22 C 5.75 22.4142 5.41421 22.75 5 22.75 C 4.58579 22.75 4.25 22.4142 4.25 22 V 21.5 C 4.25 21.4409 4.25684 21.3834 4.26976 21.3282 C 3.6462 21.1267 3.10518 20.8227 2.64124 20.3588 C 1.89288 19.6104 1.56076 18.6614 1.40314 17.489 C 1.31267 16.8162 1.27564 16.0329 1.26049 15.1257 C 1.25359 15.0848 1.25 15.0428 1.25 15 C 1.25 14.9648 1.25243 14.9301 1.25714 14.8961 C 1.24999 14.3304 1.24999 13.7182 1.25 13.0564 V 9.94358 C 1.24999 9.28182 1.24999 8.66961 1.25714 8.10388 C 1.25243 8.06993 1.25 8.03525 1.25 8 C 1.25 7.95716 1.25359 7.91517 1.26049 7.87429 C 1.27564 6.96711 1.31267 6.18385 1.40314 5.51098 C 1.56076 4.33856 1.89288 3.38961 2.64124 2.64124 C 3.38961 1.89288 4.33856 1.56076 5.51098 1.40314 C 6.65019 1.24997 8.10582 1.24998 9.94358 1.25 Z M 2.75199 8.75 C 2.75009 9.13839 2.75 9.5541 2.75 10 V 13 C 2.75 13.4459 2.75009 13.8616 2.75199 14.25 H 11.25 V 8.75 H 2.75199 Z M11.25 7.25 L11.25 2.75 L10 2.75 C8.09318 2.75 6.73851 2.75159 5.71085 2.88976 C4.70476 3.02502 4.12511 3.27869 3.7019 3.7019 C3.27869 4.12511 3.02502 4.70476 2.88976 5.71085 C2.82987 6.15634 2.79564 6.66327 2.77607 7.25 L11.25 7.25 Z M 12.75 14.25 H 21.248 C 21.2499 13.8616 21.25 13.4459 21.25 13 V 10 C 21.25 8.09318 21.2484 6.73851 21.1102 5.71085 C 20.975 4.70476 20.7213 4.12511 20.2981 3.7019 C 19.8749 3.27869 19.2952 3.02502 18.2892 2.88976 C 17.2615 2.75159 15.9068 2.75 14 2.75 H 12.75 V 14.25 Z M 21.2239 15.75 H 12.75 V 20.25 H 14 C 15.9068 20.25 17.2615 20.2484 18.2892 20.1102 C 19.2952 19.975 19.8749 19.7213 20.2981 19.2981 C 20.7213 18.8749 20.975 18.2952 21.1102 17.2892 C 21.1701 16.8437 21.2044 16.3367 21.2239 15.75 Z M 11.25 20.25 V 15.75 H 2.77607 C 2.79564 16.3367 2.82987 16.8437 2.88976 17.2892 C 3.02502 18.2952 3.27869 18.8749 3.7019 19.2981 C 4.12511 19.7213 4.70476 19.975 5.71085 20.1102 C 6.73851 20.2484 8.09318 20.25 10 20.25 H 11.25 Z M 15 7.25 C 15.4142 7.25 15.75 7.58579 15.75 8 V 10 C 15.75 10.4142 15.4142 10.75 15 10.75 C 14.5858 10.75 14.25 10.4142 14.25 10 V 8 C 14.25 7.58579 14.5858 7.25 15 7.25 Z M 6.25 18 C 6.25 17.5858 6.58579 17.25 7 17.25 H 9 C 9.41421 17.25 9.75 17.5858 9.75 18 C 9.75 18.4142 9.41421 18.75 9 18.75 H 7 C 6.58579 18.75 6.25 18.4142 6.25 18 Z M 14.25 18 C 14.25 17.5858 14.5858 17.25 15 17.25 H 17 C 17.4142 17.25 17.75 17.5858 17.75 18 C 17.75 18.4142 17.4142 18.75 17 18.75 H 15 C 14.5858 18.75 14.25 18.4142 14.25 18 Z" fill="#FFFFFF" />
</svg>