<svg xmlns="http://www.w3.org/2000/svg" width="24" height="24" viewBox="0 0 24 24" fill="none">
  <path fill-rule="nonzero" clip-rule="nonzero" d="M2.02539 15.75 L12 15.75 L12.7497 15.75 L12.7497 2 L13.9997 2 C17.7709 2 19.6565 2 20.8281 3.17157 C21.9997 4.34315 21.9997 6.22876 21.9997 10 L21.9997 13 C21.9997 13.4419 21.9758 15.358 21.974 15.75 L21.9647 16 C21.887 17.8723 21.6363 19.0203 20.8281 19.8284 C20.5237 20.1328 20.1711 20.3582 19.7497 20.5249 L19.7497 22 C19.7497 22.4142 19.4139 22.75 18.9997 22.75 C18.5855 22.75 18.2497 22.4142 18.2497 22 L18.2497 20.8713 C17.1798 21 15.806 21 13.9997 21 L12 21 L9.99967 21 C8.19331 21 6.81956 21 5.74967 20.8713 L5.74967 22 C5.74967 22.4142 5.41389 22.75 4.99967 22.75 C4.58546 22.75 4.24967 22.4142 4.24967 22 L4.24967 20.5249 C3.82829 20.3582 3.47566 20.1328 3.17125 19.8284 C2.32771 18.9849 2.09152 17.7712 2.02539 15.75 Z M6.24967 18 C6.24967 18.4142 6.58546 18.75 6.99967 18.75 L8.99967 18.75 C9.41389 18.75 9.74967 18.4142 9.74967 18 C9.74967 17.5858 9.41389 17.25 8.99967 17.25 L6.99967 17.25 C6.58546 17.25 6.24967 17.5858 6.24967 18 Z M 14.9997 17.25 C 14.5855 17.25 14.2497 17.5858 14.2497 18 C 14.2497 18.4142 14.5855 18.75 14.9997 18.75 H 16.9997 C 17.4139 18.75 17.7497 18.4142 17.7497 18 C 17.7497 17.5858 17.4139 17.25 16.9997 17.25 H 14.9997 Z M14.9997 7.25 C14.5855 7.25 14.2497 7.58579 14.2497 8 L14.2497 10 C14.2497 10.4142 14.5855 10.75 14.9997 10.75 C15.4139 10.75 15.7497 10.4142 15.7497 10 L15.7497 8 C15.7497 7.58579 15.4139 7.25 14.9997 7.25 Z" fill="#FFFFFF" />
  <g opacity="0.5">
    <path d="M10 2H11.25V7.25H2.02572C2.09185 5.22882 2.32803 4.01511 3.17157 3.17157C4.34315 2 6.22876 2 10 2Z" fill="#FFFFFF" />
    <path d="M2.00189 8.75C2 9.14203 2 9.55807 2 10V13C2 13.4419 2.02351 15.358 2.02539 15.75H11.25V8.75H2.00189Z" fill="#FFFFFF" />
  </g>
</svg>