<svg xmlns="http://www.w3.org/2000/svg" width="24" height="24" viewBox="0 0 24 24" fill="none">
  <path d="M11.25 2H10C6.22876 2 4.34315 2 3.17157 3.17157C2.32803 4.01511 2.09185 5.22882 2.02572 7.25H11.25V2Z" fill="#FFFFFF" />
  <path d="M2.00189 8.75C2 9.14203 2 9.55807 2 10V13C2 13.4419 2 13.858 2.00189 14.25H11.25V8.75H2.00189Z" fill="#FFFFFF" />
  <path fill-rule="nonzero" clip-rule="nonzero" d="M 3.17157 19.8284 C 2.32803 18.9849 2.09185 17.7712 2.02572 15.75 H 11.25 V 21 H 10 C 8.19364 21 6.81989 21 5.75 20.8713 V 22 C 5.75 22.4142 5.41421 22.75 5 22.75 C 4.58579 22.75 4.25 22.4142 4.25 22 V 20.5249 C 3.82861 20.3582 3.47599 20.1328 3.17157 19.8284 Z M6.25 18 C6.25 18.4142 6.58579 18.75 7 18.75 L9 18.75 C9.41421 18.75 9.75 18.4142 9.75 18 C9.75 17.5858 9.41421 17.25 9 17.25 L7 17.25 C6.58579 17.25 6.25 17.5858 6.25 18 Z" fill="#FFFFFF" />
  <path fill-rule="nonzero" clip-rule="nonzero" d="M12.75 21 L12.75 15.75 L21.9743 15.75 C21.9082 17.7712 21.672 18.9849 20.8284 19.8284 C20.524 20.1328 20.1714 20.3582 19.75 20.5249 L19.75 22 C19.75 22.4142 19.4142 22.75 19 22.75 C18.5858 22.75 18.25 22.4142 18.25 22 L18.25 20.8713 C17.1801 21 15.8064 21 14 21 L12.75 21 Z M 15 17.25 C 14.5858 17.25 14.25 17.5858 14.25 18 C 14.25 18.4142 14.5858 18.75 15 18.75 H 17 C 17.4142 18.75 17.75 18.4142 17.75 18 C 17.75 17.5858 17.4142 17.25 17 17.25 H 15 Z" fill="#FFFFFF" />
  <path fill-rule="nonzero" clip-rule="nonzero" d="M 22 13 C 22 13.4419 22 13.858 21.9981 14.25 H 12.75 V 2 H 14 C 17.7712 2 19.6569 2 20.8284 3.17157 C 22 4.34315 22 6.22876 22 10 V 13 Z M15 7.25 C14.5858 7.25 14.25 7.58579 14.25 8 L14.25 10 C14.25 10.4142 14.5858 10.75 15 10.75 C15.4142 10.75 15.75 10.4142 15.75 10 L15.75 8 C15.75 7.58579 15.4142 7.25 15 7.25 Z" fill="#FFFFFF" />
</svg>