<svg xmlns="http://www.w3.org/2000/svg" width="24" height="24" viewBox="0 0 24 24" fill="none">
  <path fill-rule="nonzero" clip-rule="nonzero" d="M 7.94513 4.25 H 16.0549 C 17.4225 4.24998 18.5248 4.24996 19.3918 4.36652 C 20.2919 4.48754 21.0497 4.74643 21.6517 5.34835 C 22.2536 5.95027 22.5125 6.70814 22.6335 7.60825 C 22.75 8.47522 22.75 9.57754 22.75 10.9451 V 11.0564 C 22.75 12.8942 22.75 14.3498 22.5969 15.489 C 22.4392 16.6614 22.1071 17.6104 21.3588 18.3588 C 20.6104 19.1071 19.6614 19.4392 18.489 19.5969 C 17.3498 19.75 15.8942 19.75 14.0564 19.75 H 9.94359 C 8.10583 19.75 6.65019 19.75 5.51098 19.5969 C 4.33856 19.4392 3.38961 19.1071 2.64124 18.3588 C 1.89288 17.6104 1.56076 16.6614 1.40314 15.489 C 1.24997 14.3498 1.24998 12.8942 1.25 11.0564 L 1.25 10.9451 C 1.24998 9.57754 1.24996 8.47522 1.36652 7.60825 C 1.48754 6.70814 1.74643 5.95027 2.34835 5.34835 C 2.95027 4.74643 3.70814 4.48754 4.60825 4.36652 C 5.47522 4.24996 6.57754 4.24998 7.94513 4.25 Z M 4.80812 5.85315 C 4.07435 5.9518 3.68577 6.13225 3.40901 6.40901 C 3.13225 6.68577 2.9518 7.07435 2.85315 7.80812 C 2.75159 8.56347 2.75 9.56459 2.75 11 C 2.75 12.9068 2.75159 14.2615 2.88976 15.2892 C 3.02503 16.2952 3.27869 16.8749 3.7019 17.2981 C 4.05594 17.6521 4.51944 17.8875 5.25049 18.0342 C 5.25222 17.5505 5.26013 17.1335 5.29598 16.781 C 5.34415 16.3075 5.44886 15.8682 5.71346 15.4722 C 5.9141 15.1719 6.17191 14.9141 6.47218 14.7135 C 6.86818 14.4489 7.30755 14.3441 7.78102 14.296 C 8.23335 14.25 8.79207 14.25 9.46164 14.25 H 14.5384 C 15.2079 14.25 15.7667 14.25 16.219 14.296 C 16.6925 14.3441 17.1318 14.4489 17.5278 14.7135 C 17.8281 14.9141 18.0859 15.1719 18.2865 15.4722 C 18.5511 15.8682 18.6559 16.3075 18.704 16.781 C 18.7399 17.1335 18.7478 17.5505 18.7495 18.0342 C 19.4806 17.8875 19.9441 17.6521 20.2981 17.2981 C 20.7213 16.8749 20.975 16.2952 21.1102 15.2892 C 21.2484 14.2615 21.25 12.9068 21.25 11 C 21.25 9.56459 21.2484 8.56347 21.1469 7.80812 C 21.0482 7.07435 20.8678 6.68577 20.591 6.40901 C 20.3142 6.13225 19.9257 5.9518 19.1919 5.85315 C 18.4365 5.75159 17.4354 5.75 16 5.75 H 8 C 6.56458 5.75 5.56347 5.75159 4.80812 5.85315 Z M 17.2498 18.2025 C 17.249 17.6449 17.2437 17.247 17.2117 16.9328 C 17.1756 16.578 17.1118 16.414 17.0393 16.3055 C 16.9481 16.1691 16.831 16.0519 16.6945 15.9607 C 16.586 15.8882 16.422 15.8244 16.0672 15.7883 C 15.6998 15.7509 15.2178 15.75 14.5 15.75 H 9.5 C 8.78216 15.75 8.30023 15.7509 7.93283 15.7883 C 7.57796 15.8244 7.41399 15.8882 7.30554 15.9607 C 7.16905 16.0519 7.05186 16.1691 6.96066 16.3055 C 6.8882 16.414 6.82438 16.578 6.78828 16.9328 C 6.75632 17.247 6.75103 17.6449 6.75017 18.2025 C 7.61733 18.2492 8.67545 18.25 10 18.25 H 14 C 15.3245 18.25 16.3827 18.2492 17.2498 18.2025 Z M 5.25 9 C 5.25 8.58579 5.58579 8.25 6 8.25 H 18 C 18.4142 8.25 18.75 8.58579 18.75 9 C 18.75 9.41421 18.4142 9.75 18 9.75 H 6 C 5.58579 9.75 5.25 9.41421 5.25 9 Z M 5.25 11.5 C 5.25 11.0858 5.58579 10.75 6 10.75 H 18 C 18.4142 10.75 18.75 11.0858 18.75 11.5 C 18.75 11.9142 18.4142 12.25 18 12.25 H 6 C 5.58579 12.25 5.25 11.9142 5.25 11.5 Z" fill="#FFFFFF" />
</svg>