<svg xmlns="http://www.w3.org/2000/svg" width="24" height="24" viewBox="0 0 24 24" fill="none">
  <path d="M17.75 7C17.75 6.58579 17.4142 6.25 17 6.25C16.5858 6.25 16.25 6.58579 16.25 7V9C16.25 9.41422 16.5858 9.75 17 9.75C17.4142 9.75 17.75 9.41422 17.75 9V7Z" fill="#FFFFFF" />
  <path d="M17.75 14C17.75 13.5858 17.4142 13.25 17 13.25C16.5858 13.25 16.25 13.5858 16.25 14V16C16.25 16.4142 16.5858 16.75 17 16.75C17.4142 16.75 17.75 16.4142 17.75 16V14Z" fill="#FFFFFF" />
  <path fill-rule="nonzero" clip-rule="nonzero" d="M12.0564 1.25 C13.8942 1.24998 15.3498 1.24997 16.489 1.40314 C17.6614 1.56076 18.6104 1.89288 19.3588 2.64124 C20.1071 3.38961 20.4392 4.33856 20.5969 5.51098 C20.75 6.65018 20.75 8.10585 20.75 9.94359 L20.75 13.0565 C20.75 14.8942 20.75 16.3498 20.5969 17.489 C20.4392 18.6614 20.1071 19.6104 19.3588 20.3588 C18.8997 20.8178 18.3652 21.1202 17.75 21.3218 L17.75 22 C17.75 22.4142 17.4142 22.75 17 22.75 L16 22.75 C15.5858 22.75 15.25 22.4142 15.25 22 L15.25 21.7042 C14.3432 21.75 13.2852 21.75 12.0564 21.75 L11.9435 21.75 C10.7147 21.75 9.65677 21.75 8.75 21.7042 L8.75 22 C8.75 22.4142 8.41421 22.75 8 22.75 L7 22.75 C6.58579 22.75 6.25 22.4142 6.25 22 L6.25 21.3218 C5.63476 21.1202 5.10027 20.8178 4.64124 20.3588 C3.89288 19.6104 3.56076 18.6614 3.40314 17.489 C3.24997 16.3498 3.24998 14.8942 3.25 13.0564 L3.25 9.94357 C3.24998 8.10582 3.24997 6.65019 3.40314 5.51098 C3.56076 4.33856 3.89288 3.38961 4.64124 2.64124 C5.38961 1.89288 6.33856 1.56076 7.51098 1.40314 C8.65019 1.24997 10.1058 1.24998 11.9436 1.25 L12.0564 1.25 Z M5.7019 3.7019 C5.27869 4.12511 5.02502 4.70476 4.88976 5.71085 C4.75159 6.73851 4.75 8.09318 4.75 10 L4.75 10.75 L19.25 10.75 L19.25 10 C19.25 8.09318 19.2484 6.73851 19.1102 5.71085 C18.975 4.70476 18.7213 4.12511 18.2981 3.7019 C17.8749 3.27869 17.2952 3.02502 16.2892 2.88976 C15.2615 2.75159 13.9068 2.75 12 2.75 C10.0932 2.75 8.73851 2.75159 7.71085 2.88976 C6.70476 3.02502 6.12511 3.27869 5.7019 3.7019 Z M4.75 12.25 L4.75 13 C4.75 14.9068 4.75159 16.2615 4.88976 17.2892 C5.02502 18.2952 5.27869 18.8749 5.7019 19.2981 C6.12511 19.7213 6.70476 19.975 7.71085 20.1102 C8.73851 20.2484 10.0932 20.25 12 20.25 C13.9068 20.25 15.2615 20.2484 16.2892 20.1102 C17.2952 19.975 17.8749 19.7213 18.2981 19.2981 C18.7213 18.8749 18.975 18.2952 19.1102 17.2892 C19.2484 16.2615 19.25 14.9068 19.25 13 L19.25 12.25 L4.75 12.25 Z" fill="#FFFFFF" />
</svg>