<svg xmlns="http://www.w3.org/2000/svg" width="24" height="24" viewBox="0 0 24 24" fill="none">
  <path fill-rule="nonzero" clip-rule="nonzero" d="M5.17157 3.17157 C6.34315 2 8.22876 2 12 2 C15.7712 2 17.6569 2 18.8284 3.17157 C20 4.34315 20 6.22876 20 10 L20 10.75 L4 10.75 L4 10 C4 6.22876 4 4.34315 5.17157 3.17157 Z M17 6.25 C16.5858 6.25 16.25 6.58579 16.25 7 L16.25 9 C16.25 9.41421 16.5858 9.75 17 9.75 C17.4142 9.75 17.75 9.41421 17.75 9 L17.75 7 C17.75 6.58579 17.4142 6.25 17 6.25 Z" fill="#FFFFFF" />
  <path fill-rule="nonzero" clip-rule="nonzero" d="M4 12.25 L20 12.25 L20 13 C20 16.7712 20 18.6569 18.8284 19.8284 C18.524 20.1328 18.1714 20.3582 17.75 20.5249 L17.75 22 C17.75 22.4142 17.4142 22.75 17 22.75 L16 22.75 C15.5858 22.75 15.25 22.4142 15.25 22 L15.25 20.9534 C14.3554 21 13.2876 21 12 21 C10.7124 21 9.64461 21 8.75 20.9534 L8.75 22 C8.75 22.4142 8.41421 22.75 8 22.75 L7 22.75 C6.58579 22.75 6.25 22.4142 6.25 22 L6.25 20.5249 C5.82861 20.3582 5.47599 20.1328 5.17157 19.8284 C4 18.6569 4 16.7712 4 13 L4 12.25 Z M17 13.25 C16.5858 13.25 16.25 13.5858 16.25 14 L16.25 16 C16.25 16.4142 16.5858 16.75 17 16.75 C17.4142 16.75 17.75 16.4142 17.75 16 L17.75 14 C17.75 13.5858 17.4142 13.25 17 13.25 Z" fill="#FFFFFF" />
</svg>