<svg xmlns="http://www.w3.org/2000/svg" width="24" height="24" viewBox="0 0 24 24" fill="none">
  <path fill-rule="nonzero" clip-rule="nonzero" d="M18.9655 8.75078 C18.977 8.75026 18.9885 8.75 19 8.75 C19.4143 8.75 19.75 9.08579 19.75 9.5 L19.75 19 C19.75 19.4868 19.9079 19.9605 20.2 20.35 L21.1 21.55 C21.3486 21.8814 21.2814 22.3515 20.95 22.6 C20.6187 22.8485 20.1486 22.7814 19.9 22.45 L19 21.25 C18.8809 21.0912 18.7752 20.9239 18.6834 20.75 L5.31667 20.75 C5.22491 20.9239 5.11917 21.0912 5.00004 21.25 L4.10004 22.45 C3.85152 22.7814 3.38141 22.8485 3.05004 22.6 C2.71867 22.3515 2.65152 21.8814 2.90004 21.55 L3.80004 20.35 C4.09214 19.9605 4.25004 19.4868 4.25004 19 L4.25004 9.5 C4.25004 9.08579 4.58583 8.75 5.00004 8.75 C5.01159 8.75 5.02307 8.75026 5.03449 8.75078 C5.38536 4.96041 8.37001 2 12 2 C15.63 2 18.6146 4.96042 18.9655 8.75078 Z M 18.25 12.881 C 17.0962 15.3247 14.7307 17 12 17 C 9.26936 17 6.9039 15.3248 5.75004 12.8812 V 19 C 5.75004 19.0836 5.74725 19.167 5.7417 19.25 H 18.2584 C 18.2528 19.167 18.25 19.0836 18.25 19 V 12.881 Z M12.3938 4.9047 C12.1674 5.27066 12.33 5.72462 12.757 5.91864 C13.5488 6.27847 14.3063 7.24073 14.5483 8.61231 C14.6206 9.02186 15.0665 9.30366 15.5443 9.24172 C16.0221 9.17977 16.3509 8.79755 16.2786 8.38799 C15.9871 6.73573 15.0268 5.25237 13.5767 4.59338 C13.1497 4.39935 12.6201 4.53874 12.3938 4.9047 Z" fill="#FFFFFF" />
</svg>