<svg xmlns="http://www.w3.org/2000/svg" width="24" height="24" viewBox="0 0 24 24" fill="none">
  <path fill-rule="nonzero" clip-rule="nonzero" d="M 12 2.75 C 9.24807 2.75 6.75004 5.60725 6.75004 9.5 C 6.75004 13.3927 9.24807 16.25 12 16.25 C 14.752 16.25 17.25 13.3927 17.25 9.5 C 17.25 5.60725 14.752 2.75 12 2.75 Z M 5.27434 8.80174 C 5.55981 4.7075 8.33149 1.25 12 1.25 C 15.6686 1.25 18.4403 4.7075 18.7258 8.80174 C 18.8107 8.76834 18.9032 8.75 19 8.75 C 19.4143 8.75 19.75 9.08579 19.75 9.5 V 19 C 19.75 19.4868 19.9079 19.9605 20.2 20.35 L 21.1 21.55 C 21.3486 21.8814 21.2814 22.3515 20.95 22.6 C 20.6187 22.8485 20.1486 22.7814 19.9 22.45 L 19 21.25 C 18.8809 21.0912 18.7752 20.9239 18.6834 20.75 H 5.31667 C 5.22491 20.9239 5.11917 21.0912 5.00004 21.25 L 4.10004 22.45 C 3.85152 22.7814 3.38142 22.8485 3.05004 22.6 C 2.71867 22.3515 2.65152 21.8814 2.90004 21.55 L 3.80004 20.35 C 4.09214 19.9605 4.25004 19.4868 4.25004 19 V 9.5 C 4.25004 9.08579 4.58583 8.75 5.00004 8.75 C 5.09685 8.75 5.18938 8.76834 5.27434 8.80174 Z M 5.75004 12.6128 V 19 C 5.75004 19.0836 5.74725 19.167 5.7417 19.25 H 18.2584 C 18.2528 19.167 18.25 19.0836 18.25 19 V 12.6128 C 17.2656 15.5653 14.9162 17.75 12 17.75 C 9.08392 17.75 6.7345 15.5653 5.75004 12.6128 Z M 12.3374 4.90475 C 12.5314 4.53879 12.9854 4.3994 13.3514 4.59343 C 14.5943 5.25242 15.4174 6.73578 15.6673 8.38804 C 15.7292 8.7976 15.4474 9.17982 15.0379 9.24177 C 14.6283 9.30371 14.2461 9.02191 14.1842 8.61236 C 13.9767 7.24078 13.3274 6.27852 12.6487 5.91869 C 12.2828 5.72467 12.1434 5.27071 12.3374 4.90475 Z" fill="#FFFFFF" />
</svg>