<svg xmlns="http://www.w3.org/2000/svg" width="24" height="24" viewBox="0 0 24 24" fill="none">
  <path d="M9.75 11C9.75 9.75736 10.7574 8.75 12 8.75C13.2426 8.75 14.25 9.75736 14.25 11C14.25 12.2426 13.2426 13.25 12 13.25C10.7574 13.25 9.75 12.2426 9.75 11Z" fill="#FFFFFF" />
  <path fill-rule="nonzero" clip-rule="nonzero" d="M5.67412 3.77772 C5.96596 3.34096 6.34096 2.96596 6.77772 2.67412 C7.78661 2 9.19108 2 12 2 C14.8089 2 16.2134 2 17.2223 2.67412 C17.659 2.96596 18.034 3.34096 18.3259 3.77772 C19 4.78661 19 6.19108 19 9 L19 15 C19 17.8089 19 19.2134 18.3259 20.2223 C18.034 20.659 17.659 21.034 17.2223 21.3259 C16.2134 22 14.8089 22 12 22 C9.19108 22 7.78661 22 6.77772 21.3259 C6.34096 21.034 5.96596 20.659 5.67412 20.2223 C5 19.2134 5 17.8089 5 15 L5 9 C5 6.19108 5 4.78661 5.67412 3.77772 Z M 12 7.25 C 9.92893 7.25 8.25 8.92893 8.25 11 C 8.25 13.0711 9.92893 14.75 12 14.75 C 14.0711 14.75 15.75 13.0711 15.75 11 C 15.75 8.92893 14.0711 7.25 12 7.25 Z M13 5 C13 4.44772 12.5523 4 12 4 C11.4477 4 11 4.44772 11 5 C11 5.55228 11.4477 6 12 6 C12.5523 6 13 5.55228 13 5 Z M 12 18 C 12.5523 18 13 17.5523 13 17 C 13 16.4477 12.5523 16 12 16 C 11.4477 16 11 16.4477 11 17 C 11 17.5523 11.4477 18 12 18 Z" fill="#FFFFFF" />
</svg>