<svg xmlns="http://www.w3.org/2000/svg" width="24" height="24" viewBox="0 0 24 24" fill="none">
  <path fill-rule="nonzero" clip-rule="nonzero" d="M 11.9584 1.25 H 12.0416 C 13.4108 1.24999 14.4957 1.24998 15.3621 1.33812 C 16.2497 1.42841 16.9907 1.61739 17.639 2.05052 C 18.1576 2.39707 18.6029 2.84239 18.9495 3.36104 C 19.3826 4.00926 19.5716 4.7503 19.6619 5.63794 C 19.75 6.5043 19.75 7.5892 19.75 8.9584 V 15.0416 C 19.75 16.4108 19.75 17.4957 19.6619 18.3621 C 19.5716 19.2497 19.3826 19.9907 18.9495 20.639 C 18.6029 21.1576 18.1576 21.6029 17.639 21.9495 C 16.9907 22.3826 16.2497 22.5716 15.3621 22.6619 C 14.4957 22.75 13.4108 22.75 12.0416 22.75 H 11.9584 C 10.5892 22.75 9.50431 22.75 8.63794 22.6619 C 7.7503 22.5716 7.00926 22.3826 6.36104 21.9495 C 5.84239 21.6029 5.39707 21.1576 5.05052 20.639 C 4.61739 19.9907 4.42841 19.2497 4.33812 18.3621 C 4.24998 17.4957 4.24999 16.4108 4.25 15.0416 V 8.95841 C 4.24999 7.5892 4.24998 6.5043 4.33812 5.63794 C 4.42841 4.7503 4.61739 4.00926 5.05052 3.36104 C 5.39707 2.84239 5.84239 2.39707 6.36104 2.05052 C 7.00926 1.61739 7.7503 1.42841 8.63794 1.33812 C 9.5043 1.24998 10.5892 1.24999 11.9584 1.25 Z M 8.78975 2.83041 C 8.02071 2.90865 7.55507 3.05673 7.1944 3.29772 C 6.83953 3.53484 6.53484 3.83953 6.29772 4.1944 C 6.05673 4.55507 5.90865 5.02071 5.83041 5.78975 C 5.75091 6.57133 5.75 7.57993 5.75 9 V 15 C 5.75 16.4201 5.75091 17.4287 5.83041 18.2102 C 5.90865 18.9793 6.05673 19.4449 6.29772 19.8056 C 6.53484 20.1605 6.83953 20.4652 7.1944 20.7023 C 7.55507 20.9433 8.02071 21.0914 8.78975 21.1696 C 9.57133 21.2491 10.5799 21.25 12 21.25 C 13.4201 21.25 14.4287 21.2491 15.2102 21.1696 C 15.9793 21.0914 16.4449 20.9433 16.8056 20.7023 C 17.1605 20.4652 17.4652 20.1605 17.7023 19.8056 C 17.9433 19.4449 18.0914 18.9793 18.1696 18.2102 C 18.2491 17.4287 18.25 16.4201 18.25 15 V 9 C 18.25 7.57993 18.2491 6.57133 18.1696 5.78975 C 18.0914 5.02071 17.9433 4.55507 17.7023 4.1944 C 17.4652 3.83953 17.1605 3.53484 16.8056 3.29772 C 16.4449 3.05673 15.9793 2.90865 15.2102 2.83041 C 14.4287 2.75091 13.4201 2.75 12 2.75 C 10.5799 2.75 9.57133 2.75091 8.78975 2.83041 Z M 12 8.75 C 10.7574 8.75 9.75 9.75736 9.75 11 C 9.75 12.2426 10.7574 13.25 12 13.25 C 13.2426 13.25 14.25 12.2426 14.25 11 C 14.25 9.75736 13.2426 8.75 12 8.75 Z M 8.25 11 C 8.25 8.92893 9.92893 7.25 12 7.25 C 14.0711 7.25 15.75 8.92893 15.75 11 C 15.75 13.0711 14.0711 14.75 12 14.75 C 9.92893 14.75 8.25 13.0711 8.25 11 Z" fill="#FFFFFF" />
  <path d="M13 5C13 5.55229 12.5523 6 12 6C11.4477 6 11 5.55229 11 5C11 4.44772 11.4477 4 12 4C12.5523 4 13 4.44772 13 5Z" fill="#FFFFFF" />
  <path d="M13 17C13 17.5523 12.5523 18 12 18C11.4477 18 11 17.5523 11 17C11 16.4477 11.4477 16 12 16C12.5523 16 13 16.4477 13 17Z" fill="#FFFFFF" />
</svg>