<svg xmlns="http://www.w3.org/2000/svg" width="24" height="24" viewBox="0 0 24 24" fill="none">
  <path d="M9.75 15.5C9.75 14.2574 10.7574 13.25 12 13.25C13.2426 13.25 14.25 14.2574 14.25 15.5C14.25 16.7426 13.2426 17.75 12 17.75C10.7574 17.75 9.75 16.7426 9.75 15.5Z" fill="#FFFFFF" />
  <path fill-rule="nonzero" clip-rule="nonzero" d="M5.67412 3.77772 C5.96596 3.34096 6.34096 2.96596 6.77772 2.67412 C7.78661 2 9.19108 2 12 2 C14.8089 2 16.2134 2 17.2223 2.67412 C17.659 2.96596 18.034 3.34096 18.3259 3.77772 C19 4.78661 19 6.19108 19 9 L19 15 C19 17.8089 19 19.2134 18.3259 20.2223 C18.034 20.659 17.659 21.034 17.2223 21.3259 C16.2134 22 14.8089 22 12 22 C9.19108 22 7.78661 22 6.77772 21.3259 C6.34096 21.034 5.96596 20.659 5.67412 20.2223 C5 19.2134 5 17.8089 5 15 L5 9 C5 6.19108 5 4.78661 5.67412 3.77772 Z M 12 11.75 C 9.92893 11.75 8.25 13.4289 8.25 15.5 C 8.25 17.5711 9.92893 19.25 12 19.25 C 14.0711 19.25 15.75 17.5711 15.75 15.5 C 15.75 13.4289 14.0711 11.75 12 11.75 Z M8.25 5.5 C8.25 5.91421 8.58579 6.25 9 6.25 L15 6.25 C15.4142 6.25 15.75 5.91421 15.75 5.5 C15.75 5.08579 15.4142 4.75 15 4.75 L9 4.75 C8.58579 4.75 8.25 5.08579 8.25 5.5 Z M 9 10 C 9.55228 10 10 9.55228 10 9 C 10 8.44772 9.55228 8 9 8 C 8.44772 8 8 8.44772 8 9 C 8 9.55228 8.44772 10 9 10 Z M13 9 C13 8.44772 12.5523 8 12 8 C11.4477 8 11 8.44772 11 9 C11 9.55228 11.4477 10 12 10 C12.5523 10 13 9.55228 13 9 Z M 15 10 C 15.5523 10 16 9.55228 16 9 C 16 8.44772 15.5523 8 15 8 C 14.4477 8 14 8.44772 14 9 C 14 9.55228 14.4477 10 15 10 Z" fill="#FFFFFF" />
</svg>