<svg xmlns="http://www.w3.org/2000/svg" width="24" height="24" viewBox="0 0 24 24" fill="none">
  <path fill-rule="nonzero" clip-rule="nonzero" d="M 12 2.75 C 6.89137 2.75 2.75 6.89137 2.75 12 C 2.75 17.1086 6.89137 21.25 12 21.25 C 17.1086 21.25 21.25 17.1086 21.25 12 C 21.25 6.89137 17.1086 2.75 12 2.75 Z M 1.25 12 C 1.25 6.06294 6.06294 1.25 12 1.25 C 17.9371 1.25 22.75 6.06294 22.75 12 C 22.75 14.6986 21.7556 17.165 20.1133 19.0527 L 22.5303 21.4697 C 22.8232 21.7626 22.8232 22.2374 22.5303 22.5303 C 22.2374 22.8232 21.7626 22.8232 21.4697 22.5303 L 19.0527 20.1133 C 17.165 21.7556 14.6986 22.75 12 22.75 C 9.3014 22.75 6.83504 21.7556 4.94734 20.1133 L 2.53033 22.5303 C 2.23744 22.8232 1.76256 22.8232 1.46967 22.5303 C 1.17678 22.2374 1.17678 21.7626 1.46967 21.4697 L 3.88668 19.0527 C 2.24436 17.165 1.25 14.6986 1.25 12 Z M 12 6.75 C 10.7574 6.75 9.75 7.75736 9.75 9 C 9.75 10.2426 10.7574 11.25 12 11.25 C 13.2426 11.25 14.25 10.2426 14.25 9 C 14.25 7.75736 13.2426 6.75 12 6.75 Z M 8.25 9 C 8.25 6.92893 9.92893 5.25 12 5.25 C 14.0711 5.25 15.75 6.92893 15.75 9 C 15.75 11.0711 14.0711 12.75 12 12.75 C 9.92893 12.75 8.25 11.0711 8.25 9 Z M 12 15.25 C 12.4142 15.25 12.75 15.5858 12.75 16 V 18 C 12.75 18.4142 12.4142 18.75 12 18.75 C 11.5858 18.75 11.25 18.4142 11.25 18 V 16 C 11.25 15.5858 11.5858 15.25 12 15.25 Z" fill="#FFFFFF" />
</svg>