<svg xmlns="http://www.w3.org/2000/svg" width="24" height="24" viewBox="0 0 24 24" fill="none">
  <path d="M9.75 9C9.75 7.75736 10.7574 6.75 12 6.75C13.2426 6.75 14.25 7.75736 14.25 9C14.25 10.2426 13.2426 11.25 12 11.25C10.7574 11.25 9.75 10.2426 9.75 9Z" fill="#FFFFFF" />
  <path fill-rule="nonzero" clip-rule="nonzero" d="M21.2093 15.904 L21.295 15.9998 C21.8883 16.6627 22.25 17.54 22.25 18.5 C22.25 20.571 20.5711 22.25 18.5 22.25 C17.54 22.25 16.6628 21.8883 15.9998 21.2949 L15.9041 21.2092 C14.7046 21.7184 13.3852 22 12 22 C10.6147 22 9.29517 21.7183 8.09559 21.2091 L7.9997 21.2949 C7.33675 21.8883 6.45947 22.25 5.49951 22.25 C3.42844 22.25 1.74951 20.571 1.74951 18.5 C1.74951 17.54 2.1112 16.6627 2.70455 15.9998 L2.79059 15.9036 C2.28157 14.7043 2 13.385 2 12 C2 6.47715 6.47715 2 12 2 C17.5228 2 22 6.47715 22 12 C22 13.3852 21.7184 14.7045 21.2093 15.904 Z M 20.442 17.3627 C 19.6539 18.6008 18.6008 19.6538 17.3627 20.442 C 17.6964 20.6379 18.0846 20.75 18.5 20.75 C 19.7426 20.75 20.75 19.7426 20.75 18.5 C 20.75 18.0846 20.638 17.6963 20.442 17.3627 Z M 6.63705 20.4418 C 5.39891 19.6536 4.34587 18.6005 3.55776 17.3623 C 3.36165 17.696 3.24951 18.0844 3.24951 18.5 C 3.24951 19.7426 4.25687 20.75 5.49951 20.75 C 5.91499 20.75 6.30335 20.6379 6.63705 20.4418 Z M 12 5.25 C 9.92893 5.25 8.25 6.92893 8.25 9 C 8.25 11.0711 9.92893 12.75 12 12.75 C 14.0711 12.75 15.75 11.0711 15.75 9 C 15.75 6.92893 14.0711 5.25 12 5.25 Z M12 15.25 C11.5858 15.25 11.25 15.5858 11.25 16 L11.25 18 C11.25 18.4142 11.5858 18.75 12 18.75 C12.4142 18.75 12.75 18.4142 12.75 18 L12.75 16 C12.75 15.5858 12.4142 15.25 12 15.25 Z" fill="#FFFFFF" />
</svg>