<svg xmlns="http://www.w3.org/2000/svg" width="24" height="24" viewBox="0 0 24 24" fill="none">
  <path d="M12 6.5C10.7574 6.5 9.75 7.50736 9.75 8.75C9.75 9.99264 10.7574 11 12 11C13.2426 11 14.25 9.99264 14.25 8.75C14.25 7.50736 13.2426 6.5 12 6.5Z" fill="#FFFFFF" />
  <path fill-rule="nonzero" clip-rule="nonzero" d="M 18.5209 19.3316 C 16.7701 20.8389 14.4915 21.75 12 21.75 C 9.50853 21.75 7.22987 20.8389 5.47906 19.3316 L 2.53033 22.2803 C 2.23744 22.5732 1.76256 22.5732 1.46967 22.2803 C 1.17678 21.9874 1.17678 21.5126 1.46967 21.2197 L 4.4184 18.2709 C 2.91114 16.5201 2 14.2415 2 11.75 C 2 6.22715 6.47715 1.75 12 1.75 C 17.5228 1.75 22 6.22715 22 11.75 C 22 14.2415 21.0889 16.5201 19.5816 18.2709 L 22.5303 21.2197 C 22.8232 21.5126 22.8232 21.9874 22.5303 22.2803 C 22.2374 22.5732 21.7626 22.5732 21.4697 22.2803 L 18.5209 19.3316 Z M8.25 8.75 C8.25 10.8211 9.92893 12.5 12 12.5 C14.0711 12.5 15.75 10.8211 15.75 8.75 C15.75 6.67893 14.0711 5 12 5 C9.92893 5 8.25 6.67893 8.25 8.75 Z M 12.75 15.75 C 12.75 15.3358 12.4142 15 12 15 C 11.5858 15 11.25 15.3358 11.25 15.75 V 17.75 C 11.25 18.1642 11.5858 18.5 12 18.5 C 12.4142 18.5 12.75 18.1642 12.75 17.75 V 15.75 Z" fill="#FFFFFF" />
</svg>