<svg xmlns="http://www.w3.org/2000/svg" width="24" height="24" viewBox="0 0 24 24" fill="none">
  <path fill-rule="nonzero" clip-rule="nonzero" d="M 11.9397 3.25 H 12.0603 C 14.2498 3.24998 15.9723 3.24997 17.2936 3.43245 C 18.6439 3.61895 19.7186 4.01273 20.4898 4.91627 C 20.5795 5.02138 20.6646 5.13035 20.7448 5.24288 C 21.4343 6.21019 21.5557 7.34827 21.4091 8.70355 C 21.278 9.91558 20.9177 11.4159 20.4513 13.2868 C 21.7554 13.5021 22.75 14.6349 22.75 16 C 22.75 17.2588 21.9043 18.32 20.75 18.6465 V 20 C 20.75 20.4142 20.4142 20.75 20 20.75 C 19.5858 20.75 19.25 20.4142 19.25 20 V 18.75 H 4.75 L 4.75 20 C 4.75 20.4142 4.41421 20.75 4 20.75 C 3.58579 20.75 3.25 20.4142 3.25 20 L 3.25 18.6465 C 2.09575 18.32 1.25 17.2588 1.25 16 C 1.25 14.6349 2.24465 13.5021 3.54874 13.2868 C 3.08226 11.4159 2.72196 9.91557 2.59087 8.70355 C 2.44429 7.34827 2.56567 6.21019 3.25519 5.24288 C 3.3354 5.13035 3.42048 5.02138 3.5102 4.91627 C 4.28139 4.01273 5.35606 3.61895 6.70642 3.43245 C 8.02767 3.24997 9.75025 3.24998 11.9397 3.25 Z M 5.0856 13.25 H 18.9144 C 19.4278 11.1946 19.7923 9.70312 19.9178 8.54225 C 20.047 7.34831 19.9047 6.64845 19.5234 6.11355 C 19.4685 6.03656 19.4103 5.962 19.3489 5.89008 C 18.9224 5.39045 18.278 5.08264 17.0884 4.91835 C 15.8817 4.7517 14.263 4.75 12 4.75 C 9.73703 4.75 8.11826 4.7517 6.91163 4.91835 C 5.72202 5.08264 5.07757 5.39044 4.65112 5.89008 C 4.58973 5.962 4.53152 6.03656 4.47664 6.11355 C 4.09535 6.64845 3.95304 7.34831 4.08217 8.54225 C 4.20773 9.70312 4.57218 11.1946 5.0856 13.25 Z M 4 14.75 C 3.30964 14.75 2.75 15.3096 2.75 16 C 2.75 16.6904 3.30964 17.25 4 17.25 H 20 C 20.6904 17.25 21.25 16.6904 21.25 16 C 21.25 15.3096 20.6904 14.75 20 14.75 H 4 Z" fill="#FFFFFF" />
</svg>