<svg xmlns="http://www.w3.org/2000/svg" width="24" height="24" viewBox="0 0 24 24" fill="none">
  <path fill-rule="nonzero" clip-rule="nonzero" d="M 8.90473 4.25001 C 8.93606 4.25001 8.96781 4.25002 9 4.25002 H 15 C 15.0322 4.25002 15.0639 4.25001 15.0953 4.25001 C 15.9333 4.24988 16.4668 4.24981 16.9267 4.34129 C 18.811 4.71609 20.2839 6.18906 20.6587 8.07334 L 19.9231 8.21966 L 20.6587 8.07334 C 20.7284 8.4234 20.7449 8.81605 20.7488 9.35321 C 21.9037 9.67929 22.75 10.7408 22.75 12 V 14.4445 C 22.75 15.9742 21.9522 17.3176 20.75 18.0813 V 19 C 20.75 19.4142 20.4142 19.75 20 19.75 C 19.5858 19.75 19.25 19.4142 19.25 19 V 18.6748 C 18.989 18.7242 18.7198 18.75 18.4444 18.75 H 5.55556 C 5.28024 18.75 5.01095 18.7242 4.75 18.6748 V 19 C 4.75 19.4142 4.41421 19.75 4 19.75 C 3.58579 19.75 3.25 19.4142 3.25 19 V 18.0813 C 2.04779 17.3176 1.25 15.9742 1.25 14.4445 V 12 C 1.25 10.7408 2.09631 9.67929 3.25116 9.35321 C 3.25505 8.81605 3.27164 8.4234 3.34127 8.07334 C 3.71608 6.18906 5.18904 4.71609 7.07332 4.34129 C 7.53324 4.24981 8.06666 4.24988 8.90473 4.25001 Z M 4.75168 9.35401 C 5.90507 9.68103 6.75 10.7419 6.75 12 V 13.2 C 6.75 13.2276 6.77239 13.25 6.8 13.25 H 17.2 C 17.2276 13.25 17.25 13.2276 17.25 13.2 V 12 C 17.25 10.7419 18.0949 9.68103 19.2483 9.35401 C 19.2443 8.84457 19.231 8.58419 19.1876 8.36598 C 18.9311 7.07673 17.9233 6.06891 16.634 5.81247 C 16.3384 5.75365 15.9653 5.75002 15 5.75002 H 9 C 8.03474 5.75002 7.66164 5.75365 7.36596 5.81247 C 6.07671 6.06891 5.06889 7.07673 4.81245 8.36597 C 4.76904 8.58419 4.75569 8.84457 4.75168 9.35401 Z M 4 10.75 C 3.30964 10.75 2.75 11.3097 2.75 12 V 14.4445 C 2.75 15.9939 4.00609 17.25 5.55556 17.25 H 18.4444 C 19.9939 17.25 21.25 15.9939 21.25 14.4445 V 12 C 21.25 11.3097 20.6904 10.75 20 10.75 C 19.3096 10.75 18.75 11.3097 18.75 12 V 13.2 C 18.75 14.0561 18.056 14.75 17.2 14.75 H 6.8 C 5.94396 14.75 5.25 14.0561 5.25 13.2 V 12 C 5.25 11.3097 4.69036 10.75 4 10.75 Z" fill="#FFFFFF" />
</svg>