<svg xmlns="http://www.w3.org/2000/svg" width="24" height="24" viewBox="0 0 24 24" fill="none">
  <path d="M12 6.25C11.3096 6.25 10.75 6.80964 10.75 7.5C10.75 8.19036 11.3096 8.75 12 8.75C12.6904 8.75 13.25 8.19036 13.25 7.5C13.25 6.80964 12.6904 6.25 12 6.25Z" fill="#FFFFFF" />
  <path d="M9.75 15.5C9.75 14.2574 10.7574 13.25 12 13.25C13.2426 13.25 14.25 14.2574 14.25 15.5C14.25 16.7426 13.2426 17.75 12 17.75C10.7574 17.75 9.75 16.7426 9.75 15.5Z" fill="#FFFFFF" />
  <path fill-rule="nonzero" clip-rule="nonzero" d="M 4 10 C 4 6.22876 4 4.34315 5.17157 3.17157 C 6.34315 2 8.22876 2 12 2 C 15.7712 2 17.6569 2 18.8284 3.17157 C 20 4.34315 20 6.22876 20 10 V 14 C 20 17.7712 20 19.6569 18.8284 20.8284 C 17.6569 22 15.7712 22 12 22 C 8.22876 22 6.34315 22 5.17157 20.8284 C 4 19.6569 4 17.7712 4 14 V 10 Z M9.25 7.5 C9.25 9.01878 10.4812 10.25 12 10.25 C13.5188 10.25 14.75 9.01878 14.75 7.5 C14.75 5.98122 13.5188 4.75 12 4.75 C10.4812 4.75 9.25 5.98122 9.25 7.5 Z M 12 11.75 C 9.92893 11.75 8.25 13.4289 8.25 15.5 C 8.25 17.5711 9.92893 19.25 12 19.25 C 14.0711 19.25 15.75 17.5711 15.75 15.5 C 15.75 13.4289 14.0711 11.75 12 11.75 Z" fill="#FFFFFF" />
</svg>