<svg xmlns="http://www.w3.org/2000/svg" width="24" height="24" viewBox="0 0 24 24" fill="none">
  <path fill-rule="nonzero" clip-rule="nonzero" d="M20.5 13.9999 L3.5 13.9999 L3.5 6.13735 C3.5 5.74941 3.5 5.55544 3.51784 5.42278 C3.64099 4.50683 4.15409 3.94497 5.05512 3.7394 C5.18562 3.70962 5.45709 3.68494 6 3.63559 C7.00193 3.5445 8.18314 3.19579 9.23133 2.81443 C10.7246 2.27115 11.4712 1.99951 12 1.99951 C12.5288 1.99951 13.2754 2.27115 14.7687 2.81443 C15.8169 3.19579 16.9981 3.5445 18 3.63559 C18.5428 3.68494 18.8144 3.70962 18.9449 3.7394 C19.8459 3.94497 20.359 4.50683 20.4822 5.42278 C20.5 5.55544 20.5 5.74941 20.5 6.13735 L20.5 13.9999 Z M11.0303 6.46955 C10.7374 6.17665 10.2626 6.17665 9.96967 6.46955 L8.96967 7.46955 C8.67678 7.76244 8.67678 8.23731 8.96967 8.53021 C9.26256 8.8231 9.73744 8.8231 10.0303 8.53021 L11.0303 7.53021 C11.3232 7.23731 11.3232 6.76244 11.0303 6.46955 Z M14.0303 7.46955 C13.7374 7.17665 13.2626 7.17665 12.9697 7.46955 L9.96967 10.4695 C9.67678 10.7624 9.67678 11.2373 9.96967 11.5302 C10.2626 11.8231 10.7374 11.8231 11.0303 11.5302 L14.0303 8.53021 C14.3232 8.23731 14.3232 7.76244 14.0303 7.46955 Z M15.0303 10.4695 C14.7374 10.1767 14.2626 10.1767 13.9697 10.4695 L12.9697 11.4695 C12.6768 11.7624 12.6768 12.2373 12.9697 12.5302 C13.2626 12.8231 13.7374 12.8231 14.0303 12.5302 L15.0303 11.5302 C15.3232 11.2373 15.3232 10.7624 15.0303 10.4695 Z" fill="#FFFFFF" />
  <path fill-rule="nonzero" clip-rule="nonzero" d="M 3.00023 15 H 11.25 V 21 H 8.00023 C 7.1228 21 6.38147 21 5.75 20.9738 V 22 C 5.75 22.4142 5.41421 22.75 5 22.75 C 4.58579 22.75 4.25 22.4142 4.25 22 V 20.8109 C 3.66924 20.6845 3.23107 20.4735 2.87891 20.1213 C 2.11053 19.3529 2.01408 18.175 2.00197 16.0001 C 1.99889 15.4478 2.44795 15 3.00023 15 Z M6.25 18 C6.25 18.4142 6.58579 18.75 7 18.75 L9 18.75 C9.41421 18.75 9.75 18.4142 9.75 18 C9.75 17.5858 9.41421 17.25 9 17.25 L7 17.25 C6.58579 17.25 6.25 17.5858 6.25 18 Z" fill="#FFFFFF" />
  <path fill-rule="nonzero" clip-rule="nonzero" d="M 16.0002 21 H 12.75 V 15 H 21.0002 C 21.5525 15 22.0016 15.4478 21.9985 16.0001 C 21.9864 18.175 21.8899 19.3529 21.1216 20.1213 C 20.7693 20.4736 20.331 20.6846 19.75 20.811 V 22 C 19.75 22.4142 19.4142 22.75 19 22.75 C 18.5858 22.75 18.25 22.4142 18.25 22 V 20.9738 C 17.6186 21 16.8774 21 16.0002 21 Z M 15 17.25 C 14.5858 17.25 14.25 17.5858 14.25 18 C 14.25 18.4142 14.5858 18.75 15 18.75 L 17 18.75 C 17.4142 18.75 17.75 18.4142 17.75 18 C 17.75 17.5858 17.4142 17.25 17 17.25 L 15 17.25 Z" fill="#FFFFFF" />
</svg>