<svg xmlns="http://www.w3.org/2000/svg" width="24" height="24" viewBox="0 0 24 24" fill="none">
  <path fill-rule="nonzero" clip-rule="nonzero" d="M 11.1991 2.92004 C 10.7815 3.04911 10.242 3.24516 9.48798 3.51948 C 8.42197 3.90731 7.16799 4.28277 6.06813 4.38275 C 5.79425 4.40765 5.59721 4.42558 5.45193 4.44093 C 5.37979 4.44855 5.32575 4.45498 5.28502 4.46065 C 5.26494 4.46344 5.24984 4.46581 5.23875 4.46772 L 5.22634 4.46999 C 5.22346 4.47056 5.22214 4.47086 5.22218 4.47085 C 4.88807 4.54708 4.68167 4.67522 4.54882 4.82069 C 4.41597 4.96617 4.30705 5.18332 4.26138 5.52296 C 4.25208 5.59216 4.25023 5.71912 4.25023 6.13759 V 14.2501 H 19.7502 V 6.13759 C 19.7502 5.71912 19.7484 5.59216 19.7391 5.52296 C 19.6934 5.18332 19.5845 4.96617 19.4516 4.82069 C 19.3188 4.67522 19.1124 4.54708 18.7783 4.47085 C 18.7783 4.47086 18.777 4.47056 18.7741 4.46999 L 18.7617 4.46772 C 18.7506 4.46581 18.7355 4.46344 18.7154 4.46065 C 18.6747 4.45498 18.6207 4.44855 18.5485 4.44093 C 18.4032 4.42558 18.2062 4.40765 17.9323 4.38275 C 16.8325 4.28277 15.5785 3.90731 14.5125 3.51948 C 13.7585 3.24516 13.219 3.04911 12.8014 2.92004 C 12.3776 2.78903 12.1474 2.74976 12.0002 2.74976 C 11.853 2.74976 11.6229 2.78903 11.1991 2.92004 Z M21.2502 14.2678 C22.0974 14.3892 22.7534 15.118 22.7485 16.0043 C22.7425 17.0858 22.7166 17.9872 22.5813 18.7238 C22.442 19.4817 22.1768 20.1268 21.6519 20.6517 C21.1316 21.172 20.4947 21.436 19.7502 21.5762 L19.7502 22.0001 C19.7502 22.4143 19.4144 22.7501 19.0002 22.7501 C18.586 22.7501 18.2502 22.4143 18.2502 22.0001 L18.2502 21.7244 C17.611 21.7501 16.8815 21.7501 16.0551 21.7501 L7.94536 21.7501 C7.119 21.7501 6.38949 21.7501 5.75023 21.7244 L5.75023 22.0001 C5.75023 22.4143 5.41444 22.7501 5.00023 22.7501 C4.58602 22.7501 4.25023 22.4143 4.25023 22.0001 L4.25023 21.5762 C3.50572 21.436 2.86889 21.172 2.34858 20.6517 C1.82366 20.1268 1.55842 19.4817 1.41918 18.7238 C1.28388 17.9872 1.258 17.0858 1.25198 16.0043 C1.24705 15.118 1.9031 14.3892 2.75023 14.2678 L2.75023 6.13759 C2.75023 6.1153 2.75022 6.09338 2.75022 6.07182 C2.75011 5.74788 2.75003 5.50697 2.77476 5.32308 C2.85225 4.74677 3.06144 4.22502 3.44119 3.80919 C3.82093 3.39335 4.3216 3.13778 4.88853 3.00843 C5.06964 2.96711 5.38268 2.93874 5.83267 2.89795 C5.86517 2.89501 5.89839 2.892 5.93233 2.88891 C6.83634 2.80673 7.94476 2.48475 8.97514 2.10987 L8.99501 2.10264 C9.72482 1.83712 10.299 1.62822 10.7561 1.48693 C11.2111 1.3463 11.6186 1.24976 12.0002 1.24976 C12.3818 1.24976 12.7894 1.3463 13.2444 1.48693 C13.7015 1.62822 14.2756 1.83712 15.0054 2.10263 L15.0253 2.10987 C16.0557 2.48475 17.1641 2.80673 18.0681 2.88891 C18.1021 2.892 18.1353 2.89501 18.1678 2.89795 C18.6177 2.93873 18.9308 2.96711 19.1119 3.00843 C19.6789 3.13778 20.1795 3.39335 20.5593 3.80919 C20.939 4.22502 21.1482 4.74677 21.2257 5.32308 C21.2504 5.50697 21.2504 5.74788 21.2502 6.07182 C21.2502 6.09337 21.2502 6.1153 21.2502 6.13759 L21.2502 14.2678 Z M 12.7502 20.2501 H 16.0002 C 17.4356 20.2501 18.4368 20.2485 19.1921 20.1469 C 19.9259 20.0483 20.3145 19.8678 20.5912 19.5911 C 20.8347 19.3476 21.0018 19.0196 21.106 18.4528 C 21.214 17.8645 21.2424 17.0895 21.2485 15.996 C 21.2492 15.8632 21.1404 15.7501 21.0002 15.7501 H 12.7502 V 20.2501 Z M11.2502 15.7501 L3.00023 15.7501 C2.8601 15.7501 2.75122 15.8632 2.75196 15.996 C2.75805 17.0895 2.78644 17.8645 2.8945 18.4528 C2.99861 19.0196 3.16579 19.3476 3.40924 19.5911 C3.686 19.8678 4.07458 20.0483 4.80835 20.1469 C5.5637 20.2485 6.56482 20.2501 8.00023 20.2501 L11.2502 20.2501 L11.2502 15.7501 Z M 11.0306 6.46976 C 11.3235 6.76265 11.3235 7.23753 11.0306 7.53042 L 10.0306 8.53042 C 9.73767 8.82331 9.26279 8.82331 8.9699 8.53042 C 8.67701 8.23753 8.67701 7.76265 8.9699 7.46976 L 9.9699 6.46976 C 10.2628 6.17687 10.7377 6.17687 11.0306 6.46976 Z M 14.0306 7.46976 C 14.3235 7.76265 14.3235 8.23753 14.0306 8.53042 L 11.0306 11.5304 C 10.7377 11.8233 10.2628 11.8233 9.9699 11.5304 C 9.67701 11.2375 9.67701 10.7627 9.9699 10.4698 L 12.9699 7.46976 C 13.2628 7.17687 13.7377 7.17687 14.0306 7.46976 Z M 15.0306 10.4698 C 15.3235 10.7627 15.3235 11.2375 15.0306 11.5304 L 14.0306 12.5304 C 13.7377 12.8233 13.2628 12.8233 12.9699 12.5304 C 12.677 12.2375 12.677 11.7627 12.9699 11.4698 L 13.9699 10.4698 C 14.2628 10.1769 14.7377 10.1769 15.0306 10.4698 Z M 6.25023 18.0001 C 6.25023 17.5859 6.58602 17.2501 7.00023 17.2501 H 9.00023 C 9.41444 17.2501 9.75023 17.5859 9.75023 18.0001 C 9.75023 18.4143 9.41444 18.7501 9.00023 18.7501 H 7.00023 C 6.58602 18.7501 6.25023 18.4143 6.25023 18.0001 Z M 14.2502 18.0001 C 14.2502 17.5859 14.586 17.2501 15.0002 17.2501 H 17.0002 C 17.4144 17.2501 17.7502 17.5859 17.7502 18.0001 C 17.7502 18.4143 17.4144 18.7501 17.0002 18.7501 H 15.0002 C 14.586 18.7501 14.2502 18.4143 14.2502 18.0001 Z" fill="#FFFFFF" />
</svg>