<svg xmlns="http://www.w3.org/2000/svg" width="24" height="24" viewBox="0 0 24 24" fill="none">
  <path opacity="0.5" d="M3 10C3 6.22876 3 4.34315 4.17157 3.17157C5.34315 2 7.22876 2 11 2H13C16.7712 2 18.6569 2 19.8284 3.17157C21 4.34315 21 6.22876 21 10V14C21 17.7712 21 19.6569 19.8284 20.8284C18.6569 22 16.7712 22 13 22H11C7.22876 22 5.34315 22 4.17157 20.8284C3 19.6569 3 17.7712 3 14V10Z" fill="#FFFFFF" />
  <path d="M7.25 6C7.25 5.58579 7.58579 5.25 8 5.25H16C16.4142 5.25 16.75 5.58579 16.75 6C16.75 6.41421 16.4142 6.75 16 6.75H8C7.58579 6.75 7.25 6.41421 7.25 6Z" fill="#FFFFFF" />
  <path fill-rule="nonzero" clip-rule="nonzero" d="M17.7138 14.6485 L17.7338 14.6622 L17.643 15.1098 C17.1259 17.7544 14.796 19.75 12 19.75 C8.82436 19.75 6.25 17.1756 6.25 14 C6.25 10.8244 8.82436 8.25 12 8.25 C15.1756 8.25 17.75 10.8244 17.75 14 C17.75 14.2193 17.7377 14.4356 17.7138 14.6485 Z M8.11547 13.7919 L8.23511 13.8691 C8.46278 14.0161 8.69352 14.1652 8.9424 14.312 C9.52387 14.6552 10.1533 14.9546 10.857 15.0814 C11.3371 15.168 11.6273 15.1193 11.83 15.0445 C12.0529 14.9623 12.233 14.8289 12.5084 14.6153 L12.5321 14.5969 C12.786 14.3997 13.1303 14.1325 13.5869 13.964 C14.0781 13.7828 14.6442 13.7317 15.3451 13.858 C15.5091 13.8875 15.6688 13.9122 15.8305 13.9373 L15.8461 13.9397 C15.9793 13.9603 16.1169 13.9816 16.25 14.0055 L16.25 14 C16.25 11.6528 14.3472 9.75 12 9.75 C9.79642 9.75 7.98453 11.427 7.77104 13.5744 C7.88681 13.6452 8.00236 13.7191 8.11547 13.7919 Z" fill="#FFFFFF" />
</svg>