<svg xmlns="http://www.w3.org/2000/svg" width="24" height="24" viewBox="0 0 24 24" fill="none">
  <path fill-rule="nonzero" clip-rule="nonzero" d="M 20.9944 8.25 H 3.00559 C 3.03321 5.61409 3.19724 4.1459 4.17157 3.17157 C 5.34315 2 7.22876 2 11 2 H 13 C 16.7712 2 18.6569 2 19.8284 3.17157 C 20.8028 4.1459 20.9668 5.61409 20.9944 8.25 Z M5.75 5.5 C5.75 5.91421 6.08579 6.25 6.5 6.25 L9.5 6.25 C9.91421 6.25 10.25 5.91421 10.25 5.5 C10.25 5.08579 9.91421 4.75 9.5 4.75 L6.5 4.75 C6.08579 4.75 5.75 5.08579 5.75 5.5 Z M 14.5 6.5 C 15.0523 6.5 15.5 6.05228 15.5 5.5 C 15.5 4.94772 15.0523 4.5 14.5 4.5 C 13.9477 4.5 13.5 4.94772 13.5 5.5 C 13.5 6.05228 13.9477 6.5 14.5 6.5 Z M18.5 5.5 C18.5 4.94772 18.0523 4.5 17.5 4.5 C16.9477 4.5 16.5 4.94772 16.5 5.5 C16.5 6.05228 16.9477 6.5 17.5 6.5 C18.0523 6.5 18.5 6.05228 18.5 5.5 Z" fill="#FFFFFF" />
  <path d="M9.75 15C9.75 13.7574 10.7574 12.75 12 12.75C13.2426 12.75 14.25 13.7574 14.25 15C14.25 16.2426 13.2426 17.25 12 17.25C10.7574 17.25 9.75 16.2426 9.75 15Z" fill="#FFFFFF" />
  <path fill-rule="nonzero" clip-rule="nonzero" d="M 3.00001 9.75 H 21 V 13 C 21 16.7712 21 18.6569 19.8284 19.8284 C 19.524 20.1328 19.1714 20.3582 18.75 20.5249 V 22 C 18.75 22.4142 18.4142 22.75 18 22.75 C 17.5858 22.75 17.25 22.4142 17.25 22 V 20.8713 C 16.1801 21 14.8064 21 13 21 H 11 C 9.19364 21 7.81989 21 6.75 20.8713 V 22 C 6.75 22.4142 6.41421 22.75 6 22.75 C 5.58579 22.75 5.25 22.4142 5.25 22 V 20.5249 C 4.82861 20.3582 4.47599 20.1328 4.17157 19.8284 C 3 18.6569 3 16.7712 3 13 L 3.00001 9.75 Z M 12 11.25 C 9.92893 11.25 8.25 12.9289 8.25 15 C 8.25 17.0711 9.92893 18.75 12 18.75 C 14.0711 18.75 15.75 17.0711 15.75 15 C 15.75 12.9289 14.0711 11.25 12 11.25 Z" fill="#FFFFFF" />
</svg>