<svg xmlns="http://www.w3.org/2000/svg" width="24" height="24" viewBox="0 0 24 24" fill="none">
  <path fill-rule="nonzero" clip-rule="nonzero" d="M 10.9436 1.25 H 13.0564 C 14.8942 1.24998 16.3498 1.24997 17.489 1.40314 C 18.6614 1.56076 19.6104 1.89288 20.3588 2.64124 C 21.1071 3.38961 21.4392 4.33856 21.5969 5.51098 C 21.75 6.65019 21.75 8.10583 21.75 9.94359 V 14.0564 C 21.75 15.8942 21.75 17.3498 21.5969 18.489 C 21.4392 19.6614 21.1071 20.6104 20.3588 21.3588 C 19.6104 22.1071 18.6614 22.4392 17.489 22.5969 C 16.3498 22.75 14.8942 22.75 13.0564 22.75 H 10.9436 C 9.10583 22.75 7.65019 22.75 6.51098 22.5969 C 5.33856 22.4392 4.38961 22.1071 3.64124 21.3588 C 2.89288 20.6104 2.56076 19.6614 2.40314 18.489 C 2.24997 17.3498 2.24998 15.8942 2.25 14.0564 V 9.94358 C 2.24998 8.10582 2.24997 6.65019 2.40314 5.51098 C 2.56076 4.33856 2.89288 3.38961 3.64124 2.64124 C 4.38961 1.89288 5.33856 1.56076 6.51098 1.40314 C 7.65019 1.24997 9.10582 1.24998 10.9436 1.25 Z M 6.71085 2.88976 C 5.70476 3.02502 5.12511 3.27869 4.7019 3.7019 C 4.27869 4.12511 4.02502 4.70476 3.88976 5.71085 C 3.75159 6.73851 3.75 8.09318 3.75 10 V 14 C 3.75 15.9068 3.75159 17.2615 3.88976 18.2892 C 4.02502 19.2952 4.27869 19.8749 4.7019 20.2981 C 5.12511 20.7213 5.70476 20.975 6.71085 21.1102 C 7.73851 21.2484 9.09318 21.25 11 21.25 H 13 C 14.9068 21.25 16.2615 21.2484 17.2892 21.1102 C 18.2952 20.975 18.8749 20.7213 19.2981 20.2981 C 19.7213 19.8749 19.975 19.2952 20.1102 18.2892 C 20.2484 17.2615 20.25 15.9068 20.25 14 V 10 C 20.25 8.09318 20.2484 6.73851 20.1102 5.71085 C 19.975 4.70476 19.7213 4.12511 19.2981 3.7019 C 18.8749 3.27869 18.2952 3.02502 17.2892 2.88976 C 16.2615 2.75159 14.9068 2.75 13 2.75 H 11 C 9.09318 2.75 7.73851 2.75159 6.71085 2.88976 Z M 7.25 6 C 7.25 5.58579 7.58579 5.25 8 5.25 H 16 C 16.4142 5.25 16.75 5.58579 16.75 6 C 16.75 6.41421 16.4142 6.75 16 6.75 H 8 C 7.58579 6.75 7.25 6.41421 7.25 6 Z M 7.75524 13.787 C 7.92322 13.8756 8.08781 13.9677 8.25384 14.0607 C 8.96711 14.4599 9.70706 14.8741 10.857 15.0814 C 11.3371 15.168 11.6273 15.1193 11.83 15.0445 C 12.0529 14.9623 12.233 14.8289 12.5084 14.6153 C 12.5162 14.6092 12.5241 14.6031 12.5321 14.5969 C 12.786 14.3997 13.1303 14.1325 13.5869 13.964 C 14.0781 13.7828 14.6442 13.7317 15.3451 13.858 C 15.6833 13.9189 15.9827 13.9988 16.249 14.0932 C 16.2497 14.0622 16.25 14.0312 16.25 14 C 16.25 11.6528 14.3472 9.75 12 9.75 C 9.7242 9.75 7.86619 11.5388 7.75524 13.787 Z M 15.9448 15.5845 C 15.7245 15.4887 15.4429 15.3997 15.0792 15.3342 C 14.5991 15.2477 14.3089 15.2965 14.1062 15.3713 C 13.8832 15.4535 13.7031 15.5869 13.4277 15.8005 C 13.4199 15.8066 13.412 15.8127 13.4041 15.8189 C 13.1501 16.016 12.8058 16.2833 12.3491 16.4518 C 11.858 16.633 11.2919 16.684 10.591 16.5576 C 9.56442 16.3726 8.74772 16.0225 8.09809 15.6872 C 8.75098 17.1951 10.2523 18.25 12 18.25 C 13.7871 18.25 15.3166 17.1469 15.9448 15.5845 Z M 6.25 14 C 6.25 10.8244 8.82436 8.25 12 8.25 C 15.1756 8.25 17.75 10.8244 17.75 14 C 17.75 17.1756 15.1756 19.75 12 19.75 C 8.82436 19.75 6.25 17.1756 6.25 14 Z" fill="#FFFFFF" />
</svg>