<svg xmlns="http://www.w3.org/2000/svg" width="24" height="24" viewBox="0 0 24 24" fill="none">
  <path fill-rule="nonzero" clip-rule="nonzero" d="M 20.9129 5.88886 C 21.25 6.39331 21.25 7.09554 21.25 8.5 V 21.25 H 21.75 C 22.1642 21.25 22.5 21.5858 22.5 22 C 22.5 22.4142 22.1642 22.75 21.75 22.75 H 1.75 C 1.33579 22.75 1 22.4142 1 22 C 1 21.5858 1.33579 21.25 1.75 21.25 H 2.25 V 8.5 C 2.25 7.09554 2.25 6.39331 2.58706 5.88886 C 2.73298 5.67048 2.92048 5.48298 3.13886 5.33706 C 3.58008 5.04224 4.17262 5.00529 5.25403 5.00066 C 5.24992 5.29206 5.24996 5.59655 5.24999 5.9105 L 5.25 6 V 7.25 H 4.25 C 3.83579 7.25 3.5 7.58579 3.5 8 C 3.5 8.41421 3.83579 8.75 4.25 8.75 H 5.25 V 10.25 H 4.25 C 3.83579 10.25 3.5 10.5858 3.5 11 C 3.5 11.4142 3.83579 11.75 4.25 11.75 H 5.25 V 13.25 H 4.25 C 3.83579 13.25 3.5 13.5858 3.5 14 C 3.5 14.4142 3.83579 14.75 4.25 14.75 H 5.25 V 21.25 H 6.75 V 6 C 6.75 4.11438 6.75 3.17157 7.33579 2.58579 C 7.92157 2 8.86438 2 10.75 2 H 12.75 C 14.6356 2 15.5784 2 16.1642 2.58579 C 16.75 3.17157 16.75 4.11438 16.75 6 V 21.25 H 18.25 V 14.75 H 19.25 C 19.6642 14.75 20 14.4142 20 14 C 20 13.5858 19.6642 13.25 19.25 13.25 H 18.25 V 11.75 H 19.25 C 19.6642 11.75 20 11.4142 20 11 C 20 10.5858 19.6642 10.25 19.25 10.25 H 18.25 V 8.75 H 19.25 C 19.6642 8.75 20 8.41421 20 8 C 20 7.58579 19.6642 7.25 19.25 7.25 H 18.25 V 6 L 18.25 5.91051 C 18.25 5.59655 18.2501 5.29206 18.246 5.00066 C 19.3274 5.00529 19.9199 5.04224 20.3611 5.33706 C 20.5795 5.48298 20.767 5.67048 20.9129 5.88886 Z M 12.5 19 C 12.5 18.5858 12.1642 18.25 11.75 18.25 C 11.3358 18.25 11 18.5858 11 19 V 21.25 H 12.5 V 19 Z M9 15 C9 15.4142 9.33579 15.75 9.75 15.75 L13.75 15.75 C14.1642 15.75 14.5 15.4142 14.5 15 C14.5 14.5858 14.1642 14.25 13.75 14.25 L9.75 14.25 C9.33579 14.25 9 14.5858 9 15 Z M 9.75 11.25 C 9.33579 11.25 9 11.5858 9 12 C 9 12.4142 9.33579 12.75 9.75 12.75 H 13.75 C 14.1642 12.75 14.5 12.4142 14.5 12 C 14.5 11.5858 14.1642 11.25 13.75 11.25 H 9.75 Z M9.25 7 C9.25 8.51878 10.4812 9.75 12 9.75 C13.5188 9.75 14.75 8.51878 14.75 7 C14.75 5.48122 13.5188 4.25 12 4.25 C10.4812 4.25 9.25 5.48122 9.25 7 Z M 10.75 7 C 10.75 6.30964 11.3096 5.75 12 5.75 C 12.6904 5.75 13.25 6.30964 13.25 7 C 13.25 7.69036 12.6904 8.25 12 8.25 C 11.3096 8.25 10.75 7.69036 10.75 7 Z" fill="#FFFFFF" />
</svg>