<svg xmlns="http://www.w3.org/2000/svg" width="24" height="24" viewBox="0 0 24 24" fill="none">
  <path fill-rule="nonzero" clip-rule="nonzero" d="M21.25 8.5 L21.25 21.25 L21.75 21.25 C22.1642 21.25 22.5 21.5858 22.5 22 C22.5 22.4142 22.1642 22.75 21.75 22.75 L1.75 22.75 C1.33579 22.75 1 22.4142 1 22 C1 21.5858 1.33579 21.25 1.75 21.25 L2.25 21.25 L2.25 8.5 C2.25 7.09554 2.25 6.39331 2.58706 5.88886 C2.73298 5.67048 2.92048 5.48298 3.13886 5.33706 C3.58008 5.04224 4.17262 5.00529 5.25403 5.00066 C5.24992 5.29206 5.24996 5.59655 5.24999 5.9105 L5.25 6 L5.25 7.25 L4.25 7.25 C3.83579 7.25 3.5 7.58579 3.5 8 C3.5 8.41421 3.83579 8.75 4.25 8.75 L5.25 8.75 L5.25 10.25 L4.25 10.25 C3.83579 10.25 3.5 10.5858 3.5 11 C3.5 11.4142 3.83579 11.75 4.25 11.75 L5.25 11.75 L5.25 13.25 L4.25 13.25 C3.83579 13.25 3.5 13.5858 3.5 14 C3.5 14.4142 3.83579 14.75 4.25 14.75 L5.25 14.75 L5.25 21.25 L6.75 21.25 L6.75 6 C6.75 4.11438 6.75 3.17157 7.33579 2.58579 C7.92157 2 8.86438 2 10.75 2 L12.75 2 C14.6356 2 15.5784 2 16.1642 2.58579 C16.75 3.17157 16.75 4.11438 16.75 6 L16.75 21.25 L18.25 21.25 L18.25 14.75 L19.25 14.75 C19.6642 14.75 20 14.4142 20 14 C20 13.5858 19.6642 13.25 19.25 13.25 L18.25 13.25 L18.25 11.75 L19.25 11.75 C19.6642 11.75 20 11.4142 20 11 C20 10.5858 19.6642 10.25 19.25 10.25 L18.25 10.25 L18.25 8.75 L19.25 8.75 C19.6642 8.75 20 8.41421 20 8 C20 7.58579 19.6642 7.25 19.25 7.25 L18.25 7.25 L18.25 6 L18.25 5.91051 C18.25 5.59655 18.2501 5.29206 18.246 5.00066 C19.3274 5.00529 19.9199 5.04224 20.3611 5.33706 C20.5795 5.48298 20.767 5.67048 20.9129 5.88886 C21.25 6.39331 21.25 7.09554 21.25 8.5 Z M9 11.75 C9 12.1642 9.33579 12.5 9.75 12.5 L13.75 12.5 C14.1642 12.5 14.5 12.1642 14.5 11.75 C14.5 11.3358 14.1642 11 13.75 11 L9.75 11 C9.33579 11 9 11.3358 9 11.75 Z M9 14.75 C9 15.1642 9.33579 15.5 9.75 15.5 L13.75 15.5 C14.1642 15.5 14.5 15.1642 14.5 14.75 C14.5 14.3358 14.1642 14 13.75 14 L9.75 14 C9.33579 14 9 14.3358 9 14.75 Z M11.75 18.25 C11.3358 18.25 11 18.5858 11 19 L11 21.25 L12.5 21.25 L12.5 19 C12.5 18.5858 12.1642 18.25 11.75 18.25 Z M9 6.25 C9 6.66421 9.33579 7 9.75 7 L13.75 7 C14.1642 7 14.5 6.66421 14.5 6.25 C14.5 5.83579 14.1642 5.5 13.75 5.5 L9.75 5.5 C9.33579 5.5 9 5.83579 9 6.25 Z M9 9.25 C9 9.66421 9.33579 10 9.75 10 L13.75 10 C14.1642 10 14.5 9.66421 14.5 9.25 C14.5 8.83579 14.1642 8.5 13.75 8.5 L9.75 8.5 C9.33579 8.5 9 8.83579 9 9.25 Z" fill="#FFFFFF" />
</svg>