<svg xmlns="http://www.w3.org/2000/svg" width="24" height="24" viewBox="0 0 24 24" fill="none">
  <path fill-rule="nonzero" clip-rule="nonzero" d="M 7 5 H 11 C 12.8856 5 13.8284 5 14.4142 5.58579 C 15 6.17157 15 7.11438 15 9 V 21.25 H 16.5 H 21 H 22 C 22.4142 21.25 22.75 21.5858 22.75 22 C 22.75 22.4142 22.4142 22.75 22 22.75 H 2 C 1.58579 22.75 1.25 22.4142 1.25 22 C 1.25 21.5858 1.58579 21.25 2 21.25 H 3 V 9 C 3 7.11438 3 6.17157 3.58579 5.58579 C 4.17157 5 5.11438 5 7 5 Z M5.25 8 C5.25 8.41421 5.58579 8.75 6 8.75 L12 8.75 C12.4142 8.75 12.75 8.41421 12.75 8 C12.75 7.58579 12.4142 7.25 12 7.25 L6 7.25 C5.58579 7.25 5.25 7.58579 5.25 8 Z M5.25 11 C5.25 11.4142 5.58579 11.75 6 11.75 L12 11.75 C12.4142 11.75 12.75 11.4142 12.75 11 C12.75 10.5858 12.4142 10.25 12 10.25 L6 10.25 C5.58579 10.25 5.25 10.5858 5.25 11 Z M5.25 14 C5.25 14.4142 5.58579 14.75 6 14.75 L12 14.75 C12.4142 14.75 12.75 14.4142 12.75 14 C12.75 13.5858 12.4142 13.25 12 13.25 L6 13.25 C5.58579 13.25 5.25 13.5858 5.25 14 Z M9 18.25 C8.58579 18.25 8.25 18.5858 8.25 19 L8.25 21.25 L9.75 21.25 L9.75 19 C9.75 18.5858 9.41421 18.25 9 18.25 Z" fill="#FFFFFF" />
  <path opacity="0.5" d="M15 2H17C18.8856 2 19.8284 2 20.4142 2.58579C21 3.17157 21 4.11438 21 6V21.25H15V9C15 7.11438 15 6.17157 14.4142 5.58579C13.8416 5.01319 12.9279 5.0003 11.126 5.00001V3.49999C11.2103 3.11275 11.351 2.82059 11.5858 2.58579C12.1715 2 13.1144 2 15 2Z" fill="#FFFFFF" />
</svg>