<svg xmlns="http://www.w3.org/2000/svg" width="24" height="24" viewBox="0 0 24 24" fill="none">
  <path fill-rule="nonzero" clip-rule="nonzero" d="M 14.948 1.25 H 17.052 C 17.9505 1.24997 18.6997 1.24995 19.2945 1.32991 C 19.9223 1.41432 20.4891 1.59999 20.9445 2.05546 C 21.4 2.51093 21.5857 3.07773 21.6701 3.70552 C 21.7501 4.30031 21.75 5.04953 21.75 5.94801 V 21.25 H 22 C 22.4142 21.25 22.75 21.5858 22.75 22 C 22.75 22.4142 22.4142 22.75 22 22.75 H 2 C 1.58579 22.75 1.25 22.4142 1.25 22 C 1.25 21.5858 1.58579 21.25 2 21.25 H 2.25 L 2.25 8.948 C 2.24997 8.04952 2.24994 7.3003 2.32991 6.70552 C 2.41432 6.07773 2.59999 5.51093 3.05546 5.05546 C 3.51093 4.59999 4.07773 4.41432 4.70552 4.32991 C 5.3003 4.24995 6.04952 4.24997 6.948 4.25 L 10.278 4.25 C 10.3294 3.37583 10.4906 2.62032 11.0555 2.05546 C 11.5109 1.59999 12.0777 1.41432 12.7055 1.32991 C 13.3003 1.24995 14.0495 1.24997 14.948 1.25 Z M 11.0068 5.75 C 11.0055 5.75 11.0043 5.75 11.003 5.75 C 11.002 5.75 11.001 5.75 11 5.75 H 7 C 6.03599 5.75 5.38843 5.7516 4.90539 5.81654 C 4.44393 5.87858 4.24643 5.9858 4.11612 6.11612 C 3.9858 6.24644 3.87858 6.44393 3.81654 6.90539 C 3.75159 7.38843 3.75 8.03599 3.75 9 V 21.25 H 8.25 V 19 C 8.25 18.5858 8.58579 18.25 9 18.25 C 9.41421 18.25 9.75 18.5858 9.75 19 V 21.25 H 14.25 V 9 C 14.25 8.03599 14.2484 7.38843 14.1835 6.90539 C 14.1214 6.44393 14.0142 6.24644 13.8839 6.11612 C 13.7536 5.9858 13.5561 5.87858 13.0946 5.81654 C 12.6127 5.75175 11.9671 5.75001 11.0068 5.75 Z M15.75 21.25 L20.25 21.25 L20.25 6 C20.25 5.03599 20.2484 4.38843 20.1835 3.90539 C20.1214 3.44393 20.0142 3.24644 19.8839 3.11612 C19.7536 2.9858 19.5561 2.87858 19.0946 2.81654 C18.6116 2.7516 17.964 2.75 17 2.75 L15 2.75 C14.036 2.75 13.3884 2.7516 12.9054 2.81654 C12.4439 2.87858 12.2464 2.9858 12.1161 3.11612 C11.9436 3.28863 11.8335 3.55219 11.7834 4.25183 C12.3648 4.25645 12.8691 4.27273 13.2945 4.32991 C13.9223 4.41432 14.4891 4.59999 14.9445 5.05546 C15.4 5.51093 15.5857 6.07773 15.6701 6.70552 C15.7501 7.30031 15.75 8.04953 15.75 8.94801 L15.75 21.25 Z M 5.25 8 C 5.25 7.58579 5.58579 7.25 6 7.25 H 12 C 12.4142 7.25 12.75 7.58579 12.75 8 C 12.75 8.41422 12.4142 8.75 12 8.75 H 6 C 5.58579 8.75 5.25 8.41422 5.25 8 Z M 5.25 11 C 5.25 10.5858 5.58579 10.25 6 10.25 H 12 C 12.4142 10.25 12.75 10.5858 12.75 11 C 12.75 11.4142 12.4142 11.75 12 11.75 H 6 C 5.58579 11.75 5.25 11.4142 5.25 11 Z M 5.25 14 C 5.25 13.5858 5.58579 13.25 6 13.25 H 12 C 12.4142 13.25 12.75 13.5858 12.75 14 C 12.75 14.4142 12.4142 14.75 12 14.75 H 6 C 5.58579 14.75 5.25 14.4142 5.25 14 Z" fill="#FFFFFF" />
</svg>