<svg xmlns="http://www.w3.org/2000/svg" width="24" height="24" viewBox="0 0 24 24" fill="none">
  <path opacity="0.5" d="M20.9129 5.88881C21.25 6.39325 21.25 7.09549 21.25 8.49995V21.2499H21.75C22.1642 21.2499 22.5 21.5857 22.5 21.9999C22.5 22.4142 22.1642 22.7499 21.75 22.7499H1.75C1.33579 22.7499 1 22.4142 1 21.9999C1 21.5857 1.33579 21.2499 1.75 21.2499H2.25V8.49995C2.25 7.09549 2.25 6.39325 2.58706 5.88881C2.73298 5.67043 2.92048 5.48293 3.13886 5.33701C3.58008 5.04219 5.67561 5.00524 6.75702 5.00061C6.75291 5.292 6.75294 5.59649 6.75298 5.91045L6.75299 5.99995V7.24995H4.25C3.83579 7.24995 3.5 7.58573 3.5 7.99995C3.5 8.41416 3.83579 8.74995 4.25 8.74995H6.75299V10.2499H4.25C3.83579 10.2499 3.5 10.5857 3.5 10.9999C3.5 11.4142 3.83579 11.7499 4.25 11.7499H6.75299V13.2499H4.25C3.83579 13.2499 3.5 13.5857 3.5 13.9999C3.5 14.4142 3.83579 14.7499 4.25 14.7499H6.75299V21.2499H16.7529V14.7499H19.25C19.6642 14.7499 20 14.4142 20 13.9999C20 13.5857 19.6642 13.2499 19.25 13.2499H16.7529V11.7499H19.25C19.6642 11.7499 20 11.4142 20 10.9999C20 10.5857 19.6642 10.2499 19.25 10.2499H16.7529V8.74995H19.25C19.6642 8.74995 20 8.41416 20 7.99995C20 7.58573 19.6642 7.24995 19.25 7.24995H16.7529V5.99995L16.7529 5.91046V5.91043C16.753 5.59648 16.753 5.292 16.7489 5.00061C17.8303 5.00524 19.9199 5.04219 20.3611 5.33701C20.5795 5.48293 20.767 5.67043 20.9129 5.88881Z" fill="#FFFFFF" />
  <path fill-rule="nonzero" clip-rule="nonzero" d="M 10.75 2 H 12.75 C 14.6356 2 15.5784 2 16.1642 2.58579 C 16.75 3.17157 16.75 4.11438 16.75 6 V 21.25 H 18.25 H 21.25 H 21.75 C 22.1642 21.25 22.5 21.5858 22.5 22 C 22.5 22.4142 22.1642 22.75 21.75 22.75 H 1.75 C 1.33579 22.75 1 22.4142 1 22 C 1 21.5858 1.33579 21.25 1.75 21.25 H 2.25 H 5.25 H 6.75 V 6 C 6.75 4.11438 6.75 3.17157 7.33579 2.58579 C 7.92157 2 8.86438 2 10.75 2 Z M11.75 18.25 C11.3358 18.25 11 18.5858 11 19 L11 21.25 L12.5 21.25 L12.5 19 C12.5 18.5858 12.1642 18.25 11.75 18.25 Z M 9.75 14 C 9.33579 14 9 14.3358 9 14.75 C 9 15.1642 9.33579 15.5 9.75 15.5 H 13.75 C 14.1642 15.5 14.5 15.1642 14.5 14.75 C 14.5 14.3358 14.1642 14 13.75 14 H 9.75 Z M9 11.75 C9 12.1642 9.33579 12.5 9.75 12.5 L13.75 12.5 C14.1642 12.5 14.5 12.1642 14.5 11.75 C14.5 11.3358 14.1642 11 13.75 11 L9.75 11 C9.33579 11 9 11.3358 9 11.75 Z M 9.75 8.5 C 9.33579 8.5 9 8.83579 9 9.25 C 9 9.66421 9.33579 10 9.75 10 H 13.75 C 14.1642 10 14.5 9.66421 14.5 9.25 C 14.5 8.83579 14.1642 8.5 13.75 8.5 H 9.75 Z M9 6.25 C9 6.66421 9.33579 7 9.75 7 L13.75 7 C14.1642 7 14.5 6.66421 14.5 6.25 C14.5 5.83579 14.1642 5.5 13.75 5.5 L9.75 5.5 C9.33579 5.5 9 5.83579 9 6.25 Z" fill="#FFFFFF" />
</svg>