<svg xmlns="http://www.w3.org/2000/svg" width="24" height="24" viewBox="0 0 24 24" fill="none">
  <path fill-rule="nonzero" clip-rule="nonzero" d="M2 21.25 L3 21.25 L5.5 21.25 L7 21.25 L7 16 C7 14.1144 7 13.1716 7.58579 12.5858 C8.17157 12 9.11438 12 11 12 L13 12 C14.8856 12 15.8284 12 16.4142 12.5858 C17 13.1716 17 14.1144 17 16 L17 21.25 L18.5 21.25 L21 21.25 L22 21.25 C22.4142 21.25 22.75 21.5858 22.75 22 C22.75 22.4142 22.4142 22.75 22 22.75 L2 22.75 C1.58579 22.75 1.25 22.4142 1.25 22 C1.25 21.5858 1.58579 21.25 2 21.25 Z M9.25 15 C9.25 15.4142 9.58579 15.75 10 15.75 L14 15.75 C14.4142 15.75 14.75 15.4142 14.75 15 C14.75 14.5858 14.4142 14.25 14 14.25 L10 14.25 C9.58579 14.25 9.25 14.5858 9.25 15 Z M9.25 18 C9.25 18.4142 9.58579 18.75 10 18.75 L14 18.75 C14.4142 18.75 14.75 18.4142 14.75 18 C14.75 17.5858 14.4142 17.25 14 17.25 L10 17.25 C9.58579 17.25 9.25 17.5858 9.25 18 Z" fill="#FFFFFF" />
  <g opacity="0.5">
    <path d="M8 4.5C8.94281 4.5 9.41421 4.5 9.70711 4.79289C10 5.08579 10 5.55719 10 6.5L9.99999 8.29243C10.1568 8.36863 10.2931 8.46469 10.4142 8.58579C10.8183 8.98987 10.9436 9.56385 10.9825 10.5V12C9.10855 12 8.16976 12.0018 7.58579 12.5858C7 13.1716 7 14.1144 7 16V21.25H3V12C3 10.1144 3 9.17157 3.58579 8.58579C3.70688 8.46469 3.84322 8.36864 4 8.29243V6.5C4 5.55719 4 5.08579 4.29289 4.79289C4.58579 4.5 5.05719 4.5 6 4.5H6.25V3C6.25 2.58579 6.58579 2.25 7 2.25C7.41421 2.25 7.75 2.58579 7.75 3V4.5H8Z" fill="#FFFFFF" />
    <path d="M20.6439 5.24676C20.2877 4.73284 19.66 4.49743 18.4045 4.02663C15.9493 3.10592 14.7216 2.64555 13.8608 3.2421C13 3.83864 13 5.14974 13 7.77195V12C14.8856 12 15.8284 12 16.4142 12.5858C17 13.1716 17 14.1144 17 16V21.25H21V7.77195C21 6.4311 21 5.76068 20.6439 5.24676Z" fill="#FFFFFF" />
  </g>
</svg>