<svg xmlns="http://www.w3.org/2000/svg" width="24" height="24" viewBox="0 0 24 24" fill="none">
  <path d="M9.70711 4.79289C9.41421 4.5 8.94281 4.5 8 4.5H7.75V3C7.75 2.58579 7.41421 2.25 7 2.25C6.58579 2.25 6.25 2.58579 6.25 3V4.5H6C5.05719 4.5 4.58579 4.5 4.29289 4.79289C4 5.08579 4 5.55719 4 6.5V6.7038C4.20249 6.65059 4.40564 6.61348 4.60559 6.5866C5.25121 6.4998 6.04487 6.49989 6.9105 6.49999H7.0895C7.95513 6.49989 8.74879 6.4998 9.39441 6.5866C9.59436 6.61348 9.79751 6.65059 9.99999 6.7038L10 6.5C10 5.55719 10 5.08579 9.70711 4.79289Z" fill="#FFFFFF" />
  <path fill-rule="nonzero" clip-rule="nonzero" d="M2 21.25 L3 21.25 L3 12 C3 10.1144 3 9.17157 3.58579 8.58579 C4.17157 8 5.11438 8 7 8 C8.88562 8 9.82843 8 10.4142 8.58579 C10.8183 8.98987 10.9436 9.56385 10.9825 10.5 L10.9105 10.5 C10.0449 10.4999 9.25121 10.4998 8.60558 10.5866 C7.89462 10.6822 7.14317 10.9071 6.52513 11.5251 C5.90708 12.1432 5.68219 12.8946 5.5866 13.6056 C5.4998 14.2512 5.49989 15.0449 5.49999 15.9105 L5.5 16 L5.5 21.25 L7 21.25 L7 16 C7 14.1144 7 13.1716 7.58579 12.5858 C8.17157 12 9.11438 12 11 12 L13 12 C14.8856 12 15.8284 12 16.4142 12.5858 C17 13.1716 17 14.1144 17 16 L17 21.25 L18.5 21.25 L18.5 16 L18.5 15.9105 C18.5001 15.0449 18.5002 14.2512 18.4134 13.6056 C18.3178 12.8946 18.0929 12.1432 17.4749 11.5251 C16.8568 10.9071 16.1054 10.6822 15.3944 10.5866 C14.7488 10.4998 13.9551 10.4999 13.0895 10.5 L13 10.5 L13 7.77195 C13 5.14974 13 3.83864 13.8608 3.2421 C14.7216 2.64555 15.9492 3.10591 18.4045 4.02663 C19.66 4.49743 20.2877 4.73283 20.6439 5.24676 C21 5.76068 21 6.4311 21 7.77195 L21 21.25 L22 21.25 C22.4142 21.25 22.75 21.5858 22.75 22 C22.75 22.4142 22.4142 22.75 22 22.75 L2 22.75 C1.58579 22.75 1.25 22.4142 1.25 22 C1.25 21.5858 1.58579 21.25 2 21.25 Z M9.25 15 C9.25 15.4142 9.58579 15.75 10 15.75 L14 15.75 C14.4142 15.75 14.75 15.4142 14.75 15 C14.75 14.5858 14.4142 14.25 14 14.25 L10 14.25 C9.58579 14.25 9.25 14.5858 9.25 15 Z M9.25 18 C9.25 18.4142 9.58579 18.75 10 18.75 L14 18.75 C14.4142 18.75 14.75 18.4142 14.75 18 C14.75 17.5858 14.4142 17.25 14 17.25 L10 17.25 C9.58579 17.25 9.25 17.5858 9.25 18 Z" fill="#FFFFFF" />
</svg>