<svg xmlns="http://www.w3.org/2000/svg" width="24" height="24" viewBox="0 0 24 24" fill="none">
  <path fill-rule="nonzero" clip-rule="nonzero" d="M 4.00691 9.10502 L 10.0069 3.77169 C 11.1436 2.76133 12.8564 2.76133 13.9931 3.77169 L 19.9931 9.10502 C 20.6336 9.67432 21 10.4903 21 11.3472 V 21.2501 H 22 C 22.4142 21.2501 22.75 21.5858 22.75 22.0001 C 22.75 22.4143 22.4142 22.7501 22 22.7501 H 2 C 1.58579 22.7501 1.25 22.4143 1.25 22.0001 C 1.25 21.5858 1.58579 21.2501 2 21.2501 H 3 V 11.3472 C 3 10.4903 3.36644 9.67432 4.00691 9.10502 Z M9.25 9.00005 C9.25 9.41426 9.58579 9.75005 10 9.75005 L14 9.75005 C14.4142 9.75005 14.75 9.41426 14.75 9.00005 C14.75 8.58584 14.4142 8.25005 14 8.25005 L10 8.25005 C9.58579 8.25005 9.25 8.58584 9.25 9.00005 Z M14.052 11.25 L9.948 11.25 C9.04952 11.25 8.3003 11.25 7.70552 11.33 C7.07773 11.4144 6.51093 11.6 6.05546 12.0555 C5.59999 12.511 5.41432 13.0778 5.32991 13.7056 C5.24994 14.3004 5.24997 15.0496 5.25 15.9481 L5.25 21.2501 L6.75 21.2501 L6.75 16.0001 C6.75 15.036 6.75159 14.3885 6.81654 13.9054 C6.87858 13.444 6.9858 13.2465 7.11612 13.1162 C7.24643 12.9859 7.44393 12.8786 7.90539 12.8166 C8.38843 12.7516 9.03599 12.7501 10 12.7501 L14 12.7501 C14.964 12.7501 15.6116 12.7516 16.0946 12.8166 C16.5561 12.8786 16.7536 12.9859 16.8839 13.1162 C17.0142 13.2465 17.1214 13.444 17.1835 13.9054 C17.2484 14.3885 17.25 15.036 17.25 16.0001 L17.25 21.2501 L18.75 21.2501 L18.75 15.9481 C18.75 15.0496 18.7501 14.3004 18.6701 13.7056 C18.5857 13.0778 18.4 12.511 17.9445 12.0555 C17.4891 11.6 16.9223 11.4144 16.2945 11.33 C15.6997 11.25 14.9505 11.25 14.052 11.25 Z M8.25 15.5001 C8.25 15.9143 8.58579 16.2501 9 16.2501 L15 16.2501 C15.4142 16.2501 15.75 15.9143 15.75 15.5001 C15.75 15.0858 15.4142 14.7501 15 14.7501 L9 14.7501 C8.58579 14.7501 8.25 15.0858 8.25 15.5001 Z M8.25 18.5001 C8.25 18.9143 8.58579 19.2501 9 19.2501 L15 19.2501 C15.4142 19.2501 15.75 18.9143 15.75 18.5001 C15.75 18.0858 15.4142 17.7501 15 17.7501 L9 17.7501 C8.58579 17.7501 8.25 18.0858 8.25 18.5001 Z" fill="#FFFFFF" />
</svg>