<svg xmlns="http://www.w3.org/2000/svg" width="24" height="24" viewBox="0 0 24 24" fill="none">
  <path fill-rule="nonzero" clip-rule="nonzero" d="M 13.4948 4.33224 C 12.6423 3.57447 11.3577 3.57447 10.5052 4.33224 L 4.50518 9.66558 C 4.02483 10.0926 3.75 10.7046 3.75 11.3472 V 21.2501 H 5.25 L 5.25 15.948 C 5.24997 15.0496 5.24994 14.3004 5.32991 13.7056 C 5.41432 13.0778 5.59999 12.511 6.05546 12.0555 C 6.51093 11.6 7.07773 11.4144 7.70552 11.33 C 8.3003 11.25 9.04952 11.25 9.94801 11.25 H 14.052 C 14.9505 11.25 15.6997 11.25 16.2945 11.33 C 16.9223 11.4144 17.4891 11.6 17.9445 12.0555 C 18.4 12.511 18.5857 13.0778 18.6701 13.7056 C 18.7501 14.3004 18.75 15.0496 18.75 15.9481 V 21.2501 H 20.25 V 11.3472 C 20.25 10.7046 19.9752 10.0926 19.4948 9.66558 L 13.4948 4.33224 Z M21.75 21.2501 L22 21.2501 C22.4142 21.2501 22.75 21.5858 22.75 22.0001 C22.75 22.4143 22.4142 22.7501 22 22.7501 L2 22.7501 C1.58579 22.7501 1.25 22.4143 1.25 22.0001 C1.25 21.5858 1.58579 21.2501 2 21.2501 L2.25 21.2501 L2.25 11.3472 C2.25 10.2761 2.70805 9.25609 3.50864 8.54446 L9.50864 3.21113 C10.9295 1.94818 13.0705 1.94818 14.4914 3.21113 L20.4914 8.54446 C21.2919 9.25609 21.75 10.2761 21.75 11.3472 L21.75 21.2501 Z M 17.25 21.2501 V 16.0001 C 17.25 15.036 17.2484 14.3885 17.1835 13.9054 C 17.1214 13.444 17.0142 13.2465 16.8839 13.1162 C 16.7536 12.9859 16.5561 12.8786 16.0946 12.8166 C 15.6116 12.7516 14.964 12.7501 14 12.7501 H 10 C 9.03599 12.7501 8.38843 12.7516 7.90539 12.8166 C 7.44393 12.8786 7.24643 12.9859 7.11612 13.1162 C 6.9858 13.2465 6.87858 13.444 6.81654 13.9054 C 6.75159 14.3885 6.75 15.036 6.75 16.0001 V 21.2501 H 17.25 Z M 9.25 9.00005 C 9.25 8.58584 9.58579 8.25005 10 8.25005 H 14 C 14.4142 8.25005 14.75 8.58584 14.75 9.00005 C 14.75 9.41426 14.4142 9.75005 14 9.75005 H 10 C 9.58579 9.75005 9.25 9.41426 9.25 9.00005 Z M 8.25 15.5001 C 8.25 15.0858 8.58579 14.7501 9 14.7501 H 15 C 15.4142 14.7501 15.75 15.0858 15.75 15.5001 C 15.75 15.9143 15.4142 16.2501 15 16.2501 H 9 C 8.58579 16.2501 8.25 15.9143 8.25 15.5001 Z M 8.25 18.5001 C 8.25 18.0858 8.58579 17.7501 9 17.7501 H 15 C 15.4142 17.7501 15.75 18.0858 15.75 18.5001 C 15.75 18.9143 15.4142 19.25 15 19.25 H 9 C 8.58579 19.25 8.25 18.9143 8.25 18.5001 Z" fill="#FFFFFF" />
</svg>