<svg xmlns="http://www.w3.org/2000/svg" width="24" height="24" viewBox="0 0 24 24" fill="none">
  <path fill-rule="nonzero" clip-rule="nonzero" d="M10.0069 3.77169 C11.1436 2.76133 12.8564 2.76133 13.9931 3.77169 L19.9931 9.10502 C20.6336 9.67432 21 10.4903 21 11.3472 L21 21.2501 L22 21.2501 C22.4142 21.2501 22.75 21.5858 22.75 22.0001 C22.75 22.4143 22.4142 22.7501 22 22.7501 L2 22.7501 C1.58579 22.7501 1.25 22.4143 1.25 22.0001 C1.25 21.5858 1.58579 21.2501 2 21.2501 L3 21.2501 L3 11.3472 C3 10.4903 3.36644 9.67432 4.00691 9.10502 L10.0069 3.77169 Z M 10 8.25005 C 9.58579 8.25005 9.25 8.58584 9.25 9.00005 C 9.25 9.41426 9.58579 9.75005 10 9.75005 H 14 C 14.4142 9.75005 14.75 9.41426 14.75 9.00005 C 14.75 8.58584 14.4142 8.25005 14 8.25005 H 10 Z M14.052 11.25 L9.948 11.25 C9.04952 11.25 8.3003 11.25 7.70552 11.33 C7.07773 11.4144 6.51093 11.6 6.05546 12.0555 C5.59999 12.511 5.41432 13.0778 5.32991 13.7056 C5.24994 14.3004 5.24997 15.0496 5.25 15.9481 L5.25 21.2501 L6.75 21.2501 L17.25 21.2501 L18.75 21.2501 L18.75 15.9481 C18.75 15.0496 18.7501 14.3004 18.6701 13.7056 C18.5857 13.0778 18.4 12.511 17.9445 12.0555 C17.4891 11.6 16.9223 11.4144 16.2945 11.33 C15.6997 11.25 14.9505 11.25 14.052 11.25 Z" fill="#FFFFFF" />
  <path opacity="0.5" d="M14.052 11.25H9.948H9.94797C9.04952 11.25 8.30029 11.2499 7.70552 11.3299C7.07773 11.4143 6.51093 11.6 6.05546 12.0555C5.59999 12.5109 5.41432 13.0777 5.32991 13.7055C5.24995 14.3003 5.24997 15.0495 5.25 15.9479V15.9479L5.25 21.25H18.75L18.75 15.948C18.75 15.0496 18.7501 14.3003 18.6701 13.7055C18.5857 13.0777 18.4 12.5109 17.9445 12.0555C17.4891 11.6 16.9223 11.4143 16.2945 11.3299C15.6997 11.2499 14.9505 11.25 14.052 11.25H14.052Z" fill="#FFFFFF" />
  <path d="M9 14.75C8.58579 14.75 8.25 15.0858 8.25 15.5C8.25 15.9142 8.58579 16.25 9 16.25H15C15.4142 16.25 15.75 15.9142 15.75 15.5C15.75 15.0858 15.4142 14.75 15 14.75H9Z" fill="#FFFFFF" />
  <path d="M9 17.75C8.58579 17.75 8.25 18.0858 8.25 18.5C8.25 18.9142 8.58579 19.25 9 19.25H15C15.4142 19.25 15.75 18.9142 15.75 18.5C15.75 18.0858 15.4142 17.75 15 17.75H9Z" fill="#FFFFFF" />
</svg>