<svg xmlns="http://www.w3.org/2000/svg" width="24" height="24" viewBox="0 0 24 24" fill="none">
  <path fill-rule="nonzero" clip-rule="nonzero" d="M 10.948 1.25 H 13.052 C 13.9505 1.24997 14.6997 1.24995 15.2945 1.32991 C 15.9223 1.41432 16.4891 1.59999 16.9445 2.05546 C 17.4 2.51093 17.5857 3.07773 17.6701 3.70552 C 17.6928 3.87459 17.7091 4.05613 17.7207 4.25003 C 18.3101 4.25037 18.8084 4.25421 19.219 4.29599 C 19.6925 4.34415 20.1318 4.44886 20.5278 4.71346 C 20.8281 4.9141 21.0859 5.17191 21.2865 5.47218 C 21.5511 5.86818 21.6559 6.30755 21.704 6.78102 C 21.75 7.23336 21.75 7.79209 21.75 8.46168 V 21.25 H 22 C 22.4142 21.25 22.75 21.5858 22.75 22 C 22.75 22.4142 22.4142 22.75 22 22.75 H 2 C 1.58579 22.75 1.25 22.4142 1.25 22 C 1.25 21.5858 1.58579 21.25 2 21.25 H 2.25 L 2.25 8.46166 C 2.24998 7.79208 2.24997 7.23335 2.29598 6.78102 C 2.34415 6.30755 2.44886 5.86818 2.71346 5.47218 C 2.91409 5.17191 3.17191 4.9141 3.47218 4.71346 C 3.86818 4.44886 4.30755 4.34415 4.78102 4.29599 C 5.19165 4.25421 5.68995 4.25037 6.27927 4.25003 C 6.29091 4.05613 6.30718 3.87459 6.32991 3.70552 C 6.41432 3.07773 6.59999 2.51093 7.05546 2.05546 C 7.51093 1.59999 8.07773 1.41432 8.70552 1.32991 C 9.3003 1.24995 10.0495 1.24997 10.948 1.25 Z M 6.25003 5.75011 C 5.66742 5.75075 5.25586 5.75542 4.93283 5.78828 C 4.57796 5.82438 4.41399 5.8882 4.30554 5.96067 C 4.16905 6.05186 4.05186 6.16905 3.96066 6.30554 C 3.8882 6.41399 3.82438 6.57796 3.78828 6.93283 C 3.75091 7.30023 3.75 7.78216 3.75 8.5 V 21.25 H 6.25 V 14.75 H 5.5 C 5.08579 14.75 4.75 14.4142 4.75 14 C 4.75 13.5858 5.08579 13.25 5.5 13.25 H 6.25 V 11.75 H 5.5 C 5.08579 11.75 4.75 11.4142 4.75 11 C 4.75 10.5858 5.08579 10.25 5.5 10.25 H 6.25 V 8.75 H 5.5 C 5.08579 8.75 4.75 8.41422 4.75 8 C 4.75 7.58579 5.08579 7.25 5.5 7.25 H 6.25 L 6.25 5.94801 C 6.25 5.88122 6.24999 5.81525 6.25003 5.75011 Z M 7.75 21.25 H 11.25 V 19 C 11.25 18.5858 11.5858 18.25 12 18.25 C 12.4142 18.25 12.75 18.5858 12.75 19 V 21.25 H 16.25 V 6 C 16.25 5.03599 16.2484 4.38843 16.1835 3.90539 C 16.1214 3.44393 16.0142 3.24644 15.8839 3.11612 C 15.7536 2.9858 15.5561 2.87858 15.0946 2.81654 C 14.6116 2.7516 13.964 2.75 13 2.75 H 11 C 10.036 2.75 9.38843 2.7516 8.90539 2.81654 C 8.44393 2.87858 8.24643 2.9858 8.11612 3.11612 C 7.9858 3.24644 7.87858 3.44393 7.81654 3.90539 C 7.75159 4.38843 7.75 5.03599 7.75 6 V 21.25 Z M17.75 8.75 L17.75 10.25 L18.5 10.25 C18.9142 10.25 19.25 10.5858 19.25 11 C19.25 11.4142 18.9142 11.75 18.5 11.75 L17.75 11.75 L17.75 13.25 L18.5 13.25 C18.9142 13.25 19.25 13.5858 19.25 14 C19.25 14.4142 18.9142 14.75 18.5 14.75 L17.75 14.75 L17.75 21.25 L20.25 21.25 L20.25 8.5 C20.25 7.78216 20.2491 7.30023 20.2117 6.93283 C20.1756 6.57796 20.1118 6.41399 20.0393 6.30554 C19.9481 6.16905 19.8309 6.05186 19.6945 5.96067 C19.586 5.8882 19.422 5.82438 19.0672 5.78828 C18.7441 5.75542 18.3326 5.75075 17.75 5.75011 C17.75 5.81525 17.75 5.88122 17.75 5.94801 L17.75 7.25 L18.5 7.25 C18.9142 7.25 19.25 7.58579 19.25 8 C19.25 8.41422 18.9142 8.75 18.5 8.75 L17.75 8.75 Z M 12 4.25 C 12.4142 4.25 12.75 4.58579 12.75 5 V 6.25 H 14 C 14.4142 6.25 14.75 6.58579 14.75 7 C 14.75 7.41422 14.4142 7.75 14 7.75 H 12.75 V 9 C 12.75 9.41422 12.4142 9.75 12 9.75 C 11.5858 9.75 11.25 9.41422 11.25 9 V 7.75 H 10 C 9.58579 7.75 9.25 7.41422 9.25 7 C 9.25 6.58579 9.58579 6.25 10 6.25 H 11.25 V 5 C 11.25 4.58579 11.5858 4.25 12 4.25 Z M 9.25 12 C 9.25 11.5858 9.58579 11.25 10 11.25 H 14 C 14.4142 11.25 14.75 11.5858 14.75 12 C 14.75 12.4142 14.4142 12.75 14 12.75 H 10 C 9.58579 12.75 9.25 12.4142 9.25 12 Z M 9.25 15 C 9.25 14.5858 9.58579 14.25 10 14.25 H 14 C 14.4142 14.25 14.75 14.5858 14.75 15 C 14.75 15.4142 14.4142 15.75 14 15.75 H 10 C 9.58579 15.75 9.25 15.4142 9.25 15 Z" fill="#FFFFFF" />
</svg>