<svg xmlns="http://www.w3.org/2000/svg" width="24" height="24" viewBox="0 0 24 24" fill="none">
  <path fill-rule="nonzero" clip-rule="nonzero" d="M21.5 8.5 L21.5 21.25 L22 21.25 C22.4142 21.25 22.75 21.5858 22.75 22 C22.75 22.4142 22.4142 22.75 22 22.75 L2 22.75 C1.58579 22.75 1.25 22.4142 1.25 22 C1.25 21.5858 1.58579 21.25 2 21.25 L2.5 21.25 L2.5 8.5 C2.5 7.09554 2.5 6.39331 2.83706 5.88886 C2.98298 5.67048 3.17048 5.48298 3.38886 5.33706 C3.83008 5.04224 4.42262 5.00529 5.50403 5.00066 C5.49992 5.29206 5.49996 5.59655 5.49999 5.9105 L5.5 6 L5.5 7.25 L4.5 7.25 C4.08579 7.25 3.75 7.58579 3.75 8 C3.75 8.41421 4.08579 8.75 4.5 8.75 L5.5 8.75 L5.5 10.25 L4.5 10.25 C4.08579 10.25 3.75 10.5858 3.75 11 C3.75 11.4142 4.08579 11.75 4.5 11.75 L5.5 11.75 L5.5 13.25 L4.5 13.25 C4.08579 13.25 3.75 13.5858 3.75 14 C3.75 14.4142 4.08579 14.75 4.5 14.75 L5.5 14.75 L5.5 21.25 L7 21.25 L7 6 C7 4.11438 7 3.17157 7.58579 2.58579 C8.17157 2 9.11438 2 11 2 L13 2 C14.8856 2 15.8284 2 16.4142 2.58579 C17 3.17157 17 4.11438 17 6 L17 21.25 L18.5 21.25 L18.5 14.75 L19.5 14.75 C19.9142 14.75 20.25 14.4142 20.25 14 C20.25 13.5858 19.9142 13.25 19.5 13.25 L18.5 13.25 L18.5 11.75 L19.5 11.75 C19.9142 11.75 20.25 11.4142 20.25 11 C20.25 10.5858 19.9142 10.25 19.5 10.25 L18.5 10.25 L18.5 8.75 L19.5 8.75 C19.9142 8.75 20.25 8.41421 20.25 8 C20.25 7.58579 19.9142 7.25 19.5 7.25 L18.5 7.25 L18.5 6 L18.5 5.91051 C18.5 5.59655 18.5001 5.29206 18.496 5.00066 C19.5774 5.00529 20.1699 5.04224 20.6111 5.33706 C20.8295 5.48298 21.017 5.67048 21.1629 5.88886 C21.5 6.39331 21.5 7.09554 21.5 8.5 Z M12 4.25 C11.5858 4.25 11.25 4.58579 11.25 5 L11.25 6.25 L10 6.25 C9.58579 6.25 9.25 6.58579 9.25 7 C9.25 7.41421 9.58579 7.75 10 7.75 L11.25 7.75 L11.25 9 C11.25 9.41421 11.5858 9.75 12 9.75 C12.4142 9.75 12.75 9.41421 12.75 9 L12.75 7.75 L14 7.75 C14.4142 7.75 14.75 7.41421 14.75 7 C14.75 6.58579 14.4142 6.25 14 6.25 L12.75 6.25 L12.75 5 C12.75 4.58579 12.4142 4.25 12 4.25 Z M9.25 12 C9.25 12.4142 9.58579 12.75 10 12.75 L14 12.75 C14.4142 12.75 14.75 12.4142 14.75 12 C14.75 11.5858 14.4142 11.25 14 11.25 L10 11.25 C9.58579 11.25 9.25 11.5858 9.25 12 Z M9.25 15 C9.25 15.4142 9.58579 15.75 10 15.75 L14 15.75 C14.4142 15.75 14.75 15.4142 14.75 15 C14.75 14.5858 14.4142 14.25 14 14.25 L10 14.25 C9.58579 14.25 9.25 14.5858 9.25 15 Z M12 18.25 C11.5858 18.25 11.25 18.5858 11.25 19 L11.25 21.25 L12.75 21.25 L12.75 19 C12.75 18.5858 12.4142 18.25 12 18.25 Z" fill="#FFFFFF" />
</svg>