<svg xmlns="http://www.w3.org/2000/svg" width="24" height="24" viewBox="0 0 24 24" fill="none">
  <path fill-rule="nonzero" clip-rule="nonzero" d="M 16.25 3.75 V 5.43953 L 18.25 7.03953 V 3.75 H 16.25 Z M19.75 8.23953 L22.4685 10.4143 C22.792 10.6731 22.8444 11.1451 22.5857 11.4685 C22.3269 11.792 21.855 11.8444 21.5315 11.5857 L20.75 10.9605 L20.75 21.25 L22 21.25 C22.4142 21.25 22.75 21.5858 22.75 22 C22.75 22.4142 22.4142 22.75 22 22.75 L2.00003 22.75 C1.58581 22.75 1.25003 22.4142 1.25003 22 C1.25003 21.5858 1.58581 21.25 2.00003 21.25 L3.25003 21.25 L3.25003 10.9605 L2.46855 11.5857 C2.1451 11.8444 1.67313 11.792 1.41438 11.4685 C1.15562 11.1451 1.20806 10.6731 1.53151 10.4143 L9.65742 3.91362 C11.027 2.81796 12.9731 2.81796 14.3426 3.91362 L14.75 4.23953 L14.75 3.5 C14.75 2.80964 15.3097 2.25 16 2.25 L18.5 2.25 C19.1904 2.25 19.75 2.80964 19.75 3.5 L19.75 8.23953 Z M 19.25 9.76047 L 13.4056 5.08492 C 12.5838 4.42753 11.4162 4.42753 10.5945 5.08492 L 4.75003 9.76047 V 21.25 H 8.25003 L 8.25003 16.9506 C 8.24999 16.2858 8.24996 15.7129 8.31163 15.2542 C 8.37773 14.7625 8.52679 14.2913 8.90904 13.909 C 9.29128 13.5268 9.76255 13.3777 10.2542 13.3116 C 10.7129 13.2499 11.2858 13.25 11.9507 13.25 H 12.0494 C 12.7143 13.25 13.2871 13.2499 13.7459 13.3116 C 14.2375 13.3777 14.7088 13.5268 15.091 13.909 C 15.4733 14.2913 15.6223 14.7625 15.6884 15.2542 C 15.7501 15.7129 15.7501 16.2858 15.75 16.9506 L 15.75 21.25 H 19.25 V 9.76047 Z M 14.25 21.25 V 17 C 14.25 16.2717 14.2484 15.8009 14.2018 15.454 C 14.1581 15.1287 14.0875 15.0268 14.0304 14.9697 C 13.9733 14.9126 13.8713 14.842 13.546 14.7982 C 13.1991 14.7516 12.7283 14.75 12 14.75 C 11.2717 14.75 10.8009 14.7516 10.4541 14.7982 C 10.1288 14.842 10.0268 14.9126 9.9697 14.9697 C 9.9126 15.0268 9.84199 15.1287 9.79826 15.454 C 9.75162 15.8009 9.75003 16.2717 9.75003 17 V 21.25 H 14.25 Z M 12 8.25 C 11.3097 8.25 10.75 8.80964 10.75 9.5 C 10.75 10.1904 11.3097 10.75 12 10.75 C 12.6904 10.75 13.25 10.1904 13.25 9.5 C 13.25 8.80964 12.6904 8.25 12 8.25 Z M 9.25003 9.5 C 9.25003 7.98122 10.4812 6.75 12 6.75 C 13.5188 6.75 14.75 7.98122 14.75 9.5 C 14.75 11.0188 13.5188 12.25 12 12.25 C 10.4812 12.25 9.25003 11.0188 9.25003 9.5 Z" fill="#FFFFFF" />
</svg>