<svg xmlns="http://www.w3.org/2000/svg" width="24" height="24" viewBox="0 0 24 24" fill="none">
  <path d="M18.5 3H16C15.7239 3 15.5 3.22386 15.5 3.5V3.55891L19 6.35891V3.5C19 3.22386 18.7762 3 18.5 3Z" fill="#FFFFFF" />
  <path fill-rule="evenodd" clip-rule="evenodd" d="M10.75 9.5C10.75 8.80964 11.3097 8.25 12 8.25C12.6904 8.25 13.25 8.80964 13.25 9.5C13.25 10.1904 12.6904 10.75 12 10.75C11.3097 10.75 10.75 10.1904 10.75 9.5Z" fill="#FFFFFF" />
  <path fill-rule="nonzero" clip-rule="nonzero" d="M20.75 10.9605 L20.75 21.25 L22 21.25 C22.4142 21.25 22.75 21.5858 22.75 22 C22.75 22.4142 22.4142 22.75 22 22.75 L2.00003 22.75 C1.58581 22.75 1.25003 22.4142 1.25003 22 C1.25003 21.5858 1.58581 21.25 2.00003 21.25 L3.25003 21.25 L3.25003 10.9605 L2.46855 11.5857 C2.1451 11.8444 1.67313 11.792 1.41438 11.4685 C1.15562 11.1451 1.20806 10.6731 1.53151 10.4143 L9.65742 3.91362 C11.027 2.81796 12.9731 2.81796 14.3426 3.91362 L22.4685 10.4143 C22.792 10.6731 22.8444 11.1451 22.5857 11.4685 C22.3269 11.792 21.855 11.8444 21.5315 11.5857 L20.75 10.9605 Z M9.25003 9.5 C9.25003 11.0188 10.4812 12.25 12 12.25 C13.5188 12.25 14.75 11.0188 14.75 9.5 C14.75 7.98122 13.5188 6.75 12 6.75 C10.4812 6.75 9.25003 7.98122 9.25003 9.5 Z M12.0494 13.25 L11.9507 13.25 C11.2858 13.25 10.7129 13.2499 10.2542 13.3116 C9.76255 13.3777 9.29128 13.5268 8.90904 13.909 C8.52679 14.2913 8.37773 14.7625 8.31163 15.2542 C8.24996 15.7129 8.24999 16.2858 8.25003 16.9506 L8.25003 21.25 L9.75003 21.25 L9.75003 17 C9.75003 16.2717 9.75162 15.8009 9.79826 15.454 C9.84199 15.1287 9.9126 15.0268 9.9697 14.9697 C10.0268 14.9126 10.1288 14.842 10.4541 14.7982 C10.8009 14.7516 11.2717 14.75 12 14.75 C12.7283 14.75 13.1991 14.7516 13.546 14.7982 C13.8713 14.842 13.9733 14.9126 14.0304 14.9697 C14.0875 15.0268 14.1581 15.1287 14.2018 15.454 C14.2484 15.8009 14.25 16.2717 14.25 17 L14.25 21.25 L15.75 21.25 L15.75 16.9506 C15.75 16.9091 15.75 16.8679 15.75 16.827 C15.7498 16.2146 15.7462 15.6842 15.6884 15.2542 C15.6223 14.7625 15.4733 14.2913 15.091 13.909 C14.7088 13.5268 14.2375 13.3777 13.7459 13.3116 C13.2871 13.2499 12.7143 13.25 12.0494 13.25 Z" fill="#FFFFFF" />
  <path fill-rule="evenodd" clip-rule="evenodd" d="M10.75 9.5C10.75 8.80964 11.3097 8.25 12 8.25C12.6904 8.25 13.25 8.80964 13.25 9.5C13.25 10.1904 12.6904 10.75 12 10.75C11.3097 10.75 10.75 10.1904 10.75 9.5Z" fill="#FFFFFF" />
</svg>