<svg xmlns="http://www.w3.org/2000/svg" width="24" height="24" viewBox="0 0 24 24" fill="none">
  <path fill-rule="nonzero" clip-rule="nonzero" d="M6.87114 19.4986 C5.94144 18.9971 5.35117 18.0781 4.17061 16.24 L3.48981 15.18 C2.4966 13.6336 2 12.8604 2 12 C2 11.1396 2.4966 10.3664 3.48981 8.82001 L4.17061 7.76001 C5.35117 5.92191 5.94144 5.00286 6.87114 4.50143 C7.80085 4 8.91458 4 11.142 4 L13.779 4 C17.6544 4 19.5921 4 20.7961 5.17157 C22 6.34315 22 8.22876 22 12 C22 15.7712 22 17.6569 20.7961 18.8284 C19.5921 20 17.6544 20 13.779 20 L11.142 20 C8.91458 20 7.80085 20 6.87114 19.4986 Z M 11.0303 8.96967 C 10.7374 8.67678 10.2625 8.67678 9.96965 8.96967 C 9.67676 9.26256 9.67676 9.73744 9.96965 10.0303 L 11.9393 12 L 9.96967 13.9697 C 9.67678 14.2626 9.67678 14.7374 9.96967 15.0303 C 10.2626 15.3232 10.7374 15.3232 11.0303 15.0303 L 13 13.0607 L 14.9696 15.0303 C 15.2625 15.3232 15.7374 15.3232 16.0303 15.0303 C 16.3232 14.7374 16.3232 14.2625 16.0303 13.9697 L 14.0606 12 L 16.0303 10.0304 C 16.3232 9.73746 16.3232 9.26258 16.0303 8.96969 C 15.7374 8.6768 15.2625 8.6768 14.9696 8.96969 L 13 10.9394 L 11.0303 8.96967 Z" fill="#FFFFFF" />
</svg>