<svg xmlns="http://www.w3.org/2000/svg" width="24" height="24" viewBox="0 0 24 24" fill="none">
  <path fill-rule="nonzero" clip-rule="nonzero" d="M 12.8883 16.8959 C 12.3621 17.4222 11.9147 17.8697 11.5096 18.1788 C 11.078 18.508 10.6076 18.75 10.0318 18.75 C 9.45604 18.75 8.98563 18.508 8.55411 18.1788 C 8.149 17.8697 7.70155 17.4222 7.17534 16.8959 L 7.10407 16.8246 C 6.57782 16.2984 6.13033 15.851 5.82124 15.4459 C 5.492 15.0144 5.25 14.544 5.25 13.9682 C 5.25 13.3924 5.492 12.922 5.82124 12.4904 C 6.13032 12.0853 6.5778 11.6379 7.10405 11.1117 L 11.1117 7.10406 C 11.6379 6.57781 12.0853 6.13032 12.4904 5.82124 C 12.922 5.492 13.3924 5.25 13.9682 5.25 C 14.544 5.25 15.0144 5.492 15.4459 5.82124 C 15.851 6.13032 16.2984 6.57781 16.8246 7.10405 L 16.8959 7.17534 C 17.4222 7.70155 17.8697 8.149 18.1788 8.55411 C 18.508 8.98563 18.75 9.45604 18.75 10.0318 C 18.75 10.6076 18.508 11.078 18.1788 11.5096 C 17.8697 11.9147 17.4222 12.3621 16.8959 12.8883 L 12.8883 16.8959 Z M12.1367 8.20037 L9.51797 10.8191 L13.1809 14.482 L15.7996 11.8633 C16.3713 11.2916 16.7456 10.9151 16.9862 10.5997 C17.2137 10.3016 17.25 10.1478 17.25 10.0318 C17.25 9.91588 17.2137 9.76207 16.9862 9.46398 C16.7456 9.14858 16.3713 8.77204 15.7996 8.20037 C15.228 7.6287 14.8514 7.25442 14.536 7.01378 C14.2379 6.78634 14.0841 6.75 13.9682 6.75 C13.8522 6.75 13.6984 6.78634 13.4003 7.01378 C13.0849 7.25442 12.7084 7.6287 12.1367 8.20037 Z M8.45731 11.8798 L8.20037 12.1367 C7.6287 12.7084 7.25442 13.0849 7.01378 13.4003 C6.78634 13.6984 6.75 13.8522 6.75 13.9682 C6.75 14.0841 6.78634 14.2379 7.01378 14.536 C7.25442 14.8514 7.6287 15.228 8.20037 15.7996 C8.77204 16.3713 9.14858 16.7456 9.46398 16.9862 C9.76207 17.2137 9.91588 17.25 10.0318 17.25 C10.1478 17.25 10.3016 17.2137 10.5997 16.9862 C10.9151 16.7456 11.2916 16.3713 11.8633 15.7996 L12.1202 15.5427 L8.45731 11.8798 Z" fill="#FFFFFF" />
  <path fill-rule="nonzero" clip-rule="nonzero" d="M11.9426 1.25 L12.0574 1.25 C14.3658 1.24999 16.1748 1.24998 17.5863 1.43975 C19.031 1.63399 20.1711 2.03933 21.0659 2.93414 C21.9607 3.82895 22.366 4.96897 22.5603 6.41371 C22.75 7.82519 22.75 9.63423 22.75 11.9426 L22.75 12.0574 C22.75 14.3658 22.75 16.1748 22.5603 17.5863 C22.366 19.031 21.9607 20.1711 21.0659 21.0659 C20.1711 21.9607 19.031 22.366 17.5863 22.5603 C16.1748 22.75 14.3658 22.75 12.0574 22.75 L11.9426 22.75 C9.63423 22.75 7.82519 22.75 6.41371 22.5603 C4.96897 22.366 3.82895 21.9607 2.93414 21.0659 C2.03933 20.1711 1.63399 19.031 1.43975 17.5863 C1.24998 16.1748 1.24999 14.3658 1.25 12.0574 L1.25 11.9426 C1.24999 9.63423 1.24998 7.82519 1.43975 6.41371 C1.63399 4.96897 2.03933 3.82895 2.93414 2.93414 C3.82895 2.03933 4.96897 1.63399 6.41371 1.43975 C7.82519 1.24998 9.63423 1.24999 11.9426 1.25 Z M3.9948 3.9948 C3.42514 4.56445 3.09825 5.33517 2.92637 6.61358 C2.75159 7.91356 2.75 9.62178 2.75 12 C2.75 14.3782 2.75159 16.0864 2.92637 17.3864 C3.09825 18.6648 3.42514 19.4355 3.9948 20.0052 C4.56445 20.5749 5.33517 20.9018 6.61358 21.0736 C7.91356 21.2484 9.62178 21.25 12 21.25 C14.3782 21.25 16.0864 21.2484 17.3864 21.0736 C18.6648 20.9018 19.4355 20.5749 20.0052 20.0052 C20.5749 19.4355 20.9018 18.6648 21.0736 17.3864 C21.2484 16.0864 21.25 14.3782 21.25 12 C21.25 9.62178 21.2484 7.91356 21.0736 6.61358 C20.9018 5.33517 20.5749 4.56445 20.0052 3.9948 C19.4355 3.42514 18.6648 3.09825 17.3864 2.92637 C16.0864 2.75159 14.3782 2.75 12 2.75 C9.62178 2.75 7.91356 2.75159 6.61358 2.92637 C5.33517 3.09825 4.56445 3.42514 3.9948 3.9948 Z" fill="#FFFFFF" />
</svg>