<svg xmlns="http://www.w3.org/2000/svg" width="24" height="24" viewBox="0 0 24 24" fill="none">
  <path fill-rule="nonzero" clip-rule="nonzero" d="M 13.0828 19.0632 C 12.6389 19.5072 12.2399 19.9062 11.8725 20.25 H 21 C 21.4142 20.25 21.75 20.5858 21.75 21 C 21.75 21.4142 21.4142 21.75 21 21.75 H 9 C 8.98166 21.75 8.96347 21.7493 8.94546 21.748 C 8.24156 21.7211 7.64439 21.4169 7.05863 20.97 C 6.47124 20.5218 5.81539 19.866 5.01269 19.0632 L 4.93674 18.9873 C 4.13402 18.1846 3.47815 17.5288 3.03 16.9414 C 2.56159 16.3274 2.25 15.701 2.25 14.9522 C 2.25 14.2035 2.56159 13.577 3.03 12.9631 C 3.47816 12.3757 4.13402 11.7199 4.93674 10.9172 L 10.9172 4.93674 C 11.7199 4.13403 12.3757 3.47815 12.9631 3.03 C 13.577 2.56159 14.2035 2.25 14.9522 2.25 C 15.701 2.25 16.3274 2.56159 16.9414 3.03 C 17.5288 3.47816 18.1846 4.13402 18.9873 4.93674 L 19.0632 5.01269 C 19.866 5.81539 20.5218 6.47124 20.97 7.05863 C 21.4384 7.67256 21.75 8.29902 21.75 9.04776 C 21.75 9.79649 21.4384 10.423 20.97 11.0369 C 20.5219 11.6243 19.866 12.2801 19.0633 13.0827 L 13.0828 19.0632 Z M11.9399 6.03539 L7.74662 10.2287 L13.7713 16.2534 L17.9646 12.0601 C18.8146 11.2101 19.3977 10.6248 19.7775 10.127 C20.1441 9.64651 20.25 9.33665 20.25 9.04776 C20.25 8.75886 20.1441 8.449 19.7775 7.9685 C19.3977 7.47069 18.8146 6.88541 17.9646 6.03539 C17.1146 5.18538 16.5293 4.60235 16.0315 4.22253 C15.551 3.85592 15.2411 3.75 14.9522 3.75 C14.6633 3.75 14.3535 3.85592 13.873 4.22253 C13.3752 4.60235 12.7899 5.18538 11.9399 6.03539 Z M 9.04776 20.25 C 9.33665 20.25 9.64651 20.1441 10.127 19.7775 C 10.6248 19.3977 11.2101 18.8146 12.0601 17.9646 L 12.7107 17.314 L 6.68596 11.2893 L 6.03539 11.9399 C 5.18538 12.7899 4.60235 13.3752 4.22253 13.873 C 3.85592 14.3535 3.75 14.6633 3.75 14.9522 C 3.75 15.2411 3.85592 15.551 4.22253 16.0315 C 4.60235 16.5293 5.18538 17.1146 6.03539 17.9646 C 6.88541 18.8146 7.47069 19.3977 7.9685 19.7775 C 8.449 20.1441 8.75886 20.25 9.04776 20.25 Z" fill="#FFFFFF" />
</svg>