<svg xmlns="http://www.w3.org/2000/svg" width="24" height="24" viewBox="0 0 24 24" fill="none">
  <path fill-rule="nonzero" clip-rule="nonzero" d="M12 2 C17.5228 2 22 6.47715 22 12 C22 17.5228 17.5228 22 12 22 C6.47715 22 2 17.5228 2 12 C2 6.47715 6.47715 2 12 2 Z M11.6064 7.67004 L8.98781 10.2886 L13.7114 15.0122 L16.33 12.3936 C17.4433 11.2803 18 10.7236 18 10.0318 C18 9.34008 17.4433 8.7834 16.33 7.67004 C15.2166 6.55668 14.6599 6 13.9682 6 C13.2764 6 12.7197 6.55668 11.6064 7.67004 Z M7.92715 11.3493 L7.67004 11.6064 C6.55668 12.7197 6 13.2764 6 13.9682 C6 14.6599 6.55668 15.2166 7.67004 16.33 C8.7834 17.4433 9.34008 18 10.0318 18 C10.7236 18 11.2803 17.4433 12.3936 16.33 L12.6507 16.0729 L7.92715 11.3493 Z" fill="#FFFFFF" />
</svg>