<svg xmlns="http://www.w3.org/2000/svg" width="24" height="24" viewBox="0 0 24 24" fill="none">
  <path fill-rule="nonzero" clip-rule="nonzero" d="M3.46447 3.46447 C4.92893 2 7.28595 2 12 2 C16.714 2 19.0711 2 20.5355 3.46447 C22 4.92893 22 7.28595 22 12 C22 16.714 22 19.0711 20.5355 20.5355 C19.0711 22 16.714 22 12 22 C7.28595 22 4.92893 22 3.46447 20.5355 C2 19.0711 2 16.714 2 12 C2 7.28595 2 4.92893 3.46447 3.46447 Z M 8.98781 10.2886 L 13.7114 15.0122 L 16.33 12.3936 C 17.4433 11.2803 18 10.7236 18 10.0318 C 18 9.34008 17.4433 8.7834 16.33 7.67004 C 15.2166 6.55668 14.6599 6 13.9682 6 C 13.2764 6 12.7197 6.55668 11.6064 7.67004 L 8.98781 10.2886 Z M 12.3936 16.33 L 12.6507 16.0729 L 7.92715 11.3493 L 7.67004 11.6064 C 6.55668 12.7197 6 13.2764 6 13.9682 C 6 14.6599 6.55668 15.2166 7.67004 16.33 C 8.7834 17.4433 9.34008 18 10.0318 18 C 10.7236 18 11.2803 17.4433 12.3936 16.33 Z" fill="#FFFFFF" />
</svg>