<svg xmlns="http://www.w3.org/2000/svg" width="24" height="24" viewBox="0 0 24 24" fill="none">
  <path fill-rule="nonzero" clip-rule="nonzero" d="M3.46447 20.5355 C2 19.0711 2 16.714 2 12 C2 7.28595 2 4.92893 3.46447 3.46447 C4.92893 2 7.28595 2 12 2 C16.714 2 19.0711 2 20.5355 3.46447 C22 4.92893 22 7.28595 22 12 C22 16.714 22 19.0711 20.5355 20.5355 C19.0711 22 16.714 22 12 22 C7.28595 22 4.92893 22 3.46447 20.5355 Z M9.5 8.75 C9.91421 8.75 10.25 8.41421 10.25 8 C10.25 7.58579 9.91421 7.25 9.5 7.25 C6.87665 7.25 4.75 9.37665 4.75 12 C4.75 14.6234 6.87665 16.75 9.5 16.75 C12.1234 16.75 14.25 14.6234 14.25 12 C14.25 11.5858 13.9142 11.25 13.5 11.25 C13.0858 11.25 12.75 11.5858 12.75 12 C12.75 13.7949 11.2949 15.25 9.5 15.25 C7.70507 15.25 6.25 13.7949 6.25 12 C6.25 10.2051 7.70507 8.75 9.5 8.75 Z M 17.75 12 C 17.75 13.7949 16.2949 15.25 14.5 15.25 C 14.0858 15.25 13.75 15.5858 13.75 16 C 13.75 16.4142 14.0858 16.75 14.5 16.75 C 17.1234 16.75 19.25 14.6234 19.25 12 C 19.25 9.37665 17.1234 7.25 14.5 7.25 C 11.8766 7.25 9.75 9.37665 9.75 12 C 9.75 12.4142 10.0858 12.75 10.5 12.75 C 10.9142 12.75 11.25 12.4142 11.25 12 C 11.25 10.2051 12.7051 8.75 14.5 8.75 C 16.2949 8.75 17.75 10.2051 17.75 12 Z" fill="#FFFFFF" />
</svg>