<svg xmlns="http://www.w3.org/2000/svg" width="24" height="24" viewBox="0 0 24 24" fill="none">
  <path fill-rule="nonzero" clip-rule="nonzero" d="M 12 22 C 7.28595 22 4.92893 22 3.46447 20.5355 C 2 19.0711 2 16.714 2 12 C 2 7.28595 2 4.92893 3.46447 3.46447 C 4.92893 2 7.28595 2 12 2 C 16.714 2 19.0711 2 20.5355 3.46447 C 22 4.92893 22 7.28595 22 12 C 22 16.714 22 19.0711 20.5355 20.5355 C 19.0711 22 16.714 22 12 22 Z M9.198 7.25 C8.29954 7.24997 7.55029 7.24995 6.95552 7.32991 C6.32773 7.41432 5.76093 7.59999 5.30546 8.05546 C4.84999 8.51093 4.66432 9.07773 4.57991 9.70552 C4.49995 10.3003 4.49997 11.0495 4.5 11.948 L4.5 12.052 C4.49997 12.9505 4.49995 13.6997 4.57991 14.2945 C4.66432 14.9223 4.84999 15.4891 5.30546 15.9445 C5.76093 16.4 6.32773 16.5857 6.95552 16.6701 C7.5503 16.7501 8.29951 16.75 9.19798 16.75 L9.25 16.75 C9.66422 16.75 10 16.4142 10 16 C10 15.5858 9.66422 15.25 9.25 15.25 C8.28599 15.25 7.63843 15.2484 7.15539 15.1835 C6.69393 15.1214 6.49644 15.0142 6.36612 14.8839 C6.2358 14.7536 6.12858 14.5561 6.06654 14.0946 C6.0016 13.6116 6 12.964 6 12 C6 11.036 6.0016 10.3884 6.06654 9.9054 C6.12858 9.44393 6.2358 9.24644 6.36612 9.11612 C6.49644 8.9858 6.69393 8.87858 7.15539 8.81654 C7.63843 8.7516 8.28599 8.75 9.25 8.75 C10.214 8.75 10.8616 8.7516 11.3446 8.81654 C11.8061 8.87858 12.0036 8.9858 12.1339 9.11612 C12.2642 9.24644 12.3714 9.44393 12.4335 9.9054 C12.4984 10.3884 12.5 11.036 12.5 12 C12.5 12.4142 12.8358 12.75 13.25 12.75 C13.6642 12.75 14 12.4142 14 12 L14 11.948 C14 11.0495 14.0001 10.3003 13.9201 9.70552 C13.8357 9.07773 13.65 8.51093 13.1945 8.05546 C12.7391 7.59999 12.1723 7.41432 11.5445 7.32991 C10.9497 7.24995 10.2005 7.24997 9.30203 7.25 L9.198 7.25 Z M16.8446 8.81654 C17.3061 8.87858 17.5036 8.9858 17.6339 9.11612 C17.7642 9.24644 17.8714 9.44393 17.9335 9.9054 C17.9984 10.3884 18 11.036 18 12 C18 12.964 17.9984 13.6116 17.9335 14.0946 C17.8714 14.5561 17.7642 14.7536 17.6339 14.8839 C17.5036 15.0142 17.3061 15.1214 16.8446 15.1835 C16.3616 15.2484 15.714 15.25 14.75 15.25 C13.786 15.25 13.1384 15.2484 12.6554 15.1835 C12.1939 15.1214 11.9964 15.0142 11.8661 14.8839 C11.7358 14.7536 11.6286 14.5561 11.5665 14.0946 C11.5016 13.6116 11.5 12.964 11.5 12 C11.5 11.5858 11.1642 11.25 10.75 11.25 C10.3358 11.25 10 11.5858 10 12 L10 12.052 C9.99997 12.9505 9.99995 13.6997 10.0799 14.2945 C10.1643 14.9223 10.35 15.4891 10.8055 15.9445 C11.2609 16.4 11.8277 16.5857 12.4555 16.6701 C13.0503 16.7501 13.7995 16.75 14.698 16.75 L14.802 16.75 C15.7005 16.75 16.4497 16.7501 17.0445 16.6701 C17.6723 16.5857 18.2391 16.4 18.6945 15.9445 C19.15 15.4891 19.3357 14.9223 19.4201 14.2945 C19.5001 13.6997 19.5 12.9505 19.5 12.052 L19.5 11.9479 C19.5 11.0495 19.5001 10.3003 19.4201 9.70552 C19.3357 9.07773 19.15 8.51093 18.6945 8.05546 C18.2391 7.59999 17.6723 7.41432 17.0445 7.32991 C16.4497 7.24995 15.7005 7.24997 14.802 7.25 L14.75 7.25 C14.3358 7.25 14 7.58579 14 8 C14 8.41422 14.3358 8.75 14.75 8.75 C15.714 8.75 16.3616 8.7516 16.8446 8.81654 Z" fill="#FFFFFF" />
</svg>