<svg xmlns="http://www.w3.org/2000/svg" width="24" height="24" viewBox="0 0 24 24" fill="none">
  <path fill-rule="nonzero" clip-rule="nonzero" d="M7.6087 1.25 L12 1.25 C15.1756 1.25 17.75 3.82436 17.75 7 C17.75 8.80946 16.9142 10.4237 15.6076 11.4777 C18.0008 12.1732 19.75 14.3824 19.75 17 C19.75 20.1756 17.1756 22.75 14 22.75 L7.05882 22.75 C5.50755 22.75 4.25 21.4924 4.25 19.9412 L4.25 4.6087 C4.25 2.75374 5.75374 1.25 7.6087 1.25 Z M 12 11.25 C 14.3472 11.25 16.25 9.34721 16.25 7 C 16.25 4.65279 14.3472 2.75 12 2.75 H 7.6087 C 6.58217 2.75 5.75 3.58217 5.75 4.6087 V 11.25 H 12 Z M 5.75 12.75 V 19.9412 C 5.75 20.664 6.33598 21.25 7.05882 21.25 H 14 C 16.3472 21.25 18.25 19.3472 18.25 17 C 18.25 14.6528 16.3472 12.75 14 12.75 H 5.75 Z" fill="#FFFFFF" />
</svg>