<svg xmlns="http://www.w3.org/2000/svg" width="24" height="24" viewBox="0 0 24 24" fill="none">
  <path fill-rule="nonzero" clip-rule="nonzero" d="M 2 12 C 2 6.47715 6.47715 2 12 2 C 17.5228 2 22 6.47715 22 12 C 22 17.5228 17.5228 22 12 22 C 6.47715 22 2 17.5228 2 12 Z M7.25 17 C7.25 17.4142 7.58579 17.75 8 17.75 L16 17.75 C16.4142 17.75 16.75 17.4142 16.75 17 C16.75 16.5858 16.4142 16.25 16 16.25 L8 16.25 C7.58579 16.25 7.25 16.5858 7.25 17 Z M 8.75 7 C 8.75 6.58579 8.41421 6.25 8 6.25 C 7.58579 6.25 7.25 6.58579 7.25 7 V 10 C 7.25 12.6234 9.37665 14.75 12 14.75 C 14.6234 14.75 16.75 12.6234 16.75 10 V 7 C 16.75 6.58579 16.4142 6.25 16 6.25 C 15.5858 6.25 15.25 6.58579 15.25 7 V 10 C 15.25 11.7949 13.7949 13.25 12 13.25 C 10.2051 13.25 8.75 11.7949 8.75 10 V 7 Z" fill="#FFFFFF" />
</svg>