<svg xmlns="http://www.w3.org/2000/svg" width="24" height="24" viewBox="0 0 24 24" fill="none">
  <path d="M9 8.25C8.58579 8.25 8.25 8.58579 8.25 9C8.25 9.41421 8.58579 9.75 9 9.75H11.25L11.25 15C11.25 15.4142 11.5858 15.75 12 15.75C12.4142 15.75 12.75 15.4142 12.75 15L12.75 9.75H15C15.4142 9.75 15.75 9.41421 15.75 9C15.75 8.58579 15.4142 8.25 15 8.25H9Z" fill="#FFFFFF" />
  <path fill-rule="nonzero" clip-rule="nonzero" d="M 3.25 6.64648 C 2.09575 6.32002 1.25 5.25878 1.25 4 C 1.25 2.48122 2.48122 1.25 4 1.25 C 5.25878 1.25 6.32002 2.09575 6.64648 3.25 H 17.3535 C 17.68 2.09575 18.7412 1.25 20 1.25 C 21.5188 1.25 22.75 2.48122 22.75 4 C 22.75 5.25878 21.9043 6.32002 20.75 6.64648 V 17.3535 C 21.9043 17.68 22.75 18.7412 22.75 20 C 22.75 21.5188 21.5188 22.75 20 22.75 C 18.7412 22.75 17.68 21.9043 17.3535 20.75 H 6.64648 C 6.32002 21.9043 5.25878 22.75 4 22.75 C 2.48122 22.75 1.25 21.5188 1.25 20 C 1.25 18.7412 2.09575 17.68 3.25 17.3535 L 3.25 6.64648 Z M 4 2.75 C 3.30964 2.75 2.75 3.30964 2.75 4 C 2.75 4.69036 3.30964 5.25 4 5.25 C 4.69036 5.25 5.25 4.69036 5.25 4 C 5.25 3.30964 4.69036 2.75 4 2.75 Z M4.75 17.3535 C5.66584 17.6125 6.38745 18.3342 6.64648 19.25 L17.3535 19.25 C17.6125 18.3342 18.3342 17.6125 19.25 17.3535 L19.25 6.64648 C18.3342 6.38745 17.6125 5.66584 17.3535 4.75 L6.64648 4.75 C6.38745 5.66584 5.66584 6.38745 4.75 6.64648 L4.75 17.3535 Z M 4 18.75 C 3.30964 18.75 2.75 19.3096 2.75 20 C 2.75 20.6904 3.30964 21.25 4 21.25 C 4.69036 21.25 5.25 20.6904 5.25 20 C 5.25 19.3096 4.69036 18.75 4 18.75 Z M21.25 4 C21.25 3.30964 20.6904 2.75 20 2.75 C19.3096 2.75 18.75 3.30964 18.75 4 C18.75 4.69036 19.3096 5.25 20 5.25 C20.6904 5.25 21.25 4.69036 21.25 4 Z M18.75 20 C18.75 20.6904 19.3096 21.25 20 21.25 C20.6904 21.25 21.25 20.6904 21.25 20 C21.25 19.3096 20.6904 18.75 20 18.75 C19.3096 18.75 18.75 19.3096 18.75 20 Z" fill="#FFFFFF" />
</svg>