<svg xmlns="http://www.w3.org/2000/svg" width="24" height="24" viewBox="0 0 24 24" fill="none">
  <path fill-rule="nonzero" clip-rule="nonzero" d="M12 2 C17.5228 2 22 6.47715 22 12 C22 17.5228 17.5228 22 12 22 C6.47715 22 2 17.5228 2 12 C2 6.47715 6.47715 2 12 2 Z M10.6667 6.25 C10.2525 6.25 9.91667 6.58579 9.91667 7 C9.91667 7.41421 10.2525 7.75 10.6667 7.75 L12.3571 7.75 L10.0905 16.25 L8 16.25 C7.58579 16.25 7.25 16.5858 7.25 17 C7.25 17.4142 7.58579 17.75 8 17.75 L10.6505 17.75 C10.6616 17.7502 10.6727 17.7502 10.6838 17.75 L13.3333 17.75 C13.7475 17.75 14.0833 17.4142 14.0833 17 C14.0833 16.5858 13.7475 16.25 13.3333 16.25 L11.6429 16.25 L13.9095 7.75 L16 7.75 C16.4142 7.75 16.75 7.41421 16.75 7 C16.75 6.58579 16.4142 6.25 16 6.25 L13.3495 6.25 C13.3384 6.24975 13.3273 6.24975 13.3162 6.25 L10.6667 6.25 Z" fill="#FFFFFF" />
</svg>