<svg xmlns="http://www.w3.org/2000/svg" width="24" height="24" viewBox="0 0 24 24" fill="none">
  <path fill-rule="nonzero" clip-rule="nonzero" d="M 7.25 7.52174 C 7.25 6.26709 8.26709 5.25 9.52174 5.25 H 12 C 14.0711 5.25 15.75 6.92893 15.75 9 C 15.75 10.029 15.3356 10.9612 14.6645 11.6387 C 15.9004 12.2519 16.75 13.5268 16.75 15 C 16.75 17.0711 15.0711 18.75 13 18.75 H 9.17647 C 8.11251 18.75 7.25 17.8875 7.25 16.8235 V 7.52174 Z M 8.75 11.25 H 12 C 13.2426 11.25 14.25 10.2426 14.25 9 C 14.25 7.75736 13.2426 6.75 12 6.75 H 9.52174 C 9.09552 6.75 8.75 7.09552 8.75 7.52174 V 11.25 Z M 8.75 12.75 V 16.8235 C 8.75 17.0591 8.94094 17.25 9.17647 17.25 H 13 C 14.2426 17.25 15.25 16.2426 15.25 15 C 15.25 13.7574 14.2426 12.75 13 12.75 H 8.75 Z" fill="#FFFFFF" />
  <path fill-rule="nonzero" clip-rule="nonzero" d="M 1.25 12 C 1.25 6.06294 6.06294 1.25 12 1.25 C 17.9371 1.25 22.75 6.06294 22.75 12 C 22.75 17.9371 17.9371 22.75 12 22.75 C 6.06294 22.75 1.25 17.9371 1.25 12 Z M 12 2.75 C 6.89137 2.75 2.75 6.89137 2.75 12 C 2.75 17.1086 6.89137 21.25 12 21.25 C 17.1086 21.25 21.25 17.1086 21.25 12 C 21.25 6.89137 17.1086 2.75 12 2.75 Z" fill="#FFFFFF" />
</svg>