<svg xmlns="http://www.w3.org/2000/svg" width="24" height="24" viewBox="0 0 24 24" fill="none">
  <path fill-rule="nonzero" clip-rule="nonzero" d="M12 2 C17.5228 2 22 6.47715 22 12 C22 17.5228 17.5228 22 12 22 C6.47715 22 2 17.5228 2 12 C2 6.47715 6.47715 2 12 2 Z M 9.95197 6.25 C 9.52211 6.24993 9.12024 6.24986 8.79192 6.29891 C 8.42102 6.35432 8.04 6.4853 7.73542 6.82371 C 7.44103 7.15082 7.3371 7.54061 7.29204 7.91294 C 7.24993 8.26096 7.24996 8.69238 7.25 9.17954 L 7.25 9.22222 C 7.25 9.63644 7.58579 9.97222 8 9.97222 C 8.41421 9.97222 8.75 9.63644 8.75 9.22222 C 8.75 8.67931 8.75129 8.34011 8.78118 8.09313 C 8.7952 7.97725 8.81273 7.91048 8.8269 7.87221 C 8.83885 7.83993 8.84739 7.83046 8.85023 7.82731 L 8.85104 7.82637 C 8.8524 7.82473 8.8534 7.82353 8.86242 7.8194 C 8.87904 7.8118 8.92168 7.79617 9.01354 7.78245 C 9.21765 7.75196 9.50511 7.75 10 7.75 H 11.25 V 9.5 C 11.25 9.91421 11.5858 10.25 12 10.25 C 12.4142 10.25 12.75 9.91421 12.75 9.5 V 7.75 H 14 C 14.4949 7.75 14.7824 7.75196 14.9865 7.78245 C 15.0783 7.79617 15.121 7.8118 15.1376 7.8194 C 15.1466 7.82353 15.1476 7.82473 15.149 7.82637 L 15.1496 7.82716 C 15.1525 7.83031 15.1611 7.83993 15.1731 7.87221 C 15.1873 7.91048 15.2048 7.97725 15.2188 8.09313 C 15.2487 8.34011 15.25 8.67931 15.25 9.22222 C 15.25 9.63644 15.5858 9.97222 16 9.97222 C 16.4142 9.97222 16.75 9.63644 16.75 9.22222 L 16.75 9.17953 C 16.75 8.69238 16.7501 8.26096 16.708 7.91294 C 16.6629 7.54061 16.559 7.15082 16.2646 6.82371 C 15.96 6.4853 15.579 6.35432 15.2081 6.29891 C 14.8798 6.24986 14.4779 6.24993 14.048 6.25 H 9.95197 Z M 8 11.25 C 7.58579 11.25 7.25 11.5858 7.25 12 C 7.25 12.4142 7.58579 12.75 8 12.75 H 16 C 16.4142 12.75 16.75 12.4142 16.75 12 C 16.75 11.5858 16.4142 11.25 16 11.25 H 8 Z M 12.75 14.5 C 12.75 14.0858 12.4142 13.75 12 13.75 C 11.5858 13.75 11.25 14.0858 11.25 14.5 V 16.25 H 9.5 C 9.08579 16.25 8.75 16.5858 8.75 17 C 8.75 17.4142 9.08579 17.75 9.5 17.75 H 14.5 C 14.9142 17.75 15.25 17.4142 15.25 17 C 15.25 16.5858 14.9142 16.25 14.5 16.25 H 12.75 V 14.5 Z" fill="#FFFFFF" />
</svg>