<svg xmlns="http://www.w3.org/2000/svg" width="24" height="24" viewBox="0 0 24 24" fill="none">
  <path fill-rule="nonzero" clip-rule="nonzero" d="M3.17157 5.17157 C4.34315 4 6.22876 4 10 4 L14 4 C17.7712 4 19.6569 4 20.8284 5.17157 C22 6.34315 22 8.22876 22 12 C22 15.7712 22 17.6569 20.8284 18.8284 C19.6569 20 17.7712 20 14 20 L10 20 C6.22876 20 4.34315 20 3.17157 18.8284 C2 17.6569 2 15.7712 2 12 C2 8.22876 2 6.34315 3.17157 5.17157 Z M6.81782 7.78733 C6.48915 7.82833 6.13878 7.9242 5.83756 8.19187 C5.78618 8.23753 5.73753 8.28618 5.69187 8.33756 C5.4242 8.63878 5.32833 8.98915 5.28733 9.31782 C5.24992 9.61779 5.24996 9.98428 5.25 10.3838 L5.25001 10.425 C5.25001 10.8392 5.58579 11.175 6.00001 11.175 C6.41422 11.175 6.75001 10.8392 6.75001 10.425 C6.75001 9.97047 6.75137 9.69931 6.7758 9.50348 C6.80023 9.30765 7.00348 9.2758 7.00348 9.2758 C7.19931 9.25137 7.47047 9.25001 7.925 9.25001 L8.25001 9.25001 L8.25001 14.75 L7.00001 14.75 C6.58579 14.75 6.25001 15.0858 6.25001 15.5 C6.25001 15.9142 6.58579 16.25 7.00001 16.25 L11 16.25 C11.4142 16.25 11.75 15.9142 11.75 15.5 C11.75 15.0858 11.4142 14.75 11 14.75 L9.75001 14.75 L9.75001 9.25001 L10.075 9.25001 C10.5295 9.25001 10.8007 9.25137 10.9965 9.2758 C10.9965 9.2758 11.1998 9.30765 11.2242 9.50348 C11.2486 9.69931 11.25 9.97047 11.25 10.425 C11.25 10.8392 11.5858 11.175 12 11.175 C12.4142 11.175 12.75 10.8392 12.75 10.425 L12.75 10.3838 C12.7501 9.98428 12.7501 9.61779 12.7127 9.31782 C12.6717 8.98915 12.5758 8.63878 12.3081 8.33756 C12.2625 8.28618 12.2138 8.23753 12.1624 8.19187 C11.8612 7.9242 11.5109 7.82833 11.1822 7.78733 C10.8822 7.74992 10.5157 7.74996 10.1162 7.75 L7.88383 7.75 C7.48429 7.74996 7.11779 7.74992 6.81782 7.78733 Z" fill="#FFFFFF" />
</svg>