<svg xmlns="http://www.w3.org/2000/svg" width="24" height="24" viewBox="0 0 24 24" fill="none">
  <path fill-rule="nonzero" clip-rule="nonzero" d="M 9 1.00002 H 14.9768 C 14.992 0.999669 15.0072 0.999667 15.0225 1.00002 H 21 C 21.5523 1.00002 22 1.44773 22 2.00002 C 22 2.5523 21.5523 3.00002 21 3.00002 H 15.744 H 13.656 H 9 C 8.44772 3.00002 8 2.5523 8 2.00002 C 8 1.44773 8.44772 1.00002 9 1.00002 Z M8.25597 21 L10.344 21 L15 21 C15.5523 21 16 21.4477 16 22 C16 22.5523 15.5523 23 15 23 L9.02325 23 C9.00805 23.0004 8.99281 23.0004 8.97753 23 L3 23 C2.44772 23 2 22.5523 2 22 C2 21.4477 2.44772 21 3 21 L8.25597 21 Z" fill="#FFFFFF" />
  <path opacity="0.5" d="M13.6559 3L8.25586 21H10.3439L15.7439 3H13.6559Z" fill="#FFFFFF" />
</svg>