<svg xmlns="http://www.w3.org/2000/svg" width="24" height="24" viewBox="0 0 24 24" fill="none">
  <path fill-rule="nonzero" clip-rule="nonzero" d="M7.6087 1 L12 1 C15.3137 1 18 3.68629 18 7 C18 8.72715 17.2702 10.2839 16.1022 11.3786 C18.3791 12.2304 20 14.4259 20 17 C20 20.3137 17.3137 23 14 23 L7.05882 23 C5.36948 23 4 21.6305 4 19.9412 L4 4.6087 C4 2.61567 5.61567 1 7.6087 1 Z M 12 11 C 14.2091 11 16 9.20914 16 7 C 16 4.79086 14.2091 3 12 3 H 7.6087 C 6.72024 3 6 3.72024 6 4.6087 V 11 H 12 Z M 6 13 V 19.9412 C 6 20.5259 6.47405 21 7.05882 21 H 14 C 16.2091 21 18 19.2091 18 17 C 18 14.7909 16.2091 13 14 13 H 6 Z" fill="#FFFFFF" />
</svg>