<svg xmlns="http://www.w3.org/2000/svg" width="24" height="24" viewBox="0 0 24 24" fill="none">
  <path fill-rule="nonzero" clip-rule="nonzero" d="M14.4672 2.0002 C16.9518 2.05713 18.7224 2.27987 19.9628 3.52277 L19.9701 3.53001 L19.9772 3.53716 C21.2201 4.77756 21.4429 6.54819 21.4998 9.03283 C21.5011 9.08952 21.4961 9.14488 21.4854 9.19825 C21.4873 9.29746 21.489 9.39804 21.4904 9.5 L19.75 9.5 C18.5074 9.5 17.5 10.5074 17.5 11.75 C17.5 12.9926 18.5074 14 19.75 14 L21.4904 14 C21.489 14.102 21.4873 14.2026 21.4854 14.3018 C21.4961 14.3552 21.5011 14.4105 21.4998 14.4672 C21.4429 16.9518 21.2201 18.7224 19.9772 19.9628 L19.9699 19.9702 L19.9628 19.9772 C18.7224 21.2201 16.9518 21.4429 14.4672 21.4998 C14.4105 21.5011 14.3552 21.4961 14.3018 21.4854 C13.5511 21.5 12.7218 21.5 11.8069 21.5 L11.6931 21.5 C10.7782 21.5 9.94894 21.5 9.19825 21.4854 C9.14488 21.4961 9.08952 21.5011 9.03283 21.4998 C6.54818 21.4429 4.77756 21.2201 3.53716 19.9772 L3.52997 19.97 L3.52277 19.9628 C2.27987 18.7224 2.05713 16.9518 2.0002 14.4672 C1.9989 14.4105 2.00393 14.3552 2.01464 14.3018 C2.0127 14.2026 2.01102 14.102 2.00956 14 L3.75 14 C4.99264 14 6 12.9926 6 11.75 C6 10.5074 4.99264 9.5 3.75 9.5 L2.00956 9.5 C2.01102 9.39804 2.0127 9.29746 2.01464 9.19825 C2.00393 9.14488 1.9989 9.08952 2.0002 9.03283 C2.05712 6.54819 2.27987 4.77756 3.52277 3.53716 L3.52979 3.53017 L3.53716 3.52277 C4.77756 2.27987 6.54819 2.05713 9.03282 2.0002 C9.08952 1.9989 9.14488 2.00393 9.19825 2.01464 C9.94895 1.99999 10.7782 2 11.6932 2 L11.8069 2 C12.7218 2 13.5511 1.99999 14.3018 2.01464 C14.3551 2.00393 14.4105 1.9989 14.4672 2.0002 Z M 7.75 7 C 7.33579 7 7 7.33579 7 7.75 C 7 8.16421 7.33579 8.5 7.75 8.5 H 11 V 15.75 C 11 16.1642 11.3358 16.5 11.75 16.5 C 12.1642 16.5 12.5 16.1642 12.5 15.75 V 8.5 H 15.75 C 16.1642 8.5 16.5 8.16421 16.5 7.75 C 16.5 7.33579 16.1642 7 15.75 7 H 7.75 Z" fill="#FFFFFF" />
  <path d="M19 11.75C19 11.3358 19.3358 11 19.75 11H21.75C22.1642 11 22.5 11.3358 22.5 11.75C22.5 12.1642 22.1642 12.5 21.75 12.5H19.75C19.3358 12.5 19 12.1642 19 11.75Z" fill="#FFFFFF" />
  <path d="M1.75 11C1.33579 11 1 11.3358 1 11.75C1 12.1642 1.33579 12.5 1.75 12.5H3.75C4.16421 12.5 4.5 12.1642 4.5 11.75C4.5 11.3358 4.16421 11 3.75 11H1.75Z" fill="#FFFFFF" />
</svg>