<svg xmlns="http://www.w3.org/2000/svg" width="24" height="24" viewBox="0 0 24 24" fill="none">
  <path d="M8.75 11.25H12C13.2426 11.25 14.25 10.2426 14.25 9C14.25 7.75736 13.2426 6.75 12 6.75H9.52174C9.09552 6.75 8.75 7.09552 8.75 7.52174V11.25Z" fill="#FFFFFF" />
  <path d="M8.75 12.75V16.8235C8.75 17.0591 8.94094 17.25 9.17647 17.25H13C14.2426 17.25 15.25 16.2426 15.25 15C15.25 13.7574 14.2426 12.75 13 12.75H8.75Z" fill="#FFFFFF" />
  <path fill-rule="nonzero" clip-rule="nonzero" d="M 2 12 C 2 6.47715 6.47715 2 12 2 C 17.5228 2 22 6.47715 22 12 C 22 17.5228 17.5228 22 12 22 C 6.47715 22 2 17.5228 2 12 Z M7.25 7.52174 L7.25 16.8235 C7.25 17.8875 8.11251 18.75 9.17647 18.75 L13 18.75 C15.0711 18.75 16.75 17.0711 16.75 15 C16.75 13.5268 15.9004 12.2519 14.6645 11.6387 C15.3356 10.9612 15.75 10.029 15.75 9 C15.75 6.92893 14.0711 5.25 12 5.25 L9.52174 5.25 C8.26709 5.25 7.25 6.26709 7.25 7.52174 Z" fill="#FFFFFF" />
</svg>