<svg xmlns="http://www.w3.org/2000/svg" width="24" height="24" viewBox="0 0 24 24" fill="none">
  <path fill-rule="nonzero" clip-rule="nonzero" d="M3.46447 3.46447 C4.92893 2 7.28595 2 12 2 C16.714 2 19.0711 2 20.5355 3.46447 C22 4.92893 22 7.28595 22 12 C22 16.714 22 19.0711 20.5355 20.5355 C19.0711 22 16.714 22 12 22 C7.28595 22 4.92893 22 3.46447 20.5355 C2 19.0711 2 16.714 2 12 C2 7.28595 2 4.92893 3.46447 3.46447 Z M 9.95197 6.25 C 9.52211 6.24993 9.12024 6.24986 8.79192 6.29891 C 8.42102 6.35432 8.04 6.4853 7.73542 6.82371 C 7.44103 7.15082 7.3371 7.54061 7.29204 7.91294 C 7.24993 8.26096 7.24996 8.69238 7.25 9.17954 L 7.25 9.75 C 7.25 10.1642 7.58579 10.5 8 10.5 C 8.41421 10.5 8.75 10.1642 8.75 9.75 V 9.22222 C 8.75 8.67931 8.75129 8.34011 8.78118 8.09313 C 8.7952 7.97725 8.81273 7.91048 8.8269 7.87221 C 8.83885 7.83993 8.84739 7.83046 8.85023 7.82731 L 8.85104 7.82637 C 8.8524 7.82473 8.8534 7.82353 8.86242 7.8194 C 8.87904 7.8118 8.92168 7.79617 9.01354 7.78245 C 9.21765 7.75196 9.50511 7.75 10 7.75 H 11.25 V 16.25 H 9.5 C 9.08579 16.25 8.75 16.5858 8.75 17 C 8.75 17.4142 9.08579 17.75 9.5 17.75 H 15 C 15.4142 17.75 15.75 17.4142 15.75 17 C 15.75 16.5858 15.4142 16.25 15 16.25 H 12.75 V 7.75 H 14 C 14.4949 7.75 14.7824 7.75196 14.9865 7.78245 C 15.0783 7.79617 15.121 7.8118 15.1376 7.8194 C 15.1466 7.82353 15.1476 7.82473 15.149 7.82637 L 15.1496 7.82716 C 15.1525 7.83031 15.1611 7.83993 15.1731 7.87221 C 15.1873 7.91048 15.2048 7.97725 15.2188 8.09313 C 15.2487 8.34011 15.25 8.67931 15.25 9.22222 V 9.75 C 15.25 10.1642 15.5858 10.5 16 10.5 C 16.4142 10.5 16.75 10.1642 16.75 9.75 L 16.75 9.17953 C 16.75 8.69238 16.7501 8.26096 16.708 7.91294 C 16.6629 7.54061 16.559 7.15082 16.2646 6.82371 C 15.96 6.4853 15.579 6.35432 15.2081 6.29891 C 14.8798 6.24986 14.4779 6.24993 14.048 6.25 H 9.95197 Z" fill="#FFFFFF" />
</svg>