<svg xmlns="http://www.w3.org/2000/svg" width="24" height="24" viewBox="0 0 24 24" fill="none">
  <path fill-rule="nonzero" clip-rule="nonzero" d="M11.5 21 C7.72876 21 5.84315 21 4.67157 19.8284 C3.5 18.6569 3.5 16.7713 3.5 13 L3.5 6.99805 C3.6452 7.00008 3.84905 7.00005 4 7.00002 L20 7.00002 C20.1509 7.00005 20.3548 7.00008 20.5 6.99805 L20.5 13 C20.5 16.7713 20.5 18.6569 19.3284 19.8284 C18.1569 21 16.2712 21 12.5 21 L11.5 21 Z M 15.0595 11.4995 C 15.3353 11.1905 15.3085 10.7164 14.9995 10.4406 C 14.6905 10.1647 14.2164 10.1915 13.9406 10.5005 L 10.9286 13.8739 L 10.0595 12.9005 C 9.78359 12.5915 9.30947 12.5647 9.0005 12.8406 C 8.69152 13.1164 8.66468 13.5905 8.94055 13.8995 L 10.3691 15.4995 C 10.5114 15.6589 10.7149 15.75 10.9286 15.75 C 11.1422 15.75 11.3457 15.6589 11.488 15.4995 L 15.0595 11.4995 Z" fill="#FFFFFF" />
  <g opacity="0.5" />
</svg>