<svg xmlns="http://www.w3.org/2000/svg" width="24" height="24" viewBox="0 0 24 24" fill="none">
  <path fill-rule="nonzero" clip-rule="nonzero" d="M11.5 21 C7.72876 21 5.84315 21 4.67157 19.8284 C3.5 18.6569 3.5 16.7713 3.5 13 L3.5 6.99805 C3.6452 7.00008 3.84905 7.00005 4 7.00002 L20 7.00002 C20.1509 7.00005 20.3548 7.00008 20.5 6.99805 L20.5 13 C20.5 16.7713 20.5 18.6569 19.3284 19.8284 C18.1569 21 16.2712 21 12.5 21 L11.5 21 Z M 9.07612 11.1173 C 9 11.3011 9 11.5341 9 12 C 9 12.4659 9 12.6989 9.07612 12.8827 C 9.17761 13.1277 9.37229 13.3224 9.61732 13.4239 C 9.80109 13.5 10.0341 13.5 10.5 13.5 H 13.5 C 13.9659 13.5 14.1989 13.5 14.3827 13.4239 C 14.6277 13.3224 14.8224 13.1277 14.9239 12.8827 C 15 12.6989 15 12.4659 15 12 C 15 11.5341 15 11.3011 14.9239 11.1173 C 14.8224 10.8723 14.6277 10.6776 14.3827 10.5761 C 14.1989 10.5 13.9659 10.5 13.5 10.5 H 10.5 C 10.0341 10.5 9.80109 10.5 9.61732 10.5761 C 9.37229 10.6776 9.17761 10.8723 9.07612 11.1173 Z" fill="#FFFFFF" />
  <g opacity="0.5" />
</svg>