<svg xmlns="http://www.w3.org/2000/svg" width="24" height="24" viewBox="0 0 24 24" fill="none">
  <path d="M2 5C2 4.05719 2 3.58579 2.29289 3.29289C2.58579 3 3.05719 3 4 3H20C20.9428 3 21.4142 3 21.7071 3.29289C22 3.58579 22 4.05719 22 5C22 5.94281 22 6.41421 21.7071 6.70711C21.4142 7 20.9428 7 20 7H4C3.05719 7 2.58579 7 2.29289 6.70711C2 6.41421 2 5.94281 2 5Z" fill="#FFFFFF" />
  <path fill-rule="nonzero" clip-rule="nonzero" d="M 20.0689 8.49993 C 20.2101 8.49999 20.3551 8.50005 20.5 8.49805 V 12.9999 C 20.5 16.7711 20.5 18.6568 19.3284 19.8283 C 18.1569 20.9999 16.2712 20.9999 12.5 20.9999 H 11.5 C 7.72876 20.9999 5.84315 20.9999 4.67157 19.8283 C 3.5 18.6568 3.5 16.7711 3.5 12.9999 V 8.49805 C 3.64488 8.50005 3.78999 8.49999 3.93114 8.49993 H 20.0689 Z M9 11.9999 C9 12.4658 9 12.6988 9.07612 12.8826 C9.17761 13.1276 9.37229 13.3223 9.61732 13.4238 C9.80109 13.4999 10.0341 13.4999 10.5 13.4999 L13.5 13.4999 C13.9659 13.4999 14.1989 13.4999 14.3827 13.4238 C14.6277 13.3223 14.8224 13.1276 14.9239 12.8826 C15 12.6988 15 12.4658 15 11.9999 C15 11.5339 15 11.301 14.9239 11.1172 C14.8224 10.8722 14.6277 10.6775 14.3827 10.576 C14.1989 10.4999 13.9659 10.4999 13.5 10.4999 L10.5 10.4999 C10.0341 10.4999 9.80109 10.4999 9.61732 10.576 C9.37229 10.6775 9.17761 10.8722 9.07612 11.1172 C9 11.301 9 11.5339 9 11.9999 Z" fill="#FFFFFF" />
</svg>