<svg xmlns="http://www.w3.org/2000/svg" width="24" height="24" viewBox="0 0 24 24" fill="none">
  <path d="M12.5303 10.4697C12.3897 10.329 12.1989 10.25 12 10.25C11.8011 10.25 11.6103 10.329 11.4697 10.4697L8.96967 12.9697C8.67678 13.2626 8.67678 13.7374 8.96967 14.0303C9.26256 14.3232 9.73744 14.3232 10.0303 14.0303L11.25 12.8107V17C11.25 17.4142 11.5858 17.75 12 17.75C12.4142 17.75 12.75 17.4142 12.75 17V12.8107L13.9697 14.0303C14.2626 14.3232 14.7374 14.3232 15.0303 14.0303C15.3232 13.7374 15.3232 13.2626 15.0303 12.9697L12.5303 10.4697Z" fill="#FFFFFF" />
  <path fill-rule="nonzero" clip-rule="nonzero" d="M12.0574 1.25 C14.3658 1.24999 16.1748 1.24998 17.5863 1.43975 C19.031 1.63399 20.1711 2.03933 21.0659 2.93414 C21.9607 3.82895 22.366 4.96897 22.5603 6.41371 C22.75 7.82519 22.75 9.63423 22.75 11.9426 L22.75 12 L22.7391 12 C22.75 12.5787 22.75 13.2302 22.75 13.9664 L22.75 14.0336 C22.75 15.4053 22.75 16.4807 22.6794 17.3451 C22.6075 18.2252 22.4586 18.9523 22.1233 19.6104 C21.572 20.6924 20.6924 21.572 19.6104 22.1233 C18.9523 22.4586 18.2252 22.6075 17.3451 22.6794 C16.4807 22.75 15.4053 22.75 14.0336 22.75 L9.96637 22.75 C8.59469 22.75 7.51927 22.75 6.65494 22.6794 C5.7748 22.6075 5.04769 22.4586 4.38956 22.1233 C3.30762 21.572 2.42799 20.6924 1.87671 19.6104 C1.54138 18.9523 1.39252 18.2252 1.32061 17.3451 C1.24999 16.4807 1.25 15.4053 1.25 14.0336 L1.25 13.9664 C1.25 13.2299 1.25 12.5788 1.26092 12 L1.25 12 L1.25 11.9426 C1.24999 9.63422 1.24998 7.82519 1.43975 6.41371 C1.63399 4.96897 2.03933 3.82895 2.93414 2.93414 C3.82895 2.03933 4.96897 1.63399 6.41371 1.43975 C7.82519 1.24998 9.63423 1.24999 11.9426 1.25 L12.0574 1.25 Z M4.38956 5.87671 C5.04769 5.54138 5.7748 5.39252 6.65494 5.32061 C7.51929 5.24999 8.59472 5.25 9.96645 5.25 L14.0336 5.25 C15.4053 5.25 16.4807 5.24999 17.3451 5.32061 C18.2252 5.39252 18.9523 5.54138 19.6104 5.87671 C20.1737 6.16372 20.6822 6.53975 21.118 6.98698 C21.1046 6.85884 21.0899 6.73445 21.0736 6.61358 C20.9018 5.33517 20.5749 4.56445 20.0052 3.9948 C19.4355 3.42514 18.6648 3.09825 17.3864 2.92637 C16.0864 2.75159 14.3782 2.75 12 2.75 C9.62177 2.75 7.91356 2.75159 6.61358 2.92637 C5.33517 3.09825 4.56445 3.42514 3.9948 3.9948 C3.42514 4.56445 3.09825 5.33517 2.92637 6.61358 C2.91012 6.73444 2.89537 6.85884 2.88197 6.98698 C3.31781 6.53974 3.82626 6.16372 4.38956 5.87671 Z M5.07054 7.21322 C4.27085 7.62069 3.62068 8.27085 3.21322 9.07054 C3.00359 9.48197 2.87996 9.9897 2.81563 10.7771 C2.75058 11.5732 2.75 12.5875 2.75 14 C2.75 15.4125 2.75058 16.4268 2.81563 17.2229 C2.87996 18.0103 3.00359 18.518 3.21322 18.9295 C3.62068 19.7291 4.27085 20.3793 5.07054 20.7868 C5.48197 20.9964 5.9897 21.12 6.77708 21.1844 C7.57322 21.2494 8.58749 21.25 10 21.25 L14 21.25 C15.4125 21.25 16.4268 21.2494 17.2229 21.1844 C18.0103 21.12 18.518 20.9964 18.9295 20.7868 C19.7291 20.3793 20.3793 19.7291 20.7868 18.9295 C20.9964 18.518 21.12 18.0103 21.1844 17.2229 C21.2494 16.4268 21.25 15.4125 21.25 14 C21.25 12.5875 21.2494 11.5732 21.1844 10.7771 C21.12 9.9897 20.9964 9.48197 20.7868 9.07054 C20.3793 8.27085 19.7291 7.62068 18.9295 7.21322 C18.518 7.00359 18.0103 6.87996 17.2229 6.81563 C16.4268 6.75058 15.4125 6.75 14 6.75 L10 6.75 C8.58749 6.75 7.57322 6.75058 6.77708 6.81563 C5.9897 6.87996 5.48197 7.00359 5.07054 7.21322 Z" fill="#FFFFFF" />
</svg>