<svg xmlns="http://www.w3.org/2000/svg" width="24" height="24" viewBox="0 0 24 24" fill="none">
  <path d="M20.5348 3.46447C19.0704 2 16.7133 2 11.9993 2C7.28525 2 4.92823 2 3.46377 3.46447C2.70628 4.22195 2.3406 5.21824 2.16406 6.65598C2.69473 6.06532 3.33236 5.57328 4.04836 5.20846C4.82984 4.81027 5.66664 4.6488 6.59316 4.5731C7.48829 4.49997 8.58971 4.49998 9.93646 4.5H14.0621C15.4089 4.49998 16.5103 4.49997 17.4054 4.5731C18.332 4.6488 19.1688 4.81027 19.9502 5.20846C20.6662 5.57328 21.3039 6.06532 21.8345 6.65598C21.658 5.21824 21.2923 4.22195 20.5348 3.46447Z" fill="#FFFFFF" />
  <path fill-rule="nonzero" clip-rule="nonzero" d="M 2 14 C 2 11.1997 2 9.79961 2.54497 8.73005 C 3.02433 7.78924 3.78924 7.02433 4.73005 6.54497 C 5.79961 6 7.19974 6 10 6 H 14 C 16.8003 6 18.2004 6 19.27 6.54497 C 20.2108 7.02433 20.9757 7.78924 21.455 8.73005 C 22 9.79961 22 11.1997 22 14 C 22 16.8003 22 18.2004 21.455 19.27 C 20.9757 20.2108 20.2108 20.9757 19.27 21.455 C 18.2004 22 16.8003 22 14 22 H 10 C 7.19974 22 5.79961 22 4.73005 21.455 C 3.78924 20.9757 3.02433 20.2108 2.54497 19.27 C 2 18.2004 2 16.8003 2 14 Z M12.5303 17.5303 L15.0303 15.0303 C15.3232 14.7374 15.3232 14.2626 15.0303 13.9697 C14.7374 13.6768 14.2626 13.6768 13.9697 13.9697 L12.75 15.1893 L12.75 11 C12.75 10.5858 12.4142 10.25 12 10.25 C11.5858 10.25 11.25 10.5858 11.25 11 L11.25 15.1893 L10.0303 13.9697 C9.73744 13.6768 9.26256 13.6768 8.96967 13.9697 C8.67678 14.2626 8.67678 14.7374 8.96967 15.0303 L11.4697 17.5303 C11.6103 17.671 11.8011 17.75 12 17.75 C12.1989 17.75 12.3897 17.671 12.5303 17.5303 Z" fill="#FFFFFF" />
</svg>