<svg xmlns="http://www.w3.org/2000/svg" width="24" height="24" viewBox="0 0 24 24" fill="none">
  <path fill-rule="nonzero" clip-rule="nonzero" d="M 3.95526 2.25 C 3.97013 2.25001 3.98505 2.25001 4.00001 2.25001 L 20.0448 2.25 C 20.4776 2.24995 20.8744 2.24991 21.1972 2.29331 C 21.5527 2.3411 21.9284 2.45355 22.2374 2.76257 C 22.5465 3.07159 22.6589 3.44732 22.7067 3.8028 C 22.7501 4.12561 22.7501 4.52245 22.75 4.95526 V 5.04475 C 22.7501 5.47757 22.7501 5.8744 22.7067 6.19721 C 22.6589 6.55269 22.5465 6.92842 22.2374 7.23744 C 21.9437 7.53121 21.5896 7.64733 21.25 7.69914 V 13.0564 C 21.25 14.8942 21.25 16.3498 21.0969 17.489 C 20.9392 18.6615 20.6071 19.6104 19.8588 20.3588 C 19.1104 21.1071 18.1615 21.4392 16.989 21.5969 C 15.8498 21.75 14.3942 21.75 12.5564 21.75 H 11.4436 C 9.60583 21.75 8.1502 21.75 7.01098 21.5969 C 5.83856 21.4392 4.88961 21.1071 4.14125 20.3588 C 3.39289 19.6104 3.06077 18.6615 2.90314 17.489 C 2.74998 16.3498 2.74999 14.8942 2.75001 13.0564 L 2.75001 7.69914 C 2.41038 7.64733 2.05634 7.53121 1.76257 7.23744 C 1.45355 6.92842 1.3411 6.55269 1.29331 6.19721 C 1.24991 5.8744 1.24995 5.47757 1.25 5.04476 C 1.25001 5.02988 1.25001 5.01496 1.25001 5.00001 C 1.25001 4.98505 1.25001 4.97013 1.25 4.95526 C 1.24995 4.52244 1.24991 4.12561 1.29331 3.8028 C 1.3411 3.44732 1.45355 3.07159 1.76257 2.76257 C 2.07159 2.45355 2.44732 2.3411 2.8028 2.29331 C 3.12561 2.24991 3.52244 2.24995 3.95526 2.25 Z M 4.25001 7.75001 V 13 C 4.25001 14.9068 4.2516 16.2615 4.38977 17.2892 C 4.52503 18.2952 4.7787 18.8749 5.20191 19.2981 C 5.62512 19.7213 6.20477 19.975 7.21086 20.1102 C 8.23852 20.2484 9.59319 20.25 11.5 20.25 H 12.5 C 14.4068 20.25 15.7615 20.2484 16.7892 20.1102 C 17.7952 19.975 18.3749 19.7213 18.7981 19.2981 C 19.2213 18.8749 19.475 18.2952 19.6102 17.2892 C 19.7484 16.2615 19.75 14.9068 19.75 13 V 7.75001 H 4.25001 Z M2.82324 3.82324 L2.82187 3.82568 C2.82086 3.82761 2.81924 3.83093 2.81717 3.83597 C2.80821 3.85775 2.79291 3.90611 2.77993 4.00267 C2.7516 4.21339 2.75001 4.5074 2.75001 5.00001 C2.75001 5.49261 2.7516 5.78662 2.77993 5.99734 C2.79291 6.0939 2.80821 6.14226 2.81717 6.16404 C2.81924 6.16909 2.82086 6.1724 2.82187 6.17434 L2.82324 6.17677 L2.82568 6.17815 C2.82761 6.17916 2.83093 6.18077 2.83597 6.18285 C2.85775 6.19181 2.90611 6.2071 3.00267 6.22008 C3.21339 6.24841 3.5074 6.25001 4.00001 6.25001 L20 6.25001 C20.4926 6.25001 20.7866 6.24841 20.9973 6.22008 C21.0939 6.2071 21.1423 6.19181 21.164 6.18285 C21.1691 6.18077 21.1724 6.17916 21.1743 6.17815 L21.1768 6.17678 L21.1781 6.17434 C21.1792 6.1724 21.1808 6.16909 21.1828 6.16404 C21.1918 6.14226 21.2071 6.0939 21.2201 5.99734 C21.2484 5.78662 21.25 5.49261 21.25 5.00001 C21.25 4.5074 21.2484 4.21339 21.2201 4.00267 C21.2071 3.90611 21.1918 3.85775 21.1828 3.83597 C21.1808 3.83093 21.1792 3.82761 21.1781 3.82568 L21.1768 3.82323 L21.1743 3.82187 C21.1724 3.82086 21.1691 3.81924 21.164 3.81717 C21.1423 3.80821 21.0939 3.79291 20.9973 3.77993 C20.7866 3.7516 20.4926 3.75001 20 3.75001 L4.00001 3.75001 C3.5074 3.75001 3.21339 3.7516 3.00267 3.77993 C2.90611 3.79291 2.85775 3.80821 2.83597 3.81717 C2.83093 3.81924 2.82761 3.82086 2.82568 3.82187 L2.82324 3.82324 Z M2.82324 6.17677 L2.82324 6.17677 C2.82297 6.17644 2.82284 6.17636 2.82324 6.17677 Z M 10.4782 9.75001 H 13.5218 C 13.736 9.74999 13.9329 9.74998 14.0982 9.76126 C 14.2759 9.77338 14.4712 9.80099 14.6697 9.88322 C 15.0985 10.0608 15.4392 10.4015 15.6168 10.8303 C 15.699 11.0288 15.7266 11.2242 15.7388 11.4018 C 15.75 11.5671 15.75 11.764 15.75 11.9782 V 12.0218 C 15.75 12.236 15.75 12.4329 15.7388 12.5982 C 15.7266 12.7759 15.699 12.9712 15.6168 13.1697 C 15.4392 13.5985 15.0985 13.9392 14.6697 14.1168 C 14.4712 14.199 14.2759 14.2266 14.0982 14.2388 C 13.9329 14.25 13.736 14.25 13.5218 14.25 H 10.4782 C 10.264 14.25 10.0671 14.25 9.9018 14.2388 C 9.72416 14.2266 9.52881 14.199 9.33031 14.1168 C 8.90151 13.9392 8.56083 13.5985 8.38322 13.1697 C 8.30099 12.9712 8.27338 12.7759 8.26126 12.5982 C 8.24998 12.4329 8.24999 12.236 8.25001 12.0218 V 11.9782 C 8.24999 11.764 8.24998 11.5671 8.26126 11.4018 C 8.27338 11.2242 8.30099 11.0288 8.38322 10.8303 C 8.56083 10.4015 8.90151 10.0608 9.33031 9.88322 C 9.52881 9.80099 9.72416 9.77338 9.9018 9.76126 C 10.0671 9.74998 10.264 9.74999 10.4782 9.75001 Z M 9.90131 11.2703 C 9.84248 11.2956 9.79559 11.3425 9.77031 11.4013 C 9.76844 11.4087 9.76234 11.4371 9.75778 11.5039 C 9.75041 11.6119 9.75001 11.7568 9.75001 12 C 9.75001 12.2432 9.75041 12.3881 9.75778 12.4961 C 9.76234 12.5629 9.76844 12.5913 9.77031 12.5987 C 9.79559 12.6575 9.84248 12.7044 9.90131 12.7297 C 9.90867 12.7316 9.93707 12.7377 10.0039 12.7422 C 10.1119 12.7496 10.2568 12.75 10.5 12.75 H 13.5 C 13.7432 12.75 13.8881 12.7496 13.9961 12.7422 C 14.0629 12.7377 14.0913 12.7316 14.0987 12.7297 C 14.1575 12.7044 14.2044 12.6575 14.2297 12.5987 C 14.2316 12.5913 14.2377 12.5629 14.2422 12.4961 C 14.2496 12.3881 14.25 12.2432 14.25 12 C 14.25 11.7568 14.2496 11.6119 14.2422 11.5039 C 14.2377 11.4371 14.2316 11.4087 14.2297 11.4013 C 14.2044 11.3425 14.1575 11.2956 14.0987 11.2703 C 14.0913 11.2684 14.0629 11.2623 13.9961 11.2578 C 13.8881 11.2504 13.7432 11.25 13.5 11.25 H 10.5 C 10.2568 11.25 10.1119 11.2504 10.0039 11.2578 C 9.93707 11.2623 9.90866 11.2684 9.90131 11.2703 Z" fill="#FFFFFF" />
</svg>