<svg xmlns="http://www.w3.org/2000/svg" width="24" height="24" viewBox="0 0 24 24" fill="none">
  <path d="M9.5 2C8.67157 2 8 2.67157 8 3.5V4.5C8 5.32843 8.67157 6 9.5 6H14.5C15.3284 6 16 5.32843 16 4.5V3.5C16 2.67157 15.3284 2 14.5 2H9.5Z" fill="#FFFFFF" />
  <path fill-rule="nonzero" clip-rule="nonzero" d="M6.5 4.03662 L6.5 4.5 C6.5 6.15685 7.84315 7.5 9.5 7.5 L14.5 7.5 C16.1569 7.5 17.5 6.15685 17.5 4.5 L17.5 4.03662 C18.7579 4.10719 19.552 4.30764 20.1213 4.87694 C21 5.75562 21 7.16983 21 9.99826 L21 15.9983 C21 18.8267 21 20.2409 20.1213 21.1196 C19.2426 21.9983 17.8284 21.9983 15 21.9983 L9 21.9983 C6.17157 21.9983 4.75736 21.9983 3.87868 21.1196 C3 20.2409 3 18.8267 3 15.9983 L3 9.99826 C3 7.16983 3 5.75562 3.87868 4.87694 C4.44798 4.30764 5.24209 4.10719 6.5 4.03662 Z M 7 13.75 C 6.58579 13.75 6.25 14.0858 6.25 14.5 C 6.25 14.9142 6.58579 15.25 7 15.25 H 15 C 15.4142 15.25 15.75 14.9142 15.75 14.5 C 15.75 14.0858 15.4142 13.75 15 13.75 H 7 Z M 7 17.25 C 6.58579 17.25 6.25 17.5858 6.25 18 C 6.25 18.4142 6.58579 18.75 7 18.75 H 12.5 C 12.9142 18.75 13.25 18.4142 13.25 18 C 13.25 17.5858 12.9142 17.25 12.5 17.25 H 7 Z" fill="#FFFFFF" />
</svg>