<svg xmlns="http://www.w3.org/2000/svg" width="24" height="24" viewBox="0 0 24 24" fill="none">
  <path opacity="0.5" d="M21 15.9983V9.99826C21 7.16983 21 5.75562 20.1213 4.87694C19.3529 4.10856 18.175 4.01211 16 4H8C5.82497 4.01211 4.64706 4.10856 3.87868 4.87694C3 5.75562 3 7.16983 3 9.99826V15.9983C3 18.8267 3 20.2409 3.87868 21.1196C4.75736 21.9983 6.17157 21.9983 9 21.9983H15C17.8284 21.9983 19.2426 21.9983 20.1213 21.1196C21 20.2409 21 18.8267 21 15.9983Z" fill="#FFFFFF" />
  <path d="M8 3.5C8 2.67157 8.67157 2 9.5 2H14.5C15.3284 2 16 2.67157 16 3.5V4.5C16 5.32843 15.3284 6 14.5 6H9.5C8.67157 6 8 5.32843 8 4.5V3.5Z" fill="#FFFFFF" />
  <path fill-rule="nonzero" clip-rule="nonzero" d="M 6.25 10.5 C 6.25 10.0858 6.58579 9.75 7 9.75 H 17 C 17.4142 9.75 17.75 10.0858 17.75 10.5 C 17.75 10.9142 17.4142 11.25 17 11.25 H 7 C 6.58579 11.25 6.25 10.9142 6.25 10.5 Z M 7.25 14 C 7.25 13.5858 7.58579 13.25 8 13.25 H 16 C 16.4142 13.25 16.75 13.5858 16.75 14 C 16.75 14.4142 16.4142 14.75 16 14.75 H 8 C 7.58579 14.75 7.25 14.4142 7.25 14 Z M 8.25 17.5 C 8.25 17.0858 8.58579 16.75 9 16.75 H 15 C 15.4142 16.75 15.75 17.0858 15.75 17.5 C 15.75 17.9142 15.4142 18.25 15 18.25 H 9 C 8.58579 18.25 8.25 17.9142 8.25 17.5 Z" fill="#FFFFFF" />
</svg>