<svg xmlns="http://www.w3.org/2000/svg" width="24" height="24" viewBox="0 0 24 24" fill="none">
  <path fill-rule="nonzero" clip-rule="nonzero" d="M 7.26279 3.25871 C 7.38317 2.12953 8.33887 1.25 9.5 1.25 H 14.5 C 15.6611 1.25 16.6168 2.12953 16.7372 3.25871 C 17.5004 3.27425 18.1602 3.31372 18.7236 3.41721 C 19.4816 3.55644 20.1267 3.82168 20.6517 4.34661 C 21.2536 4.94853 21.5125 5.7064 21.6335 6.60651 C 21.75 7.47348 21.75 8.5758 21.75 9.94339 V 16.0531 C 21.75 17.4207 21.75 18.523 21.6335 19.39 C 21.5125 20.2901 21.2536 21.048 20.6517 21.6499 C 20.0497 22.2518 19.2919 22.5107 18.3918 22.6317 C 17.5248 22.7483 16.4225 22.7483 15.0549 22.7483 H 8.94513 C 7.57754 22.7483 6.47522 22.7483 5.60825 22.6317 C 4.70814 22.5107 3.95027 22.2518 3.34835 21.6499 C 2.74643 21.048 2.48754 20.2901 2.36652 19.39 C 2.24996 18.523 2.24998 17.4207 2.25 16.0531 V 9.94339 C 2.24998 8.5758 2.24996 7.47348 2.36652 6.60651 C 2.48754 5.7064 2.74643 4.94853 3.34835 4.34661 C 3.87328 3.82168 4.51835 3.55644 5.27635 3.41721 C 5.83977 3.31372 6.49963 3.27425 7.26279 3.25871 Z M 7.26476 4.75913 C 6.54668 4.77447 5.99332 4.81061 5.54735 4.89253 C 4.98054 4.99664 4.65246 5.16382 4.40901 5.40727 C 4.13225 5.68403 3.9518 6.07261 3.85315 6.80638 C 3.75159 7.56173 3.75 8.56285 3.75 9.99826 V 15.9983 C 3.75 17.4337 3.75159 18.4348 3.85315 19.1901 C 3.9518 19.9239 4.13225 20.3125 4.40901 20.5893 C 4.68577 20.866 5.07435 21.0465 5.80812 21.1451 C 6.56347 21.2467 7.56458 21.2483 9 21.2483 H 15 C 16.4354 21.2483 17.4365 21.2467 18.1919 21.1451 C 18.9257 21.0465 19.3142 20.866 19.591 20.5893 C 19.8678 20.3125 20.0482 19.9239 20.1469 19.1901 C 20.2484 18.4348 20.25 17.4337 20.25 15.9983 V 9.99826 C 20.25 8.56285 20.2484 7.56173 20.1469 6.80638 C 20.0482 6.07261 19.8678 5.68403 19.591 5.40727 C 19.3475 5.16382 19.0195 4.99664 18.4527 4.89253 C 18.0067 4.81061 17.4533 4.77447 16.7352 4.75913 C 16.6067 5.87972 15.655 6.75 14.5 6.75 H 9.5 C 8.345 6.75 7.39326 5.87972 7.26476 4.75913 Z M 9.5 2.75 C 9.08579 2.75 8.75 3.08579 8.75 3.5 V 4.5 C 8.75 4.91421 9.08579 5.25 9.5 5.25 H 14.5 C 14.9142 5.25 15.25 4.91421 15.25 4.5 V 3.5 C 15.25 3.08579 14.9142 2.75 14.5 2.75 H 9.5 Z M 12 9.25 C 12.4142 9.25 12.75 9.58579 12.75 10 L 12.75 12.25 H 15 C 15.4142 12.25 15.75 12.5858 15.75 13 C 15.75 13.4142 15.4142 13.75 15 13.75 H 12.75 V 16 C 12.75 16.4142 12.4142 16.75 12 16.75 C 11.5858 16.75 11.25 16.4142 11.25 16 V 13.75 H 9 C 8.58579 13.75 8.25 13.4142 8.25 13 C 8.25 12.5858 8.58579 12.25 9 12.25 H 11.25 L 11.25 10 C 11.25 9.58579 11.5858 9.25 12 9.25 Z" fill="#FFFFFF" />
</svg>