<svg xmlns="http://www.w3.org/2000/svg" width="24" height="24" viewBox="0 0 24 24" fill="none">
  <path d="M9.5 2C8.67157 2 8 2.67157 8 3.5V4.5C8 5.32843 8.67157 6 9.5 6H14.5C15.3284 6 16 5.32843 16 4.5V3.5C16 2.67157 15.3284 2 14.5 2H9.5Z" fill="#FFFFFF" />
  <path fill-rule="nonzero" clip-rule="nonzero" d="M6.5 4.03662 L6.5 4.5 C6.5 6.15685 7.84315 7.5 9.5 7.5 L14.5 7.5 C16.1569 7.5 17.5 6.15685 17.5 4.5 L17.5 4.03662 C18.7579 4.10719 19.552 4.30764 20.1213 4.87694 C21 5.75562 21 7.16983 21 9.99826 L21 15.9983 C21 18.8267 21 20.2409 20.1213 21.1196 C19.2426 21.9983 17.8284 21.9983 15 21.9983 L9 21.9983 C6.17157 21.9983 4.75736 21.9983 3.87868 21.1196 C3 20.2409 3 18.8267 3 15.9983 L3 9.99826 C3 7.16983 3 5.75562 3.87868 4.87694 C4.44798 4.30764 5.24209 4.10719 6.5 4.03662 Z M11.0429 15.3656 C11.4626 15.6736 11.6725 15.8276 12 15.8276 C12.3275 15.8276 12.5374 15.6736 12.9571 15.3656 C13.8352 14.7214 15 13.6812 15 12.6967 C15 11.0235 13.35 10.3988 12 11.6913 C10.65 10.3988 9 11.0235 9 12.6967 C9 13.6812 10.1649 14.7213 11.0429 15.3656 Z" fill="#FFFFFF" />
</svg>