<svg xmlns="http://www.w3.org/2000/svg" width="24" height="24" viewBox="0 0 24 24" fill="none">
  <path d="M9.5 2C8.67157 2 8 2.67157 8 3.5V4.5C8 5.32843 8.67157 6 9.5 6H14.5C15.3284 6 16 5.32843 16 4.5V3.5C16 2.67157 15.3284 2 14.5 2H9.5Z" fill="#FFFFFF" />
  <path fill-rule="nonzero" clip-rule="nonzero" d="M 3.87868 4.87694 C 4.44798 4.30764 5.24209 4.10719 6.5 4.03662 V 4.5 C 6.5 6.15685 7.84315 7.5 9.5 7.5 H 14.5 C 16.1569 7.5 17.5 6.15685 17.5 4.5 V 4.03662 C 18.7579 4.10719 19.552 4.30764 20.1213 4.87694 C 21 5.75562 21 7.16983 21 9.99826 V 15.9983 C 21 18.8267 21 20.2409 20.1213 21.1196 C 19.2426 21.9983 17.8284 21.9983 15 21.9983 H 9 C 6.17157 21.9983 4.75736 21.9983 3.87868 21.1196 C 3 20.2409 3 18.8267 3 15.9983 V 9.99826 C 3 7.16983 3 5.75562 3.87868 4.87694 Z M 12.75 11 C 12.75 10.5858 12.4142 10.25 12 10.25 C 11.5858 10.25 11.25 10.5858 11.25 11 L 11.25 13.25 H 9 C 8.58579 13.25 8.25 13.5858 8.25 14 C 8.25 14.4142 8.58579 14.75 9 14.75 H 11.25 V 17 C 11.25 17.4142 11.5858 17.75 12 17.75 C 12.4142 17.75 12.75 17.4142 12.75 17 L 12.75 14.75 H 15 C 15.4142 14.75 15.75 14.4142 15.75 14 C 15.75 13.5858 15.4142 13.25 15 13.25 H 12.75 V 11 Z" fill="#FFFFFF" />
</svg>