<svg xmlns="http://www.w3.org/2000/svg" width="24" height="24" viewBox="0 0 24 24" fill="none">
  <path d="M8 3.5C8 2.67157 8.67157 2 9.5 2H14.5C15.3284 2 16 2.67157 16 3.5V4.5C16 5.32843 15.3284 6 14.5 6H9.5C8.67157 6 8 5.32843 8 4.5V3.5Z" fill="#FFFFFF" />
  <path fill-rule="nonzero" clip-rule="nonzero" d="M6.5 4.03662 L6.5 4.5 C6.5 6.15685 7.84315 7.5 9.5 7.5 L14.5 7.5 C16.1569 7.5 17.5 6.15685 17.5 4.5 L17.5 4.03662 C18.7579 4.10719 19.552 4.30764 20.1213 4.87694 C21 5.75562 21 7.16983 21 9.99826 L21 15.9983 C21 18.8267 21 20.2409 20.1213 21.1196 C19.2426 21.9983 17.8284 21.9983 15 21.9983 L9 21.9983 C6.17157 21.9983 4.75736 21.9983 3.87868 21.1196 C3 20.2409 3 18.8267 3 15.9983 L3 9.99826 C3 7.16983 3 5.75562 3.87868 4.87694 C4.44798 4.30764 5.24209 4.10719 6.5 4.03662 Z M6.25 10.5 C6.25 10.9142 6.58579 11.25 7 11.25 L17 11.25 C17.4142 11.25 17.75 10.9142 17.75 10.5 C17.75 10.0858 17.4142 9.75 17 9.75 L7 9.75 C6.58579 9.75 6.25 10.0858 6.25 10.5 Z M7.25 14 C7.25 14.4142 7.58579 14.75 8 14.75 L16 14.75 C16.4142 14.75 16.75 14.4142 16.75 14 C16.75 13.5858 16.4142 13.25 16 13.25 L8 13.25 C7.58579 13.25 7.25 13.5858 7.25 14 Z M8.25 17.5 C8.25 17.9142 8.58579 18.25 9 18.25 L15 18.25 C15.4142 18.25 15.75 17.9142 15.75 17.5 C15.75 17.0858 15.4142 16.75 15 16.75 L9 16.75 C8.58579 16.75 8.25 17.0858 8.25 17.5 Z" fill="#FFFFFF" />
</svg>