<svg xmlns="http://www.w3.org/2000/svg" width="24" height="24" viewBox="0 0 24 24" fill="none">
  <path fill-rule="nonzero" clip-rule="nonzero" d="M 10.9436 1.25 H 13.0564 C 14.8942 1.24998 16.3498 1.24997 17.489 1.40314 C 18.6614 1.56076 19.6104 1.89288 20.3588 2.64124 C 21.1071 3.38961 21.4392 4.33856 21.5969 5.51098 C 21.75 6.65019 21.75 8.10583 21.75 9.94359 V 14.0564 C 21.75 15.8942 21.75 17.3498 21.5969 18.489 C 21.4392 19.6614 21.1071 20.6104 20.3588 21.3588 C 19.6104 22.1071 18.6614 22.4392 17.489 22.5969 C 16.3498 22.75 14.8942 22.75 13.0564 22.75 H 10.9436 C 9.10583 22.75 7.65019 22.75 6.51098 22.5969 C 5.33856 22.4392 4.38961 22.1071 3.64124 21.3588 C 2.89288 20.6104 2.56076 19.6614 2.40314 18.489 C 2.24997 17.3498 2.24998 15.8942 2.25 14.0564 V 9.94358 C 2.24998 8.10582 2.24997 6.65019 2.40314 5.51098 C 2.56076 4.33856 2.89288 3.38961 3.64124 2.64124 C 4.38961 1.89288 5.33856 1.56076 6.51098 1.40314 C 7.65019 1.24997 9.10582 1.24998 10.9436 1.25 Z M 6.71085 2.88976 C 5.70476 3.02502 5.12511 3.27869 4.7019 3.7019 C 4.27869 4.12511 4.02502 4.70476 3.88976 5.71085 C 3.75159 6.73851 3.75 8.09318 3.75 10 V 14 C 3.75 15.9068 3.75159 17.2615 3.88976 18.2892 C 4.02502 19.2952 4.27869 19.8749 4.7019 20.2981 C 5.12511 20.7213 5.70476 20.975 6.71085 21.1102 C 7.73851 21.2484 9.09318 21.25 11 21.25 H 13 C 14.9068 21.25 16.2615 21.2484 17.2892 21.1102 C 18.2952 20.975 18.8749 20.7213 19.2981 20.2981 C 19.7213 19.8749 19.975 19.2952 20.1102 18.2892 C 20.2484 17.2615 20.25 15.9068 20.25 14 V 10 C 20.25 8.09318 20.2484 6.73851 20.1102 5.71085 C 19.975 4.70476 19.7213 4.12511 19.2981 3.7019 C 18.8749 3.27869 18.2952 3.02502 17.2892 2.88976 C 16.2615 2.75159 14.9068 2.75 13 2.75 H 11 C 9.09318 2.75 7.73851 2.75159 6.71085 2.88976 Z M 7.25 8 C 7.25 7.58579 7.58579 7.25 8 7.25 H 16 C 16.4142 7.25 16.75 7.58579 16.75 8 C 16.75 8.41421 16.4142 8.75 16 8.75 H 8 C 7.58579 8.75 7.25 8.41421 7.25 8 Z M 7.25 12 C 7.25 11.5858 7.58579 11.25 8 11.25 H 16 C 16.4142 11.25 16.75 11.5858 16.75 12 C 16.75 12.4142 16.4142 12.75 16 12.75 H 8 C 7.58579 12.75 7.25 12.4142 7.25 12 Z M 7.25 16 C 7.25 15.5858 7.58579 15.25 8 15.25 H 13 C 13.4142 15.25 13.75 15.5858 13.75 16 C 13.75 16.4142 13.4142 16.75 13 16.75 H 8 C 7.58579 16.75 7.25 16.4142 7.25 16 Z" fill="#FFFFFF" />
</svg>