<svg xmlns="http://www.w3.org/2000/svg" width="24" height="24" viewBox="0 0 24 24" fill="none">
  <path fill-rule="nonzero" clip-rule="nonzero" d="M 10.75 2 H 12.75 C 15.5784 2 16.9926 2 17.8713 2.87868 C 18.75 3.75736 18.75 5.17157 18.75 8 V 16 C 18.75 18.8284 18.75 20.2426 17.8713 21.1213 C 16.9926 22 15.5784 22 12.75 22 H 10.75 C 7.92157 22 6.50736 22 5.62868 21.1213 C 4.75 20.2426 4.75 18.8284 4.75 16 V 8 C 4.75 5.17157 4.75 3.75736 5.62868 2.87868 C 6.50736 2 7.92157 2 10.75 2 Z M8 13 C8 13.4142 8.33579 13.75 8.75 13.75 L14.75 13.75 C15.1642 13.75 15.5 13.4142 15.5 13 C15.5 12.5858 15.1642 12.25 14.75 12.25 L8.75 12.25 C8.33579 12.25 8 12.5858 8 13 Z M8 9 C8 9.41421 8.33579 9.75 8.75 9.75 L14.75 9.75 C15.1642 9.75 15.5 9.41421 15.5 9 C15.5 8.58579 15.1642 8.25 14.75 8.25 L8.75 8.25 C8.33579 8.25 8 8.58579 8 9 Z M8 17 C8 17.4142 8.33579 17.75 8.75 17.75 L11.75 17.75 C12.1642 17.75 12.5 17.4142 12.5 17 C12.5 16.5858 12.1642 16.25 11.75 16.25 L8.75 16.25 C8.33579 16.25 8 16.5858 8 17 Z" fill="#FFFFFF" />
  <g opacity="0.5">
    <path fill-rule="evenodd" clip-rule="evenodd" d="M1.75 4.25C2.16421 4.25 2.5 4.58579 2.5 5V19C2.5 19.4142 2.16421 19.75 1.75 19.75C1.33579 19.75 1 19.4142 1 19V5C1 4.58579 1.33579 4.25 1.75 4.25Z" fill="#FFFFFF" />
    <path fill-rule="evenodd" clip-rule="evenodd" d="M21.75 4.25C22.1642 4.25 22.5 4.58579 22.5 5V19C22.5 19.4142 22.1642 19.75 21.75 19.75C21.3358 19.75 21 19.4142 21 19V5C21 4.58579 21.3358 4.25 21.75 4.25Z" fill="#FFFFFF" />
  </g>
</svg>