<svg xmlns="http://www.w3.org/2000/svg" width="24" height="24" viewBox="0 0 24 24" fill="none">
  <path fill-rule="nonzero" clip-rule="nonzero" d="M5.87868 2.87868 C6.75736 2 8.17157 2 11 2 L13 2 C15.8284 2 17.2426 2 18.1213 2.87868 C19 3.75736 19 5.17157 19 8 L19 16 C19 18.8284 19 20.2426 18.1213 21.1213 C17.2426 22 15.8284 22 13 22 L11 22 C8.17157 22 6.75736 22 5.87868 21.1213 C5 20.2426 5 18.8284 5 16 L5 8 C5 5.17157 5 3.75736 5.87868 2.87868 Z M8.25 17 C8.25 17.4142 8.58579 17.75 9 17.75 L12 17.75 C12.4142 17.75 12.75 17.4142 12.75 17 C12.75 16.5858 12.4142 16.25 12 16.25 L9 16.25 C8.58579 16.25 8.25 16.5858 8.25 17 Z M 9 12.25 C 8.58579 12.25 8.25 12.5858 8.25 13 C 8.25 13.4142 8.58579 13.75 9 13.75 H 15 C 15.4142 13.75 15.75 13.4142 15.75 13 C 15.75 12.5858 15.4142 12.25 15 12.25 H 9 Z M8.25 9 C8.25 9.41421 8.58579 9.75 9 9.75 L15 9.75 C15.4142 9.75 15.75 9.41421 15.75 9 C15.75 8.58579 15.4142 8.25 15 8.25 L9 8.25 C8.58579 8.25 8.25 8.58579 8.25 9 Z" fill="#FFFFFF" />
  <path opacity="0.5" d="M5.23525 4.05811C5 4.94139 5 6.17689 5 7.99985V15.9999C5 17.8229 5 19.0584 5.23527 19.9417L5 19.9238C4.02491 19.8279 3.36857 19.6111 2.87868 19.1212C2 18.2425 2 16.8283 2 13.9999V9.99991C2 7.17148 2 5.75726 2.87868 4.87859C3.36857 4.3887 4.02491 4.17194 5 4.07602L5.23525 4.05811Z" fill="#FFFFFF" />
  <path opacity="0.5" d="M18.7646 19.9417C18.9999 19.0584 18.9999 17.8229 18.9999 15.9999V7.99985C18.9999 6.17689 18.9999 4.94139 18.7647 4.05811L18.9999 4.07602C19.975 4.17194 20.6314 4.3887 21.1212 4.87859C21.9999 5.75726 21.9999 7.17148 21.9999 9.99991V13.9999C21.9999 16.8283 21.9999 18.2425 21.1212 19.1212C20.6314 19.6111 19.975 19.8279 18.9999 19.9238L18.7646 19.9417Z" fill="#FFFFFF" />
</svg>