<svg xmlns="http://www.w3.org/2000/svg" width="24" height="24" viewBox="0 0 24 24" fill="none">
  <path d="M1.75 10.0004V14.0004C1.75 16.8288 1.75 18.243 2.62868 19.1217C2.84602 19.339 3.09612 19.5026 3.39228 19.6257C3.38556 19.5812 3.37922 19.5366 3.37321 19.492C3.24986 18.5745 3.24992 17.4288 3.25 16.099L3.25 8.0003L3.25 7.90155V7.90155C3.24992 6.57182 3.24986 5.4261 3.37321 4.50861C3.37921 4.46399 3.38555 4.41944 3.39226 4.375C3.09611 4.49812 2.84601 4.6617 2.62868 4.87903C1.75 5.75771 1.75 7.17192 1.75 10.0004Z" fill="#FFFFFF" />
  <path d="M21.75 10.0004V14.0004C21.75 16.8288 21.75 18.243 20.8713 19.1217C20.654 19.339 20.4039 19.5026 20.1077 19.6257C20.1144 19.5812 20.1208 19.5366 20.1268 19.492C20.2501 18.5745 20.2501 17.4288 20.25 16.099V7.90156C20.2501 6.57183 20.2501 5.4261 20.1268 4.50861C20.1208 4.46399 20.1144 4.41944 20.1077 4.375C20.4039 4.49812 20.654 4.6617 20.8713 4.87903C21.75 5.75771 21.75 7.17192 21.75 10.0004Z" fill="#FFFFFF" />
  <path fill-rule="nonzero" clip-rule="nonzero" d="M5.62868 2.87868 C6.50736 2 7.92157 2 10.75 2 L12.75 2 C15.5784 2 16.9926 2 17.8713 2.87868 C18.75 3.75736 18.75 5.17157 18.75 8 L18.75 16 C18.75 18.8284 18.75 20.2426 17.8713 21.1213 C16.9926 22 15.5784 22 12.75 22 L10.75 22 C7.92157 22 6.50736 22 5.62868 21.1213 C4.75 20.2426 4.75 18.8284 4.75 16 L4.75 8 C4.75 5.17157 4.75 3.75736 5.62868 2.87868 Z M8 17 C8 17.4142 8.33579 17.75 8.75 17.75 L11.75 17.75 C12.1642 17.75 12.5 17.4142 12.5 17 C12.5 16.5858 12.1642 16.25 11.75 16.25 L8.75 16.25 C8.33579 16.25 8 16.5858 8 17 Z M 8.75 12.25 C 8.33579 12.25 8 12.5858 8 13 C 8 13.4142 8.33579 13.75 8.75 13.75 H 14.75 C 15.1642 13.75 15.5 13.4142 15.5 13 C 15.5 12.5858 15.1642 12.25 14.75 12.25 H 8.75 Z M8 9 C8 9.41421 8.33579 9.75 8.75 9.75 L14.75 9.75 C15.1642 9.75 15.5 9.41421 15.5 9 C15.5 8.58579 15.1642 8.25 14.75 8.25 L8.75 8.25 C8.33579 8.25 8 8.58579 8 9 Z" fill="#FFFFFF" />
</svg>