<svg xmlns="http://www.w3.org/2000/svg" width="24" height="24" viewBox="0 0 24 24" fill="none">
  <path opacity="0.5" d="M3 10C3 6.22876 3 4.34315 4.17157 3.17157C5.34315 2 7.22876 2 11 2H13C16.7712 2 18.6569 2 19.8284 3.17157C21 4.34315 21 6.22876 21 10V14C21 17.7712 21 19.6569 19.8284 20.8284C18.6569 22 16.7712 22 13 22H11C7.22876 22 5.34315 22 4.17157 20.8284C3 19.6569 3 17.7712 3 14V10Z" fill="#FFFFFF" />
  <path fill-rule="nonzero" clip-rule="nonzero" d="M 12 5.25 C 12.4142 5.25 12.75 5.58579 12.75 6 V 7.25 H 14 C 14.4142 7.25 14.75 7.58579 14.75 8 C 14.75 8.41421 14.4142 8.75 14 8.75 L 12.75 8.75 L 12.75 10 C 12.75 10.4142 12.4142 10.75 12 10.75 C 11.5858 10.75 11.25 10.4142 11.25 10 L 11.25 8.75 H 9.99997 C 9.58575 8.75 9.24997 8.41421 9.24997 8 C 9.24997 7.58579 9.58575 7.25 9.99997 7.25 H 11.25 L 11.25 6 C 11.25 5.58579 11.5858 5.25 12 5.25 Z M 7.25 14 C 7.25 13.5858 7.58579 13.25 8 13.25 H 16 C 16.4142 13.25 16.75 13.5858 16.75 14 C 16.75 14.4142 16.4142 14.75 16 14.75 H 8 C 7.58579 14.75 7.25 14.4142 7.25 14 Z M 8.25 18 C 8.25 17.5858 8.58579 17.25 9 17.25 H 15 C 15.4142 17.25 15.75 17.5858 15.75 18 C 15.75 18.4142 15.4142 18.75 15 18.75 H 9 C 8.58579 18.75 8.25 18.4142 8.25 18 Z" fill="#FFFFFF" />
</svg>