<svg xmlns="http://www.w3.org/2000/svg" width="24" height="24" viewBox="0 0 24 24" fill="none">
  <path fill-rule="nonzero" clip-rule="nonzero" d="M4.17157 3.17157 C5.34315 2 7.22876 2 11 2 L13 2 C16.7712 2 18.6569 2 19.8284 3.17157 C21 4.34315 21 6.22876 21 10 L21 14 C21 17.7712 21 19.6569 19.8284 20.8284 C18.6569 22 16.7712 22 13 22 L11 22 C7.22876 22 5.34315 22 4.17157 20.8284 C3 19.6569 3 17.7712 3 14 L3 10 C3 6.22876 3 4.34315 4.17157 3.17157 Z M7.25 8 C7.25 8.41421 7.58579 8.75 8 8.75 L16 8.75 C16.4142 8.75 16.75 8.41421 16.75 8 C16.75 7.58579 16.4142 7.25 16 7.25 L8 7.25 C7.58579 7.25 7.25 7.58579 7.25 8 Z M7.25 12 C7.25 12.4142 7.58579 12.75 8 12.75 L16 12.75 C16.4142 12.75 16.75 12.4142 16.75 12 C16.75 11.5858 16.4142 11.25 16 11.25 L8 11.25 C7.58579 11.25 7.25 11.5858 7.25 12 Z M 8 15.25 C 7.58579 15.25 7.25 15.5858 7.25 16 C 7.25 16.4142 7.58579 16.75 8 16.75 H 13 C 13.4142 16.75 13.75 16.4142 13.75 16 C 13.75 15.5858 13.4142 15.25 13 15.25 H 8 Z" fill="#FFFFFF" />
</svg>