<svg xmlns="http://www.w3.org/2000/svg" width="24" height="24" viewBox="0 0 24 24" fill="none">
  <path fill-rule="nonzero" clip-rule="nonzero" d="M 10.9436 1.25 H 13.0564 C 14.8942 1.24998 16.3498 1.24997 17.489 1.40314 C 18.6614 1.56076 19.6104 1.89288 20.3588 2.64124 C 20.6516 2.93414 20.6516 3.40901 20.3588 3.7019 C 20.0659 3.9948 19.591 3.9948 19.2981 3.7019 C 18.8749 3.27869 18.2952 3.02502 17.2892 2.88976 C 16.2615 2.75159 14.9068 2.75 13 2.75 H 11 C 9.09318 2.75 7.73851 2.75159 6.71085 2.88976 C 5.70476 3.02502 5.12511 3.27869 4.7019 3.7019 C 4.27869 4.12511 4.02502 4.70476 3.88976 5.71085 C 3.75159 6.73851 3.75 8.09318 3.75 10 V 14 C 3.75 15.9068 3.75159 17.2615 3.88976 18.2892 C 4.02502 19.2952 4.27869 19.8749 4.7019 20.2981 C 5.12511 20.7213 5.70476 20.975 6.71085 21.1102 C 7.73851 21.2484 9.09318 21.25 11 21.25 H 13 C 14.9068 21.25 16.2615 21.2484 17.2892 21.1102 C 18.2952 20.975 18.8749 20.7213 19.2981 20.2981 C 19.994 19.6022 20.2048 18.5208 20.2414 15.9892 C 20.2474 15.575 20.588 15.2441 21.0022 15.2501 C 21.4163 15.2561 21.7472 15.5967 21.7412 16.0108 C 21.7061 18.4383 21.549 20.1685 20.3588 21.3588 C 19.6104 22.1071 18.6614 22.4392 17.489 22.5969 C 16.3498 22.75 14.8942 22.75 13.0564 22.75 H 10.9436 C 9.10583 22.75 7.65019 22.75 6.51098 22.5969 C 5.33856 22.4392 4.38961 22.1071 3.64124 21.3588 C 2.89288 20.6104 2.56076 19.6614 2.40314 18.489 C 2.24997 17.3498 2.24998 15.8942 2.25 14.0564 V 9.94358 C 2.24998 8.10582 2.24997 6.65019 2.40314 5.51098 C 2.56076 4.33856 2.89288 3.38961 3.64124 2.64124 C 4.38961 1.89288 5.33856 1.56076 6.51098 1.40314 C 7.65019 1.24997 9.10582 1.24998 10.9436 1.25 Z M 18.1131 7.04556 C 19.1739 5.98481 20.8937 5.98481 21.9544 7.04556 C 23.0152 8.1063 23.0152 9.82611 21.9544 10.8869 L 17.1991 15.6422 C 16.9404 15.901 16.7654 16.076 16.5693 16.2289 C 16.3387 16.4088 16.0892 16.563 15.8252 16.6889 C 15.6007 16.7958 15.3659 16.8741 15.0187 16.9897 L 12.9351 17.6843 C 12.4751 17.8376 11.9679 17.7179 11.625 17.375 C 11.2821 17.0321 11.1624 16.5249 11.3157 16.0649 L 11.9963 14.0232 C 12.001 14.0091 12.0056 13.9951 12.0102 13.9813 C 12.1259 13.6342 12.2042 13.3993 12.3111 13.1748 C 12.437 12.9108 12.5912 12.6613 12.7711 12.4307 C 12.924 12.2346 13.099 12.0596 13.3578 11.8009 C 13.3681 11.7906 13.3785 11.7802 13.3891 11.7696 L 18.1131 7.04556 Z M 20.8938 8.10622 C 20.4188 7.63126 19.6488 7.63126 19.1738 8.10622 L 18.992 8.288 C 19.0019 8.32149 19.0132 8.3571 19.0262 8.39452 C 19.1202 8.66565 19.2988 9.02427 19.6372 9.36276 C 19.9757 9.70125 20.3343 9.87975 20.6055 9.97382 C 20.6429 9.9868 20.6785 9.99812 20.712 10.008 L 20.8938 9.8262 C 21.3687 9.35124 21.3687 8.58118 20.8938 8.10622 Z M 19.5664 11.1536 C 19.2485 10.9866 18.9053 10.7521 18.5766 10.4234 C 18.2479 10.0947 18.0134 9.75146 17.8464 9.43357 L 14.4497 12.8303 C 14.1487 13.1314 14.043 13.2388 13.9538 13.3532 C 13.841 13.4979 13.7442 13.6545 13.6652 13.8202 C 13.6028 13.9511 13.5539 14.0936 13.4193 14.4976 L 13.019 15.6985 L 13.3015 15.981 L 14.5024 15.5807 C 14.9064 15.4461 15.0489 15.3972 15.1798 15.3348 C 15.3455 15.2558 15.5021 15.159 15.6468 15.0462 C 15.7612 14.957 15.8686 14.8513 16.1697 14.5503 L 19.5664 11.1536 Z M 7.25 9 C 7.25 8.58579 7.58579 8.25 8 8.25 H 14.5 C 14.9142 8.25 15.25 8.58579 15.25 9 C 15.25 9.41421 14.9142 9.75 14.5 9.75 H 8 C 7.58579 9.75 7.25 9.41421 7.25 9 Z M 7.25 13 C 7.25 12.5858 7.58579 12.25 8 12.25 H 10.5 C 10.9142 12.25 11.25 12.5858 11.25 13 C 11.25 13.4142 10.9142 13.75 10.5 13.75 H 8 C 7.58579 13.75 7.25 13.4142 7.25 13 Z M 7.25 17 C 7.25 16.5858 7.58579 16.25 8 16.25 H 9.5 C 9.91421 16.25 10.25 16.5858 10.25 17 C 10.25 17.4142 9.91421 17.75 9.5 17.75 H 8 C 7.58579 17.75 7.25 17.4142 7.25 17 Z" fill="#FFFFFF" />
</svg>