<svg xmlns="http://www.w3.org/2000/svg" width="24" height="24" viewBox="0 0 24 24" fill="none">
  <path fill-rule="nonzero" clip-rule="nonzero" d="M4.17157 3.17157 C5.34315 2 7.22876 2 11 2 L13 2 C16.7712 2 18.6569 2 19.8284 3.17157 C21 4.34315 21 6.22876 21 10 L21 14 C21 17.7712 21 19.6569 19.8284 20.8284 C18.6569 22 16.7712 22 13 22 L11 22 C7.22876 22 5.34315 22 4.17157 20.8284 C3 19.6569 3 17.7712 3 14 L3 10 C3 6.22876 3 4.34315 4.17157 3.17157 Z M 8 9.25 C 7.58579 9.25 7.25 9.58579 7.25 10 C 7.25 10.4142 7.58579 10.75 8 10.75 H 16 C 16.4142 10.75 16.75 10.4142 16.75 10 C 16.75 9.58579 16.4142 9.25 16 9.25 H 8 Z M 8 13.25 C 7.58579 13.25 7.25 13.5858 7.25 14 C 7.25 14.4142 7.58579 14.75 8 14.75 H 13 C 13.4142 14.75 13.75 14.4142 13.75 14 C 13.75 13.5858 13.4142 13.25 13 13.25 H 8 Z" fill="#FFFFFF" />
</svg>