<svg xmlns="http://www.w3.org/2000/svg" width="24" height="24" viewBox="0 0 24 24" fill="none">
  <path fill-rule="nonzero" clip-rule="nonzero" d="M8.75 2.0127 L9 2 L15 2 C17.8284 2 19.2426 2 20.1213 2.87868 C21 3.75736 21 5.17157 21 8 L21 16 C21 18.8284 21 20.2426 20.1213 21.1213 C19.2426 22 17.8284 22 15 22 L8.75 22 L8.75 2.0127 Z M10.75 6.5 C10.75 6.91421 11.0858 7.25 11.5 7.25 L16.5 7.25 C16.9142 7.25 17.25 6.91421 17.25 6.5 C17.25 6.08579 16.9142 5.75 16.5 5.75 L11.5 5.75 C11.0858 5.75 10.75 6.08579 10.75 6.5 Z M10.75 10 C10.75 10.4142 11.0858 10.75 11.5 10.75 L16.5 10.75 C16.9142 10.75 17.25 10.4142 17.25 10 C17.25 9.58579 16.9142 9.25 16.5 9.25 L11.5 9.25 C11.0858 9.25 10.75 9.58579 10.75 10 Z M 3.0007 7.25 C 3.00753 4.91427 3.08136 3.676 3.87868 2.87868 C 4.55366 2.2037 5.54467 2.04722 7.25 2.01095 V 21.9891 C 5.54467 21.9528 4.55366 21.7963 3.87868 21.1213 C 3.08136 20.324 3.00753 19.0857 3.0007 16.75 H 4 C 4.41421 16.75 4.75 16.4142 4.75 16 C 4.75 15.5858 4.41421 15.25 4 15.25 H 3 V 12.75 H 4 C 4.41421 12.75 4.75 12.4142 4.75 12 C 4.75 11.5858 4.41421 11.25 4 11.25 H 3 V 8.75 H 4 C 4.41421 8.75 4.75 8.41421 4.75 8 C 4.75 7.58579 4.41421 7.25 4 7.25 H 3.0007 Z M3.0007 7.25 C3 7.48834 3 7.73811 3 8 L3 8.75 L2 8.75 C1.58579 8.75 1.25 8.41421 1.25 8 C1.25 7.58579 1.58579 7.25 2 7.25 L3.0007 7.25 Z M 3 12.75 H 2 C 1.58579 12.75 1.25 12.4142 1.25 12 C 1.25 11.5858 1.58579 11.25 2 11.25 H 3 V 12.75 Z M3 15.25 L3 16 C3 16.2619 3 16.5117 3.0007 16.75 L2 16.75 C1.58579 16.75 1.25 16.4142 1.25 16 C1.25 15.5858 1.58579 15.25 2 15.25 L3 15.25 Z" fill="#FFFFFF" />
</svg>