<svg xmlns="http://www.w3.org/2000/svg" width="24" height="24" viewBox="0 0 24 24" fill="none">
  <path fill-rule="nonzero" clip-rule="nonzero" d="M12.0001 22.0001 C7.02954 22.0001 3.0001 17.9707 3.0001 13.0001 C3.0001 8.02954 7.02954 4.0001 12.0001 4.0001 C16.9707 4.0001 21.0001 8.02954 21.0001 13.0001 C21.0001 17.9707 16.9707 22.0001 12.0001 22.0001 Z M 13.0262 10.275 C 12.7889 10.1084 12.5202 9.93607 12.242 9.76689 C 11.1696 9.11476 10.6334 8.78869 10.1525 9.1497 C 9.6716 9.51071 9.6279 10.2665 9.54048 11.7779 C 9.51576 12.2054 9.5001 12.6244 9.5001 13.0001 C 9.5001 13.3758 9.51576 13.7948 9.54048 14.2223 C 9.62789 15.7337 9.6716 16.4895 10.1525 16.8505 C 10.6334 17.2115 11.1696 16.8854 12.242 16.2333 C 12.5202 16.0641 12.7889 15.8918 13.0262 15.7252 C 13.2967 15.5353 13.591 15.3074 13.8877 15.0653 C 14.9626 14.1884 15.5001 13.75 15.5001 13.0001 C 15.5001 12.2502 14.9626 11.8118 13.8877 10.9349 C 13.591 10.6928 13.2967 10.4649 13.0262 10.275 Z" fill="#FFFFFF" />
  <path fill-rule="nonzero" clip-rule="nonzero" d="M 8.13612 1.6026 C 8.35566 1.95386 8.24887 2.41657 7.89762 2.6361 L 3.8976 5.1361 C 3.54634 5.35563 3.08363 5.24885 2.8641 4.8976 C 2.64457 4.54634 2.75135 4.08363 3.1026 3.8641 L 7.10263 1.3641 C 7.45388 1.14457 7.91659 1.25135 8.13612 1.6026 Z M 15.8641 1.6026 C 16.0836 1.25135 16.5463 1.14457 16.8976 1.3641 L 20.8976 3.8641 C 21.2489 4.08363 21.3556 4.54635 21.1361 4.8976 C 20.9166 5.24885 20.4539 5.35563 20.1026 5.1361 L 16.1026 2.6361 C 15.7513 2.41657 15.6446 1.95385 15.8641 1.6026 Z" fill="#FFFFFF" />
</svg>