<svg xmlns="http://www.w3.org/2000/svg" width="24" height="24" viewBox="0 0 24 24" fill="none">
  <path fill-rule="nonzero" clip-rule="nonzero" d="M12.0001 22.0001 C7.02954 22.0001 3.0001 17.9707 3.0001 13.0001 C3.0001 8.02954 7.02954 4.0001 12.0001 4.0001 C16.9707 4.0001 21.0001 8.02954 21.0001 13.0001 C21.0001 17.9707 16.9707 22.0001 12.0001 22.0001 Z M14.6518 10.3484 C14.3589 10.0556 13.884 10.0556 13.5911 10.3484 L12.0001 11.9395 L10.4091 10.3485 C10.1162 10.0556 9.64133 10.0556 9.34843 10.3485 C9.05554 10.6414 9.05554 11.1162 9.34843 11.4091 L10.9394 13.0001 L9.34845 14.5911 C9.05556 14.884 9.05556 15.3589 9.34845 15.6518 C9.64134 15.9446 10.1162 15.9446 10.4091 15.6518 L12.0001 14.0608 L13.5911 15.6518 C13.884 15.9447 14.3588 15.9447 14.6517 15.6518 C14.9446 15.3589 14.9446 14.884 14.6517 14.5911 L13.0607 13.0001 L14.6518 11.4091 C14.9446 11.1162 14.9446 10.6413 14.6518 10.3484 Z" fill="#FFFFFF" />
  <path fill-rule="nonzero" clip-rule="nonzero" d="M 8.13612 1.6026 C 8.35566 1.95386 8.24887 2.41657 7.89762 2.6361 L 3.8976 5.1361 C 3.54634 5.35563 3.08363 5.24885 2.8641 4.8976 C 2.64457 4.54634 2.75135 4.08363 3.1026 3.8641 L 7.10263 1.3641 C 7.45388 1.14457 7.91659 1.25135 8.13612 1.6026 Z M 15.8641 1.6026 C 16.0836 1.25135 16.5463 1.14457 16.8976 1.3641 L 20.8976 3.8641 C 21.2489 4.08363 21.3556 4.54635 21.1361 4.8976 C 20.9166 5.24885 20.4539 5.35563 20.1026 5.1361 L 16.1026 2.6361 C 15.7513 2.41657 15.6446 1.95385 15.8641 1.6026 Z" fill="#FFFFFF" />
</svg>