<svg xmlns="http://www.w3.org/2000/svg" width="24" height="24" viewBox="0 0 24 24" fill="none">
  <path fill-rule="nonzero" clip-rule="nonzero" d="M 8.13612 1.6026 C 8.35566 1.95386 8.24887 2.41657 7.89762 2.6361 L 3.8976 5.1361 C 3.54634 5.35563 3.08363 5.24885 2.8641 4.8976 C 2.64457 4.54634 2.75135 4.08363 3.1026 3.8641 L 7.10263 1.3641 C 7.45388 1.14457 7.91659 1.25135 8.13612 1.6026 Z M 15.8641 1.6026 C 16.0836 1.25135 16.5463 1.14457 16.8976 1.3641 L 20.8976 3.8641 C 21.2489 4.08363 21.3556 4.54635 21.1361 4.8976 C 20.9166 5.24885 20.4539 5.35563 20.1026 5.1361 L 16.1026 2.6361 C 15.7513 2.41657 15.6446 1.95385 15.8641 1.6026 Z" fill="#FFFFFF" />
  <path fill-rule="nonzero" clip-rule="nonzero" d="M 21.0001 13.0001 C 21.0001 17.9707 16.9707 22.0001 12.0001 22.0001 C 7.02954 22.0001 3.0001 17.9707 3.0001 13.0001 C 3.0001 8.02954 7.02954 4.0001 12.0001 4.0001 C 16.9707 4.0001 21.0001 8.02954 21.0001 13.0001 Z M16.0001 15.5001 L16.0001 10.5001 C16.0001 10.0342 16.0001 9.80119 15.924 9.61742 C15.8225 9.37239 15.6278 9.17771 15.3828 9.07622 C15.199 9.0001 14.966 9.0001 14.5001 9.0001 C14.0342 9.0001 13.8012 9.0001 13.6174 9.07622 C13.3724 9.17771 13.1777 9.37239 13.0762 9.61742 C13.0001 9.80119 13.0001 10.0342 13.0001 10.5001 L13.0001 15.5001 C13.0001 15.966 13.0001 16.199 13.0762 16.3828 C13.1777 16.6278 13.3724 16.8225 13.6174 16.924 C13.8012 17.0001 14.0342 17.0001 14.5001 17.0001 C14.966 17.0001 15.199 17.0001 15.3828 16.924 C15.6278 16.8225 15.8225 16.6278 15.924 16.3828 C16.0001 16.199 16.0001 15.966 16.0001 15.5001 Z M 11.0001 15.5001 V 10.5001 C 11.0001 10.0342 11.0001 9.80119 10.924 9.61742 C 10.8225 9.37239 10.6278 9.17771 10.3828 9.07622 C 10.199 9.0001 9.96604 9.0001 9.5001 9.0001 C 9.03416 9.0001 8.80119 9.0001 8.61742 9.07622 C 8.37239 9.17771 8.17771 9.37239 8.07622 9.61742 C 8.0001 9.80119 8.0001 10.0342 8.0001 10.5001 V 15.5001 C 8.0001 15.966 8.0001 16.199 8.07622 16.3828 C 8.17771 16.6278 8.37239 16.8225 8.61742 16.924 C 8.80119 17.0001 9.03416 17.0001 9.5001 17.0001 C 9.96604 17.0001 10.199 17.0001 10.3828 16.924 C 10.6278 16.8225 10.8225 16.6278 10.924 16.3828 C 11.0001 16.199 11.0001 15.966 11.0001 15.5001 Z" fill="#FFFFFF" />
</svg>