<svg xmlns="http://www.w3.org/2000/svg" width="24" height="24" viewBox="0 0 24 24" fill="none">
  <path fill-rule="nonzero" clip-rule="nonzero" d="M 8.13602 1.6026 C 8.35556 1.95386 8.24877 2.41657 7.89752 2.6361 L 3.8975 5.1361 C 3.54624 5.35563 3.08353 5.24885 2.864 4.8976 C 2.64447 4.54634 2.75125 4.08363 3.1025 3.8641 L 7.10253 1.3641 C 7.45378 1.14457 7.91649 1.25135 8.13602 1.6026 Z M 15.864 1.6026 C 16.0835 1.25135 16.5462 1.14457 16.8975 1.3641 L 20.8975 3.8641 C 21.2488 4.08363 21.3555 4.54635 21.136 4.8976 C 20.9165 5.24885 20.4538 5.35563 20.1025 5.1361 L 16.1025 2.6361 C 15.7512 2.41657 15.6445 1.95385 15.864 1.6026 Z M 12 4.7501 C 7.44365 4.7501 3.75 8.44375 3.75 13.0001 C 3.75 17.5564 7.44365 21.2501 12 21.2501 C 16.5563 21.2501 20.25 17.5564 20.25 13.0001 C 20.25 8.44375 16.5563 4.7501 12 4.7501 Z M 2.25 13.0001 C 2.25 7.61532 6.61522 3.2501 12 3.2501 C 17.3848 3.2501 21.75 7.61532 21.75 13.0001 C 21.75 18.3849 17.3848 22.7501 12 22.7501 C 6.61522 22.7501 2.25 18.3849 2.25 13.0001 Z M 12 8.2501 C 12.4142 8.2501 12.75 8.58589 12.75 9.0001 V 12.6894 L 15.0303 14.9698 C 15.3232 15.2627 15.3232 15.7375 15.0303 16.0304 C 14.7374 16.3233 14.2626 16.3233 13.9697 16.0304 L 11.4697 13.5304 C 11.329 13.3898 11.25 13.199 11.25 13.0001 V 9.0001 C 11.25 8.58589 11.5858 8.2501 12 8.2501 Z" fill="#FFFFFF" />
</svg>