<svg xmlns="http://www.w3.org/2000/svg" width="24" height="24" viewBox="0 0 24 24" fill="none">
  <path fill-rule="nonzero" clip-rule="nonzero" d="M 8.13602 1.6026 C 8.35556 1.95386 8.24877 2.41657 7.89752 2.6361 L 3.8975 5.1361 C 3.54624 5.35563 3.08353 5.24885 2.864 4.8976 C 2.64447 4.54634 2.75125 4.08363 3.1025 3.8641 L 7.10253 1.3641 C 7.45378 1.14457 7.91649 1.25135 8.13602 1.6026 Z M 15.864 1.6026 C 16.0835 1.25135 16.5462 1.14457 16.8975 1.3641 L 20.8975 3.8641 C 21.2488 4.08363 21.3555 4.54635 21.136 4.8976 C 20.9165 5.24885 20.4538 5.35563 20.1025 5.1361 L 16.1025 2.6361 C 15.7512 2.41657 15.6445 1.95385 15.864 1.6026 Z M 12 4.7501 C 7.44365 4.7501 3.75 8.44375 3.75 13.0001 C 3.75 17.5564 7.44365 21.2501 12 21.2501 C 16.5563 21.2501 20.25 17.5564 20.25 13.0001 C 20.25 8.44375 16.5563 4.7501 12 4.7501 Z M 2.25 13.0001 C 2.25 7.61532 6.61522 3.2501 12 3.2501 C 17.3848 3.2501 21.75 7.61532 21.75 13.0001 C 21.75 18.3849 17.3848 22.7501 12 22.7501 C 6.61522 22.7501 2.25 18.3849 2.25 13.0001 Z M 12.5727 9.09026 C 12.5923 9.10217 12.6119 9.11411 12.6316 9.12607 C 12.9188 9.3007 13.2022 9.48225 13.4571 9.66123 C 13.7473 9.86502 14.0567 10.105 14.3617 10.3537 C 14.3771 10.3663 14.3925 10.3788 14.4078 10.3913 C 14.9056 10.7974 15.3532 11.1624 15.6659 11.5265 C 16.0204 11.9394 16.25 12.4035 16.25 13.0001 C 16.25 13.5967 16.0204 14.0608 15.6659 14.4737 C 15.3532 14.8378 14.9057 15.2028 14.4078 15.6089 L 14.3617 15.6465 C 14.0567 15.8952 13.7473 16.1352 13.4571 16.339 C 13.2022 16.5179 12.9188 16.6995 12.6316 16.8741 C 12.6119 16.8861 12.5923 16.898 12.5727 16.9099 C 12.0879 17.205 11.6298 17.4837 11.2289 17.6277 C 11.0061 17.7077 10.7505 17.7665 10.4754 17.746 C 10.1864 17.7245 9.92767 17.6196 9.70216 17.4503 C 9.24308 17.1057 9.05869 16.6067 8.96253 16.1105 C 8.87092 15.6377 8.83573 15.0288 8.79462 14.3172 L 8.79163 14.2656 C 8.76641 13.8294 8.75 13.395 8.75 13.0001 C 8.75 12.6052 8.76641 12.1708 8.79163 11.7346 L 8.79462 11.683 C 8.83573 10.9714 8.87092 10.3625 8.96253 9.88971 C 9.05869 9.39349 9.24308 8.89451 9.70216 8.54989 C 9.92767 8.3806 10.1864 8.27567 10.4754 8.25419 C 10.7505 8.23374 11.0061 8.29248 11.2289 8.37253 C 11.6298 8.51654 12.0879 8.79525 12.5727 9.09026 Z M 10.6004 9.75124 C 10.5758 9.77005 10.5007 9.83663 10.4351 10.1751 C 10.365 10.5369 10.3341 11.0436 10.2891 11.8213 C 10.2649 12.24 10.25 12.6437 10.25 13.0001 C 10.25 13.3565 10.2649 13.7602 10.2891 14.1789 C 10.3341 14.9566 10.365 15.4633 10.4351 15.8251 C 10.5007 16.1636 10.5758 16.2302 10.6004 16.249 C 10.6192 16.2466 10.6575 16.2391 10.7218 16.216 C 10.9612 16.13 11.2865 15.9365 11.8523 15.5925 C 12.1215 15.4288 12.3755 15.2656 12.5951 15.1114 C 12.8458 14.9354 13.125 14.7195 13.4135 14.4841 C 13.9722 14.0284 14.3127 13.7471 14.5279 13.4965 C 14.7108 13.2834 14.75 13.1533 14.75 13.0001 C 14.75 12.8469 14.7108 12.7168 14.5279 12.5037 C 14.3127 12.2531 13.9722 11.9718 13.4135 11.5161 C 13.125 11.2807 12.8458 11.0648 12.5951 10.8888 C 12.3755 10.7346 12.1215 10.5714 11.8523 10.4077 C 11.2865 10.0637 10.9612 9.87019 10.7218 9.7842 C 10.6575 9.76111 10.6192 9.75365 10.6004 9.75124 Z" fill="#FFFFFF" />
</svg>