<svg xmlns="http://www.w3.org/2000/svg" width="24" height="24" viewBox="0 0 24 24" fill="none">
  <path fill-rule="nonzero" clip-rule="nonzero" d="M 8.13602 1.6026 C 8.35556 1.95386 8.24877 2.41657 7.89752 2.6361 L 3.8975 5.1361 C 3.54624 5.35563 3.08353 5.24885 2.864 4.8976 C 2.64447 4.54634 2.75125 4.08363 3.1025 3.8641 L 7.10253 1.3641 C 7.45378 1.14457 7.91649 1.25135 8.13602 1.6026 Z M 15.864 1.6026 C 16.0835 1.25135 16.5462 1.14457 16.8975 1.3641 L 20.8975 3.8641 C 21.2488 4.08363 21.3555 4.54635 21.136 4.8976 C 20.9165 5.24885 20.4538 5.35563 20.1025 5.1361 L 16.1025 2.6361 C 15.7512 2.41657 15.6445 1.95385 15.864 1.6026 Z M 12 4.7501 C 7.44365 4.7501 3.75 8.44375 3.75 13.0001 C 3.75 17.5564 7.44365 21.2501 12 21.2501 C 16.5563 21.2501 20.25 17.5564 20.25 13.0001 C 20.25 8.44375 16.5563 4.7501 12 4.7501 Z M 2.25 13.0001 C 2.25 7.61532 6.61522 3.2501 12 3.2501 C 17.3848 3.2501 21.75 7.61532 21.75 13.0001 C 21.75 18.3849 17.3848 22.7501 12 22.7501 C 6.61522 22.7501 2.25 18.3849 2.25 13.0001 Z M 9 10.7501 C 8.58579 10.7501 8.25 10.4143 8.25 10.0001 C 8.25 9.58589 8.58579 9.2501 9 9.2501 H 15 C 15.3033 9.2501 15.5768 9.43283 15.6929 9.71309 C 15.809 9.99334 15.7448 10.3159 15.5303 10.5304 L 10.8107 15.2501 H 15 C 15.4142 15.2501 15.75 15.5859 15.75 16.0001 C 15.75 16.4143 15.4142 16.7501 15 16.7501 H 9 C 8.69665 16.7501 8.42318 16.5674 8.30709 16.2871 C 8.191 16.0069 8.25517 15.6843 8.46967 15.4698 L 13.1893 10.7501 H 9 Z" fill="#FFFFFF" />
</svg>