<svg xmlns="http://www.w3.org/2000/svg" width="24" height="24" viewBox="0 0 24 24" fill="none">
  <path fill-rule="nonzero" clip-rule="nonzero" d="M 7 1.75 C 7.41421 1.75 7.75 2.08579 7.75 2.5 V 3.26272 C 8.41203 3.24999 9.1414 3.24999 9.94358 3.25 H 14.0564 C 14.8586 3.24999 15.588 3.24999 16.25 3.26272 V 2.5 C 16.25 2.08579 16.5858 1.75 17 1.75 C 17.4142 1.75 17.75 2.08579 17.75 2.5 V 3.32709 C 18.0099 3.34691 18.2561 3.37182 18.489 3.40313 C 19.6614 3.56076 20.6104 3.89288 21.3588 4.64124 C 22.1071 5.38961 22.4392 6.33855 22.5969 7.51098 C 22.6472 7.88567 22.681 8.29459 22.7037 8.74007 C 22.7337 8.82106 22.75 8.90861 22.75 9 C 22.75 9.06932 22.7406 9.13644 22.723 9.20016 C 22.75 10.0021 22.75 10.9128 22.75 11.9436 V 14.0564 C 22.75 15.8942 22.75 17.3498 22.5969 18.489 C 22.4392 19.6614 22.1071 20.6104 21.3588 21.3588 C 20.6104 22.1071 19.6614 22.4392 18.489 22.5969 C 17.3498 22.75 15.8942 22.75 14.0564 22.75 H 9.94359 C 8.10583 22.75 6.65019 22.75 5.51098 22.5969 C 4.33856 22.4392 3.38961 22.1071 2.64124 21.3588 C 1.89288 20.6104 1.56076 19.6614 1.40314 18.489 C 1.24997 17.3498 1.24998 15.8942 1.25 14.0564 V 11.9436 C 1.24999 10.9127 1.24998 10.0021 1.27701 9.20017 C 1.25941 9.13645 1.25 9.06932 1.25 9 C 1.25 8.90862 1.26634 8.82105 1.29627 8.74006 C 1.31895 8.29458 1.35276 7.88566 1.40314 7.51098 C 1.56076 6.33856 1.89288 5.38961 2.64124 4.64124 C 3.38961 3.89288 4.33856 3.56076 5.51098 3.40313 C 5.7439 3.37182 5.99006 3.34691 6.25 3.32709 V 2.5 C 6.25 2.08579 6.58579 1.75 7 1.75 Z M 2.76309 9.75 C 2.75032 10.4027 2.75 11.146 2.75 12 V 14 C 2.75 15.9068 2.75159 17.2615 2.88976 18.2892 C 3.02502 19.2952 3.27869 19.8749 3.7019 20.2981 C 4.12511 20.7213 4.70476 20.975 5.71085 21.1102 C 6.73851 21.2484 8.09318 21.25 10 21.25 H 14 C 15.9068 21.25 17.2615 21.2484 18.2892 21.1102 C 19.2952 20.975 19.8749 20.7213 20.2981 20.2981 C 20.7213 19.8749 20.975 19.2952 21.1102 18.2892 C 21.2484 17.2615 21.25 15.9068 21.25 14 V 12 C 21.25 11.146 21.2497 10.4027 21.2369 9.75 H 2.76309 Z M21.1683 8.25 C21.1523 8.06061 21.1331 7.88123 21.1102 7.71085 C20.975 6.70476 20.7213 6.12511 20.2981 5.7019 C19.8749 5.27869 19.2952 5.02502 18.2892 4.88976 C17.2615 4.75159 15.9068 4.75 14 4.75 L10 4.75 C8.09318 4.75 6.73851 4.75159 5.71085 4.88976 C4.70476 5.02502 4.12511 5.27869 3.7019 5.7019 C3.27869 6.12511 3.02502 6.70476 2.88976 7.71085 C2.86685 7.88123 2.8477 8.06061 2.83168 8.25 L21.1683 8.25 Z" fill="#FFFFFF" />
</svg>