<svg xmlns="http://www.w3.org/2000/svg" width="24" height="24" viewBox="0 0 24 24" fill="none">
  <path d="M7.75 2.5C7.75 2.08579 7.41421 1.75 7 1.75C6.58579 1.75 6.25 2.08579 6.25 2.5V4.07926C4.81067 4.19451 3.86577 4.47737 3.17157 5.17157C2.47737 5.86577 2.19451 6.81067 2.07926 8.25H21.9207C21.8055 6.81067 21.5226 5.86577 20.8284 5.17157C20.1342 4.47737 19.1893 4.19451 17.75 4.07926V2.5C17.75 2.08579 17.4142 1.75 17 1.75C16.5858 1.75 16.25 2.08579 16.25 2.5V4.0129C15.5847 4 14.839 4 14 4H10C9.16097 4 8.41527 4 7.75 4.0129V2.5Z" fill="#FFFFFF" />
  <path fill-rule="nonzero" clip-rule="nonzero" d="M22 12 L22 14 C22 17.7712 22 19.6569 20.8284 20.8284 C19.6569 22 17.7712 22 14 22 L10 22 C6.22876 22 4.34315 22 3.17157 20.8284 C2 19.6569 2 17.7712 2 14 L2 12 C2 11.161 2 10.4153 2.0129 9.75 L21.9871 9.75 C22 10.4153 22 11.161 22 12 Z M 14 12.25 C 13.0335 12.25 12.25 13.0335 12.25 14 V 16 C 12.25 16.9665 13.0335 17.75 14 17.75 C 14.9665 17.75 15.75 16.9665 15.75 16 V 14 C 15.75 13.0335 14.9665 12.25 14 12.25 Z M14 13.75 C14.1381 13.75 14.25 13.8619 14.25 14 L14.25 16 C14.25 16.1381 14.1381 16.25 14 16.25 C13.8619 16.25 13.75 16.1381 13.75 16 L13.75 14 C13.75 13.8619 13.8619 13.75 14 13.75 Z M10.787 12.3071 C10.5068 12.191 10.1842 12.2552 9.96967 12.4697 L8.46967 13.9697 C8.17678 14.2626 8.17678 14.7374 8.46967 15.0303 C8.76256 15.3232 9.23744 15.3232 9.53033 15.0303 L9.75 14.8107 L9.75 17 C9.75 17.4142 10.0858 17.75 10.5 17.75 C10.9142 17.75 11.25 17.4142 11.25 17 L11.25 13 C11.25 12.6967 11.0673 12.4232 10.787 12.3071 Z" fill="#FFFFFF" />
</svg>