<svg xmlns="http://www.w3.org/2000/svg" width="24" height="24" viewBox="0 0 24 24" fill="none">
  <path d="M7.75 2.5C7.75 2.08579 7.41421 1.75 7 1.75C6.58579 1.75 6.25 2.08579 6.25 2.5V4.07926C4.81067 4.19451 3.86577 4.47737 3.17157 5.17157C2.47737 5.86577 2.19451 6.81067 2.07926 8.25H21.9207C21.8055 6.81067 21.5226 5.86577 20.8284 5.17157C20.1342 4.47737 19.1893 4.19451 17.75 4.07926V2.5C17.75 2.08579 17.4142 1.75 17 1.75C16.5858 1.75 16.25 2.08579 16.25 2.5V4.0129C15.5847 4 14.839 4 14 4H10C9.16097 4 8.41527 4 7.75 4.0129V2.5Z" fill="#FFFFFF" />
  <path fill-rule="nonzero" clip-rule="nonzero" d="M 2 12 C 2 11.161 2 10.4153 2.0129 9.75 H 21.9871 C 22 10.4153 22 11.161 22 12 V 14 C 22 17.7712 22 19.6569 20.8284 20.8284 C 19.6569 22 17.7712 22 14 22 H 10 C 6.22876 22 4.34315 22 3.17157 20.8284 C 2 19.6569 2 17.7712 2 14 V 12 Z M 17 14 C 17.5523 14 18 13.5523 18 13 C 18 12.4477 17.5523 12 17 12 C 16.4477 12 16 12.4477 16 13 C 16 13.5523 16.4477 14 17 14 Z M 17 18 C 17.5523 18 18 17.5523 18 17 C 18 16.4477 17.5523 16 17 16 C 16.4477 16 16 16.4477 16 17 C 16 17.5523 16.4477 18 17 18 Z M13 13 C13 12.4477 12.5523 12 12 12 C11.4477 12 11 12.4477 11 13 C11 13.5523 11.4477 14 12 14 C12.5523 14 13 13.5523 13 13 Z M13 17 C13 16.4477 12.5523 16 12 16 C11.4477 16 11 16.4477 11 17 C11 17.5523 11.4477 18 12 18 C12.5523 18 13 17.5523 13 17 Z M 7 14 C 7.55228 14 8 13.5523 8 13 C 8 12.4477 7.55228 12 7 12 C 6.44772 12 6 12.4477 6 13 C 6 13.5523 6.44772 14 7 14 Z M 7 18 C 7.55228 18 8 17.5523 8 17 C 8 16.4477 7.55228 16 7 16 C 6.44772 16 6 16.4477 6 17 C 6 17.5523 6.44772 18 7 18 Z" fill="#FFFFFF" />
</svg>