<svg xmlns="http://www.w3.org/2000/svg" width="24" height="24" viewBox="0 0 24 24" fill="none">
  <path fill-rule="nonzero" clip-rule="nonzero" d="M 12 2.75 C 6.89137 2.75 2.75 6.89137 2.75 12 C 2.75 17.1086 6.89137 21.25 12 21.25 C 17.1086 21.25 21.25 17.1086 21.25 12 C 21.25 6.89137 17.1086 2.75 12 2.75 Z M 1.25 12 C 1.25 6.06294 6.06294 1.25 12 1.25 C 17.9371 1.25 22.75 6.06294 22.75 12 C 22.75 17.9371 17.9371 22.75 12 22.75 C 6.06294 22.75 1.25 17.9371 1.25 12 Z M 12 7.25 C 12.4142 7.25 12.75 7.58579 12.75 8 V 11.6893 L 15.0303 13.9697 C 15.3232 14.2626 15.3232 14.7374 15.0303 15.0303 C 14.7374 15.3232 14.2626 15.3232 13.9697 15.0303 L 11.4697 12.5303 C 11.329 12.3897 11.25 12.1989 11.25 12 V 8 C 11.25 7.58579 11.5858 7.25 12 7.25 Z" fill="#FFFFFF" />
</svg>