<svg xmlns="http://www.w3.org/2000/svg" width="24" height="24" viewBox="0 0 24 24" fill="none">
  <path fill-rule="nonzero" clip-rule="nonzero" d="M 11.25 2 C 11.25 1.58579 11.5858 1.25 12 1.25 C 17.9371 1.25 22.75 6.06294 22.75 12 C 22.75 17.9371 17.9371 22.75 12 22.75 C 6.06294 22.75 1.25 17.9371 1.25 12 C 1.25 11.5858 1.58579 11.25 2 11.25 C 2.41421 11.25 2.75 11.5858 2.75 12 C 2.75 17.1086 6.89137 21.25 12 21.25 C 17.1086 21.25 21.25 17.1086 21.25 12 C 21.25 6.89137 17.1086 2.75 12 2.75 C 11.5858 2.75 11.25 2.41421 11.25 2 Z M 12 8.25 C 12.4142 8.25 12.75 8.58579 12.75 9 V 12.25 H 16 C 16.4142 12.25 16.75 12.5858 16.75 13 C 16.75 13.4142 16.4142 13.75 16 13.75 H 12 C 11.5858 13.75 11.25 13.4142 11.25 13 V 9 C 11.25 8.58579 11.5858 8.25 12 8.25 Z" fill="#FFFFFF" />
  <path fill-rule="nonzero" clip-rule="nonzero" d="M 9.09958 2.39754 C 9.24874 2.78396 9.05641 3.21814 8.66999 3.36731 C 8.52855 3.42191 8.38879 3.47988 8.2508 3.54114 C 7.87221 3.70921 7.42906 3.53856 7.261 3.15997 C 7.09293 2.78139 7.26358 2.33824 7.64217 2.17017 C 7.80267 2.09892 7.96526 2.03147 8.1298 1.96795 C 8.51623 1.81878 8.95041 2.01112 9.09958 2.39754 Z M 5.6477 4.24026 C 5.93337 4.54021 5.92178 5.01495 5.62183 5.30061 C 5.51216 5.40506 5.40505 5.51216 5.30061 5.62183 C 5.01495 5.92178 4.54021 5.93337 4.24026 5.6477 C 3.94031 5.36204 3.92873 4.88731 4.21439 4.58736 C 4.33566 4.46003 4.46002 4.33566 4.58736 4.21439 C 4.88731 3.92873 5.36204 3.94031 5.6477 4.24026 Z M 3.15997 7.261 C 3.53856 7.42907 3.70921 7.87222 3.54114 8.2508 C 3.47988 8.38879 3.42191 8.52855 3.36731 8.66999 C 3.21814 9.05641 2.78396 9.24874 2.39754 9.09958 C 2.01112 8.95041 1.81878 8.51623 1.96795 8.12981 C 2.03147 7.96526 2.09892 7.80267 2.17017 7.64217 C 2.33824 7.26358 2.78139 7.09293 3.15997 7.261 Z" fill="#FFFFFF" />
</svg>