<svg xmlns="http://www.w3.org/2000/svg" width="24" height="24" viewBox="0 0 24 24" fill="none">
  <path fill-rule="nonzero" clip-rule="nonzero" d="M12 22 C7.02944 22 3 17.9706 3 13 C3 8.02944 7.02944 4 12 4 C16.9706 4 21 8.02944 21 13 C21 17.9706 16.9706 22 12 22 Z M12 8.25 C11.5858 8.25 11.25 8.58579 11.25 9 L11.25 13 C11.25 13.4142 11.5858 13.75 12 13.75 C12.4142 13.75 12.75 13.4142 12.75 13 L12.75 9 C12.75 8.58579 12.4142 8.25 12 8.25 Z" fill="#FFFFFF" />
  <path fill-rule="evenodd" clip-rule="evenodd" d="M9.25 2C9.25 1.58579 9.58579 1.25 10 1.25H14C14.4142 1.25 14.75 1.58579 14.75 2C14.75 2.41421 14.4142 2.75 14 2.75H10C9.58579 2.75 9.25 2.41421 9.25 2Z" fill="#FFFFFF" />
</svg>