<svg xmlns="http://www.w3.org/2000/svg" width="24" height="24" viewBox="0 0 24 24" fill="none">
  <path fill-rule="nonzero" clip-rule="nonzero" d="M 21 13.75 C 21 18.7206 16.9706 22.75 12 22.75 C 7.02944 22.75 3 18.7206 3 13.75 C 3 8.77944 7.02944 4.75 12 4.75 C 16.9706 4.75 21 8.77944 21 13.75 Z M 11 16.25 V 11.25 C 11 10.7841 11 10.5511 10.9239 10.3673 C 10.8224 10.1223 10.6277 9.92761 10.3827 9.82612 C 10.1989 9.75 9.96594 9.75 9.5 9.75 C 9.03406 9.75 8.80109 9.75 8.61732 9.82612 C 8.37229 9.92761 8.17761 10.1223 8.07612 10.3673 C 8 10.5511 8 10.7841 8 11.25 V 16.25 C 8 16.7159 8 16.9489 8.07612 17.1327 C 8.17761 17.3777 8.37229 17.5724 8.61732 17.6739 C 8.80109 17.75 9.03406 17.75 9.5 17.75 C 9.96594 17.75 10.1989 17.75 10.3827 17.6739 C 10.6277 17.5724 10.8224 17.3777 10.9239 17.1327 C 11 16.9489 11 16.7159 11 16.25 Z M 16 16.25 V 11.25 C 16 10.7841 16 10.5511 15.9239 10.3673 C 15.8224 10.1223 15.6277 9.92761 15.3827 9.82612 C 15.1989 9.75 14.9659 9.75 14.5 9.75 C 14.0341 9.75 13.8011 9.75 13.6173 9.82612 C 13.3723 9.92761 13.1776 10.1223 13.0761 10.3673 C 13 10.5511 13 10.7841 13 11.25 V 16.25 C 13 16.7159 13 16.9489 13.0761 17.1327 C 13.1776 17.3777 13.3723 17.5724 13.6173 17.6739 C 13.8011 17.75 14.0341 17.75 14.5 17.75 C 14.9659 17.75 15.1989 17.75 15.3827 17.6739 C 15.6277 17.5724 15.8224 17.3777 15.9239 17.1327 C 16 16.9489 16 16.7159 16 16.25 Z" fill="#FFFFFF" />
  <path d="M10 2C9.58579 2 9.25 2.33579 9.25 2.75C9.25 3.16421 9.58579 3.5 10 3.5H14C14.4142 3.5 14.75 3.16421 14.75 2.75C14.75 2.33579 14.4142 2 14 2H10Z" fill="#FFFFFF" />
</svg>