<svg xmlns="http://www.w3.org/2000/svg" width="24" height="24" viewBox="0 0 24 24" fill="none">
  <path fill-rule="nonzero" clip-rule="nonzero" d="M5.67412 6.77772 C5.96596 6.34096 6.34096 5.96596 6.77772 5.67412 C7.78661 5 9.19108 5 12 5 C14.8089 5 16.2134 5 17.2223 5.67412 C17.659 5.96596 18.034 6.34096 18.3259 6.77772 C19 7.78661 19 9.19108 19 12 C19 14.8089 19 16.2134 18.3259 17.2223 C18.034 17.659 17.659 18.034 17.2223 18.3259 C16.2134 19 14.8089 19 12 19 C9.19108 19 7.78661 19 6.77772 18.3259 C6.34096 18.034 5.96596 17.659 5.67412 17.2223 C5 16.2134 5 14.8089 5 12 C5 9.19108 5 7.78661 5.67412 6.77772 Z M13.3744 8.4569 C13.0744 8.17123 12.5997 8.18281 12.314 8.48276 L9.4569 11.4828 C9.24999 11.7 9.19246 12.0197 9.31064 12.2954 C9.42883 12.5712 9.69998 12.75 10 12.75 L12.25 12.75 L10.5998 14.4828 C10.3141 14.7827 10.3257 15.2574 10.6256 15.5431 C10.9256 15.8288 11.4003 15.8172 11.686 15.5172 L14.5431 12.5172 C14.75 12.3 14.8075 11.9803 14.6894 11.7046 C14.5712 11.4288 14.3 11.25 14 11.25 L11.75 11.25 L13.4002 9.51724 C13.6859 9.21729 13.6743 8.74256 13.3744 8.4569 Z" fill="#FFFFFF" />
  <path fill-rule="nonzero" clip-rule="nonzero" d="M 6.25 2 C 6.25 1.58579 6.58579 1.25 7 1.25 H 17 C 17.4142 1.25 17.75 1.58579 17.75 2 C 17.75 2.41421 17.4142 2.75 17 2.75 H 7 C 6.58579 2.75 6.25 2.41421 6.25 2 Z M 6.25 22 C 6.25 21.5858 6.58579 21.25 7 21.25 H 17 C 17.4142 21.25 17.75 21.5858 17.75 22 C 17.75 22.4142 17.4142 22.75 17 22.75 H 7 C 6.58579 22.75 6.25 22.4142 6.25 22 Z" fill="#FFFFFF" />
</svg>