<svg xmlns="http://www.w3.org/2000/svg" width="24" height="24" viewBox="0 0 24 24" fill="none">
  <path fill-rule="nonzero" clip-rule="nonzero" d="M5.67412 6.77772 C5.96596 6.34096 6.34096 5.96596 6.77772 5.67412 C7.78661 5 9.19108 5 12 5 C14.8089 5 16.2134 5 17.2223 5.67412 C17.659 5.96596 18.034 6.34096 18.3259 6.77772 C19 7.78661 19 9.19108 19 12 C19 14.8089 19 16.2134 18.3259 17.2223 C18.034 17.659 17.659 18.034 17.2223 18.3259 C16.2134 19 14.8089 19 12 19 C9.19108 19 7.78661 19 6.77772 18.3259 C6.34096 18.034 5.96596 17.659 5.67412 17.2223 C5 16.2134 5 14.8089 5 12 C5 9.19108 5 7.78661 5.67412 6.77772 Z M12 8.24998 C11.5858 8.24998 11.25 8.58577 11.25 8.99998 L11.25 12.0769 C11.25 12.2809 11.3331 12.4761 11.4802 12.6175 L13.4802 14.5406 C13.7787 14.8277 14.2535 14.8184 14.5406 14.5198 C14.8277 14.2212 14.8184 13.7465 14.5198 13.4594 L12.75 11.7576 L12.75 8.99998 C12.75 8.58577 12.4142 8.24998 12 8.24998 Z" fill="#FFFFFF" />
  <path fill-rule="nonzero" clip-rule="nonzero" d="M 6.25 2 C 6.25 1.58579 6.58579 1.25 7 1.25 H 17 C 17.4142 1.25 17.75 1.58579 17.75 2 C 17.75 2.41421 17.4142 2.75 17 2.75 H 7 C 6.58579 2.75 6.25 2.41421 6.25 2 Z M 6.25 22 C 6.25 21.5858 6.58579 21.25 7 21.25 H 17 C 17.4142 21.25 17.75 21.5858 17.75 22 C 17.75 22.4142 17.4142 22.75 17 22.75 H 7 C 6.58579 22.75 6.25 22.4142 6.25 22 Z" fill="#FFFFFF" />
</svg>