<svg xmlns="http://www.w3.org/2000/svg" width="24" height="24" viewBox="0 0 24 24" fill="none">
  <path fill-rule="nonzero" clip-rule="nonzero" d="M12 18.9767 C8.13401 18.9767 5 15.8531 5 12 C5 8.14685 8.13401 5.02326 12 5.02326 C15.866 5.02326 19 8.14685 19 12 C19 15.8531 15.866 18.9767 12 18.9767 Z M12 8.44007 C11.6134 8.44007 11.3 8.75243 11.3 9.13775 L11.3 12 C11.3 12.1898 11.3776 12.3714 11.5148 12.5029 L13.3815 14.2918 C13.6602 14.5589 14.1033 14.5502 14.3713 14.2725 C14.6392 13.9947 14.6305 13.5531 14.3518 13.286 L12.7 11.703 L12.7 9.13775 C12.7 8.75243 12.3866 8.44007 12 8.44007 Z" fill="#FFFFFF" />
  <path d="M9.85849 2.07434C10.4136 1.99995 11.1129 1.99997 11.9515 2H12.0485C12.8871 1.99997 13.5864 1.99995 14.1415 2.07434C14.7275 2.15285 15.2565 2.32557 15.6816 2.74926C16.1067 3.17296 16.28 3.70021 16.3587 4.28421C16.3832 4.46531 16.3996 4.66181 16.4107 4.87353C15.1287 4.08373 13.6178 3.62791 12 3.62791C10.3822 3.62791 8.87125 4.08373 7.58934 4.87353C7.60039 4.66181 7.61682 4.46531 7.64125 4.28421C7.72003 3.70021 7.89332 3.17296 8.31843 2.74926C8.74353 2.32557 9.27254 2.15285 9.85849 2.07434Z" fill="#FFFFFF" />
  <path d="M15.6816 21.2507C16.1067 20.827 16.28 20.2998 16.3587 19.7158C16.3832 19.5347 16.3996 19.3382 16.4107 19.1265C15.1287 19.9163 13.6178 20.3721 12 20.3721C10.3822 20.3721 8.87125 19.9163 7.58934 19.1265C7.60039 19.3382 7.61682 19.5347 7.64125 19.7158C7.72003 20.2998 7.89332 20.827 8.31843 21.2507C8.74353 21.6744 9.27254 21.8471 9.85849 21.9257C10.4136 22 11.1129 22 11.9515 22H12.0485C12.8871 22 13.5864 22 14.1415 21.9257C14.7275 21.8471 15.2565 21.6744 15.6816 21.2507Z" fill="#FFFFFF" />
</svg>