<svg xmlns="http://www.w3.org/2000/svg" width="24" height="24" viewBox="0 0 24 24" fill="none">
  <path fill-rule="nonzero" clip-rule="nonzero" d="M 11.1637 1.25 H 12.8363 C 13.5671 1.24998 14.1822 1.24995 14.6808 1.31045 C 15.2098 1.37466 15.6926 1.51494 16.1164 1.85489 C 16.5402 2.19484 16.7819 2.63575 16.9593 3.13824 C 17.1265 3.61177 17.2599 4.21229 17.4184 4.92566 L 17.6558 5.99377 C 19.2529 7.49827 20.25 9.63269 20.25 12 C 20.25 14.3673 19.2529 16.5017 17.6558 18.0062 L 17.4184 19.0743 C 17.2599 19.7877 17.1265 20.3882 16.9593 20.8618 C 16.7819 21.3643 16.5402 21.8052 16.1164 22.1451 C 15.6926 22.4851 15.2098 22.6253 14.6808 22.6896 C 14.1822 22.75 13.5671 22.75 12.8363 22.75 H 11.1637 C 10.4329 22.75 9.81775 22.75 9.31924 22.6896 C 8.79022 22.6253 8.30738 22.4851 7.88359 22.1451 C 7.45981 21.8052 7.21812 21.3643 7.04069 20.8618 C 6.87349 20.3882 6.74006 19.7877 6.58156 19.0744 L 6.3442 18.0062 C 4.74708 16.5017 3.75 14.3673 3.75 12 C 3.75 9.63269 4.74708 7.49827 6.3442 5.99377 L 6.58156 4.92565 C 6.74006 4.21229 6.87349 3.61176 7.04069 3.13824 C 7.21812 2.63575 7.45981 2.19484 7.88359 1.85489 C 8.30738 1.51494 8.79022 1.37466 9.31924 1.31045 C 9.81776 1.24995 10.4329 1.24998 11.1637 1.25 Z M 8.17198 4.68998 C 9.31604 4.08964 10.6184 3.75 12 3.75 C 13.3816 3.75 14.684 4.08964 15.828 4.68998 C 15.7251 4.24192 15.6397 3.90614 15.5449 3.63767 C 15.4184 3.27937 15.3024 3.12492 15.1778 3.02495 C 15.0532 2.92498 14.8773 2.84531 14.5001 2.79953 C 14.1025 2.75129 13.579 2.75 12.7913 2.75 H 11.2087 C 10.421 2.75 9.89746 2.75129 9.49995 2.79953 C 9.12273 2.84531 8.94681 2.92498 8.82218 3.02495 C 8.69756 3.12492 8.58162 3.27937 8.4551 3.63767 C 8.36031 3.90614 8.27487 4.24192 8.17198 4.68998 Z M 8.17198 19.31 C 8.27487 19.7581 8.36031 20.0939 8.4551 20.3623 C 8.58162 20.7206 8.69756 20.8751 8.82218 20.9751 C 8.94681 21.075 9.12273 21.1547 9.49995 21.2005 C 9.89746 21.2487 10.421 21.25 11.2087 21.25 H 12.7913 C 13.579 21.25 14.1025 21.2487 14.5001 21.2005 C 14.8773 21.1547 15.0532 21.075 15.1778 20.9751 C 15.3024 20.8751 15.4184 20.7206 15.5449 20.3623 C 15.6397 20.0939 15.7251 19.7581 15.828 19.31 C 14.684 19.9104 13.3816 20.25 12 20.25 C 10.6184 20.25 9.31604 19.9104 8.17198 19.31 Z M 12 5.25 C 8.27208 5.25 5.25 8.27208 5.25 12 C 5.25 15.7279 8.27208 18.75 12 18.75 C 15.7279 18.75 18.75 15.7279 18.75 12 C 18.75 8.27208 15.7279 5.25 12 5.25 Z M 12 8.17308 C 12.4142 8.17308 12.75 8.50886 12.75 8.92308 V 11.6807 L 14.5198 13.3825 C 14.8184 13.6695 14.8277 14.1443 14.5406 14.4429 C 14.2535 14.7415 13.7787 14.7508 13.4802 14.4637 L 11.4802 12.5406 C 11.3331 12.3992 11.25 12.204 11.25 12 V 8.92308 C 11.25 8.50886 11.5858 8.17308 12 8.17308 Z" fill="#FFFFFF" />
</svg>