<svg xmlns="http://www.w3.org/2000/svg" width="24" height="24" viewBox="0 0 24 24" fill="none">
  <path d="M9.75 12C9.75 13.2426 10.7574 14.25 12 14.25C13.2426 14.25 14.25 13.2426 14.25 12C14.25 10.7574 13.2426 9.75 12 9.75C10.7574 9.75 9.75 10.7574 9.75 12Z" fill="#FFFFFF" />
  <path fill-rule="nonzero" clip-rule="nonzero" d="M3.77772 18.3259 C3.34096 18.034 2.96596 17.659 2.67412 17.2223 C2 16.2134 2 14.8089 2 12 C2 9.19108 2 7.78661 2.67412 6.77772 C2.96596 6.34096 3.34096 5.96596 3.77772 5.67412 C4.78661 5 6.19108 5 9 5 L15 5 C17.8089 5 19.2134 5 20.2223 5.67412 C20.659 5.96595 21.034 6.34096 21.3259 6.77772 C22 7.78661 22 9.19107 22 12 C22 14.8089 22 16.2134 21.3259 17.2223 C21.034 17.659 20.659 18.034 20.2223 18.3259 C19.2134 19 17.8089 19 15 19 L9 19 C6.19108 19 4.78661 19 3.77772 18.3259 Z M12 15.75 C14.0711 15.75 15.75 14.0711 15.75 12 C15.75 9.92893 14.0711 8.25 12 8.25 C9.92893 8.25 8.25 9.92893 8.25 12 C8.25 14.0711 9.92893 15.75 12 15.75 Z M5.5 15.75 C5.91421 15.75 6.25 15.4142 6.25 15 L6.25 9 C6.25 8.58579 5.91421 8.25 5.5 8.25 C5.08579 8.25 4.75 8.58579 4.75 9 L4.75 15 C4.75 15.4142 5.08579 15.75 5.5 15.75 Z M 17.75 15 C 17.75 15.4142 18.0858 15.75 18.5 15.75 C 18.9142 15.75 19.25 15.4142 19.25 15 V 9 C 19.25 8.58579 18.9142 8.25 18.5 8.25 C 18.0858 8.25 17.75 8.58579 17.75 9 V 15 Z" fill="#FFFFFF" />
</svg>