<svg xmlns="http://www.w3.org/2000/svg" width="24" height="24" viewBox="0 0 24 24" fill="none">
  <path fill-rule="nonzero" clip-rule="nonzero" d="M 7.24502 2 H 16.755 C 17.9139 2 18.4933 2 18.9606 2.16261 C 19.8468 2.47096 20.5425 3.18719 20.842 4.09946 C 21 4.58055 21 5.17705 21 6.37006 V 20.3742 C 21 21.2324 20.015 21.6878 19.3919 21.1176 C 19.0258 20.7826 18.4742 20.7826 18.1081 21.1176 L 17.625 21.5597 C 16.9834 22.1468 16.0166 22.1468 15.375 21.5597 C 14.7334 20.9726 13.7666 20.9726 13.125 21.5597 C 12.4834 22.1468 11.5166 22.1468 10.875 21.5597 C 10.2334 20.9726 9.26659 20.9726 8.625 21.5597 C 7.98341 22.1468 7.01659 22.1468 6.375 21.5597 L 5.8919 21.1176 C 5.52583 20.7826 4.97417 20.7826 4.6081 21.1176 C 3.985 21.6878 3 21.2324 3 20.3742 V 6.37006 C 3 5.17705 3 4.58055 3.15795 4.09946 C 3.45748 3.18719 4.15322 2.47096 5.03939 2.16261 C 5.50671 2 6.08614 2 7.24502 2 Z M 15.0595 8.49952 C 15.3353 8.19054 15.3085 7.71643 14.9995 7.44055 C 14.6905 7.16468 14.2164 7.19152 13.9405 7.5005 L 10.9286 10.8739 L 10.0595 9.9005 C 9.78358 9.59152 9.30947 9.56468 9.00049 9.84055 C 8.69151 10.1164 8.66467 10.5905 8.94055 10.8995 L 10.3691 12.4995 C 10.5114 12.6589 10.7149 12.75 10.9286 12.75 C 11.1422 12.75 11.3457 12.6589 11.488 12.4995 L 15.0595 8.49952 Z M 7.5 14.75 C 7.08579 14.75 6.75 15.0858 6.75 15.5 C 6.75 15.9142 7.08579 16.25 7.5 16.25 H 16.5 C 16.9142 16.25 17.25 15.9142 17.25 15.5 C 17.25 15.0858 16.9142 14.75 16.5 14.75 H 7.5 Z" fill="#FFFFFF" />
</svg>