<svg xmlns="http://www.w3.org/2000/svg" width="24" height="24" viewBox="0 0 24 24" fill="none">
  <path fill-rule="nonzero" clip-rule="nonzero" d="M 7.24502 2 H 16.755 C 17.9139 2 18.4933 2 18.9606 2.16261 C 19.8468 2.47096 20.5425 3.18719 20.842 4.09946 C 21 4.58055 21 5.17705 21 6.37006 V 20.3742 C 21 21.2324 20.015 21.6878 19.3919 21.1176 C 19.0258 20.7826 18.4742 20.7826 18.1081 21.1176 L 17.625 21.5597 C 16.9834 22.1468 16.0166 22.1468 15.375 21.5597 C 14.7334 20.9726 13.7666 20.9726 13.125 21.5597 C 12.4834 22.1468 11.5166 22.1468 10.875 21.5597 C 10.2334 20.9726 9.26659 20.9726 8.625 21.5597 C 7.98341 22.1468 7.01659 22.1468 6.375 21.5597 L 5.8919 21.1176 C 5.52583 20.7826 4.97417 20.7826 4.6081 21.1176 C 3.985 21.6878 3 21.2324 3 20.3742 V 6.37006 C 3 5.17705 3 4.58055 3.15795 4.09946 C 3.45748 3.18719 4.15322 2.47096 5.03939 2.16261 C 5.50671 2 6.08614 2 7.24502 2 Z M 7 6.75 C 6.58579 6.75 6.25 7.08579 6.25 7.5 C 6.25 7.91421 6.58579 8.25 7 8.25 H 7.5 C 7.91421 8.25 8.25 7.91421 8.25 7.5 C 8.25 7.08579 7.91421 6.75 7.5 6.75 H 7 Z M 10.5 6.75 C 10.0858 6.75 9.75 7.08579 9.75 7.5 C 9.75 7.91421 10.0858 8.25 10.5 8.25 H 17 C 17.4142 8.25 17.75 7.91421 17.75 7.5 C 17.75 7.08579 17.4142 6.75 17 6.75 H 10.5 Z M 7 10.25 C 6.58579 10.25 6.25 10.5858 6.25 11 C 6.25 11.4142 6.58579 11.75 7 11.75 H 7.5 C 7.91421 11.75 8.25 11.4142 8.25 11 C 8.25 10.5858 7.91421 10.25 7.5 10.25 H 7 Z M 10.5 10.25 C 10.0858 10.25 9.75 10.5858 9.75 11 C 9.75 11.4142 10.0858 11.75 10.5 11.75 H 17 C 17.4142 11.75 17.75 11.4142 17.75 11 C 17.75 10.5858 17.4142 10.25 17 10.25 H 10.5 Z M 7 13.75 C 6.58579 13.75 6.25 14.0858 6.25 14.5 C 6.25 14.9142 6.58579 15.25 7 15.25 H 7.5 C 7.91421 15.25 8.25 14.9142 8.25 14.5 C 8.25 14.0858 7.91421 13.75 7.5 13.75 H 7 Z M 10.5 13.75 C 10.0858 13.75 9.75 14.0858 9.75 14.5 C 9.75 14.9142 10.0858 15.25 10.5 15.25 H 17 C 17.4142 15.25 17.75 14.9142 17.75 14.5 C 17.75 14.0858 17.4142 13.75 17 13.75 H 10.5 Z" fill="#FFFFFF" />
</svg>