<svg xmlns="http://www.w3.org/2000/svg" width="24" height="24" viewBox="0 0 24 24" fill="none">
  <path fill-rule="nonzero" clip-rule="nonzero" d="M 8.12673 3.56055 C 7.76931 3.24284 7.23069 3.24284 6.87327 3.56055 C 5.98775 4.34768 4.67284 4.38188 3.75 3.66317 V 20.337 C 4.67284 19.6183 5.98775 19.6525 6.87327 20.4396 C 7.23069 20.7573 7.76931 20.7573 8.12673 20.4396 C 9.05248 19.6167 10.4475 19.6167 11.3733 20.4396 C 11.7307 20.7573 12.2693 20.7573 12.6267 20.4396 C 13.5525 19.6167 14.9475 19.6167 15.8733 20.4396 C 16.2307 20.7573 16.7693 20.7573 17.1267 20.4396 C 18.0122 19.6525 19.3272 19.6183 20.25 20.337 V 3.66317 C 19.3272 4.38188 18.0122 4.34768 17.1267 3.56055 C 16.7693 3.24284 16.2307 3.24284 15.8733 3.56055 C 14.9475 4.38344 13.5525 4.38344 12.6267 3.56055 C 12.2693 3.24284 11.7307 3.24284 11.3733 3.56055 C 10.4475 4.38344 9.05248 4.38344 8.12673 3.56055 Z M 5.87673 2.43943 C 6.80248 1.61654 8.19752 1.61654 9.12327 2.43943 C 9.48069 2.75714 10.0193 2.75714 10.3767 2.43943 C 11.3025 1.61654 12.6975 1.61654 13.6233 2.43943 C 13.9807 2.75714 14.5193 2.75714 14.8767 2.43943 C 15.8025 1.61654 17.1975 1.61654 18.1233 2.43943 C 18.4807 2.75714 19.0193 2.75714 19.3767 2.43943 C 20.2963 1.62202 21.75 2.27482 21.75 3.50519 V 20.495 C 21.75 21.7253 20.2963 22.3781 19.3767 21.5607 C 19.0193 21.243 18.4807 21.243 18.1233 21.5607 C 17.1975 22.3836 15.8025 22.3836 14.8767 21.5607 C 14.5193 21.243 13.9807 21.243 13.6233 21.5607 C 12.6975 22.3836 11.3025 22.3836 10.3767 21.5607 C 10.0193 21.243 9.48069 21.243 9.12327 21.5607 C 8.19752 22.3836 6.80248 22.3836 5.87673 21.5607 C 5.51931 21.243 4.98069 21.243 4.62327 21.5607 C 3.70369 22.3781 2.25 21.7253 2.25 20.495 V 3.50519 C 2.25 2.27482 3.70369 1.62202 4.62327 2.43943 C 4.98069 2.75714 5.51931 2.75714 5.87673 2.43943 Z M 6.75 8.50017 C 6.75 8.08595 7.08579 7.75017 7.5 7.75017 H 16.5 C 16.9142 7.75017 17.25 8.08595 17.25 8.50017 C 17.25 8.91438 16.9142 9.25017 16.5 9.25017 H 7.5 C 7.08579 9.25017 6.75 8.91438 6.75 8.50017 Z M 6.75 12.0002 C 6.75 11.586 7.08579 11.2502 7.5 11.2502 H 16.5 C 16.9142 11.2502 17.25 11.586 17.25 12.0002 C 17.25 12.4144 16.9142 12.7502 16.5 12.7502 H 7.5 C 7.08579 12.7502 6.75 12.4144 6.75 12.0002 Z M 6.75 15.5002 C 6.75 15.086 7.08579 14.7502 7.5 14.7502 H 16.5 C 16.9142 14.7502 17.25 15.086 17.25 15.5002 C 17.25 15.9144 16.9142 16.2502 16.5 16.2502 H 7.5 C 7.08579 16.2502 6.75 15.9144 6.75 15.5002 Z" fill="#FFFFFF" />
</svg>