<svg xmlns="http://www.w3.org/2000/svg" width="24" height="24" viewBox="0 0 24 24" fill="none">
  <path fill-rule="nonzero" clip-rule="nonzero" d="M 19.875 20.5917 C 19.2334 20.0473 18.2666 20.0473 17.625 20.5917 C 16.9834 21.1361 16.0166 21.1361 15.375 20.5917 C 14.7334 20.0473 13.7666 20.0473 13.125 20.5917 C 12.4834 21.1361 11.5166 21.1361 10.875 20.5917 C 10.2334 20.0473 9.26659 20.0473 8.625 20.5917 C 7.98341 21.1361 7.01659 21.1361 6.375 20.5917 C 5.73341 20.0473 4.76659 20.0473 4.125 20.5917 C 3.68909 20.9616 3 20.6662 3 20.1094 V 3.89059 C 3 3.33383 3.68909 3.03842 4.125 3.40832 C 4.76659 3.95274 5.73341 3.95274 6.375 3.40832 C 7.01659 2.86389 7.98341 2.86389 8.625 3.40832 C 9.26659 3.95274 10.2334 3.95274 10.875 3.40832 C 11.5166 2.86389 12.4834 2.86389 13.125 3.40832 C 13.7666 3.95274 14.7334 3.95274 15.375 3.40832 C 16.0166 2.86389 16.9834 2.86389 17.625 3.40832 C 18.2666 3.95274 19.2334 3.95274 19.875 3.40832 C 20.3109 3.03842 21 3.33383 21 3.89059 V 20.1094 C 21 20.6662 20.3109 20.9616 19.875 20.5917 Z M6.75 12 C6.75 12.4142 7.08579 12.75 7.5 12.75 L16.5 12.75 C16.9142 12.75 17.25 12.4142 17.25 12 C17.25 11.5858 16.9142 11.25 16.5 11.25 L7.5 11.25 C7.08579 11.25 6.75 11.5858 6.75 12 Z M 7.5 7.75 C 7.08579 7.75 6.75 8.08579 6.75 8.5 C 6.75 8.91421 7.08579 9.25 7.5 9.25 H 16.5 C 16.9142 9.25 17.25 8.91421 17.25 8.5 C 17.25 8.08579 16.9142 7.75 16.5 7.75 H 7.5 Z M6.75 15.5 C6.75 15.9142 7.08579 16.25 7.5 16.25 L16.5 16.25 C16.9142 16.25 17.25 15.9142 17.25 15.5 C17.25 15.0858 16.9142 14.75 16.5 14.75 L7.5 14.75 C7.08579 14.75 6.75 15.0858 6.75 15.5 Z" fill="#FFFFFF" />
</svg>