<svg xmlns="http://www.w3.org/2000/svg" width="24" height="24" viewBox="0 0 24 24" fill="none">
  <path fill-rule="nonzero" clip-rule="nonzero" d="M 6.33333 2 H 17.6667 C 17.9762 2 18.131 2 18.2615 2.01198 C 19.7118 2.14511 20.8617 3.35155 20.9886 4.87321 C 21 5.01012 21 5.1725 21 5.49727 V 20.2598 C 21 21.1323 19.9413 21.5026 19.4423 20.8045 C 19.0962 20.3203 18.4038 20.3203 18.0577 20.8045 L 17.625 21.4098 C 17.0625 22.1967 15.9375 22.1967 15.375 21.4098 C 14.8125 20.623 13.6875 20.623 13.125 21.4098 C 12.5625 22.1967 11.4375 22.1967 10.875 21.4098 C 10.3125 20.623 9.1875 20.623 8.625 21.4098 C 8.0625 22.1967 6.9375 22.1967 6.375 21.4098 L 5.94231 20.8045 C 5.59615 20.3203 4.90385 20.3203 4.55769 20.8045 C 4.05871 21.5026 3 21.1323 3 20.2598 V 5.49727 C 3 5.1725 3 5.01012 3.01142 4.87321 C 3.1383 3.35155 4.28819 2.14511 5.73853 2.01198 C 5.86902 2 6.02379 2 6.33333 2 Z M 10.5303 7.46967 C 10.2375 7.17678 9.76258 7.17678 9.46969 7.46967 C 9.17679 7.76256 9.17679 8.23744 9.46969 8.53033 L 10.9394 10 L 9.4697 11.4697 C 9.17681 11.7626 9.17681 12.2374 9.4697 12.5303 C 9.7626 12.8232 10.2375 12.8232 10.5304 12.5303 L 12 11.0607 L 13.4697 12.5303 C 13.7626 12.8232 14.2374 12.8232 14.5303 12.5303 C 14.8232 12.2374 14.8232 11.7625 14.5303 11.4697 L 13.0607 10 L 14.5303 8.53035 C 14.8232 8.23745 14.8232 7.76258 14.5303 7.46969 C 14.2375 7.17679 13.7626 7.17679 13.4697 7.46969 L 12 8.93935 L 10.5303 7.46967 Z M 7.5 14.75 C 7.08579 14.75 6.75 15.0858 6.75 15.5 C 6.75 15.9142 7.08579 16.25 7.5 16.25 H 16.5 C 16.9142 16.25 17.25 15.9142 17.25 15.5 C 17.25 15.0858 16.9142 14.75 16.5 14.75 H 7.5 Z" fill="#FFFFFF" />
</svg>