<svg xmlns="http://www.w3.org/2000/svg" width="24" height="24" viewBox="0 0 24 24" fill="none">
  <path fill-rule="nonzero" clip-rule="nonzero" d="M 7.09878 1.25004 C 7.14683 1.25006 7.19559 1.25008 7.24508 1.25008 H 16.7551 C 16.8045 1.25008 16.8533 1.25006 16.9014 1.25004 C 17.9181 1.2496 18.6178 1.24929 19.2072 1.45435 C 20.3201 1.84161 21.1842 2.73726 21.5547 3.86559 L 20.8421 4.09954 L 21.5547 3.86559 C 21.7507 4.46271 21.7505 5.17254 21.7501 6.22655 C 21.7501 6.27372 21.7501 6.32158 21.7501 6.37014 V 20.3743 C 21.7501 21.8395 20.0231 22.7118 18.8857 21.671 C 18.8062 21.5983 18.694 21.5983 18.6145 21.671 L 18.1314 22.1131 C 17.2032 22.9624 15.7969 22.9624 14.8688 22.1131 C 14.5138 21.7882 13.9864 21.7882 13.6314 22.1131 C 12.7032 22.9624 11.2969 22.9624 10.3688 22.1131 C 10.0138 21.7882 9.48637 21.7882 9.13138 22.1131 C 8.20319 22.9624 6.79694 22.9624 5.86875 22.1131 L 5.38566 21.671 C 5.30618 21.5983 5.19395 21.5983 5.11448 21.671 C 3.97705 22.7118 2.25007 21.8395 2.25007 20.3743 V 6.37014 C 2.25007 6.32158 2.25005 6.27372 2.25003 6.22655 C 2.24965 5.17255 2.24939 4.46271 2.44545 3.86559 C 2.81591 2.73726 3.68002 1.84161 4.79298 1.45435 C 5.3823 1.24929 6.08203 1.2496 7.09878 1.25004 Z M 7.24508 2.75008 C 6.024 2.75008 5.6034 2.76057 5.28593 2.87103 C 4.62655 3.10047 4.09919 3.63728 3.8706 4.3335 C 3.75951 4.67183 3.75007 5.11796 3.75007 6.37014 V 20.3743 C 3.75007 20.4933 3.80999 20.5661 3.88517 20.6009 C 3.92434 20.619 3.96264 20.6237 3.99456 20.6194 C 4.0227 20.6156 4.05911 20.6035 4.10185 20.5644 C 4.75453 19.9671 5.74561 19.9671 6.39828 20.5644 L 6.88138 21.0065 C 7.23637 21.3313 7.76377 21.3313 8.11875 21.0065 C 9.04694 20.1571 10.4532 20.1571 11.3814 21.0065 C 11.7364 21.3313 12.2638 21.3313 12.6188 21.0065 C 13.5469 20.1571 14.9532 20.1571 15.8814 21.0065 C 16.2364 21.3313 16.7638 21.3313 17.1188 21.0065 L 17.6019 20.5644 C 18.2545 19.9671 19.2456 19.9671 19.8983 20.5644 C 19.941 20.6035 19.9774 20.6156 20.0056 20.6194 C 20.0375 20.6237 20.0758 20.619 20.115 20.6009 C 20.1901 20.5661 20.2501 20.4934 20.2501 20.3743 V 6.37014 C 20.2501 5.11797 20.2406 4.67183 20.1295 4.3335 C 19.9009 3.63728 19.3736 3.10047 18.7142 2.87103 C 18.3967 2.76057 17.9761 2.75008 16.7551 2.75008 H 7.24508 Z M 6.25007 7.50008 C 6.25007 7.08587 6.58585 6.75008 7.00007 6.75008 H 7.50007 C 7.91428 6.75008 8.25007 7.08587 8.25007 7.50008 C 8.25007 7.9143 7.91428 8.25008 7.50007 8.25008 H 7.00007 C 6.58585 8.25008 6.25007 7.9143 6.25007 7.50008 Z M 9.75007 7.50008 C 9.75007 7.08587 10.0859 6.75008 10.5001 6.75008 H 17.0001 C 17.4143 6.75008 17.7501 7.08587 17.7501 7.50008 C 17.7501 7.9143 17.4143 8.25008 17.0001 8.25008 H 10.5001 C 10.0859 8.25008 9.75007 7.9143 9.75007 7.50008 Z M 6.25007 11.0001 C 6.25007 10.5859 6.58585 10.2501 7.00007 10.2501 H 7.50007 C 7.91428 10.2501 8.25007 10.5859 8.25007 11.0001 C 8.25007 11.4143 7.91428 11.7501 7.50007 11.7501 H 7.00007 C 6.58585 11.7501 6.25007 11.4143 6.25007 11.0001 Z M 9.75007 11.0001 C 9.75007 10.5859 10.0859 10.2501 10.5001 10.2501 H 17.0001 C 17.4143 10.2501 17.7501 10.5859 17.7501 11.0001 C 17.7501 11.4143 17.4143 11.7501 17.0001 11.7501 H 10.5001 C 10.0859 11.7501 9.75007 11.4143 9.75007 11.0001 Z M 6.25007 14.5001 C 6.25007 14.0859 6.58585 13.7501 7.00007 13.7501 H 7.50007 C 7.91428 13.7501 8.25007 14.0859 8.25007 14.5001 C 8.25007 14.9143 7.91428 15.2501 7.50007 15.2501 H 7.00007 C 6.58585 15.2501 6.25007 14.9143 6.25007 14.5001 Z M 9.75007 14.5001 C 9.75007 14.0859 10.0859 13.7501 10.5001 13.7501 H 17.0001 C 17.4143 13.7501 17.7501 14.0859 17.7501 14.5001 C 17.7501 14.9143 17.4143 15.2501 17.0001 15.2501 H 10.5001 C 10.0859 15.2501 9.75007 14.9143 9.75007 14.5001 Z" fill="#FFFFFF" />
</svg>