<svg xmlns="http://www.w3.org/2000/svg" width="24" height="24" viewBox="0 0 24 24" fill="none">
  <path fill-rule="nonzero" clip-rule="nonzero" d="M 6.2936 1.25 C 6.30665 1.25 6.31989 1.25001 6.33334 1.25001 L 17.7064 1.25 C 17.9776 1.24997 18.1647 1.24995 18.33 1.26512 C 20.1682 1.43385 21.581 2.95266 21.736 4.8109 C 21.75 4.97944 21.75 5.17098 21.75 5.45924 L 21.75 20.2598 C 21.75 21.0316 21.2676 21.6151 20.6559 21.8291 C 20.0393 22.0447 19.2904 21.8818 18.8322 21.2407 C 18.8155 21.2173 18.7998 21.2064 18.7886 21.2006 C 18.7763 21.1944 18.7632 21.1914 18.75 21.1914 C 18.7368 21.1914 18.7237 21.1944 18.7115 21.2006 C 18.7002 21.2064 18.6845 21.2173 18.6678 21.2407 L 18.2351 21.846 C 17.3735 23.0513 15.6265 23.0513 14.7649 21.846 C 14.5015 21.4776 13.9985 21.4776 13.7351 21.846 C 12.8735 23.0513 11.1265 23.0513 10.2649 21.846 C 10.0015 21.4776 9.49851 21.4776 9.23514 21.846 C 8.37351 23.0513 6.6265 23.0513 5.76486 21.846 L 5.33217 21.2407 C 5.31546 21.2173 5.29981 21.2064 5.28856 21.2006 C 5.27631 21.1944 5.2632 21.1914 5.25 21.1914 C 5.23681 21.1914 5.2237 21.1944 5.21145 21.2006 C 5.2002 21.2064 5.18455 21.2173 5.16784 21.2407 C 4.70958 21.8818 3.96074 22.0447 3.34414 21.8291 C 2.73237 21.6151 2.25 21.0316 2.25 20.2598 V 5.49727 C 2.25 5.48441 2.25 5.47174 2.25 5.45925 C 2.24998 5.17098 2.24996 4.97945 2.26401 4.8109 C 2.41897 2.95266 3.83179 1.43385 5.66998 1.26512 C 5.83534 1.24995 6.02237 1.24997 6.2936 1.25 Z M 6.33334 2.75001 C 6.00717 2.75001 5.89475 2.7508 5.80709 2.75884 C 4.74461 2.85637 3.85765 3.75044 3.75883 4.93555 C 3.75066 5.0335 3.75 5.15739 3.75 5.49727 V 20.2598 C 3.75 20.3208 3.76677 20.3522 3.77879 20.3687 C 3.79348 20.3888 3.8149 20.4046 3.83932 20.4132 C 3.8637 20.4217 3.88214 20.42 3.89223 20.4171 C 3.8973 20.4156 3.91821 20.4094 3.94756 20.3684 C 4.59285 19.4657 5.90716 19.4657 6.55245 20.3684 L 6.98514 20.9737 C 7.24851 21.3421 7.7515 21.3421 8.01487 20.9737 C 8.8765 19.7683 10.6235 19.7683 11.4851 20.9737 C 11.7485 21.3421 12.2515 21.3421 12.5149 20.9737 C 13.3765 19.7683 15.1235 19.7683 15.9851 20.9737 C 16.2485 21.3421 16.7515 21.3421 17.0149 20.9737 L 17.4476 20.3684 C 18.0928 19.4657 19.4072 19.4657 20.0525 20.3684 C 20.0818 20.4095 20.1026 20.4155 20.1076 20.417 C 20.1177 20.42 20.1363 20.4217 20.1607 20.4132 C 20.1851 20.4046 20.2065 20.3888 20.2212 20.3687 C 20.2332 20.3522 20.25 20.3208 20.25 20.2598 V 5.49727 C 20.25 5.15739 20.2493 5.03349 20.2412 4.93554 C 20.1424 3.75044 19.2554 2.85637 18.1929 2.75884 C 18.1053 2.7508 17.9928 2.75001 17.6667 2.75001 H 6.33334 Z M 9.46969 7.46968 C 9.76258 7.17678 10.2375 7.17678 10.5304 7.46968 L 12 8.93936 L 13.4697 7.46969 C 13.7626 7.1768 14.2375 7.1768 14.5304 7.46969 C 14.8232 7.76259 14.8232 8.23746 14.5304 8.53035 L 13.0607 10 L 14.5303 11.4697 C 14.8232 11.7626 14.8232 12.2374 14.5303 12.5303 C 14.2374 12.8232 13.7626 12.8232 13.4697 12.5303 L 12 11.0607 L 10.5304 12.5303 C 10.2375 12.8232 9.7626 12.8232 9.46971 12.5303 C 9.17682 12.2374 9.17682 11.7626 9.46971 11.4697 L 10.9394 10 L 9.46969 8.53034 C 9.1768 8.23744 9.1768 7.76257 9.46969 7.46968 Z M 6.75 15.5 C 6.75 15.0858 7.08579 14.75 7.5 14.75 H 16.5 C 16.9142 14.75 17.25 15.0858 17.25 15.5 C 17.25 15.9142 16.9142 16.25 16.5 16.25 H 7.5 C 7.08579 16.25 6.75 15.9142 6.75 15.5 Z" fill="#FFFFFF" />
</svg>