<svg xmlns="http://www.w3.org/2000/svg" width="24" height="24" viewBox="0 0 24 24" fill="none">
  <path opacity="0.5" d="M9.99976 20H13.9998C17.771 20 19.6566 20 20.8282 18.8284C21.9998 17.6569 21.9998 15.7712 21.9998 12C21.9998 11.5581 21.9981 10.392 21.9962 10H2C1.99811 10.392 1.99976 11.5581 1.99976 12C1.99976 15.7712 1.99976 17.6569 3.17133 18.8284C4.34291 20 6.22852 20 9.99976 20Z" fill="#FFFFFF" />
  <path d="M5.25 13.5C5.25 13.0858 5.58579 12.75 6 12.75H8C8.41421 12.75 8.75 13.0858 8.75 13.5C8.75 13.9142 8.41421 14.25 8 14.25H6C5.58579 14.25 5.25 13.9142 5.25 13.5Z" fill="#FFFFFF" />
  <path d="M5.25 16.5C5.25 16.0858 5.58579 15.75 6 15.75H10C10.4142 15.75 10.75 16.0858 10.75 16.5C10.75 16.9142 10.4142 17.25 10 17.25H6C5.58579 17.25 5.25 16.9142 5.25 16.5Z" fill="#FFFFFF" />
  <path fill-rule="nonzero" clip-rule="nonzero" d="M17.1972 12.2933 C17.5527 12.3411 17.9284 12.4535 18.2374 12.7626 C18.5465 13.0716 18.6589 13.4473 18.7067 13.8028 C18.7501 14.1256 18.7501 14.5224 18.75 14.9553 L18.75 15.0447 C18.7501 15.4776 18.7501 15.8744 18.7067 16.1972 C18.6589 16.5527 18.5465 16.9284 18.2374 17.2374 C17.9284 17.5465 17.5527 17.6589 17.1972 17.7067 C16.8744 17.7501 16.4776 17.7501 16.0447 17.75 L16 17.75 L15.9553 17.75 C15.5224 17.7501 15.1256 17.7501 14.8028 17.7067 C14.4473 17.6589 14.0716 17.5465 13.7626 17.2374 C13.4535 16.9284 13.3411 16.5527 13.2933 16.1972 C13.2499 15.8744 13.2499 15.4776 13.25 15.0448 L13.25 15 L13.25 14.9553 C13.2499 14.5224 13.2499 14.1256 13.2933 13.8028 C13.3411 13.4473 13.4535 13.0716 13.7626 12.7626 C14.0716 12.4535 14.4473 12.3411 14.8028 12.2933 C15.1256 12.2499 15.5224 12.25 15.9553 12.25 L16.0447 12.25 C16.4776 12.25 16.8744 12.2499 17.1972 12.2933 Z M 14.8257 13.8219 L 14.8233 13.8232 L 14.8219 13.8257 C 14.8209 13.8276 14.8192 13.8309 14.8172 13.836 C 14.8082 13.8578 14.7929 13.9061 14.7799 14.0027 C 14.7516 14.2134 14.75 14.5074 14.75 15 C 14.75 15.4926 14.7516 15.7866 14.7799 15.9973 C 14.7929 16.0939 14.8082 16.1423 14.8172 16.164 C 14.8184 16.1671 14.8195 16.1695 14.8204 16.1714 C 14.821 16.1726 14.8215 16.1736 14.8219 16.1743 L 14.8232 16.1768 L 14.8257 16.1781 C 14.8276 16.1792 14.8309 16.1808 14.836 16.1828 C 14.8577 16.1918 14.9061 16.2071 15.0027 16.2201 C 15.2134 16.2484 15.5074 16.25 16 16.25 C 16.4926 16.25 16.7866 16.2484 16.9973 16.2201 C 17.0939 16.2071 17.1423 16.1918 17.164 16.1828 C 17.1691 16.1808 17.1724 16.1792 17.1743 16.1781 L 17.1768 16.1768 L 17.1781 16.1743 C 17.1791 16.1724 17.1808 16.1691 17.1828 16.164 C 17.1918 16.1423 17.2071 16.0939 17.2201 15.9973 C 17.2484 15.7866 17.25 15.4926 17.25 15 C 17.25 14.5074 17.2484 14.2134 17.2201 14.0027 C 17.2071 13.9061 17.1918 13.8578 17.1828 13.836 C 17.1808 13.8309 17.1791 13.8276 17.1781 13.8257 L 17.1768 13.8232 L 17.1743 13.8219 C 17.1724 13.8209 17.1691 13.8192 17.164 13.8172 C 17.1423 13.8082 17.0939 13.7929 16.9973 13.7799 C 16.7866 13.7516 16.4926 13.75 16 13.75 C 15.5074 13.75 15.2134 13.7516 15.0027 13.7799 C 14.9061 13.7929 14.8577 13.8082 14.836 13.8172 C 14.8309 13.8192 14.8276 13.8209 14.8257 13.8219 Z" fill="#FFFFFF" />
  <path d="M9.99484 4H14.0052C17.7861 4 19.6766 4 20.8512 5.11578C21.6969 5.91916 21.9337 7.07507 22 9V10H2V9C2.0663 7.07507 2.3031 5.91916 3.14881 5.11578C4.3234 4 6.21388 4 9.99484 4Z" fill="#FFFFFF" />
</svg>