<svg xmlns="http://www.w3.org/2000/svg" width="24" height="24" viewBox="0 0 24 24" fill="none">
  <path fill-rule="nonzero" clip-rule="nonzero" d="M 2 12 C 2 7.28595 2 4.92893 3.46447 3.46447 C 4.92893 2 7.28595 2 12 2 C 16.714 2 19.0711 2 20.5355 3.46447 C 22 4.92893 22 7.28595 22 12 C 22 16.714 22 19.0711 20.5355 20.5355 C 19.0711 22 16.714 22 12 22 C 7.28595 22 4.92893 22 3.46447 20.5355 C 2 19.0711 2 16.714 2 12 Z M 8 15.25 C 7.58579 15.25 7.25 15.5858 7.25 16 C 7.25 16.4142 7.58579 16.75 8 16.75 H 16 C 16.4142 16.75 16.75 16.4142 16.75 16 C 16.75 15.5858 16.4142 15.25 16 15.25 H 8 Z M7.58579 6.58579 C7 7.17157 7 8.11438 7 10 L7 10.25 L5 10.25 C4.58579 10.25 4.25 10.5858 4.25 11 C4.25 11.4142 4.58579 11.75 5 11.75 L19 11.75 C19.4142 11.75 19.75 11.4142 19.75 11 C19.75 10.5858 19.4142 10.25 19 10.25 L17 10.25 L17 10 C17 8.11438 17 7.17157 16.4142 6.58579 C15.8284 6 14.8856 6 13 6 L11 6 C9.11438 6 8.17157 6 7.58579 6.58579 Z" fill="#FFFFFF" />
</svg>