<svg xmlns="http://www.w3.org/2000/svg" width="24" height="24" viewBox="0 0 24 24" fill="none">
  <path fill-rule="evenodd" clip-rule="evenodd" d="M18.4697 20.5303C18.7626 20.8232 19.2374 20.8232 19.5303 20.5303L21.5303 18.5303C21.8232 18.2374 21.8232 17.7626 21.5303 17.4697C21.2374 17.1768 20.7626 17.1768 20.4697 17.4697L19.75 18.1893V14C19.75 13.5858 19.4142 13.25 19 13.25C18.5858 13.25 18.25 13.5858 18.25 14V18.1893L17.5303 17.4697C17.2374 17.1768 16.7626 17.1768 16.4697 17.4697C16.1768 17.7626 16.1768 18.2374 16.4697 18.5303L18.4697 20.5303Z" fill="#FFFFFF" />
  <path d="M10 4H14C17.7712 4 19.6569 4 20.8284 5.17157C21.672 6.01511 21.9082 7.22882 21.9743 9.25H2.02572C2.09185 7.22882 2.32803 6.01511 3.17157 5.17157C4.34315 4 6.22876 4 10 4Z" fill="#FFFFFF" />
  <path fill-rule="nonzero" clip-rule="nonzero" d="M10 20 C6.22876 20 4.34315 20 3.17157 18.8284 C2 17.6569 2 15.7712 2 12 C2 11.5581 2 11.142 2.00189 10.75 L21.9981 10.75 C22 11.142 22 11.5581 22 12 C22 13.636 22 14.9172 21.9044 15.9391 C21.6947 15.8471 21.4739 15.7887 21.25 15.7638 L21.25 14 C21.25 12.7574 20.2426 11.75 19 11.75 C17.7574 11.75 16.75 12.7574 16.75 14 L16.75 15.7638 C16.2601 15.8183 15.7847 16.0334 15.409 16.409 C14.5303 17.2877 14.5303 18.7123 15.409 19.591 L15.8118 19.9937 C15.2613 20 14.6595 20 14 20 L10 20 Z M 6 15.25 C 5.58579 15.25 5.25 15.5858 5.25 16 C 5.25 16.4142 5.58579 16.75 6 16.75 H 10 C 10.4142 16.75 10.75 16.4142 10.75 16 C 10.75 15.5858 10.4142 15.25 10 15.25 H 6 Z M 12.5 15.25 C 12.0858 15.25 11.75 15.5858 11.75 16 C 11.75 16.4142 12.0858 16.75 12.5 16.75 H 14 C 14.4142 16.75 14.75 16.4142 14.75 16 C 14.75 15.5858 14.4142 15.25 14 15.25 H 12.5 Z" fill="#FFFFFF" />
</svg>