<svg xmlns="http://www.w3.org/2000/svg" width="24" height="24" viewBox="0 0 24 24" fill="none">
  <path fill-rule="evenodd" clip-rule="evenodd" d="M18.4697 13.4697C18.7626 13.1768 19.2374 13.1768 19.5303 13.4697L21.5303 15.4697C21.8232 15.7626 21.8232 16.2374 21.5303 16.5303C21.2374 16.8232 20.7626 16.8232 20.4697 16.5303L19.75 15.8107V20C19.75 20.4142 19.4142 20.75 19 20.75C18.5858 20.75 18.25 20.4142 18.25 20V15.8107L17.5303 16.5303C17.2374 16.8232 16.7626 16.8232 16.4697 16.5303C16.1768 16.2374 16.1768 15.7626 16.4697 15.4697L18.4697 13.4697Z" fill="#FFFFFF" />
  <path d="M10 4H14C17.7712 4 19.6569 4 20.8284 5.17157C21.672 6.01511 21.9082 7.22882 21.9743 9.25H2.02572C2.09185 7.22882 2.32803 6.01511 3.17157 5.17157C4.34315 4 6.22876 4 10 4Z" fill="#FFFFFF" />
  <path fill-rule="nonzero" clip-rule="nonzero" d="M10 20 C6.22876 20 4.34315 20 3.17157 18.8284 C2 17.6569 2 15.7712 2 12 C2 11.5581 2 11.142 2.00189 10.75 L21.9981 10.75 C22 11.142 22 11.5581 22 12 C22 12.6595 22 13.2613 21.9937 13.8118 L20.591 12.409 C19.7123 11.5303 18.2877 11.5303 17.409 12.409 L15.409 14.409 C14.5303 15.2877 14.5303 16.7123 15.409 17.591 C15.7847 17.9666 16.2601 18.1817 16.75 18.2362 L16.75 19.9743 C15.964 20 15.0559 20 14 20 L10 20 Z M5.25 16 C5.25 16.4142 5.58579 16.75 6 16.75 L10 16.75 C10.4142 16.75 10.75 16.4142 10.75 16 C10.75 15.5858 10.4142 15.25 10 15.25 L6 15.25 C5.58579 15.25 5.25 15.5858 5.25 16 Z M 12.5 15.25 C 12.0858 15.25 11.75 15.5858 11.75 16 C 11.75 16.4142 12.0858 16.75 12.5 16.75 H 14 C 14.4142 16.75 14.75 16.4142 14.75 16 C 14.75 15.5858 14.4142 15.25 14 15.25 H 12.5 Z" fill="#FFFFFF" />
</svg>