<svg xmlns="http://www.w3.org/2000/svg" width="24" height="24" viewBox="0 0 24 24" fill="none">
  <path d="M10 4H14C17.7712 4 19.6569 4 20.8284 5.17157C21.672 6.01511 21.9082 7.22882 21.9743 9.25H2.02572C2.09185 7.22882 2.32803 6.01511 3.17157 5.17157C4.34315 4 6.22876 4 10 4Z" fill="#FFFFFF" />
  <path fill-rule="nonzero" clip-rule="nonzero" d="M 21.9995 12.8175 L 21.591 12.409 C 20.7123 11.5303 19.2877 11.5303 18.409 12.409 L 17.6076 13.2104 C 17.2878 12.3573 16.4648 11.75 15.5 11.75 C 14.2574 11.75 13.25 12.7574 13.25 14 V 15.7638 C 12.7601 15.8183 12.2847 16.0334 11.909 16.409 C 11.0303 17.2877 11.0303 18.7123 11.909 19.591 L 12.318 20 H 10 C 6.22876 20 4.34315 20 3.17157 18.8284 C 2 17.6569 2 15.7712 2 12 C 2 11.5581 2 11.142 2.00189 10.75 H 21.9981 C 22 11.142 22 11.5581 22 12 C 22 12.283 22 12.5553 21.9995 12.8175 Z M 6 15.25 C 5.58579 15.25 5.25 15.5858 5.25 16 C 5.25 16.4142 5.58579 16.75 6 16.75 H 10 C 10.4142 16.75 10.75 16.4142 10.75 16 C 10.75 15.5858 10.4142 15.25 10 15.25 H 6 Z" fill="#FFFFFF" />
  <path fill-rule="nonzero" clip-rule="nonzero" d="M 15.5 13.25 C 15.9142 13.25 16.25 13.5858 16.25 14 V 18.1893 L 16.9697 17.4697 C 17.2626 17.1768 17.7374 17.1768 18.0303 17.4697 C 18.3232 17.7626 18.3232 18.2374 18.0303 18.5303 L 16.0303 20.5303 C 15.7374 20.8232 15.2626 20.8232 14.9697 20.5303 L 12.9697 18.5303 C 12.6768 18.2374 12.6768 17.7626 12.9697 17.4697 C 13.2626 17.1768 13.7374 17.1768 14.0303 17.4697 L 14.75 18.1893 V 14 C 14.75 13.5858 15.0858 13.25 15.5 13.25 Z M 19.4697 13.4697 C 19.7626 13.1768 20.2374 13.1768 20.5303 13.4697 L 22.5303 15.4697 C 22.8232 15.7626 22.8232 16.2374 22.5303 16.5303 C 22.2374 16.8232 21.7626 16.8232 21.4697 16.5303 L 20.75 15.8107 V 20 C 20.75 20.4142 20.4142 20.75 20 20.75 C 19.5858 20.75 19.25 20.4142 19.25 20 V 15.8107 L 18.5303 16.5303 C 18.2374 16.8232 17.7626 16.8232 17.4697 16.5303 C 17.1768 16.2374 17.1768 15.7626 17.4697 15.4697 L 19.4697 13.4697 Z" fill="#FFFFFF" />
</svg>