<svg xmlns="http://www.w3.org/2000/svg" width="24" height="24" viewBox="0 0 24 24" fill="none">
  <path fill-rule="nonzero" clip-rule="nonzero" d="M 9.94358 3.25 H 14.0564 C 15.8942 3.24998 17.3498 3.24997 18.489 3.40314 C 19.6614 3.56076 20.6104 3.89288 21.3588 4.64124 C 22.1071 5.38961 22.4392 6.33856 22.5969 7.51098 C 22.6873 8.18385 22.7244 8.9671 22.7395 9.87428 C 22.7464 9.91516 22.75 9.95716 22.75 10 C 22.75 10.0353 22.7476 10.0699 22.7429 10.1039 C 22.75 10.6696 22.75 11.2818 22.75 11.9436 V 13 C 22.75 13.4142 22.4142 13.75 22 13.75 C 21.5858 13.75 21.25 13.4142 21.25 13 V 12 C 21.25 11.5541 21.2499 11.1384 21.248 10.75 H 2.75199 C 2.75009 11.1384 2.75 11.5541 2.75 12 C 2.75 13.9068 2.75159 15.2615 2.88976 16.2892 C 3.02502 17.2952 3.27869 17.8749 3.7019 18.2981 C 4.12511 18.7213 4.70476 18.975 5.71085 19.1102 C 6.73851 19.2484 8.09318 19.25 10 19.25 H 13 C 13.4142 19.25 13.75 19.5858 13.75 20 C 13.75 20.4142 13.4142 20.75 13 20.75 H 9.94359 C 8.10583 20.75 6.65019 20.75 5.51098 20.5969 C 4.33856 20.4392 3.38961 20.1071 2.64124 19.3588 C 1.89288 18.6104 1.56076 17.6614 1.40314 16.489 C 1.24997 15.3498 1.24998 13.8942 1.25 12.0564 V 11.9436 C 1.24999 11.2818 1.24999 10.6696 1.25714 10.1039 C 1.25243 10.0699 1.25 10.0352 1.25 10 C 1.25 9.95716 1.25359 9.91517 1.26049 9.87429 C 1.27564 8.96711 1.31267 8.18385 1.40314 7.51098 C 1.56076 6.33856 1.89288 5.38961 2.64124 4.64124 C 3.38961 3.89288 4.33856 3.56076 5.51098 3.40314 C 6.65019 3.24997 8.10582 3.24998 9.94358 3.25 Z M 2.77607 9.25 H 21.2239 C 21.2044 8.66327 21.1701 8.15634 21.1102 7.71085 C 20.975 6.70476 20.7213 6.12511 20.2981 5.7019 C 19.8749 5.27869 19.2952 5.02502 18.2892 4.88976 C 17.2615 4.75159 15.9068 4.75 14 4.75 H 10 C 8.09318 4.75 6.73851 4.75159 5.71085 4.88976 C 4.70476 5.02502 4.12511 5.27869 3.7019 5.7019 C 3.27869 6.12511 3.02502 6.70476 2.88976 7.71085 C 2.82987 8.15634 2.79564 8.66327 2.77607 9.25 Z M 18 14.75 C 16.7574 14.75 15.75 15.7574 15.75 17 C 15.75 18.2426 16.7574 19.25 18 19.25 C 19.2426 19.25 20.25 18.2426 20.25 17 C 20.25 15.7574 19.2426 14.75 18 14.75 Z M 14.25 17 C 14.25 14.9289 15.9289 13.25 18 13.25 C 20.0711 13.25 21.75 14.9289 21.75 17 C 21.75 17.7643 21.5213 18.4752 21.1287 19.068 L 22.0303 19.9697 C 22.3232 20.2626 22.3232 20.7374 22.0303 21.0303 C 21.7374 21.3232 21.2626 21.3232 20.9697 21.0303 L 20.068 20.1287 C 19.4752 20.5213 18.7643 20.75 18 20.75 C 15.9289 20.75 14.25 19.0711 14.25 17 Z M 5.25 16 C 5.25 15.5858 5.58579 15.25 6 15.25 H 10 C 10.4142 15.25 10.75 15.5858 10.75 16 C 10.75 16.4142 10.4142 16.75 10 16.75 H 6 C 5.58579 16.75 5.25 16.4142 5.25 16 Z" fill="#FFFFFF" />
</svg>