<svg xmlns="http://www.w3.org/2000/svg" width="24" height="24" viewBox="0 0 24 24" fill="none">
  <path d="M14 4H10C6.22876 4 4.34315 4 3.17157 5.17157C2.32803 6.01511 2.09185 7.22882 2.02572 9.25H21.9743C21.9082 7.22882 21.672 6.01511 20.8284 5.17157C19.6569 4 17.7712 4 14 4Z" fill="#FFFFFF" />
  <path fill-rule="nonzero" clip-rule="nonzero" d="M 14 20 H 10 C 6.22876 20 4.34315 20 3.17157 18.8284 C 2 17.6569 2 15.7712 2 12 C 2 11.5581 2 11.142 2.00189 10.75 H 21.9981 C 22 11.142 22 11.5581 22 12 C 22 15.7712 22 17.6569 20.8284 18.8284 C 19.6569 20 17.7712 20 14 20 Z M16.0447 12.25 L15.9553 12.25 C15.5224 12.2499 15.1256 12.2499 14.8028 12.2933 C14.4473 12.3411 14.0716 12.4535 13.7626 12.7626 C13.4535 13.0716 13.3411 13.4473 13.2933 13.8028 C13.2499 14.1256 13.2499 14.5224 13.25 14.9553 L13.25 15 L13.25 15.0447 C13.2499 15.4776 13.2499 15.8744 13.2933 16.1972 C13.3411 16.5527 13.4535 16.9284 13.7626 17.2374 C14.0716 17.5465 14.4473 17.6589 14.8028 17.7067 C15.1256 17.7501 15.5224 17.7501 15.9553 17.75 L16 17.75 L16.0447 17.75 C16.4776 17.7501 16.8744 17.7501 17.1972 17.7067 C17.5527 17.6589 17.9284 17.5465 18.2374 17.2374 C18.5465 16.9284 18.6589 16.5527 18.7067 16.1972 C18.7501 15.8744 18.7501 15.4776 18.75 15.0447 L18.75 14.9553 C18.7501 14.5224 18.7501 14.1256 18.7067 13.8028 C18.6589 13.4473 18.5465 13.0716 18.2374 12.7626 C17.9284 12.4535 17.5527 12.3411 17.1972 12.2933 C16.8744 12.2499 16.4776 12.2499 16.0447 12.25 Z M5.25 13.5 C5.25 13.9142 5.58579 14.25 6 14.25 L8 14.25 C8.41421 14.25 8.75 13.9142 8.75 13.5 C8.75 13.0858 8.41421 12.75 8 12.75 L6 12.75 C5.58579 12.75 5.25 13.0858 5.25 13.5 Z M5.25 16.5 C5.25 16.9142 5.58579 17.25 6 17.25 L10 17.25 C10.4142 17.25 10.75 16.9142 10.75 16.5 C10.75 16.0858 10.4142 15.75 10 15.75 L6 15.75 C5.58579 15.75 5.25 16.0858 5.25 16.5 Z" fill="#FFFFFF" />
  <path d="M14.8233 13.8232L14.8257 13.8219C14.8276 13.8209 14.8309 13.8192 14.836 13.8172C14.8577 13.8082 14.9061 13.7929 15.0027 13.7799C15.2134 13.7516 15.5074 13.75 16 13.75C16.4926 13.75 16.7866 13.7516 16.9973 13.7799C17.0939 13.7929 17.1423 13.8082 17.164 13.8172C17.1691 13.8192 17.1724 13.8209 17.1743 13.8219L17.1768 13.8232L17.1781 13.8257C17.1791 13.8276 17.1808 13.8309 17.1828 13.836C17.1918 13.8577 17.2071 13.9061 17.2201 14.0027C17.2484 14.2134 17.25 14.5074 17.25 15C17.25 15.4926 17.2484 15.7866 17.2201 15.9973C17.2071 16.0939 17.1918 16.1423 17.1828 16.164C17.1808 16.1691 17.1791 16.1724 17.1781 16.1743L17.1768 16.1768L17.1743 16.1781C17.1724 16.1791 17.1691 16.1808 17.164 16.1828C17.1423 16.1918 17.0939 16.2071 16.9973 16.2201C16.7866 16.2484 16.4926 16.25 16 16.25C15.5074 16.25 15.2134 16.2484 15.0027 16.2201C14.9061 16.2071 14.8577 16.1918 14.836 16.1828C14.8309 16.1808 14.8276 16.1791 14.8257 16.1781L14.8232 16.1768L14.8219 16.1743C14.8209 16.1724 14.8192 16.1691 14.8172 16.164C14.8082 16.1423 14.7929 16.0939 14.7799 15.9973C14.7516 15.7866 14.75 15.4926 14.75 15C14.75 14.5074 14.7516 14.2134 14.7799 14.0027C14.7929 13.9061 14.8082 13.8577 14.8172 13.836C14.8192 13.8309 14.8209 13.8276 14.8219 13.8257L14.8233 13.8232Z" fill="#FFFFFF" />
</svg>