<svg xmlns="http://www.w3.org/2000/svg" width="24" height="24" viewBox="0 0 24 24" fill="none">
  <path fill-rule="nonzero" clip-rule="nonzero" d="M 11.9426 1.25 H 12.0574 C 14.3658 1.24999 16.1748 1.24998 17.5863 1.43975 C 19.031 1.63399 20.1711 2.03933 21.0659 2.93414 C 21.9607 3.82895 22.366 4.96897 22.5603 6.41371 C 22.75 7.82519 22.75 9.63423 22.75 11.9426 V 12.0574 C 22.75 14.3658 22.75 16.1748 22.5603 17.5863 C 22.366 19.031 21.9607 20.1711 21.0659 21.0659 C 20.1711 21.9607 19.031 22.366 17.5863 22.5603 C 16.1748 22.75 14.3658 22.75 12.0574 22.75 H 11.9426 C 9.63423 22.75 7.82519 22.75 6.41371 22.5603 C 4.96897 22.366 3.82895 21.9607 2.93414 21.0659 C 2.03933 20.1711 1.63399 19.031 1.43975 17.5863 C 1.24998 16.1748 1.24999 14.3658 1.25 12.0574 V 11.9426 C 1.24999 9.63423 1.24998 7.82519 1.43975 6.41371 C 1.63399 4.96897 2.03933 3.82895 2.93414 2.93414 C 3.82895 2.03933 4.96897 1.63399 6.41371 1.43975 C 7.82519 1.24998 9.63423 1.24999 11.9426 1.25 Z M 6.61358 2.92637 C 5.33517 3.09825 4.56445 3.42514 3.9948 3.9948 C 3.42514 4.56445 3.09825 5.33517 2.92637 6.61358 C 2.75159 7.91356 2.75 9.62177 2.75 12 C 2.75 14.3782 2.75159 16.0864 2.92637 17.3864 C 3.09825 18.6648 3.42514 19.4355 3.9948 20.0052 C 4.56445 20.5749 5.33517 20.9018 6.61358 21.0736 C 7.91356 21.2484 9.62177 21.25 12 21.25 C 14.3782 21.25 16.0864 21.2484 17.3864 21.0736 C 18.6648 20.9018 19.4355 20.5749 20.0052 20.0052 C 20.5749 19.4355 20.9018 18.6648 21.0736 17.3864 C 21.2484 16.0864 21.25 14.3782 21.25 12 C 21.25 9.62177 21.2484 7.91356 21.0736 6.61358 C 20.9018 5.33517 20.5749 4.56445 20.0052 3.9948 C 19.4355 3.42514 18.6648 3.09825 17.3864 2.92637 C 16.0864 2.75159 14.3782 2.75 12 2.75 C 9.62177 2.75 7.91356 2.75159 6.61358 2.92637 Z M 10.948 5.25 H 13.052 C 13.9505 5.24997 14.6997 5.24995 15.2945 5.32991 C 15.9223 5.41432 16.4891 5.59999 16.9445 6.05546 C 17.4 6.51093 17.5857 7.07773 17.6701 7.70552 C 17.7501 8.3003 17.75 9.04952 17.75 9.94801 L 17.75 10.25 H 19 C 19.4142 10.25 19.75 10.5858 19.75 11 C 19.75 11.4142 19.4142 11.75 19 11.75 H 5 C 4.58579 11.75 4.25 11.4142 4.25 11 C 4.25 10.5858 4.58579 10.25 5 10.25 H 6.25 L 6.25 9.94801 C 6.24997 9.04952 6.24995 8.3003 6.32991 7.70552 C 6.41432 7.07773 6.59999 6.51093 7.05546 6.05546 C 7.51093 5.59999 8.07773 5.41432 8.70552 5.32991 C 9.3003 5.24995 10.0495 5.24997 10.948 5.25 Z M 7.75 10.25 H 16.25 V 10 C 16.25 9.03599 16.2484 8.38843 16.1835 7.90539 C 16.1214 7.44393 16.0142 7.24643 15.8839 7.11612 C 15.7536 6.9858 15.5561 6.87858 15.0946 6.81654 C 14.6116 6.75159 13.964 6.75 13 6.75 H 11 C 10.036 6.75 9.38843 6.75159 8.90539 6.81654 C 8.44393 6.87858 8.24643 6.9858 8.11612 7.11612 C 7.9858 7.24643 7.87858 7.44393 7.81654 7.90539 C 7.75159 8.38843 7.75 9.03599 7.75 10 V 10.25 Z M 7.25 16 C 7.25 15.5858 7.58579 15.25 8 15.25 H 16 C 16.4142 15.25 16.75 15.5858 16.75 16 C 16.75 16.4142 16.4142 16.75 16 16.75 H 8 C 7.58579 16.75 7.25 16.4142 7.25 16 Z" fill="#FFFFFF" />
</svg>