<svg xmlns="http://www.w3.org/2000/svg" width="24" height="24" viewBox="0 0 24 24" fill="none">
  <path d="M11.25 7.84748C10.3141 8.10339 9.75 8.82154 9.75 9.5C9.75 10.1785 10.3141 10.8966 11.25 11.1525V7.84748Z" fill="#FFFFFF" />
  <path d="M12.75 12.8475V16.1525C13.6859 15.8966 14.25 15.1785 14.25 14.5C14.25 13.8215 13.6859 13.1034 12.75 12.8475Z" fill="#FFFFFF" />
  <path fill-rule="nonzero" clip-rule="nonzero" d="M 22 12 C 22 17.5228 17.5228 22 12 22 C 6.47715 22 2 17.5228 2 12 C 2 6.47715 6.47715 2 12 2 C 17.5228 2 22 6.47715 22 12 Z M12 5.25 C11.5858 5.25 11.25 5.58579 11.25 6 L11.25 6.31673 C9.61957 6.60867 8.25 7.83361 8.25 9.5 C8.25 11.1664 9.61957 12.3913 11.25 12.6833 L11.25 16.1525 C10.3141 15.8966 9.75 15.1785 9.75 14.5 C9.75 14.0858 9.41421 13.75 9 13.75 C8.58579 13.75 8.25 14.0858 8.25 14.5 C8.25 16.1664 9.61957 17.3913 11.25 17.6833 L11.25 18 C11.25 18.4142 11.5858 18.75 12 18.75 C12.4142 18.75 12.75 18.4142 12.75 18 L12.75 17.6833 C14.3804 17.3913 15.75 16.1664 15.75 14.5 C15.75 12.8336 14.3804 11.6087 12.75 11.3167 L12.75 7.84748 C13.6859 8.10339 14.25 8.82154 14.25 9.5 C14.25 9.91421 14.5858 10.25 15 10.25 C15.4142 10.25 15.75 9.91421 15.75 9.5 C15.75 7.83361 14.3804 6.60867 12.75 6.31673 L12.75 6 C12.75 5.58579 12.4142 5.25 12 5.25 Z" fill="#FFFFFF" />
</svg>