<svg xmlns="http://www.w3.org/2000/svg" width="24" height="24" viewBox="0 0 24 24" fill="none">
  <path opacity="0.5" fill-rule="evenodd" clip-rule="evenodd" d="M22 12C22 17.5228 17.5228 22 12 22C6.47715 22 2 17.5228 2 12C2 6.47715 6.47715 2 12 2C17.5228 2 22 6.47715 22 12Z" fill="#FFFFFF" />
  <path fill-rule="nonzero" clip-rule="nonzero" d="M 12 5.25 C 12.4142 5.25 12.75 5.58579 12.75 6 V 6.31673 C 14.3804 6.60867 15.75 7.83361 15.75 9.5 C 15.75 9.91421 15.4142 10.25 15 10.25 C 14.5858 10.25 14.25 9.91421 14.25 9.5 C 14.25 8.82154 13.6859 8.10339 12.75 7.84748 V 11.3167 C 14.3804 11.6087 15.75 12.8336 15.75 14.5 C 15.75 16.1664 14.3804 17.3913 12.75 17.6833 V 18 C 12.75 18.4142 12.4142 18.75 12 18.75 C 11.5858 18.75 11.25 18.4142 11.25 18 V 17.6833 C 9.61957 17.3913 8.25 16.1664 8.25 14.5 C 8.25 14.0858 8.58579 13.75 9 13.75 C 9.41421 13.75 9.75 14.0858 9.75 14.5 C 9.75 15.1785 10.3141 15.8966 11.25 16.1525 V 12.6833 C 9.61957 12.3913 8.25 11.1664 8.25 9.5 C 8.25 7.83361 9.61957 6.60867 11.25 6.31673 V 6 C 11.25 5.58579 11.5858 5.25 12 5.25 Z M 11.25 7.84748 C 10.3141 8.10339 9.75 8.82154 9.75 9.5 C 9.75 10.1785 10.3141 10.8966 11.25 11.1525 V 7.84748 Z M 14.25 14.5 C 14.25 13.8215 13.6859 13.1034 12.75 12.8475 V 16.1525 C 13.6859 15.8966 14.25 15.1785 14.25 14.5 Z" fill="#FFFFFF" />
</svg>