<svg xmlns="http://www.w3.org/2000/svg" width="24" height="24" viewBox="0 0 24 24" fill="none">
  <path fill-rule="nonzero" clip-rule="nonzero" d="M12.052 1.25 C12.9505 1.24997 13.6997 1.24995 14.2945 1.32991 C14.9223 1.41432 15.4891 1.59999 15.9445 2.05546 C16.4 2.51093 16.5857 3.07773 16.6701 3.70552 C16.7274 4.13189 16.7436 5.15147 16.7482 6.02566 C18.7705 6.09171 19.9846 6.32778 20.8284 7.17157 C22 8.34315 22 10.2288 22 14 C22 17.7712 22 19.6569 20.8284 20.8284 C19.6569 22 17.7712 22 14 22 L9.99998 22 C6.22876 22 4.34314 22 3.17157 20.8284 C2 19.6569 2 17.7712 2 14 C2 10.2288 2 8.34315 3.17157 7.17157 C4.01536 6.32778 5.22954 6.09171 7.25179 6.02566 C7.25637 5.15147 7.27259 4.13189 7.32991 3.70552 C7.41432 3.07773 7.59999 2.51093 8.05546 2.05546 C8.51093 1.59999 9.07773 1.41432 9.70552 1.32991 C10.3003 1.24995 11.0495 1.24997 11.948 1.25 L12.052 1.25 Z M 15.2479 6.00188 C 15.2434 5.15523 15.229 4.24407 15.1835 3.9054 C 15.1214 3.44393 15.0142 3.24644 14.8839 3.11612 C 14.7536 2.9858 14.5561 2.87858 14.0946 2.81654 C 13.6116 2.7516 12.964 2.75 12 2.75 C 11.036 2.75 10.3884 2.7516 9.90539 2.81654 C 9.44393 2.87858 9.24644 2.9858 9.11612 3.11612 C 8.9858 3.24644 8.87858 3.44393 8.81654 3.9054 C 8.771 4.24407 8.75661 5.15523 8.75208 6.00188 C 9.1435 6 9.55885 6 10 6 H 14 C 14.4412 6 14.8565 6 15.2479 6.00188 Z M12 9.25 C11.5858 9.25 11.25 9.58579 11.25 10 L11.25 10.0102 C10.1612 10.2845 9.25 11.143 9.25 12.3333 C9.25 13.7903 10.6151 14.75 12 14.75 C12.8242 14.75 13.25 15.2826 13.25 15.6667 C13.25 16.0507 12.8242 16.5833 12 16.5833 C11.1758 16.5833 10.75 16.0507 10.75 15.6667 C10.75 15.2525 10.4142 14.9167 10 14.9167 C9.58579 14.9167 9.25 15.2525 9.25 15.6667 C9.25 16.857 10.1612 17.7155 11.25 17.9898 L11.25 18 C11.25 18.4142 11.5858 18.75 12 18.75 C12.4142 18.75 12.75 18.4142 12.75 18 L12.75 17.9898 C13.8388 17.7155 14.75 16.857 14.75 15.6667 C14.75 14.2098 13.3849 13.25 12 13.25 C11.1758 13.25 10.75 12.7174 10.75 12.3333 C10.75 11.9493 11.1758 11.4167 12 11.4167 C12.8242 11.4167 13.25 11.9493 13.25 12.3333 C13.25 12.7475 13.5858 13.0833 14 13.0833 C14.4142 13.0833 14.75 12.7475 14.75 12.3333 C14.75 11.143 13.8388 10.2845 12.75 10.0102 L12.75 10 C12.75 9.58579 12.4142 9.25 12 9.25 Z" fill="#FFFFFF" />
</svg>