<svg xmlns="http://www.w3.org/2000/svg" width="24" height="24" viewBox="0 0 24 24" fill="none">
  <path opacity="0.5" fill-rule="evenodd" clip-rule="evenodd" d="M22 12C22 17.5228 17.5228 22 12 22C6.47715 22 2 17.5228 2 12C2 6.47715 6.47715 2 12 2C17.5228 2 22 6.47715 22 12Z" fill="#FFFFFF" />
  <path fill-rule="nonzero" clip-rule="nonzero" d="M9 13.2501 L9.25 13.2501 L9.25 12.7501 L9 12.7501 C8.58579 12.7501 8.25 12.4143 8.25 12.0001 C8.25 11.5858 8.58579 11.2501 9 11.2501 L9.25 11.2501 L9.24997 8.16157 C9.24979 8.01605 9.24961 7.86478 9.27155 7.7263 C9.39015 6.97749 9.97743 6.39021 10.7262 6.27161 C10.8647 6.24968 11.016 6.24986 11.1615 6.25003 L13.5 6.25006 C15.2949 6.25006 16.75 7.70514 16.75 9.50006 C16.75 11.295 15.2949 12.7501 13.5 12.7501 L10.75 12.7501 L10.75 13.2501 L12 13.2501 C12.4142 13.2501 12.75 13.5858 12.75 14.0001 C12.75 14.4143 12.4142 14.7501 12 14.7501 L10.75 14.7501 L10.75 17.0001 C10.75 17.4143 10.4142 17.7501 10 17.7501 C9.58579 17.7501 9.25 17.4143 9.25 17.0001 L9.25 14.7501 L9 14.7501 C8.58579 14.7501 8.25 14.4143 8.25 14.0001 C8.25 13.5858 8.58579 13.2501 9 13.2501 Z M13.5 11.2501 C14.4665 11.2501 15.25 10.4666 15.25 9.50006 C15.25 8.53356 14.4665 7.75006 13.5 7.75006 L11.2 7.75006 C11.103 7.75006 11.0453 7.75013 11.0018 7.75132 C10.9742 7.75208 10.9622 7.75311 10.9593 7.7534 C10.8536 7.77083 10.7708 7.85368 10.7533 7.95936 C10.7531 7.96225 10.752 7.97425 10.7513 8.00186 C10.7501 8.04537 10.75 8.1031 10.75 8.20006 L10.75 11.2501 L13.5 11.2501 Z" fill="#FFFFFF" />
</svg>