<svg xmlns="http://www.w3.org/2000/svg" width="24" height="24" viewBox="0 0 24 24" fill="none">
  <path d="M13.5 11.25H10.75V8.2C10.75 8.10303 10.7501 8.04531 10.7513 8.0018C10.752 7.97419 10.7531 7.96219 10.7533 7.9593C10.7708 7.85362 10.8536 7.77077 10.9593 7.75334C10.9622 7.75305 10.9742 7.75201 11.0018 7.75126C11.0453 7.75007 11.103 7.75 11.2 7.75H13.5C14.4665 7.75 15.25 8.5335 15.25 9.5C15.25 10.4665 14.4665 11.25 13.5 11.25Z" fill="#FFFFFF" />
  <path fill-rule="nonzero" clip-rule="nonzero" d="M 22 12 C 22 17.5228 17.5228 22 12 22 C 6.47715 22 2 17.5228 2 12 C 2 6.47715 6.47715 2 12 2 C 17.5228 2 22 6.47715 22 12 Z M8.25 14 C8.25 14.4142 8.58579 14.75 9 14.75 L9.25 14.75 L9.25 17 C9.25 17.4142 9.58579 17.75 10 17.75 C10.4142 17.75 10.75 17.4142 10.75 17 L10.75 14.75 L12 14.75 C12.4142 14.75 12.75 14.4142 12.75 14 C12.75 13.5858 12.4142 13.25 12 13.25 L10.75 13.25 L10.75 12.75 L13.5 12.75 C15.2949 12.75 16.75 11.2949 16.75 9.5 C16.75 7.70507 15.2949 6.25 13.5 6.25 L11.1615 6.24997 C11.016 6.24979 10.8647 6.24961 10.7262 6.27155 C9.97743 6.39015 9.39015 6.97743 9.27155 7.72624 C9.24961 7.86471 9.24979 8.01598 9.24997 8.16151 L9.25 11.25 L9 11.25 C8.58579 11.25 8.25 11.5858 8.25 12 C8.25 12.4142 8.58579 12.75 9 12.75 L9.25 12.75 L9.25 13.25 L9 13.25 C8.58579 13.25 8.25 13.5858 8.25 14 Z" fill="#FFFFFF" />
</svg>