<svg xmlns="http://www.w3.org/2000/svg" width="24" height="24" viewBox="0 0 24 24" fill="none">
  <path fill-rule="nonzero" clip-rule="nonzero" d="M12.0574 1.25 C14.3658 1.24999 16.1748 1.24998 17.5863 1.43975 C19.031 1.63399 20.1711 2.03933 21.0659 2.93414 C21.9607 3.82895 22.366 4.96897 22.5603 6.41371 C22.75 7.82519 22.75 9.63423 22.75 11.9426 L22.75 12.0574 C22.75 14.3658 22.75 16.1748 22.5603 17.5863 C22.366 19.031 21.9607 20.1711 21.0659 21.0659 C20.1711 21.9607 19.031 22.366 17.5863 22.5603 C16.1748 22.75 14.3658 22.75 12.0574 22.75 L11.9426 22.75 C9.63423 22.75 7.82519 22.75 6.41371 22.5603 C4.96897 22.366 3.82895 21.9607 2.93414 21.0659 C2.03933 20.1711 1.63399 19.031 1.43975 17.5863 C1.24998 16.1748 1.24999 14.3658 1.25 12.0574 L1.25 11.9426 C1.24999 9.63423 1.24998 7.82519 1.43975 6.41371 C1.63399 4.96897 2.03933 3.82895 2.93414 2.93414 C3.82895 2.03933 4.96897 1.63399 6.41371 1.43975 C7.82519 1.24998 9.63423 1.24999 11.9426 1.25 L12.0574 1.25 Z M3.9948 3.9948 C3.42514 4.56445 3.09825 5.33517 2.92637 6.61358 C2.75159 7.91356 2.75 9.62177 2.75 12 C2.75 14.3782 2.75159 16.0864 2.92637 17.3864 C3.09825 18.6648 3.42514 19.4355 3.9948 20.0052 C4.56445 20.5749 5.33517 20.9018 6.61358 21.0736 C7.91356 21.2484 9.62177 21.25 12 21.25 C14.3782 21.25 16.0864 21.2484 17.3864 21.0736 C18.6648 20.9018 19.4355 20.5749 20.0052 20.0052 C20.5749 19.4355 20.9018 18.6648 21.0736 17.3864 C21.2484 16.0864 21.25 14.3782 21.25 12 C21.25 9.62177 21.2484 7.91356 21.0736 6.61358 C20.9018 5.33517 20.5749 4.56445 20.0052 3.9948 C19.4355 3.42514 18.6648 3.09825 17.3864 2.92637 C16.0864 2.75159 14.3782 2.75 12 2.75 C9.62177 2.75 7.91356 2.75159 6.61358 2.92637 C5.33517 3.09825 4.56445 3.42514 3.9948 3.9948 Z M16.3918 4.36652 C17.2919 4.48754 18.0497 4.74643 18.6517 5.34835 C19.2536 5.95027 19.5125 6.70814 19.6335 7.60825 C19.75 8.47522 19.75 9.57754 19.75 10.9451 L19.75 13.0549 C19.75 14.4225 19.75 15.5248 19.6335 16.3918 C19.5125 17.2919 19.2536 18.0497 18.6517 18.6517 C18.0497 19.2536 17.2919 19.5125 16.3918 19.6335 C15.5248 19.75 14.4225 19.75 13.0549 19.75 L10.9451 19.75 C9.57754 19.75 8.47522 19.75 7.60825 19.6335 C6.70814 19.5125 5.95027 19.2536 5.34835 18.6517 C5.07033 18.3736 4.8655 18.0623 4.71362 17.7191 C4.64592 17.7392 4.57422 17.75 4.5 17.75 C4.08579 17.75 3.75 17.4142 3.75 17 L3.75 14 C3.75 13.6734 3.95871 13.3956 4.25002 13.2927 L4.25 13.0549 L4.25 10.9451 L4.25002 10.7073 C3.95871 10.6044 3.75 10.3266 3.75 10 L3.75 7 C3.75 6.58579 4.08579 6.25 4.5 6.25 C4.57422 6.25 4.64592 6.26078 4.71362 6.28086 C4.8655 5.93766 5.07033 5.62637 5.34835 5.34835 C5.95027 4.74643 6.70814 4.48754 7.60825 4.36652 C8.47522 4.24996 9.57753 4.24998 10.9451 4.25 L13.0549 4.25 C14.4225 4.24998 15.5248 4.24996 16.3918 4.36652 Z M6.40901 6.40901 C6.13225 6.68577 5.9518 7.07435 5.85315 7.80812 C5.75159 8.56347 5.75 9.56458 5.75 11 L5.75 13 C5.75 14.4354 5.75159 15.4365 5.85315 16.1919 C5.9518 16.9257 6.13225 17.3142 6.40901 17.591 C6.68577 17.8678 7.07435 18.0482 7.80812 18.1469 C8.56347 18.2484 9.56458 18.25 11 18.25 L13 18.25 C14.4354 18.25 15.4365 18.2484 16.1919 18.1469 C16.9257 18.0482 17.3142 17.8678 17.591 17.591 C17.8678 17.3142 18.0482 16.9257 18.1469 16.1919 C18.2484 15.4365 18.25 14.4354 18.25 13 L18.25 11 C18.25 9.56458 18.2484 8.56347 18.1469 7.80812 C18.0482 7.07435 17.8678 6.68577 17.591 6.40901 C17.3142 6.13225 16.9257 5.9518 16.1919 5.85315 C15.4365 5.75159 14.4354 5.75 13 5.75 L11 5.75 C9.56458 5.75 8.56347 5.75159 7.80812 5.85315 C7.07435 5.9518 6.68577 6.13225 6.40901 6.40901 Z M12 7.25 C14.6234 7.25 16.75 9.37665 16.75 12 C16.75 14.6234 14.6234 16.75 12 16.75 C9.37665 16.75 7.25 14.6234 7.25 12 C7.25 9.37665 9.37665 7.25 12 7.25 Z M12 15.25 C13.0699 15.25 14.0191 14.733 14.6113 13.9351 L12.8987 13.2011 C12.6482 13.3888 12.3371 13.5 12 13.5 C11.6629 13.5 11.3518 13.3888 11.1013 13.2011 L9.38865 13.9351 C9.98087 14.733 10.9301 15.25 12 15.25 Z M 11.25 8.83697 C 9.81665 9.17555 8.75 10.4632 8.75 12 C 8.75 12.1897 8.76626 12.3757 8.79747 12.5565 L 10.5104 11.8224 C 10.567 11.3425 10.8502 10.932 11.25 10.7007 V 8.83697 Z M15.25 12 C15.25 10.4632 14.1834 9.17555 12.75 8.83697 L12.75 10.7007 C13.1498 10.932 13.433 11.3425 13.4896 11.8224 L15.2025 12.5565 C15.2337 12.3757 15.25 12.1897 15.25 12 Z" fill="#FFFFFF" />
</svg>