<svg xmlns="http://www.w3.org/2000/svg" width="24" height="24" viewBox="0 0 24 24" fill="none">
  <path fill-rule="nonzero" clip-rule="nonzero" d="M 11.9426 1.25 H 12.0574 C 14.3658 1.24999 16.1748 1.24998 17.5863 1.43975 C 19.031 1.63399 20.1711 2.03933 21.0659 2.93414 C 21.9607 3.82895 22.366 4.96897 22.5603 6.41371 C 22.75 7.82519 22.75 9.63423 22.75 11.9426 V 12.0574 C 22.75 14.3658 22.75 16.1748 22.5603 17.5863 C 22.366 19.031 21.9607 20.1711 21.0659 21.0659 C 20.1711 21.9607 19.031 22.366 17.5863 22.5603 C 16.1748 22.75 14.3658 22.75 12.0574 22.75 H 11.9426 C 9.63423 22.75 7.82519 22.75 6.41371 22.5603 C 4.96897 22.366 3.82895 21.9607 2.93414 21.0659 C 2.03933 20.1711 1.63399 19.031 1.43975 17.5863 C 1.24998 16.1748 1.24999 14.3658 1.25 12.0574 V 11.9426 C 1.24999 9.63423 1.24998 7.82519 1.43975 6.41371 C 1.63399 4.96897 2.03933 3.82895 2.93414 2.93414 C 3.82895 2.03933 4.96897 1.63399 6.41371 1.43975 C 7.82519 1.24998 9.63423 1.24999 11.9426 1.25 Z M 6.61358 2.92637 C 5.33517 3.09825 4.56445 3.42514 3.9948 3.9948 C 3.42514 4.56445 3.09825 5.33517 2.92637 6.61358 C 2.75159 7.91356 2.75 9.62177 2.75 12 C 2.75 14.3782 2.75159 16.0864 2.92637 17.3864 C 3.09825 18.6648 3.42514 19.4355 3.9948 20.0052 C 4.56445 20.5749 5.33517 20.9018 6.61358 21.0736 C 7.91356 21.2484 9.62177 21.25 12 21.25 C 14.3782 21.25 16.0864 21.2484 17.3864 21.0736 C 18.6648 20.9018 19.4355 20.5749 20.0052 20.0052 C 20.5749 19.4355 20.9018 18.6648 21.0736 17.3864 C 21.2484 16.0864 21.25 14.3782 21.25 12 C 21.25 9.62177 21.2484 7.91356 21.0736 6.61358 C 20.9018 5.33517 20.5749 4.56445 20.0052 3.9948 C 19.4355 3.42514 18.6648 3.09825 17.3864 2.92637 C 16.0864 2.75159 14.3782 2.75 12 2.75 C 9.62177 2.75 7.91356 2.75159 6.61358 2.92637 Z M 6 6.25 C 6.41421 6.25 6.75 6.58579 6.75 7 L 6.75 17 C 6.75 17.4142 6.41421 17.75 6 17.75 C 5.58579 17.75 5.25 17.4142 5.25 17 L 5.25 7 C 5.25 6.58579 5.58579 6.25 6 6.25 Z M 9.46967 7.46967 C 9.76256 7.17678 10.2374 7.17678 10.5303 7.46967 L 11.932 8.8713 C 12.5248 8.47866 13.2357 8.25 14 8.25 C 14.7643 8.25 15.4752 8.47866 16.068 8.8713 L 17.4697 7.46967 C 17.7626 7.17678 18.2374 7.17678 18.5303 7.46967 C 18.8232 7.76256 18.8232 8.23744 18.5303 8.53033 L 17.1287 9.93196 C 17.5213 10.5248 17.75 11.2357 17.75 12 C 17.75 12.7643 17.5213 13.4752 17.1287 14.068 L 18.5303 15.4697 C 18.8232 15.7626 18.8232 16.2374 18.5303 16.5303 C 18.2374 16.8232 17.7626 16.8232 17.4697 16.5303 L 16.068 15.1287 C 15.4752 15.5213 14.7643 15.75 14 15.75 C 13.2357 15.75 12.5248 15.5213 11.932 15.1287 L 10.5303 16.5303 C 10.2374 16.8232 9.76256 16.8232 9.46967 16.5303 C 9.17678 16.2374 9.17678 15.7626 9.46967 15.4697 L 10.8713 14.068 C 10.4787 13.4752 10.25 12.7643 10.25 12 C 10.25 11.2357 10.4787 10.5248 10.8713 9.93196 L 9.46967 8.53033 C 9.17678 8.23744 9.17678 7.76256 9.46967 7.46967 Z M 14 9.75 C 12.7574 9.75 11.75 10.7574 11.75 12 C 11.75 13.2426 12.7574 14.25 14 14.25 C 15.2426 14.25 16.25 13.2426 16.25 12 C 16.25 10.7574 15.2426 9.75 14 9.75 Z" fill="#FFFFFF" />
</svg>