<svg xmlns="http://www.w3.org/2000/svg" width="24" height="24" viewBox="0 0 24 24" fill="none">
  <path d="M8.75 12C8.75 10.4632 9.81665 9.17555 11.25 8.83697V9.87803C10.3761 10.1869 9.75 11.0203 9.75 12C9.75 12.0492 9.75158 12.0979 9.75468 12.1463L8.79747 12.5565C8.76626 12.3757 8.75 12.1898 8.75 12Z" fill="#FFFFFF" />
  <path d="M12.75 9.87803V8.83697C14.1833 9.17555 15.25 10.4632 15.25 12C15.25 12.1898 15.2337 12.3757 15.2025 12.5565L14.2453 12.1463C14.2484 12.0979 14.25 12.0492 14.25 12C14.25 11.0203 13.6239 10.1869 12.75 9.87803Z" fill="#FFFFFF" />
  <path d="M13.6544 13.525L14.6113 13.9351C14.0191 14.733 13.0699 15.25 12 15.25C10.9301 15.25 9.98087 14.733 9.38865 13.9351L10.3456 13.525C10.7568 13.9708 11.3458 14.25 12 14.25C12.6542 14.25 13.2432 13.9708 13.6544 13.525Z" fill="#FFFFFF" />
  <path fill-rule="nonzero" clip-rule="nonzero" d="M7.80812 5.85315 C8.56347 5.75159 9.56458 5.75 11 5.75 L13 5.75 C14.4354 5.75 15.4365 5.75159 16.1919 5.85315 C16.9257 5.9518 17.3142 6.13225 17.591 6.40901 C17.8678 6.68577 18.0482 7.07435 18.1469 7.80812 C18.2484 8.56347 18.25 9.56459 18.25 11 L18.25 13 C18.25 14.4354 18.2484 15.4365 18.1469 16.1919 C18.0482 16.9257 17.8678 17.3142 17.591 17.591 C17.3142 17.8678 16.9257 18.0482 16.1919 18.1469 C15.4365 18.2484 14.4354 18.25 13 18.25 L11 18.25 C9.56458 18.25 8.56347 18.2484 7.80812 18.1469 C7.07434 18.0482 6.68577 17.8678 6.40901 17.591 C6.13225 17.3142 5.9518 16.9257 5.85315 16.1919 C5.75159 15.4365 5.75 14.4354 5.75 13 L5.75 11 C5.75 9.56458 5.75159 8.56347 5.85315 7.80812 C5.9518 7.07435 6.13225 6.68577 6.40901 6.40901 C6.68577 6.13225 7.07434 5.9518 7.80812 5.85315 Z M 12 7.25 C 9.37665 7.25 7.25 9.37665 7.25 12 C 7.25 14.6234 9.37665 16.75 12 16.75 C 14.6234 16.75 16.75 14.6234 16.75 12 C 16.75 9.37665 14.6234 7.25 12 7.25 Z" fill="#FFFFFF" />
  <path fill-rule="nonzero" clip-rule="nonzero" d="M 2 12 C 2 7.28595 2 4.92893 3.46447 3.46447 C 4.92893 2 7.28595 2 12 2 C 16.714 2 19.0711 2 20.5355 3.46447 C 22 4.92893 22 7.28595 22 12 C 22 16.714 22 19.0711 20.5355 20.5355 C 19.0711 22 16.714 22 12 22 C 7.28595 22 4.92893 22 3.46447 20.5355 C 2 19.0711 2 16.714 2 12 Z M13.0549 4.25 L10.9451 4.25 C9.57754 4.24998 8.47522 4.24996 7.60825 4.36652 C6.70814 4.48754 5.95027 4.74643 5.34835 5.34835 C5.07033 5.62637 4.8655 5.93766 4.71362 6.28086 C4.64592 6.26078 4.57422 6.25 4.5 6.25 C4.08579 6.25 3.75 6.58579 3.75 7 L3.75 10 C3.75 10.3266 3.95871 10.6044 4.25002 10.7073 L4.25002 13.2927 C3.95871 13.3956 3.75 13.6734 3.75 14 L3.75 17 C3.75 17.4142 4.08579 17.75 4.5 17.75 C4.57422 17.75 4.64592 17.7392 4.71362 17.7191 C4.8655 18.0623 5.07033 18.3736 5.34835 18.6517 C5.95027 19.2536 6.70814 19.5125 7.60825 19.6335 C8.47522 19.75 9.57754 19.75 10.9451 19.75 L13.0549 19.75 C14.4225 19.75 15.5248 19.75 16.3918 19.6335 C17.2919 19.5125 18.0497 19.2536 18.6516 18.6517 C19.2536 18.0497 19.5125 17.2919 19.6335 16.3918 C19.75 15.5248 19.75 14.4225 19.75 13.0549 L19.75 10.9451 C19.75 9.57754 19.75 8.47522 19.6335 7.60825 C19.5125 6.70814 19.2536 5.95027 18.6516 5.34835 C18.0497 4.74643 17.2919 4.48754 16.3918 4.36652 C15.5248 4.24996 14.4225 4.24998 13.0549 4.25 Z" fill="#FFFFFF" />
</svg>