<svg xmlns="http://www.w3.org/2000/svg" width="24" height="24" viewBox="0 0 24 24" fill="none">
  <path fill-rule="nonzero" clip-rule="nonzero" d="M9.5924 3.20027 C10.2043 2.67883 10.5102 2.4181 10.8301 2.26522 C11.57 1.91159 12.43 1.91159 13.1699 2.26522 C13.4898 2.41811 13.7957 2.67883 14.4076 3.20027 C14.6511 3.40781 14.7729 3.51158 14.9029 3.59874 C15.201 3.79854 15.5358 3.93721 15.8879 4.00672 C16.0415 4.03705 16.201 4.04977 16.5199 4.07522 C17.3213 4.13918 17.722 4.17115 18.0563 4.28923 C18.8295 4.56233 19.4377 5.17051 19.7108 5.94371 C19.8288 6.278 19.8608 6.6787 19.9248 7.48008 C19.9502 7.79903 19.963 7.95851 19.9933 8.1121 C20.0628 8.46417 20.2015 8.79896 20.4013 9.09706 C20.4884 9.22711 20.5922 9.34887 20.7997 9.5924 C21.3212 10.2043 21.5819 10.5102 21.7348 10.8301 C22.0884 11.57 22.0884 12.43 21.7348 13.1699 C21.5819 13.4898 21.3212 13.7957 20.7997 14.4076 C20.5922 14.6511 20.4884 14.7729 20.4013 14.9029 C20.2015 15.201 20.0628 15.5358 19.9933 15.8879 C19.963 16.0415 19.9502 16.201 19.9248 16.5199 C19.8608 17.3213 19.8288 17.722 19.7108 18.0563 C19.4377 18.8295 18.8295 19.4377 18.0563 19.7108 C17.722 19.8288 17.3213 19.8608 16.5199 19.9248 C16.201 19.9502 16.0415 19.963 15.8879 19.9933 C15.5358 20.0628 15.201 20.2015 14.9029 20.4013 C14.7729 20.4884 14.6511 20.5922 14.4076 20.7997 C13.7957 21.3212 13.4898 21.5819 13.1699 21.7348 C12.43 22.0884 11.57 22.0884 10.8301 21.7348 C10.5102 21.5819 10.2043 21.3212 9.5924 20.7997 C9.34887 20.5922 9.22711 20.4884 9.09706 20.4013 C8.79896 20.2015 8.46417 20.0628 8.1121 19.9933 C7.95851 19.963 7.79903 19.9502 7.48008 19.9248 C6.6787 19.8608 6.278 19.8288 5.94371 19.7108 C5.17051 19.4377 4.56233 18.8295 4.28923 18.0563 C4.17115 17.722 4.13918 17.3213 4.07522 16.5199 C4.04977 16.201 4.03705 16.0415 4.00672 15.8879 C3.93721 15.5358 3.79854 15.201 3.59874 14.9029 C3.51158 14.7729 3.40778 14.6511 3.20027 14.4076 C2.67883 13.7957 2.41811 13.4898 2.26522 13.1699 C1.91159 12.43 1.91159 11.57 2.26522 10.8301 C2.4181 10.5102 2.67883 10.2043 3.20027 9.5924 C3.40781 9.34887 3.51158 9.22711 3.59874 9.09706 C3.79854 8.79896 3.93721 8.46417 4.00672 8.1121 C4.03705 7.95851 4.04977 7.79903 4.07522 7.48008 C4.13918 6.6787 4.17115 6.278 4.28923 5.94371 C4.56233 5.17051 5.17051 4.56233 5.94371 4.28923 C6.278 4.17115 6.6787 4.13918 7.48008 4.07522 C7.79903 4.04977 7.95851 4.03705 8.1121 4.00672 C8.46417 3.93721 8.79896 3.79854 9.09706 3.59874 C9.22711 3.51158 9.34888 3.4078 9.5924 3.20027 Z M15.8309 8.16959 C15.5131 7.85176 14.9978 7.85176 14.6799 8.16959 L8.16906 14.6805 C7.85123 14.9983 7.85123 15.5136 8.16906 15.8314 C8.48689 16.1493 9.0022 16.1493 9.32003 15.8314 L15.8309 9.32056 C16.1487 9.00273 16.1487 8.48742 15.8309 8.16959 Z M15.798 14.7134 C15.798 14.1141 15.3122 13.6282 14.7129 13.6282 C14.1135 13.6282 13.6277 14.1141 13.6277 14.7134 C13.6277 15.3127 14.1135 15.7985 14.7129 15.7985 C15.3122 15.7985 15.798 15.3127 15.798 14.7134 Z M 9.28712 10.3728 C 9.88643 10.3728 10.3723 9.88696 10.3723 9.28765 C 10.3723 8.68834 9.88643 8.2025 9.28712 8.2025 C 8.68781 8.2025 8.20197 8.68834 8.20197 9.28765 C 8.20197 9.88696 8.68781 10.3728 9.28712 10.3728 Z" fill="#FFFFFF" />
</svg>