<svg xmlns="http://www.w3.org/2000/svg" width="24" height="24" viewBox="0 0 24 24" fill="none">
  <path fill-rule="nonzero" clip-rule="nonzero" d="M3.46447 3.46447 C4.92893 2 7.28595 2 12 2 C16.714 2 19.0711 2 20.5355 3.46447 C22 4.92893 22 7.28595 22 12 C22 16.714 22 19.0711 20.5355 20.5355 C19.0711 22 16.714 22 12 22 C7.28595 22 4.92893 22 3.46447 20.5355 C2 19.0711 2 16.714 2 12 C2 7.28595 2 4.92893 3.46447 3.46447 Z M15.5303 8.46967 C15.2374 8.17678 14.7626 8.17678 14.4697 8.46967 L8.46967 14.4697 C8.17678 14.7626 8.17678 15.2374 8.46967 15.5303 C8.76256 15.8232 9.23744 15.8232 9.53033 15.5303 L15.5303 9.53033 C15.8232 9.23744 15.8232 8.76256 15.5303 8.46967 Z M10.5 9.5 C10.5 8.94772 10.0523 8.5 9.5 8.5 C8.94772 8.5 8.5 8.94772 8.5 9.5 C8.5 10.0523 8.94772 10.5 9.5 10.5 C10.0523 10.5 10.5 10.0523 10.5 9.5 Z M 14.5 15.5 C 15.0523 15.5 15.5 15.0523 15.5 14.5 C 15.5 13.9477 15.0523 13.5 14.5 13.5 C 13.9477 13.5 13.5 13.9477 13.5 14.5 C 13.5 15.0523 13.9477 15.5 14.5 15.5 Z" fill="#FFFFFF" />
</svg>