<svg xmlns="http://www.w3.org/2000/svg" width="24" height="24" viewBox="0 0 24 24" fill="none">
  <path fill-rule="nonzero" clip-rule="nonzero" d="M2.12264 12.816 C1.83509 11.8134 2.08083 10.7485 2.57231 8.61875 L2.85574 7.39057 C3.26922 5.59881 3.47597 4.70292 4.08944 4.08944 C4.70292 3.47597 5.5988 3.26922 7.39057 2.85574 L8.61875 2.57231 C10.7485 2.08083 11.8134 1.83509 12.816 2.12264 C13.8186 2.41018 14.5914 3.18295 16.1369 4.72848 L17.9665 6.55812 C20.6555 9.24711 22 10.5916 22 12.2623 C22 13.933 20.6555 15.2775 17.9665 17.9665 C15.2775 20.6555 13.933 22 12.2623 22 C10.5916 22 9.24711 20.6555 6.55812 17.9665 L4.72848 16.1369 C3.18295 14.5914 2.41018 13.8186 2.12264 12.816 Z M10.1234 7.27098 C9.33581 6.48339 8.05888 6.48339 7.27129 7.27098 C6.48371 8.05856 6.48371 9.33549 7.27129 10.1231 C8.05888 10.9107 9.33581 10.9107 10.1234 10.1231 C10.911 9.33549 10.911 8.05856 10.1234 7.27098 Z M19.0511 12.0511 C19.344 11.7582 19.344 11.2833 19.0511 10.9904 C18.7582 10.6975 18.2833 10.6975 17.9904 10.9904 L11.0114 17.9697 C10.7185 18.2626 10.7185 18.7375 11.0114 19.0303 C11.3043 19.3232 11.7792 19.3232 12.0721 19.0303 L19.0511 12.0511 Z" fill="#FFFFFF" />
</svg>