<svg xmlns="http://www.w3.org/2000/svg" width="24" height="24" viewBox="0 0 24 24" fill="none">
  <path fill-rule="nonzero" clip-rule="nonzero" d="M 12.858 20 H 10.221 C 6.3456 20 4.40789 20 3.20394 18.8284 C 2 17.6569 2 15.7712 2 12 C 2 8.22876 2 6.34315 3.20394 5.17157 C 4.40789 4 6.34561 4 10.221 4 H 12.858 C 15.0854 4 16.1992 4 17.1289 4.50143 C 18.0586 5.00286 18.6488 5.92191 19.8294 7.76001 L 20.5102 8.82001 C 21.5034 10.3664 22 11.1396 22 12 C 22 12.8604 21.5034 13.6336 20.5102 15.18 L 19.8294 16.24 C 18.6488 18.0781 18.0586 18.9971 17.1289 19.4986 C 16.1992 20 15.0854 20 12.858 20 Z M7 7.05423 C6.58579 7.05423 6.25 7.37026 6.25 7.76011 L6.25 16.2353 C6.25 16.6251 6.58579 16.9412 7 16.9412 C7.41421 16.9412 7.75 16.6251 7.75 16.2353 L7.75 7.76011 C7.75 7.37026 7.41421 7.05423 7 7.05423 Z" fill="#FFFFFF" />
</svg>