<svg xmlns="http://www.w3.org/2000/svg" width="24" height="24" viewBox="0 0 24 24" fill="none">
  <path fill-rule="nonzero" clip-rule="nonzero" d="M 10.6628 3.25 L 13.3962 3.25 C 14.4775 3.24999 15.3438 3.24998 16.0539 3.32024 C 16.7893 3.393 17.4138 3.54511 18.0018 3.88204 C 18.5885 4.21826 19.0412 4.68264 19.4875 5.28464 C 19.9201 5.86804 20.3781 6.62574 20.9521 7.57545 L 21.6722 8.7667 C 22.1517 9.55986 22.5408 10.2035 22.8055 10.7633 C 23.0815 11.3467 23.25 11.8935 23.25 12.5 C 23.25 13.1065 23.0815 13.6533 22.8055 14.2367 C 22.5408 14.7965 22.1517 15.4401 21.6722 16.2333 L 20.9521 17.4246 C 20.3781 18.3743 19.9201 19.132 19.4875 19.7154 C 19.0412 20.3174 18.5885 20.7817 18.0018 21.118 C 17.4138 21.4549 16.7893 21.607 16.0539 21.6798 C 15.3438 21.75 14.4775 21.75 13.3962 21.75 H 10.6628 C 8.77448 21.75 7.27837 21.75 6.10742 21.5873 C 4.90024 21.4194 3.92827 21.0659 3.16484 20.2766 C 2.4048 19.4908 2.06748 18.4962 1.90675 17.2601 C 1.74998 16.0544 1.74999 14.5118 1.75 12.555 V 12.445 C 1.74999 10.4882 1.74998 8.94556 1.90675 7.73988 C 2.06748 6.50385 2.4048 5.50922 3.16484 4.72339 C 3.92827 3.93405 4.90024 3.58055 6.10742 3.41274 C 7.27838 3.24997 8.7745 3.24998 10.6628 3.25 Z M 6.31395 4.89846 C 5.28243 5.04185 4.68356 5.31074 4.24305 5.76621 C 3.79914 6.22517 3.53449 6.85468 3.39423 7.93331 C 3.25149 9.03102 3.25 10.476 3.25 12.5 C 3.25 14.524 3.25149 15.969 3.39423 17.0667 C 3.53449 18.1453 3.79914 18.7748 4.24305 19.2338 C 4.68356 19.6893 5.28243 19.9582 6.31395 20.1015 C 7.36968 20.2483 8.76142 20.25 10.721 20.25 H 13.358 C 14.4863 20.25 15.2785 20.2492 15.9062 20.187 C 16.517 20.1266 16.9142 20.0123 17.256 19.8165 C 17.599 19.6199 17.9062 19.3297 18.2826 18.822 C 18.668 18.3022 19.09 17.6055 19.6875 16.617 L 20.3683 15.4908 C 20.8728 14.6562 21.2214 14.0778 21.4495 13.5954 C 21.6702 13.1287 21.75 12.8077 21.75 12.5 C 21.75 12.1923 21.6702 11.8713 21.4495 11.4046 C 21.2214 10.9222 20.8728 10.3438 20.3683 9.50924 L 19.6875 8.383 C 19.09 7.39452 18.668 6.69782 18.2826 6.17798 C 17.9062 5.6703 17.599 5.38005 17.256 5.1835 C 16.9142 4.98766 16.517 4.87339 15.9062 4.81295 C 15.2785 4.75084 14.4863 4.75 13.358 4.75 H 10.721 C 8.76142 4.75 7.36968 4.7517 6.31395 4.89846 Z M 7.5 7.24512 C 7.91421 7.24512 8.25 7.5809 8.25 7.99512 V 17 C 8.25 17.4142 7.91421 17.75 7.5 17.75 C 7.08579 17.75 6.75 17.4142 6.75 17 V 7.99512 C 6.75 7.5809 7.08579 7.24512 7.5 7.24512 Z" fill="#FFFFFF" />
</svg>