<svg xmlns="http://www.w3.org/2000/svg" width="24" height="24" viewBox="0 0 24 24" fill="none">
  <path fill-rule="nonzero" clip-rule="nonzero" d="M 11.2383 2.79888 C 10.6243 2.88003 9.86602 3.0542 8.7874 3.30311 L 7.55922 3.58654 C 6.6482 3.79677 6.02082 3.94252 5.54162 4.10698 C 5.07899 4.26576 4.81727 4.42228 4.61978 4.61978 C 4.42228 4.81727 4.26576 5.07899 4.10698 5.54162 C 3.94252 6.02082 3.79677 6.6482 3.58654 7.55922 L 3.30311 8.7874 C 3.0542 9.86602 2.88003 10.6243 2.79888 11.2383 C 2.71982 11.8365 2.73805 12.2413 2.84358 12.6092 C 2.94911 12.9772 3.14817 13.3301 3.53226 13.7954 C 3.92651 14.2731 4.47607 14.8238 5.25882 15.6066 L 7.08845 17.4362 C 8.44794 18.7957 9.41533 19.7608 10.247 20.3954 C 11.0614 21.0167 11.6569 21.25 12.2623 21.25 C 12.8678 21.25 13.4633 21.0167 14.2776 20.3954 C 15.1093 19.7608 16.0767 18.7957 17.4362 17.4362 C 18.7957 16.0767 19.7608 15.1093 20.3954 14.2776 C 21.0167 13.4633 21.25 12.8678 21.25 12.2623 C 21.25 11.6569 21.0167 11.0614 20.3954 10.247 C 19.7608 9.41533 18.7957 8.44794 17.4362 7.08845 L 15.6066 5.25882 C 14.8238 4.47607 14.2731 3.92651 13.7954 3.53226 C 13.3301 3.14817 12.9772 2.94911 12.6092 2.84358 C 12.2413 2.73805 11.8365 2.71982 11.2383 2.79888 Z M 11.0418 1.31181 C 11.7591 1.21701 12.3881 1.21969 13.0227 1.4017 C 13.6574 1.58372 14.1922 1.91482 14.7502 2.37538 C 15.2897 2.82061 15.8905 3.4214 16.641 4.17197 L 18.5368 6.06774 C 19.8474 7.37835 20.8851 8.41598 21.5879 9.33714 C 22.311 10.2849 22.75 11.197 22.75 12.2623 C 22.75 13.3276 22.311 14.2397 21.5879 15.1875 C 20.8851 16.1087 19.8474 17.1463 18.5368 18.4569 L 18.4569 18.5368 C 17.1463 19.8474 16.1087 20.8851 15.1875 21.5879 C 14.2397 22.311 13.3276 22.75 12.2623 22.75 C 11.197 22.75 10.2849 22.311 9.33714 21.5879 C 8.41598 20.8851 7.37833 19.8474 6.06771 18.5368 L 4.17196 16.641 C 3.4214 15.8905 2.82061 15.2897 2.37538 14.7502 C 1.91482 14.1922 1.58372 13.6574 1.4017 13.0227 C 1.21969 12.3881 1.21701 11.7591 1.31181 11.0418 C 1.40345 10.3484 1.59451 9.52048 1.83319 8.48622 L 2.13385 7.18334 C 2.33302 6.32023 2.49543 5.61639 2.68821 5.05469 C 2.88955 4.46806 3.14313 3.9751 3.55912 3.55912 C 3.9751 3.14313 4.46806 2.88955 5.05469 2.68821 C 5.61639 2.49543 6.32023 2.33302 7.18335 2.13385 L 8.48622 1.83319 C 9.52047 1.59451 10.3484 1.40345 11.0418 1.31181 Z M 9.49094 7.99514 C 9.00278 7.50699 8.21133 7.50699 7.72317 7.99514 C 7.23502 8.4833 7.23502 9.27476 7.72317 9.76291 C 8.21133 10.2511 9.00278 10.2511 9.49094 9.76291 C 9.97909 9.27476 9.97909 8.4833 9.49094 7.99514 Z M 6.66251 6.93448 C 7.73645 5.86054 9.47766 5.86054 10.5516 6.93448 C 11.6255 8.00843 11.6255 9.74963 10.5516 10.8236 C 9.47766 11.8975 7.73645 11.8975 6.66251 10.8236 C 5.58857 9.74963 5.58857 8.00843 6.66251 6.93448 Z M 19.0511 10.9902 C 19.344 11.2831 19.344 11.7579 19.0511 12.0508 L 12.0721 19.0301 C 11.7792 19.323 11.3043 19.323 11.0114 19.0301 C 10.7185 18.7372 10.7185 18.2623 11.0114 17.9694 L 17.9904 10.9902 C 18.2833 10.6973 18.7582 10.6973 19.0511 10.9902 Z" fill="#FFFFFF" />
</svg>