<svg xmlns="http://www.w3.org/2000/svg" width="24" height="24" viewBox="0 0 24 24" fill="none">
  <path fill-rule="nonzero" clip-rule="nonzero" d="M 16.1369 4.72848 L 17.9665 6.55812 C 20.6555 9.24711 22 10.5916 22 12.2623 C 22 13.933 20.6555 15.2775 17.9665 17.9665 C 15.2775 20.6555 13.933 22 12.2623 22 C 10.5916 22 9.24711 20.6555 6.55812 17.9665 L 4.72848 16.1369 C 3.18295 14.5914 2.41018 13.8186 2.12264 12.816 C 1.83509 11.8134 2.08083 10.7485 2.57231 8.61875 L 2.85574 7.39057 C 3.26922 5.59881 3.47597 4.70292 4.08944 4.08944 C 4.70292 3.47597 5.5988 3.26922 7.39057 2.85574 L 8.61875 2.57231 C 10.7485 2.08083 11.8134 1.83509 12.816 2.12264 C 13.8186 2.41018 14.5914 3.18295 16.1369 4.72848 Z M11.1467 14.3284 C12.0142 15.1959 13.3678 14.9357 14.1519 14.1517 C14.5394 13.7641 14.9269 13.866 15.0358 13.9749 C15.1446 14.0837 15.2465 14.4712 14.859 14.8588 C14.6137 15.104 14.3281 15.1622 14.151 15.1257 C13.7452 15.0424 13.3487 15.3037 13.2654 15.7094 C13.182 16.1152 13.4433 16.5117 13.849 16.595 C14.3446 16.6969 14.8643 16.6059 15.3212 16.3631 C15.6131 16.5619 16.0143 16.5319 16.2732 16.273 C16.533 16.0132 16.5624 15.6102 16.3612 15.318 C16.7637 14.5528 16.7694 13.5872 16.0964 12.9142 C15.2289 12.0467 13.8753 12.307 13.0912 13.091 C12.7037 13.4785 12.3162 13.3766 12.2073 13.2678 C12.0985 13.1589 11.9966 12.7714 12.3841 12.3839 C12.5835 12.1845 12.816 12.1051 12.9929 12.1068 C13.4071 12.1107 13.7461 11.7781 13.75 11.3639 C13.7539 10.9497 13.4213 10.6107 13.0071 10.6068 C12.635 10.6033 12.2615 10.6988 11.9217 10.8795 C11.6298 10.6807 11.2288 10.7108 10.9699 10.9697 C10.7101 11.2295 10.6807 11.6325 10.8819 11.9247 C10.4794 12.6899 10.4737 13.6555 11.1467 14.3284 Z M 10.021 10.2931 C 10.802 9.51207 10.802 8.24574 10.021 7.46469 C 9.23991 6.68364 7.97358 6.68364 7.19253 7.46469 C 6.41148 8.24574 6.41148 9.51207 7.19253 10.2931 C 7.97358 11.0742 9.23991 11.0742 10.021 10.2931 Z" fill="#FFFFFF" />
</svg>