<svg xmlns="http://www.w3.org/2000/svg" width="24" height="24" viewBox="0 0 24 24" fill="none">
  <path fill-rule="nonzero" clip-rule="nonzero" d="M14.0079 19.0029 C14.0065 19.4731 14.0058 19.7081 13.8591 19.8541 C13.7124 20 13.4767 20 13.0054 20 L9.99502 20 C6.21438 20 4.32407 20 3.14958 18.8284 C2.34091 18.0218 2.08903 16.8766 2.01058 15.0105 C1.99502 14.6405 1.98724 14.4554 2.05634 14.332 C2.12545 14.2085 2.40133 14.0545 2.95308 13.7463 C3.56586 13.4041 3.98007 12.7503 3.98007 12 C3.98007 11.2497 3.56586 10.5959 2.95308 10.2537 C2.40133 9.94554 2.12545 9.79147 2.05634 9.66802 C1.98724 9.54458 1.99502 9.35954 2.01058 8.98947 C2.08903 7.12339 2.34091 5.97823 3.14958 5.17157 C4.32407 4 6.21439 4 9.99502 4 L13.5052 4 C13.7814 4 14.0056 4.22298 14.0064 4.49855 L14.0137 7 C14.0137 7.55228 14.4625 8 15.0162 8 C15.5698 8 16.0187 7.55228 16.0187 7 L16.0187 4.51618 C16.0187 4.23718 16.2482 4.01169 16.5278 4.0189 C18.6952 4.0748 19.9727 4.29604 20.8504 5.17157 C21.6591 5.97823 21.911 7.12339 21.9894 8.98947 C22.005 9.35954 22.0128 9.54458 21.9437 9.66803 C21.8745 9.79147 21.5987 9.94554 21.0469 10.2537 C20.4341 10.5959 20.0199 11.2497 20.0199 12 C20.0199 12.7503 20.4341 13.4041 21.0469 13.7463 C21.5987 14.0545 21.8745 14.2085 21.9437 14.332 C22.0128 14.4554 22.005 14.6405 21.9894 15.0105 C21.911 16.8766 21.6591 18.0218 20.8504 18.8284 C20.0437 19.6332 18.8991 19.8852 17.0362 19.964 C16.5637 19.984 16.3275 19.9941 16.1731 19.8464 C16.0187 19.6988 16.0187 19.458 16.0187 18.9765 L16.0187 17 C16.0187 16.4477 15.5698 16 15.0162 16 C14.4625 16 14.0137 16.4477 14.0137 17 L14.0079 19.0029 Z M 16.0187 13 V 11 C 16.0187 10.4477 15.5698 10 15.0162 10 C 14.4625 10 14.0137 10.4477 14.0137 11 V 13 C 14.0137 13.5523 14.4625 14 15.0162 14 C 15.5698 14 16.0187 13.5523 16.0187 13 Z" fill="#FFFFFF" />
</svg>