<svg xmlns="http://www.w3.org/2000/svg" width="24" height="24" viewBox="0 0 24 24" fill="none">
  <path fill-rule="nonzero" clip-rule="nonzero" d="M 9.99502 4 H 14.005 C 17.7856 4 19.6759 4 20.8504 5.17157 C 21.6591 5.97823 21.911 7.12339 21.9894 8.98947 C 22.005 9.35954 22.0128 9.54458 21.9437 9.66803 C 21.8745 9.79147 21.5987 9.94554 21.0469 10.2537 C 20.4341 10.5959 20.0199 11.2497 20.0199 12 C 20.0199 12.7503 20.4341 13.4041 21.0469 13.7463 C 21.5987 14.0545 21.8745 14.2085 21.9437 14.332 C 22.0128 14.4554 22.005 14.6405 21.9894 15.0105 C 21.911 16.8766 21.6591 18.0218 20.8504 18.8284 C 19.6759 20 17.7856 20 14.005 20 H 9.99502 C 6.21438 20 4.32407 20 3.14958 18.8284 C 2.34091 18.0218 2.08903 16.8766 2.01058 15.0105 C 1.99502 14.6405 1.98724 14.4554 2.05634 14.332 C 2.12545 14.2085 2.40133 14.0545 2.95308 13.7463 C 3.56586 13.4041 3.98007 12.7503 3.98007 12 C 3.98007 11.2497 3.56586 10.5959 2.95308 10.2537 C 2.40133 9.94554 2.12545 9.79147 2.05634 9.66802 C 1.98724 9.54458 1.99502 9.35954 2.01058 8.98947 C 2.08903 7.12339 2.34091 5.97823 3.14958 5.17157 C 4.32407 4 6.21439 4 9.99502 4 Z M15.5478 8.46967 C15.2542 8.17678 14.7782 8.17678 14.4845 8.46967 L8.46959 14.4697 C8.17596 14.7626 8.17596 15.2374 8.46959 15.5303 C8.76321 15.8232 9.23927 15.8232 9.53289 15.5303 L15.5478 9.53033 C15.8415 9.23744 15.8415 8.76256 15.5478 8.46967 Z M 14.5149 15.5 C 15.0686 15.5 15.5174 15.0523 15.5174 14.5 C 15.5174 13.9477 15.0686 13.5 14.5149 13.5 C 13.9613 13.5 13.5124 13.9477 13.5124 14.5 C 13.5124 15.0523 13.9613 15.5 14.5149 15.5 Z M 9.50248 10.5 C 10.0561 10.5 10.505 10.0523 10.505 9.5 C 10.505 8.94772 10.0561 8.5 9.50248 8.5 C 8.94882 8.5 8.49999 8.94772 8.49999 9.5 C 8.49999 10.0523 8.94882 10.5 9.50248 10.5 Z" fill="#FFFFFF" />
</svg>