<svg xmlns="http://www.w3.org/2000/svg" width="24" height="24" viewBox="0 0 24 24" fill="none">
  <path fill-rule="nonzero" clip-rule="nonzero" d="M 9.93866 3.25 H 14.0612 C 15.9038 3.24998 17.3628 3.24997 18.5046 3.4031 C 19.6794 3.56066 20.6301 3.89255 21.38 4.64058 C 22.4096 5.66758 22.6598 7.08185 22.7387 8.95797 L 22.7397 8.98214 C 22.7466 9.14598 22.7537 9.31328 22.7475 9.45419 C 22.7409 9.60408 22.7177 9.82054 22.598 10.0344 C 22.5152 10.1823 22.4043 10.2846 22.3304 10.3458 C 22.2502 10.4122 22.1612 10.4724 22.0764 10.5259 C 21.9126 10.6292 21.6912 10.7529 21.4316 10.8978 L 21.4125 10.9085 C 21.0268 11.1239 20.7699 11.533 20.7699 12 C 20.7699 12.467 21.0268 12.8761 21.4125 13.0915 L 21.4317 13.1022 C 21.6912 13.2472 21.9127 13.3708 22.0764 13.4741 C 22.1612 13.5276 22.2502 13.5878 22.3304 13.6542 C 22.4043 13.7154 22.5152 13.8177 22.598 13.9656 C 22.7177 14.1795 22.7409 14.3959 22.7475 14.5458 C 22.7537 14.6867 22.7466 14.854 22.7397 15.0179 L 22.7387 15.042 C 22.6598 16.9182 22.4096 18.3324 21.38 19.3594 C 20.6301 20.1074 19.6794 20.4393 18.5046 20.5969 C 17.3628 20.75 15.9038 20.75 14.0612 20.75 H 9.93866 C 8.09611 20.75 6.63706 20.75 5.49525 20.5969 C 4.32045 20.4393 3.36975 20.1074 2.61986 19.3594 C 1.59031 18.3324 1.34006 16.9182 1.26119 15.042 L 1.26017 15.0179 C 1.25325 14.854 1.24619 14.6867 1.25238 14.5458 C 1.25898 14.3959 1.28216 14.1795 1.40185 13.9656 C 1.48468 13.8177 1.59561 13.7154 1.66951 13.6542 C 1.74966 13.5878 1.83867 13.5276 1.92352 13.4741 C 2.08725 13.3708 2.30869 13.2471 2.56827 13.1022 L 2.58735 13.0915 C 2.97306 12.8761 3.23002 12.467 3.23002 12 C 3.23002 11.533 2.97306 11.1239 2.58735 10.9085 L 2.56825 10.8978 C 2.30868 10.7529 2.08725 10.6292 1.92352 10.5259 C 1.83866 10.4724 1.74966 10.4122 1.66951 10.3458 C 1.5956 10.2846 1.48468 10.1823 1.40185 10.0344 C 1.28216 9.82054 1.25898 9.60408 1.25238 9.45419 C 1.24619 9.31328 1.25325 9.14599 1.26017 8.98215 C 1.26051 8.97408 1.26085 8.96602 1.26119 8.95797 C 1.34006 7.08185 1.59031 5.66758 2.61986 4.64058 C 3.36975 3.89255 4.32046 3.56066 5.49525 3.4031 C 6.63706 3.24997 8.09611 3.24998 9.93866 3.25 Z M21.2468 14.5842 L21.2473 14.5875 C21.247 14.5852 21.2468 14.5842 21.2468 14.5842 Z M21.2492 14.726 C21.1246 14.649 20.9455 14.5488 20.6812 14.4012 C19.8413 13.9322 19.2699 13.0336 19.2699 12 C19.2699 10.9664 19.8413 10.0678 20.6812 9.59884 C20.9455 9.45123 21.1246 9.35098 21.2492 9.274 C21.2491 9.26746 21.2489 9.26065 21.2488 9.25357 C21.2471 9.18961 21.244 9.11528 21.24 9.02098 C21.162 7.16494 20.9085 6.28889 20.3207 5.70256 C19.8961 5.27902 19.3144 5.02513 18.3053 4.88979 C17.2747 4.75159 15.9164 4.75 14.0049 4.75 L9.99496 4.75 C8.0835 4.75 6.72516 4.75159 5.69463 4.88979 C4.68549 5.02513 4.10379 5.27902 3.6792 5.70256 C3.09141 6.28889 2.83789 7.16494 2.75986 9.02097 C2.7559 9.11528 2.75279 9.18961 2.75115 9.25358 C2.75096 9.26065 2.7508 9.26746 2.75066 9.27401 C2.87533 9.35098 3.05437 9.45123 3.3187 9.59884 C4.15855 10.0678 4.73002 10.9664 4.73002 12 C4.73002 13.0336 4.15855 13.9322 3.3187 14.4012 C3.05437 14.5488 2.87533 14.649 2.75067 14.726 C2.75081 14.7325 2.75096 14.7394 2.75115 14.7464 C2.75279 14.8104 2.7559 14.8847 2.75986 14.979 C2.83789 16.8351 3.09141 17.7111 3.6792 18.2974 C4.10379 18.721 4.68549 18.9749 5.69463 19.1102 C6.72516 19.2484 8.0835 19.25 9.99496 19.25 L14.0049 19.25 C15.9164 19.25 17.2747 19.2484 18.3053 19.1102 C19.3144 18.9749 19.8961 18.721 20.3207 18.2974 C20.9085 17.7111 21.162 16.8351 21.24 14.979 C21.244 14.8847 21.2471 14.8104 21.2488 14.7464 C21.2489 14.7394 21.2491 14.7325 21.2492 14.726 Z M21.3735 9.19072 C21.3774 9.18748 21.3766 9.18779 21.3723 9.19165 L21.3735 9.19072 Z M21.2468 9.41578 L21.2473 9.41248 C21.2469 9.41461 21.2468 9.41578 21.2468 9.41578 Z M2.62643 9.19072 L2.62756 9.19165 C2.62334 9.18779 2.62252 9.18748 2.62643 9.19072 Z M2.75263 9.41247 L2.75309 9.41578 C2.75309 9.41578 2.75299 9.4146 2.75263 9.41247 Z M2.75309 14.5842 L2.75263 14.5875 C2.75299 14.5854 2.75309 14.5842 2.75309 14.5842 Z M2.62757 14.8084 L2.62643 14.8093 C2.62252 14.8125 2.62334 14.8122 2.62757 14.8084 Z M21.3723 14.8084 C21.3766 14.8122 21.3774 14.8125 21.3735 14.8093 L21.3723 14.8084 Z M 15.5303 8.46967 C 15.8232 8.76256 15.8232 9.23744 15.5303 9.53033 L 9.53028 15.5303 C 9.23738 15.8232 8.76251 15.8232 8.46962 15.5303 C 8.17672 15.2374 8.17672 14.7626 8.46962 14.4697 L 14.4696 8.46967 C 14.7625 8.17678 15.2374 8.17678 15.5303 8.46967 Z" fill="#FFFFFF" />
  <path d="M15.4999 14.5C15.4999 15.0523 15.0522 15.5 14.4999 15.5C13.9477 15.5 13.4999 15.0523 13.4999 14.5C13.4999 13.9477 13.9477 13.5 14.4999 13.5C15.0522 13.5 15.4999 13.9477 15.4999 14.5Z" fill="#FFFFFF" />
  <path d="M10.4999 9.5C10.4999 10.0523 10.0522 10.5 9.49995 10.5C8.94766 10.5 8.49995 10.0523 8.49995 9.5C8.49995 8.94772 8.94766 8.5 9.49995 8.5C10.0522 8.5 10.4999 8.94772 10.4999 9.5Z" fill="#FFFFFF" />
</svg>