<svg xmlns="http://www.w3.org/2000/svg" width="24" height="24" viewBox="0 0 24 24" fill="none">
  <path fill-rule="nonzero" clip-rule="nonzero" d="M 10.5936 2.31883 C 11.483 1.89372 12.517 1.89372 13.4064 2.31883 C 13.7928 2.50351 14.1468 2.80551 14.6371 3.22367 C 14.6625 3.24538 14.6883 3.2674 14.7146 3.28973 C 14.9526 3.49262 15.0276 3.555 15.1035 3.60585 C 15.2965 3.73519 15.5132 3.82495 15.7411 3.86995 C 15.8307 3.88764 15.9278 3.89654 16.2396 3.92143 C 16.2739 3.92417 16.3078 3.92685 16.3411 3.92949 C 16.9834 3.98046 17.4473 4.01727 17.8511 4.15991 C 18.7807 4.48822 19.5118 5.21935 19.8401 6.14885 C 19.9827 6.55267 20.0195 7.01656 20.0705 7.6589 C 20.0732 7.69224 20.0758 7.72607 20.0786 7.76039 C 20.1035 8.0722 20.1124 8.16933 20.1301 8.25894 C 20.175 8.48684 20.2648 8.70355 20.3941 8.89652 C 20.445 8.97239 20.5074 9.04737 20.7103 9.28545 C 20.7326 9.31166 20.7546 9.33748 20.7763 9.36293 C 21.1945 9.85316 21.4965 10.2072 21.6812 10.5936 C 22.1063 11.483 22.1063 12.517 21.6812 13.4064 C 21.4965 13.7928 21.1945 14.1468 20.7764 14.6371 C 20.7546 14.6625 20.7326 14.6883 20.7103 14.7146 C 20.5074 14.9526 20.445 15.0276 20.3941 15.1035 C 20.2648 15.2965 20.175 15.5132 20.1301 15.7411 C 20.1124 15.8307 20.1035 15.9278 20.0786 16.2396 C 20.0758 16.2739 20.0732 16.3078 20.0705 16.3411 C 20.0195 16.9834 19.9827 17.4473 19.8401 17.8511 C 19.5118 18.7807 18.7807 19.5118 17.8511 19.8401 C 17.4473 19.9827 16.9834 20.0195 16.3411 20.0705 C 16.3078 20.0732 16.2739 20.0758 16.2396 20.0786 C 15.9278 20.1035 15.8307 20.1124 15.7411 20.1301 C 15.5132 20.175 15.2965 20.2648 15.1035 20.3941 C 15.0276 20.445 14.9526 20.5074 14.7146 20.7103 C 14.6883 20.7326 14.6625 20.7546 14.6371 20.7763 C 14.1468 21.1945 13.7928 21.4965 13.4064 21.6812 C 12.517 22.1063 11.483 22.1063 10.5936 21.6812 C 10.2072 21.4965 9.85315 21.1945 9.3629 20.7763 C 9.33746 20.7546 9.31165 20.7326 9.28545 20.7103 C 9.04736 20.5074 8.97239 20.445 8.89652 20.3941 C 8.70355 20.2648 8.48684 20.175 8.25894 20.1301 C 8.16933 20.1124 8.0722 20.1035 7.76039 20.0786 C 7.72607 20.0758 7.69225 20.0732 7.6589 20.0705 C 7.01656 20.0195 6.55267 19.9827 6.14885 19.8401 C 5.21935 19.5118 4.48822 18.7807 4.15991 17.8511 C 4.01727 17.4473 3.98046 16.9834 3.92949 16.3411 C 3.92685 16.3078 3.92417 16.2739 3.92143 16.2396 C 3.89654 15.9278 3.88764 15.8307 3.86995 15.7411 C 3.82495 15.5132 3.73519 15.2965 3.60585 15.1035 C 3.555 15.0276 3.49262 14.9526 3.28973 14.7146 C 3.2674 14.6884 3.24538 14.6625 3.22368 14.6371 C 2.80551 14.1468 2.50351 13.7928 2.31883 13.4064 C 1.89372 12.517 1.89372 11.483 2.31883 10.5936 C 2.50351 10.2072 2.80551 9.85315 3.22367 9.36291 C 3.24537 9.33747 3.26739 9.31165 3.28973 9.28545 C 3.49262 9.04736 3.555 8.97239 3.60585 8.89652 C 3.73519 8.70355 3.82495 8.48684 3.86995 8.25894 C 3.88764 8.16933 3.89654 8.0722 3.92143 7.76039 C 3.92417 7.72607 3.92685 7.69225 3.92949 7.6589 C 3.98046 7.01657 4.01727 6.55267 4.15991 6.14885 C 4.48822 5.21935 5.21935 4.48822 6.14885 4.15991 C 6.55267 4.01727 7.01657 3.98046 7.65891 3.92949 C 7.69225 3.92685 7.72607 3.92417 7.76039 3.92143 C 8.0722 3.89654 8.16933 3.88764 8.25894 3.86995 C 8.48684 3.82495 8.70355 3.73519 8.89652 3.60585 C 8.97239 3.555 9.04736 3.49262 9.28545 3.28973 C 9.31165 3.26739 9.33746 3.24538 9.36291 3.22367 C 9.85315 2.80551 10.2072 2.50351 10.5936 2.31883 Z M 12.7573 3.6769 C 12.2784 3.44799 11.7216 3.44799 11.2427 3.6769 C 11.0576 3.76539 10.8624 3.92352 10.2618 4.43537 C 10.2519 4.44378 10.2422 4.45207 10.2326 4.46026 C 10.0354 4.6283 9.89156 4.75097 9.73456 4.8562 C 9.37619 5.09639 8.97373 5.2631 8.55048 5.34666 C 8.36505 5.38327 8.17657 5.39827 7.91837 5.41883 C 7.90579 5.41983 7.89304 5.42084 7.88012 5.42187 C 7.09348 5.48465 6.84367 5.51084 6.65016 5.57919 C 6.14966 5.75597 5.75597 6.14966 5.57919 6.65016 C 5.51084 6.84367 5.48465 7.09348 5.42187 7.88012 C 5.42084 7.89304 5.41983 7.90579 5.41883 7.91837 C 5.39827 8.17657 5.38327 8.36505 5.34666 8.55048 C 5.2631 8.97373 5.09639 9.37619 4.8562 9.73456 C 4.75097 9.89156 4.6283 10.0354 4.46025 10.2326 C 4.45207 10.2422 4.44377 10.2519 4.43537 10.2618 C 3.92352 10.8624 3.76539 11.0576 3.6769 11.2427 C 3.44799 11.7216 3.44799 12.2784 3.6769 12.7573 C 3.76539 12.9424 3.92352 13.1376 4.43537 13.7382 C 4.44378 13.7481 4.45207 13.7578 4.46026 13.7674 C 4.6283 13.9646 4.75097 14.1084 4.8562 14.2654 C 5.09639 14.6238 5.2631 15.0263 5.34666 15.4495 C 5.38327 15.6349 5.39827 15.8234 5.41883 16.0816 C 5.41983 16.0942 5.42084 16.107 5.42187 16.1199 C 5.48465 16.9065 5.51084 17.1563 5.57919 17.3498 C 5.75597 17.8503 6.14966 18.244 6.65016 18.4208 C 6.84367 18.4892 7.09348 18.5154 7.88012 18.5781 L 7.91836 18.5812 C 8.17658 18.6017 8.36506 18.6167 8.55048 18.6533 C 8.97373 18.7369 9.37619 18.9036 9.73456 19.1438 C 9.89156 19.249 10.0354 19.3717 10.2326 19.5397 L 10.2618 19.5646 C 10.8624 20.0765 11.0576 20.2346 11.2427 20.3231 C 11.7216 20.552 12.2784 20.552 12.7573 20.3231 C 12.9424 20.2346 13.1376 20.0765 13.7382 19.5646 L 13.7675 19.5397 C 13.9646 19.3717 14.1084 19.249 14.2654 19.1438 C 14.6238 18.9036 15.0263 18.7369 15.4495 18.6533 C 15.6349 18.6167 15.8234 18.6017 16.0816 18.5812 L 16.1199 18.5781 C 16.9065 18.5154 17.1563 18.4892 17.3498 18.4208 C 17.8503 18.244 18.244 17.8503 18.4208 17.3498 C 18.4892 17.1563 18.5154 16.9065 18.5781 16.1199 L 18.5812 16.0816 C 18.6017 15.8234 18.6167 15.6349 18.6533 15.4495 C 18.7369 15.0263 18.9036 14.6238 19.1438 14.2654 C 19.249 14.1084 19.3717 13.9646 19.5397 13.7675 L 19.5646 13.7382 C 20.0765 13.1376 20.2346 12.9424 20.3231 12.7573 C 20.552 12.2784 20.552 11.7216 20.3231 11.2427 C 20.2346 11.0576 20.0765 10.8624 19.5646 10.2618 L 19.5397 10.2325 C 19.3717 10.0354 19.249 9.89155 19.1438 9.73456 C 18.9036 9.37619 18.7369 8.97373 18.6533 8.55048 C 18.6167 8.36505 18.6017 8.17658 18.5812 7.91836 L 18.5781 7.88012 C 18.5154 7.09348 18.4892 6.84367 18.4208 6.65016 C 18.244 6.14966 17.8503 5.75597 17.3498 5.57919 C 17.1563 5.51084 16.9065 5.48465 16.1199 5.42187 C 16.107 5.42084 16.0942 5.41983 16.0816 5.41883 C 15.8234 5.39827 15.6349 5.38327 15.4495 5.34666 C 15.0263 5.2631 14.6238 5.09639 14.2654 4.8562 C 14.1084 4.75097 13.9646 4.6283 13.7674 4.46025 C 13.7578 4.45207 13.7481 4.44377 13.7382 4.43537 C 13.1376 3.92352 12.9424 3.76539 12.7573 3.6769 Z M 16.0443 8.95913 C 16.3383 9.25304 16.3383 9.72957 16.0443 10.0235 L 11.027 15.0409 C 10.733 15.3348 10.2565 15.3348 9.96261 15.0409 L 7.95565 13.0339 C 7.66174 12.74 7.66174 12.2635 7.95565 11.9696 C 8.24957 11.6757 8.72609 11.6757 9.02 11.9696 L 10.4948 13.4443 L 14.98 8.95913 C 15.2739 8.66522 15.7504 8.66522 16.0443 8.95913 Z" fill="#FFFFFF" />
</svg>