<svg xmlns="http://www.w3.org/2000/svg" width="24" height="24" viewBox="0 0 24 24" fill="none">
  <path fill-rule="nonzero" clip-rule="nonzero" d="M21.1009 8.00353 C21.9408 8.05657 22.6835 8.71381 22.746 9.6318 C22.7501 9.69199 22.75 9.75688 22.75 9.81702 L22.75 9.83334 L22.75 13.6667 L22.75 13.683 C22.75 13.7431 22.7501 13.808 22.746 13.8682 C22.6835 14.7862 21.9408 15.4434 21.1009 15.4965 C21.0442 15.5001 20.9825 15.5 20.9186 15.5 L20.9026 15.5 L18.3941 15.5 C16.3264 15.5 14.5572 13.8724 14.5572 11.75 C14.5572 9.62757 16.3264 8.00001 18.3941 8.00001 L20.9026 8.00001 L20.9186 8 C20.9825 7.99998 21.0442 7.99996 21.1009 8.00353 Z M 18.1717 12.75 C 18.704 12.75 19.1355 12.3023 19.1355 11.75 C 19.1355 11.1977 18.704 10.75 18.1717 10.75 C 17.6394 10.75 17.2078 11.1977 17.2078 11.75 C 17.2078 12.3023 17.6394 12.75 18.1717 12.75 Z" fill="#FFFFFF" />
  <path fill-rule="nonzero" clip-rule="nonzero" d="M 20.9179 17 C 21.067 16.9961 21.1799 17.1342 21.1394 17.2778 C 20.9387 17.9902 20.62 18.5975 20.1088 19.1088 C 19.3604 19.8571 18.4114 20.1892 17.239 20.3469 C 16.0998 20.5 14.6442 20.5 12.8064 20.5 H 10.6936 C 8.85583 20.5 7.40019 20.5 6.26098 20.3469 C 5.08856 20.1892 4.13961 19.8571 3.39124 19.1088 C 2.64288 18.3604 2.31076 17.4114 2.15314 16.239 C 1.99997 15.0998 1.99998 13.6442 2 11.8064 V 11.6936 C 1.99998 9.85583 1.99997 8.40019 2.15314 7.26098 C 2.31076 6.08856 2.64288 5.13961 3.39124 4.39124 C 4.13961 3.64288 5.08856 3.31076 6.26098 3.15314 C 7.40019 2.99997 8.85582 2.99998 10.6936 3 L 12.8064 3 C 14.6442 2.99998 16.0998 2.99997 17.239 3.15314 C 18.4114 3.31076 19.3604 3.64288 20.1088 4.39124 C 20.62 4.90252 20.9386 5.50974 21.1394 6.22218 C 21.1799 6.36575 21.067 6.50387 20.9179 6.5 L 18.394 6.50001 C 15.5574 6.50001 13.0571 8.74091 13.0571 11.75 C 13.0571 14.7591 15.5574 17 18.394 17 L 20.9179 17 Z M 5.75 7 C 5.33579 7 5 7.33579 5 7.75 C 5 8.16421 5.33579 8.5 5.75 8.5 H 9.75 C 10.1642 8.5 10.5 8.16421 10.5 7.75 C 10.5 7.33579 10.1642 7 9.75 7 H 5.75 Z" fill="#FFFFFF" />
</svg>