<svg xmlns="http://www.w3.org/2000/svg" width="24" height="24" viewBox="0 0 24 24" fill="none">
  <path d="M19 12C19 12.5523 18.5523 13 18 13C17.4477 13 17 12.5523 17 12C17 11.4477 17.4477 11 18 11C18.5523 11 19 11.4477 19 12Z" fill="#FFFFFF" />
  <path fill-rule="nonzero" clip-rule="nonzero" d="M 9.94358 3.25 H 13.0564 C 14.8942 3.24998 16.3498 3.24997 17.489 3.40314 C 18.6614 3.56076 19.6104 3.89288 20.3588 4.64124 C 21.2831 5.56563 21.5777 6.80363 21.6847 8.41008 C 22.2619 8.6641 22.6978 9.2013 22.7458 9.88179 C 22.7501 9.94199 22.75 10.0069 22.75 10.067 C 22.75 10.0725 22.75 10.0779 22.75 10.0833 V 13.9167 C 22.75 13.9221 22.75 13.9275 22.75 13.933 C 22.75 13.9931 22.7501 14.058 22.7458 14.1182 C 22.6978 14.7987 22.2619 15.3359 21.6847 15.5899 C 21.5777 17.1964 21.2831 18.4344 20.3588 19.3588 C 19.6104 20.1071 18.6614 20.4392 17.489 20.5969 C 16.3498 20.75 14.8942 20.75 13.0564 20.75 H 9.94359 C 8.10583 20.75 6.65019 20.75 5.51098 20.5969 C 4.33856 20.4392 3.38961 20.1071 2.64124 19.3588 C 1.89288 18.6104 1.56076 17.6614 1.40314 16.489 C 1.24997 15.3498 1.24998 13.8942 1.25 12.0564 V 11.9436 C 1.24998 10.1058 1.24997 8.65019 1.40314 7.51098 C 1.56076 6.33856 1.89288 5.38961 2.64124 4.64124 C 3.38961 3.89288 4.33856 3.56076 5.51098 3.40314 C 6.65019 3.24997 8.10582 3.24998 9.94358 3.25 Z M 20.1679 15.75 H 18.2308 C 16.0856 15.75 14.25 14.1224 14.25 12 C 14.25 9.87756 16.0856 8.25 18.2308 8.25 H 20.1679 C 20.0541 6.90855 19.7966 6.20043 19.2981 5.7019 C 18.8749 5.27869 18.2952 5.02502 17.2892 4.88976 C 16.2615 4.75159 14.9068 4.75 13 4.75 H 10 C 8.09318 4.75 6.73851 4.75159 5.71085 4.88976 C 4.70476 5.02502 4.12511 5.27869 3.7019 5.7019 C 3.27869 6.12511 3.02502 6.70476 2.88976 7.71085 C 2.75159 8.73851 2.75 10.0932 2.75 12 C 2.75 13.9068 2.75159 15.2615 2.88976 16.2892 C 3.02502 17.2952 3.27869 17.8749 3.7019 18.2981 C 4.12511 18.7213 4.70476 18.975 5.71085 19.1102 C 6.73851 19.2484 8.09318 19.25 10 19.25 H 13 C 14.9068 19.25 16.2615 19.2484 17.2892 19.1102 C 18.2952 18.975 18.8749 18.7213 19.2981 18.2981 C 19.7966 17.7996 20.0541 17.0915 20.1679 15.75 Z M 20.9235 9.75023 C 20.9032 9.75001 20.8766 9.75 20.8333 9.75 H 18.2308 C 16.8074 9.75 15.75 10.8087 15.75 12 C 15.75 13.1913 16.8074 14.25 18.2308 14.25 H 20.8333 C 20.8766 14.25 20.9032 14.25 20.9235 14.2498 C 20.936 14.2496 20.9426 14.2495 20.9457 14.2493 L 20.9479 14.2492 C 21.1541 14.2367 21.2427 14.0976 21.2495 14.0139 C 21.2495 14.0139 21.2497 14.0076 21.2498 13.9986 C 21.25 13.9808 21.25 13.9572 21.25 13.9167 V 10.0833 C 21.25 10.0428 21.25 10.0192 21.2498 10.0014 C 21.2497 9.99238 21.2495 9.98609 21.2495 9.98609 C 21.2427 9.90242 21.1541 9.7633 20.9479 9.75076 C 20.9479 9.75076 20.943 9.75043 20.9235 9.75023 Z M 7 8.25 C 7.41421 8.25 7.75 8.58579 7.75 9 V 15 C 7.75 15.4142 7.41421 15.75 7 15.75 C 6.58579 15.75 6.25 15.4142 6.25 15 V 9 C 6.25 8.58579 6.58579 8.25 7 8.25 Z" fill="#FFFFFF" />
</svg>