<svg xmlns="http://www.w3.org/2000/svg" width="24" height="24" viewBox="0 0 24 24" fill="none">
  <path d="M12 16.75C12.4142 16.75 12.75 16.4142 12.75 16C12.75 15.5858 12.4142 15.25 12 15.25H10C9.58579 15.25 9.25 15.5858 9.25 16C9.25 16.4142 9.58579 16.75 10 16.75H12Z" fill="#FFFFFF" />
  <path d="M14 12.5C14 13.3284 13.5523 14 13 14C12.4477 14 12 13.3284 12 12.5C12 11.6716 12.4477 11 13 11C13.5523 11 14 11.6716 14 12.5Z" fill="#FFFFFF" />
  <path d="M9 14C9.55229 14 10 13.3284 10 12.5C10 11.6716 9.55229 11 9 11C8.44772 11 8 11.6716 8 12.5C8 13.3284 8.44772 14 9 14Z" fill="#FFFFFF" />
  <path fill-rule="nonzero" clip-rule="nonzero" d="M19.7166 2.07799 L20.3404 3.6596 L21.922 4.28338 C23.026 4.71879 23.026 6.28121 21.922 6.71662 L20.3404 7.3404 L19.7166 8.92201 C19.2812 10.026 17.7188 10.026 17.2834 8.92201 L16.9596 8.10106 L15.84 9.22071 C17.0325 10.6513 17.75 12.4919 17.75 14.5 C17.75 19.0563 14.0563 22.75 9.5 22.75 C4.94365 22.75 1.25 19.0563 1.25 14.5 C1.25 9.94365 4.94365 6.25 9.5 6.25 C11.5081 6.25 13.3487 6.96747 14.7793 8.16005 L15.8989 7.0404 L15.078 6.71662 C13.974 6.28121 13.974 4.71879 15.078 4.28338 L16.6596 3.6596 L17.2834 2.07799 C17.7188 0.974002 19.2812 0.974002 19.7166 2.07799 Z M18.0244 4.28758 C17.8914 4.62464 17.6246 4.89144 17.2876 5.02438 L16.0816 5.5 L17.2876 5.97562 C17.6246 6.10856 17.8914 6.37536 18.0244 6.71242 L18.5 7.91838 L18.9756 6.71242 C19.1086 6.37536 19.3754 6.10856 19.7124 5.97562 L20.9184 5.5 L19.7124 5.02438 C19.3754 4.89144 19.1086 4.62464 18.9756 4.28758 L18.5 3.08162 L18.0244 4.28758 Z M2.75 14.5 C2.75 18.2279 5.77208 21.25 9.5 21.25 C13.2279 21.25 16.25 18.2279 16.25 14.5 C16.25 10.7721 13.2279 7.75 9.5 7.75 C5.77208 7.75 2.75 10.7721 2.75 14.5 Z" fill="#FFFFFF" />
</svg>