<svg xmlns="http://www.w3.org/2000/svg" width="24" height="24" viewBox="0 0 24 24" fill="none">
  <path fill-rule="nonzero" clip-rule="nonzero" d="M19.7166 2.07799 L20.3404 3.6596 L21.922 4.28338 C23.026 4.71879 23.026 6.28121 21.922 6.71662 L20.3404 7.3404 L19.7166 8.92201 C19.2812 10.026 17.7188 10.026 17.2834 8.92201 L16.9596 8.10106 L15.84 9.22071 C17.0325 10.6513 17.75 12.4919 17.75 14.5 C17.75 19.0563 14.0563 22.75 9.5 22.75 C4.94365 22.75 1.25 19.0563 1.25 14.5 C1.25 9.94365 4.94365 6.25 9.5 6.25 C11.5081 6.25 13.3487 6.96747 14.7793 8.16005 L15.8989 7.0404 L15.078 6.71662 C13.974 6.28121 13.974 4.71879 15.078 4.28338 L16.6596 3.6596 L17.2834 2.07799 C17.7188 0.974002 19.2812 0.974002 19.7166 2.07799 Z M18.0244 4.28758 C17.8914 4.62464 17.6246 4.89144 17.2876 5.02438 L16.0816 5.5 L17.2876 5.97562 C17.6246 6.10856 17.8914 6.37536 18.0244 6.71242 L18.5 7.91838 L18.9756 6.71242 C19.1086 6.37536 19.3754 6.10856 19.7124 5.97562 L20.9184 5.5 L19.7124 5.02438 C19.3754 4.89144 19.1086 4.62464 18.9756 4.28758 L18.5 3.08162 L18.0244 4.28758 Z M 9.5 7.75 C 5.77208 7.75 2.75 10.7721 2.75 14.5 C 2.75 18.2279 5.77208 21.25 9.5 21.25 C 13.2279 21.25 16.25 18.2279 16.25 14.5 C 16.25 10.7721 13.2279 7.75 9.5 7.75 Z" fill="#FFFFFF" />
</svg>