<svg xmlns="http://www.w3.org/2000/svg" width="24" height="24" viewBox="0 0 24 24" fill="none">
  <path fill-rule="nonzero" clip-rule="nonzero" d="M 9.94358 1.25 L 10 1.25 C 10.4142 1.25 10.75 1.58579 10.75 2 C 10.75 2.41421 10.4142 2.75 10 2.75 C 8.09318 2.75 6.73851 2.75159 5.71085 2.88976 C 4.70476 3.02502 4.12511 3.27869 3.7019 3.7019 C 3.27869 4.12511 3.02502 4.70476 2.88976 5.71085 C 2.75159 6.73851 2.75 8.09318 2.75 10 C 2.75 10.4142 2.41421 10.75 2 10.75 C 1.58579 10.75 1.25 10.4142 1.25 10 L 1.25 9.94358 C 1.24998 8.10582 1.24997 6.65019 1.40314 5.51098 C 1.56076 4.33856 1.89288 3.38961 2.64124 2.64124 C 3.38961 1.89288 4.33856 1.56076 5.51098 1.40314 C 6.65019 1.24997 8.10582 1.24998 9.94358 1.25 Z M 18.2892 2.88976 C 17.2615 2.75159 15.9068 2.75 14 2.75 C 13.5858 2.75 13.25 2.41421 13.25 2 C 13.25 1.58579 13.5858 1.25 14 1.25 L 14.0564 1.25 C 15.8942 1.24998 17.3498 1.24997 18.489 1.40314 C 19.6614 1.56076 20.6104 1.89288 21.3588 2.64124 C 22.1071 3.38961 22.4392 4.33856 22.5969 5.51098 C 22.75 6.65019 22.75 8.10583 22.75 9.94359 V 10 C 22.75 10.4142 22.4142 10.75 22 10.75 C 21.5858 10.75 21.25 10.4142 21.25 10 C 21.25 8.09318 21.2484 6.73851 21.1102 5.71085 C 20.975 4.70476 20.7213 4.12511 20.2981 3.7019 C 19.8749 3.27869 19.2952 3.02502 18.2892 2.88976 Z M 9.49734 6.27992 C 9.28661 6.25159 8.99261 6.25 8.5 6.25 C 7.77169 6.25 7.30091 6.25159 6.95403 6.29823 C 6.62872 6.34197 6.52676 6.41258 6.46967 6.46967 C 6.41258 6.52676 6.34197 6.62872 6.29823 6.95403 C 6.25159 7.30091 6.25 7.77169 6.25 8.5 C 6.25 8.99261 6.25159 9.28661 6.27992 9.49734 C 6.29291 9.59389 6.3082 9.64226 6.31716 9.66404 C 6.31923 9.66908 6.32085 9.6724 6.32186 9.67433 L 6.32324 9.67676 L 6.32567 9.67814 C 6.3276 9.67915 6.33092 9.68077 6.33597 9.68284 C 6.35775 9.6918 6.40611 9.70709 6.50266 9.72008 C 6.71339 9.74841 7.00739 9.75 7.5 9.75 H 8.5 C 8.99261 9.75 9.28661 9.74841 9.49734 9.72008 C 9.59389 9.70709 9.64226 9.6918 9.66404 9.68284 C 9.66908 9.68077 9.6724 9.67915 9.67433 9.67814 L 9.67676 9.67676 L 9.67814 9.67433 C 9.67915 9.6724 9.68077 9.66908 9.68284 9.66404 C 9.6918 9.64226 9.70709 9.59389 9.72008 9.49734 C 9.74841 9.28661 9.75 8.99261 9.75 8.5 V 7.5 C 9.75 7.00739 9.74841 6.71339 9.72008 6.50266 C 9.70709 6.40611 9.6918 6.35775 9.68284 6.33597 L 9.68108 6.33183 C 9.67984 6.32903 9.67814 6.32567 9.67814 6.32567 L 9.67676 6.32324 L 9.67433 6.32186 C 9.6724 6.32085 9.66908 6.31923 9.66404 6.31716 C 9.64226 6.3082 9.59389 6.29291 9.49734 6.27992 Z M 9.69721 4.7933 C 10.0527 4.84109 10.4284 4.95354 10.7374 5.26256 C 11.0465 5.57159 11.1589 5.94731 11.2067 6.30279 C 11.2501 6.62561 11.2501 7.02244 11.25 7.45526 C 11.25 7.47013 11.25 7.48504 11.25 7.5 V 8.5 C 11.25 8.51496 11.25 8.52987 11.25 8.54474 C 11.2501 8.97756 11.2501 9.3744 11.2067 9.69721 C 11.1589 10.0527 11.0465 10.4284 10.7374 10.7374 C 10.4284 11.0465 10.0527 11.1589 9.69721 11.2067 C 9.3744 11.2501 8.97756 11.2501 8.54474 11.25 C 8.52987 11.25 8.51496 11.25 8.5 11.25 H 7.5 C 7.48504 11.25 7.47013 11.25 7.45526 11.25 C 7.02244 11.2501 6.62561 11.2501 6.30279 11.2067 C 5.94731 11.1589 5.57159 11.0465 5.26256 10.7374 C 4.95354 10.4284 4.84109 10.0527 4.7933 9.69721 C 4.7499 9.3744 4.74995 8.97757 4.75 8.54475 C 4.75 8.52988 4.75 8.51496 4.75 8.5 L 4.75 8.45062 C 4.74996 7.78576 4.74993 7.2129 4.81161 6.75416 C 4.87771 6.26252 5.02676 5.79126 5.40901 5.40901 C 5.79126 5.02676 6.26252 4.87771 6.75416 4.81161 C 7.2129 4.74993 7.78576 4.74996 8.45062 4.75 L 8.5 4.75 C 8.51496 4.75 8.52988 4.75 8.54475 4.75 C 8.97757 4.74995 9.3744 4.7499 9.69721 4.7933 Z M 15.4553 4.75 L 15.5494 4.75 C 16.2142 4.74996 16.7871 4.74993 17.2458 4.81161 C 17.7375 4.87771 18.2087 5.02676 18.591 5.40901 C 18.9732 5.79126 19.1223 6.26252 19.1884 6.75416 C 19.2501 7.2129 19.25 7.78577 19.25 8.45063 L 19.25 8.54475 C 19.2501 8.97756 19.2501 9.3744 19.2067 9.69721 C 19.1589 10.0527 19.0465 10.4284 18.7374 10.7374 C 18.4284 11.0465 18.0527 11.1589 17.6972 11.2067 C 17.3744 11.2501 16.9776 11.2501 16.5447 11.25 H 15.4553 C 15.0224 11.2501 14.6256 11.2501 14.3028 11.2067 C 13.9473 11.1589 13.5716 11.0465 13.2626 10.7374 C 12.9535 10.4284 12.8411 10.0527 12.7933 9.69721 C 12.7499 9.3744 12.7499 8.97756 12.75 8.54474 V 7.45526 C 12.7499 7.02244 12.7499 6.62561 12.7933 6.30279 C 12.8411 5.94731 12.9535 5.57159 13.2626 5.26256 C 13.5716 4.95354 13.9473 4.84109 14.3028 4.7933 C 14.6256 4.7499 15.0224 4.74995 15.4553 4.75 Z M 14.3257 6.32186 L 14.3232 6.32324 L 14.3219 6.32567 C 14.3209 6.3276 14.3192 6.33092 14.3172 6.33597 C 14.3082 6.35775 14.2929 6.40611 14.2799 6.50266 C 14.2516 6.71339 14.25 7.00739 14.25 7.5 V 8.5 C 14.25 8.99261 14.2516 9.28661 14.2799 9.49734 C 14.2929 9.59389 14.3082 9.64226 14.3172 9.66404 C 14.3192 9.66908 14.3209 9.6724 14.3219 9.67433 L 14.3232 9.67676 L 14.3257 9.67814 C 14.3276 9.67915 14.3309 9.68077 14.336 9.68284 C 14.3577 9.6918 14.4061 9.70709 14.5027 9.72008 C 14.7134 9.74841 15.0074 9.75 15.5 9.75 H 16.5 C 16.9926 9.75 17.2866 9.74841 17.4973 9.72008 C 17.5939 9.70709 17.6423 9.6918 17.664 9.68284 C 17.6691 9.68077 17.6724 9.67915 17.6743 9.67814 L 17.6768 9.67676 L 17.6781 9.67433 C 17.6791 9.6724 17.6808 9.66908 17.6828 9.66404 C 17.6918 9.64226 17.7071 9.5939 17.7201 9.49734 C 17.7484 9.28661 17.75 8.99261 17.75 8.5 C 17.75 7.77169 17.7484 7.30091 17.7018 6.95403 C 17.658 6.62872 17.5874 6.52676 17.5303 6.46967 C 17.4732 6.41258 17.3713 6.34197 17.046 6.29823 C 16.6991 6.25159 16.2283 6.25 15.5 6.25 C 15.0074 6.25 14.7134 6.25159 14.5027 6.27992 C 14.4061 6.29291 14.3577 6.3082 14.336 6.31716 L 14.3313 6.31916 C 14.3288 6.32029 14.3257 6.32186 14.3257 6.32186 Z M 7.45526 12.75 H 8.54474 C 8.97756 12.7499 9.3744 12.7499 9.69721 12.7933 C 10.0527 12.8411 10.4284 12.9535 10.7374 13.2626 C 11.0465 13.5716 11.1589 13.9473 11.2067 14.3028 C 11.2501 14.6256 11.2501 15.0224 11.25 15.4553 V 16.5447 C 11.2501 16.9776 11.2501 17.3744 11.2067 17.6972 C 11.1589 18.0527 11.0465 18.4284 10.7374 18.7374 C 10.4284 19.0465 10.0527 19.1589 9.69721 19.2067 C 9.3744 19.2501 8.97756 19.2501 8.54475 19.25 L 8.45063 19.25 C 7.78577 19.25 7.2129 19.2501 6.75416 19.1884 C 6.26252 19.1223 5.79126 18.9732 5.40901 18.591 C 5.02676 18.2087 4.87771 17.7375 4.81161 17.2458 C 4.74993 16.7871 4.74996 16.2142 4.75 15.5494 L 4.75 15.4553 C 4.74995 15.0224 4.7499 14.6256 4.7933 14.3028 C 4.84109 13.9473 4.95354 13.5716 5.26256 13.2626 C 5.57159 12.9535 5.94731 12.8411 6.30279 12.7933 C 6.62561 12.7499 7.02244 12.7499 7.45526 12.75 Z M 6.32567 14.3219 L 6.32324 14.3232 L 6.32186 14.3257 C 6.32085 14.3276 6.31923 14.3309 6.31716 14.336 C 6.3082 14.3577 6.29291 14.4061 6.27992 14.5027 C 6.25159 14.7134 6.25 15.0074 6.25 15.5 C 6.25 16.2283 6.25159 16.6991 6.29823 17.046 C 6.34197 17.3713 6.41258 17.4732 6.46967 17.5303 C 6.52676 17.5874 6.62872 17.658 6.95403 17.7018 C 7.30091 17.7484 7.77169 17.75 8.5 17.75 C 8.99261 17.75 9.28661 17.7484 9.49734 17.7201 C 9.5939 17.7071 9.64226 17.6918 9.66404 17.6828 C 9.66908 17.6808 9.6724 17.6791 9.67433 17.6781 L 9.67676 17.6768 L 9.67814 17.6743 C 9.67915 17.6724 9.68077 17.6691 9.68284 17.664 C 9.6918 17.6423 9.70709 17.5939 9.72008 17.4973 C 9.74841 17.2866 9.75 16.9926 9.75 16.5 V 15.5 C 9.75 15.0074 9.74841 14.7134 9.72008 14.5027 C 9.70709 14.4061 9.6918 14.3577 9.68284 14.336 C 9.68077 14.3309 9.67915 14.3276 9.67814 14.3257 L 9.67676 14.3232 L 9.67433 14.3219 C 9.6724 14.3209 9.66908 14.3192 9.66404 14.3172 C 9.64226 14.3082 9.59389 14.2929 9.49734 14.2799 C 9.28661 14.2516 8.99261 14.25 8.5 14.25 H 7.5 C 7.00739 14.25 6.71339 14.2516 6.50266 14.2799 C 6.40611 14.2929 6.35775 14.3082 6.33597 14.3172 C 6.33092 14.3192 6.3276 14.3209 6.32567 14.3219 Z M 15.4553 12.75 H 16.5447 C 16.9776 12.7499 17.3744 12.7499 17.6972 12.7933 C 18.0527 12.8411 18.4284 12.9535 18.7374 13.2626 C 19.0465 13.5716 19.1589 13.9473 19.2067 14.3028 C 19.2501 14.6256 19.2501 15.0224 19.25 15.4553 L 19.25 15.5494 C 19.25 16.2142 19.2501 16.7871 19.1884 17.2458 C 19.1223 17.7375 18.9732 18.2087 18.591 18.591 C 18.2087 18.9732 17.7375 19.1223 17.2458 19.1884 C 16.7871 19.2501 16.2142 19.25 15.5494 19.25 L 15.4553 19.25 C 15.0224 19.2501 14.6256 19.2501 14.3028 19.2067 C 13.9473 19.1589 13.5716 19.0465 13.2626 18.7374 C 12.9535 18.4284 12.8411 18.0527 12.7933 17.6972 C 12.7499 17.3744 12.7499 16.9776 12.75 16.5447 V 15.4553 C 12.7499 15.0224 12.7499 14.6256 12.7933 14.3028 C 12.8411 13.9473 12.9535 13.5716 13.2626 13.2626 C 13.5716 12.9535 13.9473 12.8411 14.3028 12.7933 C 14.6256 12.7499 15.0224 12.7499 15.4553 12.75 Z M 14.3257 14.3219 L 14.3234 14.3231 L 14.3219 14.3257 L 14.3199 14.3297 C 14.3199 14.3297 14.3182 14.3335 14.3172 14.336 C 14.3082 14.3577 14.2929 14.4061 14.2799 14.5027 C 14.2516 14.7134 14.25 15.0074 14.25 15.5 V 16.5 C 14.25 16.9926 14.2516 17.2866 14.2799 17.4973 C 14.2929 17.5939 14.3082 17.6423 14.3172 17.664 C 14.3183 17.6667 14.3201 17.6707 14.3201 17.6707 L 14.3219 17.6743 L 14.3232 17.6768 L 14.3257 17.6781 C 14.3276 17.6791 14.3309 17.6808 14.336 17.6828 C 14.3577 17.6918 14.4061 17.7071 14.5027 17.7201 C 14.7134 17.7484 15.0074 17.75 15.5 17.75 C 16.2283 17.75 16.6991 17.7484 17.046 17.7018 C 17.3713 17.658 17.4732 17.5874 17.5303 17.5303 C 17.5874 17.4732 17.658 17.3713 17.7018 17.046 C 17.7484 16.6991 17.75 16.2283 17.75 15.5 C 17.75 15.0074 17.7484 14.7134 17.7201 14.5027 C 17.7071 14.4061 17.6918 14.3577 17.6828 14.336 C 17.6808 14.3309 17.6791 14.3276 17.6781 14.3257 L 17.6768 14.3232 L 17.6743 14.3219 C 17.6724 14.3209 17.6691 14.3192 17.664 14.3172 C 17.6423 14.3082 17.5939 14.2929 17.4973 14.2799 C 17.2866 14.2516 16.9926 14.25 16.5 14.25 H 15.5 C 15.0074 14.25 14.7134 14.2516 14.5027 14.2799 C 14.4061 14.2929 14.3577 14.3082 14.336 14.3172 C 14.3309 14.3192 14.3276 14.3209 14.3257 14.3219 Z M 2 13.25 C 2.41421 13.25 2.75 13.5858 2.75 14 C 2.75 15.9068 2.75159 17.2615 2.88976 18.2892 C 3.02502 19.2952 3.27869 19.8749 3.7019 20.2981 C 4.12511 20.7213 4.70476 20.975 5.71085 21.1102 C 6.73851 21.2484 8.09318 21.25 10 21.25 C 10.4142 21.25 10.75 21.5858 10.75 22 C 10.75 22.4142 10.4142 22.75 10 22.75 H 9.94359 C 8.10583 22.75 6.65019 22.75 5.51098 22.5969 C 4.33856 22.4392 3.38961 22.1071 2.64124 21.3588 C 1.89288 20.6104 1.56076 19.6614 1.40314 18.489 C 1.24997 17.3498 1.24998 15.8942 1.25 14.0564 L 1.25 14 C 1.25 13.5858 1.58579 13.25 2 13.25 Z M 22 13.25 C 22.4142 13.25 22.75 13.5858 22.75 14 V 14.0564 C 22.75 15.8942 22.75 17.3498 22.5969 18.489 C 22.4392 19.6614 22.1071 20.6104 21.3588 21.3588 C 20.6104 22.1071 19.6614 22.4392 18.489 22.5969 C 17.3498 22.75 15.8942 22.75 14.0564 22.75 H 14 C 13.5858 22.75 13.25 22.4142 13.25 22 C 13.25 21.5858 13.5858 21.25 14 21.25 C 15.9068 21.25 17.2615 21.2484 18.2892 21.1102 C 19.2952 20.975 19.8749 20.7213 20.2981 20.2981 C 20.7213 19.8749 20.975 19.2952 21.1102 18.2892 C 21.2484 17.2615 21.25 15.9068 21.25 14 C 21.25 13.5858 21.5858 13.25 22 13.25 Z" fill="#FFFFFF" />
</svg>