<svg xmlns="http://www.w3.org/2000/svg" width="24" height="24" viewBox="0 0 24 24" fill="none">
  <path d="M9.75 12C9.75 10.7574 10.7574 9.75 12 9.75C13.2426 9.75 14.25 10.7574 14.25 12C14.25 13.2426 13.2426 14.25 12 14.25C10.7574 14.25 9.75 13.2426 9.75 12Z" fill="#FFFFFF" />
  <path fill-rule="nonzero" clip-rule="nonzero" d="M2 12 C2 10.3606 2.42496 9.80853 3.27489 8.70433 C4.97196 6.49956 7.81811 4 12 4 C16.1819 4 19.028 6.49956 20.7251 8.70433 C21.575 9.80853 22 10.3606 22 12 C22 13.6394 21.575 14.1915 20.7251 15.2957 C19.028 17.5004 16.1819 20 12 20 C7.81811 20 4.97196 17.5004 3.27489 15.2957 C2.42496 14.1915 2 13.6394 2 12 Z M 12 8.25 C 9.92893 8.25 8.25 9.92893 8.25 12 C 8.25 14.0711 9.92893 15.75 12 15.75 C 14.0711 15.75 15.75 14.0711 15.75 12 C 15.75 9.92893 14.0711 8.25 12 8.25 Z" fill="#FFFFFF" />
</svg>