<svg xmlns="http://www.w3.org/2000/svg" width="24" height="24" viewBox="0 0 24 24" fill="none">
  <path fill-rule="nonzero" clip-rule="nonzero" d="M2.91858 6.60465 L2.9225 6.61352 C2.92651 6.62253 2.93339 6.63785 2.94319 6.65905 C2.96278 6.70147 2.99397 6.76735 3.03696 6.85334 C3.12302 7.02546 3.25594 7.27722 3.43737 7.58204 C3.80137 8.19355 4.35439 9.00801 5.10775 9.81932 C5.28532 10.0105 5.47324 10.2009 5.67173 10.3878 C5.68003 10.3954 5.68823 10.4031 5.69633 10.4109 C7.18102 11.8012 9.25227 12.9998 12 12.9998 L12 17.4998 C11.4477 17.4998 11 17.0521 11 16.4998 L11 14.9556 C10.2253 14.8864 9.50014 14.7386 8.82334 14.531 L7.83814 16.0452 C7.53693 16.5081 6.91748 16.6392 6.45457 16.338 C5.99165 16.0367 5.86056 15.4173 6.16177 14.9544 L6.94417 13.7519 C6.24405 13.3814 5.61245 12.9515 5.04746 12.4953 L4.20706 13.3357 C3.81654 13.7262 3.18337 13.7262 2.79285 13.3357 C2.40232 12.9452 2.40232 12.312 2.79285 11.9215 L3.59029 11.1241 C2.74529 10.2043 2.12772 9.29201 1.71879 8.605 C1.5096 8.25357 1.35345 7.95845 1.2481 7.74777 C1.19539 7.64235 1.15529 7.55783 1.12752 7.49772 C1.11363 7.46765 1.10282 7.44366 1.09505 7.42618 L1.08566 7.4049 L1.08267 7.39802 L1.0816 7.39553 L1.08117 7.39453 C0.863613 6.8869 1.0984 6.29818 1.60603 6.08063 C2.11327 5.86324 2.70062 6.09784 2.91858 6.60465 Z M 1.08117 7.39453 L 1.99995 6.99977 C 1.08081 7.39369 1.08117 7.39453 1.08117 7.39453 Z" fill="#FFFFFF" />
  <path opacity="0.5" d="M15.2209 12.3984C14.2784 12.7694 13.209 13.0002 12 13.0002V17.5002C12.5523 17.5002 13 17.0525 13 16.5002V14.9559C13.772 14.8867 14.4974 14.7392 15.1764 14.5311L16.1618 16.0456C16.463 16.5085 17.0825 16.6396 17.5454 16.3384C18.0083 16.0372 18.1394 15.4177 17.8382 14.9548L17.0558 13.7524C17.757 13.3816 18.3885 12.9517 18.9527 12.496L19.7929 13.3361C20.1834 13.7267 20.8166 13.7267 21.2071 13.3361C21.5976 12.9456 21.5976 12.3124 21.2071 11.9219L20.4097 11.1245C21.1521 10.3164 21.7181 9.51502 22.1207 8.86887C22.384 8.44627 22.5799 8.08609 22.7116 7.82793C22.7775 7.69874 22.8274 7.59476 22.8619 7.5209C22.8791 7.48397 22.8924 7.45453 22.902 7.4332L22.9134 7.40736L22.917 7.39913L22.9191 7.39411C23.1367 6.88648 22.9015 6.2986 22.3939 6.08105C21.8864 5.86355 21.2985 6.09892 21.0809 6.60627L21.0759 6.61747C21.0706 6.62926 21.0617 6.6489 21.0492 6.6758C21.0241 6.72962 20.9844 6.81235 20.9299 6.91928C20.8207 7.13337 20.6526 7.4431 20.4233 7.81119C19.9628 8.55023 19.2652 9.50857 18.3156 10.3999C17.4746 11.1893 16.4469 11.9158 15.2209 12.3984Z" fill="#FFFFFF" />
</svg>