<svg xmlns="http://www.w3.org/2000/svg" width="24" height="24" viewBox="0 0 24 24" fill="none">
  <path fill-rule="nonzero" clip-rule="nonzero" d="M 22.2954 6.31083 C 22.6761 6.474 22.8524 6.91491 22.6893 7.29563 L 21.9999 7.00019 C 22.6893 7.29563 22.6894 7.29546 22.6893 7.29563 L 22.6886 7.29731 L 22.6875 7.2998 L 22.6843 7.30716 L 22.6736 7.33123 C 22.6646 7.35137 22.6518 7.37958 22.6352 7.41527 C 22.6019 7.48662 22.5533 7.58794 22.4888 7.71435 C 22.3599 7.967 22.1675 8.32087 21.9084 8.73666 C 21.4828 9.4197 20.8724 10.2778 20.0619 11.1304 L 21.0303 12.0987 C 21.3231 12.3916 21.3231 12.8665 21.0303 13.1594 C 20.7374 13.4523 20.2625 13.4523 19.9696 13.1594 L 18.969 12.1588 C 18.3093 12.7115 17.5528 13.2302 16.695 13.6564 L 17.6286 15.0912 C 17.8545 15.4383 17.7562 15.9029 17.409 16.1288 C 17.0618 16.3547 16.5972 16.2564 16.3713 15.9092 L 15.2821 14.2353 C 14.5028 14.4898 13.659 14.6628 12.7499 14.7248 V 16.5002 C 12.7499 16.9144 12.4141 17.2502 11.9999 17.2502 C 11.5857 17.2502 11.2499 16.9144 11.2499 16.5002 V 14.7248 C 10.3689 14.6647 9.54909 14.5004 8.78982 14.2586 L 7.71575 15.9093 C 7.48984 16.2565 7.02526 16.3548 6.67807 16.1289 C 6.33089 15.903 6.23257 15.4384 6.45847 15.0912 L 7.37089 13.689 C 6.5065 13.2668 5.74381 12.7504 5.07842 12.1984 L 4.11744 13.1594 C 3.82455 13.4523 3.34968 13.4523 3.05678 13.1594 C 2.76389 12.8665 2.76389 12.3917 3.05678 12.0988 L 3.98055 11.175 C 3.15599 10.3153 2.53525 9.44675 2.10277 8.75486 C 1.83984 8.33423 1.6446 7.97584 1.51388 7.71988 C 1.44848 7.59182 1.3991 7.48914 1.36537 7.41683 C 1.3485 7.38067 1.33553 7.35207 1.32641 7.33167 L 1.31562 7.30729 L 1.31238 7.29984 L 1.31129 7.29733 L 1.31088 7.29638 C 1.31081 7.2962 1.31056 7.29563 1.99992 7.00019 L 1.31088 7.29638 C 1.14772 6.91565 1.32376 6.474 1.70448 6.31083 C 2.08489 6.1478 2.52539 6.32374 2.68888 6.70381 C 2.68882 6.70368 2.68894 6.70394 2.68888 6.70381 L 2.68983 6.706 L 2.69591 6.71972 C 2.7018 6.73291 2.7114 6.7541 2.72472 6.78267 C 2.75139 6.83983 2.79296 6.92644 2.84976 7.03767 C 2.96345 7.26029 3.13762 7.58046 3.37472 7.95979 C 3.85033 8.72067 4.57157 9.70728 5.55561 10.6218 C 6.42151 11.4265 7.48259 12.1678 8.75165 12.656 C 9.70614 13.0232 10.7854 13.2502 11.9999 13.2502 C 13.2416 13.2502 14.342 13.013 15.3124 12.631 C 16.5738 12.1345 17.6277 11.3884 18.4866 10.5822 C 19.4562 9.67216 20.1668 8.69535 20.6354 7.9434 C 20.869 7.5685 21.0405 7.25246 21.1525 7.03286 C 21.2085 6.92315 21.2494 6.83776 21.2757 6.78144 C 21.2888 6.75328 21.2983 6.73242 21.3041 6.71943 L 21.31 6.70595 L 21.3106 6.70475 C 21.3105 6.70485 21.3106 6.70466 21.3106 6.70475 M22.2954 6.31083 L21.3106 6.70475 C21.4738 6.32423 21.9147 6.14771 22.2954 6.31083 Z M 2.68888 6.70381 C 2.68882 6.70368 2.68894 6.70394 2.68888 6.70381 V 6.70381 Z" fill="#FFFFFF" />
</svg>