<svg xmlns="http://www.w3.org/2000/svg" width="24" height="24" viewBox="0 0 24 24" fill="none">
  <path fill-rule="nonzero" clip-rule="nonzero" d="M12 8.25 C14.0711 8.25 15.75 9.92893 15.75 12 C15.75 14.0711 14.0711 15.75 12 15.75 C9.92893 15.75 8.25 14.0711 8.25 12 C8.25 9.92893 9.92893 8.25 12 8.25 Z M9.75 12 C9.75 13.2426 10.7574 14.25 12 14.25 C13.2426 14.25 14.25 13.2426 14.25 12 C14.25 10.7574 13.2426 9.75 12 9.75 C10.7574 9.75 9.75 10.7574 9.75 12 Z" fill="#FFFFFF" />
  <path fill-rule="nonzero" clip-rule="nonzero" d="M12 3.25 C16.5141 3.25 19.5547 5.9542 21.3194 8.24686 L21.3512 8.28818 C21.7504 8.80652 22.1179 9.28391 22.3673 9.8484 C22.6344 10.4529 22.75 11.1117 22.75 12 C22.75 12.8883 22.6344 13.5471 22.3673 14.1516 C22.1179 14.7161 21.7504 15.1935 21.3512 15.7118 L21.3194 15.7531 C19.5547 18.0458 16.5141 20.75 12 20.75 C7.48587 20.75 4.44529 18.0458 2.68057 15.7531 L2.64875 15.7118 C2.24964 15.1935 1.88206 14.7161 1.63269 14.1516 C1.36564 13.5471 1.25 12.8883 1.25 12 C1.25 11.1117 1.36564 10.4529 1.63269 9.8484 C1.88206 9.28392 2.24964 8.80653 2.64874 8.2882 L2.68057 8.24686 C4.44529 5.9542 7.48587 3.25 12 3.25 Z M3.86922 9.1618 C3.43063 9.73159 3.17374 10.0721 3.00476 10.4545 C2.84684 10.812 2.75 11.2489 2.75 12 C2.75 12.7511 2.84684 13.188 3.00476 13.5455 C3.17374 13.9279 3.43064 14.2684 3.86922 14.8382 C5.49864 16.9551 8.15036 19.25 12 19.25 C15.8496 19.25 18.5014 16.9551 20.1308 14.8382 C20.5694 14.2684 20.8263 13.9279 20.9952 13.5455 C21.1532 13.188 21.25 12.7511 21.25 12 C21.25 11.2489 21.1532 10.812 20.9952 10.4545 C20.8263 10.0721 20.5694 9.73159 20.1308 9.1618 C18.5014 7.04492 15.8496 4.75 12 4.75 C8.15036 4.75 5.49864 7.04492 3.86922 9.1618 Z" fill="#FFFFFF" />
</svg>