<svg xmlns="http://www.w3.org/2000/svg" width="24" height="24" viewBox="0 0 24 24" fill="none">
  <path fill-rule="nonzero" clip-rule="nonzero" d="M 10.3879 3.25 H 13.6121 C 14.6973 3.24998 15.5784 3.24997 16.2872 3.33473 C 17.0262 3.4231 17.6608 3.6112 18.2155 4.04423 C 18.7701 4.47727 19.1065 5.04733 19.3715 5.74284 C 19.6256 6.40994 19.8393 7.26472 20.1025 8.31749 L 20.5856 10.25 H 22 C 22.4142 10.25 22.75 10.5858 22.75 11 C 22.75 11.4142 22.4142 11.75 22 11.75 H 20.0157 C 20.0048 11.7502 19.994 11.7502 19.9832 11.75 H 4.01681 C 4.00601 11.7502 3.99518 11.7502 3.98432 11.75 H 2 C 1.58579 11.75 1.25 11.4142 1.25 11 C 1.25 10.5858 1.58579 10.25 2 10.25 H 3.41442 L 3.89754 8.31749 C 4.16072 7.26472 4.3744 6.40994 4.62854 5.74284 C 4.89351 5.04733 5.22991 4.47727 5.78453 4.04423 C 6.33916 3.6112 6.97379 3.4231 7.7128 3.33473 C 8.42162 3.24997 9.3027 3.24998 10.3879 3.25 Z M 4.96058 10.25 H 19.0394 L 18.6586 8.72669 C 18.3813 7.61763 18.1882 6.85038 17.9697 6.27686 C 17.7584 5.72218 17.5515 5.42889 17.2923 5.22654 C 17.0332 5.02419 16.6985 4.89459 16.1091 4.82412 C 15.4997 4.75125 14.7085 4.75 13.5653 4.75 H 10.4347 C 9.29147 4.75 8.50029 4.75125 7.8909 4.82412 C 7.30154 4.89459 6.96681 5.02419 6.70765 5.22654 C 6.44849 5.42889 6.24158 5.72218 6.03027 6.27686 C 5.81177 6.85038 5.61867 7.61763 5.34141 8.72669 L 4.96058 10.25 Z M 6.5 14.75 C 4.98122 14.75 3.75 15.9812 3.75 17.5 C 3.75 19.0188 4.98122 20.25 6.5 20.25 C 8.01878 20.25 9.25 19.0188 9.25 17.5 C 9.25 15.9812 8.01878 14.75 6.5 14.75 Z M 2.25 17.5 C 2.25 15.1528 4.15279 13.25 6.5 13.25 C 8.45789 13.25 10.1066 14.5739 10.5996 16.3754 C 11.4979 16.0137 12.5021 16.0137 13.4004 16.3754 C 13.8934 14.5739 15.5421 13.25 17.5 13.25 C 19.8472 13.25 21.75 15.1528 21.75 17.5 C 21.75 19.8472 19.8472 21.75 17.5 21.75 C 15.314 21.75 13.5134 20.0995 13.2764 17.9767 L 13.0062 17.8416 C 12.3728 17.5249 11.6272 17.5249 10.9938 17.8416 L 10.7236 17.9767 C 10.4866 20.0995 8.68604 21.75 6.5 21.75 C 4.15279 21.75 2.25 19.8472 2.25 17.5 Z M 17.5 14.75 C 15.9812 14.75 14.75 15.9812 14.75 17.5 C 14.75 19.0188 15.9812 20.25 17.5 20.25 C 19.0188 20.25 20.25 19.0188 20.25 17.5 C 20.25 15.9812 19.0188 14.75 17.5 14.75 Z" fill="#FFFFFF" />
</svg>