<svg xmlns="http://www.w3.org/2000/svg" width="24" height="24" viewBox="0 0 24 24" fill="none">
  <path fill-rule="nonzero" clip-rule="nonzero" d="M4.6138 8.54479 C5.15947 6.36211 5.43231 5.27077 6.24609 4.63538 C7.05988 4 8.1848 4 10.4347 4 L13.5653 4 C15.8152 4 16.9401 4 17.7539 4.63538 C18.5677 5.27077 18.8405 6.36211 19.3862 8.54479 L19.8125 10.25 L22 10.25 C22.4142 10.25 22.75 10.5858 22.75 11 C22.75 11.4142 22.4142 11.75 22 11.75 L2 11.75 C1.58579 11.75 1.25 11.4142 1.25 11 C1.25 10.5858 1.58579 10.25 2 10.25 L4.1875 10.25 L4.6138 8.54479 Z M6.5 21 C4.567 21 3 19.433 3 17.5 C3 15.567 4.567 14 6.5 14 C8.16009 14 9.55023 15.1558 9.90967 16.7065 L10.3229 16.4999 C11.3787 15.972 12.6213 15.972 13.6771 16.4999 L14.0903 16.7065 C14.4498 15.1558 15.8399 14 17.5 14 C19.433 14 21 15.567 21 17.5 C21 19.433 19.433 21 17.5 21 C15.8768 21 14.5117 19.8951 14.1158 18.3963 L13.0062 17.8415 C12.3728 17.5248 11.6272 17.5248 10.9938 17.8415 L9.88417 18.3963 C9.48826 19.8951 8.12316 21 6.5 21 Z" fill="#FFFFFF" />
</svg>