<svg xmlns="http://www.w3.org/2000/svg" width="24" height="24" viewBox="0 0 24 24" fill="none">
  <path fill-rule="nonzero" clip-rule="nonzero" d="M 22 8.29344 C 22 11.7692 19.1708 14.5869 15.6807 14.5869 C 15.0439 14.5869 13.5939 14.4405 12.8885 13.8551 L 12.0067 14.7333 C 11.4883 15.2496 11.6283 15.4016 11.8589 15.652 C 11.9551 15.7565 12.0672 15.8781 12.1537 16.0505 C 12.1537 16.0505 12.8885 17.075 12.1537 18.0995 C 11.7128 18.6849 10.4783 19.5045 9.06754 18.0995 L 8.77362 18.3922 C 8.77362 18.3922 9.65538 19.4167 8.92058 20.4412 C 8.4797 21.0267 7.30403 21.6121 6.27531 20.5876 L 5.2466 21.6121 C 4.54119 22.3146 3.67905 21.9048 3.33616 21.6121 L 2.45441 20.7339 C 1.63143 19.9143 2.1115 19.0264 2.45441 18.6849 L 10.0963 11.0743 C 10.0963 11.0743 9.3615 9.90338 9.3615 8.29344 C 9.3615 4.81767 12.1907 2 15.6807 2 C 19.1708 2 22 4.81767 22 8.29344 Z M 15.681 10.4889 C 16.8984 10.4889 17.8853 9.50601 17.8853 8.29353 C 17.8853 7.08105 16.8984 6.09814 15.681 6.09814 C 14.4635 6.09814 13.4766 7.08105 13.4766 8.29353 C 13.4766 9.50601 14.4635 10.4889 15.681 10.4889 Z" fill="#FFFFFF" />
</svg>