<svg xmlns="http://www.w3.org/2000/svg" width="24" height="24" viewBox="0 0 24 24" fill="none">
  <path fill-rule="nonzero" clip-rule="nonzero" d="M 9.75684 1.98286 C 9.76631 2.39697 9.43829 2.74034 9.02418 2.74981 C 6.20248 2.81432 4.87348 3.09895 3.99627 3.97617 C 3.42588 4.54656 3.09862 5.31824 2.92655 6.59801 C 2.75159 7.89936 2.75 9.60936 2.75 11.99 C 2.75 14.3705 2.75159 16.0805 2.92655 17.3819 C 3.09862 18.6617 3.42588 19.4333 3.99627 20.0037 C 4.56666 20.5741 5.33834 20.9014 6.61811 21.0735 C 7.91946 21.2484 9.62946 21.25 12.0101 21.25 C 14.3906 21.25 16.1006 21.2484 17.402 21.0735 C 18.6818 20.9014 19.4534 20.5741 20.0238 20.0037 C 20.9011 19.1265 21.1857 17.7975 21.2502 14.9758 C 21.2597 14.5617 21.603 14.2337 22.0171 14.2432 C 22.4312 14.2526 22.7593 14.596 22.7498 15.0101 C 22.6866 17.7765 22.4374 19.7115 21.0845 21.0644 C 20.1889 21.9599 19.048 22.3657 17.6019 22.5601 C 16.189 22.75 14.3782 22.75 12.0674 22.75 H 11.9527 C 9.64191 22.75 7.8311 22.75 6.41824 22.5601 C 4.97214 22.3657 3.83115 21.9599 2.93561 21.0644 C 2.04006 20.1689 1.63435 19.0279 1.43993 17.5818 C 1.24998 16.1689 1.24999 14.3581 1.25 12.0473 V 11.9326 C 1.24999 9.62181 1.24998 7.811 1.43993 6.39814 C 1.63435 4.95204 2.04006 3.81105 2.93561 2.91551 C 4.2885 1.56262 6.22347 1.31345 8.98989 1.2502 C 9.404 1.24073 9.74737 1.56875 9.75684 1.98286 Z M 11.6443 3.15543 C 14.1849 0.614861 18.304 0.614861 20.8446 3.15543 C 23.3851 5.69601 23.3851 9.81509 20.8446 12.3557 C 19.157 14.0432 16.7733 14.6089 14.6209 14.0562 C 14.5805 14.0458 14.5444 14.047 14.5182 14.0532 C 14.4935 14.0591 14.4807 14.0684 14.4736 14.0754 L 11.38 17.1691 C 10.9539 17.5951 10.3573 17.8044 9.75851 17.7379 L 8.01802 17.5445 C 7.6632 17.5051 7.33236 17.346 7.07992 17.0936 L 6.9064 16.9201 C 6.65396 16.6676 6.49495 16.3368 6.45553 15.982 L 6.26214 14.2415 C 6.1956 13.6427 6.40488 13.0461 6.83091 12.62 L 9.92432 9.52663 C 9.93144 9.51952 9.94081 9.50657 9.94673 9.48175 C 9.95302 9.45541 9.95415 9.41931 9.94383 9.37915 C 9.3911 7.22674 9.95676 4.84301 11.6443 3.15543 Z M 19.7839 4.21609 C 17.8291 2.26131 14.6598 2.26131 12.705 4.21609 C 11.4077 5.51342 10.9704 7.34603 11.3967 9.00606 C 11.532 9.53285 11.4227 10.1495 10.985 10.5873 L 7.89157 13.6807 C 7.78775 13.7845 7.73675 13.9299 7.75296 14.0758 L 7.94635 15.8163 C 7.94816 15.8326 7.95547 15.8478 7.96706 15.8594 L 8.14058 16.0329 C 8.15217 16.0445 8.16737 16.0518 8.18367 16.0537 L 9.92416 16.247 C 10.0701 16.2633 10.2155 16.2123 10.3193 16.1084 L 10.8197 15.608 L 9.89835 14.6967 C 9.60386 14.4055 9.60124 13.9306 9.89252 13.6361 C 10.1838 13.3416 10.6587 13.339 10.9532 13.6303 L 11.8804 14.5473 L 13.4129 13.0148 C 13.8509 12.5768 14.4675 12.4681 14.9939 12.6033 C 16.654 13.0296 18.4866 12.5923 19.7839 11.295 C 21.7387 9.34022 21.7387 6.17088 19.7839 4.21609 Z M 14.4578 6.1245 C 15.4016 5.18073 16.9317 5.18073 17.8755 6.1245 C 18.8193 7.06826 18.8193 8.59841 17.8755 9.54218 C 16.9317 10.4859 15.4016 10.4859 14.4578 9.54218 C 13.5141 8.59841 13.5141 7.06826 14.4578 6.1245 Z M 16.8148 7.18516 C 16.4569 6.82718 15.8765 6.82718 15.5185 7.18516 C 15.1605 7.54314 15.1605 8.12354 15.5185 8.48152 C 15.8765 8.8395 16.4569 8.8395 16.8148 8.48152 C 17.1728 8.12354 17.1728 7.54314 16.8148 7.18516 Z" fill="#FFFFFF" />
</svg>