<svg xmlns="http://www.w3.org/2000/svg" width="24" height="24" viewBox="0 0 24 24" fill="none">
  <path fill-rule="nonzero" clip-rule="nonzero" d="M15 16 C13.3372 16 11.8098 15.4202 10.6089 14.4518 L7.56066 17.5 L8.53033 18.4697 C8.82322 18.7626 8.82322 19.2374 8.53033 19.5303 C8.23744 19.8232 7.76256 19.8232 7.46967 19.5303 L6.5 18.5607 L5.56066 19.5 L6.53033 20.4697 C6.82322 20.7626 6.82322 21.2374 6.53033 21.5303 C6.23744 21.8232 5.76256 21.8232 5.46967 21.5303 L4.5 20.5607 L4.03033 21.0303 C3.73744 21.3232 3.26256 21.3232 2.96967 21.0303 C2.67678 20.7374 2.67678 20.2626 2.96967 19.9697 L3.96995 18.9694 L9.54824 13.3911 C8.57979 12.1902 8 10.6628 8 9 C8 5.13401 11.134 2 15 2 C18.866 2 22 5.13401 22 9 C22 12.866 18.866 16 15 16 Z M 15 11 C 16.1046 11 17 10.1046 17 9 C 17 7.89543 16.1046 7 15 7 C 13.8954 7 13 7.89543 13 9 C 13 10.1046 13.8954 11 15 11 Z" fill="#FFFFFF" />
</svg>