<svg xmlns="http://www.w3.org/2000/svg" width="24" height="24" viewBox="0 0 24 24" fill="none">
  <path d="M12.3905 9.72378C12.9112 9.20308 13.7554 9.20308 14.2761 9.72378C14.7968 10.2445 14.7968 11.0887 14.2761 11.6094C13.7554 12.1301 12.9112 12.1301 12.3905 11.6094C11.8698 11.0887 11.8698 10.2445 12.3905 9.72378Z" fill="#FFFFFF" />
  <path fill-rule="nonzero" clip-rule="nonzero" d="M3.46447 3.46447 C4.92893 2 7.28595 2 12 2 C16.714 2 19.0711 2 20.5355 3.46447 C22 4.92893 22 7.28595 22 12 C22 16.714 22 19.0711 20.5355 20.5355 C19.0711 22 16.714 22 12 22 C7.28595 22 4.92893 22 3.46447 20.5355 C2 19.0711 2 16.714 2 12 C2 7.28595 2 4.92893 3.46447 3.46447 Z M16.6514 7.34861 C14.8532 5.55046 11.9379 5.55046 10.1397 7.34861 C8.94578 8.54257 8.5446 10.2291 8.93621 11.7541 C8.99937 12 8.94328 12.266 8.76372 12.4456 L6.28899 14.9203 C6.07705 15.1322 5.97294 15.429 6.00604 15.7269 L6.16075 17.1193 C6.17725 17.2678 6.24377 17.4062 6.34939 17.5118 L6.4882 17.6506 C6.59381 17.7562 6.73223 17.8228 6.88068 17.8392 L8.27307 17.994 C8.57097 18.0271 8.86776 17.9229 9.0797 17.711 L9.3764 17.4143 L8.21332 16.264 C7.91882 15.9727 7.91621 15.4978 8.20748 15.2033 C8.49876 14.9088 8.97363 14.9062 9.26813 15.1975 L10.4342 16.3507 L10.4371 16.3536 L11.5546 15.2361 C11.7342 15.0565 12 15.0006 12.2459 15.0638 C13.7709 15.4554 15.4574 15.0542 16.6514 13.8603 C18.4495 12.0621 18.4495 9.14675 16.6514 7.34861 Z" fill="#FFFFFF" />
</svg>