<svg xmlns="http://www.w3.org/2000/svg" width="24" height="24" viewBox="0 0 24 24" fill="none">
  <path fill-rule="nonzero" clip-rule="nonzero" d="M18.9771 14.7904 C17.1861 16.5813 14.6563 17.1831 12.3689 16.5957 C12 16.5009 11.6013 16.5848 11.3319 16.8541 L9.39026 18.7958 L7.63825 17.063 C7.34375 16.7717 6.86888 16.7743 6.5776 17.0688 C6.28632 17.3633 6.28893 17.8382 6.58343 18.1294 L8.32958 19.8565 L7.61956 20.5665 C7.30164 20.8844 6.85645 21.0406 6.4096 20.9909 L4.32101 20.7589 C4.09834 20.7341 3.89072 20.6343 3.73229 20.4759 L3.52408 20.2677 C3.36566 20.1093 3.26587 19.9017 3.24113 19.679 L3.00906 17.5904 C2.95941 17.1435 3.11558 16.6984 3.43349 16.3804 L7.14558 12.6684 C7.41492 12.399 7.49906 12 7.40432 11.6311 C6.8169 9.34366 7.41866 6.81385 9.20961 5.02291 C11.9068 2.3257 16.2799 2.3257 18.9771 5.02291 C21.6743 7.72013 21.6743 12.0932 18.9771 14.7904 Z M12.5858 8.58579 C11.8047 9.36684 11.8047 10.6332 12.5858 11.4142 C13.3668 12.1953 14.6332 12.1953 15.4142 11.4142 C16.1953 10.6332 16.1953 9.36684 15.4142 8.58579 C14.6332 7.80474 13.3668 7.80474 12.5858 8.58579 Z" fill="#FFFFFF" />
</svg>