<svg xmlns="http://www.w3.org/2000/svg" width="24" height="24" viewBox="0 0 24 24" fill="none">
  <path fill-rule="nonzero" clip-rule="nonzero" d="M15.6809 5.34814 C17.3097 5.34814 18.6353 6.66395 18.6353 8.29353 C18.6353 9.92311 17.3097 11.2389 15.6809 11.2389 C14.0521 11.2389 12.7265 9.92311 12.7265 8.29353 C12.7265 6.66395 14.0521 5.34814 15.6809 5.34814 Z M14.2265 8.29353 C14.2265 9.0889 14.8748 9.73891 15.6809 9.73891 C16.487 9.73891 17.1353 9.0889 17.1353 8.29353 C17.1353 7.49816 16.487 6.84814 15.6809 6.84814 C14.8748 6.84814 14.2265 7.49816 14.2265 8.29353 Z" fill="#FFFFFF" />
  <path fill-rule="nonzero" clip-rule="nonzero" d="M9.52998 20.8783 L9.5249 20.8854 L9.51964 20.8924 C9.19686 21.321 8.63497 21.7254 7.95941 21.8548 C7.43853 21.9545 6.87523 21.8849 6.34232 21.5793 L5.77579 22.1435 C5.23527 22.6818 4.59712 22.8088 4.04572 22.7273 C3.53164 22.6513 3.10385 22.3999 2.84916 22.1825 C2.83457 22.1701 2.82046 22.1571 2.80687 22.1435 L1.92511 21.2654 C1.34031 20.6829 1.17837 20.0124 1.27697 19.4092 C1.36789 18.853 1.66869 18.4089 1.92511 18.1535 L9.18035 10.9279 C9.13081 10.8166 9.07825 10.6898 9.02588 10.549 C8.82018 9.99588 8.61144 9.2105 8.61144 8.29344 C8.61144 4.40056 11.7794 1.25 15.6807 1.25 C19.582 1.25 22.75 4.40056 22.75 8.29344 C22.75 12.1863 19.582 15.3369 15.6807 15.3369 C15.3171 15.3369 14.744 15.2962 14.1583 15.1749 C13.7957 15.0999 13.3817 14.9849 13.0001 14.8024 L12.5359 15.2647 L12.5269 15.2737 C12.6111 15.3719 12.7112 15.5021 12.7999 15.6677 C12.8063 15.6775 12.8132 15.6885 12.8207 15.7005 C12.849 15.746 12.8853 15.8081 12.9245 15.8846 C13.0021 16.0361 13.0956 16.2528 13.1586 16.5164 C13.2872 17.0543 13.2883 17.8043 12.7631 18.5366 L12.758 18.5437 L12.7527 18.5507 C12.4511 18.9512 11.8825 19.437 11.1141 19.5828 C10.7424 19.6533 10.3544 19.6387 9.96222 19.5233 C9.97017 19.9429 9.86298 20.414 9.52998 20.8783 Z M10.1114 8.29344 C10.1114 8.98632 10.2701 9.59135 10.4318 10.0262 C10.5122 10.2423 10.5918 10.4123 10.6494 10.5251 C10.6781 10.5814 10.7012 10.6231 10.7158 10.6487 C10.7232 10.6615 10.7284 10.6703 10.7311 10.6748 L10.7333 10.6784 C10.9185 10.9735 10.8747 11.3575 10.6279 11.6033 L2.9836 19.2163 C2.89711 19.3025 2.78643 19.4731 2.75733 19.6511 C2.73591 19.7821 2.74543 19.9653 2.9836 20.2025 L3.84077 21.0562 C3.93333 21.1293 4.09729 21.2186 4.26505 21.2434 C4.4068 21.2643 4.55241 21.2449 4.7173 21.0807 L5.74602 20.0562 C6.03866 19.7647 6.51186 19.7647 6.8045 20.0562 C7.14284 20.3931 7.4429 20.4264 7.67726 20.3815 C7.95303 20.3287 8.19643 20.1519 8.31639 19.9966 C8.49882 19.7374 8.48694 19.4963 8.41138 19.2706 C8.37128 19.1508 8.31483 19.0461 8.2668 18.9704 C8.24339 18.9336 8.22363 18.9062 8.2116 18.8903 C8.2058 18.8826 8.20194 18.8778 8.20054 18.8761 C7.94891 18.5782 7.96748 18.1365 8.24433 17.8608 L8.53825 17.5681 C8.83089 17.2766 9.30409 17.2766 9.59673 17.5681 C10.1571 18.1261 10.5769 18.1579 10.8345 18.1091 C11.1424 18.0506 11.4087 17.8384 11.5494 17.6551 C11.7538 17.3656 11.7544 17.0937 11.6997 16.8652 C11.6709 16.7445 11.6267 16.6412 11.5895 16.5685 C11.5712 16.533 11.5558 16.507 11.5468 16.4924 L11.54 16.4817 L11.5098 16.4397 L11.4834 16.387 C11.4555 16.3314 11.4173 16.2811 11.3476 16.2042 L11.3278 16.183 C11.2689 16.1202 11.1273 15.9697 11.0394 15.8121 C10.8912 15.5463 10.8499 15.2261 10.9794 14.8933 C11.0818 14.6305 11.2757 14.4028 11.4774 14.2019 L12.3592 13.3237 C12.6332 13.0508 13.0699 13.031 13.3674 13.2779 C13.5752 13.4504 13.9654 13.6032 14.4623 13.7061 C14.9372 13.8044 15.4075 13.8369 15.6807 13.8369 C18.7594 13.8369 21.25 11.3521 21.25 8.29344 C21.25 5.23477 18.7594 2.75 15.6807 2.75 C12.602 2.75 10.1114 5.23477 10.1114 8.29344 Z M 8.20054 18.8761 C 8.20192 18.8777 8.2033 18.8793 8.20469 18.881 L 8.20354 18.8796 L 8.20054 18.8761 Z" fill="#FFFFFF" />
</svg>