<svg xmlns="http://www.w3.org/2000/svg" width="24" height="24" viewBox="0 0 24 24" fill="none">
  <path opacity="0.5" d="M2 12C2 7.28595 2 4.92893 3.46447 3.46447C4.92893 2 7.28595 2 12 2C16.714 2 19.0711 2 20.5355 3.46447C22 4.92893 22 7.28595 22 12C22 16.714 22 19.0711 20.5355 20.5355C19.0711 22 16.714 22 12 22C7.28595 22 4.92893 22 3.46447 20.5355C2 19.0711 2 16.714 2 12Z" fill="#FFFFFF" />
  <path fill-rule="nonzero" clip-rule="nonzero" d="M 22 6.72008 C 22 9.3269 19.8781 11.4402 17.2606 11.4402 C 16.7829 11.4402 15.6954 11.3304 15.1664 10.8913 L 14.505 11.5499 C 14.1162 11.9372 14.2212 12.0512 14.3942 12.239 C 14.4664 12.3174 14.5504 12.4086 14.6153 12.5378 C 14.6153 12.5378 15.1664 13.3062 14.6153 14.0746 C 14.2846 14.5137 13.3588 15.1284 12.3007 14.0746 L 12.0802 14.2942 C 12.0802 14.2942 12.7415 15.0625 12.1904 15.8309 C 11.8598 16.27 10.978 16.7091 10.2065 15.9407 L 9.43495 16.7091 C 8.90589 17.236 8.25929 16.9286 8.00212 16.7091 L 7.3408 16.0505 C 6.72357 15.4358 7.08363 14.7698 7.3408 14.5137 L 13.0722 8.80569 C 13.0722 8.80569 12.5211 7.92754 12.5211 6.72008 C 12.5211 4.11325 14.643 2 17.2606 2 C 19.8781 2 22 4.11325 22 6.72008 Z M18.914 6.72003 C18.914 5.81067 18.1738 5.07349 17.2607 5.07349 C16.3476 5.07349 15.6074 5.81067 15.6074 6.72003 C15.6074 7.62938 16.3476 8.36656 17.2607 8.36656 C18.1738 8.36656 18.914 7.62938 18.914 6.72003 Z" fill="#FFFFFF" />
</svg>