<svg xmlns="http://www.w3.org/2000/svg" width="24" height="24" viewBox="0 0 24 24" fill="none">
  <path d="M14.2084 11.0932C14.9388 11.0932 15.531 10.5035 15.531 9.77597C15.531 9.04848 14.9388 8.45874 14.2084 8.45874C13.4779 8.45874 12.8857 9.04848 12.8857 9.77597C12.8857 10.5035 13.4779 11.0932 14.2084 11.0932Z" fill="#FFFFFF" />
  <path fill-rule="nonzero" clip-rule="nonzero" d="M3.46447 3.46447 C4.92893 2 7.28595 2 12 2 C16.714 2 19.0711 2 20.5355 3.46447 C22 4.92893 22 7.28595 22 12 C22 16.714 22 19.0711 20.5355 20.5355 C19.0711 22 16.714 22 12 22 C7.28595 22 4.92893 22 3.46447 20.5355 C2 19.0711 2 16.714 2 12 C2 7.28595 2 4.92893 3.46447 3.46447 Z M 14.2084 13.5521 C 16.3025 13.5521 18 11.8615 18 9.77606 C 18 7.6906 16.3025 6 14.2084 6 C 12.1144 6 10.4169 7.6906 10.4169 9.77606 C 10.4169 10.742 10.8578 11.4446 10.8578 11.4446 L 6.27264 16.011 C 6.0669 16.2159 5.77886 16.7486 6.27264 17.2404 L 6.8017 17.7673 C 7.00743 17.9429 7.52471 18.1888 7.94796 17.7673 L 8.56519 17.1526 C 9.18242 17.7673 9.88782 17.416 10.1523 17.0647 C 10.5932 16.45 10.0642 15.8353 10.0642 15.8353 L 10.2405 15.6597 C 11.087 16.5027 11.8277 16.011 12.0922 15.6597 C 12.5331 15.045 12.0922 14.4303 12.0922 14.4303 C 12.0403 14.3269 11.9731 14.2539 11.9153 14.1912 C 11.777 14.041 11.693 13.9498 12.004 13.64 L 12.5331 13.113 C 12.9564 13.4643 13.8264 13.5521 14.2084 13.5521 Z" fill="#FFFFFF" />
</svg>