<svg xmlns="http://www.w3.org/2000/svg" width="24" height="24" viewBox="0 0 24 24" fill="none">
  <path fill-rule="nonzero" clip-rule="nonzero" d="M6.75 8 L6.75 10.0036 C7.13301 10 7.54849 10 8 10 L16 10 C18.8284 10 20.2426 10 21.1213 10.8787 C22 11.7574 22 13.1716 22 16 C22 18.8284 22 20.2426 21.1213 21.1213 C20.2426 22 18.8284 22 16 22 L8 22 C5.17157 22 3.75736 22 2.87868 21.1213 C2 20.2426 2 18.8284 2 16 C2 13.1716 2 11.7574 2.87868 10.8787 C3.40931 10.348 4.13525 10.1379 5.25 10.0546 L5.25 8 C5.25 4.27208 8.27208 1.25 12 1.25 C15.1463 1.25 17.788 3.4019 18.5373 6.31306 C18.6405 6.7142 18.3991 7.12308 17.9979 7.22633 C17.5968 7.32957 17.1879 7.08808 17.0846 6.68694 C16.5018 4.42242 14.4453 2.75 12 2.75 C9.10051 2.75 6.75 5.10051 6.75 8 Z M14 16 C14 14.8954 13.1046 14 12 14 C10.8954 14 10 14.8954 10 16 C10 17.1046 10.8954 18 12 18 C13.1046 18 14 17.1046 14 16 Z" fill="#FFFFFF" />
</svg>