<svg xmlns="http://www.w3.org/2000/svg" width="24" height="24" viewBox="0 0 24 24" fill="none">
  <path d="M9 16C9 16.5523 8.55229 17 8 17C7.44772 17 7 16.5523 7 16C7 15.4477 7.44772 15 8 15C8.55229 15 9 15.4477 9 16Z" fill="#FFFFFF" />
  <path d="M13 16C13 16.5523 12.5523 17 12 17C11.4477 17 11 16.5523 11 16C11 15.4477 11.4477 15 12 15C12.5523 15 13 15.4477 13 16Z" fill="#FFFFFF" />
  <path d="M16 17C16.5523 17 17 16.5523 17 16C17 15.4477 16.5523 15 16 15C15.4477 15 15 15.4477 15 16C15 16.5523 15.4477 17 16 17Z" fill="#FFFFFF" />
  <path fill-rule="nonzero" clip-rule="nonzero" d="M5.25 8 C5.25 4.27208 8.27208 1.25 12 1.25 C15.7279 1.25 18.75 4.27208 18.75 8 L18.75 9.30277 C18.9768 9.31872 19.1906 9.33948 19.3918 9.36652 C20.2919 9.48754 21.0497 9.74643 21.6517 10.3483 C22.2536 10.9503 22.5125 11.7081 22.6335 12.6082 C22.75 13.4752 22.75 14.5775 22.75 15.9451 L22.75 16.0549 C22.75 17.4225 22.75 18.5248 22.6335 19.3918 C22.5125 20.2919 22.2536 21.0497 21.6517 21.6516 C21.0497 22.2536 20.2919 22.5125 19.3918 22.6335 C18.5248 22.75 17.4225 22.75 16.0549 22.75 L7.94513 22.75 C6.57754 22.75 5.47522 22.75 4.60825 22.6335 C3.70814 22.5125 2.95027 22.2536 2.34835 21.6516 C1.74643 21.0497 1.48754 20.2919 1.36652 19.3918 C1.24996 18.5248 1.24998 17.4225 1.25 16.0549 L1.25 15.9451 C1.24998 14.5775 1.24996 13.4752 1.36652 12.6082 C1.48754 11.7081 1.74643 10.9503 2.34835 10.3483 C2.95027 9.74643 3.70814 9.48754 4.60825 9.36652 C4.80938 9.33948 5.02317 9.31872 5.25 9.30277 L5.25 8 Z M 12 2.75 C 9.10051 2.75 6.75 5.10051 6.75 8 V 9.25344 C 7.12349 9.24999 7.52152 9.24999 7.94499 9.25 H 16.0549 C 16.4783 9.24999 16.8765 9.24999 17.25 9.25344 V 8 C 17.25 5.10051 14.8995 2.75 12 2.75 Z M 4.80812 10.8531 C 4.07435 10.9518 3.68577 11.1322 3.40901 11.409 C 3.13225 11.6858 2.9518 12.0743 2.85315 12.8081 C 2.75159 13.5635 2.75 14.5646 2.75 16 C 2.75 17.4354 2.75159 18.4365 2.85315 19.1919 C 2.9518 19.9257 3.13225 20.3142 3.40901 20.591 C 3.68577 20.8678 4.07435 21.0482 4.80812 21.1469 C 5.56347 21.2484 6.56459 21.25 8 21.25 H 16 C 17.4354 21.25 18.4365 21.2484 19.1919 21.1469 C 19.9257 21.0482 20.3142 20.8678 20.591 20.591 C 20.8678 20.3142 21.0482 19.9257 21.1469 19.1919 C 21.2484 18.4365 21.25 17.4354 21.25 16 C 21.25 14.5646 21.2484 13.5635 21.1469 12.8081 C 21.0482 12.0743 20.8678 11.6858 20.591 11.409 C 20.3142 11.1322 19.9257 10.9518 19.1919 10.8531 C 18.4365 10.7516 17.4354 10.75 16 10.75 H 8 C 6.56459 10.75 5.56347 10.7516 4.80812 10.8531 Z" fill="#FFFFFF" />
</svg>