<svg xmlns="http://www.w3.org/2000/svg" width="24" height="24" viewBox="0 0 24 24" fill="none">
  <path d="M12.75 14C12.75 13.5858 12.4142 13.25 12 13.25C11.5858 13.25 11.25 13.5858 11.25 14V18C11.25 18.4142 11.5858 18.75 12 18.75C12.4142 18.75 12.75 18.4142 12.75 18V14Z" fill="#FFFFFF" />
  <path fill-rule="nonzero" clip-rule="nonzero" d="M 12 2.75 C 9.10051 2.75 6.75 5.10051 6.75 8 V 9.25344 C 7.12349 9.24999 7.52152 9.24999 7.94499 9.25 H 16.0549 C 17.4225 9.24998 18.5248 9.24996 19.3918 9.36652 C 20.2919 9.48754 21.0497 9.74643 21.6517 10.3483 C 22.2536 10.9503 22.5125 11.7081 22.6335 12.6082 C 22.75 13.4752 22.75 14.5775 22.75 15.9451 V 16.0549 C 22.75 17.4225 22.75 18.5248 22.6335 19.3918 C 22.5125 20.2919 22.2536 21.0497 21.6517 21.6516 C 21.0497 22.2536 20.2919 22.5125 19.3918 22.6335 C 18.5248 22.75 17.4225 22.75 16.0549 22.75 H 7.94513 C 6.57754 22.75 5.47522 22.75 4.60825 22.6335 C 3.70814 22.5125 2.95027 22.2536 2.34835 21.6516 C 1.74643 21.0497 1.48754 20.2919 1.36652 19.3918 C 1.24996 18.5248 1.24998 17.4225 1.25 16.0549 V 15.9451 C 1.24998 14.5775 1.24996 13.4752 1.36652 12.6082 C 1.48754 11.7081 1.74643 10.9503 2.34835 10.3483 C 2.95027 9.74643 3.70814 9.48754 4.60825 9.36652 C 4.80938 9.33948 5.02317 9.31872 5.25 9.30277 V 8 C 5.25 4.27208 8.27208 1.25 12 1.25 C 15.1463 1.25 17.788 3.4019 18.5373 6.31306 C 18.6405 6.7142 18.3991 7.12308 17.9979 7.22633 C 17.5968 7.32957 17.1879 7.08808 17.0846 6.68694 C 16.5018 4.42242 14.4453 2.75 12 2.75 Z M 4.80812 10.8531 C 4.07435 10.9518 3.68577 11.1322 3.40901 11.409 C 3.13225 11.6858 2.9518 12.0743 2.85315 12.8081 C 2.75159 13.5635 2.75 14.5646 2.75 16 C 2.75 17.4354 2.75159 18.4365 2.85315 19.1919 C 2.9518 19.9257 3.13225 20.3142 3.40901 20.591 C 3.68577 20.8678 4.07435 21.0482 4.80812 21.1469 C 5.56347 21.2484 6.56459 21.25 8 21.25 H 16 C 17.4354 21.25 18.4365 21.2484 19.1919 21.1469 C 19.9257 21.0482 20.3142 20.8678 20.591 20.591 C 20.8678 20.3142 21.0482 19.9257 21.1469 19.1919 C 21.2484 18.4365 21.25 17.4354 21.25 16 C 21.25 14.5646 21.2484 13.5635 21.1469 12.8081 C 21.0482 12.0743 20.8678 11.6858 20.591 11.409 C 20.3142 11.1322 19.9257 10.9518 19.1919 10.8531 C 18.4365 10.7516 17.4354 10.75 16 10.75 H 8 C 6.56459 10.75 5.56347 10.7516 4.80812 10.8531 Z" fill="#FFFFFF" />
</svg>