<svg xmlns="http://www.w3.org/2000/svg" width="24" height="24" viewBox="0 0 24 24" fill="none">
  <path fill-rule="nonzero" clip-rule="nonzero" d="M 5.25 10.0546 V 8 C 5.25 4.27208 8.27208 1.25 12 1.25 C 15.7279 1.25 18.75 4.27208 18.75 8 V 10.0546 C 19.8648 10.1379 20.5907 10.348 21.1213 10.8787 C 22 11.7574 22 13.1716 22 16 C 22 18.8284 22 20.2426 21.1213 21.1213 C 20.2426 22 18.8284 22 16 22 H 8 C 5.17157 22 3.75736 22 2.87868 21.1213 C 2 20.2426 2 18.8284 2 16 C 2 13.1716 2 11.7574 2.87868 10.8787 C 3.40931 10.348 4.13525 10.1379 5.25 10.0546 Z M6.75 8 L6.75 10.0036 C7.13301 10 7.54849 10 8 10 L16 10 C16.4515 10 16.867 10 17.25 10.0036 L17.25 8 C17.25 5.10051 14.8995 2.75 12 2.75 C9.10051 2.75 6.75 5.10051 6.75 8 Z M 8 17 C 8.55228 17 9 16.5523 9 16 C 9 15.4477 8.55228 15 8 15 C 7.44772 15 7 15.4477 7 16 C 7 16.5523 7.44772 17 8 17 Z M 12 17 C 12.5523 17 13 16.5523 13 16 C 13 15.4477 12.5523 15 12 15 C 11.4477 15 11 15.4477 11 16 C 11 16.5523 11.4477 17 12 17 Z M17 16 C17 15.4477 16.5523 15 16 15 C15.4477 15 15 15.4477 15 16 C15 16.5523 15.4477 17 16 17 C16.5523 17 17 16.5523 17 16 Z" fill="#FFFFFF" />
</svg>