<svg xmlns="http://www.w3.org/2000/svg" width="24" height="24" viewBox="0 0 24 24" fill="none">
  <path fill-rule="nonzero" clip-rule="nonzero" d="M3.17157 5.17157 C4.34315 4 6.22876 4 10 4 L14 4 C17.7712 4 19.6569 4 20.8284 5.17157 C22 6.34315 22 8.22876 22 12 C22 15.7712 22 17.6569 20.8284 18.8284 C19.6569 20 17.7712 20 14 20 L10 20 C6.22876 20 4.34315 20 3.17157 18.8284 C2 17.6569 2 15.7712 2 12 C2 8.22876 2 6.34315 3.17157 5.17157 Z M 8 13 C 8.55228 13 9 12.5523 9 12 C 9 11.4477 8.55228 11 8 11 C 7.44772 11 7 11.4477 7 12 C 7 12.5523 7.44772 13 8 13 Z M13 12 C13 11.4477 12.5523 11 12 11 C11.4477 11 11 11.4477 11 12 C11 12.5523 11.4477 13 12 13 C12.5523 13 13 12.5523 13 12 Z M 16 13 C 16.5523 13 17 12.5523 17 12 C 17 11.4477 16.5523 11 16 11 C 15.4477 11 15 11.4477 15 12 C 15 12.5523 15.4477 13 16 13 Z" fill="#FFFFFF" />
</svg>