<svg xmlns="http://www.w3.org/2000/svg" width="24" height="24" viewBox="0 0 24 24" fill="none">
  <path d="M8 13C8.55229 13 9 12.5523 9 12C9 11.4477 8.55229 11 8 11C7.44772 11 7 11.4477 7 12C7 12.5523 7.44772 13 8 13Z" fill="#FFFFFF" />
  <path d="M13 12C13 12.5523 12.5523 13 12 13C11.4477 13 11 12.5523 11 12C11 11.4477 11.4477 11 12 11C12.5523 11 13 11.4477 13 12Z" fill="#FFFFFF" />
  <path d="M16 13C16.5523 13 17 12.5523 17 12C17 11.4477 16.5523 11 16 11C15.4477 11 15 11.4477 15 12C15 12.5523 15.4477 13 16 13Z" fill="#FFFFFF" />
  <path fill-rule="nonzero" clip-rule="nonzero" d="M9.94358 3.25 L14.0564 3.25 C15.8942 3.24998 17.3498 3.24997 18.489 3.40314 C19.6614 3.56076 20.6104 3.89288 21.3588 4.64124 C22.1071 5.38961 22.4392 6.33856 22.5969 7.51098 C22.75 8.65018 22.75 10.1059 22.75 11.9436 L22.75 12.0565 C22.75 13.8942 22.75 15.3498 22.5969 16.489 C22.4392 17.6614 22.1071 18.6104 21.3588 19.3588 C20.6104 20.1071 19.6614 20.4392 18.489 20.5969 C17.3498 20.75 15.8942 20.75 14.0564 20.75 L9.94354 20.75 C8.1058 20.75 6.65018 20.75 5.51098 20.5969 C4.33856 20.4392 3.38961 20.1071 2.64124 19.3588 C1.89288 18.6104 1.56076 17.6614 1.40314 16.489 C1.24997 15.3498 1.24998 13.8942 1.25 12.0564 L1.25 11.9436 C1.24998 10.1058 1.24997 8.65019 1.40314 7.51098 C1.56076 6.33856 1.89288 5.38961 2.64124 4.64124 C3.38961 3.89288 4.33856 3.56076 5.51098 3.40314 C6.65019 3.24997 8.10583 3.24998 9.94358 3.25 Z M3.7019 5.7019 C3.27869 6.12511 3.02503 6.70476 2.88976 7.71085 C2.75159 8.73851 2.75 10.0932 2.75 12 C2.75 13.9068 2.75159 15.2615 2.88976 16.2892 C3.02503 17.2952 3.27869 17.8749 3.7019 18.2981 C4.12511 18.7213 4.70476 18.975 5.71085 19.1102 C6.73851 19.2484 8.09318 19.25 10 19.25 L14 19.25 C15.9068 19.25 17.2615 19.2484 18.2892 19.1102 C19.2952 18.975 19.8749 18.7213 20.2981 18.2981 C20.7213 17.8749 20.975 17.2952 21.1102 16.2892 C21.2484 15.2615 21.25 13.9068 21.25 12 C21.25 10.0932 21.2484 8.73851 21.1102 7.71085 C20.975 6.70476 20.7213 6.12511 20.2981 5.7019 C19.8749 5.27869 19.2952 5.02503 18.2892 4.88976 C17.2615 4.75159 15.9068 4.75 14 4.75 L10 4.75 C8.09318 4.75 6.73851 4.75159 5.71085 4.88976 C4.70476 5.02503 4.12511 5.27869 3.7019 5.7019 Z" fill="#FFFFFF" />
</svg>