<svg xmlns="http://www.w3.org/2000/svg" width="24" height="24" viewBox="0 0 24 24" fill="none">
  <path fill-rule="nonzero" clip-rule="nonzero" d="M3.17157 5.17157 C4.34315 4 6.22876 4 10 4 L14 4 C17.7712 4 19.6569 4 20.8284 5.17157 C22 6.34315 22 8.22876 22 12 C22 15.7712 22 17.6569 20.8284 18.8284 C19.6569 20 17.7712 20 14 20 L10 20 C6.22876 20 4.34315 20 3.17157 18.8284 C2 17.6569 2 15.7712 2 12 C2 8.22876 2 6.34315 3.17157 5.17157 Z M 12.7502 10 C 12.7502 9.58579 12.4144 9.25 12.0002 9.25 C 11.586 9.25 11.2502 9.58579 11.2502 10 V 10.7012 L 10.6428 10.3505 C 10.2841 10.1434 9.8254 10.2663 9.61829 10.625 C 9.41119 10.9837 9.53409 11.4424 9.89281 11.6495 L 10.4997 11.9999 L 9.89258 12.3505 C 9.53386 12.5576 9.41095 13.0163 9.61806 13.375 C 9.82517 13.7337 10.2839 13.8566 10.6426 13.6495 L 11.2502 13.2987 V 14 C 11.2502 14.4142 11.586 14.75 12.0002 14.75 C 12.4144 14.75 12.7502 14.4142 12.7502 14 V 13.2993 L 13.3569 13.6495 C 13.7156 13.8566 14.1743 13.7337 14.3814 13.375 C 14.5885 13.0163 14.4656 12.5576 14.1069 12.3505 L 13.4997 11.9999 L 14.1067 11.6495 C 14.4654 11.4424 14.5883 10.9837 14.3812 10.625 C 14.1741 10.2663 13.7154 10.1434 13.3567 10.3505 L 12.7502 10.7006 V 10 Z M6.73266 9.25 C6.31844 9.25 5.98266 9.58579 5.98266 10 L5.98266 10.7012 L5.37523 10.3505 C5.01652 10.1434 4.55782 10.2663 4.35072 10.625 C4.14361 10.9837 4.26652 11.4424 4.62523 11.6495 L5.23217 11.9999 L4.625 12.3505 C4.26628 12.5576 4.14337 13.0163 4.35048 13.375 C4.55759 13.7337 5.01628 13.8566 5.375 13.6495 L5.98266 13.2987 L5.98266 14 C5.98266 14.4142 6.31844 14.75 6.73266 14.75 C7.14687 14.75 7.48266 14.4142 7.48266 14 L7.48266 13.2993 L8.08934 13.6495 C8.44806 13.8566 8.90675 13.7337 9.11386 13.375 C9.32096 13.0163 9.19806 12.5576 8.83934 12.3505 L8.23217 11.9999 L8.8391 11.6495 C9.19782 11.4424 9.32073 10.9837 9.11362 10.625 C8.90651 10.2663 8.44782 10.1434 8.0891 10.3505 L7.48266 10.7006 L7.48266 10 C7.48266 9.58579 7.14687 9.25 6.73266 9.25 Z M 18.0181 10 C 18.0181 9.58579 17.6823 9.25 17.2681 9.25 C 16.8539 9.25 16.5181 9.58579 16.5181 10 V 10.7012 L 15.9106 10.3505 C 15.5519 10.1434 15.0932 10.2663 14.8861 10.625 C 14.679 10.9837 14.8019 11.4424 15.1606 11.6495 L 15.7676 11.9999 L 15.1604 12.3505 C 14.8017 12.5576 14.6788 13.0163 14.8859 13.375 C 15.093 13.7337 15.5517 13.8566 15.9104 13.6495 L 16.5181 13.2987 V 14 C 16.5181 14.4142 16.8539 14.75 17.2681 14.75 C 17.6823 14.75 18.0181 14.4142 18.0181 14 V 13.2993 L 18.6247 13.6495 C 18.9835 13.8566 19.4422 13.7337 19.6493 13.375 C 19.8564 13.0163 19.7335 12.5576 19.3747 12.3505 L 18.7676 11.9999 L 19.3745 11.6495 C 19.7332 11.4424 19.8561 10.9837 19.649 10.625 C 19.4419 10.2663 18.9832 10.1434 18.6245 10.3505 L 18.0181 10.7006 V 10 Z" fill="#FFFFFF" />
</svg>