<svg xmlns="http://www.w3.org/2000/svg" width="24" height="24" viewBox="0 0 24 24" fill="none">
  <path fill-rule="nonzero" clip-rule="nonzero" d="M3.46447 3.46447 C4.92893 2 7.28595 2 12 2 C16.714 2 19.0711 2 20.5355 3.46447 C22 4.92893 22 7.28595 22 12 C22 16.714 22 19.0711 20.5355 20.5355 C19.0711 22 16.714 22 12 22 C7.28595 22 4.92893 22 3.46447 20.5355 C2 19.0711 2 16.714 2 12 C2 7.28595 2 4.92893 3.46447 3.46447 Z M 7.35688 12.6141 C 7.14377 12.9693 7.25894 13.43 7.61413 13.6431 C 7.96782 13.8553 8.42614 13.742 8.64042 13.3903 L 8.64395 13.3848 C 8.64866 13.3775 8.65781 13.3637 8.67146 13.3442 C 8.6988 13.3051 8.74392 13.2438 8.80742 13.1676 C 8.93483 13.0147 9.13333 12.8052 9.40728 12.5945 C 9.94955 12.1773 10.7927 11.75 12 11.75 C 13.2073 11.75 14.0505 12.1773 14.5927 12.5945 C 14.8667 12.8052 15.0652 13.0147 15.1926 13.1676 C 15.2561 13.2438 15.3012 13.3051 15.3285 13.3442 C 15.3422 13.3637 15.3513 13.3775 15.3561 13.3848 L 15.3596 13.3903 C 15.5739 13.742 16.0322 13.8553 16.3859 13.6431 C 16.7411 13.43 16.8562 12.9693 16.6431 12.6141 L 16 13 C 16.6431 12.6141 16.6433 12.6145 16.6431 12.6141 L 16.6423 12.6127 L 16.6413 12.6112 L 16.6391 12.6075 L 16.6332 12.5979 C 16.6286 12.5905 16.6227 12.5813 16.6156 12.5703 C 16.6014 12.5483 16.582 12.5192 16.5574 12.484 C 16.5082 12.4137 16.4377 12.3187 16.3449 12.2074 C 16.1598 11.9853 15.8833 11.6948 15.5073 11.4055 C 14.7495 10.8227 13.5927 10.25 12 10.25 C 10.4073 10.25 9.25045 10.8227 8.49272 11.4055 C 8.11667 11.6948 7.84017 11.9853 7.65508 12.2074 C 7.56233 12.3187 7.49183 12.4137 7.44261 12.484 C 7.41797 12.5192 7.3986 12.5483 7.38437 12.5703 C 7.37725 12.5813 7.37141 12.5905 7.36684 12.5979 L 7.36092 12.6075 L 7.35867 12.6112 L 7.35771 12.6127 C 7.35751 12.6131 7.35688 12.6141 8 13 L 7.35688 12.6141 Z M19 13.25 C18.5858 13.25 18.25 13.5858 18.25 14 C18.25 15.1997 18.2484 16.024 18.1652 16.6432 C18.0848 17.2409 17.941 17.5339 17.7374 17.7374 C17.5339 17.941 17.2409 18.0848 16.6432 18.1652 C16.024 18.2484 15.1997 18.25 14 18.25 C13.5858 18.25 13.25 18.5858 13.25 19 C13.25 19.4142 13.5858 19.75 14 19.75 L14.0538 19.75 C15.1866 19.75 16.1123 19.75 16.8431 19.6518 C17.6071 19.5491 18.2694 19.3268 18.7981 18.7981 C19.3268 18.2694 19.5491 17.6071 19.6518 16.8431 C19.75 16.1123 19.75 15.1865 19.75 14.0537 L19.75 14 C19.75 13.5858 19.4142 13.25 19 13.25 Z M 5.75 14 C 5.75 13.5858 5.41421 13.25 5 13.25 C 4.58579 13.25 4.25 13.5858 4.25 14 L 4.25 14.0537 C 4.24997 15.1865 4.24996 16.1123 4.34822 16.8431 C 4.45093 17.6071 4.67321 18.2694 5.2019 18.7981 C 5.7306 19.3268 6.39293 19.5491 7.15688 19.6518 C 7.88773 19.75 8.81344 19.75 9.94624 19.75 H 10 C 10.4142 19.75 10.75 19.4142 10.75 19 C 10.75 18.5858 10.4142 18.25 10 18.25 C 8.80029 18.25 7.97595 18.2484 7.35676 18.1652 C 6.75914 18.0848 6.4661 17.941 6.26256 17.7374 C 6.05902 17.5339 5.91519 17.2409 5.83484 16.6432 C 5.75159 16.024 5.75 15.1997 5.75 14 Z M9.94631 4.25 C8.81348 4.24997 7.88775 4.24996 7.15688 4.34822 C6.39293 4.45093 5.7306 4.67321 5.2019 5.2019 C4.67321 5.7306 4.45093 6.39293 4.34822 7.15689 C4.24996 7.88775 4.24997 8.81348 4.25 9.94631 L4.25 10 C4.25 10.4142 4.58579 10.75 5 10.75 C5.41421 10.75 5.75 10.4142 5.75 10 C5.75 8.80029 5.75159 7.97595 5.83484 7.35676 C5.91519 6.75914 6.05902 6.4661 6.26256 6.26256 C6.4661 6.05902 6.75914 5.91519 7.35676 5.83484 C7.97595 5.75159 8.80029 5.75 10 5.75 C10.4142 5.75 10.75 5.41421 10.75 5 C10.75 4.58579 10.4142 4.25 10 4.25 L9.94631 4.25 Z M 14 5.75 C 15.1997 5.75 16.024 5.75159 16.6432 5.83484 C 17.2409 5.91519 17.5339 6.05902 17.7374 6.26256 C 17.941 6.4661 18.0848 6.75914 18.1652 7.35676 C 18.2484 7.97595 18.25 8.80029 18.25 10 C 18.25 10.4142 18.5858 10.75 19 10.75 C 19.4142 10.75 19.75 10.4142 19.75 10 V 9.94631 C 19.75 8.81349 19.75 7.88774 19.6518 7.15688 C 19.5491 6.39293 19.3268 5.7306 18.7981 5.2019 C 18.2694 4.67321 17.6071 4.45093 16.8431 4.34822 C 16.1123 4.24996 15.1865 4.24997 14.0537 4.25 L 14 4.25 C 13.5858 4.25 13.25 4.58579 13.25 5 C 13.25 5.41421 13.5858 5.75 14 5.75 Z" fill="#FFFFFF" />
</svg>