<svg xmlns="http://www.w3.org/2000/svg" width="24" height="24" viewBox="0 0 24 24" fill="none">
  <path fill-rule="nonzero" clip-rule="nonzero" d="M 6.25 12 C 6.25 11.2449 6.39873 10.4972 6.68769 9.79957 C 6.97666 9.10195 7.4002 8.46807 7.93414 7.93414 C 8.46807 7.4002 9.10195 6.97666 9.79957 6.68769 C 10.4972 6.39873 11.2449 6.25 12 6.25 C 12.7551 6.25 13.5028 6.39873 14.2004 6.68769 C 14.8981 6.97666 15.5319 7.4002 16.0659 7.93414 C 16.5998 8.46807 17.0233 9.10195 17.3123 9.79957 C 17.6013 10.4972 17.75 11.2449 17.75 12 C 17.75 12.7551 17.6013 13.5028 17.3123 14.2004 C 17.0233 14.8981 16.5998 15.5319 16.0659 16.0659 C 15.5319 16.5998 14.8981 17.0233 14.2004 17.3123 C 13.5028 17.6013 12.7551 17.75 12 17.75 C 11.2449 17.75 10.4972 17.6013 9.79957 17.3123 C 9.10195 17.0233 8.46807 16.5998 7.93414 16.0659 C 7.4002 15.5319 6.97666 14.8981 6.68769 14.2004 C 6.39873 13.5028 6.25 12.7551 6.25 12 Z M11.9438 7.76762 C11.9064 7.78619 11.8482 7.82491 11.7741 7.9016 C11.6214 8.05973 11.4461 8.33308 11.2821 8.74301 C11.1205 9.14714 10.9857 9.64428 10.8922 10.2092 C10.8369 10.5427 10.7973 10.8921 10.7741 11.25 L13.2259 11.25 C13.2027 10.8921 13.1631 10.5427 13.1078 10.2092 C13.0143 9.64428 12.8795 9.14714 12.7179 8.74301 C12.5539 8.33309 12.3786 8.05973 12.2259 7.9016 C12.1518 7.82491 12.0936 7.78619 12.0562 7.76762 C12.0215 7.75034 12.0044 7.75 12 7.75 C11.9956 7.75 11.9785 7.75034 11.9438 7.76762 Z M 9.27133 11.25 C 9.29642 10.811 9.34356 10.379 9.41233 9.96399 C 9.5089 9.38112 9.64788 8.8331 9.82738 8.3473 C 9.52472 8.52732 9.24492 8.74467 8.9948 8.9948 C 8.60015 9.38944 8.28709 9.85796 8.07351 10.3736 C 7.9564 10.6563 7.87045 10.9502 7.8167 11.25 H 9.27133 Z M7.8167 12.75 C7.87045 13.0498 7.9564 13.3437 8.07351 13.6264 C8.28709 14.142 8.60015 14.6106 8.9948 15.0052 C9.24492 15.2553 9.52472 15.4727 9.82738 15.6527 C9.64788 15.1669 9.5089 14.6189 9.41233 14.036 C9.34356 13.621 9.29642 13.189 9.27133 12.75 L7.8167 12.75 Z M 16.1833 11.25 C 16.1296 10.9502 16.0436 10.6563 15.9265 10.3736 C 15.7129 9.85796 15.3999 9.38945 15.0052 8.9948 C 14.7551 8.74467 14.4753 8.52732 14.1726 8.3473 C 14.3521 8.8331 14.4911 9.38113 14.5877 9.96399 C 14.6564 10.379 14.7036 10.811 14.7287 11.25 H 16.1833 Z M14.7287 12.75 C14.7036 13.189 14.6564 13.621 14.5877 14.036 C14.4911 14.6189 14.3521 15.1669 14.1726 15.6527 C14.4753 15.4727 14.7551 15.2553 15.0052 15.0052 C15.3999 14.6106 15.7129 14.142 15.9265 13.6264 C16.0436 13.3437 16.1296 13.0498 16.1833 12.75 L14.7287 12.75 Z M13.2259 12.75 L10.7741 12.75 C10.7973 13.1079 10.8369 13.4573 10.8922 13.7908 C10.9857 14.3557 11.1205 14.8529 11.2821 15.257 C11.4461 15.6669 11.6214 15.9403 11.7741 16.0984 C11.8482 16.1751 11.9064 16.2138 11.9438 16.2324 C11.9785 16.2497 11.9956 16.25 12 16.25 C12.0044 16.25 12.0215 16.2497 12.0562 16.2324 C12.0936 16.2138 12.1518 16.1751 12.2259 16.0984 C12.3786 15.9403 12.5539 15.6669 12.7179 15.257 C12.8795 14.8529 13.0143 14.3557 13.1078 13.7908 C13.1631 13.4573 13.2027 13.1079 13.2259 12.75 Z" fill="#FFFFFF" />
  <path fill-rule="nonzero" clip-rule="nonzero" d="M12 1.25 C12.9375 1.25 13.8327 1.55658 15.2766 2.05112 L16.004 2.30013 C17.4854 2.8072 18.6286 3.19852 19.447 3.53099 C19.8592 3.69846 20.2136 3.86067 20.499 4.02641 C20.7737 4.1859 21.0492 4.38484 21.2364 4.65154 C21.4214 4.91516 21.5171 5.23924 21.5772 5.55122 C21.6397 5.87556 21.6774 6.26464 21.7017 6.71136 C21.75 7.5984 21.75 8.81361 21.75 10.3898 L21.75 11.9914 C21.75 18.0924 17.142 21.0175 14.4017 22.2146 L14.3745 22.2264 C14.0348 22.3749 13.7154 22.5144 13.3484 22.6084 C12.9609 22.7076 12.5493 22.75 12 22.75 C11.4507 22.75 11.0391 22.7076 10.6516 22.6084 C10.2846 22.5144 9.96523 22.3749 9.62543 22.2264 L9.59833 22.2146 C6.85803 21.0175 2.25 18.0924 2.25 11.9914 L2.25 10.3896 C2.25 8.81351 2.25 7.59836 2.2983 6.71136 C2.32262 6.26464 2.36031 5.87556 2.42281 5.55122 C2.48293 5.23924 2.5786 4.91516 2.76363 4.65154 C2.95082 4.38484 3.22634 4.1859 3.50098 4.02641 C3.78637 3.86067 4.14078 3.69846 4.55303 3.53099 C5.37141 3.19852 6.51463 2.8072 7.99596 2.30013 L8.72339 2.05112 C10.1673 1.55658 11.0625 1.25 12 1.25 Z M9.08062 3.5143 L8.5078 3.71037 C6.99521 4.22814 5.8921 4.60605 5.11759 4.92069 C4.731 5.07774 4.4509 5.20935 4.25429 5.32353 C4.15722 5.3799 4.09034 5.42642 4.04567 5.46273 C4.0078 5.49351 3.99336 5.51095 3.99129 5.51349 C3.98936 5.51663 3.97693 5.5374 3.95943 5.58654 C3.93944 5.64265 3.91729 5.72309 3.89571 5.83506 C3.85204 6.06169 3.81894 6.37301 3.79608 6.79292 C3.75028 7.63411 3.75 8.80833 3.75 10.4167 L3.75 11.9914 C3.75 17.1665 7.6199 19.7135 10.1988 20.84 C10.5703 21.0023 10.7848 21.0941 11.0236 21.1552 C11.2517 21.2136 11.53 21.25 12 21.25 C12.47 21.25 12.7483 21.2136 12.9764 21.1552 C13.2152 21.0941 13.4297 21.0023 13.8012 20.84 C16.3801 19.7135 20.25 17.1665 20.25 11.9914 L20.25 10.4167 C20.25 8.80833 20.2497 7.63411 20.2039 6.79292 C20.1811 6.37301 20.148 6.06169 20.1043 5.83506 C20.0827 5.72309 20.0606 5.64265 20.0406 5.58654 C20.0231 5.53737 20.0106 5.5166 20.0087 5.51348 C20.0066 5.51092 19.9922 5.49349 19.9543 5.46273 C19.9097 5.42642 19.8428 5.3799 19.7457 5.32353 C19.5491 5.20935 19.269 5.07774 18.8824 4.92069 C18.1079 4.60605 17.0048 4.22814 15.4922 3.71037 L14.9194 3.5143 C13.3049 2.96164 12.6577 2.75 12 2.75 C11.3423 2.75 10.6951 2.96164 9.08062 3.5143 Z" fill="#FFFFFF" />
</svg>