<svg xmlns="http://www.w3.org/2000/svg" width="24" height="24" viewBox="0 0 24 24" fill="none">
  <path fill-rule="nonzero" clip-rule="nonzero" d="M 8.72339 2.05112 C 10.1673 1.55658 11.0625 1.25 12 1.25 C 12.9375 1.25 13.8327 1.55658 15.2766 2.05112 L 16.004 2.30013 C 17.4854 2.8072 18.6286 3.19852 19.447 3.53099 C 19.8592 3.69846 20.2136 3.86067 20.499 4.02641 C 20.7737 4.1859 21.0492 4.38484 21.2364 4.65154 C 21.4214 4.91516 21.5171 5.23924 21.5772 5.55122 C 21.6397 5.87556 21.6774 6.26464 21.7017 6.71136 C 21.75 7.5984 21.75 8.81361 21.75 10.3898 V 11.9914 C 21.75 18.0924 17.142 21.0175 14.4017 22.2146 L 14.3746 22.2264 C 14.0348 22.3749 13.7154 22.5144 13.3484 22.6084 C 12.9609 22.7076 12.5493 22.75 12 22.75 C 11.4507 22.75 11.0391 22.7076 10.6516 22.6084 C 10.2846 22.5144 9.96523 22.3749 9.62543 22.2264 L 9.59833 22.2146 C 6.85803 21.0175 2.25 18.0924 2.25 11.9914 V 10.3899 C 2.25 8.81378 2.25 7.59836 2.2983 6.71136 C 2.32262 6.26464 2.36031 5.87556 2.42281 5.55122 C 2.48293 5.23924 2.5786 4.91516 2.76363 4.65154 C 2.95082 4.38484 3.22634 4.1859 3.50098 4.02641 C 3.78637 3.86067 4.14078 3.69846 4.55303 3.53099 C 5.3714 3.19852 6.51462 2.8072 7.99595 2.30014 L 8.72339 2.05112 Z M 11.25 2.83792 C 10.7525 2.94604 10.1152 3.16015 9.08062 3.5143 L 8.5078 3.71037 C 6.99521 4.22814 5.8921 4.60605 5.11759 4.92069 C 4.731 5.07774 4.4509 5.20935 4.25429 5.32353 C 4.15722 5.3799 4.09034 5.42642 4.04567 5.46273 C 4.0078 5.49351 3.99336 5.51095 3.99129 5.51349 C 3.98936 5.51663 3.97693 5.5374 3.95943 5.58654 C 3.93944 5.64265 3.91729 5.72309 3.89571 5.83506 C 3.85204 6.06169 3.81894 6.37301 3.79608 6.79292 C 3.75473 7.55226 3.75048 8.58298 3.75005 9.95941 L 11.25 7.45943 V 2.83792 Z M 12.75 2.83792 V 7.45943 L 20.25 9.95941 C 20.2495 8.58298 20.2453 7.55226 20.2039 6.79292 C 20.1811 6.37301 20.148 6.06169 20.1043 5.83506 C 20.0827 5.72309 20.0606 5.64265 20.0406 5.58654 C 20.0231 5.53737 20.0106 5.5166 20.0087 5.51348 C 20.0066 5.51092 19.9922 5.49349 19.9543 5.46273 C 19.9097 5.42642 19.8428 5.3799 19.7457 5.32353 C 19.5491 5.20935 19.269 5.07774 18.8824 4.92069 C 18.1079 4.60605 17.0048 4.22814 15.4922 3.71037 L 14.9194 3.5143 C 13.8848 3.16015 13.2475 2.94604 12.75 2.83792 Z M 11.25 9.04057 L 3.75 11.5406 V 11.9914 C 3.75 17.1665 7.6199 19.7135 10.1988 20.84 C 10.5703 21.0023 10.7848 21.0941 11.0236 21.1552 C 11.0931 21.173 11.1672 21.1888 11.25 21.2021 V 9.04057 Z M12.75 21.2021 C12.8328 21.1888 12.9069 21.173 12.9764 21.1552 C13.2152 21.0941 13.4297 21.0023 13.8012 20.84 C16.3801 19.7135 20.25 17.1665 20.25 11.9914 L20.25 11.5406 L12.75 9.04057 L12.75 21.2021 Z" fill="#FFFFFF" />
</svg>