<svg xmlns="http://www.w3.org/2000/svg" width="24" height="24" viewBox="0 0 24 24" fill="none">
  <path fill-rule="nonzero" clip-rule="nonzero" d="M3.37752 5.08241 C3.75503 4.54454 5.25832 4.02996 8.26491 3.00079 L8.83772 2.80472 C10.405 2.26824 11.1886 2 12 2 C12.8114 2 13.595 2.26824 15.1623 2.80472 L15.7351 3.00079 C18.7417 4.02996 20.245 4.54454 20.6225 5.08241 C21 5.62028 21 7.21907 21 10.4167 L21 11.9914 C21 17.6294 16.761 20.3655 14.1014 21.5273 C13.38 21.8424 13.0193 22 12 22 C10.9807 22 10.62 21.8424 9.89856 21.5273 C7.23896 20.3655 3 17.6294 3 11.9914 L3 10.4167 C3 7.21907 3 5.62028 3.37752 5.08241 Z M13.5 15 L13.5 13.5987 C14.3967 13.0799 15 12.1104 15 11 C15 9.34315 13.6569 8 12 8 C10.3431 8 9 9.34315 9 11 C9 12.1104 9.6033 13.0799 10.5 13.5987 L10.5 15 C10.5 15.5523 10.9477 16 11.5 16 L12.5 16 C13.0523 16 13.5 15.5523 13.5 15 Z" fill="#FFFFFF" />
</svg>