<svg xmlns="http://www.w3.org/2000/svg" width="24" height="24" viewBox="0 0 24 24" fill="none">
  <path fill-rule="nonzero" clip-rule="nonzero" d="M 3 10.4167 C 3 7.21907 3 5.62028 3.37752 5.08241 C 3.75503 4.54454 5.25832 4.02996 8.26491 3.00079 L 8.83772 2.80472 C 10.405 2.26824 11.1886 2 12 2 C 12.8114 2 13.595 2.26824 15.1623 2.80472 L 15.7351 3.00079 C 18.7417 4.02996 20.245 4.54454 20.6225 5.08241 C 21 5.62028 21 7.21907 21 10.4167 V 11.9914 C 21 17.6294 16.761 20.3655 14.1014 21.5273 C 13.38 21.8424 13.0193 22 12 22 C 10.9807 22 10.62 21.8424 9.89856 21.5273 C 7.23896 20.3655 3 17.6294 3 11.9914 V 10.4167 Z M14 9 C14 7.89543 13.1046 7 12 7 C10.8954 7 10 7.89543 10 9 C10 10.1046 10.8954 11 12 11 C13.1046 11 14 10.1046 14 9 Z M 12 17 C 16 17 16 16.1046 16 15 C 16 13.8954 14.2091 13 12 13 C 9.79086 13 8 13.8954 8 15 C 8 16.1046 8 17 12 17 Z" fill="#FFFFFF" />
</svg>