<svg xmlns="http://www.w3.org/2000/svg" width="24" height="24" viewBox="0 0 24 24" fill="none">
  <path fill-rule="nonzero" clip-rule="nonzero" d="M3.37752 5.08241 C3.75503 4.54454 5.25832 4.02996 8.26491 3.00079 L8.83772 2.80472 C10.405 2.26824 11.1886 2 12 2 C12.8114 2 13.595 2.26824 15.1623 2.80472 L15.7351 3.00079 C18.7417 4.02996 20.245 4.54454 20.6225 5.08241 C21 5.62028 21 7.21907 21 10.4167 L21 11.9914 C21 17.6294 16.761 20.3655 14.1014 21.5273 C13.38 21.8424 13.0193 22 12 22 C10.9807 22 10.62 21.8424 9.89856 21.5273 C7.23896 20.3655 3 17.6294 3 11.9914 L3 10.4167 C3 7.21907 3 5.62028 3.37752 5.08241 Z M 10.0303 8.96965 C 9.73744 8.67676 9.26256 8.67676 8.96967 8.96965 C 8.67678 9.26254 8.67678 9.73742 8.96967 10.0303 L 10.9394 12 L 8.96969 13.9697 C 8.6768 14.2625 8.6768 14.7374 8.96969 15.0303 C 9.26258 15.3232 9.73746 15.3232 10.0304 15.0303 L 12 13.0607 L 13.9696 15.0303 C 14.2625 15.3232 14.7374 15.3232 15.0303 15.0303 C 15.3232 14.7374 15.3232 14.2625 15.0303 13.9696 L 13.0607 12 L 15.0303 10.0303 C 15.3232 9.73744 15.3232 9.26256 15.0303 8.96967 C 14.7374 8.67678 14.2626 8.67678 13.9697 8.96967 L 12 10.9393 L 10.0303 8.96965 Z" fill="#FFFFFF" />
</svg>