<svg xmlns="http://www.w3.org/2000/svg" width="24" height="24" viewBox="0 0 24 24" fill="none">
  <path fill-rule="nonzero" clip-rule="nonzero" d="M3.37752 5.08241 C3.75503 4.54454 5.25832 4.02996 8.26491 3.00079 L8.83772 2.80472 C10.405 2.26824 11.1886 2 12 2 C12.8114 2 13.595 2.26824 15.1623 2.80472 L15.7351 3.00079 C18.7417 4.02996 20.245 4.54454 20.6225 5.08241 C21 5.62028 21 7.21907 21 10.4167 L21 11.9914 C21 17.6294 16.761 20.3655 14.1014 21.5273 C13.38 21.8424 13.0193 22 12 22 C10.9807 22 10.62 21.8424 9.89856 21.5273 C7.23896 20.3655 3 17.6294 3 11.9914 L3 10.4167 C3 7.21907 3 5.62028 3.37752 5.08241 Z M 15.0595 10.4995 C 15.3353 10.1905 15.3085 9.71642 14.9995 9.44055 C 14.6905 9.16467 14.2164 9.19151 13.9405 9.50049 L 10.9286 12.8739 L 10.0595 11.9005 C 9.78358 11.5915 9.30947 11.5647 9.00049 11.8405 C 8.69151 12.1164 8.66467 12.5905 8.94055 12.8995 L 10.3691 14.4995 C 10.5114 14.6589 10.7149 14.75 10.9286 14.75 C 11.1422 14.75 11.3457 14.6589 11.488 14.4995 L 15.0595 10.4995 Z" fill="#FFFFFF" />
</svg>