<svg xmlns="http://www.w3.org/2000/svg" width="24" height="24" viewBox="0 0 24 24" fill="none">
  <path d="M10.8753 8.55212C11.3146 8.29848 11.8017 8.21007 12.2684 8.26664C12.9489 8.34912 13.5804 8.73856 13.9481 9.37549C14.3159 10.0124 14.3374 10.754 14.0686 11.3846C13.8842 11.817 13.5641 12.1947 13.1248 12.4484C12.0488 13.0695 10.6731 12.7009 10.0519 11.625C9.43069 10.5491 9.79933 9.1733 10.8753 8.55212Z" fill="#FFFFFF" />
  <path fill-rule="nonzero" clip-rule="nonzero" d="M3.37752 5.08241 C3.75503 4.54454 5.25832 4.02996 8.26491 3.00079 L8.83772 2.80472 C10.405 2.26824 11.1886 2 12 2 C12.8114 2 13.595 2.26824 15.1623 2.80472 L15.7351 3.00079 C18.7417 4.02996 20.245 4.54454 20.6225 5.08241 C21 5.62028 21 7.21907 21 10.4167 L21 11.9914 C21 17.6294 16.761 20.3655 14.1014 21.5273 C13.38 21.8424 13.0193 22 12 22 C10.9807 22 10.62 21.8424 9.89856 21.5273 C7.23896 20.3655 3 17.6294 3 11.9914 L3 10.4167 C3 7.21907 3 5.62028 3.37752 5.08241 Z M 12.4489 6.77754 C 11.6708 6.68322 10.8555 6.83147 10.1253 7.25308 C 8.33189 8.28848 7.71744 10.5816 8.75284 12.375 C 9.31127 13.3422 10.2356 13.9665 11.25 14.174 V 16.5002 C 11.25 16.9145 11.5858 17.2502 12 17.2502 C 12.4142 17.2502 12.75 16.9145 12.75 16.5002 V 14.175 C 13.1356 14.0963 13.5152 13.955 13.8748 13.7474 C 14.605 13.3258 15.141 12.6939 15.4484 11.9728 C 15.8943 10.927 15.8608 9.68827 15.2472 8.62549 C 14.6336 7.56272 13.5776 6.91434 12.4489 6.77754 Z" fill="#FFFFFF" />
</svg>