<svg xmlns="http://www.w3.org/2000/svg" width="24" height="24" viewBox="0 0 24 24" fill="none">
  <path d="M10.0303 8.96965C9.73744 8.67676 9.26256 8.67676 8.96967 8.96965C8.67678 9.26254 8.67678 9.73742 8.96967 10.0303L10.9394 12L8.96969 13.9697C8.6768 14.2625 8.6768 14.7374 8.96969 15.0303C9.26258 15.3232 9.73746 15.3232 10.0304 15.0303L12 13.0607L13.9696 15.0303C14.2625 15.3232 14.7374 15.3232 15.0303 15.0303C15.3232 14.7374 15.3232 14.2625 15.0303 13.9696L13.0607 12L15.0303 10.0303C15.3232 9.73744 15.3232 9.26256 15.0303 8.96967C14.7374 8.67678 14.2626 8.67678 13.9697 8.96967L12 10.9393L10.0303 8.96965Z" fill="#FFFFFF" />
  <path fill-rule="nonzero" clip-rule="nonzero" d="M12 1.25 C12.9375 1.25 13.8327 1.55658 15.2766 2.05112 L16.004 2.30013 C17.4854 2.8072 18.6286 3.19852 19.447 3.53099 C19.8592 3.69846 20.2136 3.86067 20.499 4.02641 C20.7737 4.1859 21.0492 4.38484 21.2364 4.65154 C21.4214 4.91516 21.5171 5.23924 21.5772 5.55122 C21.6397 5.87556 21.6774 6.26464 21.7017 6.71136 C21.75 7.5984 21.75 8.81361 21.75 10.3898 L21.75 11.9914 C21.75 18.0924 17.142 21.0175 14.4017 22.2146 L14.3745 22.2264 C14.0348 22.3749 13.7154 22.5144 13.3484 22.6084 C12.9609 22.7076 12.5493 22.75 12 22.75 C11.4507 22.75 11.0391 22.7076 10.6516 22.6084 C10.2846 22.5144 9.96523 22.3749 9.62543 22.2264 L9.59833 22.2146 C6.85803 21.0175 2.25 18.0924 2.25 11.9914 L2.25 10.3896 C2.25 8.81351 2.25 7.59836 2.2983 6.71136 C2.32262 6.26464 2.36031 5.87556 2.42281 5.55122 C2.48293 5.23924 2.5786 4.91516 2.76363 4.65154 C2.95082 4.38484 3.22634 4.1859 3.50098 4.02641 C3.78637 3.86067 4.14078 3.69846 4.55303 3.53099 C5.3714 3.19852 6.51462 2.8072 7.99595 2.30014 L8.72339 2.05112 C10.1673 1.55658 11.0625 1.25 12 1.25 Z M9.08062 3.5143 L8.5078 3.71037 C6.99521 4.22814 5.8921 4.60605 5.11759 4.92069 C4.731 5.07774 4.4509 5.20935 4.25429 5.32353 C4.15722 5.3799 4.09034 5.42642 4.04567 5.46273 C4.0078 5.49351 3.99336 5.51095 3.99129 5.51349 C3.98936 5.51663 3.97693 5.5374 3.95943 5.58654 C3.93944 5.64265 3.91729 5.72309 3.89571 5.83506 C3.85204 6.06169 3.81894 6.37301 3.79608 6.79292 C3.75028 7.63411 3.75 8.80833 3.75 10.4167 L3.75 11.9914 C3.75 17.1665 7.6199 19.7135 10.1988 20.84 C10.5703 21.0023 10.7848 21.0941 11.0236 21.1552 C11.2517 21.2136 11.53 21.25 12 21.25 C12.47 21.25 12.7483 21.2136 12.9764 21.1552 C13.2152 21.0941 13.4297 21.0023 13.8012 20.84 C16.3801 19.7135 20.25 17.1665 20.25 11.9914 L20.25 10.4167 C20.25 8.80833 20.2497 7.63411 20.2039 6.79292 C20.1811 6.37301 20.148 6.06169 20.1043 5.83506 C20.0827 5.72309 20.0606 5.64265 20.0406 5.58654 C20.0231 5.53737 20.0106 5.5166 20.0087 5.51348 C20.0066 5.51092 19.9922 5.49349 19.9543 5.46273 C19.9097 5.42642 19.8428 5.3799 19.7457 5.32353 C19.5491 5.20935 19.269 5.07774 18.8824 4.92069 C18.1079 4.60605 17.0048 4.22814 15.4922 3.71037 L14.9194 3.5143 C13.3049 2.96164 12.6577 2.75 12 2.75 C11.3423 2.75 10.6951 2.96164 9.08062 3.5143 Z" fill="#FFFFFF" />
</svg>