<svg xmlns="http://www.w3.org/2000/svg" width="24" height="24" viewBox="0 0 24 24" fill="none">
  <path fill-rule="nonzero" clip-rule="nonzero" d="M3.37752 5.08241 C3.75503 4.54454 5.25832 4.02996 8.26491 3.00079 L8.83772 2.80472 C10.405 2.26824 11.1886 2 12 2 C12.8114 2 13.595 2.26824 15.1623 2.80472 L15.7351 3.00079 C18.7417 4.02996 20.245 4.54454 20.6225 5.08241 C21 5.62028 21 7.21907 21 10.4167 L21 11.9914 C21 17.6294 16.761 20.3655 14.1014 21.5273 C13.38 21.8424 13.0193 22 12 22 C10.9807 22 10.62 21.8424 9.89856 21.5273 C7.23896 20.3655 3 17.6294 3 11.9914 L3 10.4167 C3 7.21907 3 5.62028 3.37752 5.08241 Z M 16.45 10.95 L 13.05 8.4 C 12.4278 7.93333 11.5722 7.93333 10.95 8.4 L 7.55 10.95 C 7.21863 11.1985 7.15147 11.6686 7.4 12 C 7.64853 12.3314 8.11863 12.3985 8.45 12.15 L 11.85 9.6 C 11.9389 9.53333 12.0611 9.53333 12.15 9.6 L 15.55 12.15 C 15.8814 12.3985 16.3515 12.3314 16.6 12 C 16.8485 11.6686 16.7814 11.1985 16.45 10.95 Z M 14.45 13.45 L 12.45 11.95 C 12.1833 11.75 11.8167 11.75 11.55 11.95 L 9.55 13.45 C 9.21863 13.6985 9.15147 14.1686 9.4 14.5 C 9.64853 14.8314 10.1186 14.8985 10.45 14.65 L 12 13.4875 L 13.55 14.65 C 13.8814 14.8985 14.3515 14.8314 14.6 14.5 C 14.8485 14.1686 14.7814 13.6985 14.45 13.45 Z" fill="#FFFFFF" />
</svg>