<svg xmlns="http://www.w3.org/2000/svg" width="24" height="24" viewBox="0 0 24 24" fill="none">
  <path d="M19.3517 7.61665L15.3929 4.05375C14.2651 3.03868 13.7012 2.53114 13.0092 2.26562L13 5.00011C13 7.35713 13 8.53564 13.7322 9.26787C14.4645 10.0001 15.643 10.0001 18 10.0001H21.5801C21.2175 9.29588 20.5684 8.71164 19.3517 7.61665Z" fill="#FFFFFF" />
  <path fill-rule="nonzero" clip-rule="nonzero" d="M10 22 C6.22876 22 4.34315 22 3.17157 20.8284 C2 19.6569 2 17.7712 2 14 L2 10 C2 6.22876 2 4.34315 3.17157 3.17157 C4.34315 2 6.23869 2 10.0298 2 C10.6358 2 11.1214 2 11.53 2.01666 C11.5166 2.09659 11.5095 2.17813 11.5092 2.26057 L11.5 5.09497 C11.4999 6.19207 11.4998 7.16164 11.6049 7.94316 C11.7188 8.79028 11.9803 9.63726 12.6716 10.3285 C13.3628 11.0198 14.2098 11.2813 15.0569 11.3952 C15.8385 11.5003 16.808 11.5002 17.9051 11.5001 L18 11.5001 L21.9574 11.5001 C22 12.0344 22 12.6901 22 13.5629 L22 14 C22 17.7712 22 19.6569 20.8284 20.8284 C19.6569 22 17.7712 22 14 22 L10 22 Z M10.9697 15.4697 C10.6768 15.7626 10.6768 16.2374 10.9697 16.5303 L11.4393 17 L10.9697 17.4697 C10.6768 17.7626 10.6768 18.2374 10.9697 18.5303 C11.2626 18.8232 11.7374 18.8232 12.0303 18.5303 L13.0303 17.5303 C13.3232 17.2374 13.3232 16.7626 13.0303 16.4697 L12.0303 15.4697 C11.7374 15.1768 11.2626 15.1768 10.9697 15.4697 Z M 10.7022 14.2633 C 10.8477 13.8755 10.6512 13.4432 10.2633 13.2978 C 9.8755 13.1523 9.44319 13.3488 9.29775 13.7367 L 7.79775 17.7367 C 7.65231 18.1245 7.84882 18.5568 8.23666 18.7022 C 8.6245 18.8477 9.05681 18.6512 9.20225 18.2633 L 10.7022 14.2633 Z M7.53033 13.4697 C7.23744 13.1768 6.76256 13.1768 6.46967 13.4697 L5.46967 14.4697 C5.17678 14.7626 5.17678 15.2374 5.46967 15.5303 L6.46967 16.5303 C6.76256 16.8232 7.23744 16.8232 7.53033 16.5303 C7.82322 16.2374 7.82322 15.7626 7.53033 15.4697 L7.06066 15 L7.53033 14.5303 C7.82322 14.2374 7.82322 13.7626 7.53033 13.4697 Z" fill="#FFFFFF" />
</svg>