<svg xmlns="http://www.w3.org/2000/svg" width="24" height="24" viewBox="0 0 24 24" fill="none">
  <path d="M19.3517 7.61665L15.3929 4.05375C14.2651 3.03868 13.7012 2.53114 13.0092 2.26562L13 5.00011C13 7.35713 13 8.53564 13.7322 9.26787C14.4645 10.0001 15.643 10.0001 18 10.0001H21.5801C21.2175 9.29588 20.5684 8.71164 19.3517 7.61665Z" fill="#FFFFFF" />
  <path fill-rule="nonzero" clip-rule="nonzero" d="M 14 22 H 10 C 6.22876 22 4.34315 22 3.17157 20.8284 C 2 19.6569 2 17.7712 2 14 V 10 C 2 6.22876 2 4.34315 3.17157 3.17157 C 4.34315 2 6.23869 2 10.0298 2 C 10.6358 2 11.1214 2 11.53 2.01666 C 11.5166 2.09659 11.5095 2.17813 11.5092 2.26057 L 11.5 5.09497 C 11.4999 6.19207 11.4998 7.16164 11.6049 7.94316 C 11.7188 8.79028 11.9803 9.63726 12.6716 10.3285 C 13.3628 11.0198 14.2098 11.2813 15.0569 11.3952 C 15.8385 11.5003 16.808 11.5002 17.9051 11.5001 L 18 11.5001 H 21.9574 C 22 12.0344 22 12.6901 22 13.5629 V 14 C 22 17.7712 22 19.6569 20.8284 20.8284 C 19.6569 22 17.7712 22 14 22 Z M4.25 11.5 C4.25 12.0763 4.46664 12.6019 4.82292 13 C4.46664 13.3981 4.25 13.9237 4.25 14.5 C4.25 15.0763 4.46664 15.6019 4.82292 16 C4.46664 16.3981 4.25 16.9237 4.25 17.5 C4.25 18.7426 5.25736 19.75 6.5 19.75 C7.74264 19.75 8.75 18.7426 8.75 17.5 L8.75 16.622 C8.98458 16.7049 9.23702 16.75 9.5 16.75 C10.7426 16.75 11.75 15.7426 11.75 14.5 C11.75 13.9237 11.5334 13.3981 11.1771 13 C11.5334 12.6019 11.75 12.0763 11.75 11.5 C11.75 10.2574 10.7426 9.25 9.5 9.25 L6.5 9.25 C5.25736 9.25 4.25 10.2574 4.25 11.5 Z M 5.75 14.5 C 5.75 14.0858 6.08579 13.75 6.5 13.75 H 7.25 V 15.25 H 6.5 C 6.08579 15.25 5.75 14.9142 5.75 14.5 Z M 7.25 12.25 H 6.5 C 6.08579 12.25 5.75 11.9142 5.75 11.5 C 5.75 11.0858 6.08579 10.75 6.5 10.75 H 7.25 V 12.25 Z M 10.25 11.5 C 10.25 11.9142 9.91421 12.25 9.5 12.25 H 8.75 V 10.75 H 9.5 C 9.91421 10.75 10.25 11.0858 10.25 11.5 Z M 8.75 14.5 C 8.75 14.0858 9.08579 13.75 9.5 13.75 C 9.91421 13.75 10.25 14.0858 10.25 14.5 C 10.25 14.9142 9.91421 15.25 9.5 15.25 C 9.08579 15.25 8.75 14.9142 8.75 14.5 Z M 6.5 16.75 H 7.25 V 17.5 C 7.25 17.9142 6.91421 18.25 6.5 18.25 C 6.08579 18.25 5.75 17.9142 5.75 17.5 C 5.75 17.0858 6.08579 16.75 6.5 16.75 Z" fill="#FFFFFF" />
</svg>