<svg xmlns="http://www.w3.org/2000/svg" width="24" height="24" viewBox="0 0 24 24" fill="none">
  <path fill-rule="nonzero" clip-rule="nonzero" d="M 12.25 2.83422 C 11.7896 2.75598 11.162 2.75005 10.0298 2.75005 C 8.11311 2.75005 6.75075 2.75163 5.71785 2.88987 C 4.70596 3.0253 4.12453 3.27933 3.7019 3.70195 C 3.27869 4.12516 3.02502 4.70481 2.88976 5.7109 C 2.75159 6.73856 2.75 8.09323 2.75 10.0001 V 14.0001 C 2.75 15.9069 2.75159 17.2615 2.88976 18.2892 C 3.02502 19.2953 3.27869 19.8749 3.7019 20.2981 C 4.12511 20.7214 4.70476 20.975 5.71085 21.1103 C 6.73851 21.2485 8.09318 21.2501 10 21.2501 H 14 C 15.9068 21.2501 17.2615 21.2485 18.2892 21.1103 C 19.2952 20.975 19.8749 20.7214 20.2981 20.2981 C 20.7213 19.8749 20.975 19.2953 21.1102 18.2892 C 21.2484 17.2615 21.25 15.9069 21.25 14.0001 V 13.5629 C 21.25 12.0269 21.2392 11.2988 21.0762 10.7501 H 17.9463 C 16.8135 10.7501 15.8877 10.7501 15.1569 10.6518 C 14.3929 10.5491 13.7306 10.3268 13.2019 9.79815 C 12.6732 9.26945 12.4509 8.60712 12.3482 7.84317 C 12.25 7.1123 12.25 6.18657 12.25 5.05374 V 2.83422 Z M 13.75 3.6095 V 5.00005 C 13.75 6.19976 13.7516 7.0241 13.8348 7.64329 C 13.9152 8.24091 14.059 8.53395 14.2626 8.73749 C 14.4661 8.94103 14.7591 9.08486 15.3568 9.16521 C 15.976 9.24846 16.8003 9.25005 18 9.25005 H 20.0195 C 19.723 8.9625 19.3432 8.61797 18.85 8.17407 L 14.8912 4.61117 C 14.4058 4.17433 14.0446 3.85187 13.75 3.6095 Z M 10.1755 1.25002 C 11.5601 1.24965 12.4546 1.24942 13.2779 1.56535 C 14.1012 1.88129 14.7632 2.47735 15.7873 3.39955 C 15.8226 3.43139 15.8584 3.46361 15.8947 3.49623 L 19.8534 7.05912 C 19.8956 7.09705 19.9372 7.1345 19.9783 7.17149 C 21.162 8.23614 21.9274 8.92458 22.3391 9.84902 C 22.7508 10.7734 22.7505 11.8029 22.75 13.3949 C 22.75 13.4502 22.75 13.5062 22.75 13.5629 V 14.0565 C 22.75 15.8942 22.75 17.3499 22.5969 18.4891 C 22.4392 19.6615 22.1071 20.6104 21.3588 21.3588 C 20.6104 22.1072 19.6614 22.4393 18.489 22.5969 C 17.3498 22.7501 15.8942 22.7501 14.0564 22.7501 H 9.94359 C 8.10583 22.7501 6.65019 22.7501 5.51098 22.5969 C 4.33856 22.4393 3.38961 22.1072 2.64124 21.3588 C 1.89288 20.6104 1.56076 19.6615 1.40314 18.4891 C 1.24997 17.3499 1.24998 15.8942 1.25 14.0565 V 9.94363 C 1.24998 8.10587 1.24997 6.65024 1.40314 5.51103 C 1.56076 4.33861 1.89288 3.38966 2.64124 2.64129 C 3.39019 1.89235 4.34232 1.56059 5.51887 1.40313 C 6.66283 1.25002 8.1257 1.25003 9.97352 1.25005 L 10.0298 1.25005 C 10.0789 1.25005 10.1275 1.25004 10.1755 1.25002 Z" fill="#FFFFFF" />
  <path fill-rule="nonzero" clip-rule="nonzero" d="M 4.25 11.5001 C 4.25 10.2574 5.25736 9.25005 6.5 9.25005 H 9.5 C 10.7426 9.25005 11.75 10.2574 11.75 11.5001 C 11.75 12.0763 11.5334 12.602 11.1771 13.0001 C 11.5334 13.3981 11.75 13.9238 11.75 14.5001 C 11.75 15.7427 10.7426 16.7501 9.5 16.7501 C 9.23702 16.7501 8.98458 16.7049 8.75 16.622 V 17.5 C 8.75 18.7427 7.74264 19.75 6.5 19.75 C 5.25736 19.75 4.25 18.7427 4.25 17.5 C 4.25 16.9238 4.46664 16.3981 4.82292 16.0001 C 4.46664 15.602 4.25 15.0763 4.25 14.5001 C 4.25 13.9238 4.46664 13.3981 4.82292 13.0001 C 4.46664 12.602 4.25 12.0763 4.25 11.5001 Z M 6.5 13.7501 C 6.08579 13.7501 5.75 14.0858 5.75 14.5001 C 5.75 14.9143 6.08579 15.2501 6.5 15.2501 H 7.25 V 13.7501 H 6.5 Z M7.25 12.2501 L7.25 10.7501 L6.5 10.7501 C6.08579 10.7501 5.75 11.0858 5.75 11.5001 C5.75 11.9143 6.08579 12.2501 6.5 12.2501 L7.25 12.2501 Z M 9.5 12.2501 C 9.91421 12.2501 10.25 11.9143 10.25 11.5001 C 10.25 11.0858 9.91421 10.7501 9.5 10.7501 H 8.75 V 12.2501 H 9.5 Z M 9.5 13.7501 C 9.08579 13.7501 8.75 14.0858 8.75 14.5001 C 8.75 14.9143 9.08579 15.2501 9.5 15.2501 C 9.91421 15.2501 10.25 14.9143 10.25 14.5001 C 10.25 14.0858 9.91421 13.7501 9.5 13.7501 Z M 7.25 16.7501 H 6.5 C 6.08579 16.7501 5.75 17.0858 5.75 17.5 C 5.75 17.9143 6.08579 18.25 6.5 18.25 C 6.91421 18.25 7.25 17.9143 7.25 17.5 V 16.7501 Z" fill="#FFFFFF" />
</svg>