<svg xmlns="http://www.w3.org/2000/svg" width="24" height="24" viewBox="0 0 24 24" fill="none">
  <path d="M19.3517 7.61665L15.3929 4.05375C14.2651 3.03868 13.7012 2.53114 13.0092 2.26562L13 5.00011C13 7.35713 13 8.53564 13.7322 9.26787C14.4645 10.0001 15.643 10.0001 18 10.0001H21.5801C21.2175 9.29588 20.5684 8.71164 19.3517 7.61665Z" fill="#FFFFFF" />
  <path fill-rule="nonzero" clip-rule="nonzero" d="M10 22 C6.22876 22 4.34315 22 3.17157 20.8284 C2 19.6569 2 17.7712 2 14 L2 10 C2 6.22876 2 4.34315 3.17157 3.17157 C4.34315 2 6.23869 2 10.0298 2 C10.6358 2 11.1214 2 11.53 2.01666 C11.5166 2.09659 11.5095 2.17813 11.5092 2.26057 L11.5 5.09497 C11.4999 6.19207 11.4998 7.16164 11.6049 7.94316 C11.7188 8.79028 11.9803 9.63726 12.6716 10.3285 C13.3628 11.0198 14.2098 11.2813 15.0569 11.3952 C15.8385 11.5003 16.808 11.5002 17.9051 11.5001 L18 11.5001 L21.9574 11.5001 C22 12.0344 22 12.6901 22 13.5629 L22 14 C22 17.7712 22 19.6569 20.8284 20.8284 C19.6569 22 17.7712 22 14 22 L10 22 Z M 9.67215 18.513 L 11.5472 16.513 C 11.8176 16.2245 11.8176 15.7755 11.5472 15.487 L 9.67215 13.487 C 9.38885 13.1849 8.91423 13.1695 8.61204 13.4528 C 8.30986 13.7361 8.29455 14.2108 8.57785 14.513 L 9.26883 15.25 L 6 15.25 C 5.58579 15.25 5.25 15.5858 5.25 16 C 5.25 16.4142 5.58579 16.75 6 16.75 H 9.26883 L 8.57785 17.487 C 8.29455 17.7892 8.30986 18.2639 8.61204 18.5472 C 8.91423 18.8305 9.38885 18.8151 9.67215 18.513 Z" fill="#FFFFFF" />
</svg>