<svg xmlns="http://www.w3.org/2000/svg" width="24" height="24" viewBox="0 0 24 24" fill="none">
  <path fill-rule="nonzero" clip-rule="nonzero" d="M 12.25 2.83364 C 11.7897 2.75595 11.1622 2.75005 10.0325 2.75005 C 8.11516 2.75005 6.75231 2.75163 5.71904 2.88987 C 4.70675 3.02531 4.12505 3.27937 3.70224 3.70204 C 3.27888 4.12526 3.02515 4.70489 2.88984 5.71093 C 2.75163 6.73858 2.75004 8.09322 2.75004 10.0001 V 11.9397 C 2.75004 12.0247 2.75006 12.0794 2.75071 12.1201 C 2.75115 12.1474 2.75179 12.1594 2.75193 12.1622 C 2.77303 12.3333 2.95788 12.4327 3.11269 12.355 C 3.11507 12.3535 3.12546 12.3474 3.14844 12.3326 C 3.18268 12.3106 3.22827 12.2802 3.29895 12.2331 C 4.32966 11.5462 5.67238 11.5462 6.70309 12.2331 C 7.48963 12.7573 8.51437 12.7573 9.30092 12.2331 C 10.3316 11.5462 11.6743 11.5462 12.705 12.2331 C 13.4916 12.7573 14.5163 12.7573 15.3029 12.2331 C 16.3336 11.5462 17.6763 11.5462 18.707 12.2331 C 19.4749 12.7449 20.4699 12.757 21.2486 12.2694 C 21.2331 11.5536 21.1872 11.1061 21.0822 10.7501 H 17.9464 C 16.8135 10.7501 15.8878 10.7501 15.1569 10.6518 C 14.393 10.5491 13.7306 10.3268 13.2019 9.79815 C 12.6732 9.26945 12.451 8.60712 12.3483 7.84317 C 12.25 7.1123 12.25 6.18657 12.25 5.05374 V 2.83364 Z M 13.75 3.60621 V 5.00005 C 13.75 6.19976 13.7516 7.0241 13.8349 7.64329 C 13.9152 8.24091 14.0591 8.53395 14.2626 8.73749 C 14.4661 8.94103 14.7592 9.08486 15.3568 9.16521 C 15.976 9.24846 16.8003 9.25005 18 9.25005 H 20.0256 C 19.729 8.96252 19.3491 8.61801 18.8558 8.17415 L 14.8957 4.61125 C 14.4079 4.17239 14.0455 3.84897 13.75 3.60621 Z M 10.1781 1.25002 C 11.5632 1.24966 12.458 1.24942 13.2815 1.56532 C 14.105 1.88124 14.7671 2.47726 15.7916 3.3995 C 15.827 3.43133 15.8628 3.46354 15.899 3.49615 L 19.8591 7.05904 C 19.9012 7.09698 19.9429 7.13443 19.984 7.17143 C 21.1681 8.23605 21.9337 8.92449 22.3456 9.84894 C 22.665 10.566 22.7314 11.3208 22.7498 12.3135 C 22.7586 12.7861 22.5228 13.224 22.1367 13.4813 C 20.8464 14.3412 19.1655 14.3412 17.8751 13.4813 C 17.3482 13.1301 16.6617 13.1301 16.1347 13.4813 C 14.8444 14.3412 13.1635 14.3412 11.8732 13.4813 C 11.3462 13.1301 10.6597 13.1301 10.1328 13.4813 C 8.84247 14.3412 7.16153 14.3412 5.87122 13.4813 C 5.34428 13.1301 4.65776 13.1301 4.13082 13.4813 C 4.12065 13.4881 4.11049 13.4949 4.10035 13.5016 C 3.99516 13.5719 3.89221 13.6406 3.8042 13.6861 C 2.7139 14.2496 1.39658 13.5453 1.26078 12.3251 C 1.24982 12.2266 1.24992 12.1028 1.25002 11.9764 C 1.25003 11.9642 1.25004 11.952 1.25004 11.9397 L 1.25004 9.94362 C 1.25002 8.10587 1.25001 6.65023 1.40323 5.511 C 1.56091 4.33853 1.89315 3.38956 2.64175 2.64121 C 3.3909 1.8923 4.34326 1.56058 5.52012 1.40312 C 6.66442 1.25002 8.12775 1.25003 9.9762 1.25005 L 10.0325 1.25005 C 10.0816 1.25005 10.1302 1.25004 10.1781 1.25002 Z M 5.87122 17.4813 C 5.34428 17.1301 4.65776 17.1301 4.13082 17.4813 L 3.50462 17.8986 C 3.23667 18.0772 3.09148 18.1755 2.99303 18.2599 C 2.95012 18.2967 2.93103 18.3188 2.92289 18.3294 C 2.91659 18.3375 2.91459 18.3416 2.91241 18.3472 L 2.91189 18.3485 C 2.90502 18.366 2.89911 18.3809 2.90519 18.4446 C 2.91456 18.5426 2.94383 18.6724 3.00787 18.941 C 3.15512 19.5588 3.37674 19.9727 3.70224 20.2981 C 4.12563 20.7213 4.70555 20.975 5.71204 21.1103 C 6.74008 21.2485 8.09522 21.2501 10.0027 21.2501 H 14.004 C 15.9114 21.2501 17.2665 21.2485 18.2946 21.1103 C 19.3011 20.975 19.881 20.7213 20.3044 20.2981 C 20.7777 19.8249 21.0337 19.1631 21.1559 17.9503 C 20.0657 18.2922 18.8573 18.1358 17.8751 17.4813 C 17.3482 17.1301 16.6617 17.1301 16.1347 17.4813 C 14.8444 18.3412 13.1635 18.3412 11.8732 17.4813 C 11.3462 17.1301 10.6597 17.1301 10.1328 17.4813 C 8.84247 18.3412 7.16153 18.3412 5.87122 17.4813 Z M 3.29895 16.2331 C 4.32966 15.5462 5.67238 15.5462 6.70309 16.2331 C 7.48963 16.7573 8.51437 16.7573 9.30092 16.2331 C 10.3316 15.5462 11.6743 15.5462 12.705 16.2331 C 13.4916 16.7573 14.5163 16.7573 15.3029 16.2331 C 16.3336 15.5462 17.6763 15.5462 18.707 16.2331 C 19.4936 16.7573 20.5183 16.7573 21.3048 16.2331 C 21.9217 15.822 22.7521 16.2805 22.7211 17.0289 C 22.643 18.9115 22.3944 20.3297 21.3649 21.3589 C 20.6163 22.1072 19.6671 22.4393 18.4944 22.5969 C 17.3548 22.7501 15.8988 22.7501 14.0604 22.7501 H 9.94622 C 8.10785 22.7501 6.65178 22.7501 5.51223 22.5969 C 4.3395 22.4393 3.39032 22.1072 2.64175 21.3589 C 2.07476 20.7921 1.74372 20.1068 1.54875 19.2888 C 1.54199 19.2604 1.53504 19.2318 1.52803 19.2029 C 1.42725 18.7868 1.31309 18.3156 1.51639 17.7984 C 1.63157 17.5054 1.81385 17.2951 2.01648 17.1214 C 2.19255 16.9703 2.41575 16.8216 2.6442 16.6694 L 3.29895 16.2331 Z" fill="#FFFFFF" />
</svg>