<svg xmlns="http://www.w3.org/2000/svg" width="24" height="24" viewBox="0 0 24 24" fill="none">
  <path d="M19.3517 7.61665L15.3929 4.05375C14.2651 3.03868 13.7012 2.53114 13.0092 2.26562L13 5.00011C13 7.35713 13 8.53564 13.7322 9.26787C14.4645 10.0001 15.643 10.0001 18 10.0001H21.5801C21.2175 9.29588 20.5684 8.71164 19.3517 7.61665Z" fill="#FFFFFF" />
  <path fill-rule="nonzero" clip-rule="nonzero" d="M 14 22 H 10 C 6.22876 22 4.34315 22 3.17157 20.8284 C 2 19.6569 2 17.7712 2 14 V 10 C 2 6.22876 2 4.34315 3.17157 3.17157 C 4.34315 2 6.23869 2 10.0298 2 C 10.6358 2 11.1214 2 11.53 2.01666 C 11.5166 2.09659 11.5095 2.17813 11.5092 2.26057 L 11.5 5.09497 C 11.4999 6.19207 11.4998 7.16164 11.6049 7.94316 C 11.7188 8.79028 11.9803 9.63726 12.6716 10.3285 C 13.3628 11.0198 14.2098 11.2813 15.0569 11.3952 C 15.8385 11.5003 16.808 11.5002 17.9051 11.5001 L 18 11.5001 H 21.9574 C 22 12.0344 22 12.6901 22 13.5629 V 14 C 22 17.7712 22 19.6569 20.8284 20.8284 C 19.6569 22 17.7712 22 14 22 Z M 9.95236 13.1989 L 9.85405 13.0225 C 9.47406 12.3408 9.28406 12 9 12 C 8.71594 12 8.52594 12.3408 8.14595 13.0225 L 8.04764 13.1989 C 7.93966 13.3926 7.88567 13.4894 7.80148 13.5533 C 7.7173 13.6172 7.61245 13.641 7.40277 13.6884 L 7.21186 13.7316 C 6.47396 13.8986 6.10501 13.982 6.01723 14.2643 C 5.92945 14.5466 6.18097 14.8407 6.68403 15.429 L 6.81418 15.5812 C 6.95713 15.7483 7.0286 15.8319 7.06076 15.9353 C 7.09291 16.0387 7.08211 16.1502 7.0605 16.3733 L 7.04082 16.5763 C 6.96476 17.3612 6.92674 17.7536 7.15654 17.9281 C 7.38635 18.1025 7.7318 17.9435 8.4227 17.6253 L 8.60145 17.5431 C 8.79778 17.4527 8.89594 17.4075 9 17.4075 C 9.10406 17.4075 9.20222 17.4527 9.39855 17.5431 L 9.5773 17.6254 C 10.2682 17.9435 10.6136 18.1025 10.8435 17.9281 C 11.0733 17.7536 11.0352 17.3612 10.9592 16.5763 L 10.9395 16.3733 C 10.9179 16.1502 10.9071 16.0387 10.9392 15.9353 C 10.9714 15.8319 11.0429 15.7483 11.1858 15.5812 L 11.316 15.429 C 11.819 14.8407 12.0706 14.5466 11.9828 14.2643 C 11.895 13.982 11.526 13.8986 10.7881 13.7316 L 10.5972 13.6884 C 10.3875 13.641 10.2827 13.6172 10.1985 13.5533 C 10.1143 13.4894 10.0603 13.3926 9.95236 13.1989 Z" fill="#FFFFFF" />
</svg>