<svg xmlns="http://www.w3.org/2000/svg" width="24" height="24" viewBox="0 0 24 24" fill="none">
  <path fill-rule="nonzero" clip-rule="nonzero" d="M 12.25 2.83422 C 11.7896 2.75598 11.162 2.75005 10.0298 2.75005 C 8.11311 2.75005 6.75075 2.75163 5.71785 2.88987 C 4.70596 3.0253 4.12453 3.27933 3.7019 3.70195 C 3.27869 4.12516 3.02502 4.70481 2.88976 5.7109 C 2.75159 6.73856 2.75 8.09323 2.75 10.0001 V 14.0001 C 2.75 15.9069 2.75159 17.2615 2.88976 18.2892 C 3.02502 19.2953 3.27869 19.8749 3.7019 20.2981 C 4.12511 20.7214 4.70476 20.975 5.71085 21.1103 C 6.73851 21.2485 8.09318 21.2501 10 21.2501 H 14 C 15.9068 21.2501 17.2615 21.2485 18.2892 21.1103 C 19.2952 20.975 19.8749 20.7214 20.2981 20.2981 C 20.7213 19.8749 20.975 19.2953 21.1102 18.2892 C 21.2484 17.2615 21.25 15.9069 21.25 14.0001 V 13.5629 C 21.25 12.0269 21.2392 11.2988 21.0762 10.7501 H 17.9463 C 16.8135 10.7501 15.8877 10.7501 15.1569 10.6518 C 14.3929 10.5491 13.7306 10.3268 13.2019 9.79815 C 12.6732 9.26945 12.4509 8.60712 12.3482 7.84317 C 12.25 7.1123 12.25 6.18657 12.25 5.05374 V 2.83422 Z M 13.75 3.6095 V 5.00005 C 13.75 6.19976 13.7516 7.0241 13.8348 7.64329 C 13.9152 8.24091 14.059 8.53395 14.2626 8.73749 C 14.4661 8.94103 14.7591 9.08486 15.3568 9.16521 C 15.976 9.24846 16.8003 9.25005 18 9.25005 H 20.0195 C 19.723 8.9625 19.3432 8.61797 18.85 8.17407 L 14.8912 4.61117 C 14.4058 4.17433 14.0446 3.85187 13.75 3.6095 Z M 10.1755 1.25002 C 11.5601 1.24965 12.4546 1.24942 13.2779 1.56535 C 14.1012 1.88129 14.7632 2.47735 15.7873 3.39955 C 15.8226 3.43139 15.8584 3.46361 15.8947 3.49623 L 19.8534 7.05912 C 19.8956 7.09705 19.9372 7.1345 19.9783 7.17149 C 21.162 8.23614 21.9274 8.92458 22.3391 9.84902 C 22.7508 10.7734 22.7505 11.8029 22.75 13.3949 C 22.75 13.4502 22.75 13.5062 22.75 13.5629 V 14.0565 C 22.75 15.8942 22.75 17.3499 22.5969 18.4891 C 22.4392 19.6615 22.1071 20.6104 21.3588 21.3588 C 20.6104 22.1072 19.6614 22.4393 18.489 22.5969 C 17.3498 22.7501 15.8942 22.7501 14.0564 22.7501 H 9.94359 C 8.10583 22.7501 6.65019 22.7501 5.51098 22.5969 C 4.33856 22.4393 3.38961 22.1072 2.64124 21.3588 C 1.89288 20.6104 1.56076 19.6615 1.40314 18.4891 C 1.24997 17.3499 1.24998 15.8942 1.25 14.0565 V 9.94363 C 1.24998 8.10587 1.24997 6.65024 1.40314 5.51103 C 1.56076 4.33861 1.89288 3.38966 2.64124 2.64129 C 3.39019 1.89235 4.34232 1.56059 5.51887 1.40313 C 6.66283 1.25002 8.1257 1.25003 9.97352 1.25005 L 10.0298 1.25005 C 10.0789 1.25005 10.1275 1.25004 10.1755 1.25002 Z" fill="#FFFFFF" />
  <path fill-rule="nonzero" clip-rule="nonzero" d="M 9 13.0345 C 8.94187 13.1352 8.87722 13.2511 8.80104 13.3877 L 8.70273 13.5641 C 8.69579 13.5765 8.68836 13.5901 8.68039 13.6047 C 8.60186 13.7483 8.47182 13.9861 8.25497 14.1508 C 8.03359 14.3188 7.7673 14.3766 7.61159 14.4104 C 7.59599 14.4138 7.5815 14.417 7.56828 14.42 L 7.37737 14.4632 C 7.2022 14.5028 7.05951 14.5351 6.9375 14.5658 C 7.01686 14.6635 7.11995 14.7848 7.25403 14.9416 L 7.38418 15.0938 C 7.39341 15.1046 7.40345 15.1161 7.41414 15.1285 C 7.52208 15.2528 7.69634 15.4535 7.77693 15.7127 C 7.85656 15.9687 7.8291 16.2325 7.81177 16.3989 C 7.81004 16.4155 7.80841 16.4311 7.807 16.4457 L 7.78732 16.6487 C 7.76908 16.837 7.7549 16.9872 7.74545 17.1094 C 7.84966 17.0635 7.9682 17.009 8.10903 16.9441 L 8.28777 16.8618 C 8.30008 16.8562 8.31356 16.8498 8.32814 16.8429 C 8.47164 16.7753 8.72133 16.6575 9 16.6575 C 9.27867 16.6575 9.52836 16.7753 9.67186 16.8429 C 9.68644 16.8498 9.69992 16.8562 9.71223 16.8618 L 9.89097 16.9441 C 10.0318 17.009 10.1503 17.0635 10.2545 17.1094 C 10.2451 16.9872 10.2309 16.837 10.2127 16.6487 L 10.193 16.4457 C 10.1916 16.4311 10.19 16.4155 10.1882 16.3989 C 10.1709 16.2325 10.1434 15.9687 10.2231 15.7127 C 10.3037 15.4535 10.4779 15.2528 10.5859 15.1285 C 10.5965 15.1161 10.6066 15.1046 10.6158 15.0938 L 10.746 14.9416 C 10.8801 14.7848 10.9831 14.6635 11.0625 14.5658 C 10.9405 14.5351 10.7978 14.5028 10.6226 14.4632 L 10.4317 14.42 C 10.4185 14.417 10.404 14.4138 10.3884 14.4104 C 10.2327 14.3766 9.96641 14.3188 9.74503 14.1508 C 9.52819 13.9861 9.39814 13.7483 9.31961 13.6047 C 9.31164 13.5901 9.30421 13.5765 9.29727 13.5641 L 9.19896 13.3877 C 9.12278 13.2511 9.05814 13.1352 9 13.0345 Z M 8.0135 11.7997 C 8.18566 11.5749 8.4983 11.2501 9 11.2501 C 9.5017 11.2501 9.81434 11.5749 9.9865 11.7997 C 10.1508 12.0143 10.3163 12.3113 10.486 12.6158 C 10.4937 12.6297 10.5014 12.6435 10.5091 12.6574 L 10.6075 12.8337 C 10.6303 12.8746 10.6482 12.9068 10.6639 12.9343 C 10.6912 12.9408 10.723 12.948 10.7627 12.957 L 10.9536 13.0001 C 10.9693 13.0037 10.9849 13.0072 11.0006 13.0108 C 11.3284 13.0848 11.6542 13.1584 11.9042 13.257 C 12.1804 13.3658 12.5547 13.5778 12.6989 14.0417 C 12.8407 14.4974 12.6618 14.8834 12.5056 15.1315 C 12.3611 15.3611 12.1414 15.6179 11.9165 15.8808 C 11.9063 15.8927 11.8961 15.9046 11.886 15.9165 L 11.7558 16.0687 C 11.7213 16.109 11.6953 16.1394 11.6735 16.1657 C 11.6764 16.202 11.6805 16.2444 11.686 16.301 L 11.7057 16.504 C 11.7072 16.5195 11.7087 16.535 11.7102 16.5504 C 11.7444 16.9024 11.7774 17.2425 11.7653 17.5145 C 11.7526 17.7998 11.6841 18.2316 11.2969 18.5255 C 10.8975 18.8287 10.4564 18.7626 10.1767 18.6825 C 9.91895 18.6086 9.61442 18.4683 9.30769 18.327 C 9.293 18.3202 9.27832 18.3134 9.26363 18.3067 L 9.08488 18.2244 C 9.05144 18.209 9.02395 18.1963 9 18.1855 C 8.97605 18.1963 8.94857 18.209 8.91512 18.2244 L 8.73637 18.3067 C 8.72169 18.3134 8.707 18.3202 8.69231 18.327 C 8.38559 18.4683 8.08105 18.6086 7.8233 18.6825 C 7.54358 18.7626 7.10247 18.8287 6.70306 18.5255 C 6.31589 18.2316 6.24743 17.7998 6.23473 17.5145 C 6.22261 17.2425 6.25564 16.9024 6.28981 16.5504 C 6.29131 16.535 6.29282 16.5195 6.29432 16.504 L 6.31399 16.301 C 6.31948 16.2444 6.32356 16.202 6.32655 16.1657 C 6.30465 16.1394 6.27866 16.109 6.24418 16.0687 L 6.11403 15.9165 C 6.10385 15.9046 6.09368 15.8927 6.08351 15.8808 C 5.8586 15.6179 5.63891 15.3611 5.49436 15.1315 C 5.33817 14.8834 5.15934 14.4974 5.30106 14.0417 C 5.44532 13.5778 5.81962 13.3658 6.09576 13.257 C 6.34585 13.1584 6.67163 13.0848 6.99944 13.0108 C 7.01508 13.0072 7.03072 13.0037 7.04635 13.0001 L 7.23726 12.957 C 7.27698 12.948 7.30877 12.9408 7.3361 12.9343 C 7.3518 12.9068 7.36975 12.8746 7.39255 12.8337 L 7.49086 12.6574 C 7.49859 12.6435 7.50631 12.6297 7.51402 12.6158 C 7.68369 12.3113 7.84917 12.0143 8.0135 11.7997 Z" fill="#FFFFFF" />
</svg>