<svg xmlns="http://www.w3.org/2000/svg" width="24" height="24" viewBox="0 0 24 24" fill="none">
  <path fill-rule="nonzero" clip-rule="nonzero" d="M4.17157 3.17157 C5.17628 2.16686 6.70613 2.02377 9.5 2.00338 L9.5 3 C9.5 3.4714 9.5 3.70711 9.64645 3.85355 C9.79289 4 10.0286 4 10.5 4 L12 4 L12 6 L10.5 6 C10.0286 6 9.79289 6 9.64645 6.14645 C9.5 6.29289 9.5 6.5286 9.5 7 C9.5 7.4714 9.5 7.70711 9.64645 7.85355 C9.79289 8 10.0286 8 10.5 8 L12 8 L12 9 C12 9.4714 12 9.70711 12.1464 9.85355 C12.2929 10 12.5286 10 13 10 L13.5 10 C13.9714 10 14.2071 10 14.3536 9.85355 C14.5 9.70711 14.5 9.4714 14.5 9 C14.5 8.5286 14.5 8.29289 14.3536 8.14645 C14.2071 8 13.9714 8 13.5 8 L12 8 L12 6 L13.5 6 C13.9714 6 14.2071 6 14.3536 5.85355 C14.5 5.70711 14.5 5.4714 14.5 5 C14.5 4.5286 14.5 4.29289 14.3536 4.14645 C14.2071 4 13.9714 4 13.5 4 L12 4 L12 3 L12 2 L13 2 C16.7712 2 18.6569 2 19.8284 3.17157 C21 4.34315 21 6.22876 21 10 L21 14 C21 17.7712 21 19.6569 19.8284 20.8284 C18.6569 22 16.7712 22 13 22 L11 22 C7.22876 22 5.34315 22 4.17157 20.8284 C3 19.6569 3 17.7712 3 14 L3 10 C3 6.22876 3 4.34315 4.17157 3.17157 Z M 9.5 12.875 V 13 C 9.5 14.3807 10.6193 15.5 12 15.5 C 13.3807 15.5 14.5 14.3807 14.5 13 V 12.875 C 14.5 12.3918 14.1082 12 13.625 12 H 10.375 C 9.89175 12 9.5 12.3918 9.5 12.875 Z" fill="#FFFFFF" />
</svg>