<svg xmlns="http://www.w3.org/2000/svg" width="24" height="24" viewBox="0 0 24 24" fill="none">
  <path fill-rule="nonzero" clip-rule="nonzero" d="M7.2915 4.78559 C7.52471 4.71042 8.39226 4.53846 8.79689 4.46188 C10.9169 4.10173 13.0832 4.10174 15.2032 4.46189 C15.5892 4.53187 16.4308 4.69458 16.7085 4.7856 C19.212 5.52309 20.9631 7.79714 20.9994 10.4163 C21 10.4574 21 10.5036 21 10.596 L21 12.9192 C20.8982 12.9191 20.7947 12.9398 20.6956 12.9835 C15.1597 15.4273 8.84065 15.4273 3.30479 12.9835 C3.2056 12.9398 3.10197 12.9191 3 12.9192 L3 10.596 C3 10.5036 3 10.4574 3.00057 10.4163 C3.03694 7.79713 4.78799 5.52306 7.2915 4.78559 Z M 10 11.9259 C 9.58579 11.9259 9.25 12.2594 9.25 12.6708 C 9.25 13.0823 9.58579 13.4158 10 13.4158 H 14 C 14.4142 13.4158 14.75 13.0823 14.75 12.6708 C 14.75 12.2594 14.4142 11.9259 14 11.9259 H 10 Z" fill="#FFFFFF" />
  <path opacity="0.5" d="M8.87313 3.99175C9.17888 3.11649 10.0165 2.48989 10.9995 2.48989H12.9995C13.9826 2.48989 14.8202 3.11649 15.1259 3.99175C15.1714 4.12188 15.1935 4.27205 15.2027 4.46183C15.5887 4.53181 16.4303 4.69453 16.7081 4.78555V4.72453C16.7081 4.38601 16.6965 3.94261 16.5431 3.50336C16.0344 2.04714 14.641 1 12.9995 1H10.9995C9.35804 1 7.96471 2.04714 7.45601 3.50336C7.30256 3.94261 7.29102 4.38601 7.29102 4.72453V4.78553C7.52422 4.71037 8.39178 4.53841 8.7964 4.46182C8.80554 4.27205 8.82767 4.12188 8.87313 3.99175Z" fill="#FFFFFF" />
  <path opacity="0.5" d="M21 14.4767C20.1 14.8586 19.1814 15.1807 18.2502 15.443V16.6438C18.2502 17.0552 17.9144 17.3888 17.5002 17.3888C17.086 17.3888 16.7502 17.0552 16.7502 16.6438V15.8117C12.1726 16.7753 7.36827 16.3302 3 14.4766V16.0229C3 18.1266 4.47101 19.948 6.53853 20.4043C10.1356 21.1983 13.8644 21.1983 17.4615 20.4043C19.529 19.948 21 18.1266 21 16.0229V14.4767Z" fill="#FFFFFF" />
</svg>