<svg xmlns="http://www.w3.org/2000/svg" width="24" height="24" viewBox="0 0 24 24" fill="none">
  <path fill-rule="nonzero" clip-rule="nonzero" d="M 7.2915 4.78553 V 4.72453 C 7.2915 4.38601 7.30305 3.94261 7.4565 3.50336 C 7.9652 2.04714 9.35853 1 11 1 H 13 C 14.6415 1 16.0349 2.04714 16.5436 3.50336 C 16.697 3.94261 16.7085 4.38601 16.7085 4.72453 V 4.78555 C 19.212 5.52304 20.9631 7.79709 20.9994 10.4163 C 21 10.4574 21 10.5036 21 10.596 V 12.9191 C 20.8982 12.9191 20.7947 12.9398 20.6956 12.9835 C 15.1597 15.4273 8.84065 15.4273 3.30479 12.9835 C 3.2056 12.9397 3.10197 12.919 3 12.9191 V 10.596 C 3 10.5036 3 10.4574 3.00057 10.4163 C 3.03694 7.79707 4.78799 5.52301 7.2915 4.78553 Z M8.87362 3.99175 C8.82816 4.12188 8.80602 4.27205 8.79689 4.46182 C10.9169 4.10168 13.0832 4.10168 15.2032 4.46183 C15.194 4.27205 15.1719 4.12188 15.1264 3.99175 C14.8207 3.11649 13.9831 2.48989 13 2.48989 L11 2.48989 C10.017 2.48989 9.17937 3.11649 8.87362 3.99175 Z M9.25 12.6708 C9.25 13.0822 9.58579 13.4157 10 13.4157 L14 13.4157 C14.4142 13.4157 14.75 13.0822 14.75 12.6708 C14.75 12.2594 14.4142 11.9258 14 11.9258 L10 11.9258 C9.58579 11.9258 9.25 12.2594 9.25 12.6708 Z" fill="#FFFFFF" />
  <path d="M21 14.4769C20.1 14.8588 19.1814 15.1809 18.2502 15.4432V16.644C18.2502 17.0554 17.9144 17.3889 17.5002 17.3889C17.086 17.3889 16.7502 17.0554 16.7502 16.644V15.8119C12.1726 16.7754 7.36827 16.3304 3 14.4767V16.0231C3 18.1267 4.47101 19.9482 6.53853 20.4045C10.1356 21.1985 13.8644 21.1985 17.4615 20.4045C19.529 19.9482 21 18.1267 21 16.0231V14.4769Z" fill="#FFFFFF" />
</svg>