<svg xmlns="http://www.w3.org/2000/svg" width="24" height="24" viewBox="0 0 24 24" fill="none">
  <path d="M10.0002 12.25C9.58597 12.25 9.25019 12.5858 9.25019 13C9.25019 13.4142 9.58597 13.75 10.0002 13.75H14.0002C14.4144 13.75 14.7502 13.4142 14.7502 13C14.7502 12.5858 14.4144 12.25 14.0002 12.25H10.0002Z" fill="#FFFFFF" />
  <path fill-rule="nonzero" clip-rule="nonzero" d="M 7.32033 4.27529 C 7.65835 2.55091 9.17665 1.25 11.0002 1.25 H 13.0002 C 14.8238 1.25 16.3421 2.55092 16.6801 4.2753 C 19.6252 5.03147 21.7075 7.66894 21.7495 10.7198 C 21.7502 10.7665 21.7502 10.8178 21.7502 10.9044 V 13.9829 C 21.7504 13.994 21.7504 14.0052 21.7502 14.0163 V 16.375 C 21.7502 18.8445 20.035 20.9827 17.6244 21.5184 C 13.9201 22.3415 10.0803 22.3415 6.37602 21.5184 C 3.96535 20.9827 2.25019 18.8445 2.25019 16.375 V 14.0163 C 2.24994 14.0052 2.24994 13.994 2.25019 13.9829 V 10.9043 C 2.25019 10.8177 2.25019 10.7664 2.25083 10.7198 C 2.2929 7.66892 4.37523 5.03144 7.32033 4.27529 Z M9.01465 3.94034 C10.9935 3.63772 13.0069 3.63773 14.9858 3.94035 C14.6068 3.232 13.8594 2.75 13.0002 2.75 L11.0002 2.75 C10.1411 2.75 9.39359 3.23199 9.01465 3.94034 Z M20.2502 10.9111 C20.2502 10.8157 20.2502 10.7755 20.2497 10.7405 C20.2165 8.33419 18.5515 6.25854 16.2096 5.70414 C16.1756 5.69609 16.1363 5.68733 16.0432 5.66665 C15.959 5.64793 15.9191 5.63905 15.8797 5.63048 C13.3232 5.07434 10.6771 5.07434 8.12071 5.63048 C8.08131 5.63905 8.04138 5.64793 7.95714 5.66665 C7.86404 5.68733 7.82473 5.69609 7.79074 5.70414 C5.4489 6.25854 3.78387 8.33419 3.75069 10.7405 C3.7502 10.7755 3.75019 10.8157 3.75019 10.9111 L3.75019 13.5066 C9.02878 15.711 14.9716 15.711 20.2502 13.5066 L20.2502 10.9111 Z M3.75019 16.375 C3.75019 18.1415 4.97705 19.6709 6.70141 20.0541 C10.1914 20.8296 13.809 20.8296 17.299 20.0541 C19.0233 19.6709 20.2502 18.1415 20.2502 16.375 L20.2502 15.123 C19.5916 15.3772 18.9242 15.5999 18.2502 15.7911 L18.2502 17 C18.2502 17.4142 17.9144 17.75 17.5002 17.75 C17.086 17.75 16.7502 17.4142 16.7502 17 L16.7502 16.1622 C12.4332 17.0771 7.91456 16.7307 3.75019 15.123 L3.75019 16.375 Z" fill="#FFFFFF" />
</svg>