<svg xmlns="http://www.w3.org/2000/svg" width="24" height="24" viewBox="0 0 24 24" fill="none">
  <path fill-rule="nonzero" clip-rule="nonzero" d="M 11.9426 1.25 H 12.0574 C 14.3658 1.24999 16.1748 1.24998 17.5863 1.43975 C 19.031 1.63399 20.1711 2.03933 21.0659 2.93414 C 21.9607 3.82895 22.366 4.96897 22.5603 6.41371 C 22.75 7.82519 22.75 9.63423 22.75 11.9426 V 12.063 C 22.75 12.4239 22.75 12.7727 22.7493 13.1097 C 22.75 13.381 22.75 13.6655 22.75 13.9641 V 14 H 22.7449 C 22.733 15.4138 22.6932 16.5976 22.5603 17.5863 C 22.366 19.031 21.9607 20.1711 21.0659 21.0659 C 20.1711 21.9607 19.031 22.366 17.5863 22.5603 C 16.1748 22.75 14.3658 22.75 12.0574 22.75 H 11.9426 C 9.63423 22.75 7.82519 22.75 6.41371 22.5603 C 4.96897 22.366 3.82895 21.9607 2.93414 21.0659 C 2.03933 20.1711 1.63399 19.031 1.43975 17.5863 C 1.30682 16.5976 1.26701 15.4138 1.25509 14 H 1.25 V 13.9641 C 1.25 13.6655 1.25 13.381 1.25073 13.1096 C 1.25 12.7709 1.25 12.4203 1.25 12.0574 V 11.9426 C 1.24999 9.63423 1.24998 7.82519 1.43975 6.41371 C 1.63399 4.96897 2.03933 3.82895 2.93414 2.93414 C 3.82895 2.03933 4.96897 1.63399 6.41371 1.43975 C 7.82519 1.24998 9.63423 1.24999 11.9426 1.25 Z M21.0736 6.61358 C20.9018 5.33517 20.5749 4.56445 20.0052 3.9948 C19.4355 3.42514 18.6648 3.09825 17.3864 2.92637 C16.0864 2.75159 14.3782 2.75 12 2.75 C9.62178 2.75 7.91356 2.75159 6.61358 2.92637 C5.33517 3.09825 4.56445 3.42514 3.9948 3.9948 C3.42514 4.56445 3.09825 5.33517 2.92637 6.61358 C2.91012 6.73444 2.89537 6.85884 2.88197 6.98698 C3.31781 6.53974 3.82626 6.16372 4.38955 5.87671 C5.04769 5.54138 5.77479 5.39252 6.65494 5.32061 C7.51929 5.24999 8.59472 5.25 9.96644 5.25 L14.0336 5.25 C15.4053 5.25 16.4807 5.24999 17.3451 5.32061 C18.2252 5.39252 18.9523 5.54138 19.6104 5.87671 C20.1737 6.16372 20.6822 6.53975 21.118 6.98698 C21.1046 6.85884 21.0899 6.73445 21.0736 6.61358 Z M2.92637 17.3864 C3.09825 18.6648 3.42514 19.4355 3.9948 20.0052 C4.56445 20.5749 5.33517 20.9018 6.61358 21.0736 C7.91356 21.2484 9.62178 21.25 12 21.25 C14.3782 21.25 16.0864 21.2484 17.3864 21.0736 C18.6648 20.9018 19.4355 20.5749 20.0052 20.0052 C20.5749 19.4355 20.9018 18.6648 21.0736 17.3864 C21.2203 16.2956 21.245 14.9174 21.2492 13.0971 C21.2464 12.138 21.2346 11.3924 21.1844 10.7771 C21.12 9.9897 20.9964 9.48197 20.7868 9.07054 C20.3793 8.27085 19.7291 7.62068 18.9295 7.21322 C18.618 7.05453 18.2514 6.94512 17.75 6.87341 L17.75 10.8311 C17.75 11.2986 17.75 11.6821 17.7326 11.9839 C17.7155 12.2816 17.6786 12.5899 17.5563 12.8652 C17.1149 13.859 16.0259 14.3949 14.9691 14.1383 C14.6764 14.0673 14.4096 13.9084 14.1633 13.7404 C13.9136 13.57 13.6097 13.336 13.2392 13.0508 L13.2207 13.0365 C12.7513 12.6751 12.6192 12.5804 12.4981 12.5277 C12.1804 12.3897 11.8196 12.3897 11.5019 12.5277 C11.3808 12.5804 11.2487 12.6751 10.7793 13.0365 L10.7607 13.0508 C10.3903 13.3361 10.0864 13.57 9.83672 13.7404 C9.59039 13.9084 9.32356 14.0673 9.03086 14.1383 C7.97413 14.3949 6.88513 13.859 6.44371 12.8652 C6.32145 12.5899 6.28454 12.2816 6.26739 11.9839 C6.24999 11.6821 6.25 11.2986 6.25 10.831 L6.25 6.87341 C5.74864 6.94512 5.38199 7.05453 5.07054 7.21322 C4.27085 7.62068 3.62068 8.27085 3.21322 9.07054 C3.00359 9.48197 2.87996 9.9897 2.81563 10.7771 C2.76536 11.3924 2.75359 12.138 2.75084 13.0971 C2.755 14.9174 2.77972 16.2956 2.92637 17.3864 Z M14 6.75 L10 6.75 C9.10556 6.75 8.3708 6.75023 7.75 6.76692 L7.75 10.8076 C7.75 11.3043 7.7503 11.6442 7.7649 11.8976 C7.78003 12.1601 7.80769 12.2408 7.81457 12.2563 C7.96171 12.5876 8.32471 12.7662 8.67695 12.6807 C8.69342 12.6767 8.77428 12.6493 8.99148 12.5012 C9.20112 12.3582 9.47062 12.151 9.86419 11.848 L9.93121 11.7963 C10.3014 11.5109 10.5899 11.2885 10.9042 11.152 C11.6032 10.8483 12.3968 10.8483 13.0958 11.152 C13.4101 11.2885 13.6986 11.511 14.0688 11.7964 L14.1358 11.848 C14.5294 12.151 14.7989 12.3582 15.0085 12.5012 C15.2257 12.6493 15.3066 12.6767 15.323 12.6807 C15.6753 12.7662 16.0383 12.5876 16.1854 12.2563 C16.1923 12.2408 16.22 12.1601 16.2351 11.8976 C16.2497 11.6442 16.25 11.3043 16.25 10.8076 L16.25 6.76692 C15.6292 6.75023 14.8944 6.75 14 6.75 Z" fill="#FFFFFF" />
</svg>