<svg xmlns="http://www.w3.org/2000/svg" width="24" height="24" viewBox="0 0 24 24" fill="none">
  <path fill-rule="nonzero" clip-rule="nonzero" d="M3.46447 3.46447 C4.1485 2.78043 5.02727 2.4159 6.25 2.22164 L6.25 11.831 C6.25 12.2986 6.24999 12.6821 6.26739 12.9839 C6.28454 13.2816 6.32145 13.5899 6.44371 13.8652 C6.88513 14.859 7.97413 15.3949 9.03087 15.1383 C9.32356 15.0673 9.59039 14.9084 9.83672 14.7404 C10.0864 14.57 10.3903 14.336 10.7608 14.0508 L10.7793 14.0365 C11.2487 13.6751 11.3808 13.5804 11.5019 13.5277 C11.8196 13.3897 12.1804 13.3897 12.4981 13.5277 C12.6192 13.5804 12.7513 13.6751 13.2207 14.0365 L13.2392 14.0508 C13.6097 14.336 13.9136 14.57 14.1633 14.7404 C14.4096 14.9084 14.6764 15.0673 14.9691 15.1383 C16.0259 15.3949 17.1149 14.859 17.5563 13.8652 C17.6786 13.5899 17.7155 13.2816 17.7326 12.9839 C17.75 12.6821 17.75 12.2986 17.75 11.831 L17.75 2.22164 C18.9727 2.4159 19.8515 2.78043 20.5355 3.46447 C22 4.92893 22 7.28595 22 12 C22 16.714 22 19.0711 20.5355 20.5355 C19.0711 22 16.714 22 12 22 C7.28595 22 4.92893 22 3.46447 20.5355 C2 19.0711 2 16.714 2 12 C2 7.28595 2 4.92893 3.46447 3.46447 Z M 7 17.25 C 6.58579 17.25 6.25 17.5858 6.25 18 C 6.25 18.4142 6.58579 18.75 7 18.75 H 17 C 17.4142 18.75 17.75 18.4142 17.75 18 C 17.75 17.5858 17.4142 17.25 17 17.25 H 7 Z" fill="#FFFFFF" />
  <path d="M7.75 2.06874V11.8076C7.75 12.3043 7.7503 12.6442 7.7649 12.8976C7.78003 13.1601 7.80769 13.2408 7.81457 13.2563C7.96171 13.5876 8.32471 13.7662 8.67695 13.6807C8.69342 13.6767 8.77428 13.6493 8.99148 13.5012C9.20112 13.3582 9.47062 13.151 9.86419 12.848L9.93119 12.7964C10.3014 12.511 10.5899 12.2885 10.9042 12.152C11.6032 11.8483 12.3968 11.8483 13.0958 12.152C13.4101 12.2885 13.6986 12.5109 14.0688 12.7964L14.1358 12.848C14.5294 13.151 14.7989 13.3582 15.0085 13.5012C15.2257 13.6493 15.3066 13.6767 15.323 13.6807C15.6753 13.7662 16.0383 13.5876 16.1854 13.2563C16.1923 13.2408 16.22 13.1601 16.2351 12.8976C16.2497 12.6442 16.25 12.3043 16.25 11.8076V2.06874C15.0942 2 13.7004 2 12 2C10.2996 2 8.9058 2 7.75 2.06874Z" fill="#FFFFFF" />
</svg>