<svg xmlns="http://www.w3.org/2000/svg" width="24" height="24" viewBox="0 0 24 24" fill="none">
  <path fill-rule="nonzero" clip-rule="nonzero" d="M 9.94531 1.25 H 14.0551 C 15.4227 1.24998 16.525 1.24996 17.3919 1.36652 C 18.292 1.48754 19.0499 1.74643 19.6518 2.34835 C 20.2538 2.95027 20.5126 3.70814 20.6337 4.60825 C 20.7502 5.47522 20.7502 6.57754 20.7502 7.94513 V 16.0549 C 20.7502 17.4225 20.7502 18.5248 20.6337 19.3918 C 20.5126 20.2919 20.2538 21.0497 19.6518 21.6517 C 19.0499 22.2536 18.292 22.5125 17.3919 22.6335 C 16.525 22.75 15.4226 22.75 14.0551 22.75 H 9.94532 C 8.57773 22.75 7.4754 22.75 6.60844 22.6335 C 5.70833 22.5125 4.95045 22.2536 4.34854 21.6517 C 3.74662 21.0497 3.48773 20.2919 3.36671 19.3918 C 3.32801 19.1039 3.30216 18.7902 3.2849 18.4494 C 3.24582 18.326 3.23821 18.1912 3.26895 18.0568 C 3.25016 17.4649 3.25017 16.7991 3.25019 16.0549 V 7.94513 C 3.25017 6.57754 3.25015 5.47522 3.36671 4.60825 C 3.48773 3.70814 3.74662 2.95027 4.34854 2.34835 C 4.95045 1.74643 5.70833 1.48754 6.60843 1.36652 C 7.4754 1.24996 8.57772 1.24998 9.94531 1.25 Z M 4.77694 18.2491 C 4.79214 18.6029 4.81597 18.914 4.85333 19.1919 C 4.95199 19.9257 5.13243 20.3142 5.4092 20.591 C 5.68596 20.8678 6.07453 21.0482 6.80831 21.1469 C 7.56366 21.2484 8.56477 21.25 10.0002 21.25 H 14.0002 C 15.4356 21.25 16.4367 21.2484 17.1921 21.1469 C 17.9258 21.0482 18.3144 20.8678 18.5912 20.591 C 18.8679 20.3142 19.0484 19.9257 19.147 19.1919 C 19.2299 18.5756 19.2462 17.7958 19.2494 16.75 H 13.7502 V 19.5309 C 13.7502 19.5396 13.7502 19.5485 13.7502 19.5578 C 13.7504 19.6691 13.7506 19.8276 13.7293 19.9638 C 13.7033 20.1302 13.6177 20.4514 13.2851 20.6468 C 12.9647 20.8349 12.6513 20.765 12.5024 20.7187 C 12.3726 20.6783 12.2302 20.6105 12.124 20.56 C 12.1156 20.556 12.1074 20.5521 12.0995 20.5483 L 11.0002 20.0261 L 9.90087 20.5483 C 9.89294 20.5521 9.88477 20.5559 9.87636 20.56 C 9.7702 20.6105 9.62782 20.6783 9.49796 20.7187 C 9.34903 20.765 9.03567 20.8349 8.7153 20.6468 C 8.38263 20.4514 8.29705 20.1302 8.27104 19.9638 C 8.24976 19.8276 8.25 19.6691 8.25016 19.5578 C 8.25017 19.5485 8.25019 19.5396 8.25019 19.5309 V 16.75 H 7.89796 C 6.91971 16.75 6.5777 16.7564 6.31562 16.8267 C 5.5963 17.0194 5.02286 17.5541 4.77694 18.2491 Z M 9.75019 16.75 V 18.9592 L 10.4995 18.6033 C 10.5013 18.6024 10.5043 18.6009 10.5083 18.5989 C 10.5573 18.5738 10.7638 18.4682 11.0002 18.4682 C 11.2365 18.4682 11.443 18.5738 11.4921 18.5989 C 11.4961 18.6009 11.499 18.6024 11.5009 18.6033 L 12.2502 18.9592 V 16.75 H 9.75019 Z M7.89796 15.25 L19.2502 15.25 L19.2502 8 C19.2502 6.56458 19.2486 5.56347 19.147 4.80812 C19.0484 4.07435 18.8679 3.68577 18.5912 3.40901 C18.3144 3.13225 17.9258 2.9518 17.1921 2.85315 C16.4367 2.75159 15.4356 2.75 14.0002 2.75 L10.0002 2.75 C8.56477 2.75 7.56366 2.75159 6.80831 2.85315 C6.07453 2.9518 5.68596 3.13225 5.4092 3.40901 C5.13243 3.68577 4.95199 4.07435 4.85333 4.80812 C4.75178 5.56347 4.75019 6.56458 4.75019 8 L4.75019 15.9259 C5.10242 15.6798 5.49941 15.4925 5.92739 15.3778 C6.40605 15.2495 6.9642 15.2497 7.78217 15.25 C7.8202 15.25 7.85879 15.25 7.89796 15.25 Z M 7.25019 7 C 7.25019 6.58579 7.58597 6.25 8.00019 6.25 H 16.0002 C 16.4144 6.25 16.7502 6.58579 16.7502 7 C 16.7502 7.41421 16.4144 7.75 16.0002 7.75 H 8.00019 C 7.58597 7.75 7.25019 7.41421 7.25019 7 Z M 7.25019 10.5 C 7.25019 10.0858 7.58597 9.75 8.00019 9.75 H 13.0002 C 13.4144 9.75 13.7502 10.0858 13.7502 10.5 C 13.7502 10.9142 13.4144 11.25 13.0002 11.25 H 8.00019 C 7.58597 11.25 7.25019 10.9142 7.25019 10.5 Z" fill="#FFFFFF" />
</svg>