<svg xmlns="http://www.w3.org/2000/svg" width="24" height="24" viewBox="0 0 24 24" fill="none">
  <path fill-rule="nonzero" clip-rule="nonzero" d="M 12 2.75 C 6.89137 2.75 2.75 6.89137 2.75 12 C 2.75 17.1086 6.89137 21.25 12 21.25 C 17.1086 21.25 21.25 17.1086 21.25 12 C 21.25 6.89137 17.1086 2.75 12 2.75 Z M 1.25 12 C 1.25 6.06294 6.06294 1.25 12 1.25 C 17.9371 1.25 22.75 6.06294 22.75 12 C 22.75 17.9371 17.9371 22.75 12 22.75 C 6.06294 22.75 1.25 17.9371 1.25 12 Z M 11.9424 6.25 H 12.0576 C 12.9512 6.24996 13.7064 6.24992 14.3079 6.34188 C 14.9548 6.44078 15.5277 6.65951 15.9774 7.17088 C 16.4149 7.6684 16.5904 8.27867 16.6716 8.96509 C 16.75 9.6286 16.75 10.4695 16.75 11.5012 V 14.0856 C 16.75 14.8256 16.75 15.4355 16.7059 15.9005 C 16.6635 16.3463 16.569 16.8583 16.2136 17.2268 C 15.9475 17.5026 15.5976 17.6895 15.2082 17.7396 C 14.6586 17.8104 14.2027 17.509 13.877 17.2494 C 13.5333 16.9756 13.1249 16.5691 12.6403 16.0869 L 12.6078 16.0546 C 12.371 15.8189 12.2302 15.6799 12.1181 15.5877 C 12.0629 15.5423 12.0325 15.5237 12.0207 15.5173 C 12.0069 15.5151 11.9931 15.5151 11.9793 15.5173 C 11.9675 15.5237 11.9371 15.5423 11.8819 15.5877 C 11.7698 15.6799 11.629 15.8189 11.3922 16.0546 L 11.3597 16.0869 C 10.8751 16.5691 10.4667 16.9756 10.123 17.2494 C 9.79726 17.509 9.34141 17.8104 8.79176 17.7396 C 8.40243 17.6895 8.05246 17.5026 7.78645 17.2268 C 7.43101 16.8583 7.33649 16.3463 7.29414 15.9005 C 7.24997 15.4355 7.24999 14.8256 7.25 14.0856 V 11.5012 C 7.24998 10.4695 7.24997 9.6286 7.32841 8.96509 C 7.40956 8.27867 7.58508 7.6684 8.02257 7.17088 C 8.47226 6.65951 9.04523 6.44078 9.69211 6.34188 C 10.2936 6.24992 11.0488 6.24996 11.9424 6.25 Z M11.9851 15.5144 L11.9836 15.515 C11.9846 15.5147 11.9851 15.5144 11.9851 15.5144 Z M12.0149 15.5144 L12.0164 15.515 C12.0154 15.5145 12.0149 15.5144 12.0149 15.5144 Z M 9.91881 7.82465 C 9.47642 7.89229 9.2851 8.00665 9.149 8.16142 C 9.00071 8.33006 8.88333 8.58893 8.81804 9.1412 C 8.75124 9.70621 8.75 10.4579 8.75 11.5488 V 14.0455 C 8.75 14.8356 8.75082 15.3733 8.78742 15.7586 C 8.81873 16.0882 8.86876 16.1829 8.87285 16.1923 C 8.89864 16.2174 8.92347 16.2327 8.9452 16.2416 C 8.98079 16.224 9.05763 16.1804 9.18822 16.0763 C 9.45894 15.8606 9.8084 15.5144 10.3342 14.9913 L 10.3559 14.9697 C 10.5636 14.7629 10.7552 14.5723 10.929 14.4293 C 11.1163 14.2752 11.3449 14.1227 11.6388 14.0561 C 11.877 14.0021 12.123 14.0021 12.3612 14.0561 C 12.6551 14.1227 12.8837 14.2752 13.071 14.4293 C 13.2448 14.5723 13.4364 14.7629 13.6441 14.9697 L 13.6658 14.9913 C 14.1916 15.5144 14.5411 15.8606 14.8118 16.0763 C 14.9424 16.1804 15.0192 16.224 15.0548 16.2416 C 15.0765 16.2327 15.1014 16.2174 15.1272 16.1923 C 15.1312 16.1829 15.1813 16.0882 15.2126 15.7586 C 15.2492 15.3733 15.25 14.8356 15.25 14.0455 V 11.5488 C 15.25 10.4579 15.2488 9.70621 15.182 9.1412 C 15.1167 8.58893 14.9993 8.33006 14.851 8.16142 C 14.7149 8.00665 14.5236 7.89229 14.0812 7.82465 C 13.6063 7.75205 12.9668 7.75 12 7.75 C 11.0332 7.75 10.3937 7.75205 9.91881 7.82465 Z" fill="#FFFFFF" />
</svg>