<svg xmlns="http://www.w3.org/2000/svg" width="24" height="24" viewBox="0 0 24 24" fill="none">
  <path fill-rule="nonzero" clip-rule="nonzero" d="M 9.94531 1.25 H 14.0551 C 15.4227 1.24998 16.525 1.24996 17.3919 1.36652 C 18.292 1.48754 19.0499 1.74643 19.6518 2.34835 C 20.2538 2.95027 20.5126 3.70814 20.6337 4.60825 C 20.7502 5.47522 20.7502 6.57754 20.7502 7.94513 V 16.0549 C 20.7502 17.4225 20.7502 18.5248 20.6337 19.3918 C 20.5126 20.2919 20.2538 21.0497 19.6518 21.6517 C 19.0499 22.2536 18.292 22.5125 17.3919 22.6335 C 16.525 22.75 15.4226 22.75 14.0551 22.75 H 9.94532 C 8.57773 22.75 7.4754 22.75 6.60844 22.6335 C 5.70833 22.5125 4.95045 22.2536 4.34854 21.6517 C 3.74662 21.0497 3.48773 20.2919 3.36671 19.3918 C 3.32801 19.1039 3.30216 18.7902 3.2849 18.4494 C 3.24582 18.326 3.23821 18.1912 3.26895 18.0568 C 3.25016 17.4649 3.25017 16.7991 3.25019 16.0549 V 7.94513 C 3.25017 6.57754 3.25015 5.47522 3.36671 4.60825 C 3.48773 3.70814 3.74662 2.95027 4.34854 2.34835 C 4.95045 1.74643 5.70833 1.48754 6.60843 1.36652 C 7.4754 1.24996 8.57772 1.24998 9.94531 1.25 Z M 4.77694 18.2491 C 4.79214 18.6029 4.81597 18.914 4.85333 19.1919 C 4.95199 19.9257 5.13243 20.3142 5.4092 20.591 C 5.68596 20.8678 6.07453 21.0482 6.80831 21.1469 C 7.56366 21.2484 8.56477 21.25 10.0002 21.25 H 14.0002 C 15.4356 21.25 16.4367 21.2484 17.1921 21.1469 C 17.9258 21.0482 18.3144 20.8678 18.5912 20.591 C 18.8679 20.3142 19.0484 19.9257 19.147 19.1919 C 19.2299 18.5756 19.2462 17.7958 19.2494 16.75 H 7.89796 C 6.91971 16.75 6.5777 16.7564 6.31562 16.8267 C 5.5963 17.0194 5.02286 17.5541 4.77694 18.2491 Z M 19.2502 15.25 V 8 C 19.2502 6.56458 19.2486 5.56347 19.147 4.80812 C 19.0484 4.07435 18.8679 3.68577 18.5912 3.40901 C 18.3144 3.13225 17.9258 2.9518 17.1921 2.85315 C 16.4367 2.75159 15.4356 2.75 14.0002 2.75 H 10.0002 C 9.09237 2.75 8.35827 2.75064 7.75019 2.7768 V 15.25 C 7.7608 15.25 7.77146 15.25 7.78217 15.25 C 7.8202 15.25 7.85879 15.25 7.89796 15.25 H 19.2502 Z M6.25019 15.3114 L6.25019 2.96027 C5.85807 3.06485 5.60551 3.2127 5.4092 3.40901 C5.13243 3.68577 4.95199 4.07435 4.85333 4.80812 C4.75178 5.56347 4.75019 6.56458 4.75019 8 L4.75019 15.9259 C5.10242 15.6798 5.49941 15.4925 5.92739 15.3778 C6.03068 15.3501 6.13768 15.3284 6.25019 15.3114 Z" fill="#FFFFFF" />
</svg>