<svg xmlns="http://www.w3.org/2000/svg" width="24" height="24" viewBox="0 0 24 24" fill="none">
  <path fill-rule="nonzero" clip-rule="nonzero" d="M 21 11.0975 V 16.0909 C 21 19.1875 21 20.7358 20.2659 21.4123 C 19.9158 21.735 19.4739 21.9377 19.0031 21.9915 C 18.016 22.1045 16.8633 21.0849 14.5578 19.0458 C 13.5388 18.1445 13.0292 17.6938 12.4397 17.5751 C 12.1494 17.5166 11.8506 17.5166 11.5603 17.5751 C 10.9708 17.6938 10.4612 18.1445 9.44216 19.0458 C 7.13673 21.0849 5.98402 22.1045 4.99692 21.9915 C 4.52615 21.9377 4.08421 21.735 3.73411 21.4123 C 3 20.7358 3 19.1875 3 16.0909 V 11.0975 C 3 6.80891 3 4.6646 4.31802 3.3323 C 5.63604 2 7.75736 2 12 2 C 16.2426 2 18.364 2 19.682 3.3323 C 21 4.6646 21 6.80891 21 11.0975 Z M8.25 6 C8.25 6.41421 8.58579 6.75 9 6.75 L15 6.75 C15.4142 6.75 15.75 6.41421 15.75 6 C15.75 5.58579 15.4142 5.25 15 5.25 L9 5.25 C8.58579 5.25 8.25 5.58579 8.25 6 Z" fill="#FFFFFF" />
</svg>