<svg xmlns="http://www.w3.org/2000/svg" width="24" height="24" viewBox="0 0 24 24" fill="none">
  <path d="M9 5.25C8.58579 5.25 8.25 5.58579 8.25 6C8.25 6.41421 8.58579 6.75 9 6.75H15C15.4142 6.75 15.75 6.41421 15.75 6C15.75 5.58579 15.4142 5.25 15 5.25H9Z" fill="#FFFFFF" />
  <path fill-rule="nonzero" clip-rule="nonzero" d="M11.9425 1.25 L12.0575 1.25 C14.1301 1.24999 15.7628 1.24997 17.0387 1.42337 C18.3488 1.60141 19.3939 1.97468 20.2152 2.80484 C21.0353 3.63387 21.4031 4.68702 21.5787 6.00741 C21.75 7.2955 21.75 8.94462 21.75 11.041 L21.75 16.139 C21.75 17.6466 21.75 18.8402 21.654 19.7388 C21.5591 20.6269 21.3555 21.428 20.7742 21.9638 C20.3077 22.3937 19.7179 22.6646 19.0883 22.7367 C18.3009 22.8268 17.5656 22.4508 16.8413 21.9377 C16.1084 21.4186 15.2193 20.6321 14.0975 19.64 L14.061 19.6076 C13.5409 19.1476 13.1888 18.8372 12.895 18.6224 C12.6111 18.4148 12.4377 18.3397 12.2916 18.3103 C12.0991 18.2715 11.9009 18.2715 11.7084 18.3103 C11.5623 18.3397 11.3889 18.4148 11.105 18.6224 C10.8112 18.8372 10.4591 19.1476 9.93905 19.6076 L9.90254 19.6399 C8.78075 20.6321 7.89163 21.4185 7.15868 21.9377 C6.43439 22.4508 5.69912 22.8268 4.91165 22.7367 C4.28211 22.6646 3.69226 22.3937 3.22584 21.9638 C2.64447 21.428 2.44091 20.6269 2.34601 19.7388 C2.24998 18.8402 2.24999 17.6466 2.25 16.139 L2.25 11.0411 C2.24999 8.94462 2.24998 7.29551 2.4213 6.00741 C2.59692 4.68702 2.96469 3.63387 3.78484 2.80484 C4.60609 1.97468 5.65122 1.60141 6.96128 1.42337 C8.23716 1.24997 9.86994 1.24999 11.9425 1.25 Z M4.8512 3.85977 C4.35333 4.36303 4.06209 5.04819 3.90821 6.20518 C3.75156 7.38292 3.75 8.93223 3.75 11.0975 L3.75 16.0909 C3.75 17.6572 3.75104 18.7702 3.83752 19.5794 C3.92614 20.4088 4.08963 20.72 4.24237 20.8608 C4.47617 21.0763 4.77019 21.2107 5.08218 21.2464 C5.28182 21.2692 5.61646 21.192 6.29165 20.7137 C6.95026 20.2472 7.77887 19.5157 8.94527 18.484 L8.97146 18.4609 C9.45871 18.0299 9.86283 17.6725 10.2196 17.4116 C10.5926 17.1388 10.9688 16.9292 11.4122 16.8398 C11.8002 16.7617 12.1998 16.7617 12.5878 16.8398 C13.0312 16.9292 13.4074 17.1388 13.7804 17.4116 C14.1372 17.6725 14.5413 18.0299 15.0286 18.4609 L15.0547 18.484 C16.2211 19.5157 17.0497 20.2472 17.7083 20.7137 C18.3835 21.192 18.7182 21.2692 18.9178 21.2464 C19.2298 21.2107 19.5238 21.0763 19.7576 20.8608 C19.9104 20.72 20.0739 20.4088 20.1625 19.5794 C20.249 18.7702 20.25 17.6572 20.25 16.0909 L20.25 11.0975 C20.25 8.93223 20.2484 7.38292 20.0918 6.20518 C19.9379 5.04819 19.6467 4.36303 19.1488 3.85977 C18.652 3.35762 17.9775 3.06474 16.8367 2.90971 C15.6736 2.75163 14.1427 2.75 12 2.75 C9.85725 2.75 8.32645 2.75163 7.16328 2.90971 C6.02251 3.06474 5.34797 3.35762 4.8512 3.85977 Z" fill="#FFFFFF" />
</svg>