<svg xmlns="http://www.w3.org/2000/svg" width="24" height="24" viewBox="0 0 24 24" fill="none">
  <path fill-rule="nonzero" clip-rule="nonzero" d="M11.9426 1.25 L12.0574 1.25 C14.3658 1.24999 16.1748 1.24998 17.5863 1.43975 C19.031 1.63399 20.1711 2.03933 21.0659 2.93414 C21.9607 3.82895 22.366 4.96897 22.5603 6.41371 C22.75 7.82519 22.75 9.63423 22.75 11.9426 L22.75 12.0574 C22.75 14.3658 22.75 16.1748 22.5603 17.5863 C22.366 19.031 21.9607 20.1711 21.0659 21.0659 C20.1711 21.9607 19.031 22.366 17.5863 22.5603 C16.1748 22.75 14.3658 22.75 12.0574 22.75 L11.9426 22.75 C9.63423 22.75 7.82519 22.75 6.41371 22.5603 C4.96897 22.366 3.82895 21.9607 2.93414 21.0659 C2.03933 20.1711 1.63399 19.031 1.43975 17.5863 C1.24998 16.1748 1.24999 14.3658 1.25 12.0574 L1.25 11.9426 C1.24999 9.63423 1.24998 7.82519 1.43975 6.41371 C1.63399 4.96897 2.03933 3.82895 2.93414 2.93414 C3.82895 2.03933 4.96897 1.63399 6.41371 1.43975 C7.82519 1.24998 9.63423 1.24999 11.9426 1.25 Z M 6.25 2.98181 C 5.18517 3.16506 4.50829 3.4813 3.9948 3.9948 C 3.42514 4.56445 3.09825 5.33517 2.92637 6.61358 C 2.75159 7.91356 2.75 9.62177 2.75 12 C 2.75 14.3782 2.75159 16.0864 2.92637 17.3864 C 3.09825 18.6648 3.42514 19.4355 3.9948 20.0052 C 4.56445 20.5749 5.33517 20.9018 6.61358 21.0736 C 7.91356 21.2484 9.62177 21.25 12 21.25 C 14.3782 21.25 16.0864 21.2484 17.3864 21.0736 C 18.6648 20.9018 19.4355 20.5749 20.0052 20.0052 C 20.5749 19.4355 20.9018 18.6648 21.0736 17.3864 C 21.2484 16.0864 21.25 14.3782 21.25 12 C 21.25 9.62177 21.2484 7.91356 21.0736 6.61358 C 20.9018 5.33517 20.5749 4.56445 20.0052 3.9948 C 19.4917 3.4813 18.8148 3.16506 17.75 2.98181 V 8.83102 C 17.75 9.29856 17.75 9.68212 17.7326 9.98389 C 17.7155 10.2816 17.6786 10.5899 17.5563 10.8652 C 17.1149 11.859 16.0259 12.3949 14.9691 12.1383 C 14.6764 12.0673 14.4096 11.9084 14.1633 11.7404 C 13.9136 11.57 13.6097 11.336 13.2392 11.0508 L 13.2207 11.0365 C 12.7513 10.6751 12.6192 10.5804 12.4981 10.5277 C 12.1804 10.3897 11.8196 10.3897 11.5019 10.5277 C 11.3808 10.5804 11.2487 10.6751 10.7793 11.0365 L 10.7608 11.0508 C 10.3903 11.336 10.0864 11.57 9.83672 11.7404 C 9.59039 11.9084 9.32356 12.0673 9.03086 12.1383 C 7.97413 12.3949 6.88513 11.859 6.44371 10.8652 C 6.32145 10.5899 6.28454 10.2816 6.26739 9.98389 C 6.24999 9.68211 6.25 9.29859 6.25 8.83103 V 2.98181 Z M 16.25 2.81997 C 15.1242 2.75085 13.7418 2.75 12 2.75 C 10.2582 2.75 8.87584 2.75085 7.75 2.81997 V 8.8076 C 7.75 9.30433 7.7503 9.64424 7.7649 9.89758 C 7.78003 10.1601 7.80769 10.2408 7.81457 10.2563 C 7.96171 10.5876 8.32471 10.7662 8.67695 10.6807 C 8.69342 10.6767 8.77428 10.6493 8.99148 10.5012 C 9.20112 10.3582 9.47062 10.151 9.86419 9.84799 L 9.9312 9.79636 C 10.3014 9.51094 10.5899 9.28851 10.9042 9.15196 C 11.6032 8.84828 12.3968 8.84828 13.0958 9.15196 C 13.4101 9.28851 13.6986 9.51094 14.0688 9.79636 L 14.1358 9.84799 C 14.5294 10.151 14.7989 10.3582 15.0085 10.5012 C 15.2257 10.6493 15.3066 10.6767 15.323 10.6807 C 15.6753 10.7662 16.0383 10.5876 16.1854 10.2563 C 16.1923 10.2408 16.22 10.1601 16.2351 9.89758 C 16.2497 9.64424 16.25 9.30433 16.25 8.8076 V 2.81997 Z" fill="#FFFFFF" />
</svg>