<svg xmlns="http://www.w3.org/2000/svg" width="24" height="24" viewBox="0 0 24 24" fill="none">
  <path fill-rule="nonzero" clip-rule="nonzero" d="M6.27103 2.11151 C7.10452 2.00172 8.2092 2 9.7931 2 L14.2069 2 C15.7908 2 16.8955 2.00172 17.729 2.11151 C18.5387 2.21816 18.9674 2.41324 19.2728 2.71244 C19.5782 3.01165 19.7773 3.43172 19.8862 4.22499 C19.9982 5.04159 20 6.12387 20 7.67568 L20 15.5135 L7.34563 15.5135 C6.44305 15.5132 5.82716 15.513 5.29899 15.6517 C4.82674 15.7756 4.38867 15.9781 4 16.2442 L4 7.67568 C4 6.12387 4.00176 5.04159 4.11382 4.225 C4.22268 3.43172 4.42179 3.01165 4.72718 2.71244 C5.03258 2.41324 5.46135 2.21816 6.27103 2.11151 Z M6.75862 6.59459 C6.75862 7.04239 7.12914 7.40541 7.58621 7.40541 L16.4138 7.40541 C16.8709 7.40541 17.2414 7.04239 17.2414 6.59459 C17.2414 6.1468 16.8709 5.78378 16.4138 5.78378 L7.58621 5.78378 C7.12914 5.78378 6.75862 6.1468 6.75862 6.59459 Z M 7.58621 9.56757 C 7.12914 9.56757 6.75862 9.93058 6.75862 10.3784 C 6.75862 10.8262 7.12914 11.1892 7.58621 11.1892 H 13.1034 C 13.5605 11.1892 13.931 10.8262 13.931 10.3784 C 13.931 9.93058 13.5605 9.56757 13.1034 9.56757 H 7.58621 Z" fill="#FFFFFF" />
  <path d="M8.68965 17.1351H7.47341C6.39395 17.1351 6.01657 17.1421 5.72738 17.218C4.93365 17.4264 4.30088 18.0044 4.02952 18.7558C4.0463 19.1382 4.07259 19.4746 4.11382 19.775C4.22268 20.5683 4.42179 20.9884 4.72718 21.2876C5.03258 21.5868 5.46135 21.7818 6.27103 21.8885C7.10452 21.9983 8.2092 22 9.7931 22H14.2069C15.7908 22 16.8955 21.9983 17.729 21.8885C18.5387 21.7818 18.9674 21.5868 19.2728 21.2876C19.5782 20.9884 19.7773 20.5683 19.8862 19.775C19.9776 19.1088 19.9956 18.2657 19.9991 17.1351H13.1034V20.1417C13.1034 20.4397 13.1034 20.5886 12.9988 20.6488C12.8941 20.709 12.751 20.6424 12.4647 20.5092L11.0939 19.8713C10.9971 19.8262 10.9486 19.8037 10.8966 19.8037C10.8445 19.8037 10.796 19.8262 10.6992 19.8713L9.32842 20.5092C9.04213 20.6424 8.89899 20.709 8.79432 20.6488C8.68965 20.5886 8.68965 20.4397 8.68965 20.1417V17.1351Z" fill="#FFFFFF" />
</svg>