<svg xmlns="http://www.w3.org/2000/svg" width="24" height="24" viewBox="0 0 24 24" fill="none">
  <path opacity="0.5" d="M3.46447 20.5355C4.92893 22 7.28595 22 12 22C16.714 22 19.0711 22 20.5355 20.5355C22 19.0711 22 16.714 22 12C22 7.28595 22 4.92893 20.5355 3.46447C19.0711 2 16.714 2 12 2C7.28595 2 4.92893 2 3.46447 3.46447C2 4.92893 2 7.28595 2 12C2 16.714 2 19.0711 3.46447 20.5355Z" fill="#FFFFFF" />
  <path fill-rule="nonzero" clip-rule="nonzero" d="M 8 5.75 C 8.41421 5.75 8.75 6.08579 8.75 6.5 L 8.75 7.75002 H 10 C 10.4142 7.75002 10.75 8.0858 10.75 8.50002 C 10.75 8.91423 10.4142 9.25002 10 9.25002 H 8.75 V 10.5 C 8.75 10.9142 8.41421 11.25 8 11.25 C 7.58579 11.25 7.25 10.9142 7.25 10.5 L 7.25 9.25002 L 6 9.25002 C 5.58579 9.25002 5.25 8.91423 5.25 8.50002 C 5.25 8.0858 5.58579 7.75002 6 7.75002 H 7.25 L 7.25 6.5 C 7.25 6.08579 7.58579 5.75 8 5.75 Z M 13.25 8.5 C 13.25 8.08579 13.5858 7.75 14 7.75 H 18 C 18.4142 7.75 18.75 8.08579 18.75 8.5 C 18.75 8.91421 18.4142 9.25 18 9.25 H 14 C 13.5858 9.25 13.25 8.91421 13.25 8.5 Z M 13.25 14.5 C 13.25 14.0858 13.5858 13.75 14 13.75 H 18 C 18.4142 13.75 18.75 14.0858 18.75 14.5 C 18.75 14.9142 18.4142 15.25 18 15.25 H 14 C 13.5858 15.25 13.25 14.9142 13.25 14.5 Z M 5.96967 13.9697 C 6.26256 13.6768 6.73744 13.6768 7.03033 13.9697 L 8.00001 14.9394 L 8.96967 13.9697 C 9.26256 13.6768 9.73744 13.6768 10.0303 13.9697 C 10.3232 14.2626 10.3232 14.7375 10.0303 15.0304 L 9.06067 16 L 10.0303 16.9697 C 10.3232 17.2626 10.3232 17.7374 10.0303 18.0303 C 9.73742 18.3232 9.26255 18.3232 8.96966 18.0303 L 8.00001 17.0607 L 7.03034 18.0304 C 6.73745 18.3232 6.26258 18.3232 5.96968 18.0304 C 5.67679 17.7375 5.67679 17.2626 5.96968 16.9697 L 6.93935 16 L 5.96967 15.0304 C 5.67678 14.7375 5.67678 14.2626 5.96967 13.9697 Z M 13.25 17.5 C 13.25 17.0858 13.5858 16.75 14 16.75 H 18 C 18.4142 16.75 18.75 17.0858 18.75 17.5 C 18.75 17.9142 18.4142 18.25 18 18.25 H 14 C 13.5858 18.25 13.25 17.9142 13.25 17.5 Z" fill="#FFFFFF" />
</svg>