<svg xmlns="http://www.w3.org/2000/svg" width="24" height="24" viewBox="0 0 24 24" fill="none">
  <path fill-rule="nonzero" clip-rule="nonzero" d="M 11.9426 1.25 H 12.0574 C 14.3658 1.24999 16.1748 1.24998 17.5863 1.43975 C 19.031 1.63399 20.1711 2.03933 21.0659 2.93414 C 21.9607 3.82895 22.366 4.96897 22.5603 6.41371 C 22.75 7.82519 22.75 9.63423 22.75 11.9426 V 12.0574 C 22.75 14.3658 22.75 16.1748 22.5603 17.5863 C 22.366 19.031 21.9607 20.1711 21.0659 21.0659 C 20.1711 21.9607 19.031 22.366 17.5863 22.5603 C 16.1748 22.75 14.3658 22.75 12.0574 22.75 H 11.9426 C 9.63423 22.75 7.82519 22.75 6.41371 22.5603 C 4.96897 22.366 3.82895 21.9607 2.93414 21.0659 C 2.03933 20.1711 1.63399 19.031 1.43975 17.5863 C 1.24998 16.1748 1.24999 14.3658 1.25 12.0574 V 11.9426 C 1.24999 9.63423 1.24998 7.82519 1.43975 6.41371 C 1.63399 4.96897 2.03933 3.82895 2.93414 2.93414 C 3.82895 2.03933 4.96897 1.63399 6.41371 1.43975 C 7.82519 1.24998 9.63423 1.24999 11.9426 1.25 Z M 6.61358 2.92637 C 5.33517 3.09825 4.56445 3.42514 3.9948 3.9948 C 3.42514 4.56445 3.09825 5.33517 2.92637 6.61358 C 2.75159 7.91356 2.75 9.62177 2.75 12 C 2.75 14.3782 2.75159 16.0864 2.92637 17.3864 C 3.09825 18.6648 3.42514 19.4355 3.9948 20.0052 C 4.56445 20.5749 5.33517 20.9018 6.61358 21.0736 C 7.91356 21.2484 9.62177 21.25 12 21.25 C 14.3782 21.25 16.0864 21.2484 17.3864 21.0736 C 18.6648 20.9018 19.4355 20.5749 20.0052 20.0052 C 20.5749 19.4355 20.9018 18.6648 21.0736 17.3864 C 21.2484 16.0864 21.25 14.3782 21.25 12 C 21.25 9.62177 21.2484 7.91356 21.0736 6.61358 C 20.9018 5.33517 20.5749 4.56445 20.0052 3.9948 C 19.4355 3.42514 18.6648 3.09825 17.3864 2.92637 C 16.0864 2.75159 14.3782 2.75 12 2.75 C 9.62177 2.75 7.91356 2.75159 6.61358 2.92637 Z" fill="#FFFFFF" />
  <path fill-rule="nonzero" clip-rule="nonzero" d="M 8 5.74998 C 8.41421 5.74998 8.75 6.08576 8.75 6.49998 L 8.75 7.74999 H 10 C 10.4142 7.74999 10.75 8.08578 10.75 8.49999 C 10.75 8.91421 10.4142 9.24999 10 9.24999 H 8.75 V 10.5 C 8.75 10.9142 8.41421 11.25 8 11.25 C 7.58579 11.25 7.25 10.9142 7.25 10.5 V 9.24999 H 6 C 5.58579 9.24999 5.25 8.91421 5.25 8.49999 C 5.25 8.08578 5.58579 7.74999 6 7.74999 H 7.25 L 7.25 6.49998 C 7.25 6.08576 7.58579 5.74998 8 5.74998 Z M 13.25 8.49998 C 13.25 8.08576 13.5858 7.74998 14 7.74998 H 18 C 18.4142 7.74998 18.75 8.08576 18.75 8.49998 C 18.75 8.91419 18.4142 9.24998 18 9.24998 H 14 C 13.5858 9.24998 13.25 8.91419 13.25 8.49998 Z M 13.25 14.5 C 13.25 14.0858 13.5858 13.75 14 13.75 H 18 C 18.4142 13.75 18.75 14.0858 18.75 14.5 C 18.75 14.9142 18.4142 15.25 18 15.25 H 14 C 13.5858 15.25 13.25 14.9142 13.25 14.5 Z M 5.96967 13.9697 C 6.26256 13.6768 6.73744 13.6768 7.03033 13.9697 L 8.00001 14.9393 L 8.96967 13.9697 C 9.26256 13.6768 9.73744 13.6768 10.0303 13.9697 C 10.3232 14.2626 10.3232 14.7374 10.0303 15.0303 L 9.06067 16 L 10.0303 16.9697 C 10.3232 17.2626 10.3232 17.7374 10.0303 18.0303 C 9.73742 18.3232 9.26255 18.3232 8.96966 18.0303 L 8.00001 17.0607 L 7.03034 18.0303 C 6.73745 18.3232 6.26258 18.3232 5.96968 18.0303 C 5.67679 17.7374 5.67679 17.2626 5.96968 16.9697 L 6.93935 16 L 5.96967 15.0303 C 5.67678 14.7374 5.67678 14.2626 5.96967 13.9697 Z M 13.25 17.5 C 13.25 17.0858 13.5858 16.75 14 16.75 H 18 C 18.4142 16.75 18.75 17.0858 18.75 17.5 C 18.75 17.9142 18.4142 18.25 18 18.25 H 14 C 13.5858 18.25 13.25 17.9142 13.25 17.5 Z" fill="#FFFFFF" />
</svg>