<svg xmlns="http://www.w3.org/2000/svg" width="24" height="24" viewBox="0 0 24 24" fill="none">
  <path fill-rule="nonzero" clip-rule="nonzero" d="M 12 22 C 7.75736 22 5.63604 22 4.31802 20.5355 C 3 19.0711 3 16.714 3 12 C 3 7.28595 3 4.92893 4.31802 3.46447 C 5.63604 2 7.75736 2 12 2 C 16.2426 2 18.364 2 19.682 3.46447 C 21 4.92893 21 7.28595 21 12 C 21 16.714 21 19.0711 19.682 20.5355 C 18.364 22 16.2426 22 12 22 Z M 15 6 H 9 C 8.53501 6 8.30252 6 8.11177 6.05111 C 7.59413 6.18981 7.18981 6.59413 7.05111 7.11177 C 7 7.30252 7 7.53501 7 8 C 7 8.46499 7 8.69748 7.05111 8.88823 C 7.18981 9.40587 7.59413 9.81019 8.11177 9.94889 C 8.30252 10 8.53501 10 9 10 H 15 C 15.465 10 15.6975 10 15.8882 9.94889 C 16.4059 9.81019 16.8102 9.40587 16.9489 8.88823 C 17 8.69748 17 8.46499 17 8 C 17 7.53501 17 7.30252 16.9489 7.11177 C 16.8102 6.59413 16.4059 6.18981 15.8882 6.05111 C 15.6975 6 15.465 6 15 6 Z M9 13 C9 12.4477 8.55228 12 8 12 C7.44772 12 7 12.4477 7 13 C7 13.5523 7.44772 14 8 14 C8.55228 14 9 13.5523 9 13 Z M 12 14 C 12.5523 14 13 13.5523 13 13 C 13 12.4477 12.5523 12 12 12 C 11.4477 12 11 12.4477 11 13 C 11 13.5523 11.4477 14 12 14 Z M17 13 C17 12.4477 16.5523 12 16 12 C15.4477 12 15 12.4477 15 13 C15 13.5523 15.4477 14 16 14 C16.5523 14 17 13.5523 17 13 Z M 16 18 C 16.5523 18 17 17.5523 17 17 C 17 16.4477 16.5523 16 16 16 C 15.4477 16 15 16.4477 15 17 C 15 17.5523 15.4477 18 16 18 Z M13 17 C13 16.4477 12.5523 16 12 16 C11.4477 16 11 16.4477 11 17 C11 17.5523 11.4477 18 12 18 C12.5523 18 13 17.5523 13 17 Z M 8 18 C 8.55228 18 9 17.5523 9 17 C 9 16.4477 8.55228 16 8 16 C 7.44772 16 7 16.4477 7 17 C 7 17.5523 7.44772 18 8 18 Z" fill="#FFFFFF" />
</svg>