<svg xmlns="http://www.w3.org/2000/svg" width="24" height="24" viewBox="0 0 24 24" fill="none">
  <path fill-rule="nonzero" clip-rule="nonzero" d="M 12 22 C 7.28595 22 4.92893 22 3.46447 20.5355 C 2 19.0711 2 16.714 2 12 C 2 7.28595 2 4.92893 3.46447 3.46447 C 4.92893 2 7.28595 2 12 2 C 16.714 2 19.0711 2 20.5355 3.46447 C 22 4.92893 22 7.28595 22 12 C 22 16.714 22 19.0711 20.5355 20.5355 C 19.0711 22 16.714 22 12 22 Z M 8.75 6.49998 C 8.75 6.08576 8.41421 5.74998 8 5.74998 C 7.58579 5.74998 7.25 6.08576 7.25 6.49998 L 7.25 7.74999 H 6 C 5.58579 7.74999 5.25 8.08578 5.25 8.49999 C 5.25 8.91421 5.58579 9.24999 6 9.24999 L 7.25 9.24999 V 10.5 C 7.25 10.9142 7.58579 11.25 8 11.25 C 8.41421 11.25 8.75 10.9142 8.75 10.5 V 9.24999 H 10 C 10.4142 9.24999 10.75 8.91421 10.75 8.49999 C 10.75 8.08578 10.4142 7.74999 10 7.74999 H 8.75 L 8.75 6.49998 Z M 14 7.74998 C 13.5858 7.74998 13.25 8.08576 13.25 8.49998 C 13.25 8.91419 13.5858 9.24998 14 9.24998 H 18 C 18.4142 9.24998 18.75 8.91419 18.75 8.49998 C 18.75 8.08576 18.4142 7.74998 18 7.74998 H 14 Z M 14 13.75 C 13.5858 13.75 13.25 14.0858 13.25 14.5 C 13.25 14.9142 13.5858 15.25 14 15.25 H 18 C 18.4142 15.25 18.75 14.9142 18.75 14.5 C 18.75 14.0858 18.4142 13.75 18 13.75 H 14 Z M 7.03033 13.9697 C 6.73744 13.6768 6.26256 13.6768 5.96967 13.9697 C 5.67678 14.2626 5.67678 14.7374 5.96967 15.0303 L 6.93935 16 L 5.96968 16.9697 C 5.67679 17.2626 5.67679 17.7374 5.96968 18.0303 C 6.26258 18.3232 6.73745 18.3232 7.03034 18.0303 L 8.00001 17.0607 L 8.96966 18.0303 C 9.26255 18.3232 9.73742 18.3232 10.0303 18.0303 C 10.3232 17.7374 10.3232 17.2626 10.0303 16.9697 L 9.06067 16 L 10.0303 15.0303 C 10.3232 14.7374 10.3232 14.2626 10.0303 13.9697 C 9.73744 13.6768 9.26256 13.6768 8.96967 13.9697 L 8.00001 14.9393 L 7.03033 13.9697 Z M 14 16.75 C 13.5858 16.75 13.25 17.0858 13.25 17.5 C 13.25 17.9142 13.5858 18.25 14 18.25 H 18 C 18.4142 18.25 18.75 17.9142 18.75 17.5 C 18.75 17.0858 18.4142 16.75 18 16.75 H 14 Z" fill="#FFFFFF" />
</svg>