<svg xmlns="http://www.w3.org/2000/svg" width="24" height="24" viewBox="0 0 24 24" fill="none">
  <path fill-rule="nonzero" clip-rule="nonzero" d="M17.1923 6 C18.8797 6 19.7234 6 20.3673 6.32971 C20.9276 6.61659 21.3834 7.07242 21.6703 7.63268 C22 8.27658 22 9.12027 22 10.8077 C22 11.2366 22 11.4511 21.9266 11.6319 C21.8626 11.7898 21.7592 11.9288 21.6264 12.0355 C21.4743 12.1577 21.2688 12.2194 20.8579 12.3426 L15.5 13.95 L15.5 15.1627 C15.5 15.9283 15.0406 16.6341 14.3132 16.9296 L13.7531 17.1572 C12.6281 17.6143 11.3719 17.6143 10.2469 17.1572 L9.68682 16.9296 C8.95939 16.6341 8.5 15.9283 8.5 15.1627 L8.5 13.95 L3.14206 12.3426 C2.73118 12.2194 2.52574 12.1577 2.37363 12.0355 C2.24079 11.9288 2.13743 11.7898 2.07336 11.6319 C2 11.4511 2 11.2366 2 10.8077 C2 9.12027 2 8.27658 2.32971 7.63268 C2.61659 7.07242 3.07242 6.61659 3.63268 6.32971 C4.27658 6 5.12027 6 6.80765 6 L17.1923 6 Z M 13.6 13 H 10.4 C 10.1791 13 10 13.1819 10 13.4063 V 15.1627 C 10 15.3288 10.0996 15.4782 10.2514 15.54 L 10.8116 15.7675 C 11.5745 16.0775 12.4255 16.0775 13.1885 15.7675 L 13.7486 15.54 C 13.9004 15.4782 14 15.3288 14 15.1627 V 13.4063 C 14 13.1819 13.8209 13 13.6 13 Z" fill="#FFFFFF" />
  <path opacity="0.5" d="M20.9579 12.3126C20.9469 12.3159 20.9356 12.3193 20.9242 12.3227L15.5 13.9501V15.1627C15.5 15.9283 15.0406 16.6341 14.3132 16.9296L13.7531 17.1572C12.6281 17.6143 11.3719 17.6143 10.2469 17.1572L9.68682 16.9296C8.95939 16.6341 8.5 15.9283 8.5 15.1627V13.9501L3 12.2999C3.0009 15.9752 3.03489 19.6879 4.318 20.8285C5.63601 22.0001 7.75733 22.0001 12 22.0001C16.2426 22.0001 18.3639 22.0001 19.682 20.8285C20.9651 19.6879 20.9991 15.9752 21 12.2999L20.9579 12.3126Z" fill="#FFFFFF" />
  <path opacity="0.5" d="M9.1709 4C9.58273 2.83481 10.694 2 12.0002 2C13.3064 2 14.4177 2.83481 14.8295 4" stroke="#FFFFFF" stroke-width="1.5" stroke-linecap="round" />
</svg>