<svg xmlns="http://www.w3.org/2000/svg" width="24" height="24" viewBox="0 0 24 24" fill="none">
  <path d="M2.16208 8.49969C2 9.60346 2 11.0495 2 13C2 16.7712 2 18.6569 3.17157 19.8284C4.34315 21 6.22876 21 10 21H14C17.7712 21 19.6569 21 20.8284 19.8284C22 18.6569 22 16.7712 22 13C22 11.0497 22 9.60364 21.8379 8.49989C19.5613 9.97971 18.1021 10.9235 16.7501 11.5047V12.0001C16.7501 12.4143 16.4143 12.7501 16.0001 12.7501C15.5914 12.7501 15.259 12.4231 15.2503 12.0165C13.12 12.5781 10.8802 12.5781 8.74991 12.0165C8.74121 12.4231 8.40883 12.7501 8.00009 12.7501C7.58587 12.7501 7.25009 12.4143 7.25009 12.0001V11.5046C5.89804 10.9234 4.43881 9.97957 2.16208 8.49969Z" fill="#FFFFFF" />
  <path fill-rule="nonzero" clip-rule="nonzero" d="M10.5814 2.25 L13.4395 2.25 C13.553 2.24998 13.6414 2.24997 13.725 2.25503 C14.7854 2.31926 15.714 2.98855 16.1102 3.97426 C16.1415 4.05195 16.1694 4.13576 16.2053 4.24344 L16.2084 4.25288 C16.3033 4.51011 16.4915 4.78435 16.7322 4.99231 C16.7458 5.00406 16.7594 5.01545 16.773 5.02648 C16.9879 5.03367 17.1937 5.04282 17.3909 5.05445 C19.0348 5.15144 20.0781 5.42122 20.8284 6.17158 C21.0731 6.41626 21.2667 6.6921 21.4199 7.00975 C21.3624 7.02939 21.3064 7.05638 21.2531 7.09099 C19.1527 8.45623 17.8331 9.31015 16.7366 9.85794 C16.6702 9.5117 16.3657 9.25009 16.0001 9.25009 C15.5859 9.25009 15.2501 9.58588 15.2501 10.0001 L15.2501 10.458 C13.1306 11.0976 10.8695 11.0976 8.75009 10.458 L8.75009 10.0001 C8.75009 9.58588 8.4143 9.25009 8.00009 9.25009 C7.6345 9.25009 7.33001 9.51166 7.26356 9.85786 C6.16709 9.31008 4.8475 8.45617 2.74721 7.09099 C2.69387 7.05632 2.63777 7.0293 2.5802 7.00965 C2.73334 6.69204 2.92691 6.41624 3.17157 6.17158 C3.92193 5.42122 4.96519 5.15144 6.60915 5.05445 C6.81683 5.0422 7.03409 5.0327 7.26157 5.02534 C7.47709 4.85224 7.66326 4.60981 7.76636 4.32989 L7.77024 4.31825 C7.80711 4.20756 7.8588 4.05239 7.89021 3.97426 C8.28647 2.98855 9.21507 2.31926 10.2755 2.25503 C10.3591 2.24997 10.4474 2.24998 10.561 2.25 L10.5814 2.25 Z M 14.8176 4.81569 L 14.8131 4.80495 L 14.8082 4.79286 L 14.8037 4.78091 L 14.8 4.77097 L 14.7982 4.76596 L 14.794 4.75373 L 14.7902 4.74244 L 14.7881 4.73617 L 14.7853 4.72783 L 14.7831 4.72079 L 14.7813 4.7151 C 14.742 4.59708 14.7299 4.56204 14.7185 4.53375 C 14.5384 4.08571 14.1163 3.78148 13.6343 3.75229 C 13.602 3.75034 13.5625 3.75 13.4191 3.75 H 10.5814 C 10.438 3.75 10.3984 3.75034 10.3662 3.75229 C 9.88424 3.78148 9.46221 4.08561 9.28204 4.53354 L 9.2794 4.54052 L 9.27143 4.56245 C 9.2648 4.58104 9.25672 4.60429 9.2474 4.63156 C 9.23088 4.67994 9.21232 4.73546 9.19351 4.79186 L 9.19168 4.79777 L 9.18945 4.80481 L 9.18671 4.81314 L 9.18462 4.81941 L 9.18079 4.83071 L 9.17655 4.84295 L 9.17477 4.84796 L 9.17113 4.85791 L 9.16655 4.86987 L 9.16168 4.88199 L 9.15751 4.8919 L 9.15686 4.89336 C 9.14293 4.92921 9.12818 4.96498 9.11263 5.00064 C 9.39625 5 9.69183 5 10 5 H 14 C 14.3115 5 14.6101 5 14.8965 5.00066 C 14.868 4.93956 14.8417 4.87784 14.8176 4.81569 Z" fill="#FFFFFF" />
</svg>