<svg xmlns="http://www.w3.org/2000/svg" width="24" height="24" viewBox="0 0 24 24" fill="none">
  <path fill-rule="nonzero" clip-rule="nonzero" d="M9.87774 4.24993 C9.73971 4.64047 9.31122 4.84517 8.92068 4.70713 C8.53014 4.56909 8.32545 4.1406 8.46348 3.75007 C8.97792 2.29459 10.366 1.25 11.9999 1.25 C13.6339 1.25 15.0219 2.29459 15.5363 3.75007 C15.6744 4.1406 15.4697 4.56909 15.0791 4.70713 C14.6886 4.84517 14.2601 4.64047 14.1221 4.24993 C13.8128 3.37503 12.9784 2.75 11.9999 2.75 C11.0214 2.75 10.187 3.37503 9.87774 4.24993 Z M 2.74721 8.09098 C 2.69387 8.05631 2.63777 8.02929 2.5802 8.00965 C 2.73334 7.69204 2.92691 7.41623 3.17157 7.17157 C 4.34315 6 6.22876 6 10 6 H 14 C 17.7712 6 19.6569 6 20.8284 7.17157 C 21.0731 7.41626 21.2667 7.6921 21.4199 8.00975 C 21.3624 8.02939 21.3064 8.05637 21.2531 8.09098 C 19.1527 9.45626 17.8331 10.3102 16.7366 10.858 C 16.6702 10.5117 16.3657 10.25 16 10.25 C 15.5858 10.25 15.25 10.5858 15.25 11 V 11.4581 C 13.1306 12.0976 10.8694 12.0976 8.75 11.458 V 11 C 8.75 10.5858 8.41421 10.25 8 10.25 C 7.6344 10.25 7.3299 10.5116 7.26346 10.8578 C 6.16701 10.31 4.84744 9.45613 2.74721 8.09098 Z M 2 14 C 2 12.0495 2 10.6035 2.16208 9.49968 C 4.43876 10.9795 5.89798 11.9233 7.25 12.5046 V 13 C 7.25 13.4142 7.58579 13.75 8 13.75 C 8.40872 13.75 8.74109 13.4231 8.74982 13.0164 C 10.8801 13.5781 13.1199 13.5781 15.2502 13.0165 C 15.259 13.4231 15.5913 13.75 16 13.75 C 16.4142 13.75 16.75 13.4142 16.75 13 V 12.5047 C 18.1021 11.9235 19.5613 10.9797 21.8379 9.49988 C 22 10.6036 22 12.0497 22 14 C 22 17.7712 22 19.6569 20.8284 20.8284 C 19.6569 22 17.7712 22 14 22 H 10 C 6.22876 22 4.34315 22 3.17157 20.8284 C 2 19.6569 2 17.7712 2 14 Z" fill="#FFFFFF" />
</svg>