<svg xmlns="http://www.w3.org/2000/svg" width="24" height="24" viewBox="0 0 24 24" fill="none">
  <path fill-rule="nonzero" clip-rule="nonzero" d="M10.5812 2.25 L13.4394 2.25 C13.5529 2.24998 13.6412 2.24997 13.7248 2.25503 C14.7853 2.31926 15.7139 2.98855 16.1101 3.97426 C16.1414 4.05195 16.1693 4.13576 16.2052 4.24344 L16.2083 4.25288 C16.3032 4.51011 16.4914 4.78435 16.7321 4.99231 C16.7457 5.00406 16.7593 5.01545 16.7728 5.02648 C16.9878 5.03367 17.1936 5.04282 17.3907 5.05445 C19.0347 5.15144 20.078 5.42122 20.8283 6.17158 C21.073 6.41626 21.2666 6.6921 21.4197 7.00975 C21.3623 7.02939 21.3063 7.05638 21.253 7.09099 C19.1526 8.45623 17.833 9.31015 16.7365 9.85794 C16.6701 9.5117 16.3656 9.25009 16 9.25009 C15.5858 9.25009 15.25 9.58588 15.25 10.0001 L15.25 10.458 C13.1305 11.0976 10.8694 11.0976 8.74997 10.458 L8.74997 10.0001 C8.74997 9.58588 8.41418 9.25009 7.99997 9.25009 C7.63439 9.25009 7.32989 9.51166 7.26344 9.85786 C6.16697 9.31008 4.84738 8.45617 2.74709 7.09099 C2.69375 7.05632 2.63765 7.0293 2.58008 7.00965 C2.73322 6.69204 2.92679 6.41624 3.17145 6.17158 C3.92181 5.42122 4.96507 5.15144 6.60903 5.05445 C6.81671 5.0422 7.03397 5.0327 7.26145 5.02534 C7.47697 4.85224 7.66314 4.60981 7.76624 4.32989 L7.77012 4.31825 C7.80699 4.20756 7.85868 4.05239 7.89009 3.97426 C8.28636 2.98855 9.21495 2.31926 10.2754 2.25503 C10.359 2.24997 10.4473 2.24998 10.5608 2.25 L10.5812 2.25 Z M 14.8175 4.81569 L 14.813 4.80495 L 14.8081 4.79286 L 14.8035 4.78091 L 14.7999 4.77097 L 14.7981 4.76596 L 14.7939 4.75373 L 14.7901 4.74244 L 14.788 4.73617 L 14.7852 4.72783 L 14.783 4.72079 L 14.7812 4.7151 C 14.7418 4.59708 14.7297 4.56204 14.7184 4.53375 C 14.5383 4.08571 14.1162 3.78148 13.6342 3.75229 C 13.6019 3.75034 13.5623 3.75 13.419 3.75 H 10.5812 C 10.4379 3.75 10.3983 3.75034 10.3661 3.75229 C 9.88412 3.78148 9.46209 4.08561 9.28192 4.53354 L 9.27928 4.54052 L 9.27132 4.56245 C 9.26468 4.58104 9.2566 4.60429 9.24728 4.63156 C 9.23076 4.67994 9.2122 4.73546 9.19339 4.79186 L 9.19157 4.79777 L 9.18933 4.80481 L 9.1866 4.81314 L 9.1845 4.81941 L 9.18067 4.83071 L 9.17643 4.84295 L 9.17465 4.84796 L 9.17102 4.85791 L 9.16644 4.86987 L 9.16156 4.88199 L 9.15739 4.8919 L 9.15674 4.89336 C 9.14281 4.92921 9.12806 4.96498 9.11251 5.00064 C 9.39614 5 9.69171 5 9.99988 5 H 13.9999 C 14.3114 5 14.61 5 14.8964 5.00066 C 14.8679 4.93956 14.8416 4.87784 14.8175 4.81569 Z" fill="#FFFFFF" />
  <path opacity="0.5" d="M2.16208 8.49951C2 9.60329 2 11.0494 2 12.9998C2 16.7711 2 18.6567 3.17157 19.8283C4.34315 20.9998 6.22876 20.9998 10 20.9998H14C17.7712 20.9998 19.6569 20.9998 20.8284 19.8283C22 18.6567 22 16.7711 22 12.9998C22 11.0495 22 9.60346 21.8379 8.49971C19.5613 9.97954 18.1021 10.9233 16.7501 11.5045V11.9999C16.7501 12.4141 16.4143 12.7499 16.0001 12.7499C15.5914 12.7499 15.259 12.423 15.2503 12.0163C13.12 12.5779 10.8802 12.5779 8.74991 12.0163C8.74121 12.4229 8.40883 12.7499 8.00009 12.7499C7.58587 12.7499 7.25009 12.4141 7.25009 11.9999V11.5044C5.89804 10.9232 4.43881 9.9794 2.16208 8.49951Z" fill="#FFFFFF" />
</svg>