<svg xmlns="http://www.w3.org/2000/svg" width="24" height="24" viewBox="0 0 24 24" fill="none">
  <path fill-rule="nonzero" clip-rule="nonzero" d="M 10.2755 2.25503 C 10.359 2.24997 10.4474 2.24998 10.5609 2.25 H 13.4395 C 13.553 2.24998 13.6413 2.24997 13.7249 2.25503 C 14.7853 2.31926 15.7139 2.98855 16.1102 3.97426 C 16.1414 4.05194 16.1694 4.13581 16.2052 4.24347 L 16.2083 4.25254 C 16.2916 4.47692 16.4829 4.73205 16.7506 4.93589 C 16.7804 4.95858 16.8104 4.98 16.8403 5.00017 C 18.9942 5.00268 20.1185 5.04245 20.8934 5.67298 C 21.0524 5.80233 21.1977 5.94763 21.327 6.10659 C 22 6.9337 22 8.15877 22 10.6089 C 22 11.2307 22 11.5415 21.8492 11.784 C 21.8199 11.8312 21.7866 11.8759 21.7498 11.9176 C 21.5609 12.1317 21.2631 12.2211 20.6676 12.3997 L 16 13.8 V 13 C 16 11.8954 15.1046 11 14 11 H 10 C 8.89543 11 8 11.8954 8 13 V 13.8 L 3.3324 12.3997 C 2.7369 12.2211 2.43915 12.1317 2.25021 11.9176 C 2.21341 11.8759 2.18015 11.8312 2.15078 11.784 C 2 11.5415 2 11.2307 2 10.6089 C 2 8.15877 2 6.9337 2.67298 6.10659 C 2.80233 5.94763 2.94763 5.80233 3.10659 5.67298 C 3.88153 5.04245 5.00582 5.00268 7.15973 5.00017 C 7.18968 4.97999 7.21961 4.95855 7.24943 4.93586 C 7.51728 4.73199 7.70854 4.47684 7.79189 4.25251 C 7.82984 4.13863 7.85823 4.05369 7.89017 3.97425 C 8.28643 2.98855 9.21502 2.31926 10.2755 2.25503 Z M14.8187 4.81811 L14.8171 4.81449 L14.813 4.80471 L14.8081 4.79271 L14.8036 4.78081 L14.7999 4.77089 L14.7982 4.76588 L14.7939 4.75366 L14.7901 4.74239 L14.788 4.73614 L14.7853 4.72778 L14.783 4.72071 L14.7813 4.71499 C14.7419 4.59698 14.7298 4.56204 14.7185 4.53375 C14.5383 4.08571 14.1162 3.78148 13.6342 3.75229 C13.602 3.75034 13.5624 3.75 13.419 3.75 L10.5813 3.75 C10.4379 3.75 10.3984 3.75034 10.3661 3.75229 C9.88412 3.78148 9.46203 4.08571 9.28191 4.53375 C9.27037 4.56246 9.25769 4.59872 9.21886 4.71502 L9.21707 4.72079 L9.21483 4.72783 L9.2121 4.73617 L9.21001 4.74244 L9.20618 4.75373 L9.20194 4.76597 L9.20016 4.77098 L9.19652 4.78093 L9.19194 4.7929 L9.18707 4.80502 L9.1829 4.81492 L9.18135 4.81842 C9.1572 4.87988 9.13059 4.94044 9.10172 5 L14.8984 5 C14.8695 4.94034 14.8429 4.87968 14.8187 4.81811 Z M14 12.5 C14.2761 12.5 14.5 12.7239 14.5 13 L14.5 15.1615 C14.5 15.3659 14.3755 15.5498 14.1857 15.6257 L13.4856 15.9058 C12.5319 16.2872 11.4681 16.2872 10.5144 15.9058 L9.8143 15.6257 C9.62448 15.5498 9.5 15.3659 9.5 15.1615 L9.5 13 C9.5 12.7239 9.72386 12.5 10 12.5 L14 12.5 Z M8.01076 15.3691 C8.08702 16.1018 8.5628 16.7407 9.25722 17.0184 L9.95735 17.2985 C11.2686 17.823 12.7314 17.823 14.0426 17.2985 L14.7428 17.0184 C15.4372 16.7407 15.913 16.1018 15.9892 15.3691 L20.9939 13.8677 C20.9638 16.9822 20.7819 19.8505 19.6819 20.8283 C18.3639 21.9998 16.2425 21.9998 11.9999 21.9998 C7.75726 21.9998 5.63593 21.9998 4.31792 20.8283 C3.21789 19.8505 3.03595 16.9822 3.00586 13.8677 L8.01076 15.3691 Z" fill="#FFFFFF" />
</svg>