<svg xmlns="http://www.w3.org/2000/svg" width="24" height="24" viewBox="0 0 24 24" fill="none">
  <path fill-rule="nonzero" clip-rule="nonzero" d="M10.5814 1.25 L13.4395 1.25 C13.553 1.24998 13.6414 1.24997 13.725 1.25503 C14.7854 1.31926 15.714 1.98855 16.1102 2.97426 C16.1415 3.05195 16.1694 3.13578 16.2053 3.24347 L16.2374 3.33981 C16.2563 3.39649 16.2617 3.41254 16.2663 3.42518 C16.4262 3.86731 16.9572 4.23601 17.519 4.25024 L19.3384 4.33925 C20.1246 4.43163 20.7978 4.62833 21.3668 5.09123 C21.5655 5.25291 21.7471 5.43454 21.9088 5.63325 C22.3717 6.20216 22.5684 6.87537 22.6608 7.6616 C22.75 8.42138 22.75 9.37672 22.75 10.5616 L22.75 10.6402 C22.75 10.9241 22.7501 11.1903 22.7273 11.4144 C22.7022 11.6624 22.6443 11.9257 22.4861 12.18 C22.4347 12.2627 22.3765 12.3409 22.3121 12.4139 C22.143 12.6055 21.9466 12.7291 21.7495 12.8205 C21.7466 14.4357 21.7262 16.0682 21.5813 17.4664 C21.4963 18.2856 21.366 19.0548 21.1593 19.7106 C20.9559 20.3557 20.6556 20.9665 20.1803 21.389 C19.3568 22.1209 18.3204 22.4436 17.0267 22.5983 C15.7568 22.75 14.1291 22.75 12.0512 22.75 L11.9488 22.75 C9.87087 22.75 8.2432 22.75 6.97328 22.5983 C5.67956 22.4436 4.64319 22.1209 3.81975 21.389 C3.34441 20.9665 3.04411 20.3557 2.84074 19.7106 C2.63401 19.0548 2.50368 18.2856 2.41875 17.4664 C2.27381 16.0682 2.25336 14.4357 2.25048 12.8205 C2.05339 12.7291 1.85699 12.6055 1.68788 12.4139 C1.62347 12.3409 1.56526 12.2627 1.51386 12.18 C1.35574 11.9257 1.29784 11.6624 1.27268 11.4144 C1.24994 11.1903 1.24997 10.9241 1.25 10.6402 L1.25 10.6089 L1.25 10.5617 C1.24999 9.37673 1.24998 8.42138 1.33925 7.6616 C1.43163 6.87537 1.62833 6.20216 2.09123 5.63325 C2.25292 5.43454 2.43454 5.25291 2.63325 5.09123 C3.20216 4.62833 3.87537 4.43163 4.6616 4.33925 L6.481 4.25024 C7.04303 4.236 7.5743 3.86717 7.73417 3.4252 C7.73878 3.41248 7.74407 3.39678 7.76306 3.33981 L7.78872 3.26283 L7.79516 3.24351 C7.83104 3.1358 7.85898 3.05196 7.89021 2.97425 C8.28648 1.98855 9.21507 1.31926 10.2755 1.25503 C10.3591 1.24997 10.4474 1.24998 10.561 1.25 L10.5814 1.25 Z M7.57032 5.75 C6.34762 5.75004 5.49176 5.75202 4.83665 5.829 C4.19102 5.90486 3.83814 6.04466 3.57995 6.25474 C3.46072 6.35175 3.35175 6.46072 3.25474 6.57995 C3.04466 6.83814 2.90487 7.19102 2.829 7.83664 C2.75122 8.49864 2.75 9.3656 2.75 10.6089 C2.75 10.935 2.7509 11.1238 2.76502 11.263 C2.77336 11.3452 2.78391 11.3786 2.78785 11.3882 L8.75 13.242 L2.81236 11.4212 C2.82047 11.4277 2.84942 11.4474 2.92578 11.479 C3.05502 11.5326 3.23557 11.5877 3.54792 11.6814 L8.75 13.242 L8.75 13 C8.75 12.3096 9.30965 11.75 10 11.75 L14 11.75 C14.6904 11.75 15.25 12.3096 15.25 13 L15.25 13.242 L20.4521 11.6814 C20.7644 11.5877 20.945 11.5326 21.0742 11.479 C21.1506 11.4474 21.1795 11.4277 21.1876 11.4212 C21.1967 11.4109 21.2049 11.3999 21.2122 11.3882 C21.2161 11.3786 21.2266 11.3452 21.235 11.263 C21.2491 11.1238 21.25 10.935 21.25 10.6089 C21.25 9.3656 21.2488 8.49864 21.171 7.83664 C21.0951 7.19102 20.9553 6.83814 20.7453 6.57995 C20.6483 6.46072 20.5393 6.35175 20.4201 6.25474 C20.1619 6.04466 19.809 5.90486 19.1634 5.829 C18.5082 5.75202 17.6524 5.75004 16.4297 5.75 L16.3911 5.75 L7.60893 5.75 L7.57032 5.75 Z M 10.5814 2.75 C 10.438 2.75 10.3984 2.75034 10.3662 2.75229 C 9.88417 2.78148 9.46208 3.08571 9.28196 3.53375 C 9.26991 3.56374 9.25708 3.60117 9.21174 3.73717 L 9.18338 3.82225 C 9.16835 3.86736 9.15665 3.90246 9.14472 3.93544 C 9.10527 4.04452 9.05863 4.14944 9.00558 4.25 H 14.9949 C 14.9418 4.14945 14.8952 4.04453 14.8557 3.93547 C 14.8438 3.90249 14.8321 3.86736 14.8171 3.82225 L 14.7887 3.73717 C 14.7434 3.60117 14.7305 3.56374 14.7185 3.53375 C 14.5384 3.08571 14.1163 2.78148 13.6343 2.75229 C 13.602 2.75034 13.5625 2.75 13.4191 2.75 H 10.5814 Z M 3.7521 13.3087 C 3.7589 14.7455 3.78782 16.1259 3.91076 17.3118 C 3.99059 18.0818 4.10738 18.7394 4.27134 19.2596 C 4.43867 19.7904 4.63263 20.1046 4.8163 20.2679 C 5.31088 20.7075 5.99418 20.9706 7.15128 21.1089 C 8.32178 21.2487 9.85979 21.25 12 21.25 C 14.1402 21.25 15.6782 21.2487 16.8487 21.1089 C 18.0058 20.9706 18.6891 20.7075 19.1837 20.2679 C 19.3674 20.1046 19.5613 19.7904 19.7287 19.2596 C 19.8926 18.7394 20.0094 18.0818 20.0892 17.3118 C 20.2122 16.1259 20.2411 14.7455 20.2479 13.3087 L 15.25 14.808 V 15.1615 C 15.25 15.6726 14.9388 16.1323 14.4642 16.3221 L 13.7641 16.6021 C 12.6317 17.0551 11.3684 17.0551 10.2359 16.6021 L 9.53577 16.3221 C 9.06119 16.1323 8.75 15.6726 8.75 15.1615 V 14.808 L 3.7521 13.3087 Z M 10.25 13.25 V 14.9922 L 10.793 15.2094 C 11.5678 15.5194 12.4322 15.5194 13.207 15.2094 L 13.75 14.9922 V 13.25 H 10.25 Z" fill="#FFFFFF" />
</svg>