<svg xmlns="http://www.w3.org/2000/svg" width="24" height="24" viewBox="0 0 24 24" fill="none">
  <path fill-rule="nonzero" clip-rule="nonzero" d="M 10.561 2.25 H 13.4395 C 13.553 2.24998 13.6414 2.24997 13.725 2.25503 C 14.7854 2.31926 15.714 2.98855 16.1102 3.97426 C 16.1415 4.05195 16.1694 4.13578 16.2053 4.24347 L 16.2374 4.33981 C 16.2563 4.39649 16.2617 4.41254 16.2663 4.42518 C 16.4435 4.91498 16.8799 5.25578 17.3353 5.30011 C 17.3687 5.30192 17.402 5.3038 17.435 5.30575 C 19.1115 5.40466 20.4013 5.68377 21.3588 6.64125 C 22.1071 7.38961 22.4392 8.33856 22.5969 9.51098 C 22.75 10.6502 22.75 12.1058 22.75 13.9436 V 14.0564 C 22.75 15.8942 22.75 17.3498 22.5969 18.489 C 22.4392 19.6614 22.1071 20.6104 21.3588 21.3588 C 20.6104 22.1071 19.6614 22.4392 18.489 22.5969 C 17.3498 22.75 15.8942 22.75 14.0564 22.75 H 9.94359 C 8.10583 22.75 6.65019 22.75 5.51098 22.5969 C 4.33856 22.4392 3.38961 22.1071 2.64124 21.3588 C 1.89288 20.6104 1.56076 19.6614 1.40314 18.489 C 1.24997 17.3498 1.24998 15.8942 1.25 14.0564 V 13.9436 C 1.24998 12.1058 1.24997 10.6502 1.40314 9.51098 C 1.56076 8.33856 1.89288 7.38961 2.64124 6.64125 C 3.59872 5.68377 4.88854 5.40466 6.56498 5.30575 C 6.59801 5.3038 6.63127 5.30192 6.66476 5.30011 C 7.12033 5.25576 7.55706 4.91482 7.73417 4.42521 C 7.73877 4.41248 7.74407 4.39678 7.76305 4.33981 L 7.79518 4.24343 C 7.83105 4.13577 7.85898 4.05194 7.89021 3.97426 C 8.28647 2.98855 9.21507 2.31926 10.2755 2.25503 C 10.3591 2.24997 10.4474 2.24998 10.561 2.25 Z M6.64194 6.80382 C5.03808 6.89946 4.24386 7.15995 3.7019 7.70191 C3.50952 7.89429 3.35217 8.119 3.22505 8.40141 C5.0521 9.58756 6.25261 10.3528 7.26347 10.8578 C7.32993 10.5116 7.63442 10.25 8 10.25 C8.41421 10.25 8.75 10.5858 8.75 11 L8.75 11.4579 C10.8694 12.0975 13.1306 12.0975 15.25 11.458 L15.25 11 C15.25 10.5858 15.5858 10.25 16 10.25 C16.3656 10.25 16.6701 10.5116 16.7365 10.8578 C17.7474 10.3528 18.9479 9.58765 20.775 8.40149 C20.6479 8.11905 20.4905 7.89431 20.2981 7.70191 C19.7561 7.15995 18.9619 6.89946 17.3581 6.80382 C17.3136 6.80246 17.2695 6.79997 17.2256 6.79639 C16.3533 6.75027 15.3028 6.75 14 6.75 L10 6.75 C8.69718 6.75 7.64675 6.75027 6.77435 6.79639 C6.7305 6.79997 6.68636 6.80246 6.64194 6.80382 Z M 2.86034 9.95302 C 2.75136 10.9494 2.75 12.2393 2.75 14 C 2.75 15.9068 2.75159 17.2615 2.88976 18.2892 C 3.02502 19.2952 3.27869 19.8749 3.7019 20.2981 C 4.12511 20.7213 4.70476 20.975 5.71085 21.1102 C 6.73851 21.2484 8.09318 21.25 10 21.25 H 14 C 15.9068 21.25 17.2615 21.2484 18.2892 21.1102 C 19.2952 20.975 19.8749 20.7213 20.2981 20.2981 C 20.7213 19.8749 20.975 19.2952 21.1102 18.2892 C 21.2484 17.2615 21.25 15.9068 21.25 14 C 21.25 12.2394 21.2486 10.9495 21.1397 9.95312 C 19.2527 11.1759 17.9585 11.9851 16.75 12.5046 V 13 C 16.75 13.4142 16.4142 13.75 16 13.75 C 15.5913 13.75 15.2589 13.423 15.2502 13.0164 C 13.1199 13.578 10.8801 13.578 8.74982 13.0164 C 8.74112 13.423 8.40875 13.75 8 13.75 C 7.58579 13.75 7.25 13.4142 7.25 13 V 12.5045 C 6.0415 11.985 4.74736 11.1758 2.86034 9.95302 Z M14.817 4.82212 L14.7887 4.73717 C14.7434 4.60115 14.7306 4.56374 14.7185 4.53375 C14.5384 4.08571 14.1163 3.78148 13.6343 3.75229 C13.602 3.75034 13.5625 3.75 13.4191 3.75 L10.5814 3.75 C10.438 3.75 10.3984 3.75034 10.3662 3.75229 C9.88416 3.78148 9.46208 4.08571 9.28196 4.53375 C9.2699 4.56374 9.25708 4.60117 9.21174 4.73718 L9.18608 4.81415 L9.18336 4.8223 C9.16834 4.86739 9.15664 4.90248 9.14472 4.93544 C9.10571 5.04327 9.06013 5.14863 9.00843 5.25089 C9.31915 5.25 9.64269 5.25 9.97944 5.25 L14.0206 5.25 C14.3575 5.25 14.6812 5.25 14.992 5.25089 M14.8557 4.93547 L14.992 5.25089 C14.9403 5.14863 14.8947 5.04328 14.8557 4.93547 Z" fill="#FFFFFF" />
</svg>