<svg xmlns="http://www.w3.org/2000/svg" width="24" height="24" viewBox="0 0 24 24" fill="none">
  <path fill-rule="nonzero" clip-rule="nonzero" d="M 9.94358 5.25 H 14.0564 C 15.8942 5.24998 17.3498 5.24997 18.489 5.40313 C 19.6614 5.56076 20.6104 5.89288 21.3588 6.64124 C 22.1071 7.38961 22.4392 8.33855 22.5969 9.51098 C 22.75 10.6502 22.75 12.1058 22.75 13.9436 V 14.0564 C 22.75 15.8942 22.75 17.3498 22.5969 18.489 C 22.4392 19.6614 22.1071 20.6104 21.3588 21.3588 C 20.6104 22.1071 19.6614 22.4392 18.489 22.5969 C 17.3498 22.75 15.8942 22.75 14.0564 22.75 H 9.94359 C 8.10583 22.75 6.65019 22.75 5.51098 22.5969 C 4.33856 22.4392 3.38961 22.1071 2.64124 21.3588 C 1.89288 20.6104 1.56076 19.6614 1.40314 18.489 C 1.24997 17.3498 1.24998 15.8942 1.25 14.0564 V 13.9436 C 1.24998 12.1058 1.24997 10.6502 1.40314 9.51098 C 1.56076 8.33855 1.89288 7.38961 2.64124 6.64124 C 3.38961 5.89288 4.33856 5.56076 5.51098 5.40313 C 6.65019 5.24997 8.10582 5.24998 9.94358 5.25 Z M 5.71085 6.88976 C 4.70476 7.02502 4.12511 7.27869 3.7019 7.7019 C 3.50952 7.89429 3.35217 8.119 3.22505 8.4014 C 5.05211 9.58755 6.25261 10.3528 7.26347 10.8578 C 7.32993 10.5116 7.63442 10.25 8 10.25 C 8.41421 10.25 8.75 10.5858 8.75 11 V 11.4579 C 10.8694 12.0975 13.1306 12.0975 15.25 11.458 V 11 C 15.25 10.5858 15.5858 10.25 16 10.25 C 16.3656 10.25 16.6701 10.5116 16.7365 10.8578 C 17.7474 10.3528 18.9479 9.58764 20.775 8.40148 C 20.6479 8.11904 20.4905 7.89431 20.2981 7.7019 C 19.8749 7.27869 19.2952 7.02502 18.2892 6.88976 C 17.2615 6.75159 15.9068 6.75 14 6.75 H 10 C 8.09318 6.75 6.73851 6.75159 5.71085 6.88976 Z M 21.1397 9.95311 C 19.2527 11.1759 17.9585 11.9851 16.75 12.5046 V 13 C 16.75 13.4142 16.4142 13.75 16 13.75 C 15.5913 13.75 15.2589 13.423 15.2502 13.0164 C 13.1199 13.578 10.8801 13.578 8.74983 13.0164 C 8.74112 13.423 8.40875 13.75 8 13.75 C 7.58579 13.75 7.25 13.4142 7.25 13 V 12.5045 C 6.0415 11.985 4.74736 11.1758 2.86034 9.95302 C 2.75136 10.9494 2.75 12.2393 2.75 14 C 2.75 15.9068 2.75159 17.2615 2.88976 18.2892 C 3.02502 19.2952 3.27869 19.8749 3.7019 20.2981 C 4.12511 20.7213 4.70476 20.975 5.71085 21.1102 C 6.73851 21.2484 8.09318 21.25 10 21.25 H 14 C 15.9068 21.25 17.2615 21.2484 18.2892 21.1102 C 19.2952 20.975 19.8749 20.7213 20.2981 20.2981 C 20.7213 19.8749 20.975 19.2952 21.1102 18.2892 C 21.2484 17.2615 21.25 15.9068 21.25 14 C 21.25 12.2394 21.2486 10.9495 21.1397 9.95311 Z" fill="#FFFFFF" />
  <path fill-rule="evenodd" clip-rule="evenodd" d="M11.9999 2.75C11.0215 2.75 10.187 3.37503 9.87778 4.24993C9.73975 4.64047 9.31126 4.84517 8.92072 4.70713C8.53018 4.56909 8.32549 4.1406 8.46353 3.75007C8.97796 2.29459 10.366 1.25 11.9999 1.25C13.6339 1.25 15.0219 2.29459 15.5364 3.75007C15.6744 4.1406 15.4697 4.56909 15.0792 4.70713C14.6886 4.84517 14.2601 4.64047 14.1221 4.24993C13.8129 3.37503 12.9784 2.75 11.9999 2.75Z" fill="#FFFFFF" />
</svg>