<svg xmlns="http://www.w3.org/2000/svg" width="24" height="24" viewBox="0 0 24 24" fill="none">
  <path fill-rule="nonzero" clip-rule="nonzero" d="M 2 12 V 8 C 2 5.17157 2 3.75736 2.87868 2.87868 C 3.75736 2 5.17157 2 8 2 H 16 C 18.8284 2 20.2426 2 21.1213 2.87868 C 22 3.75736 22 5.17157 22 8 V 12 C 22 14.8284 22 16.2426 21.1213 17.1213 C 20.4749 17.7677 19.5388 17.9386 17.963 17.9838 C 17.9593 17.248 17.7037 16.5132 17.1961 15.9176 C 17.1674 15.8839 17.1501 15.842 17.1465 15.7979 C 17.0211 14.2264 15.7733 12.9785 14.2018 12.8531 C 14.1577 12.8496 14.1158 12.8322 14.0821 12.8035 C 12.8822 11.781 11.1174 11.781 9.91755 12.8035 C 9.88386 12.8322 9.84198 12.8496 9.79786 12.8531 C 8.22638 12.9785 6.9785 14.2264 6.85309 15.7979 C 6.84957 15.842 6.83222 15.8839 6.80352 15.9176 C 6.29595 16.5132 6.04033 17.248 6.03666 17.9838 C 4.4611 17.9386 3.52501 17.7677 2.87868 17.1213 C 2 16.2426 2 14.8284 2 12 Z M8.25 6 C8.25 6.41421 8.58579 6.75 9 6.75 L15 6.75 C15.4142 6.75 15.75 6.41421 15.75 6 C15.75 5.58579 15.4142 5.25 15 5.25 L9 5.25 C8.58579 5.25 8.25 5.58579 8.25 6 Z M 7 8.75 C 6.58579 8.75 6.25 9.08579 6.25 9.5 C 6.25 9.91421 6.58579 10.25 7 10.25 H 17 C 17.4142 10.25 17.75 9.91421 17.75 9.5 C 17.75 9.08579 17.4142 8.75 17 8.75 H 7 Z" fill="#FFFFFF" />
  <path fill-rule="nonzero" clip-rule="nonzero" d="M13.1092 13.9452 C13.3831 14.1786 13.7237 14.3197 14.0824 14.3483 C14.9197 14.4152 15.5845 15.08 15.6513 15.9172 C15.6799 16.276 15.821 16.6165 16.0544 16.8905 C16.5992 17.5297 16.5992 18.4699 16.0544 19.1092 C15.821 19.3831 15.6799 19.7237 15.6513 20.0824 C15.5845 20.9197 14.9197 21.5845 14.0824 21.6513 C13.7237 21.6799 13.3831 21.821 13.1092 22.0544 C12.4699 22.5992 11.5297 22.5992 10.8905 22.0544 C10.6165 21.821 10.276 21.6799 9.91719 21.6513 C9.07997 21.5845 8.41515 20.9197 8.34834 20.0824 C8.31971 19.7237 8.17863 19.3831 7.94519 19.1092 C7.40043 18.4699 7.40043 17.5297 7.94519 16.8905 C8.17863 16.6165 8.31971 16.276 8.34834 15.9172 C8.41515 15.08 9.07997 14.4152 9.91719 14.3483 C10.276 14.3197 10.6165 14.1786 10.8905 13.9452 C11.5297 13.4004 12.4699 13.4004 13.1092 13.9452 Z M 14.0117 17.5483 C 14.3146 17.2657 14.3309 16.7911 14.0483 16.4883 C 13.7657 16.1855 13.2911 16.1691 12.9883 16.4517 L 11.3571 17.9741 L 11.0117 17.6517 C 10.7089 17.3691 10.2343 17.3855 9.95171 17.6883 C 9.66909 17.9911 9.68545 18.4657 9.98826 18.7483 L 10.8454 19.5483 C 11.1336 19.8172 11.5807 19.8172 11.8689 19.5483 L 14.0117 17.5483 Z" fill="#FFFFFF" />
</svg>