<svg xmlns="http://www.w3.org/2000/svg" width="24" height="24" viewBox="0 0 24 24" fill="none">
  <path fill-rule="nonzero" clip-rule="nonzero" d="M 7.94513 1.25 H 16.0549 C 17.4225 1.24998 18.5248 1.24996 19.3918 1.36652 C 20.2919 1.48754 21.0497 1.74643 21.6517 2.34835 C 22.2536 2.95027 22.5125 3.70814 22.6335 4.60825 C 22.75 5.47522 22.75 6.57754 22.75 7.94513 V 12.0549 C 22.75 13.4225 22.75 14.5248 22.6335 15.3918 C 22.5125 16.2919 22.2536 17.0497 21.6517 17.6516 C 21.1537 18.1496 20.5469 18.4146 19.8361 18.5593 C 19.1459 18.6998 18.3133 18.7352 17.3276 18.7457 L 17.322 18.7458 L 17.0976 18.7464 C 17.0008 19.0506 16.8435 19.34 16.6255 19.5958 C 16.4944 19.7496 16.4152 19.9408 16.3991 20.1423 C 16.303 21.3466 15.3466 22.303 14.1423 22.3991 C 13.9409 22.4152 13.7496 22.4944 13.5958 22.6255 C 12.6762 23.4091 11.3238 23.4091 10.4042 22.6255 C 10.2504 22.4944 10.0592 22.4152 9.85771 22.3991 C 8.65336 22.303 7.69701 21.3466 7.6009 20.1423 C 7.58483 19.9409 7.50561 19.7496 7.37454 19.5958 C 7.15682 19.3403 6.99959 19.0514 6.90285 18.7477 C 5.86252 18.7407 4.9917 18.7125 4.27635 18.5811 C 3.51836 18.4418 2.87328 18.1766 2.34835 17.6517 C 1.74643 17.0497 1.48754 16.2919 1.36652 15.3918 C 1.24996 14.5248 1.24998 13.4225 1.25 12.0549 V 7.94513 C 1.24998 6.57754 1.24996 5.47522 1.36652 4.60825 C 1.48754 3.70814 1.74643 2.95027 2.34835 2.34835 C 2.95027 1.74643 3.70814 1.48754 4.60825 1.36652 C 5.47522 1.24996 6.57754 1.24998 7.94513 1.25 Z M 6.90434 17.2476 C 7.0012 16.9456 7.15794 16.6584 7.37454 16.4042 C 7.50561 16.2504 7.58483 16.0592 7.6009 15.8577 C 7.69701 14.6534 8.65336 13.697 9.85771 13.6009 C 10.0592 13.5848 10.2504 13.5056 10.4042 13.3745 C 11.3238 12.5909 12.6762 12.5909 13.5958 13.3745 C 13.7496 13.5056 13.9409 13.5848 14.1423 13.6009 C 15.3466 13.697 16.303 14.6534 16.3991 15.8577 C 16.4152 16.0592 16.4944 16.2504 16.6255 16.4042 C 16.8418 16.658 16.9984 16.9448 17.0953 17.2464 L 17.3144 17.2457 C 18.2997 17.2352 19.0022 17.1983 19.5368 17.0895 C 20.0513 16.9847 20.359 16.8229 20.591 16.591 C 20.8678 16.3142 21.0482 15.9257 21.1469 15.1919 C 21.2484 14.4365 21.25 13.4354 21.25 12 V 8 C 21.25 6.56458 21.2484 5.56347 21.1469 4.80812 C 21.0482 4.07435 20.8678 3.68577 20.591 3.40901 C 20.3142 3.13225 19.9257 2.9518 19.1919 2.85315 C 18.4365 2.75159 17.4354 2.75 16 2.75 H 8 C 6.56458 2.75 5.56347 2.75159 4.80812 2.85315 C 4.07435 2.9518 3.68577 3.13225 3.40901 3.40901 C 3.13225 3.68577 2.9518 4.07435 2.85315 4.80812 C 2.75159 5.56347 2.75 6.56459 2.75 8 V 12 C 2.75 13.4354 2.75159 14.4365 2.85315 15.1919 C 2.9518 15.9257 3.13225 16.3142 3.40901 16.591 C 3.65246 16.8344 3.98054 17.0016 4.54735 17.1057 C 5.11753 17.2105 5.86325 17.2404 6.90434 17.2476 Z M 8.25 6 C 8.25 5.58579 8.58579 5.25 9 5.25 H 15 C 15.4142 5.25 15.75 5.58579 15.75 6 C 15.75 6.41421 15.4142 6.75 15 6.75 H 9 C 8.58579 6.75 8.25 6.41421 8.25 6 Z M 6.25 9.5 C 6.25 9.08579 6.58579 8.75 7 8.75 H 17 C 17.4142 8.75 17.75 9.08579 17.75 9.5 C 17.75 9.91422 17.4142 10.25 17 10.25 H 7 C 6.58579 10.25 6.25 9.91422 6.25 9.5 Z M 12.6229 14.5162 C 12.264 14.2103 11.736 14.2103 11.3771 14.5162 C 10.9831 14.852 10.4931 15.055 9.97703 15.0961 C 9.50695 15.1337 9.13366 15.5069 9.09615 15.977 C 9.05496 16.4931 8.85202 16.9831 8.51621 17.3771 C 8.21034 17.736 8.21034 18.264 8.51621 18.6229 C 8.85202 19.0169 9.05496 19.5069 9.09615 20.023 C 9.13366 20.4931 9.50695 20.8663 9.97703 20.9039 C 10.4931 20.945 10.9831 21.148 11.3771 21.4838 C 11.736 21.7897 12.264 21.7897 12.6229 21.4838 C 13.0169 21.148 13.5069 20.945 14.023 20.9039 C 14.4931 20.8663 14.8663 20.4931 14.9039 20.023 C 14.945 19.5069 15.148 19.0169 15.4838 18.6229 C 15.7897 18.264 15.7897 17.736 15.4838 17.3771 C 15.148 16.9831 14.945 16.4931 14.9039 15.977 C 14.8663 15.5069 14.4931 15.1337 14.023 15.0961 C 13.5069 15.055 13.0169 14.852 12.6229 14.5162 Z M 12.9883 16.4517 C 13.2911 16.1691 13.7657 16.1854 14.0483 16.4883 C 14.3309 16.7911 14.3146 17.2657 14.0117 17.5483 L 11.8689 19.5483 C 11.5807 19.8172 11.1336 19.8172 10.8454 19.5483 L 9.98826 18.7483 C 9.68545 18.4657 9.66908 17.9911 9.95171 17.6883 C 10.2343 17.3854 10.7089 17.3691 11.0117 17.6517 L 11.3571 17.9741 L 12.9883 16.4517 Z" fill="#FFFFFF" />
</svg>