<svg xmlns="http://www.w3.org/2000/svg" width="24" height="24" viewBox="0 0 24 24" fill="none">
  <path fill-rule="nonzero" clip-rule="nonzero" d="M4 4.69434 C4 5.24662 4.44772 5.69434 5 5.69434 L17 5.69434 C18.6569 5.69434 20 7.03748 20 8.69434 L20 18.6943 C20 20.3512 18.6569 21.6943 17 21.6943 L7 21.6943 C5.34315 21.6943 4 20.3512 4 18.6943 L4 4.69434 Z M7.25 11.6943 C7.25 12.1085 7.58579 12.4443 8 12.4443 L16 12.4443 C16.4142 12.4443 16.75 12.1085 16.75 11.6943 C16.75 11.2801 16.4142 10.9443 16 10.9443 L8 10.9443 C7.58579 10.9443 7.25 11.2801 7.25 11.6943 Z M7.25 15.1943 C7.25 15.6085 7.58579 15.9443 8 15.9443 L13.5 15.9443 C13.9142 15.9443 14.25 15.6085 14.25 15.1943 C14.25 14.7801 13.9142 14.4443 13.5 14.4443 L8 14.4443 C7.58579 14.4443 7.25 14.7801 7.25 15.1943 Z" fill="#FFFFFF" />
  <path opacity="0.5" d="M18 4.00038V5.86504C17.6872 5.75449 17.3506 5.69434 17 5.69434H5C4.44772 5.69434 4 5.24662 4 4.69434V4.62329C4 4.09027 4.39193 3.63837 4.91959 3.56299L15.7172 2.02048C16.922 1.84835 18 2.78328 18 4.00038Z" fill="#FFFFFF" />
</svg>