<svg xmlns="http://www.w3.org/2000/svg" width="24" height="24" viewBox="0 0 24 24" fill="none">
  <path fill-rule="nonzero" clip-rule="nonzero" d="M4 5 C4 5.55228 4.44772 6 5 6 L17 6 C18.6569 6 20 7.34315 20 9 L20 19 C20 20.6569 18.6569 22 17 22 L7 22 C5.34315 22 4 20.6569 4 19 L4 5 Z M7.25 12 C7.25 12.4142 7.58579 12.75 8 12.75 L16 12.75 C16.4142 12.75 16.75 12.4142 16.75 12 C16.75 11.5858 16.4142 11.25 16 11.25 L8 11.25 C7.58579 11.25 7.25 11.5858 7.25 12 Z M7.25 15.5 C7.25 15.9142 7.58579 16.25 8 16.25 L13.5 16.25 C13.9142 16.25 14.25 15.9142 14.25 15.5 C14.25 15.0858 13.9142 14.75 13.5 14.75 L8 14.75 C7.58579 14.75 7.25 15.0858 7.25 15.5 Z" fill="#FFFFFF" />
  <path d="M4.40879 4.0871C4.75727 4.24338 5 4.59334 5 5H17C17.3453 5 17.6804 5.04375 18 5.12602V4.30604C18 3.08894 16.922 2.15402 15.7172 2.32614L4.91959 3.86865C4.72712 3.89615 4.55271 3.97374 4.40879 4.0871Z" fill="#FFFFFF" />
</svg>