<svg xmlns="http://www.w3.org/2000/svg" width="24" height="24" viewBox="0 0 24 24" fill="none">
  <path fill-rule="nonzero" clip-rule="nonzero" d="M 15.6111 1.5837 C 17.2678 1.34703 18.75 2.63255 18.75 4.30606 V 5.68256 C 19.9395 6.31131 20.75 7.56102 20.75 9.00004 V 19 C 20.75 21.0711 19.0711 22.75 17 22.75 H 7 C 4.92893 22.75 3.25 21.0711 3.25 19 V 5.00004 C 3.25 4.99074 3.25017 4.98148 3.2505 4.97227 C 3.25017 4.95788 3.25 4.94344 3.25 4.92897 C 3.25 4.02272 3.91638 3.25437 4.81353 3.12621 L 15.6111 1.5837 Z M 4.75 6.75004 V 19 C 4.75 20.2427 5.75736 21.25 7 21.25 H 17 C 18.2426 21.25 19.25 20.2427 19.25 19 V 9.00004 C 19.25 7.7574 18.2426 6.75004 17 6.75004 H 4.75 Z M 5.07107 5.25004 H 17.25 V 4.30606 C 17.25 3.54537 16.5763 2.96104 15.8232 3.06862 L 5.02566 4.61113 C 4.86749 4.63373 4.75 4.76919 4.75 4.92897 C 4.75 5.10629 4.89375 5.25004 5.07107 5.25004 Z M 7.25 12 C 7.25 11.5858 7.58579 11.25 8 11.25 H 16 C 16.4142 11.25 16.75 11.5858 16.75 12 C 16.75 12.4143 16.4142 12.75 16 12.75 H 8 C 7.58579 12.75 7.25 12.4143 7.25 12 Z M 7.25 15.5 C 7.25 15.0858 7.58579 14.75 8 14.75 H 13.5 C 13.9142 14.75 14.25 15.0858 14.25 15.5 C 14.25 15.9143 13.9142 16.25 13.5 16.25 H 8 C 7.58579 16.25 7.25 15.9143 7.25 15.5 Z" fill="#FFFFFF" />
</svg>