<svg xmlns="http://www.w3.org/2000/svg" width="24" height="24" viewBox="0 0 24 24" fill="none">
  <path fill-rule="nonzero" clip-rule="nonzero" d="M3.17157 2.17157 C4.34315 1 6.22876 1 10 1 L14 1 C17.7712 1 19.6569 1 20.8284 2.17157 C22 3.34315 22 5.22876 22 9 L22 13 C22 16.7712 22 18.6569 20.8284 19.8284 C19.6569 21 17.7712 21 14 21 L10 21 C6.22876 21 4.34315 21 3.17157 19.8284 C2 18.6569 2 16.7712 2 13 L2 9 C2 5.22876 2 3.34315 3.17157 2.17157 Z M12.5074 15.7223 C13.1174 15.4009 14.1634 14.8896 15 14.6852 C15.4375 14.5783 15.9839 14.5147 16.4901 14.477 C17.3207 14.4151 18 13.7437 18 12.9108 L18 7.45154 C18 6.64543 17.3619 5.98216 16.5568 6.0217 C15.9405 6.05197 15.2404 6.12099 14.7 6.27079 C13.9685 6.47356 13.0752 6.95027 12.5219 7.27042 L12.5 7.28277 L12.5 15.7262 L12.5074 15.7223 Z M 6 7.49649 V 12.9108 C 6 13.7437 6.67934 14.4151 7.50991 14.477 C 8.01608 14.5147 8.56248 14.5783 9 14.6852 C 9.83655 14.8896 10.8826 15.4009 11.4926 15.7223 L 11.5 15.7262 V 7.31094 C 11.4881 7.30525 11.4763 7.29933 11.4646 7.29318 C 10.851 6.9711 9.8239 6.4721 9 6.27079 C 8.55592 6.16228 7.99967 6.09844 7.48717 6.06091 C 6.66539 6.00074 6 6.67251 6 7.49649 Z" fill="#FFFFFF" />
</svg>