<svg xmlns="http://www.w3.org/2000/svg" width="24" height="24" viewBox="0 0 24 24" fill="none">
  <path fill-rule="nonzero" clip-rule="nonzero" d="M22.75 4.93323 L22.75 16.1436 C22.75 17.6798 21.5062 18.8792 20.032 18.9714 C19.0732 19.0314 17.9943 19.1467 17.1914 19.3586 C16.1988 19.6205 14.9714 20.2029 13.9804 20.7311 C12.7471 21.3885 11.2529 21.3885 10.0196 20.7311 C9.0286 20.2029 7.8012 19.6205 6.80864 19.3586 C6.00566 19.1467 4.9268 19.0314 3.96804 18.9714 C2.49378 18.8792 1.25 17.6798 1.25 16.1436 L1.25 4.99784 C1.25 3.49868 2.47017 2.23057 4.02841 2.32634 C5.01517 2.38698 6.23055 2.50876 7.19136 2.7623 C8.32766 3.06215 9.63736 3.68609 10.6328 4.21248 C11.4617 4.65074 12.4801 4.62712 13.2982 4.15366 C14.1706 3.64872 15.2899 3.06687 16.2849 2.76899 C17.4296 2.4263 18.9175 2.30789 20.0559 2.26824 C21.5847 2.21498 22.75 3.46992 22.75 4.93323 Z M20.1081 3.76733 C18.9892 3.8063 17.6643 3.92182 16.7151 4.20597 C15.8949 4.45152 14.9 4.95972 14.0495 5.45191 C13.6421 5.68771 13.2023 5.85153 12.75 5.94207 L12.75 19.6194 C12.9305 19.5678 13.1065 19.4971 13.2748 19.4074 C14.2827 18.8701 15.6383 18.2171 16.8086 17.9082 C17.7591 17.6574 18.9582 17.5356 19.9383 17.4743 C20.6817 17.4278 21.25 16.8294 21.25 16.1436 L21.25 4.93323 C21.25 4.25164 20.7229 3.74591 20.1081 3.76733 Z M 11.25 5.97501 C 10.795 5.90426 10.349 5.75918 9.93167 5.53851 C 8.95486 5.022 7.77076 4.46654 6.80864 4.21266 C 5.99643 3.99833 4.90238 3.88288 3.93639 3.82351 C 3.30243 3.78455 2.75 4.30065 2.75 4.99784 V 16.1436 C 2.75 16.8294 3.31831 17.4278 4.06168 17.4743 C 5.04176 17.5356 6.24092 17.6574 7.19136 17.9082 C 8.3617 18.2171 9.71727 18.8701 10.7252 19.4074 C 10.8935 19.4971 11.0695 19.5678 11.25 19.6194 V 5.97501 Z" fill="#FFFFFF" />
</svg>