<svg xmlns="http://www.w3.org/2000/svg" width="24" height="24" viewBox="0 0 24 24" fill="none">
  <path d="M18.8181 8.27243C19.2199 8.17197 19.6271 8.41629 19.7276 8.81813C19.8281 9.21998 19.5837 9.62718 19.1819 9.72764L15.1819 10.7276C14.7801 10.8281 14.3729 10.5838 14.2724 10.1819C14.1719 9.78009 14.4163 9.37289 14.8181 9.27243L18.8181 8.27243Z" fill="#FFFFFF" />
  <path d="M18.8181 12.2724C19.2199 12.172 19.6271 12.4163 19.7276 12.8181C19.8281 13.22 19.5837 13.6272 19.1819 13.7276L15.1819 14.7276C14.7801 14.8281 14.3729 14.5838 14.2724 14.1819C14.1719 13.7801 14.4163 13.3729 14.8181 13.2724L18.8181 12.2724Z" fill="#FFFFFF" />
  <path d="M4.27239 8.81813C4.37285 8.41629 4.78006 8.17197 5.1819 8.27243L9.1819 9.27243C9.58375 9.37289 9.82807 9.78009 9.72761 10.1819C9.62715 10.5838 9.21994 10.8281 8.8181 10.7276L4.8181 9.72764C4.41625 9.62718 4.17193 9.21998 4.27239 8.81813Z" fill="#FFFFFF" />
  <path d="M4.27239 12.8181C4.37285 12.4163 4.78006 12.172 5.1819 12.2724L9.1819 13.2724C9.58375 13.3729 9.82807 13.7801 9.72761 14.1819C9.62715 14.5838 9.21994 14.8281 8.8181 14.7276L4.8181 13.7276C4.41625 13.6272 4.17193 13.22 4.27239 12.8181Z" fill="#FFFFFF" />
  <path fill-rule="nonzero" clip-rule="nonzero" d="M22.75 4.93323 L22.75 16.1436 C22.75 17.6798 21.5062 18.8792 20.032 18.9714 C19.0732 19.0314 17.9943 19.1467 17.1914 19.3586 C16.1988 19.6205 14.9714 20.2029 13.9804 20.7311 C12.7471 21.3885 11.2529 21.3885 10.0196 20.7311 C9.0286 20.2029 7.8012 19.6205 6.80864 19.3586 C6.00566 19.1467 4.9268 19.0314 3.96804 18.9714 C2.49378 18.8792 1.25 17.6798 1.25 16.1436 L1.25 4.99784 C1.25 3.49868 2.47017 2.23057 4.02841 2.32634 C5.01517 2.38698 6.23055 2.50876 7.19136 2.7623 C8.32766 3.06215 9.63736 3.68609 10.6328 4.21248 C11.4617 4.65074 12.4801 4.62712 13.2982 4.15366 C14.1706 3.64872 15.2899 3.06687 16.2849 2.76899 C17.4296 2.4263 18.9175 2.30789 20.0559 2.26824 C21.5847 2.21498 22.75 3.46992 22.75 4.93323 Z M20.1081 3.76733 C18.9892 3.8063 17.6643 3.92182 16.7151 4.20597 C15.8949 4.45152 14.9 4.95972 14.0495 5.45191 C13.6421 5.68771 13.2023 5.85153 12.75 5.94207 L12.75 19.6194 C12.9305 19.5678 13.1065 19.4971 13.2748 19.4074 C14.2827 18.8701 15.6383 18.2171 16.8086 17.9082 C17.7591 17.6574 18.9582 17.5356 19.9383 17.4743 C20.6817 17.4278 21.25 16.8294 21.25 16.1436 L21.25 4.93323 C21.25 4.25164 20.7229 3.74591 20.1081 3.76733 Z M 11.25 5.97501 C 10.795 5.90426 10.349 5.75918 9.93167 5.53851 C 8.95486 5.022 7.77076 4.46654 6.80864 4.21266 C 5.99643 3.99833 4.90238 3.88288 3.93639 3.82351 C 3.30243 3.78455 2.75 4.30065 2.75 4.99784 V 16.1436 C 2.75 16.8294 3.31831 17.4278 4.06168 17.4743 C 5.04176 17.5356 6.24092 17.6574 7.19136 17.9082 C 8.3617 18.2171 9.71727 18.8701 10.7252 19.4074 C 10.8935 19.4971 11.0695 19.5678 11.25 19.6194 V 5.97501 Z" fill="#FFFFFF" />
</svg>