<svg xmlns="http://www.w3.org/2000/svg" width="24" height="24" viewBox="0 0 24 24" fill="none">
  <path fill-rule="nonzero" clip-rule="nonzero" d="M 14.2502 4.47954 L 14.2502 7.5372 C 14.25 7.64842 14.2498 7.80699 14.271 7.9431 C 14.297 8.10951 14.3826 8.43079 14.7153 8.62611 C 15.0357 8.81422 15.349 8.74436 15.498 8.69806 C 15.6278 8.6577 15.7702 8.58988 15.8764 8.5393 L 17.0002 8.00545 L 18.124 8.5393 C 18.2302 8.58987 18.3725 8.6577 18.5024 8.69806 C 18.6513 8.74436 18.9647 8.81422 19.2851 8.62611 C 19.6177 8.43079 19.7033 8.10952 19.7293 7.9431 C 19.7506 7.807 19.7504 7.64845 19.7502 7.53723 L 19.7502 3.0313 C 19.863 3.026 19.9737 3.02152 20.082 3.01775 C 21.1538 2.98041 22 3.86075 22 4.93319 V 16.1436 C 22 17.2546 21.094 18.1535 19.9851 18.2228 C 19.0157 18.2835 17.8767 18.402 17 18.6334 C 15.9185 18.9187 14.6271 19.5365 13.6276 20.0692 C 13.3485 20.218 13.0531 20.3257 12.7502 20.3925 V 5.17387 C 13.0709 5.0953 13.3824 4.97142 13.6738 4.80275 C 13.8581 4.6961 14.0514 4.58732 14.2502 4.47954 Z M19.7278 12.8181 C19.6273 12.4163 19.2201 12.1719 18.8183 12.2724 L14.8183 13.2724 C14.4164 13.3729 14.1721 13.7801 14.2726 14.1819 C14.373 14.5837 14.7802 14.8281 15.1821 14.7276 L19.1821 13.7276 C19.5839 13.6271 19.8282 13.2199 19.7278 12.8181 Z" fill="#FFFFFF" />
  <path fill-rule="nonzero" clip-rule="nonzero" d="M11.2502 5.21397 L11.2502 20.3926 C10.9472 20.3258 10.6516 20.218 10.3724 20.0692 C9.37293 19.5365 8.08145 18.9187 7 18.6334 C6.12329 18.402 4.98428 18.2835 4.01486 18.2228 C2.90605 18.1535 2 17.2546 2 16.1436 L2 4.9978 C2 3.89963 2.8863 3.00752 3.9824 3.07489 C4.95877 3.1349 6.11349 3.25351 7 3.48744 C8.04921 3.76431 9.29611 4.35401 10.2823 4.87546 C10.5894 5.03785 10.9159 5.15048 11.2502 5.21397 Z M4.27257 8.8181 C4.17211 9.21994 4.41643 9.62715 4.81828 9.72761 L8.81828 10.7276 C9.22012 10.8281 9.62732 10.5837 9.72778 10.1819 C9.82825 9.78006 9.58393 9.37285 9.18208 9.27239 L5.18208 8.27239 C4.78023 8.17193 4.37303 8.41625 4.27257 8.8181 Z M 5.18208 12.2724 C 4.78023 12.1719 4.37303 12.4163 4.27257 12.8181 C 4.17211 13.2199 4.41643 13.6271 4.81828 13.7276 L 8.81828 14.7276 C 9.22012 14.8281 9.62732 14.5837 9.72778 14.1819 C 9.82825 13.7801 9.58393 13.3729 9.18208 13.2724 L 5.18208 12.2724 Z" fill="#FFFFFF" />
  <path d="M18.2502 3.15101C17.6301 3.22431 17.0206 3.33159 16.5 3.48744C16.2585 3.55975 16.0064 3.65141 15.7502 3.7564V3.95002V6.93859L16.4995 6.58266L16.5083 6.57822C16.5573 6.55316 16.7638 6.44757 17.0002 6.44757C17.0477 6.44757 17.094 6.45184 17.1381 6.45887C17.3132 6.48679 17.4529 6.5582 17.4921 6.57822L17.5009 6.58265L18.2502 6.93859V3.64665V3.15101Z" fill="#FFFFFF" />
</svg>