<svg xmlns="http://www.w3.org/2000/svg" width="24" height="24" viewBox="0 0 24 24" fill="none">
  <path fill-rule="nonzero" clip-rule="nonzero" d="M 16.52 5.27261 C 17.7923 5.21011 18.75 6.25695 18.75 7.45154 V 12.9108 C 18.75 14.1716 17.7316 15.1365 16.5459 15.2249 C 16.0529 15.2617 15.5551 15.3216 15.178 15.4138 C 14.4402 15.594 13.4666 16.0647 12.857 16.3858 C 12.3214 16.6681 11.6786 16.6681 11.143 16.3858 C 10.5334 16.0647 9.55979 15.594 8.82199 15.4138 C 8.44487 15.3216 7.94708 15.2617 7.45414 15.2249 C 6.26836 15.1365 5.25 14.1716 5.25 12.9108 V 7.49649 C 5.25 6.27528 6.248 5.21817 7.54194 5.31291 C 8.06744 5.35139 8.67286 5.41879 9.17802 5.54222 C 10.0998 5.76744 11.1985 6.30646 11.8132 6.6291 C 11.9157 6.6829 12.0434 6.68078 12.1463 6.62125 C 12.7018 6.29984 13.6675 5.77873 14.4997 5.54804 C 15.1227 5.37535 15.8904 5.30353 16.52 5.27261 Z M 17.25 7.45154 C 17.25 7.03391 16.9314 6.7542 16.5935 6.7708 C 15.9907 6.80041 15.3582 6.86663 14.9003 6.99354 C 14.2696 7.16839 13.4487 7.6007 12.8975 7.91959 C 12.8493 7.94749 12.8001 7.97306 12.75 7.99628 V 14.7586 C 13.3591 14.4625 14.1393 14.1234 14.822 13.9566 C 15.3199 13.835 15.9149 13.7678 16.4343 13.7291 C 16.9097 13.6936 17.25 13.3157 17.25 12.9108 V 7.45154 Z M11.116 7.95726 C10.5035 7.63574 9.54804 7.17676 8.82199 6.99936 C8.43898 6.90578 7.9319 6.84548 7.4324 6.80891 C7.08277 6.78331 6.75 7.06975 6.75 7.49649 L6.75 12.9108 C6.75 13.3157 7.09031 13.6936 7.56568 13.7291 C8.08508 13.7678 8.68009 13.835 9.17802 13.9566 C9.86071 14.1234 10.6409 14.4625 11.25 14.7586 L11.25 8.02081 C11.2047 8.00154 11.16 7.98035 11.116 7.95726 Z" fill="#FFFFFF" />
  <path fill-rule="nonzero" clip-rule="nonzero" d="M9.94358 0.25 L14.0564 0.25 C15.8942 0.249985 17.3498 0.249973 18.489 0.403136 C19.6614 0.560764 20.6104 0.892881 21.3588 1.64124 C22.1071 2.38961 22.4392 3.33856 22.5969 4.51098 C22.75 5.65018 22.75 7.10585 22.75 8.94359 L22.75 13.0565 C22.75 14.8942 22.75 16.3498 22.5969 17.489 C22.4392 18.6614 22.1071 19.6104 21.3588 20.3588 C20.6104 21.1071 19.6614 21.4392 18.489 21.5969 C17.3498 21.75 15.8942 21.75 14.0564 21.75 L9.94354 21.75 C8.1058 21.75 6.65018 21.75 5.51098 21.5969 C4.33856 21.4392 3.38961 21.1071 2.64124 20.3588 C1.89288 19.6104 1.56076 18.6614 1.40314 17.489 C1.24997 16.3498 1.24998 14.8942 1.25 13.0564 L1.25 8.94357 C1.24998 7.10582 1.24997 5.65019 1.40314 4.51098 C1.56076 3.33856 1.89288 2.38961 2.64124 1.64124 C3.38961 0.892881 4.33856 0.560764 5.51098 0.403136 C6.65019 0.249973 8.10583 0.249985 9.94358 0.25 Z M3.7019 2.7019 C3.27869 3.12511 3.02503 3.70476 2.88976 4.71085 C2.75159 5.73851 2.75 7.09318 2.75 9 L2.75 13 C2.75 14.9068 2.75159 16.2615 2.88976 17.2892 C3.02503 18.2952 3.27869 18.8749 3.7019 19.2981 C4.12511 19.7213 4.70476 19.975 5.71085 20.1102 C6.73851 20.2484 8.09318 20.25 10 20.25 L14 20.25 C15.9068 20.25 17.2615 20.2484 18.2892 20.1102 C19.2952 19.975 19.8749 19.7213 20.2981 19.2981 C20.7213 18.8749 20.975 18.2952 21.1102 17.2892 C21.2484 16.2615 21.25 14.9068 21.25 13 L21.25 9 C21.25 7.09318 21.2484 5.73851 21.1102 4.71085 C20.975 3.70476 20.7213 3.12511 20.2981 2.7019 C19.8749 2.27869 19.2952 2.02503 18.2892 1.88976 C17.2615 1.75159 15.9068 1.75 14 1.75 L10 1.75 C8.09318 1.75 6.73851 1.75159 5.71085 1.88976 C4.70476 2.02503 4.12511 2.27869 3.7019 2.7019 Z" fill="#FFFFFF" />
</svg>