<svg xmlns="http://www.w3.org/2000/svg" width="24" height="24" viewBox="0 0 24 24" fill="none">
  <path fill-rule="nonzero" clip-rule="nonzero" d="M12 9.25002 C14.0711 9.25002 15.75 10.929 15.75 13 C15.75 15.0711 14.0711 16.75 12 16.75 C9.92893 16.75 8.25 15.0711 8.25 13 C8.25 10.929 9.92893 9.25002 12 9.25002 Z M9.75 13 C9.75 14.2427 10.7574 15.25 12 15.25 C13.2426 15.25 14.25 14.2427 14.25 13 C14.25 11.7574 13.2426 10.75 12 10.75 C10.7574 10.75 9.75 11.7574 9.75 13 Z" fill="#FFFFFF" />
  <path d="M10 18.25C9.58579 18.25 9.25 18.5858 9.25 19C9.25 19.4142 9.58579 19.75 10 19.75H14C14.4142 19.75 14.75 19.4142 14.75 19C14.75 18.5858 14.4142 18.25 14 18.25H10Z" fill="#FFFFFF" />
  <path fill-rule="nonzero" clip-rule="nonzero" d="M 15.6111 1.5837 C 17.2678 1.34703 18.75 2.63255 18.75 4.30606 V 5.68254 C 19.9395 6.31129 20.75 7.561 20.75 9.00002 V 19 C 20.75 21.0711 19.0711 22.75 17 22.75 H 7 C 4.92893 22.75 3.25 21.0711 3.25 19 V 5.00002 H 3.25136 C 3.25046 4.97645 3.25 4.95276 3.25 4.92897 C 3.25 4.02272 3.91638 3.25437 4.81353 3.12621 L 15.6111 1.5837 Z M 5.07107 6.75004 L 5.06244 6.75002 H 4.75 V 19 C 4.75 20.2427 5.75736 21.25 7 21.25 H 17 C 18.2426 21.25 19.25 20.2427 19.25 19 V 9.00002 C 19.25 7.76058 18.2478 6.75521 17.0096 6.75004 H 5.07107 Z M17.25 5.25004 L17.25 4.30606 C17.25 3.54537 16.5763 2.96104 15.8232 3.06862 L5.02566 4.61113 C4.86749 4.63373 4.75 4.76919 4.75 4.92897 C4.75 5.10507 4.89177 5.24805 5.0674 5.25002 L17 5.25002 L17.0125 5.25004 L17.25 5.25004 Z" fill="#FFFFFF" />
</svg>