<svg xmlns="http://www.w3.org/2000/svg" width="24" height="24" viewBox="0 0 24 24" fill="none">
  <path d="M5 5C5 4.59334 4.75727 4.24338 4.40879 4.0871C4.55271 3.97374 4.72712 3.89615 4.91959 3.86865L15.7172 2.32614C16.922 2.15402 18 3.08894 18 4.30604V5.12602C17.6804 5.04375 17.3453 5 17 5H5Z" fill="#FFFFFF" />
  <path d="M9.75 13C9.75 11.7574 10.7574 10.75 12 10.75C13.2426 10.75 14.25 11.7574 14.25 13C14.25 14.2426 13.2426 15.25 12 15.25C10.7574 15.25 9.75 14.2426 9.75 13Z" fill="#FFFFFF" />
  <path fill-rule="nonzero" clip-rule="nonzero" d="M 18 6.17071 C 19.1652 6.58254 20 7.69378 20 9 V 19 C 20 20.6569 18.6569 22 17 22 H 7 C 5.34315 22 4 20.6569 4 19 V 5 C 4 5.18214 4.0487 5.35291 4.13378 5.5 C 4.30669 5.7989 4.62986 6 5 6 H 17 C 17.3506 6 17.6872 6.06015 18 6.17071 Z M 12 9.25 C 9.92893 9.25 8.25 10.9289 8.25 13 C 8.25 15.0711 9.92893 16.75 12 16.75 C 14.0711 16.75 15.75 15.0711 15.75 13 C 15.75 10.9289 14.0711 9.25 12 9.25 Z M 10 18.25 C 9.58579 18.25 9.25 18.5858 9.25 19 C 9.25 19.4142 9.58579 19.75 10 19.75 H 14 C 14.4142 19.75 14.75 19.4142 14.75 19 C 14.75 18.5858 14.4142 18.25 14 18.25 H 10 Z" fill="#FFFFFF" />
</svg>