<svg xmlns="http://www.w3.org/2000/svg" width="24" height="24" viewBox="0 0 24 24" fill="none">
  <path d="M9.75 13C9.75 11.7574 10.7574 10.75 12 10.75C13.2426 10.75 14.25 11.7574 14.25 13C14.25 14.2426 13.2426 15.25 12 15.25C10.7574 15.25 9.75 14.2426 9.75 13Z" fill="#FFFFFF" />
  <path fill-rule="nonzero" clip-rule="nonzero" d="M 4 18.6943 V 4.69434 C 4 5.24662 4.44772 5.69434 5 5.69434 H 17 C 18.6569 5.69434 20 7.03748 20 8.69434 V 18.6943 C 20 20.3512 18.6569 21.6943 17 21.6943 H 7 C 5.34315 21.6943 4 20.3512 4 18.6943 Z M8.25 13 C8.25 15.0711 9.92893 16.75 12 16.75 C14.0711 16.75 15.75 15.0711 15.75 13 C15.75 10.9289 14.0711 9.25 12 9.25 C9.92893 9.25 8.25 10.9289 8.25 13 Z M9.25 19 C9.25 19.4142 9.58579 19.75 10 19.75 L14 19.75 C14.4142 19.75 14.75 19.4142 14.75 19 C14.75 18.5858 14.4142 18.25 14 18.25 L10 18.25 C9.58579 18.25 9.25 18.5858 9.25 19 Z" fill="#FFFFFF" />
  <path opacity="0.5" d="M18 4.00038V5.86504C17.6872 5.75449 17.3506 5.69434 17 5.69434H5C4.44772 5.69434 4 5.24662 4 4.69434V4.62329C4 4.09027 4.39193 3.63837 4.91959 3.56299L15.7172 2.02048C16.922 1.84835 18 2.78328 18 4.00038Z" fill="#FFFFFF" />
</svg>