<svg xmlns="http://www.w3.org/2000/svg" width="24" height="24" viewBox="0 0 24 24" fill="none">
  <path fill-rule="nonzero" clip-rule="nonzero" d="M 8.25 14 C 8.25 11.929 9.92893 10.25 12 10.25 C 14.0711 10.25 15.75 11.929 15.75 14 C 15.75 16.0711 14.0711 17.75 12 17.75 C 9.92893 17.75 8.25 16.0711 8.25 14 Z M 12 11.75 C 10.7574 11.75 9.75 12.7574 9.75 14 C 9.75 15.2427 10.7574 16.25 12 16.25 C 13.2426 16.25 14.25 15.2427 14.25 14 C 14.25 12.7574 13.2426 11.75 12 11.75 Z" fill="#FFFFFF" />
  <path fill-rule="nonzero" clip-rule="nonzero" d="M18.75 4.30606 L18.75 5.68254 C19.9395 6.31129 20.75 7.561 20.75 9.00002 L20.75 19 C20.75 21.0711 19.0711 22.75 17 22.75 L7 22.75 C4.92893 22.75 3.25 21.0711 3.25 19 L3.25 5.00002 L3.25136 5.00002 C3.25046 4.97645 3.25 4.95276 3.25 4.92897 C3.25 4.02272 3.91638 3.25437 4.81353 3.12621 L15.6111 1.5837 C17.2678 1.34703 18.75 2.63255 18.75 4.30606 Z M5.06244 6.75002 L4.75 6.75002 L4.75 19 C4.75 20.2427 5.75736 21.25 7 21.25 L17 21.25 C18.2426 21.25 19.25 20.2427 19.25 19 L19.25 9.00002 C19.25 7.76058 18.2478 6.75521 17.0096 6.75004 L5.07107 6.75004 C5.06819 6.75004 5.06531 6.75003 5.06244 6.75002 Z M 17.0125 5.25004 H 17.25 V 4.30606 C 17.25 3.54537 16.5763 2.96104 15.8232 3.06862 L 5.02566 4.61113 C 4.86749 4.63373 4.75 4.76919 4.75 4.92897 C 4.75 5.10507 4.89177 5.24805 5.0674 5.25002 H 17 C 17.0042 5.25002 17.0084 5.25003 17.0125 5.25004 Z" fill="#FFFFFF" />
</svg>