<svg xmlns="http://www.w3.org/2000/svg" width="24" height="24" viewBox="0 0 24 24" fill="none">
  <path fill-rule="nonzero" clip-rule="nonzero" d="M 11.9426 1.25 H 12.0574 C 14.3658 1.24999 16.1748 1.24998 17.5863 1.43975 C 19.031 1.63399 20.1711 2.03933 21.0659 2.93414 C 21.9607 3.82895 22.366 4.96897 22.5603 6.41371 C 22.75 7.82519 22.75 9.63423 22.75 11.9426 V 12.0574 C 22.75 14.3658 22.75 16.1748 22.5603 17.5863 C 22.366 19.031 21.9607 20.1711 21.0659 21.0659 C 20.1711 21.9607 19.031 22.366 17.5863 22.5603 C 16.1748 22.75 14.3658 22.75 12.0574 22.75 H 11.9426 C 9.63423 22.75 7.82519 22.75 6.41371 22.5603 C 4.96897 22.366 3.82895 21.9607 2.93414 21.0659 C 2.03933 20.1711 1.63399 19.031 1.43975 17.5863 C 1.24998 16.1748 1.24999 14.3658 1.25 12.0574 V 11.9426 C 1.24999 9.63423 1.24998 7.82519 1.43975 6.41371 C 1.63399 4.96897 2.03933 3.82895 2.93414 2.93414 C 3.82895 2.03933 4.96897 1.63399 6.41371 1.43975 C 7.82519 1.24998 9.63423 1.24999 11.9426 1.25 Z M 6.61358 2.92637 C 5.33517 3.09825 4.56445 3.42514 3.9948 3.9948 C 3.42514 4.56445 3.09825 5.33517 2.92637 6.61358 C 2.75159 7.91356 2.75 9.62177 2.75 12 C 2.75 14.3782 2.75159 16.0864 2.92637 17.3864 C 3.0449 18.268 3.23714 18.9082 3.53188 19.4075 L 19.4075 3.53188 C 18.9082 3.23714 18.268 3.0449 17.3864 2.92637 C 16.0864 2.75159 14.3782 2.75 12 2.75 C 9.62177 2.75 7.91356 2.75159 6.61358 2.92637 Z M 20.4681 4.59254 L 4.59254 20.4681 C 5.09183 20.7629 5.73199 20.9551 6.61358 21.0736 C 7.91356 21.2484 9.62177 21.25 12 21.25 C 14.3782 21.25 16.0864 21.2484 17.3864 21.0736 C 18.6648 20.9018 19.4355 20.5749 20.0052 20.0052 C 20.5749 19.4355 20.9018 18.6648 21.0736 17.3864 C 21.2484 16.0864 21.25 14.3782 21.25 12 C 21.25 9.62177 21.2484 7.91356 21.0736 6.61358 C 20.9551 5.73199 20.7629 5.09183 20.4681 4.59254 Z M 8 4.74996 C 8.41421 4.74996 8.75 5.08575 8.75 5.49996 L 8.75 7.24998 H 10.5 C 10.9142 7.24998 11.25 7.58577 11.25 7.99998 C 11.25 8.41419 10.9142 8.74998 10.5 8.74998 H 8.75 L 8.75 10.5 C 8.75 10.9142 8.41421 11.25 8 11.25 C 7.58579 11.25 7.25 10.9142 7.25 10.5 L 7.25 8.74998 L 5.5 8.74998 C 5.08579 8.74998 4.75 8.41419 4.75 7.99998 C 4.75 7.58577 5.08579 7.24998 5.5 7.24998 L 7.25 7.24998 L 7.25 5.49996 C 7.25 5.08575 7.58579 4.74996 8 4.74996 Z M 12.25 17 C 12.25 16.5858 12.5858 16.25 13 16.25 H 18 C 18.4142 16.25 18.75 16.5858 18.75 17 C 18.75 17.4142 18.4142 17.75 18 17.75 H 13 C 12.5858 17.75 12.25 17.4142 12.25 17 Z" fill="#FFFFFF" />
</svg>