<svg xmlns="http://www.w3.org/2000/svg" width="24" height="24" viewBox="0 0 24 24" fill="none">
  <path fill-rule="nonzero" clip-rule="nonzero" d="M 22 12 C 22 16.714 22 19.0711 20.5355 20.5355 C 19.0711 22 16.714 22 12 22 C 7.866 22 5.54466 22 4.04833 21.0123 L 21.0123 4.04833 C 22 5.54466 22 7.866 22 12 Z M18.75 17 C18.75 16.5858 18.4142 16.25 18 16.25 L13 16.25 C12.5858 16.25 12.25 16.5858 12.25 17 C12.25 17.4142 12.5858 17.75 13 17.75 L18 17.75 C18.4142 17.75 18.75 17.4142 18.75 17 Z" fill="#FFFFFF" />
  <path fill-rule="nonzero" clip-rule="nonzero" d="M12 2 C16.134 2 18.4553 2 19.9517 2.98767 L2.98767 19.9517 C2 18.4553 2 16.134 2 12 C2 7.28595 2 4.92893 3.46447 3.46447 C4.92893 2 7.28595 2 12 2 Z M8 4.74996 C7.58579 4.74996 7.25 5.08575 7.25 5.49996 L7.25 7.24998 L5.5 7.24998 C5.08579 7.24998 4.75 7.58577 4.75 7.99998 C4.75 8.41419 5.08579 8.74998 5.5 8.74998 L7.25 8.74998 L7.25 10.5 C7.25 10.9142 7.58579 11.25 8 11.25 C8.41421 11.25 8.75 10.9142 8.75 10.5 L8.75 8.74998 L10.5 8.74998 C10.9142 8.74998 11.25 8.41419 11.25 7.99998 C11.25 7.58577 10.9142 7.24998 10.5 7.24998 L8.75 7.24998 L8.75 5.49996 C8.75 5.08575 8.41421 4.74996 8 4.74996 Z" fill="#FFFFFF" />
</svg>