<svg xmlns="http://www.w3.org/2000/svg" width="24" height="24" viewBox="0 0 24 24" fill="none">
  <path fill-rule="nonzero" clip-rule="nonzero" d="M 9.46435 2.82057 C 11.0871 2.05981 12.9128 2.05981 14.5356 2.82057 L 21.2268 5.95756 C 22.2791 6.4509 22.75 7.52222 22.75 8.50002 C 22.75 9.47782 22.2791 10.5491 21.2268 11.0425 L 19.75 11.7348 V 16.6254 C 19.75 17.8785 19.1217 19.0883 17.978 19.7217 C 17.2263 20.138 16.2384 20.6391 15.1988 21.038 C 14.1715 21.4321 13.0339 21.75 12 21.75 C 10.9661 21.75 9.82851 21.4321 8.80116 21.038 C 7.76158 20.6391 6.77371 20.138 6.02198 19.7217 C 4.87826 19.0883 4.25 17.8785 4.25 16.6254 V 11.7348 L 2.77323 11.0424 L 2.75 11.0314 V 14 C 2.75 14.4142 2.41421 14.75 2 14.75 C 1.58579 14.75 1.25 14.4142 1.25 14 V 8.5 C 1.25 7.5222 1.72095 6.45085 2.77324 5.95752 L 9.46435 2.82057 Z M 5.75 12.438 V 16.6254 C 5.75 17.3884 6.12875 18.0661 6.74868 18.4095 C 7.46533 18.8063 8.38678 19.2724 9.33844 19.6375 C 10.3023 20.0073 11.2379 20.25 12 20.25 C 12.7621 20.25 13.6977 20.0073 14.6616 19.6375 C 15.6132 19.2724 16.5347 18.8063 17.2513 18.4095 C 17.8713 18.0661 18.25 17.3884 18.25 16.6254 V 12.4381 L 14.5357 14.1794 C 12.9129 14.9402 11.0872 14.9402 9.46444 14.1794 L 5.75 12.438 Z M3.40996 9.68429 L10.1012 12.8213 C11.3205 13.3929 12.6796 13.3929 13.8989 12.8213 L20.59 9.68433 C20.9932 9.49531 21.25 9.04443 21.25 8.50002 C21.25 7.95562 20.9932 7.50473 20.59 7.31571 L13.8988 4.17873 C12.6795 3.60709 11.3204 3.60709 10.1011 4.17872 L3.40997 7.31567 C3.00679 7.50469 2.75 7.95557 2.75 8.49998 C2.75 9.04438 3.00679 9.49527 3.40996 9.68429 Z" fill="#FFFFFF" />
</svg>