<svg xmlns="http://www.w3.org/2000/svg" width="24" height="24" viewBox="0 0 24 24" fill="none">
  <path fill-rule="nonzero" clip-rule="nonzero" d="M2 1.25 L22 1.25 C22.4142 1.25 22.75 1.58579 22.75 2 C22.75 2.41421 22.4142 2.75 22 2.75 L20 2.75 L20 12.2774 C20 13.6175 20 14.2875 19.7319 14.8783 C19.4638 15.4692 18.9595 15.9104 17.951 16.7929 L15.951 18.5429 C14.0685 20.1901 13.1272 21.0137 12 21.0137 C10.8728 21.0137 9.93152 20.1901 8.04897 18.5429 L6.04897 16.7928 C5.04046 15.9104 4.5362 15.4692 4.2681 14.8783 C4 14.2875 4 13.6175 4 12.2774 L4 2.75 L2 2.75 C1.58579 2.75 1.25 2.41421 1.25 2 C1.25 1.58579 1.58579 1.25 2 1.25 Z M 8.5 12.25 C 8.08579 12.25 7.75 12.5858 7.75 13 C 7.75 13.4142 8.08579 13.75 8.5 13.75 H 15.5 C 15.9142 13.75 16.25 13.4142 16.25 13 C 16.25 12.5858 15.9142 12.25 15.5 12.25 H 8.5 Z M7.75 8 C7.75 8.41421 8.08579 8.75 8.5 8.75 L15.5 8.75 C15.9142 8.75 16.25 8.41421 16.25 8 C16.25 7.58579 15.9142 7.25 15.5 7.25 L8.5 7.25 C8.08579 7.25 7.75 7.58579 7.75 8 Z" fill="#FFFFFF" />
</svg>