<svg xmlns="http://www.w3.org/2000/svg" width="24" height="24" viewBox="0 0 24 24" fill="none">
  <path fill-rule="nonzero" clip-rule="nonzero" d="M 11.9426 1.25 H 12.0574 C 14.3658 1.24999 16.1748 1.24998 17.5863 1.43975 C 19.031 1.63399 20.1711 2.03933 21.0659 2.93414 C 21.9607 3.82895 22.366 4.96897 22.5603 6.41371 C 22.75 7.82519 22.75 9.63423 22.75 11.9426 V 12.0574 C 22.75 14.3658 22.75 16.1748 22.5603 17.5863 C 22.366 19.031 21.9607 20.1711 21.0659 21.0659 C 20.1711 21.9607 19.031 22.366 17.5863 22.5603 C 16.1748 22.75 14.3658 22.75 12.0574 22.75 H 11.9426 C 9.63423 22.75 7.82519 22.75 6.41371 22.5603 C 4.96897 22.366 3.82895 21.9607 2.93414 21.0659 C 2.03933 20.1711 1.63399 19.031 1.43975 17.5863 C 1.24998 16.1748 1.24999 14.3658 1.25 12.0574 V 11.9426 C 1.24999 9.63423 1.24998 7.82519 1.43975 6.41371 C 1.63399 4.96897 2.03933 3.82895 2.93414 2.93414 C 3.82895 2.03933 4.96897 1.63399 6.41371 1.43975 C 7.82519 1.24998 9.63423 1.24999 11.9426 1.25 Z M 6.61358 2.92637 C 5.33517 3.09825 4.56445 3.42514 3.9948 3.9948 C 3.42514 4.56445 3.09825 5.33517 2.92637 6.61358 C 2.75159 7.91356 2.75 9.62177 2.75 12 C 2.75 14.3782 2.75159 16.0864 2.92637 17.3864 C 3.09825 18.6648 3.42514 19.4355 3.9948 20.0052 C 4.56445 20.5749 5.33517 20.9018 6.61358 21.0736 C 7.91356 21.2484 9.62177 21.25 12 21.25 C 14.3782 21.25 16.0864 21.2484 17.3864 21.0736 C 18.6648 20.9018 19.4355 20.5749 20.0052 20.0052 C 20.5749 19.4355 20.9018 18.6648 21.0736 17.3864 C 21.2484 16.0864 21.25 14.3782 21.25 12 C 21.25 9.62177 21.2484 7.91356 21.0736 6.61358 C 20.9018 5.33517 20.5749 4.56445 20.0052 3.9948 C 19.4355 3.42514 18.6648 3.09825 17.3864 2.92637 C 16.0864 2.75159 14.3782 2.75 12 2.75 C 9.62177 2.75 7.91356 2.75159 6.61358 2.92637 Z M 10.5172 6.4569 C 10.8172 6.74256 10.8288 7.21729 10.5431 7.51724 L 7.68596 10.5172 C 7.5444 10.6659 7.34812 10.75 7.14286 10.75 C 6.9376 10.75 6.74131 10.6659 6.59975 10.5172 L 5.4569 9.31724 C 5.17123 9.01729 5.18281 8.54256 5.48276 8.2569 C 5.78271 7.97123 6.25744 7.98281 6.5431 8.28276 L 7.14286 8.9125 L 9.4569 6.48276 C 9.74256 6.18281 10.2173 6.17123 10.5172 6.4569 Z M 12.25 9 C 12.25 8.58579 12.5858 8.25 13 8.25 H 18 C 18.4142 8.25 18.75 8.58579 18.75 9 C 18.75 9.41421 18.4142 9.75 18 9.75 H 13 C 12.5858 9.75 12.25 9.41421 12.25 9 Z M 10.5172 13.4569 C 10.8172 13.7426 10.8288 14.2173 10.5431 14.5172 L 7.68596 17.5172 C 7.5444 17.6659 7.34812 17.75 7.14286 17.75 C 6.9376 17.75 6.74131 17.6659 6.59975 17.5172 L 5.4569 16.3172 C 5.17123 16.0173 5.18281 15.5426 5.48276 15.2569 C 5.78271 14.9712 6.25744 14.9828 6.5431 15.2828 L 7.14286 15.9125 L 9.4569 13.4828 C 9.74256 13.1828 10.2173 13.1712 10.5172 13.4569 Z M 12.25 16 C 12.25 15.5858 12.5858 15.25 13 15.25 H 18 C 18.4142 15.25 18.75 15.5858 18.75 16 C 18.75 16.4142 18.4142 16.75 18 16.75 H 13 C 12.5858 16.75 12.25 16.4142 12.25 16 Z" fill="#FFFFFF" />
</svg>