<svg xmlns="http://www.w3.org/2000/svg" width="24" height="24" viewBox="0 0 24 24" fill="none">
  <path fill-rule="nonzero" clip-rule="nonzero" d="M3.46447 3.46447 C4.92893 2 7.28595 2 12 2 C16.714 2 19.0711 2 20.5355 3.46447 C22 4.92893 22 7.28595 22 12 C22 16.714 22 19.0711 20.5355 20.5355 C19.0711 22 16.714 22 12 22 C7.28595 22 4.92893 22 3.46447 20.5355 C2 19.0711 2 16.714 2 12 C2 7.28595 2 4.92893 3.46447 3.46447 Z M 10.5431 7.51724 C 10.8288 7.2173 10.8172 6.74256 10.5172 6.4569 C 10.2173 6.17123 9.74256 6.18281 9.4569 6.48276 L 7.14286 8.9125 L 6.5431 8.28276 C 6.25744 7.98281 5.78271 7.97123 5.48276 8.2569 C 5.18281 8.54256 5.17123 9.01729 5.4569 9.31724 L 6.59976 10.5172 C 6.74131 10.6659 6.9376 10.75 7.14286 10.75 C 7.34812 10.75 7.5444 10.6659 7.68596 10.5172 L 10.5431 7.51724 Z M 13 8.25 C 12.5858 8.25 12.25 8.58579 12.25 9 C 12.25 9.41422 12.5858 9.75 13 9.75 H 18 C 18.4142 9.75 18.75 9.41422 18.75 9 C 18.75 8.58579 18.4142 8.25 18 8.25 H 13 Z M 10.5431 14.5172 C 10.8288 14.2173 10.8172 13.7426 10.5172 13.4569 C 10.2173 13.1712 9.74256 13.1828 9.4569 13.4828 L 7.14286 15.9125 L 6.5431 15.2828 C 6.25744 14.9828 5.78271 14.9712 5.48276 15.2569 C 5.18281 15.5426 5.17123 16.0173 5.4569 16.3172 L 6.59976 17.5172 C 6.74131 17.6659 6.9376 17.75 7.14286 17.75 C 7.34812 17.75 7.5444 17.6659 7.68596 17.5172 L 10.5431 14.5172 Z M 13 15.25 C 12.5858 15.25 12.25 15.5858 12.25 16 C 12.25 16.4142 12.5858 16.75 13 16.75 H 18 C 18.4142 16.75 18.75 16.4142 18.75 16 C 18.75 15.5858 18.4142 15.25 18 15.25 H 13 Z" fill="#FFFFFF" />
</svg>