<svg xmlns="http://www.w3.org/2000/svg" width="24" height="24" viewBox="0 0 24 24" fill="none">
  <path fill-rule="nonzero" clip-rule="nonzero" d="M 8.04832 2.48826 C 8.33094 2.79108 8.31458 3.26567 8.01176 3.54829 L 3.72605 7.54829 C 3.57393 7.69027 3.36967 7.76267 3.1621 7.74818 C 2.95453 7.7337 2.7623 7.63363 2.63138 7.4719 L 1.41709 5.9719 C 1.15647 5.64996 1.20618 5.17769 1.52813 4.91707 C 1.85007 4.65645 2.32234 4.70616 2.58296 5.0281 L 3.29089 5.90261 L 6.98829 2.45171 C 7.2911 2.16909 7.76569 2.18545 8.04832 2.48826 Z M 11.25 5 C 11.25 4.58579 11.5858 4.25 12 4.25 H 22 C 22.4142 4.25 22.75 4.58579 22.75 5 C 22.75 5.41422 22.4142 5.75 22 5.75 H 12 C 11.5858 5.75 11.25 5.41422 11.25 5 Z M 8.04832 16.4883 C 8.33094 16.7911 8.31458 17.2657 8.01176 17.5483 L 3.72605 21.5483 C 3.57393 21.6903 3.36967 21.7627 3.1621 21.7482 C 2.95453 21.7337 2.7623 21.6336 2.63138 21.4719 L 1.41709 19.9719 C 1.15647 19.65 1.20618 19.1777 1.52813 18.9171 C 1.85007 18.6564 2.32234 18.7062 2.58296 19.0281 L 3.29089 19.9026 L 6.98829 16.4517 C 7.2911 16.1691 7.76569 16.1855 8.04832 16.4883 Z M 11.25 19 C 11.25 18.5858 11.5858 18.25 12 18.25 H 22 C 22.4142 18.25 22.75 18.5858 22.75 19 C 22.75 19.4142 22.4142 19.75 22 19.75 H 12 C 11.5858 19.75 11.25 19.4142 11.25 19 Z" fill="#FFFFFF" />
  <g opacity="0.5">
    <path d="M8.04832 9.48826C8.33094 9.79108 8.31458 10.2657 8.01176 10.5483L3.72605 14.5483C3.57393 14.6903 3.36967 14.7627 3.1621 14.7482C2.95453 14.7337 2.7623 14.6336 2.63138 14.4719L1.41709 12.9719C1.15647 12.65 1.20618 12.1777 1.52813 11.9171C1.85007 11.6564 2.32234 11.7062 2.58296 12.0281L3.29089 12.9026L6.98829 9.45171C7.2911 9.16909 7.76569 9.18545 8.04832 9.48826Z" fill="#FFFFFF" />
    <path d="M11.25 12C11.25 11.5858 11.5858 11.25 12 11.25H22C22.4142 11.25 22.75 11.5858 22.75 12C22.75 12.4142 22.4142 12.75 22 12.75H12C11.5858 12.75 11.25 12.4142 11.25 12Z" fill="#FFFFFF" />
  </g>
</svg>