<svg xmlns="http://www.w3.org/2000/svg" width="24" height="24" viewBox="0 0 24 24" fill="none">
  <path fill-rule="nonzero" clip-rule="nonzero" d="M 2.25 6 C 2.25 5.58579 2.58579 5.25 3 5.25 H 20 C 20.4142 5.25 20.75 5.58579 20.75 6 C 20.75 6.41421 20.4142 6.75 20 6.75 H 3 C 2.58579 6.75 2.25 6.41421 2.25 6 Z M 17.5 8.25 C 17.9142 8.25 18.25 8.58579 18.25 9 V 15.1893 L 19.4697 13.9697 C 19.7626 13.6768 20.2374 13.6768 20.5303 13.9697 C 20.8232 14.2626 20.8232 14.7374 20.5303 15.0303 L 18.0303 17.5303 C 17.7374 17.8232 17.2626 17.8232 16.9697 17.5303 L 14.4697 15.0303 C 14.1768 14.7374 14.1768 14.2626 14.4697 13.9697 C 14.7626 13.6768 15.2374 13.6768 15.5303 13.9697 L 16.75 15.1893 V 9 C 16.75 8.58579 17.0858 8.25 17.5 8.25 Z M 2.25 11 C 2.25 10.5858 2.58579 10.25 3 10.25 H 12 C 12.4142 10.25 12.75 10.5858 12.75 11 C 12.75 11.4142 12.4142 11.75 12 11.75 H 3 C 2.58579 11.75 2.25 11.4142 2.25 11 Z M 2.25 16 C 2.25 15.5858 2.58579 15.25 3 15.25 H 11 C 11.4142 15.25 11.75 15.5858 11.75 16 C 11.75 16.4142 11.4142 16.75 11 16.75 H 3 C 2.58579 16.75 2.25 16.4142 2.25 16 Z" fill="#FFFFFF" />
</svg>