<svg xmlns="http://www.w3.org/2000/svg" width="24" height="24" viewBox="0 0 24 24" fill="none">
  <path fill-rule="nonzero" clip-rule="nonzero" d="M 2.25 6 C 2.25 5.58579 2.58579 5.25 3 5.25 H 20 C 20.4142 5.25 20.75 5.58579 20.75 6 C 20.75 6.41421 20.4142 6.75 20 6.75 H 3 C 2.58579 6.75 2.25 6.41421 2.25 6 Z M 16.9697 8.46967 C 17.2626 8.17678 17.7374 8.17678 18.0303 8.46967 L 20.5303 10.9697 C 20.8232 11.2626 20.8232 11.7374 20.5303 12.0303 C 20.2374 12.3232 19.7626 12.3232 19.4697 12.0303 L 18.25 10.8107 V 17 C 18.25 17.4142 17.9142 17.75 17.5 17.75 C 17.0858 17.75 16.75 17.4142 16.75 17 V 10.8107 L 15.5303 12.0303 C 15.2374 12.3232 14.7626 12.3232 14.4697 12.0303 C 14.1768 11.7374 14.1768 11.2626 14.4697 10.9697 L 16.9697 8.46967 Z M 2.25 11 C 2.25 10.5858 2.58579 10.25 3 10.25 H 11 C 11.4142 10.25 11.75 10.5858 11.75 11 C 11.75 11.4142 11.4142 11.75 11 11.75 H 3 C 2.58579 11.75 2.25 11.4142 2.25 11 Z M 2.25 16 C 2.25 15.5858 2.58579 15.25 3 15.25 H 12 C 12.4142 15.25 12.75 15.5858 12.75 16 C 12.75 16.4142 12.4142 16.75 12 16.75 H 3 C 2.58579 16.75 2.25 16.4142 2.25 16 Z" fill="#FFFFFF" />
</svg>