<svg xmlns="http://www.w3.org/2000/svg" width="24" height="24" viewBox="0 0 24 24" fill="none">
  <path fill-rule="nonzero" clip-rule="nonzero" d="M 3 6.75 C 3 6.33579 3.33579 6 3.75 6 H 20.75 C 21.1642 6 21.5 6.33579 21.5 6.75 C 21.5 7.16421 21.1642 7.5 20.75 7.5 H 3.75 C 3.33579 7.5 3 7.16421 3 6.75 Z M 21.2113 11.1586 C 21.5379 11.4134 21.5961 11.8847 21.3414 12.2113 L 17.4414 17.2113 C 17.3022 17.3897 17.0899 17.4958 16.8636 17.4999 C 16.6373 17.504 16.4213 17.4057 16.2757 17.2324 L 14.1757 14.7324 C 13.9093 14.4152 13.9504 13.9421 14.2676 13.6757 C 14.5848 13.4093 15.0579 13.4504 15.3243 13.7676 L 16.8284 15.5582 L 20.1586 11.2887 C 20.4134 10.9621 20.8847 10.9039 21.2113 11.1586 Z M 3 11.75 C 3 11.3358 3.33579 11 3.75 11 H 10.75 C 11.1642 11 11.5 11.3358 11.5 11.75 C 11.5 12.1642 11.1642 12.5 10.75 12.5 H 3.75 C 3.33579 12.5 3 12.1642 3 11.75 Z M 3 16.75 C 3 16.3358 3.33579 16 3.75 16 H 10.75 C 11.1642 16 11.5 16.3358 11.5 16.75 C 11.5 17.1642 11.1642 17.5 10.75 17.5 H 3.75 C 3.33579 17.5 3 17.1642 3 16.75 Z" fill="#FFFFFF" />
</svg>