<svg xmlns="http://www.w3.org/2000/svg" width="24" height="24" viewBox="0 0 24 24" fill="none">
  <path fill-rule="nonzero" clip-rule="nonzero" d="M 17 3.25 C 17.2361 3.25 17.4584 3.36115 17.6 3.55 L 20.6 7.55 C 20.8485 7.88137 20.7814 8.35147 20.45 8.6 C 20.1186 8.84853 19.6485 8.78137 19.4 8.45 L 17.75 6.25 V 17.75 L 19.4 15.55 C 19.6485 15.2186 20.1186 15.1515 20.45 15.4 C 20.7814 15.6485 20.8485 16.1186 20.6 16.45 L 17.6 20.45 C 17.4584 20.6389 17.2361 20.75 17 20.75 C 16.7639 20.75 16.5416 20.6389 16.4 20.45 L 13.4 16.45 C 13.1515 16.1186 13.2186 15.6485 13.55 15.4 C 13.8814 15.1515 14.3515 15.2186 14.6 15.55 L 16.25 17.75 V 6.25 L 14.6 8.45 C 14.3515 8.78137 13.8814 8.84853 13.55 8.6 C 13.2186 8.35147 13.1515 7.88137 13.4 7.55 L 16.4 3.55 C 16.5416 3.36115 16.7639 3.25 17 3.25 Z M 3.25 7 C 3.25 6.58579 3.58579 6.25 4 6.25 H 11 C 11.4142 6.25 11.75 6.58579 11.75 7 C 11.75 7.41421 11.4142 7.75 11 7.75 H 4 C 3.58579 7.75 3.25 7.41421 3.25 7 Z M 3.25 12 C 3.25 11.5858 3.58579 11.25 4 11.25 H 11 C 11.4142 11.25 11.75 11.5858 11.75 12 C 11.75 12.4142 11.4142 12.75 11 12.75 H 4 C 3.58579 12.75 3.25 12.4142 3.25 12 Z M 3.25 17 C 3.25 16.5858 3.58579 16.25 4 16.25 H 11 C 11.4142 16.25 11.75 16.5858 11.75 17 C 11.75 17.4142 11.4142 17.75 11 17.75 H 4 C 3.58579 17.75 3.25 17.4142 3.25 17 Z" fill="#FFFFFF" />
</svg>