<svg xmlns="http://www.w3.org/2000/svg" width="24" height="24" viewBox="0 0 24 24" fill="none">
  <path fill-rule="nonzero" clip-rule="nonzero" d="M 2.25 6 C 2.25 5.58579 2.58579 5.25 3 5.25 H 20 C 20.4142 5.25 20.75 5.58579 20.75 6 C 20.75 6.41421 20.4142 6.75 20 6.75 H 3 C 2.58579 6.75 2.25 6.41421 2.25 6 Z M 20.772 8.42848 C 22.007 8.89026 22.75 10.1453 22.75 11.7147 C 22.75 12.8757 22.0511 13.9574 21.3168 14.7961 C 20.5591 15.6614 19.6381 16.4085 18.9549 16.912 C 18.9283 16.9316 18.9015 16.9515 18.8745 16.9716 C 18.5029 17.2478 18.0824 17.5603 17.5 17.5603 C 16.9176 17.5603 16.4971 17.2478 16.1255 16.9716 C 16.0985 16.9515 16.0717 16.9316 16.0451 16.912 C 15.3619 16.4085 14.4409 15.6614 13.6832 14.7961 C 12.9489 13.9574 12.25 12.8757 12.25 11.7148 C 12.25 10.1453 12.993 8.89027 14.228 8.42848 C 15.2709 8.03852 16.4575 8.29174 17.5 9.10194 C 18.5425 8.29174 19.7291 8.03852 20.772 8.42848 Z M 20.2467 9.83347 C 19.7295 9.64009 18.9049 9.74331 18.0359 10.6309 C 17.8948 10.7749 17.7017 10.8561 17.5 10.8561 C 17.2983 10.8561 17.1052 10.7749 16.9641 10.6309 C 16.0951 9.74331 15.2705 9.64009 14.7533 9.83347 C 14.2445 10.0237 13.75 10.607 13.75 11.7148 C 13.75 12.3064 14.1328 13.0325 14.8118 13.808 C 15.4675 14.5568 16.2914 15.2302 16.935 15.7045 C 17.178 15.8836 17.3008 15.972 17.399 16.0252 C 17.4645 16.0606 17.4832 16.0605 17.4976 16.0603 C 17.4984 16.0603 17.4992 16.0603 17.5 16.0603 C 17.5008 16.0603 17.5016 16.0603 17.5024 16.0603 C 17.5168 16.0605 17.5355 16.0606 17.601 16.0252 C 17.6992 15.972 17.822 15.8836 18.065 15.7045 C 18.7086 15.2302 19.5325 14.5568 20.1882 13.808 C 20.8672 13.0326 21.25 12.3064 21.25 11.7147 C 21.25 10.607 20.7555 10.0237 20.2467 9.83347 Z M 2.25 11 C 2.25 10.5858 2.58579 10.25 3 10.25 H 9 C 9.41421 10.25 9.75 10.5858 9.75 11 C 9.75 11.4142 9.41421 11.75 9 11.75 H 3 C 2.58579 11.75 2.25 11.4142 2.25 11 Z M 2.25 16 C 2.25 15.5858 2.58579 15.25 3 15.25 H 10 C 10.4142 15.25 10.75 15.5858 10.75 16 C 10.75 16.4142 10.4142 16.75 10 16.75 H 3 C 2.58579 16.75 2.25 16.4142 2.25 16 Z" fill="#FFFFFF" />
</svg>