<svg xmlns="http://www.w3.org/2000/svg" width="24" height="24" viewBox="0 0 24 24" fill="none">
  <path fill-rule="nonzero" clip-rule="nonzero" d="M 2.25 5 C 2.25 4.58579 2.58579 4.25 3 4.25 H 21 C 21.4142 4.25 21.75 4.58579 21.75 5 C 21.75 5.41421 21.4142 5.75 21 5.75 H 3 C 2.58579 5.75 2.25 5.41421 2.25 5 Z M 2.25 9 C 2.25 8.58579 2.58579 8.25 3 8.25 H 21 C 21.4142 8.25 21.75 8.58579 21.75 9 C 21.75 9.41421 21.4142 9.75 21 9.75 H 3 C 2.58579 9.75 2.25 9.41421 2.25 9 Z M 2.25 13 C 2.25 12.5858 2.58579 12.25 3 12.25 H 11 C 11.4142 12.25 11.75 12.5858 11.75 13 C 11.75 13.4142 11.4142 13.75 11 13.75 H 3 C 2.58579 13.75 2.25 13.4142 2.25 13 Z M 17.5 12.25 C 17.9142 12.25 18.25 12.5858 18.25 13 V 17.1893 L 19.4697 15.9697 C 19.7626 15.6768 20.2374 15.6768 20.5303 15.9697 C 20.8232 16.2626 20.8232 16.7374 20.5303 17.0303 L 18.0303 19.5303 C 17.7374 19.8232 17.2626 19.8232 16.9697 19.5303 L 14.4697 17.0303 C 14.1768 16.7374 14.1768 16.2626 14.4697 15.9697 C 14.7626 15.6768 15.2374 15.6768 15.5303 15.9697 L 16.75 17.1893 V 13 C 16.75 12.5858 17.0858 12.25 17.5 12.25 Z M 2.25 17 C 2.25 16.5858 2.58579 16.25 3 16.25 H 11 C 11.4142 16.25 11.75 16.5858 11.75 17 C 11.75 17.4142 11.4142 17.75 11 17.75 H 3 C 2.58579 17.75 2.25 17.4142 2.25 17 Z" fill="#FFFFFF" />
</svg>