<svg xmlns="http://www.w3.org/2000/svg" width="24" height="24" viewBox="0 0 24 24" fill="none">
  <path fill-rule="nonzero" clip-rule="nonzero" d="M 2.25 6 C 2.25 5.58579 2.58579 5.25 3 5.25 H 20 C 20.4142 5.25 20.75 5.58579 20.75 6 C 20.75 6.41421 20.4142 6.75 20 6.75 H 3 C 2.58579 6.75 2.25 6.41421 2.25 6 Z M 20.4613 10.4086 C 20.7879 10.6634 20.8461 11.1347 20.5914 11.4613 L 16.6914 16.4613 C 16.5522 16.6397 16.3399 16.7458 16.1136 16.7499 C 15.8873 16.754 15.6713 16.6557 15.5257 16.4824 L 13.4257 13.9824 C 13.1593 13.6652 13.2004 13.1921 13.5176 12.9257 C 13.8348 12.6593 14.3079 12.7004 14.5743 13.0176 L 16.0784 14.8082 L 19.4086 10.5387 C 19.6634 10.2121 20.1347 10.1539 20.4613 10.4086 Z M 2.25 11 C 2.25 10.5858 2.58579 10.25 3 10.25 H 10 C 10.4142 10.25 10.75 10.5858 10.75 11 C 10.75 11.4142 10.4142 11.75 10 11.75 H 3 C 2.58579 11.75 2.25 11.4142 2.25 11 Z M 2.25 16 C 2.25 15.5858 2.58579 15.25 3 15.25 H 10 C 10.4142 15.25 10.75 15.5858 10.75 16 C 10.75 16.4142 10.4142 16.75 10 16.75 H 3 C 2.58579 16.75 2.25 16.4142 2.25 16 Z" fill="#FFFFFF" />
</svg>