<svg xmlns="http://www.w3.org/2000/svg" width="24" height="24" viewBox="0 0 24 24" fill="none">
  <path fill-rule="nonzero" clip-rule="nonzero" d="M 2.25 6 C 2.25 5.58579 2.58579 5.25 3 5.25 H 20 C 20.4142 5.25 20.75 5.58579 20.75 6 C 20.75 6.41421 20.4142 6.75 20 6.75 H 3 C 2.58579 6.75 2.25 6.41421 2.25 6 Z M 2.25 11 C 2.25 10.5858 2.58579 10.25 3 10.25 H 9 C 9.41421 10.25 9.75 10.5858 9.75 11 C 9.75 11.4142 9.41421 11.75 9 11.75 H 3 C 2.58579 11.75 2.25 11.4142 2.25 11 Z M 2.25 16 C 2.25 15.5858 2.58579 15.25 3 15.25 H 10 C 10.4142 15.25 10.75 15.5858 10.75 16 C 10.75 16.4142 10.4142 16.75 10 16.75 H 3 C 2.58579 16.75 2.25 16.4142 2.25 16 Z" fill="#FFFFFF" />
  <path d="M13 11.7148C13 13.4673 15.1633 15.3304 16.4901 16.3082C16.9442 16.643 17.1713 16.8103 17.5 16.8103C17.8287 16.8103 18.0558 16.643 18.5099 16.3082C19.8367 15.3304 22 13.4674 22 11.7147C22 9.03758 19.5249 8.03806 17.5 10.1061C15.4751 8.03806 13 9.03758 13 11.7148Z" fill="#FFFFFF" />
</svg>