<svg xmlns="http://www.w3.org/2000/svg" width="24" height="24" viewBox="0 0 24 24" fill="none">
  <path fill-rule="nonzero" clip-rule="nonzero" d="M 2.25 6 C 2.25 5.58579 2.58579 5.25 3 5.25 H 21 C 21.4142 5.25 21.75 5.58579 21.75 6 C 21.75 6.41421 21.4142 6.75 21 6.75 H 3 C 2.58579 6.75 2.25 6.41421 2.25 6 Z M 2.25 10 C 2.25 9.58579 2.58579 9.25 3 9.25 H 21 C 21.4142 9.25 21.75 9.58579 21.75 10 C 21.75 10.4142 21.4142 10.75 21 10.75 H 3 C 2.58579 10.75 2.25 10.4142 2.25 10 Z M 20.095 12.3927 C 21.1303 12.766 21.75 13.7847 21.75 15.0361 C 21.75 15.9337 21.2258 16.7455 20.6944 17.3575 C 20.142 17.9937 19.4624 18.5488 18.9242 18.9449 C 18.8995 18.963 18.8746 18.9815 18.8495 19.0001 C 18.4897 19.267 18.0811 19.5701 17.5 19.5701 C 16.9189 19.5701 16.5103 19.267 16.1505 19.0001 C 16.1254 18.9815 16.1005 18.963 16.0758 18.9449 C 15.5376 18.5488 14.858 17.9937 14.3056 17.3575 C 13.7742 16.7455 13.25 15.9337 13.25 15.0361 C 13.25 13.7847 13.8697 12.766 14.905 12.3927 C 15.7404 12.0915 16.6754 12.2721 17.5 12.8537 C 18.3246 12.2721 19.2596 12.0915 20.095 12.3927 Z M 19.5862 13.8038 C 19.2492 13.6823 18.6667 13.7332 18.0263 14.364 C 17.7343 14.6515 17.2657 14.6515 16.9737 14.364 C 16.3333 13.7332 15.7508 13.6823 15.4138 13.8038 C 15.0929 13.9195 14.75 14.2796 14.75 15.0361 C 14.75 15.3733 14.9683 15.8329 15.4382 16.374 C 15.8871 16.891 16.4677 17.3709 16.9649 17.7367 C 17.1982 17.9084 17.3121 17.99 17.4032 18.0387 C 17.4621 18.0702 17.4787 18.0701 17.4984 18.0701 L 17.5 18.0701 L 17.5016 18.0701 C 17.5213 18.0701 17.5379 18.0702 17.5968 18.0387 C 17.688 17.99 17.8019 17.9084 18.0351 17.7367 C 18.5323 17.3709 19.1129 16.891 19.5618 16.374 C 20.0317 15.8329 20.25 15.3733 20.25 15.0361 C 20.25 14.2796 19.9071 13.9195 19.5862 13.8038 Z M 2.25 14 C 2.25 13.5858 2.58579 13.25 3 13.25 H 10 C 10.4142 13.25 10.75 13.5858 10.75 14 C 10.75 14.4142 10.4142 14.75 10 14.75 H 3 C 2.58579 14.75 2.25 14.4142 2.25 14 Z M 2.25 18 C 2.25 17.5858 2.58579 17.25 3 17.25 H 10 C 10.4142 17.25 10.75 17.5858 10.75 18 C 10.75 18.4142 10.4142 18.75 10 18.75 H 3 C 2.58579 18.75 2.25 18.4142 2.25 18 Z" fill="#FFFFFF" />
</svg>