<svg xmlns="http://www.w3.org/2000/svg" width="24" height="24" viewBox="0 0 24 24" fill="none">
  <path fill-rule="nonzero" clip-rule="nonzero" d="M 3.25 7 C 3.25 6.58579 3.58579 6.25 4 6.25 H 20 C 20.4142 6.25 20.75 6.58579 20.75 7 C 20.75 7.41421 20.4142 7.75 20 7.75 H 4 C 3.58579 7.75 3.25 7.41421 3.25 7 Z M 3.25 12 C 3.25 11.5858 3.58579 11.25 4 11.25 H 15 C 15.4142 11.25 15.75 11.5858 15.75 12 C 15.75 12.4142 15.4142 12.75 15 12.75 H 4 C 3.58579 12.75 3.25 12.4142 3.25 12 Z M 3.25 17 C 3.25 16.5858 3.58579 16.25 4 16.25 H 9 C 9.41421 16.25 9.75 16.5858 9.75 17 C 9.75 17.4142 9.41421 17.75 9 17.75 H 4 C 3.58579 17.75 3.25 17.4142 3.25 17 Z" fill="#FFFFFF" />
</svg>