<svg xmlns="http://www.w3.org/2000/svg" width="24" height="24" viewBox="0 0 24 24" fill="none">
  <path fill-rule="nonzero" clip-rule="nonzero" d="M 2 5.75 C 2 5.33579 2.33579 5 2.75 5 H 20.75 C 21.1642 5 21.5 5.33579 21.5 5.75 C 21.5 6.16421 21.1642 6.5 20.75 6.5 H 2.75 C 2.33579 6.5 2 6.16421 2 5.75 Z M 2 9.75 C 2 9.33579 2.33579 9 2.75 9 H 20.75 C 21.1642 9 21.5 9.33579 21.5 9.75 C 21.5 10.1642 21.1642 10.5 20.75 10.5 H 2.75 C 2.33579 10.5 2 10.1642 2 9.75 Z M 20.2113 12.6586 C 20.5379 12.9134 20.5961 13.3847 20.3414 13.7113 L 16.4414 18.7113 C 16.3022 18.8897 16.0899 18.9958 15.8636 18.9999 C 15.6373 19.004 15.4213 18.9057 15.2757 18.7324 L 13.1757 16.2324 C 12.9093 15.9152 12.9504 15.4421 13.2676 15.1757 C 13.5848 14.9093 14.0579 14.9504 14.3243 15.2676 L 15.8284 17.0582 L 19.1586 12.7887 C 19.4134 12.4621 19.8847 12.4039 20.2113 12.6586 Z M 2 13.75 C 2 13.3358 2.33579 13 2.75 13 H 9.75 C 10.1642 13 10.5 13.3358 10.5 13.75 C 10.5 14.1642 10.1642 14.5 9.75 14.5 H 2.75 C 2.33579 14.5 2 14.1642 2 13.75 Z M 2 17.75 C 2 17.3358 2.33579 17 2.75 17 H 9.75 C 10.1642 17 10.5 17.3358 10.5 17.75 C 10.5 18.1642 10.1642 18.5 9.75 18.5 H 2.75 C 2.33579 18.5 2 18.1642 2 17.75 Z" fill="#FFFFFF" />
</svg>