<svg xmlns="http://www.w3.org/2000/svg" width="24" height="24" viewBox="0 0 24 24" fill="none">
  <path fill-rule="nonzero" clip-rule="nonzero" d="M 2.25 6 C 2.25 5.58579 2.58579 5.25 3 5.25 H 21 C 21.4142 5.25 21.75 5.58579 21.75 6 C 21.75 6.41421 21.4142 6.75 21 6.75 H 3 C 2.58579 6.75 2.25 6.41421 2.25 6 Z M 2.25 10 C 2.25 9.58579 2.58579 9.25 3 9.25 H 21 C 21.4142 9.25 21.75 9.58579 21.75 10 C 21.75 10.4142 21.4142 10.75 21 10.75 H 3 C 2.58579 10.75 2.25 10.4142 2.25 10 Z M 2.25 14 C 2.25 13.5858 2.58579 13.25 3 13.25 H 11 C 11.4142 13.25 11.75 13.5858 11.75 14 C 11.75 14.4142 11.4142 14.75 11 14.75 H 3 C 2.58579 14.75 2.25 14.4142 2.25 14 Z M 17.5 13.25 C 17.9142 13.25 18.25 13.5858 18.25 14 V 18.1893 L 19.4697 16.9697 C 19.7626 16.6768 20.2374 16.6768 20.5303 16.9697 C 20.8232 17.2626 20.8232 17.7374 20.5303 18.0303 L 18.0303 20.5303 C 17.7374 20.8232 17.2626 20.8232 16.9697 20.5303 L 14.4697 18.0303 C 14.1768 17.7374 14.1768 17.2626 14.4697 16.9697 C 14.7626 16.6768 15.2374 16.6768 15.5303 16.9697 L 16.75 18.1893 V 14 C 16.75 13.5858 17.0858 13.25 17.5 13.25 Z M 2.25 18 C 2.25 17.5858 2.58579 17.25 3 17.25 H 11 C 11.4142 17.25 11.75 17.5858 11.75 18 C 11.75 18.4142 11.4142 18.75 11 18.75 H 3 C 2.58579 18.75 2.25 18.4142 2.25 18 Z" fill="#FFFFFF" />
</svg>