<svg xmlns="http://www.w3.org/2000/svg" width="24" height="24" viewBox="0 0 24 24" fill="none">
  <path fill-rule="nonzero" clip-rule="nonzero" d="M 2.25 4 C 2.25 3.58579 2.58579 3.25 3 3.25 H 20 C 20.4142 3.25 20.75 3.58579 20.75 4 C 20.75 4.41421 20.4142 4.75 20 4.75 H 3 C 2.58579 4.75 2.25 4.41421 2.25 4 Z M 19.8632 8.40036 C 19.667 8.47267 19.4083 8.59593 18.9996 8.79212 L 17.2451 9.63429 C 17.0656 9.72043 16.9633 9.76996 16.8888 9.81194 C 16.843 9.83772 16.8253 9.8512 16.8207 9.85503 C 16.7963 9.88014 16.7774 9.9101 16.7654 9.94296 C 16.7639 9.94873 16.7594 9.97053 16.756 10.023 C 16.7504 10.1083 16.75 10.222 16.75 10.4211 C 16.75 10.8745 16.7508 11.161 16.7705 11.3692 C 16.7827 11.4972 16.7991 11.5513 16.8044 11.5665 C 16.8397 11.6108 16.889 11.6418 16.9442 11.6545 C 16.9602 11.6527 17.0161 11.6441 17.1368 11.5996 C 17.333 11.5273 17.5917 11.4041 18.0004 11.2079 L 19.7549 10.3657 C 19.9344 10.2796 20.0367 10.23 20.1112 10.1881 C 20.1571 10.1623 20.1748 10.1488 20.1793 10.145 C 20.2037 10.1198 20.2226 10.0899 20.2346 10.057 C 20.2361 10.0512 20.2406 10.0294 20.244 9.97703 C 20.2496 9.89166 20.25 9.77799 20.25 9.57892 C 20.25 9.12554 20.2492 8.83903 20.2295 8.63082 C 20.2173 8.50277 20.2009 8.44867 20.1956 8.4335 C 20.1603 8.38919 20.111 8.35817 20.0558 8.34553 C 20.0398 8.34726 19.9839 8.35589 19.8632 8.40036 Z M20.1806 10.1438 L20.1793 10.145 C20.1802 10.1443 20.1806 10.1438 20.1806 10.1438 Z M16.7658 9.9413 L16.7654 9.94296 C16.7657 9.94203 16.7659 9.94135 16.7658 9.9413 Z M16.8194 9.85619 L16.8207 9.85503 C16.8198 9.85579 16.8194 9.85621 16.8194 9.85619 Z M 19.3446 6.99286 C 19.6232 6.8902 19.9559 6.80212 20.3149 6.8678 C 20.7572 6.9487 21.1513 7.19672 21.4156 7.56043 C 21.6302 7.85569 21.6948 8.19367 21.7228 8.48928 C 21.75 8.77699 21.75 9.13579 21.75 9.5446 V 9.57892 C 21.75 9.60396 21.7501 9.62917 21.7501 9.65453 C 21.7509 9.95464 21.7518 10.2751 21.644 10.5704 C 21.559 10.8035 21.4254 11.0159 21.252 11.1934 C 21.0324 11.4183 20.7431 11.5562 20.4722 11.6854 C 20.4494 11.6963 20.4266 11.7072 20.404 11.718 L 18.6186 12.575 C 18.25 12.7519 17.9266 12.9072 17.6554 13.0071 C 17.3936 13.1036 17.0842 13.1872 16.75 13.1425 V 17.4286 C 16.75 19.2429 15.3147 20.75 13.5 20.75 C 11.6853 20.75 10.25 19.2429 10.25 17.4286 C 10.25 15.6143 11.6853 14.1071 13.5 14.1071 C 14.1477 14.1071 14.747 14.2991 15.25 14.6285 V 11 H 15.2529 C 15.25 10.8312 15.25 10.6489 15.25 10.4554 L 15.25 10.4211 C 15.25 10.396 15.2499 10.3708 15.2499 10.3455 C 15.2491 10.0454 15.2482 9.72485 15.356 9.42957 C 15.441 9.19646 15.5746 8.9841 15.748 8.80658 C 15.9676 8.5817 16.2569 8.44376 16.5278 8.3146 C 16.5506 8.30369 16.5734 8.29284 16.596 8.282 L 18.3815 7.42497 C 18.75 7.24805 19.0734 7.09278 19.3446 6.99286 Z M 15.25 17.4286 C 15.25 16.4026 14.4467 15.6071 13.5 15.6071 C 12.5533 15.6071 11.75 16.4026 11.75 17.4286 C 11.75 18.4546 12.5533 19.25 13.5 19.25 C 14.4467 19.25 15.25 18.4546 15.25 17.4286 Z M 2.25 9 C 2.25 8.58579 2.58579 8.25 3 8.25 H 12 C 12.4142 8.25 12.75 8.58579 12.75 9 C 12.75 9.41421 12.4142 9.75 12 9.75 H 3 C 2.58579 9.75 2.25 9.41421 2.25 9 Z M 2.25 14 C 2.25 13.5858 2.58579 13.25 3 13.25 H 8 C 8.41421 13.25 8.75 13.5858 8.75 14 C 8.75 14.4142 8.41421 14.75 8 14.75 H 3 C 2.58579 14.75 2.25 14.4142 2.25 14 Z" fill="#FFFFFF" />
</svg>