<svg xmlns="http://www.w3.org/2000/svg" width="24" height="24" viewBox="0 0 24 24" fill="none">
  <path opacity="0.5" fill-rule="nonzero" clip-rule="nonzero" d="M 2.25 5 C 2.25 4.58579 2.58579 4.25 3 4.25 H 15 C 15.4142 4.25 15.75 4.58579 15.75 5 C 15.75 5.41421 15.4142 5.75 15 5.75 H 3 C 2.58579 5.75 2.25 5.41421 2.25 5 Z M 2.25 9 C 2.25 8.58579 2.58579 8.25 3 8.25 H 13 C 13.4142 8.25 13.75 8.58579 13.75 9 C 13.75 9.41421 13.4142 9.75 13 9.75 H 3 C 2.58579 9.75 2.25 9.41421 2.25 9 Z M 2.25 13 C 2.25 12.5858 2.58579 12.25 3 12.25 H 9 C 9.41421 12.25 9.75 12.5858 9.75 13 C 9.75 13.4142 9.41421 13.75 9 13.75 H 3 C 2.58579 13.75 2.25 13.4142 2.25 13 Z M 2.25 17 C 2.25 16.5858 2.58579 16.25 3 16.25 H 8 C 8.41421 16.25 8.75 16.5858 8.75 17 C 8.75 17.4142 8.41421 17.75 8 17.75 H 3 C 2.58579 17.75 2.25 17.4142 2.25 17 Z" fill="#FFFFFF" />
  <path d="M19.3446 5.99292C19.6232 5.89026 19.9559 5.80218 20.3149 5.86786C20.7572 5.94876 21.1513 6.19678 21.4156 6.56049C21.6302 6.85575 21.6948 7.19372 21.7228 7.48934C21.75 7.77705 21.75 8.13584 21.75 8.54466L21.75 8.57898L21.7501 8.6546C21.7509 8.9547 21.7518 9.27521 21.644 9.5705C21.559 9.8036 21.4254 10.016 21.252 10.1935C21.0324 10.4184 20.7431 10.5563 20.4722 10.6855L20.404 10.7181L18.6185 11.5751C18.25 11.752 17.9266 11.9073 17.6554 12.0072C17.3936 12.1036 17.0842 12.1872 16.75 12.1425V16.4286C16.75 18.2429 15.3147 19.7501 13.5 19.7501C11.6853 19.7501 10.25 18.2429 10.25 16.4286C10.25 14.6143 11.6853 13.1072 13.5 13.1072C14.1477 13.1072 14.747 13.2992 15.25 13.6286V10.0001H15.2529C15.25 9.83123 15.25 9.64894 15.25 9.45548L15.25 9.42114L15.2499 9.34553C15.2491 9.04542 15.2482 8.72491 15.356 8.42963C15.441 8.19652 15.5746 7.98416 15.748 7.80664C15.9676 7.58176 16.2569 7.44382 16.5278 7.31467L16.596 7.28206L18.3814 6.42504C18.75 6.24812 19.0734 6.09284 19.3446 5.99292Z" fill="#FFFFFF" />
</svg>