<svg xmlns="http://www.w3.org/2000/svg" width="24" height="24" viewBox="0 0 24 24" fill="none">
  <path fill-rule="nonzero" clip-rule="nonzero" d="M 1.25 7 C 1.25 6.58579 1.58579 6.25 2 6.25 H 10 C 10.4142 6.25 10.75 6.58579 10.75 7 C 10.75 7.41421 10.4142 7.75 10 7.75 H 2 C 1.58579 7.75 1.25 7.41421 1.25 7 Z M 17 7.75 C 14.6528 7.75 12.75 9.65279 12.75 12 C 12.75 14.3472 14.6528 16.25 17 16.25 C 19.3472 16.25 21.25 14.3472 21.25 12 C 21.25 9.65279 19.3472 7.75 17 7.75 Z M 11.25 12 C 11.25 8.82436 13.8244 6.25 17 6.25 C 20.1756 6.25 22.75 8.82436 22.75 12 C 22.75 15.1756 20.1756 17.75 17 17.75 C 13.8244 17.75 11.25 15.1756 11.25 12 Z M 17 9.25 C 17.4142 9.25 17.75 9.58579 17.75 10 V 11.5664 L 18.5668 12.5088 C 18.838 12.8218 18.8042 13.2955 18.4912 13.5668 C 18.1782 13.838 17.7045 13.8042 17.4332 13.4912 L 16.4332 12.3374 C 16.3151 12.201 16.25 12.0266 16.25 11.8462 V 10 C 16.25 9.58579 16.5858 9.25 17 9.25 Z M 1.25 12 C 1.25 11.5858 1.58579 11.25 2 11.25 H 8 C 8.41421 11.25 8.75 11.5858 8.75 12 C 8.75 12.4142 8.41421 12.75 8 12.75 H 2 C 1.58579 12.75 1.25 12.4142 1.25 12 Z M 1.25 17 C 1.25 16.5858 1.58579 16.25 2 16.25 H 10 C 10.4142 16.25 10.75 16.5858 10.75 17 C 10.75 17.4142 10.4142 17.75 10 17.75 H 2 C 1.58579 17.75 1.25 17.4142 1.25 17 Z" fill="#FFFFFF" />
</svg>