<svg xmlns="http://www.w3.org/2000/svg" width="24" height="24" viewBox="0 0 24 24" fill="none">
  <path fill-rule="nonzero" clip-rule="nonzero" d="M 17 3.25 C 17.4142 3.25 17.75 3.58579 17.75 4 V 17.75 L 19.4 15.55 C 19.6485 15.2186 20.1186 15.1515 20.45 15.4 C 20.7814 15.6485 20.8485 16.1186 20.6 16.45 L 17.6 20.45 C 17.4063 20.7083 17.0691 20.8136 16.7628 20.7115 C 16.4566 20.6094 16.25 20.3228 16.25 20 V 4 C 16.25 3.58579 16.5858 3.25 17 3.25 Z M 7.25 6 C 7.25 5.58579 7.58579 5.25 8 5.25 H 13 C 13.4142 5.25 13.75 5.58579 13.75 6 C 13.75 6.41421 13.4142 6.75 13 6.75 H 8 C 7.58579 6.75 7.25 6.41421 7.25 6 Z M 5.25 11 C 5.25 10.5858 5.58579 10.25 6 10.25 H 13 C 13.4142 10.25 13.75 10.5858 13.75 11 C 13.75 11.4142 13.4142 11.75 13 11.75 H 6 C 5.58579 11.75 5.25 11.4142 5.25 11 Z M 3.25 16 C 3.25 15.5858 3.58579 15.25 4 15.25 H 13 C 13.4142 15.25 13.75 15.5858 13.75 16 C 13.75 16.4142 13.4142 16.75 13 16.75 H 4 C 3.58579 16.75 3.25 16.4142 3.25 16 Z" fill="#FFFFFF" />
</svg>