<svg xmlns="http://www.w3.org/2000/svg" width="24" height="24" viewBox="0 0 24 24" fill="none">
  <path fill-rule="nonzero" clip-rule="nonzero" d="M 16.7628 3.28854 C 17.0691 3.18645 17.4063 3.29179 17.6 3.55005 L 20.6 7.55005 C 20.8485 7.88142 20.7814 8.35152 20.45 8.60005 C 20.1186 8.84858 19.6485 8.78142 19.4 8.45005 L 17.75 6.25005 V 20 C 17.75 20.4143 17.4142 20.75 17 20.75 C 16.5858 20.75 16.25 20.4143 16.25 20 V 4.00005 C 16.25 3.67723 16.4566 3.39062 16.7628 3.28854 Z M 3.25 8.00005 C 3.25 7.58583 3.58579 7.25005 4 7.25005 H 13 C 13.4142 7.25005 13.75 7.58583 13.75 8.00005 C 13.75 8.41426 13.4142 8.75005 13 8.75005 H 4 C 3.58579 8.75005 3.25 8.41426 3.25 8.00005 Z M 5.25 13 C 5.25 12.5858 5.58579 12.25 6 12.25 H 13 C 13.4142 12.25 13.75 12.5858 13.75 13 C 13.75 13.4143 13.4142 13.75 13 13.75 H 6 C 5.58579 13.75 5.25 13.4143 5.25 13 Z M 7.25 18 C 7.25 17.5858 7.58579 17.25 8 17.25 H 13 C 13.4142 17.25 13.75 17.5858 13.75 18 C 13.75 18.4143 13.4142 18.75 13 18.75 H 8 C 7.58579 18.75 7.25 18.4143 7.25 18 Z" fill="#FFFFFF" />
</svg>