<svg xmlns="http://www.w3.org/2000/svg" width="24" height="24" viewBox="0 0 24 24" fill="none">
  <path fill-rule="nonzero" clip-rule="nonzero" d="M 16.7628 3.28854 C 17.0691 3.18645 17.4063 3.29179 17.6 3.55005 L 20.6 7.55005 C 20.8485 7.88142 20.7814 8.35152 20.45 8.60005 C 20.1186 8.84858 19.6485 8.78142 19.4 8.45005 L 17.75 6.25005 V 20 C 17.75 20.4143 17.4142 20.75 17 20.75 C 16.5858 20.75 16.25 20.4143 16.25 20 V 4.00005 C 16.25 3.67723 16.4566 3.39062 16.7628 3.28854 Z M 13 8.75005 H 4 V 7.25005 H 13 V 8.75005 Z M 13 13.75 H 6 V 12.25 H 13 V 13.75 Z M 13 18.75 H 8 V 17.25 H 13 V 18.75 Z" fill="#FFFFFF" />
</svg>