<svg xmlns="http://www.w3.org/2000/svg" width="24" height="24" viewBox="0 0 24 24" fill="none">
  <path fill-rule="nonzero" clip-rule="nonzero" d="M 2.25 7 C 2.25 6.58579 2.58579 6.25 3 6.25 H 13 C 13.4142 6.25 13.75 6.58579 13.75 7 C 13.75 7.41421 13.4142 7.75 13 7.75 H 3 C 2.58579 7.75 2.25 7.41421 2.25 7 Z M 16.5 6.25 C 16.7951 6.25 17.0628 6.42309 17.1839 6.69223 L 21.6839 16.6922 C 21.8539 17.07 21.6855 17.514 21.3078 17.6839 C 20.93 17.8539 20.486 17.6855 20.3161 17.3078 L 18.8787 14.1136 H 14.1213 L 12.6839 17.3078 C 12.514 17.6855 12.07 17.8539 11.6922 17.6839 C 11.3145 17.514 11.1461 17.07 11.3161 16.6922 L 15.8161 6.69223 C 15.9372 6.42309 16.2049 6.25 16.5 6.25 Z M 14.7963 12.6136 H 18.2037 L 16.5 8.82764 L 14.7963 12.6136 Z M 2.25 12 C 2.25 11.5858 2.58579 11.25 3 11.25 H 10 C 10.4142 11.25 10.75 11.5858 10.75 12 C 10.75 12.4142 10.4142 12.75 10 12.75 H 3 C 2.58579 12.75 2.25 12.4142 2.25 12 Z M 2.25 17 C 2.25 16.5858 2.58579 16.25 3 16.25 H 8 C 8.41421 16.25 8.75 16.5858 8.75 17 C 8.75 17.4142 8.41421 17.75 8 17.75 H 3 C 2.58579 17.75 2.25 17.4142 2.25 17 Z" fill="#FFFFFF" />
</svg>