<svg xmlns="http://www.w3.org/2000/svg" width="24" height="24" viewBox="0 0 24 24" fill="none">
  <path fill-rule="nonzero" clip-rule="nonzero" d="M17.1841 6.69223 L21.6841 16.6922 C21.8541 17.07 21.6857 17.514 21.308 17.6839 C20.9302 17.8539 20.4862 17.6855 20.3162 17.3078 L18.8789 14.1136 L14.1215 14.1136 L12.6841 17.3078 C12.5141 17.6855 12.0701 17.8539 11.6924 17.6839 C11.3147 17.514 11.1463 17.07 11.3162 16.6922 L15.8162 6.69223 C15.9374 6.42309 16.2051 6.25 16.5002 6.25 C16.7953 6.25 17.063 6.42309 17.1841 6.69223 Z M 16.5002 8.82764 L 14.7965 12.6136 H 18.2039 L 16.5002 8.82764 Z" fill="#FFFFFF" />
  <path opacity="0.5" fill-rule="evenodd" clip-rule="evenodd" d="M2.25 7C2.25 6.58579 2.58579 6.25 3 6.25H13C13.4142 6.25 13.75 6.58579 13.75 7C13.75 7.41421 13.4142 7.75 13 7.75H3C2.58579 7.75 2.25 7.41421 2.25 7Z" fill="#FFFFFF" />
  <path opacity="0.5" d="M2.25 12C2.25 11.5858 2.58579 11.25 3 11.25H10C10.4142 11.25 10.75 11.5858 10.75 12C10.75 12.4142 10.4142 12.75 10 12.75H3C2.58579 12.75 2.25 12.4142 2.25 12Z" fill="#FFFFFF" />
  <path opacity="0.5" d="M2.25 17C2.25 16.5858 2.58579 16.25 3 16.25H8C8.41421 16.25 8.75 16.5858 8.75 17C8.75 17.4142 8.41421 17.75 8 17.75H3C2.58579 17.75 2.25 17.4142 2.25 17Z" fill="#FFFFFF" />
</svg>