<svg xmlns="http://www.w3.org/2000/svg" width="24" height="24" viewBox="0 0 24 24" fill="none">
  <path fill-rule="nonzero" clip-rule="nonzero" d="M17 17 C14.2386 17 12 14.7614 12 12 C12 9.23858 14.2386 7 17 7 C19.7614 7 22 9.23858 22 12 C22 14.7614 19.7614 17 17 17 Z M 17.75 10 C 17.75 9.58579 17.4142 9.25 17 9.25 C 16.5858 9.25 16.25 9.58579 16.25 10 V 11.8462 C 16.25 12.0266 16.3151 12.201 16.4332 12.3374 L 17.4332 13.4912 C 17.7045 13.8042 18.1782 13.838 18.4912 13.5668 C 18.8042 13.2955 18.838 12.8218 18.5668 12.5088 L 17.75 11.5664 V 10 Z" fill="#FFFFFF" />
  <g opacity="0.5" />
</svg>