<svg xmlns="http://www.w3.org/2000/svg" width="24" height="24" viewBox="0 0 24 24" fill="none">
  <path d="M20.9094 13.3319L13.3319 20.9094C15.4517 22.5128 18.4829 22.3482 20.4155 20.4155C22.3482 18.4829 22.5128 15.4517 20.9094 13.3319Z" fill="#FFFFFF" />
  <path fill-rule="nonzero" clip-rule="nonzero" d="M12.2347 19.8852 L4.1148 11.7653 L11.7653 4.1148 L19.8852 12.2347 L12.2347 19.8852 Z M9.87864 11.2929 C9.48812 10.9024 8.85496 10.9024 8.46443 11.2929 C8.07391 11.6834 8.07391 12.3166 8.46443 12.7071 C8.85496 13.0976 9.48812 13.0976 9.87864 12.7071 C10.2692 12.3166 10.2692 11.6834 9.87864 11.2929 Z M 12.7073 15.5355 C 13.0978 15.145 13.0978 14.5118 12.7073 14.1213 C 12.3167 13.7307 11.6836 13.7307 11.293 14.1213 C 10.9025 14.5118 10.9025 15.145 11.293 15.5355 C 11.6836 15.926 12.3167 15.926 12.7073 15.5355 Z M12.7073 8.46452 C12.3167 8.074 11.6836 8.074 11.293 8.46452 C10.9025 8.85505 10.9025 9.48821 11.293 9.87874 C11.6836 10.2693 12.3167 10.2693 12.7073 9.87874 C13.0978 9.48821 13.0978 8.85505 12.7073 8.46452 Z M 15.5354 12.7071 C 15.9259 12.3166 15.9259 11.6834 15.5354 11.2929 C 15.1449 10.9024 14.5117 10.9024 14.1212 11.2929 C 13.7306 11.6834 13.7306 12.3166 14.1212 12.7071 C 14.5117 13.0976 15.1449 13.0976 15.5354 12.7071 Z" fill="#FFFFFF" />
  <path d="M3.09061 10.6682L10.6682 3.09061C8.54835 1.48717 5.51714 1.65179 3.58447 3.58447C1.65179 5.51714 1.48717 8.54835 3.09061 10.6682Z" fill="#FFFFFF" />
</svg>