<svg xmlns="http://www.w3.org/2000/svg" width="24" height="24" viewBox="0 0 24 24" fill="none">
  <path d="M9.34458 8.23084C9.03703 7.92329 8.53839 7.92329 8.23084 8.23084C7.92329 8.53839 7.92329 9.03703 8.23084 9.34458C8.53839 9.65213 9.03703 9.65213 9.34458 9.34458C9.65213 9.03703 9.65213 8.53839 9.34458 8.23084Z" fill="#FFFFFF" />
  <path d="M12.1289 9.15895C11.8214 8.8514 11.3227 8.8514 11.0152 9.15895C10.7076 9.4665 10.7076 9.96514 11.0152 10.2727C11.3227 10.5802 11.8214 10.5802 12.1289 10.2727C12.4365 9.96514 12.4365 9.4665 12.1289 9.15895Z" fill="#FFFFFF" />
  <path d="M15.8414 12.8714C16.1489 13.179 16.1489 13.6776 15.8414 13.9852C15.5338 14.2927 15.0352 14.2927 14.7277 13.9852C14.4201 13.6776 14.4201 13.179 14.7277 12.8714C15.0352 12.5639 15.5338 12.5639 15.8414 12.8714Z" fill="#FFFFFF" />
  <path d="M16.7695 16.7695C17.0771 16.462 17.0771 15.9633 16.7695 15.6558C16.462 15.3482 15.9633 15.3482 15.6558 15.6558C15.3482 15.9633 15.3482 16.462 15.6558 16.7695C15.9633 17.0771 16.462 17.0771 16.7695 16.7695Z" fill="#FFFFFF" />
  <path d="M13.057 13.057C13.3646 12.7495 13.3646 12.2509 13.057 11.9433C12.7495 11.6358 12.2509 11.6358 11.9433 11.9433C11.6358 12.2509 11.6358 12.7495 11.9433 13.057C12.2509 13.3646 12.7495 13.3646 13.057 13.057Z" fill="#FFFFFF" />
  <path d="M13.9852 14.7277C14.2927 15.0352 14.2927 15.5338 13.9852 15.8414C13.6776 16.1489 13.179 16.1489 12.8714 15.8414C12.5639 15.5338 12.5639 15.0352 12.8714 14.7277C13.179 14.4201 13.6776 14.4201 13.9852 14.7277Z" fill="#FFFFFF" />
  <path d="M9.15895 11.0152C9.4665 10.7076 9.96514 10.7076 10.2727 11.0152C10.5802 11.3227 10.5802 11.8214 10.2727 12.1289C9.96514 12.4365 9.4665 12.4365 9.15895 12.1289C8.8514 11.8214 8.8514 11.3227 9.15895 11.0152Z" fill="#FFFFFF" />
  <path fill-rule="nonzero" clip-rule="nonzero" d="M 14.3986 2.68287 C 16.3091 0.772375 19.4066 0.772376 21.3171 2.68287 C 23.2276 4.59337 23.2276 7.6909 21.3171 9.6014 L 18.9185 12 L 21.3171 14.3986 C 23.2276 16.3091 23.2276 19.4066 21.3171 21.3171 C 19.4066 23.2276 16.3091 23.2276 14.3986 21.3171 L 12 18.9185 L 9.6014 21.3171 C 7.6909 23.2276 4.59337 23.2276 2.68287 21.3171 C 0.772376 19.4066 0.772376 16.3091 2.68287 14.3986 L 5.08148 12 L 2.68287 9.6014 C 0.772376 7.6909 0.772375 4.59337 2.68287 2.68287 C 4.59337 0.772376 7.6909 0.772376 9.6014 2.68287 L 12 5.08148 L 14.3986 2.68287 Z M20.2565 15.4593 L8.54074 3.74353 C7.21603 2.41882 5.06824 2.41882 3.74353 3.74353 C2.41882 5.06824 2.41882 7.21603 3.74353 8.54074 L15.4593 20.2565 C16.784 21.5812 18.9318 21.5812 20.2565 20.2565 C21.5812 18.9318 21.5812 16.784 20.2565 15.4593 Z M20.2565 8.54074 C21.5812 7.21603 21.5812 5.06825 20.2565 3.74353 C18.9318 2.41882 16.784 2.41882 15.4593 3.74353 L13.0607 6.14214 L17.8579 10.9393 L20.2565 8.54074 Z M3.74353 15.4593 C2.41882 16.784 2.41882 18.9318 3.74353 20.2565 C5.06825 21.5812 7.21603 21.5812 8.54074 20.2565 L10.9393 17.8579 L6.14214 13.0607 L3.74353 15.4593 Z" fill="#FFFFFF" />
</svg>