<svg xmlns="http://www.w3.org/2000/svg" width="24" height="24" viewBox="0 0 24 24" fill="none">
  <path fill-rule="nonzero" clip-rule="nonzero" d="M3.2132 3.2132 C4.83081 1.5956 7.45346 1.5956 9.07107 3.2132 L20.7868 14.9289 C22.4044 16.5465 22.4044 19.1692 20.7868 20.7868 C19.1692 22.4044 16.5465 22.4044 14.9289 20.7868 L3.2132 9.07107 C1.5956 7.45346 1.5956 4.83081 3.2132 3.2132 Z M 9.34458 8.23084 C 9.03703 7.92329 8.53839 7.92329 8.23084 8.23084 C 7.92329 8.53839 7.92329 9.03703 8.23084 9.34458 C 8.53839 9.65213 9.03703 9.65213 9.34458 9.34458 C 9.65213 9.03703 9.65213 8.53839 9.34458 8.23084 Z M 12.1289 9.15895 C 11.8214 8.8514 11.3227 8.8514 11.0152 9.15895 C 10.7076 9.4665 10.7076 9.96514 11.0152 10.2727 C 11.3227 10.5802 11.8214 10.5802 12.1289 10.2727 C 12.4365 9.96514 12.4365 9.4665 12.1289 9.15895 Z M15.8414 12.8714 C15.5338 12.5639 15.0352 12.5639 14.7277 12.8714 C14.4201 13.179 14.4201 13.6776 14.7277 13.9852 C15.0352 14.2927 15.5338 14.2927 15.8414 13.9852 C16.1489 13.6776 16.1489 13.179 15.8414 12.8714 Z M 16.7695 16.7695 C 17.0771 16.462 17.0771 15.9633 16.7695 15.6558 C 16.462 15.3482 15.9633 15.3482 15.6558 15.6558 C 15.3482 15.9633 15.3482 16.462 15.6558 16.7695 C 15.9633 17.0771 16.462 17.0771 16.7695 16.7695 Z M 13.057 13.057 C 13.3646 12.7495 13.3646 12.2509 13.057 11.9433 C 12.7495 11.6358 12.2509 11.6358 11.9433 11.9433 C 11.6358 12.2509 11.6358 12.7495 11.9433 13.057 C 12.2509 13.3646 12.7495 13.3646 13.057 13.057 Z M13.9852 14.7277 C13.6776 14.4201 13.179 14.4201 12.8714 14.7277 C12.5639 15.0352 12.5639 15.5338 12.8714 15.8414 C13.179 16.1489 13.6776 16.1489 13.9852 15.8414 C14.2927 15.5338 14.2927 15.0352 13.9852 14.7277 Z M9.15895 11.0152 C8.8514 11.3227 8.8514 11.8214 9.15895 12.1289 C9.4665 12.4365 9.96514 12.4365 10.2727 12.1289 C10.5802 11.8214 10.5802 11.3227 10.2727 11.0152 C9.96514 10.7076 9.4665 10.7076 9.15895 11.0152 Z" fill="#FFFFFF" />
  <path d="M5.08148 13.0607L3.2132 14.9289C1.5956 16.5465 1.5956 19.1692 3.2132 20.7868C4.83081 22.4044 7.45346 22.4044 9.07107 20.7868L10.9393 18.9185L5.08148 13.0607Z" fill="#FFFFFF" />
  <path d="M18.9185 10.9393L20.7868 9.07107C22.4044 7.45346 22.4044 4.83081 20.7868 3.2132C19.1692 1.5956 16.5465 1.5956 14.9289 3.2132L13.0607 5.08148L18.9185 10.9393Z" fill="#FFFFFF" />
</svg>