<svg xmlns="http://www.w3.org/2000/svg" width="24" height="24" viewBox="0 0 24 24" fill="none">
  <path fill-rule="nonzero" clip-rule="nonzero" d="M12 2 C17.5228 2 22 6.47715 22 12 C22 17.5228 17.5228 22 12 22 C6.47715 22 2 17.5228 2 12 C2 6.47715 6.47715 2 12 2 Z M 9 12 C 7.34315 12 6 13.3431 6 15 C 6 16.6569 7.34315 18 9 18 C 10.6569 18 12 16.6569 12 15 C 12 13.3431 10.6569 12 9 12 Z M5.20099 9.80705 C4.81828 9.64859 4.37958 9.83037 4.22112 10.2131 L3.80705 11.2131 C3.64859 11.5958 3.83037 12.0345 4.21308 12.1929 C4.59578 12.3514 5.03448 12.1696 5.19295 11.7869 L5.60701 10.7869 C5.76547 10.4042 5.58369 9.96552 5.20099 9.80705 Z M 13.7219 7.27392 C 13.7782 7.6824 14.1536 7.96844 14.5618 7.91517 C 15.2243 7.87876 16.5495 8.22535 16.5495 9.90297 C 16.4963 10.3112 16.7823 10.6865 17.1908 10.7429 C 17.6011 10.7994 17.9837 10.4793 18.0403 10.069 C 18.0421 10.053 18.0442 10.0322 18.0463 10.007 C 18.0505 9.95664 18.0547 9.88834 18.0562 9.80545 C 18.0591 9.64056 18.0515 9.41278 18.0098 9.15072 C 17.927 8.63075 17.7023 7.93407 17.1165 7.34824 C 16.5306 6.7624 15.834 6.53771 15.314 6.45491 C 15.0519 6.41318 14.8242 6.40556 14.6593 6.40853 C 14.5764 6.41002 14.5081 6.41421 14.4577 6.4184 C 14.4325 6.42049 14.3679 6.42775 14.3679 6.42775 C 13.9576 6.48433 13.6653 6.86359 13.7219 7.27392 Z M9.7431 9.19041 C9.68677 8.78193 9.31141 8.4959 8.90321 8.54915 C7.22578 8.54915 6.87908 7.22396 6.91542 6.56136 C6.96868 6.15317 6.68265 5.7778 6.27416 5.72147 C5.86383 5.66488 5.48458 5.95719 5.42799 6.36752 L5.42704 6.37495 L5.42463 6.39535 C5.42284 6.41135 5.42074 6.43216 5.41864 6.45736 C5.41445 6.50769 5.41026 6.57598 5.40877 6.65888 C5.40581 6.82376 5.41342 7.05155 5.45516 7.31361 C5.53796 7.83358 5.76265 8.53026 6.34848 9.11609 C6.93431 9.70192 7.63099 9.92661 8.15096 10.0094 C8.41302 10.0511 8.64081 10.0588 8.80569 10.0558 C8.88859 10.0543 8.95688 10.0501 9.00721 10.0459 C9.03241 10.0438 9.05322 10.0417 9.06922 10.0399 L9.08962 10.0375 L9.09705 10.0366 L9.10006 10.0362 L9.10138 10.036 L9.10259 10.0358 C9.51292 9.97925 9.79969 9.60074 9.7431 9.19041 Z M19.7363 12.9927 C19.6571 12.5862 19.2633 12.3208 18.8567 12.4 L19.0001 13.1361 C18.8567 12.4 18.8553 12.4002 18.8549 12.4003 L18.853 12.4007 L18.8488 12.4015 L18.8392 12.4036 L18.8151 12.409 C18.7969 12.4133 18.7744 12.419 18.7481 12.4265 C18.6957 12.4413 18.6277 12.4631 18.5483 12.4944 C18.3899 12.5569 18.1827 12.6583 17.962 12.8199 C17.5104 13.1505 17.0345 13.7102 16.7921 14.6151 C16.5497 15.5199 16.6819 16.2425 16.9077 16.7546 C17.018 17.0049 17.1467 17.1963 17.2527 17.3297 C17.3058 17.3965 17.3538 17.4493 17.3918 17.4884 C17.4108 17.508 17.4274 17.5242 17.441 17.537 L17.4592 17.5538 L17.4665 17.5603 L17.4697 17.5631 L17.4711 17.5644 L17.4725 17.5656 C17.4729 17.5659 17.4725 17.5656 17.9647 17 L17.4725 17.5656 C17.785 17.8375 18.2587 17.8046 18.5306 17.4921 C18.799 17.1837 18.7704 16.7182 18.4692 16.4447 L18.4672 16.4428 C18.4609 16.4362 18.4463 16.4206 18.4268 16.3961 C18.3876 16.3468 18.3309 16.2644 18.2802 16.1495 C18.184 15.9314 18.0922 15.5586 18.241 15.0032 C18.3898 14.4479 18.6557 14.1711 18.8481 14.0302 C18.9494 13.956 19.0397 13.913 19.0983 13.89 C19.1274 13.8785 19.1478 13.8723 19.1567 13.8698 L19.1593 13.869 C19.5569 13.7828 19.8144 13.394 19.7363 12.9927 Z M12.8289 17.3115 C12.5746 17.6384 12.6335 18.1096 12.9604 18.364 L14.539 19.5919 C14.866 19.8463 15.3372 19.7874 15.5915 19.4605 C15.8458 19.1335 15.787 18.6623 15.46 18.408 L13.8814 17.18 C13.5545 16.9257 13.0832 16.9845 12.8289 17.3115 Z M 15.25 12 C 15.25 11.5858 14.9142 11.25 14.5 11.25 C 14.0858 11.25 13.75 11.5858 13.75 12 V 14 C 13.75 14.4142 14.0858 14.75 14.5 14.75 C 14.9142 14.75 15.25 14.4142 15.25 14 V 12 Z M10 4.25 C9.58579 4.25 9.25 4.58579 9.25 5 C9.25 5.41421 9.58579 5.75 10 5.75 L12 5.75 C12.4142 5.75 12.75 5.41421 12.75 5 C12.75 4.58579 12.4142 4.25 12 4.25 L10 4.25 Z M 12.0303 7.96967 C 11.7374 7.67678 11.2626 7.67678 10.9697 7.96967 C 10.6768 8.26256 10.6768 8.73744 10.9697 9.03033 L 11.9697 10.0303 C 12.2626 10.3232 12.7374 10.3232 13.0303 10.0303 C 13.3232 9.73744 13.3232 9.26256 13.0303 8.96967 L 12.0303 7.96967 Z" fill="#FFFFFF" />
</svg>