<svg xmlns="http://www.w3.org/2000/svg" width="24" height="24" viewBox="0 0 24 24" fill="none">
  <path fill-rule="nonzero" clip-rule="nonzero" d="M19.1732 4.82683 C20.1092 4.73882 21.0758 5.05316 21.7925 5.76985 C23.0692 7.04647 23.0692 9.11628 21.7925 10.3929 C20.8738 11.3116 19.3043 11.7914 18.0103 11.4333 C17.7993 11.3749 17.5963 11.3504 17.433 11.3648 C17.2734 11.3788 17.1986 11.4244 17.1614 11.4616 L15.882 12.7411 C15.4371 13.186 14.6836 13.0408 14.4357 12.4626 C13.8776 11.1602 12.8398 10.1224 11.5374 9.56426 C10.9592 9.31642 10.814 8.56291 11.2589 8.11804 L12.5384 6.83857 C12.5756 6.80135 12.6212 6.72662 12.6352 6.56696 C12.6496 6.40371 12.6251 6.20068 12.5667 5.98972 C12.2086 4.69568 12.6884 3.12621 13.6071 2.20746 C14.8837 0.930845 16.9535 0.930845 18.2302 2.20746 C18.9468 2.92416 19.2612 3.89084 19.1732 4.82683 Z M 17.1695 3.26812 C 16.4787 2.57729 15.3586 2.57729 14.6678 3.26812 C 14.1001 3.83582 13.8097 4.85724 14.0124 5.58968 C 14.1024 5.91505 14.1642 6.30487 14.1294 6.69876 C 14.0944 7.09625 13.9553 7.54295 13.599 7.89923 L 12.9153 8.58302 C 13.949 9.18949 14.8105 10.051 15.417 11.0847 L 16.1008 10.401 C 16.457 10.0447 16.9037 9.90562 17.3012 9.87056 C 17.6951 9.83581 18.0849 9.89758 18.4103 9.98762 C 19.1428 10.1903 20.1642 9.89993 20.7319 9.33224 C 21.4227 8.64141 21.4227 7.52134 20.7319 6.83051 C 20.041 6.13968 18.921 6.13968 18.2302 6.83051 C 17.9373 7.1234 17.4624 7.1234 17.1695 6.83051 C 16.8766 6.53762 16.8766 6.06274 17.1695 5.76985 C 17.8603 5.07902 17.8603 3.95896 17.1695 3.26812 Z" fill="#FFFFFF" />
  <path d="M17.1269 17.1264C17.4198 16.8335 17.8947 16.8335 18.1876 17.1264L19.6018 18.5406C19.8947 18.8335 19.8947 19.3084 19.6018 19.6013C19.3089 19.8942 18.834 19.8942 18.5411 19.6013L17.1269 18.1871C16.834 17.8942 16.834 17.4193 17.1269 17.1264Z" fill="#FFFFFF" />
  <path d="M6.87359 5.81293C7.16648 6.10582 7.16648 6.5807 6.87359 6.87359C6.5807 7.16648 6.10582 7.16648 5.81293 6.87359L4.39872 5.45938C4.10582 5.16649 4.10582 4.69161 4.39872 4.39872C4.69161 4.10582 5.16649 4.10582 5.45938 4.39872L6.87359 5.81293Z" fill="#FFFFFF" />
  <path d="M15 18.25C15.4142 18.25 15.75 18.5858 15.75 19V20C15.75 20.4142 15.4142 20.75 15 20.75C14.5858 20.75 14.25 20.4142 14.25 20V19C14.25 18.5858 14.5858 18.25 15 18.25Z" fill="#FFFFFF" />
  <path d="M5 9.75C5.41421 9.75 5.75 9.41421 5.75 9C5.75 8.58579 5.41421 8.25 5 8.25H4C3.58579 8.25 3.25 8.58579 3.25 9C3.25 9.41421 3.58579 9.75 4 9.75H5Z" fill="#FFFFFF" />
  <path d="M18.25 15C18.25 14.5858 18.5858 14.25 19 14.25H20C20.4142 14.25 20.75 14.5858 20.75 15C20.75 15.4142 20.4142 15.75 20 15.75H19C18.5858 15.75 18.25 15.4142 18.25 15Z" fill="#FFFFFF" />
  <path d="M8.25 5C8.25 5.41421 8.58579 5.75 9 5.75C9.41421 5.75 9.75 5.41421 9.75 5V4C9.75 3.58579 9.41421 3.25 9 3.25C8.58579 3.25 8.25 3.58579 8.25 4L8.25 5Z" fill="#FFFFFF" />
  <path fill-rule="nonzero" clip-rule="nonzero" d="M12.4626 14.4357 C13.0408 14.6836 13.186 15.4371 12.7411 15.882 L11.4616 17.1614 C11.4244 17.1986 11.3788 17.2734 11.3648 17.433 C11.3504 17.5963 11.3749 17.7993 11.4333 18.0103 C11.7914 19.3043 11.3116 20.8738 10.3929 21.7925 C9.11628 23.0692 7.04647 23.0692 5.76985 21.7925 C5.05316 21.0758 4.73882 20.1092 4.82683 19.1732 C3.89084 19.2612 2.92416 18.9468 2.20746 18.2302 C0.930845 16.9535 0.930846 14.8837 2.20746 13.6071 C3.12621 12.6884 4.69568 12.2086 5.98972 12.5667 C6.20068 12.6251 6.40371 12.6496 6.56696 12.6352 C6.72662 12.6212 6.80135 12.5756 6.83857 12.5384 L8.11804 11.2589 C8.56292 10.814 9.31643 10.9592 9.56426 11.5374 C10.1224 12.8398 11.1602 13.8776 12.4626 14.4357 Z M 8.58302 12.9153 L 7.90291 13.5954 L 7.89923 13.599 L 7.87648 13.6214 C 7.52406 13.9612 7.08784 14.0951 6.69876 14.1294 C 6.30487 14.1642 5.91505 14.1024 5.58968 14.0124 C 4.85724 13.8097 3.83582 14.1001 3.26812 14.6678 C 2.57729 15.3586 2.57729 16.4787 3.26812 17.1695 C 3.95896 17.8603 5.07902 17.8603 5.76985 17.1695 C 5.84308 17.0963 5.92768 17.0413 6.01798 17.0047 L 6.02403 17.0023 C 6.29361 16.8957 6.61248 16.9515 6.83051 17.1695 C 7.1234 17.4624 7.1234 17.9373 6.83051 18.2302 C 6.13968 18.921 6.13968 20.041 6.83051 20.7319 C 7.52134 21.4227 8.64141 21.4227 9.33224 20.7319 C 9.89993 20.1642 10.1903 19.1428 9.98762 18.4103 C 9.89758 18.085 9.83581 17.6951 9.87056 17.3012 C 9.90562 16.9037 10.0447 16.457 10.401 16.1008 L 11.0847 15.417 C 10.051 14.8105 9.18949 13.949 8.58302 12.9153 Z" fill="#FFFFFF" />
</svg>