<svg xmlns="http://www.w3.org/2000/svg" width="24" height="24" viewBox="0 0 24 24" fill="none">
  <path fill-rule="nonzero" clip-rule="nonzero" d="M 13.2895 5.7897 C 13.0092 4.77646 13.3942 3.48102 14.1374 2.73779 C 15.1212 1.75407 16.7161 1.75407 17.6998 2.73779 C 18.6835 3.72152 18.6835 5.31646 17.6998 6.30018 C 18.6835 5.31646 20.2785 5.31646 21.2622 6.30018 C 22.2459 7.28391 22.2459 8.87884 21.2622 9.86257 C 20.519 10.6058 19.2235 10.9908 18.2103 10.7105 C 17.674 10.562 17.0246 10.5378 16.6311 10.9313 L 13.0687 7.3689 C 13.4622 6.97541 13.438 6.32603 13.2895 5.7897 Z M7.3689 13.0687 L10.9313 16.6311 C10.5378 17.0246 10.562 17.674 10.7105 18.2103 C10.9908 19.2235 10.6058 20.519 9.86257 21.2622 C8.87884 22.2459 7.28391 22.2459 6.30018 21.2622 C5.31645 20.2785 5.31646 18.6835 6.30018 17.6998 C5.31646 18.6835 3.72152 18.6835 2.73779 17.6998 C1.75407 16.7161 1.75407 15.1212 2.73779 14.1374 C3.48101 13.3942 4.77646 13.0092 5.7897 13.2895 C6.32603 13.438 6.97541 13.4622 7.3689 13.0687 Z" fill="#FFFFFF" />
  <path opacity="0.5" d="M10.9315 16.6313L16.6313 10.9315L13.069 7.36914L7.36914 13.069L10.9315 16.6313Z" fill="#FFFFFF" />
</svg>