<svg xmlns="http://www.w3.org/2000/svg" width="24" height="24" viewBox="0 0 24 24" fill="none">
  <path fill-rule="nonzero" clip-rule="nonzero" d="M 18.2302 2.20746 C 18.9468 2.92416 19.2612 3.89084 19.1732 4.82683 C 20.1092 4.73882 21.0758 5.05316 21.7925 5.76985 C 23.0692 7.04647 23.0692 9.11628 21.7925 10.3929 C 20.8738 11.3116 19.3043 11.7914 18.0103 11.4333 C 17.7993 11.3749 17.5963 11.3504 17.433 11.3648 C 17.2734 11.3788 17.1986 11.4244 17.1614 11.4616 L 11.4616 17.1614 C 11.4244 17.1986 11.3788 17.2734 11.3648 17.433 C 11.3504 17.5963 11.3749 17.7993 11.4333 18.0103 C 11.7914 19.3043 11.3116 20.8738 10.3929 21.7925 C 9.11628 23.0692 7.04647 23.0692 5.76985 21.7925 C 5.05316 21.0758 4.73882 20.1092 4.82683 19.1732 C 3.89084 19.2612 2.92416 18.9468 2.20746 18.2302 C 0.930845 16.9535 0.930846 14.8837 2.20746 13.6071 C 3.12621 12.6884 4.69568 12.2086 5.98972 12.5667 C 6.20068 12.6251 6.40371 12.6496 6.56696 12.6352 C 6.72662 12.6212 6.80135 12.5756 6.83857 12.5384 L 12.5384 6.83857 C 12.5756 6.80135 12.6212 6.72662 12.6352 6.56696 C 12.6496 6.40371 12.6251 6.20068 12.5667 5.98972 C 12.2086 4.69568 12.6884 3.12621 13.6071 2.20746 C 14.8837 0.930845 16.9535 0.930845 18.2302 2.20746 Z M14.6678 3.26812 C14.1001 3.83582 13.8097 4.85724 14.0124 5.58968 C14.1024 5.91505 14.1642 6.30487 14.1294 6.69876 C14.0944 7.09625 13.9553 7.54295 13.599 7.89923 L10.9824 10.5159 L10.9824 11.3129 L12.1166 10.9349 C12.3453 10.8586 12.5967 10.897 12.7923 11.038 C12.9879 11.1789 13.1037 11.4053 13.1037 11.6464 L13.1037 12.135 L14.7063 11.7954 L16.1008 10.401 C16.457 10.0447 16.9037 9.90562 17.3012 9.87056 C17.6951 9.83581 18.0849 9.89758 18.4103 9.98762 C19.1428 10.1903 20.1642 9.89993 20.7319 9.33224 C21.4227 8.64141 21.4227 7.52134 20.7319 6.83051 C20.041 6.13968 18.921 6.13968 18.2302 6.83051 C17.9373 7.1234 17.4624 7.1234 17.1695 6.83051 C16.8766 6.53762 16.8766 6.06274 17.1695 5.76985 C17.8603 5.07902 17.8603 3.95896 17.1695 3.26812 C16.4787 2.57729 15.3586 2.57729 14.6678 3.26812 Z M 9.48242 12.0159 L 7.89923 13.599 C 7.54295 13.9553 7.09625 14.0944 6.69876 14.1294 C 6.30487 14.1642 5.91505 14.1024 5.58968 14.0124 C 4.85724 13.8097 3.83582 14.1001 3.26812 14.6678 C 2.57729 15.3586 2.57729 16.4787 3.26812 17.1695 C 3.95896 17.8603 5.07902 17.8603 5.76985 17.1695 C 6.06274 16.8766 6.53762 16.8766 6.83051 17.1695 C 7.1234 17.4624 7.1234 17.9373 6.83051 18.2302 C 6.13968 18.921 6.13968 20.041 6.83051 20.7319 C 7.52134 21.4227 8.64141 21.4227 9.33224 20.7319 C 9.89993 20.1642 10.1903 19.1428 9.98762 18.4103 C 9.89758 18.085 9.83581 17.6951 9.87056 17.3012 C 9.90562 16.9037 10.0447 16.457 10.401 16.1008 L 12.7607 13.741 L 12.5092 13.7943 C 12.2879 13.8412 12.0573 13.7857 11.8816 13.6433 C 11.7058 13.5009 11.6037 13.2868 11.6037 13.0606 V 12.687 L 10.4696 13.065 C 10.2409 13.1412 9.98947 13.1029 9.79389 12.9619 C 9.59831 12.821 9.48242 12.5946 9.48242 12.3535 V 12.0159 Z" fill="#FFFFFF" />
</svg>