<svg xmlns="http://www.w3.org/2000/svg" width="24" height="24" viewBox="0 0 24 24" fill="none">
  <path fill-rule="nonzero" clip-rule="nonzero" d="M 15.0303 1.46967 C 15.3232 1.76256 15.3232 2.23744 15.0303 2.53033 C 14.6145 2.94614 14.2408 3.3883 13.9105 3.8498 L 15.1172 5.05658 C 15.4101 5.34948 15.4101 5.82435 15.1172 6.11724 C 14.8244 6.41014 14.3495 6.41014 14.0566 6.11724 L 13.1088 5.16942 C 12.8987 5.58341 12.7203 6.00653 12.5743 6.43458 L 17.4526 11.3128 C 17.4894 11.3496 17.5216 11.3893 17.5491 11.4312 C 17.957 11.293 18.3604 11.1253 18.7558 10.9288 L 15.748 7.92096 C 15.4551 7.62806 15.4551 7.15319 15.748 6.86029 C 16.0409 6.5674 16.5158 6.5674 16.8087 6.86029 L 20.0845 10.1362 C 20.5698 9.7945 21.0342 9.40517 21.4697 8.96967 C 21.7626 8.67678 22.2374 8.67678 22.5303 8.96967 C 22.8232 9.26256 22.8232 9.73744 22.5303 10.0303 C 19.9077 12.653 16.2665 13.8839 12.9736 13.2434 C 13.7235 16.418 12.5739 19.9867 10.0303 22.5303 C 9.73744 22.8232 9.26256 22.8232 8.96967 22.5303 C 8.67678 22.2374 8.67678 21.7626 8.96967 21.4697 C 9.40642 21.0329 9.79308 20.565 10.1279 20.0753 L 8.77436 18.7217 C 8.48146 18.4288 8.48146 17.954 8.77436 17.6611 C 9.06725 17.3682 9.54212 17.3682 9.83502 17.6611 L 10.8975 18.7235 C 11.084 18.3209 11.2387 17.9103 11.3608 17.4961 C 11.3443 17.4823 11.3283 17.4676 11.3128 17.4521 L 6.50083 12.6401 C 6.06113 12.7699 5.62552 12.9364 5.19921 13.1388 L 8.03033 15.9699 C 8.32322 16.2628 8.32322 16.7377 8.03033 17.0306 C 7.73744 17.3235 7.26256 17.3235 6.96967 17.0306 L 3.85751 13.9184 C 3.3922 14.2425 2.94707 14.6136 2.53033 15.0303 C 2.23744 15.3232 1.76256 15.3232 1.46967 15.0303 C 1.17678 14.7374 1.17678 14.2626 1.46967 13.9697 C 4.01326 11.4261 7.58195 10.2765 10.7566 11.0264 C 10.1161 7.73352 11.347 4.09234 13.9697 1.46967 C 14.2626 1.17678 14.7374 1.17678 15.0303 1.46967 Z M 15.8509 11.8325 L 12.1675 8.14909 C 12.0094 9.31845 12.0947 10.4832 12.439 11.561 C 13.5168 11.9053 14.6815 11.9906 15.8509 11.8325 Z M11.3303 12.954 L11.2575 12.7425 L11.046 12.6697 C10.1785 12.371 9.24581 12.2567 8.29943 12.3174 L11.6826 15.7006 C11.7433 14.7542 11.629 13.8215 11.3303 12.954 Z" fill="#FFFFFF" />
</svg>