<svg xmlns="http://www.w3.org/2000/svg" width="24" height="24" viewBox="0 0 24 24" fill="none">
  <path d="M9.25 16C9.25 15.5858 9.58579 15.25 10 15.25H14C14.4142 15.25 14.75 15.5858 14.75 16C14.75 16.4142 14.4142 16.75 14 16.75H10C9.58579 16.75 9.25 16.4142 9.25 16Z" fill="#FFFFFF" />
  <path fill-rule="nonzero" clip-rule="nonzero" d="M13.1752 8.10145 C13.4828 8.42597 13.8581 8.85664 14.1612 9.31575 C14.4456 9.74663 14.75 10.3242 14.75 10.9166 C14.75 12.4523 13.5473 13.7499 12 13.7499 C10.4527 13.7499 9.25 12.4523 9.25 10.9166 C9.25 10.3242 9.5544 9.74663 9.83883 9.31575 C10.1419 8.85664 10.5172 8.42597 10.8248 8.10145 C11.4676 7.42322 12.5324 7.42322 13.1752 8.10145 Z M11.9135 9.13329 C11.6349 9.42722 11.3256 9.78621 11.0907 10.1421 C10.8371 10.5263 10.75 10.7891 10.75 10.9166 C10.75 11.6821 11.3382 12.2499 12 12.2499 C12.6618 12.2499 13.25 11.6821 13.25 10.9166 C13.25 10.7891 13.1629 10.5263 12.9093 10.1421 C12.6744 9.78621 12.3651 9.42722 12.0865 9.13329 C12.0572 9.10237 12.0266 9.09277 12 9.09277 C11.9734 9.09277 11.9428 9.10237 11.9135 9.13329 Z" fill="#FFFFFF" />
  <path fill-rule="nonzero" clip-rule="nonzero" d="M 9.35352 3.25 C 9.67998 2.09575 10.7412 1.25 12 1.25 C 13.2588 1.25 14.32 2.09575 14.6465 3.25 L 15.052 3.25 C 15.9505 3.24997 16.6997 3.24994 17.2945 3.32991 C 17.9223 3.41432 18.4891 3.59999 18.9445 4.05546 C 19.4 4.51093 19.5857 5.07773 19.6701 5.70552 C 19.7501 6.3003 19.75 7.04951 19.75 7.94797 L 19.75 15.8831 C 19.75 16.8539 19.3428 17.7803 18.6274 18.4367 C 16.9503 19.9756 14.8713 20.826 12.7499 20.988 L 12.75 21 V 22 C 12.75 22.4142 12.4142 22.75 12 22.75 C 11.5858 22.75 11.25 22.4142 11.25 22 V 21 L 11.2501 20.988 C 9.12873 20.826 7.04967 19.9756 5.37259 18.4367 C 4.65724 17.7803 4.25 16.8539 4.25 15.8831 L 4.25 7.948 C 4.24997 7.04953 4.24995 6.30029 4.32991 5.70552 C 4.41432 5.07773 4.59999 4.51093 5.05546 4.05546 C 5.51093 3.59999 6.07773 3.41432 6.70552 3.32991 C 7.3003 3.24994 8.04952 3.24997 8.948 3.25 L 9.35352 3.25 Z M10.9999 3.25 L13.0001 3.25 C12.772 2.94639 12.409 2.75 12 2.75 C11.591 2.75 11.228 2.94639 10.9999 3.25 Z M15 4.75 L9 4.75 C8.03599 4.75 7.38843 4.75159 6.9054 4.81654 C6.44393 4.87858 6.24644 4.9858 6.11612 5.11612 C5.9858 5.24643 5.87858 5.44393 5.81654 5.90539 C5.7516 6.38843 5.75 7.03599 5.75 8 L5.75 15.8831 C5.75 16.4337 5.98098 16.9592 6.38673 17.3315 C9.56185 20.2449 14.4382 20.2449 17.6133 17.3315 C18.019 16.9592 18.25 16.4337 18.25 15.8831 L18.25 8 C18.25 7.03599 18.2484 6.38843 18.1835 5.90539 C18.1214 5.44393 18.0142 5.24643 17.8839 5.11612 C17.7536 4.9858 17.5561 4.87858 17.0946 4.81654 C16.6116 4.75159 15.964 4.75 15 4.75 Z" fill="#FFFFFF" />
</svg>