<svg xmlns="http://www.w3.org/2000/svg" width="24" height="24" viewBox="0 0 24 24" fill="none">
  <path fill-rule="nonzero" clip-rule="nonzero" d="M 19 8 V 15.8831 C 19 16.6438 18.6809 17.3697 18.1203 17.8841 C 16.5867 19.2913 14.6891 20.0751 12.75 20.2356 V 21.25 C 12.75 21.6642 12.4142 22 12 22 C 11.5858 22 11.25 21.6642 11.25 21.25 V 20.2356 C 9.31089 20.0751 7.41327 19.2913 5.87966 17.8841 C 5.31911 17.3697 5 16.6438 5 15.8831 V 8 C 5 6.11438 5 5.17157 5.58579 4.58579 C 6.17157 4 7.11438 4 9 4 H 15 C 16.8856 4 17.8284 4 18.4142 4.58579 C 19 5.17157 19 6.11438 19 8 Z M 12 12.9999 C 13.1046 12.9999 14 12.0672 14 10.9166 C 14 10.1967 13.217 9.23583 12.6309 8.61737 C 12.2839 8.25124 11.7161 8.25124 11.3691 8.61737 C 10.783 9.23583 10 10.1967 10 10.9166 C 10 12.0672 10.8954 12.9999 12 12.9999 Z M9.25 16 C9.25 16.4142 9.58579 16.75 10 16.75 L14 16.75 C14.4142 16.75 14.75 16.4142 14.75 16 C14.75 15.5858 14.4142 15.25 14 15.25 L10 15.25 C9.58579 15.25 9.25 15.5858 9.25 16 Z" fill="#FFFFFF" />
  <path d="M13.7325 3C13.3866 2.4022 12.7403 2 12 2C11.2597 2 10.6134 2.4022 10.2676 3L13.7325 3Z" fill="#FFFFFF" />
</svg>