<svg xmlns="http://www.w3.org/2000/svg" width="24" height="24" viewBox="0 0 24 24" fill="none">
  <path fill-rule="nonzero" clip-rule="nonzero" d="M 19 11.75 V 13.25 H 17 C 16.5858 13.25 16.25 13.5858 16.25 14 C 16.25 14.4142 16.5858 14.75 17 14.75 H 19 V 15.8831 C 19 16.6438 18.6809 17.3697 18.1203 17.8841 C 16.5867 19.2913 14.6891 20.0751 12.75 20.2356 V 21.25 C 12.75 21.6642 12.4142 22 12 22 C 11.5858 22 11.25 21.6642 11.25 21.25 V 20.2356 C 9.31089 20.0751 7.41327 19.2913 5.87966 17.8841 C 5.31911 17.3697 5 16.6438 5 15.8831 V 8 C 5 6.11438 5 5.17157 5.58579 4.58579 C 6.17157 4 7.11438 4 9 4 H 15 C 16.8856 4 17.8284 4 18.4142 4.58579 C 18.9166 5.08814 18.9881 5.85306 18.9983 7.25 H 17 C 16.5858 7.25 16.25 7.58579 16.25 8 C 16.25 8.41421 16.5858 8.75 17 8.75 H 19 V 10.25 H 17 C 16.5858 10.25 16.25 10.5858 16.25 11 C 16.25 11.4142 16.5858 11.75 17 11.75 H 19 Z M 12 14 C 13.1046 14 14 13.0673 14 11.9167 C 14 11.1968 13.217 10.2359 12.6309 9.61744 C 12.2839 9.25132 11.7161 9.25132 11.3691 9.61744 C 10.783 10.2359 10 11.1968 10 11.9167 C 10 13.0673 10.8954 14 12 14 Z" fill="#FFFFFF" />
  <path d="M13.7325 3C13.3866 2.4022 12.7403 2 12 2C11.2597 2 10.6134 2.4022 10.2676 3L13.7325 3Z" fill="#FFFFFF" />
</svg>