<svg xmlns="http://www.w3.org/2000/svg" width="24" height="24" viewBox="0 0 24 24" fill="none">
  <path d="M17.25 7.00017C17.25 6.58595 16.9142 6.25017 16.5 6.25017C16.0858 6.25017 15.75 6.58595 15.75 7.00017V8.25018H14.5C14.0858 8.25018 13.75 8.58597 13.75 9.00018C13.75 9.4144 14.0858 9.75018 14.5 9.75018L15.75 9.75018V11.0002C15.75 11.4144 16.0858 11.7502 16.5 11.7502C16.9142 11.7502 17.25 11.4144 17.25 11.0002V9.75018H18.5C18.9142 9.75018 19.25 9.4144 19.25 9.00018C19.25 8.58597 18.9142 8.25018 18.5 8.25018H17.25V7.00017Z" fill="#FFFFFF" />
  <path fill-rule="nonzero" clip-rule="nonzero" d="M22.75 9.31763 C22.75 11.4356 21.6196 13.5198 20.2127 15.3141 C18.7914 17.1269 17.0033 18.7501 15.5109 19.9612 L15.3767 20.0702 C14.1762 21.0458 13.3094 21.7502 12 21.7502 C10.6906 21.7502 9.82386 21.0458 8.62327 20.0701 L8.48914 19.9612 C6.99671 18.7501 5.20863 17.1269 3.78729 15.3141 C2.38041 13.5198 1.25 11.4356 1.25 9.31767 C1.25 5.99226 2.73242 3.50984 5.0391 2.60662 C7.17479 1.77035 9.73815 2.39603 12 4.51334 C14.2618 2.39603 16.8252 1.77035 18.9609 2.60661 C21.2676 3.50983 22.75 5.99224 22.75 9.31763 Z M12.5478 6.08652 C12.406 6.2382 12.2077 6.32429 12 6.32429 C11.7923 6.32429 11.594 6.2382 11.4522 6.08652 C9.34039 3.82795 7.15092 3.39059 5.58602 4.00336 C4.01766 4.61747 2.75 6.41306 2.75 9.31767 C2.75 10.929 3.62931 12.6816 4.96771 14.3886 C6.29166 16.0771 7.98445 17.6199 9.43432 18.7964 C10.8269 19.9265 11.2771 20.2502 12 20.2502 C12.7229 20.2502 13.1731 19.9265 14.5657 18.7965 C16.0156 17.6199 17.7084 16.0772 19.0323 14.3886 C20.3707 12.6816 21.25 10.9291 21.25 9.31763 C21.25 6.41304 19.9823 4.61747 18.414 4.00335 C16.8491 3.39059 14.6596 3.82795 12.5478 6.08652 Z" fill="#FFFFFF" />
</svg>