<svg xmlns="http://www.w3.org/2000/svg" width="24" height="24" viewBox="0 0 24 24" fill="none">
  <path fill-rule="nonzero" clip-rule="nonzero" d="M 8.96173 18.4687 C 6.01943 16.2137 2 12.4886 2 8.96653 C 2 3.08262 7.50016 0.885859 12 5.43111 C 16.4998 0.885859 22 3.08262 22 8.9665 C 22 12.4887 17.9806 16.2137 15.0383 18.4687 C 13.7063 19.4896 13.0403 20 12 20 C 10.9597 20 10.2937 19.4896 8.96173 18.4687 Z M16.5 6.25 C16.0858 6.25 15.75 6.58579 15.75 7 L15.75 8.25002 L14.5 8.25002 C14.0858 8.25002 13.75 8.5858 13.75 9.00002 C13.75 9.41423 14.0858 9.75002 14.5 9.75002 L15.75 9.75002 L15.75 11 C15.75 11.4142 16.0858 11.75 16.5 11.75 C16.9142 11.75 17.25 11.4142 17.25 11 L17.25 9.75002 L18.5 9.75002 C18.9142 9.75002 19.25 9.41423 19.25 9.00002 C19.25 8.5858 18.9142 8.25002 18.5 8.25002 L17.25 8.25002 L17.25 7 C17.25 6.58579 16.9142 6.25 16.5 6.25 Z" fill="#FFFFFF" />
</svg>