<svg xmlns="http://www.w3.org/2000/svg" width="24" height="24" viewBox="0 0 24 24" fill="none">
  <path fill-rule="nonzero" clip-rule="nonzero" d="M22.75 9.26043 C22.75 11.3863 21.6207 13.4794 20.2138 15.2826 C18.7926 17.104 17.0047 18.735 15.5123 19.952 L15.3775 20.062 C14.1777 21.0418 13.3105 21.75 12 21.75 C10.6895 21.75 9.82232 21.0418 8.62247 20.062 L8.48775 19.952 C6.99532 18.735 5.20736 17.1039 3.7862 15.2825 C2.37926 13.4794 1.25 11.3863 1.25 9.26046 C1.25 6.07939 2.74218 3.60652 5.02447 2.65702 C7.15386 1.77113 9.72568 2.30955 12 4.43676 C14.2743 2.30955 16.8461 1.77108 18.9755 2.65694 C21.2578 3.60642 22.75 6.07929 22.75 9.26043 Z M12.5491 6.00969 C12.4072 6.16218 12.2083 6.2488 12 6.2488 C11.7917 6.2488 11.5928 6.16218 11.4509 6.00969 C9.35285 3.75482 7.17297 3.38781 5.60065 4.04194 C4.0079 4.70457 2.75 6.5306 2.75 9.26046 C2.75 9.90536 2.88924 10.5725 3.14115 11.2501 L5.3 11.2501 C5.9515 11.2501 6.07557 11.2377 6.17854 11.1965 C6.28151 11.1553 6.37995 11.0787 6.85172 10.6294 L8.38136 9.17261 C8.54016 9.02126 8.71006 8.85933 8.87115 8.74336 C9.05875 8.60832 9.32945 8.46362 9.68096 8.48473 C10.0325 8.50584 10.2839 8.68191 10.454 8.83843 C10.6 8.97284 10.7493 9.15394 10.8889 9.32321 L14.4401 13.6278 C14.5128 13.7159 14.5723 13.7879 14.6247 13.8493 C14.68 13.7901 14.7426 13.7206 14.8192 13.6354 L15.8485 12.4918 L15.9233 12.4084 C16.2879 12.002 16.6116 11.6412 17.0527 11.4447 C17.4937 11.2483 17.9784 11.2491 18.5241 11.25 L18.6361 11.2501 L20.8589 11.2501 C21.1108 10.5725 21.25 9.90535 21.25 9.26043 C21.25 6.53048 19.9921 4.70447 18.3994 4.04187 C16.827 3.38777 14.6472 3.75481 12.5491 6.00969 Z M 3.86493 12.7501 C 4.18003 13.2875 4.55224 13.8259 4.96881 14.3598 C 6.29293 16.0568 7.98585 17.6072 9.43571 18.7895 C 10.8287 19.9255 11.2785 20.25 12 20.25 C 12.7216 20.25 13.1713 19.9255 14.5643 18.7895 C 16.0142 17.6072 17.7071 16.0569 19.0312 14.3598 C 19.4478 13.8259 19.82 13.2875 20.1351 12.7501 H 18.6361 C 17.9119 12.7501 17.7746 12.7653 17.6629 12.815 C 17.5513 12.8647 17.4481 12.9567 16.9634 13.4952 L 15.9086 14.6672 C 15.7507 14.8429 15.5839 15.0284 15.4235 15.1628 C 15.2384 15.318 14.9627 15.4921 14.5896 15.4841 C 14.2166 15.4761 13.9488 15.2905 13.7704 15.1274 C 13.616 14.9863 13.4574 14.7939 13.3074 14.6118 L 9.75487 10.3058 C 9.68734 10.2239 9.63239 10.1574 9.5839 10.1005 C 9.52897 10.1511 9.46645 10.2106 9.38961 10.2838 L 7.81346 11.785 C 7.4575 12.1251 7.14165 12.4268 6.73563 12.5892 C 6.32961 12.7516 5.89282 12.7509 5.40054 12.7502 L 3.86493 12.7501 Z" fill="#FFFFFF" />
</svg>