<svg xmlns="http://www.w3.org/2000/svg" width="24" height="24" viewBox="0 0 24 24" fill="none">
  <path d="M12.75 12C12.75 11.5858 12.4142 11.25 12 11.25C11.5858 11.25 11.25 11.5858 11.25 12V13.25H10C9.58579 13.25 9.25 13.5858 9.25 14C9.25 14.4142 9.58579 14.75 10 14.75H11.25V16C11.25 16.4142 11.5858 16.75 12 16.75C12.4142 16.75 12.75 16.4142 12.75 16V14.75H14C14.4142 14.75 14.75 14.4142 14.75 14C14.75 13.5858 14.4142 13.25 14 13.25H12.75V12Z" fill="#FFFFFF" />
  <path fill-rule="nonzero" clip-rule="nonzero" d="M 7.47824 1.25 H 16.5218 C 16.736 1.24999 16.9329 1.24998 17.0982 1.26126 C 17.2759 1.27338 17.4712 1.30099 17.6697 1.38321 C 18.0985 1.56083 18.4392 1.90151 18.6168 2.33031 C 18.699 2.52881 18.7266 2.72415 18.7387 2.90179 C 18.75 3.06711 18.75 3.26395 18.75 3.47821 V 3.52177 C 18.75 3.73603 18.75 3.93289 18.7387 4.09821 C 18.7266 4.27585 18.699 4.4712 18.6168 4.6697 C 18.4392 5.0985 18.0985 5.43918 17.6697 5.61679 C 17.4931 5.68994 17.319 5.71987 17.1577 5.73412 L 18.9887 7.21638 C 20.1028 8.11824 20.75 9.47494 20.75 10.9083 V 17.5649 C 20.75 18.6667 20.367 19.7341 19.6667 20.5845 L 19.3084 21.0196 C 18.4061 22.1153 17.0611 22.75 15.6417 22.75 L 8.90201 22.75 C 8.38331 22.7501 8.04969 22.7501 7.72758 22.7059 C 6.77407 22.575 5.88282 22.1576 5.17185 21.5088 C 4.93168 21.2897 4.71812 21.0334 4.38612 20.6349 L 4.35095 20.5927 C 3.63958 19.739 3.25 18.663 3.25 17.5518 V 10.9225 C 3.25 9.47953 3.90593 8.11479 5.0327 7.21338 L 6.87811 5.73705 C 6.70686 5.72408 6.52003 5.69538 6.3303 5.61679 C 5.9015 5.43918 5.56083 5.0985 5.38321 4.6697 C 5.30099 4.4712 5.27338 4.27586 5.26125 4.09821 C 5.24997 3.93289 5.24999 3.73604 5.25 3.52176 V 3.47825 C 5.24999 3.26397 5.24997 3.06712 5.26125 2.90179 C 5.27338 2.72415 5.30099 2.52881 5.38321 2.33031 C 5.56083 1.90151 5.9015 1.56083 6.3303 1.38321 C 6.52881 1.30099 6.72415 1.27338 6.90179 1.26126 C 7.0671 1.24998 7.26399 1.24999 7.47824 1.25 Z M10.4031 5.75 C9.65721 5.75 9.46084 5.75977 9.2878 5.82047 C9.11476 5.88117 8.95533 5.99621 8.37287 6.46218 L5.96974 8.38468 C5.6645 8.62888 5.40975 8.92277 5.21337 9.25 L18.7951 9.25 C18.6007 8.92237 18.3481 8.62769 18.0449 8.38225 L15.6876 6.47396 C15.1025 6.00033 14.9423 5.8834 14.7679 5.82167 C14.5936 5.75994 14.3954 5.75 13.6427 5.75 L10.4031 5.75 Z M4.75457 10.75 C4.75153 10.8073 4.75 10.8648 4.75 10.9225 L4.75 17.25 L19.25 17.25 L19.25 10.9083 C19.25 10.8554 19.2487 10.8026 19.2462 10.75 L4.75457 10.75 Z M4.97894 18.75 C5.10494 19.0677 5.28119 19.3659 5.50328 19.6324 C5.88218 20.0871 6.02777 20.2592 6.1829 20.4008 C6.66935 20.8446 7.27915 21.1303 7.93155 21.2198 C8.13961 21.2484 8.36505 21.25 8.95693 21.25 L15.6417 21.25 C16.6129 21.25 17.5331 20.8157 18.1505 20.066 L18.5088 19.631 C18.7283 19.3645 18.9022 19.0668 19.0262 18.75 L4.97894 18.75 Z M16.5 4.25 C16.7432 4.25 16.8881 4.2496 16.9961 4.24223 C17.0629 4.23767 17.0913 4.23157 17.0987 4.2297 C17.1575 4.20442 17.2044 4.15753 17.2297 4.09869 C17.2316 4.09134 17.2377 4.06293 17.2422 3.9961 C17.2496 3.8881 17.25 3.74324 17.25 3.5 C17.25 3.25677 17.2496 3.11191 17.2422 3.0039 C17.2377 2.93707 17.2316 2.90867 17.2297 2.90131 C17.2044 2.84248 17.1575 2.79558 17.0987 2.77031 C17.0913 2.76844 17.0629 2.76234 16.9961 2.75778 C16.8881 2.75041 16.7432 2.75 16.5 2.75 L7.5 2.75 C7.25677 2.75 7.1119 2.75041 7.0039 2.75778 C6.93707 2.76234 6.90867 2.76844 6.90131 2.77031 C6.84248 2.79558 6.79558 2.84248 6.7703 2.90131 C6.76844 2.90867 6.76234 2.93707 6.75778 3.0039 C6.75041 3.11191 6.75 3.25677 6.75 3.5 C6.75 3.74324 6.75041 3.8881 6.75778 3.9961 C6.76234 4.06294 6.76844 4.09134 6.7703 4.09869 C6.79558 4.15753 6.84248 4.20442 6.90131 4.2297 C6.90867 4.23157 6.93707 4.23767 7.0039 4.24223 C7.1119 4.2496 7.25677 4.25 7.5 4.25 L10.1068 4.25 C10.17 4.24984 10.2347 4.24989 10.3009 4.24995 L13.7459 4.24995 C13.8127 4.24989 13.878 4.24984 13.9418 4.25 L16.5 4.25 Z" fill="#FFFFFF" />
</svg>