<svg xmlns="http://www.w3.org/2000/svg" width="24" height="24" viewBox="0 0 24 24" fill="none">
  <path fill-rule="nonzero" clip-rule="nonzero" d="M5.47824 1.25 L14.5218 1.25 C14.7361 1.24999 14.9329 1.24998 15.0982 1.26126 C15.2759 1.27338 15.4712 1.30099 15.6697 1.38321 C16.0985 1.56083 16.4392 1.90151 16.6168 2.33031 C16.699 2.52881 16.7266 2.72415 16.7387 2.90179 C16.75 3.06711 16.75 3.26398 16.75 3.47824 L16.75 3.5218 C16.75 3.73606 16.75 3.9329 16.7387 4.09821 C16.7266 4.27585 16.699 4.4712 16.6168 4.6697 C16.4392 5.0985 16.0985 5.43918 15.6697 5.61679 C15.4931 5.68994 15.319 5.71987 15.1577 5.73412 L16.9887 7.21638 C18.1028 8.11824 18.75 9.47494 18.75 10.9083 L18.75 12.5 C18.75 12.9142 18.4142 13.25 18 13.25 C17.5858 13.25 17.25 12.9142 17.25 12.5 L17.25 10.9083 C17.25 10.8554 17.2487 10.8026 17.2462 10.75 L2.75457 10.75 C2.75153 10.8073 2.75 10.8648 2.75 10.9225 L2.75 17.25 L10.5 17.25 C10.9142 17.25 11.25 17.5858 11.25 18 C11.25 18.4142 10.9142 18.75 10.5 18.75 L2.97894 18.75 C3.10494 19.0677 3.28119 19.3659 3.50328 19.6324 C3.88218 20.0871 4.02777 20.2592 4.1829 20.4008 C4.66935 20.8446 5.27915 21.1303 5.93155 21.2198 C6.13961 21.2484 6.36505 21.25 6.95693 21.25 L10.5 21.25 C10.9142 21.25 11.25 21.5858 11.25 22 C11.25 22.4142 10.9142 22.75 10.5 22.75 L6.90201 22.75 C6.38331 22.7501 6.04969 22.7501 5.72758 22.7059 C4.77407 22.575 3.88282 22.1576 3.17185 21.5088 C2.93168 21.2897 2.71812 21.0334 2.38612 20.6349 L2.35095 20.5927 C1.63958 19.739 1.25 18.663 1.25 17.5518 L1.25 10.9225 C1.25 9.47953 1.90593 8.11479 3.0327 7.21338 L4.87811 5.73705 C4.70686 5.72408 4.52003 5.69538 4.3303 5.61679 C3.9015 5.43918 3.56083 5.0985 3.38321 4.6697 C3.30099 4.4712 3.27338 4.27586 3.26125 4.09821 C3.24997 3.93289 3.24999 3.73603 3.25 3.52176 L3.25 3.47824 C3.24999 3.26397 3.24997 3.06712 3.26125 2.90179 C3.27338 2.72415 3.30099 2.52881 3.38321 2.33031 C3.56083 1.90151 3.9015 1.56083 4.3303 1.38321 C4.52881 1.30099 4.72415 1.27338 4.90179 1.26126 C5.0671 1.24998 5.26399 1.24999 5.47824 1.25 Z M 11.6427 5.75 H 8.40312 C 7.65721 5.75 7.46084 5.75977 7.2878 5.82047 C 7.11476 5.88117 6.95533 5.99621 6.37287 6.46218 L 3.96974 8.38468 C 3.6645 8.62888 3.40975 8.92277 3.21337 9.25 H 16.7951 C 16.6007 8.92237 16.3481 8.62769 16.0449 8.38225 L 13.6876 6.47396 C 13.1025 6.00033 12.9423 5.8834 12.7679 5.82167 C 12.5936 5.75994 12.3954 5.75 11.6427 5.75 Z M 11.9418 4.25 H 14.5 C 14.7432 4.25 14.8881 4.2496 14.9961 4.24223 C 15.0629 4.23767 15.0913 4.23157 15.0987 4.2297 C 15.1575 4.20442 15.2044 4.15753 15.2297 4.09869 C 15.2316 4.09134 15.2377 4.06293 15.2422 3.9961 C 15.2496 3.8881 15.25 3.74324 15.25 3.5 C 15.25 3.25677 15.2496 3.11191 15.2422 3.0039 C 15.2377 2.93707 15.2316 2.90867 15.2297 2.90131 C 15.2044 2.84248 15.1575 2.79558 15.0987 2.77031 C 15.0913 2.76844 15.0629 2.76234 14.9961 2.75778 C 14.8881 2.75041 14.7432 2.75 14.5 2.75 H 5.5 C 5.25677 2.75 5.1119 2.75041 5.0039 2.75778 C 4.93707 2.76234 4.90867 2.76844 4.90131 2.77031 C 4.84248 2.79558 4.79558 2.84248 4.7703 2.90131 C 4.76844 2.90867 4.76234 2.93707 4.75778 3.0039 C 4.75041 3.11191 4.75 3.25677 4.75 3.5 C 4.75 3.74324 4.75041 3.8881 4.75778 3.9961 C 4.76234 4.06294 4.76844 4.09134 4.7703 4.09869 C 4.79558 4.15753 4.84248 4.20442 4.90131 4.2297 C 4.90867 4.23157 4.93707 4.23767 5.0039 4.24223 C 5.1119 4.2496 5.25677 4.25 5.5 4.25 H 8.10677 C 8.17001 4.24984 8.23467 4.24989 8.30086 4.24995 L 11.7459 4.24995 C 11.8127 4.24989 11.878 4.24984 11.9418 4.25 Z" fill="#FFFFFF" />
  <path d="M10 11.25C10.4142 11.25 10.75 11.5858 10.75 12V13.25H12C12.4142 13.25 12.75 13.5858 12.75 14C12.75 14.4142 12.4142 14.75 12 14.75H10.75V16C10.75 16.4142 10.4142 16.75 10 16.75C9.58579 16.75 9.25 16.4142 9.25 16V14.75H8C7.58579 14.75 7.25 14.4142 7.25 14C7.25 13.5858 7.58579 13.25 8 13.25H9.25V12C9.25 11.5858 9.58579 11.25 10 11.25Z" fill="#FFFFFF" />
  <path fill-rule="nonzero" clip-rule="nonzero" d="M19.7941 15.2059 C21.0204 16.4322 21.0921 18.4233 19.8632 19.6522 L17.6522 21.8632 C16.4233 23.0921 14.4322 23.0204 13.2059 21.7941 C11.9796 20.5678 11.9079 18.5767 13.1368 17.3478 L15.3478 15.1368 C16.5767 13.9079 18.5678 13.9796 19.7941 15.2059 Z M16.4085 16.1975 L16.0776 16.5283 C16.4739 16.7608 16.9393 17.0971 17.4212 17.579 C17.903 18.0608 18.2393 18.5261 18.4717 18.9223 L18.8025 18.5915 C19.4053 17.9888 19.4151 16.9483 18.7334 16.2666 C18.0517 15.5849 17.0112 15.5947 16.4085 16.1975 Z M17.3098 19.9246 C17.1493 19.6019 16.8612 19.1403 16.3605 18.6397 C15.8598 18.139 15.3982 17.8508 15.0754 17.6902 C15.0374 17.6713 15.0013 17.6542 14.9673 17.6387 L14.1975 18.4085 C13.5947 19.0112 13.5849 20.0517 14.2666 20.7334 C14.9483 21.4151 15.9888 21.4053 16.5915 20.8025 L17.3614 20.0327 C17.3459 19.9987 17.3287 19.9626 17.3098 19.9246 Z" fill="#FFFFFF" />
</svg>