<svg xmlns="http://www.w3.org/2000/svg" width="24" height="24" viewBox="0 0 24 24" fill="none">
  <path fill-rule="evenodd" clip-rule="evenodd" d="M12 11.75C12.4142 11.75 12.75 12.0858 12.75 12.5V13.25H13.5C13.9142 13.25 14.25 13.5858 14.25 14C14.25 14.4142 13.9142 14.75 13.5 14.75H12.75V15.5C12.75 15.9142 12.4142 16.25 12 16.25C11.5858 16.25 11.25 15.9142 11.25 15.5V14.75H10.5C10.0858 14.75 9.75 14.4142 9.75 14C9.75 13.5858 10.0858 13.25 10.5 13.25H11.25V12.5C11.25 12.0858 11.5858 11.75 12 11.75Z" fill="#FFFFFF" />
  <path fill-rule="nonzero" clip-rule="nonzero" d="M11.948 1.25 L12.052 1.25 C12.9505 1.24997 13.6997 1.24995 14.2945 1.32991 C14.9223 1.41432 15.4891 1.59999 15.9445 2.05546 C16.4 2.51093 16.5857 3.07773 16.6701 3.70552 C16.7501 4.3003 16.75 5.04954 16.75 5.94801 L16.75 6.02572 C18.7712 6.09185 19.9849 6.32803 20.8284 7.17158 C22 8.34315 22 10.2288 22 14 C22 17.7712 22 19.6569 20.8284 20.8284 C19.6569 22 17.7712 22 14 22 L9.99998 22 C6.22876 22 4.34314 22 3.17157 20.8284 C2 19.6569 2 17.7712 2 14 C2 10.2288 2 8.34315 3.17157 7.17158 C4.01511 6.32803 5.22882 6.09185 7.25 6.02572 L7.25 5.948 C7.24997 5.04952 7.24995 4.3003 7.32991 3.70552 C7.41432 3.07773 7.59999 2.51093 8.05546 2.05546 C8.51093 1.59999 9.07773 1.41432 9.70552 1.32991 C10.3003 1.24995 11.0495 1.24997 11.948 1.25 Z M 15.25 6.00189 V 6 C 15.25 5.03599 15.2484 4.38843 15.1835 3.9054 C 15.1214 3.44393 15.0142 3.24644 14.8839 3.11612 C 14.7536 2.9858 14.5561 2.87858 14.0946 2.81654 C 13.6116 2.7516 12.964 2.75 12 2.75 C 11.036 2.75 10.3884 2.7516 9.90539 2.81654 C 9.44393 2.87858 9.24643 2.9858 9.11612 3.11612 C 8.9858 3.24644 8.87858 3.44393 8.81654 3.9054 C 8.75159 4.38843 8.75 5.03599 8.75 6 V 6.00189 C 9.14203 6 9.55807 6 10 6 H 14 C 14.4419 6 14.858 6 15.25 6.00189 Z M16 14 C16 11.7909 14.2091 10 12 10 C9.79086 10 8 11.7909 8 14 C8 16.2091 9.79086 18 12 18 C14.2091 18 16 16.2091 16 14 Z" fill="#FFFFFF" />
</svg>