<svg xmlns="http://www.w3.org/2000/svg" width="24" height="24" viewBox="0 0 24 24" fill="none">
  <path d="M12 11.75C12.4142 11.75 12.75 12.0858 12.75 12.5V13.25H13.5C13.9142 13.25 14.25 13.5858 14.25 14C14.25 14.4142 13.9142 14.75 13.5 14.75H12.75V15.5C12.75 15.9142 12.4142 16.25 12 16.25C11.5858 16.25 11.25 15.9142 11.25 15.5V14.75H10.5C10.0858 14.75 9.75 14.4142 9.75 14C9.75 13.5858 10.0858 13.25 10.5 13.25H11.25V12.5C11.25 12.0858 11.5858 11.75 12 11.75Z" fill="#FFFFFF" />
  <path fill-rule="nonzero" clip-rule="nonzero" d="M12 9.25 C14.6234 9.25 16.75 11.3767 16.75 14 C16.75 16.6234 14.6234 18.75 12 18.75 C9.37665 18.75 7.25 16.6234 7.25 14 C7.25 11.3767 9.37665 9.25 12 9.25 Z M8.75 14 C8.75 15.7949 10.2051 17.25 12 17.25 C13.7949 17.25 15.25 15.7949 15.25 14 C15.25 12.2051 13.7949 10.75 12 10.75 C10.2051 10.75 8.75 12.2051 8.75 14 Z" fill="#FFFFFF" />
  <path fill-rule="nonzero" clip-rule="nonzero" d="M11.948 1.25 L12.052 1.25 C12.9505 1.24997 13.6997 1.24995 14.2945 1.32991 C14.9223 1.41432 15.4891 1.59999 15.9445 2.05546 C16.4 2.51093 16.5857 3.07773 16.6701 3.70552 C16.7292 4.14512 16.7446 4.66909 16.7486 5.27533 C17.3971 5.29614 17.9752 5.33406 18.489 5.40314 C19.6614 5.56077 20.6104 5.89288 21.3588 6.64125 C22.1071 7.38961 22.4392 8.33856 22.5969 9.51098 C22.75 10.6502 22.75 12.1059 22.75 13.9436 L22.75 14.0565 C22.75 15.8942 22.75 17.3498 22.5969 18.489 C22.4392 19.6614 22.1071 20.6104 21.3588 21.3588 C20.6104 22.1071 19.6614 22.4392 18.489 22.5969 C17.3498 22.75 15.8942 22.75 14.0564 22.75 L9.94354 22.75 C8.1058 22.75 6.65018 22.75 5.51098 22.5969 C4.33856 22.4392 3.38961 22.1071 2.64124 21.3588 C1.89288 20.6104 1.56076 19.6614 1.40314 18.489 C1.24997 17.3498 1.24998 15.8942 1.25 14.0564 L1.25 13.9436 C1.24998 12.1058 1.24997 10.6502 1.40314 9.51098 C1.56076 8.33856 1.89288 7.38961 2.64124 6.64125 C3.38961 5.89288 4.33856 5.56077 5.51098 5.40314 C6.02475 5.33406 6.60288 5.29614 7.2514 5.27533 C7.2554 4.66909 7.27081 4.14512 7.32991 3.70552 C7.41432 3.07773 7.59999 2.51093 8.05546 2.05546 C8.51093 1.59999 9.07773 1.41432 9.70552 1.32991 C10.3003 1.24995 11.0495 1.24997 11.948 1.25 Z M 15.2482 5.25178 C 15.244 4.68146 15.23 4.25125 15.1835 3.9054 C 15.1214 3.44393 15.0142 3.24644 14.8839 3.11612 C 14.7536 2.9858 14.5561 2.87858 14.0946 2.81654 C 13.6116 2.7516 12.964 2.75 12 2.75 C 11.036 2.75 10.3884 2.7516 9.90539 2.81654 C 9.44393 2.87858 9.24643 2.9858 9.11612 3.11612 C 8.9858 3.24644 8.87858 3.44393 8.81654 3.9054 C 8.77004 4.25125 8.75602 4.68146 8.7518 5.25178 C 9.12993 5.25 9.52694 5.25 9.94358 5.25 H 14.0564 C 14.4731 5.25 14.8701 5.25 15.2482 5.25178 Z M3.7019 7.70191 C3.27869 8.12512 3.02503 8.70476 2.88976 9.71085 C2.75159 10.7385 2.75 12.0932 2.75 14 C2.75 15.9068 2.75159 17.2615 2.88976 18.2892 C3.02503 19.2952 3.27869 19.8749 3.7019 20.2981 C4.12511 20.7213 4.70476 20.975 5.71085 21.1102 C6.73851 21.2484 8.09318 21.25 10 21.25 L14 21.25 C15.9068 21.25 17.2615 21.2484 18.2892 21.1102 C19.2952 20.975 19.8749 20.7213 20.2981 20.2981 C20.7213 19.8749 20.975 19.2952 21.1102 18.2892 C21.2484 17.2615 21.25 15.9068 21.25 14 C21.25 12.0932 21.2484 10.7385 21.1102 9.71085 C20.975 8.70476 20.7213 8.12512 20.2981 7.70191 C19.8749 7.2787 19.2952 7.02503 18.2892 6.88976 C17.2615 6.7516 15.9068 6.75 14 6.75 L10 6.75 C8.09318 6.75 6.73851 6.7516 5.71085 6.88976 C4.70476 7.02503 4.12511 7.2787 3.7019 7.70191 Z" fill="#FFFFFF" />
</svg>