<svg xmlns="http://www.w3.org/2000/svg" width="24" height="24" viewBox="0 0 24 24" fill="none">
  <path fill-rule="nonzero" clip-rule="nonzero" d="M8 1.25 C11.1756 1.25 13.75 3.82436 13.75 7 C13.75 8.58761 13.1056 10.0261 12.0659 11.0659 C11.0261 12.1056 9.58761 12.75 8 12.75 C4.82436 12.75 2.25 10.1756 2.25 7 C2.25 5.41239 2.89441 3.97386 3.93414 2.93414 C4.97386 1.89441 6.41239 1.25 8 1.25 Z M11.4887 9.42805 C11.9689 8.73959 12.25 7.90304 12.25 7 C12.25 4.65279 10.3472 2.75 8 2.75 C7.09696 2.75 6.26041 3.03106 5.57195 3.51129 L11.4887 9.42805 Z M4.51129 4.57195 C4.03106 5.26041 3.75 6.09696 3.75 7 C3.75 9.34721 5.65279 11.25 8 11.25 C8.90304 11.25 9.73959 10.9689 10.428 10.4887 L4.51129 4.57195 Z" fill="#FFFFFF" />
  <path fill-rule="nonzero" clip-rule="nonzero" d="M21.0659 12.9341 C22.1885 14.0567 22.75 15.5296 22.75 17 C22.75 18.4704 22.1885 19.9433 21.0659 21.0659 C18.8203 23.3114 15.1797 23.3114 12.9341 21.0659 C11.8115 19.9433 11.25 18.4704 11.25 17 C11.25 15.5296 11.8115 14.0567 12.9341 12.9341 C15.1797 10.6886 18.8203 10.6886 21.0659 12.9341 Z M13.9948 13.9948 C13.3563 14.6333 12.9635 15.4236 12.8162 16.25 L21.1838 16.25 C21.0365 15.4236 20.6437 14.6333 20.0052 13.9948 C18.3455 12.3351 15.6545 12.3351 13.9948 13.9948 Z M12.8162 17.75 C12.9635 18.5764 13.3563 19.3667 13.9948 20.0052 C15.6545 21.6649 18.3455 21.6649 20.0052 20.0052 C20.6437 19.3667 21.0365 18.5764 21.1838 17.75 L12.8162 17.75 Z" fill="#FFFFFF" />
</svg>