<svg xmlns="http://www.w3.org/2000/svg" width="24" height="24" viewBox="0 0 24 24" fill="none">
  <path fill-rule="nonzero" clip-rule="nonzero" d="M14.1322 3.46024 L20.5398 9.86778 C23.4867 12.8148 23.4867 17.5928 20.5398 20.5398 C17.5928 23.4867 12.8148 23.4867 9.86778 20.5398 L3.46024 14.1322 C0.513254 11.1852 0.513254 6.40722 3.46024 3.46024 C6.40722 0.513254 11.1852 0.513254 14.1322 3.46024 Z M4.5209 4.5209 C2.1597 6.8821 2.1597 10.7104 4.5209 13.0716 L7.41829 15.9689 C7.42977 15.9654 7.44149 15.9616 7.45346 15.9578 C7.73465 15.868 8.1504 15.7153 8.66292 15.4683 C9.68709 14.9747 11.1005 14.1037 12.6019 12.6023 C14.1032 11.101 14.9744 9.68744 15.468 8.66312 C15.7151 8.15053 15.8679 7.73472 15.9578 7.45347 C15.9616 7.44148 15.9653 7.42974 15.9689 7.41825 L13.0716 4.5209 C10.7104 2.1597 6.8821 2.1597 4.5209 4.5209 Z M 8.58965 17.1403 L 10.9284 19.4791 C 13.2896 21.8403 17.1179 21.8403 19.4791 19.4791 C 21.8403 17.1179 21.8403 13.2896 19.4791 10.9284 L 17.1402 8.58958 C 17.0521 8.80835 16.9461 9.05118 16.8193 9.31437 C 16.2594 10.4761 15.2939 12.0316 13.6625 13.663 C 12.0312 15.2943 10.4757 16.2598 9.31411 16.8195 C 9.05105 16.9463 8.80833 17.0522 8.58965 17.1403 Z" fill="#FFFFFF" />
</svg>