<svg xmlns="http://www.w3.org/2000/svg" width="24" height="24" viewBox="0 0 24 24" fill="none">
  <path fill-rule="nonzero" clip-rule="nonzero" d="M19.5303 2.34835 C20.2624 3.08044 20.6287 4.04145 20.6287 5 C20.6287 5.95855 20.2624 6.91956 19.5303 7.65165 C18.0659 9.11612 15.6915 9.11612 14.227 7.65165 C13.4949 6.91956 13.1287 5.95855 13.1287 5 C13.1287 4.04145 13.4949 3.08044 14.227 2.34835 C15.6915 0.883883 18.0659 0.883883 19.5303 2.34835 Z M15.2877 3.40901 C14.8482 3.8485 14.6287 4.42301 14.6287 5 C14.6287 5.57699 14.8482 6.1515 15.2877 6.59099 C16.1664 7.46967 17.591 7.46967 18.4697 6.59099 C18.9092 6.1515 19.1287 5.57699 19.1287 5 C19.1287 4.42301 18.9092 3.8485 18.4697 3.40901 C17.591 2.53033 16.1664 2.53033 15.2877 3.40901 Z" fill="#FFFFFF" />
  <path fill-rule="nonzero" clip-rule="nonzero" d="M10.2123 5.78745 C11.2373 6.81242 11.75 8.15732 11.75 9.49976 C11.75 10.8422 11.2373 12.1871 10.2123 13.2121 C8.16206 15.2623 4.83794 15.2623 2.78769 13.2121 C1.76271 12.1871 1.25 10.8422 1.25 9.49976 C1.25 8.15732 1.76271 6.81242 2.78769 5.78745 C4.83794 3.73719 8.16206 3.73719 10.2123 5.78745 Z M3.84835 6.84811 C3.30767 7.38879 2.96669 8.05265 2.82523 8.74976 L10.1748 8.74976 C10.0333 8.05265 9.69233 7.38879 9.15165 6.84811 C7.68718 5.38364 5.31282 5.38364 3.84835 6.84811 Z M2.82523 10.2498 C2.96669 10.9469 3.30767 11.6107 3.84835 12.1514 C5.31282 13.6159 7.68718 13.6159 9.15165 12.1514 C9.69233 11.6107 10.0333 10.9469 10.1748 10.2498 L2.82523 10.2498 Z" fill="#FFFFFF" />
  <path fill-rule="nonzero" clip-rule="nonzero" d="M21.4355 11.5642 C23.1882 13.3169 23.1882 16.1585 21.4355 17.9111 L17.9114 21.4353 C16.1587 23.1879 13.3171 23.1879 11.5645 21.4353 C9.81184 19.6826 9.81184 16.841 11.5645 15.0884 L15.0886 11.5642 C16.8413 9.81159 19.6829 9.81159 21.4355 11.5642 Z M16.1493 12.6249 L14.7755 13.9986 C14.7782 14.0071 14.7809 14.0159 14.7839 14.0251 C14.8259 14.1566 14.8993 14.3572 15.02 14.6076 C15.2609 15.1075 15.6915 15.8088 16.4413 16.5587 C17.1912 17.3085 17.8924 17.739 18.3922 17.9799 C18.6426 18.1005 18.8431 18.1739 18.9747 18.2159 C18.9838 18.2188 18.9926 18.2216 19.0011 18.2242 L20.3749 16.8505 C21.5417 15.6836 21.5417 13.7918 20.3749 12.6249 C19.208 11.458 17.3162 11.458 16.1493 12.6249 Z M13.6196 15.1546 L12.6251 16.149 C11.4583 17.3159 11.4583 19.2078 12.6251 20.3746 C13.792 21.5415 15.6839 21.5415 16.8507 20.3746 L17.8451 19.3802 C17.8111 19.3645 17.7764 19.3482 17.741 19.3311 C17.1038 19.024 16.2605 18.4992 15.3807 17.6193 C14.5008 16.7395 13.9759 15.8962 13.6688 15.2589 C13.6517 15.2235 13.6353 15.1887 13.6196 15.1546 Z" fill="#FFFFFF" />
</svg>