<svg xmlns="http://www.w3.org/2000/svg" width="24" height="24" viewBox="0 0 24 24" fill="none">
  <path fill-rule="nonzero" clip-rule="nonzero" d="M3.46447 3.46447 C4.92893 2 7.28595 2 12 2 C16.714 2 19.0711 2 20.5355 3.46447 C22 4.92893 22 7.28595 22 12 C22 16.714 22 19.0711 20.5355 20.5355 C19.0711 22 16.714 22 12 22 C7.28595 22 4.92893 22 3.46447 20.5355 C2 19.0711 2 16.714 2 12 C2 7.28595 2 4.92893 3.46447 3.46447 Z M 15.0994 12.0935 C 14.9145 11.7916 14.7343 11.4972 14.558 11.2865 C 14.3708 11.0628 14.0427 10.7552 13.541 10.7753 C 13.0392 10.7954 12.7369 11.1284 12.5682 11.3663 C 12.4094 11.5905 12.2533 11.8984 12.0933 12.2141 L 10.1054 16.1339 C 10.0303 16.2819 9.96781 16.4051 9.91157 16.511 C 9.84318 16.4125 9.76649 16.2976 9.67443 16.1595 L 9.49755 15.8942 C 9.2942 15.5891 9.11407 15.3189 8.9414 15.1058 C 8.75414 14.8747 8.54321 14.6683 8.2589 14.5161 C 7.9746 14.364 7.6859 14.303 7.38972 14.2753 C 7.11663 14.2499 6.79189 14.2499 6.42526 14.2499 L 5 14.2499 C 4.58579 14.2499 4.25 14.5857 4.25 14.9999 C 4.25 15.4141 4.58579 15.7499 5 15.7499 H 6.39445 C 6.80113 15.7499 7.0553 15.7507 7.25047 15.7689 C 7.43017 15.7856 7.50379 15.8133 7.55112 15.8387 C 7.59845 15.864 7.66234 15.9099 7.77596 16.0501 C 7.89936 16.2024 8.04097 16.4135 8.26656 16.7518 L 8.4526 17.0309 C 8.64087 17.3135 8.8261 17.5915 9.00554 17.7898 C 9.1984 18.003 9.52819 18.2871 10.0153 18.2582 C 10.5025 18.2292 10.7963 17.9081 10.9626 17.6736 C 11.1173 17.4554 11.2683 17.1574 11.4218 16.8546 L 13.4092 12.9356 C 13.4876 12.7811 13.553 12.6522 13.6119 12.5414 C 13.6794 12.6472 13.7549 12.7704 13.8454 12.9181 L 14.4994 13.9859 C 14.6995 14.3127 14.8766 14.6018 15.0485 14.8299 C 15.2348 15.0772 15.4477 15.2988 15.7406 15.4629 C 16.0336 15.627 16.3337 15.6928 16.642 15.7225 C 16.9263 15.75 17.2653 15.7499 17.6485 15.7499 L 19 15.7499 C 19.4142 15.7499 19.75 15.4141 19.75 14.9999 C 19.75 14.5857 19.4142 14.2499 19 14.2499 H 17.6805 C 17.2557 14.2499 16.9897 14.2491 16.786 14.2295 C 16.5983 14.2114 16.5223 14.1815 16.4737 14.1542 C 16.4251 14.127 16.36 14.0779 16.2465 13.9272 C 16.1233 13.7638 15.9837 13.5374 15.7618 13.1751 L 15.0994 12.0935 Z" fill="#FFFFFF" />
</svg>