<svg xmlns="http://www.w3.org/2000/svg" width="24" height="24" viewBox="0 0 24 24" fill="none">
  <path fill-rule="nonzero" clip-rule="nonzero" d="M11.9426 1.25 L12.0574 1.25 C14.3658 1.24999 16.1748 1.24998 17.5863 1.43975 C19.031 1.63399 20.1711 2.03933 21.0659 2.93414 C21.9607 3.82895 22.366 4.96897 22.5603 6.41371 C22.75 7.82519 22.75 9.63423 22.75 11.9426 L22.75 12.0574 C22.75 13.081 22.75 14.0065 22.7335 14.8427 C22.7443 14.8934 22.75 14.946 22.75 15 C22.75 15.066 22.7415 15.1301 22.7254 15.1911 C22.7014 16.0947 22.654 16.889 22.5603 17.5863 C22.366 19.031 21.9607 20.1711 21.0659 21.0659 C20.1711 21.9607 19.031 22.366 17.5863 22.5603 C16.1748 22.75 14.3658 22.75 12.0574 22.75 L11.9426 22.75 C9.63423 22.75 7.82519 22.75 6.4137 22.5603 C4.96897 22.366 3.82895 21.9607 2.93414 21.0659 C2.03933 20.1711 1.63399 19.031 1.43975 17.5863 C1.346 16.889 1.29857 16.0947 1.27457 15.1911 C1.25854 15.1301 1.25 15.066 1.25 15 C1.25 14.946 1.2557 14.8934 1.26653 14.8426 C1.24999 14.0065 1.24999 13.081 1.25 12.0574 L1.25 11.9426 C1.24999 9.63423 1.24998 7.82519 1.43975 6.41371 C1.63399 4.96897 2.03933 3.82895 2.93414 2.93414 C3.82895 2.03933 4.96897 1.63399 6.4137 1.43975 C7.82519 1.24998 9.63423 1.24999 11.9426 1.25 Z M 21.2422 14.25 C 21.2498 13.5738 21.25 12.8274 21.25 12 C 21.25 9.62178 21.2484 7.91356 21.0736 6.61358 C 20.9018 5.33517 20.5749 4.56445 20.0052 3.9948 C 19.4355 3.42514 18.6648 3.09825 17.3864 2.92637 C 16.0864 2.75159 14.3782 2.75 12 2.75 C 9.62177 2.75 7.91356 2.75159 6.61358 2.92637 C 5.33517 3.09825 4.56445 3.42514 3.9948 3.9948 C 3.42514 4.56445 3.09825 5.33517 2.92637 6.61358 C 2.75159 7.91356 2.75 9.62178 2.75 12 C 2.75 12.8274 2.75019 13.5738 2.75781 14.25 H 5 L 5.10773 14.2499 C 5.63376 14.2491 6.10075 14.2483 6.52918 14.4319 C 6.9576 14.6155 7.27913 14.9542 7.64131 15.3357 L 7.71552 15.4138 L 8.85712 16.6125 C 8.93865 16.6981 9.00536 16.7681 9.06418 16.8277 C 9.11449 16.7607 9.17125 16.6825 9.24061 16.5867 L 12.8944 11.5435 C 13.0432 11.3379 13.1985 11.1233 13.3518 10.9653 C 13.5272 10.7844 13.7992 10.5708 14.1937 10.5527 C 14.5882 10.5346 14.8787 10.7223 15.0699 10.8863 C 15.2371 11.0297 15.4114 11.229 15.5785 11.4201 L 17.3823 13.4816 C 17.868 14.0368 17.9718 14.1316 18.085 14.183 C 18.1982 14.2343 18.3379 14.25 19.0756 14.25 H 21.2422 Z M 2.79427 15.75 C 2.82018 16.3612 2.86126 16.9021 2.92637 17.3864 C 3.09825 18.6648 3.42514 19.4355 3.9948 20.0052 C 4.56445 20.5749 5.33517 20.9018 6.61358 21.0736 C 7.91356 21.2484 9.62177 21.25 12 21.25 C 14.3782 21.25 16.0864 21.2484 17.3864 21.0736 C 18.6648 20.9018 19.4355 20.5749 20.0052 20.0052 C 20.5749 19.4355 20.9018 18.6648 21.0736 17.3864 C 21.1387 16.9021 21.1798 16.3612 21.2057 15.75 H 19.0756 L 18.9615 15.7501 C 18.4059 15.751 17.9125 15.7519 17.4652 15.5489 C 17.0179 15.346 16.6936 14.9741 16.3285 14.5553 L 16.2534 14.4694 L 14.4761 12.4382 C 14.395 12.3454 14.3284 12.2694 14.2697 12.2046 C 14.2171 12.2746 14.1578 12.3563 14.0855 12.4561 L 10.4324 17.4984 C 10.2894 17.696 10.1391 17.9035 9.99032 18.0574 C 9.8191 18.2345 9.55618 18.4416 9.17422 18.4672 C 8.79226 18.4929 8.50402 18.3227 8.31067 18.1701 C 8.14262 18.0375 7.966 17.8519 7.7979 17.6753 L 6.62931 16.4483 C 6.14838 15.9433 6.04684 15.8572 5.9383 15.8106 C 5.82976 15.7641 5.69734 15.75 5 15.75 H 2.79427 Z" fill="#FFFFFF" />
</svg>