<svg xmlns="http://www.w3.org/2000/svg" width="24" height="24" viewBox="0 0 24 24" fill="none">
  <path fill-rule="nonzero" clip-rule="nonzero" d="M 16.5606 3.46967 C 16.8535 3.17678 17.3283 3.17678 17.6212 3.46967 L 20.5303 6.37876 C 20.8232 6.67165 20.8232 7.14653 20.5303 7.43942 C 20.2374 7.73231 19.7626 7.73231 19.4697 7.43942 L 18.5455 6.51521 L 17.4243 7.63636 L 18.2877 8.49973 C 18.6475 8.85959 18.9471 9.15914 19.1736 9.42281 C 19.4095 9.69728 19.6068 9.97792 19.7287 10.3127 C 19.9544 10.9328 19.9544 11.6126 19.7287 12.2328 C 19.6068 12.5675 19.4095 12.8482 19.1736 13.1226 C 18.9471 13.3863 18.6475 13.6859 18.2877 14.0457 L 17.6219 14.7115 C 17.6217 14.7117 17.6221 14.7113 17.6219 14.7115 C 17.6217 14.7117 17.6208 14.7126 17.6206 14.7128 L 15.4403 16.8931 C 15.44 16.8934 15.4397 16.8937 15.4394 16.894 C 15.4391 16.8942 15.4389 16.8945 15.4386 16.8948 L 13.9849 18.3485 C 13.94 18.3934 13.8946 18.4374 13.8487 18.4805 C 13.8343 18.4976 13.8191 18.5142 13.8031 18.5303 C 13.769 18.5644 13.7324 18.5945 13.694 18.6207 C 11.5677 20.4809 8.42346 20.5558 6.21525 18.8454 L 4.53033 20.5303 C 4.23744 20.8232 3.76256 20.8232 3.46967 20.5303 C 3.17678 20.2374 3.17678 19.7626 3.46967 19.4697 L 5.15459 17.7847 C 3.36431 15.4735 3.52995 12.1367 5.65149 10.0151 L 9.95429 5.71232 C 10.3141 5.35245 10.6137 5.0529 10.8774 4.82636 C 11.1518 4.59053 11.4325 4.39317 11.7672 4.27134 C 12.3874 4.04562 13.0672 4.04562 13.6873 4.27134 C 14.0221 4.39317 14.3027 4.59053 14.5772 4.82636 C 14.8409 5.05291 15.1404 5.35247 15.5003 5.71235 L 16.3636 6.5757 L 17.4848 5.45455 L 16.5606 4.53033 C 16.2677 4.23744 16.2677 3.76256 16.5606 3.46967 Z M 14.4596 6.79296 C 14.0746 6.40802 13.8151 6.1492 13.5997 5.96408 C 13.3901 5.78407 13.2681 5.71501 13.1743 5.68088 C 12.8855 5.57578 12.569 5.57578 12.2802 5.68088 C 12.1864 5.71501 12.0644 5.78407 11.8549 5.96408 C 11.6394 6.1492 11.3799 6.40802 10.995 6.79296 L 10.8788 6.90909 L 17.0909 13.1212 L 17.207 13.005 C 17.592 12.6201 17.8508 12.3606 18.0359 12.1451 C 18.2159 11.9356 18.285 11.8136 18.3191 11.7198 C 18.4242 11.431 18.4242 11.1145 18.3191 10.8257 C 18.285 10.7319 18.2159 10.6099 18.0359 10.4003 C 17.8508 10.1849 17.592 9.92536 17.207 9.54043 L 14.4596 6.79296 Z M 16.0302 14.1818 L 9.81818 7.96975 L 6.71215 11.0758 C 4.99673 12.7912 4.99673 15.5724 6.71215 17.2879 C 8.18252 18.7582 10.436 18.9683 12.13 17.918 L 11.0965 16.8844 C 10.8036 16.5915 10.8036 16.1166 11.0965 15.8237 C 11.3894 15.5308 11.8642 15.5308 12.1571 15.8237 L 13.2727 16.9393 L 13.8484 16.3636 L 11.4934 14.0086 C 11.2005 13.7157 11.2005 13.2408 11.4934 12.9479 C 11.7863 12.655 12.2612 12.655 12.5541 12.9479 L 14.9091 15.303 L 16.0302 14.1818 Z" fill="#FFFFFF" />
</svg>