<svg xmlns="http://www.w3.org/2000/svg" width="24" height="24" viewBox="0 0 24 24" fill="none">
  <path fill-rule="nonzero" clip-rule="nonzero" d="M 13.6523 2.4685 C 13.9459 2.17625 14.4208 2.1773 14.713 2.47084 L 21.5315 9.31951 C 21.8237 9.61305 21.8227 10.0879 21.5292 10.3802 C 21.2356 10.6724 20.7607 10.6714 20.4685 10.3778 L 20.2387 10.147 L 10.0199 20.411 C 8.24241 22.1963 5.35919 22.1963 3.58173 20.411 C 1.80609 18.6275 1.80609 15.7372 3.58173 13.9538 L 6.26423 11.2594 C 6.26735 11.2562 6.27051 11.253 6.2737 11.2499 L 13.8052 3.68504 L 13.65 3.52916 C 13.3578 3.23562 13.3588 2.76075 13.6523 2.4685 Z M 14.8635 4.74805 L 8.41892 11.2212 C 9.6666 11.4744 10.6219 12.51 10.7641 13.7955 C 10.822 14.318 11.154 14.7673 11.6312 14.9744 L 12.8232 15.4692 L 19.1803 9.08398 L 14.8635 4.74805 Z M 11.6791 16.6184 L 11.0421 16.354 C 10.0649 15.9333 9.39027 15.0183 9.27324 13.9604 C 9.19793 13.2796 8.66373 12.746 7.99183 12.671 L 7.0771 12.5689 L 4.64473 15.0121 C 3.45176 16.2103 3.45176 18.1544 4.64473 19.3527 C 5.83588 20.5491 7.76573 20.5491 8.95688 19.3527 L 11.6791 16.6184 Z" fill="#FFFFFF" />
</svg>