<svg xmlns="http://www.w3.org/2000/svg" width="24" height="24" viewBox="0 0 24 24" fill="none">
  <path fill-rule="nonzero" clip-rule="nonzero" d="M9.29466 1.35449 L10.1264 1.84616 L18.5338 6.66999 L19.3743 7.15386 C19.7333 7.36051 19.8568 7.81904 19.6502 8.17803 C19.4435 8.53701 18.985 8.66051 18.626 8.45386 L18.4336 8.34312 L11.7049 19.9574 C10.1571 22.629 6.73138 23.5424 4.05322 22.0015 C1.37356 20.4597 0.453446 17.0428 2.00214 14.3696 L8.72725 2.76156 L8.53133 2.64574 C8.17476 2.43495 8.05658 1.97502 8.26737 1.61845 C8.47816 1.26188 8.93809 1.14371 9.29466 1.35449 Z M3.30005 15.1216 C2.16876 17.0743 2.83907 19.5724 4.80128 20.7014 C6.76501 21.8312 9.27483 21.1597 10.407 19.2054 L11.5252 17.2754 L9.56452 16.1473 C9.20549 15.9407 9.0819 15.4822 9.28847 15.1232 C9.49504 14.7641 9.95355 14.6406 10.3126 14.8471 L12.2771 15.9774 L13.1627 14.4488 L9.61182 12.4058 C9.25279 12.1992 9.1292 11.7407 9.33577 11.3817 C9.54234 11.0226 10.0008 10.899 10.3599 11.1056 L13.9147 13.1509 L14.8762 11.4913 L12.9701 10.3947 C12.6111 10.1881 12.4875 9.72963 12.6941 9.3706 C12.9007 9.01157 13.3592 8.88798 13.7182 9.09455 L15.6281 10.1934 L17.1331 7.59571 L10.0234 3.51648 L3.30005 15.1216 Z" fill="#FFFFFF" />
  <path fill-rule="nonzero" clip-rule="nonzero" d="M21.1754 12.1016 C21.483 12.4261 21.8583 12.8568 22.1613 13.3159 C22.4458 13.7467 22.7502 14.3243 22.7502 14.9167 C22.7502 16.4524 21.5475 17.75 20.0002 17.75 C18.4528 17.75 17.2502 16.4524 17.2502 14.9167 C17.2502 14.3243 17.5546 13.7467 17.839 13.3159 C18.1421 12.8568 18.5174 12.4261 18.8249 12.1016 C19.4677 11.4233 20.5326 11.4233 21.1754 12.1016 Z M19.9136 13.1334 C19.6351 13.4273 19.3258 13.7863 19.0908 14.1422 C18.8373 14.5264 18.7502 14.7892 18.7502 14.9167 C18.7502 15.6822 19.3384 16.25 20.0002 16.25 C20.662 16.25 21.2502 15.6822 21.2502 14.9167 C21.2502 14.7892 21.1631 14.5264 20.9095 14.1422 C20.6745 13.7863 20.3653 13.4273 20.0867 13.1334 C20.0574 13.1025 20.0267 13.0929 20.0002 13.0929 C19.9736 13.0929 19.9429 13.1025 19.9136 13.1334 Z" fill="#FFFFFF" />
</svg>