<svg xmlns="http://www.w3.org/2000/svg" width="24" height="24" viewBox="0 0 24 24" fill="none">
  <path d="M16.0303 9.03033C16.3232 8.73744 16.3232 8.26256 16.0303 7.96967C15.7374 7.67678 15.2626 7.67678 14.9697 7.96967L8.46967 14.4697C8.17678 14.7626 8.17678 15.2374 8.46967 15.5303C8.76256 15.8232 9.23744 15.8232 9.53033 15.5303L16.0303 9.03033Z" fill="#FFFFFF" />
  <path fill-rule="nonzero" clip-rule="nonzero" d="M20.3505 3.64948 C22.2165 5.51545 22.2165 8.54078 20.3505 10.4068 L11.4082 19.3491 C10.5981 20.1592 9.46375 20.5571 8.32517 20.4306 L7.52604 20.3418 C7.14438 20.2994 6.76415 20.4327 6.49262 20.7043 L6.10899 21.0879 C5.22619 21.9707 3.79489 21.9707 2.9121 21.0879 C2.0293 20.2051 2.0293 18.7738 2.9121 17.891 L3.29573 17.5074 C3.56726 17.2359 3.70064 16.8556 3.65823 16.474 L3.56944 15.6748 C3.44293 14.5362 3.84084 13.4019 4.6509 12.5918 L13.5932 3.64948 C15.4592 1.78351 18.4846 1.78351 20.3505 3.64948 Z M 11.2171 15.8784 L 11.9873 16.6486 L 14.136 14.5 L 13.3657 13.7298 C 13.0728 13.4369 13.0728 12.962 13.3657 12.6691 C 13.6586 12.3762 14.1335 12.3762 14.4264 12.6691 L 15.1966 13.4393 L 17.3354 11.3006 L 16.5651 10.5303 C 16.2722 10.2374 16.2722 9.76256 16.5651 9.46967 C 16.858 9.17678 17.3329 9.17678 17.6258 9.46967 L 18.396 10.2399 L 19.2899 9.34609 C 20.57 8.06591 20.57 5.99032 19.2899 4.71014 C 18.0097 3.42995 15.9341 3.42995 14.6539 4.71014 L 5.71156 13.6525 C 5.22371 14.1403 4.98408 14.8235 5.06026 15.5092 L 5.14906 16.3083 C 5.24178 17.1429 4.95013 17.9743 4.35639 18.568 L 3.97276 18.9517 C 3.67575 19.2487 3.67575 19.7302 3.97276 20.0272 C 4.26977 20.3243 4.75132 20.3243 5.04833 20.0272 L 5.43196 19.6436 C 6.0257 19.0499 6.85714 18.7582 7.69168 18.8509 L 8.49081 18.9397 C 9.17651 19.0159 9.85967 18.7763 10.3475 18.2884 L 10.9267 17.7093 L 10.1564 16.939 C 9.86355 16.6461 9.86355 16.1713 10.1564 15.8784 C 10.4493 15.5855 10.9242 15.5855 11.2171 15.8784 Z" fill="#FFFFFF" />
</svg>