<svg xmlns="http://www.w3.org/2000/svg" width="24" height="24" viewBox="0 0 24 24" fill="none">
  <path fill-rule="nonzero" clip-rule="nonzero" d="M 5.96229 20.1739 L 5.57866 20.5576 C 4.98875 21.1475 4.03233 21.1475 3.44243 20.5576 C 2.85252 19.9677 2.85252 19.0112 3.44243 18.4213 L 3.82606 18.0377 C 4.25869 17.6051 4.47121 16.9992 4.40364 16.3911 L 4.31485 15.592 C 4.2135 14.6799 4.53228 13.7711 5.18123 13.1222 L 14.1236 4.17981 C 15.6967 2.60673 18.2471 2.60673 19.8202 4.17981 C 21.3933 5.75288 21.3933 8.30334 19.8202 9.87642 L 18.9265 10.7701 L 17.626 9.46967 C 17.3331 9.17678 16.8583 9.17678 16.5654 9.46967 C 16.2725 9.76256 16.2725 10.2374 16.5654 10.5303 L 17.8658 11.8308 L 15.7271 13.9696 L 14.4266 12.6691 C 14.1337 12.3762 13.6588 12.3762 13.3659 12.6691 C 13.0731 12.962 13.0731 13.4369 13.3659 13.7298 L 14.6664 15.0302 L 12.5178 17.1788 L 11.2173 15.8784 C 10.9244 15.5855 10.4496 15.5855 10.1567 15.8784 C 9.86379 16.1713 9.86379 16.6461 10.1567 16.939 L 11.4571 18.2395 L 10.8778 18.8188 C 10.2289 19.4677 9.32013 19.7865 8.40799 19.6851 L 7.60886 19.5964 C 7.00076 19.5288 6.39492 19.7413 5.96229 20.1739 Z M 16.0303 9.03033 C 16.3232 8.73744 16.3232 8.26256 16.0303 7.96967 C 15.7374 7.67678 15.2626 7.67678 14.9697 7.96967 L 8.46967 14.4697 C 8.17678 14.7626 8.17678 15.2374 8.46967 15.5303 C 8.76256 15.8232 9.23744 15.8232 9.53033 15.5303 L 16.0303 9.03033 Z" fill="#FFFFFF" />
</svg>