<svg xmlns="http://www.w3.org/2000/svg" width="24" height="24" viewBox="0 0 24 24" fill="none">
  <path fill-rule="nonzero" clip-rule="nonzero" d="M 20 5.5 C 20 6.32843 19.3284 7 18.5 7 C 18.3656 7 18.2354 6.98233 18.1115 6.94919 L 17.4803 7.58036 C 17.4574 7.60324 17.4334 7.62433 17.4085 7.64363 C 18.0785 8.46863 18.5683 9.44497 18.8165 10.5111 C 18.8766 10.5038 18.9379 10.5 19 10.5 C 19.8284 10.5 20.5 11.1716 20.5 12 C 20.5 12.8284 19.8284 13.5 19 13.5 H 18.8622 C 18.5921 14.8364 17.9434 16.0239 17.0246 16.9541 L 18.1613 18.1006 C 18.2852 18.0675 18.4154 18.0498 18.5498 18.0498 C 19.3782 18.0498 20.0498 18.7214 20.0498 19.5498 C 20.0498 20.3782 19.3782 21.0498 18.5498 21.0498 C 17.7214 21.0498 17.0498 20.3782 17.0498 19.5498 C 17.0498 19.4154 17.0675 19.2852 17.1006 19.1613 L 15.9697 18.0303 C 15.9291 17.9897 15.8941 17.9456 15.8647 17.899 C 15.3931 18.2042 14.8813 18.4532 14.3385 18.6367 L 14.1218 19.2499 C 13.8133 20.1228 12.9809 20.75 12 20.75 C 11.0191 20.75 10.1867 20.1228 9.87819 19.2499 L 9.63079 18.5498 C 9.1359 18.3638 8.66673 18.1241 8.23048 17.8377 L 6.854 19.2485 C 6.94815 19.4805 7 19.7342 7 20 C 7 21.1046 6.10457 22 5 22 C 3.89543 22 3 21.1046 3 20 C 3 18.8954 3.89543 18 5 18 C 5.28826 18 5.56227 18.061 5.80984 18.1707 L 7.06509 16.8842 C 6.2668 16.078 5.65852 15.0833 5.31531 13.9753 C 5.2126 13.9916 5.10729 14 5 14 C 3.89543 14 3 13.1046 3 12 C 3 10.8954 3.89543 10 5 10 C 5.08605 10 5.17084 10.0054 5.25403 10.016 C 5.5065 9.11028 5.93829 8.28148 6.50921 7.56976 L 5.78115 6.8417 C 5.54117 6.94362 5.27717 7 5 7 C 3.89543 7 3 6.10457 3 5 C 3 3.89543 3.89543 3 5 3 C 6.10457 3 7 3.89543 7 5 C 7 5.27711 6.94364 5.54105 6.84177 5.781 L 7.56989 6.50911 C 8.59406 5.68758 9.86066 5.15417 11.25 5.02858 V 4.79933 C 10.8016 4.53997 10.5 4.05521 10.5 3.5 C 10.5 2.67157 11.1716 2 12 2 C 12.8284 2 13.5 2.67157 13.5 3.5 C 13.5 4.05521 13.1984 4.53997 12.75 4.79933 V 5.05265 C 14.1042 5.2187 15.3442 5.76953 16.3564 6.59149 C 16.3757 6.56656 16.3968 6.54258 16.4196 6.5197 L 17.0508 5.88853 C 17.0177 5.76461 17 5.63437 17 5.5 C 17 4.67157 17.6716 4 18.5 4 C 19.3284 4 20 4.67157 20 5.5 Z M11.75 13 C11.75 14.5188 12.9812 15.75 14.5 15.75 C16.0188 15.75 17.25 14.5188 17.25 13 C17.25 11.4812 16.0188 10.25 14.5 10.25 C12.9812 10.25 11.75 11.4812 11.75 13 Z M 10.5 10 C 11.3284 10 12 9.32843 12 8.5 C 12 8.44198 11.9967 8.38474 11.9903 8.32844 C 11.9354 7.84594 11.6515 7.43293 11.25 7.20067 C 11.0294 7.07305 10.7732 7 10.5 7 C 9.67157 7 9 7.67157 9 8.5 C 9 9.32843 9.67157 10 10.5 10 Z M 9 14 C 9.55228 14 10 13.5523 10 13 C 10 12.4477 9.55228 12 9 12 C 8.44772 12 8 12.4477 8 13 C 8 13.5523 8.44772 14 9 14 Z" fill="#FFFFFF" />
  <path d="M13.25 13C13.25 12.3096 13.8096 11.75 14.5 11.75C15.1904 11.75 15.75 12.3096 15.75 13C15.75 13.6904 15.1904 14.25 14.5 14.25C13.8096 14.25 13.25 13.6904 13.25 13Z" fill="#FFFFFF" />
</svg>