<svg xmlns="http://www.w3.org/2000/svg" width="24" height="24" viewBox="0 0 24 24" fill="none">
  <path fill-rule="nonzero" clip-rule="nonzero" d="M14.5 10.25 C16.0188 10.25 17.25 11.4812 17.25 13 C17.25 14.5188 16.0188 15.75 14.5 15.75 C12.9812 15.75 11.75 14.5188 11.75 13 C11.75 11.4812 12.9812 10.25 14.5 10.25 Z M13.25 13 C13.25 13.6904 13.8096 14.25 14.5 14.25 C15.1904 14.25 15.75 13.6904 15.75 13 C15.75 12.3096 15.1904 11.75 14.5 11.75 C13.8096 11.75 13.25 12.3096 13.25 13 Z" fill="#FFFFFF" />
  <path fill-rule="nonzero" clip-rule="nonzero" d="M 8.25 9 C 8.25 8.0335 9.0335 7.25 10 7.25 C 10.9665 7.25 11.75 8.0335 11.75 9 C 11.75 9.9665 10.9665 10.75 10 10.75 C 9.0335 10.75 8.25 9.9665 8.25 9 Z M 10 8.75 C 9.86193 8.75 9.75 8.86193 9.75 9 C 9.75 9.13807 9.86193 9.25 10 9.25 C 10.1381 9.25 10.25 9.13807 10.25 9 C 10.25 8.86193 10.1381 8.75 10 8.75 Z" fill="#FFFFFF" />
  <path d="M9 14C9.55229 14 10 13.5523 10 13C10 12.4477 9.55229 12 9 12C8.44772 12 8 12.4477 8 13C8 13.5523 8.44772 14 9 14Z" fill="#FFFFFF" />
  <path fill-rule="nonzero" clip-rule="nonzero" d="M 3.5 1.25 C 4.74264 1.25 5.75 2.25736 5.75 3.5 C 5.75 3.84736 5.67129 4.17634 5.53072 4.47006 L 7.03661 5.97595 C 7.88268 5.28203 8.88193 4.76716 9.97787 4.48781 C 9.83192 4.18961 9.75 3.85437 9.75 3.5 C 9.75 2.25736 10.7574 1.25 12 1.25 C 13.2426 1.25 14.25 2.25736 14.25 3.5 C 14.25 3.87494 14.1583 4.22847 13.9961 4.53936 C 15.0674 4.83977 16.0481 5.36276 16.8846 6.05471 L 17.4693 5.47006 C 17.3287 5.17633 17.25 4.84736 17.25 4.5 C 17.25 3.25736 18.2574 2.25 19.5 2.25 C 20.7426 2.25 21.75 3.25736 21.75 4.5 C 21.75 5.74264 20.7426 6.75 19.5 6.75 C 19.1526 6.75 18.8237 6.67129 18.5299 6.53072 L 17.9453 7.11537 C 18.5828 7.88608 19.0769 8.77922 19.3857 9.75287 C 19.4236 9.75097 19.4617 9.75 19.5 9.75 C 20.7426 9.75 21.75 10.7574 21.75 12 C 21.75 13.2426 20.7426 14.25 19.5 14.25 C 19.4835 14.25 19.467 14.2498 19.4505 14.2495 C 19.093 15.49 18.4312 16.5984 17.5501 17.4894 L 17.5797 17.5191 C 17.8735 17.3785 18.2024 17.2998 18.5498 17.2998 C 19.7924 17.2998 20.7998 18.3072 20.7998 19.5498 C 20.7998 20.7924 19.7924 21.7998 18.5498 21.7998 C 17.3072 21.7998 16.2998 20.7924 16.2998 19.5498 C 16.2998 19.2024 16.3785 18.8735 16.5191 18.5797 L 16.3902 18.4508 C 15.6741 18.9335 14.8709 19.2976 14.0079 19.5158 C 13.6371 20.2474 12.878 20.7501 11.9999 20.7501 C 11.0949 20.7501 10.3162 20.2161 9.95889 19.4479 C 9.14326 19.2139 8.38084 18.8507 7.69547 18.3821 C 7.66414 18.4349 7.62577 18.4847 7.58036 18.5301 L 6.54661 19.5639 C 6.6772 19.8489 6.75 20.166 6.75 20.5 C 6.75 21.7426 5.74264 22.75 4.5 22.75 C 3.25736 22.75 2.25 21.7426 2.25 20.5 C 2.25 19.2574 3.25736 18.25 4.5 18.25 C 4.86061 18.25 5.2014 18.3348 5.50351 18.4856 L 6.5197 17.4694 C 6.53143 17.4577 6.54345 17.4465 6.55573 17.4357 C 5.61381 16.4923 4.90853 15.3126 4.53936 13.9961 C 4.22847 14.1583 3.87495 14.25 3.5 14.25 C 2.25736 14.25 1.25 13.2426 1.25 12 C 1.25 10.7574 2.25736 9.75 3.5 9.75 C 3.85437 9.75 4.18961 9.83192 4.48781 9.97787 C 4.76716 8.88193 5.28203 7.88268 5.97595 7.03661 L 4.47006 5.53072 C 4.17634 5.67129 3.84736 5.75 3.5 5.75 C 2.25736 5.75 1.25 4.74264 1.25 3.5 C 1.25 2.25736 2.25736 1.25 3.5 1.25 Z M 4.25 3.5 C 4.25 3.08579 3.91421 2.75 3.5 2.75 C 3.08579 2.75 2.75 3.08579 2.75 3.5 C 2.75 3.91421 3.08579 4.25 3.5 4.25 C 3.91421 4.25 4.25 3.91421 4.25 3.5 Z M 12.114 18.25 C 15.5198 18.25 18.25 15.5198 18.25 12.114 L 18.2498 12.0625 C 18.2219 8.60615 15.3938 5.7781 11.9375 5.75021 C 8.49053 5.72239 5.72239 8.49053 5.75021 11.9375 C 5.7781 15.3938 8.60615 18.2219 12.0625 18.2498 C 12.0797 18.2499 12.0969 18.25 12.114 18.25 Z M19.75 11.2927 L19.75 12.7073 C20.0413 12.6044 20.25 12.3266 20.25 12 C20.25 11.6734 20.0413 11.3956 19.75 11.2927 Z M 19.5 3.75 C 19.0858 3.75 18.75 4.08579 18.75 4.5 C 18.75 4.91421 19.0858 5.25 19.5 5.25 C 19.9142 5.25 20.25 4.91421 20.25 4.5 C 20.25 4.08579 19.9142 3.75 19.5 3.75 Z M3.5 11.25 C3.08579 11.25 2.75 11.5858 2.75 12 C2.75 12.4142 3.08579 12.75 3.5 12.75 C3.91421 12.75 4.25 12.4142 4.25 12 C4.25 11.5858 3.91421 11.25 3.5 11.25 Z M 17.7998 19.5498 C 17.7998 19.964 18.1356 20.2998 18.5498 20.2998 C 18.964 20.2998 19.2998 19.964 19.2998 19.5498 C 19.2998 19.1356 18.964 18.7998 18.5498 18.7998 C 18.1356 18.7998 17.7998 19.1356 17.7998 19.5498 Z M 4.5 21.25 C 4.91421 21.25 5.25 20.9142 5.25 20.5 C 5.25 20.0858 4.91421 19.75 4.5 19.75 C 4.08579 19.75 3.75 20.0858 3.75 20.5 C 3.75 20.9142 4.08579 21.25 4.5 21.25 Z M11.25 3.5 C11.25 3.91421 11.5858 4.25 12 4.25 C12.4142 4.25 12.75 3.91421 12.75 3.5 C12.75 3.08579 12.4142 2.75 12 2.75 C11.5858 2.75 11.25 3.08579 11.25 3.5 Z" fill="#FFFFFF" />
</svg>