<svg xmlns="http://www.w3.org/2000/svg" width="24" height="24" viewBox="0 0 24 24" fill="none">
  <path fill-rule="nonzero" clip-rule="nonzero" d="M10.422 3.1787 C10.9292 3.06186 11.4574 3.00012 12 3.00012 C12.5426 3.00012 13.0708 3.06186 13.578 3.1787 L16.6141 1.35699 C16.9693 1.14388 17.43 1.25906 17.6431 1.61424 C17.8562 1.96943 17.7411 2.43012 17.3859 2.64323 L15.3609 3.85823 C16.6671 4.57449 17.7199 5.6953 18.3508 7.05202 L20.2213 6.30376 C20.6059 6.14992 21.0424 6.33697 21.1962 6.72156 C21.3501 7.10614 21.163 7.54262 20.7784 7.69647 L18.8333 8.47457 C18.9424 8.96565 19 9.47616 19 10.0001 L19 12.2501 L22 12.2501 C22.4142 12.2501 22.75 12.5859 22.75 13.0001 C22.75 13.4143 22.4142 13.7501 22 13.7501 L19 13.7501 L19 15.0001 C19 15.8509 18.8482 16.6663 18.5702 17.4206 L20.7785 18.304 C21.1631 18.4578 21.3502 18.8943 21.1964 19.2789 C21.0425 19.6634 20.606 19.8505 20.2215 19.6967 L17.9003 18.7682 C16.6565 20.7118 14.4787 22.0001 12 22.0001 C9.52129 22.0001 7.34348 20.7118 6.09969 18.7682 L3.77854 19.6967 C3.39396 19.8505 2.95748 19.6634 2.80364 19.2789 C2.64981 18.8943 2.83687 18.4578 3.22146 18.304 L5.42978 17.4206 C5.15179 16.6663 5 15.8509 5 15.0001 L5 13.7501 L2 13.7501 C1.58579 13.7501 1.25 13.4143 1.25 13.0001 C1.25 12.5859 1.58579 12.2501 2 12.2501 L5 12.2501 L5 10.0001 C5 9.47615 5.05757 8.96563 5.16673 8.47453 L3.22158 7.69647 C2.83699 7.54264 2.64993 7.10616 2.80376 6.72157 C2.9576 6.33698 3.39408 6.14992 3.77867 6.30376 L5.64925 7.05199 C6.28013 5.69528 7.33296 4.57449 8.63912 3.85823 L6.61413 2.64323 C6.25894 2.43012 6.14377 1.96943 6.35688 1.61424 C6.56999 1.25906 7.03069 1.14388 7.38587 1.35699 L10.422 3.1787 Z M 10.5 9.75012 C 10.0858 9.75012 9.75 10.0859 9.75 10.5001 C 9.75 10.9143 10.0858 11.2501 10.5 11.2501 H 13.5 C 13.9142 11.2501 14.25 10.9143 14.25 10.5001 C 14.25 10.0859 13.9142 9.75012 13.5 9.75012 H 10.5 Z M9.75 15.5001 C9.75 15.9143 10.0858 16.2501 10.5 16.2501 L13.5 16.2501 C13.9142 16.2501 14.25 15.9143 14.25 15.5001 C14.25 15.0859 13.9142 14.7501 13.5 14.7501 L10.5 14.7501 C10.0858 14.7501 9.75 15.0859 9.75 15.5001 Z" fill="#FFFFFF" />
</svg>