<svg xmlns="http://www.w3.org/2000/svg" width="24" height="24" viewBox="0 0 24 24" fill="none">
  <path d="M9.75 10.5001C9.75 10.0859 10.0858 9.75011 10.5 9.75011H13.5C13.9142 9.75011 14.25 10.0859 14.25 10.5001C14.25 10.9143 13.9142 11.2501 13.5 11.2501H10.5C10.0858 11.2501 9.75 10.9143 9.75 10.5001Z" fill="#FFFFFF" />
  <path d="M10.5 14.7501C10.0858 14.7501 9.75 15.0859 9.75 15.5001C9.75 15.9143 10.0858 16.2501 10.5 16.2501H13.5C13.9142 16.2501 14.25 15.9143 14.25 15.5001C14.25 15.0859 13.9142 14.7501 13.5 14.7501H10.5Z" fill="#FFFFFF" />
  <path fill-rule="nonzero" clip-rule="nonzero" d="M 17.6431 1.61424 C 17.8562 1.96943 17.7411 2.43012 17.3859 2.64323 L 16.0939 3.41842 C 17.3788 4.21936 18.4122 5.38612 19.0482 6.773 L 20.2213 6.30376 C 20.6059 6.14992 21.0424 6.33698 21.1962 6.72157 C 21.3501 7.10616 21.163 7.54264 20.7784 7.69647 L 19.5381 8.1926 C 19.6766 8.77252 19.75 9.37775 19.75 10.0001 V 12.2501 H 22 C 22.4142 12.2501 22.75 12.5859 22.75 13.0001 C 22.75 13.4143 22.4142 13.7501 22 13.7501 H 19.75 V 15.0001 C 19.75 15.9494 19.5793 16.8588 19.267 17.6993 L 20.7785 18.304 C 21.1631 18.4578 21.3502 18.8943 21.1964 19.2789 C 21.0425 19.6634 20.606 19.8505 20.2215 19.6967 L 18.6081 19.0513 C 17.2448 21.2703 14.7952 22.7501 12 22.7501 C 9.20476 22.7501 6.75516 21.2703 5.39189 19.0513 L 3.77854 19.6967 C 3.39396 19.8505 2.95748 19.6634 2.80364 19.2789 C 2.64981 18.8943 2.83687 18.4578 3.22146 18.304 L 4.733 17.6993 C 4.42067 16.8588 4.25 15.9494 4.25 15.0001 V 13.7501 H 2 C 1.58579 13.7501 1.25 13.4143 1.25 13.0001 C 1.25 12.5859 1.58579 12.2501 2 12.2501 H 4.25 V 10.0001 C 4.25 9.37775 4.32336 8.77252 4.46191 8.1926 L 3.22158 7.69647 C 2.83699 7.54264 2.64993 7.10616 2.80376 6.72157 C 2.9576 6.33698 3.39408 6.14992 3.77867 6.30376 L 4.95178 6.773 C 5.58782 5.38612 6.62116 4.21936 7.9061 3.41842 L 6.61413 2.64323 C 6.25894 2.43012 6.14377 1.96943 6.35688 1.61424 C 6.56999 1.25906 7.03069 1.14388 7.38587 1.35699 L 9.53916 2.64897 C 10.3123 2.39026 11.1398 2.25011 12 2.25011 C 12.8602 2.25011 13.6877 2.39026 14.4608 2.64897 L 16.6141 1.35699 C 16.9693 1.14388 17.43 1.25906 17.6431 1.61424 Z M9.5502 4.2485 C7.31604 5.20132 5.75 7.41783 5.75 10.0001 L5.75 15.0001 C5.75 18.4519 8.54822 21.2501 12 21.2501 C15.4518 21.2501 18.25 18.4519 18.25 15.0001 L18.25 10.0001 C18.25 7.41783 16.684 5.20132 14.4498 4.2485 C14.3 4.23832 14.1548 4.18339 14.0352 4.08894 C13.3972 3.86934 12.7125 3.75011 12 3.75011 C11.2875 3.75011 10.6028 3.86935 9.96484 4.08895 C9.84516 4.18339 9.69997 4.23832 9.5502 4.2485 Z" fill="#FFFFFF" />
</svg>