<svg xmlns="http://www.w3.org/2000/svg" width="24" height="24" viewBox="0 0 24 24" fill="none">
  <path fill-rule="nonzero" clip-rule="nonzero" d="M17.3859 2.64323 L15.6232 3.70081 C16.6255 4.65692 17.25 6.00559 17.25 7.50011 L17.25 7.79077 C17.5066 7.92641 17.7491 8.08518 17.9747 8.2643 C18.0435 8.19683 18.1264 8.14157 18.2215 8.10356 L20.2215 7.30356 C20.606 7.14973 21.0425 7.33679 21.1964 7.72137 C21.3502 8.10596 21.1631 8.54244 20.7785 8.69628 L19.0074 9.40472 C19.4774 10.1351 19.75 11.0045 19.75 11.9376 L19.75 13.2501 L22 13.2501 C22.4142 13.2501 22.75 13.5859 22.75 14.0001 C22.75 14.4143 22.4142 14.7501 22 14.7501 L19.75 14.7501 L19.75 15.0001 C19.75 16.2791 19.4402 17.4858 18.8915 18.5491 L20.7785 19.304 C21.1631 19.4578 21.3502 19.8943 21.1964 20.2789 C21.0425 20.6634 20.606 20.8505 20.2215 20.6967 L18.2215 19.8967 C18.1677 19.8752 18.1177 19.8481 18.0721 19.8164 C16.6524 21.6039 14.46 22.7501 12 22.7501 C9.53996 22.7501 7.34764 21.6039 5.92792 19.8164 C5.88225 19.8481 5.83233 19.8752 5.77854 19.8967 L3.77854 20.6967 C3.39396 20.8505 2.95748 20.6634 2.80364 20.2789 C2.64981 19.8943 2.83687 19.4578 3.22146 19.304 L5.10854 18.5491 C4.55983 17.4858 4.25 16.2791 4.25 15.0001 L4.25 14.7501 L2 14.7501 C1.58579 14.7501 1.25 14.4143 1.25 14.0001 C1.25 13.5859 1.58579 13.2501 2 13.2501 L4.25 13.2501 L4.25 11.9376 C4.25 11.0045 4.52263 10.1351 4.99257 9.40472 L3.22146 8.69628 C2.83687 8.54244 2.64981 8.10596 2.80364 7.72137 C2.95748 7.33679 3.39396 7.14973 3.77854 7.30356 L5.77854 8.10356 C5.87356 8.14157 5.95652 8.19683 6.02526 8.2643 C6.25088 8.08518 6.49339 7.92641 6.75 7.79077 L6.75 7.50011 C6.75 6.00559 7.37449 4.65692 8.37676 3.70081 L6.61413 2.64323 C6.25894 2.43012 6.14377 1.96943 6.35688 1.61424 C6.56999 1.25906 7.03069 1.14388 7.38587 1.35699 L9.73131 2.76426 C10.418 2.43471 11.1874 2.25011 12 2.25011 C12.8126 2.25011 13.582 2.43471 14.2687 2.76426 L16.6141 1.35699 C16.9693 1.14388 17.43 1.25906 17.6431 1.61424 C17.8562 1.96943 17.7411 2.43012 17.3859 2.64323 Z M5.75 15.0001 C5.75 18.1981 8.15183 20.8351 11.25 21.2056 L11.25 15.0001 C11.25 14.5859 11.5858 14.2501 12 14.2501 C12.4142 14.2501 12.75 14.5859 12.75 15.0001 L12.75 21.2056 C15.8482 20.8351 18.25 18.1981 18.25 15.0001 L18.25 11.9376 C18.25 10.1772 16.8229 8.75011 15.0625 8.75011 L8.9375 8.75011 C7.17709 8.75011 5.75 10.1772 5.75 11.9376 L5.75 15.0001 Z M12 3.75011 C9.99627 3.75011 8.35958 5.32165 8.25528 7.2994 C8.47799 7.26693 8.70578 7.25011 8.9375 7.25011 L15.0625 7.25011 C15.2942 7.25011 15.522 7.26693 15.7447 7.2994 C15.6404 5.32165 14.0037 3.75011 12 3.75011 Z" fill="#FFFFFF" />
</svg>