<svg xmlns="http://www.w3.org/2000/svg" width="24" height="24" viewBox="0 0 24 24" fill="none">
  <path fill-rule="nonzero" clip-rule="nonzero" d="M 22 12 C 22 17.5228 17.5228 22 12 22 C 6.47715 22 2 17.5228 2 12 C 2 6.47715 6.47715 2 12 2 C 17.5228 2 22 6.47715 22 12 Z M13.4881 6.44591 C13.088 6.3387 12.6767 6.57614 12.5695 6.97624 L9.98131 16.6355 C9.8741 17.0356 10.1115 17.4468 10.5116 17.5541 C10.9117 17.6613 11.323 17.4238 11.4302 17.0237 L14.0184 7.36447 C14.1256 6.96437 13.8882 6.55311 13.4881 6.44591 Z M14.9697 8.46967 C14.6768 8.76257 14.6768 9.23744 14.9697 9.53033 L15.1412 9.70191 C15.8229 10.3836 16.2797 10.8426 16.5753 11.2301 C16.8577 11.6002 16.9216 11.8157 16.9216 12 C16.9216 12.1843 16.8577 12.3998 16.5753 12.7699 C16.2797 13.1574 15.8229 13.6164 15.1412 14.2981 L14.9697 14.4697 C14.6768 14.7626 14.6768 15.2374 14.9697 15.5303 C15.2626 15.8232 15.7374 15.8232 16.0303 15.5303 L16.2387 15.322 C16.874 14.6867 17.4038 14.1569 17.7678 13.6798 C18.1521 13.1762 18.4216 12.6441 18.4216 12 C18.4216 11.3559 18.1521 10.8238 17.7678 10.3202 C17.4038 9.84308 16.874 9.3133 16.2387 8.67801 L16.0303 8.46967 C15.7374 8.17678 15.2626 8.17678 14.9697 8.46967 Z M7.96986 8.46967 L7.76151 8.67801 C7.12617 9.31331 6.59638 9.84308 6.23235 10.3202 C5.84811 10.8238 5.57861 11.3559 5.57861 12 C5.57861 12.6441 5.84811 13.1762 6.23235 13.6798 C6.59638 14.1569 7.12617 14.6867 7.76151 15.322 L7.96986 15.5303 C8.26275 15.8232 8.73762 15.8232 9.03052 15.5303 C9.32341 15.2374 9.32341 14.7626 9.03052 14.4697 L8.85894 14.2981 C8.17729 13.6164 7.72052 13.1574 7.42488 12.7699 C7.14245 12.3998 7.07861 12.1843 7.07861 12 C7.07861 11.8157 7.14245 11.6002 7.42488 11.2301 C7.72052 10.8426 8.17729 10.3836 8.85894 9.70191 L9.03052 9.53033 C9.32341 9.23744 9.32341 8.76257 9.03052 8.46967 C8.73762 8.17678 8.26275 8.17678 7.96986 8.46967 Z" fill="#FFFFFF" />
</svg>