<svg xmlns="http://www.w3.org/2000/svg" width="24" height="24" viewBox="0 0 24 24" fill="none">
  <path d="M16 16L19 16.0005C20.6569 16.0002 22.0002 17.3432 22.0005 19C22.0007 20.6569 20.6578 22.0002 19.0009 22.0005C17.3441 22.0007 16.0007 20.6578 16.0005 19.001L16 16Z" fill="#FFFFFF" />
  <path d="M5.00047 16.0005L8.00047 16.001L8 19.001C7.99974 20.6578 6.65638 22.0007 4.99953 22.0005C3.34267 22.0002 1.99974 20.6569 2 19C2.00026 17.3432 3.34362 16.0002 5.00047 16.0005Z" fill="#FFFFFF" />
  <path fill-rule="nonzero" clip-rule="nonzero" d="M 19 8.00049 L 16 8.00002 L 16.0005 5.00002 C 16.0007 3.34316 17.3441 2.00023 19.0009 2.00049 C 20.6578 2.00075 22.0007 3.34411 22.0005 5.00096 C 22.0002 6.65781 20.6569 8.00075 19 8.00049 Z M8.00047 8 L5.00047 8.00049 C3.34362 8.00075 2.00026 6.65781 2 5.00096 C1.99974 3.34411 3.34267 2.00075 4.99953 2.00049 C6.65638 2.00023 7.99974 3.34316 8 5.00002 L8.00047 8 Z" fill="#FFFFFF" />
  <path opacity="0.5" d="M16 8.00002L8.00047 8L8 16H16V8.00002Z" fill="#FFFFFF" />
</svg>