<svg xmlns="http://www.w3.org/2000/svg" width="24" height="24" viewBox="0 0 24 24" fill="none">
  <path fill-rule="nonzero" clip-rule="nonzero" d="M 15.2505 4.9999 C 15.2508 2.92883 16.93 1.25016 19.0011 1.25049 C 21.0721 1.25081 22.7508 2.93001 22.7505 5.00108 C 22.7501 7.07215 21.0709 8.75081 18.9999 8.75049 L 16.75 8.75013 V 15.2508 L 18.9999 15.2505 C 21.0709 15.2502 22.7501 16.9288 22.7505 18.9999 C 22.7508 21.071 21.0721 22.7502 19.0011 22.7505 C 16.93 22.7508 15.2508 21.0721 15.2505 19.0011 L 15.2501 16.75 H 8.75084 L 8.75049 19.0011 C 8.75016 21.0721 7.07097 22.7508 4.9999 22.7505 C 2.92883 22.7502 1.25016 21.071 1.25049 18.9999 C 1.25081 16.9288 2.93001 15.2502 5.00108 15.2505 L 7.25 15.2508 V 8.75013 L 5.00108 8.75049 C 2.93001 8.75081 1.25081 7.07215 1.25049 5.00108 C 1.25016 2.93001 2.92883 1.25081 4.9999 1.25049 C 7.07097 1.25016 8.75016 2.92883 8.75049 4.9999 L 8.75084 7.25 H 15.2501 L 15.2505 4.9999 Z M 7.25084 7.25 L 7.25049 5.00013 C 7.25029 3.75749 6.24277 2.75029 5.00013 2.75049 C 3.75749 2.75068 2.75029 3.7582 2.75049 5.00084 C 2.75068 6.24348 3.7582 7.25068 5.00084 7.25049 L 7.25084 7.25 Z M 19.0008 2.75049 C 17.7582 2.75029 16.7507 3.75749 16.7505 5.00013 L 16.7501 7.25013 L 19.0001 7.25049 C 20.2428 7.25068 21.2503 6.24348 21.2505 5.00084 C 21.2507 3.7582 20.2435 2.75068 19.0008 2.75049 Z M 8.75 8.75 V 15.25 H 15.25 V 8.75 H 8.75 Z M 21.2505 19.0001 C 21.2503 17.7575 20.2428 16.7503 19.0001 16.7505 L 16.7501 16.7508 L 16.7505 19.0008 C 16.7507 20.2435 17.7582 21.2507 19.0008 21.2505 C 20.2435 21.2503 21.2507 20.2428 21.2505 19.0001 Z M2.75049 19.0001 C2.75029 20.2428 3.75749 21.2503 5.00013 21.2505 C6.24277 21.2507 7.25029 20.2435 7.25049 19.0008 L7.25084 16.7508 L5.00084 16.7505 C3.7582 16.7503 2.75068 17.7575 2.75049 19.0001 Z" fill="#FFFFFF" />
</svg>