<svg xmlns="http://www.w3.org/2000/svg" width="24" height="24" viewBox="0 0 24 24" fill="none">
  <path opacity="0.5" d="M2 12C2 7.28595 2 4.92893 3.46447 3.46447C4.92893 2 7.28595 2 12 2C16.714 2 19.0711 2 20.5355 3.46447C22 4.92893 22 7.28595 22 12C22 16.714 22 19.0711 20.5355 20.5355C19.0711 22 16.714 22 12 22C7.28595 22 4.92893 22 3.46447 20.5355C2 19.0711 2 16.714 2 12Z" fill="#FFFFFF" />
  <path fill-rule="nonzero" clip-rule="nonzero" d="M11.7184 7.21546 L11.108 9.24995 L14.542 9.24995 L15.2816 6.78444 C15.4007 6.3877 15.8188 6.16256 16.2155 6.28158 C16.6123 6.40061 16.8374 6.81872 16.7184 7.21546 L16.108 9.24995 L18 9.24995 C18.4142 9.24995 18.75 9.58574 18.75 9.99995 C18.75 10.4142 18.4142 10.75 18 10.75 L15.658 10.75 L14.908 13.25 L17 13.25 C17.4142 13.25 17.75 13.5857 17.75 14 C17.75 14.4142 17.4142 14.75 17 14.75 L14.458 14.75 L13.7184 17.2155 C13.5993 17.6122 13.1812 17.8373 12.7845 17.7183 C12.3877 17.5993 12.1626 17.1812 12.2816 16.7844 L12.892 14.75 L9.45802 14.75 L8.71837 17.2155 C8.59935 17.6122 8.18123 17.8373 7.78449 17.7183 C7.38774 17.5993 7.16261 17.1812 7.28163 16.7844 L7.89198 14.75 L6 14.75 C5.58579 14.75 5.25 14.4142 5.25 14 C5.25 13.5857 5.58579 13.25 6 13.25 L8.34198 13.25 L9.09198 10.75 L7 10.75 C6.58579 10.75 6.25 10.4142 6.25 9.99995 C6.25 9.58574 6.58579 9.24995 7 9.24995 L9.54198 9.24995 L10.2816 6.78444 C10.4007 6.3877 10.8188 6.16256 11.2155 6.28158 C11.6123 6.40061 11.8374 6.81872 11.7184 7.21546 Z M14.092 10.75 L10.658 10.75 L9.90802 13.25 L13.342 13.25 L14.092 10.75 Z" fill="#FFFFFF" />
</svg>