<svg xmlns="http://www.w3.org/2000/svg" width="24" height="24" viewBox="0 0 24 24" fill="none">
  <path fill-rule="nonzero" clip-rule="nonzero" d="M 11.2155 6.28163 C 11.6123 6.40065 11.8374 6.81877 11.7184 7.21551 L 11.108 9.25 H 14.542 L 15.2816 6.78449 C 15.4007 6.38774 15.8188 6.16261 16.2155 6.28163 C 16.6123 6.40065 16.8374 6.81877 16.7184 7.21551 L 16.108 9.25 H 18 C 18.4142 9.25 18.75 9.58579 18.75 10 C 18.75 10.4142 18.4142 10.75 18 10.75 H 15.658 L 14.908 13.25 H 17 C 17.4142 13.25 17.75 13.5858 17.75 14 C 17.75 14.4142 17.4142 14.75 17 14.75 H 14.458 L 13.7184 17.2155 C 13.5993 17.6123 13.1812 17.8374 12.7845 17.7184 C 12.3877 17.5993 12.1626 17.1812 12.2816 16.7845 L 12.892 14.75 H 9.45802 L 8.71837 17.2155 C 8.59935 17.6123 8.18123 17.8374 7.78449 17.7184 C 7.38774 17.5993 7.16261 17.1812 7.28163 16.7845 L 7.89198 14.75 H 6 C 5.58579 14.75 5.25 14.4142 5.25 14 C 5.25 13.5858 5.58579 13.25 6 13.25 H 8.34198 L 9.09198 10.75 H 7 C 6.58579 10.75 6.25 10.4142 6.25 10 C 6.25 9.58579 6.58579 9.25 7 9.25 H 9.54198 L 10.2816 6.78449 C 10.4007 6.38774 10.8188 6.16261 11.2155 6.28163 Z M10.658 10.75 L9.90802 13.25 L13.342 13.25 L14.092 10.75 L10.658 10.75 Z" fill="#FFFFFF" />
  <path fill-rule="nonzero" clip-rule="nonzero" d="M12 1.25 C17.9371 1.25 22.75 6.06294 22.75 12 C22.75 17.9371 17.9371 22.75 12 22.75 C6.06294 22.75 1.25 17.9371 1.25 12 C1.25 6.06294 6.06294 1.25 12 1.25 Z M2.75 12 C2.75 17.1086 6.89137 21.25 12 21.25 C17.1086 21.25 21.25 17.1086 21.25 12 C21.25 6.89137 17.1086 2.75 12 2.75 C6.89137 2.75 2.75 6.89137 2.75 12 Z" fill="#FFFFFF" />
</svg>