<svg xmlns="http://www.w3.org/2000/svg" width="24" height="24" viewBox="0 0 24 24" fill="none">
  <path d="M14.092 10.75L13.342 13.25H9.90802L10.658 10.75H14.092Z" fill="#FFFFFF" />
  <path fill-rule="nonzero" clip-rule="nonzero" d="M3.46447 3.46447 C4.92893 2 7.28595 2 12 2 C16.714 2 19.0711 2 20.5355 3.46447 C22 4.92893 22 7.28595 22 12 C22 16.714 22 19.0711 20.5355 20.5355 C19.0711 22 16.714 22 12 22 C7.28595 22 4.92893 22 3.46447 20.5355 C2 19.0711 2 16.714 2 12 C2 7.28595 2 4.92893 3.46447 3.46447 Z M11.2155 6.28164 C10.8188 6.16262 10.4007 6.38776 10.2816 6.7845 L9.54198 9.25001 L7 9.25001 C6.58579 9.25001 6.25 9.5858 6.25 10 C6.25 10.4142 6.58579 10.75 7 10.75 L9.09198 10.75 L8.34198 13.25 L6 13.25 C5.58579 13.25 5.25 13.5858 5.25 14 C5.25 14.4142 5.58579 14.75 6 14.75 L7.89198 14.75 L7.28163 16.7845 C7.16261 17.1812 7.38774 17.5994 7.78449 17.7184 C8.18123 17.8374 8.59935 17.6123 8.71837 17.2155 L9.45802 14.75 L12.892 14.75 L12.2816 16.7845 C12.1626 17.1812 12.3877 17.5994 12.7845 17.7184 C13.1812 17.8374 13.5993 17.6123 13.7184 17.2155 L14.458 14.75 L17 14.75 C17.4142 14.75 17.75 14.4142 17.75 14 C17.75 13.5858 17.4142 13.25 17 13.25 L14.908 13.25 L15.658 10.75 L18 10.75 C18.4142 10.75 18.75 10.4142 18.75 10 C18.75 9.5858 18.4142 9.25001 18 9.25001 L16.108 9.25001 L16.7184 7.21553 C16.8374 6.81878 16.6123 6.40067 16.2155 6.28164 C15.8188 6.16262 15.4007 6.38776 15.2816 6.7845 L14.542 9.25001 L11.108 9.25001 L11.7184 7.21553 C11.8374 6.81878 11.6123 6.40067 11.2155 6.28164 Z" fill="#FFFFFF" />
</svg>