<svg xmlns="http://www.w3.org/2000/svg" width="24" height="24" viewBox="0 0 24 24" fill="none">
  <path fill-rule="nonzero" clip-rule="nonzero" d="M10.7226 3.20068 L9.32006 8.24995 L16.7633 8.24995 L18.2774 2.79921 C18.3882 2.40011 18.8016 2.16645 19.2007 2.27731 C19.5998 2.38817 19.8335 2.80158 19.7226 3.20068 L18.3201 8.24995 L22 8.24995 C22.4142 8.24995 22.75 8.58573 22.75 8.99995 C22.75 9.41416 22.4142 9.74995 22 9.74995 L17.9034 9.74995 L16.3756 15.2499 L20 15.2499 C20.4142 15.2499 20.75 15.5857 20.75 15.9999 C20.75 16.4142 20.4142 16.7499 20 16.7499 L15.959 16.7499 L14.7226 21.2007 C14.6118 21.5998 14.1984 21.8334 13.7993 21.7226 C13.4002 21.6117 13.1665 21.1983 13.2774 20.7992 L14.4022 16.7499 L6.95895 16.7499 L5.72264 21.2007 C5.61178 21.5998 5.19837 21.8334 4.79927 21.7226 C4.40016 21.6117 4.1665 21.1983 4.27736 20.7992 L5.40216 16.7499 L2 16.7499 C1.58579 16.7499 1.25 16.4142 1.25 15.9999 C1.25 15.5857 1.58579 15.2499 2 15.2499 L5.81882 15.2499 L7.3466 9.74995 L4 9.74995 C3.58579 9.74995 3.25 9.41416 3.25 8.99995 C3.25 8.58573 3.58579 8.24995 4 8.24995 L7.76327 8.24995 L9.27736 2.79921 C9.38822 2.40011 9.80163 2.16645 10.2007 2.27731 C10.5998 2.38817 10.8335 2.80158 10.7226 3.20068 Z M 14.8188 15.2499 L 16.3466 9.74995 H 8.9034 L 7.37562 15.2499 H 14.8188 Z" fill="#FFFFFF" />
</svg>