<svg xmlns="http://www.w3.org/2000/svg" width="24" height="24" viewBox="0 0 24 24" fill="none">
  <path fill-rule="nonzero" clip-rule="nonzero" d="M3.46447 3.46447 C4.92893 2 7.28595 2 12 2 C16.714 2 19.0711 2 20.5355 3.46447 C22 4.92893 22 7.28595 22 12 C22 16.714 22 19.0711 20.5355 20.5355 C19.0711 22 16.714 22 12 22 C7.28595 22 4.92893 22 3.46447 20.5355 C2 19.0711 2 16.714 2 12 C2 7.28595 2 4.92893 3.46447 3.46447 Z M6.42385 9.51988 C6.15868 9.83809 6.20167 10.311 6.51988 10.5762 L6.75429 10.7715 C7.41285 11.3203 7.84348 11.6815 8.11968 11.9874 C8.38196 12.2779 8.40694 12.414 8.40694 12.5 C8.40694 12.586 8.38196 12.7222 8.11968 13.0126 C7.84348 13.3185 7.41285 13.6797 6.75428 14.2285 L6.51988 14.4239 C6.20167 14.689 6.15868 15.1619 6.42385 15.4802 C6.68903 15.7984 7.16195 15.8414 7.48016 15.5762 L7.75658 15.3458 C8.36153 14.8418 8.87653 14.4126 9.23295 14.0179 C9.61151 13.5987 9.90694 13.1166 9.90694 12.5 C9.90694 11.8834 9.61151 11.4013 9.23295 10.9821 C8.87653 10.5874 8.36153 10.1583 7.75658 9.6542 L7.48016 9.42385 C7.16195 9.15868 6.68903 9.20167 6.42385 9.51988 Z M17.75 15 C17.75 14.5858 17.4142 14.25 17 14.25 L12 14.25 C11.5858 14.25 11.25 14.5858 11.25 15 C11.25 15.4142 11.5858 15.75 12 15.75 L17 15.75 C17.4142 15.75 17.75 15.4142 17.75 15 Z" fill="#FFFFFF" />
</svg>