<svg xmlns="http://www.w3.org/2000/svg" width="24" height="24" viewBox="0 0 24 24" fill="none">
  <path fill-rule="nonzero" clip-rule="nonzero" d="M3.17157 4.17157 C4.34315 3 6.22876 3 10 3 L14 3 C14.0843 3 14.1676 2.99999 14.25 3 L14.25 21 C14.1676 21 14.0843 21 14 21 L10 21 C6.22876 21 4.34315 21 3.17157 19.8284 C2 18.6569 2 16.7712 2 13 L2 11 C2 7.22876 2 5.34315 3.17157 4.17157 Z M15.75 3.00559 C18.3859 3.03321 19.8541 3.19724 20.8284 4.17157 C22 5.34315 22 7.22876 22 11 L22 13 C22 16.7712 22 18.6569 20.8284 19.8284 C19.8541 20.8028 18.3859 20.9668 15.75 20.9944 L15.75 3.00559 Z" fill="#FFFFFF" />
</svg>