<svg xmlns="http://www.w3.org/2000/svg" width="24" height="24" viewBox="0 0 24 24" fill="none">
  <path fill-rule="nonzero" clip-rule="nonzero" d="M9.94358 2.25 L14.0564 2.25 C14.3707 2.25 14.6737 2.25 14.966 2.25076 C14.9773 2.25025 14.9886 2.25 15 2.25 C15.0129 2.25 15.0257 2.25032 15.0384 2.25096 C16.4224 2.25523 17.5607 2.27833 18.489 2.40314 C19.6614 2.56076 20.6104 2.89288 21.3588 3.64124 C22.1071 4.38961 22.4392 5.33856 22.5969 6.51098 C22.75 7.65018 22.75 9.10585 22.75 10.9436 L22.75 13.0565 C22.75 14.8942 22.75 16.3498 22.5969 17.489 C22.4392 18.6614 22.1071 19.6104 21.3588 20.3588 C20.6104 21.1071 19.6614 21.4392 18.489 21.5969 C17.5607 21.7217 16.4224 21.7448 15.0384 21.749 C15.0257 21.7497 15.0129 21.75 15 21.75 C14.9886 21.75 14.9773 21.7497 14.966 21.7492 C14.6738 21.75 14.3706 21.75 14.0564 21.75 L9.94354 21.75 C8.1058 21.75 6.65018 21.75 5.51098 21.5969 C4.33856 21.4392 3.38961 21.1071 2.64124 20.3588 C1.89288 19.6104 1.56076 18.6614 1.40314 17.489 C1.24997 16.3498 1.24998 14.8942 1.25 13.0564 L1.25 10.9436 C1.24998 9.10582 1.24997 7.65019 1.40314 6.51098 C1.56076 5.33856 1.89288 4.38961 2.64124 3.64124 C3.38961 2.89288 4.33856 2.56076 5.51098 2.40314 C6.65019 2.24997 8.10583 2.24998 9.94358 2.25 Z M 14.25 3.75002 C 14.1677 3.75 14.0844 3.75 14 3.75 H 10 C 8.09318 3.75 6.73851 3.75159 5.71085 3.88976 C 4.70476 4.02503 4.12511 4.27869 3.7019 4.7019 C 3.27869 5.12511 3.02503 5.70476 2.88976 6.71085 C 2.75159 7.73851 2.75 9.09318 2.75 11 V 13 C 2.75 14.9068 2.75159 16.2615 2.88976 17.2892 C 3.02503 18.2952 3.27869 18.8749 3.7019 19.2981 C 4.12511 19.7213 4.70476 19.975 5.71085 20.1102 C 6.73851 20.2484 8.09318 20.25 10 20.25 H 14 C 14.0844 20.25 14.1677 20.25 14.25 20.25 L 14.25 3.75002 Z M 15.75 20.2443 C 16.7836 20.2334 17.6082 20.2018 18.2892 20.1102 C 19.2952 19.975 19.8749 19.7213 20.2981 19.2981 C 20.7213 18.8749 20.975 18.2952 21.1102 17.2892 C 21.2484 16.2615 21.25 14.9068 21.25 13 V 11 C 21.25 9.09318 21.2484 7.73851 21.1102 6.71085 C 20.975 5.70476 20.7213 5.12511 20.2981 4.7019 C 19.8749 4.27869 19.2952 4.02503 18.2892 3.88976 C 17.6082 3.79821 16.7836 3.76662 15.75 3.75573 L 15.75 20.2443 Z" fill="#FFFFFF" />
</svg>