<svg xmlns="http://www.w3.org/2000/svg" width="24" height="24" viewBox="0 0 24 24" fill="none">
  <path fill-rule="nonzero" clip-rule="nonzero" d="M 2 11 C 2 7.22877 2 5.34315 3.17157 4.17158 C 4.34315 3.00001 6.22876 3.00001 10 3.00001 H 14 H 14.25 L 14.25 21 H 14 H 10 C 6.22876 21 4.34315 21 3.17157 19.8284 C 2 18.6569 2 16.7712 2 13 V 11 Z M 15.75 20.9944 L 15.75 3.0056 C 18.3859 3.03321 19.8541 3.19725 20.8284 4.17158 C 22 5.34315 22 7.22877 22 11 V 13 C 22 16.7712 22 18.6569 20.8284 19.8284 C 19.8541 20.8028 18.3859 20.9668 15.75 20.9944 Z M9.96967 15.4697 C9.67678 15.7626 9.67678 16.2374 9.96967 16.5303 L10.4393 17 L9.96967 17.4697 C9.67678 17.7626 9.67678 18.2374 9.96967 18.5303 C10.2626 18.8232 10.7374 18.8232 11.0303 18.5303 L12.0303 17.5303 C12.3232 17.2374 12.3232 16.7626 12.0303 16.4697 L11.0303 15.4697 C10.7374 15.1768 10.2626 15.1768 9.96967 15.4697 Z M 9.70225 14.2633 C 9.84769 13.8755 9.65118 13.4432 9.26334 13.2978 C 8.8755 13.1523 8.44319 13.3488 8.29775 13.7367 L 6.79775 17.7367 C 6.65231 18.1245 6.84882 18.5568 7.23666 18.7023 C 7.6245 18.8477 8.05681 18.6512 8.20225 18.2633 L 9.70225 14.2633 Z M6.53033 13.4697 C6.23744 13.1768 5.76256 13.1768 5.46967 13.4697 L4.46967 14.4697 C4.17678 14.7626 4.17678 15.2374 4.46967 15.5303 L5.46967 16.5303 C5.76256 16.8232 6.23744 16.8232 6.53033 16.5303 C6.82322 16.2374 6.82322 15.7626 6.53033 15.4697 L6.06066 15 L6.53033 14.5303 C6.82322 14.2374 6.82322 13.7626 6.53033 13.4697 Z" fill="#FFFFFF" />
</svg>