<svg xmlns="http://www.w3.org/2000/svg" width="24" height="24" viewBox="0 0 24 24" fill="none">
  <path d="M22 11V13C22 16.7712 22 18.6569 20.8284 19.8284C19.8541 20.8028 18.3859 20.9668 15.75 20.9944V3.00559C18.3859 3.03321 19.8541 3.19724 20.8284 4.17157C22 5.34315 22 7.22876 22 11Z" fill="#FFFFFF" />
  <path fill-rule="nonzero" clip-rule="nonzero" d="M 10 3 H 14 H 14.25 L 14.25 21 H 14 H 10 C 6.22876 21 4.34315 21 3.17157 19.8284 C 2 18.6569 2 16.7712 2 13 V 11 C 2 7.22876 2 5.34315 3.17157 4.17157 C 4.34315 3 6.22876 3 10 3 Z M4.75 10 C4.75 10.4142 5.08579 10.75 5.5 10.75 L11.5 10.75 C11.9142 10.75 12.25 10.4142 12.25 10 C12.25 9.58579 11.9142 9.25 11.5 9.25 L5.5 9.25 C5.08579 9.25 4.75 9.58579 4.75 10 Z M5.75 14 C5.75 14.4142 6.08579 14.75 6.5 14.75 L10.5 14.75 C10.9142 14.75 11.25 14.4142 11.25 14 C11.25 13.5858 10.9142 13.25 10.5 13.25 L6.5 13.25 C6.08579 13.25 5.75 13.5858 5.75 14 Z" fill="#FFFFFF" />
</svg>