<svg xmlns="http://www.w3.org/2000/svg" width="24" height="24" viewBox="0 0 24 24" fill="none">
  <path d="M14.0184 7.36452C14.1256 6.96443 13.8882 6.55317 13.4881 6.44597C13.088 6.33876 12.6767 6.5762 12.5695 6.9763L9.98131 16.6356C9.8741 17.0357 10.1115 17.4469 10.5116 17.5541C10.9117 17.6613 11.323 17.4239 11.4302 17.0238L14.0184 7.36452Z" fill="#FFFFFF" />
  <path fill-rule="nonzero" clip-rule="nonzero" d="M12 1.25 C17.9371 1.25 22.75 6.06294 22.75 12 C22.75 17.9371 17.9371 22.75 12 22.75 C6.06294 22.75 1.25 17.9371 1.25 12 C1.25 6.06294 6.06294 1.25 12 1.25 Z M2.75 12 C2.75 17.1086 6.89137 21.25 12 21.25 C17.1086 21.25 21.25 17.1086 21.25 12 C21.25 6.89137 17.1086 2.75 12 2.75 C6.89137 2.75 2.75 6.89137 2.75 12 Z" fill="#FFFFFF" />
</svg>