<svg xmlns="http://www.w3.org/2000/svg" width="24" height="24" viewBox="0 0 24 24" fill="none">
  <path fill-rule="nonzero" clip-rule="nonzero" d="M3.46447 3.46447 C4.92893 2 7.28595 2 12 2 C16.714 2 19.0711 2 20.5355 3.46447 C22 4.92893 22 7.28595 22 12 C22 16.714 22 19.0711 20.5355 20.5355 C19.0711 22 16.714 22 12 22 C7.28595 22 4.92893 22 3.46447 20.5355 C2 19.0711 2 16.714 2 12 C2 7.28595 2 4.92893 3.46447 3.46447 Z M 14.0184 7.3645 C 14.1257 6.9644 13.8882 6.55315 13.4881 6.44595 C 13.088 6.33874 12.6768 6.57618 12.5696 6.97628 L 9.98137 16.6355 C 9.87416 17.0356 10.1116 17.4469 10.5117 17.5541 C 10.9118 17.6613 11.323 17.4239 11.4303 17.0238 L 14.0184 7.3645 Z" fill="#FFFFFF" />
</svg>