<svg xmlns="http://www.w3.org/2000/svg" width="24" height="24" viewBox="0 0 24 24" fill="none">
  <path d="M12 2.75C8.55372 2.75 5.75 5.56721 5.75 9.05473C5.75 10.7783 6.43459 12.3382 7.54467 13.4763C7.8339 13.7728 7.82798 14.2477 7.53146 14.5369C7.23494 14.8261 6.76011 14.8202 6.47088 14.5237C5.09743 13.1156 4.25 11.1836 4.25 9.05473C4.25 4.74981 7.7143 1.25 12 1.25C16.2857 1.25 19.75 4.74981 19.75 9.05473C19.75 11.1656 18.9168 13.083 17.5637 14.488C17.2764 14.7863 16.8016 14.7953 16.5033 14.5079C16.2049 14.2206 16.196 13.7458 16.4833 13.4475C17.5769 12.3119 18.25 10.7638 18.25 9.05473C18.25 5.56721 15.4463 2.75 12 2.75Z" fill="#FFFFFF" />
  <path d="M12 5.57189C10.1001 5.57189 8.55 7.12569 8.55 9.05473C8.55 10.0006 8.92249 10.8563 9.52768 11.4839C9.8152 11.7821 9.80657 12.2569 9.50841 12.5444C9.21024 12.8319 8.73545 12.8233 8.44792 12.5251C7.58286 11.628 7.05 10.4028 7.05 9.05473C7.05 6.3083 9.26069 4.07189 12 4.07189C14.7393 4.07189 16.95 6.3083 16.95 9.05473C16.95 10.3837 16.4321 11.5933 15.5886 12.4868C15.3043 12.788 14.8296 12.8017 14.5284 12.5173C14.2272 12.233 14.2135 11.7583 14.4979 11.4571C15.088 10.8321 15.45 9.9873 15.45 9.05473C15.45 7.12569 13.8999 5.57189 12 5.57189Z" fill="#FFFFFF" />
  <path fill-rule="nonzero" clip-rule="nonzero" d="M 11.2844 9.77504 C 10.9613 9.54906 10.75 9.17421 10.75 8.75 C 10.75 8.05964 11.3096 7.5 12 7.5 C 12.6904 7.5 13.25 8.05964 13.25 8.75 C 13.25 9.17421 13.0387 9.54906 12.7156 9.77504 L 15.206 17.2462 C 15.2099 17.2571 15.2136 17.2681 15.217 17.2792 L 16.7115 21.7628 C 16.8425 22.1558 16.6301 22.5805 16.2372 22.7115 C 15.8442 22.8425 15.4195 22.6301 15.2885 22.2372 L 13.9594 18.25 H 10.0406 L 8.71151 22.2372 C 8.58053 22.6301 8.15579 22.8425 7.76283 22.7115 C 7.36987 22.5805 7.1575 22.1558 7.28849 21.7628 L 8.78302 17.2792 C 8.78644 17.2681 8.79011 17.2571 8.79402 17.2462 L 11.2844 9.77504 Z M12 12.3717 L10.5406 16.75 L13.4594 16.75 L12 12.3717 Z" fill="#FFFFFF" />
</svg>