<svg xmlns="http://www.w3.org/2000/svg" width="24" height="24" viewBox="0 0 24 24" fill="none">
  <path fill-rule="nonzero" clip-rule="nonzero" d="M7.90695 4.25572 C7.93744 4.25194 7.96849 4.25 8 4.25 L16 4.25 C16.0315 4.25 16.0626 4.25195 16.093 4.25572 C16.4241 2.9589 17.6001 2 19 2 C20.6569 2 22 3.34315 22 5 C22 6.39994 21.0411 7.57591 19.7443 7.90695 C19.7481 7.93744 19.75 7.96849 19.75 8 L19.75 16 C19.75 16.0315 19.7481 16.0626 19.7443 16.093 C21.0411 16.4241 22 17.6001 22 19 C22 20.6569 20.6569 22 19 22 C17.6001 22 16.4241 21.0411 16.093 19.7443 C16.0626 19.7481 16.0315 19.75 16 19.75 L8 19.75 C7.96849 19.75 7.93744 19.7481 7.90695 19.7443 C7.57591 21.0411 6.39994 22 5 22 C3.34315 22 2 20.6569 2 19 C2 17.6001 2.9589 16.4241 4.25572 16.093 C4.25195 16.0626 4.25 16.0315 4.25 16 L4.25 8 C4.25 7.96849 4.25194 7.93744 4.25572 7.90695 C2.9589 7.57591 2 6.39994 2 5 C2 3.34315 3.34315 2 5 2 C6.39994 2 7.57591 2.9589 7.90695 4.25572 Z M 5.74428 7.90695 C 5.74806 7.93744 5.75 7.96849 5.75 8 L 5.75 16 C 5.75 16.0315 5.74805 16.0626 5.74428 16.093 C 6.80311 16.3633 7.63667 17.1969 7.90695 18.2557 C 7.93744 18.2519 7.96849 18.25 8 18.25 H 16 C 16.0315 18.25 16.0626 18.2519 16.093 18.2557 C 16.3633 17.1969 17.1969 16.3633 18.2557 16.093 C 18.2519 16.0626 18.25 16.0315 18.25 16 V 8 C 18.25 7.96849 18.2519 7.93744 18.2557 7.90695 C 17.1969 7.63667 16.3633 6.80311 16.093 5.74428 C 16.0626 5.74805 16.0315 5.75 16 5.75 H 8 C 7.96849 5.75 7.93744 5.74806 7.90695 5.74429 C 7.63666 6.80311 6.80311 7.63667 5.74428 7.90695 Z" fill="#FFFFFF" />
</svg>