<svg xmlns="http://www.w3.org/2000/svg" width="24" height="24" viewBox="0 0 24 24" fill="none">
  <path fill-rule="nonzero" clip-rule="nonzero" d="M 4.25 8.67499 C 2.53832 8.32753 1.25 6.81422 1.25 5 C 1.25 2.92893 2.92893 1.25 5 1.25 C 6.81422 1.25 8.32753 2.53832 8.67499 4.25 H 15.325 C 15.6725 2.53832 17.1858 1.25 19 1.25 C 21.0711 1.25 22.75 2.92893 22.75 5 C 22.75 6.81422 21.4617 8.32753 19.75 8.67499 V 15.325 C 21.4617 15.6725 22.75 17.1858 22.75 19 C 22.75 21.0711 21.0711 22.75 19 22.75 C 17.1858 22.75 15.6725 21.4617 15.325 19.75 H 8.67499 C 8.32753 21.4617 6.81422 22.75 5 22.75 C 2.92893 22.75 1.25 21.0711 1.25 19 C 1.25 17.1858 2.53832 15.6725 4.25 15.325 L 4.25 8.67499 Z M2.75 5 C2.75 6.24264 3.75736 7.25 5 7.25 C6.24264 7.25 7.25 6.24264 7.25 5 C7.25 3.75736 6.24264 2.75 5 2.75 C3.75736 2.75 2.75 3.75736 2.75 5 Z M5.75 15.325 C7.21935 15.6233 8.37672 16.7807 8.67499 18.25 L15.325 18.25 C15.6233 16.7807 16.7807 15.6233 18.25 15.325 L18.25 8.67499 C16.7807 8.37673 15.6233 7.21935 15.325 5.75 L8.67499 5.75 C8.37672 7.21935 7.21935 8.37673 5.75 8.67499 L5.75 15.325 Z M 5 16.75 C 3.75736 16.75 2.75 17.7574 2.75 19 C 2.75 20.2426 3.75736 21.25 5 21.25 C 6.24264 21.25 7.25 20.2426 7.25 19 C 7.25 17.7574 6.24264 16.75 5 16.75 Z M21.25 5 C21.25 3.75736 20.2426 2.75 19 2.75 C17.7574 2.75 16.75 3.75736 16.75 5 C16.75 6.24264 17.7574 7.25 19 7.25 C20.2426 7.25 21.25 6.24264 21.25 5 Z M16.75 19 C16.75 20.2426 17.7574 21.25 19 21.25 C20.2426 21.25 21.25 20.2426 21.25 19 C21.25 17.7574 20.2426 16.75 19 16.75 C17.7574 16.75 16.75 17.7574 16.75 19 Z" fill="#FFFFFF" />
</svg>