<svg xmlns="http://www.w3.org/2000/svg" width="24" height="24" viewBox="0 0 24 24" fill="none">
  <path d="M2.75 12C2.75 6.89137 6.89137 2.75 12 2.75C17.1086 2.75 21.25 6.89137 21.25 12C21.25 14.5545 20.2155 16.866 18.5407 18.5407C18.2478 18.8336 18.2478 19.3085 18.5407 19.6014C18.8336 19.8943 19.3085 19.8943 19.6014 19.6014C21.5459 17.6569 22.75 14.9683 22.75 12C22.75 6.06294 17.9371 1.25 12 1.25C6.06294 1.25 1.25 6.06294 1.25 12C1.25 14.9683 2.45406 17.6569 4.3986 19.6014C4.6915 19.8943 5.16637 19.8943 5.45926 19.6014C5.75216 19.3085 5.75216 18.8336 5.45926 18.5407C3.78452 16.866 2.75 14.5545 2.75 12Z" fill="#FFFFFF" />
  <path d="M6.75 12C6.75 9.1005 9.1005 6.75 12 6.75C14.8995 6.75 17.25 9.1005 17.25 12C17.25 13.45 16.6632 14.7614 15.7123 15.7123C15.4194 16.0052 15.4194 16.4801 15.7123 16.773C16.0052 17.0659 16.4801 17.0659 16.773 16.773C17.9937 15.5523 18.75 13.8638 18.75 12C18.75 8.27208 15.7279 5.25 12 5.25C8.27208 5.25 5.25 8.27208 5.25 12C5.25 13.8638 6.00634 15.5523 7.22703 16.773C7.51992 17.0659 7.9948 17.0659 8.28769 16.773C8.58058 16.4801 8.58058 16.0052 8.28769 15.7123C7.3368 14.7614 6.75 13.45 6.75 12Z" fill="#FFFFFF" />
  <path fill-rule="nonzero" clip-rule="nonzero" d="M 9.25 12 C 9.25 10.4812 10.4812 9.25 12 9.25 C 13.5188 9.25 14.75 10.4812 14.75 12 C 14.75 13.5188 13.5188 14.75 12 14.75 C 10.4812 14.75 9.25 13.5188 9.25 12 Z M 12 10.75 C 11.3096 10.75 10.75 11.3096 10.75 12 C 10.75 12.6904 11.3096 13.25 12 13.25 C 12.6904 13.25 13.25 12.6904 13.25 12 C 13.25 11.3096 12.6904 10.75 12 10.75 Z" fill="#FFFFFF" />
  <path fill-rule="nonzero" clip-rule="nonzero" d="M13.393 15.7434 C13.745 15.993 14.1338 16.3479 14.5854 16.7602 L14.6641 16.832 C15.669 17.7493 16.4816 18.4911 16.9994 19.1089 C17.4964 19.702 17.9532 20.4464 17.6584 21.2757 C17.619 21.3864 17.5704 21.4935 17.5131 21.5959 C17.1024 22.331 16.2676 22.5508 15.4654 22.6483 C14.6283 22.75 13.4847 22.75 12.0563 22.75 L11.9436 22.75 C10.5153 22.75 9.3717 22.75 8.53456 22.6483 C7.73235 22.5508 6.89759 22.331 6.48687 21.5959 C6.42962 21.4935 6.38098 21.3864 6.34164 21.2757 C6.04684 20.4464 6.50359 19.702 7.00062 19.1089 C7.51836 18.4911 8.33098 17.7493 9.33587 16.832 L9.41455 16.7602 C9.86615 16.3479 10.255 15.993 10.607 15.7434 C10.9847 15.4757 11.3903 15.2765 11.8827 15.2528 C11.9608 15.2491 12.0392 15.2491 12.1173 15.2528 C12.6097 15.2765 13.0153 15.4757 13.393 15.7434 Z M11.4744 16.9671 C11.2072 17.1566 10.8868 17.4473 10.393 17.898 C9.33155 18.867 8.59539 19.5412 8.15029 20.0724 C7.93006 20.3352 7.82219 20.5162 7.77599 20.6375 C7.7395 20.7334 7.75105 20.7631 7.75452 20.772 L7.75501 20.7733 C7.7659 20.804 7.77964 20.8344 7.79635 20.8643 C7.81578 20.8991 7.93413 21.0643 8.71554 21.1592 C9.45103 21.2486 10.5025 21.25 12 21.25 C13.4975 21.25 14.549 21.2486 15.2845 21.1592 C16.0659 21.0643 16.1842 20.8991 16.2037 20.8643 C16.2204 20.8344 16.2341 20.804 16.245 20.7733 L16.2455 20.772 C16.249 20.7631 16.2605 20.7334 16.224 20.6375 C16.1778 20.5162 16.0699 20.3352 15.8497 20.0724 C15.4046 19.5412 14.6685 18.867 13.607 17.898 C13.1132 17.4473 12.7928 17.1566 12.5256 16.9671 C12.2755 16.7899 12.1451 16.7559 12.0453 16.7511 C12.0151 16.7496 11.9849 16.7496 11.9547 16.7511 C11.8549 16.7559 11.7245 16.7899 11.4744 16.9671 Z" fill="#FFFFFF" />
</svg>