<svg xmlns="http://www.w3.org/2000/svg" width="24" height="24" viewBox="0 0 24 24" fill="none">
  <path d="M10.3099 17.3441C11.0774 16.4683 11.4612 16.0304 11.935 16.002C11.9783 15.9993 12.0217 15.9993 12.065 16.002C12.5389 16.0304 12.9226 16.4683 13.6901 17.3441C15.3601 19.2497 16.1951 20.2025 15.9613 21.0245C15.9412 21.0952 15.9163 21.1639 15.8867 21.2301C15.5426 22 14.3617 22 12 22C9.63827 22 8.45741 22 8.11329 21.2301C8.08371 21.1639 8.05875 21.0952 8.03866 21.0245C7.80489 20.2025 8.63989 19.2497 10.3099 17.3441Z" fill="#FFFFFF"/>
  <path d="M14.5 12.5C14.5 13.8807 13.3807 15 12 15C10.6193 15 9.5 13.8807 9.5 12.5C9.5 11.1193 10.6193 10 12 10C13.3807 10 14.5 11.1193 14.5 12.5Z" fill="#FFFFFF"/>
  <g opacity="0.7"/>
  <g opacity="0.4"/>
</svg>