<svg xmlns="http://www.w3.org/2000/svg" width="24" height="24" viewBox="0 0 24 24" fill="none">
  <path fill-rule="nonzero" clip-rule="nonzero" d="M13.5303 6.46967 C13.8232 6.76256 13.8232 7.23744 13.5303 7.53033 C13.3193 7.74135 13.0138 7.80034 12.75 7.70729 L12.75 13.7415 C12.8213 13.7115 12.8945 13.6847 12.9694 13.6613 L14.3728 13.2227 C14.8947 13.0596 15.25 12.5763 15.25 12.0296 L15.25 11.7084 C15.0498 11.6695 14.8169 11.5847 14.6161 11.3839 C14.3803 11.1481 14.3045 10.8679 14.275 10.6486 C14.2498 10.4614 14.2499 10.2396 14.25 10.0344 L14.25 9.96553 C14.2499 9.76042 14.2498 9.53864 14.275 9.35143 C14.3045 9.1321 14.3803 8.85192 14.6161 8.61612 C14.8519 8.38032 15.1321 8.30448 15.3514 8.27499 C15.5386 8.24982 15.7604 8.24991 15.9656 8.24999 L16.0344 8.24999 C16.2396 8.24991 16.4614 8.24982 16.6486 8.27499 C16.8679 8.30448 17.1481 8.38032 17.3839 8.61612 C17.6197 8.85192 17.6955 9.1321 17.725 9.35143 C17.7502 9.53864 17.7501 9.76045 17.75 9.96555 L17.75 10.0345 C17.7501 10.2396 17.7502 10.4614 17.725 10.6486 C17.6955 10.8679 17.6197 11.1481 17.3839 11.3839 C17.1831 11.5847 16.9502 11.6695 16.75 11.7084 L16.75 12.0296 C16.75 13.2324 15.9683 14.2957 14.8203 14.6544 L13.4168 15.093 C13.1948 15.1624 13.0124 15.3081 12.8948 15.4958 C13.4069 15.8011 13.75 16.3605 13.75 17 C13.75 17.9665 12.9665 18.75 12 18.75 C11.0335 18.75 10.25 17.9665 10.25 17 C10.25 16.3019 10.6588 15.6993 11.25 15.4184 L11.25 15 C11.25 14.5844 10.9799 14.217 10.5832 14.093 L9.17974 13.6544 C8.03169 13.2957 7.25 12.2324 7.25 11.0296 L7.25 10.5816 C6.65876 10.3007 6.25 9.6981 6.25 9 C6.25 8.0335 7.0335 7.25 8 7.25 C8.9665 7.25 9.75 8.0335 9.75 9 C9.75 9.6981 9.34124 10.3007 8.75 10.5816 L8.75 11.0296 C8.75 11.5763 9.10531 12.0596 9.62716 12.2227 L11.0306 12.6613 C11.1055 12.6847 11.1787 12.7115 11.25 12.7415 L11.25 7.70729 C10.9862 7.80034 10.6807 7.74135 10.4697 7.53033 C10.1768 7.23744 10.1768 6.76256 10.4697 6.46967 L11.4697 5.46967 C11.7626 5.17678 12.2374 5.17678 12.5303 5.46967 L13.5303 6.46967 Z M16.2488 10.2488 C16.25 10.1794 16.25 10.0991 16.25 10 C16.25 9.90092 16.25 9.82061 16.2488 9.75115 C16.1794 9.75003 16.0991 9.75 16 9.75 C15.9009 9.75 15.8206 9.75003 15.7512 9.75115 C15.75 9.82061 15.75 9.90092 15.75 10 C15.75 10.0991 15.75 10.1794 15.7512 10.2488 C15.8206 10.25 15.9009 10.25 16 10.25 C16.0991 10.25 16.1794 10.25 16.2488 10.2488 Z M 12 16.75 C 11.8619 16.75 11.75 16.8619 11.75 17 C 11.75 17.1381 11.8619 17.25 12 17.25 C 12.1381 17.25 12.25 17.1381 12.25 17 C 12.25 16.8619 12.1381 16.75 12 16.75 Z M8.25 9 C8.25 8.86193 8.13807 8.75 8 8.75 C7.86193 8.75 7.75 8.86193 7.75 9 C7.75 9.13807 7.86193 9.25 8 9.25 C8.13807 9.25 8.25 9.13807 8.25 9 Z" fill="#FFFFFF" />
  <path fill-rule="nonzero" clip-rule="nonzero" d="M11.9426 1.25 L12.0574 1.25 C14.3658 1.24999 16.1748 1.24998 17.5863 1.43975 C19.031 1.63399 20.1711 2.03933 21.0659 2.93414 C21.9607 3.82895 22.366 4.96897 22.5603 6.41371 C22.75 7.82519 22.75 9.63423 22.75 11.9426 L22.75 12.0574 C22.75 14.3658 22.75 16.1748 22.5603 17.5863 C22.366 19.031 21.9607 20.1711 21.0659 21.0659 C20.1711 21.9607 19.031 22.366 17.5863 22.5603 C16.1748 22.75 14.3658 22.75 12.0574 22.75 L11.9426 22.75 C9.63423 22.75 7.82519 22.75 6.41371 22.5603 C4.96897 22.366 3.82895 21.9607 2.93414 21.0659 C2.03933 20.1711 1.63399 19.031 1.43975 17.5863 C1.24998 16.1748 1.24999 14.3658 1.25 12.0574 L1.25 11.9426 C1.24999 9.63423 1.24998 7.82519 1.43975 6.41371 C1.63399 4.96897 2.03933 3.82895 2.93414 2.93414 C3.82895 2.03933 4.96897 1.63399 6.41371 1.43975 C7.82519 1.24998 9.63423 1.24999 11.9426 1.25 Z M3.9948 3.9948 C3.42514 4.56445 3.09825 5.33517 2.92637 6.61358 C2.75159 7.91356 2.75 9.62178 2.75 12 C2.75 14.3782 2.75159 16.0864 2.92637 17.3864 C3.09825 18.6648 3.42514 19.4355 3.9948 20.0052 C4.56445 20.5749 5.33517 20.9018 6.61358 21.0736 C7.91356 21.2484 9.62178 21.25 12 21.25 C14.3782 21.25 16.0864 21.2484 17.3864 21.0736 C18.6648 20.9018 19.4355 20.5749 20.0052 20.0052 C20.5749 19.4355 20.9018 18.6648 21.0736 17.3864 C21.2484 16.0864 21.25 14.3782 21.25 12 C21.25 9.62178 21.2484 7.91356 21.0736 6.61358 C20.9018 5.33517 20.5749 4.56445 20.0052 3.9948 C19.4355 3.42514 18.6648 3.09825 17.3864 2.92637 C16.0864 2.75159 14.3782 2.75 12 2.75 C9.62178 2.75 7.91356 2.75159 6.61358 2.92637 C5.33517 3.09825 4.56445 3.42514 3.9948 3.9948 Z" fill="#FFFFFF" />
</svg>