<svg xmlns="http://www.w3.org/2000/svg" width="24" height="24" viewBox="0 0 24 24" fill="none">
  <path fill-rule="nonzero" clip-rule="nonzero" d="M3.46447 3.46447 C4.92893 2 7.28595 2 12 2 C16.714 2 19.0711 2 20.5355 3.46447 C22 4.92893 22 7.28595 22 12 C22 16.714 22 19.0711 20.5355 20.5355 C19.0711 22 16.714 22 12 22 C7.28595 22 4.92893 22 3.46447 20.5355 C2 19.0711 2 16.714 2 12 C2 7.28595 2 4.92893 3.46447 3.46447 Z M 13.5303 6.46967 L 12.5303 5.46967 C 12.2374 5.17678 11.7626 5.17678 11.4697 5.46967 L 10.4697 6.46967 C 10.1768 6.76256 10.1768 7.23744 10.4697 7.53033 C 10.6807 7.74135 10.9862 7.80034 11.25 7.70729 V 12.7415 C 11.1787 12.7115 11.1055 12.6847 11.0306 12.6613 L 9.62716 12.2227 C 9.10531 12.0596 8.75 11.5763 8.75 11.0296 V 10.5816 C 9.34124 10.3007 9.75 9.6981 9.75 9 C 9.75 8.0335 8.9665 7.25 8 7.25 C 7.0335 7.25 6.25 8.0335 6.25 9 C 6.25 9.6981 6.65876 10.3007 7.25 10.5816 V 11.0296 C 7.25 12.2324 8.03169 13.2957 9.17974 13.6544 L 10.5832 14.093 C 10.9799 14.217 11.25 14.5844 11.25 15 V 15.4184 C 10.6588 15.6993 10.25 16.3019 10.25 17 C 10.25 17.9665 11.0335 18.75 12 18.75 C 12.9665 18.75 13.75 17.9665 13.75 17 C 13.75 16.3605 13.4069 15.8011 12.8948 15.4958 C 13.0124 15.3081 13.1948 15.1624 13.4168 15.093 L 14.8203 14.6544 C 15.9683 14.2957 16.75 13.2324 16.75 12.0296 V 11.7084 C 16.9502 11.6695 17.1831 11.5847 17.3839 11.3839 C 17.6197 11.1481 17.6955 10.8679 17.725 10.6486 C 17.7502 10.4614 17.7501 10.2396 17.75 10.0345 V 9.96555 C 17.7501 9.76045 17.7502 9.53864 17.725 9.35143 C 17.6955 9.1321 17.6197 8.85192 17.3839 8.61612 C 17.1481 8.38032 16.8679 8.30448 16.6486 8.27499 C 16.4614 8.24982 16.2396 8.24991 16.0345 8.24999 H 15.9656 C 15.7604 8.24991 15.5386 8.24982 15.3514 8.27499 C 15.1321 8.30448 14.8519 8.38032 14.6161 8.61612 C 14.3803 8.85192 14.3045 9.1321 14.275 9.35143 C 14.2498 9.53864 14.2499 9.76042 14.25 9.96553 V 10.0344 C 14.2499 10.2396 14.2498 10.4614 14.275 10.6486 C 14.3045 10.8679 14.3803 11.1481 14.6161 11.3839 C 14.8169 11.5847 15.0498 11.6695 15.25 11.7084 V 12.0296 C 15.25 12.5763 14.8947 13.0596 14.3728 13.2227 L 12.9694 13.6613 C 12.8945 13.6847 12.8213 13.7115 12.75 13.7415 V 7.70729 C 13.0138 7.80034 13.3193 7.74135 13.5303 7.53033 C 13.8232 7.23744 13.8232 6.76256 13.5303 6.46967 Z" fill="#FFFFFF" />
</svg>