<svg xmlns="http://www.w3.org/2000/svg" width="24" height="24" viewBox="0 0 24 24" fill="none">
  <path d="M7 6C7 6.55229 6.55229 7 6 7C5.44772 7 5 6.55229 5 6C5 5.44772 5.44772 5 6 5C6.55229 5 7 5.44772 7 6Z" fill="#FFFFFF" />
  <path d="M10 6C10 6.55229 9.55229 7 9 7C8.44772 7 8 6.55229 8 6C8 5.44772 8.44772 5 9 5C9.55229 5 10 5.44772 10 6Z" fill="#FFFFFF" />
  <path d="M12 7C12.5523 7 13 6.55229 13 6C13 5.44772 12.5523 5 12 5C11.4477 5 11 5.44772 11 6C11 6.55229 11.4477 7 12 7Z" fill="#FFFFFF" />
  <path fill-rule="nonzero" clip-rule="nonzero" d="M11.9426 1.25 L12.0574 1.25 C14.3658 1.24999 16.1748 1.24998 17.5863 1.43975 C19.031 1.63399 20.1711 2.03933 21.0659 2.93414 C21.9607 3.82895 22.366 4.96897 22.5603 6.41371 C22.6726 7.24965 22.7185 8.22504 22.7371 9.36102 C22.7456 9.40606 22.75 9.45251 22.75 9.5 C22.75 9.5399 22.7469 9.57907 22.7409 9.61728 C22.75 10.3296 22.75 11.1031 22.75 11.9426 L22.75 12.0574 C22.75 14.3658 22.75 16.1748 22.5603 17.5863 C22.366 19.031 21.9607 20.1711 21.0659 21.0659 C20.1711 21.9607 19.031 22.366 17.5863 22.5603 C16.1748 22.75 14.3658 22.75 12.0574 22.75 L11.9426 22.75 C9.63423 22.75 7.82519 22.75 6.41371 22.5603 C4.96897 22.366 3.82895 21.9607 2.93414 21.0659 C2.03933 20.1711 1.63399 19.031 1.43975 17.5863 C1.24998 16.1748 1.24999 14.3658 1.25 12.0574 L1.25 11.9426 C1.25 11.1031 1.24999 10.3296 1.25912 9.61728 C1.25312 9.57907 1.25 9.5399 1.25 9.5 C1.25 9.45251 1.25441 9.40606 1.26285 9.36102 C1.28153 8.22504 1.32736 7.24965 1.43975 6.41371 C1.63399 4.96897 2.03933 3.82895 2.93414 2.93414 C3.82895 2.03933 4.96897 1.63399 6.41371 1.43975 C7.82519 1.24998 9.63423 1.24999 11.9426 1.25 Z M2.75 12 C2.75 14.3782 2.75159 16.0864 2.92637 17.3864 C3.09825 18.6648 3.42514 19.4355 3.9948 20.0052 C4.56445 20.5749 5.33517 20.9018 6.61358 21.0736 C7.1055 21.1398 7.65589 21.1811 8.27892 21.2069 C8.26009 21.1412 8.25 21.0718 8.25 21 L8.25 10.25 L2.7535 10.25 C2.75011 10.7898 2.75 11.3715 2.75 12 Z M 9.71019 21.2417 C 10.3969 21.2498 11.1563 21.25 12 21.25 C 14.3782 21.25 16.0864 21.2484 17.3864 21.0736 C 18.6648 20.9018 19.4355 20.5749 20.0052 20.0052 C 20.5749 19.4355 20.9018 18.6648 21.0736 17.3864 C 21.2484 16.0864 21.25 14.3782 21.25 12 C 21.25 11.3715 21.2499 10.7898 21.2465 10.25 H 9.75 L 9.75 21 C 9.75 21.0846 9.736 21.1659 9.71019 21.2417 Z M 2.92637 6.61358 C 2.84403 7.22599 2.80013 7.92901 2.77672 8.75 H 21.2233 C 21.1999 7.92901 21.156 7.22599 21.0736 6.61358 C 20.9018 5.33517 20.5749 4.56445 20.0052 3.9948 C 19.4355 3.42514 18.6648 3.09825 17.3864 2.92637 C 16.0864 2.75159 14.3782 2.75 12 2.75 C 9.62178 2.75 7.91356 2.75159 6.61358 2.92637 C 5.33517 3.09825 4.56445 3.42514 3.9948 3.9948 C 3.42514 4.56445 3.09825 5.33517 2.92637 6.61358 Z" fill="#FFFFFF" />
</svg>