<svg xmlns="http://www.w3.org/2000/svg" width="24" height="24" viewBox="0 0 24 24" fill="none">
  <path fill-rule="nonzero" clip-rule="nonzero" d="M3.46447 3.46447 C4.92893 2 7.28595 2 12 2 C16.714 2 19.0711 2 20.5355 3.46447 C21.6158 4.54472 21.8992 6.11064 21.9736 8.75 L2.02645 8.75 C2.1008 6.11064 2.38421 4.54472 3.46447 3.46447 Z M 2 12 C 2 11.3766 2 10.7944 2.00339 10.25 H 8.25 L 8.25 21 V 21.9563 C 5.90962 21.8591 4.47468 21.5458 3.46447 20.5355 C 2 19.0711 2 16.714 2 12 Z M 6 7 C 6.55228 7 7 6.55228 7 6 C 7 5.44772 6.55228 5 6 5 C 5.44772 5 5 5.44772 5 6 C 5 6.55228 5.44772 7 6 7 Z M10 6 C10 5.44772 9.55228 5 9 5 C8.44772 5 8 5.44772 8 6 C8 6.55228 8.44772 7 9 7 C9.55228 7 10 6.55228 10 6 Z M 12 7 C 12.5523 7 13 6.55228 13 6 C 13 5.44772 12.5523 5 12 5 C 11.4477 5 11 5.44772 11 6 C 11 6.55228 11.4477 7 12 7 Z" fill="#FFFFFF" />
  <path d="M22 12C22 16.714 22 19.0711 20.5355 20.5355C19.0711 22 16.714 22 12 22C11.1815 22 10.4341 22 9.75 21.9923V21L9.75 10.25H21.9966C22 10.7944 22 11.3766 22 12Z" fill="#FFFFFF" />
</svg>