<svg xmlns="http://www.w3.org/2000/svg" width="24" height="24" viewBox="0 0 24 24" fill="none">
  <path fill-rule="nonzero" clip-rule="nonzero" d="M 12.1105 3.32656 C 11.3417 2.55781 10.0954 2.55781 9.32662 3.32656 C 8.55787 4.0953 8.55787 5.34168 9.32662 6.11042 L 10.3146 7.09845 C 10.3486 7.08325 10.3842 7.06678 10.4212 7.04896 C 10.8073 6.86288 11.3541 6.52792 11.9409 5.94106 C 12.5278 5.3542 12.8628 4.80736 13.0489 4.42117 C 13.0668 4.38414 13.0833 4.34857 13.0985 4.31456 L 12.1105 3.32656 Z M 14.2132 5.42923 C 13.9513 5.89156 13.5653 6.43798 13.0016 7.00172 C 12.4379 7.56539 11.8916 7.95129 11.4293 8.21313 L 11.8896 8.67344 C 12.6584 9.44219 13.9048 9.44219 14.6735 8.67344 C 15.4422 7.9047 15.4422 6.65832 14.6735 5.88958 L 14.2132 5.42923 Z M 8.26596 2.2659 C 9.62049 0.911367 11.8166 0.911367 13.1711 2.2659 L 15.7342 4.82892 C 17.0887 6.18345 17.0887 8.37957 15.7342 9.7341 C 14.3796 11.0886 12.1835 11.0886 10.829 9.7341 L 8.26596 7.17108 C 6.91143 5.81656 6.91143 3.62043 8.26596 2.2659 Z M 8.68397 14.4482 C 10.5498 14.0867 12.5471 14.1678 14.1633 15.1318 C 14.3903 15.2672 14.6031 15.4359 14.7888 15.6444 C 15.1646 16.0666 15.3588 16.5913 15.3679 17.1174 C 15.5592 16.994 15.7508 16.857 15.9454 16.71 L 17.7526 15.3448 C 18.6572 14.6615 19.9718 14.6614 20.8765 15.3445 C 21.7125 15.9757 22.0457 17.1085 21.4473 18.0677 C 21.022 18.7495 20.3815 19.6924 19.7296 20.2962 C 19.0707 20.9065 18.1329 21.4196 17.4236 21.762 C 16.5621 22.1778 15.6316 22.4077 14.7269 22.5541 C 12.8777 22.8534 10.9535 22.8076 9.12505 22.431 C 8.19064 22.2384 7.21961 22.1384 6.25999 22.1384 H 4.00006 C 3.58585 22.1384 3.25006 21.8026 3.25006 21.3884 C 3.25006 20.9742 3.58585 20.6384 4.00006 20.6384 H 6.25999 C 7.3221 20.6384 8.39454 20.749 9.42772 20.9618 C 11.0798 21.3022 12.8202 21.3432 14.4872 21.0734 C 15.3161 20.9392 16.0901 20.74 16.7715 20.4111 C 17.4549 20.0812 18.2233 19.6468 18.7104 19.1957 C 19.2029 18.7395 19.7541 17.9479 20.1747 17.2738 C 20.3016 17.0703 20.284 16.7767 19.9727 16.5416 C 19.6029 16.2624 19.0264 16.2625 18.6567 16.5417 L 16.8496 17.9069 C 16.1281 18.4518 15.2402 19.0349 14.1388 19.2106 C 14.0276 19.2283 13.9119 19.2445 13.7918 19.2588 C 13.7345 19.2692 13.6749 19.276 13.6133 19.2783 C 13.051 19.3342 12.3998 19.3472 11.6813 19.2793 C 11.2689 19.2404 10.9662 18.8745 11.0051 18.4621 C 11.0441 18.0497 11.41 17.747 11.8223 17.786 C 12.4498 17.8452 13.0127 17.8321 13.4903 17.7831 C 13.5 17.7821 13.5096 17.7811 13.5192 17.7801 C 13.5392 17.7685 13.5697 17.7474 13.6096 17.7125 C 13.9291 17.4336 13.9576 16.9667 13.6684 16.6418 C 13.5951 16.5595 13.5049 16.4856 13.3949 16.42 C 12.2138 15.7155 10.6363 15.5978 8.96927 15.9208 C 7.31174 16.2419 5.66497 16.9817 4.43392 17.8547 C 4.09604 18.0943 3.6279 18.0146 3.38828 17.6768 C 3.14867 17.3389 3.22833 16.8708 3.5662 16.6311 C 4.96457 15.6395 6.80866 14.8115 8.68397 14.4482 Z" fill="#FFFFFF" />
</svg>