<svg xmlns="http://www.w3.org/2000/svg" width="24" height="24" viewBox="0 0 24 24" fill="none">
  <path fill-rule="nonzero" clip-rule="nonzero" d="M 18.906 3.92194 C 17.8921 2.88646 16.4461 2.50452 15.0306 2.9073 C 14.6322 3.02066 14.2173 2.78959 14.104 2.39119 C 13.9906 1.99279 14.2217 1.57792 14.6201 1.46456 C 16.5583 0.913072 18.5747 1.43959 19.9778 2.8725 C 20.2676 3.16846 20.2626 3.64331 19.9666 3.9331 C 19.6706 4.2229 19.1958 4.2179 18.906 3.92194 Z M 11.1904 3.30839 C 10.9763 2.94131 10.3525 2.7187 9.71882 3.08085 C 9.08746 3.44168 8.97642 4.07772 9.18675 4.4384 L 11.7124 8.76952 C 11.9211 9.12734 11.8001 9.58656 11.4423 9.79522 C 11.0845 10.0039 10.6253 9.88296 10.4166 9.52514 L 7.89098 5.19403 C 7.89085 5.19381 7.8911 5.19424 7.89098 5.19403 L 7.04909 3.75032 C 6.83503 3.38324 6.21122 3.16063 5.57755 3.52278 C 4.94619 3.88361 4.83515 4.51965 5.04548 4.88033 L 8.83397 11.377 C 9.04263 11.7348 8.92171 12.1941 8.56389 12.4027 C 8.20607 12.6114 7.74685 12.4905 7.53819 12.1326 L 5.85442 9.24522 C 5.64036 8.87814 5.01655 8.65553 4.38288 9.01768 C 3.75152 9.37851 3.64048 10.0145 3.85081 10.3752 L 7.6393 16.8719 C 9.24824 19.631 13.2186 20.5264 16.5856 18.6021 C 19.9502 16.6792 21.1463 12.8377 19.5411 10.085 L 17.0154 5.75387 C 16.8013 5.3868 16.1775 5.16418 15.5439 5.52633 C 14.9125 5.88716 14.8015 6.5232 15.0118 6.88389 L 16.6956 9.7713 C 16.7963 9.94411 16.8239 10.15 16.7721 10.3432 C 16.7203 10.5365 16.5935 10.701 16.4198 10.8003 C 14.8774 11.6818 14.4047 13.3863 15.0799 14.5443 C 15.2886 14.9022 15.1677 15.3614 14.8099 15.57 C 14.4521 15.7787 13.9928 15.6578 13.7842 15.3 C 12.7249 13.4835 13.3917 11.2368 15.0475 9.92287 L 11.1904 3.30839 Z M13.9186 5.00916 C14.1495 4.69498 14.4495 4.42406 14.7996 4.22401 C15.9881 3.54476 17.5953 3.77065 18.3112 4.99825 L20.8368 9.32937 C22.9513 12.9554 21.254 17.6617 17.3299 19.9044 C13.408 22.1458 8.45427 21.2471 6.34352 17.6275 L2.55504 11.1309 C1.83545 9.89687 2.44774 8.39595 3.63859 7.71536 C3.98493 7.51742 4.36684 7.39635 4.75188 7.35452 L3.74971 5.63596 C3.03012 4.40197 3.64241 2.90104 4.83326 2.22046 C5.8839 1.62001 7.26173 1.72687 8.06179 2.60775 C8.29668 2.27483 8.60823 1.98787 8.97453 1.77853 C10.163 1.09928 11.7703 1.32517 12.4861 2.55277 L13.9186 5.00916 Z M 4.41401 17.859 C 4.77183 17.6504 5.23105 17.7713 5.43971 18.1291 C 6.26657 19.5471 7.53066 20.6193 9.08954 21.3151 C 9.46779 21.4839 9.63757 21.9274 9.46875 22.3057 C 9.29993 22.6839 8.85645 22.8537 8.4782 22.6849 C 6.66668 21.8764 5.14688 20.6046 4.14393 18.8847 C 3.93527 18.5269 4.05619 18.0677 4.41401 17.859 Z" fill="#FFFFFF" />
</svg>