<svg xmlns="http://www.w3.org/2000/svg" width="24" height="24" viewBox="0 0 24 24" fill="none">
  <path opacity="0.5" fill-rule="nonzero" clip-rule="nonzero" d="M 3.31307 14.6996 C 3.4791 14.3201 3.92132 14.147 4.3008 14.3131 L 9.3008 16.5006 C 9.68029 16.6666 9.85333 17.1088 9.68731 17.4883 C 9.52128 17.8678 9.07906 18.0408 8.69957 17.8748 L 3.69958 15.6873 C 3.32009 15.5213 3.14705 15.0791 3.31307 14.6996 Z M 20.6873 14.6996 C 20.8533 15.0791 20.6803 15.5213 20.3008 15.6873 L 4.3008 22.6873 C 3.92132 22.8533 3.4791 22.6803 3.31307 22.3008 C 3.14705 21.9213 3.32009 21.4791 3.69958 21.3131 L 19.6996 14.3131 C 20.0791 14.147 20.5213 14.3201 20.6873 14.6996 Z M 13.8131 19.2933 C 13.9791 18.9138 14.4213 18.7408 14.8008 18.9068 L 20.3008 21.3131 C 20.6803 21.4791 20.8533 21.9213 20.6873 22.3008 C 20.5213 22.6803 20.0791 22.8533 19.6996 22.6873 L 14.1996 20.2811 C 13.8201 20.115 13.647 19.6728 13.8131 19.2933 Z" fill="#FFFFFF" />
  <path fill-rule="nonzero" clip-rule="nonzero" d="M11.6 15 C9.73333 15 6 13.7615 6 8.80745 C6 6.71017 7.20839 5.35826 8.26099 4.65274 C8.79638 4.29388 9.48354 4.55201 9.57296 5.17624 C9.75127 6.421 10.8777 7.34944 11.5596 6.27998 C12.1424 5.36614 12.3529 4.13169 12.3529 3.38896 C12.3529 2.28965 13.503 1.59108 14.4009 2.2646 C16.1512 3.5774 18 5.776 18 8.80745 C18 13.7615 13.7333 15 11.6 15 Z M15.2155 9.28163 C14.8188 9.16261 14.4007 9.38774 14.2816 9.78449 C14.1505 10.2215 13.5056 11.25 12 11.25 C11.5858 11.25 11.25 11.5858 11.25 12 C11.25 12.4142 11.5858 12.75 12 12.75 C14.3344 12.75 15.4495 11.1119 15.7184 10.2155 C15.8374 9.81877 15.6123 9.40065 15.2155 9.28163 Z" fill="#FFFFFF" />
</svg>