<svg xmlns="http://www.w3.org/2000/svg" width="24" height="24" viewBox="0 0 24 24" fill="none">
  <path fill-rule="nonzero" clip-rule="nonzero" d="M 12.669 1.51039 C 13.3165 1.14129 14.1524 1.14049 14.8512 1.66463 C 16.6987 3.05041 18.7502 5.44515 18.7502 8.80745 C 18.7502 11.5395 17.5555 13.3134 16.0289 14.3769 C 14.5417 15.4129 12.782 15.75 11.6002 15.75 C 10.5305 15.75 8.95639 15.4019 7.63303 14.3482 C 6.27677 13.2684 5.25019 11.4986 5.25019 8.80745 C 5.25019 6.38397 6.65562 4.82601 7.8436 4.02974 C 8.76465 3.4124 10.1357 3.81393 10.3156 5.06989 C 10.3814 5.52973 10.6183 5.8574 10.7876 5.96791 C 10.8073 5.98079 10.8222 5.98845 10.8328 5.99295 C 10.852 5.97711 10.8848 5.94358 10.9275 5.87672 C 11.4101 5.11992 11.6031 4.03945 11.6031 3.38896 C 11.6031 2.56951 12.0355 1.8715 12.669 1.51039 Z M10.8135 6.00571 C10.8136 6.00585 10.8151 6.00531 10.8179 6.00365 C10.8149 6.00474 10.8135 6.00557 10.8135 6.00571 Z M10.8486 5.9985 C10.851 5.99906 10.8522 5.99912 10.8521 5.99901 C10.8521 5.9989 10.8509 5.99862 10.8486 5.9985 Z M 13.4118 2.81355 C 13.2458 2.90817 13.1031 3.1091 13.1031 3.38896 C 13.1031 4.22392 12.8751 5.61236 12.1922 6.68323 C 11.9452 7.07054 11.5951 7.37014 11.1443 7.467 C 10.6971 7.56312 10.2844 7.43072 9.96764 7.22397 C 9.35866 6.82644 8.94317 6.06752 8.83073 5.2826 C 8.82865 5.26807 8.82561 5.25968 8.82395 5.25582 C 8.82228 5.25193 8.82104 5.25037 8.82077 5.25003 L 8.82076 5.25002 C 8.82056 5.24977 8.8186 5.2472 8.8113 5.24434 C 8.79803 5.23916 8.74964 5.22823 8.67875 5.27575 C 7.76154 5.89052 6.75019 7.03637 6.75019 8.80745 C 6.75019 11.0703 7.59028 12.3968 8.56734 13.1747 C 9.57732 13.9789 10.8032 14.25 11.6002 14.25 C 12.5517 14.25 13.992 13.9678 15.1715 13.1461 C 16.3116 12.3518 17.2502 11.0294 17.2502 8.80745 C 17.2502 6.10685 15.604 4.10439 13.9511 2.86458 C 13.7519 2.7152 13.5638 2.72692 13.4118 2.81355 Z M 15.2157 9.28163 C 15.6124 9.40065 15.8376 9.81877 15.7186 10.2155 C 15.4497 11.1119 14.3346 12.75 12.0002 12.75 C 11.586 12.75 11.2502 12.4142 11.2502 12 C 11.2502 11.5858 11.586 11.25 12.0002 11.25 C 13.5058 11.25 14.1507 10.2215 14.2818 9.78449 C 14.4008 9.38775 14.819 9.16261 15.2157 9.28163 Z M 3.31307 14.6994 C 3.4791 14.3199 3.92132 14.1469 4.3008 14.3129 L 9.3008 16.5004 C 9.68029 16.6664 9.85333 17.1086 9.68731 17.4881 C 9.52128 17.8676 9.07906 18.0406 8.69957 17.8746 L 3.69958 15.6871 C 3.32009 15.5211 3.14705 15.0789 3.31307 14.6994 Z M 20.6873 14.6994 C 20.8533 15.0789 20.6803 15.5211 20.3008 15.6871 L 4.3008 22.6871 C 3.92132 22.8531 3.4791 22.6801 3.31307 22.3006 C 3.14705 21.9211 3.32009 21.4789 3.69958 21.3129 L 19.6996 14.3129 C 20.0791 14.1469 20.5213 14.3199 20.6873 14.6994 Z M 13.8131 19.2931 C 13.9791 18.9137 14.4213 18.7406 14.8008 18.9066 L 20.3008 21.3129 C 20.6803 21.4789 20.8533 21.9211 20.6873 22.3006 C 20.5213 22.6801 20.0791 22.8531 19.6996 22.6871 L 14.1996 20.2809 C 13.8201 20.1148 13.647 19.6726 13.8131 19.2931 Z" fill="#FFFFFF" />
</svg>