<svg xmlns="http://www.w3.org/2000/svg" width="24" height="24" viewBox="0 0 24 24" fill="none">
  <path fill-rule="nonzero" clip-rule="nonzero" d="M 12.4803 2.76059 C 13.2315 2.30898 14.208 2.28697 15.0418 2.88997 C 17.7027 4.81436 20.75 8.2447 20.75 13.1111 C 20.75 16.9175 19.1146 19.3652 17.0325 20.835 C 15.7533 21.738 14.3232 22.2609 13.0331 22.5258 C 12.5577 22.6872 12.1 22.75 11.7333 22.75 C 11.6306 22.75 11.521 22.746 11.4058 22.7374 C 11.242 22.746 11.0843 22.75 10.9333 22.75 C 9.47245 22.75 7.31363 22.2658 5.50409 20.806 C 3.6625 19.3203 2.25 16.8771 2.25 13.1111 C 2.25 10.0344 3.87536 7.9652 5.40507 6.79826 C 6.04192 6.31244 6.80509 6.30435 7.40898 6.63407 C 7.99302 6.95295 8.40231 7.56762 8.47627 8.28958 L 8.5621 9.12741 C 8.59508 9.44943 8.75974 9.71671 8.93177 9.84683 C 9.0125 9.90789 9.07802 9.92706 9.12163 9.93034 C 9.15843 9.93311 9.21562 9.92815 9.30063 9.8729 C 9.95369 9.44849 10.4496 8.68506 10.7833 7.78664 C 11.1138 6.89653 11.25 5.96663 11.25 5.33336 V 5.00973 C 11.25 4.03696 11.7444 3.20294 12.4803 2.76059 Z M12.6314 21.0766 C12.8624 20.99 13.0975 20.867 13.3124 20.6986 C13.8025 20.3145 14.25 19.648 14.25 18.4445 C14.25 17.6907 13.8778 17.1659 13.4657 16.8303 C13.3288 17.3047 13.0028 17.7545 12.5468 17.97 C12.3068 18.0833 11.9989 18.1433 11.6758 18.0481 C11.3471 17.9513 11.1049 17.724 10.9474 17.4553 C10.7214 17.0698 10.6296 16.6315 10.587 16.275 C10.5441 15.9166 10.5441 15.572 10.5441 15.3443 L10.5441 15.3334 C10.5441 15.3178 10.5423 15.3051 10.5398 15.295 C9.61756 15.9772 8.75 17.0422 8.75 18.4445 C8.75 19.6065 9.23942 20.2694 9.82415 20.6704 C10.3335 21.0197 10.9433 21.1848 11.4272 21.2338 C11.7992 21.2101 12.2057 21.1595 12.6314 21.0766 Z M 15.5176 20.0225 C 15.7384 19.8964 15.9557 19.759 16.1675 19.6095 C 17.8631 18.4126 19.25 16.4159 19.25 13.1111 C 19.25 8.92389 16.6279 5.88822 14.1627 4.10543 C 13.838 3.8706 13.5133 3.88975 13.2531 4.04619 C 12.9775 4.21188 12.75 4.5528 12.75 5.00973 V 5.33336 C 12.75 6.14196 12.5831 7.24891 12.1894 8.30886 C 11.7988 9.3605 11.1494 10.4604 10.118 11.1306 C 9.38388 11.6077 8.59212 11.4706 8.02694 11.0432 C 7.49344 10.6397 7.14144 9.97856 7.0699 9.28027 L 6.98408 8.44244 C 6.95826 8.19039 6.82167 8.02241 6.69016 7.95061 C 6.5785 7.88965 6.45645 7.88284 6.31484 7.99087 C 5.04758 8.9576 3.75 10.6247 3.75 13.1111 C 3.75 16.4562 4.98195 18.4575 6.44591 19.6385 C 6.84345 19.9592 7.263 20.2233 7.68701 20.4381 C 7.41384 19.8888 7.25 19.2282 7.25 18.4445 C 7.25 16.341 8.57017 14.8717 9.69806 14.0521 C 10.2109 13.6795 10.8273 13.6907 11.2979 13.9755 C 11.7522 14.2504 12.0441 14.7589 12.0441 15.3334 C 12.0441 15.5682 12.0448 15.8335 12.0763 16.0969 C 12.0815 16.14 12.0873 16.1814 12.0938 16.221 C 12.254 15.8525 12.5484 15.5666 12.897 15.4155 C 13.3152 15.2342 13.847 15.2379 14.2912 15.5719 C 14.9907 16.098 15.75 17.0424 15.75 18.4445 C 15.75 19.0383 15.666 19.5627 15.5176 20.0225 Z" fill="#FFFFFF" />
</svg>