<svg xmlns="http://www.w3.org/2000/svg" width="24" height="24" viewBox="0 0 24 24" fill="none">
  <path fill-rule="nonzero" clip-rule="nonzero" d="M 8.88692 4.29067 C 6.9373 6.1337 4.75 9.30827 4.75 13.504 C 4.75 17.1845 7.94921 20.25 12 20.25 C 16.0508 20.25 19.25 17.1845 19.25 13.504 C 19.25 10.2368 17.571 7.61506 16.2748 6.22564 C 15.8821 7.05683 15.3158 8.02557 14.6004 8.82749 C 13.823 9.69893 12.7657 10.4863 11.4773 10.5057 C 10.6041 10.6042 9.51304 10.2586 8.92606 9.04898 C 8.42964 8.02598 8.35251 6.49242 8.88692 4.29067 Z M 10.0973 2.48174 C 10.5013 2.7761 10.7142 3.31074 10.555 3.85809 C 9.81189 6.41339 9.96504 7.75422 10.2756 8.39413 C 10.5457 8.95089 10.9793 9.05949 11.3291 9.01267 L 11.3786 9.00604 H 11.4286 C 12.1073 9.00604 12.806 8.58561 13.4811 7.82892 C 14.143 7.08691 14.681 6.13116 15.0352 5.32966 C 15.3609 4.59278 16.3992 4.22569 17.0905 4.91217 C 18.5794 6.3908 20.75 9.49532 20.75 13.504 C 20.75 18.1034 16.7858 21.75 12 21.75 C 7.21423 21.75 3.25 18.1034 3.25 13.504 C 3.25 8.20875 6.32627 4.40864 8.61092 2.53539 C 9.08007 2.15071 9.67925 2.17718 10.0973 2.48174 Z" fill="#FFFFFF" />
</svg>