<svg xmlns="http://www.w3.org/2000/svg" width="24" height="24" viewBox="0 0 24 24" fill="none">
  <path fill-rule="nonzero" clip-rule="nonzero" d="M 11.9426 1.25 H 12.0574 C 14.3658 1.24999 16.1748 1.24998 17.5863 1.43975 C 19.031 1.63399 20.1711 2.03933 21.0659 2.93414 C 21.9607 3.82895 22.366 4.96897 22.5603 6.41371 C 22.75 7.82519 22.75 9.63423 22.75 11.9426 V 12.0574 C 22.75 14.3658 22.75 16.1748 22.5603 17.5863 C 22.366 19.031 21.9607 20.1711 21.0659 21.0659 C 20.1711 21.9607 19.031 22.366 17.5863 22.5603 C 16.1748 22.75 14.3658 22.75 12.0574 22.75 H 11.9426 C 9.63423 22.75 7.82519 22.75 6.41371 22.5603 C 4.96897 22.366 3.82895 21.9607 2.93414 21.0659 C 2.03933 20.1711 1.63399 19.031 1.43975 17.5863 C 1.24998 16.1748 1.24999 14.3658 1.25 12.0574 V 11.9426 C 1.24999 9.63423 1.24998 7.82519 1.43975 6.41371 C 1.63399 4.96897 2.03933 3.82895 2.93414 2.93414 C 3.82895 2.03933 4.96897 1.63399 6.41371 1.43975 C 7.82519 1.24998 9.63423 1.24999 11.9426 1.25 Z M 6.61358 2.92637 C 5.33517 3.09825 4.56445 3.42514 3.9948 3.9948 C 3.42514 4.56445 3.09825 5.33517 2.92637 6.61358 C 2.75159 7.91356 2.75 9.62177 2.75 12 C 2.75 14.3782 2.75159 16.0864 2.92637 17.3864 C 3.09825 18.6648 3.42514 19.4355 3.9948 20.0052 C 4.56445 20.5749 5.33517 20.9018 6.61358 21.0736 C 7.91356 21.2484 9.62177 21.25 12 21.25 C 14.3782 21.25 16.0864 21.2484 17.3864 21.0736 C 18.6648 20.9018 19.4355 20.5749 20.0052 20.0052 C 20.5749 19.4355 20.9018 18.6648 21.0736 17.3864 C 21.2484 16.0864 21.25 14.3782 21.25 12 C 21.25 9.62177 21.2484 7.91356 21.0736 6.61358 C 20.9018 5.33517 20.5749 4.56445 20.0052 3.9948 C 19.4355 3.42514 18.6648 3.09825 17.3864 2.92637 C 16.0864 2.75159 14.3782 2.75 12 2.75 C 9.62177 2.75 7.91356 2.75159 6.61358 2.92637 Z M 12.4862 6.29705 C 13.073 5.95136 13.8336 5.95308 14.4603 6.4389 C 16.0188 7.64708 17.75 9.73584 17.75 12.6667 C 17.75 15.0444 16.7425 16.6029 15.4382 17.542 C 14.1722 18.4535 12.6756 18.75 11.6667 18.75 C 10.7467 18.75 9.40248 18.4415 8.27345 17.5125 C 7.11373 16.5582 6.25 15.0049 6.25 12.6667 C 6.25 10.4868 7.50771 9.10113 8.54104 8.41495 C 8.92272 8.1615 9.40644 8.08161 9.84256 8.25147 C 10.3056 8.43182 10.6187 8.86017 10.6473 9.3909 C 10.657 9.57046 10.699 9.73649 10.7576 9.87013 C 10.7856 9.93407 10.8147 9.98441 10.8411 10.0228 C 11.3119 9.37037 11.5441 8.47891 11.5441 8 C 11.5441 7.26882 11.9175 6.63203 12.4862 6.29705 Z M 13.2475 7.58946 C 13.1499 7.64698 13.0441 7.7844 13.0441 8 C 13.0441 8.79882 12.7065 10.0268 12.0228 10.9481 C 11.7843 11.2694 11.4518 11.5304 11.026 11.5904 C 10.5976 11.6509 10.2283 11.4864 9.96514 11.27 C 9.54488 10.9245 9.28031 10.3695 9.18514 9.79609 C 8.48247 10.3262 7.75 11.2597 7.75 12.6667 C 7.75 14.5951 8.44182 15.7085 9.22655 16.3542 C 10.042 17.0252 11.0311 17.25 11.6667 17.25 C 12.4355 17.25 13.6055 17.0132 14.5618 16.3247 C 15.4798 15.6637 16.25 14.5556 16.25 12.6667 C 16.25 10.3758 14.8998 8.67751 13.5413 7.6244 C 13.4689 7.56826 13.4137 7.5559 13.3786 7.55404 C 13.3404 7.55201 13.2957 7.56111 13.2475 7.58946 Z" fill="#FFFFFF" />
</svg>