<svg xmlns="http://www.w3.org/2000/svg" width="24" height="24" viewBox="0 0 24 24" fill="none">
  <path fill-rule="nonzero" clip-rule="nonzero" d="M3.46447 3.46447 C4.92893 2 7.28595 2 12 2 C16.714 2 19.0711 2 20.5355 3.46447 C22 4.92893 22 7.28595 22 12 C22 16.714 22 19.0711 20.5355 20.5355 C19.0711 22 16.714 22 12 22 C7.28595 22 4.92893 22 3.46447 20.5355 C2 19.0711 2 16.714 2 12 C2 7.28595 2 4.92893 3.46447 3.46447 Z M17 12.6667 C17 10.0558 15.4593 8.1623 14.0008 7.03165 C13.2525 6.45158 12.2941 7.05322 12.2941 8 C12.2941 8.64272 12.0054 9.71298 11.4205 10.5011 C10.7814 11.3622 9.95616 10.5021 9.89841 9.4313 C9.87201 8.94191 9.36421 8.76863 8.95593 9.03974 C8.06292 9.63275 7 10.8109 7 12.6667 C7 16.9333 10.1111 18 11.6667 18 C13.4444 18 17 16.9333 17 12.6667 Z" fill="#FFFFFF" />
</svg>