<svg xmlns="http://www.w3.org/2000/svg" width="24" height="24" viewBox="0 0 24 24" fill="none">
  <path fill-rule="nonzero" clip-rule="nonzero" d="M 10.2195 1.64611 C 10.7841 1.38221 11.3919 1.25 12 1.25 C 12.6081 1.25 13.2159 1.38221 13.7805 1.64611 C 15.9556 2.66278 17.6944 4.56688 18.8844 6.75814 C 20.076 8.95209 20.75 11.4916 20.75 13.8567 C 20.75 18.7557 16.845 22.75 12 22.75 C 7.15501 22.75 3.25 18.7557 3.25 13.8567 C 3.25 11.4916 3.92403 8.95209 5.11556 6.75814 C 6.30562 4.56688 8.04437 2.66278 10.2195 1.64611 Z M 11.25 2.85638 C 11.1157 2.89525 10.9835 2.94478 10.8546 3.005 C 9.04602 3.85036 7.51624 5.48075 6.4337 7.47402 C 5.35263 9.46459 4.75 11.7596 4.75 13.8567 C 4.75 17.6927 7.60821 20.8285 11.25 21.2108 V 2.85638 Z M 12.75 2.85638 V 7.18934 L 15.378 4.56137 C 14.6988 3.91209 13.9496 3.38092 13.1454 3.005 C 13.0165 2.94478 12.8843 2.89525 12.75 2.85638 Z M 16.3862 5.67443 L 12.75 9.31066 V 12.6893 L 17.7044 7.73496 C 17.6593 7.64743 17.6132 7.56044 17.5663 7.47402 C 17.2175 6.83177 16.8223 6.2272 16.3862 5.67443 Z M 18.3577 9.20294 L 12.75 14.8107 V 17.6893 L 18.9696 11.4697 L 19.0175 11.5176 C 18.8669 10.7404 18.6451 9.96116 18.3577 9.20294 Z M 19.2373 13.3234 L 12.75 19.8107 V 21.2108 C 16.3918 20.8285 19.25 17.6927 19.25 13.8567 C 19.25 13.6802 19.2457 13.5024 19.2373 13.3234 Z" fill="#FFFFFF" />
</svg>