<svg xmlns="http://www.w3.org/2000/svg" width="24" height="24" viewBox="0 0 24 24" fill="none">
  <path fill-rule="nonzero" clip-rule="nonzero" d="M12.052 1.25 C12.9505 1.24997 13.6997 1.24995 14.2945 1.32991 C14.9223 1.41432 15.4891 1.59999 15.9445 2.05546 C16.4 2.51093 16.5857 3.07773 16.6701 3.70552 C16.7501 4.3003 16.75 5.04954 16.75 5.94801 L16.75 6.02572 C18.7712 6.09185 19.9849 6.32803 20.8284 7.17157 C21.5226 7.86577 21.8055 8.81067 21.9207 10.25 L2.07926 10.25 C2.19451 8.81067 2.47737 7.86577 3.17157 7.17157 C4.01511 6.32803 5.22882 6.09185 7.25 6.02572 L7.25 5.94799 C7.24997 5.04951 7.24995 4.3003 7.32991 3.70552 C7.41432 3.07773 7.59999 2.51093 8.05546 2.05546 C8.51093 1.59999 9.07773 1.41432 9.70552 1.32991 C10.3003 1.24995 11.0495 1.24997 11.948 1.25 L12.052 1.25 Z M 15.25 6.00189 V 6 C 15.25 5.03599 15.2484 4.38843 15.1835 3.9054 C 15.1214 3.44393 15.0142 3.24644 14.8839 3.11612 C 14.7536 2.9858 14.5561 2.87858 14.0946 2.81654 C 13.6116 2.7516 12.964 2.75 12 2.75 C 11.036 2.75 10.3884 2.7516 9.90539 2.81654 C 9.44393 2.87858 9.24644 2.9858 9.11612 3.11612 C 8.9858 3.24644 8.87858 3.44393 8.81654 3.9054 C 8.7516 4.38843 8.75 5.03599 8.75 6 V 6.00189 C 9.14203 6 9.55807 6 10 6 H 14 C 14.4419 6 14.858 6 15.25 6.00189 Z" fill="#FFFFFF" />
  <path d="M2 14C2 13.161 2 12.4153 2.0129 11.75H21.9871C22 12.4153 22 13.161 22 14C22 14.839 22 15.5847 21.9871 16.25L2.0129 16.25C2 15.5847 2 14.839 2 14Z" fill="#FFFFFF" />
  <path d="M2.07926 17.75C2.19451 19.1893 2.47737 20.1342 3.17157 20.8284C4.34315 22 6.22876 22 10 22H14C17.7712 22 19.6569 22 20.8284 20.8284C21.5226 20.1342 21.8055 19.1893 21.9207 17.75H2.07926Z" fill="#FFFFFF" />
</svg>