<svg xmlns="http://www.w3.org/2000/svg" width="24" height="24" viewBox="0 0 24 24" fill="none">
  <path fill-rule="nonzero" clip-rule="nonzero" d="M 11.948 1.25 H 12.052 C 12.9505 1.24997 13.6997 1.24995 14.2945 1.32991 C 14.9223 1.41432 15.4891 1.59999 15.9445 2.05546 C 16.4 2.51093 16.5857 3.07773 16.6701 3.70552 C 16.7292 4.14512 16.7446 4.66909 16.7486 5.27533 C 17.3971 5.29614 17.9752 5.33406 18.489 5.40314 C 19.6614 5.56076 20.6104 5.89288 21.3588 6.64124 C 22.1071 7.38961 22.4392 8.33856 22.5969 9.51098 C 22.75 10.6502 22.75 12.1058 22.75 13.9436 V 14.0564 C 22.75 15.8942 22.75 17.3498 22.5969 18.489 C 22.4392 19.6614 22.1071 20.6104 21.3588 21.3588 C 20.6104 22.1071 19.6614 22.4392 18.489 22.5969 C 17.3498 22.75 15.8942 22.75 14.0564 22.75 H 9.94359 C 8.10583 22.75 6.65019 22.75 5.51098 22.5969 C 4.33856 22.4392 3.38961 22.1071 2.64124 21.3588 C 1.89288 20.6104 1.56076 19.6614 1.40314 18.489 C 1.24997 17.3498 1.24998 15.8942 1.25 14.0564 V 13.9436 C 1.24998 12.1058 1.24997 10.6502 1.40314 9.51098 C 1.56076 8.33856 1.89288 7.38961 2.64124 6.64124 C 3.38961 5.89288 4.33856 5.56076 5.51098 5.40314 C 6.02475 5.33406 6.60288 5.29614 7.2514 5.27533 C 7.2554 4.66909 7.27081 4.14512 7.32991 3.70552 C 7.41432 3.07773 7.59999 2.51093 8.05546 2.05546 C 8.51093 1.59999 9.07773 1.41432 9.70552 1.32991 C 10.3003 1.24995 11.0495 1.24997 11.948 1.25 Z M 8.7518 5.25178 C 9.12993 5.24999 9.52694 5.25 9.94358 5.25 H 14.0564 C 14.4731 5.25 14.8701 5.24999 15.2482 5.25178 C 15.244 4.68146 15.23 4.25125 15.1835 3.90539 C 15.1214 3.44393 15.0142 3.24644 14.8839 3.11612 C 14.7536 2.9858 14.5561 2.87858 14.0946 2.81654 C 13.6116 2.7516 12.964 2.75 12 2.75 C 11.036 2.75 10.3884 2.7516 9.90539 2.81654 C 9.44393 2.87858 9.24643 2.9858 9.11612 3.11612 C 8.9858 3.24644 8.87858 3.44393 8.81654 3.90539 C 8.77004 4.25125 8.75601 4.68146 8.7518 5.25178 Z M 5.25 6.9659 C 4.51924 7.11259 4.05586 7.34795 3.7019 7.70191 C 3.27869 8.12511 3.02502 8.70476 2.88976 9.71085 C 2.75159 10.7385 2.75 12.0932 2.75 14 C 2.75 15.9068 2.75159 17.2615 2.88976 18.2892 C 3.02502 19.2952 3.27869 19.8749 3.7019 20.2981 C 4.05586 20.6521 4.51924 20.8874 5.25 21.0341 V 18.7084 C 5.04984 18.6695 4.81689 18.5847 4.61612 18.3839 C 4.38032 18.1481 4.30448 17.8679 4.27499 17.6486 C 4.24982 17.4614 4.24991 17.2396 4.24999 17.0344 C 4.25 17.0229 4.25 17.0114 4.25 17 V 16 C 4.25 15.9886 4.25 15.9771 4.24999 15.9656 C 4.24991 15.7604 4.24982 15.5386 4.27499 15.3514 C 4.30448 15.1321 4.38032 14.8519 4.61612 14.6161 C 4.81689 14.4153 5.04984 14.3305 5.25 14.2916 V 6.9659 Z M 6.75 6.79756 V 14.25 H 10 C 10.0114 14.25 10.0229 14.25 10.0344 14.25 C 10.2396 14.2499 10.4614 14.2498 10.6486 14.275 C 10.8679 14.3045 11.1481 14.3803 11.3839 14.6161 C 11.6197 14.8519 11.6955 15.1321 11.725 15.3514 C 11.7502 15.5386 11.7501 15.7604 11.75 15.9656 C 11.75 15.9771 11.75 15.9886 11.75 16 V 17 C 11.75 17.0114 11.75 17.0229 11.75 17.0344 C 11.7501 17.2396 11.7502 17.4614 11.725 17.6486 C 11.6955 17.8679 11.6197 18.1481 11.3839 18.3839 C 11.1481 18.6197 10.8679 18.6955 10.6486 18.725 C 10.4614 18.7502 10.2396 18.7501 10.0344 18.75 C 10.0229 18.75 10.0114 18.75 10 18.75 H 6.75 V 21.2024 C 7.61719 21.2492 8.67537 21.25 10 21.25 H 14 C 15.3246 21.25 16.3828 21.2492 17.25 21.2024 V 6.79756 C 16.3828 6.75077 15.3246 6.75 14 6.75 H 10 C 8.67537 6.75 7.61719 6.75077 6.75 6.79756 Z M 18.75 6.9659 V 21.0341 C 19.4808 20.8874 19.9441 20.6521 20.2981 20.2981 C 20.7213 19.8749 20.975 19.2952 21.1102 18.2892 C 21.2484 17.2615 21.25 15.9068 21.25 14 C 21.25 12.0932 21.2484 10.7385 21.1102 9.71085 C 20.975 8.70476 20.7213 8.12511 20.2981 7.70191 C 19.9441 7.34795 19.4808 7.11259 18.75 6.9659 Z M 5.75115 15.7512 C 5.75004 15.8206 5.75 15.9009 5.75 16 V 17 C 5.75 17.0991 5.75003 17.1794 5.75115 17.2488 C 5.82061 17.25 5.90092 17.25 6 17.25 H 10 C 10.0991 17.25 10.1794 17.25 10.2488 17.2488 C 10.25 17.1794 10.25 17.0991 10.25 17 V 16 C 10.25 15.9009 10.25 15.8206 10.2488 15.7512 C 10.1794 15.75 10.0991 15.75 10 15.75 H 6 C 5.90092 15.75 5.82061 15.75 5.75115 15.7512 Z" fill="#FFFFFF" />
</svg>