<svg xmlns="http://www.w3.org/2000/svg" width="24" height="24" viewBox="0 0 24 24" fill="none">
  <path fill-rule="nonzero" clip-rule="nonzero" d="M 22 6.1875 V 8.3 C 22 9.95685 20.5778 11.3 18.8235 11.3 C 18.2388 11.3 17.7647 11.7477 17.7647 12.3 V 17.25 H 13 V 8.3125 C 13 8.02234 13 7.87726 13.0064 7.75466 C 13.14 5.18614 15.3147 3.13221 18.0343 3.00602 C 18.1642 3 18.3178 3 18.625 3 C 18.8093 3 18.9015 3 18.9794 3.00361 C 20.6112 3.07932 21.916 4.31169 21.9962 5.8528 C 22 5.92634 22 6.01349 22 6.1875 Z M 20.25 6 C 20.25 5.58579 19.9142 5.25 19.5 5.25 C 19.0858 5.25 18.75 5.58579 18.75 6 V 8.5 C 18.75 8.91421 19.0858 9.25 19.5 9.25 C 19.9142 9.25 20.25 8.91421 20.25 8.5 V 6 Z" fill="#FFFFFF" />
  <path d="M15.3824 21C14.0666 21 13 19.9926 13 18.75H17.7647C17.7647 19.9926 16.6981 21 15.3824 21Z" fill="#FFFFFF" />
  <path fill-rule="nonzero" clip-rule="nonzero" d="M2 6.1875 C2 6.01349 2 5.92634 2.00383 5.8528 C2.08399 4.31169 3.38884 3.07932 5.02061 3.00361 C5.09849 3 5.19066 3 5.375 3 C5.68223 3 5.83584 3 5.96565 3.00602 C8.68526 3.13221 10.86 5.18614 10.9936 7.75466 C11 7.87726 11 8.02234 11 8.3125 L11 17.25 L6.23529 17.25 L6.23529 12.3 C6.23529 11.7477 5.76124 11.3 5.17647 11.3 C3.42215 11.3 2 9.95685 2 8.3 L2 6.1875 Z M3.75 6 L3.75 8.5 C3.75 8.91421 4.08579 9.25 4.5 9.25 C4.91421 9.25 5.25 8.91421 5.25 8.5 L5.25 6 C5.25 5.58579 4.91421 5.25 4.5 5.25 C4.08579 5.25 3.75 5.58579 3.75 6 Z" fill="#FFFFFF" />
  <path d="M8.61765 21C9.93338 21 11 19.9926 11 18.75H6.23529C6.23529 19.9926 7.30191 21 8.61765 21Z" fill="#FFFFFF" />
</svg>