<svg xmlns="http://www.w3.org/2000/svg" width="24" height="24" viewBox="0 0 24 24" fill="none">
  <path fill-rule="nonzero" clip-rule="nonzero" d="M 6.125 2.75 C 5.08947 2.75 4.25 3.58947 4.25 4.625 V 5.94143 C 4.25 6.89168 5.02034 7.66202 5.97059 7.66202 C 6.83963 7.66202 7.54412 8.36651 7.54412 9.23555 V 10.25 H 9.75 V 6.375 C 9.75 4.37297 8.12704 2.75 6.125 2.75 Z M11.25 10.25 L12.75 10.25 L12.75 6.375 C12.75 3.54454 15.0445 1.25 17.875 1.25 C19.739 1.25 21.25 2.76104 21.25 4.625 L21.25 5.94143 C21.25 7.72011 19.8081 9.16202 18.0294 9.16202 C17.9888 9.16202 17.9559 9.19494 17.9559 9.23555 L17.9559 10.25 L19.2036 10.25 C19.5627 10.25 19.8923 10.2499 20.1639 10.2806 C20.46 10.3139 20.7784 10.3914 21.0653 10.6116 C21.1867 10.7047 21.2953 10.8133 21.3884 10.9347 C21.6086 11.2216 21.6861 11.54 21.7195 11.8361 C21.7501 12.1077 21.75 12.4373 21.75 12.7964 L21.75 13.0453 C21.75 14.8818 21.75 16.3214 21.6263 17.4635 C21.5 18.6291 21.2377 19.5734 20.6519 20.3798 C20.2972 20.8679 19.8679 21.2972 19.3798 21.6518 C18.5734 22.2377 17.6291 22.5 16.4635 22.6263 C15.3214 22.75 13.8818 22.75 12.0453 22.75 L11.9547 22.75 C10.1182 22.75 8.67861 22.75 7.53648 22.6263 C6.37094 22.5 5.42656 22.2377 4.62024 21.6518 C4.13209 21.2972 3.70281 20.8679 3.34816 20.3798 C2.76233 19.5734 2.50001 18.6291 2.37373 17.4635 C2.24999 16.3214 2.25 14.8818 2.25 13.0452 L2.25 12.7965 C2.24997 12.4373 2.24993 12.1077 2.28056 11.8361 C2.31393 11.54 2.39143 11.2216 2.61164 10.9347 C2.70474 10.8133 2.81334 10.7047 2.93467 10.6116 C3.22165 10.3914 3.54005 10.3139 3.83606 10.2806 C4.10769 10.2499 4.43728 10.25 4.79646 10.25 L6.04412 10.25 L6.04412 9.23555 C6.04412 9.19494 6.0112 9.16202 5.97059 9.16202 C4.19191 9.16202 2.75 7.72011 2.75 5.94143 L2.75 4.625 C2.75 2.76104 4.26104 1.25 6.125 1.25 C8.95546 1.25 11.25 3.54454 11.25 6.375 L11.25 10.25 Z M 8.99991 11.75 C 9.22796 12.0536 9.59105 12.25 10 12.25 H 14 C 14.409 12.25 14.772 12.0536 15.0001 11.75 H 8.99991 Z M 16.6465 11.75 C 16.32 12.9043 15.2588 13.75 14 13.75 H 10 C 8.74123 13.75 7.67999 12.9043 7.35352 11.75 H 4.83334 C 4.42497 11.75 4.18146 11.7511 4.0041 11.7711 C 3.90056 11.7828 3.85833 11.7975 3.84591 11.8031 C 3.82997 11.8156 3.81561 11.83 3.80314 11.8459 C 3.79753 11.8583 3.78279 11.9006 3.77111 12.0041 C 3.75112 12.1815 3.75 12.425 3.75 12.8333 V 13 C 3.75 14.8916 3.75103 16.25 3.86501 17.302 C 3.97746 18.3399 4.1926 18.9901 4.56168 19.4981 C 4.82382 19.8589 5.14112 20.1762 5.50192 20.4383 C 6.00992 20.8074 6.66014 21.0225 7.69805 21.135 C 8.75 21.249 10.1084 21.25 12 21.25 C 13.8916 21.25 15.25 21.249 16.302 21.135 C 17.3399 21.0225 17.9901 20.8074 18.4981 20.4383 C 18.8589 20.1762 19.1762 19.8589 19.4383 19.4981 C 19.8074 18.9901 20.0226 18.3399 20.135 17.302 C 20.249 16.25 20.25 14.8916 20.25 13 V 12.8333 C 20.25 12.425 20.2489 12.1815 20.2289 12.0041 C 20.2172 11.9005 20.2025 11.8583 20.1969 11.8459 C 20.1844 11.83 20.17 11.8156 20.1541 11.8031 C 20.1417 11.7975 20.0995 11.7828 19.9959 11.7711 C 19.8186 11.7511 19.575 11.75 19.1667 11.75 H 16.6465 Z M16.4559 10.25 L16.4559 9.23555 C16.4559 8.36651 17.1604 7.66202 18.0294 7.66202 C18.9797 7.66202 19.75 6.89168 19.75 5.94143 L19.75 4.625 C19.75 3.58947 18.9105 2.75 17.875 2.75 C15.873 2.75 14.25 4.37297 14.25 6.375 L14.25 10.25 L16.4559 10.25 Z" fill="#FFFFFF" />
</svg>