<svg xmlns="http://www.w3.org/2000/svg" width="24" height="24" viewBox="0 0 24 24" fill="none">
  <path fill-rule="nonzero" clip-rule="nonzero" d="M 11.9548 1.25 H 12.0452 C 13.8818 1.24999 15.3214 1.24999 16.4635 1.37373 C 17.6291 1.50001 18.5734 1.76232 19.3798 2.34815 C 19.8679 2.70281 20.2972 3.13209 20.6518 3.62024 C 21.2377 4.42656 21.5 5.37094 21.6263 6.53648 C 21.75 7.67861 21.75 9.1182 21.75 10.9547 V 13.0453 C 21.75 14.8818 21.75 16.3214 21.6263 17.4635 C 21.5 18.6291 21.2377 19.5734 20.6518 20.3798 C 20.2972 20.8679 19.8679 21.2972 19.3798 21.6518 C 18.5734 22.2377 17.6291 22.5 16.4635 22.6263 C 15.3214 22.75 13.8818 22.75 12.0453 22.75 H 11.9547 C 10.1182 22.75 8.67861 22.75 7.53648 22.6263 C 6.37094 22.5 5.42656 22.2377 4.62024 21.6518 C 4.13209 21.2972 3.70281 20.8679 3.34815 20.3798 C 2.76232 19.5734 2.50001 18.6291 2.37373 17.4635 C 2.24999 16.3214 2.24999 14.8818 2.25 13.0452 V 10.9548 C 2.24999 9.11821 2.24999 7.67861 2.37373 6.53648 C 2.50001 5.37094 2.76232 4.42656 3.34815 3.62024 C 3.70281 3.13209 4.13209 2.70281 4.62024 2.34815 C 5.42656 1.76232 6.37094 1.50001 7.53648 1.37373 C 8.67861 1.24999 10.1182 1.24999 11.9548 1.25 Z M 7.69805 2.865 C 6.66013 2.97745 6.00992 3.19259 5.50191 3.56168 C 5.14111 3.82382 4.82382 4.14111 4.56168 4.50191 C 4.19259 5.00992 3.97745 5.66013 3.865 6.69805 C 3.8158 7.15217 3.78765 7.66341 3.77154 8.25 H 6.35352 C 6.67998 7.09575 7.74122 6.25 9 6.25 H 15 C 16.2588 6.25 17.32 7.09575 17.6465 8.25 H 20.2285 C 20.2124 7.66341 20.1842 7.15217 20.135 6.69805 C 20.0225 5.66013 19.8074 5.00992 19.4383 4.50191 C 19.1762 4.14111 18.8589 3.82382 18.4981 3.56168 C 17.9901 3.19259 17.3399 2.97745 16.302 2.865 C 15.25 2.75103 13.8916 2.75 12 2.75 C 10.1084 2.75 8.74999 2.75103 7.69805 2.865 Z M 20.2484 9.75 H 17.6465 C 17.32 10.9043 16.2588 11.75 15 11.75 H 9 C 7.74122 11.75 6.67998 10.9043 6.35352 9.75 H 3.75163 C 3.75006 10.1391 3.75 10.5548 3.75 11 V 13 C 3.75 14.8916 3.75103 16.25 3.865 17.302 C 3.97745 18.3399 4.19259 18.9901 4.56168 19.4981 C 4.82382 19.8589 5.14111 20.1762 5.50191 20.4383 C 6.00992 20.8074 6.66013 21.0225 7.69805 21.135 C 8.74999 21.249 10.1084 21.25 12 21.25 C 13.8916 21.25 15.25 21.249 16.302 21.135 C 17.3399 21.0225 17.9901 20.8074 18.4981 20.4383 C 18.8589 20.1762 19.1762 19.8589 19.4383 19.4981 C 19.8074 18.9901 20.0225 18.3399 20.135 17.302 C 20.249 16.25 20.25 14.8916 20.25 13 V 11 C 20.25 10.5548 20.2499 10.1391 20.2484 9.75 Z M 9 7.75 C 8.30964 7.75 7.75 8.30964 7.75 9 C 7.75 9.69036 8.30964 10.25 9 10.25 H 15 C 15.6904 10.25 16.25 9.69036 16.25 9 C 16.25 8.30964 15.6904 7.75 15 7.75 H 9 Z" fill="#FFFFFF" />
</svg>