<svg xmlns="http://www.w3.org/2000/svg" width="24" height="24" viewBox="0 0 24 24" fill="none">
  <path d="M19.6176 22C20.9334 22 22 20.8807 22 19.5H17.2353C17.2353 20.8807 18.3019 22 19.6176 22Z" fill="#FFFFFF" />
  <path fill-rule="nonzero" clip-rule="nonzero" d="M 13 7.88889 V 5.54167 C 13 5.34832 13 5.25148 13.0038 5.16977 C 13.084 3.45743 14.3888 2.08814 16.0206 2.00402 C 16.0985 2 16.1907 2 16.375 2 C 16.6822 2 16.8358 2 16.9657 2.00669 C 19.6853 2.1469 21.86 4.42905 21.9936 7.28296 C 22 7.41917 22 7.58038 22 7.90278 V 17.8333 H 17.2353 V 12.3333 C 17.2353 11.7197 16.7612 11.2222 16.1765 11.2222 C 14.4222 11.2222 13 9.72984 13 7.88889 Z M14.6765 5.125 L14.6765 7.90278 C14.6765 8.36302 15.0123 8.73611 15.4265 8.73611 C15.8407 8.73611 16.1765 8.36302 16.1765 7.90278 L16.1765 5.125 C16.1765 4.66476 15.8407 4.29167 15.4265 4.29167 C15.0123 4.29167 14.6765 4.66476 14.6765 5.125 Z" fill="#FFFFFF" />
  <g opacity="0.5" />
  <g opacity="0.5" />
  <path fill-rule="nonzero" clip-rule="nonzero" d="M6 13.25 L7.5 13.25 C8.6088 13.25 9.75 14.0232 9.75 15.25 C9.75 16.0358 9.28176 16.6355 8.65373 16.9651 L9.64312 18.6141 C9.85623 18.9693 9.74106 19.43 9.38587 19.6431 C9.03069 19.8562 8.56999 19.7411 8.35688 19.3859 L7.07536 17.25 L6.75 17.25 L6.75 19 C6.75 19.4142 6.41421 19.75 6 19.75 C5.58579 19.75 5.25 19.4142 5.25 19 L5.25 14 C5.25 13.5858 5.58579 13.25 6 13.25 Z M 6.75 14.75 V 15.75 H 7.5 C 8.04806 15.75 8.25 15.4039 8.25 15.25 C 8.25 15.0961 8.04806 14.75 7.5 14.75 H 6.75 Z" fill="#FFFFFF" />
</svg>