<svg xmlns="http://www.w3.org/2000/svg" width="24" height="24" viewBox="0 0 24 24" fill="none">
  <path fill-rule="nonzero" clip-rule="nonzero" d="M 15.3759 1.25 L 15.4445 1.25008 C 18.9194 1.26804 21.732 4.08057 21.7499 7.55549 L 21.7499 7.55851 L 21.75 7.62415 V 19.5201 C 21.75 19.6398 21.75 19.7273 21.7461 19.8053 C 21.6663 21.3953 20.3953 22.6663 18.8053 22.7461 C 18.7273 22.75 18.6399 22.75 18.5202 22.75 H 18.4798 C 18.3601 22.75 18.2727 22.75 18.1947 22.7461 C 16.6047 22.6663 15.3337 21.3953 15.2539 19.8053 C 15.25 19.7273 15.25 19.6399 15.25 19.5201 L 15.25 12 C 15.25 11.8619 15.1381 11.75 15 11.75 C 12.9289 11.75 11.25 10.0711 11.25 8 V 5.375 L 11.25 5.33476 L 11.2501 5.33174 C 11.2617 3.08232 13.0823 1.26168 15.3317 1.25006 L 15.3348 1.25005 L 15.3759 1.25 Z M 15.3395 2.75004 C 15.339 2.75004 15.3385 2.75004 15.3381 2.75004 C 13.9121 2.75817 12.7581 3.91226 12.75 5.33828 C 12.75 5.33869 12.75 5.33909 12.75 5.33949 L 12.75 5.375 V 8 C 12.75 9.24264 13.7574 10.25 15 10.25 C 15.9665 10.25 16.75 11.0335 16.75 12 V 17.9167 H 20.25 V 7.62585 L 20.2499 7.56324 C 20.2499 7.56275 20.2499 7.56226 20.2499 7.56178 C 20.2354 4.91039 18.0896 2.76455 15.4382 2.75007 C 15.4377 2.75007 15.4372 2.75007 15.4368 2.75007 L 15.3759 2.75 H 15.3741 L 15.3395 2.75004 Z M 20.25 19.4167 H 16.75 V 19.5 C 16.75 19.6484 16.7502 19.6948 16.752 19.7302 C 16.7932 20.5508 17.4492 21.2068 18.2698 21.248 C 18.3052 21.2498 18.3516 21.25 18.5 21.25 C 18.6484 21.25 18.6948 21.2498 18.7302 21.248 C 19.5508 21.2068 20.2068 20.5508 20.248 19.7302 C 20.2498 19.6948 20.25 19.6484 20.25 19.5 V 19.4167 Z M 15 4.25 C 15.4142 4.25 15.75 4.58579 15.75 5 V 8 C 15.75 8.41422 15.4142 8.75 15 8.75 C 14.5858 8.75 14.25 8.41422 14.25 8 V 5 C 14.25 4.58579 14.5858 4.25 15 4.25 Z M 9.73501 4.95082 C 9.81741 5.35676 9.55513 5.75263 9.1492 5.83503 C 7.48526 6.17279 6.17279 7.48526 5.83503 9.1492 C 5.75263 9.55514 5.35675 9.81741 4.95082 9.73501 C 4.54488 9.65261 4.28261 9.25674 4.36501 8.8508 C 4.82261 6.59648 6.59648 4.82261 8.8508 4.36501 C 9.25674 4.28261 9.65261 4.54489 9.73501 4.95082 Z M 7.5 11.75 C 4.87665 11.75 2.75 13.8766 2.75 16.5 C 2.75 19.1234 4.87665 21.25 7.5 21.25 C 10.1234 21.25 12.25 19.1234 12.25 16.5 C 12.25 13.8766 10.1234 11.75 7.5 11.75 Z M 1.25 16.5 C 1.25 13.0482 4.04822 10.25 7.5 10.25 C 10.9518 10.25 13.75 13.0482 13.75 16.5 C 13.75 19.9518 10.9518 22.75 7.5 22.75 C 4.04822 22.75 1.25 19.9518 1.25 16.5 Z M 5.25 14 C 5.25 13.5858 5.58579 13.25 6 13.25 H 7.5 C 8.6088 13.25 9.75 14.0232 9.75 15.25 C 9.75 16.0358 9.28176 16.6355 8.65373 16.9651 L 9.64312 18.6141 C 9.85623 18.9693 9.74106 19.43 9.38587 19.6431 C 9.03069 19.8562 8.56999 19.7411 8.35688 19.3859 L 7.07536 17.25 H 6.75 V 19 C 6.75 19.4142 6.41421 19.75 6 19.75 C 5.58579 19.75 5.25 19.4142 5.25 19 V 14 Z M 6.75 14.75 V 15.75 H 7.5 C 8.04806 15.75 8.25 15.4039 8.25 15.25 C 8.25 15.0961 8.04806 14.75 7.5 14.75 H 6.75 Z" fill="#FFFFFF" />
</svg>