<svg xmlns="http://www.w3.org/2000/svg" width="24" height="24" viewBox="0 0 24 24" fill="none">
  <path fill-rule="nonzero" clip-rule="nonzero" d="M18 22 C15.7909 22 14 20.2091 14 18 C14 15.7909 15.7909 14 18 14 C20.2091 14 22 15.7909 22 18 C22 20.2091 20.2091 22 18 22 Z M18.416 15.876 C18.0714 15.6462 17.6057 15.7393 17.376 16.084 L16.376 17.584 C16.2225 17.8141 16.2082 18.11 16.3387 18.3539 C16.4693 18.5978 16.7234 18.75 17 18.75 L17.5986 18.75 L17.376 19.084 C17.1462 19.4286 17.2393 19.8943 17.584 20.124 C17.9286 20.3538 18.3943 20.2607 18.624 19.916 L19.624 18.416 C19.7775 18.1859 19.7918 17.89 19.6613 17.6461 C19.5307 17.4022 19.2766 17.25 19 17.25 L18.4014 17.25 L18.624 16.916 C18.8538 16.5714 18.7607 16.1057 18.416 15.876 Z" fill="#FFFFFF" />
  <path fill-rule="nonzero" clip-rule="nonzero" d="M2 7.1875 C2 7.01349 2 6.92634 2.00383 6.8528 C2.08399 5.31169 3.38884 4.07932 5.02061 4.00361 C5.09849 4 5.19066 4 5.375 4 C5.68223 4 5.83584 4 5.96565 4.00602 C8.68526 4.13221 10.86 6.18614 10.9936 8.75466 C11 8.87726 11 9.02234 11 9.3125 L11 18.25 L6.23529 18.25 L6.23529 13.3 C6.23529 12.7477 5.76124 12.3 5.17647 12.3 C3.42215 12.3 2 10.9569 2 9.3 L2 7.1875 Z M3.75 7 L3.75 9.5 C3.75 9.91421 4.08579 10.25 4.5 10.25 C4.91421 10.25 5.25 9.91421 5.25 9.5 L5.25 7 C5.25 6.58579 4.91421 6.25 4.5 6.25 C4.08579 6.25 3.75 6.58579 3.75 7 Z" fill="#FFFFFF" />
  <path d="M8.61765 22C9.93338 22 11 20.9926 11 19.75H6.23529C6.23529 20.9926 7.30191 22 8.61765 22Z" fill="#FFFFFF" />
  <path fill-rule="nonzero" clip-rule="nonzero" d="M22 7.3 C22 8.95685 20.5778 10.3 18.8235 10.3 C18.2388 10.3 17.7647 10.7477 17.7647 11.3 L17.7647 12.5049 C15.6469 12.5941 13.8387 13.8808 13 15.7055 L13 7.3125 C13 7.02234 13 6.87726 13.0064 6.75466 C13.14 4.18614 15.3147 2.13221 18.0343 2.00602 C18.1642 2 18.3178 2 18.625 2 C18.8093 2 18.9015 2 18.9794 2.00361 C20.6112 2.07932 21.916 3.31169 21.9962 4.8528 C22 4.92634 22 5.01349 22 5.1875 L22 7.3 Z M19.5 4.25 C19.0858 4.25 18.75 4.58579 18.75 5 L18.75 7.5 C18.75 7.91421 19.0858 8.25 19.5 8.25 C19.9142 8.25 20.25 7.91421 20.25 7.5 L20.25 5 C20.25 4.58579 19.9142 4.25 19.5 4.25 Z" fill="#FFFFFF" />
</svg>