<svg xmlns="http://www.w3.org/2000/svg" width="24" height="24" viewBox="0 0 24 24" fill="none">
  <path fill-rule="nonzero" clip-rule="nonzero" d="M 19.1104 2.75271 C 19.0599 2.75023 18.9955 2.75 18.8125 2.75 C 18.5134 2.75 18.391 2.75023 18.2915 2.75512 C 16.1082 2.86238 14.3624 4.60822 14.2551 6.79146 C 14.2502 6.89103 14.25 7.01343 14.25 7.3125 V 13.5 C 14.25 13.9142 13.9142 14.25 13.5 14.25 C 13.0858 14.25 12.75 13.9142 12.75 13.5 V 7.28723 C 12.75 7.0211 12.75 6.85907 12.7569 6.71786 C 12.902 3.76407 15.2641 1.40204 18.2179 1.25693 C 18.3591 1.24999 18.5211 1.24999 18.7873 1.25 L 18.8342 1.25 C 18.9874 1.24999 19.0917 1.24998 19.184 1.25452 C 21.1104 1.34916 22.6508 2.88961 22.7455 4.816 C 22.75 4.90827 22.75 5.01255 22.75 5.16571 V 7.3 C 22.75 9.37107 21.0711 11.05 19 11.05 C 18.8619 11.05 18.75 11.1619 18.75 11.3 V 11.5 C 18.75 11.9142 18.4142 12.25 18 12.25 C 17.5858 12.25 17.25 11.9142 17.25 11.5 V 11.3 C 17.25 10.3335 18.0335 9.55 19 9.55 C 20.2426 9.55 21.25 8.54264 21.25 7.3 V 5.1875 C 21.25 5.00449 21.2498 4.94013 21.2473 4.8896 C 21.1905 3.73377 20.2662 2.80949 19.1104 2.75271 Z M 5.16581 3.25 L 5.21276 3.25 C 5.4789 3.24999 5.64093 3.24999 5.78214 3.25693 C 8.73594 3.40204 11.098 5.76407 11.2431 8.71786 C 11.25 8.85907 11.25 9.0211 11.25 9.28723 V 19.75 C 11.25 21.4069 9.90686 22.75 8.25 22.75 C 6.59315 22.75 5.25 21.4069 5.25 19.75 V 13.3 C 5.25 13.1619 5.13807 13.05 5 13.05 C 2.92893 13.05 1.25 11.3711 1.25 9.3 L 1.25 7.16581 C 1.24999 7.01259 1.24998 6.90829 1.25452 6.816 C 1.34916 4.88961 2.88961 3.34916 4.816 3.25452 C 4.90829 3.24998 5.01259 3.24999 5.16581 3.25 Z M 5.1875 4.75 C 5.0045 4.75 4.94013 4.75023 4.8896 4.75271 C 3.73377 4.80949 2.80949 5.73377 2.75271 6.8896 C 2.75023 6.94013 2.75 7.0045 2.75 7.1875 V 9.3 C 2.75 10.5426 3.75736 11.55 5 11.55 C 5.9665 11.55 6.75 12.3335 6.75 13.3 V 18.25 H 9.75 V 9.3125 C 9.75 9.01343 9.74977 8.89103 9.74488 8.79146 C 9.63763 6.60822 7.89178 4.86238 5.70854 4.75512 C 5.60897 4.75023 5.48657 4.75 5.1875 4.75 Z M 9.75 19.75 H 6.75 C 6.75 20.5784 7.42157 21.25 8.25 21.25 C 9.07843 21.25 9.75 20.5784 9.75 19.75 Z M 19.5 4.25 C 19.9142 4.25 20.25 4.58579 20.25 5 V 7.5 C 20.25 7.91422 19.9142 8.25 19.5 8.25 C 19.0858 8.25 18.75 7.91422 18.75 7.5 V 5 C 18.75 4.58579 19.0858 4.25 19.5 4.25 Z M 4.5 6.25 C 4.91422 6.25 5.25 6.58579 5.25 7 V 9.5 C 5.25 9.91422 4.91422 10.25 4.5 10.25 C 4.08579 10.25 3.75 9.91422 3.75 9.5 V 7 C 3.75 6.58579 4.08579 6.25 4.5 6.25 Z M 18 14.75 C 16.2051 14.75 14.75 16.2051 14.75 18 C 14.75 19.7949 16.2051 21.25 18 21.25 C 19.7949 21.25 21.25 19.7949 21.25 18 C 21.25 16.2051 19.7949 14.75 18 14.75 Z M 13.25 18 C 13.25 15.3766 15.3766 13.25 18 13.25 C 20.6234 13.25 22.75 15.3766 22.75 18 C 22.75 20.6234 20.6234 22.75 18 22.75 C 15.3766 22.75 13.25 20.6234 13.25 18 Z M 18.416 15.876 C 18.7607 16.1057 18.8538 16.5714 18.624 16.916 L 18.4014 17.25 H 19 C 19.2766 17.25 19.5307 17.4022 19.6613 17.6461 C 19.7918 17.89 19.7775 18.1859 19.624 18.416 L 18.624 19.916 C 18.3943 20.2607 17.9286 20.3538 17.584 20.124 C 17.2393 19.8943 17.1462 19.4286 17.376 19.084 L 17.5986 18.75 H 17 C 16.7234 18.75 16.4693 18.5978 16.3387 18.3539 C 16.2082 18.11 16.2225 17.8141 16.376 17.584 L 17.376 16.084 C 17.6057 15.7393 18.0714 15.6462 18.416 15.876 Z" fill="#FFFFFF" />
</svg>