<svg xmlns="http://www.w3.org/2000/svg" width="24" height="24" viewBox="0 0 24 24" fill="none">
  <path fill-rule="nonzero" clip-rule="nonzero" d="M3.95491 4.06107 C4.26331 3.6366 4.6366 3.26331 5.06107 2.95491 C6.3754 2 8.25027 2 12 2 C15.7497 2 17.6246 2 18.9389 2.95491 C19.3634 3.26331 19.7367 3.6366 20.0451 4.06107 C21 5.3754 21 7.25027 21 11 L21 13 C21 16.7497 21 18.6246 20.0451 19.9389 C19.7367 20.3634 19.3634 20.7367 18.9389 21.0451 C17.6246 22 15.7497 22 12 22 C8.25027 22 6.3754 22 5.06107 21.0451 C4.6366 20.7367 4.26331 20.3634 3.95491 19.9389 C3 18.6246 3 16.7497 3 13 L3 11 C3 7.25027 3 5.3754 3.95491 4.06107 Z M 7 8.25 C 6.58579 8.25 6.25 8.58579 6.25 9 C 6.25 9.41421 6.58579 9.75 7 9.75 H 17 C 17.4142 9.75 17.75 9.41421 17.75 9 C 17.75 8.58579 17.4142 8.25 17 8.25 H 7 Z M 12.5857 13.4685 C 12.8444 13.1451 12.792 12.6731 12.4685 12.4143 C 12.1451 12.1556 11.6731 12.208 11.4143 12.5315 L 9.41434 15.0316 C 9.23424 15.2567 9.19913 15.5652 9.32403 15.825 C 9.44892 16.0848 9.7117 16.2501 10 16.2501 H 12.4395 L 11.4144 17.5315 C 11.1556 17.8549 11.208 18.3269 11.5315 18.5856 C 11.8549 18.8444 12.3269 18.792 12.5856 18.4685 L 14.5856 15.9686 C 14.7658 15.7435 14.8009 15.4351 14.676 15.1752 C 14.5511 14.9154 14.2883 14.7501 14 14.7501 H 11.5604 L 12.5857 13.4685 Z" fill="#FFFFFF" />
</svg>