<svg xmlns="http://www.w3.org/2000/svg" width="24" height="24" viewBox="0 0 24 24" fill="none">
  <path fill-rule="evenodd" clip-rule="evenodd" d="M13.265 4.95082C13.1826 5.35675 13.4449 5.75263 13.8508 5.83503C15.5147 6.17279 16.8272 7.48526 17.165 9.1492C17.2474 9.55513 17.6432 9.81741 18.0492 9.73501C18.4551 9.65261 18.7174 9.25674 18.635 8.8508C18.1774 6.59648 16.4035 4.82261 14.1492 4.36501C13.7433 4.28261 13.3474 4.54488 13.265 4.95082Z" fill="#FFFFFF" />
  <path d="M4.38235 22C3.06662 22 2 20.8807 2 19.5H6.76471C6.76471 20.8807 5.69809 22 4.38235 22Z" fill="#FFFFFF" />
  <path fill-rule="nonzero" clip-rule="nonzero" d="M11 7.88889 C11 9.72984 9.57785 11.2222 7.82353 11.2222 C7.23876 11.2222 6.76471 11.7197 6.76471 12.3333 L6.76471 17.8333 L2 17.8333 L2 7.90278 C2 7.58038 2 7.41917 2.00638 7.28296 C2.13998 4.42905 4.31474 2.1469 7.03435 2.00669 C7.16415 2 7.31777 2 7.625 2 C7.80934 2 7.90151 2 7.97939 2.00402 C9.61116 2.08814 10.916 3.45743 10.9962 5.16977 C11 5.25148 11 5.34832 11 5.54167 L11 7.88889 Z M 9.32353 5.125 C 9.32353 4.66476 8.98774 4.29167 8.57353 4.29167 C 8.15932 4.29167 7.82353 4.66476 7.82353 5.125 V 7.90278 C 7.82353 8.36302 8.15932 8.73611 8.57353 8.73611 C 8.98774 8.73611 9.32353 8.36302 9.32353 7.90278 V 5.125 Z" fill="#FFFFFF" />
  <path fill-rule="nonzero" clip-rule="nonzero" d="M 16.5 22 C 13.4624 22 11 19.5376 11 16.5 C 11 13.4624 13.4624 11 16.5 11 C 19.5376 11 22 13.4624 22 16.5 C 22 19.5376 19.5376 22 16.5 22 Z M15.25 13 C14.8358 13 14.5 13.3358 14.5 13.75 L14.5 18.75 C14.5 19.1642 14.8358 19.5 15.25 19.5 L18.25 19.5 C18.6642 19.5 19 19.1642 19 18.75 C19 18.3358 18.6642 18 18.25 18 L16 18 L16 13.75 C16 13.3358 15.6642 13 15.25 13 Z" fill="#FFFFFF" />
</svg>