<svg xmlns="http://www.w3.org/2000/svg" width="24" height="24" viewBox="0 0 24 24" fill="none">
  <path fill-rule="nonzero" clip-rule="nonzero" d="M 7.62585 1.25 L 7.66826 1.25005 C 9.91768 1.26167 11.7383 3.08232 11.7499 5.33174 L 11.75 5.33476 L 11.75 5.37415 L 11.75 8 C 11.75 10.0711 10.0711 11.75 8 11.75 C 7.86193 11.75 7.75 11.8619 7.75 12 V 19.5 C 7.75 21.2949 6.29493 22.75 4.5 22.75 C 2.70507 22.75 1.25 21.2949 1.25 19.5 L 1.25008 7.55549 C 1.26803 4.08057 4.08057 1.26804 7.55548 1.25009 L 7.55851 1.25008 L 7.62585 1.25 Z M 7.56324 2.75007 C 7.56275 2.75007 7.56227 2.75007 7.56179 2.75007 C 4.91039 2.76455 2.76455 4.9104 2.75007 7.56179 C 2.75007 7.56227 2.75007 7.56275 2.75006 7.56324 L 2.75 7.625 V 17.9167 H 6.25 V 12 C 6.25 11.0335 7.0335 10.25 8 10.25 C 9.24264 10.25 10.25 9.24264 10.25 8 L 10.25 5.37586 L 10.25 5.33949 C 10.25 5.33909 10.25 5.33869 10.25 5.33828 C 10.2419 3.91226 9.08792 2.75817 7.66193 2.75004 C 7.66146 2.75004 7.66098 2.75004 7.66051 2.75004 L 7.62585 2.75 H 7.62415 L 7.56324 2.75007 Z M 6.25 19.4167 H 2.75 V 19.5 C 2.75 20.4665 3.5335 21.25 4.5 21.25 C 5.4665 21.25 6.25 20.4665 6.25 19.5 V 19.4167 Z M 8 4.25 C 8.41421 4.25 8.75 4.58579 8.75 5 V 8 C 8.75 8.41422 8.41421 8.75 8 8.75 C 7.58579 8.75 7.25 8.41422 7.25 8 V 5 C 7.25 4.58579 7.58579 4.25 8 4.25 Z M 13.2658 4.95082 C 13.3482 4.54489 13.7441 4.28261 14.15 4.36501 C 16.4043 4.82261 18.1782 6.59648 18.6358 8.8508 C 18.7182 9.25674 18.4559 9.65261 18.05 9.73501 C 17.6441 9.81741 17.2482 9.55514 17.1658 9.1492 C 16.828 7.48526 15.5156 6.17279 13.8516 5.83503 C 13.4457 5.75263 13.1834 5.35676 13.2658 4.95082 Z M 9.25 16.5 C 9.25 13.0482 12.0482 10.25 15.5 10.25 C 18.9518 10.25 21.75 13.0482 21.75 16.5 C 21.75 19.9518 18.9518 22.75 15.5 22.75 C 12.0482 22.75 9.25 19.9518 9.25 16.5 Z M 15.5 11.75 C 12.8766 11.75 10.75 13.8766 10.75 16.5 C 10.75 19.1234 12.8766 21.25 15.5 21.25 C 18.1234 21.25 20.25 19.1234 20.25 16.5 C 20.25 13.8766 18.1234 11.75 15.5 11.75 Z M 14 13.25 C 14.4142 13.25 14.75 13.5858 14.75 14 V 18.25 H 17 C 17.4142 18.25 17.75 18.5858 17.75 19 C 17.75 19.4142 17.4142 19.75 17 19.75 H 14 C 13.5858 19.75 13.25 19.4142 13.25 19 V 14 C 13.25 13.5858 13.5858 13.25 14 13.25 Z" fill="#FFFFFF" />
</svg>