<svg xmlns="http://www.w3.org/2000/svg" width="24" height="24" viewBox="0 0 24 24" fill="none">
  <path d="M11.75 16.3763V13.5024L13.7492 15.0062C13.8849 15.1083 13.9928 15.1895 14.0833 15.2615L14.1091 15.2822L14.0833 15.3028C13.9928 15.3748 13.8849 15.456 13.7492 15.5581L12.2946 16.6522C12.0676 16.823 11.8944 16.9525 11.7563 17.0494C11.7507 16.8799 11.75 16.6623 11.75 16.3763Z" fill="#FFFFFF" />
  <path d="M11.41 17.2574C11.4096 17.2576 11.41 17.2574 11.41 17.2574C11.41 17.2575 11.4113 17.2571 11.4142 17.2561C11.4126 17.2565 11.4107 17.2572 11.41 17.2574Z" fill="#FFFFFF" />
  <path d="M11.7984 17.4509C11.7985 17.4508 11.798 17.4493 11.7969 17.4467C11.7974 17.4483 11.7982 17.4502 11.7984 17.4509C11.7986 17.4515 11.7984 17.4509 11.7984 17.4509Z" fill="#FFFFFF" />
  <path d="M11.75 7.62319V10.4971L13.7492 8.99328C13.8849 8.89119 13.9928 8.80997 14.0833 8.738L14.1091 8.71733L14.0833 8.69667C13.9928 8.6247 13.8849 8.54348 13.7492 8.44138L12.2946 7.34725C12.0676 7.17651 11.8944 7.04698 11.7563 6.9501C11.7507 7.1196 11.75 7.3372 11.75 7.62319Z" fill="#FFFFFF" />
  <path d="M11.7969 6.55283C11.798 6.55016 11.7985 6.54867 11.7984 6.54859C11.7984 6.54854 11.7982 6.54907 11.7978 6.55024C11.7976 6.5509 11.7973 6.55176 11.7969 6.55283Z" fill="#FFFFFF" />
  <path fill-rule="nonzero" clip-rule="nonzero" d="M12 22 C6.47715 22 2 17.5228 2 12 C2 6.47715 6.47715 2 12 2 C17.5228 2 22 6.47715 22 12 C22 17.5228 17.5228 22 12 22 Z M 13.155 6.1174 C 12.8101 5.85791 12.487 5.61477 12.2099 5.46374 C 11.9267 5.30939 11.4599 5.1213 10.9653 5.36932 C 10.4717 5.61686 10.3423 6.10257 10.2956 6.42154 C 10.2499 6.73413 10.2499 7.13896 10.25 7.57157 L 10.25 10.3985 L 8.48016 8.92358 C 8.16195 8.65841 7.68903 8.7014 7.42385 9.01961 C 7.15868 9.33782 7.20167 9.81074 7.51988 10.0759 L 9.82848 11.9997 L 7.51988 13.9236 C 7.20167 14.1888 7.15868 14.6617 7.42385 14.9799 C 7.68903 15.2981 8.16195 15.3411 8.48016 15.0759 L 10.25 13.601 L 10.25 16.4279 C 10.2499 16.8605 10.2499 17.2654 10.2956 17.578 C 10.3423 17.8969 10.4717 18.3826 10.9653 18.6302 C 11.4599 18.8782 11.9267 18.6901 12.2099 18.5357 C 12.487 18.3847 12.8101 18.1416 13.155 17.8821 L 14.6854 16.7309 C 14.9218 16.5532 15.1601 16.374 15.3326 16.2 C 15.5269 16.004 15.75 15.7055 15.75 15.2822 C 15.75 14.8589 15.5269 14.5603 15.3326 14.3643 C 15.1601 14.1904 14.9218 14.0112 14.6854 13.8335 L 12.2477 11.9997 L 14.6854 10.166 C 14.9218 9.98833 15.1601 9.80914 15.3326 9.63516 C 15.5269 9.43921 15.75 9.14063 15.75 8.71733 C 15.75 8.29403 15.5269 7.99546 15.3326 7.79951 C 15.1601 7.62552 14.9218 7.44634 14.6854 7.26864 L 13.155 6.1174 Z" fill="#FFFFFF" />
</svg>