<svg xmlns="http://www.w3.org/2000/svg" width="24" height="24" viewBox="0 0 24 24" fill="none">
  <path fill-rule="nonzero" clip-rule="nonzero" d="M 11.9098 2.77366 L 13.7426 4.0752 C 14.2829 4.45881 14.7548 4.79385 15.0843 5.10897 C 15.435 5.44445 15.7501 5.87349 15.7501 6.45834 C 15.7501 7.04319 15.435 7.47224 15.0843 7.80771 C 14.7548 8.12283 14.2829 8.45787 13.7426 8.84148 L 9.29541 11.9996 L 13.7426 15.1577 C 14.2829 15.5413 14.7548 15.8764 15.0843 16.1915 C 15.435 16.527 15.7501 16.956 15.7501 17.5409 C 15.7501 18.1257 15.435 18.5548 15.0843 18.8902 C 14.7548 19.2054 14.2829 19.5404 13.7426 19.924 L 11.9099 21.2255 C 11.1804 21.7436 10.5645 22.181 10.0536 22.4416 C 9.53336 22.707 8.89829 22.9067 8.26311 22.5817 C 7.62612 22.2558 7.41919 21.6227 7.33374 21.0458 C 7.24998 20.4803 7.25002 19.7272 7.25006 18.8365 L 7.25006 13.4401 L 3.43016 16.114 C 3.09082 16.3516 2.62318 16.269 2.38564 15.9297 C 2.1481 15.5904 2.23063 15.1227 2.56997 14.8852 L 6.69222 11.9996 L 2.56997 9.11402 C 2.23063 8.87649 2.1481 8.40884 2.38564 8.0695 C 2.62318 7.73017 3.09082 7.64764 3.43016 7.88517 L 7.25006 10.5591 V 5.22417 C 7.25006 5.20359 7.25006 5.18309 7.25006 5.16266 C 7.25002 4.27198 7.24998 3.51888 7.33374 2.9534 C 7.41919 2.3765 7.62612 1.74342 8.26311 1.41752 C 8.89829 1.09254 9.53336 1.29223 10.0536 1.55758 C 10.5644 1.81817 11.1804 2.25559 11.9098 2.77366 Z M 8.75006 13.4521 V 18.775 C 8.75006 19.7439 8.75207 20.3839 8.81755 20.826 C 8.84924 21.04 8.88915 21.1526 8.9187 21.2087 C 8.93168 21.2334 8.94094 21.2429 8.94094 21.2429 C 8.94094 21.2429 8.9414 21.2438 8.94632 21.2463 C 8.95081 21.2486 8.95303 21.2489 8.95303 21.2489 C 8.95504 21.2492 8.96803 21.251 8.99661 21.2471 C 9.06133 21.2381 9.17796 21.2044 9.372 21.1054 C 9.77271 20.901 10.2984 20.5301 11.0911 19.9672 L 12.8291 18.733 C 13.4278 18.3078 13.8072 18.036 14.0475 17.8062 C 14.1612 17.6975 14.212 17.6269 14.2343 17.5863 C 14.2503 17.5573 14.2501 17.5474 14.2501 17.5418 V 17.5399 C 14.2501 17.5343 14.2503 17.5244 14.2343 17.4955 C 14.212 17.4548 14.1612 17.3842 14.0475 17.2755 C 13.8072 17.0457 13.4278 16.7739 12.8291 16.3487 L 8.75006 13.4521 Z M8.75006 10.5471 L12.8291 7.65048 C13.4278 7.2253 13.8072 6.95353 14.0475 6.7237 C14.1612 6.61496 14.212 6.54435 14.2343 6.50374 C14.2503 6.47477 14.2501 6.46487 14.2501 6.45933 L14.2501 6.45735 C14.2501 6.45181 14.2503 6.44191 14.2343 6.41294 C14.212 6.37233 14.1612 6.30172 14.0475 6.19298 C13.8072 5.96315 13.4278 5.69138 12.8291 5.2662 L11.0911 4.03202 C10.2984 3.46908 9.77271 3.09819 9.372 2.89379 C9.17796 2.79481 9.06133 2.76105 8.99661 2.75212 C8.96803 2.74818 8.95503 2.74999 8.95303 2.7503 C8.95303 2.7503 8.95081 2.75059 8.94632 2.75289 C8.9414 2.75541 8.94094 2.75632 8.94094 2.75632 C8.94094 2.75632 8.93168 2.76583 8.9187 2.79047 C8.88915 2.84656 8.84924 2.95922 8.81755 3.17318 C8.75207 3.61528 8.75006 4.2553 8.75006 5.22417 L8.75006 10.5471 Z M 18.4828 4.45649 C 18.7828 4.17083 19.2575 4.18241 19.5432 4.48236 L 19.0249 4.97592 C 19.5432 4.48237 19.5432 4.48236 19.5432 4.48236 L 19.5444 4.48369 L 19.5459 4.48523 L 19.5493 4.48889 L 19.5583 4.49863 C 19.5653 4.50618 19.5741 4.51589 19.5845 4.52775 C 19.6055 4.55148 19.6333 4.58388 19.667 4.62512 C 19.7343 4.7076 19.8251 4.82547 19.9311 4.98014 C 20.1433 5.28958 20.4166 5.74597 20.6867 6.3603 C 21.2279 7.59152 21.7501 9.44417 21.7501 11.9996 C 21.7501 14.555 21.2279 16.4077 20.6867 17.6389 C 20.4166 18.2532 20.1433 18.7096 19.9311 19.0191 C 19.8251 19.1737 19.7343 19.2916 19.667 19.3741 C 19.6333 19.4153 19.6055 19.4477 19.5845 19.4714 C 19.5741 19.4833 19.5653 19.493 19.5583 19.5006 L 19.5493 19.5103 L 19.5459 19.514 L 19.5444 19.5155 C 19.5444 19.5155 19.5432 19.5168 19.0249 19.0233 L 19.5432 19.5168 C 19.2575 19.8168 18.7828 19.8284 18.4828 19.5427 C 18.1841 19.2582 18.1714 18.7863 18.4534 18.4861 L 18.4557 18.4837 L 18.455 18.4845 L 18.4534 18.4861 L 18.4605 18.4782 C 18.4688 18.4688 18.484 18.4513 18.505 18.4255 C 18.5471 18.374 18.6126 18.2895 18.694 18.1708 C 18.8568 17.9333 19.0835 17.5585 19.3135 17.0353 C 19.7723 15.9915 20.2501 14.3442 20.2501 11.9996 C 20.2501 9.65503 19.7723 8.00768 19.3135 6.9639 C 19.0835 6.44072 18.8568 6.06587 18.694 5.82843 C 18.6126 5.70966 18.5471 5.62519 18.505 5.57369 C 18.484 5.54793 18.4688 5.53043 18.4605 5.52101 L 18.4537 5.51338 L 18.455 5.51474 L 18.4559 5.5157 M18.4828 4.45649 L18.4537 5.51338 C18.1717 5.21324 18.1841 4.74097 18.4828 4.45649 Z M 16.6508 7.33591 C 17.0173 7.14299 17.4708 7.28374 17.6638 7.65029 L 17.0001 7.9996 C 17.6638 7.65029 17.6638 7.65029 17.6638 7.65029 L 17.6646 7.65182 L 17.6657 7.65406 L 17.6691 7.66062 L 17.6801 7.68197 C 17.6891 7.69981 17.7016 7.7248 17.7171 7.75652 C 17.748 7.81995 17.7909 7.91046 17.8417 8.02468 C 17.9431 8.2528 18.0768 8.5774 18.2104 8.97132 C 18.4752 9.75259 18.7501 10.8384 18.7501 11.9996 C 18.7501 13.1608 18.4752 14.2466 18.2104 15.0279 C 18.0768 15.4218 17.9431 15.7464 17.8417 15.9745 C 17.7909 16.0887 17.748 16.1792 17.7171 16.2427 C 17.7016 16.2744 17.6891 16.2994 17.6801 16.3172 L 17.6691 16.3386 L 17.6657 16.3451 L 17.6646 16.3474 L 17.6639 16.3486 C 17.6639 16.3486 17.6638 16.3489 17.0001 15.9996 L 17.6639 16.3486 C 17.471 16.7151 17.0173 16.8562 16.6508 16.6633 C 16.2845 16.4705 16.1437 16.0176 16.3359 15.6513 M 16.3364 15.6503 L 16.3425 15.6383 C 16.3481 15.6272 16.3571 15.6094 16.369 15.585 C 16.3927 15.5364 16.428 15.462 16.471 15.3653 C 16.5571 15.1715 16.6733 14.8899 16.7898 14.5463 C 17.0249 13.8526 17.2501 12.9384 17.2501 11.9996 C 17.2501 11.0608 17.0249 10.1466 16.7898 9.45288 C 16.6733 9.1093 16.5571 8.82765 16.471 8.63389 C 16.428 8.53718 16.3927 8.46284 16.369 8.41416 C 16.3571 8.38983 16.3481 8.37195 16.3425 8.36093 L 16.3367 8.3496 L 16.3362 8.34863 C 16.1435 7.98214 16.2843 7.52878 16.6508 7.33591" fill="#FFFFFF" />
</svg>