<svg xmlns="http://www.w3.org/2000/svg" width="24" height="24" viewBox="0 0 24 24" fill="none">
  <path fill-rule="nonzero" clip-rule="nonzero" d="M 11.9426 1.25 H 12.0574 C 14.3658 1.24999 16.1748 1.24998 17.5863 1.43975 C 19.031 1.63399 20.1711 2.03933 21.0659 2.93414 C 21.9607 3.82895 22.366 4.96897 22.5603 6.41371 C 22.75 7.82519 22.75 9.63423 22.75 11.9426 V 12.0574 C 22.75 14.3658 22.75 16.1748 22.5603 17.5863 C 22.366 19.031 21.9607 20.1711 21.0659 21.0659 C 20.1711 21.9607 19.031 22.366 17.5863 22.5603 C 16.1748 22.75 14.3658 22.75 12.0574 22.75 H 11.9426 C 9.63423 22.75 7.82519 22.75 6.41371 22.5603 C 4.96897 22.366 3.82895 21.9607 2.93414 21.0659 C 2.03933 20.1711 1.63399 19.031 1.43975 17.5863 C 1.24998 16.1748 1.24999 14.3658 1.25 12.0574 V 11.9426 C 1.24999 9.63423 1.24998 7.82519 1.43975 6.41371 C 1.63399 4.96897 2.03933 3.82895 2.93414 2.93414 C 3.82895 2.03933 4.96897 1.63399 6.41371 1.43975 C 7.82519 1.24998 9.63423 1.24999 11.9426 1.25 Z M 6.61358 2.92637 C 5.33517 3.09825 4.56445 3.42514 3.9948 3.9948 C 3.42514 4.56445 3.09825 5.33517 2.92637 6.61358 C 2.75159 7.91356 2.75 9.62177 2.75 12 C 2.75 14.3782 2.75159 16.0864 2.92637 17.3864 C 3.09825 18.6648 3.42514 19.4355 3.9948 20.0052 C 4.56445 20.5749 5.33517 20.9018 6.61358 21.0736 C 7.91356 21.2484 9.62177 21.25 12 21.25 C 14.3782 21.25 16.0864 21.2484 17.3864 21.0736 C 18.6648 20.9018 19.4355 20.5749 20.0052 20.0052 C 20.5749 19.4355 20.9018 18.6648 21.0736 17.3864 C 21.2484 16.0864 21.25 14.3782 21.25 12 C 21.25 9.62177 21.2484 7.91356 21.0736 6.61358 C 20.9018 5.33517 20.5749 4.56445 20.0052 3.9948 C 19.4355 3.42514 18.6648 3.09825 17.3864 2.92637 C 16.0864 2.75159 14.3782 2.75 12 2.75 C 9.62177 2.75 7.91356 2.75159 6.61358 2.92637 Z M 13.0099 6.56989 C 13.0232 6.57991 13.0366 6.58995 13.05 6.6 L 14.3833 7.6 C 14.3944 7.60832 14.4055 7.61665 14.4167 7.62499 C 14.6318 7.78619 14.8537 7.95252 15.0152 8.11492 C 15.1982 8.29903 15.4167 8.58764 15.4167 9 C 15.4167 9.41236 15.1982 9.70097 15.0152 9.88508 C 14.8537 10.0475 14.6317 10.2138 14.4167 10.375 C 14.4055 10.3834 14.3944 10.3917 14.3833 10.4 L 12.25 12 L 14.3833 13.6 C 14.3944 13.6083 14.4055 13.6166 14.4167 13.625 C 14.6318 13.7862 14.8537 13.9525 15.0152 14.1149 C 15.1982 14.299 15.4167 14.5876 15.4167 15 C 15.4167 15.4124 15.1982 15.701 15.0152 15.8851 C 14.8537 16.0475 14.6317 16.2138 14.4167 16.375 C 14.4055 16.3834 14.3944 16.3917 14.3833 16.4 L 13.05 17.4 C 13.0366 17.4101 13.0232 17.4201 13.0099 17.4301 C 12.6958 17.6658 12.3963 17.8905 12.1382 18.0308 C 11.8739 18.1744 11.4222 18.3586 10.941 18.118 C 10.4598 17.8774 10.3362 17.4055 10.2925 17.1079 C 10.2498 16.8173 10.2499 16.4428 10.25 16.0502 C 10.25 16.0335 10.25 16.0168 10.25 16 V 13.6013 L 8.48014 15.0762 C 8.16193 15.3413 7.68901 15.2983 7.42383 14.9801 C 7.15866 14.6619 7.20165 14.189 7.51986 13.9238 L 9.82846 12 L 7.51986 10.0762 C 7.20165 9.81099 7.15866 9.33807 7.42383 9.01986 C 7.68901 8.70165 8.16193 8.65866 8.48014 8.92383 L 10.25 10.3987 V 8 C 10.25 7.98325 10.25 7.96652 10.25 7.94983 C 10.2499 7.55719 10.2498 7.18274 10.2925 6.89207 C 10.3362 6.59451 10.4598 6.12256 10.941 5.88197 C 11.4222 5.64137 11.8739 5.82563 12.1382 5.96924 C 12.3963 6.10952 12.6958 6.33424 13.0099 6.56989 Z M 11.75 13.5 V 16 C 11.75 16.1995 11.7504 16.3614 11.7528 16.4945 C 11.8607 16.4165 11.9904 16.3197 12.15 16.2 L 13.4833 15.2 C 13.5878 15.1216 13.6737 15.0572 13.7472 15 C 13.6737 14.9428 13.5878 14.8784 13.4833 14.8 L 11.75 13.5 Z M11.75 10.5 L13.4833 9.2 C13.5878 9.12164 13.6737 9.05718 13.7472 9 C13.6737 8.94282 13.5878 8.87836 13.4833 8.8 L12.15 7.8 C11.9904 7.68032 11.8607 7.58348 11.7528 7.50554 C11.7504 7.63864 11.75 7.80053 11.75 8 L11.75 10.5 Z" fill="#FFFFFF" />
</svg>