<svg xmlns="http://www.w3.org/2000/svg" width="24" height="24" viewBox="0 0 24 24" fill="none">
  <path fill-rule="nonzero" clip-rule="nonzero" d="M 12 2.75 C 6.89137 2.75 2.75 6.89137 2.75 12 C 2.75 17.1086 6.89137 21.25 12 21.25 C 17.1086 21.25 21.25 17.1086 21.25 12 C 21.25 6.89137 17.1086 2.75 12 2.75 Z M 1.25 12 C 1.25 6.06294 6.06294 1.25 12 1.25 C 17.9371 1.25 22.75 6.06294 22.75 12 C 22.75 17.9371 17.9371 22.75 12 22.75 C 6.06294 22.75 1.25 17.9371 1.25 12 Z M 13.1549 6.11766 C 13.1687 6.12801 13.1825 6.13838 13.1963 6.14878 L 14.6509 7.24291 C 14.6624 7.25157 14.6739 7.26024 14.6854 7.2689 C 14.9218 7.4466 15.1601 7.62578 15.3326 7.79976 C 15.5269 7.99571 15.75 8.29429 15.75 8.71759 C 15.75 9.14088 15.5269 9.43946 15.3326 9.63541 C 15.1601 9.8094 14.9218 9.98858 14.6854 10.1663 C 14.6739 10.1749 14.6624 10.1836 14.6509 10.1923 L 12.2476 12 L 14.6509 13.8077 C 14.6624 13.8164 14.6739 13.8251 14.6854 13.8337 C 14.9218 14.0114 15.1601 14.1906 15.3326 14.3646 C 15.5269 14.5605 15.75 14.8591 15.75 15.2824 C 15.75 15.7057 15.5269 16.0043 15.3326 16.2002 C 15.1601 16.3742 14.9218 16.5534 14.6854 16.7311 C 14.6739 16.7398 14.6624 16.7484 14.6509 16.7571 L 13.1963 17.8512 C 13.1825 17.8616 13.1687 17.872 13.155 17.8823 C 12.8101 18.1418 12.487 18.385 12.2099 18.536 C 11.9267 18.6904 11.4599 18.8784 10.9653 18.6304 C 10.4717 18.3829 10.3423 17.8972 10.2956 17.5782 C 10.2499 17.2656 10.2499 16.8608 10.25 16.4282 C 10.25 16.411 10.25 16.3938 10.25 16.3766 V 13.6013 L 8.48014 15.0762 C 8.16193 15.3413 7.68901 15.2983 7.42383 14.9801 C 7.15866 14.6619 7.20165 14.189 7.51986 13.9238 L 9.82846 12 L 7.51986 10.0762 C 7.20165 9.81099 7.15866 9.33807 7.42383 9.01986 C 7.68901 8.70165 8.16193 8.65866 8.48014 8.92383 L 10.25 10.3987 V 7.62345 C 10.25 7.60619 10.25 7.58898 10.25 7.57181 C 10.2499 7.1392 10.2499 6.73438 10.2956 6.42179 C 10.3423 6.10282 10.4717 5.61712 10.9653 5.36957 C 11.4599 5.12155 11.9267 5.30964 12.2099 5.464 C 12.487 5.61503 12.8101 5.85816 13.1549 6.11766 Z M 11.75 13.5027 V 16.3766 C 11.75 16.6625 11.7506 16.8801 11.7563 17.0496 C 11.8944 16.9528 12.0676 16.8232 12.2946 16.6525 L 13.7491 15.5584 C 13.8849 15.4563 13.9928 15.375 14.0833 15.3031 C 14.0922 15.296 14.1008 15.2891 14.1091 15.2824 C 14.1008 15.2757 14.0922 15.2688 14.0833 15.2617 C 13.9928 15.1898 13.8849 15.1086 13.7491 15.0065 L 11.75 13.5027 Z M11.41 17.2576 C11.41 17.2577 11.4113 17.2573 11.4142 17.2563 C11.4115 17.2571 11.41 17.2576 11.41 17.2576 Z M11.7969 17.4469 C11.7978 17.4499 11.7984 17.4512 11.7984 17.4512 C11.7985 17.4511 11.798 17.4496 11.7969 17.4469 Z M11.75 10.4973 L13.7491 8.99354 C13.8849 8.89144 13.9928 8.81022 14.0833 8.73825 C14.0922 8.73115 14.1008 8.72426 14.1091 8.71759 C14.1008 8.71091 14.0922 8.70402 14.0833 8.69692 C13.9928 8.62495 13.8849 8.54373 13.7491 8.44164 L12.2946 7.3475 C12.0676 7.17676 11.8944 7.04724 11.7563 6.95036 C11.7506 7.11985 11.75 7.33746 11.75 7.62345 L11.75 10.4973 Z M11.7984 6.54884 C11.7984 6.54877 11.7978 6.55011 11.7969 6.55309 C11.798 6.55041 11.7985 6.54892 11.7984 6.54884 Z M11.4142 6.74368 C11.4113 6.74265 11.41 6.74228 11.41 6.74235 C11.41 6.74242 11.4115 6.74294 11.4142 6.74368 Z" fill="#FFFFFF" />
</svg>