<svg xmlns="http://www.w3.org/2000/svg" width="24" height="24" viewBox="0 0 24 24" fill="none">
  <path opacity="0.4" fill-rule="evenodd" clip-rule="evenodd" d="M12 4V8H10.772C9.43116 8 8.76073 8 8.24681 7.64385C7.73289 7.2877 7.49749 6.65997 7.02669 5.40449L6.5 4H12Z" fill="#FFFFFF" />
  <path opacity="0.6" d="M16.9733 5.40449L17.5 4H12V8H13.228C14.5688 8 15.2393 8 15.7532 7.64385C16.2671 7.2877 16.5025 6.65997 16.9733 5.40449Z" fill="#FFFFFF" />
  <path fill-rule="nonzero" clip-rule="nonzero" d="M3.17157 5.17138 C3.90865 4.43431 4.92835 4.16095 6.52241 4.05957 L7.02669 5.40431 C7.49749 6.65978 7.73289 7.28751 8.24681 7.64366 C8.76073 7.99981 9.43116 7.99981 10.772 7.99981 L13.228 7.99981 C14.5688 7.99981 15.2393 7.99981 15.7532 7.64366 C16.2671 7.28751 16.5025 6.65977 16.9733 5.4043 L17.4776 4.05957 C19.0717 4.16095 20.0914 4.43431 20.8284 5.17138 C22 6.34295 22 8.22857 22 11.9998 C22 15.771 22 17.6567 20.8284 18.8282 C19.6569 19.9998 17.7712 19.9998 14 19.9998 L10 19.9998 C6.22876 19.9998 4.34315 19.9998 3.17157 18.8282 C2 17.6567 2 15.771 2 11.9998 C2 8.22857 2 6.34295 3.17157 5.17138 Z M 8.25 11.5 C 7.00736 11.5 6 12.5074 6 13.75 C 6 14.9926 7.00736 16 8.25 16 C 9.49264 16 10.5 14.9926 10.5 13.75 C 10.5 12.5074 9.49264 11.5 8.25 11.5 Z M 15.75 11.5 C 14.5074 11.5 13.5 12.5074 13.5 13.75 C 13.5 14.9926 14.5074 16 15.75 16 C 16.9926 16 18 14.9926 18 13.75 C 18 12.5074 16.9926 11.5 15.75 11.5 Z" fill="#FFFFFF" />
</svg>