<svg xmlns="http://www.w3.org/2000/svg" width="24" height="24" viewBox="0 0 24 24" fill="none">
  <path d="M10 4H11.2498V7.75H10.7718C10.0846 7.75 9.63052 7.74892 9.28215 7.7101C8.95249 7.67336 8.79169 7.60912 8.67378 7.52741C8.55586 7.44569 8.43926 7.31769 8.2891 7.02191C8.13043 6.70936 7.97 6.28461 7.7287 5.64115L7.12455 4.03008C7.93898 4 8.88743 4 10 4Z" fill="#FFFFFF" />
  <path d="M15.75 12.25C14.9216 12.25 14.25 12.9216 14.25 13.75C14.25 14.5784 14.9216 15.25 15.75 15.25C16.5784 15.25 17.25 14.5784 17.25 13.75C17.25 12.9216 16.5784 12.25 15.75 12.25Z" fill="#FFFFFF" />
  <path d="M6.75 13.75C6.75 12.9216 7.42157 12.25 8.25 12.25C9.07843 12.25 9.75 12.9216 9.75 13.75C9.75 14.5784 9.07843 15.25 8.25 15.25C7.42157 15.25 6.75 14.5784 6.75 13.75Z" fill="#FFFFFF" />
  <path fill-rule="nonzero" clip-rule="nonzero" d="M 3.17157 5.17157 C 3.7497 4.59344 4.50171 4.3006 5.56837 4.15226 L 6.33839 6.20566 C 6.56168 6.80115 6.75063 7.30507 6.95159 7.70092 C 7.16532 8.12192 7.42338 8.48586 7.81938 8.7603 C 8.21539 9.03473 8.64677 9.14857 9.11601 9.20087 C 9.55723 9.25004 10.0954 9.25002 10.7314 9.25 H 13.2682 C 13.9042 9.25002 14.4423 9.25004 14.8835 9.20087 C 15.3528 9.14857 15.7841 9.03473 16.1802 8.7603 C 16.5762 8.48586 16.8342 8.12192 17.0479 7.70092 C 17.2489 7.30507 17.4378 6.80118 17.6611 6.2057 L 18.4312 4.1522 C 19.4981 4.30052 20.2502 4.59336 20.8284 5.17157 C 22 6.34315 22 8.22876 22 12 C 22 15.7712 22 17.6569 20.8284 18.8284 C 19.6569 20 17.7712 20 14 20 H 10 C 6.22876 20 4.34315 20 3.17157 18.8284 C 2 17.6569 2 15.7712 2 12 C 2 8.22876 2 6.34315 3.17157 5.17157 Z M12.75 13.75 C12.75 15.4069 14.0931 16.75 15.75 16.75 C17.4069 16.75 18.75 15.4069 18.75 13.75 C18.75 12.0931 17.4069 10.75 15.75 10.75 C14.0931 10.75 12.75 12.0931 12.75 13.75 Z M 8.25 10.75 C 6.59315 10.75 5.25 12.0931 5.25 13.75 C 5.25 15.4069 6.59315 16.75 8.25 16.75 C 9.90685 16.75 11.25 15.4069 11.25 13.75 C 11.25 12.0931 9.90685 10.75 8.25 10.75 Z" fill="#FFFFFF" />
  <path d="M16.875 4.03006C16.0607 4 15.1124 4 14 4H12.7498V7.75H13.2278C13.915 7.75 14.369 7.74892 14.7174 7.7101C15.0471 7.67336 15.2078 7.60912 15.3258 7.52741C15.4437 7.44569 15.5603 7.31769 15.7104 7.02191C15.8691 6.70936 16.0295 6.28461 16.2708 5.64115L16.875 4.03006Z" fill="#FFFFFF" />
</svg>