<svg xmlns="http://www.w3.org/2000/svg" width="24" height="24" viewBox="0 0 24 24" fill="none">
  <path d="M6.75 13.75C6.75 12.9216 7.42157 12.25 8.25 12.25C9.07843 12.25 9.75 12.9216 9.75 13.75C9.75 14.5784 9.07843 15.25 8.25 15.25C7.42157 15.25 6.75 14.5784 6.75 13.75Z" fill="#FFFFFF" />
  <path d="M10.8487 15.25H13.1513C12.8961 14.8087 12.75 14.2964 12.75 13.75C12.75 13.2036 12.8961 12.6913 13.1513 12.25H10.8487C11.1039 12.6913 11.25 13.2036 11.25 13.75C11.25 14.2964 11.1039 14.8087 10.8487 15.25Z" fill="#FFFFFF" />
  <path d="M15.75 15.25C16.5784 15.25 17.25 14.5784 17.25 13.75C17.25 12.9216 16.5784 12.25 15.75 12.25C14.9216 12.25 14.25 12.9216 14.25 13.75C14.25 14.5784 14.9216 15.25 15.75 15.25Z" fill="#FFFFFF" />
  <path fill-rule="nonzero" clip-rule="nonzero" d="M18.4311 4.15219 C19.498 4.3005 20.2502 4.59335 20.8284 5.17157 C22 6.34315 22 8.22876 22 12 C22 15.7712 22 17.6569 20.8284 18.8284 C19.6569 20 17.7712 20 14 20 L10 20 C6.22876 20 4.34315 20 3.17157 18.8284 C2 17.6569 2 15.7712 2 12 C2 8.22876 2 6.34315 3.17157 5.17157 C3.74972 4.59343 4.50175 4.30058 5.56845 4.15225 L6.33839 6.20543 C6.56168 6.80094 6.75062 7.30483 6.95159 7.70069 C7.16532 8.12169 7.42338 8.48563 7.81938 8.76006 C8.21539 9.0345 8.64677 9.14834 9.11601 9.20064 C9.55723 9.24981 10.0954 9.24979 10.7314 9.24977 L13.2682 9.24977 C13.9042 9.24979 14.4423 9.24981 14.8835 9.20064 C15.3528 9.14834 15.7841 9.0345 16.1802 8.76006 C16.5762 8.48563 16.8342 8.12169 17.0479 7.70069 C17.2489 7.30482 17.4379 6.8009 17.6612 6.20537 L18.4311 4.15219 Z M5.25 13.75 C5.25 15.4069 6.59315 16.75 8.25 16.75 C8.30598 16.75 8.3616 16.7485 8.41682 16.7454 C8.44413 16.7485 8.47189 16.75 8.5 16.75 L16 16.75 C16.0852 16.75 16.1671 16.7358 16.2434 16.7096 C17.6655 16.4743 18.75 15.2388 18.75 13.75 C18.75 12.2612 17.6655 11.0257 16.2434 10.7904 C16.1671 10.7642 16.0852 10.75 16 10.75 L8.5 10.75 C8.47189 10.75 8.44413 10.7515 8.41682 10.7546 C8.3616 10.7515 8.30598 10.75 8.25 10.75 C6.59315 10.75 5.25 12.0931 5.25 13.75 Z" fill="#FFFFFF" />
  <path d="M16.8749 4.03006L16.2708 5.64092C16.0295 6.28438 15.8691 6.70913 15.7104 7.02168C15.5603 7.31746 15.4437 7.44546 15.3258 7.52718C15.2078 7.60889 15.0471 7.67312 14.7174 7.70987C14.369 7.74869 13.915 7.74977 13.2278 7.74977H10.7718C10.0846 7.74977 9.63052 7.74869 9.28215 7.70987C8.95249 7.67312 8.79169 7.60889 8.67378 7.52718C8.55586 7.44546 8.43926 7.31746 8.2891 7.02168C8.13043 6.70913 7.97 6.28438 7.7287 5.64092L7.12464 4.03008C7.93904 4 8.88747 4 10 4H14C15.1123 4 16.0606 4 16.8749 4.03006Z" fill="#FFFFFF" />
</svg>