<svg xmlns="http://www.w3.org/2000/svg" width="24" height="24" viewBox="0 0 24 24" fill="none">
  <path fill-rule="nonzero" clip-rule="nonzero" d="M 9.94358 3.25 H 14.0564 C 15.8942 3.24998 17.3498 3.24997 18.489 3.40314 C 19.6614 3.56076 20.6104 3.89288 21.3588 4.64124 C 22.1071 5.38961 22.4392 6.33856 22.5969 7.51098 C 22.75 8.65019 22.75 10.1058 22.75 11.9436 V 12.0564 C 22.75 13.8942 22.75 15.3498 22.5969 16.489 C 22.4392 17.6614 22.1071 18.6104 21.3588 19.3588 C 20.6104 20.1071 19.6614 20.4392 18.489 20.5969 C 17.3498 20.75 15.8942 20.75 14.0564 20.75 H 9.94359 C 8.10583 20.75 6.65019 20.75 5.51098 20.5969 C 4.33856 20.4392 3.38961 20.1071 2.64124 19.3588 C 1.89288 18.6104 1.56076 17.6614 1.40314 16.489 C 1.24997 15.3498 1.24998 13.8942 1.25 12.0564 V 11.9436 C 1.24998 10.1058 1.24997 8.65019 1.40314 7.51098 C 1.56076 6.33856 1.89288 5.38961 2.64124 4.64124 C 3.38961 3.89288 4.33856 3.56076 5.51098 3.40314 C 6.65019 3.24997 8.10582 3.24998 9.94358 3.25 Z M 11.25 4.75 H 10 C 8.99068 4.75 8.13606 4.75045 7.40276 4.77136 L 7.72893 5.64115 C 7.97023 6.28461 8.13066 6.70936 8.28934 7.02191 C 8.43949 7.31769 8.55609 7.44569 8.67401 7.52741 C 8.79193 7.60913 8.95272 7.67336 9.28238 7.7101 C 9.63075 7.74892 10.0848 7.75 10.772 7.75 H 11.25 V 4.75 Z M12.75 7.75 L13.228 7.75 C13.9152 7.75 14.3692 7.74892 14.7176 7.7101 C15.0473 7.67336 15.2081 7.60913 15.326 7.52741 C15.4439 7.44569 15.5605 7.31769 15.7107 7.02191 C15.8693 6.70936 16.0298 6.28461 16.2711 5.64115 L16.5972 4.77136 C15.8639 4.75045 15.0093 4.75 14 4.75 L12.75 4.75 L12.75 7.75 Z M 10.7316 9.25 C 10.0956 9.25002 9.55746 9.25004 9.11624 9.20087 C 8.647 9.14857 8.21562 9.03473 7.81962 8.7603 C 7.42361 8.48586 7.16555 8.12192 6.95182 7.70092 C 6.75085 7.30506 6.56191 6.80116 6.33862 6.20565 L 5.83904 4.87343 C 5.79575 4.87865 5.75302 4.88409 5.71085 4.88976 C 4.70476 5.02502 4.12511 5.27869 3.7019 5.7019 C 3.27869 6.12511 3.02502 6.70476 2.88976 7.71085 C 2.75159 8.73851 2.75 10.0932 2.75 12 C 2.75 13.9068 2.75159 15.2615 2.88976 16.2892 C 3.02502 17.2952 3.27869 17.8749 3.7019 18.2981 C 4.12511 18.7213 4.70476 18.975 5.71085 19.1102 C 6.73851 19.2484 8.09318 19.25 10 19.25 H 14 C 15.9068 19.25 17.2615 19.2484 18.2892 19.1102 C 19.2952 18.975 19.8749 18.7213 20.2981 18.2981 C 20.7213 17.8749 20.975 17.2952 21.1102 16.2892 C 21.2484 15.2615 21.25 13.9068 21.25 12 C 21.25 10.0932 21.2484 8.73851 21.1102 7.71085 C 20.975 6.70476 20.7213 6.12511 20.2981 5.7019 C 19.8749 5.27869 19.2952 5.02502 18.2892 4.88976 C 18.247 4.88409 18.2043 4.87865 18.161 4.87343 L 17.6614 6.2056 C 17.4381 6.80114 17.2492 7.30505 17.0482 7.70092 C 16.8345 8.12192 16.5764 8.48586 16.1804 8.7603 C 15.7844 9.03473 15.353 9.14857 14.8838 9.20087 C 14.4425 9.25004 13.9044 9.25002 13.2684 9.25 H 10.7316 Z M 5.25 13.75 C 5.25 12.0931 6.59315 10.75 8.25 10.75 C 9.90685 10.75 11.25 12.0931 11.25 13.75 C 11.25 15.4069 9.90685 16.75 8.25 16.75 C 6.59315 16.75 5.25 15.4069 5.25 13.75 Z M 8.25 12.25 C 7.42157 12.25 6.75 12.9216 6.75 13.75 C 6.75 14.5784 7.42157 15.25 8.25 15.25 C 9.07843 15.25 9.75 14.5784 9.75 13.75 C 9.75 12.9216 9.07843 12.25 8.25 12.25 Z M 12.75 13.75 C 12.75 12.0931 14.0931 10.75 15.75 10.75 C 17.4069 10.75 18.75 12.0931 18.75 13.75 C 18.75 15.4069 17.4069 16.75 15.75 16.75 C 14.0931 16.75 12.75 15.4069 12.75 13.75 Z M 15.75 12.25 C 14.9216 12.25 14.25 12.9216 14.25 13.75 C 14.25 14.5784 14.9216 15.25 15.75 15.25 C 16.5784 15.25 17.25 14.5784 17.25 13.75 C 17.25 12.9216 16.5784 12.25 15.75 12.25 Z" fill="#FFFFFF" />
</svg>