<svg xmlns="http://www.w3.org/2000/svg" width="24" height="24" viewBox="0 0 24 24" fill="none">
  <path opacity="0.5" d="M9.18091 9.18091C9.23402 9.1278 9.32886 9.06211 9.63147 9.02143C9.95415 8.97804 10.3921 8.97656 11.0696 8.97656H12.9301C13.6075 8.97656 14.0455 8.97804 14.3682 9.02143C14.6708 9.06211 14.7656 9.1278 14.8187 9.18091C14.8718 9.23402 14.9375 9.32886 14.9782 9.63147C15.0216 9.95415 15.0231 10.3921 15.0231 11.0696V12.9301C15.0231 13.6075 15.0216 14.0455 14.9782 14.3682C14.9375 14.6708 14.8718 14.7656 14.8187 14.8187C14.7656 14.8718 14.6708 14.9375 14.3682 14.9782C14.0455 15.0216 13.6075 15.0231 12.9301 15.0231H11.0696C10.3921 15.0231 9.95415 15.0216 9.63147 14.9782C9.32886 14.9375 9.23402 14.8718 9.18091 14.8187C9.1278 14.7656 9.06211 14.6708 9.02143 14.3682C8.97804 14.0455 8.97656 13.6075 8.97656 12.9301V11.0696C8.97656 10.3921 8.97804 9.95415 9.02143 9.63147C9.06211 9.32886 9.1278 9.23402 9.18091 9.18091Z" fill="#FFFFFF" />
  <path fill-rule="nonzero" clip-rule="nonzero" d="M12.6977 2.69767 L12.6977 5.48884 C13.2084 5.48991 13.6717 5.49342 14.0932 5.50495 L14.093 5.48837 L14.093 2.69767 C14.093 2.31236 14.4054 2 14.7907 2 C15.176 2 15.4884 2.31236 15.4884 2.69767 L15.4884 5.48837 C15.4884 5.52487 15.4856 5.56072 15.4802 5.5957 C16.4162 5.71067 17.0648 5.94879 17.558 6.44198 C18.0512 6.93517 18.2893 7.58381 18.4043 8.51984 C18.4393 8.51443 18.4751 8.51163 18.5116 8.51163 L21.3023 8.51163 C21.6876 8.51163 22 8.82399 22 9.2093 C22 9.59462 21.6876 9.90698 21.3023 9.90698 L18.5116 9.90698 L18.495 9.90678 C18.5066 10.3283 18.5106 10.7916 18.5116 11.3023 L21.3023 11.3023 C21.6876 11.3023 22 11.6147 22 12 C22 12.3853 21.6876 12.6977 21.3023 12.6977 L18.5112 12.6977 C18.5101 13.2084 18.5066 13.6717 18.495 14.0932 L18.5116 14.093 L21.3023 14.093 C21.6876 14.093 22 14.4054 22 14.7907 C22 15.176 21.6876 15.4884 21.3023 15.4884 L18.5116 15.4884 C18.4751 15.4884 18.4393 15.4856 18.4043 15.4802 C18.2893 16.4162 18.0512 17.0648 17.558 17.558 C17.0648 18.0512 16.4162 18.2893 15.4802 18.4043 C15.4856 18.4393 15.4884 18.4751 15.4884 18.5116 L15.4884 21.3023 C15.4884 21.6876 15.176 22 14.7907 22 C14.4054 22 14.093 21.6876 14.093 21.3023 L14.093 18.5116 L14.0932 18.495 C13.6717 18.5066 13.2084 18.5106 12.6977 18.5116 L12.6977 21.3023 C12.6977 21.6876 12.3853 22 12 22 C11.6147 22 11.3023 21.6876 11.3023 21.3023 L11.3023 18.5112 C10.7916 18.5101 10.3283 18.5066 9.90678 18.495 L9.90698 18.5116 L9.90698 21.3023 C9.90698 21.6876 9.59462 22 9.2093 22 C8.82399 22 8.51163 21.6876 8.51163 21.3023 L8.51163 18.5116 C8.51163 18.4751 8.51443 18.4393 8.51984 18.4043 C7.58381 18.2893 6.93517 18.0512 6.44198 17.558 C5.94879 17.0648 5.71067 16.4162 5.5957 15.4802 C5.56071 15.4856 5.52487 15.4884 5.48837 15.4884 L2.69767 15.4884 C2.31236 15.4884 2 15.176 2 14.7907 C2 14.4054 2.31236 14.093 2.69767 14.093 L5.48837 14.093 L5.50495 14.0932 C5.49342 13.6717 5.48944 13.2084 5.48837 12.6977 L2.69767 12.6977 C2.31236 12.6977 2 12.3853 2 12 C2 11.6147 2.31236 11.3023 2.69767 11.3023 L5.48884 11.3023 C5.48991 10.7916 5.49342 10.3283 5.50495 9.90678 L5.48837 9.90698 L2.69767 9.90698 C2.31236 9.90698 2 9.59462 2 9.2093 C2 8.82399 2.31236 8.51163 2.69767 8.51163 L5.48837 8.51163 C5.52487 8.51163 5.56071 8.51443 5.5957 8.51984 C5.71067 7.58381 5.94879 6.93517 6.44198 6.44198 C6.93517 5.94879 7.58381 5.71067 8.51984 5.5957 C8.51443 5.56072 8.51163 5.52487 8.51163 5.48837 L8.51163 2.69767 C8.51163 2.31236 8.82399 2 9.2093 2 C9.59462 2 9.90698 2.31236 9.90698 2.69767 L9.90698 5.48837 L9.90678 5.50495 C10.3283 5.49342 10.7916 5.48944 11.3023 5.48837 L11.3023 2.69767 C11.3023 2.31236 11.6147 2 12 2 C12.3853 2 12.6977 2.31236 12.6977 2.69767 Z M9.44573 7.63871 C8.98839 7.70019 8.55001 7.83885 8.19443 8.19443 C7.83885 8.55001 7.70019 8.98839 7.63871 9.44573 C7.58133 9.87247 7.58136 10.4054 7.5814 11.0238 L7.5814 12.9762 C7.58136 13.5946 7.58133 14.1275 7.63871 14.5543 C7.70019 15.0116 7.83885 15.45 8.19443 15.8056 C8.55001 16.1612 8.98839 16.2998 9.44573 16.3613 C9.87246 16.4187 10.4054 16.4186 11.0238 16.4186 L12.9762 16.4186 C13.5947 16.4186 14.1275 16.4187 14.5543 16.3613 C15.0116 16.2998 15.45 16.1612 15.8056 15.8056 C16.1612 15.45 16.2998 15.0116 16.3613 14.5543 C16.4187 14.1275 16.4186 13.5946 16.4186 12.9762 L16.4186 11.0238 C16.4186 10.4053 16.4187 9.87246 16.3613 9.44573 C16.2998 8.98839 16.1612 8.55001 15.8056 8.19443 C15.45 7.83885 15.0116 7.70019 14.5543 7.63871 C14.1275 7.58133 13.5947 7.58136 12.9762 7.5814 L11.0238 7.5814 C10.4054 7.58136 9.87247 7.58133 9.44573 7.63871 Z" fill="#FFFFFF" />
  <path d="M12.9664 10.5446C13.1903 10.2311 13.1177 9.79537 12.8042 9.57141C12.4906 9.34745 12.0549 9.42008 11.8309 9.73362L10.502 11.5941C10.3501 11.8067 10.3298 12.0865 10.4494 12.3188C10.569 12.5512 10.8084 12.6973 11.0697 12.6973H11.5745L11.0336 13.4545C10.8096 13.7681 10.8822 14.2038 11.1958 14.4278C11.5093 14.6517 11.9451 14.5791 12.169 14.2656L13.4979 12.4051C13.6498 12.1925 13.6701 11.9127 13.5506 11.6804C13.431 11.448 13.1916 11.3019 12.9302 11.3019H12.4255L12.9664 10.5446Z" fill="#FFFFFF" />
</svg>