<svg xmlns="http://www.w3.org/2000/svg" width="24" height="24" viewBox="0 0 24 24" fill="none">
  <path fill-rule="nonzero" clip-rule="nonzero" d="M9.63166 9.02161 C9.95434 8.97823 10.3923 8.97675 11.0698 8.97675 L12.9302 8.97675 C13.6077 8.97675 14.0457 8.97823 14.3684 9.02161 C14.671 9.0623 14.7658 9.12798 14.8189 9.18109 C14.872 9.2342 14.9377 9.32905 14.9784 9.63166 C15.0218 9.95434 15.0233 10.3923 15.0233 11.0698 L15.0233 12.9302 C15.0233 13.6077 15.0218 14.0457 14.9784 14.3684 C14.9377 14.671 14.872 14.7658 14.8189 14.8189 C14.7658 14.872 14.671 14.9377 14.3684 14.9784 C14.0457 15.0218 13.6077 15.0233 12.9302 15.0233 L11.0698 15.0233 C10.3923 15.0233 9.95434 15.0218 9.63166 14.9784 C9.32905 14.9377 9.2342 14.872 9.18109 14.8189 C9.12798 14.7658 9.0623 14.671 9.02161 14.3684 C8.97823 14.0457 8.97675 13.6077 8.97675 12.9302 L8.97675 11.0698 C8.97675 10.3923 8.97823 9.95434 9.02161 9.63166 C9.0623 9.32905 9.12798 9.2342 9.18109 9.18109 C9.2342 9.12798 9.32905 9.0623 9.63166 9.02161 Z M 12.9664 10.5451 C 13.1904 10.2316 13.1177 9.79583 12.8042 9.57187 C 12.4906 9.34791 12.0549 9.42053 11.831 9.73407 L 10.502 11.5945 C 10.3501 11.8072 10.3298 12.0869 10.4494 12.3193 C 10.569 12.5517 10.8084 12.6977 11.0698 12.6977 H 11.5745 L 11.0336 13.455 C 10.8097 13.7685 10.8823 14.2043 11.1958 14.4282 C 11.5094 14.6522 11.9451 14.5796 12.1691 14.266 L 13.498 12.4056 C 13.6499 12.1929 13.6702 11.9132 13.5506 11.6808 C 13.431 11.4484 13.1916 11.3024 12.9302 11.3024 H 12.4255 L 12.9664 10.5451 Z" fill="#FFFFFF" />
  <path fill-rule="nonzero" clip-rule="nonzero" d="M12.6977 2.69767 L12.6977 5.48884 C13.2084 5.48991 13.6717 5.49342 14.0932 5.50495 L14.093 5.48837 L14.093 2.69767 C14.093 2.31236 14.4054 2 14.7907 2 C15.176 2 15.4884 2.31236 15.4884 2.69767 L15.4884 5.48837 C15.4884 5.52487 15.4856 5.56071 15.4802 5.5957 C16.4162 5.71067 17.0648 5.94879 17.558 6.44198 C18.0512 6.93517 18.2893 7.58381 18.4043 8.51984 C18.4393 8.51443 18.4751 8.51163 18.5116 8.51163 L21.3023 8.51163 C21.6876 8.51163 22 8.82399 22 9.2093 C22 9.59462 21.6876 9.90698 21.3023 9.90698 L18.5116 9.90698 L18.495 9.90678 C18.5066 10.3283 18.5106 10.7916 18.5116 11.3023 L21.3023 11.3023 C21.6876 11.3023 22 11.6147 22 12 C22 12.3853 21.6876 12.6977 21.3023 12.6977 L18.5112 12.6977 C18.5101 13.2084 18.5066 13.6717 18.495 14.0932 L18.5116 14.093 L21.3023 14.093 C21.6876 14.093 22 14.4054 22 14.7907 C22 15.176 21.6876 15.4884 21.3023 15.4884 L18.5116 15.4884 C18.4751 15.4884 18.4393 15.4856 18.4043 15.4802 C18.2893 16.4162 18.0512 17.0648 17.558 17.558 C17.0648 18.0512 16.4162 18.2893 15.4802 18.4043 C15.4856 18.4393 15.4884 18.4751 15.4884 18.5116 L15.4884 21.3023 C15.4884 21.6876 15.176 22 14.7907 22 C14.4054 22 14.093 21.6876 14.093 21.3023 L14.093 18.5116 L14.0932 18.495 C13.6717 18.5066 13.2084 18.5106 12.6977 18.5116 L12.6977 21.3023 C12.6977 21.6876 12.3853 22 12 22 C11.6147 22 11.3023 21.6876 11.3023 21.3023 L11.3023 18.5112 C10.7916 18.5101 10.3283 18.5066 9.90678 18.495 L9.90698 18.5116 L9.90698 21.3023 C9.90698 21.6876 9.59462 22 9.2093 22 C8.82399 22 8.51163 21.6876 8.51163 21.3023 L8.51163 18.5116 C8.51163 18.4751 8.51443 18.4393 8.51984 18.4043 C7.58381 18.2893 6.93517 18.0512 6.44198 17.558 C5.94879 17.0648 5.71067 16.4162 5.5957 15.4802 C5.56071 15.4856 5.52487 15.4884 5.48837 15.4884 L2.69767 15.4884 C2.31236 15.4884 2 15.176 2 14.7907 C2 14.4054 2.31236 14.093 2.69767 14.093 L5.48837 14.093 L5.50495 14.0932 C5.49342 13.6717 5.48944 13.2084 5.48837 12.6977 L2.69767 12.6977 C2.31236 12.6977 2 12.3853 2 12 C2 11.6147 2.31236 11.3023 2.69767 11.3023 L5.48884 11.3023 C5.48991 10.7916 5.49342 10.3283 5.50495 9.90678 L5.48837 9.90698 L2.69767 9.90698 C2.31236 9.90698 2 9.59462 2 9.2093 C2 8.82399 2.31236 8.51163 2.69767 8.51163 L5.48837 8.51163 C5.52487 8.51163 5.56071 8.51443 5.5957 8.51984 C5.71067 7.58381 5.94879 6.93517 6.44198 6.44198 C6.93517 5.94879 7.58381 5.71067 8.51984 5.5957 C8.51443 5.56071 8.51163 5.52487 8.51163 5.48837 L8.51163 2.69767 C8.51163 2.31236 8.82399 2 9.2093 2 C9.59462 2 9.90698 2.31236 9.90698 2.69767 L9.90698 5.48837 L9.90678 5.50495 C10.3283 5.49342 10.7916 5.48944 11.3023 5.48837 L11.3023 2.69767 C11.3023 2.31236 11.6147 2 12 2 C12.3853 2 12.6977 2.31236 12.6977 2.69767 Z M9.44573 7.63871 C8.98839 7.70019 8.55001 7.83885 8.19443 8.19443 C7.83885 8.55001 7.70019 8.98839 7.63871 9.44573 C7.58133 9.87247 7.58136 10.4054 7.5814 11.0238 L7.5814 12.9762 C7.58136 13.5946 7.58133 14.1275 7.63871 14.5543 C7.70019 15.0116 7.83885 15.45 8.19443 15.8056 C8.55001 16.1612 8.98839 16.2998 9.44573 16.3613 C9.87246 16.4187 10.4054 16.4186 11.0238 16.4186 L12.9762 16.4186 C13.5947 16.4186 14.1275 16.4187 14.5543 16.3613 C15.0116 16.2998 15.45 16.1612 15.8056 15.8056 C16.1612 15.45 16.2998 15.0116 16.3613 14.5543 C16.4187 14.1275 16.4186 13.5946 16.4186 12.9762 L16.4186 11.0238 C16.4186 10.4053 16.4187 9.87246 16.3613 9.44573 C16.2998 8.98839 16.1612 8.55001 15.8056 8.19443 C15.45 7.83885 15.0116 7.70019 14.5543 7.63871 C14.1275 7.58133 13.5947 7.58136 12.9762 7.5814 L11.0238 7.5814 C10.4054 7.58136 9.87247 7.58133 9.44573 7.63871 Z" fill="#FFFFFF" />
</svg>