<svg xmlns="http://www.w3.org/2000/svg" width="24" height="24" viewBox="0 0 24 24" fill="none">
  <path fill-rule="nonzero" clip-rule="nonzero" d="M 13.9437 1.25 H 14.0565 C 15.8943 1.24998 17.3499 1.24997 18.4891 1.40314 C 19.6615 1.56076 20.6105 1.89288 21.3589 2.64124 C 22.1072 3.38961 22.4393 4.33856 22.597 5.51098 C 22.7501 6.65019 22.7501 8.10583 22.7501 9.94359 V 14.0564 C 22.7501 15.8942 22.7501 17.3498 22.597 18.489 C 22.4393 19.6614 22.1072 20.6104 21.3589 21.3588 C 20.6105 22.1071 19.6615 22.4392 18.4891 22.5969 C 17.3499 22.75 15.8943 22.75 14.0565 22.75 H 12 C 11.5858 22.75 11.25 22.4142 11.25 22 C 11.25 21.5858 11.5858 21.25 12 21.25 H 14.0001 C 15.9069 21.25 17.2616 21.2484 18.2893 21.1102 C 19.2953 20.975 19.875 20.7213 20.2982 20.2981 C 20.7214 19.8749 20.9751 19.2952 21.1103 18.2892 C 21.2485 17.2615 21.2501 15.9068 21.2501 14 V 10 C 21.2501 8.09318 21.2485 6.73851 21.1103 5.71085 C 20.9751 4.70476 20.7214 4.12511 20.2982 3.7019 C 19.875 3.27869 19.2953 3.02502 18.2893 2.88976 C 17.2616 2.75159 15.9069 2.75 14.0001 2.75 C 12.0933 2.75 10.7386 2.75159 9.71095 2.88976 C 8.70486 3.02502 8.12521 3.27869 7.702 3.7019 C 7.00606 4.39784 6.79534 5.47918 6.75871 8.01085 C 6.75272 8.42502 6.41211 8.75591 5.99794 8.74992 C 5.58377 8.74393 5.25288 8.40332 5.25887 7.98915 C 5.29399 5.56168 5.45111 3.83147 6.64134 2.64124 C 7.38971 1.89288 8.33865 1.56076 9.51108 1.40314 C 10.6503 1.24997 12.1059 1.24998 13.9437 1.25 Z M 5.46164 10.25 H 5.53836 C 6.20793 10.25 6.76665 10.25 7.21898 10.296 C 7.69245 10.3441 8.13182 10.4489 8.52782 10.7135 C 8.82809 10.9141 9.08591 11.1719 9.28654 11.4722 C 9.55114 11.8682 9.65585 12.3075 9.70402 12.781 C 9.75003 13.2334 9.75002 13.7921 9.75 14.4617 V 18.5383 C 9.75002 19.2079 9.75003 19.7666 9.70402 20.219 C 9.65585 20.6925 9.55114 21.1318 9.28654 21.5278 C 9.08591 21.8281 8.82809 22.0859 8.52782 22.2865 C 8.13182 22.5511 7.69245 22.6559 7.21898 22.704 C 6.76664 22.75 6.20791 22.75 5.53832 22.75 H 5.46168 C 4.79209 22.75 4.23336 22.75 3.78102 22.704 C 3.30755 22.6559 2.86818 22.5511 2.47218 22.2865 C 2.17191 22.0859 1.9141 21.8281 1.71346 21.5278 C 1.44886 21.1318 1.34415 20.6925 1.29598 20.219 C 1.24997 19.7666 1.24998 19.2079 1.25 18.5383 V 14.4617 C 1.24998 13.7921 1.24997 13.2334 1.29598 12.781 C 1.34415 12.3075 1.44886 11.8682 1.71346 11.4722 C 1.9141 11.1719 2.17191 10.9141 2.47218 10.7135 C 2.86818 10.4489 3.30755 10.3441 3.78102 10.296 C 4.23335 10.25 4.79207 10.25 5.46164 10.25 Z M 3.93283 11.7883 C 3.57796 11.8244 3.41399 11.8882 3.30554 11.9607 C 3.16905 12.0519 3.05186 12.1691 2.96066 12.3055 C 2.8882 12.414 2.82438 12.578 2.78828 12.9328 C 2.75091 13.3002 2.75 13.7822 2.75 14.5 V 18.5 C 2.75 19.2178 2.75091 19.6998 2.78828 20.0672 C 2.82438 20.422 2.8882 20.586 2.96066 20.6945 C 3.05186 20.8309 3.16905 20.9481 3.30554 21.0393 C 3.41399 21.1118 3.57796 21.1756 3.93283 21.2117 C 4.30023 21.2491 4.78216 21.25 5.5 21.25 C 6.21784 21.25 6.69977 21.2491 7.06717 21.2117 C 7.42204 21.1756 7.58601 21.1118 7.69446 21.0393 C 7.83095 20.9481 7.94814 20.8309 8.03934 20.6945 C 8.1118 20.586 8.17562 20.422 8.21172 20.0672 C 8.24909 19.6998 8.25 19.2178 8.25 18.5 V 14.5 C 8.25 13.7822 8.24909 13.3002 8.21172 12.9328 C 8.17562 12.578 8.1118 12.414 8.03934 12.3055 C 7.94814 12.1691 7.83095 12.0519 7.69446 11.9607 C 7.58601 11.8882 7.42204 11.8244 7.06717 11.7883 C 6.69977 11.7509 6.21784 11.75 5.5 11.75 C 4.78216 11.75 4.30023 11.7509 3.93283 11.7883 Z M 11.25 19 C 11.25 18.5858 11.5858 18.25 12 18.25 H 17 C 17.4142 18.25 17.75 18.5858 17.75 19 C 17.75 19.4142 17.4142 19.75 17 19.75 H 12 C 11.5858 19.75 11.25 19.4142 11.25 19 Z" fill="#FFFFFF" />
</svg>