<svg xmlns="http://www.w3.org/2000/svg" width="24" height="24" viewBox="0 0 24 24" fill="none">
  <path fill-rule="nonzero" clip-rule="nonzero" d="M20.5355 20.5355 C19.8515 21.2196 18.9727 21.5841 17.75 21.7784 L17.75 20.948 C17.75 20.0495 17.7501 19.3003 17.6701 18.7055 C17.5857 18.0777 17.4 17.5109 16.9445 17.0555 C16.4891 16.6 15.9223 16.4143 15.2945 16.3299 C14.6997 16.2499 13.9505 16.25 13.052 16.25 L10.948 16.25 C10.0495 16.25 9.3003 16.2499 8.70552 16.3299 C8.07773 16.4143 7.51093 16.6 7.05546 17.0555 C6.59999 17.5109 6.41432 18.0777 6.32991 18.7055 C6.24995 19.3003 6.24997 20.0495 6.25 20.948 L6.25 21.7784 C5.02727 21.5841 4.1485 21.2196 3.46447 20.5355 C2 19.0711 2 16.714 2 12 C2 7.28595 2 4.92893 3.46447 3.46447 C4.92893 2 7.28595 2 12 2 C12.3415 2 12.5122 2 12.6858 2.01515 C13.4951 2.08581 14.2874 2.414 14.9097 2.93631 C15.0431 3.04835 15.1668 3.17206 15.4142 3.41944 L20.5806 8.58578 C20.828 8.83317 20.9516 8.95687 21.0637 9.09034 C21.586 9.71257 21.9142 10.5049 21.9848 11.3142 C22 11.4878 22 11.6585 22 12 C22 16.714 22 19.0711 20.5355 20.5355 Z M6.25 8 C6.25 8.41421 6.58579 8.75 7 8.75 L13 8.75 C13.4142 8.75 13.75 8.41421 13.75 8 C13.75 7.58579 13.4142 7.25 13 7.25 L7 7.25 C6.58579 7.25 6.25 7.58579 6.25 8 Z" fill="#FFFFFF" />
  <path d="M16.1835 18.9054C16.2484 19.3884 16.25 20.036 16.25 21V21.9313C15.0942 22 13.7004 22 12 22C10.2996 22 8.9058 22 7.75 21.9313V21C7.75 20.036 7.75159 19.3884 7.81654 18.9054C7.87858 18.4439 7.9858 18.2464 8.11612 18.1161C8.24643 17.9858 8.44393 17.8786 8.90539 17.8165C9.38843 17.7516 10.036 17.75 11 17.75H13C13.964 17.75 14.6116 17.7516 15.0946 17.8165C15.5561 17.8786 15.7536 17.9858 15.8839 18.1161C16.0142 18.2464 16.1214 18.4439 16.1835 18.9054Z" fill="#FFFFFF" />
</svg>