<svg xmlns="http://www.w3.org/2000/svg" width="24" height="24" viewBox="0 0 24 24" fill="none">
  <path fill-rule="nonzero" clip-rule="nonzero" d="M 15.8922 3.14393 C 15.4675 3.47324 14.9658 3.98075 14.2276 4.73088 L 13.1672 5.80838 C 13.8945 6.37901 14.7108 7.1953 15.7186 8.20314 L 15.7969 8.28145 C 16.8486 9.33308 17.6916 10.1761 18.2647 10.9272 C 18.2697 10.9338 18.2748 10.9404 18.2798 10.9471 L 19.2956 9.91489 C 20.0336 9.16493 20.5333 8.65492 20.8577 8.22287 C 21.1688 7.8086 21.2499 7.55327 21.2499 7.32289 C 21.2499 7.09251 21.1688 6.83718 20.8577 6.42291 C 20.5333 5.99085 20.0336 5.48084 19.2956 4.73088 C 18.5573 3.98075 18.0556 3.47324 17.6309 3.14393 C 17.2229 2.82765 16.9773 2.75 16.7616 2.75 C 16.5458 2.75 16.3002 2.82765 15.8922 3.14393 Z M19.048 12.305 C19.167 12.645 19.2321 12.9983 19.2321 13.3754 C19.2321 14.2794 18.858 15.046 18.2647 15.8236 C17.6916 16.5747 16.8486 17.4178 15.7969 18.4694 L14.9515 19.3148 C13.8998 20.3665 13.0568 21.2096 12.3057 21.7826 C11.528 22.376 10.7615 22.75 9.85748 22.75 C8.95349 22.75 8.18693 22.376 7.40926 21.7826 C6.65819 21.2096 5.81513 20.3665 4.76349 19.3148 L4.68523 19.2366 C3.63355 18.1849 2.79046 17.3419 2.2174 16.5908 C1.62406 15.8131 1.25 15.0465 1.25 14.1426 C1.25 13.2386 1.62406 12.472 2.2174 11.6943 C2.79045 10.9433 3.63354 10.1002 4.68522 9.04855 L5.53061 8.20315 C6.58226 7.15148 7.42532 6.3084 8.17639 5.73535 C8.95407 5.142 9.72063 4.76794 10.6246 4.76794 C11.0588 4.76794 11.4614 4.85425 11.8486 5.00972 L13.1956 3.641 C13.8872 2.9382 14.4591 2.357 14.9732 1.95848 C15.5132 1.53982 16.0785 1.25 16.7616 1.25 C17.4446 1.25 18.01 1.53982 18.55 1.95847 C19.064 2.357 19.6359 2.9382 20.3275 3.64101 L20.4015 3.71614 C21.0934 4.41921 21.6653 5.00028 22.0572 5.52225 C22.4694 6.07123 22.7499 6.64 22.7499 7.32289 C22.7499 8.00577 22.4694 8.57454 22.0572 9.12352 C21.6653 9.64549 21.0934 10.2266 20.4015 10.9296 L19.048 12.305 Z M 11.5435 6.52052 C 11.2009 6.33823 10.9115 6.26794 10.6246 6.26794 C 10.1805 6.26794 9.73051 6.43633 9.08626 6.92788 C 8.42471 7.43263 7.65202 8.20306 6.55214 9.30295 L 5.785 10.0701 C 4.68512 11.17 3.91468 11.9427 3.40993 12.6042 C 2.91839 13.2485 2.75 13.6984 2.75 14.1426 C 2.75 14.5867 2.91839 15.0367 3.40993 15.6809 C 3.91468 16.3425 4.68512 17.1151 5.785 18.215 C 6.88489 19.3149 7.65758 20.0853 8.31913 20.5901 C 8.96338 21.0816 9.41333 21.25 9.85748 21.25 C 10.3016 21.25 10.7516 21.0816 11.3958 20.5901 C 12.0574 20.0853 12.8301 19.3149 13.9299 18.215 L 14.6971 17.4479 C 15.797 16.348 16.5674 15.5753 17.0722 14.9138 C 17.5637 14.2695 17.7321 13.8196 17.7321 13.3754 C 17.7321 12.9313 17.5637 12.4813 17.0722 11.8371 C 16.5674 11.1755 15.797 10.4028 14.6971 9.30295 C 13.5972 8.20306 12.8245 7.43263 12.163 6.92788 C 12.0041 6.80666 11.857 6.7051 11.719 6.62086 C 11.6573 6.59597 11.5982 6.56253 11.5435 6.52052 Z M 17.1265 4.75216 C 17.4194 5.04505 17.4194 5.51992 17.1265 5.81282 L 16.4194 6.51992 C 16.1265 6.81282 15.6516 6.81282 15.3587 6.51992 C 15.0658 6.22703 15.0658 5.75216 15.3587 5.45926 L 16.0658 4.75216 C 16.3587 4.45926 16.8336 4.45926 17.1265 4.75216 Z M 19.2478 6.87348 C 19.5407 7.16637 19.5407 7.64124 19.2478 7.93414 L 18.5407 8.64124 C 18.2478 8.93414 17.7729 8.93414 17.48 8.64124 C 17.1872 8.34835 17.1872 7.87348 17.48 7.58058 L 18.1872 6.87348 C 18.48 6.58058 18.9549 6.58058 19.2478 6.87348 Z M 4.72434 13.6122 C 5.01724 13.3193 5.49211 13.3193 5.785 13.6122 L 10.3878 18.215 C 10.6807 18.5079 10.6807 18.9828 10.3878 19.2757 C 10.0949 19.5686 9.62004 19.5686 9.32715 19.2757 L 4.72434 14.6729 C 4.43145 14.38 4.43145 13.9051 4.72434 13.6122 Z" fill="#FFFFFF" />
</svg>