<svg xmlns="http://www.w3.org/2000/svg" width="24" height="24" viewBox="0 0 24 24" fill="none">
  <path fill-rule="nonzero" clip-rule="nonzero" d="M 5.25467 9.53972 L 6.02181 8.77259 C 8.19159 6.60281 9.27648 5.51791 10.6246 5.51791 C 10.8261 5.51791 11.0217 5.54214 11.2159 5.59059 C 12.321 5.86637 13.3815 6.92686 15.2266 8.77189 L 15.2274 8.77271 L 15.2281 8.77346 C 16.8083 10.3536 17.813 11.3583 18.2421 12.3084 C 18.4021 12.6626 18.4821 13.0093 18.4821 13.3754 C 18.4821 14.7235 17.3972 15.8084 15.2274 17.9782 L 14.4603 18.7453 C 12.2905 20.9151 11.2056 22 9.85748 22 C 8.50935 22 7.42446 20.9151 5.25467 18.7453 C 3.08489 16.5755 2 15.4907 2 14.1425 C 2 12.7944 3.08489 11.7095 5.25467 9.53972 Z M4.72452 13.6122 C4.43163 13.9051 4.43163 14.38 4.72452 14.6729 L9.32732 19.2757 C9.62022 19.5686 10.0951 19.5686 10.388 19.2757 C10.6809 18.9828 10.6809 18.5079 10.388 18.215 L5.78518 13.6122 C5.49229 13.3193 5.01741 13.3193 4.72452 13.6122 Z" fill="#FFFFFF" />
  <path fill-rule="nonzero" clip-rule="nonzero" d="M 19.8302 4.16978 C 21.2767 5.6163 22 6.33957 22 7.23832 C 22 8.13707 21.2767 8.86033 19.8302 10.3069 L 19.1945 10.9426 C 19.0901 10.7827 18.9783 10.6262 18.8609 10.4724 C 18.257 9.6808 17.3833 8.80722 16.359 7.78302 L 16.2171 7.64107 C 15.1929 6.61678 14.3193 5.74311 13.5277 5.13917 C 13.3739 5.02178 13.2174 4.90995 13.0574 4.80555 L 13.6931 4.16978 C 15.1397 2.72327 15.8629 2 16.7617 2 C 17.6604 2 18.3837 2.72326 19.8302 4.16978 Z M19.6213 6.5 C19.3284 6.20711 18.8535 6.20711 18.5606 6.5 L17.8535 7.20711 C17.5606 7.5 17.5606 7.97487 17.8535 8.26777 C18.1464 8.56066 18.6213 8.56066 18.9141 8.26777 L19.6213 7.56066 C19.9141 7.26777 19.9141 6.79289 19.6213 6.5 Z M17.4999 4.37868 C17.207 4.08579 16.7322 4.08579 16.4393 4.37868 L15.7322 5.08579 C15.4393 5.37868 15.4393 5.85355 15.7322 6.14645 C16.0251 6.43934 16.4999 6.43934 16.7928 6.14645 L17.4999 5.43934 C17.7928 5.14645 17.7928 4.67157 17.4999 4.37868 Z" fill="#FFFFFF" />
</svg>