<svg xmlns="http://www.w3.org/2000/svg" width="24" height="24" viewBox="0 0 24 24" fill="none">
  <path fill-rule="nonzero" clip-rule="nonzero" d="M 5.65845 3.45374 C 6.1639 3.27447 6.67734 3.25 7.10257 3.25 H 7.71504 C 8.74784 3.25 9.7552 3.5704 10.5982 4.16702 L 11.1001 4.52223 C 11.3633 4.70844 11.6777 4.80844 12 4.80844 C 12.3224 4.80844 12.6368 4.70844 12.8999 4.52222 L 13.4018 4.16703 C 14.2448 3.5704 15.2522 3.25 16.2849 3.25 H 16.8974 C 17.3227 3.25 17.8361 3.27447 18.3415 3.45373 C 19.7848 3.96561 20.9262 5.14191 21.6779 7.04514 C 22.4219 8.92876 22.8039 11.5642 22.7439 15.1153 C 22.7312 15.8648 22.6377 16.7048 22.3495 17.4614 C 22.0576 18.2279 21.5475 18.9504 20.6893 19.3608 C 20.2011 19.5943 19.6257 19.75 18.9733 19.75 C 16.931 19.75 15.9367 18.2615 15.6886 17.4714 C 15.5645 17.0762 15.7843 16.6553 16.1795 16.5312 C 16.5747 16.4071 16.9956 16.6269 17.1197 17.0221 C 17.2387 17.4008 17.7859 18.25 18.9733 18.25 C 19.381 18.25 19.7364 18.1538 20.0422 18.0076 C 20.458 17.8088 20.7501 17.4465 20.9478 16.9275 C 21.1492 16.3985 21.2329 15.7524 21.2441 15.0899 C 21.3025 11.6334 20.9244 9.22041 20.2828 7.59618 C 19.649 5.99155 18.7796 5.20064 17.8401 4.86745 C 17.5837 4.77651 17.2806 4.75 16.8974 4.75 H 16.2849 C 15.5626 4.75 14.858 4.9741 14.2683 5.39141 L 13.7664 5.74661 C 13.25 6.11214 12.6328 6.30844 12 6.30844 C 11.3673 6.30844 10.7501 6.11215 10.2336 5.74662 L 9.73171 5.39142 C 9.14205 4.97411 8.43744 4.75 7.71504 4.75 H 7.10257 C 6.71943 4.75 6.41628 4.77651 6.15985 4.86745 C 5.2204 5.20065 4.35098 5.99156 3.71719 7.59618 C 3.07565 9.22042 2.69746 11.6334 2.75593 15.0899 C 2.76714 15.7524 2.85078 16.3985 3.05225 16.9275 C 3.24992 17.4465 3.54206 17.8088 3.95781 18.0076 C 4.26356 18.1538 4.61904 18.25 5.02671 18.25 C 6.21414 18.25 6.76133 17.4008 6.88027 17.0221 C 7.00436 16.6269 7.42532 16.4071 7.82051 16.5312 C 8.21569 16.6553 8.43546 17.0762 8.31137 17.4714 C 8.0633 18.2615 7.06902 19.75 5.02671 19.75 C 4.37431 19.75 3.79887 19.5943 3.31066 19.3608 C 2.45248 18.9504 1.94246 18.2279 1.65049 17.4614 C 1.36232 16.7048 1.26883 15.8648 1.25615 15.1153 C 1.19607 11.5643 1.57809 8.92876 2.32207 7.04515 C 3.0738 5.14192 4.2152 3.96561 5.65845 3.45374 Z M 7.5 8.25 C 7.91422 8.25 8.25 8.58579 8.25 9 V 9.75 H 9 C 9.41422 9.75 9.75 10.0858 9.75 10.5 C 9.75 10.9142 9.41422 11.25 9 11.25 H 8.25 V 12 C 8.25 12.4142 7.91422 12.75 7.5 12.75 C 7.08579 12.75 6.75 12.4142 6.75 12 V 11.25 H 6 C 5.58579 11.25 5.25 10.9142 5.25 10.5 C 5.25 10.0858 5.58579 9.75 6 9.75 H 6.75 V 9 C 6.75 8.58579 7.08579 8.25 7.5 8.25 Z M 9.46967 17.5303 C 9.17678 17.2374 9.17678 16.7626 9.46967 16.4697 C 9.76257 16.1768 10.2374 16.1768 10.5303 16.4697 L 12 17.9393 L 13.4697 16.4697 C 13.7626 16.1768 14.2374 16.1768 14.5303 16.4697 C 14.8232 16.7626 14.8232 17.2374 14.5303 17.5303 L 13.0607 19 L 14.5303 20.4697 C 14.8232 20.7626 14.8232 21.2374 14.5303 21.5303 C 14.2374 21.8232 13.7626 21.8232 13.4697 21.5303 L 12 20.0607 L 10.5303 21.5303 C 10.2374 21.8232 9.76257 21.8232 9.46967 21.5303 C 9.17678 21.2374 9.17678 20.7626 9.46967 20.4697 L 10.9393 19 L 9.46967 17.5303 Z" fill="#FFFFFF" />
  <path d="M19 10.25C19 10.6642 18.6642 11 18.25 11C17.8358 11 17.5 10.6642 17.5 10.25C17.5 9.83579 17.8358 9.5 18.25 9.5C18.6642 9.5 19 9.83579 19 10.25Z" fill="#FFFFFF" />
  <path d="M16 10.25C16 10.6642 15.6642 11 15.25 11C14.8358 11 14.5 10.6642 14.5 10.25C14.5 9.83579 14.8358 9.5 15.25 9.5C15.6642 9.5 16 9.83579 16 10.25Z" fill="#FFFFFF" />
  <path d="M16.75 8C17.1642 8 17.5 8.33579 17.5 8.75C17.5 9.16421 17.1642 9.5 16.75 9.5C16.3358 9.5 16 9.16421 16 8.75C16 8.33579 16.3358 8 16.75 8Z" fill="#FFFFFF" />
  <path d="M16.75 11C17.1642 11 17.5 11.3358 17.5 11.75C17.5 12.1642 17.1642 12.5 16.75 12.5C16.3358 12.5 16 12.1642 16 11.75C16 11.3358 16.3358 11 16.75 11Z" fill="#FFFFFF" />
</svg>