<svg xmlns="http://www.w3.org/2000/svg" width="24" height="24" viewBox="0 0 24 24" fill="none">
  <path fill-rule="nonzero" clip-rule="nonzero" d="M 12 22 C 7.75736 22 5.63604 22 4.31802 20.5355 C 3 19.0711 3 16.714 3 12 C 3 7.28595 3 4.92893 4.31802 3.46447 C 5.63604 2 7.75736 2 12 2 C 16.2426 2 18.364 2 19.682 3.46447 C 21 4.92893 21 7.28595 21 12 C 21 16.714 21 19.0711 19.682 20.5355 C 18.364 22 16.2426 22 12 22 Z M 9.25 14 C 9.25 13.5858 8.91421 13.25 8.5 13.25 C 8.08579 13.25 7.75 13.5858 7.75 14 V 14.75 H 7 C 6.58579 14.75 6.25 15.0858 6.25 15.5 C 6.25 15.9142 6.58579 16.25 7 16.25 H 7.75 V 17 C 7.75 17.4142 8.08579 17.75 8.5 17.75 C 8.91421 17.75 9.25 17.4142 9.25 17 V 16.25 H 10 C 10.4142 16.25 10.75 15.9142 10.75 15.5 C 10.75 15.0858 10.4142 14.75 10 14.75 H 9.25 V 14 Z M16.3333 13.8333 C16.3333 13.3731 15.9602 13 15.5 13 C15.0398 13 14.6667 13.3731 14.6667 13.8333 C14.6667 14.2936 15.0398 14.6667 15.5 14.6667 C15.9602 14.6667 16.3333 14.2936 16.3333 13.8333 Z M16.3333 17.1667 C16.3333 16.7064 15.9602 16.3333 15.5 16.3333 C15.0398 16.3333 14.6667 16.7064 14.6667 17.1667 C14.6667 17.6269 15.0398 18 15.5 18 C15.9602 18 16.3333 17.6269 16.3333 17.1667 Z M 13.8333 16.3333 C 14.2936 16.3333 14.6667 15.9602 14.6667 15.5 C 14.6667 15.0398 14.2936 14.6667 13.8333 14.6667 C 13.3731 14.6667 13 15.0398 13 15.5 C 13 15.9602 13.3731 16.3333 13.8333 16.3333 Z M18 15.5 C18 15.0398 17.6269 14.6667 17.1667 14.6667 C16.7064 14.6667 16.3333 15.0398 16.3333 15.5 C16.3333 15.9602 16.7064 16.3333 17.1667 16.3333 C17.6269 16.3333 18 15.9602 18 15.5 Z M 7.05111 7.11177 C 7 7.30252 7 7.53501 7 8 C 7 8.46499 7 8.69748 7.05111 8.88823 C 7.18981 9.40587 7.59413 9.81019 8.11177 9.94889 C 8.30252 10 8.53501 10 9 10 H 15 C 15.465 10 15.6975 10 15.8882 9.94889 C 16.4059 9.81019 16.8102 9.40587 16.9489 8.88823 C 17 8.69748 17 8.46499 17 8 C 17 7.53501 17 7.30252 16.9489 7.11177 C 16.8102 6.59413 16.4059 6.18981 15.8882 6.05111 C 15.6975 6 15.465 6 15 6 H 9 C 8.53501 6 8.30252 6 8.11177 6.05111 C 7.59413 6.18981 7.18981 6.59413 7.05111 7.11177 Z" fill="#FFFFFF" />
</svg>