<svg xmlns="http://www.w3.org/2000/svg" width="24" height="24" viewBox="0 0 24 24" fill="none">
  <path fill-rule="nonzero" clip-rule="nonzero" d="M 15.0005 3.25 C 15.4147 3.25 15.7505 3.58579 15.7505 4 V 5 C 15.7505 5.9665 14.967 6.75 14.0005 6.75 H 13.0005 C 12.8624 6.75 12.7505 6.86193 12.7505 7 V 8 H 13.1721 C 15.7112 8 16.9807 8 17.9568 8.61367 C 18.2038 8.76898 18.4331 8.95085 18.6405 9.15603 C 19.4603 9.96679 19.7493 11.203 20.3272 13.6753 L 21.3496 18.0491 C 21.7091 19.5866 20.7537 21.1243 19.216 21.483 C 17.9193 21.7856 16.5855 21.1527 15.9998 19.9569 L 15.8792 19.7106 C 15.3414 18.6127 14.2255 17.9167 13.003 17.9167 H 10.998 C 9.7755 17.9167 8.6596 18.6127 8.12184 19.7106 L 8.00121 19.9569 C 7.41551 21.1527 6.08168 21.7856 4.78499 21.483 C 3.24734 21.1243 2.29194 19.5866 2.65136 18.0491 L 3.6738 13.6753 C 4.25175 11.203 4.54073 9.96679 5.36047 9.15603 C 5.56793 8.95085 5.79722 8.76898 6.04424 8.61367 C 7.02032 8 8.28983 8 10.8288 8 H 11.2505 V 7 C 11.2505 6.0335 12.034 5.25 13.0005 5.25 H 14.0005 C 14.1386 5.25 14.2505 5.13807 14.2505 5 V 4 C 14.2505 3.58579 14.5863 3.25 15.0005 3.25 Z M16.0005 12 C16.0005 11.4477 15.5528 11 15.0005 11 C14.4482 11 14.0005 11.4477 14.0005 12 C14.0005 12.5523 14.4482 13 15.0005 13 C15.5528 13 16.0005 12.5523 16.0005 12 Z M8.50049 11.25 C8.08627 11.25 7.75049 11.5858 7.75049 12 L7.75049 12.75 L7.00049 12.75 C6.58627 12.75 6.25049 13.0858 6.25049 13.5 C6.25049 13.9142 6.58627 14.25 7.00049 14.25 L7.75049 14.25 L7.75049 15 C7.75049 15.4142 8.08627 15.75 8.50049 15.75 C8.9147 15.75 9.25049 15.4142 9.25049 15 L9.25049 14.25 L10.0005 14.25 C10.4147 14.25 10.7505 13.9142 10.7505 13.5 C10.7505 13.0858 10.4147 12.75 10.0005 12.75 L9.25049 12.75 L9.25049 12 C9.25049 11.5858 8.9147 11.25 8.50049 11.25 Z M 17.0005 15.5 C 17.5528 15.5 18.0005 15.0523 18.0005 14.5 C 18.0005 13.9477 17.5528 13.5 17.0005 13.5 C 16.4482 13.5 16.0005 13.9477 16.0005 14.5 C 16.0005 15.0523 16.4482 15.5 17.0005 15.5 Z" fill="#FFFFFF" />
</svg>