<svg xmlns="http://www.w3.org/2000/svg" width="24" height="24" viewBox="0 0 24 24" fill="none">
  <path fill-rule="evenodd" clip-rule="evenodd" d="M10.4695 17.4697C10.7624 17.1768 11.2373 17.1768 11.5302 17.4697L11.9999 17.9393L12.4695 17.4697C12.7624 17.1768 13.2373 17.1768 13.5302 17.4697C13.8231 17.7626 13.8231 18.2374 13.5302 18.5303L13.0605 19L13.5302 19.4697C13.8231 19.7626 13.8231 20.2374 13.5302 20.5303C13.2373 20.8232 12.7624 20.8232 12.4695 20.5303L11.9999 20.0607L11.5302 20.5303C11.2373 20.8232 10.7624 20.8232 10.4695 20.5303C10.1766 20.2374 10.1766 19.7626 10.4695 19.4697L10.9392 19L10.4695 18.5303C10.1766 18.2374 10.1766 17.7626 10.4695 17.4697Z" fill="#FFFFFF" />
  <path fill-rule="nonzero" clip-rule="nonzero" d="M10.6669 5.13443 C11.0567 5.41029 11.5225 5.55844 12 5.55844 C12.4776 5.55844 12.9434 5.41029 13.3332 5.13441 L13.8351 4.77922 C14.5514 4.27225 15.4074 4 16.2849 4 L16.8974 4 C17.3016 4 17.7099 4.02549 18.0908 4.16059 C20.4735 5.00566 22.1125 8.09503 21.994 15.1026 C21.9701 16.5145 21.6397 18.075 20.3658 18.6842 C19.9688 18.8741 19.5033 19 18.9733 19 C18.3373 19 17.8322 18.8187 17.4424 18.5632 C17.0336 18.2953 16.6737 17.9471 16.3139 17.599 C15.8693 17.1688 15.4249 16.7389 14.8888 16.4609 C14.3048 16.1581 13.6566 16 12.9989 16 L11.0011 16 C10.3434 16 9.69519 16.1581 9.11125 16.4609 C8.57511 16.7389 8.13071 17.1688 7.68612 17.599 C7.32633 17.9471 6.96641 18.2953 6.55763 18.5632 C6.1678 18.8187 5.66273 19 5.02671 19 C4.49667 19 4.03121 18.8741 3.63423 18.6842 C2.3603 18.075 2.02992 16.5145 2.00604 15.1026 C1.88749 8.09504 3.52645 5.00566 5.90915 4.16059 C6.29009 4.02549 6.69838 4 7.10257 4 L7.71504 4 C8.59264 4 9.44862 4.27225 10.165 4.77922 L10.6669 5.13443 Z M16.75 8 C16.3358 8 16 8.33579 16 8.75 C16 9.16421 16.3358 9.5 16.75 9.5 C17.1642 9.5 17.5 9.16421 17.5 8.75 C17.5 8.33579 17.1642 8 16.75 8 Z M7.5 8.25 C7.08579 8.25 6.75 8.58579 6.75 9 L6.75 9.75 L6 9.75 C5.58579 9.75 5.25 10.0858 5.25 10.5 C5.25 10.9142 5.58579 11.25 6 11.25 L6.75 11.25 L6.75 12 C6.75 12.4142 7.08579 12.75 7.5 12.75 C7.91421 12.75 8.25 12.4142 8.25 12 L8.25 11.25 L9 11.25 C9.41421 11.25 9.75 10.9142 9.75 10.5 C9.75 10.0858 9.41421 9.75 9 9.75 L8.25 9.75 L8.25 9 C8.25 8.58579 7.91421 8.25 7.5 8.25 Z M19 10.25 C19 9.83579 18.6642 9.5 18.25 9.5 C17.8358 9.5 17.5 9.83579 17.5 10.25 C17.5 10.6642 17.8358 11 18.25 11 C18.6642 11 19 10.6642 19 10.25 Z M 15.25 11 C 15.6642 11 16 10.6642 16 10.25 C 16 9.83579 15.6642 9.5 15.25 9.5 C 14.8358 9.5 14.5 9.83579 14.5 10.25 C 14.5 10.6642 14.8358 11 15.25 11 Z M 17.5 11.75 C 17.5 11.3358 17.1642 11 16.75 11 C 16.3358 11 16 11.3358 16 11.75 C 16 12.1642 16.3358 12.5 16.75 12.5 C 17.1642 12.5 17.5 12.1642 17.5 11.75 Z" fill="#FFFFFF" />
</svg>