<svg xmlns="http://www.w3.org/2000/svg" width="24" height="24" viewBox="0 0 24 24" fill="none">
  <path fill-rule="nonzero" clip-rule="nonzero" d="M10.6669 6.13443 C11.0567 6.41029 11.5225 6.55844 12 6.55844 C12.4776 6.55844 12.9434 6.41029 13.3332 6.13441 L13.8351 5.77922 C14.5514 5.27225 15.4074 5 16.2849 5 L16.8974 5 C17.3016 5 17.7099 5.02549 18.0908 5.16059 C20.4735 6.00566 22.1125 9.09503 21.994 16.1026 C21.9701 17.5145 21.6397 19.075 20.3658 19.6842 C19.9688 19.8741 19.5033 20 18.9733 20 C18.3373 20 17.8322 19.8187 17.4424 19.5632 C17.0336 19.2953 16.6737 18.9471 16.3139 18.599 C15.8693 18.1688 15.4249 17.7389 14.8888 17.4609 C14.3048 17.1581 13.6566 17 12.9989 17 L11.0011 17 C10.3434 17 9.69519 17.1581 9.11125 17.4609 C8.57511 17.7389 8.13071 18.1688 7.68612 18.599 C7.32633 18.9471 6.96641 19.2953 6.55763 19.5632 C6.1678 19.8187 5.66273 20 5.02671 20 C4.49667 20 4.03121 19.8741 3.63423 19.6842 C2.3603 19.075 2.02992 17.5145 2.00604 16.1026 C1.88749 9.09504 3.52645 6.00566 5.90915 5.16059 C6.29009 5.02549 6.69838 5 7.10257 5 L7.71504 5 C8.59264 5 9.44862 5.27225 10.165 5.77922 L10.6669 6.13443 Z M16.75 9 C16.3358 9 16 9.33579 16 9.75 C16 10.1642 16.3358 10.5 16.75 10.5 C17.1642 10.5 17.5 10.1642 17.5 9.75 C17.5 9.33579 17.1642 9 16.75 9 Z M7.5 9.25 C7.08579 9.25 6.75 9.58579 6.75 10 L6.75 10.75 L6 10.75 C5.58579 10.75 5.25 11.0858 5.25 11.5 C5.25 11.9142 5.58579 12.25 6 12.25 L6.75 12.25 L6.75 13 C6.75 13.4142 7.08579 13.75 7.5 13.75 C7.91421 13.75 8.25 13.4142 8.25 13 L8.25 12.25 L9 12.25 C9.41421 12.25 9.75 11.9142 9.75 11.5 C9.75 11.0858 9.41421 10.75 9 10.75 L8.25 10.75 L8.25 10 C8.25 9.58579 7.91421 9.25 7.5 9.25 Z M19 11.25 C19 10.8358 18.6642 10.5 18.25 10.5 C17.8358 10.5 17.5 10.8358 17.5 11.25 C17.5 11.6642 17.8358 12 18.25 12 C18.6642 12 19 11.6642 19 11.25 Z M 15.25 12 C 15.6642 12 16 11.6642 16 11.25 C 16 10.8358 15.6642 10.5 15.25 10.5 C 14.8358 10.5 14.5 10.8358 14.5 11.25 C 14.5 11.6642 14.8358 12 15.25 12 Z M 17.5 12.75 C 17.5 12.3358 17.1642 12 16.75 12 C 16.3358 12 16 12.3358 16 12.75 C 16 13.1642 16.3358 13.5 16.75 13.5 C 17.1642 13.5 17.5 13.1642 17.5 12.75 Z" fill="#FFFFFF" />
</svg>