<svg xmlns="http://www.w3.org/2000/svg" width="24" height="24" viewBox="0 0 24 24" fill="none">
  <path fill-rule="nonzero" clip-rule="nonzero" d="M 15.0001 2.25 C 15.4143 2.25 15.7501 2.58579 15.7501 3 V 4 C 15.7501 4.9665 14.9666 5.75 14.0001 5.75 H 13.0001 C 12.862 5.75 12.7501 5.86193 12.7501 6 V 6.25 H 13.2829 C 14.5963 6.24999 15.6372 6.24998 16.477 6.33283 C 17.3395 6.41791 18.0599 6.59536 18.7113 6.99393 C 19.0195 7.1825 19.3059 7.40357 19.5654 7.65336 C 20.1157 8.183 20.4603 8.83075 20.7436 9.63414 C 21.0186 10.4138 21.2561 11.4025 21.5545 12.6449 L 22.649 17.2015 C 23.132 19.2123 21.8438 21.1948 19.822 21.6539 C 18.12 22.0404 16.3544 21.2355 15.5735 19.6838 L 15.4455 19.4294 C 15.0058 18.5559 14.0854 17.9899 13.0637 17.9899 H 10.9364 C 9.91472 17.9899 8.9943 18.5559 8.55464 19.4294 L 8.42664 19.6838 C 7.6457 21.2355 5.88015 22.0404 4.17812 21.6539 C 2.15636 21.1948 0.868081 19.2123 1.3511 17.2015 L 2.44558 12.645 C 2.74401 11.4026 2.98151 10.4138 3.2565 9.63413 C 3.53987 8.83075 3.88444 8.183 4.4347 7.65336 C 4.6942 7.40357 4.98067 7.1825 5.28887 6.99393 C 5.94027 6.59536 6.66067 6.41791 7.52311 6.33283 C 8.36293 6.24998 9.40388 6.24999 10.7173 6.25 H 11.2501 V 6 C 11.2501 5.0335 12.0336 4.25 13.0001 4.25 H 14.0001 C 14.1381 4.25 14.2501 4.13807 14.2501 4 V 3 C 14.2501 2.58579 14.5859 2.25 15.0001 2.25 Z M 10.7569 7.75 C 9.39504 7.75 8.428 7.75085 7.67036 7.82559 C 6.9269 7.89893 6.45599 8.03831 6.07175 8.27342 C 5.85575 8.40558 5.65565 8.56011 5.47492 8.73407 C 5.15541 9.04161 4.91178 9.45069 4.67109 10.1331 C 4.42498 10.8308 4.20471 11.7438 3.89445 13.0355 L 2.80961 17.5518 C 2.52993 18.7162 3.26907 19.9093 4.51029 20.1911 C 5.5599 20.4295 6.62483 19.9273 7.08676 19.0094 L 7.21476 18.7551 C 7.91626 17.3613 9.36384 16.4899 10.9364 16.4899 H 13.0637 C 14.6363 16.4899 16.0839 17.3613 16.7854 18.7551 L 16.9134 19.0094 C 17.3753 19.9273 18.4402 20.4295 19.4898 20.1911 C 20.7311 19.9093 21.4702 18.7162 21.1905 17.5518 L 20.1057 13.0355 C 19.7954 11.7439 19.5752 10.8308 19.329 10.1331 C 19.0884 9.45069 18.8447 9.04161 18.5252 8.73407 C 18.3445 8.56011 18.1444 8.40558 17.9284 8.27342 C 17.5441 8.03831 17.0732 7.89893 16.3298 7.82559 C 15.5721 7.75085 14.6051 7.75 13.2432 7.75 H 10.7569 Z M 8.50007 10.25 C 8.91428 10.25 9.25007 10.5858 9.25007 11 V 11.75 H 10.0001 C 10.4143 11.75 10.7501 12.0858 10.7501 12.5 C 10.7501 12.9142 10.4143 13.25 10.0001 13.25 H 9.25007 V 14 C 9.25007 14.4142 8.91428 14.75 8.50007 14.75 C 8.08585 14.75 7.75007 14.4142 7.75007 14 V 13.25 H 7.00007 C 6.58585 13.25 6.25007 12.9142 6.25007 12.5 C 6.25007 12.0858 6.58585 11.75 7.00007 11.75 H 7.75007 V 11 C 7.75007 10.5858 8.08585 10.25 8.50007 10.25 Z" fill="#FFFFFF" />
  <path d="M16.0001 11C16.0001 11.5523 15.5524 12 15.0001 12C14.4478 12 14.0001 11.5523 14.0001 11C14.0001 10.4477 14.4478 10 15.0001 10C15.5524 10 16.0001 10.4477 16.0001 11Z" fill="#FFFFFF" />
  <path d="M18.0001 14C18.0001 14.5523 17.5524 15 17.0001 15C16.4478 15 16.0001 14.5523 16.0001 14C16.0001 13.4477 16.4478 13 17.0001 13C17.5524 13 18.0001 13.4477 18.0001 14Z" fill="#FFFFFF" />
</svg>