<svg xmlns="http://www.w3.org/2000/svg" width="24" height="24" viewBox="0 0 24 24" fill="none">
  <path fill-rule="nonzero" clip-rule="nonzero" d="M 15 1.25 C 15.4142 1.25 15.75 1.58579 15.75 2 V 3 C 15.75 3.9665 14.9665 4.75 14 4.75 H 13 C 12.8619 4.75 12.75 4.86193 12.75 5 V 6 H 14 C 17.7712 6 19.6569 6 20.8284 7.17157 C 22 8.34315 22 10.2288 22 14 C 22 17.7712 22 19.6569 20.8284 20.8284 C 19.6569 22 17.7712 22 14 22 H 10 C 6.22876 22 4.34315 22 3.17157 20.8284 C 2 19.6569 2 17.7712 2 14 C 2 10.2288 2 8.34315 3.17157 7.17157 C 4.34315 6 6.22876 6 10 6 H 11.25 V 5 C 11.25 4.0335 12.0335 3.25 13 3.25 H 14 C 14.1381 3.25 14.25 3.13807 14.25 3 V 2 C 14.25 1.58579 14.5858 1.25 15 1.25 Z M 8.75 12 C 8.75 11.5858 8.41421 11.25 8 11.25 C 7.58579 11.25 7.25 11.5858 7.25 12 V 13.05 C 7.25 13.1605 7.16046 13.25 7.05 13.25 H 6 C 5.58579 13.25 5.25 13.5858 5.25 14 C 5.25 14.4142 5.58579 14.75 6 14.75 H 7.05 C 7.16046 14.75 7.25 14.8395 7.25 14.95 V 16 C 7.25 16.4142 7.58579 16.75 8 16.75 C 8.41421 16.75 8.75 16.4142 8.75 16 V 14.95 C 8.75 14.8395 8.83954 14.75 8.95 14.75 H 10 C 10.4142 14.75 10.75 14.4142 10.75 14 C 10.75 13.5858 10.4142 13.25 10 13.25 H 8.95 C 8.83954 13.25 8.75 13.1605 8.75 13.05 V 12 Z M 15 13.5 C 15.5523 13.5 16 13.0523 16 12.5 C 16 11.9477 15.5523 11.5 15 11.5 C 14.4477 11.5 14 11.9477 14 12.5 C 14 13.0523 14.4477 13.5 15 13.5 Z M18 15.5 C18 14.9477 17.5523 14.5 17 14.5 C16.4477 14.5 16 14.9477 16 15.5 C16 16.0523 16.4477 16.5 17 16.5 C17.5523 16.5 18 16.0523 18 15.5 Z" fill="#FFFFFF" />
</svg>