<svg xmlns="http://www.w3.org/2000/svg" width="24" height="24" viewBox="0 0 24 24" fill="none">
  <path d="M12.75 18.968C13.1813 18.857 13.5 18.4655 13.5 17.9996V17.2733C13.5 17.1099 13.3954 16.9649 13.2404 16.9132C12.4353 16.6448 11.5647 16.6448 10.7596 16.9132C10.6046 16.9649 10.5 17.1099 10.5 17.2733V17.9996C10.5 18.4655 10.8187 18.857 11.25 18.968V22.25C11.25 22.6642 11.5858 23 12 23C12.4142 23 12.75 22.6642 12.75 22.25V18.968Z" fill="#FFFFFF"/>
  <g opacity="0.5"/>
  <path d="M16.75 8C17.1642 8 17.5 8.33579 17.5 8.75C17.5 9.16421 17.1642 9.5 16.75 9.5C16.3358 9.5 16 9.16421 16 8.75C16 8.33579 16.3358 8 16.75 8Z" fill="#FFFFFF"/>
  <path d="M7.5 8.25C7.91421 8.25 8.25 8.58579 8.25 9V9.75H9C9.41421 9.75 9.75 10.0858 9.75 10.5C9.75 10.9142 9.41421 11.25 9 11.25H8.25V12C8.25 12.4142 7.91421 12.75 7.5 12.75C7.08579 12.75 6.75 12.4142 6.75 12V11.25H6C5.58579 11.25 5.25 10.9142 5.25 10.5C5.25 10.0858 5.58579 9.75 6 9.75H6.75V9C6.75 8.58579 7.08579 8.25 7.5 8.25Z" fill="#FFFFFF"/>
  <path d="M19 10.25C19 10.6642 18.6642 11 18.25 11C17.8358 11 17.5 10.6642 17.5 10.25C17.5 9.83579 17.8358 9.5 18.25 9.5C18.6642 9.5 19 9.83579 19 10.25Z" fill="#FFFFFF"/>
  <path d="M15.25 11C15.6642 11 16 10.6642 16 10.25C16 9.83579 15.6642 9.5 15.25 9.5C14.8358 9.5 14.5 9.83579 14.5 10.25C14.5 10.6642 14.8358 11 15.25 11Z" fill="#FFFFFF"/>
  <path d="M17.5 11.75C17.5 11.3358 17.1642 11 16.75 11C16.3358 11 16 11.3358 16 11.75C16 12.1642 16.3358 12.5 16.75 12.5C17.1642 12.5 17.5 12.1642 17.5 11.75Z" fill="#FFFFFF"/>
</svg>