<svg xmlns="http://www.w3.org/2000/svg" width="24" height="24" viewBox="0 0 24 24" fill="none">
  <path fill-rule="nonzero" clip-rule="nonzero" d="M 20 9.80145 V 13.8676 C 20 17.7013 20 19.6181 18.8284 20.809 C 17.6569 22 15.7712 22 12 22 C 8.22876 22 6.34315 22 5.17157 20.809 C 4 19.6181 4 17.7013 4 13.8676 V 9.80145 C 4 5.96782 4 4.051 5.17157 2.86005 C 5.54739 2.47801 5.99669 2.21852 6.55813 2.04228 C 6.91142 1.93137 7.28557 2.08933 7.5 2.39265 C 7.55391 2.47485 7.60506 2.55304 7.65377 2.62751 C 8.28829 3.59749 8.50937 3.93544 9.02215 4.25936 C 9.13195 4.32871 9.24604 4.39078 9.36371 4.44518 C 9.95547 4.71873 10.637 4.71873 12 4.71873 C 13.363 4.71873 14.0445 4.71873 14.6363 4.44518 C 14.754 4.39078 14.8681 4.32871 14.9778 4.25936 C 15.4906 3.93544 15.7117 3.59749 16.3462 2.62752 C 16.3949 2.55305 16.4461 2.47485 16.5 2.39265 C 16.6992 2.08835 17.0639 1.92644 17.4105 2.03256 C 17.9866 2.20895 18.4456 2.47093 18.8284 2.86005 C 20 4.051 20 5.96782 20 9.80145 Z M 9 18.2294 C 8.58579 18.2294 8.25 18.567 8.25 18.9835 C 8.25 19.4 8.58579 19.7376 9 19.7376 H 15 C 15.4142 19.7376 15.75 19.4 15.75 18.9835 C 15.75 18.567 15.4142 18.2294 15 18.2294 H 9 Z" fill="#FFFFFF" />
</svg>