<svg xmlns="http://www.w3.org/2000/svg" width="24" height="24" viewBox="0 0 24 24" fill="none">
  <path fill-rule="nonzero" clip-rule="nonzero" d="M 8 5 H 16 C 18.8284 5 20.2426 5 21.1213 5.87868 C 22 6.75736 22 8.17157 22 11 V 13 C 22 15.8284 22 17.2426 21.1213 18.1213 C 20.2426 19 18.8284 19 16 19 H 8 C 5.17157 19 3.75736 19 2.87868 18.1213 C 2 17.2426 2 15.8284 2 13 V 11 C 2 8.17157 2 6.75736 2.87868 5.87868 C 3.75736 5 5.17157 5 8 5 Z M 6 10 C 6.55228 10 7 9.55228 7 9 C 7 8.44772 6.55228 8 6 8 C 5.44772 8 5 8.44772 5 9 C 5 9.55228 5.44772 10 6 10 Z M 6 13 C 6.55228 13 7 12.5523 7 12 C 7 11.4477 6.55228 11 6 11 C 5.44772 11 5 11.4477 5 12 C 5 12.5523 5.44772 13 6 13 Z M 9 13 C 9.55228 13 10 12.5523 10 12 C 10 11.4477 9.55228 11 9 11 C 8.44772 11 8 11.4477 8 12 C 8 12.5523 8.44772 13 9 13 Z M 9 10 C 9.55228 10 10 9.55228 10 9 C 10 8.44772 9.55228 8 9 8 C 8.44772 8 8 8.44772 8 9 C 8 9.55228 8.44772 10 9 10 Z M 12 10 C 12.5523 10 13 9.55228 13 9 C 13 8.44772 12.5523 8 12 8 C 11.4477 8 11 8.44772 11 9 C 11 9.55228 11.4477 10 12 10 Z M 12 13 C 12.5523 13 13 12.5523 13 12 C 13 11.4477 12.5523 11 12 11 C 11.4477 11 11 11.4477 11 12 C 11 12.5523 11.4477 13 12 13 Z M 15 10 C 15.5523 10 16 9.55228 16 9 C 16 8.44772 15.5523 8 15 8 C 14.4477 8 14 8.44772 14 9 C 14 9.55228 14.4477 10 15 10 Z M 15 13 C 15.5523 13 16 12.5523 16 12 C 16 11.4477 15.5523 11 15 11 C 14.4477 11 14 11.4477 14 12 C 14 12.5523 14.4477 13 15 13 Z M 18 10 C 18.5523 10 19 9.55228 19 9 C 19 8.44772 18.5523 8 18 8 C 17.4477 8 17 8.44772 17 9 C 17 9.55228 17.4477 10 18 10 Z M 18 13 C 18.5523 13 19 12.5523 19 12 C 19 11.4477 18.5523 11 18 11 C 17.4477 11 17 11.4477 17 12 C 17 12.5523 17.4477 13 18 13 Z M17.75 16 C17.75 15.5858 17.4142 15.25 17 15.25 L7 15.25 C6.58579 15.25 6.25 15.5858 6.25 16 C6.25 16.4142 6.58579 16.75 7 16.75 L17 16.75 C17.4142 16.75 17.75 16.4142 17.75 16 Z" fill="#FFFFFF" />
</svg>