<svg xmlns="http://www.w3.org/2000/svg" width="24" height="24" viewBox="0 0 24 24" fill="none">
  <path d="M7 9C7 9.55229 6.55229 10 6 10C5.44772 10 5 9.55229 5 9C5 8.44772 5.44772 8 6 8C6.55229 8 7 8.44772 7 9Z" fill="#FFFFFF" />
  <path d="M7 12C7 12.5523 6.55229 13 6 13C5.44772 13 5 12.5523 5 12C5 11.4477 5.44772 11 6 11C6.55229 11 7 11.4477 7 12Z" fill="#FFFFFF" />
  <path d="M10 12C10 12.5523 9.55229 13 9 13C8.44772 13 8 12.5523 8 12C8 11.4477 8.44772 11 9 11C9.55229 11 10 11.4477 10 12Z" fill="#FFFFFF" />
  <path d="M10 9C10 9.55229 9.55229 10 9 10C8.44772 10 8 9.55229 8 9C8 8.44772 8.44772 8 9 8C9.55229 8 10 8.44772 10 9Z" fill="#FFFFFF" />
  <path d="M13 9C13 9.55229 12.5523 10 12 10C11.4477 10 11 9.55229 11 9C11 8.44772 11.4477 8 12 8C12.5523 8 13 8.44772 13 9Z" fill="#FFFFFF" />
  <path d="M13 12C13 12.5523 12.5523 13 12 13C11.4477 13 11 12.5523 11 12C11 11.4477 11.4477 11 12 11C12.5523 11 13 11.4477 13 12Z" fill="#FFFFFF" />
  <path d="M16 9C16 9.55229 15.5523 10 15 10C14.4477 10 14 9.55229 14 9C14 8.44772 14.4477 8 15 8C15.5523 8 16 8.44772 16 9Z" fill="#FFFFFF" />
  <path d="M16 12C16 12.5523 15.5523 13 15 13C14.4477 13 14 12.5523 14 12C14 11.4477 14.4477 11 15 11C15.5523 11 16 11.4477 16 12Z" fill="#FFFFFF" />
  <path d="M19 9C19 9.55229 18.5523 10 18 10C17.4477 10 17 9.55229 17 9C17 8.44772 17.4477 8 18 8C18.5523 8 19 8.44772 19 9Z" fill="#FFFFFF" />
  <path d="M19 12C19 12.5523 18.5523 13 18 13C17.4477 13 17 12.5523 17 12C17 11.4477 17.4477 11 18 11C18.5523 11 19 11.4477 19 12Z" fill="#FFFFFF" />
  <path fill-rule="nonzero" clip-rule="nonzero" d="M 7.94513 4.25 H 16.0549 C 17.4225 4.24998 18.5248 4.24996 19.3918 4.36652 C 20.2919 4.48754 21.0497 4.74643 21.6517 5.34835 C 22.2536 5.95027 22.5125 6.70814 22.6335 7.60825 C 22.75 8.47522 22.75 9.57754 22.75 10.9451 V 13.0549 C 22.75 14.4225 22.75 15.5248 22.6335 16.3918 C 22.5125 17.2919 22.2536 18.0497 21.6517 18.6517 C 21.0497 19.2536 20.2919 19.5125 19.3918 19.6335 C 18.5248 19.75 17.4225 19.75 16.0549 19.75 H 7.94513 C 6.57754 19.75 5.47522 19.75 4.60825 19.6335 C 3.70814 19.5125 2.95027 19.2536 2.34835 18.6517 C 1.74643 18.0497 1.48754 17.2919 1.36652 16.3918 C 1.24996 15.5248 1.24998 14.4225 1.25 13.0549 V 10.9451 C 1.24998 9.57754 1.24996 8.47522 1.36652 7.60825 C 1.48754 6.70814 1.74643 5.95027 2.34835 5.34835 C 2.95027 4.74643 3.70814 4.48754 4.60825 4.36652 C 5.47522 4.24996 6.57754 4.24998 7.94513 4.25 Z M 4.80812 5.85315 C 4.07435 5.9518 3.68577 6.13225 3.40901 6.40901 C 3.13225 6.68577 2.9518 7.07435 2.85315 7.80812 C 2.75159 8.56347 2.75 9.56458 2.75 11 V 13 C 2.75 14.4354 2.75159 15.4365 2.85315 16.1919 C 2.9518 16.9257 3.13225 17.3142 3.40901 17.591 C 3.68577 17.8678 4.07435 18.0482 4.80812 18.1469 C 5.56347 18.2484 6.56458 18.25 8 18.25 H 16 C 17.4354 18.25 18.4365 18.2484 19.1919 18.1469 C 19.9257 18.0482 20.3142 17.8678 20.591 17.591 C 20.8678 17.3142 21.0482 16.9257 21.1469 16.1919 C 21.2484 15.4365 21.25 14.4354 21.25 13 V 11 C 21.25 9.56459 21.2484 8.56347 21.1469 7.80812 C 21.0482 7.07435 20.8678 6.68577 20.591 6.40901 C 20.3142 6.13225 19.9257 5.9518 19.1919 5.85315 C 18.4365 5.75159 17.4354 5.75 16 5.75 H 8 C 6.56458 5.75 5.56347 5.75159 4.80812 5.85315 Z M 6.25 16 C 6.25 15.5858 6.58579 15.25 7 15.25 H 17 C 17.4142 15.25 17.75 15.5858 17.75 16 C 17.75 16.4142 17.4142 16.75 17 16.75 H 7 C 6.58579 16.75 6.25 16.4142 6.25 16 Z" fill="#FFFFFF" />
</svg>