<svg xmlns="http://www.w3.org/2000/svg" width="24" height="24" viewBox="0 0 24 24" fill="none">
  <path fill-rule="nonzero" clip-rule="nonzero" d="M 8.94513 2.25 H 15.0549 C 16.4225 2.24998 17.5248 2.24996 18.3918 2.36652 C 19.2919 2.48754 20.0497 2.74643 20.6517 3.34835 C 21.2536 3.95027 21.5125 4.70814 21.6335 5.60825 C 21.75 6.47522 21.75 7.57754 21.75 8.94513 V 14.052 C 21.75 14.9505 21.7501 15.6997 21.6701 16.2945 C 21.5857 16.9223 21.4 17.4891 20.9445 17.9445 C 20.4891 18.4 19.9223 18.5857 19.2945 18.6701 C 18.6997 18.7501 17.9505 18.75 17.052 18.75 H 6.94801 C 6.04952 18.75 5.3003 18.7501 4.70552 18.6701 C 4.07773 18.5857 3.51093 18.4 3.05546 17.9445 C 2.59999 17.4891 2.41432 16.9223 2.32991 16.2945 C 2.24994 15.6997 2.24997 14.9505 2.25 14.052 L 2.25 8.94513 C 2.24998 7.57754 2.24996 6.47522 2.36652 5.60825 C 2.48754 4.70814 2.74643 3.95027 3.34835 3.34835 C 3.95027 2.74643 4.70814 2.48754 5.60825 2.36652 C 6.47522 2.24996 7.57754 2.24998 8.94513 2.25 Z M 5.80812 3.85315 C 5.07434 3.9518 4.68577 4.13225 4.40901 4.40901 C 4.13225 4.68577 3.9518 5.07435 3.85315 5.80812 C 3.75159 6.56347 3.75 7.56458 3.75 9 V 14 C 3.75 14.964 3.75159 15.6116 3.81654 16.0946 C 3.87858 16.5561 3.9858 16.7536 4.11612 16.8839 C 4.24643 17.0142 4.44393 17.1214 4.90539 17.1835 C 5.38843 17.2484 6.03599 17.25 7 17.25 H 17 C 17.964 17.25 18.6116 17.2484 19.0946 17.1835 C 19.5561 17.1214 19.7536 17.0142 19.8839 16.8839 C 20.0142 16.7536 20.1214 16.5561 20.1835 16.0946 C 20.2484 15.6116 20.25 14.964 20.25 14 V 9 C 20.25 7.56459 20.2484 6.56347 20.1469 5.80812 C 20.0482 5.07435 19.8678 4.68577 19.591 4.40901 C 19.3142 4.13225 18.9257 3.9518 18.1919 3.85315 C 17.4365 3.75159 16.4354 3.75 15 3.75 H 9 C 7.56458 3.75 6.56347 3.75159 5.80812 3.85315 Z M 8.25 15 C 8.25 14.5858 8.58579 14.25 9 14.25 H 15 C 15.4142 14.25 15.75 14.5858 15.75 15 C 15.75 15.4142 15.4142 15.75 15 15.75 H 9 C 8.58579 15.75 8.25 15.4142 8.25 15 Z M 1.25 21 C 1.25 20.5858 1.58579 20.25 2 20.25 H 22 C 22.4142 20.25 22.75 20.5858 22.75 21 C 22.75 21.4142 22.4142 21.75 22 21.75 H 2 C 1.58579 21.75 1.25 21.4142 1.25 21 Z" fill="#FFFFFF" />
</svg>