<svg xmlns="http://www.w3.org/2000/svg" width="24" height="24" viewBox="0 0 24 24" fill="none">
  <path fill-rule="nonzero" clip-rule="nonzero" d="M 21.3911 16.3358 C 21.4356 16.3818 21.4579 16.4048 21.4787 16.4276 C 21.7998 16.7802 21.9843 17.2358 21.999 17.7124 C 22 17.7433 22 17.7753 22 17.8393 C 22 17.9885 22 18.0631 21.996 18.1261 C 21.9325 19.1314 21.1314 19.9325 20.1261 19.996 C 20.0631 20 19.9885 20 19.8393 20 H 4.16068 C 4.01148 20 3.93688 20 3.87388 19.996 C 2.86865 19.9325 2.06749 19.1314 2.00398 18.1261 C 2 18.0631 2 17.9885 2 17.8393 C 2 17.7753 2 17.7433 2.00096 17.7124 C 2.01569 17.2358 2.20022 16.7802 2.52127 16.4276 C 2.54208 16.4048 2.56433 16.3818 2.60883 16.3359 L 3.90311 15 H 20.0969 L 21.3911 16.3358 Z M8.75 18 C8.75 18.4142 9.08579 18.75 9.5 18.75 L14.5 18.75 C14.9142 18.75 15.25 18.4142 15.25 18 C15.25 17.5858 14.9142 17.25 14.5 17.25 L9.5 17.25 C9.08579 17.25 8.75 17.5858 8.75 18 Z" fill="#FFFFFF" />
  <path fill-rule="nonzero" clip-rule="nonzero" d="M 4.35294 7 C 4.35294 5.11438 4.35294 4.17157 4.93873 3.58579 C 5.52451 3 6.46732 3 8.35294 3 H 15.6471 C 17.5327 3 18.4755 3 19.0613 3.58579 C 19.6471 4.17157 19.6471 5.11438 19.6471 7 V 14 H 4.35294 V 7 Z M 12 6.5 C 12.4142 6.5 12.75 6.16421 12.75 5.75 C 12.75 5.33579 12.4142 5 12 5 C 11.5858 5 11.25 5.33579 11.25 5.75 C 11.25 6.16421 11.5858 6.5 12 6.5 Z" fill="#FFFFFF" />
</svg>