<svg xmlns="http://www.w3.org/2000/svg" width="24" height="24" viewBox="0 0 24 24" fill="none">
  <path fill-rule="nonzero" clip-rule="nonzero" d="M 9.44513 3.25 H 14.5549 C 15.9225 3.24998 17.0248 3.24996 17.8918 3.36652 C 18.7919 3.48754 19.5497 3.74643 20.1517 4.34835 C 20.7536 4.95027 21.0125 5.70814 21.1335 6.60825 C 21.25 7.47522 21.25 8.57754 21.25 9.94513 V 14.2677 C 22.0981 14.389 22.75 15.1184 22.75 16 V 17 C 22.75 19.0711 21.0711 20.75 19 20.75 H 5 C 2.92893 20.75 1.25 19.0711 1.25 17 V 16 C 1.25 15.1184 1.90193 14.389 2.75 14.2677 L 2.75 9.94513 C 2.74998 8.57754 2.74996 7.47522 2.86652 6.60825 C 2.98754 5.70814 3.24643 4.95027 3.84835 4.34835 C 4.45027 3.74643 5.20814 3.48754 6.10825 3.36652 C 6.97522 3.24996 8.07754 3.24998 9.44513 3.25 Z M 3 15.75 C 2.86193 15.75 2.75 15.8619 2.75 16 V 17 C 2.75 18.2426 3.75736 19.25 5 19.25 H 19 C 20.2426 19.25 21.25 18.2426 21.25 17 V 16 C 21.25 15.8619 21.1381 15.75 21 15.75 H 16.6667 C 16.3962 15.75 16.133 15.8377 15.9167 16 L 14.9833 16.7 C 14.5073 17.057 13.9284 17.25 13.3333 17.25 H 10.6667 C 10.0716 17.25 9.49268 17.057 9.01667 16.7 L 8.08333 16 C 7.86696 15.8377 7.6038 15.75 7.33333 15.75 H 3 Z M19.75 14.25 L19.75 10 C19.75 8.56459 19.7484 7.56347 19.6469 6.80812 C19.5482 6.07435 19.3678 5.68577 19.091 5.40901 C18.8142 5.13225 18.4257 4.9518 17.6919 4.85315 C16.9365 4.75159 15.9354 4.75 14.5 4.75 L9.5 4.75 C8.06458 4.75 7.06347 4.75159 6.30812 4.85315 C5.57434 4.9518 5.18577 5.13225 4.90901 5.40901 C4.63225 5.68577 4.4518 6.07435 4.35315 6.80812 C4.25159 7.56347 4.25 8.56459 4.25 10 L4.25 14.25 L7.33333 14.25 C7.92835 14.25 8.50732 14.443 8.98333 14.8 L9.91667 15.5 C10.133 15.6623 10.3962 15.75 10.6667 15.75 L13.3333 15.75 C13.6038 15.75 13.867 15.6623 14.0833 15.5 L15.0167 14.8 C15.4927 14.443 16.0716 14.25 16.6667 14.25 L19.75 14.25 Z" fill="#FFFFFF" />
</svg>