<svg xmlns="http://www.w3.org/2000/svg" width="24" height="24" viewBox="0 0 24 24" fill="none">
  <path fill-rule="evenodd" clip-rule="evenodd" d="M1 20.24C1 19.8203 1.3436 19.48 1.76744 19.48H22.2326C22.6564 19.48 23 19.8203 23 20.24C23 20.6597 22.6564 21 22.2326 21H1.76744C1.3436 21 1 20.6597 1 20.24Z" fill="#FFFFFF" />
  <path fill-rule="nonzero" clip-rule="nonzero" d="M3.68981 3.8904 C4.58893 3 6.03603 3 8.93023 3 L15.0698 3 C17.964 3 19.4111 3 20.3102 3.8904 C21.2093 4.78079 21.2093 6.21386 21.2093 9.08 L21.2093 14.1467 C21.2093 16.0574 21.2093 17.0128 20.6099 17.6064 C20.0105 18.2 19.0457 18.2 17.1163 18.2 L6.88372 18.2 C4.95425 18.2 3.98952 18.2 3.39011 17.6064 C2.7907 17.0128 2.7907 16.0574 2.7907 14.1467 L2.7907 9.08 C2.7907 6.21386 2.7907 4.78079 3.68981 3.8904 Z M8.16279 15.16 C8.16279 15.5797 8.50639 15.92 8.93023 15.92 L15.0698 15.92 C15.4936 15.92 15.8372 15.5797 15.8372 15.16 C15.8372 14.7403 15.4936 14.4 15.0698 14.4 L8.93023 14.4 C8.50639 14.4 8.16279 14.7403 8.16279 15.16 Z" fill="#FFFFFF" />
</svg>