<svg xmlns="http://www.w3.org/2000/svg" width="24" height="24" viewBox="0 0 24 24" fill="none">
  <path fill-rule="nonzero" clip-rule="nonzero" d="M 9.44513 1.25 H 14.5549 C 15.9225 1.24998 17.0248 1.24996 17.8918 1.36652 C 18.7919 1.48754 19.5497 1.74643 20.1517 2.34835 C 20.7536 2.95027 21.0125 3.70814 21.1335 4.60825 C 21.25 5.47522 21.25 6.57754 21.25 7.94513 V 11.052 C 21.25 11.9505 21.2501 12.6997 21.1701 13.2945 C 21.0857 13.9223 20.9 14.4891 20.4445 14.9445 C 19.9891 15.4 19.4223 15.5857 18.7945 15.6701 C 18.1997 15.7501 17.4505 15.75 16.552 15.75 H 7.44801 C 6.54952 15.75 5.8003 15.7501 5.20552 15.6701 C 4.57773 15.5857 4.01093 15.4 3.55546 14.9445 C 3.09999 14.4891 2.91432 13.9223 2.82991 13.2945 C 2.74995 12.6997 2.74997 11.9505 2.75 11.052 L 2.75 7.94513 C 2.74998 6.57754 2.74996 5.47522 2.86652 4.60825 C 2.98754 3.70814 3.24643 2.95027 3.84835 2.34835 C 4.45027 1.74643 5.20814 1.48754 6.10825 1.36652 C 6.97522 1.24996 8.07754 1.24998 9.44513 1.25 Z M 6.30812 2.85315 C 5.57434 2.9518 5.18577 3.13225 4.90901 3.40901 C 4.63225 3.68577 4.4518 4.07435 4.35315 4.80812 C 4.25159 5.56347 4.25 6.56458 4.25 8 V 11 C 4.25 11.964 4.25159 12.6116 4.31654 13.0946 C 4.37858 13.5561 4.4858 13.7536 4.61612 13.8839 C 4.74643 14.0142 4.94393 14.1214 5.40539 14.1835 C 5.88843 14.2484 6.53599 14.25 7.5 14.25 H 16.5 C 17.464 14.25 18.1116 14.2484 18.5946 14.1835 C 19.0561 14.1214 19.2536 14.0142 19.3839 13.8839 C 19.5142 13.7536 19.6214 13.5561 19.6835 13.0946 C 19.7484 12.6116 19.75 11.964 19.75 11 V 8 C 19.75 6.56459 19.7484 5.56347 19.6469 4.80812 C 19.5482 4.07435 19.3678 3.68577 19.091 3.40901 C 18.8142 3.13225 18.4257 2.9518 17.6919 2.85315 C 16.9365 2.75159 15.9354 2.75 14.5 2.75 H 9.5 C 8.06458 2.75 7.06347 2.75159 6.30812 2.85315 Z M 3 17.75 C 2.86193 17.75 2.75 17.8619 2.75 18 V 19 C 2.75 20.2426 3.75736 21.25 5 21.25 H 19 C 20.2426 21.25 21.25 20.2426 21.25 19 V 18 C 21.25 17.8619 21.1381 17.75 21 17.75 H 16.6667 C 16.3962 17.75 16.133 17.8377 15.9167 18 L 14.9833 18.7 C 14.5073 19.057 13.9284 19.25 13.3333 19.25 H 10.6667 C 10.0716 19.25 9.49268 19.057 9.01667 18.7 L 8.08333 18 C 7.86696 17.8377 7.6038 17.75 7.33333 17.75 H 3 Z M 1.25 18 C 1.25 17.0335 2.0335 16.25 3 16.25 H 7.33333 C 7.92835 16.25 8.50732 16.443 8.98333 16.8 L 9.91667 17.5 C 10.133 17.6623 10.3962 17.75 10.6667 17.75 H 13.3333 C 13.6038 17.75 13.867 17.6623 14.0833 17.5 L 15.0167 16.8 C 15.4927 16.443 16.0716 16.25 16.6667 16.25 H 21 C 21.9665 16.25 22.75 17.0335 22.75 18 V 19 C 22.75 21.0711 21.0711 22.75 19 22.75 H 5 C 2.92893 22.75 1.25 21.0711 1.25 19 V 18 Z" fill="#FFFFFF" />
</svg>