<svg xmlns="http://www.w3.org/2000/svg" width="24" height="24" viewBox="0 0 24 24" fill="none">
  <path opacity="0.5" fill-rule="evenodd" clip-rule="evenodd" d="M12.5 19.25C12.9142 19.25 13.25 19.5858 13.25 20V22C13.25 22.4142 12.9142 22.75 12.5 22.75C12.0858 22.75 11.75 22.4142 11.75 22V20C11.75 19.5858 12.0858 19.25 12.5 19.25Z" fill="#FFFFFF" />
  <path fill-rule="nonzero" clip-rule="nonzero" d="M 10.8 8 H 13.2 C 15.4627 8 16.5941 8 17.2971 8.69229 C 18 9.38459 18 10.4988 18 12.7273 V 15.2727 C 18 17.5012 18 18.6154 17.2971 19.3077 C 16.5941 20 15.4627 20 13.2 20 H 10.8 C 8.53726 20 7.40589 20 6.70294 19.3077 C 6 18.6154 6 17.5012 6 15.2727 V 12.7273 C 6 10.4988 6 9.38459 6.70294 8.69229 C 7.40589 8 8.53726 8 10.8 8 Z M 12.6 12.45 C 12.8485 12.1186 12.7814 11.6485 12.45 11.4 C 12.1186 11.1515 11.6485 11.2186 11.4 11.55 L 9.9 13.55 C 9.72955 13.7773 9.70214 14.0813 9.82918 14.3354 C 9.95622 14.5895 10.2159 14.75 10.5 14.75 H 12 L 11.4 15.55 C 11.1515 15.8814 11.2186 16.3515 11.55 16.6 C 11.8814 16.8485 12.3515 16.7814 12.6 16.45 L 14.1 14.45 C 14.2704 14.2227 14.2979 13.9187 14.1708 13.6646 C 14.0438 13.4105 13.7841 13.25 13.5 13.25 H 12 L 12.6 12.45 Z" fill="#FFFFFF" />
  <path d="M10.25 4.75C10.25 4.33579 10.5858 4 11 4H13C13.4142 4 13.75 4.33579 13.75 4.75C13.75 5.16421 13.4142 5.5 13 5.5H11C10.5858 5.5 10.25 5.16421 10.25 4.75Z" fill="#FFFFFF" />
  <path fill-rule="nonzero" clip-rule="nonzero" d="M 10.8 8 H 13.2 C 15.4627 8 16.5941 8 17.2971 8.69229 C 18 9.38459 18 10.4988 18 12.7273 V 15.2727 C 18 17.5012 18 18.6154 17.2971 19.3077 C 16.5941 20 15.4627 20 13.2 20 H 10.8 C 8.53726 20 7.40589 20 6.70294 19.3077 C 6 18.6154 6 17.5012 6 15.2727 V 12.7273 C 6 10.4988 6 9.38459 6.70294 8.69229 C 7.40589 8 8.53726 8 10.8 8 Z M 12.6 12.45 C 12.8485 12.1186 12.7814 11.6485 12.45 11.4 C 12.1186 11.1515 11.6485 11.2186 11.4 11.55 L 9.9 13.55 C 9.72955 13.7773 9.70214 14.0813 9.82918 14.3354 C 9.95622 14.5895 10.2159 14.75 10.5 14.75 H 12 L 11.4 15.55 C 11.1515 15.8814 11.2186 16.3515 11.55 16.6 C 11.8814 16.8485 12.3515 16.7814 12.6 16.45 L 14.1 14.45 C 14.2704 14.2227 14.2979 13.9187 14.1708 13.6646 C 14.0438 13.4105 13.7841 13.25 13.5 13.25 H 12 L 12.6 12.45 Z" fill="#FFFFFF" />
  <path opacity="0.5" d="M8.5 5.5C8.5 4.09554 8.5 3.39331 8.83706 2.88886C8.98298 2.67048 9.17048 2.48298 9.38886 2.33706C9.89331 2 10.5955 2 12 2C13.4045 2 14.1067 2 14.6111 2.33706C14.8295 2.48298 15.017 2.67048 15.1629 2.88886C15.5 3.39331 15.5 4.09554 15.5 5.5V8.05092C14.8975 8 14.148 8 13.2 8H10.8C9.85196 8 9.10253 8 8.5 8.05092V5.5Z" fill="#FFFFFF" />
</svg>