<svg xmlns="http://www.w3.org/2000/svg" width="24" height="24" viewBox="0 0 24 24" fill="none">
  <path fill-rule="nonzero" clip-rule="nonzero" d="M 9.25 19.5 C 9.25 19.0858 9.58579 18.75 10 18.75 H 14 C 14.4142 18.75 14.75 19.0858 14.75 19.5 C 14.75 19.9142 14.4142 20.25 14 20.25 H 10 C 9.58579 20.25 9.25 19.9142 9.25 19.5 Z M 9.91667 22 C 9.91667 21.5858 10.2525 21.25 10.6667 21.25 H 13.3333 C 13.7475 21.25 14.0833 21.5858 14.0833 22 C 14.0833 22.4142 13.7475 22.75 13.3333 22.75 H 10.6667 C 10.2525 22.75 9.91667 22.4142 9.91667 22 Z" fill="#FFFFFF" />
  <path fill-rule="nonzero" clip-rule="nonzero" d="M 4.25 8.21807 C 4.25 4.31332 7.80388 1.25 12 1.25 C 16.1961 1.25 19.75 4.31332 19.75 8.21807 L 19.75 8.22133 C 19.7404 10.4277 18.7914 12.6257 17.1055 14.2246 L 17.1035 14.2266 L 15.9994 15.2658 C 15.8403 15.4156 15.75 15.6245 15.75 15.843 C 15.75 16.8962 14.8962 17.75 13.843 17.75 H 10.157 C 9.10379 17.75 8.25 16.8962 8.25 15.843 C 8.25 15.6245 8.15976 15.4156 8.0006 15.2658 L 6.89654 14.2266 L 6.89447 14.2246 C 5.20862 12.6257 4.25961 10.4277 4.25001 8.22133 L 4.25 8.21807 Z M 5.75 8.21645 C 5.75824 10.002 6.53021 11.8113 7.92565 13.1353 C 7.926 13.1356 7.92635 13.136 7.9267 13.1363 L 9.02865 14.1735 C 9.48898 14.6068 9.75 15.2109 9.75 15.843 C 9.75 16.0678 9.93222 16.25 10.157 16.25 H 13.843 C 14.0678 16.25 14.25 16.0678 14.25 15.843 C 14.25 15.2109 14.511 14.6068 14.9713 14.1735 C 14.9713 14.1735 14.9713 14.1735 14.9713 14.1735 L 16.0733 13.1363 C 16.0736 13.136 16.074 13.1357 16.0743 13.1354 C 17.4698 11.8113 18.2418 10.002 18.25 8.21637 C 18.2489 5.29948 15.5352 2.75 12 2.75 C 8.46478 2.75 5.751 5.29953 5.75 8.21645 Z" fill="#FFFFFF" />
</svg>