<svg xmlns="http://www.w3.org/2000/svg" width="24" height="24" viewBox="0 0 24 24" fill="none">
  <path fill-rule="nonzero" clip-rule="nonzero" d="M11.5 2 C15.6421 2 19 5.43595 19 9.67442 C19 11.9468 18.034 13.9892 16.5014 15.3934 C15.9906 15.8614 15.6122 16.2082 15.344 16.4598 C15.2099 16.5855 15.1074 16.6838 15.0317 16.7592 C14.994 16.7968 14.9651 16.8266 14.9436 16.8496 C14.933 16.861 14.925 16.8699 14.9192 16.8766 C14.917 16.8791 14.914 16.8826 14.914 16.8826 C14.9118 16.8852 14.9108 16.8864 14.9108 16.8864 C14.6743 17.1851 14.6231 17.2622 14.5926 17.332 C14.5621 17.4018 14.5402 17.4922 14.4805 17.8717 C14.457 18.0216 14.4545 18.2782 14.4545 18.9767 L14.4545 19.0067 C14.4546 19.4158 14.4546 19.7687 14.4289 20.0583 C14.4018 20.3645 14.3418 20.6677 14.1805 20.9535 C14.001 21.2717 13.7428 21.5359 13.4318 21.7196 C13.1525 21.8846 12.8562 21.946 12.557 21.9738 C12.274 22 11.9291 22 11.5293 22 L11.4707 22 C11.0709 22 10.726 22 10.443 21.9738 C10.1438 21.946 9.84747 21.8846 9.56818 21.7196 C9.25723 21.5359 8.99902 21.2717 8.81949 20.9535 C8.65825 20.6677 8.5982 20.3645 8.57107 20.0583 C8.54543 19.7687 8.54544 19.4158 8.54545 19.0067 L8.54545 18.9767 C8.54545 18.2782 8.54305 18.0216 8.51949 17.8717 C8.45982 17.4922 8.43787 17.4018 8.40739 17.332 C8.3769 17.2622 8.32571 17.1851 8.0892 16.8864 C8.0892 16.8864 8.08649 16.8831 8.0808 16.8766 C8.07499 16.8699 8.06699 16.861 8.05635 16.8496 C8.03486 16.8266 8.00601 16.7968 7.9683 16.7592 C7.89262 16.6838 7.7901 16.5855 7.65601 16.4598 C7.38782 16.2082 7.0094 15.8614 6.49859 15.3934 C4.96602 13.9892 4 11.9468 4 9.67442 C4 5.43595 7.35786 2 11.5 2 Z M 13.0709 19.9323 C 13.0776 19.8561 13.0821 19.7714 13.0851 19.6744 H 9.91494 C 9.91791 19.7714 9.92239 19.8561 9.92914 19.9323 C 9.9477 20.1418 9.97899 20.2178 10.0004 20.2558 C 10.0603 20.3619 10.1463 20.4499 10.25 20.5112 C 10.2871 20.5331 10.3615 20.5651 10.5661 20.5841 C 10.7802 20.604 11.0626 20.6047 11.5 20.6047 C 11.9374 20.6047 12.2198 20.604 12.4339 20.5841 C 12.6385 20.5651 12.7129 20.5331 12.75 20.5112 C 12.8537 20.4499 12.9397 20.3619 12.9996 20.2558 C 13.021 20.2178 13.0523 20.1418 13.0709 19.9323 Z" fill="#FFFFFF" />
  <path fill-rule="evenodd" clip-rule="evenodd" d="M9.27375 13.3508C9.63229 13.1434 10.0911 13.2659 10.2985 13.6245C10.5158 14 10.92 14.25 11.3817 14.25C11.8435 14.25 12.2477 14 12.465 13.6245C12.6724 13.2659 13.1312 13.1434 13.4897 13.3508C13.8483 13.5582 13.9708 14.017 13.7634 14.3755C13.4101 14.9862 12.8271 15.4496 12.1317 15.6464V17C12.1317 17.4142 11.7959 17.75 11.3817 17.75C10.9675 17.75 10.6317 17.4142 10.6317 17V15.6464C9.93629 15.4496 9.35336 14.9862 9.00009 14.3755C8.79268 14.017 8.9152 13.5582 9.27375 13.3508Z" fill="white" />
</svg>