<svg xmlns="http://www.w3.org/2000/svg" width="24" height="24" viewBox="0 0 24 24" fill="none">
  <path fill-rule="nonzero" clip-rule="nonzero" d="M 10.8 8 H 13.2 C 15.4627 8 16.5941 8 17.2971 8.69229 C 18 9.38459 18 10.4988 18 12.7273 V 15.2727 C 18 17.5012 18 18.6154 17.2971 19.3077 C 16.5941 20 15.4627 20 13.2 20 H 10.8 C 8.53726 20 7.40589 20 6.70294 19.3077 C 6 18.6154 6 17.5012 6 15.2727 V 12.7273 C 6 10.4988 6 9.38459 6.70294 8.69229 C 7.40589 8 8.53726 8 10.8 8 Z M 12.6 12.45 C 12.8485 12.1186 12.7814 11.6485 12.45 11.4 C 12.1186 11.1515 11.6485 11.2186 11.4 11.55 L 9.9 13.55 C 9.72955 13.7773 9.70214 14.0813 9.82918 14.3354 C 9.95622 14.5895 10.2159 14.75 10.5 14.75 H 12 L 11.4 15.55 C 11.1515 15.8814 11.2186 16.3515 11.55 16.6 C 11.8814 16.8485 12.3515 16.7814 12.6 16.45 L 14.1 14.45 C 14.2704 14.2227 14.2979 13.9187 14.1708 13.6646 C 14.0438 13.4105 13.7841 13.25 13.5 13.25 H 12 L 12.6 12.45 Z" fill="#FFFFFF" />
  <path fill-rule="nonzero" clip-rule="nonzero" d="M 10.7327 7 C 9.87851 6.99997 9.13183 6.99994 8.5 7.04787 V 5.5 C 8.5 4.09554 8.5 3.39331 8.83706 2.88886 C 8.98298 2.67048 9.17048 2.48298 9.38886 2.33706 C 9.89331 2 10.5955 2 12 2 C 13.4045 2 14.1067 2 14.6111 2.33706 C 14.8295 2.48298 15.017 2.67048 15.1629 2.88886 C 15.5 3.39331 15.5 4.09554 15.5 5.5 V 7.04787 C 14.8682 6.99994 14.1215 6.99997 13.2673 7 H 10.7327 Z M 11 3.75 C 10.5858 3.75 10.25 4.08579 10.25 4.5 C 10.25 4.91421 10.5858 5.25 11 5.25 H 13 C 13.4142 5.25 13.75 4.91421 13.75 4.5 C 13.75 4.08579 13.4142 3.75 13 3.75 H 11 Z" fill="#FFFFFF" />
  <path fill-rule="nonzero" clip-rule="nonzero" d="M13.2 8 C15.4627 8 16.5941 8 17.2971 8.69229 C18 9.38459 18 10.4988 18 12.7273 L18 15.2727 C18 17.5012 18 18.6154 17.2971 19.3077 C16.5941 20 15.4627 20 13.2 20 L12.75 20 L12.75 22 C12.75 22.4142 12.4142 22.75 12 22.75 C11.5858 22.75 11.25 22.4142 11.25 22 L11.25 20 L10.8 20 C8.53726 20 7.40589 20 6.70294 19.3077 C6 18.6154 6 17.5012 6 15.2727 L6 12.7273 C6 10.4988 6 9.38459 6.70294 8.69229 C7.40589 8 8.53726 8 10.8 8 L13.2 8 Z M12.45 11.4 C12.1186 11.1515 11.6485 11.2186 11.4 11.55 L9.9 13.55 C9.72955 13.7773 9.70214 14.0813 9.82918 14.3354 C9.95622 14.5895 10.2159 14.75 10.5 14.75 L12 14.75 L11.4 15.55 C11.1515 15.8814 11.2186 16.3515 11.55 16.6 C11.8814 16.8485 12.3515 16.7814 12.6 16.45 L14.1 14.45 C14.2704 14.2227 14.2979 13.9187 14.1708 13.6646 C14.0438 13.4105 13.7841 13.25 13.5 13.25 L12 13.25 L12.6 12.45 C12.8485 12.1186 12.7814 11.6485 12.45 11.4 Z" fill="#FFFFFF" />
</svg>