<svg xmlns="http://www.w3.org/2000/svg" width="24" height="24" viewBox="0 0 24 24" fill="none">
  <path fill-rule="nonzero" clip-rule="nonzero" d="M 12 2.75 C 8.27208 2.75 5.25 5.77208 5.25 9.5 C 5.25 11.4985 6.11758 13.2934 7.49907 14.5304 L 7.50342 14.5343 C 8.06008 15.0328 8.48295 15.4114 8.78527 15.6886 C 9.06989 15.9495 9.29537 16.1628 9.41353 16.3086 L 9.42636 16.3244 C 9.64763 16.5974 9.84045 16.8353 9.9676 17.1199 C 10.0948 17.4044 10.1434 17.7067 10.1992 18.0537 L 10.2024 18.0738 C 10.231 18.2517 10.2425 18.4701 10.247 18.75 H 13.753 C 13.7575 18.4701 13.769 18.2517 13.7976 18.0738 L 13.8008 18.0537 C 13.8566 17.7067 13.9052 17.4044 14.0324 17.1199 C 14.1596 16.8353 14.3524 16.5974 14.5736 16.3244 L 14.5865 16.3086 C 14.7046 16.1628 14.9301 15.9495 15.2147 15.6886 C 15.5171 15.4114 15.94 15.0327 16.4966 14.5343 L 16.5009 14.5304 C 17.8824 13.2934 18.75 11.4985 18.75 9.5 C 18.75 5.77208 15.7279 2.75 12 2.75 Z M 13.7436 20.25 H 10.2564 C 10.2597 20.3542 10.2646 20.4453 10.2721 20.5273 C 10.2925 20.7524 10.3269 20.8341 10.3505 20.875 C 10.4163 20.989 10.511 21.0837 10.625 21.1495 C 10.6659 21.1731 10.7476 21.2075 10.9727 21.2279 C 11.2082 21.2493 11.5189 21.25 12 21.25 C 12.4811 21.25 12.7918 21.2493 13.0273 21.2279 C 13.2524 21.2075 13.3341 21.1731 13.375 21.1495 C 13.489 21.0837 13.5837 20.989 13.6495 20.875 C 13.6731 20.8341 13.7075 20.7524 13.7279 20.5273 C 13.7354 20.4453 13.7403 20.3542 13.7436 20.25 Z M 3.75 9.5 C 3.75 4.94365 7.44365 1.25 12 1.25 C 16.5563 1.25 20.25 4.94365 20.25 9.5 C 20.25 11.9428 19.1874 14.1384 17.5016 15.6479 C 16.9397 16.151 16.5234 16.5238 16.2284 16.7942 C 16.0809 16.9295 15.9681 17.0351 15.8849 17.1162 C 15.8434 17.1566 15.8117 17.1886 15.788 17.2134 C 15.7763 17.2256 15.7675 17.2352 15.7611 17.2423 C 15.7546 17.2496 15.7518 17.253 15.7519 17.2529 C 15.4917 17.574 15.4354 17.6568 15.4019 17.7319 C 15.3683 17.8069 15.3442 17.9041 15.2786 18.3121 C 15.2527 18.4732 15.25 18.7491 15.25 19.5 V 19.5322 C 15.25 19.972 15.25 20.3514 15.2218 20.6627 C 15.192 20.9918 15.1259 21.3178 14.9486 21.625 C 14.7511 21.967 14.467 22.2511 14.125 22.4486 C 13.8178 22.6259 13.4918 22.692 13.1627 22.7218 C 12.8514 22.75 12.472 22.75 12.0322 22.75 H 11.9678 C 11.528 22.75 11.1486 22.75 10.8374 22.7218 C 10.5082 22.692 10.1822 22.6259 9.875 22.4486 C 9.53296 22.2511 9.24892 21.967 9.05144 21.625 C 8.87407 21.3178 8.80802 20.9918 8.77818 20.6627 C 8.74997 20.3514 8.74998 19.972 8.75 19.5322 L 8.75 19.5 C 8.75 18.7491 8.74735 18.4732 8.72144 18.3121 C 8.6558 17.9041 8.63166 17.8069 8.59812 17.7319 C 8.56459 17.6568 8.50828 17.574 8.24812 17.2529 C 8.24792 17.2527 8.24514 17.2493 8.23888 17.2423 C 8.23249 17.2352 8.22369 17.2256 8.21199 17.2134 C 8.18835 17.1886 8.15661 17.1566 8.11513 17.1162 C 8.03189 17.0351 7.91912 16.9295 7.77161 16.7942 C 7.4766 16.5238 7.06034 16.151 6.49845 15.6479 C 4.81263 14.1384 3.75 11.9428 3.75 9.5 Z M 9.89202 13.3508 C 10.2506 13.1434 10.7094 13.2659 10.9168 13.6245 C 11.134 14 11.5383 14.25 12 14.25 C 12.4617 14.25 12.866 14 13.0832 13.6245 C 13.2906 13.2659 13.7494 13.1434 14.108 13.3508 C 14.4665 13.5582 14.589 14.017 14.3816 14.3755 C 14.0284 14.9862 13.4454 15.4496 12.75 15.6464 V 17 C 12.75 17.4142 12.4142 17.75 12 17.75 C 11.5858 17.75 11.25 17.4142 11.25 17 V 15.6464 C 10.5546 15.4496 9.97163 14.9862 9.61836 14.3755 C 9.41095 14.017 9.53347 13.5582 9.89202 13.3508 Z" fill="#FFFFFF" />
</svg>