<svg xmlns="http://www.w3.org/2000/svg" width="24" height="24" viewBox="0 0 24 24" fill="none">
  <path d="M16 2H15C13.5858 2 12.8787 2 12.4393 2.43934C12 2.87868 12 3.58579 12 5C12 6.41421 12 7.12132 12.4393 7.56066C12.8787 8 13.5858 8 15 8H16C17.4142 8 18.1213 8 18.5607 7.56066C18.8453 7.27601 18.9455 6.87895 18.9808 6.25H19L20.6154 6.92308C21.2416 7.184 21.5547 7.31446 21.7774 7.16603C22 7.01759 22 6.67839 22 6V4C22 3.32161 22 2.98241 21.7774 2.83397C21.5547 2.68554 21.2416 2.816 20.6154 3.07692L19 3.75H18.9808C18.9455 3.12105 18.8453 2.72399 18.5607 2.43934C18.1213 2 17.4142 2 16 2Z" fill="#FFFFFF"/>
  <path d="M7.9846 17.5C5.14528 17.5 3.72562 17.5 2.84356 16.6213C2.27207 16.052 2.07085 15.2579 2 14V13H22V14C21.9292 15.2579 21.7279 16.052 21.1564 16.6213C20.2744 17.5 18.8547 17.5 16.0154 17.5H12.7529V21.5H16.0154C16.4312 21.5 16.7683 21.8358 16.7683 22.25C16.7683 22.6642 16.4312 23 16.0154 23H7.9846C7.56879 23 7.23171 22.6642 7.23171 22.25C7.23171 21.8358 7.56879 21.5 7.9846 21.5H11.2471V17.5H7.9846Z" fill="#FFFFFF"/>
  <g opacity="0.5"/>
</svg>