<svg xmlns="http://www.w3.org/2000/svg" width="24" height="24" viewBox="0 0 24 24" fill="none">
  <path fill-rule="nonzero" clip-rule="nonzero" d="M 22 15 V 18 C 22 19.8856 22 20.8284 21.4142 21.4142 C 20.8284 22 19.8856 22 18 22 C 16.1144 22 15.1716 22 14.5858 21.4142 C 14 20.8284 14 19.8856 14 18 V 15 C 14 13.1144 14 12.1716 14.5858 11.5858 C 15.1716 11 16.1144 11 18 11 C 19.8856 11 20.8284 11 21.4142 11.5858 C 22 12.1716 22 13.1144 22 15 Z M16.25 20 C16.25 20.4142 16.5858 20.75 17 20.75 L19 20.75 C19.4142 20.75 19.75 20.4142 19.75 20 C19.75 19.5858 19.4142 19.25 19 19.25 L17 19.25 C16.5858 19.25 16.25 19.5858 16.25 20 Z" fill="#FFFFFF" />
  <path d="M7.99973 17C5.17131 17 3.75709 17 2.87841 16.1213C2.30911 15.552 2.07058 14.7579 2 13.5V13H12.5162V13.5C12.4996 13.9365 12.4997 14.4116 12.4997 14.9105V18.0895C12.4996 18.9551 12.4995 19.7488 12.5863 20.3944C12.6819 21.1054 12.9068 21.8568 13.5249 22.4749L13.5503 22.5H7.99973C7.58552 22.5 7.24973 22.1642 7.24973 21.75C7.24973 21.3358 7.58552 21 7.99973 21H11.2497V17H7.99973Z" fill="#FFFFFF" />
  <path opacity="0.5" d="M9.99997 2H14C17.7712 2 19.6568 2 20.8284 3.17157C22 4.34315 22 6.22876 22 10V10.1383C21.4916 9.80481 20.9315 9.65881 20.3944 9.5866C19.7488 9.4998 18.9551 9.49989 18.0895 9.49999H17.9105C17.0448 9.49989 16.2512 9.4998 15.6056 9.5866C14.8946 9.68219 14.1431 9.90708 13.5251 10.5251C12.9376 11.1127 12.7053 11.8207 12.6017 12.5V13H1.99997L2 12.5C1.99348 12.0494 1.99997 11.5516 1.99997 11V10C1.99997 6.22876 1.99997 4.34315 3.17154 3.17157C4.34311 2 6.22873 2 9.99997 2Z" fill="#FFFFFF" />
</svg>