<svg xmlns="http://www.w3.org/2000/svg" width="24" height="24" viewBox="0 0 24 24" fill="none">
  <path fill-rule="nonzero" clip-rule="nonzero" d="M 4.25 9 C 4.25 4.71979 7.71979 1.25 12 1.25 C 16.2802 1.25 19.75 4.71979 19.75 9 V 15 C 19.75 19.2802 16.2802 22.75 12 22.75 C 7.71979 22.75 4.25 19.2802 4.25 15 V 9 Z M 11.25 2.79454 C 8.15183 3.16505 5.75 5.80204 5.75 9 V 15 C 5.75 18.4518 8.54822 21.25 12 21.25 C 15.4518 21.25 18.25 18.4518 18.25 15 V 9 C 18.25 5.80204 15.8482 3.16505 12.75 2.79454 V 6.37803 C 13.6239 6.68691 14.25 7.52034 14.25 8.5 V 10.5 C 14.25 11.7426 13.2426 12.75 12 12.75 C 10.7574 12.75 9.75 11.7426 9.75 10.5 V 8.5 C 9.75 7.52034 10.3761 6.68691 11.25 6.37803 V 2.79454 Z M 12 7.75 C 11.5858 7.75 11.25 8.08579 11.25 8.5 V 10.5 C 11.25 10.9142 11.5858 11.25 12 11.25 C 12.4142 11.25 12.75 10.9142 12.75 10.5 V 8.5 C 12.75 8.08579 12.4142 7.75 12 7.75 Z" fill="#FFFFFF" />
</svg>