<svg xmlns="http://www.w3.org/2000/svg" width="24" height="24" viewBox="0 0 24 24" fill="none">
  <path fill-rule="nonzero" clip-rule="nonzero" d="M 4.25 9 C 4.25 4.71979 7.71979 1.25 12 1.25 C 16.2802 1.25 19.75 4.71979 19.75 9 V 15 C 19.75 19.2802 16.2802 22.75 12 22.75 C 7.71979 22.75 4.25 19.2802 4.25 15 V 9 Z M 12 2.75 C 8.54822 2.75 5.75 5.54822 5.75 9 V 15 C 5.75 18.4518 8.54822 21.25 12 21.25 C 15.4518 21.25 18.25 18.4518 18.25 15 V 9 C 18.25 5.54822 15.4518 2.75 12 2.75 Z M 12 4.25 C 12.4142 4.25 12.75 4.58579 12.75 5 V 8 C 12.75 8.41421 12.4142 8.75 12 8.75 C 11.5858 8.75 11.25 8.41421 11.25 8 V 5 C 11.25 4.58579 11.5858 4.25 12 4.25 Z" fill="#FFFFFF" />
</svg>