<svg xmlns="http://www.w3.org/2000/svg" width="24" height="24" viewBox="0 0 24 24" fill="none">
  <path fill-rule="nonzero" clip-rule="nonzero" d="M 11.25 3.85064 C 11.25 3.09139 10.6697 2.66488 10.1622 2.76806 C 5.93808 3.62684 2.75 7.39389 2.75 11.9172 C 2.75 17.0777 6.89721 21.2504 12 21.2504 C 17.1028 21.2504 21.25 17.0777 21.25 11.9172 C 21.25 8.22069 19.1208 5.02783 16.0342 3.51586 C 15.6622 3.33364 15.5084 2.88438 15.6906 2.5124 C 15.8728 2.14041 16.3221 1.98658 16.6941 2.16879 C 20.2798 3.92522 22.75 7.63146 22.75 11.9172 C 22.75 17.8944 17.9429 22.7504 12 22.7504 C 6.05709 22.7504 1.25 17.8944 1.25 11.9172 C 1.25 6.67509 4.94577 2.29789 9.86335 1.29813 C 11.5214 0.961054 12.75 2.38238 12.75 3.85064 V 5.3093 C 15.017 5.66889 16.75 7.63227 16.75 10.0004 V 14.0004 C 16.75 16.6238 14.6234 18.7504 12 18.7504 C 9.37665 18.7504 7.25 16.6238 7.25 14.0004 V 10.0004 C 7.25 7.63227 8.98301 5.66889 11.25 5.3093 V 3.85064 Z M 11.25 6.83739 C 10.0574 7.1191 9.11868 8.05784 8.83697 9.25043 H 11.25 V 6.83739 Z M 12.75 9.25043 H 15.163 C 14.8813 8.05784 13.9426 7.1191 12.75 6.83739 V 9.25043 Z M 15.25 10.7504 H 8.75 V 14.0004 C 8.75 15.7954 10.2051 17.2504 12 17.2504 C 13.7949 17.2504 15.25 15.7954 15.25 14.0004 V 10.7504 Z" fill="#FFFFFF" />
</svg>