<svg xmlns="http://www.w3.org/2000/svg" width="24" height="24" viewBox="0 0 24 24" fill="none">
  <path fill-rule="nonzero" clip-rule="nonzero" d="M 12 2.75 C 6.89721 2.75 2.75 6.92275 2.75 12.0832 C 2.75 16.6065 5.93808 20.3736 10.1622 21.2324 C 10.6697 21.3355 11.25 20.909 11.25 20.1498 V 15.675 C 9.53832 15.3275 8.25 13.8142 8.25 12 V 11.8 C 8.25 10.9607 8.9171 10.2772 9.75 10.2508 V 9 C 9.75 8.58579 10.0858 8.25 10.5 8.25 C 10.9142 8.25 11.25 8.58579 11.25 9 V 10.25 H 12.75 V 9 C 12.75 8.58579 13.0858 8.25 13.5 8.25 C 13.9142 8.25 14.25 8.58579 14.25 9 V 10.2508 C 15.0829 10.2772 15.75 10.9607 15.75 11.8 V 12 C 15.75 13.8142 14.4617 15.3275 12.75 15.675 V 20.1498 C 12.75 21.618 11.5214 23.0394 9.86335 22.7023 C 4.94578 21.7025 1.25 17.3253 1.25 12.0832 C 1.25 6.10607 6.05709 1.25 12 1.25 C 17.9429 1.25 22.75 6.10607 22.75 12.0832 C 22.75 16.369 20.2798 20.0752 16.6941 21.8316 C 16.3221 22.0138 15.8728 21.86 15.6906 21.488 C 15.5084 21.116 15.6622 20.6668 16.0342 20.4846 C 19.1208 18.9726 21.25 15.7797 21.25 12.0832 C 21.25 6.92275 17.1028 2.75 12 2.75 Z M 9.8 11.75 C 9.77239 11.75 9.75 11.7724 9.75 11.8 V 12 C 9.75 13.2426 10.7574 14.25 12 14.25 C 13.2426 14.25 14.25 13.2426 14.25 12 V 11.8 C 14.25 11.7724 14.2276 11.75 14.2 11.75 H 9.8 Z" fill="#FFFFFF" />
</svg>