<svg xmlns="http://www.w3.org/2000/svg" width="24" height="24" viewBox="0 0 24 24" fill="none">
  <path fill-rule="nonzero" clip-rule="nonzero" d="M 11.9451 1.25 H 12.0549 C 13.4225 1.24998 14.5248 1.24996 15.3918 1.36652 C 16.2919 1.48754 17.0497 1.74643 17.6517 2.34835 C 18.3916 3.08833 18.6205 4.07517 18.7012 5.29943 C 18.9462 5.31578 19.1763 5.33755 19.3918 5.36652 C 20.2919 5.48754 21.0497 5.74643 21.6517 6.34835 C 22.2536 6.95027 22.5125 7.70814 22.6335 8.60825 C 22.75 9.47522 22.75 10.5775 22.75 11.9451 V 12.0549 C 22.75 13.4225 22.75 14.5248 22.6335 15.3918 C 22.5125 16.2919 22.2536 17.0497 21.6517 17.6517 C 20.9117 18.3916 19.9248 18.6205 18.7006 18.7012 C 18.6842 18.9462 18.6625 19.1763 18.6335 19.3918 C 18.5125 20.2919 18.2536 21.0497 17.6517 21.6517 C 17.0497 22.2536 16.2919 22.5125 15.3918 22.6335 C 14.5248 22.75 13.4225 22.75 12.0549 22.75 H 11.9451 C 10.5775 22.75 9.47522 22.75 8.60825 22.6335 C 7.70814 22.5125 6.95027 22.2536 6.34835 21.6517 C 5.74643 21.0497 5.48754 20.2919 5.36652 19.3918 C 5.33755 19.1763 5.31578 18.9462 5.29942 18.7012 C 4.07517 18.6205 3.08833 18.3916 2.34835 17.6517 C 1.74643 17.0497 1.48754 16.2919 1.36652 15.3918 C 1.24996 14.5248 1.24998 13.4225 1.25 12.0549 V 11.9451 C 1.24998 10.5775 1.24996 9.47522 1.36652 8.60825 C 1.48754 7.70814 1.74643 6.95027 2.34835 6.34835 C 2.95027 5.74643 3.70814 5.48754 4.60825 5.36652 C 4.82374 5.33755 5.05377 5.31578 5.29879 5.29943 C 5.37952 4.07517 5.60837 3.08833 6.34835 2.34835 C 6.95027 1.74643 7.70814 1.48754 8.60825 1.36652 C 9.47522 1.24996 10.5775 1.24998 11.9451 1.25 Z M 6.80714 5.25295 C 7.16406 5.24999 7.54313 5.24999 7.94512 5.25 H 16.0549 C 16.4569 5.24999 16.8359 5.24999 17.1929 5.25295 C 17.1109 4.23209 16.9265 3.74452 16.591 3.40901 C 16.3142 3.13225 15.9257 2.9518 15.1919 2.85315 C 14.4365 2.75159 13.4354 2.75 12 2.75 C 10.5646 2.75 9.56347 2.75159 8.80812 2.85315 C 8.07434 2.9518 7.68577 3.13225 7.40901 3.40901 C 7.0735 3.74452 6.88909 4.23209 6.80714 5.25295 Z M 5.25294 17.1929 C 5.24999 16.8359 5.24999 16.4569 5.25 16.0549 L 5.25 12.9384 C 5.0954 13.001 4.94783 13.0642 4.8072 13.1273 C 4.42933 13.297 3.98546 13.1282 3.8158 12.7503 C 3.64614 12.3724 3.81493 11.9286 4.1928 11.7589 C 5.91456 10.9858 8.4805 10.25 12 10.25 C 15.5195 10.25 18.0854 10.9858 19.8072 11.7589 C 20.1851 11.9286 20.3539 12.3724 20.1842 12.7503 C 20.0145 13.1282 19.5707 13.297 19.1928 13.1273 C 19.0522 13.0642 18.9046 13.001 18.75 12.9384 V 16.0549 C 18.75 16.4569 18.75 16.8359 18.7471 17.1929 C 19.7679 17.1109 20.2555 16.9265 20.591 16.591 C 20.8678 16.3142 21.0482 15.9257 21.1469 15.1919 C 21.2484 14.4365 21.25 13.4354 21.25 12 C 21.25 10.5646 21.2484 9.56347 21.1469 8.80812 C 21.0482 8.07435 20.8678 7.68577 20.591 7.40901 C 20.3142 7.13225 19.9257 6.9518 19.1919 6.85315 C 18.4365 6.75159 17.4354 6.75 16 6.75 H 8 C 6.56458 6.75 5.56347 6.75159 4.80812 6.85315 C 4.07435 6.9518 3.68577 7.13225 3.40901 7.40901 C 3.13225 7.68577 2.9518 8.07435 2.85315 8.80812 C 2.75159 9.56347 2.75 10.5646 2.75 12 C 2.75 13.4354 2.75159 14.4365 2.85315 15.1919 C 2.9518 15.9257 3.13225 16.3142 3.40901 16.591 C 3.74452 16.9265 4.23209 17.1109 5.25294 17.1929 Z M 17.25 12.4268 C 15.8731 12.0376 14.134 11.75 12 11.75 C 9.86596 11.75 8.12694 12.0376 6.75 12.4268 V 16 C 6.75 17.4354 6.75159 18.4365 6.85315 19.1919 C 6.9518 19.9257 7.13225 20.3142 7.40901 20.591 C 7.68577 20.8678 8.07435 21.0482 8.80812 21.1469 C 9.56347 21.2484 10.5646 21.25 12 21.25 C 13.4354 21.25 14.4365 21.2484 15.1919 21.1469 C 15.9257 21.0482 16.3142 20.8678 16.591 20.591 C 16.8678 20.3142 17.0482 19.9257 17.1469 19.1919 C 17.2484 18.4365 17.25 17.4354 17.25 16 V 12.4268 Z" fill="#FFFFFF" />
</svg>