<svg xmlns="http://www.w3.org/2000/svg" width="24" height="24" viewBox="0 0 24 24" fill="none">
  <path fill-rule="nonzero" clip-rule="nonzero" d="M16 6 C18.8284 6 20.2426 6 21.1213 6.87868 C22 7.75736 22 9.17157 22 12 C22 14.8284 22 16.2426 21.1213 17.1213 C20.6268 17.6159 19.9626 17.8321 18.9721 17.9266 C19 17.2039 19 16.3525 19 15.5003 C19.2761 15.5003 19.5 15.2761 19.5 15 C19.5 14.7239 19.2761 14.5 19 14.5 L5 14.5 C4.72386 14.5 4.5 14.7239 4.5 15 C4.5 15.2761 4.72386 15.5 5 15.5 C4.99999 16.3522 4.99998 17.2038 5.02795 17.9266 C4.03743 17.8321 3.37323 17.6159 2.87868 17.1213 C2 16.2426 2 14.8284 2 12 C2 9.17157 2 7.75736 2.87868 6.87868 C3.75736 6 5.17157 6 8 6 L16 6 Z M 9 10.75 C 9.41421 10.75 9.75 10.4142 9.75 10 C 9.75 9.58579 9.41421 9.25 9 9.25 H 6 C 5.58579 9.25 5.25 9.58579 5.25 10 C 5.25 10.4142 5.58579 10.75 6 10.75 H 9 Z M 17 11 C 17.5523 11 18 10.5523 18 10 C 18 9.44772 17.5523 9 17 9 C 16.4477 9 16 9.44772 16 10 C 16 10.5523 16.4477 11 17 11 Z" fill="#FFFFFF" />
  <path d="M17.1211 2.87868C16.2424 2 14.8282 2 11.9998 2C9.17134 2 7.75712 2 6.87844 2.87868C6.38608 3.37105 6.16961 4.03157 6.07444 5.01484C6.63368 4.99996 7.25183 4.99998 7.92943 5H16.0706C16.748 4.99998 17.366 4.99996 17.9251 5.01483C17.8299 4.03156 17.6135 3.37105 17.1211 2.87868Z" fill="#FFFFFF" />
  <path d="M18 15.5C18 18.3284 18 20.2426 17.1213 21.1213C16.2426 22 14.8284 22 12 22C9.17158 22 7.75736 22 6.87868 21.1213C6 20.2426 6 18.3284 6 15.5H18Z" fill="#FFFFFF" />
</svg>