<svg xmlns="http://www.w3.org/2000/svg" width="24" height="24" viewBox="0 0 24 24" fill="none">
  <path fill-rule="nonzero" clip-rule="nonzero" d="M4.61413 20.6431 C4.25894 20.43 4.14377 19.9693 4.35688 19.6141 L5.35373 17.9527 C4.17999 17.8747 3.42559 17.6682 2.87868 17.1213 C2 16.2426 2 14.8284 2 12 C2 9.17157 2 7.75736 2.87868 6.87868 C3.75736 6 5.17157 6 8 6 L8.23221 6 C7.76443 6.89751 7.5 7.91787 7.5 9 C7.5 12.5899 10.4101 15.5 14 15.5 C17.5899 15.5 20.5 12.5899 20.5 9 C20.5 8.00473 20.2763 7.0617 19.8765 6.21845 C20.3952 6.34741 20.7951 6.5525 21.1213 6.87868 C22 7.75736 22 9.17157 22 12 C22 14.8284 22 16.2426 21.1213 17.1213 C20.5744 17.6682 19.82 17.8747 18.6463 17.9527 L19.6431 19.6141 C19.8562 19.9693 19.7411 20.43 19.3859 20.6431 C19.0307 20.8562 18.57 20.7411 18.3569 20.3859 L16.9245 17.9986 C16.6343 18 16.3266 18 16 18 L8 18 C7.67341 18 7.36568 18 7.07545 17.9986 L5.64312 20.3859 C5.43001 20.7411 4.96931 20.8562 4.61413 20.6431 Z M5.4999 8.75 C5.08569 8.75005 4.74995 9.08588 4.75 9.5001 L4.7502 11.0002 C4.75025 11.4144 5.08608 11.7502 5.50029 11.7501 C5.91451 11.75 6.25025 11.4142 6.2502 11 L6.25 9.4999 C6.24995 9.08569 5.91412 8.74995 5.4999 8.75 Z" fill="#FFFFFF" />
  <path fill-rule="nonzero" clip-rule="nonzero" d="M14 14 C11.2386 14 9 11.7614 9 9 C9 6.23858 11.2386 4 14 4 C16.7614 4 19 6.23858 19 9 C19 11.7614 16.7614 14 14 14 Z M13.25 7 C13.25 7.41421 13.5858 7.75 14 7.75 C14.6904 7.75 15.25 8.30964 15.25 9 C15.25 9.69036 14.6904 10.25 14 10.25 C13.3096 10.25 12.75 9.69036 12.75 9 C12.75 8.58579 12.4142 8.25 12 8.25 C11.5858 8.25 11.25 8.58579 11.25 9 C11.25 10.5188 12.4812 11.75 14 11.75 C15.5188 11.75 16.75 10.5188 16.75 9 C16.75 7.48122 15.5188 6.25 14 6.25 C13.5858 6.25 13.25 6.58579 13.25 7 Z" fill="#FFFFFF" />
</svg>