<svg xmlns="http://www.w3.org/2000/svg" width="24" height="24" viewBox="0 0 24 24" fill="none">
  <path fill-rule="nonzero" clip-rule="nonzero" d="M 10.5882 6.46535 C 10.0616 7.17301 9.75 8.05012 9.75 9 C 9.75 11.3472 11.6528 13.25 14 13.25 C 16.3472 13.25 18.25 11.3472 18.25 9 C 18.25 8.08928 17.9635 7.24546 17.4758 6.55373 C 17.4201 6.4993 17.373 6.43632 17.3364 6.36699 C 16.558 5.38207 15.3528 4.75 14 4.75 C 12.6166 4.75 11.3875 5.411 10.6115 6.43441 C 10.604 6.44493 10.5962 6.45524 10.5882 6.46535 Z M8.70689 6.75 L8 6.75 C6.56458 6.75 5.56347 6.75159 4.80812 6.85315 C4.07435 6.9518 3.68577 7.13225 3.40901 7.40901 C3.13225 7.68577 2.9518 8.07435 2.85315 8.80812 C2.75159 9.56347 2.75 10.5646 2.75 12 C2.75 13.4354 2.75159 14.4365 2.85315 15.1919 C2.9518 15.9257 3.13225 16.3142 3.40901 16.591 C3.68577 16.8678 4.07435 17.0482 4.80812 17.1469 C5.56347 17.2484 6.56458 17.25 8 17.25 L16 17.25 C17.4354 17.25 18.4365 17.2484 19.1919 17.1469 C19.9257 17.0482 20.3142 16.8678 20.591 16.591 C20.8678 16.3142 21.0482 15.9257 21.1469 15.1919 C21.2484 14.4365 21.25 13.4354 21.25 12 C21.25 10.5646 21.2484 9.56347 21.1469 8.80812 C21.0482 8.07434 20.8678 7.68577 20.591 7.40901 C20.329 7.14698 19.9742 6.97712 19.3451 6.87624 C19.6064 7.53328 19.75 8.24986 19.75 9 C19.75 12.1756 17.1756 14.75 14 14.75 C10.8244 14.75 8.25 12.1756 8.25 9 C8.25 8.20153 8.41275 7.44108 8.70689 6.75 Z M9.64097 5.25 C10.6954 4.02538 12.2572 3.25 14 3.25 C15.7576 3.25 17.3311 4.03862 18.3858 5.28131 C19.7566 5.34456 20.8493 5.54597 21.6517 6.34835 C22.2536 6.95027 22.5125 7.70814 22.6335 8.60825 C22.75 9.47522 22.75 10.5775 22.75 11.9451 L22.75 12.0549 C22.75 13.4225 22.75 14.5248 22.6335 15.3918 C22.5125 16.2919 22.2536 17.0497 21.6517 17.6517 C21.0497 18.2536 20.2919 18.5125 19.3918 18.6335 C19.3191 18.6432 19.2447 18.6522 19.1687 18.6604 L19.6708 19.6646 C19.8561 20.0351 19.7059 20.4856 19.3354 20.6708 C18.9649 20.8561 18.5144 20.7059 18.3292 20.3354 L17.5331 18.7431 C17.0793 18.75 16.5872 18.75 16.0549 18.75 L7.94513 18.75 C7.4128 18.75 6.92066 18.75 6.46695 18.7431 L5.67082 20.3354 C5.48558 20.7059 5.03507 20.8561 4.66459 20.6708 C4.29411 20.4856 4.14394 20.0351 4.32918 19.6646 L4.83127 18.6604 C4.75527 18.6522 4.68093 18.6432 4.60825 18.6335 C3.70814 18.5125 2.95027 18.2536 2.34835 17.6517 C1.74643 17.0497 1.48754 16.2919 1.36652 15.3918 C1.24996 14.5248 1.24998 13.4225 1.25 12.0549 L1.25 11.9451 C1.24998 10.5775 1.24996 9.47522 1.36652 8.60825 C1.48754 7.70814 1.74643 6.95027 2.34835 6.34835 C2.95027 5.74643 3.70814 5.48754 4.60825 5.36652 C5.47522 5.24996 6.57754 5.24998 7.94513 5.25 L9.64097 5.25 Z M 13.25 7 C 13.25 6.58579 13.5858 6.25 14 6.25 C 15.5188 6.25 16.75 7.48122 16.75 9 C 16.75 10.5188 15.5188 11.75 14 11.75 C 12.4812 11.75 11.25 10.5188 11.25 9 C 11.25 8.58579 11.5858 8.25 12 8.25 C 12.4142 8.25 12.75 8.58579 12.75 9 C 12.75 9.69036 13.3096 10.25 14 10.25 C 14.6904 10.25 15.25 9.69036 15.25 9 C 15.25 8.30964 14.6904 7.75 14 7.75 C 13.5858 7.75 13.25 7.41421 13.25 7 Z M 5.4999 8.75 C 5.91412 8.74995 6.24995 9.08569 6.25 9.4999 L 6.2502 11 C 6.25025 11.4142 5.91451 11.75 5.50029 11.7501 C 5.08608 11.7502 4.75025 11.4144 4.7502 11.0002 L 4.75 9.5001 C 4.74995 9.08588 5.08569 8.75005 5.4999 8.75 Z" fill="#FFFFFF" />
</svg>