<svg xmlns="http://www.w3.org/2000/svg" width="24" height="24" viewBox="0 0 24 24" fill="none">
  <path fill-rule="nonzero" clip-rule="nonzero" d="M 15.6786 1.68083 C 15.855 2.05562 15.6941 2.50242 15.3193 2.67879 L 9.85515 5.25018 C 9.88453 5.25018 9.91401 5.25018 9.94358 5.25018 H 14.0564 C 15.8942 5.25016 17.3498 5.25015 18.489 5.40331 C 19.6614 5.56094 20.6104 5.89306 21.3588 6.64142 C 22.1071 7.38978 22.4392 8.33873 22.5969 9.51115 C 22.75 10.6504 22.75 12.106 22.75 13.9438 V 14.0566 C 22.75 15.8944 22.75 17.35 22.5969 18.4892 C 22.4392 19.6616 22.1071 20.6106 21.3588 21.3589 C 20.6104 22.1073 19.6614 22.4394 18.489 22.597 C 17.3498 22.7502 15.8942 22.7502 14.0564 22.7502 H 9.94359 C 8.10583 22.7502 6.65019 22.7502 5.51098 22.597 C 4.33856 22.4394 3.38961 22.1073 2.64124 21.3589 C 1.89288 20.6106 1.56076 19.6616 1.40314 18.4892 C 1.24997 17.35 1.24998 15.8944 1.25 14.0566 V 13.9438 C 1.24998 12.106 1.24997 10.6504 1.40314 9.51115 C 1.56076 8.33873 1.89288 7.38978 2.64124 6.64142 C 3.38961 5.89306 4.33856 5.56094 5.51098 5.40331 C 5.71495 5.37589 5.92907 5.35337 6.15372 5.33489 C 6.16257 5.33029 6.17155 5.32585 6.18065 5.32156 L 14.6807 1.32156 C 15.0554 1.14519 15.5022 1.30604 15.6786 1.68083 Z M 5.71085 6.88994 C 4.70476 7.0252 4.12511 7.27887 3.7019 7.70208 C 3.27869 8.12529 3.02502 8.70494 2.88976 9.71103 C 2.75159 10.7387 2.75 12.0934 2.75 14.0002 C 2.75 15.907 2.75159 17.2617 2.88976 18.2893 C 3.02502 19.2954 3.27869 19.8751 3.7019 20.2983 C 4.12511 20.7215 4.70476 20.9752 5.71085 21.1104 C 6.73851 21.2486 8.09318 21.2502 10 21.2502 H 14 C 15.9068 21.2502 17.2615 21.2486 18.2892 21.1104 C 19.2952 20.9752 19.8749 20.7215 20.2981 20.2983 C 20.7213 19.8751 20.975 19.2954 21.1102 18.2893 C 21.2484 17.2617 21.25 15.907 21.25 14.0002 C 21.25 12.0934 21.2484 10.7387 21.1102 9.71103 C 20.975 8.70494 20.7213 8.12529 20.2981 7.70208 C 19.8749 7.27887 19.2952 7.0252 18.2892 6.88994 C 17.2615 6.75177 15.9068 6.75018 14 6.75018 H 10 C 8.09318 6.75018 6.73851 6.75177 5.71085 6.88994 Z M 8 11.7502 C 6.75736 11.7502 5.75 12.7575 5.75 14.0002 C 5.75 15.2428 6.75736 16.2502 8 16.2502 C 9.24264 16.2502 10.25 15.2428 10.25 14.0002 C 10.25 12.7575 9.24264 11.7502 8 11.7502 Z M 4.25 14.0002 C 4.25 11.9291 5.92893 10.2502 8 10.2502 C 10.0711 10.2502 11.75 11.9291 11.75 14.0002 C 11.75 16.0712 10.0711 17.7502 8 17.7502 C 5.92893 17.7502 4.25 16.0712 4.25 14.0002 Z M 12.75 11.0002 C 12.75 10.586 13.0858 10.2502 13.5 10.2502 H 19 C 19.4142 10.2502 19.75 10.586 19.75 11.0002 C 19.75 11.4144 19.4142 11.7502 19 11.7502 H 13.5 C 13.0858 11.7502 12.75 11.4144 12.75 11.0002 Z M 12.75 14.0002 C 12.75 13.586 13.0858 13.2502 13.5 13.2502 H 19 C 19.4142 13.2502 19.75 13.586 19.75 14.0002 C 19.75 14.4144 19.4142 14.7502 19 14.7502 H 13.5 C 13.0858 14.7502 12.75 14.4144 12.75 14.0002 Z M 12.75 17.0002 C 12.75 16.586 13.0858 16.2502 13.5 16.2502 H 19 C 19.4142 16.2502 19.75 16.586 19.75 17.0002 C 19.75 17.4144 19.4142 17.7502 19 17.7502 H 13.5 C 13.0858 17.7502 12.75 17.4144 12.75 17.0002 Z" fill="#FFFFFF" />
</svg>