<svg xmlns="http://www.w3.org/2000/svg" width="24" height="24" viewBox="0 0 24 24" fill="none">
  <path d="M15.75 12.25V11.5C15.75 11.0858 15.4142 10.75 15 10.75C14.5858 10.75 14.25 11.0858 14.25 11.5V12.25H7C6.30964 12.25 5.75 11.6904 5.75 11C5.75 10.3096 6.30964 9.75 7 9.75H17C17.6904 9.75 18.25 10.3096 18.25 11C18.25 11.6904 17.6904 12.25 17 12.25H15.75Z" fill="#FFFFFF" />
  <path d="M6.75 17C6.75 16.5858 7.08579 16.25 7.5 16.25C7.91421 16.25 8.25 16.5858 8.25 17C8.25 17.4142 7.91421 17.75 7.5 17.75C7.08579 17.75 6.75 17.4142 6.75 17Z" fill="#FFFFFF" />
  <path fill-rule="nonzero" clip-rule="nonzero" d="M15.3195 3.67879 L10.387 6 L14 6 C17.7712 6 19.6569 6 20.8284 7.17157 C22 8.34314 22 10.2288 22 14 C22 17.7712 22 19.6569 20.8284 20.8284 C19.6569 22 17.7712 22 14 22 L10 22 C6.22876 22 4.34315 22 3.17157 20.8284 C2 19.6569 2 17.7712 2 14 C2 10.2288 2 8.34315 3.17157 7.17157 C3.94566 6.39749 5.03147 6.13486 6.76692 6.04575 L14.6808 2.32156 C15.0556 2.14519 15.5024 2.30604 15.6788 2.68083 C15.8552 3.05562 15.6943 3.50242 15.3195 3.67879 Z M 7 8.25 C 5.48122 8.25 4.25 9.48122 4.25 11 C 4.25 12.5188 5.48122 13.75 7 13.75 H 17 C 18.5188 13.75 19.75 12.5188 19.75 11 C 19.75 9.48122 18.5188 8.25 17 8.25 H 7 Z M5.25 17 C5.25 18.2426 6.25736 19.25 7.5 19.25 C8.74264 19.25 9.75 18.2426 9.75 17 C9.75 15.7574 8.74264 14.75 7.5 14.75 C6.25736 14.75 5.25 15.7574 5.25 17 Z M12.25 17 C12.25 17.4142 12.5858 17.75 13 17.75 L18 17.75 C18.4142 17.75 18.75 17.4142 18.75 17 C18.75 16.5858 18.4142 16.25 18 16.25 L13 16.25 C12.5858 16.25 12.25 16.5858 12.25 17 Z" fill="#FFFFFF" />
</svg>