<svg xmlns="http://www.w3.org/2000/svg" width="24" height="24" viewBox="0 0 24 24" fill="none">
  <path d="M5.75 14C5.75 12.7574 6.75736 11.75 8 11.75C9.24264 11.75 10.25 12.7574 10.25 14C10.25 15.2426 9.24264 16.25 8 16.25C6.75736 16.25 5.75 15.2426 5.75 14Z" fill="#FFFFFF" />
  <path fill-rule="nonzero" clip-rule="nonzero" d="M15.3195 3.67879 L10.387 6 L14 6 C17.7712 6 19.6569 6 20.8284 7.17157 C22 8.34314 22 10.2288 22 14 C22 17.7712 22 19.6569 20.8284 20.8284 C19.6569 22 17.7712 22 14 22 L10 22 C6.22876 22 4.34315 22 3.17157 20.8284 C2 19.6569 2 17.7712 2 14 C2 10.2288 2 8.34315 3.17157 7.17157 C3.94566 6.39749 5.03147 6.13486 6.76692 6.04575 L14.6808 2.32156 C15.0556 2.14519 15.5024 2.30604 15.6788 2.68083 C15.8552 3.05562 15.6943 3.50242 15.3195 3.67879 Z M 8 10.25 C 5.92893 10.25 4.25 11.9289 4.25 14 C 4.25 16.0711 5.92893 17.75 8 17.75 C 10.0711 17.75 11.75 16.0711 11.75 14 C 11.75 11.9289 10.0711 10.25 8 10.25 Z M12.75 11 C12.75 11.4142 13.0858 11.75 13.5 11.75 L19 11.75 C19.4142 11.75 19.75 11.4142 19.75 11 C19.75 10.5858 19.4142 10.25 19 10.25 L13.5 10.25 C13.0858 10.25 12.75 10.5858 12.75 11 Z M 13.5 13.25 C 13.0858 13.25 12.75 13.5858 12.75 14 C 12.75 14.4142 13.0858 14.75 13.5 14.75 H 19 C 19.4142 14.75 19.75 14.4142 19.75 14 C 19.75 13.5858 19.4142 13.25 19 13.25 H 13.5 Z M12.75 17 C12.75 17.4142 13.0858 17.75 13.5 17.75 L19 17.75 C19.4142 17.75 19.75 17.4142 19.75 17 C19.75 16.5858 19.4142 16.25 19 16.25 L13.5 16.25 C13.0858 16.25 12.75 16.5858 12.75 17 Z" fill="#FFFFFF" />
</svg>