<svg xmlns="http://www.w3.org/2000/svg" width="24" height="24" viewBox="0 0 24 24" fill="none">
  <path fill-rule="nonzero" clip-rule="nonzero" d="M 12.6206 2.76232 C 12.4868 2.75064 12.3532 2.75 12 2.75 C 9.62177 2.75 7.91356 2.7516 6.61358 2.92637 C 5.33517 3.09825 4.56445 3.42514 3.9948 3.9948 C 3.42514 4.56446 3.09825 5.33518 2.92637 6.61358 C 2.75159 7.91356 2.75 9.62178 2.75 12 C 2.75 14.3782 2.75159 16.0864 2.92637 17.3864 C 3.09825 18.6648 3.42514 19.4355 3.9948 20.0052 C 4.56445 20.5749 5.33517 20.9018 6.61358 21.0736 C 7.91356 21.2484 9.62177 21.25 12 21.25 C 14.3782 21.25 16.0864 21.2484 17.3864 21.0736 C 18.6648 20.9018 19.4355 20.5749 20.0052 20.0052 C 20.5749 19.4355 20.9018 18.6648 21.0736 17.3864 C 21.2484 16.0864 21.25 14.3782 21.25 12 C 21.25 11.6468 21.2494 11.5132 21.2377 11.3794 C 21.1804 10.7235 20.9125 10.0768 20.4892 9.57254 C 20.403 9.46978 20.3063 9.37221 20.0502 9.11611 L 14.8839 3.94977 C 14.6278 3.69368 14.5302 3.59701 14.4275 3.51076 C 13.9232 3.08746 13.2765 2.81957 12.6206 2.76232 Z M 12.0315 1.25 C 12.3431 1.24998 12.5445 1.24997 12.751 1.268 C 13.7138 1.35204 14.6517 1.74054 15.3919 2.36187 C 15.5507 2.49517 15.696 2.64055 15.9213 2.86587 L 15.9446 2.88911 L 21.1341 8.07862 C 21.3594 8.30396 21.5048 8.44933 21.6381 8.60814 C 22.2595 9.34833 22.648 10.2862 22.732 11.249 C 22.75 11.4555 22.75 11.6569 22.75 11.9684 V 12.0574 C 22.75 14.3658 22.75 16.1748 22.5603 17.5863 C 22.366 19.031 21.9607 20.1711 21.0659 21.0659 C 20.1711 21.9607 19.031 22.366 17.5863 22.5603 C 16.1748 22.75 14.3658 22.75 12.0574 22.75 H 11.9426 C 9.63423 22.75 7.82519 22.75 6.41371 22.5603 C 4.96897 22.366 3.82895 21.9607 2.93414 21.0659 C 2.03933 20.1711 1.63399 19.031 1.43975 17.5863 C 1.24998 16.1748 1.24999 14.3658 1.25 12.0574 V 11.9426 C 1.24999 9.63423 1.24998 7.82519 1.43975 6.41371 C 1.63399 4.96897 2.03933 3.82895 2.93414 2.93414 C 3.82895 2.03933 4.96897 1.63399 6.41371 1.43975 C 7.82519 1.24998 9.63423 1.24999 11.9426 1.25 L 12.0315 1.25 Z M 7 5.25 C 7.41421 5.25 7.75 5.58579 7.75 6 V 9 C 7.75 9.41422 7.41421 9.75 7 9.75 C 6.58579 9.75 6.25 9.41422 6.25 9 V 6 C 6.25 5.58579 6.58579 5.25 7 5.25 Z M 10 5.25 C 10.4142 5.25 10.75 5.58579 10.75 6 V 9 C 10.75 9.41422 10.4142 9.75 10 9.75 C 9.58579 9.75 9.25 9.41422 9.25 9 V 6 C 9.25 5.58579 9.58579 5.25 10 5.25 Z M 13 5.25 C 13.4142 5.25 13.75 5.58579 13.75 6 V 9 C 13.75 9.41422 13.4142 9.75 13 9.75 C 12.5858 9.75 12.25 9.41422 12.25 9 V 6 C 12.25 5.58579 12.5858 5.25 13 5.25 Z" fill="#FFFFFF" />
</svg>