<svg xmlns="http://www.w3.org/2000/svg" width="24" height="24" viewBox="0 0 24 24" fill="none">
  <path fill-rule="nonzero" clip-rule="nonzero" d="M 12 22 C 7.28595 22 4.92893 22 3.46447 20.5355 C 2 19.0711 2 16.714 2 12 C 2 7.28595 2 4.92893 3.46447 3.46447 C 4.92893 2 7.28595 2 12 2 C 12.3415 2 12.5122 2 12.6858 2.01515 C 13.4951 2.08581 14.2874 2.414 14.9097 2.93631 C 15.0431 3.04835 15.1668 3.17206 15.4142 3.41944 L 20.5806 8.58578 C 20.828 8.83317 20.9516 8.95687 21.0637 9.09034 C 21.586 9.71257 21.9142 10.5049 21.9848 11.3142 C 22 11.4878 22 11.6585 22 12 C 22 16.714 22 19.0711 20.5355 20.5355 C 19.0711 22 16.714 22 12 22 Z M13 5.25 C12.5858 5.25 12.25 5.58579 12.25 6 L12.25 9 C12.25 9.41421 12.5858 9.75 13 9.75 C13.4142 9.75 13.75 9.41421 13.75 9 L13.75 6 C13.75 5.58579 13.4142 5.25 13 5.25 Z M 10.75 6 C 10.75 5.58579 10.4142 5.25 10 5.25 C 9.58579 5.25 9.25 5.58579 9.25 6 V 9 C 9.25 9.41421 9.58579 9.75 10 9.75 C 10.4142 9.75 10.75 9.41421 10.75 9 V 6 Z M7 5.25 C6.58579 5.25 6.25 5.58579 6.25 6 L6.25 9 C6.25 9.41421 6.58579 9.75 7 9.75 C7.41421 9.75 7.75 9.41421 7.75 9 L7.75 6 C7.75 5.58579 7.41421 5.25 7 5.25 Z" fill="#FFFFFF" />
</svg>