<svg xmlns="http://www.w3.org/2000/svg" width="24" height="24" viewBox="0 0 24 24" fill="none">
  <path fill-rule="nonzero" clip-rule="nonzero" d="M22 18.2105 C22 18.5811 21.6876 18.8816 21.3023 18.8816 L13.7252 18.8816 C13.4492 19.5374 12.7808 20 12 20 C11.2192 20 10.5508 19.5374 10.2748 18.8816 L2.69767 18.8816 C2.31236 18.8816 2 18.5811 2 18.2105 C2 17.8399 2.31236 17.5395 2.69767 17.5395 L10.2748 17.5395 C10.4636 17.0909 10.836 16.7327 11.3023 16.5511 L11.3023 13.7368 L5.48837 13.7368 C3.94711 13.7368 2.69767 12.5351 2.69767 11.0526 C2.69767 9.57018 3.94711 8.36842 5.48837 8.36842 C3.94711 8.36842 2.69767 7.16666 2.69767 5.68421 C2.69767 4.20176 3.94711 3 5.48837 3 L18.5116 3 C20.0529 3 21.3023 4.20176 21.3023 5.68421 C21.3023 7.16666 20.0529 8.36842 18.5116 8.36842 C20.0529 8.36842 21.3023 9.57018 21.3023 11.0526 C21.3023 12.5351 20.0529 13.7368 18.5116 13.7368 L12.6977 13.7368 L12.6977 16.5511 C13.164 16.7327 13.5364 17.0909 13.7252 17.5395 L21.3023 17.5395 C21.6876 17.5395 22 17.8399 22 18.2105 Z M12.2326 5.68421 C12.2326 6.05482 12.5449 6.35526 12.9302 6.35526 L18.5116 6.35526 C18.8969 6.35526 19.2093 6.05482 19.2093 5.68421 C19.2093 5.3136 18.8969 5.01316 18.5116 5.01316 L12.9302 5.01316 C12.5449 5.01316 12.2326 5.3136 12.2326 5.68421 Z M12.2326 11.0526 C12.2326 11.4232 12.5449 11.7237 12.9302 11.7237 L18.5116 11.7237 C18.8969 11.7237 19.2093 11.4232 19.2093 11.0526 C19.2093 10.682 18.8969 10.3816 18.5116 10.3816 L12.9302 10.3816 C12.5449 10.3816 12.2326 10.682 12.2326 11.0526 Z M 6.4186 6.57895 C 6.93236 6.57895 7.34884 6.17836 7.34884 5.68421 C 7.34884 5.19006 6.93236 4.78947 6.4186 4.78947 C 5.90485 4.78947 5.48837 5.19006 5.48837 5.68421 C 5.48837 6.17836 5.90485 6.57895 6.4186 6.57895 Z M 6.4186 11.9474 C 6.93236 11.9474 7.34884 11.5468 7.34884 11.0526 C 7.34884 10.5585 6.93236 10.1579 6.4186 10.1579 C 5.90485 10.1579 5.48837 10.5585 5.48837 11.0526 C 5.48837 11.5468 5.90485 11.9474 6.4186 11.9474 Z" fill="#FFFFFF" />
</svg>