<svg xmlns="http://www.w3.org/2000/svg" width="24" height="24" viewBox="0 0 24 24" fill="none">
  <path fill-rule="nonzero" clip-rule="nonzero" d="M3.17157 19.8284 C2 18.6569 2 16.7712 2 13 L2 12.75 L16.8557 12.75 C15.3479 13.2218 14.1193 14.3251 13.4797 15.7503 C13.0749 15.761 12.75 16.0926 12.75 16.5 C12.75 16.7546 12.8769 16.9796 13.0708 17.1151 C13.0242 17.4032 13 17.6988 13 18 C13 19.1068 13.3269 20.1372 13.8895 21 L10 21 C6.22876 21 4.34315 21 3.17157 19.8284 Z M6 18.25 C6.41421 18.25 6.75 17.9142 6.75 17.5 L6.75 15.5 C6.75 15.0858 6.41421 14.75 6 14.75 C5.58579 14.75 5.25 15.0858 5.25 15.5 L5.25 17.5 C5.25 17.9142 5.58579 18.25 6 18.25 Z M9 18.25 C9.41421 18.25 9.75 17.9142 9.75 17.5 L9.75 15.5 C9.75 15.0858 9.41421 14.75 9 14.75 C8.58579 14.75 8.25 15.0858 8.25 15.5 L8.25 17.5 C8.25 17.9142 8.58579 18.25 9 18.25 Z" fill="#FFFFFF" />
  <path fill-rule="nonzero" clip-rule="nonzero" d="M3.17157 4.17157 C4.34315 3 6.22876 3 10 3 L14 3 C17.7712 3 19.6569 3 20.8284 4.17157 C22 5.34315 22 7.22876 22 11 L22 11.25 L2 11.25 L2 11 C2 7.22876 2 5.34315 3.17157 4.17157 Z M9 9.25 C9.41421 9.25 9.75 8.91421 9.75 8.5 L9.75 6.5 C9.75 6.08579 9.41421 5.75 9 5.75 C8.58579 5.75 8.25 6.08579 8.25 6.5 L8.25 8.5 C8.25 8.91421 8.58579 9.25 9 9.25 Z M 5.25 8.5 C 5.25 8.91421 5.58579 9.25 6 9.25 C 6.41421 9.25 6.75 8.91421 6.75 8.5 V 6.5 C 6.75 6.08579 6.41421 5.75 6 5.75 C 5.58579 5.75 5.25 6.08579 5.25 6.5 L 5.25 8.5 Z M12.75 7.5 C12.75 7.91421 13.0858 8.25 13.5 8.25 L18 8.25 C18.4142 8.25 18.75 7.91421 18.75 7.5 C18.75 7.08579 18.4142 6.75 18 6.75 L13.5 6.75 C13.0858 6.75 12.75 7.08579 12.75 7.5 Z" fill="#FFFFFF" />
  <path fill-rule="nonzero" clip-rule="nonzero" d="M 14.9286 16.7534 C 15.3176 15.2559 16.8529 14.25 18.5048 14.25 C 19.782 14.25 20.945 14.8304 21.6108 15.7648 C 21.8512 16.1021 21.7726 16.5704 21.4353 16.8108 C 21.0979 17.0512 20.6296 16.9726 20.3892 16.6352 C 20.0295 16.1304 19.3411 15.75 18.5048 15.75 C 17.5383 15.75 16.8181 16.2319 16.5056 16.8299 C 16.592 16.8734 16.6713 16.9343 16.738 17.0123 C 17.0074 17.327 16.9707 17.8004 16.656 18.0698 L 16.0719 18.5698 C 15.7911 18.8101 15.3772 18.8101 15.0964 18.5698 L 14.5123 18.0698 C 14.1976 17.8004 14.1609 17.327 14.4302 17.0123 C 14.5618 16.8586 14.742 16.7712 14.9286 16.7534 Z M 20.9282 17.4302 C 21.2089 17.1899 21.6229 17.1899 21.9036 17.4302 L 22.4877 17.9302 C 22.8024 18.1996 22.8391 18.673 22.5698 18.9877 C 22.4382 19.1414 22.258 19.2288 22.0714 19.2466 C 21.6824 20.7441 20.1471 21.75 18.4952 21.75 C 17.218 21.75 16.0551 21.1696 15.3892 20.2352 C 15.1488 19.8979 15.2274 19.4296 15.5648 19.1892 C 15.9021 18.9488 16.3704 19.0274 16.6108 19.3648 C 16.9705 19.8696 17.6589 20.25 18.4952 20.25 C 19.4617 20.25 20.1819 19.7681 20.4944 19.1701 C 20.4081 19.1266 20.3288 19.0657 20.262 18.9877 C 19.9926 18.673 20.0294 18.1996 20.344 17.9302 L 20.9282 17.4302 Z" fill="#FFFFFF" />
</svg>