<svg xmlns="http://www.w3.org/2000/svg" width="24" height="24" viewBox="0 0 24 24" fill="none">
  <path fill-rule="nonzero" clip-rule="nonzero" d="M 9.94358 2.25 H 14.0564 C 15.8942 2.24998 17.3498 2.24997 18.489 2.40314 C 19.6614 2.56076 20.6104 2.89288 21.3588 3.64124 C 22.1071 4.38961 22.4392 5.33856 22.5969 6.51098 C 22.75 7.65019 22.75 9.10583 22.75 10.9436 V 13.0564 C 22.75 14.8942 22.75 16.3498 22.5969 17.489 C 22.4392 18.6614 22.1071 19.6104 21.3588 20.3588 C 20.6104 21.1071 19.6614 21.4392 18.489 21.5969 C 17.3498 21.75 15.8942 21.75 14.0564 21.75 H 9.94359 C 8.10583 21.75 6.65019 21.75 5.51098 21.5969 C 4.33856 21.4392 3.38961 21.1071 2.64124 20.3588 C 1.89288 19.6104 1.56076 18.6614 1.40314 17.489 C 1.24997 16.3498 1.24998 14.8942 1.25 13.0564 V 10.9436 C 1.24998 9.10582 1.24997 7.65019 1.40314 6.51098 C 1.56076 5.33856 1.89288 4.38961 2.64124 3.64124 C 3.38961 2.89288 4.33856 2.56076 5.51098 2.40314 C 6.65019 2.24997 8.10582 2.24998 9.94358 2.25 Z M 5.71085 3.88976 C 4.70476 4.02502 4.12511 4.27869 3.7019 4.7019 C 3.27869 5.12511 3.02502 5.70476 2.88976 6.71085 C 2.75159 7.73851 2.75 9.09318 2.75 11 V 11.25 H 21.25 V 11 C 21.25 9.09318 21.2484 7.73851 21.1102 6.71085 C 20.975 5.70476 20.7213 5.12511 20.2981 4.7019 C 19.8749 4.27869 19.2952 4.02502 18.2892 3.88976 C 17.2615 3.75159 15.9068 3.75 14 3.75 H 10 C 8.09318 3.75 6.73851 3.75159 5.71085 3.88976 Z M 21.25 12.75 H 2.75 V 13 C 2.75 14.9068 2.75159 16.2615 2.88976 17.2892 C 3.02502 18.2952 3.27869 18.8749 3.7019 19.2981 C 4.12511 19.7213 4.70476 19.975 5.71085 20.1102 C 6.73851 20.2484 8.09318 20.25 10 20.25 H 14 C 15.9068 20.25 17.2615 20.2484 18.2892 20.1102 C 19.2952 19.975 19.8749 19.7213 20.2981 19.2981 C 20.7213 18.8749 20.975 18.2952 21.1102 17.2892 C 21.2484 16.2615 21.25 14.9068 21.25 13 V 12.75 Z M 6 5.75 C 6.41421 5.75 6.75 6.08579 6.75 6.5 V 8.5 C 6.75 8.91421 6.41421 9.25 6 9.25 C 5.58579 9.25 5.25 8.91421 5.25 8.5 V 6.5 C 5.25 6.08579 5.58579 5.75 6 5.75 Z M 9 5.75 C 9.41421 5.75 9.75 6.08579 9.75 6.5 V 8.5 C 9.75 8.91421 9.41421 9.25 9 9.25 C 8.58579 9.25 8.25 8.91421 8.25 8.5 V 6.5 C 8.25 6.08579 8.58579 5.75 9 5.75 Z M 12.75 7.5 C 12.75 7.08579 13.0858 6.75 13.5 6.75 H 18 C 18.4142 6.75 18.75 7.08579 18.75 7.5 C 18.75 7.91421 18.4142 8.25 18 8.25 H 13.5 C 13.0858 8.25 12.75 7.91421 12.75 7.5 Z M 6 14.75 C 6.41421 14.75 6.75 15.0858 6.75 15.5 V 17.5 C 6.75 17.9142 6.41421 18.25 6 18.25 C 5.58579 18.25 5.25 17.9142 5.25 17.5 V 15.5 C 5.25 15.0858 5.58579 14.75 6 14.75 Z M 9 14.75 C 9.41421 14.75 9.75 15.0858 9.75 15.5 V 17.5 C 9.75 17.9142 9.41421 18.25 9 18.25 C 8.58579 18.25 8.25 17.9142 8.25 17.5 V 15.5 C 8.25 15.0858 8.58579 14.75 9 14.75 Z M 12.75 16.5 C 12.75 16.0858 13.0858 15.75 13.5 15.75 H 18 C 18.4142 15.75 18.75 16.0858 18.75 16.5 C 18.75 16.9142 18.4142 17.25 18 17.25 H 13.5 C 13.0858 17.25 12.75 16.9142 12.75 16.5 Z" fill="#FFFFFF" />
</svg>