<svg xmlns="http://www.w3.org/2000/svg" width="24" height="24" viewBox="0 0 24 24" fill="none">
  <path fill-rule="nonzero" clip-rule="nonzero" d="M11.3019 13.7368 L5.48796 13.7368 C3.9467 13.7368 2.69727 12.5351 2.69727 11.0526 C2.69727 9.57018 3.9467 8.36842 5.48796 8.36842 C3.9467 8.36842 2.69727 7.16666 2.69727 5.68421 C2.69727 4.20176 3.9467 3 5.48796 3 L18.5112 3 C20.0525 3 21.3019 4.20176 21.3019 5.68421 C21.3019 7.16666 20.0525 8.36842 18.5112 8.36842 C20.0525 8.36842 21.3019 9.57018 21.3019 11.0526 C21.3019 12.5351 20.0525 13.7368 18.5112 13.7368 L12.6973 13.7368 L11.3019 13.7368 Z M 12.9298 5.01316 C 12.5445 5.01316 12.2321 5.3136 12.2321 5.68421 C 12.2321 6.05482 12.5445 6.35526 12.9298 6.35526 H 18.5112 C 18.8965 6.35526 19.2089 6.05482 19.2089 5.68421 C 19.2089 5.3136 18.8965 5.01316 18.5112 5.01316 H 12.9298 Z M 12.9298 10.3816 C 12.5445 10.3816 12.2321 10.682 12.2321 11.0526 C 12.2321 11.4232 12.5445 11.7237 12.9298 11.7237 H 18.5112 C 18.8965 11.7237 19.2089 11.4232 19.2089 11.0526 C 19.2089 10.682 18.8965 10.3816 18.5112 10.3816 H 12.9298 Z M7.34843 5.68421 C7.34843 5.19006 6.93195 4.78947 6.4182 4.78947 C5.90444 4.78947 5.48796 5.19006 5.48796 5.68421 C5.48796 6.17836 5.90444 6.57895 6.4182 6.57895 C6.93195 6.57895 7.34843 6.17836 7.34843 5.68421 Z M7.34843 11.0526 C7.34843 10.5585 6.93195 10.1579 6.4182 10.1579 C5.90444 10.1579 5.48796 10.5585 5.48796 11.0526 C5.48796 11.5468 5.90444 11.9474 6.4182 11.9474 C6.93195 11.9474 7.34843 11.5468 7.34843 11.0526 Z" fill="#FFFFFF" />
  <path opacity="0.6" d="M22 18.211C22 17.8404 21.6876 17.5399 21.3023 17.5399H13.7252C13.5364 17.0914 13.164 16.7332 12.6977 16.5516V13.7373H11.3023V16.5516C10.836 16.7332 10.4636 17.0914 10.2748 17.5399H2.69767C2.31236 17.5399 2 17.8404 2 18.211C2 18.5816 2.31236 18.882 2.69767 18.882H10.2748C10.5508 19.5378 11.2192 20.0005 12 20.0005C12.7808 20.0005 13.4492 19.5378 13.7252 18.882H21.3023C21.6876 18.882 22 18.5816 22 18.211Z" fill="#FFFFFF" />
</svg>