<svg xmlns="http://www.w3.org/2000/svg" width="24" height="24" viewBox="0 0 24 24" fill="none">
  <path fill-rule="nonzero" clip-rule="nonzero" d="M2.58579 3.58579 C3.17157 3 4.11438 3 6 3 L18 3 C19.8856 3 20.8284 3 21.4142 3.58579 C22 4.17157 22 5.11438 22 7 C22 8.88562 22 9.82843 21.4142 10.4142 C20.8284 11 19.8856 11 18 11 L6 11 C4.11438 11 3.17157 11 2.58579 10.4142 C2 9.82843 2 8.88562 2 7 C2 5.11438 2 4.17157 2.58579 3.58579 Z M9 8.75 C9.41421 8.75 9.75 8.41421 9.75 8 L9.75 6 C9.75 5.58579 9.41421 5.25 9 5.25 C8.58579 5.25 8.25 5.58579 8.25 6 L8.25 8 C8.25 8.41421 8.58579 8.75 9 8.75 Z M 13.5 6.25 C 13.0858 6.25 12.75 6.58579 12.75 7 C 12.75 7.41421 13.0858 7.75 13.5 7.75 H 18 C 18.4142 7.75 18.75 7.41421 18.75 7 C 18.75 6.58579 18.4142 6.25 18 6.25 H 13.5 Z M6 8.75 C6.41421 8.75 6.75 8.41421 6.75 8 L6.75 6 C6.75 5.58579 6.41421 5.25 6 5.25 C5.58579 5.25 5.25 5.58579 5.25 6 L5.25 8 C5.25 8.41421 5.58579 8.75 6 8.75 Z" fill="#FFFFFF" />
  <path fill-rule="nonzero" clip-rule="nonzero" d="M2.58579 13.5858 C3.17157 13 4.11438 13 6 13 L18 13 C19.8856 13 20.8284 13 21.4142 13.5858 C22 14.1716 22 15.1144 22 17 C22 18.8856 22 19.8284 21.4142 20.4142 C20.8284 21 19.8856 21 18 21 L6 21 C4.11438 21 3.17157 21 2.58579 20.4142 C2 19.8284 2 18.8856 2 17 C2 15.1144 2 14.1716 2.58579 13.5858 Z M12.75 17 C12.75 17.4142 13.0858 17.75 13.5 17.75 L18 17.75 C18.4142 17.75 18.75 17.4142 18.75 17 C18.75 16.5858 18.4142 16.25 18 16.25 L13.5 16.25 C13.0858 16.25 12.75 16.5858 12.75 17 Z M 5.25 18 C 5.25 18.4142 5.58579 18.75 6 18.75 C 6.41421 18.75 6.75 18.4142 6.75 18 V 16 C 6.75 15.5858 6.41421 15.25 6 15.25 C 5.58579 15.25 5.25 15.5858 5.25 16 L 5.25 18 Z M9 18.75 C9.41421 18.75 9.75 18.4142 9.75 18 L9.75 16 C9.75 15.5858 9.41421 15.25 9 15.25 C8.58579 15.25 8.25 15.5858 8.25 16 L8.25 18 C8.25 18.4142 8.58579 18.75 9 18.75 Z" fill="#FFFFFF" />
</svg>