<svg xmlns="http://www.w3.org/2000/svg" width="24" height="24" viewBox="0 0 24 24" fill="none">
  <path fill-rule="nonzero" clip-rule="nonzero" d="M3.17157 4.17157 C4.34315 3 6.22876 3 10 3 L14 3 C17.7712 3 19.6569 3 20.8284 4.17157 C22 5.34315 22 7.22876 22 11 L22 11.25 L2 11.25 L2 11 C2 7.22876 2 5.34315 3.17157 4.17157 Z M22 12.75 L22 13 C22 16.7712 22 18.6569 20.8284 19.8284 C19.6569 21 17.7712 21 14 21 L10 21 C6.22876 21 4.34315 21 3.17157 19.8284 C2 18.6569 2 16.7712 2 13 L2 12.75 L22 12.75 Z M 5.25 17.5 C 5.25 17.9142 5.58579 18.25 6 18.25 C 6.41421 18.25 6.75 17.9142 6.75 17.5 V 15.5 C 6.75 15.0858 6.41421 14.75 6 14.75 C 5.58579 14.75 5.25 15.0858 5.25 15.5 L 5.25 17.5 Z M9 18.25 C9.41421 18.25 9.75 17.9142 9.75 17.5 L9.75 15.5 C9.75 15.0858 9.41421 14.75 9 14.75 C8.58579 14.75 8.25 15.0858 8.25 15.5 L8.25 17.5 C8.25 17.9142 8.58579 18.25 9 18.25 Z M 13.5 15.75 C 13.0858 15.75 12.75 16.0858 12.75 16.5 C 12.75 16.9142 13.0858 17.25 13.5 17.25 H 18 C 18.4142 17.25 18.75 16.9142 18.75 16.5 C 18.75 16.0858 18.4142 15.75 18 15.75 H 13.5 Z M9 9.25 C9.41421 9.25 9.75 8.91421 9.75 8.5 L9.75 6.5 C9.75 6.08579 9.41421 5.75 9 5.75 C8.58579 5.75 8.25 6.08579 8.25 6.5 L8.25 8.5 C8.25 8.91421 8.58579 9.25 9 9.25 Z M 5.25 8.5 C 5.25 8.91421 5.58579 9.25 6 9.25 C 6.41421 9.25 6.75 8.91421 6.75 8.5 V 6.5 C 6.75 6.08579 6.41421 5.75 6 5.75 C 5.58579 5.75 5.25 6.08579 5.25 6.5 L 5.25 8.5 Z M12.75 7.5 C12.75 7.91421 13.0858 8.25 13.5 8.25 L18 8.25 C18.4142 8.25 18.75 7.91421 18.75 7.5 C18.75 7.08579 18.4142 6.75 18 6.75 L13.5 6.75 C13.0858 6.75 12.75 7.08579 12.75 7.5 Z" fill="#FFFFFF" />
</svg>