<svg xmlns="http://www.w3.org/2000/svg" width="24" height="24" viewBox="0 0 24 24" fill="none">
  <path fill-rule="nonzero" clip-rule="nonzero" d="M 2 7 C 2 5.11438 2 4.17157 2.58579 3.58579 C 3.17157 3 4.11438 3 6 3 H 18 C 19.8856 3 20.8284 3 21.4142 3.58579 C 22 4.17157 22 5.11438 22 7 C 22 8.88562 22 9.82843 21.4142 10.4142 C 20.8284 11 19.8856 11 18 11 H 6 C 4.11438 11 3.17157 11 2.58579 10.4142 C 2 9.82843 2 8.88562 2 7 Z M 6 6.25 C 5.58579 6.25 5.25 6.58579 5.25 7 C 5.25 7.41421 5.58579 7.75 6 7.75 H 8 C 8.41421 7.75 8.75 7.41421 8.75 7 C 8.75 6.58579 8.41421 6.25 8 6.25 H 6 Z M10.25 7 C10.25 7.41421 10.5858 7.75 11 7.75 L18 7.75 C18.4142 7.75 18.75 7.41421 18.75 7 C18.75 6.58579 18.4142 6.25 18 6.25 L11 6.25 C10.5858 6.25 10.25 6.58579 10.25 7 Z" fill="#FFFFFF" />
  <path fill-rule="nonzero" clip-rule="nonzero" d="M 2 17 C 2 15.1144 2 14.1716 2.58579 13.5858 C 3.17157 13 4.11438 13 6 13 H 18 C 19.8856 13 20.8284 13 21.4142 13.5858 C 22 14.1716 22 15.1144 22 17 C 22 18.8856 22 19.8284 21.4142 20.4142 C 20.8284 21 19.8856 21 18 21 H 6 C 4.11438 21 3.17157 21 2.58579 20.4142 C 2 19.8284 2 18.8856 2 17 Z M 6 16.25 C 5.58579 16.25 5.25 16.5858 5.25 17 C 5.25 17.4142 5.58579 17.75 6 17.75 H 8 C 8.41421 17.75 8.75 17.4142 8.75 17 C 8.75 16.5858 8.41421 16.25 8 16.25 H 6 Z M10.25 17 C10.25 17.4142 10.5858 17.75 11 17.75 L18 17.75 C18.4142 17.75 18.75 17.4142 18.75 17 C18.75 16.5858 18.4142 16.25 18 16.25 L11 16.25 C10.5858 16.25 10.25 16.5858 10.25 17 Z" fill="#FFFFFF" />
</svg>