<svg xmlns="http://www.w3.org/2000/svg" width="24" height="24" viewBox="0 0 24 24" fill="none">
  <path fill-rule="nonzero" clip-rule="nonzero" d="M 1.25 5 C 1.25 2.92893 2.92893 1.25 5 1.25 H 19 C 21.0711 1.25 22.75 2.92893 22.75 5 C 22.75 6.2267 22.161 7.31583 21.2504 8 C 22.161 8.68417 22.75 9.7733 22.75 11 C 22.75 13.0711 21.0711 14.75 19 14.75 H 12.75 V 16.3535 C 13.6658 16.6125 14.3875 17.3342 14.6465 18.25 H 22 C 22.4142 18.25 22.75 18.5858 22.75 19 C 22.75 19.4142 22.4142 19.75 22 19.75 H 14.6465 C 14.32 20.9043 13.2588 21.75 12 21.75 C 10.7412 21.75 9.67998 20.9043 9.35352 19.75 H 2 C 1.58579 19.75 1.25 19.4142 1.25 19 C 1.25 18.5858 1.58579 18.25 2 18.25 H 9.35352 C 9.61255 17.3342 10.3342 16.6125 11.25 16.3535 V 14.75 H 5 C 2.92893 14.75 1.25 13.0711 1.25 11 C 1.25 9.7733 1.83901 8.68417 2.74963 8 C 1.83901 7.31583 1.25 6.2267 1.25 5 Z M5 7.25 L19 7.25 C20.2426 7.25 21.25 6.24264 21.25 5 C21.25 3.75736 20.2426 2.75 19 2.75 L5 2.75 C3.75736 2.75 2.75 3.75736 2.75 5 C2.75 6.24264 3.75736 7.25 5 7.25 Z M 19 8.75 H 5 C 3.75736 8.75 2.75 9.75736 2.75 11 C 2.75 12.2426 3.75736 13.25 5 13.25 H 19 C 20.2426 13.25 21.25 12.2426 21.25 11 C 21.25 9.75736 20.2426 8.75 19 8.75 Z M 12.25 5 C 12.25 4.58579 12.5858 4.25 13 4.25 H 19 C 19.4142 4.25 19.75 4.58579 19.75 5 C 19.75 5.41421 19.4142 5.75 19 5.75 H 13 C 12.5858 5.75 12.25 5.41421 12.25 5 Z M 12.25 11 C 12.25 10.5858 12.5858 10.25 13 10.25 H 19 C 19.4142 10.25 19.75 10.5858 19.75 11 C 19.75 11.4142 19.4142 11.75 19 11.75 H 13 C 12.5858 11.75 12.25 11.4142 12.25 11 Z M 12 17.75 C 11.3096 17.75 10.75 18.3096 10.75 19 C 10.75 19.6904 11.3096 20.25 12 20.25 C 12.6904 20.25 13.25 19.6904 13.25 19 C 13.25 18.3096 12.6904 17.75 12 17.75 Z" fill="#FFFFFF" />
  <path d="M7 5C7 5.55228 6.55228 6 6 6C5.44772 6 5 5.55228 5 5C5 4.44772 5.44772 4 6 4C6.55228 4 7 4.44772 7 5Z" fill="#FFFFFF" />
  <path d="M7 11C7 11.5523 6.55228 12 6 12C5.44772 12 5 11.5523 5 11C5 10.4477 5.44772 10 6 10C6.55228 10 7 10.4477 7 11Z" fill="#FFFFFF" />
</svg>