<svg xmlns="http://www.w3.org/2000/svg" width="24" height="24" viewBox="0 0 24 24" fill="none">
  <path fill-rule="nonzero" clip-rule="nonzero" d="M 13.9436 1.25 L 14 1.25 C 15.2264 1.25 16.3975 1.74097 17.2617 2.60522 L 21.3948 6.73829 C 22.259 7.60254 22.75 8.77362 22.75 10 V 10.0564 C 22.75 11.8942 22.75 13.3498 22.5969 14.489 C 22.4392 15.6614 22.1071 16.6104 21.3588 17.3588 C 20.6306 18.0869 19.7126 18.421 18.5837 18.5837 C 18.421 19.7127 18.0869 20.6306 17.3588 21.3588 C 16.6104 22.1071 15.6614 22.4392 14.489 22.5969 C 13.3498 22.75 11.8942 22.75 10.0564 22.75 H 9.94359 C 8.10583 22.75 6.65019 22.75 5.51098 22.5969 C 4.33856 22.4392 3.38961 22.1071 2.64124 21.3588 C 1.89288 20.6104 1.56076 19.6614 1.40314 18.489 C 1.24997 17.3498 1.24998 15.8942 1.25 14.0564 V 13.9436 C 1.24998 12.1058 1.24997 10.6502 1.40314 9.51098 C 1.56076 8.33856 1.89288 7.38961 2.64124 6.64124 C 3.36936 5.91313 4.28735 5.57904 5.41629 5.41632 C 5.57896 4.28742 5.9131 3.36939 6.64124 2.64124 C 7.38961 1.89288 8.33856 1.56076 9.51098 1.40314 C 10.6502 1.24997 12.1058 1.24998 13.9436 1.25 Z M 6.9588 5.28612 C 7.81813 5.24998 8.80789 5.24999 9.94358 5.25 L 10 5.25 C 11.2264 5.25 12.3975 5.74097 13.2617 6.60522 L 17.3948 10.7383 C 18.259 11.6025 18.75 12.7736 18.75 14 V 14.0564 C 18.75 15.1921 18.75 16.1819 18.7139 17.0412 C 19.4658 16.895 19.9385 16.6577 20.2981 16.2981 C 20.7213 15.8749 20.975 15.2952 21.1102 14.2892 C 21.2484 13.2615 21.25 11.9068 21.25 10 C 21.25 9.17559 20.92 8.38484 20.3341 7.79895 L 16.201 3.66588 C 15.6152 3.08 14.8244 2.75 14 2.75 C 12.0932 2.75 10.7385 2.75159 9.71085 2.88976 C 8.70476 3.02502 8.12511 3.27869 7.7019 3.7019 C 7.34227 4.06154 7.10501 4.53421 6.9588 5.28612 Z M 5.71085 6.88976 C 4.70476 7.02502 4.12511 7.27869 3.7019 7.7019 C 3.27869 8.12511 3.02502 8.70476 2.88976 9.71085 C 2.75159 10.7385 2.75 12.0932 2.75 14 C 2.75 15.9068 2.75159 17.2615 2.88976 18.2892 C 3.02502 19.2952 3.27869 19.8749 3.7019 20.2981 C 4.12511 20.7213 4.70476 20.975 5.71085 21.1102 C 6.73851 21.2484 8.09318 21.25 10 21.25 C 11.9068 21.25 13.2615 21.2484 14.2892 21.1102 C 15.2952 20.975 15.8749 20.7213 16.2981 20.2981 C 16.7213 19.8749 16.975 19.2952 17.1102 18.2892 C 17.2484 17.2615 17.25 15.9068 17.25 14 C 17.25 13.1756 16.92 12.3848 16.3341 11.799 L 12.201 7.66588 C 11.6152 7.07999 10.8244 6.75 10 6.75 C 8.09318 6.75 6.73851 6.75159 5.71085 6.88976 Z M 8.95526 13.25 H 11.0447 C 11.4776 13.2499 11.8744 13.2499 12.1972 13.2933 C 12.5527 13.3411 12.9284 13.4535 13.2374 13.7626 C 13.5465 14.0716 13.6589 14.4473 13.7067 14.8028 C 13.7501 15.1256 13.7501 15.5224 13.75 15.9553 V 17.0447 C 13.7501 17.4776 13.7501 17.8744 13.7067 18.1972 C 13.6589 18.5527 13.5465 18.9284 13.2374 19.2374 C 12.9284 19.5465 12.5527 19.6589 12.1972 19.7067 C 11.8744 19.7501 11.4776 19.7501 11.0447 19.75 H 8.95526 C 8.52244 19.7501 8.12561 19.7501 7.80279 19.7067 C 7.44731 19.6589 7.07159 19.5465 6.76256 19.2374 C 6.45354 18.9284 6.34109 18.5527 6.2933 18.1972 C 6.2499 17.8744 6.24995 17.4776 6.25 17.0447 V 15.9553 C 6.24995 15.5224 6.2499 15.1256 6.2933 14.8028 C 6.34109 14.4473 6.45354 14.0716 6.76256 13.7626 C 7.07159 13.4535 7.44731 13.3411 7.80279 13.2933 C 8.12561 13.2499 8.52244 13.2499 8.95526 13.25 Z M 7.82328 14.8232 C 7.82282 14.8236 7.823 14.8235 7.82328 14.8232 V 14.8232 Z M 7.82328 14.8232 C 7.82361 14.8229 7.82368 14.8228 7.82328 14.8232 V 14.8232 Z M 7.82567 14.8219 L 7.82328 14.8232 L 7.82186 14.8257 C 7.82085 14.8276 7.81923 14.8309 7.81716 14.836 C 7.8082 14.8577 7.79291 14.9061 7.77992 15.0027 C 7.75159 15.2134 7.75 15.5074 7.75 16 V 17 C 7.75 17.4926 7.75159 17.7866 7.77992 17.9973 C 7.79291 18.0939 7.8082 18.1423 7.81716 18.164 C 7.81923 18.1691 7.82085 18.1724 7.82186 18.1743 L 7.82322 18.1768 L 7.82567 18.1781 C 7.8276 18.1791 7.83092 18.1808 7.83596 18.1828 C 7.85774 18.1918 7.90611 18.2071 8.00266 18.2201 C 8.21339 18.2484 8.50739 18.25 9 18.25 H 9.25 V 14.75 H 9 C 8.50739 14.75 8.21339 14.7516 8.00266 14.7799 C 7.90611 14.7929 7.85775 14.8082 7.83597 14.8172 C 7.83092 14.8192 7.82761 14.8209 7.82567 14.8219 Z M 10.75 14.75 V 15.75 H 12.2497 C 12.2485 15.4031 12.2433 15.175 12.2201 15.0027 C 12.2071 14.9061 12.1918 14.8577 12.1828 14.836 C 12.1808 14.8309 12.1791 14.8276 12.1781 14.8257 L 12.1768 14.8232 L 12.1743 14.8219 C 12.1724 14.8209 12.1691 14.8192 12.164 14.8172 C 12.1423 14.8082 12.0939 14.7929 11.9973 14.7799 C 11.7866 14.7516 11.4926 14.75 11 14.75 H 10.75 Z M 12.2497 17.25 H 10.75 V 18.25 H 11 C 11.4926 18.25 11.7866 18.2484 11.9973 18.2201 C 12.0939 18.2071 12.1423 18.1918 12.164 18.1828 C 12.1691 18.1808 12.1724 18.1791 12.1743 18.1781 L 12.1768 18.1768 L 12.1781 18.1743 C 12.1791 18.1724 12.1808 18.1691 12.1828 18.164 C 12.1918 18.1423 12.2071 18.0939 12.2201 17.9973 C 12.2433 17.825 12.2485 17.5969 12.2497 17.25 Z" fill="#FFFFFF" />
</svg>