<svg xmlns="http://www.w3.org/2000/svg" width="24" height="24" viewBox="0 0 24 24" fill="none">
  <path fill-rule="nonzero" clip-rule="nonzero" d="M3.17157 20.8284 C2 19.6569 2 17.7712 2 14 C2 10.2288 2 8.34315 3.17157 7.17157 C4.34315 6 6.22876 6 10 6 C11.0254 6 12.0063 6.41048 12.7314 7.13555 L16.8644 11.2686 C17.5895 11.9937 18 12.9746 18 14 C18 17.7712 18 19.6569 16.8284 20.8284 C15.6569 22 13.7712 22 10 22 C6.22876 22 4.34315 22 3.17157 20.8284 Z M11 14 L10.5 14 L10.5 16 L13 16 C13 15.0572 13 14.5858 12.7071 14.2929 C12.4142 14 11.9428 14 11 14 Z M9.5 19 L9.5 14 L9 14 C8.05719 14 7.58579 14 7.29289 14.2929 C7 14.5858 7 15.0572 7 16 L7 17 C7 17.9428 7 18.4142 7.29289 18.7071 C7.58579 19 8.05719 19 9 19 L9.5 19 Z M11 19 C11.9428 19 12.4142 19 12.7071 18.7071 C13 18.4142 13 17.9428 13 17 L10.5 17 L10.5 19 L11 19 Z" fill="#FFFFFF" />
  <path opacity="0.5" d="M6.09277 6.09271C6.21601 4.74129 6.50305 3.84016 7.17164 3.17157C8.34321 2 10.2288 2 14.0001 2C15.0255 2 16.0064 2.41048 16.7314 3.13555L20.8645 7.26862C21.5896 7.99369 22.0001 8.9746 22.0001 10C22.0001 13.7712 22.0001 15.6569 20.8285 16.8284C20.1599 17.497 19.2588 17.7841 17.9074 17.9073C18.0001 16.8906 18.0001 15.6191 18.0001 14C18.0001 12.9746 17.5896 11.9937 16.8645 11.2686L12.7314 7.13555C12.0064 6.41048 11.0255 6 10.0001 6C8.38098 6 7.10945 6 6.09277 6.09271Z" fill="#FFFFFF" />
</svg>