<svg xmlns="http://www.w3.org/2000/svg" width="24" height="24" viewBox="0 0 24 24" fill="none">
  <path fill-rule="nonzero" clip-rule="nonzero" d="M 12 22 C 7.28595 22 4.92893 22 3.46447 20.5355 C 2 19.0711 2 16.714 2 12 C 2 7.28595 2 4.92893 3.46447 3.46447 C 4.92893 2 7.28595 2 12 2 C 12.3415 2 12.5122 2 12.6858 2.01515 C 13.4951 2.08581 14.2874 2.414 14.9097 2.93631 C 15.0431 3.04834 15.1668 3.17204 15.4142 3.41938 L 20.5806 8.58578 C 20.828 8.83317 20.9516 8.95687 21.0637 9.09034 C 21.586 9.71257 21.9142 10.5049 21.9848 11.3142 C 22 11.4878 22 11.6585 22 12 C 22 16.714 22 19.0711 20.5355 20.5355 C 19.0711 22 16.714 22 12 22 Z M 8.88886 18.6629 C 9.39331 19 10.0955 19 11.5 19 V 12 C 10.0955 12 9.39331 12 8.88886 12.3371 C 8.67048 12.483 8.48298 12.6705 8.33706 12.8889 C 8 13.3933 8 14.0955 8 15.5 C 8 16.9045 8 17.6067 8.33706 18.1111 C 8.48298 18.3295 8.67048 18.517 8.88886 18.6629 Z M15.1111 18.6629 C15.3295 18.517 15.517 18.3295 15.6629 18.1111 C15.9574 17.6705 15.9946 17.0789 15.9993 16 L12.5 16 L12.5 19 C13.9045 19 14.6067 19 15.1111 18.6629 Z M12.5 12 L12.5 15 L15.9993 15 C15.9946 13.9211 15.9574 13.3295 15.6629 12.8889 C15.517 12.6705 15.3295 12.483 15.1111 12.3371 C14.6067 12 13.9045 12 12.5 12 Z" fill="#FFFFFF" />
</svg>