<svg xmlns="http://www.w3.org/2000/svg" width="24" height="24" viewBox="0 0 24 24" fill="none">
  <path fill-rule="nonzero" clip-rule="nonzero" d="M 12.6206 2.76232 C 12.4868 2.75064 12.3532 2.75 12 2.75 C 9.62177 2.75 7.91356 2.7516 6.61358 2.92637 C 5.33517 3.09825 4.56445 3.42514 3.9948 3.9948 C 3.42514 4.56446 3.09825 5.33518 2.92637 6.61358 C 2.75159 7.91356 2.75 9.62178 2.75 12 C 2.75 14.3782 2.75159 16.0864 2.92637 17.3864 C 3.09825 18.6648 3.42514 19.4355 3.9948 20.0052 C 4.56445 20.5749 5.33517 20.9018 6.61358 21.0736 C 7.91356 21.2484 9.62177 21.25 12 21.25 C 14.3782 21.25 16.0864 21.2484 17.3864 21.0736 C 18.6648 20.9018 19.4355 20.5749 20.0052 20.0052 C 20.5749 19.4355 20.9018 18.6648 21.0736 17.3864 C 21.2484 16.0864 21.25 14.3782 21.25 12 C 21.25 11.6468 21.2494 11.5132 21.2377 11.3794 C 21.1804 10.7235 20.9125 10.0768 20.4892 9.57254 C 20.403 9.46978 20.3063 9.37221 20.0502 9.11611 L 14.8839 3.94977 C 14.6278 3.69368 14.5302 3.59701 14.4275 3.51076 C 13.9232 3.08746 13.2765 2.81957 12.6206 2.76232 Z M 12.0315 1.25 C 12.3431 1.24998 12.5445 1.24997 12.751 1.268 C 13.7138 1.35204 14.6517 1.74054 15.3919 2.36187 C 15.5507 2.49517 15.696 2.64055 15.9213 2.86587 L 15.9446 2.88911 L 21.1341 8.07862 C 21.3594 8.30396 21.5048 8.44933 21.6381 8.60814 C 22.2595 9.34833 22.648 10.2862 22.732 11.249 C 22.75 11.4555 22.75 11.6569 22.75 11.9684 V 12.0574 C 22.75 14.3658 22.75 16.1748 22.5603 17.5863 C 22.366 19.031 21.9607 20.1711 21.0659 21.0659 C 20.1711 21.9607 19.031 22.366 17.5863 22.5603 C 16.1748 22.75 14.3658 22.75 12.0574 22.75 H 11.9426 C 9.63423 22.75 7.82519 22.75 6.41371 22.5603 C 4.96897 22.366 3.82895 21.9607 2.93414 21.0659 C 2.03933 20.1711 1.63399 19.031 1.43975 17.5863 C 1.24998 16.1748 1.24999 14.3658 1.25 12.0574 V 11.9426 C 1.24999 9.63423 1.24998 7.82519 1.43975 6.41371 C 1.63399 4.96897 2.03933 3.82895 2.93414 2.93414 C 3.82895 2.03933 4.96897 1.63399 6.41371 1.43975 C 7.82519 1.24998 9.63423 1.24999 11.9426 1.25 L 12.0315 1.25 Z M 11.4616 11.25 H 12.5384 C 13.2079 11.25 13.7667 11.25 14.219 11.296 C 14.6925 11.3442 15.1318 11.4489 15.5278 11.7135 C 15.8281 11.9141 16.0859 12.1719 16.2865 12.4722 C 16.5511 12.8682 16.6559 13.3076 16.704 13.781 C 16.75 14.2334 16.75 14.7921 16.75 15.4616 V 15.5384 C 16.75 16.2079 16.75 16.7667 16.704 17.219 C 16.6559 17.6925 16.5511 18.1318 16.2865 18.5278 C 16.0859 18.8281 15.8281 19.0859 15.5278 19.2865 C 15.1318 19.5511 14.6925 19.6559 14.219 19.704 C 13.7666 19.75 13.2079 19.75 12.5383 19.75 H 11.4617 C 10.7921 19.75 10.2334 19.75 9.78102 19.704 C 9.30755 19.6559 8.86818 19.5511 8.47218 19.2865 C 8.17191 19.0859 7.9141 18.8281 7.71346 18.5278 C 7.44886 18.1318 7.34415 17.6925 7.29598 17.219 C 7.24997 16.7667 7.24998 16.2079 7.25 15.5383 V 15.4617 C 7.24998 14.7921 7.24997 14.2334 7.29598 13.781 C 7.34415 13.3076 7.44886 12.8682 7.71346 12.4722 C 7.91409 12.1719 8.17191 11.9141 8.47218 11.7135 C 8.86818 11.4489 9.30755 11.3442 9.78102 11.296 C 10.2333 11.25 10.7921 11.25 11.4616 11.25 Z M 9.93283 12.7883 C 9.57796 12.8244 9.41399 12.8882 9.30554 12.9607 C 9.16905 13.0519 9.05186 13.1691 8.96066 13.3055 C 8.8882 13.414 8.82438 13.578 8.78828 13.9328 C 8.75091 14.3002 8.75 14.7822 8.75 15.5 C 8.75 16.2178 8.75091 16.6998 8.78828 17.0672 C 8.82438 17.422 8.8882 17.586 8.96066 17.6945 C 9.05186 17.831 9.16905 17.9481 9.30554 18.0393 C 9.41399 18.1118 9.57796 18.1756 9.93283 18.2117 C 10.2559 18.2446 10.6674 18.2493 11.25 18.2499 V 12.7501 C 10.6674 12.7508 10.2559 12.7554 9.93283 12.7883 Z M 12.75 12.7501 V 14.75 H 15.2474 C 15.2436 14.4181 15.2343 14.1546 15.2117 13.9328 C 15.1756 13.578 15.1118 13.414 15.0393 13.3055 C 14.9481 13.1691 14.831 13.0519 14.6945 12.9607 C 14.586 12.8882 14.422 12.8244 14.0672 12.7883 C 13.7441 12.7554 13.3326 12.7508 12.75 12.7501 Z M 15.2474 16.25 H 12.75 V 18.2499 C 13.3326 18.2493 13.7441 18.2446 14.0672 18.2117 C 14.422 18.1756 14.586 18.1118 14.6945 18.0393 C 14.831 17.9481 14.9481 17.831 15.0393 17.6945 C 15.1118 17.586 15.1756 17.422 15.2117 17.0672 C 15.2343 16.8454 15.2436 16.5819 15.2474 16.25 Z" fill="#FFFFFF" />
</svg>