<svg xmlns="http://www.w3.org/2000/svg" width="24" height="24" viewBox="0 0 24 24" fill="none">
  <path d="M20.8283 16.8284C21.9999 15.6569 21.9999 13.7712 21.9999 10C21.9999 8.9746 21.5894 7.99369 20.8644 7.26862L16.7313 3.13555C16.0062 2.41048 15.0253 2 13.9999 2C10.2287 2 8.34306 2 7.17149 3.17157C6.79366 3.5494 6.53768 4.00149 6.36426 4.56714C7.37102 4.49992 8.54966 4.49995 9.89585 4.5L9.99985 4.5C11.4272 4.5 12.7885 5.07147 13.7919 6.07489L17.925 10.208C18.9284 11.2114 19.4998 12.5726 19.4998 14L19.4999 14.104C19.4999 15.4502 19.4999 16.6289 19.4327 17.6357C19.9984 17.4623 20.4505 17.2063 20.8283 16.8284Z" fill="#FFFFFF" />
  <path fill-rule="nonzero" clip-rule="nonzero" d="M 10 22 C 6.22876 22 4.34315 22 3.17157 20.8284 C 2 19.6569 2 17.7712 2 14 C 2 10.2288 2 8.34315 3.17157 7.17157 C 4.34315 6 6.22876 6 10 6 C 11.0254 6 12.0063 6.41048 12.7314 7.13555 L 16.8644 11.2686 C 17.5895 11.9937 18 12.9746 18 14 C 18 17.7712 18 19.6569 16.8284 20.8284 C 15.6569 22 13.7712 22 10 22 Z M 7.29289 18.7071 C 7.58579 19 8.05719 19 9 19 H 9.5 V 14 H 9 C 8.05719 14 7.58579 14 7.29289 14.2929 C 7 14.5858 7 15.0572 7 16 V 17 C 7 17.9428 7 18.4142 7.29289 18.7071 Z M12.7071 18.7071 C13 18.4142 13 17.9428 13 17 L10.5 17 L10.5 19 L11 19 C11.9428 19 12.4142 19 12.7071 18.7071 Z M11 14 L10.5 14 L10.5 16 L13 16 C13 15.0572 13 14.5858 12.7071 14.2929 C12.4142 14 11.9428 14 11 14 Z" fill="#FFFFFF" />
</svg>