<svg xmlns="http://www.w3.org/2000/svg" width="24" height="24" viewBox="0 0 24 24" fill="none">
  <path fill-rule="nonzero" clip-rule="nonzero" d="M7.23936 2.4614 L7.4544 2.4212 C10.4585 1.8596 13.541 1.8596 16.5451 2.42119 L16.8681 2.48157 C18.8934 2.86019 20.4367 4.50764 20.6774 6.54809 C21.0957 10.0925 21.1072 13.6729 20.712 17.2199 L20.6948 17.3739 C20.4473 19.5951 18.7041 21.357 16.48 21.6342 L15.5738 21.7471 C15.079 21.8088 14.8316 21.8396 14.5845 21.8654 C12.866 22.0449 11.1335 22.0449 9.41505 21.8654 C9.16792 21.8396 8.92051 21.8088 8.42569 21.7471 L7.41019 21.6206 C5.24868 21.3512 3.55266 19.6422 3.30532 17.4844 C2.89823 13.9329 2.89823 10.3467 3.30532 6.79516 L3.32102 6.65818 C3.56225 4.55367 5.15124 2.85176 7.23936 2.4614 Z M6.42501 5.51845 C6.15906 5.83601 6.2009 6.30904 6.51845 6.57499 C7.38043 7.29688 9.34383 8.25 12 8.25 C14.6562 8.25 16.6196 7.29688 17.4815 6.57499 C17.7991 6.30904 17.8409 5.83601 17.575 5.51845 C17.309 5.2009 16.836 5.15906 16.5185 5.42501 C15.9413 5.90837 14.3238 6.75 12 6.75 C9.67617 6.75 8.05871 5.90837 7.48154 5.42501 C7.16399 5.15906 6.69096 5.2009 6.42501 5.51845 Z" fill="#FFFFFF" />
</svg>