<svg xmlns="http://www.w3.org/2000/svg" width="24" height="24" viewBox="0 0 24 24" fill="none">
  <path d="M9.46142 15.6261C10.2165 15.7046 11.0596 15.7501 12.0001 15.7501C12.9436 15.7501 13.7867 15.7049 14.5394 15.6272C14.3253 15.2008 14.0738 14.9079 13.7895 14.7057C13.3846 14.4176 12.8244 14.25 12.0001 14.25C11.1758 14.25 10.6156 14.4176 10.2107 14.7057C9.92674 14.9078 9.67539 15.2002 9.46142 15.6261Z" fill="#FFFFFF" />
  <path fill-rule="nonzero" clip-rule="nonzero" d="M 3.32102 6.65818 C 3.56225 4.55367 5.15124 2.85176 7.23935 2.4614 L 7.4544 2.4212 C 10.4585 1.8596 13.541 1.8596 16.5451 2.42119 L 16.8681 2.48157 C 18.8934 2.86019 20.4367 4.50764 20.6774 6.54809 C 20.9299 8.68756 21.0342 10.8401 20.9902 12.9906 L 20.4926 13.4479 C 20.195 13.7214 19.5597 14.2847 18.2763 14.7871 C 17.694 15.0151 16.972 15.2329 16.0807 15.4035 C 15.76 14.5968 15.305 13.943 14.6591 13.4835 C 13.9212 12.9585 13.0225 12.75 12.0001 12.75 C 10.9777 12.75 10.0791 12.9585 9.34116 13.4835 C 8.6958 13.9426 8.24108 14.5957 7.92034 15.4014 C 5.1302 14.8664 3.92931 13.865 3.49291 13.4845 L 3.00908 13.0627 C 2.96793 10.9709 3.06668 8.8771 3.30532 6.79516 L 3.32102 6.65818 Z M 8.48897 4.97983 C 8.80305 4.70978 8.83874 4.23625 8.56869 3.92217 C 8.29863 3.6081 7.8251 3.57241 7.51103 3.84246 C 7.04402 4.244 6.75 4.84191 6.75 5.41115 C 6.75 6.42483 7.51705 7.12172 8.40313 7.52602 C 9.31388 7.94158 10.5556 8.16115 12 8.16115 C 13.4444 8.16115 14.6861 7.94158 15.5969 7.52602 C 16.483 7.12172 17.25 6.42483 17.25 5.41115 C 17.25 4.78763 16.9047 4.28849 16.489 3.931 C 16.1749 3.66094 15.7014 3.69663 15.4313 4.01071 C 15.1613 4.32479 15.1969 4.79832 15.511 5.06837 C 15.7359 5.26174 15.75 5.3811 15.75 5.41115 C 15.75 5.55093 15.6478 5.85404 14.9742 6.16137 C 14.3253 6.45745 13.317 6.66115 12 6.66115 C 10.683 6.66115 9.6747 6.45745 9.0258 6.16137 C 8.35224 5.85404 8.25 5.55093 8.25 5.41115 C 8.25 5.37939 8.26057 5.30992 8.30437 5.21986 C 8.34679 5.13261 8.4102 5.04756 8.48897 4.97983 Z" fill="#FFFFFF" />
  <path opacity="0.5" d="M18.8227 16.1837C19.7765 15.8103 20.4432 15.3985 20.9019 15.0566C20.8552 15.7787 20.7918 16.4999 20.7115 17.2197L20.6944 17.3738C20.4469 19.5949 18.7037 21.3568 16.4796 21.634L15.5734 21.747C15.0786 21.8086 14.8312 21.8395 14.584 21.8653C12.8656 22.0447 11.1331 22.0447 9.41464 21.8653C9.16751 21.8395 8.9201 21.8086 8.42528 21.747L7.40978 21.6204C5.24827 21.351 3.55225 19.6421 3.30491 17.4842C3.21322 16.6843 3.14218 15.8827 3.0918 15.0801C4.30981 15.9555 6.86258 17.25 11.9997 17.25C15.1501 17.25 17.3246 16.7702 18.8227 16.1837Z" fill="#FFFFFF" />
</svg>