<svg xmlns="http://www.w3.org/2000/svg" width="24" height="24" viewBox="0 0 24 24" fill="none">
  <path fill-rule="nonzero" clip-rule="nonzero" d="M12.0516 2 C13.7318 1.99999 15.0627 1.99997 16.1043 2.14245 C17.1762 2.28908 18.0438 2.59803 18.728 3.29418 C19.4122 3.99033 19.7159 4.87308 19.86 5.9637 C20 7.02343 20 8.37754 20 10.0871 L20 13.913 C20 15.6225 20 16.9766 19.86 18.0363 C19.7159 19.1269 19.4122 20.0097 18.728 20.7058 C18.0438 21.402 17.1762 21.7109 16.1043 21.8575 C15.0627 22 13.7318 22 12.0516 22 L11.9484 22 C10.2682 22 8.93731 22 7.89575 21.8575 C6.82382 21.7109 5.95621 21.402 5.27199 20.7058 C4.58778 20.0097 4.28413 19.1269 4.14001 18.0363 C3.99997 16.9766 3.99999 15.6225 4 13.9129 L4 10.087 C3.99999 8.37751 3.99997 7.02343 4.14001 5.9637 C4.28413 4.87308 4.58778 3.99033 5.27199 3.29418 C5.95621 2.59803 6.82382 2.28908 7.89575 2.14245 C8.93732 1.99997 10.2682 1.99999 11.9484 2 L12.0516 2 Z M8.57143 18.5116 C8.57143 18.8969 8.87843 19.2093 9.25714 19.2093 L14.7429 19.2093 C15.1216 19.2093 15.4286 18.8969 15.4286 18.5116 C15.4286 18.1263 15.1216 17.814 14.7429 17.814 L9.25714 17.814 C8.87843 17.814 8.57143 18.1263 8.57143 18.5116 Z" fill="#FFFFFF" />
</svg>