<svg xmlns="http://www.w3.org/2000/svg" width="24" height="24" viewBox="0 0 24 24" fill="none">
  <path opacity="0.5" d="M20.4304 21.1524C21.2773 20.3054 21.2773 18.9423 21.2773 16.2162C21.2773 13.49 21.2773 12.1269 20.4304 11.28C19.9792 10.8288 18.7485 10.6207 17.4481 10.5241C16.5562 10.4577 16.1103 10.4246 15.8022 10.7106C15.4941 10.9966 15.4941 11.4648 15.4941 12.4013V20.0434C15.4941 20.98 15.4941 21.4482 15.8032 21.7344C16.1122 22.0205 16.5575 21.9861 17.448 21.9174C18.7484 21.817 19.9792 21.6035 20.4304 21.1524Z" fill="#FFFFFF"/>
  <path d="M19.1089 14.2893C19.1089 13.8901 18.7852 13.5664 18.386 13.5664C17.9867 13.5664 17.6631 13.8901 17.6631 14.2893V18.1447C17.6631 18.5439 17.9867 18.8676 18.386 18.8676C18.7852 18.8676 19.1089 18.5439 19.1089 18.1447V14.2893Z" fill="#FFFFFF"/>
  <g opacity="0.5"/>
  <path d="M5.8557 4.8916C5.45646 4.8916 5.13281 5.21525 5.13281 5.61449C5.13281 6.01373 5.45646 6.33738 5.8557 6.33738H10.675C11.0742 6.33738 11.3979 6.01373 11.3979 5.61449C11.3979 5.21525 11.0742 4.8916 10.675 4.8916H5.8557Z" fill="#FFFFFF"/>
  <path d="M8.26534 19.1084C9.06383 19.1084 9.71113 18.4611 9.71113 17.6626C9.71113 16.8641 9.06383 16.2168 8.26534 16.2168C7.46686 16.2168 6.81956 16.8641 6.81956 17.6626C6.81956 18.4611 7.46686 19.1084 8.26534 19.1084Z" fill="#FFFFFF"/>
  <path fill-rule="evenodd" clip-rule="evenodd" d="M15.7447 2.60177C15.8117 2.20818 16.185 1.9434 16.5786 2.01035C19.6626 2.535 21.9996 5.24933 21.9996 8.5061C21.9996 8.77354 21.8519 9.01912 21.6157 9.14455C21.3795 9.26998 21.0934 9.25476 20.8718 9.10498L19.426 8.12762C19.0953 7.90403 19.0084 7.45464 19.232 7.12389C19.4556 6.79313 19.905 6.70626 20.2357 6.92986L20.3317 6.99474C19.7756 5.1544 18.2308 3.75797 16.3361 3.43565C15.9426 3.36869 15.6778 2.99535 15.7447 2.60177Z" fill="#FFFFFF"/>
</svg>