<svg xmlns="http://www.w3.org/2000/svg" width="24" height="24" viewBox="0 0 24 24" fill="none">
  <path fill-rule="nonzero" clip-rule="nonzero" d="M5.17157 3.17157 C6.34315 2 8.22876 2 12 2 C15.7712 2 17.6569 2 18.8284 3.17157 C20 4.34315 20 6.22876 20 10 L20 14 C20 17.7712 20 19.6569 18.8284 20.8284 C17.6569 22 15.7712 22 12 22 C8.22876 22 6.34315 22 5.17157 20.8284 C4 19.6569 4 17.7712 4 14 L4 10 C4 6.22876 4 4.34315 5.17157 3.17157 Z M 9 4.25 C 8.58579 4.25 8.25 4.58579 8.25 5 C 8.25 5.41421 8.58579 5.75 9 5.75 H 15 C 15.4142 5.75 15.75 5.41421 15.75 5 C 15.75 4.58579 15.4142 4.25 15 4.25 H 9 Z M 12 19 C 13.1046 19 14 18.1046 14 17 C 14 15.8954 13.1046 15 12 15 C 10.8954 15 10 15.8954 10 17 C 10 18.1046 10.8954 19 12 19 Z" fill="#FFFFFF" />
</svg>