<svg xmlns="http://www.w3.org/2000/svg" width="24" height="24" viewBox="0 0 24 24" fill="none">
  <path fill-rule="nonzero" clip-rule="nonzero" d="M 16.4073 3.15842 C 13.4943 2.61386 10.5052 2.61386 7.59222 3.15842 L 7.37718 3.19862 C 5.61132 3.52874 4.26974 4.96736 4.06614 6.74359 L 4.05044 6.88057 C 3.79005 9.15225 3.69892 11.4384 3.77705 13.7201 C 4.37161 14.1844 5.59317 14.955 7.92026 15.4013 C 8.241 14.5956 8.69571 13.9426 9.34103 13.4835 C 10.0789 12.9585 10.9776 12.75 12 12.75 C 13.0224 12.75 13.9211 12.9585 14.659 13.4835 C 15.3049 13.943 15.7598 14.5968 16.0806 15.4034 C 16.9718 15.2327 17.6939 15.0149 18.2762 14.787 C 19.2559 14.4034 19.8579 13.9844 20.2204 13.686 C 20.3048 11.3338 20.2088 8.9769 19.9326 6.63598 C 19.7304 4.92276 18.4342 3.53735 16.7302 3.2188 L 16.4073 3.15842 Z M 20.114 15.5711 C 19.7571 15.7753 19.3307 15.985 18.823 16.1837 C 17.325 16.7702 15.1504 17.25 12 17.25 C 7.77905 17.25 5.30284 16.376 3.87822 15.5787 C 3.92359 16.1863 3.98099 16.7931 4.05044 17.399 C 4.25821 19.2116 5.68342 20.6496 7.50294 20.8763 L 8.51844 21.0029 C 9.01606 21.0649 9.25494 21.0947 9.49293 21.1195 C 11.1596 21.2935 12.8399 21.2935 14.5066 21.1195 C 14.7446 21.0947 14.9834 21.0649 15.4811 21.0029 L 16.3872 20.89 C 18.2685 20.6555 19.7405 19.1657 19.9494 17.2909 L 19.9666 17.1368 C 20.0247 16.6156 20.0738 16.0936 20.114 15.5711 Z M 14.5392 15.6271 C 14.3251 15.2007 14.0736 14.9079 13.7894 14.7057 C 13.3845 14.4176 12.8243 14.25 12 14.25 C 11.1757 14.25 10.6155 14.4176 10.2106 14.7057 C 9.92664 14.9077 9.67532 15.2002 9.46136 15.6259 C 10.2164 15.7045 11.0595 15.75 12 15.75 C 12.9435 15.75 13.7865 15.7048 14.5392 15.6271 Z M 7.31658 1.68397 C 10.4117 1.10534 13.5878 1.10534 16.6829 1.68397 L 17.0059 1.74434 C 19.3526 2.18304 21.1429 4.09253 21.4223 6.46021 C 21.8472 10.0614 21.859 13.6991 21.4573 17.3029 L 21.4402 17.457 C 21.1541 20.0244 19.1397 22.0585 16.5727 22.3784 L 15.6563 22.4927 C 15.171 22.5531 14.9168 22.5848 14.6623 22.6114 C 12.8921 22.7962 11.1074 22.7962 9.33717 22.6114 C 9.08268 22.5848 8.82852 22.5531 8.34317 22.4927 L 7.31743 22.3648 C 4.81395 22.0528 2.84712 20.0729 2.5602 17.5698 C 2.1466 13.9615 2.1466 10.318 2.5602 6.70975 L 2.5759 6.57277 C 2.85476 4.13998 4.69117 2.17477 7.10153 1.72417 L 7.31658 1.68397 Z M 8.56869 3.92249 C 8.83874 4.23657 8.80305 4.7101 8.48897 4.98015 C 8.4102 5.04788 8.34679 5.13293 8.30437 5.22017 C 8.26057 5.31024 8.25 5.37971 8.25 5.41146 C 8.25 5.55124 8.35224 5.85435 9.0258 6.16168 C 9.6747 6.45776 10.683 6.66146 12 6.66146 C 13.317 6.66146 14.3253 6.45776 14.9742 6.16168 C 15.6478 5.85435 15.75 5.55124 15.75 5.41146 C 15.75 5.38142 15.7359 5.26205 15.511 5.06869 C 15.1969 4.79863 15.1613 4.3251 15.4313 4.01103 C 15.7014 3.69695 16.1749 3.66126 16.489 3.93131 C 16.9047 4.2888 17.25 4.78795 17.25 5.41146 C 17.25 6.42515 16.483 7.12204 15.5969 7.52634 C 14.6861 7.9419 13.4444 8.16146 12 8.16146 C 10.5556 8.16146 9.31388 7.9419 8.40313 7.52634 C 7.51705 7.12204 6.75 6.42515 6.75 5.41146 C 6.75 4.84223 7.04402 4.24432 7.51103 3.84278 C 7.8251 3.57272 8.29863 3.60841 8.56869 3.92249 Z" fill="#FFFFFF" />
</svg>