<svg xmlns="http://www.w3.org/2000/svg" width="24" height="24" viewBox="0 0 24 24" fill="none">
  <path fill-rule="nonzero" clip-rule="nonzero" d="M 16.2606 1.87434 C 16.3301 1.46599 16.7174 1.19127 17.1258 1.26074 C 20.3254 1.80506 22.75 4.6212 22.75 8.00012 C 22.75 8.27758 22.5968 8.53238 22.3518 8.66251 C 22.1067 8.79265 21.8098 8.77686 21.58 8.62146 L 20.08 7.60744 C 19.7368 7.37546 19.6467 6.90922 19.8787 6.56606 C 20.1106 6.2229 20.5769 6.13278 20.92 6.36476 L 21.0196 6.43208 C 20.4426 4.52271 18.8399 3.0739 16.8742 2.7395 C 16.4659 2.67003 16.1912 2.28268 16.2606 1.87434 Z M 8.3184 3.31584 C 7.73917 3.75777 7.0607 4.43399 6.08644 5.40825 L 5.40813 6.08656 C 4.43387 7.06082 3.75765 7.73929 3.31572 8.31852 C 2.88698 8.88044 2.75 9.25996 2.75 9.62605 C 2.75 9.99215 2.88698 10.3717 3.31572 10.9336 C 3.75765 11.5128 4.43387 12.1913 5.40813 13.1656 L 10.8346 18.592 C 11.8088 19.5662 12.4873 20.2425 13.0665 20.6844 C 13.6285 21.1131 14.008 21.2501 14.3741 21.2501 C 14.7402 21.2501 15.1197 21.1131 15.6816 20.6844 C 16.2608 20.2425 16.9393 19.5662 17.9136 18.592 L 18.5919 17.9137 C 19.5661 16.9394 20.2423 16.261 20.6843 15.6817 C 21.113 15.1198 21.25 14.7403 21.25 14.3742 C 21.25 14.0081 21.113 13.6286 20.6843 13.0666 C 20.2423 12.4874 19.5661 11.8089 18.5919 10.8347 L 13.1654 5.40825 C 12.1912 4.43399 11.5127 3.75777 10.9335 3.31584 C 10.3715 2.8871 9.99203 2.75012 9.62593 2.75012 C 9.25984 2.75012 8.88032 2.8871 8.3184 3.31584 Z M 7.40853 2.1233 C 8.10388 1.59277 8.8 1.25012 9.62593 1.25012 C 10.4519 1.25012 11.148 1.59277 11.8433 2.1233 C 12.5121 2.63356 13.261 3.38251 14.1875 4.30897 L 19.6911 9.81264 C 20.6176 10.7391 21.3666 11.488 21.8768 12.1568 C 22.4074 12.8521 22.75 13.5483 22.75 14.3742 C 22.75 15.2001 22.4074 15.8962 21.8768 16.5916 C 21.3666 17.2604 20.6176 18.0093 19.6911 18.9358 L 18.9356 19.6912 C 18.0092 20.6177 17.2603 21.3667 16.5915 21.8769 C 15.8961 22.4075 15.2 22.7501 14.3741 22.7501 C 13.5481 22.7501 12.852 22.4075 12.1567 21.8769 C 11.4879 21.3667 10.739 20.6177 9.81252 19.6913 L 4.30885 14.1876 C 3.38239 13.2612 2.63344 12.5122 2.12318 11.8435 C 1.59265 11.1481 1.25 10.452 1.25 9.62605 C 1.25 8.80012 1.59265 8.104 2.12318 7.40865 C 2.63344 6.73987 3.38239 5.99095 4.30885 5.06452 L 5.0644 4.30897 C 5.99083 3.38251 6.73975 2.63356 7.40853 2.1233 Z M 9.47792 5.02597 C 9.77081 5.31886 9.77081 5.79374 9.47792 6.08663 L 6.0864 9.47815 C 5.7935 9.77105 5.31863 9.77105 5.02574 9.47815 C 4.73284 9.18526 4.73284 8.71039 5.02574 8.41749 L 8.41726 5.02597 C 8.71015 4.73308 9.18503 4.73308 9.47792 5.02597 Z M 16.2178 15.244 C 15.9488 14.9749 15.5126 14.9749 15.2436 15.244 C 14.9745 15.513 14.9745 15.9492 15.2436 16.2182 C 15.5126 16.4872 15.9488 16.4872 16.2178 16.2182 C 16.4869 15.9492 16.4869 15.513 16.2178 15.244 Z M 14.1829 14.1833 C 15.0377 13.3285 16.4237 13.3285 17.2785 14.1833 C 18.1333 15.0381 18.1333 16.424 17.2785 17.2789 C 16.4237 18.1337 15.0377 18.1337 14.1829 17.2789 C 13.3281 16.424 13.3281 15.0381 14.1829 14.1833 Z M 1.64824 15.3377 C 1.89329 15.2076 2.19017 15.2234 2.42004 15.3788 L 3.92004 16.3928 C 4.2632 16.6248 4.35332 17.091 4.12134 17.4342 C 3.88936 17.7773 3.42312 17.8675 3.07996 17.6355 L 2.98038 17.5682 C 3.55736 19.4775 5.16008 20.9263 7.12578 21.2607 C 7.53413 21.3302 7.80885 21.7176 7.73938 22.1259 C 7.66991 22.5343 7.28256 22.809 6.87422 22.7395 C 3.67459 22.1952 1.25 19.379 1.25 16.0001 C 1.25 15.7227 1.40319 15.4679 1.64824 15.3377 Z" fill="#FFFFFF" />
</svg>