<svg xmlns="http://www.w3.org/2000/svg" width="24" height="24" viewBox="0 0 24 24" fill="none">
  <path fill-rule="nonzero" clip-rule="nonzero" d="M5.87884 2.87868 C6.75752 2 8.17174 2 11.0002 2 L13.0002 2 C15.8286 2 17.2428 2 18.1215 2.87868 C19.0002 3.75736 19.0002 5.17157 19.0002 8 L19.0002 16 C19.0002 18.8284 19.0002 20.2426 18.1215 21.1213 C17.2428 22 15.8286 22 13.0002 22 L11.0002 22 C8.17174 22 6.75752 22 5.87884 21.1213 C5.00016 20.2426 5.00016 18.8284 5.00016 16 L5.00016 8 C5.00016 5.17157 5.00016 3.75736 5.87884 2.87868 Z M 9.50016 18.25 C 9.08595 18.25 8.75016 18.5858 8.75016 19 C 8.75016 19.4142 9.08595 19.75 9.50016 19.75 H 14.5002 C 14.9144 19.75 15.2502 19.4142 15.2502 19 C 15.2502 18.5858 14.9144 18.25 14.5002 18.25 H 9.50016 Z" fill="#FFFFFF" />
  <path fill-rule="nonzero" clip-rule="nonzero" d="M 1.66475 5.32918 C 2.03524 5.14394 2.48574 5.29411 2.67098 5.66459 L 3.44738 7.21738 C 3.69371 7.71005 3.69371 8.28995 3.44738 8.78262 L 2.89459 9.8882 C 2.8594 9.95858 2.8594 10.0414 2.89459 10.1118 L 3.44738 11.2174 C 3.69371 11.7101 3.69371 12.29 3.44738 12.7826 L 2.89459 13.8882 C 2.8594 13.9586 2.8594 14.0414 2.89459 14.1118 L 3.44738 15.2174 C 3.69371 15.71 3.69371 16.29 3.44738 16.7826 L 2.67098 18.3354 C 2.48574 18.7059 2.03524 18.8561 1.66475 18.6708 C 1.29427 18.4856 1.1441 18.0351 1.32934 17.6646 L 2.10574 16.1118 C 2.14093 16.0414 2.14093 15.9586 2.10574 15.8882 L 1.55295 14.7826 C 1.30661 14.29 1.30661 13.71 1.55295 13.2174 L 2.10574 12.1118 C 2.14093 12.0414 2.14093 11.9586 2.10574 11.8882 L 1.55295 10.7826 C 1.30661 10.29 1.30661 9.71005 1.55295 9.21738 L 2.10574 8.1118 C 2.14093 8.04142 2.14093 7.95858 2.10574 7.8882 L 1.32934 6.33541 C 1.1441 5.96493 1.29427 5.51442 1.66475 5.32918 Z M 22.3356 5.32918 C 22.7061 5.51442 22.8562 5.96493 22.671 6.33541 L 21.8946 7.8882 C 21.8594 7.95858 21.8594 8.04142 21.8946 8.1118 L 22.4474 9.21738 C 22.6937 9.71005 22.6937 10.29 22.4474 10.7826 L 21.8946 11.8882 C 21.8594 11.9586 21.8594 12.0414 21.8946 12.1118 L 22.4474 13.2174 C 22.6937 13.71 22.6937 14.29 22.4474 14.7826 L 21.8946 15.8882 C 21.8594 15.9586 21.8594 16.0414 21.8946 16.1118 L 22.671 17.6646 C 22.8562 18.0351 22.7061 18.4856 22.3356 18.6708 C 21.9651 18.8561 21.5146 18.7059 21.3293 18.3354 L 20.5529 16.7826 C 20.3066 16.29 20.3066 15.71 20.5529 15.2174 L 21.1057 14.1118 C 21.1409 14.0414 21.1409 13.9586 21.1057 13.8882 L 20.5529 12.7826 C 20.3066 12.29 20.3066 11.71 20.5529 11.2174 L 21.1057 10.1118 C 21.1409 10.0414 21.1409 9.95858 21.1057 9.8882 L 20.5529 8.78262 C 20.3066 8.28995 20.3066 7.71005 20.5529 7.21738 L 21.3293 5.66459 C 21.5146 5.29411 21.9651 5.14394 22.3356 5.32918 Z" fill="#FFFFFF" />
</svg>