<svg xmlns="http://www.w3.org/2000/svg" width="24" height="24" viewBox="0 0 24 24" fill="none">
  <path fill-rule="nonzero" clip-rule="nonzero" d="M 10.9453 1.25 H 13.055 C 14.4226 1.24998 15.5249 1.24996 16.3919 1.36652 C 17.292 1.48754 18.0499 1.74643 18.6518 2.34835 C 19.2537 2.95027 19.5126 3.70814 19.6336 4.60825 C 19.7502 5.47522 19.7502 6.57754 19.7502 7.94513 V 16.0549 C 19.7502 17.4225 19.7502 18.5248 19.6336 19.3918 C 19.5126 20.2919 19.2537 21.0497 18.6518 21.6517 C 18.0499 22.2536 17.292 22.5125 16.3919 22.6335 C 15.5249 22.75 14.4226 22.75 13.055 22.75 H 10.9453 C 9.5777 22.75 8.47538 22.75 7.60841 22.6335 C 6.70831 22.5125 5.95043 22.2536 5.34851 21.6517 C 4.7466 21.0497 4.4877 20.2919 4.36669 19.3918 C 4.25013 18.5248 4.25014 17.4225 4.25016 16.0549 V 7.94512 C 4.25014 6.57754 4.25013 5.47522 4.36669 4.60825 C 4.4877 3.70814 4.7466 2.95027 5.34851 2.34835 C 5.95043 1.74643 6.70831 1.48754 7.60841 1.36652 C 8.47538 1.24996 9.5777 1.24998 10.9453 1.25 Z M 7.80828 2.85315 C 7.07451 2.9518 6.68594 3.13225 6.40917 3.40901 C 6.13241 3.68577 5.95197 4.07435 5.85331 4.80812 C 5.75176 5.56347 5.75016 6.56459 5.75016 8 V 16 C 5.75016 17.4354 5.75176 18.4365 5.85331 19.1919 C 5.95197 19.9257 6.13241 20.3142 6.40917 20.591 C 6.68594 20.8678 7.07451 21.0482 7.80828 21.1469 C 8.56364 21.2484 9.56475 21.25 11.0002 21.25 H 13.0002 C 14.4356 21.25 15.4367 21.2484 16.192 21.1469 C 16.9258 21.0482 17.3144 20.8678 17.5912 20.591 C 17.8679 20.3142 18.0484 19.9257 18.147 19.1919 C 18.2486 18.4365 18.2502 17.4354 18.2502 16 V 8 C 18.2502 6.56458 18.2486 5.56347 18.147 4.80812 C 18.0484 4.07435 17.8679 3.68577 17.5912 3.40901 C 17.3144 3.13225 16.9258 2.9518 16.192 2.85315 C 15.4367 2.75159 14.4356 2.75 13.0002 2.75 H 11.0002 C 9.56475 2.75 8.56364 2.75159 7.80828 2.85315 Z M 1.66475 5.32918 C 2.03524 5.14394 2.48574 5.29411 2.67098 5.66459 L 3.44738 7.21738 C 3.69371 7.71005 3.69371 8.28995 3.44738 8.78262 L 2.89459 9.8882 C 2.8594 9.95858 2.8594 10.0414 2.89459 10.1118 L 3.44738 11.2174 C 3.69371 11.71 3.69371 12.29 3.44738 12.7826 L 2.89459 13.8882 C 2.8594 13.9586 2.8594 14.0414 2.89459 14.1118 L 3.44738 15.2174 C 3.69371 15.7101 3.69371 16.29 3.44738 16.7826 L 2.67098 18.3354 C 2.48574 18.7059 2.03524 18.8561 1.66475 18.6708 C 1.29427 18.4856 1.1441 18.0351 1.32934 17.6646 L 2.10574 16.1118 C 2.14093 16.0414 2.14093 15.9586 2.10574 15.8882 L 1.55295 14.7826 C 1.30661 14.29 1.30661 13.71 1.55295 13.2174 L 2.10574 12.1118 C 2.14093 12.0414 2.14093 11.9586 2.10574 11.8882 L 1.55295 10.7826 C 1.30661 10.29 1.30661 9.71005 1.55295 9.21738 L 2.10574 8.1118 C 2.14093 8.04142 2.14093 7.95858 2.10574 7.8882 L 1.32934 6.33541 C 1.1441 5.96493 1.29427 5.51442 1.66475 5.32918 Z M 22.3356 5.32918 C 22.7061 5.51442 22.8562 5.96493 22.671 6.33541 L 21.8946 7.8882 C 21.8594 7.95858 21.8594 8.04142 21.8946 8.1118 L 22.4474 9.21738 C 22.6937 9.71005 22.6937 10.29 22.4474 10.7826 L 21.8946 11.8882 C 21.8594 11.9586 21.8594 12.0414 21.8946 12.1118 L 22.4474 13.2174 C 22.6937 13.71 22.6937 14.29 22.4474 14.7826 L 21.8946 15.8882 C 21.8594 15.9586 21.8594 16.0414 21.8946 16.1118 L 22.671 17.6646 C 22.8562 18.0351 22.7061 18.4856 22.3356 18.6708 C 21.9651 18.8561 21.5146 18.7059 21.3293 18.3354 L 20.553 16.7826 C 20.3066 16.29 20.3066 15.7101 20.553 15.2174 L 21.1057 14.1118 C 21.1409 14.0414 21.1409 13.9586 21.1057 13.8882 L 20.553 12.7826 C 20.3066 12.29 20.3066 11.71 20.553 11.2174 L 21.1057 10.1118 C 21.1409 10.0414 21.1409 9.95858 21.1057 9.8882 L 20.553 8.78262 C 20.3066 8.28995 20.3066 7.71005 20.553 7.21738 L 21.3293 5.66459 C 21.5146 5.29411 21.9651 5.14394 22.3356 5.32918 Z M 8.75016 19 C 8.75016 18.5858 9.08595 18.25 9.50016 18.25 H 14.5002 C 14.9144 18.25 15.2502 18.5858 15.2502 19 C 15.2502 19.4142 14.9144 19.75 14.5002 19.75 H 9.50016 C 9.08595 19.75 8.75016 19.4142 8.75016 19 Z" fill="#FFFFFF" />
</svg>