<svg xmlns="http://www.w3.org/2000/svg" width="24" height="24" viewBox="0 0 24 24" fill="none">
  <g clipPath="url(#clip0_1276_5592)">
    <path fill-rule="evenodd" clip-rule="evenodd" d="M11.1403 4.23535C11.3539 4.23535 11.5576 4.32503 11.7016 4.48244L12.4415 5.29123C12.7245 5.60053 12.7026 6.08012 12.3925 6.36243C12.2372 6.50384 12.0391 6.56893 11.8444 6.55978C11.5106 8.80621 9.71668 10.6046 7.4408 10.6046C6.17361 10.6046 5.0417 10.0362 4.24089 9.14812C3.96017 8.8368 3.98557 8.35737 4.29762 8.0773C4.60966 7.79723 5.0902 7.82257 5.37092 8.1339C5.91195 8.73392 6.64546 9.08809 7.4408 9.08809C8.78427 9.08809 9.9944 8.04597 10.304 6.55456C10.154 6.53556 10.0082 6.47184 9.88805 6.36243C9.57803 6.08012 9.55609 5.60053 9.83905 5.29123L10.5789 4.48244C10.7229 4.32503 10.9267 4.23535 11.1403 4.23535Z" fill="#FFFFFF"/>
    <path d="M7.1994 1C4.92351 1 3.12955 2.79836 2.79575 5.04479C2.6011 5.03565 2.40297 5.10073 2.24766 5.24214C1.93764 5.52445 1.9157 6.00404 2.19866 6.31334L2.93856 7.12213C3.08256 7.27954 3.2863 7.36922 3.4999 7.36922C3.71351 7.36922 3.91725 7.27954 4.06125 7.12213L4.80115 6.31334C5.0841 6.00404 5.06216 5.52445 4.75214 5.24214C4.63199 5.13273 4.48619 5.06901 4.33621 5.05001C4.6458 3.55861 5.85593 2.51648 7.1994 2.51648C8.05316 2.51648 8.83757 2.92524 9.38688 3.60882C9.64943 3.93555 10.1278 3.98806 10.4552 3.72612C10.7827 3.46417 10.8354 2.98696 10.5728 2.66024C9.76608 1.65634 8.56185 1 7.1994 1Z" fill="#FFFFFF"/>
    <g opacity="0.4"/>
    <path d="M9.09375 20.9672C9.09375 20.5485 9.43401 20.209 9.85375 20.209H15.9337C16.3535 20.209 16.6937 20.5485 16.6937 20.9672C16.6937 21.386 16.3535 21.7255 15.9337 21.7255H9.85375C9.43401 21.7255 9.09375 21.386 9.09375 20.9672Z" fill="#FFFFFF"/>
  </g>
</svg>