<svg xmlns="http://www.w3.org/2000/svg" width="24" height="24" viewBox="0 0 24 24" fill="none">
  <path opacity="0.5" d="M5.87868 2.87868C5 3.75736 5 5.17157 5 8V16C5 18.8284 5 20.2426 5.87868 21.1213C6.75736 22 8.17157 22 11 22H13C15.8284 22 17.2426 22 18.1213 21.1213C19 20.2426 19 18.8284 19 16V8C19 5.17157 19 3.75736 18.1213 2.87868C17.2426 2 15.8284 2 13 2H11C8.17157 2 6.75736 2 5.87868 2.87868Z" fill="#FFFFFF" />
  <path d="M9.5 18.25C9.08579 18.25 8.75 18.5858 8.75 19C8.75 19.4142 9.08579 19.75 9.5 19.75H14.5C14.9142 19.75 15.25 19.4142 15.25 19C15.25 18.5858 14.9142 18.25 14.5 18.25H9.5Z" fill="#FFFFFF" />
  <path fill-rule="nonzero" clip-rule="nonzero" d="M 1.66475 5.32934 C 2.03524 5.1441 2.48574 5.29427 2.67098 5.66475 L 3.44738 7.21754 C 3.69371 7.71021 3.69371 8.29012 3.44738 8.78279 L 2.89459 9.88836 C 2.8594 9.95874 2.8594 10.0416 2.89459 10.112 L 3.44738 11.2175 C 3.69371 11.7102 3.69371 12.2901 3.44738 12.7828 L 2.89459 13.8884 C 2.8594 13.9587 2.8594 14.0416 2.89459 14.112 L 3.44738 15.2175 C 3.69371 15.7102 3.69371 16.2901 3.44738 16.7828 L 2.67098 18.3356 C 2.48574 18.7061 2.03524 18.8562 1.66475 18.671 C 1.29427 18.4857 1.1441 18.0352 1.32934 17.6648 L 2.10574 16.112 C 2.14093 16.0416 2.14093 15.9587 2.10574 15.8884 L 1.55295 14.7828 C 1.30661 14.2901 1.30661 13.7102 1.55295 13.2175 L 2.10574 12.112 C 2.14093 12.0416 2.14093 11.9587 2.10574 11.8884 L 1.55295 10.7828 C 1.30661 10.2901 1.30661 9.71021 1.55295 9.21754 L 2.10574 8.11197 C 2.14093 8.04159 2.14093 7.95874 2.10574 7.88836 L 1.32934 6.33557 C 1.1441 5.96509 1.29427 5.51459 1.66475 5.32934 Z M 22.3356 5.32934 C 22.7061 5.51459 22.8562 5.96509 22.671 6.33557 L 21.8946 7.88836 C 21.8594 7.95874 21.8594 8.04159 21.8946 8.11197 L 22.4474 9.21754 C 22.6937 9.71021 22.6937 10.2901 22.4474 10.7828 L 21.8946 11.8884 C 21.8594 11.9587 21.8594 12.0416 21.8946 12.112 L 22.4474 13.2175 C 22.6937 13.7102 22.6937 14.2901 22.4474 14.7828 L 21.8946 15.8884 C 21.8594 15.9587 21.8594 16.0416 21.8946 16.112 L 22.671 17.6648 C 22.8562 18.0352 22.7061 18.4857 22.3356 18.671 C 21.9651 18.8562 21.5146 18.7061 21.3293 18.3356 L 20.5529 16.7828 C 20.3066 16.2901 20.3066 15.7102 20.5529 15.2175 L 21.1057 14.112 C 21.1409 14.0416 21.1409 13.9587 21.1057 13.8884 L 20.5529 12.7828 C 20.3066 12.2901 20.3066 11.7102 20.5529 11.2175 L 21.1057 10.112 C 21.1409 10.0416 21.1409 9.95874 21.1057 9.88836 L 20.5529 8.78279 C 20.3066 8.29012 20.3066 7.71021 20.5529 7.21754 L 21.3293 5.66475 C 21.5146 5.29427 21.9651 5.1441 22.3356 5.32934 Z" fill="#FFFFFF" />
</svg>