<svg xmlns="http://www.w3.org/2000/svg" width="24" height="24" viewBox="0 0 24 24" fill="none">
  <path fill-rule="nonzero" clip-rule="nonzero" d="M2.84692 3.56992 C3.69384 2.723 5.05694 2.723 7.78313 2.723 L8.74699 2.723 C11.4732 2.723 12.8363 2.723 13.6832 3.56992 C14.5301 4.41683 14.5301 5.77992 14.5301 8.5061 L14.5301 16.2169 C14.5301 18.9431 14.5301 20.3062 13.6832 21.1531 C12.8363 22 11.4732 22 8.74699 22 L7.78313 22 C5.05694 22 3.69384 22 2.84692 21.1531 C2 20.3062 2 18.9431 2 16.2169 L2 8.5061 C2 5.77992 2 4.41683 2.84692 3.56992 Z M 5.85542 4.89167 C 5.45618 4.89167 5.13253 5.21531 5.13253 5.61455 C 5.13253 6.01379 5.45618 6.33744 5.85542 6.33744 H 10.6747 C 11.0739 6.33744 11.3976 6.01379 11.3976 5.61455 C 11.3976 5.21531 11.0739 4.89167 10.6747 4.89167 H 5.85542 Z M 8.26506 19.1084 C 9.06354 19.1084 9.71084 18.4612 9.71084 17.6627 C 9.71084 16.8642 9.06354 16.2169 8.26506 16.2169 C 7.46658 16.2169 6.81928 16.8642 6.81928 17.6627 C 6.81928 18.4612 7.46658 19.1084 8.26506 19.1084 Z" fill="#FFFFFF" />
  <path fill-rule="nonzero" clip-rule="nonzero" d="M 21.2771 16.2165 C 21.2771 18.9427 21.2771 20.3058 20.4302 21.1527 C 19.979 21.6038 18.7482 21.8174 17.4478 21.9177 C 16.5573 21.9865 16.1121 22.0208 15.803 21.7347 C 15.494 21.4486 15.494 20.9803 15.494 20.0437 V 12.4017 C 15.494 11.4652 15.494 10.9969 15.802 10.7109 C 16.1101 10.4249 16.5561 10.4581 17.448 10.5244 C 18.7484 10.6211 19.9791 10.8292 20.4302 11.2803 C 21.2771 12.1272 21.2771 13.4903 21.2771 16.2165 Z M 19.1084 14.2892 C 19.1084 13.89 18.7848 13.5663 18.3855 13.5663 C 17.9863 13.5663 17.6627 13.89 17.6627 14.2892 V 18.1446 C 17.6627 18.5438 17.9863 18.8675 18.3855 18.8675 C 18.7848 18.8675 19.1084 18.5438 19.1084 18.1446 V 14.2892 Z" fill="#FFFFFF" />
  <path fill-rule="evenodd" clip-rule="evenodd" d="M15.7452 2.60177C15.8121 2.20818 16.1855 1.9434 16.5791 2.01035C19.663 2.535 22 5.24933 22 8.5061C22 8.77354 21.8524 9.01912 21.6162 9.14455C21.38 9.26998 21.0938 9.25476 20.8723 9.10498L19.4265 8.12762C19.0957 7.90403 19.0088 7.45464 19.2324 7.12389C19.456 6.79313 19.9054 6.70626 20.2362 6.92986L20.3322 6.99474C19.776 5.1544 18.2312 3.75797 16.3366 3.43565C15.943 3.36869 15.6782 2.99535 15.7452 2.60177Z" fill="#FFFFFF" />
</svg>