<svg xmlns="http://www.w3.org/2000/svg" width="24" height="24" viewBox="0 0 24 24" fill="none">
  <path fill-rule="nonzero" clip-rule="nonzero" d="M 16.2606 1.87434 C 16.3301 1.46599 16.7174 1.19127 17.1258 1.26074 C 20.3254 1.80506 22.75 4.6212 22.75 8.00012 C 22.75 8.27758 22.5968 8.53238 22.3518 8.66251 C 22.1067 8.79265 21.8098 8.77686 21.58 8.62146 L 20.08 7.60744 C 19.7368 7.37546 19.6467 6.90922 19.8787 6.56606 C 20.1106 6.2229 20.5769 6.13278 20.92 6.36476 L 21.0196 6.43208 C 20.4426 4.52271 18.8399 3.0739 16.8742 2.7395 C 16.4659 2.67003 16.1912 2.28268 16.2606 1.87434 Z M 7.94513 1.25012 H 9.05488 C 10.4225 1.2501 11.5248 1.25008 12.3918 1.36664 C 13.2919 1.48766 14.0497 1.74655 14.6517 2.34847 C 15.2536 2.95039 15.5125 3.70826 15.6335 4.60837 C 15.75 5.47534 15.75 6.57766 15.75 7.94525 V 16.055 C 15.75 17.4226 15.75 18.5249 15.6335 19.3919 C 15.5125 20.292 15.2536 21.0499 14.6517 21.6518 C 14.0497 22.2537 13.2919 22.5126 12.3918 22.6336 C 11.5248 22.7502 10.4225 22.7501 9.05487 22.7501 H 7.94513 C 6.57754 22.7501 5.47522 22.7502 4.60825 22.6336 C 3.70814 22.5126 2.95027 22.2537 2.34835 21.6518 C 1.74643 21.0499 1.48754 20.292 1.36652 19.3919 C 1.24996 18.5249 1.24998 17.4226 1.25 16.055 V 7.94525 C 1.24998 6.57766 1.24996 5.47534 1.36652 4.60837 C 1.48754 3.70826 1.74643 2.95039 2.34835 2.34847 C 2.95027 1.74655 3.70814 1.48766 4.60825 1.36664 C 5.47522 1.25008 6.57754 1.2501 7.94513 1.25012 Z M 4.80812 2.85327 C 4.07435 2.95192 3.68577 3.13237 3.40901 3.40913 C 3.13225 3.68589 2.9518 4.07447 2.85315 4.80824 C 2.75159 5.56359 2.75 6.5647 2.75 8.00012 V 16.0001 C 2.75 17.4355 2.75159 18.4366 2.85315 19.192 C 2.9518 19.9258 3.13225 20.3143 3.40901 20.5911 C 3.68577 20.8679 4.07435 21.0483 4.80812 21.147 C 5.56347 21.2485 6.56458 21.2501 8 21.2501 H 9 C 10.4354 21.2501 11.4365 21.2485 12.1919 21.147 C 12.9257 21.0483 13.3142 20.8679 13.591 20.5911 C 13.8678 20.3143 14.0482 19.9258 14.1469 19.192 C 14.2484 18.4366 14.25 17.4355 14.25 16.0001 V 8.00012 C 14.25 6.5647 14.2484 5.56359 14.1469 4.80824 C 14.0482 4.07446 13.8678 3.68589 13.591 3.40913 C 13.3142 3.13237 12.9257 2.95192 12.1919 2.85327 C 11.4365 2.75171 10.4354 2.75012 9 2.75012 H 8 C 6.56459 2.75012 5.56347 2.75171 4.80812 2.85327 Z M 5.25 5.00012 C 5.25 4.58591 5.58579 4.25012 6 4.25012 H 11 C 11.4142 4.25012 11.75 4.58591 11.75 5.00012 C 11.75 5.41433 11.4142 5.75012 11 5.75012 H 6 C 5.58579 5.75012 5.25 5.41433 5.25 5.00012 Z M 16.7501 9.99579 C 16.7561 9.58162 17.0967 9.25072 17.5109 9.25672 C 19.3184 9.28287 20.6972 9.39401 21.6517 10.3485 C 22.2536 10.9504 22.5125 11.7083 22.6335 12.6084 C 22.75 13.4753 22.75 14.5777 22.75 15.9453 V 16.055 C 22.75 17.4226 22.75 18.5249 22.6335 19.3919 C 22.5125 20.292 22.2536 21.0499 21.6517 21.6518 C 20.6972 22.6062 19.3184 22.7174 17.5109 22.7435 C 17.0967 22.7495 16.7561 22.4186 16.7501 22.0045 C 16.7441 21.5903 17.075 21.2497 17.4892 21.2437 C 19.4009 21.216 20.1308 21.0513 20.591 20.5911 C 20.8678 20.3143 21.0482 19.9258 21.1469 19.192 C 21.2484 18.4366 21.25 17.4355 21.25 16.0001 C 21.25 14.5647 21.2484 13.5636 21.1469 12.8082 C 21.0482 12.0745 20.8678 11.6859 20.591 11.4091 C 20.1308 10.949 19.4009 10.7842 17.4892 10.7566 C 17.075 10.7506 16.7441 10.41 16.7501 9.99579 Z M 19 13.2501 C 19.4142 13.2501 19.75 13.5859 19.75 14.0001 V 18.0001 C 19.75 18.4143 19.4142 18.7501 19 18.7501 C 18.5858 18.7501 18.25 18.4143 18.25 18.0001 V 14.0001 C 18.25 13.5859 18.5858 13.2501 19 13.2501 Z M 8.5 16.7501 C 8.08579 16.7501 7.75 17.0859 7.75 17.5001 C 7.75 17.9143 8.08579 18.2501 8.5 18.2501 C 8.91421 18.2501 9.25 17.9143 9.25 17.5001 C 9.25 17.0859 8.91421 16.7501 8.5 16.7501 Z M 6.25 17.5001 C 6.25 16.2575 7.25736 15.2501 8.5 15.2501 C 9.74264 15.2501 10.75 16.2575 10.75 17.5001 C 10.75 18.7428 9.74264 19.7501 8.5 19.7501 C 7.25736 19.7501 6.25 18.7428 6.25 17.5001 Z" fill="#FFFFFF" />
</svg>