<svg xmlns="http://www.w3.org/2000/svg" width="24" height="24" viewBox="0 0 24 24" fill="none">
  <path fill-rule="nonzero" clip-rule="nonzero" d="M 3.62731 14.5343 C 3.88455 14.8589 3.82989 15.3306 3.50523 15.5879 C 2.93157 16.0424 2.75 16.443 2.75 16.75 C 2.75 17.0165 2.88413 17.3495 3.29688 17.7337 C 3.71071 18.119 4.35043 18.5004 5.20371 18.8364 C 6.41418 19.313 7.97893 19.6686 9.75 19.8343 V 19.375 C 9.75 19.0807 9.9221 18.8137 10.1901 18.6921 C 10.4581 18.5705 10.7724 18.6168 10.9939 18.8106 L 12.4939 20.1231 C 12.6566 20.2655 12.75 20.4713 12.75 20.6875 C 12.75 20.9038 12.6566 21.1095 12.4939 21.252 L 10.9939 22.5645 C 10.7724 22.7582 10.4581 22.8046 10.1901 22.683 C 9.9221 22.5614 9.75 22.2943 9.75 22 V 21.3404 C 7.80576 21.1699 6.04974 20.7816 4.65415 20.2321 C 3.69779 19.8555 2.87304 19.3885 2.27482 18.8316 C 1.67551 18.2737 1.25 17.5709 1.25 16.75 C 1.25 15.7998 1.81667 15.012 2.5737 14.4122 C 2.89836 14.1549 3.37008 14.2096 3.62731 14.5343 Z M 20.3727 14.5343 C 20.6299 14.2096 21.1016 14.1549 21.4263 14.4122 C 22.1833 15.012 22.75 15.7998 22.75 16.75 C 22.75 18.1281 21.5819 19.1606 20.2034 19.8514 C 18.7617 20.5738 16.791 21.0851 14.5756 21.3097 C 14.1635 21.3514 13.7956 21.0512 13.7538 20.6391 C 13.7121 20.227 14.0123 19.8591 14.4244 19.8173 C 16.522 19.6047 18.3014 19.1267 19.5314 18.5103 C 20.8246 17.8623 21.25 17.2067 21.25 16.75 C 21.25 16.443 21.0684 16.0424 20.4948 15.5879 C 20.1701 15.3306 20.1155 14.8589 20.3727 14.5343 Z" fill="#FFFFFF" />
  <path opacity="0.5" d="M19 9V19C19 19 14.8431 21 12 21C9.15694 21 5 19 5 19V9C5 6.19108 5 4.78661 5.67412 3.77772C5.96596 3.34096 6.34096 2.96596 6.77772 2.67412C7.78661 2 9.19108 2 12 2C14.8089 2 16.2134 2 17.2223 2.67412C17.659 2.96596 18.034 3.34096 18.3259 3.77772C19 4.78661 19 6.19108 19 9Z" fill="#FFFFFF" />
  <path d="M9 4.25C8.58579 4.25 8.25 4.58579 8.25 5C8.25 5.41421 8.58579 5.75 9 5.75H15C15.4142 5.75 15.75 5.41421 15.75 5C15.75 4.58579 15.4142 4.25 15 4.25H9Z" fill="#FFFFFF" />
</svg>