<svg xmlns="http://www.w3.org/2000/svg" width="24" height="24" viewBox="0 0 24 24" fill="none">
  <path fill-rule="nonzero" clip-rule="nonzero" d="M 6.75 12 C 6.75 9.35515 8.70578 7.16709 11.25 6.80317 V 7.5 C 11.25 7.91421 11.5858 8.25 12 8.25 C 12.4142 8.25 12.75 7.91421 12.75 7.5 V 6.80317 C 15.2942 7.16709 17.25 9.35515 17.25 12 C 17.25 14.6449 15.2942 16.8329 12.75 17.1968 V 16.4999 C 12.75 16.0857 12.4142 15.7499 12 15.7499 C 11.5858 15.7499 11.25 16.0857 11.25 16.4999 V 17.1968 C 8.70578 16.8329 6.75 14.6449 6.75 12 Z M15 12 C15 11.4477 14.5523 11 14 11 C13.4477 11 13 11.4477 13 12 C13 12.5523 13.4477 13 14 13 C14.5523 13 15 12.5523 15 12 Z M 10 13 C 10.5523 13 11 12.5523 11 12 C 11 11.4477 10.5523 11 10 11 C 9.44772 11 9 11.4477 9 12 C 9 12.5523 9.44772 13 10 13 Z" fill="#FFFFFF" />
  <path fill-rule="nonzero" clip-rule="nonzero" d="M3.46447 3.46447 C4.92893 2 7.28595 2 12 2 C16.714 2 19.0711 2 20.5355 3.46447 C22 4.92893 22 7.28595 22 12 C22 16.714 22 19.0711 20.5355 20.5355 C19.0711 22 16.714 22 12 22 C7.28595 22 4.92893 22 3.46447 20.5355 C2 19.0711 2 16.714 2 12 C2 7.28595 2 4.92893 3.46447 3.46447 Z M 12 5.25 C 8.27208 5.25 5.25 8.27208 5.25 12 C 5.25 15.7279 8.27208 18.75 12 18.75 C 15.7279 18.75 18.75 15.7279 18.75 12 C 18.75 8.27208 15.7279 5.25 12 5.25 Z" fill="#FFFFFF" />
</svg>