<svg xmlns="http://www.w3.org/2000/svg" width="24" height="24" viewBox="0 0 24 24" fill="none">
  <path opacity="0.5" d="M3.46447 3.46447C2 4.92893 2 7.28595 2 12C2 16.714 2 19.0711 3.46447 20.5355C4.92893 22 7.28595 22 12 22C16.714 22 19.0711 22 20.5355 20.5355C22 19.0711 22 16.714 22 12C22 7.28595 22 4.92893 20.5355 3.46447C19.0711 2 16.714 2 12 2C7.28595 2 4.92893 2 3.46447 3.46447Z" fill="#FFFFFF" />
  <path fill-rule="nonzero" clip-rule="nonzero" d="M11.25 7.49982 C11.25 7.91403 11.5858 8.24982 12 8.24982 C12.4142 8.24982 12.75 7.91403 12.75 7.49982 L12.75 6.80299 L12.75 5.29102 C16.125 5.6641 18.75 8.5254 18.75 11.9998 C18.75 15.4742 16.125 18.3355 12.75 18.7086 L12.75 17.1967 L12.75 16.4998 C12.75 16.0855 12.4142 15.7498 12 15.7498 C11.5858 15.7498 11.25 16.0855 11.25 16.4998 L11.25 17.1967 L11.25 18.7086 C7.87504 18.3355 5.25 15.4742 5.25 11.9998 C5.25 8.5254 7.87504 5.6641 11.25 5.29102 L11.25 6.80299 L11.25 7.49982 Z M15 11.9998 C15 11.4475 14.5523 10.9998 14 10.9998 C13.4477 10.9998 13 11.4475 13 11.9998 C13 12.5521 13.4477 12.9998 14 12.9998 C14.5523 12.9998 15 12.5521 15 11.9998 Z M 10 12.9998 C 10.5523 12.9998 11 12.5521 11 11.9998 C 11 11.4475 10.5523 10.9998 10 10.9998 C 9.44772 10.9998 9 11.4475 9 11.9998 C 9 12.5521 9.44772 12.9998 10 12.9998 Z" fill="#FFFFFF" />
</svg>