<svg xmlns="http://www.w3.org/2000/svg" width="24" height="24" viewBox="0 0 24 24" fill="none">
  <path opacity="0.5" d="M5.49965 13.5882H18.4996C19.8107 13.5882 20.9534 14.3515 21.553 15.4813L18.9996 5.11765C18.4996 3.52941 17.6042 3 16.4996 3H7.49965C6.39508 3 5.49965 3.52941 4.99965 5.11765L2.44629 15.4813C3.04588 14.3515 4.18858 13.5882 5.49965 13.5882Z" fill="#FFFFFF" />
  <path fill-rule="nonzero" clip-rule="nonzero" d="M18.5 13.5879 C19.8111 13.5879 20.9538 14.3512 21.5534 15.4809 C21.8378 16.0169 22 16.6353 22 17.2938 C22 19.3405 20.433 20.9997 18.5 20.9997 L5.5 20.9997 C3.567 20.9997 2 19.3405 2 17.2938 C2 16.6353 2.16221 16.0169 2.44664 15.4809 C3.04623 14.3512 4.18893 13.5879 5.5 13.5879 L18.5 13.5879 Z M18 16.25 C17.5858 16.25 17.25 16.5858 17.25 17 L17.25 18 C17.25 18.4142 17.5858 18.75 18 18.75 C18.4142 18.75 18.75 18.4142 18.75 18 L18.75 17 C18.75 16.5858 18.4142 16.25 18 16.25 Z M 16.25 17 C 16.25 16.5858 15.9142 16.25 15.5 16.25 C 15.0858 16.25 14.75 16.5858 14.75 17 V 18 C 14.75 18.4142 15.0858 18.75 15.5 18.75 C 15.9142 18.75 16.25 18.4142 16.25 18 V 17 Z M13 16.25 C12.5858 16.25 12.25 16.5858 12.25 17 L12.25 18 C12.25 18.4142 12.5858 18.75 13 18.75 C13.4142 18.75 13.75 18.4142 13.75 18 L13.75 17 C13.75 16.5858 13.4142 16.25 13 16.25 Z M 11.25 17 C 11.25 16.5858 10.9142 16.25 10.5 16.25 C 10.0858 16.25 9.75 16.5858 9.75 17 V 18 C 9.75 18.4142 10.0858 18.75 10.5 18.75 C 10.9142 18.75 11.25 18.4142 11.25 18 V 17 Z" fill="#FFFFFF" />
</svg>