<svg xmlns="http://www.w3.org/2000/svg" width="24" height="24" viewBox="0 0 24 24" fill="none">
  <path d="M18.8421 13.3763C19.9675 13.3763 20.9827 13.8287 21.7332 14.5574L19.3684 5.17819C18.8421 3.54455 17.8995 3 16.7368 3H7.26316C6.10045 3 5.15789 3.54455 4.63158 5.17819L2.26675 14.5574C3.01734 13.8287 4.03248 13.3763 5.15789 13.3763H18.8421Z" fill="#FFFFFF" />
  <path fill-rule="nonzero" clip-rule="nonzero" d="M5.15789 14.4049 L18.8421 14.4049 C20.009 14.4049 21.0425 15.0684 21.5913 16.0789 C21.8508 16.5568 22 17.1102 22 17.7025 C22 19.5517 20.5582 21 18.8421 21 L5.15789 21 C3.44178 21 2 19.5517 2 17.7025 C2 17.1102 2.14918 16.5568 2.40873 16.0789 C2.95755 15.0684 3.991 14.4049 5.15789 14.4049 Z M 11.2105 17.4003 C 11.2105 16.9742 10.8571 16.6288 10.4211 16.6288 C 9.98504 16.6288 9.63158 16.9742 9.63158 17.4003 V 18.4289 C 9.63158 18.8549 9.98504 19.2003 10.4211 19.2003 C 10.8571 19.2003 11.2105 18.8549 11.2105 18.4289 V 17.4003 Z M13.0526 16.6288 C12.6166 16.6288 12.2632 16.9742 12.2632 17.4003 L12.2632 18.4289 C12.2632 18.8549 12.6166 19.2003 13.0526 19.2003 C13.4886 19.2003 13.8421 18.8549 13.8421 18.4289 L13.8421 17.4003 C13.8421 16.9742 13.4886 16.6288 13.0526 16.6288 Z M 16.4737 17.4003 C 16.4737 16.9742 16.1202 16.6288 15.6842 16.6288 C 15.2482 16.6288 14.8947 16.9742 14.8947 17.4003 V 18.4289 C 14.8947 18.8549 15.2482 19.2003 15.6842 19.2003 C 16.1202 19.2003 16.4737 18.8549 16.4737 18.4289 V 17.4003 Z M 19.1053 17.4003 C 19.1053 16.9742 18.7518 16.6288 18.3158 16.6288 C 17.8798 16.6288 17.5263 16.9742 17.5263 17.4003 V 18.4289 C 17.5263 18.8549 17.8798 19.2003 18.3158 19.2003 C 18.7518 19.2003 19.1053 18.8549 19.1053 18.4289 V 17.4003 Z" fill="#FFFFFF" />
</svg>