<svg xmlns="http://www.w3.org/2000/svg" width="24" height="24" viewBox="0 0 24 24" fill="none">
  <path fill-rule="nonzero" clip-rule="nonzero" d="M 11.5 16.25 C 11.9142 16.25 12.25 16.5858 12.25 17 V 18 C 12.25 18.4142 11.9142 18.75 11.5 18.75 C 11.0858 18.75 10.75 18.4142 10.75 18 V 17 C 10.75 16.5858 11.0858 16.25 11.5 16.25 Z M 14 16.25 C 14.4142 16.25 14.75 16.5858 14.75 17 V 18 C 14.75 18.4142 14.4142 18.75 14 18.75 C 13.5858 18.75 13.25 18.4142 13.25 18 V 17 C 13.25 16.5858 13.5858 16.25 14 16.25 Z M 16.5 16.25 C 16.9142 16.25 17.25 16.5858 17.25 17 V 18 C 17.25 18.4142 16.9142 18.75 16.5 18.75 C 16.0858 18.75 15.75 18.4142 15.75 18 V 17 C 15.75 16.5858 16.0858 16.25 16.5 16.25 Z M 19 16.25 C 19.4142 16.25 19.75 16.5858 19.75 17 V 18 C 19.75 18.4142 19.4142 18.75 19 18.75 C 18.5858 18.75 18.25 18.4142 18.25 18 V 17 C 18.25 16.5858 18.5858 16.25 19 16.25 Z" fill="#FFFFFF" />
  <path fill-rule="nonzero" clip-rule="nonzero" d="M 5.56216 2.87174 C 6.14861 2.41455 6.82355 2.25 7.5 2.25 H 16.5 C 17.1765 2.25 17.8514 2.41455 18.4378 2.87174 C 19.0172 3.32344 19.4352 4.0024 19.7154 4.89243 L 19.718 4.90062 L 22.5718 14.7467 C 22.6403 14.9806 22.6798 15.2261 22.7044 15.4827 C 22.75 15.9572 22.75 16.5451 22.75 17.2573 V 17.331 C 22.75 18.0431 22.75 18.631 22.7044 19.1056 C 22.657 19.5988 22.5548 20.0509 22.2972 20.4591 C 22.1 20.7716 21.8448 21.0428 21.5443 21.2554 C 21.1461 21.5371 20.7019 21.6495 20.2234 21.7011 C 19.7689 21.75 19.2082 21.75 18.5402 21.75 H 5.45976 C 4.7918 21.75 4.23115 21.75 3.77661 21.7011 C 3.29814 21.6495 2.85387 21.5371 2.45569 21.2554 C 2.15523 21.0428 1.90001 20.7716 1.7028 20.4591 C 1.44521 20.0509 1.34296 19.5988 1.29557 19.1056 C 1.24998 18.631 1.24999 18.0432 1.25 17.331 V 17.2572 C 1.24999 16.5451 1.24998 15.9572 1.29557 15.4827 C 1.32022 15.2261 1.35972 14.9806 1.4282 14.7467 L 4.28204 4.90062 L 4.28461 4.89243 C 4.56481 4.0024 4.98276 3.32344 5.56216 2.87174 Z M 3.51882 12.922 C 3.60357 12.9079 3.68952 12.8965 3.77661 12.8872 C 4.23116 12.8382 4.79184 12.8382 5.45983 12.8382 H 18.5402 C 19.2082 12.8382 19.7688 12.8382 20.2234 12.8872 C 20.3105 12.8965 20.3964 12.9079 20.4812 12.922 L 18.2821 5.33495 C 18.0627 4.64179 17.784 4.264 17.5156 4.05473 C 17.2532 3.85015 16.9281 3.75 16.5 3.75 H 7.5 C 7.07188 3.75 6.74682 3.85015 6.48441 4.05473 C 6.21598 4.264 5.93731 4.64179 5.71788 5.33495 L 3.51882 12.922 Z M 3.93724 14.3785 C 3.58737 14.4162 3.42829 14.4822 3.32203 14.5574 C 3.18573 14.6538 3.06595 14.7797 2.97133 14.9296 C 2.89185 15.0556 2.82557 15.2423 2.7887 15.6261 C 2.75081 16.0204 2.75 16.5358 2.75 17.2941 C 2.75 18.0524 2.75081 18.5678 2.7887 18.9621 C 2.82557 19.3459 2.89185 19.5327 2.97133 19.6586 C 3.06595 19.8085 3.18573 19.9344 3.32203 20.0308 C 3.42829 20.106 3.58737 20.172 3.93724 20.2097 C 4.30195 20.249 4.78126 20.25 5.5 20.25 H 18.5 C 19.2187 20.25 19.6981 20.249 20.0628 20.2097 C 20.4126 20.172 20.5717 20.106 20.678 20.0308 C 20.8143 19.9344 20.9341 19.8085 21.0287 19.6586 C 21.1082 19.5327 21.1744 19.3459 21.2113 18.9621 C 21.2492 18.5678 21.25 18.0524 21.25 17.2941 C 21.25 16.5358 21.2492 16.0204 21.2113 15.6261 C 21.1744 15.2423 21.1082 15.0556 21.0287 14.9296 C 20.9341 14.7797 20.8143 14.6538 20.678 14.5574 C 20.5717 14.4822 20.4126 14.4162 20.0628 14.3785 C 19.6981 14.3393 19.2187 14.3382 18.5 14.3382 H 5.5 C 4.78126 14.3382 4.30195 14.3393 3.93724 14.3785 Z" fill="#FFFFFF" />
</svg>