<svg xmlns="http://www.w3.org/2000/svg" width="24" height="24" viewBox="0 0 24 24" fill="none">
  <path opacity="0.5" d="M16.4997 3H7.49974C6.39517 3 5.49974 3.52941 4.99974 5.11765L2.15711 14.9263C2.20259 14.7794 2.26122 14.6491 2.3368 14.5294C2.48272 14.2982 2.67022 14.0996 2.8886 13.9451C3.39305 13.5882 4.09528 13.5882 5.49974 13.5882H18.4997C19.9042 13.5882 20.6064 13.5882 21.1109 13.9451C21.3293 14.0996 21.5168 14.2982 21.6627 14.5294C21.7432 14.6571 21.8046 14.7968 21.8513 14.9557L18.9997 5.11765C18.4997 3.52941 17.6043 3 16.4997 3Z" fill="#FFFFFF" />
  <path fill-rule="nonzero" clip-rule="nonzero" d="M 5.5 13.5879 H 18.5 C 19.9045 13.5879 20.6067 13.5879 21.1111 13.9448 C 21.3295 14.0993 21.517 14.2978 21.6629 14.529 C 21.7435 14.6567 21.8049 14.7965 21.8515 14.9554 C 22 15.4611 22 16.1618 22 17.2929 C 22 18.7799 22 19.5244 21.6629 20.0585 C 21.517 20.2897 21.3295 20.4883 21.1111 20.6428 C 20.6067 20.9997 19.9045 20.9997 18.5 20.9997 H 5.5 C 4.09554 20.9997 3.39331 20.9997 2.88886 20.6428 C 2.67048 20.4883 2.48298 20.2897 2.33706 20.0585 C 2 19.5244 2 18.7809 2 17.2938 C 2 16.1949 2 15.502 2.136 14.9997 C 2.14278 14.9746 2.1499 14.95 2.15737 14.9259 C 2.20285 14.7791 2.26148 14.6488 2.33706 14.529 C 2.48298 14.2978 2.67048 14.0993 2.88886 13.9448 C 3.39331 13.5879 4.09554 13.5879 5.5 13.5879 Z M19 16.25 C18.5858 16.25 18.25 16.5858 18.25 17 L18.25 18 C18.25 18.4142 18.5858 18.75 19 18.75 C19.4142 18.75 19.75 18.4142 19.75 18 L19.75 17 C19.75 16.5858 19.4142 16.25 19 16.25 Z M 17.25 17 C 17.25 16.5858 16.9142 16.25 16.5 16.25 C 16.0858 16.25 15.75 16.5858 15.75 17 V 18 C 15.75 18.4142 16.0858 18.75 16.5 18.75 C 16.9142 18.75 17.25 18.4142 17.25 18 V 17 Z M14 16.25 C13.5858 16.25 13.25 16.5858 13.25 17 L13.25 18 C13.25 18.4142 13.5858 18.75 14 18.75 C14.4142 18.75 14.75 18.4142 14.75 18 L14.75 17 C14.75 16.5858 14.4142 16.25 14 16.25 Z M 12.25 17 C 12.25 16.5858 11.9142 16.25 11.5 16.25 C 11.0858 16.25 10.75 16.5858 10.75 17 V 18 C 10.75 18.4142 11.0858 18.75 11.5 18.75 C 11.9142 18.75 12.25 18.4142 12.25 18 V 17 Z" fill="#FFFFFF" />
</svg>