<svg xmlns="http://www.w3.org/2000/svg" width="24" height="24" viewBox="0 0 24 24" fill="none">
  <path fill-rule="nonzero" clip-rule="nonzero" d="M3.17157 18.8284 C2 17.6569 2 15.7712 2 12 C2 8.22876 2 6.34315 3.17157 5.17157 C4.34315 4 6.22876 4 10 4 L14 4 C17.7712 4 19.6569 4 20.8284 5.17157 C22 6.34314 22 8.22876 22 12 C22 15.7712 22 17.6569 20.8284 18.8284 C19.6569 20 17.7712 20 14 20 L10 20 C6.22876 20 4.34315 20 3.17157 18.8284 Z M 9 16.25 C 8.58579 16.25 8.25 16.5858 8.25 17 C 8.25 17.4142 8.58579 17.75 9 17.75 H 15 C 15.4142 17.75 15.75 17.4142 15.75 17 C 15.75 16.5858 15.4142 16.25 15 16.25 H 9 Z" fill="#FFFFFF" />
</svg>