<svg xmlns="http://www.w3.org/2000/svg" width="24" height="24" viewBox="0 0 24 24" fill="none">
  <path fill-rule="nonzero" clip-rule="nonzero" d="M17.8007 3.29712 L14.117 5.38774 C13.6828 5.63414 13.424 5.78286 13.2524 5.91347 C13.1737 5.97337 13.1388 6.01114 13.1242 6.02995 L13.1198 6.03582 L13.1175 6.03922 L13.1162 6.04144 L13.1162 6.04404 C13.1163 6.04622 13.1166 6.04992 13.1174 6.05538 C13.1206 6.079 13.132 6.12916 13.1702 6.22039 C13.2535 6.41929 13.4033 6.67746 13.6561 7.10792 L14.7761 9.0149 C15.0223 9.43404 15.1704 9.68297 15.2995 9.84807 C15.3587 9.92366 15.3958 9.95723 15.4142 9.97135 C15.4185 9.97463 15.4216 9.97667 15.4234 9.97783 L15.426 9.97934 L15.429 9.97932 L15.434 9.97898 L15.4402 9.9783 C15.4632 9.97531 15.5121 9.96478 15.6012 9.92888 C15.7956 9.85047 16.0482 9.70889 16.471 9.46897 L20.2063 7.34903 C20.6528 7.09563 20.9216 6.94125 21.1006 6.80553 C21.1831 6.74296 21.221 6.70259 21.2379 6.68103 C21.2456 6.67125 21.2488 6.66521 21.2488 6.66521 L21.2497 6.6627 L21.2501 6.66089 C21.2501 6.66089 21.2504 6.65527 21.2488 6.64396 C21.2454 6.61865 21.2335 6.56648 21.1943 6.47274 C21.109 6.26871 20.9555 6.00418 20.6975 5.5648 L19.6488 3.77932 C19.3909 3.34013 19.2344 3.07695 19.097 2.90189 C19.0338 2.82145 18.9928 2.78405 18.9703 2.76693 C18.9536 2.75432 18.9473 2.7527 18.9439 2.75184 L18.9429 2.75158 C18.9394 2.75063 18.9322 2.74869 18.9096 2.75168 C18.8797 2.75562 18.8237 2.76833 18.7271 2.80736 C18.5176 2.89201 18.247 3.04382 17.8007 3.29712 Z M19.3254 1.30118 C19.7549 1.41428 20.0481 1.68424 20.2769 1.97565 C20.4845 2.24021 20.6919 2.59338 20.9193 2.98062 L20.9422 3.01965 L22.014 4.84443 C22.2413 5.23135 22.4488 5.58463 22.5782 5.89411 C22.7205 6.23431 22.8147 6.62519 22.6969 7.05718 C22.5795 7.48792 22.3008 7.77777 22.0071 8.00059 C21.7387 8.20421 21.3803 8.40757 20.986 8.63129 L17.1728 10.7954 C16.8016 11.0061 16.4609 11.1996 16.1622 11.32 C15.833 11.4528 15.4552 11.5401 15.0378 11.4282 L15.0179 11.4228 L12.8728 12.6401 L16.6913 21.709 C16.8521 22.0908 16.6729 22.5306 16.2912 22.6913 C15.9094 22.8521 15.4696 22.6729 15.3089 22.2911 L12.0001 14.4328 L8.69133 22.2911 C8.5306 22.6729 8.09082 22.8521 7.70906 22.6913 C7.32731 22.5306 7.14814 22.0908 7.30888 21.709 L10.5954 13.9035 C10.546 13.926 10.4977 13.947 10.4503 13.966 C10.1212 14.0988 9.74338 14.1861 9.32597 14.0743 L9.307 14.0691 L5.85227 16.0297 C5.45775 16.2537 5.09952 16.4571 4.78629 16.5836 C4.4428 16.7224 4.05434 16.8118 3.6261 16.699 C3.19668 16.5859 2.90345 16.3159 2.67468 16.0245 C2.467 15.76 2.25962 15.4068 2.03224 15.0196 L1.98621 14.9412 C1.7589 14.5543 1.55136 14.201 1.42197 13.8916 C1.27973 13.5514 1.18556 13.1605 1.30332 12.7285 C1.42073 12.2977 1.69937 12.0079 1.99311 11.7851 C2.26152 11.5815 2.61992 11.3781 3.0142 11.1544 L3.05352 11.1321 L6.48118 9.18677 C6.59639 8.76277 6.86922 8.47728 7.15643 8.25866 C7.41853 8.05916 7.76808 7.86084 8.14981 7.64425 L8.18909 7.62196 L11.669 5.64702 C11.7843 5.22356 12.0569 4.93834 12.3439 4.71989 C12.606 4.52039 12.9556 4.32208 13.3373 4.1055 L17.0993 1.97043 C17.4938 1.74648 17.852 1.54312 18.1652 1.41658 C18.5087 1.2778 18.8972 1.18838 19.3254 1.30118 Z M3.79389 12.4366 C3.3474 12.69 3.07857 12.8444 2.89965 12.9801 C2.81717 13.0427 2.77919 13.0831 2.76228 13.1046 C2.7546 13.1144 2.75144 13.1205 2.75144 13.1205 L2.75051 13.123 L2.75015 13.1247 C2.75015 13.1247 2.74982 13.1303 2.75138 13.1417 C2.75484 13.167 2.76668 13.2192 2.80588 13.3129 C2.89118 13.517 3.04466 13.7815 3.30272 14.2209 C3.56067 14.66 3.71712 14.9232 3.85454 15.0983 C3.91769 15.1787 3.95869 15.2161 3.98128 15.2332 C3.99791 15.2459 4.00424 15.2475 4.00762 15.2483 L4.00863 15.2486 C4.01213 15.2495 4.01932 15.2515 4.04196 15.2485 C4.07185 15.2446 4.1278 15.2318 4.2244 15.1928 C4.43391 15.1082 4.70457 14.9564 5.15088 14.7031 L8.12689 13.0141 C8.01895 12.8431 7.90867 12.6552 7.79334 12.4588 L7.17519 11.4064 L7.15231 11.3674 C7.02164 11.145 6.89745 10.9336 6.79143 10.7354 L3.79389 12.4366 Z M 11.9786 7.19602 L 8.92946 8.92651 C 8.4953 9.17291 8.23652 9.32163 8.06493 9.45224 C 7.98623 9.51214 7.95132 9.54991 7.93668 9.56873 C 7.93329 9.57308 7.9312 9.57615 7.93003 9.57799 L 7.9287 9.58022 L 7.92874 9.58281 C 7.92884 9.58499 7.92911 9.58869 7.92987 9.59416 C 7.93314 9.61777 7.94449 9.66794 7.9827 9.75916 C 8.06601 9.95806 8.21578 10.2162 8.4686 10.6467 L 9.0643 11.6609 C 9.31048 12.0801 9.45851 12.329 9.58769 12.4941 C 9.64683 12.5697 9.68391 12.6033 9.7024 12.6174 C 9.70669 12.6207 9.70973 12.6227 9.71158 12.6239 L 9.71415 12.6254 L 9.71714 12.6254 C 9.71932 12.6253 9.72297 12.625 9.72833 12.6243 C 9.7514 12.6213 9.8003 12.6108 9.88931 12.5749 C 10.0837 12.4965 10.3364 12.3549 10.7591 12.115 L 11.5335 11.6755 L 12.2867 11.248 L 13.8384 10.3674 C 13.7305 10.1966 13.6204 10.009 13.5052 9.8128 L 12.3398 7.82863 C 12.209 7.60599 12.0847 7.39438 11.9786 7.19602 Z" fill="#FFFFFF" />
</svg>