<svg xmlns="http://www.w3.org/2000/svg" width="24" height="24" viewBox="0 0 24 24" fill="none">
  <path fill-rule="nonzero" clip-rule="nonzero" d="M 19.25 11.5 C 19.6642 11.5 20 11.8358 20 12.25 C 20 13.4926 21.0074 14.5 22.25 14.5 C 22.6642 14.5 23 14.8358 23 15.25 C 23 15.6642 22.6642 16 22.25 16 C 21.4058 16 20.6267 15.721 20 15.2503 V 20.25 C 20 21.7688 18.7688 23 17.25 23 C 15.7312 23 14.5 21.7688 14.5 20.25 C 14.5 18.7312 15.7312 17.5 17.25 17.5 C 17.7001 17.5 18.125 17.6081 18.5 17.7999 V 12.25 C 18.5 11.8358 18.8358 11.5 19.25 11.5 Z M 18.5 20.25 C 18.5 19.5596 17.9404 19 17.25 19 C 16.5596 19 16 19.5596 16 20.25 C 16 20.9404 16.5596 21.5 17.25 21.5 C 17.9404 21.5 18.5 20.9404 18.5 20.25 Z" fill="#FFFFFF" />
  <path d="M12 9.75C10.7574 9.75 9.75 10.7574 9.75 12C9.75 13.2426 10.7574 14.25 12 14.25C13.2426 14.25 14.25 13.2426 14.25 12C14.25 10.7574 13.2426 9.75 12 9.75Z" fill="#FFFFFF" />
  <path fill-rule="nonzero" clip-rule="nonzero" d="M 2 12 C 2 7.28595 2 4.92893 3.17157 3.46447 C 4.34315 2 6.22876 2 10 2 H 14 C 17.7712 2 19.6569 2 20.8284 3.46447 C 22 4.92893 22 7.28595 22 12 C 22 12.3305 22 12.6494 21.9996 12.9572 C 21.7085 12.8541 21.5 12.5764 21.5 12.25 C 21.5 11.0074 20.4926 10 19.25 10 C 18.0074 10 17 11.0074 17 12.25 V 16.0072 C 14.7692 16.1366 13 17.9867 13 20.25 C 13 20.8739 13.1344 21.4663 13.3759 22 H 10 C 6.22876 22 4.34315 22 3.17157 20.5355 C 2 19.0711 2 16.714 2 12 Z M 12 8.25 C 9.92893 8.25 8.25 9.92893 8.25 12 C 8.25 14.0711 9.92893 15.75 12 15.75 C 14.0711 15.75 15.75 14.0711 15.75 12 C 15.75 9.92893 14.0711 8.25 12 8.25 Z" fill="#FFFFFF" />
</svg>