<svg xmlns="http://www.w3.org/2000/svg" width="24" height="24" viewBox="0 0 24 24" fill="none">
  <path d="M16.25 9C16.25 8.58579 16.5858 8.25 17 8.25C17.4142 8.25 17.75 8.58579 17.75 9C17.75 9.41421 17.4142 9.75 17 9.75C16.5858 9.75 16.25 9.41421 16.25 9Z" fill="#FFFFFF" />
  <path d="M6.75 12C6.75 10.2051 8.20507 8.75 10 8.75C11.7949 8.75 13.25 10.2051 13.25 12C13.25 13.7949 11.7949 15.25 10 15.25C8.20507 15.25 6.75 13.7949 6.75 12Z" fill="#FFFFFF" />
  <path fill-rule="nonzero" clip-rule="nonzero" d="M3.17157 3.46447 C4.34315 2 6.22876 2 10 2 L14 2 C17.7712 2 19.6569 2 20.8284 3.46447 C22 4.92893 22 7.28595 22 12 C22 16.714 22 19.0711 20.8284 20.5355 C19.6569 22 17.7712 22 14 22 L10 22 C6.22876 22 4.34315 22 3.17157 20.5355 C2 19.0711 2 16.714 2 12 C2 7.28595 2 4.92893 3.17157 3.46447 Z M 17 6.75 C 15.7574 6.75 14.75 7.75736 14.75 9 C 14.75 9.97966 15.3761 10.8131 16.25 11.122 V 14.7639 C 16.25 15.2374 15.9825 15.6702 15.559 15.882 L 14.6646 16.3292 C 14.2941 16.5144 14.1439 16.9649 14.3292 17.3354 C 14.5144 17.7059 14.9649 17.8561 15.3354 17.6708 L 16.2298 17.2236 C 17.1615 16.7578 17.75 15.8056 17.75 14.7639 V 11.122 C 18.6239 10.8131 19.25 9.97966 19.25 9 C 19.25 7.75736 18.2426 6.75 17 6.75 Z M 10 7.25 C 7.37665 7.25 5.25 9.37665 5.25 12 C 5.25 14.6234 7.37665 16.75 10 16.75 C 12.6234 16.75 14.75 14.6234 14.75 12 C 14.75 9.37665 12.6234 7.25 10 7.25 Z" fill="#FFFFFF" />
</svg>