<svg xmlns="http://www.w3.org/2000/svg" width="24" height="24" viewBox="0 0 24 24" fill="none">
  <path fill-rule="nonzero" clip-rule="nonzero" d="M17.7501 2.22165 C18.9728 2.41592 19.8515 2.78045 20.5355 3.46447 C22 4.92893 22 7.28595 22 12 C22 16.714 22 19.0711 20.5355 20.5355 C19.0711 22 16.714 22 12 22 C7.28595 22 4.92893 22 3.46447 20.5355 C2 19.0711 2 16.714 2 12 C2 7.28595 2 4.92893 3.46447 3.46447 C4.92893 2 7.28595 2 12 2 C13.7005 2 15.0943 2 16.2501 2.06874 L16.2501 7.96482 C16.2501 8.0484 16.2083 8.12646 16.1388 8.17283 L13.5841 9.87596 C13.2394 10.1057 13.1463 10.5714 13.376 10.916 C13.6058 11.2607 14.0715 11.3538 14.4161 11.124 L16.9708 9.4209 C17.4577 9.09634 17.7501 8.54993 17.7501 7.96482 L17.7501 2.22165 Z M6.25 12 C6.25 15.1756 8.82436 17.75 12 17.75 C15.1756 17.75 17.75 15.1756 17.75 12 C17.75 11.5858 17.4142 11.25 17 11.25 C16.5858 11.25 16.25 11.5858 16.25 12 C16.25 14.3472 14.3472 16.25 12 16.25 C9.65279 16.25 7.75 14.3472 7.75 12 C7.75 9.65279 9.65279 7.75 12 7.75 C12.4455 7.75 12.8736 7.81829 13.2753 7.94444 C13.6704 8.06856 14.0914 7.84882 14.2155 7.45364 C14.3397 7.05846 14.1199 6.63748 13.7247 6.51336 C13.1793 6.34206 12.5997 6.25 12 6.25 C8.82436 6.25 6.25 8.82436 6.25 12 Z M10 11.25 C9.58579 11.25 9.25 11.5858 9.25 12 C9.25 13.5188 10.4812 14.75 12 14.75 C12.4142 14.75 12.75 14.4142 12.75 14 C12.75 13.5858 12.4142 13.25 12 13.25 C11.3096 13.25 10.75 12.6904 10.75 12 C10.75 11.5858 10.4142 11.25 10 11.25 Z" fill="#FFFFFF" />
</svg>