<svg xmlns="http://www.w3.org/2000/svg" width="24" height="24" viewBox="0 0 24 24" fill="none">
  <path fill-rule="nonzero" clip-rule="nonzero" d="M 11.9426 1.25 H 12.0574 C 14.3658 1.24999 16.1748 1.24998 17.5863 1.43975 C 19.031 1.63399 20.1711 2.03933 21.0659 2.93414 C 21.8222 3.69048 22.2305 4.62404 22.4556 5.77345 C 22.6767 6.90193 22.7303 8.28967 22.7448 9.99364 C 22.7483 10.4078 22.4153 10.7465 22.0011 10.75 C 21.5869 10.7535 21.2483 10.4206 21.2448 10.0064 C 21.2303 8.2972 21.1747 7.03759 20.9836 6.06179 C 20.7966 5.10692 20.4897 4.47928 20.0052 3.9948 C 19.4355 3.42514 18.6648 3.09825 17.3864 2.92637 C 16.0864 2.75159 14.3782 2.75 12 2.75 C 9.62177 2.75 7.91356 2.75159 6.61358 2.92637 C 5.33517 3.09825 4.56445 3.42514 3.9948 3.9948 C 3.42514 4.56445 3.09825 5.33517 2.92637 6.61358 C 2.75159 7.91356 2.75 9.62177 2.75 12 C 2.75 14.3782 2.75159 16.0864 2.92637 17.3864 C 3.09825 18.6648 3.42514 19.4355 3.9948 20.0052 C 4.56445 20.5749 5.33517 20.9018 6.61358 21.0736 C 7.91356 21.2484 9.62177 21.25 12 21.25 C 12.4142 21.25 12.75 21.5858 12.75 22 C 12.75 22.4142 12.4142 22.75 12 22.75 H 11.9426 C 9.63423 22.75 7.82519 22.75 6.41371 22.5603 C 4.96897 22.366 3.82895 21.9607 2.93414 21.0659 C 2.03933 20.1711 1.63399 19.031 1.43975 17.5863 C 1.24998 16.1748 1.24999 14.3658 1.25 12.0574 V 11.9426 C 1.24999 9.63423 1.24998 7.82519 1.43975 6.41371 C 1.63399 4.96897 2.03933 3.82895 2.93414 2.93414 C 3.82895 2.03933 4.96897 1.63399 6.41371 1.43975 C 7.82519 1.24998 9.63423 1.24999 11.9426 1.25 Z M 8.25 12 C 8.25 9.92893 9.92893 8.25 12 8.25 C 14.0711 8.25 15.75 9.92893 15.75 12 C 15.75 14.0711 14.0711 15.75 12 15.75 C 9.92893 15.75 8.25 14.0711 8.25 12 Z M 12 9.75 C 10.7574 9.75 9.75 10.7574 9.75 12 C 9.75 13.2426 10.7574 14.25 12 14.25 C 13.2426 14.25 14.25 13.2426 14.25 12 C 14.25 10.7574 13.2426 9.75 12 9.75 Z M 19 11.25 C 19.4142 11.25 19.75 11.5858 19.75 12 C 19.75 13.2426 20.7574 14.25 22 14.25 C 22.4142 14.25 22.75 14.5858 22.75 15 C 22.75 15.4142 22.4142 15.75 22 15.75 C 21.1558 15.75 20.3767 15.471 19.75 15.0003 V 20 C 19.75 21.5188 18.5188 22.75 17 22.75 C 15.4812 22.75 14.25 21.5188 14.25 20 C 14.25 18.4812 15.4812 17.25 17 17.25 C 17.4501 17.25 17.875 17.3581 18.25 17.5499 V 12 C 18.25 11.5858 18.5858 11.25 19 11.25 Z M 18.25 20 C 18.25 19.3096 17.6904 18.75 17 18.75 C 16.3096 18.75 15.75 19.3096 15.75 20 C 15.75 20.6904 16.3096 21.25 17 21.25 C 17.6904 21.25 18.25 20.6904 18.25 20 Z" fill="#FFFFFF" />
</svg>