<svg xmlns="http://www.w3.org/2000/svg" width="24" height="24" viewBox="0 0 24 24" fill="none">
  <path fill-rule="nonzero" clip-rule="nonzero" d="M 3 10 C 3 6.22876 3 4.34315 4.17157 3.17157 C 5.34315 2 7.22876 2 11 2 H 13 C 16.7712 2 18.6569 2 19.8284 3.17157 C 21 4.34315 21 6.22876 21 10 V 14 C 21 17.7712 21 19.6569 19.8284 20.8284 C 18.6569 22 16.7712 22 13 22 H 11 C 7.22876 22 5.34315 22 4.17157 20.8284 C 3 19.6569 3 17.7712 3 14 V 10 Z M7.25 18 C7.25 18.4142 7.58579 18.75 8 18.75 L16 18.75 C16.4142 18.75 16.75 18.4142 16.75 18 C16.75 17.5858 16.4142 17.25 16 17.25 L8 17.25 C7.58579 17.25 7.25 17.5858 7.25 18 Z M 15.3553 6.30984 C 13.1338 5.89672 10.8663 5.89672 8.64474 6.30984 L 8.16897 6.39831 C 7.2887 6.562 6.76942 7.59158 7.10085 8.51607 L 7.84525 10.5925 C 7.95314 10.8934 8.2437 11.0592 8.52553 10.9806 C 8.70281 10.9311 8.88073 10.8855 9.05918 10.8437 L 8.41984 8.854 C 8.26351 8.36748 8.49027 7.83168 8.92632 7.65725 C 9.36237 7.48283 9.84259 7.73584 9.99892 8.22236 L 10.7514 10.5641 C 12.3304 10.41 13.9267 10.5488 15.4746 10.9806 C 15.7564 11.0592 16.047 10.8934 16.1548 10.5925 L 16.8992 8.51607 C 17.2307 7.59158 16.7114 6.562 15.8311 6.39831 L 15.3553 6.30984 Z" fill="#FFFFFF" />
</svg>