<svg xmlns="http://www.w3.org/2000/svg" width="24" height="24" viewBox="0 0 24 24" fill="none">
  <path fill-rule="nonzero" clip-rule="nonzero" d="M12.0646 17.9997 C7.64642 17.9641 4.03592 14.3536 4.00027 9.93545 C3.96461 5.51731 7.51731 1.96461 11.9354 2.00027 C16.3536 2.03592 19.9641 5.64642 19.9997 10.0646 C20.0354 14.4827 16.4827 18.0354 12.0646 17.9997 Z M13.3739 6.4569 C13.074 6.17123 12.5992 6.18281 12.3136 6.48276 L9.45643 9.48276 C9.24952 9.70002 9.19199 10.0197 9.31017 10.2954 C9.42836 10.5712 9.69951 10.75 9.99953 10.75 L12.2495 10.75 L10.5993 12.4828 C10.3136 12.7827 10.3252 13.2574 10.6251 13.5431 C10.9251 13.8288 11.3998 13.8172 11.6855 13.5172 L14.5426 10.5172 C14.7495 10.3 14.8071 9.98032 14.6889 9.70456 C14.5707 9.4288 14.2996 9.25 13.9995 9.25 L11.7495 9.25 L13.3998 7.51724 C13.6854 7.2173 13.6739 6.74256 13.3739 6.4569 Z" fill="#FFFFFF" />
  <path d="M11.1173 20.9242C11.1584 20.9412 11.2019 20.9544 11.25 20.9647V22C11.25 22.4142 11.5858 22.75 12 22.75C12.4142 22.75 12.75 22.4142 12.75 22V20.9647C12.7981 20.9544 12.8416 20.9412 12.8827 20.9242C13.1277 20.8227 13.3224 20.628 13.4239 20.383C13.5 20.1992 13.5 19.9663 13.5 19.5003V18.8964C13.0303 18.9685 12.5481 19.004 12.0565 19C11.526 18.9958 11.0059 18.9457 10.5 18.8535V19.5003C10.5 19.9663 10.5 20.1992 10.5761 20.383C10.6776 20.628 10.8723 20.8227 11.1173 20.9242Z" fill="#FFFFFF" />
</svg>