<svg xmlns="http://www.w3.org/2000/svg" width="24" height="24" viewBox="0 0 24 24" fill="none">
  <path fill-rule="nonzero" clip-rule="nonzero" d="M3.46447 3.46447 C4.92893 2 7.28595 2 12 2 C16.714 2 19.0711 2 20.5355 3.46447 C22 4.92893 22 7.28595 22 12 C22 16.714 22 19.0711 20.5355 20.5355 C19.0711 22 16.714 22 12 22 C7.28595 22 4.92893 22 3.46447 20.5355 C2 19.0711 2 16.714 2 12 C2 7.28595 2 4.92893 3.46447 3.46447 Z M 9.25 7 C 9.25 6.58579 8.91421 6.25 8.5 6.25 C 8.08579 6.25 7.75 6.58579 7.75 7 V 11.9285 L 6.57617 10.5199 C 6.31099 10.2017 5.83807 10.1587 5.51986 10.4238 C 5.20165 10.689 5.15866 11.1619 5.42383 11.4801 L 7.92383 14.4801 C 8.06633 14.6511 8.27742 14.75 8.5 14.75 C 8.72259 14.75 8.93367 14.6511 9.07617 14.4801 L 11.5762 11.4801 C 11.8413 11.1619 11.7983 10.689 11.4801 10.4238 C 11.1619 10.1587 10.689 10.2017 10.4238 10.5199 L 9.25 11.9285 V 7 Z M15.5 6.25 C15.0858 6.25 14.75 6.58579 14.75 7 L14.75 11.9285 L13.5762 10.5199 C13.311 10.2017 12.8381 10.1587 12.5199 10.4238 C12.2017 10.689 12.1587 11.1619 12.4238 11.4801 L14.9238 14.4801 C15.0663 14.6511 15.2774 14.75 15.5 14.75 C15.7226 14.75 15.9337 14.6511 16.0762 14.4801 L18.5762 11.4801 C18.8413 11.1619 18.7983 10.689 18.4801 10.4238 C18.1619 10.1587 17.689 10.2017 17.4238 10.5199 L16.25 11.9285 L16.25 7 C16.25 6.58579 15.9142 6.25 15.5 6.25 Z M 6 16.25 C 5.58579 16.25 5.25 16.5858 5.25 17 C 5.25 17.4142 5.58579 17.75 6 17.75 H 18 C 18.4142 17.75 18.75 17.4142 18.75 17 C 18.75 16.5858 18.4142 16.25 18 16.25 H 6 Z" fill="#FFFFFF" />
</svg>