<svg xmlns="http://www.w3.org/2000/svg" width="24" height="24" viewBox="0 0 24 24" fill="none">
  <path fill-rule="nonzero" clip-rule="nonzero" d="M 2 12 C 2 7.28595 2 4.92893 3.46447 3.46447 C 4.92893 2 7.28595 2 12 2 C 16.714 2 19.0711 2 20.5355 3.46447 C 22 4.92893 22 7.28595 22 12 C 22 16.714 22 19.0711 20.5355 20.5355 C 19.0711 22 16.714 22 12 22 C 7.28595 22 4.92893 22 3.46447 20.5355 C 2 19.0711 2 16.714 2 12 Z M12 6.25 C11.5858 6.25 11.25 6.58579 11.25 7 L11.25 12.1893 L9.53033 10.4697 C9.23744 10.1768 8.76256 10.1768 8.46967 10.4697 C8.17678 10.7626 8.17678 11.2374 8.46967 11.5303 L11.4697 14.5303 C11.6103 14.671 11.8011 14.75 12 14.75 C12.1989 14.75 12.3897 14.671 12.5303 14.5303 L15.5303 11.5303 C15.8232 11.2374 15.8232 10.7626 15.5303 10.4697 C15.2374 10.1768 14.7626 10.1768 14.4697 10.4697 L12.75 12.1893 L12.75 7 C12.75 6.58579 12.4142 6.25 12 6.25 Z M 8 16.25 C 7.58579 16.25 7.25 16.5858 7.25 17 C 7.25 17.4142 7.58579 17.75 8 17.75 H 16 C 16.4142 17.75 16.75 17.4142 16.75 17 C 16.75 16.5858 16.4142 16.25 16 16.25 H 8 Z" fill="#FFFFFF" />
</svg>