<svg xmlns="http://www.w3.org/2000/svg" width="24" height="24" viewBox="0 0 24 24" fill="none">
  <path fill-rule="nonzero" clip-rule="nonzero" d="M9.70725 2.4087 C10.4145 1.78171 11.4955 1.97026 13.6576 2.34736 L15.9864 2.75354 C18.3809 3.17118 19.5781 3.37999 20.2891 4.25826 C21 5.13652 21 6.40671 21 8.94711 L21 15.0529 C21 17.5933 21 18.8635 20.2891 19.7417 C19.5781 20.62 18.3809 20.8288 15.9864 21.2465 L13.6576 21.6526 C11.4955 22.0297 10.4145 22.2183 9.70725 21.5913 C9 20.9643 9 19.8174 9 17.5236 L9 6.4764 C9 4.18259 9 3.03569 9.70725 2.4087 Z M12 10.1686 C11.5858 10.1686 11.25 10.52 11.25 10.9535 L11.25 13.0465 C11.25 13.48 11.5858 13.8314 12 13.8314 C12.4142 13.8314 12.75 13.48 12.75 13.0465 L12.75 10.9535 C12.75 10.52 12.4142 10.1686 12 10.1686 Z" fill="#FFFFFF" />
  <path d="M7.54717 4.5C5.48889 4.503 4.41599 4.54826 3.73223 5.23202C3 5.96425 3 7.14276 3 9.49979V14.4998C3 16.8568 3 18.0353 3.73223 18.7676C4.41599 19.4513 5.48889 19.4966 7.54717 19.4996C7.49985 18.8763 7.49992 18.1557 7.50001 17.3768V6.6227C7.49992 5.84388 7.49985 5.1233 7.54717 4.5Z" fill="#FFFFFF" />
</svg>