<svg xmlns="http://www.w3.org/2000/svg" width="24" height="24" viewBox="0 0 24 24" fill="none">
  <path opacity="0.5" d="M9.052 4.5C9 5.07763 9 5.80355 9 6.72183V17.2781C9 18.1964 9 18.9224 9.05201 19.5H8C5.64298 19.5 4.46447 19.5 3.73223 18.7678C3 18.0355 3 16.857 3 14.5V9.5C3 7.14298 3 5.96447 3.73223 5.23223C4.46447 4.5 5.64298 4.5 8 4.5H9.052Z" fill="#FFFFFF" />
  <path fill-rule="nonzero" clip-rule="nonzero" d="M9.70725 2.4087 C10.4145 1.78171 11.4955 1.97026 13.6576 2.34736 L15.9864 2.75354 C18.3809 3.17118 19.5781 3.37999 20.2891 4.25826 C21 5.13652 21 6.40671 21 8.94711 L21 15.0529 C21 17.5933 21 18.8635 20.2891 19.7417 C19.5781 20.62 18.3809 20.8288 15.9864 21.2465 L13.6576 21.6526 C11.4955 22.0297 10.4145 22.2183 9.70725 21.5913 C9 20.9643 9 19.8174 9 17.5236 L9 6.4764 C9 4.18259 9 3.03569 9.70725 2.4087 Z M 12.75 10.9535 C 12.75 10.52 12.4142 10.1686 12 10.1686 C 11.5858 10.1686 11.25 10.52 11.25 10.9535 V 13.0465 C 11.25 13.48 11.5858 13.8314 12 13.8314 C 12.4142 13.8314 12.75 13.48 12.75 13.0465 V 10.9535 Z" fill="#FFFFFF" />
</svg>