<svg xmlns="http://www.w3.org/2000/svg" width="24" height="24" viewBox="0 0 24 24" fill="none">
  <path d="M15.5303 12.5303C15.8232 12.2374 15.8232 11.7626 15.5303 11.4697L13.0303 8.96967C12.7374 8.67678 12.2626 8.67678 11.9697 8.96967C11.6768 9.26256 11.6768 9.73744 11.9697 10.0303L13.1893 11.25H6C5.58579 11.25 5.25 11.5858 5.25 12C5.25 12.4142 5.58579 12.75 6 12.75H13.1893L11.9697 13.9697C11.6768 14.2626 11.6768 14.7374 11.9697 15.0303C12.2626 15.3232 12.7374 15.3232 13.0303 15.0303L15.5303 12.5303Z" fill="#FFFFFF" />
  <path fill-rule="nonzero" clip-rule="nonzero" d="M 13.9451 1.25 H 15.0549 C 16.4225 1.24998 17.5248 1.24996 18.3918 1.36652 C 19.2919 1.48754 20.0497 1.74643 20.6517 2.34835 C 21.2536 2.95027 21.5125 3.70814 21.6335 4.60825 C 21.75 5.47522 21.75 6.57754 21.75 7.94513 V 16.0549 C 21.75 17.4225 21.75 18.5248 21.6335 19.3918 C 21.5125 20.2919 21.2536 21.0497 20.6517 21.6517 C 20.0497 22.2536 19.2919 22.5125 18.3918 22.6335 C 17.5248 22.75 16.4225 22.75 15.0549 22.75 H 13.9451 C 12.5775 22.75 11.4752 22.75 10.6083 22.6335 C 9.70814 22.5125 8.95027 22.2536 8.34835 21.6517 C 7.94855 21.2518 7.70008 20.7832 7.54283 20.2498 C 6.59156 20.2486 5.79901 20.2381 5.15689 20.1518 C 4.39294 20.0491 3.7306 19.8268 3.20191 19.2981 C 2.67321 18.7694 2.45093 18.1071 2.34822 17.3431 C 2.24996 16.6123 2.24998 15.6865 2.25 14.5537 V 9.44631 C 2.24998 8.31349 2.24996 7.38774 2.34822 6.65689 C 2.45093 5.89294 2.67321 5.2306 3.20191 4.7019 C 3.7306 4.17321 4.39294 3.95093 5.15689 3.84822 C 5.79901 3.76189 6.59156 3.75142 7.54283 3.75017 C 7.70008 3.21677 7.94855 2.74816 8.34835 2.34835 C 8.95027 1.74643 9.70814 1.48754 10.6083 1.36652 C 11.4752 1.24996 12.5775 1.24998 13.9451 1.25 Z M7.25 16.0549 L7.25 16 C7.25 15.5858 7.58579 15.25 8 15.25 C8.41422 15.25 8.75 15.5858 8.75 16 C8.75 17.4354 8.7516 18.4365 8.85315 19.1919 C8.9518 19.9257 9.13225 20.3142 9.40901 20.591 C9.68578 20.8678 10.0743 21.0482 10.8081 21.1469 C11.5635 21.2484 12.5646 21.25 14 21.25 L15 21.25 C16.4354 21.25 17.4365 21.2484 18.1919 21.1469 C18.9257 21.0482 19.3142 20.8678 19.591 20.591 C19.8678 20.3142 20.0482 19.9257 20.1469 19.1919 C20.2484 18.4365 20.25 17.4354 20.25 16 L20.25 8 C20.25 6.56459 20.2484 5.56347 20.1469 4.80812 C20.0482 4.07435 19.8678 3.68577 19.591 3.40901 C19.3142 3.13225 18.9257 2.9518 18.1919 2.85315 C17.4365 2.75159 16.4354 2.75 15 2.75 L14 2.75 C12.5646 2.75 11.5635 2.75159 10.8081 2.85315 C10.0743 2.9518 9.68578 3.13225 9.40901 3.40901 C9.13225 3.68577 8.9518 4.07435 8.85315 4.80812 C8.7516 5.56347 8.75 6.56459 8.75 8 C8.75 8.41422 8.41422 8.75 8 8.75 C7.58579 8.75 7.25 8.41422 7.25 8 L7.25 7.94512 C7.24999 6.89522 7.24997 6.00167 7.30271 5.25091 C6.46829 5.25415 5.84797 5.2688 5.35676 5.33484 C4.75914 5.41519 4.46611 5.55902 4.26257 5.76256 C4.05903 5.9661 3.91519 6.25914 3.83484 6.85676 C3.7516 7.47595 3.75 8.30029 3.75 9.5 L3.75 14.5 C3.75 15.6997 3.7516 16.5241 3.83484 17.1432 C3.91519 17.7409 4.05903 18.0339 4.26257 18.2374 C4.46611 18.441 4.75914 18.5848 5.35676 18.6652 C5.84797 18.7312 6.46829 18.7459 7.30271 18.7491 C7.24997 17.9983 7.24999 17.1048 7.25 16.0549 Z" fill="#FFFFFF" />
</svg>