<svg xmlns="http://www.w3.org/2000/svg" width="24" height="24" viewBox="0 0 24 24" fill="none">
  <path fill-rule="nonzero" clip-rule="nonzero" d="M3.5 9.56757 C3.5 7.27425 3.5 6.12759 4.22162 5.41515 C4.87718 4.76792 5.89572 4.70867 7.81827 4.70325 C7.81303 4.73795 7.80803 4.77288 7.80324 4.80803 C7.68837 5.65156 7.68839 6.72409 7.68841 8.05472 L7.68841 8.10811 C7.68841 8.51113 8.01933 8.83784 8.42754 8.83784 C8.83575 8.83784 9.16667 8.51113 9.16667 8.10811 C9.16667 6.71149 9.16824 5.73743 9.26832 5.0025 C9.36554 4.28855 9.54337 3.91048 9.81613 3.6412 C10.0889 3.37192 10.4718 3.19635 11.195 3.10036 C11.9394 3.00155 12.926 3 14.3406 3 L15.3261 3 C16.7407 3 17.7273 3.00155 18.4717 3.10036 C19.1948 3.19635 19.5778 3.37192 19.8505 3.6412 C20.1233 3.91048 20.3011 4.28855 20.3983 5.0025 C20.4984 5.73743 20.5 6.71149 20.5 8.10811 L20.5 15.8919 C20.5 17.2885 20.4984 18.2626 20.3983 18.9975 C20.3011 19.7114 20.1233 20.0895 19.8505 20.3588 C19.5778 20.6281 19.1948 20.8037 18.4717 20.8996 C17.7273 20.9985 16.7407 21 15.3261 21 L14.3406 21 C12.926 21 11.9394 20.9985 11.195 20.8996 C10.4718 20.8037 10.0889 20.6281 9.81613 20.3588 C9.54337 20.0895 9.36554 19.7114 9.26832 18.9975 C9.16824 18.2626 9.16667 17.2885 9.16667 15.8919 C9.16667 15.4889 8.83575 15.1622 8.42754 15.1622 C8.01933 15.1622 7.68841 15.4889 7.68841 15.8919 L7.68841 15.9453 C7.68839 17.2759 7.68837 18.3484 7.80324 19.192 C7.80803 19.2271 7.81303 19.262 7.81827 19.2968 C5.89572 19.2913 4.87718 19.2321 4.22162 18.5849 C3.5 17.8724 3.5 16.7258 3.5 14.4324 L3.5 9.56757 Z M 13.385 14.9484 L 15.8487 12.516 C 16.1374 12.231 16.1374 11.769 15.8487 11.484 L 13.385 9.05157 C 13.0963 8.76659 12.6283 8.76659 12.3397 9.05157 C 12.051 9.33655 12.051 9.79859 12.3397 10.0836 L 13.5417 11.2703 H 6.45652 C 6.04831 11.2703 5.71739 11.597 5.71739 12 C 5.71739 12.403 6.04831 12.7297 6.45652 12.7297 H 13.5417 L 12.3397 13.9164 C 12.051 14.2014 12.051 14.6635 12.3397 14.9484 C 12.6283 15.2334 13.0963 15.2334 13.385 14.9484 Z" fill="#FFFFFF" />
</svg>