<svg xmlns="http://www.w3.org/2000/svg" width="24" height="24" viewBox="0 0 24 24" fill="none">
  <path fill-rule="nonzero" clip-rule="nonzero" d="M3.5 9.56757 C3.5 7.27425 3.5 6.12759 4.22161 5.41515 C4.87719 4.76789 5.89578 4.70867 7.81846 4.70325 C7.71686 5.37758 7.69563 6.18322 7.69029 7.13107 C7.68802 7.53409 8.01709 7.86261 8.42529 7.86485 C8.83348 7.8671 9.16624 7.54221 9.16851 7.1392 C9.17451 6.07525 9.20249 5.32112 9.30898 4.74877 C9.41158 4.19728 9.57634 3.87807 9.81626 3.6412 C10.089 3.37192 10.4719 3.19635 11.1951 3.10036 C11.9395 3.00155 12.9261 3 14.3407 3 L15.3262 3 C16.7407 3 17.7273 3.00155 18.4717 3.10036 C19.1949 3.19635 19.5778 3.37192 19.8505 3.6412 C20.1233 3.91048 20.3011 4.28855 20.3983 5.0025 C20.4984 5.73743 20.5 6.71149 20.5 8.10811 L20.5 15.8919 C20.5 17.2885 20.4984 18.2626 20.3983 18.9975 C20.3011 19.7114 20.1233 20.0895 19.8505 20.3588 C19.5778 20.6281 19.1949 20.8037 18.4717 20.8996 C17.7273 20.9985 16.7407 21 15.3262 21 L14.3407 21 C12.9261 21 11.9395 20.9985 11.1951 20.8996 C10.4719 20.8037 10.089 20.6281 9.81626 20.3588 C9.57634 20.1219 9.41158 19.8027 9.30898 19.2512 C9.20249 18.6789 9.17451 17.9247 9.16851 16.8608 C9.16624 16.4578 8.83348 16.1329 8.42529 16.1351 C8.01709 16.1374 7.68802 16.4659 7.69029 16.8689 C7.69563 17.8168 7.71686 18.6224 7.81846 19.2968 C5.89578 19.2913 4.87719 19.2321 4.22161 18.5849 C3.5 17.8724 3.5 16.7258 3.5 14.4324 L3.5 9.56757 Z M5.93385 12.516 L7.90484 14.4619 C8.19348 14.7469 8.66147 14.7469 8.95011 14.4619 C9.23876 14.177 9.23876 13.7149 8.95011 13.4299 L8.24088 12.7297 L15.3259 12.7297 C15.7341 12.7297 16.0651 12.403 16.0651 12 C16.0651 11.597 15.7341 11.2703 15.3259 11.2703 L8.24088 11.2703 L8.95011 10.5701 C9.23876 10.2851 9.23876 9.82304 8.95011 9.53806 C8.66147 9.25308 8.19348 9.25308 7.90484 9.53806 L5.93385 11.484 C5.6452 11.769 5.6452 12.231 5.93385 12.516 Z" fill="#FFFFFF" />
</svg>