<svg xmlns="http://www.w3.org/2000/svg" width="24" height="24" viewBox="0 0 24 24" fill="none">
  <path opacity="0.5" d="M2 12C2 7.28595 2 4.92893 3.46447 3.46447C4.92893 2 7.28595 2 12 2C16.714 2 19.0711 2 20.5355 3.46447C22 4.92893 22 7.28595 22 12C22 16.714 22 19.0711 20.5355 20.5355C19.0711 22 16.714 22 12 22C7.28595 22 4.92893 22 3.46447 20.5355C2 19.0711 2 16.714 2 12Z" fill="#FFFFFF" />
  <path fill-rule="nonzero" clip-rule="nonzero" d="M 14 7.75 C 13.5858 7.75 13.25 7.41421 13.25 7 C 13.25 6.58579 13.5858 6.25 14 6.25 H 17 C 17.4142 6.25 17.75 6.58579 17.75 7 V 10 C 17.75 10.4142 17.4142 10.75 17 10.75 C 16.5858 10.75 16.25 10.4142 16.25 10 V 8.81066 L 14.0303 11.0303 C 13.7374 11.3232 13.2626 11.3232 12.9697 11.0303 C 12.6768 10.7374 12.6768 10.2626 12.9697 9.96967 L 15.1893 7.75 H 14 Z M 11.0303 12.9697 C 11.3232 13.2626 11.3232 13.7374 11.0303 14.0303 L 8.81066 16.25 H 10 C 10.4142 16.25 10.75 16.5858 10.75 17 C 10.75 17.4142 10.4142 17.75 10 17.75 H 7 C 6.58579 17.75 6.25 17.4142 6.25 17 V 14 C 6.25 13.5858 6.58579 13.25 7 13.25 C 7.41421 13.25 7.75 13.5858 7.75 14 V 15.1893 L 9.96967 12.9697 C 10.2626 12.6768 10.7374 12.6768 11.0303 12.9697 Z" fill="#FFFFFF" />
</svg>