<svg xmlns="http://www.w3.org/2000/svg" width="24" height="24" viewBox="0 0 24 24" fill="none">
  <path d="M2 18C2 16.1144 2 15.1716 2.58579 14.5858C3.17157 14 4.11438 14 6 14C7.88562 14 8.82843 14 9.41421 14.5858C10 15.1716 10 16.1144 10 18C10 19.8856 10 20.8284 9.41421 21.4142C8.82843 22 7.88562 22 6 22C4.11438 22 3.17157 22 2.58579 21.4142C2 20.8284 2 19.8856 2 18Z" fill="#FFFFFF" />
  <path fill-rule="nonzero" clip-rule="nonzero" d="M3.46447 3.46447 C4.92893 2 7.28595 2 12 2 C16.714 2 19.0711 2 20.5355 3.46447 C22 4.92893 22 7.28595 22 12 C22 16.714 22 19.0711 20.5355 20.5355 C19.0711 22 16.714 22 12 22 C11.6044 22 11.2255 22 10.8622 21.9991 C11.1954 21.491 11.3412 20.9312 11.4134 20.3944 C11.5002 19.7488 11.5001 18.9552 11.5 18.0895 L11.5 17.9105 C11.5001 17.0449 11.5002 16.2512 11.4134 15.6056 C11.3178 14.8946 11.0929 14.1432 10.4749 13.5251 C9.85684 12.9071 9.10539 12.6822 8.39443 12.5866 C7.74881 12.4998 6.95514 12.4999 6.08951 12.5 L5.91052 12.5 C5.04488 12.4999 4.25122 12.4998 3.6056 12.5866 C3.06882 12.6588 2.50896 12.8047 2.00087 13.1378 C2 12.7746 2 12.3956 2 12 C2 7.28595 2 4.92893 3.46447 3.46447 Z M 13.25 6.25 C 12.8358 6.25 12.5 6.58579 12.5 7 C 12.5 7.41421 12.8358 7.75 13.25 7.75 H 15.1893 L 11.4697 11.4697 C 11.1768 11.7626 11.1768 12.2374 11.4697 12.5303 C 11.7626 12.8232 12.2374 12.8232 12.5303 12.5303 L 16.25 8.81066 V 10.75 C 16.25 11.1642 16.5858 11.5 17 11.5 C 17.4142 11.5 17.75 11.1642 17.75 10.75 V 7 C 17.75 6.58579 17.4142 6.25 17 6.25 H 13.25 Z" fill="#FFFFFF" />
</svg>