<svg xmlns="http://www.w3.org/2000/svg" width="24" height="24" viewBox="0 0 24 24" fill="none">
  <path fill-rule="nonzero" clip-rule="nonzero" d="M3.46447 3.46447 C4.92893 2 7.28595 2 12 2 C16.714 2 19.0711 2 20.5355 3.46447 C22 4.92893 22 7.28595 22 12 C22 16.714 22 19.0711 20.5355 20.5355 C19.0711 22 16.714 22 12 22 C7.28595 22 4.92893 22 3.46447 20.5355 C2 19.0711 2 16.714 2 12 C2 7.28595 2 4.92893 3.46447 3.46447 Z M 13.25 7 C 13.25 7.41421 13.5858 7.75 14 7.75 H 15.1893 L 12.9697 9.96967 C 12.6768 10.2626 12.6768 10.7374 12.9697 11.0303 C 13.2626 11.3232 13.7374 11.3232 14.0303 11.0303 L 16.25 8.81066 V 10 C 16.25 10.4142 16.5858 10.75 17 10.75 C 17.4142 10.75 17.75 10.4142 17.75 10 V 7 C 17.75 6.58579 17.4142 6.25 17 6.25 H 14 C 13.5858 6.25 13.25 6.58579 13.25 7 Z M 11.0303 14.0303 C 11.3232 13.7374 11.3232 13.2626 11.0303 12.9697 C 10.7374 12.6768 10.2626 12.6768 9.96967 12.9697 L 7.75 15.1893 V 14 C 7.75 13.5858 7.41421 13.25 7 13.25 C 6.58579 13.25 6.25 13.5858 6.25 14 V 17 C 6.25 17.4142 6.58579 17.75 7 17.75 H 10 C 10.4142 17.75 10.75 17.4142 10.75 17 C 10.75 16.5858 10.4142 16.25 10 16.25 H 8.81066 L 11.0303 14.0303 Z" fill="#FFFFFF" />
</svg>