<svg xmlns="http://www.w3.org/2000/svg" width="24" height="24" viewBox="0 0 24 24" fill="none">
  <path fill-rule="nonzero" clip-rule="nonzero" d="M 2 12 C 2 7.28595 2 4.92893 3.46447 3.46447 C 4.92893 2 7.28595 2 12 2 C 16.714 2 19.0711 2 20.5355 3.46447 C 22 4.92893 22 7.28595 22 12 C 22 16.714 22 19.0711 20.5355 20.5355 C 19.0711 22 16.714 22 12 22 C 7.28595 22 4.92893 22 3.46447 20.5355 C 2 19.0711 2 16.714 2 12 Z M12.5 7 C12.5 7.41421 12.8358 7.75 13.25 7.75 L15.1893 7.75 L7.75 15.1893 L7.75 13.25 C7.75 12.8358 7.41421 12.5 7 12.5 C6.58579 12.5 6.25 12.8358 6.25 13.25 L6.25 17 C6.25 17.4142 6.58579 17.75 7 17.75 L10.75 17.75 C11.1642 17.75 11.5 17.4142 11.5 17 C11.5 16.5858 11.1642 16.25 10.75 16.25 L8.81066 16.25 L16.25 8.81066 L16.25 10.75 C16.25 11.1642 16.5858 11.5 17 11.5 C17.4142 11.5 17.75 11.1642 17.75 10.75 L17.75 7 C17.75 6.58579 17.4142 6.25 17 6.25 L13.25 6.25 C12.8358 6.25 12.5 6.58579 12.5 7 Z" fill="#FFFFFF" />
</svg>