<svg xmlns="http://www.w3.org/2000/svg" width="24" height="24" viewBox="0 0 24 24" fill="none">
  <path fill-rule="nonzero" clip-rule="nonzero" d="M 2 12 C 2 7.28595 2 4.92893 3.46447 3.46447 C 4.92893 2 7.28595 2 12 2 C 16.714 2 19.0711 2 20.5355 3.46447 C 22 4.92893 22 7.28595 22 12 C 22 16.714 22 19.0711 20.5355 20.5355 C 19.0711 22 16.714 22 12 22 C 7.28595 22 4.92893 22 3.46447 20.5355 C 2 19.0711 2 16.714 2 12 Z M14 7.75 L15.1893 7.75 L12.9697 9.96967 C12.6768 10.2626 12.6768 10.7374 12.9697 11.0303 C13.2626 11.3232 13.7374 11.3232 14.0303 11.0303 L16.25 8.81066 L16.25 10 C16.25 10.4142 16.5858 10.75 17 10.75 C17.4142 10.75 17.75 10.4142 17.75 10 L17.75 7 C17.75 6.58579 17.4142 6.25 17 6.25 L14 6.25 C13.5858 6.25 13.25 6.58579 13.25 7 C13.25 7.41421 13.5858 7.75 14 7.75 Z M11.0303 12.9697 C10.7374 12.6768 10.2626 12.6768 9.96967 12.9697 L7.75 15.1893 L7.75 14 C7.75 13.5858 7.41421 13.25 7 13.25 C6.58579 13.25 6.25 13.5858 6.25 14 L6.25 17 C6.25 17.4142 6.58579 17.75 7 17.75 L10 17.75 C10.4142 17.75 10.75 17.4142 10.75 17 C10.75 16.5858 10.4142 16.25 10 16.25 L8.81066 16.25 L11.0303 14.0303 C11.3232 13.7374 11.3232 13.2626 11.0303 12.9697 Z M10.75 7 C10.75 6.58579 10.4142 6.25 10 6.25 L7 6.25 C6.58579 6.25 6.25 6.58579 6.25 7 L6.25 10 C6.25 10.4142 6.58579 10.75 7 10.75 C7.41421 10.75 7.75 10.4142 7.75 10 L7.75 8.81066 L9.96967 11.0303 C10.2626 11.3232 10.7374 11.3232 11.0303 11.0303 C11.3232 10.7374 11.3232 10.2626 11.0303 9.96967 L8.81066 7.75 L10 7.75 C10.4142 7.75 10.75 7.41421 10.75 7 Z M12.9697 14.0303 L15.1893 16.25 L14 16.25 C13.5858 16.25 13.25 16.5858 13.25 17 C13.25 17.4142 13.5858 17.75 14 17.75 L17 17.75 C17.4142 17.75 17.75 17.4142 17.75 17 L17.75 14 C17.75 13.5858 17.4142 13.25 17 13.25 C16.5858 13.25 16.25 13.5858 16.25 14 L16.25 15.1893 L14.0303 12.9697 C13.7374 12.6768 13.2626 12.6768 12.9697 12.9697 C12.6768 13.2626 12.6768 13.7374 12.9697 14.0303 Z" fill="#FFFFFF" />
</svg>