<svg xmlns="http://www.w3.org/2000/svg" width="24" height="24" viewBox="0 0 24 24" fill="none">
  <path fill-rule="nonzero" clip-rule="nonzero" d="M11.9426 1.25 L12.0574 1.25 C14.3658 1.24999 16.1748 1.24998 17.5863 1.43975 C19.031 1.63399 20.1711 2.03933 21.0659 2.93414 C21.9607 3.82895 22.366 4.96897 22.5603 6.41371 C22.75 7.82519 22.75 9.63423 22.75 11.9426 L22.75 12.0574 C22.75 14.3658 22.75 16.1748 22.5603 17.5863 C22.366 19.031 21.9607 20.1711 21.0659 21.0659 C20.1711 21.9607 19.031 22.366 17.5863 22.5603 C16.1748 22.75 14.3658 22.75 12.0574 22.75 L11.9426 22.75 C9.63423 22.75 7.82519 22.75 6.41371 22.5603 C4.96897 22.366 3.82895 21.9607 2.93414 21.0659 C2.03933 20.1711 1.63399 19.031 1.43975 17.5863 C1.24998 16.1748 1.24999 14.3658 1.25 12.0574 L1.25 11.9426 C1.24999 9.63423 1.24998 7.82519 1.43975 6.41371 C1.63399 4.96897 2.03933 3.82895 2.93414 2.93414 C3.82895 2.03933 4.96897 1.63399 6.41371 1.43975 C7.82519 1.24998 9.63423 1.24999 11.9426 1.25 Z M3.9948 3.9948 C3.42514 4.56445 3.09825 5.33517 2.92637 6.61358 C2.75159 7.91356 2.75 9.62178 2.75 12 C2.75 14.3782 2.75159 16.0864 2.92637 17.3864 C3.0449 18.268 3.23714 18.9082 3.53188 19.4075 L8.18934 14.75 L6.25 14.75 C5.83579 14.75 5.5 14.4142 5.5 14 C5.5 13.5858 5.83579 13.25 6.25 13.25 L10 13.25 C10.4142 13.25 10.75 13.5858 10.75 14 L10.75 17.75 C10.75 18.1642 10.4142 18.5 10 18.5 C9.58579 18.5 9.25 18.1642 9.25 17.75 L9.25 15.8107 L4.59254 20.4681 C5.09183 20.7629 5.73199 20.9551 6.61358 21.0736 C7.91356 21.2484 9.62178 21.25 12 21.25 C14.3782 21.25 16.0864 21.2484 17.3864 21.0736 C18.6648 20.9018 19.4355 20.5749 20.0052 20.0052 C20.5749 19.4355 20.9018 18.6648 21.0736 17.3864 C21.2484 16.0864 21.25 14.3782 21.25 12 C21.25 9.62178 21.2484 7.91356 21.0736 6.61358 C20.9551 5.73199 20.7629 5.09183 20.4681 4.59254 L15.8107 9.25 L17.75 9.25 C18.1642 9.25 18.5 9.58579 18.5 10 C18.5 10.4142 18.1642 10.75 17.75 10.75 L14 10.75 C13.5858 10.75 13.25 10.4142 13.25 10 L13.25 6.25 C13.25 5.83579 13.5858 5.5 14 5.5 C14.4142 5.5 14.75 5.83579 14.75 6.25 L14.75 8.18934 L19.4075 3.53188 C18.9082 3.23714 18.268 3.0449 17.3864 2.92637 C16.0864 2.75159 14.3782 2.75 12 2.75 C9.62178 2.75 7.91356 2.75159 6.61358 2.92637 C5.33517 3.09825 4.56445 3.42514 3.9948 3.9948 Z" fill="#FFFFFF" />
</svg>