<svg xmlns="http://www.w3.org/2000/svg" width="24" height="24" viewBox="0 0 24 24" fill="none">
  <path d="M6.25 8.5C6.25 8.08579 6.58579 7.75 7 7.75H11.9285L10.5199 6.57617C10.2017 6.31099 10.1587 5.83807 10.4238 5.51986C10.689 5.20165 11.1619 5.15866 11.4801 5.42383L14.4801 7.92383C14.6511 8.06633 14.75 8.27741 14.75 8.5C14.75 8.72258 14.6511 8.93367 14.4801 9.07617L11.4801 11.5762C11.1619 11.8413 10.689 11.7983 10.4238 11.4801C10.1587 11.1619 10.2017 10.689 10.5199 10.4238L11.9285 9.25H7C6.58579 9.25 6.25 8.91421 6.25 8.5Z" fill="#FFFFFF" />
  <path d="M6.25 15.5C6.25 15.0858 6.58579 14.75 7 14.75H11.9285L10.5199 13.5762C10.2017 13.311 10.1587 12.8381 10.4238 12.5199C10.689 12.2017 11.1619 12.1587 11.4801 12.4238L14.4801 14.9238C14.6511 15.0663 14.75 15.2774 14.75 15.5C14.75 15.7226 14.6511 15.9337 14.4801 16.0762L11.4801 18.5762C11.1619 18.8413 10.689 18.7983 10.4238 18.4801C10.1587 18.1619 10.2017 17.689 10.5199 17.4238L11.9285 16.25H7C6.58579 16.25 6.25 15.9142 6.25 15.5Z" fill="#FFFFFF" />
  <path d="M16.25 18C16.25 18.4142 16.5858 18.75 17 18.75C17.4142 18.75 17.75 18.4142 17.75 18V6C17.75 5.58579 17.4142 5.25 17 5.25C16.5858 5.25 16.25 5.58579 16.25 6V18Z" fill="#FFFFFF" />
  <path fill-rule="nonzero" clip-rule="nonzero" d="M 11.9426 1.25 H 12.0574 C 14.3658 1.24999 16.1748 1.24998 17.5863 1.43975 C 19.031 1.63399 20.1711 2.03933 21.0659 2.93414 C 21.9607 3.82895 22.366 4.96897 22.5603 6.41371 C 22.75 7.82519 22.75 9.63423 22.75 11.9426 V 12.0574 C 22.75 14.3658 22.75 16.1748 22.5603 17.5863 C 22.366 19.031 21.9607 20.1711 21.0659 21.0659 C 20.1711 21.9607 19.031 22.366 17.5863 22.5603 C 16.1748 22.75 14.3658 22.75 12.0574 22.75 H 11.9426 C 9.63423 22.75 7.82519 22.75 6.4137 22.5603 C 4.96897 22.366 3.82895 21.9607 2.93414 21.0659 C 2.03933 20.1711 1.63399 19.031 1.43975 17.5863 C 1.24998 16.1748 1.24999 14.3658 1.25 12.0574 V 11.9426 C 1.24999 9.63424 1.24998 7.82519 1.43975 6.41371 C 1.63399 4.96897 2.03933 3.82895 2.93414 2.93414 C 3.82895 2.03933 4.96897 1.63399 6.4137 1.43975 C 7.82519 1.24998 9.63424 1.24999 11.9426 1.25 Z M 6.61358 2.92637 C 5.33517 3.09825 4.56445 3.42514 3.9948 3.9948 C 3.42514 4.56445 3.09825 5.33517 2.92637 6.61358 C 2.75159 7.91356 2.75 9.62178 2.75 12 C 2.75 14.3782 2.75159 16.0864 2.92637 17.3864 C 3.09825 18.6648 3.42514 19.4355 3.9948 20.0052 C 4.56445 20.5749 5.33517 20.9018 6.61358 21.0736 C 7.91356 21.2484 9.62177 21.25 12 21.25 C 14.3782 21.25 16.0864 21.2484 17.3864 21.0736 C 18.6648 20.9018 19.4355 20.5749 20.0052 20.0052 C 20.5749 19.4355 20.9018 18.6648 21.0736 17.3864 C 21.2484 16.0864 21.25 14.3782 21.25 12 C 21.25 9.62178 21.2484 7.91356 21.0736 6.61358 C 20.9018 5.33517 20.5749 4.56445 20.0052 3.9948 C 19.4355 3.42514 18.6648 3.09825 17.3864 2.92637 C 16.0864 2.75159 14.3782 2.75 12 2.75 C 9.62177 2.75 7.91356 2.75159 6.61358 2.92637 Z" fill="#FFFFFF" />
</svg>