<svg xmlns="http://www.w3.org/2000/svg" width="24" height="24" viewBox="0 0 24 24" fill="none">
  <path fill-rule="nonzero" clip-rule="nonzero" d="M3.46447 3.46447 C4.92893 2 7.28595 2 12 2 C16.714 2 19.0711 2 20.5355 3.46447 C22 4.92893 22 7.28595 22 12 C22 16.714 22 19.0711 20.5355 20.5355 C19.0711 22 16.714 22 12 22 C7.28595 22 4.92893 22 3.46447 20.5355 C2 19.0711 2 16.714 2 12 C2 7.28595 2 4.92893 3.46447 3.46447 Z M 7 14.75 C 6.58579 14.75 6.25 15.0858 6.25 15.5 C 6.25 15.9142 6.58579 16.25 7 16.25 H 11.9285 L 10.5199 17.4238 C 10.2017 17.689 10.1587 18.1619 10.4238 18.4801 C 10.689 18.7983 11.1619 18.8413 11.4801 18.5762 L 14.4801 16.0762 C 14.6511 15.9337 14.75 15.7226 14.75 15.5 C 14.75 15.2774 14.6511 15.0663 14.4801 14.9238 L 11.4801 12.4238 C 11.1619 12.1587 10.689 12.2017 10.4238 12.5199 C 10.1587 12.8381 10.2017 13.311 10.5199 13.5762 L 11.9285 14.75 H 7 Z M6.25 8.5 C6.25 8.91421 6.58579 9.25 7 9.25 L11.9285 9.25 L10.5199 10.4238 C10.2017 10.689 10.1587 11.1619 10.4238 11.4801 C10.689 11.7983 11.1619 11.8413 11.4801 11.5762 L14.4801 9.07617 C14.6511 8.93367 14.75 8.72258 14.75 8.5 C14.75 8.27741 14.6511 8.06633 14.4801 7.92383 L11.4801 5.42383 C11.1619 5.15866 10.689 5.20165 10.4238 5.51986 C10.1587 5.83807 10.2017 6.31099 10.5199 6.57617 L11.9285 7.75 L7 7.75 C6.58579 7.75 6.25 8.08579 6.25 8.5 Z M 17.75 6 C 17.75 5.58579 17.4142 5.25 17 5.25 C 16.5858 5.25 16.25 5.58579 16.25 6 V 18 C 16.25 18.4142 16.5858 18.75 17 18.75 C 17.4142 18.75 17.75 18.4142 17.75 18 V 6 Z" fill="#FFFFFF" />
</svg>