<svg xmlns="http://www.w3.org/2000/svg" width="24" height="24" viewBox="0 0 24 24" fill="none">
  <path fill-rule="nonzero" clip-rule="nonzero" d="M9.44631 3.25 L14.5537 3.25 C15.6865 3.24998 16.6123 3.24996 17.3431 3.34822 C18.1071 3.45093 18.7694 3.67321 19.2981 4.20191 C19.8268 4.7306 20.0491 5.39294 20.1518 6.15689 C20.25 6.88775 20.25 7.81348 20.25 8.94632 L20.25 10.1893 L20.9697 9.46967 C21.2626 9.17678 21.7374 9.17678 22.0303 9.46967 C22.3232 9.76257 22.3232 10.2374 22.0303 10.5303 L20.0303 12.5303 C19.7374 12.8232 19.2626 12.8232 18.9697 12.5303 L16.9697 10.5303 C16.6768 10.2374 16.6768 9.76257 16.9697 9.46967 C17.2626 9.17678 17.7374 9.17678 18.0303 9.46967 L18.75 10.1893 L18.75 9 C18.75 7.80029 18.7484 6.97595 18.6652 6.35676 C18.5848 5.75914 18.441 5.46611 18.2374 5.26257 C18.0339 5.05903 17.7409 4.91519 17.1432 4.83484 C16.5241 4.7516 15.6997 4.75 14.5 4.75 L9.5 4.75 C8.30029 4.75 7.47595 4.7516 6.85676 4.83484 C6.25914 4.91519 5.96611 5.05903 5.76257 5.26257 C5.55903 5.46611 5.41519 5.75914 5.33484 6.35676 C5.2516 6.97595 5.25 7.80029 5.25 9 L5.25 14.2559 C5.39845 14.2599 5.53617 14.2667 5.66265 14.2782 C5.99184 14.308 6.31779 14.3741 6.625 14.5514 C6.96705 14.7489 7.25108 15.033 7.44856 15.375 C7.62593 15.6822 7.69199 16.0082 7.72182 16.3374 C7.75003 16.6486 7.75002 17.028 7.75 17.4678 L7.75 17.5322 C7.75002 17.972 7.75003 18.3514 7.72182 18.6627 C7.69199 18.9918 7.62593 19.3178 7.44856 19.625 C7.25108 19.967 6.96705 20.2511 6.625 20.4486 C6.31779 20.6259 5.99184 20.692 5.66265 20.7218 C5.35138 20.75 4.97198 20.75 4.53223 20.75 L4.46768 20.75 C4.02793 20.75 3.64862 20.75 3.33735 20.7218 C3.00817 20.692 2.68222 20.6259 2.375 20.4486 C2.03296 20.2511 1.74892 19.967 1.55145 19.625 C1.37408 19.3178 1.30802 18.9918 1.27818 18.6627 C1.24997 18.3514 1.24999 17.972 1.25 17.5322 L1.25 17.4677 C1.24999 17.028 1.24997 16.6486 1.27818 16.3374 C1.30802 16.0082 1.37408 15.6822 1.55145 15.375 C1.74892 15.033 2.03296 14.7489 2.375 14.5514 C2.68222 14.3741 3.00817 14.308 3.33735 14.2782 C3.46384 14.2667 3.60156 14.2599 3.75 14.2559 L3.75 8.94631 C3.74998 7.81348 3.74996 6.88775 3.84822 6.15689 C3.95093 5.39294 4.17321 4.7306 4.70191 4.20191 C5.2306 3.67321 5.89294 3.45093 6.65689 3.34822 C7.38774 3.24996 8.31349 3.24998 9.44631 3.25 Z M 4.5 15.75 C 4.01889 15.75 3.7082 15.7507 3.47275 15.7721 C 3.2476 15.7925 3.16587 15.8269 3.125 15.8505 C 3.01099 15.9163 2.91631 16.011 2.85048 16.125 C 2.82689 16.1659 2.79247 16.2476 2.77206 16.4727 C 2.75072 16.7082 2.75 17.0189 2.75 17.5 C 2.75 17.9811 2.75072 18.2918 2.77206 18.5273 C 2.79247 18.7524 2.82689 18.8341 2.85048 18.875 C 2.91631 18.989 3.01099 19.0837 3.125 19.1495 C 3.16587 19.1731 3.2476 19.2075 3.47275 19.2279 C 3.7082 19.2493 4.01889 19.25 4.5 19.25 C 4.98111 19.25 5.2918 19.2493 5.52726 19.2279 C 5.7524 19.2075 5.83414 19.1731 5.875 19.1495 C 5.98902 19.0837 6.0837 18.989 6.14952 18.875 C 6.17311 18.8341 6.20754 18.7524 6.22794 18.5273 C 6.24928 18.2918 6.25 17.9811 6.25 17.5 C 6.25 17.0189 6.24928 16.7082 6.22794 16.4727 C 6.20754 16.2476 6.17311 16.1659 6.14952 16.125 C 6.0837 16.011 5.98902 15.9163 5.875 15.8505 C 5.83414 15.8269 5.7524 15.7925 5.52726 15.7721 C 5.2918 15.7507 4.98111 15.75 4.5 15.75 Z" fill="#FFFFFF" />
  <path fill-rule="nonzero" clip-rule="nonzero" d="M11.9678 14.25 L12.0323 14.25 C12.472 14.25 12.8514 14.25 13.1627 14.2782 C13.4918 14.308 13.8178 14.3741 14.125 14.5514 C14.467 14.7489 14.7511 15.033 14.9486 15.375 C15.1259 15.6822 15.192 16.0082 15.2218 16.3374 C15.25 16.6486 15.25 17.028 15.25 17.4678 L15.25 17.5323 C15.25 17.9721 15.25 18.3514 15.2218 18.6627 C15.192 18.9918 15.1259 19.3178 14.9486 19.625 C14.7511 19.967 14.467 20.2511 14.125 20.4486 C13.8178 20.6259 13.4918 20.692 13.1627 20.7218 C12.8514 20.75 12.472 20.75 12.0322 20.75 L11.9677 20.75 C11.5279 20.75 11.1486 20.75 10.8374 20.7218 C10.5082 20.692 10.1822 20.6259 9.875 20.4486 C9.53296 20.2511 9.24892 19.967 9.05145 19.625 C8.87408 19.3178 8.80802 18.9918 8.77818 18.6627 C8.74997 18.3514 8.74999 17.972 8.75 17.5322 L8.75 17.4677 C8.74999 17.028 8.74997 16.6486 8.77818 16.3374 C8.80802 16.0082 8.87408 15.6822 9.05145 15.375 C9.24892 15.033 9.53296 14.7489 9.875 14.5514 C10.1822 14.3741 10.5082 14.308 10.8374 14.2782 C11.1486 14.25 11.528 14.25 11.9678 14.25 Z M10.625 15.8505 C10.511 15.9163 10.4163 16.011 10.3505 16.125 C10.3269 16.1659 10.2925 16.2476 10.2721 16.4727 C10.2507 16.7082 10.25 17.0189 10.25 17.5 C10.25 17.9811 10.2507 18.2918 10.2721 18.5273 C10.2925 18.7524 10.3269 18.8341 10.3505 18.875 C10.4163 18.989 10.511 19.0837 10.625 19.1495 C10.6659 19.1731 10.7476 19.2075 10.9727 19.2279 C11.2082 19.2493 11.5189 19.25 12 19.25 C12.4811 19.25 12.7918 19.2493 13.0273 19.2279 C13.2524 19.2075 13.3341 19.1731 13.375 19.1495 C13.489 19.0837 13.5837 18.989 13.6495 18.875 C13.6731 18.8341 13.7075 18.7524 13.7279 18.5273 C13.7493 18.2918 13.75 17.9811 13.75 17.5 C13.75 17.0189 13.7493 16.7082 13.7279 16.4727 C13.7075 16.2476 13.6731 16.1659 13.6495 16.125 C13.5837 16.011 13.489 15.9163 13.375 15.8505 C13.3341 15.8269 13.2524 15.7925 13.0273 15.7721 C12.7918 15.7507 12.4811 15.75 12 15.75 C11.5189 15.75 11.2082 15.7507 10.9727 15.7721 C10.7476 15.7925 10.6659 15.8269 10.625 15.8505 Z" fill="#FFFFFF" />
  <path fill-rule="nonzero" clip-rule="nonzero" d="M 19.4678 14.25 H 19.5322 C 19.972 14.25 20.3514 14.25 20.6627 14.2782 C 20.9918 14.308 21.3178 14.3741 21.625 14.5514 C 21.967 14.7489 22.2511 15.033 22.4486 15.375 C 22.6259 15.6822 22.692 16.0082 22.7218 16.3374 C 22.75 16.6486 22.75 17.0279 22.75 17.4677 V 17.5322 C 22.75 17.972 22.75 18.3514 22.7218 18.6627 C 22.692 18.9918 22.6259 19.3178 22.4486 19.625 C 22.2511 19.967 21.967 20.2511 21.625 20.4486 C 21.3178 20.6259 20.9918 20.692 20.6627 20.7218 C 20.3514 20.75 19.9721 20.75 19.5323 20.75 H 19.4678 C 19.028 20.75 18.6486 20.75 18.3374 20.7218 C 18.0082 20.692 17.6822 20.6259 17.375 20.4486 C 17.033 20.2511 16.7489 19.967 16.5514 19.625 C 16.3741 19.3178 16.308 18.9918 16.2782 18.6627 C 16.25 18.3514 16.25 17.972 16.25 17.5323 V 17.4678 C 16.25 17.028 16.25 16.6486 16.2782 16.3374 C 16.308 16.0082 16.3741 15.6822 16.5514 15.375 C 16.7489 15.033 17.033 14.7489 17.375 14.5514 C 17.6822 14.3741 18.0082 14.308 18.3374 14.2782 C 18.6486 14.25 19.028 14.25 19.4678 14.25 Z M 18.4727 15.7721 C 18.2476 15.7925 18.1659 15.8269 18.125 15.8505 C 18.011 15.9163 17.9163 16.011 17.8505 16.125 C 17.8269 16.1659 17.7925 16.2476 17.7721 16.4727 C 17.7507 16.7082 17.75 17.0189 17.75 17.5 C 17.75 17.9811 17.7507 18.2918 17.7721 18.5273 C 17.7925 18.7524 17.8269 18.8341 17.8505 18.875 C 17.9163 18.989 18.011 19.0837 18.125 19.1495 C 18.1659 19.1731 18.2476 19.2075 18.4727 19.2279 C 18.7082 19.2493 19.0189 19.25 19.5 19.25 C 19.9811 19.25 20.2918 19.2493 20.5273 19.2279 C 20.7524 19.2075 20.8341 19.1731 20.875 19.1495 C 20.989 19.0837 21.0837 18.989 21.1495 18.875 C 21.1731 18.8341 21.2075 18.7524 21.2279 18.5273 C 21.2493 18.2918 21.25 17.9811 21.25 17.5 C 21.25 17.0189 21.2493 16.7082 21.2279 16.4727 C 21.2075 16.2476 21.1731 16.1659 21.1495 16.125 C 21.0837 16.011 20.989 15.9163 20.875 15.8505 C 20.8341 15.8269 20.7524 15.7925 20.5273 15.7721 C 20.2918 15.7507 19.9811 15.75 19.5 15.75 C 19.0189 15.75 18.7082 15.7507 18.4727 15.7721 Z" fill="#FFFFFF" />
</svg>