<svg xmlns="http://www.w3.org/2000/svg" width="24" height="24" viewBox="0 0 24 24" fill="none">
  <path d="M6.62333 4.50789C5.15204 4.53494 4.30541 4.65944 3.73223 5.23262C3 5.96485 3 7.14336 3 9.50039V14.5004C3 16.8574 3 18.0359 3.73223 18.7682C4.30541 19.3413 5.15204 19.4658 6.62332 19.4929C6.62329 19.4926 6.62336 19.4931 6.62332 19.4929C6.49997 18.5754 6.49993 17.4289 6.5 16.0992V7.90167C6.49993 6.57194 6.49998 5.42538 6.62333 4.50789C6.62337 4.50761 6.62329 4.50817 6.62333 4.50789Z" fill="#FFFFFF" />
  <path fill-rule="nonzero" clip-rule="nonzero" d="M8.87868 2.87868 C9.75736 2 11.1716 2 14 2 L15 2 C17.8284 2 19.2426 2 20.1213 2.87868 C21 3.75736 21 5.17157 21 8 L21 16 C21 18.8284 21 20.2426 20.1213 21.1213 C19.2426 22 17.8284 22 15 22 L14 22 C11.1716 22 9.75736 22 8.87868 21.1213 C8 20.2426 8 18.8284 8 16 L8 8 C8 5.17157 8 3.75736 8.87868 2.87868 Z M 15.0303 7.46967 C 14.7374 7.17678 14.2626 7.17678 13.9697 7.46967 L 11.4697 9.96967 C 11.1768 10.2626 11.1768 10.7374 11.4697 11.0303 C 11.7626 11.3232 12.2374 11.3232 12.5303 11.0303 L 13.75 9.81066 V 16 C 13.75 16.4142 14.0858 16.75 14.5 16.75 C 14.9142 16.75 15.25 16.4142 15.25 16 V 9.81066 L 16.4697 11.0303 C 16.7626 11.3232 17.2374 11.3232 17.5303 11.0303 C 17.8232 10.7374 17.8232 10.2626 17.5303 9.96967 L 15.0303 7.46967 Z" fill="#FFFFFF" />
</svg>