<svg xmlns="http://www.w3.org/2000/svg" width="24" height="24" viewBox="0 0 24 24" fill="none">
  <path d="M17 7.75C17.4142 7.75 17.75 8.08579 17.75 8.5C17.75 8.91421 17.4142 9.25 17 9.25H12.0715L13.4801 10.4238C13.7983 10.689 13.8413 11.1619 13.5762 11.4801C13.311 11.7983 12.8381 11.8413 12.5199 11.5762L9.51986 9.07617C9.34887 8.93367 9.25 8.72258 9.25 8.5C9.25 8.27741 9.34887 8.06633 9.51986 7.92383L12.5199 5.42383C12.8381 5.15866 13.311 5.20165 13.5762 5.51986C13.8413 5.83807 13.7983 6.31099 13.4801 6.57617L12.0715 7.75H17Z" fill="#FFFFFF" />
  <path d="M17 14.75C17.4142 14.75 17.75 15.0858 17.75 15.5C17.75 15.9142 17.4142 16.25 17 16.25H12.0715L13.4801 17.4238C13.7983 17.689 13.8413 18.1619 13.5762 18.4801C13.311 18.7983 12.8381 18.8413 12.5199 18.5762L9.51986 16.0762C9.34887 15.9337 9.25 15.7226 9.25 15.5C9.25 15.2774 9.34887 15.0663 9.51986 14.9238L12.5199 12.4238C12.8381 12.1587 13.311 12.2017 13.5762 12.5199C13.8413 12.8381 13.7983 13.311 13.4801 13.5762L12.0715 14.75H17Z" fill="#FFFFFF" />
  <path d="M7 18.75C7.41421 18.75 7.75 18.4142 7.75 18V6C7.75 5.58579 7.41421 5.25 7 5.25C6.58579 5.25 6.25 5.58579 6.25 6V18C6.25 18.4142 6.58579 18.75 7 18.75Z" fill="#FFFFFF" />
  <path fill-rule="nonzero" clip-rule="nonzero" d="M11.9426 1.25 L12.0574 1.25 C14.3658 1.24999 16.1748 1.24998 17.5863 1.43975 C19.031 1.63399 20.1711 2.03933 21.0659 2.93414 C21.9607 3.82895 22.366 4.96897 22.5603 6.41371 C22.75 7.82519 22.75 9.63423 22.75 11.9426 L22.75 12.0574 C22.75 14.3658 22.75 16.1748 22.5603 17.5863 C22.366 19.031 21.9607 20.1711 21.0659 21.0659 C20.1711 21.9607 19.031 22.366 17.5863 22.5603 C16.1748 22.75 14.3658 22.75 12.0574 22.75 L11.9426 22.75 C9.63423 22.75 7.82519 22.75 6.4137 22.5603 C4.96897 22.366 3.82895 21.9607 2.93414 21.0659 C2.03933 20.1711 1.63399 19.031 1.43975 17.5863 C1.24998 16.1748 1.24999 14.3658 1.25 12.0574 L1.25 11.9426 C1.24999 9.63423 1.24998 7.82519 1.43975 6.41371 C1.63399 4.96897 2.03933 3.82895 2.93414 2.93414 C3.82895 2.03933 4.96897 1.63399 6.4137 1.43975 C7.82519 1.24998 9.63423 1.24999 11.9426 1.25 Z M3.9948 3.9948 C3.42514 4.56445 3.09825 5.33517 2.92637 6.61358 C2.75159 7.91356 2.75 9.62178 2.75 12 C2.75 14.3782 2.75159 16.0864 2.92637 17.3864 C3.09825 18.6648 3.42514 19.4355 3.9948 20.0052 C4.56445 20.5749 5.33517 20.9018 6.61358 21.0736 C7.91356 21.2484 9.62177 21.25 12 21.25 C14.3782 21.25 16.0864 21.2484 17.3864 21.0736 C18.6648 20.9018 19.4355 20.5749 20.0052 20.0052 C20.5749 19.4355 20.9018 18.6648 21.0736 17.3864 C21.2484 16.0864 21.25 14.3782 21.25 12 C21.25 9.62178 21.2484 7.91356 21.0736 6.61358 C20.9018 5.33517 20.5749 4.56445 20.0052 3.9948 C19.4355 3.42514 18.6648 3.09825 17.3864 2.92637 C16.0864 2.75159 14.3782 2.75 12 2.75 C9.62177 2.75 7.91356 2.75159 6.61358 2.92637 C5.33517 3.09825 4.56445 3.42514 3.9948 3.9948 Z" fill="#FFFFFF" />
</svg>