<svg xmlns="http://www.w3.org/2000/svg" width="24" height="24" viewBox="0 0 24 24" fill="none">
  <path fill-rule="nonzero" clip-rule="nonzero" d="M 2 12 C 2 7.28595 2 4.92893 3.46447 3.46447 C 4.92893 2 7.28595 2 12 2 C 16.714 2 19.0711 2 20.5355 3.46447 C 22 4.92893 22 7.28595 22 12 C 22 16.714 22 19.0711 20.5355 20.5355 C 19.0711 22 16.714 22 12 22 C 7.28595 22 4.92893 22 3.46447 20.5355 C 2 19.0711 2 16.714 2 12 Z M17.75 12 C17.75 11.5858 17.4142 11.25 17 11.25 L11.8107 11.25 L13.5303 9.53033 C13.8232 9.23744 13.8232 8.76256 13.5303 8.46967 C13.2374 8.17678 12.7626 8.17678 12.4697 8.46967 L9.46967 11.4697 C9.32902 11.6103 9.25 11.8011 9.25 12 C9.25 12.1989 9.32902 12.3897 9.46967 12.5303 L12.4697 15.5303 C12.7626 15.8232 13.2374 15.8232 13.5303 15.5303 C13.8232 15.2374 13.8232 14.7626 13.5303 14.4697 L11.8107 12.75 L17 12.75 C17.4142 12.75 17.75 12.4142 17.75 12 Z M 7.75 8 C 7.75 7.58579 7.41421 7.25 7 7.25 C 6.58579 7.25 6.25 7.58579 6.25 8 L 6.25 16 C 6.25 16.4142 6.58579 16.75 7 16.75 C 7.41421 16.75 7.75 16.4142 7.75 16 L 7.75 8 Z" fill="#FFFFFF" />
</svg>