<svg xmlns="http://www.w3.org/2000/svg" width="24" height="24" viewBox="0 0 24 24" fill="none">
  <path fill-rule="nonzero" clip-rule="nonzero" d="M3.46447 3.46447 C4.92893 2 7.28595 2 12 2 C16.714 2 19.0711 2 20.5355 3.46447 C22 4.92893 22 7.28595 22 12 C22 16.714 22 19.0711 20.5355 20.5355 C19.0711 22 16.714 22 12 22 C7.28595 22 4.92893 22 3.46447 20.5355 C2 19.0711 2 16.714 2 12 C2 7.28595 2 4.92893 3.46447 3.46447 Z M17 14.75 L12.0715 14.75 L13.4801 13.5762 C13.7983 13.311 13.8413 12.8381 13.5762 12.5199 C13.311 12.2017 12.8381 12.1587 12.5199 12.4238 L9.51986 14.9238 C9.34887 15.0663 9.25 15.2774 9.25 15.5 C9.25 15.7226 9.34887 15.9337 9.51986 16.0762 L12.5199 18.5762 C12.8381 18.8413 13.311 18.7983 13.5762 18.4801 C13.8413 18.1619 13.7983 17.689 13.4801 17.4238 L12.0715 16.25 L17 16.25 C17.4142 16.25 17.75 15.9142 17.75 15.5 C17.75 15.0858 17.4142 14.75 17 14.75 Z M 17.75 8.5 C 17.75 8.08579 17.4142 7.75 17 7.75 H 12.0715 L 13.4801 6.57617 C 13.7983 6.31099 13.8413 5.83807 13.5762 5.51986 C 13.311 5.20165 12.8381 5.15866 12.5199 5.42383 L 9.51986 7.92383 C 9.34887 8.06633 9.25 8.27741 9.25 8.5 C 9.25 8.72258 9.34887 8.93367 9.51986 9.07617 L 12.5199 11.5762 C 12.8381 11.8413 13.311 11.7983 13.5762 11.4801 C 13.8413 11.1619 13.7983 10.689 13.4801 10.4238 L 12.0715 9.25 H 17 C 17.4142 9.25 17.75 8.91421 17.75 8.5 Z M 7.75 6 C 7.75 5.58579 7.41421 5.25 7 5.25 C 6.58579 5.25 6.25 5.58579 6.25 6 V 18 C 6.25 18.4142 6.58579 18.75 7 18.75 C 7.41421 18.75 7.75 18.4142 7.75 18 V 6 Z" fill="#FFFFFF" />
</svg>