<svg xmlns="http://www.w3.org/2000/svg" width="24" height="24" viewBox="0 0 24 24" fill="none">
  <path d="M15.7587 6.87273C15.4543 6.59177 14.9799 6.61075 14.6989 6.91512C14.4179 7.21948 14.4369 7.69398 14.7413 7.97493L15.5818 8.75075L9.92422 8.75075C9.27207 8.75073 8.72787 8.75072 8.28673 8.79447C7.82522 8.84024 7.39622 8.93967 7.00689 9.1914C6.68013 9.40267 6.40192 9.68087 6.19065 10.0076C5.93893 10.397 5.8395 10.826 5.79372 11.2875C5.74997 11.7286 5.74998 12.2728 5.75 12.925V12.9996C5.74998 13.6518 5.74997 14.196 5.79372 14.6371C5.83949 15.0986 5.93892 15.5276 6.19064 15.9169C6.40191 16.2437 6.68012 16.5219 7.00689 16.7332C7.39622 16.9849 7.82521 17.0843 8.28673 17.1301C8.72787 17.1739 9.27207 17.1738 9.92423 17.1738H14.5C14.9142 17.1738 15.25 16.838 15.25 16.4238C15.25 16.0096 14.9142 15.6738 14.5 15.6738H9.96154C9.26242 15.6738 8.79308 15.673 8.43477 15.6374C8.08844 15.6031 7.92764 15.5423 7.82131 15.4735C7.67278 15.3775 7.54632 15.251 7.45029 15.1025C7.38155 14.9962 7.32074 14.8354 7.2864 14.4891C7.25086 14.1307 7.25 13.6614 7.25 12.9623C7.25 12.2632 7.25086 11.7938 7.2864 11.4355C7.32075 11.0892 7.38155 10.9284 7.4503 10.8221C7.54633 10.6735 7.67279 10.5471 7.82131 10.451C7.92764 10.3823 8.08844 10.3215 8.43477 10.2871C8.79309 10.2516 9.26243 10.2508 9.96155 10.2508H15.5818L14.7413 11.0266C14.4369 11.3075 14.4179 11.782 14.6989 12.0864C14.9799 12.3908 15.4543 12.4097 15.7587 12.1288L18.0087 10.0519C18.1625 9.90987 18.25 9.71007 18.25 9.50075C18.25 9.29143 18.1625 9.09163 18.0087 8.94965L15.7587 6.87273Z" fill="#FFFFFF" />
  <path fill-rule="nonzero" clip-rule="nonzero" d="M11.9426 1.25 L12.0574 1.25 C14.3658 1.24999 16.1748 1.24998 17.5863 1.43975 C19.031 1.63399 20.1711 2.03933 21.0659 2.93414 C21.9607 3.82895 22.366 4.96897 22.5603 6.41371 C22.75 7.82519 22.75 9.63423 22.75 11.9426 L22.75 12.0574 C22.75 14.3658 22.75 16.1748 22.5603 17.5863 C22.366 19.031 21.9607 20.1711 21.0659 21.0659 C20.1711 21.9607 19.031 22.366 17.5863 22.5603 C16.1748 22.75 14.3658 22.75 12.0574 22.75 L11.9426 22.75 C9.63423 22.75 7.82519 22.75 6.4137 22.5603 C4.96897 22.366 3.82895 21.9607 2.93414 21.0659 C2.03933 20.1711 1.63399 19.031 1.43975 17.5863 C1.24998 16.1748 1.24999 14.3658 1.25 12.0574 L1.25 11.9426 C1.24999 9.63423 1.24998 7.82519 1.43975 6.41371 C1.63399 4.96897 2.03933 3.82895 2.93414 2.93414 C3.82895 2.03933 4.96897 1.63399 6.4137 1.43975 C7.82519 1.24998 9.63423 1.24999 11.9426 1.25 Z M3.9948 3.9948 C3.42514 4.56445 3.09825 5.33517 2.92637 6.61358 C2.75159 7.91356 2.75 9.62178 2.75 12 C2.75 14.3782 2.75159 16.0864 2.92637 17.3864 C3.09825 18.6648 3.42514 19.4355 3.9948 20.0052 C4.56445 20.5749 5.33517 20.9018 6.61358 21.0736 C7.91356 21.2484 9.62177 21.25 12 21.25 C14.3782 21.25 16.0864 21.2484 17.3864 21.0736 C18.6648 20.9018 19.4355 20.5749 20.0052 20.0052 C20.5749 19.4355 20.9018 18.6648 21.0736 17.3864 C21.2484 16.0864 21.25 14.3782 21.25 12 C21.25 9.62178 21.2484 7.91356 21.0736 6.61358 C20.9018 5.33517 20.5749 4.56445 20.0052 3.9948 C19.4355 3.42514 18.6648 3.09825 17.3864 2.92637 C16.0864 2.75159 14.3782 2.75 12 2.75 C9.62177 2.75 7.91356 2.75159 6.61358 2.92637 C5.33517 3.09825 4.56445 3.42514 3.9948 3.9948 Z" fill="#FFFFFF" />
</svg>