<svg xmlns="http://www.w3.org/2000/svg" width="24" height="24" viewBox="0 0 24 24" fill="none">
  <path fill-rule="nonzero" clip-rule="nonzero" d="M3.46447 3.46447 C4.92893 2 7.28595 2 12 2 C16.714 2 19.0711 2 20.5355 3.46447 C22 4.92893 22 7.28598 22 12 C22 16.7141 22 19.0711 20.5355 20.5355 C19.0711 22 16.714 22 12 22 C7.28595 22 4.92893 22 3.46447 20.5355 C2 19.0711 2 16.714 2 12 C2 7.28595 2 4.92893 3.46447 3.46447 Z M 15.7587 6.87273 C 15.4543 6.59177 14.9799 6.61075 14.6989 6.91512 C 14.4179 7.21948 14.4369 7.69398 14.7413 7.97493 L 15.5818 8.75075 H 9.96155 C 7.63558 8.75075 5.75 10.6363 5.75 12.9623 C 5.75 15.2883 7.63557 17.1738 9.96154 17.1738 H 14.5 C 14.9142 17.1738 15.25 16.838 15.25 16.4238 C 15.25 16.0096 14.9142 15.6738 14.5 15.6738 H 9.96154 C 8.464 15.6738 7.25 14.4598 7.25 12.9623 C 7.25 11.4647 8.464 10.2508 9.96155 10.2508 H 15.5818 L 14.7413 11.0266 C 14.4369 11.3075 14.4179 11.782 14.6989 12.0864 C 14.9799 12.3908 15.4543 12.4097 15.7587 12.1288 L 18.0087 10.0519 C 18.1625 9.90987 18.25 9.71007 18.25 9.50075 C 18.25 9.29143 18.1625 9.09163 18.0087 8.94965 L 15.7587 6.87273 Z" fill="#FFFFFF" />
</svg>