<svg xmlns="http://www.w3.org/2000/svg" width="24" height="24" viewBox="0 0 24 24" fill="none">
  <path fill-rule="nonzero" clip-rule="nonzero" d="M3.46447 3.46447 C4.92893 2 7.28595 2 12 2 C16.714 2 19.0711 2 20.5355 3.46447 C22 4.92893 22 7.28598 22 12 C22 16.7141 22 19.0711 20.5355 20.5355 C19.0711 22 16.714 22 12 22 C7.28595 22 4.92893 22 3.46447 20.5355 C2 19.0711 2 16.714 2 12 C2 7.28595 2 4.92893 3.46447 3.46447 Z M 9.25871 7.97395 C 9.56308 7.693 9.58205 7.21851 9.3011 6.91414 C 9.02015 6.60978 8.54565 6.5908 8.24129 6.87175 L 5.99129 8.94867 C 5.83748 9.09065 5.75 9.29045 5.75 9.49977 C 5.75 9.7091 5.83748 9.9089 5.99129 10.0509 L 8.24129 12.1278 C 8.54565 12.4088 9.02015 12.3898 9.3011 12.0854 C 9.58205 11.781 9.56308 11.3065 9.25871 11.0256 L 8.41824 10.2498 H 14.0385 C 14.7376 10.2498 15.2069 10.2506 15.5652 10.2862 C 15.9116 10.3205 16.0724 10.3813 16.1787 10.4501 C 16.3272 10.5461 16.4537 10.6726 16.5497 10.8211 C 16.6184 10.9274 16.6793 11.0882 16.7136 11.4345 C 16.7491 11.7929 16.75 12.2622 16.75 12.9613 C 16.75 13.6604 16.7491 14.1298 16.7136 14.4881 C 16.6793 14.8344 16.6185 14.9952 16.5497 15.1015 C 16.4537 15.2501 16.3272 15.3765 16.1787 15.4726 C 16.0724 15.5413 15.9116 15.6021 15.5652 15.6365 C 15.2069 15.672 14.7376 15.6729 14.0385 15.6729 H 9.5 C 9.08579 15.6729 8.75 16.0086 8.75 16.4229 C 8.75 16.8371 9.08579 17.1729 9.5 17.1729 H 14.0758 C 14.7279 17.1729 15.2721 17.1729 15.7133 17.1291 C 16.1748 17.0834 16.6038 16.9839 16.9931 16.7322 C 17.3199 16.5209 17.5981 16.2427 17.8094 15.916 C 18.0611 15.5266 18.1605 15.0976 18.2063 14.6361 C 18.25 14.195 18.25 13.6508 18.25 12.9987 V 12.924 C 18.25 12.2718 18.25 11.7276 18.2063 11.2865 C 18.1605 10.825 18.0611 10.396 17.8093 10.0067 C 17.5981 9.6799 17.3199 9.40169 16.9931 9.19042 C 16.6038 8.9387 16.1748 8.83927 15.7133 8.7935 C 15.2721 8.74975 14.7279 8.74976 14.0758 8.74977 L 8.41824 8.74977 L 9.25871 7.97395 Z" fill="#FFFFFF" />
</svg>