<svg xmlns="http://www.w3.org/2000/svg" width="24" height="24" viewBox="0 0 24 24" fill="none">
  <path fill-rule="nonzero" clip-rule="nonzero" d="M3.46447 3.46447 C4.92893 2 7.28595 2 12 2 C16.714 2 19.0711 2 20.5355 3.46447 C22 4.92893 22 7.28598 22 12 C22 16.7141 22 19.0711 20.5355 20.5355 C19.0711 22 16.714 22 12 22 C7.28595 22 4.92893 22 3.46447 20.5355 C2 19.0711 2 16.714 2 12 C2 7.28595 2 4.92893 3.46447 3.46447 Z M 9.25871 7.97395 C 9.56308 7.693 9.58205 7.21851 9.3011 6.91414 C 9.02015 6.60978 8.54565 6.5908 8.24129 6.87175 L 5.99129 8.94867 C 5.83748 9.09065 5.75 9.29045 5.75 9.49977 C 5.75 9.7091 5.83748 9.9089 5.99129 10.0509 L 8.24129 12.1278 C 8.54565 12.4088 9.02015 12.3898 9.3011 12.0854 C 9.58205 11.781 9.56308 11.3065 9.25871 11.0256 L 8.41824 10.2498 H 14.0385 C 15.536 10.2498 16.75 11.4638 16.75 12.9613 C 16.75 14.4589 15.536 15.6729 14.0385 15.6729 H 9.5 C 9.08579 15.6729 8.75 16.0086 8.75 16.4229 C 8.75 16.8371 9.08579 17.1729 9.5 17.1729 H 14.0385 C 16.3644 17.1729 18.25 15.2873 18.25 12.9613 C 18.25 10.6353 16.3644 8.74977 14.0385 8.74977 H 8.41824 L 9.25871 7.97395 Z" fill="#FFFFFF" />
</svg>