<svg xmlns="http://www.w3.org/2000/svg" width="24" height="24" viewBox="0 0 24 24" fill="none">
  <path fill-rule="nonzero" clip-rule="nonzero" d="M3.46447 3.46447 C4.92893 2 7.28595 2 12 2 C16.714 2 19.0711 2 20.5355 3.46447 C22 4.92893 22 7.28595 22 12 C22 16.714 22 19.0711 20.5355 20.5355 C19.0711 22 16.714 22 12 22 C7.28595 22 4.92893 22 3.46447 20.5355 C2 19.0711 2 16.714 2 12 C2 7.28595 2 4.92893 3.46447 3.46447 Z M9.25 17 L9.25 12.0715 L10.4238 13.4801 C10.689 13.7983 11.1619 13.8413 11.4801 13.5762 C11.7983 13.311 11.8413 12.8381 11.5762 12.5199 L9.07617 9.51986 C8.93367 9.34887 8.72259 9.25 8.5 9.25 C8.27742 9.25 8.06633 9.34887 7.92383 9.51986 L5.42383 12.5199 C5.15866 12.8381 5.20165 13.311 5.51986 13.5762 C5.83807 13.8413 6.31099 13.7983 6.57617 13.4801 L7.75 12.0715 L7.75 17 C7.75 17.4142 8.08579 17.75 8.5 17.75 C8.91421 17.75 9.25 17.4142 9.25 17 Z M 15.5 17.75 C 15.9142 17.75 16.25 17.4142 16.25 17 V 12.0715 L 17.4238 13.4801 C 17.689 13.7983 18.1619 13.8413 18.4801 13.5762 C 18.7983 13.311 18.8413 12.8381 18.5762 12.5199 L 16.0762 9.51986 C 15.9337 9.34887 15.7226 9.25 15.5 9.25 C 15.2774 9.25 15.0663 9.34887 14.9238 9.51986 L 12.4238 12.5199 C 12.1587 12.8381 12.2017 13.311 12.5199 13.5762 C 12.8381 13.8413 13.311 13.7983 13.5762 13.4801 L 14.75 12.0715 V 17 C 14.75 17.4142 15.0858 17.75 15.5 17.75 Z M6 7.75 L18 7.75 C18.4142 7.75 18.75 7.41421 18.75 7 C18.75 6.58579 18.4142 6.25 18 6.25 L6 6.25 C5.58579 6.25 5.25 6.58579 5.25 7 C5.25 7.41421 5.58579 7.75 6 7.75 Z" fill="#FFFFFF" />
</svg>