<svg xmlns="http://www.w3.org/2000/svg" width="24" height="24" viewBox="0 0 24 24" fill="none">
  <path fill-rule="nonzero" clip-rule="nonzero" d="M 2 12 C 2 7.28595 2 4.92893 3.46447 3.46447 C 4.92893 2 7.28595 2 12 2 C 16.714 2 19.0711 2 20.5355 3.46447 C 22 4.92893 22 7.28595 22 12 C 22 16.714 22 19.0711 20.5355 20.5355 C 19.0711 22 16.714 22 12 22 C 7.28595 22 4.92893 22 3.46447 20.5355 C 2 19.0711 2 16.714 2 12 Z M 12 17.75 C 12.4142 17.75 12.75 17.4142 12.75 17 V 11.8107 L 14.4697 13.5303 C 14.7626 13.8232 15.2374 13.8232 15.5303 13.5303 C 15.8232 13.2374 15.8232 12.7626 15.5303 12.4697 L 12.5303 9.46967 C 12.3897 9.32902 12.1989 9.25 12 9.25 C 11.8011 9.25 11.6103 9.32902 11.4697 9.46967 L 8.46967 12.4697 C 8.17678 12.7626 8.17678 13.2374 8.46967 13.5303 C 8.76256 13.8232 9.23744 13.8232 9.53033 13.5303 L 11.25 11.8107 V 17 C 11.25 17.4142 11.5858 17.75 12 17.75 Z M8 7.75 L16 7.75 C16.4142 7.75 16.75 7.41421 16.75 7 C16.75 6.58579 16.4142 6.25 16 6.25 L8 6.25 C7.58579 6.25 7.25 6.58579 7.25 7 C7.25 7.41421 7.58579 7.75 8 7.75 Z" fill="#FFFFFF" />
</svg>