<svg xmlns="http://www.w3.org/2000/svg" width="24" height="24" viewBox="0 0 24 24" fill="none">
  <path fill-rule="nonzero" clip-rule="nonzero" d="M12.4277 2 C13.5416 2 14.5559 2.6007 16.5847 3.80211 L17.2708 4.20846 C19.2995 5.40987 20.3139 6.01057 20.8708 7 C21.4277 7.98943 21.4277 9.19084 21.4277 11.5937 L21.4277 12.4063 C21.4277 14.8092 21.4277 16.0106 20.8708 17 C20.3139 17.9894 19.2995 18.5901 17.2708 19.7915 L16.5847 20.1979 C14.5559 21.3993 13.5416 22 12.4277 22 C11.3139 22 10.2995 21.3993 8.27081 20.1979 L7.58466 19.7915 C5.55594 18.5901 4.54158 17.9894 3.98466 17 C3.42773 16.0106 3.42773 14.8092 3.42773 12.4063 L3.42773 11.5937 C3.42773 9.19084 3.42773 7.98943 3.98466 7 C4.54158 6.01057 5.55594 5.40987 7.58466 4.20846 L8.27081 3.80211 C10.2995 2.6007 11.3139 2 12.4277 2 Z M8.67773 12 C8.67773 14.0711 10.3567 15.75 12.4277 15.75 C14.4988 15.75 16.1777 14.0711 16.1777 12 C16.1777 9.92893 14.4988 8.25 12.4277 8.25 C10.3567 8.25 8.67773 9.92893 8.67773 12 Z" fill="#FFFFFF" />
</svg>