<svg xmlns="http://www.w3.org/2000/svg" width="24" height="24" viewBox="0 0 24 24" fill="none">
  <path fill-rule="nonzero" clip-rule="nonzero" d="M14.2788 2.15224 C14.7726 2.35523 15.1649 2.74458 15.3694 3.23463 C15.4628 3.45833 15.4993 3.71848 15.5136 4.09794 C15.5347 4.65566 15.8229 5.17191 16.3099 5.45096 C16.7969 5.73002 17.3915 5.71959 17.8887 5.4588 C18.2269 5.28136 18.4722 5.18269 18.7141 5.15109 C19.244 5.08185 19.7799 5.22436 20.2039 5.54727 C20.522 5.78945 20.7567 6.19297 21.2262 7 C21.6957 7.80703 21.9304 8.21055 21.9828 8.60497 C22.0525 9.13087 21.9089 9.66273 21.5836 10.0835 C21.435 10.2757 21.2263 10.4371 20.9022 10.6392 C20.4261 10.9361 20.1197 11.4418 20.1197 11.9999 C20.1197 12.558 20.4261 13.0639 20.9022 13.3608 C21.2262 13.5628 21.4349 13.7243 21.5835 13.9164 C21.9088 14.3372 22.0524 14.8691 21.9827 15.395 C21.9303 15.7894 21.6956 16.1929 21.2261 16.9999 C20.7566 17.807 20.5219 18.2105 20.2038 18.4527 C19.7798 18.7756 19.2439 18.9181 18.714 18.8488 C18.4721 18.8172 18.2269 18.7186 17.8886 18.5412 C17.3914 18.2804 16.7968 18.2699 16.3098 18.549 C15.8228 18.8281 15.5347 19.3443 15.5137 19.902 C15.4994 20.2815 15.4628 20.5417 15.3694 20.7654 C15.1649 21.2554 14.7726 21.6448 14.2788 21.8478 C13.9085 22 13.439 22 12.5 22 C11.561 22 11.0915 22 10.7212 21.8478 C10.2274 21.6448 9.83509 21.2554 9.63056 20.7654 C9.53719 20.5417 9.50065 20.2815 9.48635 19.9021 C9.46533 19.3443 9.17714 18.8281 8.69012 18.549 C8.2031 18.27 7.60852 18.2804 7.11133 18.5412 C6.77305 18.7186 6.52778 18.8173 6.28589 18.8489 C5.75599 18.9181 5.22008 18.7756 4.79606 18.4527 C4.47804 18.2106 4.24329 17.807 3.7738 17 C3.30432 16.193 3.06957 15.7894 3.01725 15.395 C2.94749 14.8691 3.09108 14.3373 3.41645 13.9165 C3.56497 13.7244 3.77372 13.5629 4.0977 13.3608 C4.57386 13.0639 4.88026 12.5581 4.88029 12 C4.88032 11.4419 4.57391 10.936 4.0977 10.639 C3.77377 10.437 3.56506 10.2756 3.41655 10.0835 C3.09118 9.66266 2.94758 9.1308 3.01735 8.60491 C3.06967 8.21048 3.30441 7.80697 3.7739 6.99993 C4.24339 6.1929 4.47814 5.78938 4.79616 5.5472 C5.22018 5.22429 5.75609 5.08178 6.28599 5.15102 C6.52789 5.18262 6.77318 5.2813 7.11149 5.45876 C7.60864 5.71954 8.20318 5.72996 8.69017 5.45093 C9.17716 5.17189 9.46534 4.65568 9.48635 4.09799 C9.50065 3.7185 9.53719 3.45834 9.63056 3.23463 C9.83509 2.74458 10.2274 2.35523 10.7212 2.15224 C11.0915 2 11.561 2 12.5 2 C13.439 2 13.9085 2 14.2788 2.15224 Z M 12.5 15 C 14.1695 15 15.5228 13.6569 15.5228 12 C 15.5228 10.3431 14.1695 9 12.5 9 C 10.8305 9 9.47716 10.3431 9.47716 12 C 9.47716 13.6569 10.8305 15 12.5 15 Z" fill="#FFFFFF" />
</svg>