<svg xmlns="http://www.w3.org/2000/svg" width="24" height="24" viewBox="0 0 24 24" fill="none">
  <path d="M10 17.25C9.30964 17.25 8.75 16.6904 8.75 16C8.75 15.3096 9.30964 14.75 10 14.75C10.6904 14.75 11.25 15.3096 11.25 16C11.25 16.6904 10.6904 17.25 10 17.25Z" fill="#FFFFFF" />
  <path d="M15.25 8C15.25 8.69036 14.6904 9.25 14 9.25C13.3096 9.25 12.75 8.69036 12.75 8C12.75 7.30964 13.3096 6.75 14 6.75C14.6904 6.75 15.25 7.30964 15.25 8Z" fill="#FFFFFF" />
  <path fill-rule="nonzero" clip-rule="nonzero" d="M 2 12 C 2 7.28595 2 4.92893 3.46447 3.46447 C 4.92893 2 7.28595 2 12 2 C 16.714 2 19.0711 2 20.5355 3.46447 C 22 4.92893 22 7.28595 22 12 C 22 16.714 22 19.0711 20.5355 20.5355 C 19.0711 22 16.714 22 12 22 C 7.28595 22 4.92893 22 3.46447 20.5355 C 2 19.0711 2 16.714 2 12 Z M10 18.75 C11.5188 18.75 12.75 17.5188 12.75 16 C12.75 14.4812 11.5188 13.25 10 13.25 C8.48122 13.25 7.25 14.4812 7.25 16 C7.25 17.5188 8.48122 18.75 10 18.75 Z M16.75 8 C16.75 6.48122 15.5188 5.25 14 5.25 C12.4812 5.25 11.25 6.48122 11.25 8 C11.25 9.51878 12.4812 10.75 14 10.75 C15.5188 10.75 16.75 9.51878 16.75 8 Z M13.25 16 C13.25 16.4142 13.5858 16.75 14 16.75 L19 16.75 C19.4142 16.75 19.75 16.4142 19.75 16 C19.75 15.5858 19.4142 15.25 19 15.25 L14 15.25 C13.5858 15.25 13.25 15.5858 13.25 16 Z M10 7.25 L5 7.25 C4.58579 7.25 4.25 7.58579 4.25 8 C4.25 8.41421 4.58579 8.75 5 8.75 L10 8.75 C10.4142 8.75 10.75 8.41421 10.75 8 C10.75 7.58579 10.4142 7.25 10 7.25 Z M4.25 16 C4.25 16.4142 4.58579 16.75 5 16.75 L6 16.75 C6.41421 16.75 6.75 16.4142 6.75 16 C6.75 15.5858 6.41421 15.25 6 15.25 L5 15.25 C4.58579 15.25 4.25 15.5858 4.25 16 Z M19 7.25 L18 7.25 C17.5858 7.25 17.25 7.58579 17.25 8 C17.25 8.41421 17.5858 8.75 18 8.75 L19 8.75 C19.4142 8.75 19.75 8.41421 19.75 8 C19.75 7.58579 19.4142 7.25 19 7.25 Z" fill="#FFFFFF" />
</svg>