<svg xmlns="http://www.w3.org/2000/svg" width="24" height="24" viewBox="0 0 24 24" fill="none">
  <path fill-rule="nonzero" clip-rule="nonzero" d="M 1.75 6.5 C 1.75 3.87665 3.87665 1.75 6.5 1.75 C 9.12335 1.75 11.25 3.87665 11.25 6.5 V 9.16667 C 11.25 9.18794 11.25 9.20932 11.2501 9.23078 C 11.2506 9.47335 11.2511 9.72639 11.1904 9.95293 C 11.0286 10.5568 10.5568 11.0286 9.95293 11.1904 C 9.72639 11.2511 9.47335 11.2506 9.23078 11.2501 C 9.20932 11.25 9.18794 11.25 9.16667 11.25 H 6.5 C 3.87665 11.25 1.75 9.12335 1.75 6.5 Z M 6.5 3.25 C 4.70507 3.25 3.25 4.70507 3.25 6.5 C 3.25 8.29493 4.70507 9.75 6.5 9.75 H 9.16667 C 9.32846 9.75 9.42479 9.74982 9.49713 9.74652 C 9.54266 9.74444 9.56229 9.74162 9.56714 9.74082 C 9.65143 9.71732 9.71732 9.65143 9.74082 9.56714 C 9.74162 9.56229 9.74444 9.54266 9.74652 9.49713 C 9.74982 9.42479 9.75 9.32846 9.75 9.16667 V 6.5 C 9.75 4.70507 8.29493 3.25 6.5 3.25 Z" fill="#FFFFFF" />
  <path fill-rule="nonzero" clip-rule="nonzero" d="M 14.7692 12.7499 C 14.7907 12.75 14.8121 12.75 14.8333 12.75 H 17.5 C 20.1234 12.75 22.25 14.8766 22.25 17.5 C 22.25 20.1234 20.1234 22.25 17.5 22.25 C 14.8766 22.25 12.75 20.1234 12.75 17.5 V 14.8333 C 12.75 14.8121 12.75 14.7907 12.7499 14.7692 C 12.7494 14.5266 12.7489 14.2736 12.8096 14.0471 C 12.9714 13.4432 13.4432 12.9714 14.0471 12.8096 C 14.2736 12.7489 14.5266 12.7494 14.7692 12.7499 Z M 14.4329 14.2592 C 14.3486 14.2827 14.2827 14.3486 14.2592 14.4329 C 14.2584 14.4377 14.2556 14.4573 14.2535 14.5029 C 14.2502 14.5752 14.25 14.6715 14.25 14.8333 V 17.5 C 14.25 19.2949 15.7051 20.75 17.5 20.75 C 19.2949 20.75 20.75 19.2949 20.75 17.5 C 20.75 15.7051 19.2949 14.25 17.5 14.25 H 14.8333 C 14.6715 14.25 14.5752 14.2502 14.5029 14.2535 C 14.4573 14.2556 14.4377 14.2584 14.4329 14.2592 Z" fill="#FFFFFF" />
  <path fill-rule="nonzero" clip-rule="nonzero" d="M 9.49572 14.2611 C 9.3666 14.2506 9.1924 14.25 8.9 14.25 H 6.5 C 4.70507 14.25 3.25 15.7051 3.25 17.5 C 3.25 19.2949 4.70507 20.75 6.5 20.75 C 8.29493 20.75 9.75 19.2949 9.75 17.5 V 15.1 C 9.75 14.8076 9.74942 14.6334 9.73887 14.5043 C 9.73243 14.4255 9.72393 14.3923 9.72118 14.3835 C 9.69766 14.3388 9.66118 14.3023 9.61654 14.2788 C 9.60766 14.2761 9.57453 14.2676 9.49572 14.2611 Z M 9.61913 14.2797 L 9.61761 14.2792 L 9.61913 14.2797 Z M 9.72027 14.3809 L 9.72082 14.3824 L 9.72027 14.3809 Z M 9.61787 12.7661 C 9.83101 12.7835 10.0642 12.8234 10.2945 12.9407 C 10.6238 13.1085 10.8915 13.3762 11.0593 13.7055 C 11.1766 13.9358 11.2165 14.169 11.2339 14.3821 C 11.25 14.5798 11.25 14.8163 11.25 15.0738 L 11.25 17.5 C 11.25 20.1234 9.12335 22.25 6.5 22.25 C 3.87665 22.25 1.75 20.1234 1.75 17.5 C 1.75 14.8766 3.87665 12.75 6.5 12.75 L 8.92622 12.75 C 9.1837 12.75 9.42019 12.75 9.61787 12.7661 Z" fill="#FFFFFF" />
  <path fill-rule="nonzero" clip-rule="nonzero" d="M 12.75 6.5 C 12.75 3.87665 14.8766 1.75 17.5 1.75 C 20.1234 1.75 22.25 3.87665 22.25 6.5 C 22.25 9.12335 20.1234 11.25 17.5 11.25 H 14.6429 C 14.6337 11.25 14.6246 11.25 14.6154 11.25 C 14.5114 11.2501 14.4035 11.2502 14.3041 11.239 C 13.4927 11.1476 12.8524 10.5073 12.761 9.69594 C 12.7498 9.59653 12.7499 9.48858 12.75 9.38464 C 12.75 9.37544 12.75 9.36627 12.75 9.35714 V 6.5 Z M 17.5 3.25 C 15.7051 3.25 14.25 4.70507 14.25 6.5 V 9.35714 C 14.25 9.42638 14.25 9.4676 14.2506 9.4987 C 14.251 9.51848 14.2516 9.5271 14.2517 9.52916 C 14.2652 9.64412 14.3559 9.7348 14.4708 9.74829 C 14.4729 9.74844 14.4815 9.74897 14.5013 9.74936 C 14.5324 9.74997 14.5736 9.75 14.6429 9.75 H 17.5 C 19.2949 9.75 20.75 8.29493 20.75 6.5 C 20.75 4.70507 19.2949 3.25 17.5 3.25 Z" fill="#FFFFFF" />
</svg>