<svg xmlns="http://www.w3.org/2000/svg" width="24" height="24" viewBox="0 0 24 24" fill="none">
  <path fill-rule="nonzero" clip-rule="nonzero" d="M17.448 1.75 L17.552 1.75 C18.4505 1.74997 19.1997 1.74995 19.7945 1.82991 C20.4223 1.91432 20.9891 2.09999 21.4445 2.55546 C21.9 3.01093 22.0857 3.57773 22.1701 4.20552 C22.2501 4.80031 22.25 5.54953 22.25 6.44801 L22.25 6.552 C22.25 7.45048 22.2501 8.1997 22.1701 8.79448 C22.0857 9.42228 21.9 9.98908 21.4445 10.4445 C20.9891 10.9 20.4223 11.0857 19.7945 11.1701 C19.1997 11.2501 18.4505 11.25 17.552 11.25 L17.448 11.25 C16.5495 11.25 15.8003 11.2501 15.2055 11.1701 C14.5777 11.0857 14.0109 10.9 13.5555 10.4445 C13.1 9.98908 12.9143 9.42228 12.8299 8.79448 C12.7499 8.19971 12.75 7.45047 12.75 6.552 L12.75 6.44798 C12.75 5.54951 12.7499 4.8003 12.8299 4.20552 C12.9143 3.57773 13.1 3.01093 13.5555 2.55546 C14.0109 2.09999 14.5777 1.91432 15.2055 1.82991 C15.8003 1.74995 16.5495 1.74997 17.448 1.75 Z M14.6161 3.61612 C14.4858 3.74644 14.3786 3.94393 14.3165 4.4054 C14.2516 4.88843 14.25 5.53599 14.25 6.5 C14.25 7.46401 14.2516 8.11157 14.3165 8.59461 C14.3786 9.05607 14.4858 9.25357 14.6161 9.38389 C14.7464 9.5142 14.9439 9.62143 15.4054 9.68347 C15.8884 9.74841 16.536 9.75 17.5 9.75 C18.464 9.75 19.1116 9.74841 19.5946 9.68347 C20.0561 9.62143 20.2536 9.5142 20.3839 9.38389 C20.5142 9.25357 20.6214 9.05607 20.6835 8.59461 C20.7484 8.11157 20.75 7.46401 20.75 6.5 C20.75 5.53599 20.7484 4.88843 20.6835 4.4054 C20.6214 3.94393 20.5142 3.74644 20.3839 3.61612 C20.2536 3.4858 20.0561 3.37858 19.5946 3.31654 C19.1116 3.2516 18.464 3.25 17.5 3.25 C16.536 3.25 15.8884 3.2516 15.4054 3.31654 C14.9439 3.37858 14.7464 3.4858 14.6161 3.61612 Z" fill="#FFFFFF" />
  <path fill-rule="nonzero" clip-rule="nonzero" d="M6.44801 12.75 L6.55203 12.75 C7.4505 12.75 8.19971 12.7499 8.79448 12.8299 C9.42228 12.9143 9.98908 13.1 10.4445 13.5555 C10.9 14.0109 11.0857 14.5777 11.1701 15.2055 C11.2501 15.8003 11.25 16.5495 11.25 17.448 L11.25 17.552 C11.25 18.4505 11.2501 19.1997 11.1701 19.7945 C11.0857 20.4223 10.9 20.9891 10.4445 21.4445 C9.98908 21.9 9.42228 22.0857 8.79448 22.1701 C8.1997 22.2501 7.45048 22.25 6.552 22.25 L6.44801 22.25 C5.54953 22.25 4.80031 22.2501 4.20552 22.1701 C3.57773 22.0857 3.01093 21.9 2.55546 21.4445 C2.09999 20.9891 1.91432 20.4223 1.82991 19.7945 C1.74995 19.1997 1.74997 18.4505 1.75 17.552 L1.75 17.448 C1.74997 16.5495 1.74995 15.8003 1.82991 15.2055 C1.91432 14.5777 2.09999 14.0109 2.55546 13.5555 C3.01093 13.1 3.57773 12.9143 4.20552 12.8299 C4.8003 12.7499 5.54954 12.75 6.44801 12.75 Z M3.61612 14.6161 C3.4858 14.7464 3.37858 14.9439 3.31654 15.4054 C3.2516 15.8884 3.25 16.536 3.25 17.5 C3.25 18.464 3.2516 19.1116 3.31654 19.5946 C3.37858 20.0561 3.4858 20.2536 3.61612 20.3839 C3.74644 20.5142 3.94393 20.6214 4.4054 20.6835 C4.88843 20.7484 5.53599 20.75 6.5 20.75 C7.46401 20.75 8.11157 20.7484 8.59461 20.6835 C9.05607 20.6214 9.25357 20.5142 9.38389 20.3839 C9.5142 20.2536 9.62143 20.0561 9.68347 19.5946 C9.74841 19.1116 9.75 18.464 9.75 17.5 C9.75 16.536 9.74841 15.8884 9.68347 15.4054 C9.62143 14.9439 9.5142 14.7464 9.38389 14.6161 C9.25357 14.4858 9.05607 14.3786 8.59461 14.3165 C8.11157 14.2516 7.46401 14.25 6.5 14.25 C5.53599 14.25 4.88843 14.2516 4.4054 14.3165 C3.94393 14.3786 3.74644 14.4858 3.61612 14.6161 Z" fill="#FFFFFF" />
  <path fill-rule="nonzero" clip-rule="nonzero" d="M 1.75 6.5 C 1.75 3.87665 3.87665 1.75 6.5 1.75 C 9.12336 1.75 11.25 3.87665 11.25 6.5 C 11.25 9.12336 9.12336 11.25 6.5 11.25 C 3.87665 11.25 1.75 9.12336 1.75 6.5 Z M 6.5 3.25 C 4.70508 3.25 3.25 4.70508 3.25 6.5 C 3.25 8.29493 4.70508 9.75 6.5 9.75 C 8.29493 9.75 9.75 8.29493 9.75 6.5 C 9.75 4.70508 8.29493 3.25 6.5 3.25 Z" fill="#FFFFFF" />
  <path fill-rule="nonzero" clip-rule="nonzero" d="M 12.75 17.5 C 12.75 14.8767 14.8767 12.75 17.5 12.75 C 20.1234 12.75 22.25 14.8767 22.25 17.5 C 22.25 20.1234 20.1234 22.25 17.5 22.25 C 14.8767 22.25 12.75 20.1234 12.75 17.5 Z M 17.5 14.25 C 15.7051 14.25 14.25 15.7051 14.25 17.5 C 14.25 19.2949 15.7051 20.75 17.5 20.75 C 19.2949 20.75 20.75 19.2949 20.75 17.5 C 20.75 15.7051 19.2949 14.25 17.5 14.25 Z" fill="#FFFFFF" />
</svg>