<svg xmlns="http://www.w3.org/2000/svg" width="24" height="24" viewBox="0 0 24 24" fill="none">
  <path fill-rule="nonzero" clip-rule="nonzero" d="M6.448 1.75 L6.55203 1.75 C7.4505 1.74997 8.19971 1.74995 8.79448 1.82991 C9.42228 1.91432 9.98908 2.09999 10.4445 2.55546 C10.9 3.01093 11.0857 3.57773 11.1701 4.20552 C11.2501 4.8003 11.25 5.54954 11.25 6.44801 L11.25 6.55203 C11.25 7.4505 11.2501 8.19971 11.1701 8.79448 C11.0857 9.42228 10.9 9.98908 10.4445 10.4445 C9.98908 10.9 9.42228 11.0857 8.79448 11.1701 C8.19971 11.2501 7.45047 11.25 6.552 11.25 L6.44798 11.25 C5.54951 11.25 4.8003 11.2501 4.20552 11.1701 C3.57773 11.0857 3.01093 10.9 2.55546 10.4445 C2.09999 9.98908 1.91432 9.42228 1.82991 8.79448 C1.74995 8.19971 1.74997 7.45047 1.75 6.552 L1.75 6.44798 C1.74997 5.54951 1.74995 4.8003 1.82991 4.20552 C1.91432 3.57773 2.09999 3.01093 2.55546 2.55546 C3.01093 2.09999 3.57773 1.91432 4.20552 1.82991 C4.8003 1.74995 5.54954 1.74997 6.448 1.75 Z M3.61612 3.61612 C3.4858 3.74644 3.37858 3.94393 3.31654 4.4054 C3.2516 4.88843 3.25 5.53599 3.25 6.5 C3.25 7.46401 3.2516 8.11157 3.31654 8.59461 C3.37858 9.05607 3.4858 9.25357 3.61612 9.38389 C3.74644 9.5142 3.94393 9.62143 4.4054 9.68347 C4.88843 9.74841 5.53599 9.75 6.5 9.75 C7.46401 9.75 8.11157 9.74841 8.59461 9.68347 C9.05607 9.62143 9.25357 9.5142 9.38389 9.38389 C9.5142 9.25357 9.62143 9.05607 9.68347 8.59461 C9.74841 8.11157 9.75 7.46401 9.75 6.5 C9.75 5.53599 9.74841 4.88843 9.68347 4.4054 C9.62143 3.94393 9.5142 3.74644 9.38389 3.61612 C9.25357 3.4858 9.05607 3.37858 8.59461 3.31654 C8.11157 3.2516 7.46401 3.25 6.5 3.25 C5.53599 3.25 4.88843 3.2516 4.4054 3.31654 C3.94393 3.37858 3.74644 3.4858 3.61612 3.61612 Z" fill="#FFFFFF" />
  <path d="M18.25 3.5C18.25 3.08579 17.9142 2.75 17.5 2.75C17.0858 2.75 16.75 3.08579 16.75 3.5V5.75H14.5C14.0858 5.75 13.75 6.08579 13.75 6.5C13.75 6.91422 14.0858 7.25 14.5 7.25H16.75V9.5C16.75 9.91422 17.0858 10.25 17.5 10.25C17.9142 10.25 18.25 9.91422 18.25 9.5V7.25H20.5C20.9142 7.25 21.25 6.91422 21.25 6.5C21.25 6.08579 20.9142 5.75 20.5 5.75H18.25V3.5Z" fill="#FFFFFF" />
  <path fill-rule="nonzero" clip-rule="nonzero" d="M 17.448 12.75 H 17.552 C 18.4505 12.75 19.1997 12.7499 19.7945 12.8299 C 20.4223 12.9143 20.9891 13.1 21.4445 13.5555 C 21.9 14.0109 22.0857 14.5777 22.1701 15.2055 C 22.2501 15.8003 22.25 16.5495 22.25 17.4479 V 17.552 C 22.25 18.4505 22.2501 19.1997 22.1701 19.7945 C 22.0857 20.4223 21.9 20.9891 21.4445 21.4445 C 20.9891 21.9 20.4223 22.0857 19.7945 22.1701 C 19.1997 22.2501 18.4505 22.25 17.5521 22.25 H 17.448 C 16.5496 22.25 15.8003 22.2501 15.2055 22.1701 C 14.5777 22.0857 14.0109 21.9 13.5555 21.4445 C 13.1 20.9891 12.9143 20.4223 12.8299 19.7945 C 12.7499 19.1997 12.75 18.4505 12.75 17.552 V 17.448 C 12.75 16.5495 12.7499 15.8003 12.8299 15.2055 C 12.9143 14.5777 13.1 14.0109 13.5555 13.5555 C 14.0109 13.1 14.5777 12.9143 15.2055 12.8299 C 15.8003 12.7499 16.5495 12.75 17.448 12.75 Z M 15.4054 14.3165 C 14.9439 14.3786 14.7464 14.4858 14.6161 14.6161 C 14.4858 14.7464 14.3786 14.9439 14.3165 15.4054 C 14.2516 15.8884 14.25 16.536 14.25 17.5 C 14.25 18.464 14.2516 19.1116 14.3165 19.5946 C 14.3786 20.0561 14.4858 20.2536 14.6161 20.3839 C 14.7464 20.5142 14.9439 20.6214 15.4054 20.6835 C 15.8884 20.7484 16.536 20.75 17.5 20.75 C 18.464 20.75 19.1116 20.7484 19.5946 20.6835 C 20.0561 20.6214 20.2536 20.5142 20.3839 20.3839 C 20.5142 20.2536 20.6214 20.0561 20.6835 19.5946 C 20.7484 19.1116 20.75 18.464 20.75 17.5 C 20.75 16.536 20.7484 15.8884 20.6835 15.4054 C 20.6214 14.9439 20.5142 14.7464 20.3839 14.6161 C 20.2536 14.4858 20.0561 14.3786 19.5946 14.3165 C 19.1116 14.2516 18.464 14.25 17.5 14.25 C 16.536 14.25 15.8884 14.2516 15.4054 14.3165 Z" fill="#FFFFFF" />
  <path fill-rule="nonzero" clip-rule="nonzero" d="M6.448 12.75 L6.552 12.75 C7.45048 12.75 8.1997 12.7499 8.79448 12.8299 C9.42228 12.9143 9.98908 13.1 10.4445 13.5555 C10.9 14.0109 11.0857 14.5777 11.1701 15.2055 C11.2501 15.8003 11.25 16.5495 11.25 17.448 L11.25 17.552 C11.25 18.4505 11.2501 19.1997 11.1701 19.7945 C11.0857 20.4223 10.9 20.9891 10.4445 21.4445 C9.98908 21.9 9.42228 22.0857 8.79448 22.1701 C8.19971 22.2501 7.45047 22.25 6.552 22.25 L6.44798 22.25 C5.54951 22.25 4.8003 22.2501 4.20552 22.1701 C3.57773 22.0857 3.01093 21.9 2.55546 21.4445 C2.09999 20.9891 1.91432 20.4223 1.82991 19.7945 C1.74995 19.1997 1.74997 18.4505 1.75 17.552 L1.75 17.448 C1.74997 16.5495 1.74995 15.8003 1.82991 15.2055 C1.91432 14.5777 2.09999 14.0109 2.55546 13.5555 C3.01093 13.1 3.57773 12.9143 4.20552 12.8299 C4.8003 12.7499 5.54952 12.75 6.448 12.75 Z M3.61612 14.6161 C3.4858 14.7464 3.37858 14.9439 3.31654 15.4054 C3.2516 15.8884 3.25 16.536 3.25 17.5 C3.25 18.464 3.2516 19.1116 3.31654 19.5946 C3.37858 20.0561 3.4858 20.2536 3.61612 20.3839 C3.74644 20.5142 3.94393 20.6214 4.4054 20.6835 C4.88843 20.7484 5.53599 20.75 6.5 20.75 C7.46401 20.75 8.11157 20.7484 8.59461 20.6835 C9.05607 20.6214 9.25357 20.5142 9.38389 20.3839 C9.5142 20.2536 9.62143 20.0561 9.68347 19.5946 C9.74841 19.1116 9.75 18.464 9.75 17.5 C9.75 16.536 9.74841 15.8884 9.68347 15.4054 C9.62143 14.9439 9.5142 14.7464 9.38389 14.6161 C9.25357 14.4858 9.05607 14.3786 8.59461 14.3165 C8.11157 14.2516 7.46401 14.25 6.5 14.25 C5.53599 14.25 4.88843 14.2516 4.4054 14.3165 C3.94393 14.3786 3.74644 14.4858 3.61612 14.6161 Z" fill="#FFFFFF" />
</svg>