<svg xmlns="http://www.w3.org/2000/svg" width="24" height="24" viewBox="0 0 24 24" fill="none">
  <path fill-rule="nonzero" clip-rule="nonzero" d="M5.948 1.75 L6.05203 1.75 C6.9505 1.74997 7.69971 1.74995 8.29448 1.82991 C8.92228 1.91432 9.48908 2.09999 9.94455 2.55546 C10.4 3.01093 10.5857 3.57773 10.6701 4.20552 C10.7501 4.8003 10.75 5.54954 10.75 6.44801 L10.75 8.55203 C10.75 9.4505 10.7501 10.1997 10.6701 10.7945 C10.5857 11.4223 10.4 11.9891 9.94455 12.4445 C9.48908 12.9 8.92228 13.0857 8.29448 13.1701 C7.69971 13.2501 6.95047 13.25 6.052 13.25 L5.94798 13.25 C5.04951 13.25 4.3003 13.2501 3.70552 13.1701 C3.07773 13.0857 2.51093 12.9 2.05546 12.4445 C1.59999 11.9891 1.41432 11.4223 1.32991 10.7945 C1.24995 10.1997 1.24997 9.45047 1.25 8.552 L1.25 6.44798 C1.24997 5.54951 1.24995 4.8003 1.32991 4.20552 C1.41432 3.57773 1.59999 3.01093 2.05546 2.55546 C2.51093 2.09999 3.07773 1.91432 3.70552 1.82991 C4.3003 1.74995 5.04954 1.74997 5.948 1.75 Z M3.11612 3.61612 C2.9858 3.74644 2.87858 3.94393 2.81654 4.4054 C2.7516 4.88843 2.75 5.53599 2.75 6.5 L2.75 8.5 C2.75 9.46401 2.7516 10.1116 2.81654 10.5946 C2.87858 11.0561 2.9858 11.2536 3.11612 11.3839 C3.24644 11.5142 3.44393 11.6214 3.9054 11.6835 C4.38843 11.7484 5.03599 11.75 6 11.75 C6.96401 11.75 7.61157 11.7484 8.09461 11.6835 C8.55607 11.6214 8.75357 11.5142 8.88389 11.3839 C9.0142 11.2536 9.12143 11.0561 9.18347 10.5946 C9.24841 10.1116 9.25 9.46401 9.25 8.5 L9.25 6.5 C9.25 5.53599 9.24841 4.88843 9.18347 4.4054 C9.12143 3.94393 9.0142 3.74644 8.88389 3.61612 C8.75357 3.4858 8.55607 3.37858 8.09461 3.31654 C7.61157 3.2516 6.96401 3.25 6 3.25 C5.03599 3.25 4.38843 3.2516 3.9054 3.31654 C3.44393 3.37858 3.24644 3.4858 3.11612 3.61612 Z" fill="#FFFFFF" />
  <path fill-rule="nonzero" clip-rule="nonzero" d="M17.448 10.75 L17.552 10.75 C18.4505 10.75 19.1997 10.7499 19.7945 10.8299 C20.4223 10.9143 20.9891 11.1 21.4445 11.5555 C21.9 12.0109 22.0857 12.5777 22.1701 13.2055 C22.2501 13.8003 22.25 14.5496 22.25 15.448 L22.25 17.5521 C22.25 18.4505 22.2501 19.1997 22.1701 19.7945 C22.0857 20.4223 21.9 20.9891 21.4445 21.4445 C20.9891 21.9 20.4223 22.0857 19.7945 22.1701 C19.1997 22.2501 18.4504 22.25 17.552 22.25 L17.4479 22.25 C16.5495 22.25 15.8003 22.2501 15.2055 22.1701 C14.5777 22.0857 14.0109 21.9 13.5555 21.4445 C13.1 20.9891 12.9143 20.4223 12.8299 19.7945 C12.7499 19.1997 12.75 18.4505 12.75 17.552 L12.75 15.448 C12.75 14.5495 12.7499 13.8003 12.8299 13.2055 C12.9143 12.5777 13.1 12.0109 13.5555 11.5555 C14.0109 11.1 14.5777 10.9143 15.2055 10.8299 C15.8003 10.7499 16.5495 10.75 17.448 10.75 Z M14.6161 12.6161 C14.4858 12.7464 14.3786 12.9439 14.3165 13.4054 C14.2516 13.8884 14.25 14.536 14.25 15.5 L14.25 17.5 C14.25 18.464 14.2516 19.1116 14.3165 19.5946 C14.3786 20.0561 14.4858 20.2536 14.6161 20.3839 C14.7464 20.5142 14.9439 20.6214 15.4054 20.6835 C15.8884 20.7484 16.536 20.75 17.5 20.75 C18.464 20.75 19.1116 20.7484 19.5946 20.6835 C20.0561 20.6214 20.2536 20.5142 20.3839 20.3839 C20.5142 20.2536 20.6214 20.0561 20.6835 19.5946 C20.7484 19.1116 20.75 18.464 20.75 17.5 L20.75 15.5 C20.75 14.536 20.7484 13.8884 20.6835 13.4054 C20.6214 12.9439 20.5142 12.7464 20.3839 12.6161 C20.2536 12.4858 20.0561 12.3786 19.5946 12.3165 C19.1116 12.2516 18.464 12.25 17.5 12.25 C16.536 12.25 15.8884 12.2516 15.4054 12.3165 C14.9439 12.3786 14.7464 12.4858 14.6161 12.6161 Z" fill="#FFFFFF" />
  <path fill-rule="nonzero" clip-rule="nonzero" d="M 16.4748 1.75 H 18.5253 C 18.9697 1.75 19.3408 1.74999 19.6454 1.77077 C 19.9625 1.79241 20.262 1.83905 20.5524 1.95933 C 21.2262 2.23844 21.7616 2.7738 22.0407 3.44762 C 22.161 3.73801 22.2076 4.03754 22.2292 4.35464 C 22.25 4.65925 22.25 5.03029 22.25 5.47475 V 5.52526 C 22.25 5.96972 22.25 6.34076 22.2292 6.64537 C 22.2076 6.96247 22.161 7.26199 22.0407 7.55238 C 21.7616 8.22621 21.2262 8.76156 20.5524 9.04067 C 20.262 9.16095 19.9625 9.2076 19.6454 9.22923 C 19.3408 9.25002 18.9697 9.25001 18.5253 9.25 H 16.4747 C 16.0303 9.25001 15.6592 9.25002 15.3546 9.22923 C 15.0375 9.2076 14.738 9.16095 14.4476 9.04067 C 13.7738 8.76156 13.2384 8.22621 12.9593 7.55238 C 12.8391 7.26199 12.7924 6.96247 12.7708 6.64537 C 12.75 6.34075 12.75 5.96972 12.75 5.52525 V 5.47475 C 12.75 5.03029 12.75 4.65925 12.7708 4.35464 C 12.7924 4.03754 12.8391 3.73801 12.9593 3.44762 C 13.2384 2.7738 13.7738 2.23844 14.4476 1.95933 C 14.738 1.83905 15.0375 1.79241 15.3546 1.77077 C 15.6592 1.74999 16.0303 1.75 16.4748 1.75 Z M 15.4567 3.26729 C 15.216 3.28372 15.0988 3.3132 15.0216 3.34515 C 14.7154 3.47202 14.472 3.71536 14.3452 4.02165 C 14.3132 4.0988 14.2837 4.21602 14.2673 4.45675 C 14.2504 4.70421 14.25 5.0238 14.25 5.5 C 14.25 5.97621 14.2504 6.2958 14.2673 6.54326 C 14.2837 6.78399 14.3132 6.9012 14.3452 6.97836 C 14.472 7.28464 14.7154 7.52799 15.0216 7.65485 C 15.0988 7.68681 15.216 7.71629 15.4567 7.73271 C 15.7042 7.7496 16.0238 7.75 16.5 7.75 H 18.5 C 18.9762 7.75 19.2958 7.7496 19.5433 7.73271 C 19.784 7.71629 19.9012 7.68681 19.9784 7.65485 C 20.2846 7.52799 20.528 7.28464 20.6549 6.97836 C 20.6868 6.9012 20.7163 6.78399 20.7327 6.54326 C 20.7496 6.2958 20.75 5.97621 20.75 5.5 C 20.75 5.0238 20.7496 4.70421 20.7327 4.45674 C 20.7163 4.21602 20.6868 4.0988 20.6549 4.02165 C 20.528 3.71536 20.2846 3.47202 19.9784 3.34515 C 19.9012 3.3132 19.784 3.28372 19.5433 3.26729 C 19.2958 3.25041 18.9762 3.25 18.5 3.25 H 16.5 C 16.0238 3.25 15.7042 3.25041 15.4567 3.26729 Z" fill="#FFFFFF" />
  <path fill-rule="nonzero" clip-rule="nonzero" d="M4.97475 14.75 L7.02525 14.75 C7.46972 14.75 7.84075 14.75 8.14537 14.7708 C8.46247 14.7924 8.76199 14.8391 9.05238 14.9593 C9.72621 15.2384 10.2616 15.7738 10.5407 16.4476 C10.661 16.738 10.7076 17.0375 10.7292 17.3546 C10.75 17.6592 10.75 18.0303 10.75 18.4747 L10.75 18.5253 C10.75 18.9697 10.75 19.3408 10.7292 19.6454 C10.7076 19.9625 10.661 20.262 10.5407 20.5524 C10.2616 21.2262 9.72621 21.7616 9.05238 22.0407 C8.76199 22.161 8.46247 22.2076 8.14537 22.2292 C7.84076 22.25 7.46972 22.25 7.02526 22.25 L4.97475 22.25 C4.53029 22.25 4.15925 22.25 3.85464 22.2292 C3.53754 22.2076 3.23801 22.161 2.94762 22.0407 C2.2738 21.7616 1.73844 21.2262 1.45933 20.5524 C1.33905 20.262 1.29241 19.9625 1.27077 19.6454 C1.24999 19.3408 1.25 18.9697 1.25 18.5253 L1.25 18.4747 C1.25 18.0302 1.24999 17.6592 1.27077 17.3546 C1.29241 17.0375 1.33905 16.738 1.45933 16.4476 C1.73844 15.7738 2.2738 15.2384 2.94762 14.9593 C3.23801 14.8391 3.53754 14.7924 3.85464 14.7708 C4.15925 14.75 4.53029 14.75 4.97475 14.75 Z M3.52165 16.3452 C3.21536 16.472 2.97202 16.7154 2.84515 17.0216 C2.8132 17.0988 2.78372 17.216 2.76729 17.4567 C2.75041 17.7042 2.75 18.0238 2.75 18.5 C2.75 18.9762 2.75041 19.2958 2.76729 19.5433 C2.78372 19.784 2.8132 19.9012 2.84515 19.9784 C2.97202 20.2846 3.21536 20.528 3.52165 20.6549 C3.5988 20.6868 3.71602 20.7163 3.95674 20.7327 C4.20421 20.7496 4.5238 20.75 5 20.75 L7 20.75 C7.47621 20.75 7.7958 20.7496 8.04326 20.7327 C8.28399 20.7163 8.4012 20.6868 8.47836 20.6549 C8.78464 20.528 9.02799 20.2846 9.15485 19.9784 C9.18681 19.9012 9.21629 19.784 9.23271 19.5433 C9.2496 19.2958 9.25 18.9762 9.25 18.5 C9.25 18.0238 9.2496 17.7042 9.23271 17.4567 C9.21629 17.216 9.18681 17.0988 9.15485 17.0216 C9.02799 16.7154 8.78464 16.472 8.47836 16.3452 C8.4012 16.3132 8.28399 16.2837 8.04326 16.2673 C7.7958 16.2504 7.47621 16.25 7 16.25 L5 16.25 C4.5238 16.25 4.20421 16.2504 3.95675 16.2673 C3.71602 16.2837 3.5988 16.3132 3.52165 16.3452 Z" fill="#FFFFFF" />
</svg>