<svg xmlns="http://www.w3.org/2000/svg" width="24" height="24" viewBox="0 0 24 24" fill="none">
  <path fill-rule="nonzero" clip-rule="nonzero" d="M 6.448 1.75 H 6.552 C 7.45047 1.74997 8.19971 1.74995 8.79448 1.82991 C 9.42228 1.91432 9.98908 2.09999 10.4445 2.55546 C 10.9 3.01093 11.0857 3.57773 11.1701 4.20552 C 11.2501 4.8003 11.25 5.54951 11.25 6.44798 V 17.552 C 11.25 18.4505 11.2501 19.1997 11.1701 19.7945 C 11.0857 20.4223 10.9 20.9891 10.4445 21.4445 C 9.98908 21.9 9.42228 22.0857 8.79448 22.1701 C 8.1997 22.2501 7.45048 22.25 6.552 22.25 H 6.44801 C 5.54953 22.25 4.80031 22.2501 4.20552 22.1701 C 3.57773 22.0857 3.01093 21.9 2.55546 21.4445 C 2.09999 20.9891 1.91432 20.4223 1.82991 19.7945 C 1.74995 19.1997 1.74997 18.4505 1.75 17.552 V 6.448 C 1.74997 5.54954 1.74995 4.8003 1.82991 4.20552 C 1.91432 3.57773 2.09999 3.01093 2.55546 2.55546 C 3.01093 2.09999 3.57773 1.91432 4.20552 1.82991 C 4.8003 1.74995 5.54954 1.74997 6.448 1.75 Z M 4.4054 3.31654 C 3.94393 3.37858 3.74644 3.4858 3.61612 3.61612 C 3.4858 3.74644 3.37858 3.94393 3.31654 4.4054 C 3.2516 4.88843 3.25 5.53599 3.25 6.5 V 17.5 C 3.25 18.464 3.2516 19.1116 3.31654 19.5946 C 3.37858 20.0561 3.4858 20.2536 3.61612 20.3839 C 3.74644 20.5142 3.94393 20.6214 4.4054 20.6835 C 4.88843 20.7484 5.53599 20.75 6.5 20.75 C 7.46401 20.75 8.11157 20.7484 8.59461 20.6835 C 9.05607 20.6214 9.25357 20.5142 9.38389 20.3839 C 9.5142 20.2536 9.62143 20.0561 9.68347 19.5946 C 9.74841 19.1116 9.75 18.464 9.75 17.5 V 6.5 C 9.75 5.53599 9.74841 4.88843 9.68347 4.4054 C 9.62143 3.94393 9.5142 3.74644 9.38389 3.61612 C 9.25357 3.4858 9.05607 3.37858 8.59461 3.31654 C 8.11157 3.2516 7.46401 3.25 6.5 3.25 C 5.53599 3.25 4.88843 3.2516 4.4054 3.31654 Z" fill="#FFFFFF" />
  <path fill-rule="nonzero" clip-rule="nonzero" d="M 17.448 10.75 H 17.552 C 18.4505 10.75 19.1997 10.7499 19.7945 10.8299 C 20.4223 10.9143 20.9891 11.1 21.4445 11.5555 C 21.9 12.0109 22.0857 12.5777 22.1701 13.2055 C 22.2501 13.8003 22.25 14.5495 22.25 15.4479 V 17.552 C 22.25 18.4505 22.2501 19.1997 22.1701 19.7945 C 22.0857 20.4223 21.9 20.9891 21.4445 21.4445 C 20.9891 21.9 20.4223 22.0857 19.7945 22.1701 C 19.1997 22.2501 18.4505 22.25 17.5521 22.25 H 17.448 C 16.5496 22.25 15.8003 22.2501 15.2055 22.1701 C 14.5777 22.0857 14.0109 21.9 13.5555 21.4445 C 13.1 20.9891 12.9143 20.4223 12.8299 19.7945 C 12.7499 19.1997 12.75 18.4505 12.75 17.552 V 15.448 C 12.75 14.5495 12.7499 13.8003 12.8299 13.2055 C 12.9143 12.5777 13.1 12.0109 13.5555 11.5555 C 14.0109 11.1 14.5777 10.9143 15.2055 10.8299 C 15.8003 10.7499 16.5495 10.75 17.448 10.75 Z M 15.4054 12.3165 C 14.9439 12.3786 14.7464 12.4858 14.6161 12.6161 C 14.4858 12.7464 14.3786 12.9439 14.3165 13.4054 C 14.2516 13.8884 14.25 14.536 14.25 15.5 V 17.5 C 14.25 18.464 14.2516 19.1116 14.3165 19.5946 C 14.3786 20.0561 14.4858 20.2536 14.6161 20.3839 C 14.7464 20.5142 14.9439 20.6214 15.4054 20.6835 C 15.8884 20.7484 16.536 20.75 17.5 20.75 C 18.464 20.75 19.1116 20.7484 19.5946 20.6835 C 20.0561 20.6214 20.2536 20.5142 20.3839 20.3839 C 20.5142 20.2536 20.6214 20.0561 20.6835 19.5946 C 20.7484 19.1116 20.75 18.464 20.75 17.5 V 15.5 C 20.75 14.536 20.7484 13.8884 20.6835 13.4054 C 20.6214 12.9439 20.5142 12.7464 20.3839 12.6161 C 20.2536 12.4858 20.0561 12.3786 19.5946 12.3165 C 19.1116 12.2516 18.464 12.25 17.5 12.25 C 16.536 12.25 15.8884 12.2516 15.4054 12.3165 Z" fill="#FFFFFF" />
  <path fill-rule="nonzero" clip-rule="nonzero" d="M16.4748 1.75 L18.5254 1.75 C18.9698 1.75 19.3408 1.74999 19.6454 1.77077 C19.9625 1.79241 20.262 1.83905 20.5524 1.95933 C21.2262 2.23844 21.7616 2.7738 22.0407 3.44762 C22.161 3.73801 22.2076 4.03754 22.2292 4.35464 C22.25 4.65925 22.25 5.03029 22.25 5.47475 L22.25 5.52526 C22.25 5.96972 22.25 6.34076 22.2292 6.64537 C22.2076 6.96247 22.161 7.26199 22.0407 7.55238 C21.7616 8.22621 21.2262 8.76156 20.5524 9.04067 C20.262 9.16095 19.9625 9.2076 19.6454 9.22923 C19.3408 9.25002 18.9697 9.25001 18.5253 9.25 L16.4747 9.25 C16.0303 9.25001 15.6592 9.25002 15.3546 9.22923 C15.0375 9.2076 14.738 9.16095 14.4476 9.04067 C13.7738 8.76156 13.2384 8.22621 12.9593 7.55238 C12.8391 7.26199 12.7924 6.96247 12.7708 6.64537 C12.75 6.34075 12.75 5.96972 12.75 5.52525 L12.75 5.47475 C12.75 5.03029 12.75 4.65925 12.7708 4.35464 C12.7924 4.03754 12.8391 3.73801 12.9593 3.44762 C13.2384 2.7738 13.7738 2.23844 14.4476 1.95933 C14.738 1.83905 15.0375 1.79241 15.3546 1.77077 C15.6592 1.74999 16.0303 1.75 16.4748 1.75 Z M15.0216 3.34515 C14.7154 3.47202 14.472 3.71536 14.3452 4.02165 C14.3132 4.0988 14.2837 4.21602 14.2673 4.45675 C14.2504 4.70421 14.25 5.0238 14.25 5.5 C14.25 5.97621 14.2504 6.2958 14.2673 6.54326 C14.2837 6.78399 14.3132 6.9012 14.3452 6.97836 C14.472 7.28464 14.7154 7.52799 15.0216 7.65485 C15.0988 7.68681 15.216 7.71629 15.4567 7.73271 C15.7042 7.7496 16.0238 7.75 16.5 7.75 L18.5 7.75 C18.9762 7.75 19.2958 7.7496 19.5433 7.73271 C19.784 7.71629 19.9012 7.68681 19.9784 7.65485 C20.2846 7.52799 20.528 7.28464 20.6549 6.97836 C20.6868 6.9012 20.7163 6.78399 20.7327 6.54326 C20.7496 6.2958 20.75 5.97621 20.75 5.5 C20.75 5.0238 20.7496 4.70421 20.7327 4.45674 C20.7163 4.21602 20.6868 4.0988 20.6549 4.02165 C20.528 3.71536 20.2846 3.47202 19.9784 3.34515 C19.9012 3.3132 19.784 3.28372 19.5433 3.26729 C19.2958 3.25041 18.9762 3.25 18.5 3.25 L16.5 3.25 C16.0238 3.25 15.7042 3.25041 15.4567 3.26729 C15.216 3.28372 15.0988 3.3132 15.0216 3.34515 Z" fill="#FFFFFF" />
</svg>