<svg xmlns="http://www.w3.org/2000/svg" width="24" height="24" viewBox="0 0 24 24" fill="none">
  <path fill-rule="nonzero" clip-rule="nonzero" d="M6.5 1.75 C9.12335 1.75 11.25 3.87665 11.25 6.5 C11.25 9.12335 9.12335 11.25 6.5 11.25 C3.87665 11.25 1.75 9.12335 1.75 6.5 C1.75 3.87665 3.87665 1.75 6.5 1.75 Z M3.25 6.5 C3.25 8.29493 4.70507 9.75 6.5 9.75 C8.29493 9.75 9.75 8.29493 9.75 6.5 C9.75 4.70507 8.29493 3.25 6.5 3.25 C4.70507 3.25 3.25 4.70507 3.25 6.5 Z" fill="#FFFFFF" />
  <path fill-rule="nonzero" clip-rule="nonzero" d="M17.5 12.75 C20.1234 12.75 22.25 14.8766 22.25 17.5 C22.25 20.1234 20.1234 22.25 17.5 22.25 C14.8766 22.25 12.75 20.1234 12.75 17.5 C12.75 14.8766 14.8766 12.75 17.5 12.75 Z M14.25 17.5 C14.25 19.2949 15.7051 20.75 17.5 20.75 C19.2949 20.75 20.75 19.2949 20.75 17.5 C20.75 15.7051 19.2949 14.25 17.5 14.25 C15.7051 14.25 14.25 15.7051 14.25 17.5 Z" fill="#FFFFFF" />
  <path fill-rule="nonzero" clip-rule="nonzero" d="M 12.75 6.5 C 12.75 3.87665 14.8766 1.75 17.5 1.75 C 20.1234 1.75 22.25 3.87665 22.25 6.5 C 22.25 9.12335 20.1234 11.25 17.5 11.25 C 14.8766 11.25 12.75 9.12335 12.75 6.5 Z M 17.5 3.25 C 15.7051 3.25 14.25 4.70507 14.25 6.5 C 14.25 8.29493 15.7051 9.75 17.5 9.75 C 19.2949 9.75 20.75 8.29493 20.75 6.5 C 20.75 4.70507 19.2949 3.25 17.5 3.25 Z" fill="#FFFFFF" />
  <path fill-rule="nonzero" clip-rule="nonzero" d="M6.5 12.75 C9.12335 12.75 11.25 14.8766 11.25 17.5 C11.25 20.1234 9.12335 22.25 6.5 22.25 C3.87665 22.25 1.75 20.1234 1.75 17.5 C1.75 14.8766 3.87665 12.75 6.5 12.75 Z M3.25 17.5 C3.25 19.2949 4.70507 20.75 6.5 20.75 C8.29493 20.75 9.75 19.2949 9.75 17.5 C9.75 15.7051 8.29493 14.25 6.5 14.25 C4.70507 14.25 3.25 15.7051 3.25 17.5 Z" fill="#FFFFFF" />
</svg>